<?xml version='1.0' encoding='ASCII' standalone='yes'?>
<svg xmlns:svg="http://www.w3.org/2000/svg" xmlns="http://www.w3.org/2000/svg" xmlns:xlink="http://www.w3.org/1999/xlink" version="1.1" width="9.999980cm" height="9.999980cm" viewBox="0 0 99999800 99999800">
<title>SVG Picture created as kicadBoard-B_Cu.svg date 2022/12/03 03:31:31 </title>
  <desc>Picture generated by PCBNEW </desc>
<g style="fill:#000000; fill-opacity:1.000000;stroke:#000000; stroke-opacity:1.000000; stroke-linecap:round; stroke-linejoin:round;" transform="translate(0 0) scale(1 1)">
</g>
<g style="fill:#000000; fill-opacity:0.0;  stroke:#000000; stroke-width:0.000000; stroke-opacity:1;  stroke-linecap:round; stroke-linejoin:round;">
<g>
</g>
<g style="fill:#4D7FC4; fill-opacity:0.0;  stroke:#4D7FC4; stroke-width:0.000000; stroke-opacity:1;  stroke-linecap:round; stroke-linejoin:round;">
</g>
<g style="fill:#4D7FC4; fill-opacity:0.0;  stroke:#4D7FC4; stroke-width:1.000000; stroke-opacity:1;  stroke-linecap:round; stroke-linejoin:round;">
</g>
<g style="fill:#4D7FC4; fill-opacity:1.0;  stroke:#4D7FC4; stroke-width:1.000000; stroke-opacity:1;  stroke-linecap:round; stroke-linejoin:round;">
<path style="fill:#4D7FC4; fill-opacity:1.0;  stroke:#4D7FC4; stroke-width:1.000000; stroke-opacity:1;  stroke-linecap:round; stroke-linejoin:round;fill-rule:evenodd;" d="M 43650000.000000,54445000.000000 44285000.000000,53810000.000000 45555000.000000,53810000.000000 46190000.000000,54445000.000000 46190000.000000,55715000.000000 45555000.000000,56350000.000000 44285000.000000,56350000.000000 43650000.000000,55715000.000000 Z"/> 
<path style="fill:#4D7FC4; fill-opacity:1.0;  stroke:#4D7FC4; stroke-width:1.000000; stroke-opacity:1;  stroke-linecap:round; stroke-linejoin:round;fill-rule:evenodd;" d="M 43650000.000000,44285000.000000 44285000.000000,43650000.000000 45555000.000000,43650000.000000 46190000.000000,44285000.000000 46190000.000000,45555000.000000 45555000.000000,46190000.000000 44285000.000000,46190000.000000 43650000.000000,45555000.000000 Z"/> 
<path style="fill:#4D7FC4; fill-opacity:1.0;  stroke:#4D7FC4; stroke-width:1.000000; stroke-opacity:1;  stroke-linecap:round; stroke-linejoin:round;fill-rule:evenodd;" d="M 55969000.000000,49365000.000000 56604000.000000,48730000.000000 57874000.000000,48730000.000000 58509000.000000,49365000.000000 58509000.000000,50635000.000000 57874000.000000,51270000.000000 56604000.000000,51270000.000000 55969000.000000,50635000.000000 Z"/> 
</g>
<g>
</g>
<g>
</g>
<g>
</g>
</g>
<g style="fill:#FFFFFF; fill-opacity:1.0;  stroke:#FFFFFF; stroke-width:1.000000; stroke-opacity:1;  stroke-linecap:round; stroke-linejoin:round;">
<circle cx="44920000.000000" cy="55080000.000000" r="558800.000000"/> 
</g>
<g style="fill:#FFFFFF; fill-opacity:1.0;  stroke:#FFFFFF; stroke-width:21200.000000; stroke-opacity:1;  stroke-linecap:round; stroke-linejoin:round;">
</g>
<g style="fill:#FFFFFF; fill-opacity:1.0;  stroke:#FFFFFF; stroke-width:1.000000; stroke-opacity:1;  stroke-linecap:round; stroke-linejoin:round;">
<circle cx="44920000.000000" cy="44920000.000000" r="558800.000000"/> 
</g>
<g style="fill:#FFFFFF; fill-opacity:1.0;  stroke:#FFFFFF; stroke-width:21200.000000; stroke-opacity:1;  stroke-linecap:round; stroke-linejoin:round;">
</g>
<g style="fill:#FFFFFF; fill-opacity:1.0;  stroke:#FFFFFF; stroke-width:1.000000; stroke-opacity:1;  stroke-linecap:round; stroke-linejoin:round;">
<circle cx="57239000.000000" cy="50000000.000000" r="558800.000000"/> 
</g>
<g style="fill:#FFFFFF; fill-opacity:1.0;  stroke:#FFFFFF; stroke-width:21200.000000; stroke-opacity:1;  stroke-linecap:round; stroke-linejoin:round;">
</g>
<g style="fill:#000000; fill-opacity:1.0;  stroke:#000000; stroke-width:21200.000000; stroke-opacity:1;  stroke-linecap:round; stroke-linejoin:round;">
<g>
</g>
<g>
</g>
<g>
</g>
<g>
</g>
</g> 
<svg:g><svg:title>SVG Picture created as kicadBoard-B_Adhesive.svg date 2022/12/03 03:31:31 </svg:title>
  <svg:desc>Picture generated by PCBNEW </svg:desc>
<svg:g style="fill:#000000; fill-opacity:1.000000;stroke:#000000; stroke-opacity:1.000000; stroke-linecap:round; stroke-linejoin:round;" transform="translate(0 0) scale(1 1)">
</svg:g>
<svg:g style="fill:#000000; fill-opacity:0.0;  stroke:#000000; stroke-width:0.000000; stroke-opacity:1;  stroke-linecap:round; stroke-linejoin:round;">
<svg:g>
</svg:g>
<svg:g>
</svg:g>
<svg:g>
</svg:g>
<svg:g>
</svg:g>
</svg:g>
<svg:g style="fill:#000000; fill-opacity:0.0;  stroke:#000000; stroke-width:0.000000; stroke-opacity:1;  stroke-linecap:round; stroke-linejoin:round;">
<svg:g>
</svg:g>
<svg:g>
</svg:g>
<svg:g>
</svg:g>
<svg:g>
</svg:g>
</svg:g> 
</svg:g><svg:g><svg:title>SVG Picture created as kicadBoard-B_Courtyard.svg date 2022/12/03 03:31:31 </svg:title>
  <svg:desc>Picture generated by PCBNEW </svg:desc>
<svg:g style="fill:#000000; fill-opacity:1.000000;stroke:#000000; stroke-opacity:1.000000; stroke-linecap:round; stroke-linejoin:round;" transform="translate(0 0) scale(1 1)">
</svg:g>
<svg:g style="fill:#000000; fill-opacity:0.0;  stroke:#000000; stroke-width:0.000000; stroke-opacity:1;  stroke-linecap:round; stroke-linejoin:round;">
<svg:g>
</svg:g>
<svg:g>
</svg:g>
<svg:g>
</svg:g>
<svg:g>
</svg:g>
</svg:g>
<svg:g style="fill:#000000; fill-opacity:0.0;  stroke:#000000; stroke-width:0.000000; stroke-opacity:1;  stroke-linecap:round; stroke-linejoin:round;">
<svg:g>
</svg:g>
<svg:g>
</svg:g>
<svg:g>
</svg:g>
<svg:g>
</svg:g>
</svg:g> 
</svg:g><svg:g><svg:title>SVG Picture created as kicadBoard-B_Fab.svg date 2022/12/03 03:31:31 </svg:title>
  <svg:desc>Picture generated by PCBNEW </svg:desc>
<svg:g style="fill:#000000; fill-opacity:1.000000;stroke:#000000; stroke-opacity:1.000000; stroke-linecap:round; stroke-linejoin:round;" transform="translate(0 0) scale(1 1)">
</svg:g>
<svg:g style="fill:#000000; fill-opacity:0.0;  stroke:#000000; stroke-width:0.000000; stroke-opacity:1;  stroke-linecap:round; stroke-linejoin:round;">
<svg:g>
</svg:g>
<svg:g>
</svg:g>
<svg:g>
</svg:g>
<svg:g>
</svg:g>
</svg:g>
<svg:g style="fill:#000000; fill-opacity:0.0;  stroke:#000000; stroke-width:0.000000; stroke-opacity:1;  stroke-linecap:round; stroke-linejoin:round;">
<svg:g>
</svg:g>
<svg:g>
</svg:g>
<svg:g>
</svg:g>
<svg:g>
</svg:g>
</svg:g> 
</svg:g><svg:g><svg:title>SVG Picture created as kicadBoard-B_Mask.svg date 2022/12/03 03:31:31 </svg:title>
  <svg:desc>Picture generated by PCBNEW </svg:desc>
<svg:g style="fill:#000000; fill-opacity:1.000000;stroke:#000000; stroke-opacity:1.000000; stroke-linecap:round; stroke-linejoin:round;" transform="translate(0 0) scale(1 1)">
</svg:g>
<svg:g style="fill:#000000; fill-opacity:0.0;  stroke:#000000; stroke-width:0.000000; stroke-opacity:1;  stroke-linecap:round; stroke-linejoin:round;">
<svg:g>
</svg:g>
<svg:g style="fill:#000000; fill-opacity:0.0;  stroke:#000000; stroke-width:1.000000; stroke-opacity:1;  stroke-linecap:round; stroke-linejoin:round;">
</svg:g>
<svg:g style="fill:#000000; fill-opacity:1.0;  stroke:#000000; stroke-width:1.000000; stroke-opacity:1;  stroke-linecap:round; stroke-linejoin:round;">
<svg:path style="fill:#000000; fill-opacity:1.0;  stroke:#000000; stroke-width:1.000000; stroke-opacity:1;  stroke-linecap:round; stroke-linejoin:round;fill-rule:evenodd;" d="M 45614719.000000,53727804.000000 45626842.000000,53738158.000000 46261842.000000,54373158.000000 46290349.000000,54429106.000000 46291600.000000,54445000.000000 46291600.000000,55715000.000000 46272196.000000,55774719.000000 46261842.000000,55786842.000000 45626842.000000,56421842.000000 45570894.000000,56450349.000000 45555000.000000,56451600.000000 44285000.000000,56451600.000000 44225281.000000,56432196.000000 44213158.000000,56421842.000000 43578158.000000,55786842.000000 43549651.000000,55730894.000000 43548400.000000,55715000.000000 43548400.000000,54445000.000000 43567804.000000,54385281.000000 43578158.000000,54373158.000000 44213158.000000,53738158.000000 44269106.000000,53709651.000000 44285000.000000,53708400.000000 45555000.000000,53708400.000000 Z"/> 
<svg:path style="fill:#000000; fill-opacity:1.0;  stroke:#000000; stroke-width:1.000000; stroke-opacity:1;  stroke-linecap:round; stroke-linejoin:round;fill-rule:evenodd;" d="M 45614719.000000,43567804.000000 45626842.000000,43578158.000000 46261842.000000,44213158.000000 46290349.000000,44269106.000000 46291600.000000,44285000.000000 46291600.000000,45555000.000000 46272196.000000,45614719.000000 46261842.000000,45626842.000000 45626842.000000,46261842.000000 45570894.000000,46290349.000000 45555000.000000,46291600.000000 44285000.000000,46291600.000000 44225281.000000,46272196.000000 44213158.000000,46261842.000000 43578158.000000,45626842.000000 43549651.000000,45570894.000000 43548400.000000,45555000.000000 43548400.000000,44285000.000000 43567804.000000,44225281.000000 43578158.000000,44213158.000000 44213158.000000,43578158.000000 44269106.000000,43549651.000000 44285000.000000,43548400.000000 45555000.000000,43548400.000000 Z"/> 
<svg:path style="fill:#000000; fill-opacity:1.0;  stroke:#000000; stroke-width:1.000000; stroke-opacity:1;  stroke-linecap:round; stroke-linejoin:round;fill-rule:evenodd;" d="M 57933719.000000,48647804.000000 57945842.000000,48658158.000000 58580842.000000,49293158.000000 58609349.000000,49349106.000000 58610600.000000,49365000.000000 58610600.000000,50635000.000000 58591196.000000,50694719.000000 58580842.000000,50706842.000000 57945842.000000,51341842.000000 57889894.000000,51370349.000000 57874000.000000,51371600.000000 56604000.000000,51371600.000000 56544281.000000,51352196.000000 56532158.000000,51341842.000000 55897158.000000,50706842.000000 55868651.000000,50650894.000000 55867400.000000,50635000.000000 55867400.000000,49365000.000000 55886804.000000,49305281.000000 55897158.000000,49293158.000000 56532158.000000,48658158.000000 56588106.000000,48629651.000000 56604000.000000,48628400.000000 57874000.000000,48628400.000000 Z"/> 
</svg:g>
<svg:g>
</svg:g>
<svg:g>
</svg:g>
<svg:g>
</svg:g>
</svg:g>
<svg:g style="fill:#000000; fill-opacity:1.0;  stroke:#000000; stroke-width:1.000000; stroke-opacity:1;  stroke-linecap:round; stroke-linejoin:round;">
<svg:g>
</svg:g>
<svg:g>
</svg:g>
<svg:g>
</svg:g>
<svg:g>
</svg:g>
</svg:g> 
</svg:g><svg:g><svg:title>SVG Picture created as kicadBoard-B_Paste.svg date 2022/12/03 03:31:31 </svg:title>
  <svg:desc>Picture generated by PCBNEW </svg:desc>
<svg:g style="fill:#000000; fill-opacity:1.000000;stroke:#000000; stroke-opacity:1.000000; stroke-linecap:round; stroke-linejoin:round;" transform="translate(0 0) scale(1 1)">
</svg:g>
<svg:g style="fill:#000000; fill-opacity:0.0;  stroke:#000000; stroke-width:0.000000; stroke-opacity:1;  stroke-linecap:round; stroke-linejoin:round;">
<svg:g>
</svg:g>
<svg:g>
</svg:g>
<svg:g>
</svg:g>
<svg:g>
</svg:g>
</svg:g>
<svg:g style="fill:#000000; fill-opacity:0.0;  stroke:#000000; stroke-width:0.000000; stroke-opacity:1;  stroke-linecap:round; stroke-linejoin:round;">
<svg:g>
</svg:g>
<svg:g>
</svg:g>
<svg:g>
</svg:g>
<svg:g>
</svg:g>
</svg:g> 
</svg:g><svg:g><svg:title>SVG Picture created as kicadBoard-B_Silkscreen.svg date 2022/12/03 03:31:31 </svg:title>
  <svg:desc>Picture generated by PCBNEW </svg:desc>
<svg:g style="fill:#000000; fill-opacity:1.000000;stroke:#000000; stroke-opacity:1.000000; stroke-linecap:round; stroke-linejoin:round;" transform="translate(0 0) scale(1 1)">
</svg:g>
<svg:g style="fill:#000000; fill-opacity:0.0;  stroke:#000000; stroke-width:0.000000; stroke-opacity:1;  stroke-linecap:round; stroke-linejoin:round;">
<svg:g>
</svg:g>
<svg:g>
</svg:g>
<svg:g>
</svg:g>
<svg:g>
</svg:g>
</svg:g>
<svg:g style="fill:#000000; fill-opacity:0.0;  stroke:#000000; stroke-width:0.000000; stroke-opacity:1;  stroke-linecap:round; stroke-linejoin:round;">
<svg:g>
</svg:g>
<svg:g>
</svg:g>
<svg:g>
</svg:g>
<svg:g>
</svg:g>
</svg:g> 
</svg:g><svg:g><svg:title>SVG Picture created as kicadBoard-Edge_Cuts.svg date 2022/12/03 03:31:31 </svg:title>
  <svg:desc>Picture generated by PCBNEW </svg:desc>
<svg:g style="fill:#000000; fill-opacity:1.000000;stroke:#000000; stroke-opacity:1.000000; stroke-linecap:round; stroke-linejoin:round;" transform="translate(0 0) scale(1 1)">
</svg:g>
<svg:g style="fill:#000000; fill-opacity:0.0;  stroke:#000000; stroke-width:0.000000; stroke-opacity:1;  stroke-linecap:round; stroke-linejoin:round;">
<svg:g>
</svg:g>
<svg:g>
</svg:g>
<svg:g>
</svg:g>
<svg:g>
</svg:g>
</svg:g> 
</svg:g><svg:g><svg:title>SVG Picture created as kicadBoard-F_Adhesive.svg date 2022/12/03 03:31:31 </svg:title>
  <svg:desc>Picture generated by PCBNEW </svg:desc>
<svg:g style="fill:#000000; fill-opacity:1.000000;stroke:#000000; stroke-opacity:1.000000; stroke-linecap:round; stroke-linejoin:round;" transform="translate(0 0) scale(1 1)">
</svg:g>
<svg:g style="fill:#000000; fill-opacity:0.0;  stroke:#000000; stroke-width:0.000000; stroke-opacity:1;  stroke-linecap:round; stroke-linejoin:round;">
<svg:g>
</svg:g>
<svg:g>
</svg:g>
<svg:g>
</svg:g>
<svg:g>
</svg:g>
</svg:g>
<svg:g style="fill:#000000; fill-opacity:0.0;  stroke:#000000; stroke-width:0.000000; stroke-opacity:1;  stroke-linecap:round; stroke-linejoin:round;">
<svg:g>
</svg:g>
<svg:g>
</svg:g>
<svg:g>
</svg:g>
<svg:g>
</svg:g>
</svg:g> 
</svg:g><svg:g><svg:title>SVG Picture created as kicadBoard-F_Courtyard.svg date 2022/12/03 03:31:31 </svg:title>
  <svg:desc>Picture generated by PCBNEW </svg:desc>
<svg:g style="fill:#000000; fill-opacity:1.000000;stroke:#000000; stroke-opacity:1.000000; stroke-linecap:round; stroke-linejoin:round;" transform="translate(0 0) scale(1 1)">
</svg:g>
<svg:g style="fill:#000000; fill-opacity:0.0;  stroke:#000000; stroke-width:0.000000; stroke-opacity:1;  stroke-linecap:round; stroke-linejoin:round;">
<svg:g>
</svg:g>
<svg:g>
</svg:g>
<svg:g>
</svg:g>
<svg:g>
</svg:g>
</svg:g>
<svg:g style="fill:#000000; fill-opacity:0.0;  stroke:#000000; stroke-width:0.000000; stroke-opacity:1;  stroke-linecap:round; stroke-linejoin:round;">
<svg:g>
</svg:g>
<svg:g>
</svg:g>
<svg:g>
</svg:g>
<svg:g>
</svg:g>
</svg:g> 
</svg:g><svg:g><svg:title>SVG Picture created as kicadBoard-F_Cu.svg date 2022/12/03 03:31:31 </svg:title>
  <svg:desc>Picture generated by PCBNEW </svg:desc>
<svg:g style="fill:#000000; fill-opacity:1.000000;stroke:#000000; stroke-opacity:1.000000; stroke-linecap:round; stroke-linejoin:round;" transform="translate(0 0) scale(1 1)">
</svg:g>
<svg:g style="fill:#000000; fill-opacity:0.0;  stroke:#000000; stroke-width:0.000000; stroke-opacity:1;  stroke-linecap:round; stroke-linejoin:round;">
<svg:g>
</svg:g>
<svg:g style="fill:#C83434; fill-opacity:0.0;  stroke:#C83434; stroke-width:0.000000; stroke-opacity:1;  stroke-linecap:round; stroke-linejoin:round;">
</svg:g>
<svg:g style="fill:#C83434; fill-opacity:0.0;  stroke:#C83434; stroke-width:1.000000; stroke-opacity:1;  stroke-linecap:round; stroke-linejoin:round;">
</svg:g>
<svg:g style="fill:#C83434; fill-opacity:1.0;  stroke:#C83434; stroke-width:1.000000; stroke-opacity:1;  stroke-linecap:round; stroke-linejoin:round;">
<svg:path style="fill:#C83434; fill-opacity:1.0;  stroke:#C83434; stroke-width:1.000000; stroke-opacity:1;  stroke-linecap:round; stroke-linejoin:round;fill-rule:evenodd;" d="M 43650000.000000,54445000.000000 44285000.000000,53810000.000000 45555000.000000,53810000.000000 46190000.000000,54445000.000000 46190000.000000,55715000.000000 45555000.000000,56350000.000000 44285000.000000,56350000.000000 43650000.000000,55715000.000000 Z"/> 
<svg:path style="fill:#C83434; fill-opacity:1.0;  stroke:#C83434; stroke-width:1.000000; stroke-opacity:1;  stroke-linecap:round; stroke-linejoin:round;fill-rule:evenodd;" d="M 43650000.000000,44285000.000000 44285000.000000,43650000.000000 45555000.000000,43650000.000000 46190000.000000,44285000.000000 46190000.000000,45555000.000000 45555000.000000,46190000.000000 44285000.000000,46190000.000000 43650000.000000,45555000.000000 Z"/> 
<svg:path style="fill:#C83434; fill-opacity:1.0;  stroke:#C83434; stroke-width:1.000000; stroke-opacity:1;  stroke-linecap:round; stroke-linejoin:round;fill-rule:evenodd;" d="M 55969000.000000,49365000.000000 56604000.000000,48730000.000000 57874000.000000,48730000.000000 58509000.000000,49365000.000000 58509000.000000,50635000.000000 57874000.000000,51270000.000000 56604000.000000,51270000.000000 55969000.000000,50635000.000000 Z"/> 
</svg:g>
<svg:g>
</svg:g>
<svg:g>
</svg:g>
<svg:g>
</svg:g>
</svg:g>
<svg:g style="fill:#FFFFFF; fill-opacity:1.0;  stroke:#FFFFFF; stroke-width:1.000000; stroke-opacity:1;  stroke-linecap:round; stroke-linejoin:round;">
<svg:circle cx="44920000.000000" cy="55080000.000000" r="558800.000000"/> 
</svg:g>
<svg:g style="fill:#FFFFFF; fill-opacity:1.0;  stroke:#FFFFFF; stroke-width:21200.000000; stroke-opacity:1;  stroke-linecap:round; stroke-linejoin:round;">
</svg:g>
<svg:g style="fill:#FFFFFF; fill-opacity:1.0;  stroke:#FFFFFF; stroke-width:1.000000; stroke-opacity:1;  stroke-linecap:round; stroke-linejoin:round;">
<svg:circle cx="44920000.000000" cy="44920000.000000" r="558800.000000"/> 
</svg:g>
<svg:g style="fill:#FFFFFF; fill-opacity:1.0;  stroke:#FFFFFF; stroke-width:21200.000000; stroke-opacity:1;  stroke-linecap:round; stroke-linejoin:round;">
</svg:g>
<svg:g style="fill:#FFFFFF; fill-opacity:1.0;  stroke:#FFFFFF; stroke-width:1.000000; stroke-opacity:1;  stroke-linecap:round; stroke-linejoin:round;">
<svg:circle cx="57239000.000000" cy="50000000.000000" r="558800.000000"/> 
</svg:g>
<svg:g style="fill:#FFFFFF; fill-opacity:1.0;  stroke:#FFFFFF; stroke-width:21200.000000; stroke-opacity:1;  stroke-linecap:round; stroke-linejoin:round;">
</svg:g>
<svg:g style="fill:#000000; fill-opacity:1.0;  stroke:#000000; stroke-width:21200.000000; stroke-opacity:1;  stroke-linecap:round; stroke-linejoin:round;">
<svg:g>
</svg:g>
<svg:g>
</svg:g>
<svg:g>
</svg:g>
<svg:g>
</svg:g>
</svg:g> 
</svg:g><svg:g><svg:title>SVG Picture created as kicadBoard-F_Fab.svg date 2022/12/03 03:31:31 </svg:title>
  <svg:desc>Picture generated by PCBNEW </svg:desc>
<svg:g style="fill:#000000; fill-opacity:1.000000;stroke:#000000; stroke-opacity:1.000000; stroke-linecap:round; stroke-linejoin:round;" transform="translate(0 0) scale(1 1)">
</svg:g>
<svg:g style="fill:#000000; fill-opacity:0.0;  stroke:#000000; stroke-width:0.000000; stroke-opacity:1;  stroke-linecap:round; stroke-linejoin:round;">
</svg:g>
<svg:g style="fill:#AFAFAF; fill-opacity:0.0;  stroke:#AFAFAF; stroke-width:0.000000; stroke-opacity:1;  stroke-linecap:round; stroke-linejoin:round;">
</svg:g>
<svg:g style="fill:#AFAFAF; fill-opacity:0.0;  stroke:#AFAFAF; stroke-width:127000.000000; stroke-opacity:1;  stroke-linecap:round; stroke-linejoin:round;">
<svg:g transform="rotate(-90.000000 49365000.000000 53810000.000000)">
<svg:text x="49365000.000000" y="53810000.000000" textLength="6696529.000000" font-size="1524000.000000" lengthAdjust="spacingAndGlyphs" text-anchor="start" opacity="0">&gt;VALUE</svg:text>
</svg:g>
<svg:g class="stroked-text"><svg:desc>&gt;VALUE</svg:desc>
<svg:path d="M48548571 53455307 L48875142 52584450 L49201714 53455307 "/>
<svg:path d="M48167571 52203450 L49310571 51822450 L48167571 51441450 "/>
<svg:path d="M48984000 51114878 L48984000 50570592 "/>
<svg:path d="M49310571 51223735 L48167571 50842735 L49310571 50461735 "/>
<svg:path d="M49310571 49536450 L49310571 50080735 L48167571 50080735 "/>
<svg:path d="M48167571 49155450 L49092857 49155450 L49201714 49101021 L49256142 49046592 L49310571 48937735 L49310571 48720021 L49256142 48611164 L49201714 48556735 L49092857 48502307 L48167571 48502307 "/>
<svg:path d="M48711857 47958021 L48711857 47577021 "/>
<svg:path d="M49310571 47413735 L49310571 47958021 L48167571 47958021 L48167571 47413735 "/>
</svg:g></svg:g>
<svg:g style="fill:#AFAFAF; fill-opacity:0.0;  stroke:#AFAFAF; stroke-width:152400.000000; stroke-opacity:1;  stroke-linecap:round; stroke-linejoin:round;">
<svg:path d="M45174000 44158000 L44666000 44158000 "/>
<svg:path d="M45174000 44158000 L45174000 43269000 "/>
<svg:path d="M44666000 55842000 L44666000 53429000 "/>
<svg:path d="M45174000 55842000 L45174000 53429000 "/>
<svg:path d="M57493000 51778000 L57493000 50762000 "/>
<svg:path d="M56985000 49238000 L56985000 48222000 "/>
<svg:path d="M45174000 56731000 L45174000 55842000 "/>
<svg:path d="M56985000 51778000 L56985000 50762000 "/>
<svg:path d="M45174000 55842000 L44666000 55842000 "/>
<svg:path d="M57493000 50762000 L57493000 49238000 "/>
<svg:path d="M44666000 46571000 L44666000 44158000 "/>
<svg:path d="M56985000 50762000 L56985000 49238000 "/>
<svg:path d="M45174000 46571000 L45174000 44158000 "/>
<svg:path d="M57493000 49238000 L57493000 48222000 "/>
<svg:path d="M57493000 50762000 L56985000 50762000 "/>
<svg:path d="M57493000 49238000 L56985000 49238000 "/>
<svg:g>
</svg:g>
<svg:g>
</svg:g>
<svg:g>
</svg:g>
<svg:g>
</svg:g>
</svg:g>
<svg:g style="fill:#000000; fill-opacity:0.0;  stroke:#000000; stroke-width:152400.000000; stroke-opacity:1;  stroke-linecap:round; stroke-linejoin:round;">
<svg:g>
</svg:g>
<svg:g>
</svg:g>
<svg:g>
</svg:g>
<svg:g>
</svg:g>
</svg:g> 
</svg:g><svg:g><svg:title>SVG Picture created as kicadBoard-F_Mask.svg date 2022/12/03 03:31:31 </svg:title>
  <svg:desc>Picture generated by PCBNEW </svg:desc>
<svg:g style="fill:#000000; fill-opacity:1.000000;stroke:#000000; stroke-opacity:1.000000; stroke-linecap:round; stroke-linejoin:round;" transform="translate(0 0) scale(1 1)">
</svg:g>
<svg:g style="fill:#000000; fill-opacity:0.0;  stroke:#000000; stroke-width:0.000000; stroke-opacity:1;  stroke-linecap:round; stroke-linejoin:round;">
<svg:g>
</svg:g>
<svg:g style="fill:#000000; fill-opacity:0.0;  stroke:#000000; stroke-width:1.000000; stroke-opacity:1;  stroke-linecap:round; stroke-linejoin:round;">
</svg:g>
<svg:g style="fill:#000000; fill-opacity:1.0;  stroke:#000000; stroke-width:1.000000; stroke-opacity:1;  stroke-linecap:round; stroke-linejoin:round;">
<svg:path style="fill:#000000; fill-opacity:1.0;  stroke:#000000; stroke-width:1.000000; stroke-opacity:1;  stroke-linecap:round; stroke-linejoin:round;fill-rule:evenodd;" d="M 45614719.000000,53727804.000000 45626842.000000,53738158.000000 46261842.000000,54373158.000000 46290349.000000,54429106.000000 46291600.000000,54445000.000000 46291600.000000,55715000.000000 46272196.000000,55774719.000000 46261842.000000,55786842.000000 45626842.000000,56421842.000000 45570894.000000,56450349.000000 45555000.000000,56451600.000000 44285000.000000,56451600.000000 44225281.000000,56432196.000000 44213158.000000,56421842.000000 43578158.000000,55786842.000000 43549651.000000,55730894.000000 43548400.000000,55715000.000000 43548400.000000,54445000.000000 43567804.000000,54385281.000000 43578158.000000,54373158.000000 44213158.000000,53738158.000000 44269106.000000,53709651.000000 44285000.000000,53708400.000000 45555000.000000,53708400.000000 Z"/> 
<svg:path style="fill:#000000; fill-opacity:1.0;  stroke:#000000; stroke-width:1.000000; stroke-opacity:1;  stroke-linecap:round; stroke-linejoin:round;fill-rule:evenodd;" d="M 45614719.000000,43567804.000000 45626842.000000,43578158.000000 46261842.000000,44213158.000000 46290349.000000,44269106.000000 46291600.000000,44285000.000000 46291600.000000,45555000.000000 46272196.000000,45614719.000000 46261842.000000,45626842.000000 45626842.000000,46261842.000000 45570894.000000,46290349.000000 45555000.000000,46291600.000000 44285000.000000,46291600.000000 44225281.000000,46272196.000000 44213158.000000,46261842.000000 43578158.000000,45626842.000000 43549651.000000,45570894.000000 43548400.000000,45555000.000000 43548400.000000,44285000.000000 43567804.000000,44225281.000000 43578158.000000,44213158.000000 44213158.000000,43578158.000000 44269106.000000,43549651.000000 44285000.000000,43548400.000000 45555000.000000,43548400.000000 Z"/> 
<svg:path style="fill:#000000; fill-opacity:1.0;  stroke:#000000; stroke-width:1.000000; stroke-opacity:1;  stroke-linecap:round; stroke-linejoin:round;fill-rule:evenodd;" d="M 57933719.000000,48647804.000000 57945842.000000,48658158.000000 58580842.000000,49293158.000000 58609349.000000,49349106.000000 58610600.000000,49365000.000000 58610600.000000,50635000.000000 58591196.000000,50694719.000000 58580842.000000,50706842.000000 57945842.000000,51341842.000000 57889894.000000,51370349.000000 57874000.000000,51371600.000000 56604000.000000,51371600.000000 56544281.000000,51352196.000000 56532158.000000,51341842.000000 55897158.000000,50706842.000000 55868651.000000,50650894.000000 55867400.000000,50635000.000000 55867400.000000,49365000.000000 55886804.000000,49305281.000000 55897158.000000,49293158.000000 56532158.000000,48658158.000000 56588106.000000,48629651.000000 56604000.000000,48628400.000000 57874000.000000,48628400.000000 Z"/> 
</svg:g>
<svg:g>
</svg:g>
<svg:g>
</svg:g>
<svg:g>
</svg:g>
</svg:g>
<svg:g style="fill:#000000; fill-opacity:1.0;  stroke:#000000; stroke-width:1.000000; stroke-opacity:1;  stroke-linecap:round; stroke-linejoin:round;">
<svg:g>
</svg:g>
<svg:g>
</svg:g>
<svg:g>
</svg:g>
<svg:g>
</svg:g>
</svg:g> 
</svg:g><svg:g><svg:title>SVG Picture created as kicadBoard-F_Paste.svg date 2022/12/03 03:31:31 </svg:title>
  <svg:desc>Picture generated by PCBNEW </svg:desc>
<svg:g style="fill:#000000; fill-opacity:1.000000;stroke:#000000; stroke-opacity:1.000000; stroke-linecap:round; stroke-linejoin:round;" transform="translate(0 0) scale(1 1)">
</svg:g>
<svg:g style="fill:#000000; fill-opacity:0.0;  stroke:#000000; stroke-width:0.000000; stroke-opacity:1;  stroke-linecap:round; stroke-linejoin:round;">
<svg:g>
</svg:g>
<svg:g>
</svg:g>
<svg:g>
</svg:g>
<svg:g>
</svg:g>
</svg:g>
<svg:g style="fill:#000000; fill-opacity:0.0;  stroke:#000000; stroke-width:0.000000; stroke-opacity:1;  stroke-linecap:round; stroke-linejoin:round;">
<svg:g>
</svg:g>
<svg:g>
</svg:g>
<svg:g>
</svg:g>
<svg:g>
</svg:g>
</svg:g> 
</svg:g><svg:g><svg:title>SVG Picture created as kicadBoard-F_Silkscreen.svg date 2022/12/03 03:31:31 </svg:title>
  <svg:desc>Picture generated by PCBNEW </svg:desc>
<svg:g style="fill:#000000; fill-opacity:1.000000;stroke:#000000; stroke-opacity:1.000000; stroke-linecap:round; stroke-linejoin:round;" transform="translate(0 0) scale(1 1)">
</svg:g>
<svg:g style="fill:#000000; fill-opacity:0.0;  stroke:#000000; stroke-width:0.000000; stroke-opacity:1;  stroke-linecap:round; stroke-linejoin:round;">
</svg:g>
<svg:g style="fill:#F2EDA1; fill-opacity:0.0;  stroke:#F2EDA1; stroke-width:0.000000; stroke-opacity:1;  stroke-linecap:round; stroke-linejoin:round;">
</svg:g>
<svg:g style="fill:#F2EDA1; fill-opacity:0.0;  stroke:#F2EDA1; stroke-width:127000.000000; stroke-opacity:1;  stroke-linecap:round; stroke-linejoin:round;">
<svg:g transform="rotate(-90.000000 44158000.000000 52540000.000000)">
<svg:text x="44158000.000000" y="52540000.000000" textLength="11484430.000000" font-size="1524000.000000" lengthAdjust="spacingAndGlyphs" text-anchor="start" opacity="0">FZEBAT2V11R</svg:text>
</svg:g>
<svg:g class="stroked-text"><svg:desc>FZEBAT2V11R</svg:desc>
<svg:path d="M43504857 51804307 L43504857 52185307 "/>
<svg:path d="M44103571 52185307 L42960571 52185307 L42960571 51641021 "/>
<svg:path d="M42960571 51314450 L42960571 50552450 L44103571 51314450 L44103571 50552450 "/>
<svg:path d="M43504857 50117021 L43504857 49736021 "/>
<svg:path d="M44103571 49572735 L44103571 50117021 L42960571 50117021 L42960571 49572735 "/>
<svg:path d="M43504857 48701878 L43559285 48538592 L43613714 48484164 L43722571 48429735 L43885857 48429735 L43994714 48484164 L44049142 48538592 L44103571 48647450 L44103571 49082878 L42960571 49082878 L42960571 48701878 L43015000 48593021 L43069428 48538592 L43178285 48484164 L43287142 48484164 L43396000 48538592 L43450428 48593021 L43504857 48701878 L43504857 49082878 "/>
<svg:path d="M43777000 47994307 L43777000 47450021 "/>
<svg:path d="M44103571 48103164 L42960571 47722164 L44103571 47341164 "/>
<svg:path d="M42960571 47123450 L42960571 46470307 "/>
<svg:path d="M44103571 46796878 L42960571 46796878 "/>
<svg:path d="M43069428 46143735 L43015000 46089307 L42960571 45980450 L42960571 45708307 L43015000 45599450 L43069428 45545021 L43178285 45490592 L43287142 45490592 L43450428 45545021 L44103571 46198164 L44103571 45490592 "/>
<svg:path d="M42960571 45164021 L44103571 44783021 L42960571 44402021 "/>
<svg:path d="M44103571 43422307 L44103571 44075450 "/>
<svg:path d="M44103571 43748878 L42960571 43748878 L43123857 43857735 L43232714 43966592 L43287142 44075450 "/>
<svg:path d="M44103571 42333735 L44103571 42986878 "/>
<svg:path d="M44103571 42660307 L42960571 42660307 L43123857 42769164 L43232714 42878021 L43287142 42986878 "/>
<svg:path d="M44103571 41190735 L43559285 41571735 "/>
<svg:path d="M44103571 41843878 L42960571 41843878 L42960571 41408450 L43015000 41299592 L43069428 41245164 L43178285 41190735 L43341571 41190735 L43450428 41245164 L43504857 41299592 L43559285 41408450 L43559285 41843878 "/>
</svg:g><svg:text x="49111000.000000" y="62700000.000000" textLength="7077529.000000" font-size="1524000.000000" lengthAdjust="spacingAndGlyphs" text-anchor="start" opacity="0">NC-2V4</svg:text>
<svg:g class="stroked-text"><svg:desc>NC-2V4</svg:desc>
<svg:path d="M49465692 62645571 L49465692 61502571 L50118835 62645571 L50118835 61502571 "/>
<svg:path d="M51316264 62536714 L51261835 62591142 L51098550 62645571 L50989692 62645571 L50826407 62591142 L50717550 62482285 L50663121 62373428 L50608692 62155714 L50608692 61992428 L50663121 61774714 L50717550 61665857 L50826407 61557000 L50989692 61502571 L51098550 61502571 L51261835 61557000 L51316264 61611428 "/>
<svg:path d="M51806121 62210142 L52676978 62210142 "/>
<svg:path d="M53166835 61611428 L53221264 61557000 L53330121 61502571 L53602264 61502571 L53711121 61557000 L53765550 61611428 L53819978 61720285 L53819978 61829142 L53765550 61992428 L53112407 62645571 L53819978 62645571 "/>
<svg:path d="M54146550 61502571 L54527550 62645571 L54908550 61502571 "/>
<svg:path d="M55779407 61883571 L55779407 62645571 "/>
<svg:path d="M55507264 61448142 L55235121 62264571 L55942692 62264571 "/>
</svg:g></svg:g>
<svg:g style="fill:#F2EDA1; fill-opacity:0.0;  stroke:#F2EDA1; stroke-width:152400.000000; stroke-opacity:1;  stroke-linecap:round; stroke-linejoin:round;">
<svg:path d="M46952000 37300000 L46952000 62700000 "/>
<svg:path d="M54699000 50000000 L53302000 50000000 "/>
<svg:path d="M56985000 47460000 L56985000 36538000 "/>
<svg:path d="M46952000 36538000 L46952000 37300000 "/>
<svg:path d="M45809000 62700000 L46952000 62700000 "/>
<svg:path d="M51016000 52032000 L51016000 51016000 "/>
<svg:path d="M45174000 43269000 L45174000 37935000 "/>
<svg:path d="M56985000 63462000 L56985000 52540000 "/>
</svg:g>
<svg:g style="fill:#F2EDA1; fill-opacity:0.0;  stroke:#F2EDA1; stroke-width:254000.000000; stroke-opacity:1;  stroke-linecap:round; stroke-linejoin:round;">
<svg:path d="M45555000 50000000 L46571000 50000000 "/>
<svg:path d="M46063000 49492000 L46063000 50508000 "/>
</svg:g>
<svg:g style="fill:#F2EDA1; fill-opacity:0.0;  stroke:#F2EDA1; stroke-width:152400.000000; stroke-opacity:1;  stroke-linecap:round; stroke-linejoin:round;">
<svg:path d="M46952000 36538000 L56985000 36538000 "/>
<svg:path d="M45174000 50762000 L45174000 49238000 "/>
<svg:path d="M46952000 62700000 L46952000 63462000 "/>
<svg:path d="M52032000 50000000 L50127000 50000000 "/>
<svg:path d="M57493000 47460000 L56985000 47460000 "/>
<svg:path d="M57493000 48222000 L57493000 47460000 "/>
<svg:path d="M51524000 51524000 L50508000 51524000 "/>
<svg:path d="M45174000 49238000 L45174000 46571000 "/>
<svg:path d="M57493000 51778000 L57493000 52540000 "/>
<svg:path d="M44666000 49238000 L44666000 46571000 "/>
</svg:g>
<svg:g style="fill:#F2EDA1; fill-opacity:0.0;  stroke:#F2EDA1; stroke-width:254000.000000; stroke-opacity:1;  stroke-linecap:round; stroke-linejoin:round;">
<svg:path d="M52032000 50000000 L52032000 47460000 "/>
</svg:g>
<svg:g style="fill:#F2EDA1; fill-opacity:0.0;  stroke:#F2EDA1; stroke-width:152400.000000; stroke-opacity:1;  stroke-linecap:round; stroke-linejoin:round;">
<svg:path d="M56985000 52540000 L56985000 51778000 "/>
<svg:path d="M45174000 62065000 L45174000 56731000 "/>
</svg:g>
<svg:g style="fill:#F2EDA1; fill-opacity:0.0;  stroke:#F2EDA1; stroke-width:254000.000000; stroke-opacity:1;  stroke-linecap:round; stroke-linejoin:round;">
<svg:path d="M52032000 52540000 L52032000 50000000 "/>
</svg:g>
<svg:g style="fill:#F2EDA1; fill-opacity:0.0;  stroke:#F2EDA1; stroke-width:152400.000000; stroke-opacity:1;  stroke-linecap:round; stroke-linejoin:round;">
<svg:path d="M56985000 48222000 L56985000 47460000 "/>
<svg:path d="M44666000 53429000 L44666000 50762000 "/>
<svg:path d="M57493000 52540000 L56985000 52540000 "/>
</svg:g>
<svg:g style="fill:#F2EDA1; fill-opacity:0.0;  stroke:#F2EDA1; stroke-width:254000.000000; stroke-opacity:1;  stroke-linecap:round; stroke-linejoin:round;">
<svg:path d="M55334000 49365000 L55334000 50635000 "/>
</svg:g>
<svg:g style="fill:#F2EDA1; fill-opacity:0.0;  stroke:#F2EDA1; stroke-width:152400.000000; stroke-opacity:1;  stroke-linecap:round; stroke-linejoin:round;">
<svg:path d="M45174000 53429000 L45174000 50762000 "/>
<svg:path d="M45174000 50762000 L44666000 50762000 "/>
<svg:path d="M44666000 50762000 L44666000 49238000 "/>
<svg:path d="M46952000 63462000 L56985000 63462000 "/>
<svg:path d="M46952000 37300000 L45809000 37300000 "/>
<svg:path d="M45174000 49238000 L44666000 49238000 "/>
<svg:path d="M45809000.000000 37300000.000001 A634999.000000 634999.000000 0.0 0 0 45174000.000001 37935000.000000"/>
<svg:path d="M45174000.000001 62065000.000000 A634999.000000 634999.000000 0.0 0 0 45809000.000000 62699999.999999"/>
</svg:g>
<svg:g style="fill:#F2EDA1; fill-opacity:1.0;  stroke:#F2EDA1; stroke-width:1.000000; stroke-opacity:1;  stroke-linecap:round; stroke-linejoin:round;">
<svg:path style="fill:#F2EDA1; fill-opacity:1.0;  stroke:#F2EDA1; stroke-width:1.000000; stroke-opacity:1;  stroke-linecap:round; stroke-linejoin:round;fill-rule:evenodd;" d="M 53302000.000000,51270000.000000 52667000.000000,51270000.000000 52667000.000000,48730000.000000 53302000.000000,48730000.000000 Z"/> 
<svg:g>
</svg:g>
<svg:g>
</svg:g>
<svg:g>
</svg:g>
<svg:g>
</svg:g>
</svg:g>
<svg:g style="fill:#000000; fill-opacity:1.0;  stroke:#000000; stroke-width:1.000000; stroke-opacity:1;  stroke-linecap:round; stroke-linejoin:round;">
<svg:g>
</svg:g>
<svg:g>
</svg:g>
<svg:g>
</svg:g>
<svg:g>
</svg:g>
</svg:g> 
</svg:g><svg:g><svg:title>SVG Picture created as kicadBoard-Margin.svg date 2022/12/03 03:31:31 </svg:title>
  <svg:desc>Picture generated by PCBNEW </svg:desc>
<svg:g style="fill:#000000; fill-opacity:1.000000;stroke:#000000; stroke-opacity:1.000000; stroke-linecap:round; stroke-linejoin:round;" transform="translate(0 0) scale(1 1)">
</svg:g>
<svg:g style="fill:#000000; fill-opacity:0.0;  stroke:#000000; stroke-width:0.000000; stroke-opacity:1;  stroke-linecap:round; stroke-linejoin:round;">
<svg:g>
</svg:g>
<svg:g>
</svg:g>
<svg:g>
</svg:g>
<svg:g>
</svg:g>
</svg:g>
<svg:g style="fill:#000000; fill-opacity:0.0;  stroke:#000000; stroke-width:0.000000; stroke-opacity:1;  stroke-linecap:round; stroke-linejoin:round;">
<svg:g>
</svg:g>
<svg:g>
</svg:g>
<svg:g>
</svg:g>
<svg:g>
</svg:g>
</svg:g> 
</svg:g><svg:g><svg:title>SVG Picture created as kicadBoard-F_Cu.svg date 2022/12/03 03:31:31 </svg:title>
  <svg:desc>Picture generated by PCBNEW </svg:desc>
<svg:g style="fill:#000000; fill-opacity:1.000000;stroke:#000000; stroke-opacity:1.000000; stroke-linecap:round; stroke-linejoin:round;" transform="translate(0 0) scale(1 1)">
</svg:g>
<svg:g style="fill:#000000; fill-opacity:0.0;  stroke:#000000; stroke-width:0.000000; stroke-opacity:1;  stroke-linecap:round; stroke-linejoin:round;">
<svg:g>
</svg:g>
<svg:g style="fill:#C83434; fill-opacity:0.0;  stroke:#C83434; stroke-width:0.000000; stroke-opacity:1;  stroke-linecap:round; stroke-linejoin:round;">
</svg:g>
<svg:g style="fill:#C83434; fill-opacity:0.0;  stroke:#C83434; stroke-width:1.000000; stroke-opacity:1;  stroke-linecap:round; stroke-linejoin:round;">
</svg:g>
<svg:g style="fill:#C83434; fill-opacity:1.0;  stroke:#C83434; stroke-width:1.000000; stroke-opacity:1;  stroke-linecap:round; stroke-linejoin:round;">
<svg:path style="fill:#C83434; fill-opacity:1.0;  stroke:#C83434; stroke-width:1.000000; stroke-opacity:1;  stroke-linecap:round; stroke-linejoin:round;fill-rule:evenodd;" d="M 43650000.000000,54445000.000000 44285000.000000,53810000.000000 45555000.000000,53810000.000000 46190000.000000,54445000.000000 46190000.000000,55715000.000000 45555000.000000,56350000.000000 44285000.000000,56350000.000000 43650000.000000,55715000.000000 Z"/> 
<svg:path style="fill:#C83434; fill-opacity:1.0;  stroke:#C83434; stroke-width:1.000000; stroke-opacity:1;  stroke-linecap:round; stroke-linejoin:round;fill-rule:evenodd;" d="M 43650000.000000,44285000.000000 44285000.000000,43650000.000000 45555000.000000,43650000.000000 46190000.000000,44285000.000000 46190000.000000,45555000.000000 45555000.000000,46190000.000000 44285000.000000,46190000.000000 43650000.000000,45555000.000000 Z"/> 
<svg:path style="fill:#C83434; fill-opacity:1.0;  stroke:#C83434; stroke-width:1.000000; stroke-opacity:1;  stroke-linecap:round; stroke-linejoin:round;fill-rule:evenodd;" d="M 55969000.000000,49365000.000000 56604000.000000,48730000.000000 57874000.000000,48730000.000000 58509000.000000,49365000.000000 58509000.000000,50635000.000000 57874000.000000,51270000.000000 56604000.000000,51270000.000000 55969000.000000,50635000.000000 Z"/> 
</svg:g>
<svg:g>
</svg:g>
<svg:g>
</svg:g>
<svg:g>
</svg:g>
</svg:g>
<svg:g style="fill:#FFFFFF; fill-opacity:1.0;  stroke:#FFFFFF; stroke-width:1.000000; stroke-opacity:1;  stroke-linecap:round; stroke-linejoin:round;">
<svg:circle cx="44920000.000000" cy="55080000.000000" r="558800.000000"/> 
</svg:g>
<svg:g style="fill:#FFFFFF; fill-opacity:1.0;  stroke:#FFFFFF; stroke-width:21200.000000; stroke-opacity:1;  stroke-linecap:round; stroke-linejoin:round;">
</svg:g>
<svg:g style="fill:#FFFFFF; fill-opacity:1.0;  stroke:#FFFFFF; stroke-width:1.000000; stroke-opacity:1;  stroke-linecap:round; stroke-linejoin:round;">
<svg:circle cx="44920000.000000" cy="44920000.000000" r="558800.000000"/> 
</svg:g>
<svg:g style="fill:#FFFFFF; fill-opacity:1.0;  stroke:#FFFFFF; stroke-width:21200.000000; stroke-opacity:1;  stroke-linecap:round; stroke-linejoin:round;">
</svg:g>
<svg:g style="fill:#FFFFFF; fill-opacity:1.0;  stroke:#FFFFFF; stroke-width:1.000000; stroke-opacity:1;  stroke-linecap:round; stroke-linejoin:round;">
<svg:circle cx="57239000.000000" cy="50000000.000000" r="558800.000000"/> 
</svg:g>
<svg:g style="fill:#FFFFFF; fill-opacity:1.0;  stroke:#FFFFFF; stroke-width:21200.000000; stroke-opacity:1;  stroke-linecap:round; stroke-linejoin:round;">
</svg:g>
<svg:g style="fill:#000000; fill-opacity:1.0;  stroke:#000000; stroke-width:21200.000000; stroke-opacity:1;  stroke-linecap:round; stroke-linejoin:round;">
<svg:g>
</svg:g>
<svg:g>
</svg:g>
<svg:g>
</svg:g>
<svg:g>
</svg:g>
</svg:g> 
</svg:g></svg>
