<?xml version='1.0' encoding='ASCII' standalone='yes'?>
<svg xmlns:svg="http://www.w3.org/2000/svg" xmlns="http://www.w3.org/2000/svg" xmlns:xlink="http://www.w3.org/1999/xlink" version="1.1" width="9.999980cm" height="9.999980cm" viewBox="0 0 99999800 99999800">
<title>SVG Picture created as kicadBoard-B_Cu.svg date 2022/11/18 01:35:23 </title>
  <desc>Picture generated by PCBNEW </desc>
<g style="fill:#000000; fill-opacity:1.000000;stroke:#000000; stroke-opacity:1.000000; stroke-linecap:round; stroke-linejoin:round;" transform="translate(0 0) scale(1 1)">
</g>
<g style="fill:#000000; fill-opacity:0.0;  stroke:#000000; stroke-width:0.000000; stroke-opacity:1;  stroke-linecap:round; stroke-linejoin:round;">
<g>
</g>
<g>
</g>
<g>
</g>
<g>
</g>
</g>
<g style="fill:#FFFFFF; fill-opacity:0.0;  stroke:#FFFFFF; stroke-width:0.000000; stroke-opacity:1;  stroke-linecap:round; stroke-linejoin:round;">
</g>
<g style="fill:#000000; fill-opacity:0.0;  stroke:#000000; stroke-width:0.000000; stroke-opacity:1;  stroke-linecap:round; stroke-linejoin:round;">
<g>
</g>
<g>
</g>
<g>
</g>
<g>
</g>
</g> 
<svg:g><svg:title>SVG Picture created as kicadBoard-B_Adhesive.svg date 2022/11/18 01:35:23 </svg:title>
  <svg:desc>Picture generated by PCBNEW </svg:desc>
<svg:g style="fill:#000000; fill-opacity:1.000000;stroke:#000000; stroke-opacity:1.000000; stroke-linecap:round; stroke-linejoin:round;" transform="translate(0 0) scale(1 1)">
</svg:g>
<svg:g style="fill:#000000; fill-opacity:0.0;  stroke:#000000; stroke-width:0.000000; stroke-opacity:1;  stroke-linecap:round; stroke-linejoin:round;">
<svg:g>
</svg:g>
<svg:g>
</svg:g>
<svg:g>
</svg:g>
<svg:g>
</svg:g>
</svg:g>
<svg:g style="fill:#000000; fill-opacity:0.0;  stroke:#000000; stroke-width:0.000000; stroke-opacity:1;  stroke-linecap:round; stroke-linejoin:round;">
<svg:g>
</svg:g>
<svg:g>
</svg:g>
<svg:g>
</svg:g>
<svg:g>
</svg:g>
</svg:g> 
</svg:g><svg:g><svg:title>SVG Picture created as kicadBoard-B_Courtyard.svg date 2022/11/18 01:35:23 </svg:title>
  <svg:desc>Picture generated by PCBNEW </svg:desc>
<svg:g style="fill:#000000; fill-opacity:1.000000;stroke:#000000; stroke-opacity:1.000000; stroke-linecap:round; stroke-linejoin:round;" transform="translate(0 0) scale(1 1)">
</svg:g>
<svg:g style="fill:#000000; fill-opacity:0.0;  stroke:#000000; stroke-width:0.000000; stroke-opacity:1;  stroke-linecap:round; stroke-linejoin:round;">
<svg:g>
</svg:g>
<svg:g>
</svg:g>
<svg:g>
</svg:g>
<svg:g>
</svg:g>
</svg:g>
<svg:g style="fill:#000000; fill-opacity:0.0;  stroke:#000000; stroke-width:0.000000; stroke-opacity:1;  stroke-linecap:round; stroke-linejoin:round;">
<svg:g>
</svg:g>
<svg:g>
</svg:g>
<svg:g>
</svg:g>
<svg:g>
</svg:g>
</svg:g> 
</svg:g><svg:g><svg:title>SVG Picture created as kicadBoard-B_Fab.svg date 2022/11/18 01:35:23 </svg:title>
  <svg:desc>Picture generated by PCBNEW </svg:desc>
<svg:g style="fill:#000000; fill-opacity:1.000000;stroke:#000000; stroke-opacity:1.000000; stroke-linecap:round; stroke-linejoin:round;" transform="translate(0 0) scale(1 1)">
</svg:g>
<svg:g style="fill:#000000; fill-opacity:0.0;  stroke:#000000; stroke-width:0.000000; stroke-opacity:1;  stroke-linecap:round; stroke-linejoin:round;">
<svg:g>
</svg:g>
<svg:g>
</svg:g>
<svg:g>
</svg:g>
<svg:g>
</svg:g>
</svg:g>
<svg:g style="fill:#000000; fill-opacity:0.0;  stroke:#000000; stroke-width:0.000000; stroke-opacity:1;  stroke-linecap:round; stroke-linejoin:round;">
<svg:g>
</svg:g>
<svg:g>
</svg:g>
<svg:g>
</svg:g>
<svg:g>
</svg:g>
</svg:g> 
</svg:g><svg:g><svg:title>SVG Picture created as kicadBoard-B_Mask.svg date 2022/11/18 01:35:23 </svg:title>
  <svg:desc>Picture generated by PCBNEW </svg:desc>
<svg:g style="fill:#000000; fill-opacity:1.000000;stroke:#000000; stroke-opacity:1.000000; stroke-linecap:round; stroke-linejoin:round;" transform="translate(0 0) scale(1 1)">
</svg:g>
<svg:g style="fill:#000000; fill-opacity:0.0;  stroke:#000000; stroke-width:0.000000; stroke-opacity:1;  stroke-linecap:round; stroke-linejoin:round;">
<svg:g>
</svg:g>
<svg:g>
</svg:g>
<svg:g>
</svg:g>
<svg:g>
</svg:g>
</svg:g>
<svg:g style="fill:#000000; fill-opacity:0.0;  stroke:#000000; stroke-width:0.000000; stroke-opacity:1;  stroke-linecap:round; stroke-linejoin:round;">
<svg:g>
</svg:g>
<svg:g>
</svg:g>
<svg:g>
</svg:g>
<svg:g>
</svg:g>
</svg:g> 
</svg:g><svg:g><svg:title>SVG Picture created as kicadBoard-B_Paste.svg date 2022/11/18 01:35:23 </svg:title>
  <svg:desc>Picture generated by PCBNEW </svg:desc>
<svg:g style="fill:#000000; fill-opacity:1.000000;stroke:#000000; stroke-opacity:1.000000; stroke-linecap:round; stroke-linejoin:round;" transform="translate(0 0) scale(1 1)">
</svg:g>
<svg:g style="fill:#000000; fill-opacity:0.0;  stroke:#000000; stroke-width:0.000000; stroke-opacity:1;  stroke-linecap:round; stroke-linejoin:round;">
<svg:g>
</svg:g>
<svg:g>
</svg:g>
<svg:g>
</svg:g>
<svg:g>
</svg:g>
</svg:g>
<svg:g style="fill:#000000; fill-opacity:0.0;  stroke:#000000; stroke-width:0.000000; stroke-opacity:1;  stroke-linecap:round; stroke-linejoin:round;">
<svg:g>
</svg:g>
<svg:g>
</svg:g>
<svg:g>
</svg:g>
<svg:g>
</svg:g>
</svg:g> 
</svg:g><svg:g><svg:title>SVG Picture created as kicadBoard-B_Silkscreen.svg date 2022/11/18 01:35:23 </svg:title>
  <svg:desc>Picture generated by PCBNEW </svg:desc>
<svg:g style="fill:#000000; fill-opacity:1.000000;stroke:#000000; stroke-opacity:1.000000; stroke-linecap:round; stroke-linejoin:round;" transform="translate(0 0) scale(1 1)">
</svg:g>
<svg:g style="fill:#000000; fill-opacity:0.0;  stroke:#000000; stroke-width:0.000000; stroke-opacity:1;  stroke-linecap:round; stroke-linejoin:round;">
<svg:g>
</svg:g>
<svg:g>
</svg:g>
<svg:g>
</svg:g>
<svg:g>
</svg:g>
</svg:g>
<svg:g style="fill:#000000; fill-opacity:0.0;  stroke:#000000; stroke-width:0.000000; stroke-opacity:1;  stroke-linecap:round; stroke-linejoin:round;">
<svg:g>
</svg:g>
<svg:g>
</svg:g>
<svg:g>
</svg:g>
<svg:g>
</svg:g>
</svg:g> 
</svg:g><svg:g><svg:title>SVG Picture created as kicadBoard-Edge_Cuts.svg date 2022/11/18 01:35:23 </svg:title>
  <svg:desc>Picture generated by PCBNEW </svg:desc>
<svg:g style="fill:#000000; fill-opacity:1.000000;stroke:#000000; stroke-opacity:1.000000; stroke-linecap:round; stroke-linejoin:round;" transform="translate(0 0) scale(1 1)">
</svg:g>
<svg:g style="fill:#000000; fill-opacity:0.0;  stroke:#000000; stroke-width:0.000000; stroke-opacity:1;  stroke-linecap:round; stroke-linejoin:round;">
<svg:g>
</svg:g>
<svg:g>
</svg:g>
<svg:g>
</svg:g>
<svg:g>
</svg:g>
</svg:g> 
</svg:g><svg:g><svg:title>SVG Picture created as kicadBoard-F_Adhesive.svg date 2022/11/18 01:35:23 </svg:title>
  <svg:desc>Picture generated by PCBNEW </svg:desc>
<svg:g style="fill:#000000; fill-opacity:1.000000;stroke:#000000; stroke-opacity:1.000000; stroke-linecap:round; stroke-linejoin:round;" transform="translate(0 0) scale(1 1)">
</svg:g>
<svg:g style="fill:#000000; fill-opacity:0.0;  stroke:#000000; stroke-width:0.000000; stroke-opacity:1;  stroke-linecap:round; stroke-linejoin:round;">
<svg:g>
</svg:g>
<svg:g>
</svg:g>
<svg:g>
</svg:g>
<svg:g>
</svg:g>
</svg:g>
<svg:g style="fill:#000000; fill-opacity:0.0;  stroke:#000000; stroke-width:0.000000; stroke-opacity:1;  stroke-linecap:round; stroke-linejoin:round;">
<svg:g>
</svg:g>
<svg:g>
</svg:g>
<svg:g>
</svg:g>
<svg:g>
</svg:g>
</svg:g> 
</svg:g><svg:g><svg:title>SVG Picture created as kicadBoard-F_Courtyard.svg date 2022/11/18 01:35:23 </svg:title>
  <svg:desc>Picture generated by PCBNEW </svg:desc>
<svg:g style="fill:#000000; fill-opacity:1.000000;stroke:#000000; stroke-opacity:1.000000; stroke-linecap:round; stroke-linejoin:round;" transform="translate(0 0) scale(1 1)">
</svg:g>
<svg:g style="fill:#000000; fill-opacity:0.0;  stroke:#000000; stroke-width:0.000000; stroke-opacity:1;  stroke-linecap:round; stroke-linejoin:round;">
</svg:g>
<svg:g style="fill:#FF26E2; fill-opacity:0.0;  stroke:#FF26E2; stroke-width:0.000000; stroke-opacity:1;  stroke-linecap:round; stroke-linejoin:round;">
</svg:g>
<svg:g style="fill:#FF26E2; fill-opacity:0.0;  stroke:#FF26E2; stroke-width:50000.000000; stroke-opacity:1;  stroke-linecap:round; stroke-linejoin:round;">
<svg:path d="M52600000 48300000 L52600000 51700000 "/>
<svg:path d="M47400000 51700000 L52600000 51700000 "/>
<svg:path d="M47400000 51700000 L47400000 48300000 "/>
<svg:path d="M52600000 48300000 L47400000 48300000 "/>
<svg:g>
</svg:g>
<svg:g>
</svg:g>
<svg:g>
</svg:g>
<svg:g>
</svg:g>
</svg:g>
<svg:g style="fill:#000000; fill-opacity:0.0;  stroke:#000000; stroke-width:50000.000000; stroke-opacity:1;  stroke-linecap:round; stroke-linejoin:round;">
<svg:g>
</svg:g>
<svg:g>
</svg:g>
<svg:g>
</svg:g>
<svg:g>
</svg:g>
</svg:g> 
</svg:g><svg:g><svg:title>SVG Picture created as kicadBoard-F_Fab.svg date 2022/11/18 01:35:23 </svg:title>
  <svg:desc>Picture generated by PCBNEW </svg:desc>
<svg:g style="fill:#000000; fill-opacity:1.000000;stroke:#000000; stroke-opacity:1.000000; stroke-linecap:round; stroke-linejoin:round;" transform="translate(0 0) scale(1 1)">
</svg:g>
<svg:g style="fill:#000000; fill-opacity:0.0;  stroke:#000000; stroke-width:0.000000; stroke-opacity:1;  stroke-linecap:round; stroke-linejoin:round;">
</svg:g>
<svg:g style="fill:#AFAFAF; fill-opacity:0.0;  stroke:#AFAFAF; stroke-width:0.000000; stroke-opacity:1;  stroke-linecap:round; stroke-linejoin:round;">
</svg:g>
<svg:g style="fill:#AFAFAF; fill-opacity:0.0;  stroke:#AFAFAF; stroke-width:150000.000000; stroke-opacity:1;  stroke-linecap:round; stroke-linejoin:round;">
<svg:text x="49980000.000000" y="52980000.000000" textLength="18480714.000000" font-size="1333333.000000" lengthAdjust="spacingAndGlyphs" text-anchor="middle" opacity="0">SOT-143_Handsoldering</svg:text>
<svg:g class="stroked-text"><svg:desc>SOT-143_Handsoldering</svg:desc>
<svg:path d="M41027619 52884761 L41170476 52932380 L41408571 52932380 L41503809 52884761 L41551428 52837142 L41599047 52741904 L41599047 52646666 L41551428 52551428 L41503809 52503809 L41408571 52456190 L41218095 52408571 L41122857 52360952 L41075238 52313333 L41027619 52218095 L41027619 52122857 L41075238 52027619 L41122857 51980000 L41218095 51932380 L41456190 51932380 L41599047 51980000 "/>
<svg:path d="M42218095 51932380 L42408571 51932380 L42503809 51980000 L42599047 52075238 L42646666 52265714 L42646666 52599047 L42599047 52789523 L42503809 52884761 L42408571 52932380 L42218095 52932380 L42122857 52884761 L42027619 52789523 L41980000 52599047 L41980000 52265714 L42027619 52075238 L42122857 51980000 L42218095 51932380 "/>
<svg:path d="M42932380 51932380 L43503809 51932380 "/>
<svg:path d="M43218095 52932380 L43218095 51932380 "/>
<svg:path d="M43837142 52551428 L44599047 52551428 "/>
<svg:path d="M45599047 52932380 L45027619 52932380 "/>
<svg:path d="M45313333 52932380 L45313333 51932380 L45218095 52075238 L45122857 52170476 L45027619 52218095 "/>
<svg:path d="M46456190 52265714 L46456190 52932380 "/>
<svg:path d="M46218095 51884761 L45980000 52599047 L46599047 52599047 "/>
<svg:path d="M46884761 51932380 L47503809 51932380 L47170476 52313333 L47313333 52313333 L47408571 52360952 L47456190 52408571 L47503809 52503809 L47503809 52741904 L47456190 52837142 L47408571 52884761 L47313333 52932380 L47027619 52932380 L46932380 52884761 L46884761 52837142 "/>
<svg:path d="M47694285 53027619 L48456190 53027619 "/>
<svg:path d="M48694285 52932380 L48694285 51932380 "/>
<svg:path d="M48694285 52408571 L49265714 52408571 "/>
<svg:path d="M49265714 52932380 L49265714 51932380 "/>
<svg:path d="M50170476 52932380 L50170476 52408571 L50122857 52313333 L50027619 52265714 L49837142 52265714 L49741904 52313333 "/>
<svg:path d="M50170476 52884761 L50075238 52932380 L49837142 52932380 L49741904 52884761 L49694285 52789523 L49694285 52694285 L49741904 52599047 L49837142 52551428 L50075238 52551428 L50170476 52503809 "/>
<svg:path d="M50646666 52265714 L50646666 52932380 "/>
<svg:path d="M50646666 52360952 L50694285 52313333 L50789523 52265714 L50932380 52265714 L51027619 52313333 L51075238 52408571 L51075238 52932380 "/>
<svg:path d="M51980000 52932380 L51980000 51932380 "/>
<svg:path d="M51980000 52884761 L51884761 52932380 L51694285 52932380 L51599047 52884761 L51551428 52837142 L51503809 52741904 L51503809 52456190 L51551428 52360952 L51599047 52313333 L51694285 52265714 L51884761 52265714 L51980000 52313333 "/>
<svg:path d="M52408571 52884761 L52503809 52932380 L52694285 52932380 L52789523 52884761 L52837142 52789523 L52837142 52741904 L52789523 52646666 L52694285 52599047 L52551428 52599047 L52456190 52551428 L52408571 52456190 L52408571 52408571 L52456190 52313333 L52551428 52265714 L52694285 52265714 L52789523 52313333 "/>
<svg:path d="M53408571 52932380 L53313333 52884761 L53265714 52837142 L53218095 52741904 L53218095 52456190 L53265714 52360952 L53313333 52313333 L53408571 52265714 L53551428 52265714 L53646666 52313333 L53694285 52360952 L53741904 52456190 L53741904 52741904 L53694285 52837142 L53646666 52884761 L53551428 52932380 L53408571 52932380 "/>
<svg:path d="M54313333 52932380 L54218095 52884761 L54170476 52789523 L54170476 51932380 "/>
<svg:path d="M55122857 52932380 L55122857 51932380 "/>
<svg:path d="M55122857 52884761 L55027619 52932380 L54837142 52932380 L54741904 52884761 L54694285 52837142 L54646666 52741904 L54646666 52456190 L54694285 52360952 L54741904 52313333 L54837142 52265714 L55027619 52265714 L55122857 52313333 "/>
<svg:path d="M55980000 52884761 L55884761 52932380 L55694285 52932380 L55599047 52884761 L55551428 52789523 L55551428 52408571 L55599047 52313333 L55694285 52265714 L55884761 52265714 L55980000 52313333 L56027619 52408571 L56027619 52503809 L55551428 52599047 "/>
<svg:path d="M56456190 52932380 L56456190 52265714 "/>
<svg:path d="M56456190 52456190 L56503809 52360952 L56551428 52313333 L56646666 52265714 L56741904 52265714 "/>
<svg:path d="M57075238 52932380 L57075238 52265714 "/>
<svg:path d="M57075238 51932380 L57027619 51980000 L57075238 52027619 L57122857 51980000 L57075238 51932380 L57075238 52027619 "/>
<svg:path d="M57551428 52265714 L57551428 52932380 "/>
<svg:path d="M57551428 52360952 L57599047 52313333 L57694285 52265714 L57837142 52265714 L57932380 52313333 L57980000 52408571 L57980000 52932380 "/>
<svg:path d="M58884761 52265714 L58884761 53075238 L58837142 53170476 L58789523 53218095 L58694285 53265714 L58551428 53265714 L58456190 53218095 "/>
<svg:path d="M58884761 52884761 L58789523 52932380 L58599047 52932380 L58503809 52884761 L58456190 52837142 L58408571 52741904 L58408571 52456190 L58456190 52360952 L58503809 52313333 L58599047 52265714 L58789523 52265714 L58884761 52313333 "/>
</svg:g></svg:g>
<svg:g style="fill:#AFAFAF; fill-opacity:0.0;  stroke:#AFAFAF; stroke-width:75000.000000; stroke-opacity:1;  stroke-linecap:round; stroke-linejoin:round;">
<svg:g transform="rotate(-90.000000 50000000.000000 50000000.000000)">
<svg:text x="50000000.000000" y="50250000.000000" textLength="11885476.000000" font-size="666666.000000" lengthAdjust="spacingAndGlyphs" text-anchor="middle" opacity="0">FZKSOTSOT143HANDSOLDERING</svg:text>
</svg:g>
<svg:g class="stroked-text"><svg:desc>FZKSOTSOT143HANDSOLDERING</svg:desc>
<svg:path d="M49964285 55559523 L49964285 55726190 "/>
<svg:path d="M50226190 55726190 L49726190 55726190 L49726190 55488095 "/>
<svg:path d="M49726190 55345238 L49726190 55011904 L50226190 55345238 L50226190 55011904 "/>
<svg:path d="M50226190 54821428 L49726190 54821428 "/>
<svg:path d="M50226190 54535714 L49940476 54750000 "/>
<svg:path d="M49726190 54535714 L50011904 54821428 "/>
<svg:path d="M50202380 54345238 L50226190 54273809 L50226190 54154761 L50202380 54107142 L50178571 54083333 L50130952 54059523 L50083333 54059523 L50035714 54083333 L50011904 54107142 L49988095 54154761 L49964285 54250000 L49940476 54297619 L49916666 54321428 L49869047 54345238 L49821428 54345238 L49773809 54321428 L49750000 54297619 L49726190 54250000 L49726190 54130952 L49750000 54059523 "/>
<svg:path d="M49726190 53750000 L49726190 53654761 L49750000 53607142 L49797619 53559523 L49892857 53535714 L50059523 53535714 L50154761 53559523 L50202380 53607142 L50226190 53654761 L50226190 53750000 L50202380 53797619 L50154761 53845238 L50059523 53869047 L49892857 53869047 L49797619 53845238 L49750000 53797619 L49726190 53750000 "/>
<svg:path d="M49726190 53392857 L49726190 53107142 "/>
<svg:path d="M50226190 53250000 L49726190 53250000 "/>
<svg:path d="M50202380 52964285 L50226190 52892857 L50226190 52773809 L50202380 52726190 L50178571 52702380 L50130952 52678571 L50083333 52678571 L50035714 52702380 L50011904 52726190 L49988095 52773809 L49964285 52869047 L49940476 52916666 L49916666 52940476 L49869047 52964285 L49821428 52964285 L49773809 52940476 L49750000 52916666 L49726190 52869047 L49726190 52750000 L49750000 52678571 "/>
<svg:path d="M49726190 52369047 L49726190 52273809 L49750000 52226190 L49797619 52178571 L49892857 52154761 L50059523 52154761 L50154761 52178571 L50202380 52226190 L50226190 52273809 L50226190 52369047 L50202380 52416666 L50154761 52464285 L50059523 52488095 L49892857 52488095 L49797619 52464285 L49750000 52416666 L49726190 52369047 "/>
<svg:path d="M49726190 52011904 L49726190 51726190 "/>
<svg:path d="M50226190 51869047 L49726190 51869047 "/>
<svg:path d="M50226190 51297619 L50226190 51583333 "/>
<svg:path d="M50226190 51440476 L49726190 51440476 L49797619 51488095 L49845238 51535714 L49869047 51583333 "/>
<svg:path d="M49892857 50869047 L50226190 50869047 "/>
<svg:path d="M49702380 50988095 L50059523 51107142 L50059523 50797619 "/>
<svg:path d="M49726190 50654761 L49726190 50345238 L49916666 50511904 L49916666 50440476 L49940476 50392857 L49964285 50369047 L50011904 50345238 L50130952 50345238 L50178571 50369047 L50202380 50392857 L50226190 50440476 L50226190 50583333 L50202380 50630952 L50178571 50654761 "/>
<svg:path d="M50226190 50130952 L49726190 50130952 "/>
<svg:path d="M49964285 50130952 L49964285 49845238 "/>
<svg:path d="M50226190 49845238 L49726190 49845238 "/>
<svg:path d="M50083333 49630952 L50083333 49392857 "/>
<svg:path d="M50226190 49678571 L49726190 49511904 L50226190 49345238 "/>
<svg:path d="M50226190 49178571 L49726190 49178571 L50226190 48892857 L49726190 48892857 "/>
<svg:path d="M50226190 48654761 L49726190 48654761 L49726190 48535714 L49750000 48464285 L49797619 48416666 L49845238 48392857 L49940476 48369047 L50011904 48369047 L50107142 48392857 L50154761 48416666 L50202380 48464285 L50226190 48535714 L50226190 48654761 "/>
<svg:path d="M50202380 48178571 L50226190 48107142 L50226190 47988095 L50202380 47940476 L50178571 47916666 L50130952 47892857 L50083333 47892857 L50035714 47916666 L50011904 47940476 L49988095 47988095 L49964285 48083333 L49940476 48130952 L49916666 48154761 L49869047 48178571 L49821428 48178571 L49773809 48154761 L49750000 48130952 L49726190 48083333 L49726190 47964285 L49750000 47892857 "/>
<svg:path d="M49726190 47583333 L49726190 47488095 L49750000 47440476 L49797619 47392857 L49892857 47369047 L50059523 47369047 L50154761 47392857 L50202380 47440476 L50226190 47488095 L50226190 47583333 L50202380 47630952 L50154761 47678571 L50059523 47702380 L49892857 47702380 L49797619 47678571 L49750000 47630952 L49726190 47583333 "/>
<svg:path d="M50226190 46916666 L50226190 47154761 L49726190 47154761 "/>
<svg:path d="M50226190 46750000 L49726190 46750000 L49726190 46630952 L49750000 46559523 L49797619 46511904 L49845238 46488095 L49940476 46464285 L50011904 46464285 L50107142 46488095 L50154761 46511904 L50202380 46559523 L50226190 46630952 L50226190 46750000 "/>
<svg:path d="M49964285 46250000 L49964285 46083333 "/>
<svg:path d="M50226190 46011904 L50226190 46250000 L49726190 46250000 L49726190 46011904 "/>
<svg:path d="M50226190 45511904 L49988095 45678571 "/>
<svg:path d="M50226190 45797619 L49726190 45797619 L49726190 45607142 L49750000 45559523 L49773809 45535714 L49821428 45511904 L49892857 45511904 L49940476 45535714 L49964285 45559523 L49988095 45607142 L49988095 45797619 "/>
<svg:path d="M50226190 45297619 L49726190 45297619 "/>
<svg:path d="M50226190 45059523 L49726190 45059523 L50226190 44773809 L49726190 44773809 "/>
<svg:path d="M49750000 44273809 L49726190 44321428 L49726190 44392857 L49750000 44464285 L49797619 44511904 L49845238 44535714 L49940476 44559523 L50011904 44559523 L50107142 44535714 L50154761 44511904 L50202380 44464285 L50226190 44392857 L50226190 44345238 L50202380 44273809 L50178571 44250000 L50011904 44250000 L50011904 44345238 "/>
</svg:g></svg:g>
<svg:g style="fill:#AFAFAF; fill-opacity:0.0;  stroke:#AFAFAF; stroke-width:100000.000000; stroke-opacity:1;  stroke-linecap:round; stroke-linejoin:round;">
<svg:path d="M49850000 48550000 L50650000 48550000 "/>
<svg:path d="M50650000 48550000 L50650000 51450000 "/>
<svg:path d="M49350000 49050000 L49850000 48550000 "/>
<svg:path d="M50650000 51450000 L49350000 51450000 "/>
<svg:path d="M49350000 51450000 L49350000 49050000 "/>
<svg:g>
</svg:g>
<svg:g>
</svg:g>
<svg:g>
</svg:g>
<svg:g>
</svg:g>
</svg:g>
<svg:g style="fill:#000000; fill-opacity:0.0;  stroke:#000000; stroke-width:100000.000000; stroke-opacity:1;  stroke-linecap:round; stroke-linejoin:round;">
<svg:g>
</svg:g>
<svg:g>
</svg:g>
<svg:g>
</svg:g>
<svg:g>
</svg:g>
</svg:g> 
</svg:g><svg:g><svg:title>SVG Picture created as kicadBoard-F_Mask.svg date 2022/11/18 01:35:23 </svg:title>
  <svg:desc>Picture generated by PCBNEW </svg:desc>
<svg:g style="fill:#000000; fill-opacity:1.000000;stroke:#000000; stroke-opacity:1.000000; stroke-linecap:round; stroke-linejoin:round;" transform="translate(0 0) scale(1 1)">
</svg:g>
<svg:g style="fill:#000000; fill-opacity:0.0;  stroke:#000000; stroke-width:0.000000; stroke-opacity:1;  stroke-linecap:round; stroke-linejoin:round;">
<svg:g>
</svg:g>
<svg:g style="fill:#000000; fill-opacity:0.0;  stroke:#000000; stroke-width:1.000000; stroke-opacity:1;  stroke-linecap:round; stroke-linejoin:round;">
</svg:g>
<svg:g style="fill:#000000; fill-opacity:1.0;  stroke:#000000; stroke-width:1.000000; stroke-opacity:1;  stroke-linecap:round; stroke-linejoin:round;">
<svg:path style="fill:#000000; fill-opacity:1.0;  stroke:#000000; stroke-width:1.000000; stroke-opacity:1;  stroke-linecap:round; stroke-linejoin:round;fill-rule:evenodd;" d="M 47650000.000000,49750000.000000 47650000.000000,48750000.000000 49350000.000000,48750000.000000 49350000.000000,49750000.000000 Z"/> 
<svg:path style="fill:#000000; fill-opacity:1.0;  stroke:#000000; stroke-width:1.000000; stroke-opacity:1;  stroke-linecap:round; stroke-linejoin:round;fill-rule:evenodd;" d="M 47650000.000000,51250000.000000 47650000.000000,50650000.000000 49350000.000000,50650000.000000 49350000.000000,51250000.000000 Z"/> 
<svg:path style="fill:#000000; fill-opacity:1.0;  stroke:#000000; stroke-width:1.000000; stroke-opacity:1;  stroke-linecap:round; stroke-linejoin:round;fill-rule:evenodd;" d="M 50650000.000000,51250000.000000 50650000.000000,50650000.000000 52350000.000000,50650000.000000 52350000.000000,51250000.000000 Z"/> 
<svg:path style="fill:#000000; fill-opacity:1.0;  stroke:#000000; stroke-width:1.000000; stroke-opacity:1;  stroke-linecap:round; stroke-linejoin:round;fill-rule:evenodd;" d="M 50650000.000000,49350000.000000 50650000.000000,48750000.000000 52350000.000000,48750000.000000 52350000.000000,49350000.000000 Z"/> 
</svg:g>
<svg:g>
</svg:g>
<svg:g>
</svg:g>
<svg:g>
</svg:g>
</svg:g>
<svg:g style="fill:#000000; fill-opacity:1.0;  stroke:#000000; stroke-width:1.000000; stroke-opacity:1;  stroke-linecap:round; stroke-linejoin:round;">
<svg:g>
</svg:g>
<svg:g>
</svg:g>
<svg:g>
</svg:g>
<svg:g>
</svg:g>
</svg:g> 
</svg:g><svg:g><svg:title>SVG Picture created as kicadBoard-F_Paste.svg date 2022/11/18 01:35:23 </svg:title>
  <svg:desc>Picture generated by PCBNEW </svg:desc>
<svg:g style="fill:#000000; fill-opacity:1.000000;stroke:#000000; stroke-opacity:1.000000; stroke-linecap:round; stroke-linejoin:round;" transform="translate(0 0) scale(1 1)">
</svg:g>
<svg:g style="fill:#000000; fill-opacity:0.0;  stroke:#000000; stroke-width:0.000000; stroke-opacity:1;  stroke-linecap:round; stroke-linejoin:round;">
<svg:g>
</svg:g>
<svg:g style="fill:#000000; fill-opacity:0.0;  stroke:#000000; stroke-width:1.000000; stroke-opacity:1;  stroke-linecap:round; stroke-linejoin:round;">
</svg:g>
<svg:g style="fill:#000000; fill-opacity:1.0;  stroke:#000000; stroke-width:1.000000; stroke-opacity:1;  stroke-linecap:round; stroke-linejoin:round;">
<svg:path style="fill:#000000; fill-opacity:1.0;  stroke:#000000; stroke-width:1.000000; stroke-opacity:1;  stroke-linecap:round; stroke-linejoin:round;fill-rule:evenodd;" d="M 47650000.000000,49750000.000000 47650000.000000,48750000.000000 49350000.000000,48750000.000000 49350000.000000,49750000.000000 Z"/> 
<svg:path style="fill:#000000; fill-opacity:1.0;  stroke:#000000; stroke-width:1.000000; stroke-opacity:1;  stroke-linecap:round; stroke-linejoin:round;fill-rule:evenodd;" d="M 47650000.000000,51250000.000000 47650000.000000,50650000.000000 49350000.000000,50650000.000000 49350000.000000,51250000.000000 Z"/> 
<svg:path style="fill:#000000; fill-opacity:1.0;  stroke:#000000; stroke-width:1.000000; stroke-opacity:1;  stroke-linecap:round; stroke-linejoin:round;fill-rule:evenodd;" d="M 50650000.000000,51250000.000000 50650000.000000,50650000.000000 52350000.000000,50650000.000000 52350000.000000,51250000.000000 Z"/> 
<svg:path style="fill:#000000; fill-opacity:1.0;  stroke:#000000; stroke-width:1.000000; stroke-opacity:1;  stroke-linecap:round; stroke-linejoin:round;fill-rule:evenodd;" d="M 50650000.000000,49350000.000000 50650000.000000,48750000.000000 52350000.000000,48750000.000000 52350000.000000,49350000.000000 Z"/> 
</svg:g>
<svg:g>
</svg:g>
<svg:g>
</svg:g>
<svg:g>
</svg:g>
</svg:g>
<svg:g style="fill:#000000; fill-opacity:1.0;  stroke:#000000; stroke-width:1.000000; stroke-opacity:1;  stroke-linecap:round; stroke-linejoin:round;">
<svg:g>
</svg:g>
<svg:g>
</svg:g>
<svg:g>
</svg:g>
<svg:g>
</svg:g>
</svg:g> 
</svg:g><svg:g><svg:title>SVG Picture created as kicadBoard-F_Silkscreen.svg date 2022/11/18 01:35:23 </svg:title>
  <svg:desc>Picture generated by PCBNEW </svg:desc>
<svg:g style="fill:#000000; fill-opacity:1.000000;stroke:#000000; stroke-opacity:1.000000; stroke-linecap:round; stroke-linejoin:round;" transform="translate(0 0) scale(1 1)">
</svg:g>
<svg:g style="fill:#000000; fill-opacity:0.0;  stroke:#000000; stroke-width:0.000000; stroke-opacity:1;  stroke-linecap:round; stroke-linejoin:round;">
</svg:g>
<svg:g style="fill:#F2EDA1; fill-opacity:0.0;  stroke:#F2EDA1; stroke-width:0.000000; stroke-opacity:1;  stroke-linecap:round; stroke-linejoin:round;">
</svg:g>
<svg:g style="fill:#F2EDA1; fill-opacity:0.0;  stroke:#F2EDA1; stroke-width:150000.000000; stroke-opacity:1;  stroke-linecap:round; stroke-linejoin:round;">
<svg:text x="49980000.000000" y="48120000.000000" textLength="23380953.000000" font-size="1333333.000000" lengthAdjust="spacingAndGlyphs" text-anchor="middle" opacity="0">FZKSOTSOT143HANDSOLDERING</svg:text>
<svg:g class="stroked-text"><svg:desc>FZKSOTSOT143HANDSOLDERING</svg:desc>
<svg:path d="M38860952 47548571 L38527619 47548571 "/>
<svg:path d="M38527619 48072380 L38527619 47072380 L39003809 47072380 "/>
<svg:path d="M39289523 47072380 L39956190 47072380 L39289523 48072380 L39956190 48072380 "/>
<svg:path d="M40337142 48072380 L40337142 47072380 "/>
<svg:path d="M40908571 48072380 L40480000 47500952 "/>
<svg:path d="M40908571 47072380 L40337142 47643809 "/>
<svg:path d="M41289523 48024761 L41432380 48072380 L41670476 48072380 L41765714 48024761 L41813333 47977142 L41860952 47881904 L41860952 47786666 L41813333 47691428 L41765714 47643809 L41670476 47596190 L41480000 47548571 L41384761 47500952 L41337142 47453333 L41289523 47358095 L41289523 47262857 L41337142 47167619 L41384761 47120000 L41480000 47072380 L41718095 47072380 L41860952 47120000 "/>
<svg:path d="M42480000 47072380 L42670476 47072380 L42765714 47120000 L42860952 47215238 L42908571 47405714 L42908571 47739047 L42860952 47929523 L42765714 48024761 L42670476 48072380 L42480000 48072380 L42384761 48024761 L42289523 47929523 L42241904 47739047 L42241904 47405714 L42289523 47215238 L42384761 47120000 L42480000 47072380 "/>
<svg:path d="M43194285 47072380 L43765714 47072380 "/>
<svg:path d="M43479999 48072380 L43479999 47072380 "/>
<svg:path d="M44051428 48024761 L44194285 48072380 L44432380 48072380 L44527619 48024761 L44575238 47977142 L44622857 47881904 L44622857 47786666 L44575238 47691428 L44527619 47643809 L44432380 47596190 L44241904 47548571 L44146666 47500952 L44099047 47453333 L44051428 47358095 L44051428 47262857 L44099047 47167619 L44146666 47120000 L44241904 47072380 L44480000 47072380 L44622857 47120000 "/>
<svg:path d="M45241904 47072380 L45432380 47072380 L45527619 47120000 L45622857 47215238 L45670476 47405714 L45670476 47739047 L45622857 47929523 L45527619 48024761 L45432380 48072380 L45241904 48072380 L45146666 48024761 L45051428 47929523 L45003809 47739047 L45003809 47405714 L45051428 47215238 L45146666 47120000 L45241904 47072380 "/>
<svg:path d="M45956190 47072380 L46527619 47072380 "/>
<svg:path d="M46241904 48072380 L46241904 47072380 "/>
<svg:path d="M47384761 48072380 L46813333 48072380 "/>
<svg:path d="M47099047 48072380 L47099047 47072380 L47003809 47215238 L46908571 47310476 L46813333 47358095 "/>
<svg:path d="M48241904 47405714 L48241904 48072380 "/>
<svg:path d="M48003809 47024761 L47765714 47739047 L48384761 47739047 "/>
<svg:path d="M48670476 47072380 L49289523 47072380 L48956190 47453333 L49099047 47453333 L49194285 47500952 L49241904 47548571 L49289523 47643809 L49289523 47881904 L49241904 47977142 L49194285 48024761 L49099047 48072380 L48813333 48072380 L48718095 48024761 L48670476 47977142 "/>
<svg:path d="M49718095 48072380 L49718095 47072380 "/>
<svg:path d="M49718095 47548571 L50289523 47548571 "/>
<svg:path d="M50289523 48072380 L50289523 47072380 "/>
<svg:path d="M50718095 47786666 L51194285 47786666 "/>
<svg:path d="M50622857 48072380 L50956190 47072380 L51289523 48072380 "/>
<svg:path d="M51622857 48072380 L51622857 47072380 L52194285 48072380 L52194285 47072380 "/>
<svg:path d="M52670476 48072380 L52670476 47072380 L52908571 47072380 L53051428 47120000 L53146666 47215238 L53194285 47310476 L53241904 47500952 L53241904 47643809 L53194285 47834285 L53146666 47929523 L53051428 48024761 L52908571 48072380 L52670476 48072380 "/>
<svg:path d="M53622857 48024761 L53765714 48072380 L54003809 48072380 L54099047 48024761 L54146666 47977142 L54194285 47881904 L54194285 47786666 L54146666 47691428 L54099047 47643809 L54003809 47596190 L53813333 47548571 L53718095 47500952 L53670476 47453333 L53622857 47358095 L53622857 47262857 L53670476 47167619 L53718095 47120000 L53813333 47072380 L54051428 47072380 L54194285 47120000 "/>
<svg:path d="M54813333 47072380 L55003809 47072380 L55099047 47120000 L55194285 47215238 L55241904 47405714 L55241904 47739047 L55194285 47929523 L55099047 48024761 L55003809 48072380 L54813333 48072380 L54718095 48024761 L54622857 47929523 L54575238 47739047 L54575238 47405714 L54622857 47215238 L54718095 47120000 L54813333 47072380 "/>
<svg:path d="M56146666 48072380 L55670476 48072380 L55670476 47072380 "/>
<svg:path d="M56479999 48072380 L56479999 47072380 L56718095 47072380 L56860952 47120000 L56956190 47215238 L57003809 47310476 L57051428 47500952 L57051428 47643809 L57003809 47834285 L56956190 47929523 L56860952 48024761 L56718095 48072380 L56479999 48072380 "/>
<svg:path d="M57479999 47548571 L57813333 47548571 "/>
<svg:path d="M57956190 48072380 L57479999 48072380 L57479999 47072380 L57956190 47072380 "/>
<svg:path d="M58956190 48072380 L58622857 47596190 "/>
<svg:path d="M58384761 48072380 L58384761 47072380 L58765714 47072380 L58860952 47120000 L58908571 47167619 L58956190 47262857 L58956190 47405714 L58908571 47500952 L58860952 47548571 L58765714 47596190 L58384761 47596190 "/>
<svg:path d="M59384761 48072380 L59384761 47072380 "/>
<svg:path d="M59860952 48072380 L59860952 47072380 L60432380 48072380 L60432380 47072380 "/>
<svg:path d="M61432380 47120000 L61337142 47072380 L61194285 47072380 L61051428 47120000 L60956190 47215238 L60908571 47310476 L60860952 47500952 L60860952 47643809 L60908571 47834285 L60956190 47929523 L61051428 48024761 L61194285 48072380 L61289523 48072380 L61432380 48024761 L61479999 47977142 L61479999 47643809 L61289523 47643809 "/>
</svg:g></svg:g>
<svg:g style="fill:#F2EDA1; fill-opacity:0.0;  stroke:#F2EDA1; stroke-width:120000.000000; stroke-opacity:1;  stroke-linecap:round; stroke-linejoin:round;">
<svg:path d="M50650000 48440000 L47650000 48440000 "/>
<svg:path d="M49350000 51560000 L50650000 51560000 "/>
<svg:g>
</svg:g>
<svg:g>
</svg:g>
<svg:g>
</svg:g>
<svg:g>
</svg:g>
</svg:g>
<svg:g style="fill:#000000; fill-opacity:0.0;  stroke:#000000; stroke-width:120000.000000; stroke-opacity:1;  stroke-linecap:round; stroke-linejoin:round;">
<svg:g>
</svg:g>
<svg:g>
</svg:g>
<svg:g>
</svg:g>
<svg:g>
</svg:g>
</svg:g> 
</svg:g><svg:g><svg:title>SVG Picture created as kicadBoard-Margin.svg date 2022/11/18 01:35:23 </svg:title>
  <svg:desc>Picture generated by PCBNEW </svg:desc>
<svg:g style="fill:#000000; fill-opacity:1.000000;stroke:#000000; stroke-opacity:1.000000; stroke-linecap:round; stroke-linejoin:round;" transform="translate(0 0) scale(1 1)">
</svg:g>
<svg:g style="fill:#000000; fill-opacity:0.0;  stroke:#000000; stroke-width:0.000000; stroke-opacity:1;  stroke-linecap:round; stroke-linejoin:round;">
<svg:g>
</svg:g>
<svg:g>
</svg:g>
<svg:g>
</svg:g>
<svg:g>
</svg:g>
</svg:g>
<svg:g style="fill:#000000; fill-opacity:0.0;  stroke:#000000; stroke-width:0.000000; stroke-opacity:1;  stroke-linecap:round; stroke-linejoin:round;">
<svg:g>
</svg:g>
<svg:g>
</svg:g>
<svg:g>
</svg:g>
<svg:g>
</svg:g>
</svg:g> 
</svg:g><svg:g><svg:title>SVG Picture created as kicadBoard-F_Cu.svg date 2022/11/18 01:35:23 </svg:title>
  <svg:desc>Picture generated by PCBNEW </svg:desc>
<svg:g style="fill:#000000; fill-opacity:1.000000;stroke:#000000; stroke-opacity:1.000000; stroke-linecap:round; stroke-linejoin:round;" transform="translate(0 0) scale(1 1)">
</svg:g>
<svg:g style="fill:#000000; fill-opacity:0.0;  stroke:#000000; stroke-width:0.000000; stroke-opacity:1;  stroke-linecap:round; stroke-linejoin:round;">
<svg:g>
</svg:g>
<svg:g style="fill:#C83434; fill-opacity:0.0;  stroke:#C83434; stroke-width:0.000000; stroke-opacity:1;  stroke-linecap:round; stroke-linejoin:round;">
</svg:g>
<svg:g style="fill:#C83434; fill-opacity:0.0;  stroke:#C83434; stroke-width:1.000000; stroke-opacity:1;  stroke-linecap:round; stroke-linejoin:round;">
</svg:g>
<svg:g style="fill:#C83434; fill-opacity:1.0;  stroke:#C83434; stroke-width:1.000000; stroke-opacity:1;  stroke-linecap:round; stroke-linejoin:round;">
<svg:path style="fill:#C83434; fill-opacity:1.0;  stroke:#C83434; stroke-width:1.000000; stroke-opacity:1;  stroke-linecap:round; stroke-linejoin:round;fill-rule:evenodd;" d="M 47650000.000000,49750000.000000 47650000.000000,48750000.000000 49350000.000000,48750000.000000 49350000.000000,49750000.000000 Z"/> 
<svg:path style="fill:#C83434; fill-opacity:1.0;  stroke:#C83434; stroke-width:1.000000; stroke-opacity:1;  stroke-linecap:round; stroke-linejoin:round;fill-rule:evenodd;" d="M 47650000.000000,51250000.000000 47650000.000000,50650000.000000 49350000.000000,50650000.000000 49350000.000000,51250000.000000 Z"/> 
<svg:path style="fill:#C83434; fill-opacity:1.0;  stroke:#C83434; stroke-width:1.000000; stroke-opacity:1;  stroke-linecap:round; stroke-linejoin:round;fill-rule:evenodd;" d="M 50650000.000000,51250000.000000 50650000.000000,50650000.000000 52350000.000000,50650000.000000 52350000.000000,51250000.000000 Z"/> 
<svg:path style="fill:#C83434; fill-opacity:1.0;  stroke:#C83434; stroke-width:1.000000; stroke-opacity:1;  stroke-linecap:round; stroke-linejoin:round;fill-rule:evenodd;" d="M 50650000.000000,49350000.000000 50650000.000000,48750000.000000 52350000.000000,48750000.000000 52350000.000000,49350000.000000 Z"/> 
</svg:g>
<svg:g>
</svg:g>
<svg:g>
</svg:g>
<svg:g>
</svg:g>
</svg:g>
<svg:g style="fill:#FFFFFF; fill-opacity:1.0;  stroke:#FFFFFF; stroke-width:1.000000; stroke-opacity:1;  stroke-linecap:round; stroke-linejoin:round;">
</svg:g>
<svg:g style="fill:#000000; fill-opacity:1.0;  stroke:#000000; stroke-width:1.000000; stroke-opacity:1;  stroke-linecap:round; stroke-linejoin:round;">
<svg:g>
</svg:g>
<svg:g>
</svg:g>
<svg:g>
</svg:g>
<svg:g>
</svg:g>
</svg:g> 
</svg:g></svg>
