<?xml version='1.0' encoding='ASCII' standalone='yes'?>
<svg xmlns:svg="http://www.w3.org/2000/svg" xmlns="http://www.w3.org/2000/svg" xmlns:xlink="http://www.w3.org/1999/xlink" version="1.1" width="9.999980cm" height="9.999980cm" viewBox="0 0 99999800 99999800">
<title>SVG Picture created as kicadBoard-B_Cu.svg date 2022/11/16 21:28:39 </title>
  <desc>Picture generated by PCBNEW </desc>
<g style="fill:#000000; fill-opacity:1.000000;stroke:#000000; stroke-opacity:1.000000; stroke-linecap:round; stroke-linejoin:round;" transform="translate(0 0) scale(1 1)">
</g>
<g style="fill:#000000; fill-opacity:0.0;  stroke:#000000; stroke-width:0.000000; stroke-opacity:1;  stroke-linecap:round; stroke-linejoin:round;">
<g>
</g>
<g style="fill:#4D7FC4; fill-opacity:0.0;  stroke:#4D7FC4; stroke-width:0.000000; stroke-opacity:1;  stroke-linecap:round; stroke-linejoin:round;">
</g>
<g style="fill:#4D7FC4; fill-opacity:0.0;  stroke:#4D7FC4; stroke-width:1.000000; stroke-opacity:1;  stroke-linecap:round; stroke-linejoin:round;">
</g>
<g style="fill:#4D7FC4; fill-opacity:1.0;  stroke:#4D7FC4; stroke-width:1.000000; stroke-opacity:1;  stroke-linecap:round; stroke-linejoin:round;">
<path style="fill:#4D7FC4; fill-opacity:1.0;  stroke:#4D7FC4; stroke-width:1.000000; stroke-opacity:1;  stroke-linecap:round; stroke-linejoin:round;fill-rule:evenodd;" d="M 49000000.000000,51000000.000000 49000000.000000,49000000.000000 51000000.000000,49000000.000000 51000000.000000,51000000.000000 Z"/> 
<circle cx="65000000.000000" cy="50000000.000000" r="1000000.000000"/> 
</g>
<g>
</g>
<g>
</g>
<g>
</g>
</g>
<g style="fill:#FFFFFF; fill-opacity:1.0;  stroke:#FFFFFF; stroke-width:1.000000; stroke-opacity:1;  stroke-linecap:round; stroke-linejoin:round;">
<circle cx="50000000.000000" cy="50000000.000000" r="500000.000000"/> 
</g>
<g style="fill:#FFFFFF; fill-opacity:1.0;  stroke:#FFFFFF; stroke-width:21200.000000; stroke-opacity:1;  stroke-linecap:round; stroke-linejoin:round;">
</g>
<g style="fill:#FFFFFF; fill-opacity:1.0;  stroke:#FFFFFF; stroke-width:1.000000; stroke-opacity:1;  stroke-linecap:round; stroke-linejoin:round;">
<circle cx="65000000.000000" cy="50000000.000000" r="500000.000000"/> 
</g>
<g style="fill:#FFFFFF; fill-opacity:1.0;  stroke:#FFFFFF; stroke-width:21200.000000; stroke-opacity:1;  stroke-linecap:round; stroke-linejoin:round;">
</g>
<g style="fill:#000000; fill-opacity:1.0;  stroke:#000000; stroke-width:21200.000000; stroke-opacity:1;  stroke-linecap:round; stroke-linejoin:round;">
<g>
</g>
<g>
</g>
<g>
</g>
<g>
</g>
</g> 
<svg:g><svg:title>SVG Picture created as kicadBoard-B_Adhesive.svg date 2022/11/16 21:28:39 </svg:title>
  <svg:desc>Picture generated by PCBNEW </svg:desc>
<svg:g style="fill:#000000; fill-opacity:1.000000;stroke:#000000; stroke-opacity:1.000000; stroke-linecap:round; stroke-linejoin:round;" transform="translate(0 0) scale(1 1)">
</svg:g>
<svg:g style="fill:#000000; fill-opacity:0.0;  stroke:#000000; stroke-width:0.000000; stroke-opacity:1;  stroke-linecap:round; stroke-linejoin:round;">
<svg:g>
</svg:g>
<svg:g>
</svg:g>
<svg:g>
</svg:g>
<svg:g>
</svg:g>
</svg:g>
<svg:g style="fill:#000000; fill-opacity:0.0;  stroke:#000000; stroke-width:0.000000; stroke-opacity:1;  stroke-linecap:round; stroke-linejoin:round;">
<svg:g>
</svg:g>
<svg:g>
</svg:g>
<svg:g>
</svg:g>
<svg:g>
</svg:g>
</svg:g> 
</svg:g><svg:g><svg:title>SVG Picture created as kicadBoard-B_Courtyard.svg date 2022/11/16 21:28:39 </svg:title>
  <svg:desc>Picture generated by PCBNEW </svg:desc>
<svg:g style="fill:#000000; fill-opacity:1.000000;stroke:#000000; stroke-opacity:1.000000; stroke-linecap:round; stroke-linejoin:round;" transform="translate(0 0) scale(1 1)">
</svg:g>
<svg:g style="fill:#000000; fill-opacity:0.0;  stroke:#000000; stroke-width:0.000000; stroke-opacity:1;  stroke-linecap:round; stroke-linejoin:round;">
<svg:g>
</svg:g>
<svg:g>
</svg:g>
<svg:g>
</svg:g>
<svg:g>
</svg:g>
</svg:g>
<svg:g style="fill:#000000; fill-opacity:0.0;  stroke:#000000; stroke-width:0.000000; stroke-opacity:1;  stroke-linecap:round; stroke-linejoin:round;">
<svg:g>
</svg:g>
<svg:g>
</svg:g>
<svg:g>
</svg:g>
<svg:g>
</svg:g>
</svg:g> 
</svg:g><svg:g><svg:title>SVG Picture created as kicadBoard-B_Fab.svg date 2022/11/16 21:28:39 </svg:title>
  <svg:desc>Picture generated by PCBNEW </svg:desc>
<svg:g style="fill:#000000; fill-opacity:1.000000;stroke:#000000; stroke-opacity:1.000000; stroke-linecap:round; stroke-linejoin:round;" transform="translate(0 0) scale(1 1)">
</svg:g>
<svg:g style="fill:#000000; fill-opacity:0.0;  stroke:#000000; stroke-width:0.000000; stroke-opacity:1;  stroke-linecap:round; stroke-linejoin:round;">
<svg:g>
</svg:g>
<svg:g>
</svg:g>
<svg:g>
</svg:g>
<svg:g>
</svg:g>
</svg:g>
<svg:g style="fill:#000000; fill-opacity:0.0;  stroke:#000000; stroke-width:0.000000; stroke-opacity:1;  stroke-linecap:round; stroke-linejoin:round;">
<svg:g>
</svg:g>
<svg:g>
</svg:g>
<svg:g>
</svg:g>
<svg:g>
</svg:g>
</svg:g> 
</svg:g><svg:g><svg:title>SVG Picture created as kicadBoard-B_Mask.svg date 2022/11/16 21:28:39 </svg:title>
  <svg:desc>Picture generated by PCBNEW </svg:desc>
<svg:g style="fill:#000000; fill-opacity:1.000000;stroke:#000000; stroke-opacity:1.000000; stroke-linecap:round; stroke-linejoin:round;" transform="translate(0 0) scale(1 1)">
</svg:g>
<svg:g style="fill:#000000; fill-opacity:0.0;  stroke:#000000; stroke-width:0.000000; stroke-opacity:1;  stroke-linecap:round; stroke-linejoin:round;">
<svg:g>
</svg:g>
<svg:g style="fill:#000000; fill-opacity:0.0;  stroke:#000000; stroke-width:1.000000; stroke-opacity:1;  stroke-linecap:round; stroke-linejoin:round;">
</svg:g>
<svg:g style="fill:#000000; fill-opacity:1.0;  stroke:#000000; stroke-width:1.000000; stroke-opacity:1;  stroke-linecap:round; stroke-linejoin:round;">
<svg:path style="fill:#000000; fill-opacity:1.0;  stroke:#000000; stroke-width:1.000000; stroke-opacity:1;  stroke-linecap:round; stroke-linejoin:round;fill-rule:evenodd;" d="M 49000000.000000,51000000.000000 49000000.000000,49000000.000000 51000000.000000,49000000.000000 51000000.000000,51000000.000000 Z"/> 
<svg:circle cx="65000000.000000" cy="50000000.000000" r="1000000.000000"/> 
</svg:g>
<svg:g>
</svg:g>
<svg:g>
</svg:g>
<svg:g>
</svg:g>
</svg:g>
<svg:g style="fill:#000000; fill-opacity:1.0;  stroke:#000000; stroke-width:1.000000; stroke-opacity:1;  stroke-linecap:round; stroke-linejoin:round;">
<svg:g>
</svg:g>
<svg:g>
</svg:g>
<svg:g>
</svg:g>
<svg:g>
</svg:g>
</svg:g> 
</svg:g><svg:g><svg:title>SVG Picture created as kicadBoard-B_Paste.svg date 2022/11/16 21:28:39 </svg:title>
  <svg:desc>Picture generated by PCBNEW </svg:desc>
<svg:g style="fill:#000000; fill-opacity:1.000000;stroke:#000000; stroke-opacity:1.000000; stroke-linecap:round; stroke-linejoin:round;" transform="translate(0 0) scale(1 1)">
</svg:g>
<svg:g style="fill:#000000; fill-opacity:0.0;  stroke:#000000; stroke-width:0.000000; stroke-opacity:1;  stroke-linecap:round; stroke-linejoin:round;">
<svg:g>
</svg:g>
<svg:g>
</svg:g>
<svg:g>
</svg:g>
<svg:g>
</svg:g>
</svg:g>
<svg:g style="fill:#000000; fill-opacity:0.0;  stroke:#000000; stroke-width:0.000000; stroke-opacity:1;  stroke-linecap:round; stroke-linejoin:round;">
<svg:g>
</svg:g>
<svg:g>
</svg:g>
<svg:g>
</svg:g>
<svg:g>
</svg:g>
</svg:g> 
</svg:g><svg:g><svg:title>SVG Picture created as kicadBoard-B_Silkscreen.svg date 2022/11/16 21:28:39 </svg:title>
  <svg:desc>Picture generated by PCBNEW </svg:desc>
<svg:g style="fill:#000000; fill-opacity:1.000000;stroke:#000000; stroke-opacity:1.000000; stroke-linecap:round; stroke-linejoin:round;" transform="translate(0 0) scale(1 1)">
</svg:g>
<svg:g style="fill:#000000; fill-opacity:0.0;  stroke:#000000; stroke-width:0.000000; stroke-opacity:1;  stroke-linecap:round; stroke-linejoin:round;">
<svg:g>
</svg:g>
<svg:g>
</svg:g>
<svg:g>
</svg:g>
<svg:g>
</svg:g>
</svg:g>
<svg:g style="fill:#000000; fill-opacity:0.0;  stroke:#000000; stroke-width:0.000000; stroke-opacity:1;  stroke-linecap:round; stroke-linejoin:round;">
<svg:g>
</svg:g>
<svg:g>
</svg:g>
<svg:g>
</svg:g>
<svg:g>
</svg:g>
</svg:g> 
</svg:g><svg:g><svg:title>SVG Picture created as kicadBoard-Edge_Cuts.svg date 2022/11/16 21:28:39 </svg:title>
  <svg:desc>Picture generated by PCBNEW </svg:desc>
<svg:g style="fill:#000000; fill-opacity:1.000000;stroke:#000000; stroke-opacity:1.000000; stroke-linecap:round; stroke-linejoin:round;" transform="translate(0 0) scale(1 1)">
</svg:g>
<svg:g style="fill:#000000; fill-opacity:0.0;  stroke:#000000; stroke-width:0.000000; stroke-opacity:1;  stroke-linecap:round; stroke-linejoin:round;">
<svg:g>
</svg:g>
<svg:g>
</svg:g>
<svg:g>
</svg:g>
<svg:g>
</svg:g>
</svg:g> 
</svg:g><svg:g><svg:title>SVG Picture created as kicadBoard-F_Adhesive.svg date 2022/11/16 21:28:39 </svg:title>
  <svg:desc>Picture generated by PCBNEW </svg:desc>
<svg:g style="fill:#000000; fill-opacity:1.000000;stroke:#000000; stroke-opacity:1.000000; stroke-linecap:round; stroke-linejoin:round;" transform="translate(0 0) scale(1 1)">
</svg:g>
<svg:g style="fill:#000000; fill-opacity:0.0;  stroke:#000000; stroke-width:0.000000; stroke-opacity:1;  stroke-linecap:round; stroke-linejoin:round;">
<svg:g>
</svg:g>
<svg:g>
</svg:g>
<svg:g>
</svg:g>
<svg:g>
</svg:g>
</svg:g>
<svg:g style="fill:#000000; fill-opacity:0.0;  stroke:#000000; stroke-width:0.000000; stroke-opacity:1;  stroke-linecap:round; stroke-linejoin:round;">
<svg:g>
</svg:g>
<svg:g>
</svg:g>
<svg:g>
</svg:g>
<svg:g>
</svg:g>
</svg:g> 
</svg:g><svg:g><svg:title>SVG Picture created as kicadBoard-F_Courtyard.svg date 2022/11/16 21:28:39 </svg:title>
  <svg:desc>Picture generated by PCBNEW </svg:desc>
<svg:g style="fill:#000000; fill-opacity:1.000000;stroke:#000000; stroke-opacity:1.000000; stroke-linecap:round; stroke-linejoin:round;" transform="translate(0 0) scale(1 1)">
</svg:g>
<svg:g style="fill:#000000; fill-opacity:0.0;  stroke:#000000; stroke-width:0.000000; stroke-opacity:1;  stroke-linecap:round; stroke-linejoin:round;">
</svg:g>
<svg:g style="fill:#FF26E2; fill-opacity:0.0;  stroke:#FF26E2; stroke-width:0.000000; stroke-opacity:1;  stroke-linecap:round; stroke-linejoin:round;">
</svg:g>
<svg:g style="fill:#FF26E2; fill-opacity:0.0;  stroke:#FF26E2; stroke-width:50000.000000; stroke-opacity:1;  stroke-linecap:round; stroke-linejoin:round;">
<svg:path d="M66250000 45750000 L48750000 45750000 "/>
<svg:path d="M48750000 54250000 L66250000 54250000 "/>
<svg:path d="M66250000 54250000 L66250000 45750000 "/>
<svg:path d="M48750000 45750000 L48750000 54250000 "/>
<svg:g>
</svg:g>
<svg:g>
</svg:g>
<svg:g>
</svg:g>
<svg:g>
</svg:g>
</svg:g>
<svg:g style="fill:#000000; fill-opacity:0.0;  stroke:#000000; stroke-width:50000.000000; stroke-opacity:1;  stroke-linecap:round; stroke-linejoin:round;">
<svg:g>
</svg:g>
<svg:g>
</svg:g>
<svg:g>
</svg:g>
<svg:g>
</svg:g>
</svg:g> 
</svg:g><svg:g><svg:title>SVG Picture created as kicadBoard-F_Cu.svg date 2022/11/16 21:28:39 </svg:title>
  <svg:desc>Picture generated by PCBNEW </svg:desc>
<svg:g style="fill:#000000; fill-opacity:1.000000;stroke:#000000; stroke-opacity:1.000000; stroke-linecap:round; stroke-linejoin:round;" transform="translate(0 0) scale(1 1)">
</svg:g>
<svg:g style="fill:#000000; fill-opacity:0.0;  stroke:#000000; stroke-width:0.000000; stroke-opacity:1;  stroke-linecap:round; stroke-linejoin:round;">
<svg:g>
</svg:g>
<svg:g style="fill:#C83434; fill-opacity:0.0;  stroke:#C83434; stroke-width:0.000000; stroke-opacity:1;  stroke-linecap:round; stroke-linejoin:round;">
</svg:g>
<svg:g style="fill:#C83434; fill-opacity:0.0;  stroke:#C83434; stroke-width:1.000000; stroke-opacity:1;  stroke-linecap:round; stroke-linejoin:round;">
</svg:g>
<svg:g style="fill:#C83434; fill-opacity:1.0;  stroke:#C83434; stroke-width:1.000000; stroke-opacity:1;  stroke-linecap:round; stroke-linejoin:round;">
<svg:path style="fill:#C83434; fill-opacity:1.0;  stroke:#C83434; stroke-width:1.000000; stroke-opacity:1;  stroke-linecap:round; stroke-linejoin:round;fill-rule:evenodd;" d="M 49000000.000000,51000000.000000 49000000.000000,49000000.000000 51000000.000000,49000000.000000 51000000.000000,51000000.000000 Z"/> 
<svg:circle cx="65000000.000000" cy="50000000.000000" r="1000000.000000"/> 
</svg:g>
<svg:g>
</svg:g>
<svg:g>
</svg:g>
<svg:g>
</svg:g>
</svg:g>
<svg:g style="fill:#FFFFFF; fill-opacity:1.0;  stroke:#FFFFFF; stroke-width:1.000000; stroke-opacity:1;  stroke-linecap:round; stroke-linejoin:round;">
<svg:circle cx="50000000.000000" cy="50000000.000000" r="500000.000000"/> 
</svg:g>
<svg:g style="fill:#FFFFFF; fill-opacity:1.0;  stroke:#FFFFFF; stroke-width:21200.000000; stroke-opacity:1;  stroke-linecap:round; stroke-linejoin:round;">
</svg:g>
<svg:g style="fill:#FFFFFF; fill-opacity:1.0;  stroke:#FFFFFF; stroke-width:1.000000; stroke-opacity:1;  stroke-linecap:round; stroke-linejoin:round;">
<svg:circle cx="65000000.000000" cy="50000000.000000" r="500000.000000"/> 
</svg:g>
<svg:g style="fill:#FFFFFF; fill-opacity:1.0;  stroke:#FFFFFF; stroke-width:21200.000000; stroke-opacity:1;  stroke-linecap:round; stroke-linejoin:round;">
</svg:g>
<svg:g style="fill:#000000; fill-opacity:1.0;  stroke:#000000; stroke-width:21200.000000; stroke-opacity:1;  stroke-linecap:round; stroke-linejoin:round;">
<svg:g>
</svg:g>
<svg:g>
</svg:g>
<svg:g>
</svg:g>
<svg:g>
</svg:g>
</svg:g> 
</svg:g><svg:g><svg:title>SVG Picture created as kicadBoard-F_Fab.svg date 2022/11/16 21:28:39 </svg:title>
  <svg:desc>Picture generated by PCBNEW </svg:desc>
<svg:g style="fill:#000000; fill-opacity:1.000000;stroke:#000000; stroke-opacity:1.000000; stroke-linecap:round; stroke-linejoin:round;" transform="translate(0 0) scale(1 1)">
</svg:g>
<svg:g style="fill:#000000; fill-opacity:0.0;  stroke:#000000; stroke-width:0.000000; stroke-opacity:1;  stroke-linecap:round; stroke-linejoin:round;">
</svg:g>
<svg:g style="fill:#AFAFAF; fill-opacity:0.0;  stroke:#AFAFAF; stroke-width:0.000000; stroke-opacity:1;  stroke-linecap:round; stroke-linejoin:round;">
</svg:g>
<svg:g style="fill:#AFAFAF; fill-opacity:0.0;  stroke:#AFAFAF; stroke-width:150000.000000; stroke-opacity:1;  stroke-linecap:round; stroke-linejoin:round;">
<svg:text x="57500000.000000" y="55620000.000000" textLength="38052143.000000" font-size="1333333.000000" lengthAdjust="spacingAndGlyphs" text-anchor="middle" opacity="0">CP_Axial_L11.0mm_D8.0mm_P15.00mm_Horizontal</svg:text>
<svg:g class="stroked-text"><svg:desc>CP_Axial_L11.0mm_D8.0mm_P15.00mm_Horizontal</svg:desc>
<svg:path d="M39380952 55477142 L39333333 55524761 L39190476 55572380 L39095238 55572380 L38952380 55524761 L38857142 55429523 L38809523 55334285 L38761904 55143809 L38761904 55000952 L38809523 54810476 L38857142 54715238 L38952380 54620000 L39095238 54572380 L39190476 54572380 L39333333 54620000 L39380952 54667619 "/>
<svg:path d="M39809523 55572380 L39809523 54572380 L40190476 54572380 L40285714 54620000 L40333333 54667619 L40380952 54762857 L40380952 54905714 L40333333 55000952 L40285714 55048571 L40190476 55096190 L39809523 55096190 "/>
<svg:path d="M40571428 55667619 L41333333 55667619 "/>
<svg:path d="M41523809 55286666 L42000000 55286666 "/>
<svg:path d="M41428571 55572380 L41761904 54572380 L42095238 55572380 "/>
<svg:path d="M42333333 55572380 L42857142 54905714 "/>
<svg:path d="M42333333 54905714 L42857142 55572380 "/>
<svg:path d="M43238095 55572380 L43238095 54905714 "/>
<svg:path d="M43238095 54572380 L43190476 54620000 L43238095 54667619 L43285714 54620000 L43238095 54572380 L43238095 54667619 "/>
<svg:path d="M44142857 55572380 L44142857 55048571 L44095238 54953333 L44000000 54905714 L43809523 54905714 L43714285 54953333 "/>
<svg:path d="M44142857 55524761 L44047619 55572380 L43809523 55572380 L43714285 55524761 L43666666 55429523 L43666666 55334285 L43714285 55239047 L43809523 55191428 L44047619 55191428 L44142857 55143809 "/>
<svg:path d="M44761904 55572380 L44666666 55524761 L44619047 55429523 L44619047 54572380 "/>
<svg:path d="M44904761 55667619 L45666666 55667619 "/>
<svg:path d="M46380952 55572380 L45904761 55572380 L45904761 54572380 "/>
<svg:path d="M47238095 55572380 L46666666 55572380 "/>
<svg:path d="M46952380 55572380 L46952380 54572380 L46857142 54715238 L46761904 54810476 L46666666 54858095 "/>
<svg:path d="M48190476 55572380 L47619047 55572380 "/>
<svg:path d="M47904761 55572380 L47904761 54572380 L47809523 54715238 L47714285 54810476 L47619047 54858095 "/>
<svg:path d="M48619047 55477142 L48666666 55524761 L48619047 55572380 L48571428 55524761 L48619047 55477142 L48619047 55572380 "/>
<svg:path d="M49285714 54572380 L49380952 54572380 L49476190 54620000 L49523809 54667619 L49571428 54762857 L49619047 54953333 L49619047 55191428 L49571428 55381904 L49523809 55477142 L49476190 55524761 L49380952 55572380 L49285714 55572380 L49190476 55524761 L49142857 55477142 L49095238 55381904 L49047619 55191428 L49047619 54953333 L49095238 54762857 L49142857 54667619 L49190476 54620000 L49285714 54572380 "/>
<svg:path d="M50047619 55572380 L50047619 54905714 "/>
<svg:path d="M50047619 55000952 L50095238 54953333 L50190476 54905714 L50333333 54905714 L50428571 54953333 L50476190 55048571 L50476190 55572380 "/>
<svg:path d="M50476190 55048571 L50523809 54953333 L50619047 54905714 L50761904 54905714 L50857142 54953333 L50904761 55048571 L50904761 55572380 "/>
<svg:path d="M51380952 55572380 L51380952 54905714 "/>
<svg:path d="M51380952 55000952 L51428571 54953333 L51523809 54905714 L51666666 54905714 L51761904 54953333 L51809523 55048571 L51809523 55572380 "/>
<svg:path d="M51809523 55048571 L51857142 54953333 L51952380 54905714 L52095238 54905714 L52190476 54953333 L52238095 55048571 L52238095 55572380 "/>
<svg:path d="M52476190 55667619 L53238095 55667619 "/>
<svg:path d="M53476190 55572380 L53476190 54572380 L53714285 54572380 L53857142 54620000 L53952380 54715238 L54000000 54810476 L54047619 55000952 L54047619 55143809 L54000000 55334285 L53952380 55429523 L53857142 55524761 L53714285 55572380 L53476190 55572380 "/>
<svg:path d="M54619047 55000952 L54523809 54953333 L54476190 54905714 L54428571 54810476 L54428571 54762857 L54476190 54667619 L54523809 54620000 L54619047 54572380 L54809523 54572380 L54904761 54620000 L54952380 54667619 L55000000 54762857 L55000000 54810476 L54952380 54905714 L54904761 54953333 L54809523 55000952 L54619047 55000952 L54523809 55048571 L54476190 55096190 L54428571 55191428 L54428571 55381904 L54476190 55477142 L54523809 55524761 L54619047 55572380 L54809523 55572380 L54904761 55524761 L54952380 55477142 L55000000 55381904 L55000000 55191428 L54952380 55096190 L54904761 55048571 L54809523 55000952 "/>
<svg:path d="M55428571 55477142 L55476190 55524761 L55428571 55572380 L55380952 55524761 L55428571 55477142 L55428571 55572380 "/>
<svg:path d="M56095238 54572380 L56190476 54572380 L56285714 54620000 L56333333 54667619 L56380952 54762857 L56428571 54953333 L56428571 55191428 L56380952 55381904 L56333333 55477142 L56285714 55524761 L56190476 55572380 L56095238 55572380 L56000000 55524761 L55952380 55477142 L55904761 55381904 L55857142 55191428 L55857142 54953333 L55904761 54762857 L55952380 54667619 L56000000 54620000 L56095238 54572380 "/>
<svg:path d="M56857142 55572380 L56857142 54905714 "/>
<svg:path d="M56857142 55000952 L56904761 54953333 L57000000 54905714 L57142857 54905714 L57238095 54953333 L57285714 55048571 L57285714 55572380 "/>
<svg:path d="M57285714 55048571 L57333333 54953333 L57428571 54905714 L57571428 54905714 L57666666 54953333 L57714285 55048571 L57714285 55572380 "/>
<svg:path d="M58190476 55572380 L58190476 54905714 "/>
<svg:path d="M58190476 55000952 L58238095 54953333 L58333333 54905714 L58476190 54905714 L58571428 54953333 L58619047 55048571 L58619047 55572380 "/>
<svg:path d="M58619047 55048571 L58666666 54953333 L58761904 54905714 L58904761 54905714 L59000000 54953333 L59047619 55048571 L59047619 55572380 "/>
<svg:path d="M59285714 55667619 L60047619 55667619 "/>
<svg:path d="M60285714 55572380 L60285714 54572380 L60666666 54572380 L60761904 54620000 L60809523 54667619 L60857142 54762857 L60857142 54905714 L60809523 55000952 L60761904 55048571 L60666666 55096190 L60285714 55096190 "/>
<svg:path d="M61809523 55572380 L61238095 55572380 "/>
<svg:path d="M61523809 55572380 L61523809 54572380 L61428571 54715238 L61333333 54810476 L61238095 54858095 "/>
<svg:path d="M62714285 54572380 L62238095 54572380 L62190476 55048571 L62238095 55000952 L62333333 54953333 L62571428 54953333 L62666666 55000952 L62714285 55048571 L62761904 55143809 L62761904 55381904 L62714285 55477142 L62666666 55524761 L62571428 55572380 L62333333 55572380 L62238095 55524761 L62190476 55477142 "/>
<svg:path d="M63190476 55477142 L63238095 55524761 L63190476 55572380 L63142857 55524761 L63190476 55477142 L63190476 55572380 "/>
<svg:path d="M63857142 54572380 L63952380 54572380 L64047619 54620000 L64095238 54667619 L64142857 54762857 L64190476 54953333 L64190476 55191428 L64142857 55381904 L64095238 55477142 L64047619 55524761 L63952380 55572380 L63857142 55572380 L63761904 55524761 L63714285 55477142 L63666666 55381904 L63619047 55191428 L63619047 54953333 L63666666 54762857 L63714285 54667619 L63761904 54620000 L63857142 54572380 "/>
<svg:path d="M64809523 54572380 L64904761 54572380 L65000000 54620000 L65047619 54667619 L65095238 54762857 L65142857 54953333 L65142857 55191428 L65095238 55381904 L65047619 55477142 L65000000 55524761 L64904761 55572380 L64809523 55572380 L64714285 55524761 L64666666 55477142 L64619047 55381904 L64571428 55191428 L64571428 54953333 L64619047 54762857 L64666666 54667619 L64714285 54620000 L64809523 54572380 "/>
<svg:path d="M65571428 55572380 L65571428 54905714 "/>
<svg:path d="M65571428 55000952 L65619047 54953333 L65714285 54905714 L65857142 54905714 L65952380 54953333 L66000000 55048571 L66000000 55572380 "/>
<svg:path d="M66000000 55048571 L66047619 54953333 L66142857 54905714 L66285714 54905714 L66380952 54953333 L66428571 55048571 L66428571 55572380 "/>
<svg:path d="M66904761 55572380 L66904761 54905714 "/>
<svg:path d="M66904761 55000952 L66952380 54953333 L67047619 54905714 L67190476 54905714 L67285714 54953333 L67333333 55048571 L67333333 55572380 "/>
<svg:path d="M67333333 55048571 L67380952 54953333 L67476190 54905714 L67619047 54905714 L67714285 54953333 L67761904 55048571 L67761904 55572380 "/>
<svg:path d="M68000000 55667619 L68761904 55667619 "/>
<svg:path d="M69000000 55572380 L69000000 54572380 "/>
<svg:path d="M69000000 55048571 L69571428 55048571 "/>
<svg:path d="M69571428 55572380 L69571428 54572380 "/>
<svg:path d="M70190476 55572380 L70095238 55524761 L70047619 55477142 L70000000 55381904 L70000000 55096190 L70047619 55000952 L70095238 54953333 L70190476 54905714 L70333333 54905714 L70428571 54953333 L70476190 55000952 L70523809 55096190 L70523809 55381904 L70476190 55477142 L70428571 55524761 L70333333 55572380 L70190476 55572380 "/>
<svg:path d="M70952380 55572380 L70952380 54905714 "/>
<svg:path d="M70952380 55096190 L71000000 55000952 L71047619 54953333 L71142857 54905714 L71238095 54905714 "/>
<svg:path d="M71571428 55572380 L71571428 54905714 "/>
<svg:path d="M71571428 54572380 L71523809 54620000 L71571428 54667619 L71619047 54620000 L71571428 54572380 L71571428 54667619 "/>
<svg:path d="M71952380 54905714 L72476190 54905714 L71952380 55572380 L72476190 55572380 "/>
<svg:path d="M73000000 55572380 L72904761 55524761 L72857142 55477142 L72809523 55381904 L72809523 55096190 L72857142 55000952 L72904761 54953333 L73000000 54905714 L73142857 54905714 L73238095 54953333 L73285714 55000952 L73333333 55096190 L73333333 55381904 L73285714 55477142 L73238095 55524761 L73142857 55572380 L73000000 55572380 "/>
<svg:path d="M73761904 54905714 L73761904 55572380 "/>
<svg:path d="M73761904 55000952 L73809523 54953333 L73904761 54905714 L74047619 54905714 L74142857 54953333 L74190476 55048571 L74190476 55572380 "/>
<svg:path d="M74523809 54905714 L74904761 54905714 "/>
<svg:path d="M74666666 54572380 L74666666 55429523 L74714285 55524761 L74809523 55572380 L74904761 55572380 "/>
<svg:path d="M75666666 55572380 L75666666 55048571 L75619047 54953333 L75523809 54905714 L75333333 54905714 L75238095 54953333 "/>
<svg:path d="M75666666 55524761 L75571428 55572380 L75333333 55572380 L75238095 55524761 L75190476 55429523 L75190476 55334285 L75238095 55239047 L75333333 55191428 L75571428 55191428 L75666666 55143809 "/>
<svg:path d="M76285714 55572380 L76190476 55524761 L76142857 55429523 L76142857 54572380 "/>
</svg:g><svg:text x="57500000.000000" y="50500000.000000" textLength="26575952.000000" font-size="1333333.000000" lengthAdjust="spacingAndGlyphs" text-anchor="middle" opacity="0">FZKCCPAXIALL11D8P15HORIZONTAL</svg:text>
<svg:g class="stroked-text"><svg:desc>FZKCCPAXIALL11D8P15HORIZONTAL</svg:desc>
<svg:path d="M44880952 49928571 L44547619 49928571 "/>
<svg:path d="M44547619 50452380 L44547619 49452380 L45023809 49452380 "/>
<svg:path d="M45309523 49452380 L45976190 49452380 L45309523 50452380 L45976190 50452380 "/>
<svg:path d="M46357142 50452380 L46357142 49452380 "/>
<svg:path d="M46928571 50452380 L46500000 49880952 "/>
<svg:path d="M46928571 49452380 L46357142 50023809 "/>
<svg:path d="M47928571 50357142 L47880952 50404761 L47738095 50452380 L47642857 50452380 L47500000 50404761 L47404761 50309523 L47357142 50214285 L47309523 50023809 L47309523 49880952 L47357142 49690476 L47404761 49595238 L47500000 49500000 L47642857 49452380 L47738095 49452380 L47880952 49500000 L47928571 49547619 "/>
<svg:path d="M48928571 50357142 L48880952 50404761 L48738095 50452380 L48642857 50452380 L48500000 50404761 L48404761 50309523 L48357142 50214285 L48309523 50023809 L48309523 49880952 L48357142 49690476 L48404761 49595238 L48500000 49500000 L48642857 49452380 L48738095 49452380 L48880952 49500000 L48928571 49547619 "/>
<svg:path d="M49357142 50452380 L49357142 49452380 L49738095 49452380 L49833333 49500000 L49880952 49547619 L49928571 49642857 L49928571 49785714 L49880952 49880952 L49833333 49928571 L49738095 49976190 L49357142 49976190 "/>
<svg:path d="M50309523 50166666 L50785714 50166666 "/>
<svg:path d="M50214285 50452380 L50547619 49452380 L50880952 50452380 "/>
<svg:path d="M51119047 49452380 L51785714 50452380 "/>
<svg:path d="M51785714 49452380 L51119047 50452380 "/>
<svg:path d="M52166666 50452380 L52166666 49452380 "/>
<svg:path d="M52595238 50166666 L53071428 50166666 "/>
<svg:path d="M52500000 50452380 L52833333 49452380 L53166666 50452380 "/>
<svg:path d="M53976190 50452380 L53500000 50452380 L53500000 49452380 "/>
<svg:path d="M54785714 50452380 L54309523 50452380 L54309523 49452380 "/>
<svg:path d="M55642857 50452380 L55071428 50452380 "/>
<svg:path d="M55357142 50452380 L55357142 49452380 L55261904 49595238 L55166666 49690476 L55071428 49738095 "/>
<svg:path d="M56595238 50452380 L56023809 50452380 "/>
<svg:path d="M56309523 50452380 L56309523 49452380 L56214285 49595238 L56119047 49690476 L56023809 49738095 "/>
<svg:path d="M57023809 50452380 L57023809 49452380 L57261904 49452380 L57404761 49500000 L57499999 49595238 L57547619 49690476 L57595238 49880952 L57595238 50023809 L57547619 50214285 L57499999 50309523 L57404761 50404761 L57261904 50452380 L57023809 50452380 "/>
<svg:path d="M58166666 49880952 L58071428 49833333 L58023809 49785714 L57976190 49690476 L57976190 49642857 L58023809 49547619 L58071428 49500000 L58166666 49452380 L58357142 49452380 L58452380 49500000 L58499999 49547619 L58547619 49642857 L58547619 49690476 L58499999 49785714 L58452380 49833333 L58357142 49880952 L58166666 49880952 L58071428 49928571 L58023809 49976190 L57976190 50071428 L57976190 50261904 L58023809 50357142 L58071428 50404761 L58166666 50452380 L58357142 50452380 L58452380 50404761 L58499999 50357142 L58547619 50261904 L58547619 50071428 L58499999 49976190 L58452380 49928571 L58357142 49880952 "/>
<svg:path d="M58976190 50452380 L58976190 49452380 L59357142 49452380 L59452380 49500000 L59499999 49547619 L59547619 49642857 L59547619 49785714 L59499999 49880952 L59452380 49928571 L59357142 49976190 L58976190 49976190 "/>
<svg:path d="M60499999 50452380 L59928571 50452380 "/>
<svg:path d="M60214285 50452380 L60214285 49452380 L60119047 49595238 L60023809 49690476 L59928571 49738095 "/>
<svg:path d="M61404761 49452380 L60928571 49452380 L60880952 49928571 L60928571 49880952 L61023809 49833333 L61261904 49833333 L61357142 49880952 L61404761 49928571 L61452380 50023809 L61452380 50261904 L61404761 50357142 L61357142 50404761 L61261904 50452380 L61023809 50452380 L60928571 50404761 L60880952 50357142 "/>
<svg:path d="M61880952 50452380 L61880952 49452380 "/>
<svg:path d="M61880952 49928571 L62452380 49928571 "/>
<svg:path d="M62452380 50452380 L62452380 49452380 "/>
<svg:path d="M63119047 49452380 L63309523 49452380 L63404761 49500000 L63499999 49595238 L63547619 49785714 L63547619 50119047 L63499999 50309523 L63404761 50404761 L63309523 50452380 L63119047 50452380 L63023809 50404761 L62928571 50309523 L62880952 50119047 L62880952 49785714 L62928571 49595238 L63023809 49500000 L63119047 49452380 "/>
<svg:path d="M64547619 50452380 L64214285 49976190 "/>
<svg:path d="M63976190 50452380 L63976190 49452380 L64357142 49452380 L64452380 49500000 L64499999 49547619 L64547619 49642857 L64547619 49785714 L64499999 49880952 L64452380 49928571 L64357142 49976190 L63976190 49976190 "/>
<svg:path d="M64976190 50452380 L64976190 49452380 "/>
<svg:path d="M65357142 49452380 L66023809 49452380 L65357142 50452380 L66023809 50452380 "/>
<svg:path d="M66595238 49452380 L66785714 49452380 L66880952 49500000 L66976190 49595238 L67023809 49785714 L67023809 50119047 L66976190 50309523 L66880952 50404761 L66785714 50452380 L66595238 50452380 L66499999 50404761 L66404761 50309523 L66357142 50119047 L66357142 49785714 L66404761 49595238 L66499999 49500000 L66595238 49452380 "/>
<svg:path d="M67452380 50452380 L67452380 49452380 L68023809 50452380 L68023809 49452380 "/>
<svg:path d="M68357142 49452380 L68928571 49452380 "/>
<svg:path d="M68642857 50452380 L68642857 49452380 "/>
<svg:path d="M69214285 50166666 L69690476 50166666 "/>
<svg:path d="M69119047 50452380 L69452380 49452380 L69785714 50452380 "/>
<svg:path d="M70595238 50452380 L70119047 50452380 L70119047 49452380 "/>
</svg:g></svg:g>
<svg:g style="fill:#AFAFAF; fill-opacity:0.0;  stroke:#AFAFAF; stroke-width:100000.000000; stroke-opacity:1;  stroke-linecap:round; stroke-linejoin:round;">
<svg:path d="M53400000 50000000 L54900000 50000000 "/>
<svg:path d="M53380000 54000000 L54130000 53250000 "/>
<svg:path d="M54880000 46000000 L63000000 46000000 "/>
<svg:path d="M52000000 46000000 L52000000 54000000 "/>
<svg:path d="M50000000 50000000 L52000000 50000000 "/>
<svg:path d="M63000000 46000000 L63000000 54000000 "/>
<svg:path d="M54130000 46750000 L54880000 46000000 "/>
<svg:path d="M52000000 54000000 L53380000 54000000 "/>
<svg:path d="M54150000 49250000 L54150000 50750000 "/>
<svg:path d="M54880000 54000000 L63000000 54000000 "/>
<svg:path d="M54130000 53250000 L54880000 54000000 "/>
<svg:path d="M65000000 50000000 L63000000 50000000 "/>
<svg:path d="M52000000 46000000 L53380000 46000000 "/>
<svg:path d="M53380000 46000000 L54130000 46750000 "/>
<svg:g>
</svg:g>
<svg:g>
</svg:g>
<svg:g>
</svg:g>
<svg:g>
</svg:g>
</svg:g>
<svg:g style="fill:#000000; fill-opacity:0.0;  stroke:#000000; stroke-width:100000.000000; stroke-opacity:1;  stroke-linecap:round; stroke-linejoin:round;">
<svg:g>
</svg:g>
<svg:g>
</svg:g>
<svg:g>
</svg:g>
<svg:g>
</svg:g>
</svg:g> 
</svg:g><svg:g><svg:title>SVG Picture created as kicadBoard-F_Mask.svg date 2022/11/16 21:28:39 </svg:title>
  <svg:desc>Picture generated by PCBNEW </svg:desc>
<svg:g style="fill:#000000; fill-opacity:1.000000;stroke:#000000; stroke-opacity:1.000000; stroke-linecap:round; stroke-linejoin:round;" transform="translate(0 0) scale(1 1)">
</svg:g>
<svg:g style="fill:#000000; fill-opacity:0.0;  stroke:#000000; stroke-width:0.000000; stroke-opacity:1;  stroke-linecap:round; stroke-linejoin:round;">
<svg:g>
</svg:g>
<svg:g style="fill:#000000; fill-opacity:0.0;  stroke:#000000; stroke-width:1.000000; stroke-opacity:1;  stroke-linecap:round; stroke-linejoin:round;">
</svg:g>
<svg:g style="fill:#000000; fill-opacity:1.0;  stroke:#000000; stroke-width:1.000000; stroke-opacity:1;  stroke-linecap:round; stroke-linejoin:round;">
<svg:path style="fill:#000000; fill-opacity:1.0;  stroke:#000000; stroke-width:1.000000; stroke-opacity:1;  stroke-linecap:round; stroke-linejoin:round;fill-rule:evenodd;" d="M 49000000.000000,51000000.000000 49000000.000000,49000000.000000 51000000.000000,49000000.000000 51000000.000000,51000000.000000 Z"/> 
<svg:circle cx="65000000.000000" cy="50000000.000000" r="1000000.000000"/> 
</svg:g>
<svg:g>
</svg:g>
<svg:g>
</svg:g>
<svg:g>
</svg:g>
</svg:g>
<svg:g style="fill:#000000; fill-opacity:1.0;  stroke:#000000; stroke-width:1.000000; stroke-opacity:1;  stroke-linecap:round; stroke-linejoin:round;">
<svg:g>
</svg:g>
<svg:g>
</svg:g>
<svg:g>
</svg:g>
<svg:g>
</svg:g>
</svg:g> 
</svg:g><svg:g><svg:title>SVG Picture created as kicadBoard-F_Paste.svg date 2022/11/16 21:28:39 </svg:title>
  <svg:desc>Picture generated by PCBNEW </svg:desc>
<svg:g style="fill:#000000; fill-opacity:1.000000;stroke:#000000; stroke-opacity:1.000000; stroke-linecap:round; stroke-linejoin:round;" transform="translate(0 0) scale(1 1)">
</svg:g>
<svg:g style="fill:#000000; fill-opacity:0.0;  stroke:#000000; stroke-width:0.000000; stroke-opacity:1;  stroke-linecap:round; stroke-linejoin:round;">
<svg:g>
</svg:g>
<svg:g>
</svg:g>
<svg:g>
</svg:g>
<svg:g>
</svg:g>
</svg:g>
<svg:g style="fill:#000000; fill-opacity:0.0;  stroke:#000000; stroke-width:0.000000; stroke-opacity:1;  stroke-linecap:round; stroke-linejoin:round;">
<svg:g>
</svg:g>
<svg:g>
</svg:g>
<svg:g>
</svg:g>
<svg:g>
</svg:g>
</svg:g> 
</svg:g><svg:g><svg:title>SVG Picture created as kicadBoard-F_Silkscreen.svg date 2022/11/16 21:28:39 </svg:title>
  <svg:desc>Picture generated by PCBNEW </svg:desc>
<svg:g style="fill:#000000; fill-opacity:1.000000;stroke:#000000; stroke-opacity:1.000000; stroke-linecap:round; stroke-linejoin:round;" transform="translate(0 0) scale(1 1)">
</svg:g>
<svg:g style="fill:#000000; fill-opacity:0.0;  stroke:#000000; stroke-width:0.000000; stroke-opacity:1;  stroke-linecap:round; stroke-linejoin:round;">
</svg:g>
<svg:g style="fill:#F2EDA1; fill-opacity:0.0;  stroke:#F2EDA1; stroke-width:0.000000; stroke-opacity:1;  stroke-linecap:round; stroke-linejoin:round;">
</svg:g>
<svg:g style="fill:#F2EDA1; fill-opacity:0.0;  stroke:#F2EDA1; stroke-width:150000.000000; stroke-opacity:1;  stroke-linecap:round; stroke-linejoin:round;">
<svg:text x="57500000.000000" y="45380000.000000" textLength="26380953.000000" font-size="1333333.000000" lengthAdjust="spacingAndGlyphs" text-anchor="middle" opacity="0">FZKCCPAXIALL11D8P15HORIZONTAL</svg:text>
<svg:g class="stroked-text"><svg:desc>FZKCCPAXIALL11D8P15HORIZONTAL</svg:desc>
<svg:path d="M44880952 44808571 L44547619 44808571 "/>
<svg:path d="M44547619 45332380 L44547619 44332380 L45023809 44332380 "/>
<svg:path d="M45309523 44332380 L45976190 44332380 L45309523 45332380 L45976190 45332380 "/>
<svg:path d="M46357142 45332380 L46357142 44332380 "/>
<svg:path d="M46928571 45332380 L46500000 44760952 "/>
<svg:path d="M46928571 44332380 L46357142 44903809 "/>
<svg:path d="M47928571 45237142 L47880952 45284761 L47738095 45332380 L47642857 45332380 L47500000 45284761 L47404761 45189523 L47357142 45094285 L47309523 44903809 L47309523 44760952 L47357142 44570476 L47404761 44475238 L47500000 44380000 L47642857 44332380 L47738095 44332380 L47880952 44380000 L47928571 44427619 "/>
<svg:path d="M48928571 45237142 L48880952 45284761 L48738095 45332380 L48642857 45332380 L48500000 45284761 L48404761 45189523 L48357142 45094285 L48309523 44903809 L48309523 44760952 L48357142 44570476 L48404761 44475238 L48500000 44380000 L48642857 44332380 L48738095 44332380 L48880952 44380000 L48928571 44427619 "/>
<svg:path d="M49357142 45332380 L49357142 44332380 L49738095 44332380 L49833333 44380000 L49880952 44427619 L49928571 44522857 L49928571 44665714 L49880952 44760952 L49833333 44808571 L49738095 44856190 L49357142 44856190 "/>
<svg:path d="M50309523 45046666 L50785714 45046666 "/>
<svg:path d="M50214285 45332380 L50547619 44332380 L50880952 45332380 "/>
<svg:path d="M51119047 44332380 L51785714 45332380 "/>
<svg:path d="M51785714 44332380 L51119047 45332380 "/>
<svg:path d="M52166666 45332380 L52166666 44332380 "/>
<svg:path d="M52595238 45046666 L53071428 45046666 "/>
<svg:path d="M52500000 45332380 L52833333 44332380 L53166666 45332380 "/>
<svg:path d="M53976190 45332380 L53500000 45332380 L53500000 44332380 "/>
<svg:path d="M54785714 45332380 L54309523 45332380 L54309523 44332380 "/>
<svg:path d="M55642857 45332380 L55071428 45332380 "/>
<svg:path d="M55357142 45332380 L55357142 44332380 L55261904 44475238 L55166666 44570476 L55071428 44618095 "/>
<svg:path d="M56595238 45332380 L56023809 45332380 "/>
<svg:path d="M56309523 45332380 L56309523 44332380 L56214285 44475238 L56119047 44570476 L56023809 44618095 "/>
<svg:path d="M57023809 45332380 L57023809 44332380 L57261904 44332380 L57404761 44380000 L57499999 44475238 L57547619 44570476 L57595238 44760952 L57595238 44903809 L57547619 45094285 L57499999 45189523 L57404761 45284761 L57261904 45332380 L57023809 45332380 "/>
<svg:path d="M58166666 44760952 L58071428 44713333 L58023809 44665714 L57976190 44570476 L57976190 44522857 L58023809 44427619 L58071428 44380000 L58166666 44332380 L58357142 44332380 L58452380 44380000 L58499999 44427619 L58547619 44522857 L58547619 44570476 L58499999 44665714 L58452380 44713333 L58357142 44760952 L58166666 44760952 L58071428 44808571 L58023809 44856190 L57976190 44951428 L57976190 45141904 L58023809 45237142 L58071428 45284761 L58166666 45332380 L58357142 45332380 L58452380 45284761 L58499999 45237142 L58547619 45141904 L58547619 44951428 L58499999 44856190 L58452380 44808571 L58357142 44760952 "/>
<svg:path d="M58976190 45332380 L58976190 44332380 L59357142 44332380 L59452380 44380000 L59499999 44427619 L59547619 44522857 L59547619 44665714 L59499999 44760952 L59452380 44808571 L59357142 44856190 L58976190 44856190 "/>
<svg:path d="M60499999 45332380 L59928571 45332380 "/>
<svg:path d="M60214285 45332380 L60214285 44332380 L60119047 44475238 L60023809 44570476 L59928571 44618095 "/>
<svg:path d="M61404761 44332380 L60928571 44332380 L60880952 44808571 L60928571 44760952 L61023809 44713333 L61261904 44713333 L61357142 44760952 L61404761 44808571 L61452380 44903809 L61452380 45141904 L61404761 45237142 L61357142 45284761 L61261904 45332380 L61023809 45332380 L60928571 45284761 L60880952 45237142 "/>
<svg:path d="M61880952 45332380 L61880952 44332380 "/>
<svg:path d="M61880952 44808571 L62452380 44808571 "/>
<svg:path d="M62452380 45332380 L62452380 44332380 "/>
<svg:path d="M63119047 44332380 L63309523 44332380 L63404761 44380000 L63499999 44475238 L63547619 44665714 L63547619 44999047 L63499999 45189523 L63404761 45284761 L63309523 45332380 L63119047 45332380 L63023809 45284761 L62928571 45189523 L62880952 44999047 L62880952 44665714 L62928571 44475238 L63023809 44380000 L63119047 44332380 "/>
<svg:path d="M64547619 45332380 L64214285 44856190 "/>
<svg:path d="M63976190 45332380 L63976190 44332380 L64357142 44332380 L64452380 44380000 L64499999 44427619 L64547619 44522857 L64547619 44665714 L64499999 44760952 L64452380 44808571 L64357142 44856190 L63976190 44856190 "/>
<svg:path d="M64976190 45332380 L64976190 44332380 "/>
<svg:path d="M65357142 44332380 L66023809 44332380 L65357142 45332380 L66023809 45332380 "/>
<svg:path d="M66595238 44332380 L66785714 44332380 L66880952 44380000 L66976190 44475238 L67023809 44665714 L67023809 44999047 L66976190 45189523 L66880952 45284761 L66785714 45332380 L66595238 45332380 L66499999 45284761 L66404761 45189523 L66357142 44999047 L66357142 44665714 L66404761 44475238 L66499999 44380000 L66595238 44332380 "/>
<svg:path d="M67452380 45332380 L67452380 44332380 L68023809 45332380 L68023809 44332380 "/>
<svg:path d="M68357142 44332380 L68928571 44332380 "/>
<svg:path d="M68642857 45332380 L68642857 44332380 "/>
<svg:path d="M69214285 45046666 L69690476 45046666 "/>
<svg:path d="M69119047 45332380 L69452380 44332380 L69785714 45332380 "/>
<svg:path d="M70595238 45332380 L70119047 45332380 L70119047 44332380 "/>
</svg:g></svg:g>
<svg:g style="fill:#F2EDA1; fill-opacity:0.0;  stroke:#F2EDA1; stroke-width:120000.000000; stroke-opacity:1;  stroke-linecap:round; stroke-linejoin:round;">
<svg:path d="M50130000 47800000 L51630000 47800000 "/>
<svg:path d="M54130000 53370000 L54880000 54120000 "/>
<svg:path d="M51240000 50000000 L51880000 50000000 "/>
<svg:path d="M51880000 45880000 L51880000 54120000 "/>
<svg:path d="M54880000 45880000 L63120000 45880000 "/>
<svg:path d="M54880000 54120000 L63120000 54120000 "/>
<svg:path d="M51880000 54120000 L53380000 54120000 "/>
<svg:path d="M53380000 54120000 L54130000 53370000 "/>
<svg:path d="M63760000 50000000 L63120000 50000000 "/>
<svg:path d="M50880000 47050000 L50880000 48550000 "/>
<svg:path d="M63120000 45880000 L63120000 54120000 "/>
<svg:path d="M54130000 46630000 L54880000 45880000 "/>
<svg:path d="M53380000 45880000 L54130000 46630000 "/>
<svg:path d="M51880000 45880000 L53380000 45880000 "/>
<svg:g>
</svg:g>
<svg:g>
</svg:g>
<svg:g>
</svg:g>
<svg:g>
</svg:g>
</svg:g>
<svg:g style="fill:#000000; fill-opacity:0.0;  stroke:#000000; stroke-width:120000.000000; stroke-opacity:1;  stroke-linecap:round; stroke-linejoin:round;">
<svg:g>
</svg:g>
<svg:g>
</svg:g>
<svg:g>
</svg:g>
<svg:g>
</svg:g>
</svg:g> 
</svg:g><svg:g><svg:title>SVG Picture created as kicadBoard-Margin.svg date 2022/11/16 21:28:39 </svg:title>
  <svg:desc>Picture generated by PCBNEW </svg:desc>
<svg:g style="fill:#000000; fill-opacity:1.000000;stroke:#000000; stroke-opacity:1.000000; stroke-linecap:round; stroke-linejoin:round;" transform="translate(0 0) scale(1 1)">
</svg:g>
<svg:g style="fill:#000000; fill-opacity:0.0;  stroke:#000000; stroke-width:0.000000; stroke-opacity:1;  stroke-linecap:round; stroke-linejoin:round;">
<svg:g>
</svg:g>
<svg:g>
</svg:g>
<svg:g>
</svg:g>
<svg:g>
</svg:g>
</svg:g>
<svg:g style="fill:#000000; fill-opacity:0.0;  stroke:#000000; stroke-width:0.000000; stroke-opacity:1;  stroke-linecap:round; stroke-linejoin:round;">
<svg:g>
</svg:g>
<svg:g>
</svg:g>
<svg:g>
</svg:g>
<svg:g>
</svg:g>
</svg:g> 
</svg:g><svg:g><svg:title>SVG Picture created as kicadBoard-F_Cu.svg date 2022/11/16 21:28:39 </svg:title>
  <svg:desc>Picture generated by PCBNEW </svg:desc>
<svg:g style="fill:#000000; fill-opacity:1.000000;stroke:#000000; stroke-opacity:1.000000; stroke-linecap:round; stroke-linejoin:round;" transform="translate(0 0) scale(1 1)">
</svg:g>
<svg:g style="fill:#000000; fill-opacity:0.0;  stroke:#000000; stroke-width:0.000000; stroke-opacity:1;  stroke-linecap:round; stroke-linejoin:round;">
<svg:g>
</svg:g>
<svg:g style="fill:#C83434; fill-opacity:0.0;  stroke:#C83434; stroke-width:0.000000; stroke-opacity:1;  stroke-linecap:round; stroke-linejoin:round;">
</svg:g>
<svg:g style="fill:#C83434; fill-opacity:0.0;  stroke:#C83434; stroke-width:1.000000; stroke-opacity:1;  stroke-linecap:round; stroke-linejoin:round;">
</svg:g>
<svg:g style="fill:#C83434; fill-opacity:1.0;  stroke:#C83434; stroke-width:1.000000; stroke-opacity:1;  stroke-linecap:round; stroke-linejoin:round;">
<svg:path style="fill:#C83434; fill-opacity:1.0;  stroke:#C83434; stroke-width:1.000000; stroke-opacity:1;  stroke-linecap:round; stroke-linejoin:round;fill-rule:evenodd;" d="M 49000000.000000,51000000.000000 49000000.000000,49000000.000000 51000000.000000,49000000.000000 51000000.000000,51000000.000000 Z"/> 
<svg:circle cx="65000000.000000" cy="50000000.000000" r="1000000.000000"/> 
</svg:g>
<svg:g>
</svg:g>
<svg:g>
</svg:g>
<svg:g>
</svg:g>
</svg:g>
<svg:g style="fill:#FFFFFF; fill-opacity:1.0;  stroke:#FFFFFF; stroke-width:1.000000; stroke-opacity:1;  stroke-linecap:round; stroke-linejoin:round;">
<svg:circle cx="50000000.000000" cy="50000000.000000" r="500000.000000"/> 
</svg:g>
<svg:g style="fill:#FFFFFF; fill-opacity:1.0;  stroke:#FFFFFF; stroke-width:21200.000000; stroke-opacity:1;  stroke-linecap:round; stroke-linejoin:round;">
</svg:g>
<svg:g style="fill:#FFFFFF; fill-opacity:1.0;  stroke:#FFFFFF; stroke-width:1.000000; stroke-opacity:1;  stroke-linecap:round; stroke-linejoin:round;">
<svg:circle cx="65000000.000000" cy="50000000.000000" r="500000.000000"/> 
</svg:g>
<svg:g style="fill:#FFFFFF; fill-opacity:1.0;  stroke:#FFFFFF; stroke-width:21200.000000; stroke-opacity:1;  stroke-linecap:round; stroke-linejoin:round;">
</svg:g>
<svg:g style="fill:#000000; fill-opacity:1.0;  stroke:#000000; stroke-width:21200.000000; stroke-opacity:1;  stroke-linecap:round; stroke-linejoin:round;">
<svg:g>
</svg:g>
<svg:g>
</svg:g>
<svg:g>
</svg:g>
<svg:g>
</svg:g>
</svg:g> 
</svg:g></svg>
