<?xml version='1.0' encoding='ASCII' standalone='yes'?>
<svg xmlns:svg="http://www.w3.org/2000/svg" xmlns="http://www.w3.org/2000/svg" xmlns:xlink="http://www.w3.org/1999/xlink" version="1.1" width="9.999980cm" height="9.999980cm" viewBox="0 0 99999800 99999800">
<title>SVG Picture created as kicadBoard-B_Cu.svg date 2022/12/04 11:02:01 </title>
  <desc>Picture generated by PCBNEW </desc>
<g style="fill:#000000; fill-opacity:1.000000;stroke:#000000; stroke-opacity:1.000000; stroke-linecap:round; stroke-linejoin:round;" transform="translate(0 0) scale(1 1)">
</g>
<g style="fill:#000000; fill-opacity:0.0;  stroke:#000000; stroke-width:0.000000; stroke-opacity:1;  stroke-linecap:round; stroke-linejoin:round;">
<g>
</g>
<g style="fill:#4D7FC4; fill-opacity:0.0;  stroke:#4D7FC4; stroke-width:0.000000; stroke-opacity:1;  stroke-linecap:round; stroke-linejoin:round;">
</g>
<g style="fill:#4D7FC4; fill-opacity:0.0;  stroke:#4D7FC4; stroke-width:1458000.000000; stroke-opacity:1;  stroke-linecap:round; stroke-linejoin:round;">
<path d="M46500000 48019000 L46500000 46561000 "/>
<path d="M49000000 48019000 L49000000 46561000 "/>
<path d="M51000000 48019000 L51000000 46561000 "/>
<path d="M53500000 48019000 L53500000 46561000 "/>
</g>
<g>
</g>
<g>
</g>
<g>
</g>
</g>
<g style="fill:#FFFFFF; fill-opacity:0.0;  stroke:#FFFFFF; stroke-width:1458000.000000; stroke-opacity:1;  stroke-linecap:round; stroke-linejoin:round;">
</g>
<g style="fill:#FFFFFF; fill-opacity:1.0;  stroke:#FFFFFF; stroke-width:1.000000; stroke-opacity:1;  stroke-linecap:round; stroke-linejoin:round;">
<circle cx="56570000.000000" cy="50000000.000000" r="1149999.500000"/> 
</g>
<g style="fill:#FFFFFF; fill-opacity:1.0;  stroke:#FFFFFF; stroke-width:21200.000000; stroke-opacity:1;  stroke-linecap:round; stroke-linejoin:round;">
</g>
<g style="fill:#FFFFFF; fill-opacity:1.0;  stroke:#FFFFFF; stroke-width:1.000000; stroke-opacity:1;  stroke-linecap:round; stroke-linejoin:round;">
<circle cx="43430000.000000" cy="50000000.000000" r="1149999.500000"/> 
</g>
<g style="fill:#FFFFFF; fill-opacity:1.0;  stroke:#FFFFFF; stroke-width:21200.000000; stroke-opacity:1;  stroke-linecap:round; stroke-linejoin:round;">
</g>
<g style="fill:#FFFFFF; fill-opacity:1.0;  stroke:#FFFFFF; stroke-width:1.000000; stroke-opacity:1;  stroke-linecap:round; stroke-linejoin:round;">
<circle cx="46500000.000000" cy="47290000.000000" r="475000.000000"/> 
</g>
<g style="fill:#FFFFFF; fill-opacity:1.0;  stroke:#FFFFFF; stroke-width:21200.000000; stroke-opacity:1;  stroke-linecap:round; stroke-linejoin:round;">
</g>
<g style="fill:#FFFFFF; fill-opacity:1.0;  stroke:#FFFFFF; stroke-width:1.000000; stroke-opacity:1;  stroke-linecap:round; stroke-linejoin:round;">
<circle cx="49000000.000000" cy="47290000.000000" r="475000.000000"/> 
</g>
<g style="fill:#FFFFFF; fill-opacity:1.0;  stroke:#FFFFFF; stroke-width:21200.000000; stroke-opacity:1;  stroke-linecap:round; stroke-linejoin:round;">
</g>
<g style="fill:#FFFFFF; fill-opacity:1.0;  stroke:#FFFFFF; stroke-width:1.000000; stroke-opacity:1;  stroke-linecap:round; stroke-linejoin:round;">
<circle cx="51000000.000000" cy="47290000.000000" r="475000.000000"/> 
</g>
<g style="fill:#FFFFFF; fill-opacity:1.0;  stroke:#FFFFFF; stroke-width:21200.000000; stroke-opacity:1;  stroke-linecap:round; stroke-linejoin:round;">
</g>
<g style="fill:#FFFFFF; fill-opacity:1.0;  stroke:#FFFFFF; stroke-width:1.000000; stroke-opacity:1;  stroke-linecap:round; stroke-linejoin:round;">
<circle cx="53500000.000000" cy="47290000.000000" r="475000.000000"/> 
</g>
<g style="fill:#FFFFFF; fill-opacity:1.0;  stroke:#FFFFFF; stroke-width:21200.000000; stroke-opacity:1;  stroke-linecap:round; stroke-linejoin:round;">
</g>
<g style="fill:#000000; fill-opacity:1.0;  stroke:#000000; stroke-width:21200.000000; stroke-opacity:1;  stroke-linecap:round; stroke-linejoin:round;">
<g>
</g>
<g>
</g>
<g>
</g>
<g>
</g>
</g> 
<svg:g><svg:title>SVG Picture created as kicadBoard-B_Adhesive.svg date 2022/12/04 11:02:01 </svg:title>
  <svg:desc>Picture generated by PCBNEW </svg:desc>
<svg:g style="fill:#000000; fill-opacity:1.000000;stroke:#000000; stroke-opacity:1.000000; stroke-linecap:round; stroke-linejoin:round;" transform="translate(0 0) scale(1 1)">
</svg:g>
<svg:g style="fill:#000000; fill-opacity:0.0;  stroke:#000000; stroke-width:0.000000; stroke-opacity:1;  stroke-linecap:round; stroke-linejoin:round;">
<svg:g>
</svg:g>
<svg:g>
</svg:g>
<svg:g>
</svg:g>
<svg:g>
</svg:g>
</svg:g>
<svg:g style="fill:#000000; fill-opacity:0.0;  stroke:#000000; stroke-width:0.000000; stroke-opacity:1;  stroke-linecap:round; stroke-linejoin:round;">
<svg:g>
</svg:g>
<svg:g>
</svg:g>
<svg:g>
</svg:g>
<svg:g>
</svg:g>
</svg:g> 
</svg:g><svg:g><svg:title>SVG Picture created as kicadBoard-B_Courtyard.svg date 2022/12/04 11:02:01 </svg:title>
  <svg:desc>Picture generated by PCBNEW </svg:desc>
<svg:g style="fill:#000000; fill-opacity:1.000000;stroke:#000000; stroke-opacity:1.000000; stroke-linecap:round; stroke-linejoin:round;" transform="translate(0 0) scale(1 1)">
</svg:g>
<svg:g style="fill:#000000; fill-opacity:0.0;  stroke:#000000; stroke-width:0.000000; stroke-opacity:1;  stroke-linecap:round; stroke-linejoin:round;">
<svg:g>
</svg:g>
<svg:g>
</svg:g>
<svg:g>
</svg:g>
<svg:g>
</svg:g>
</svg:g>
<svg:g style="fill:#000000; fill-opacity:0.0;  stroke:#000000; stroke-width:0.000000; stroke-opacity:1;  stroke-linecap:round; stroke-linejoin:round;">
<svg:g>
</svg:g>
<svg:g>
</svg:g>
<svg:g>
</svg:g>
<svg:g>
</svg:g>
</svg:g> 
</svg:g><svg:g><svg:title>SVG Picture created as kicadBoard-B_Fab.svg date 2022/12/04 11:02:01 </svg:title>
  <svg:desc>Picture generated by PCBNEW </svg:desc>
<svg:g style="fill:#000000; fill-opacity:1.000000;stroke:#000000; stroke-opacity:1.000000; stroke-linecap:round; stroke-linejoin:round;" transform="translate(0 0) scale(1 1)">
</svg:g>
<svg:g style="fill:#000000; fill-opacity:0.0;  stroke:#000000; stroke-width:0.000000; stroke-opacity:1;  stroke-linecap:round; stroke-linejoin:round;">
<svg:g>
</svg:g>
<svg:g>
</svg:g>
<svg:g>
</svg:g>
<svg:g>
</svg:g>
</svg:g>
<svg:g style="fill:#000000; fill-opacity:0.0;  stroke:#000000; stroke-width:0.000000; stroke-opacity:1;  stroke-linecap:round; stroke-linejoin:round;">
<svg:g>
</svg:g>
<svg:g>
</svg:g>
<svg:g>
</svg:g>
<svg:g>
</svg:g>
</svg:g> 
</svg:g><svg:g><svg:title>SVG Picture created as kicadBoard-B_Mask.svg date 2022/12/04 11:02:01 </svg:title>
  <svg:desc>Picture generated by PCBNEW </svg:desc>
<svg:g style="fill:#000000; fill-opacity:1.000000;stroke:#000000; stroke-opacity:1.000000; stroke-linecap:round; stroke-linejoin:round;" transform="translate(0 0) scale(1 1)">
</svg:g>
<svg:g style="fill:#000000; fill-opacity:0.0;  stroke:#000000; stroke-width:0.000000; stroke-opacity:1;  stroke-linecap:round; stroke-linejoin:round;">
<svg:g>
</svg:g>
<svg:g style="fill:#000000; fill-opacity:1.0;  stroke:#000000; stroke-width:1.000000; stroke-opacity:1;  stroke-linecap:round; stroke-linejoin:round;">
<svg:circle cx="56570000.000000" cy="50000000.000000" r="1150000.000000"/> 
</svg:g>
<svg:g style="fill:#000000; fill-opacity:1.0;  stroke:#000000; stroke-width:21200.000000; stroke-opacity:1;  stroke-linecap:round; stroke-linejoin:round;">
</svg:g>
<svg:g style="fill:#000000; fill-opacity:1.0;  stroke:#000000; stroke-width:1.000000; stroke-opacity:1;  stroke-linecap:round; stroke-linejoin:round;">
<svg:circle cx="43430000.000000" cy="50000000.000000" r="1150000.000000"/> 
</svg:g>
<svg:g style="fill:#000000; fill-opacity:1.0;  stroke:#000000; stroke-width:21200.000000; stroke-opacity:1;  stroke-linecap:round; stroke-linejoin:round;">
</svg:g>
<svg:g style="fill:#000000; fill-opacity:1.0;  stroke:#000000; stroke-width:1661200.000000; stroke-opacity:1;  stroke-linecap:round; stroke-linejoin:round;">
</svg:g>
<svg:g style="fill:#000000; fill-opacity:0.0;  stroke:#000000; stroke-width:1661200.000000; stroke-opacity:1;  stroke-linecap:round; stroke-linejoin:round;">
<svg:path d="M46500000 48019000 L46500000 46561000 "/>
<svg:path d="M49000000 48019000 L49000000 46561000 "/>
<svg:path d="M51000000 48019000 L51000000 46561000 "/>
<svg:path d="M53500000 48019000 L53500000 46561000 "/>
</svg:g>
<svg:g>
</svg:g>
<svg:g>
</svg:g>
<svg:g>
</svg:g>
</svg:g>
<svg:g style="fill:#000000; fill-opacity:0.0;  stroke:#000000; stroke-width:1661200.000000; stroke-opacity:1;  stroke-linecap:round; stroke-linejoin:round;">
<svg:g>
</svg:g>
<svg:g>
</svg:g>
<svg:g>
</svg:g>
<svg:g>
</svg:g>
</svg:g> 
</svg:g><svg:g><svg:title>SVG Picture created as kicadBoard-B_Paste.svg date 2022/12/04 11:02:01 </svg:title>
  <svg:desc>Picture generated by PCBNEW </svg:desc>
<svg:g style="fill:#000000; fill-opacity:1.000000;stroke:#000000; stroke-opacity:1.000000; stroke-linecap:round; stroke-linejoin:round;" transform="translate(0 0) scale(1 1)">
</svg:g>
<svg:g style="fill:#000000; fill-opacity:0.0;  stroke:#000000; stroke-width:0.000000; stroke-opacity:1;  stroke-linecap:round; stroke-linejoin:round;">
<svg:g>
</svg:g>
<svg:g>
</svg:g>
<svg:g>
</svg:g>
<svg:g>
</svg:g>
</svg:g>
<svg:g style="fill:#000000; fill-opacity:0.0;  stroke:#000000; stroke-width:0.000000; stroke-opacity:1;  stroke-linecap:round; stroke-linejoin:round;">
<svg:g>
</svg:g>
<svg:g>
</svg:g>
<svg:g>
</svg:g>
<svg:g>
</svg:g>
</svg:g> 
</svg:g><svg:g><svg:title>SVG Picture created as kicadBoard-B_Silkscreen.svg date 2022/12/04 11:02:01 </svg:title>
  <svg:desc>Picture generated by PCBNEW </svg:desc>
<svg:g style="fill:#000000; fill-opacity:1.000000;stroke:#000000; stroke-opacity:1.000000; stroke-linecap:round; stroke-linejoin:round;" transform="translate(0 0) scale(1 1)">
</svg:g>
<svg:g style="fill:#000000; fill-opacity:0.0;  stroke:#000000; stroke-width:0.000000; stroke-opacity:1;  stroke-linecap:round; stroke-linejoin:round;">
<svg:g>
</svg:g>
<svg:g>
</svg:g>
<svg:g>
</svg:g>
<svg:g>
</svg:g>
</svg:g>
<svg:g style="fill:#000000; fill-opacity:0.0;  stroke:#000000; stroke-width:0.000000; stroke-opacity:1;  stroke-linecap:round; stroke-linejoin:round;">
<svg:g>
</svg:g>
<svg:g>
</svg:g>
<svg:g>
</svg:g>
<svg:g>
</svg:g>
</svg:g> 
</svg:g><svg:g><svg:title>SVG Picture created as kicadBoard-Edge_Cuts.svg date 2022/12/04 11:02:01 </svg:title>
  <svg:desc>Picture generated by PCBNEW </svg:desc>
<svg:g style="fill:#000000; fill-opacity:1.000000;stroke:#000000; stroke-opacity:1.000000; stroke-linecap:round; stroke-linejoin:round;" transform="translate(0 0) scale(1 1)">
</svg:g>
<svg:g style="fill:#000000; fill-opacity:0.0;  stroke:#000000; stroke-width:0.000000; stroke-opacity:1;  stroke-linecap:round; stroke-linejoin:round;">
<svg:g>
</svg:g>
<svg:g>
</svg:g>
<svg:g>
</svg:g>
<svg:g>
</svg:g>
</svg:g> 
</svg:g><svg:g><svg:title>SVG Picture created as kicadBoard-F_Adhesive.svg date 2022/12/04 11:02:01 </svg:title>
  <svg:desc>Picture generated by PCBNEW </svg:desc>
<svg:g style="fill:#000000; fill-opacity:1.000000;stroke:#000000; stroke-opacity:1.000000; stroke-linecap:round; stroke-linejoin:round;" transform="translate(0 0) scale(1 1)">
</svg:g>
<svg:g style="fill:#000000; fill-opacity:0.0;  stroke:#000000; stroke-width:0.000000; stroke-opacity:1;  stroke-linecap:round; stroke-linejoin:round;">
<svg:g>
</svg:g>
<svg:g>
</svg:g>
<svg:g>
</svg:g>
<svg:g>
</svg:g>
</svg:g>
<svg:g style="fill:#000000; fill-opacity:0.0;  stroke:#000000; stroke-width:0.000000; stroke-opacity:1;  stroke-linecap:round; stroke-linejoin:round;">
<svg:g>
</svg:g>
<svg:g>
</svg:g>
<svg:g>
</svg:g>
<svg:g>
</svg:g>
</svg:g> 
</svg:g><svg:g><svg:title>SVG Picture created as kicadBoard-F_Courtyard.svg date 2022/12/04 11:02:01 </svg:title>
  <svg:desc>Picture generated by PCBNEW </svg:desc>
<svg:g style="fill:#000000; fill-opacity:1.000000;stroke:#000000; stroke-opacity:1.000000; stroke-linecap:round; stroke-linejoin:round;" transform="translate(0 0) scale(1 1)">
</svg:g>
<svg:g style="fill:#000000; fill-opacity:0.0;  stroke:#000000; stroke-width:0.000000; stroke-opacity:1;  stroke-linecap:round; stroke-linejoin:round;">
<svg:g>
</svg:g>
<svg:g>
</svg:g>
<svg:g>
</svg:g>
<svg:g>
</svg:g>
</svg:g>
<svg:g style="fill:#000000; fill-opacity:0.0;  stroke:#000000; stroke-width:0.000000; stroke-opacity:1;  stroke-linecap:round; stroke-linejoin:round;">
<svg:g>
</svg:g>
<svg:g>
</svg:g>
<svg:g>
</svg:g>
<svg:g>
</svg:g>
</svg:g> 
</svg:g><svg:g><svg:title>SVG Picture created as kicadBoard-F_Cu.svg date 2022/12/04 11:02:01 </svg:title>
  <svg:desc>Picture generated by PCBNEW </svg:desc>
<svg:g style="fill:#000000; fill-opacity:1.000000;stroke:#000000; stroke-opacity:1.000000; stroke-linecap:round; stroke-linejoin:round;" transform="translate(0 0) scale(1 1)">
</svg:g>
<svg:g style="fill:#000000; fill-opacity:0.0;  stroke:#000000; stroke-width:0.000000; stroke-opacity:1;  stroke-linecap:round; stroke-linejoin:round;">
<svg:g>
</svg:g>
<svg:g style="fill:#C83434; fill-opacity:0.0;  stroke:#C83434; stroke-width:0.000000; stroke-opacity:1;  stroke-linecap:round; stroke-linejoin:round;">
</svg:g>
<svg:g style="fill:#C83434; fill-opacity:0.0;  stroke:#C83434; stroke-width:1458000.000000; stroke-opacity:1;  stroke-linecap:round; stroke-linejoin:round;">
<svg:path d="M46500000 48019000 L46500000 46561000 "/>
<svg:path d="M49000000 48019000 L49000000 46561000 "/>
<svg:path d="M51000000 48019000 L51000000 46561000 "/>
<svg:path d="M53500000 48019000 L53500000 46561000 "/>
</svg:g>
<svg:g>
</svg:g>
<svg:g>
</svg:g>
<svg:g>
</svg:g>
</svg:g>
<svg:g style="fill:#FFFFFF; fill-opacity:0.0;  stroke:#FFFFFF; stroke-width:1458000.000000; stroke-opacity:1;  stroke-linecap:round; stroke-linejoin:round;">
</svg:g>
<svg:g style="fill:#FFFFFF; fill-opacity:1.0;  stroke:#FFFFFF; stroke-width:1.000000; stroke-opacity:1;  stroke-linecap:round; stroke-linejoin:round;">
<svg:circle cx="56570000.000000" cy="50000000.000000" r="1149999.500000"/> 
</svg:g>
<svg:g style="fill:#FFFFFF; fill-opacity:1.0;  stroke:#FFFFFF; stroke-width:21200.000000; stroke-opacity:1;  stroke-linecap:round; stroke-linejoin:round;">
</svg:g>
<svg:g style="fill:#FFFFFF; fill-opacity:1.0;  stroke:#FFFFFF; stroke-width:1.000000; stroke-opacity:1;  stroke-linecap:round; stroke-linejoin:round;">
<svg:circle cx="43430000.000000" cy="50000000.000000" r="1149999.500000"/> 
</svg:g>
<svg:g style="fill:#FFFFFF; fill-opacity:1.0;  stroke:#FFFFFF; stroke-width:21200.000000; stroke-opacity:1;  stroke-linecap:round; stroke-linejoin:round;">
</svg:g>
<svg:g style="fill:#FFFFFF; fill-opacity:1.0;  stroke:#FFFFFF; stroke-width:1.000000; stroke-opacity:1;  stroke-linecap:round; stroke-linejoin:round;">
<svg:circle cx="46500000.000000" cy="47290000.000000" r="475000.000000"/> 
</svg:g>
<svg:g style="fill:#FFFFFF; fill-opacity:1.0;  stroke:#FFFFFF; stroke-width:21200.000000; stroke-opacity:1;  stroke-linecap:round; stroke-linejoin:round;">
</svg:g>
<svg:g style="fill:#FFFFFF; fill-opacity:1.0;  stroke:#FFFFFF; stroke-width:1.000000; stroke-opacity:1;  stroke-linecap:round; stroke-linejoin:round;">
<svg:circle cx="49000000.000000" cy="47290000.000000" r="475000.000000"/> 
</svg:g>
<svg:g style="fill:#FFFFFF; fill-opacity:1.0;  stroke:#FFFFFF; stroke-width:21200.000000; stroke-opacity:1;  stroke-linecap:round; stroke-linejoin:round;">
</svg:g>
<svg:g style="fill:#FFFFFF; fill-opacity:1.0;  stroke:#FFFFFF; stroke-width:1.000000; stroke-opacity:1;  stroke-linecap:round; stroke-linejoin:round;">
<svg:circle cx="51000000.000000" cy="47290000.000000" r="475000.000000"/> 
</svg:g>
<svg:g style="fill:#FFFFFF; fill-opacity:1.0;  stroke:#FFFFFF; stroke-width:21200.000000; stroke-opacity:1;  stroke-linecap:round; stroke-linejoin:round;">
</svg:g>
<svg:g style="fill:#FFFFFF; fill-opacity:1.0;  stroke:#FFFFFF; stroke-width:1.000000; stroke-opacity:1;  stroke-linecap:round; stroke-linejoin:round;">
<svg:circle cx="53500000.000000" cy="47290000.000000" r="475000.000000"/> 
</svg:g>
<svg:g style="fill:#FFFFFF; fill-opacity:1.0;  stroke:#FFFFFF; stroke-width:21200.000000; stroke-opacity:1;  stroke-linecap:round; stroke-linejoin:round;">
</svg:g>
<svg:g style="fill:#000000; fill-opacity:1.0;  stroke:#000000; stroke-width:21200.000000; stroke-opacity:1;  stroke-linecap:round; stroke-linejoin:round;">
<svg:g>
</svg:g>
<svg:g>
</svg:g>
<svg:g>
</svg:g>
<svg:g>
</svg:g>
</svg:g> 
</svg:g><svg:g><svg:title>SVG Picture created as kicadBoard-F_Fab.svg date 2022/12/04 11:02:01 </svg:title>
  <svg:desc>Picture generated by PCBNEW </svg:desc>
<svg:g style="fill:#000000; fill-opacity:1.000000;stroke:#000000; stroke-opacity:1.000000; stroke-linecap:round; stroke-linejoin:round;" transform="translate(0 0) scale(1 1)">
</svg:g>
<svg:g style="fill:#000000; fill-opacity:0.0;  stroke:#000000; stroke-width:0.000000; stroke-opacity:1;  stroke-linecap:round; stroke-linejoin:round;">
</svg:g>
<svg:g style="fill:#AFAFAF; fill-opacity:0.0;  stroke:#AFAFAF; stroke-width:0.000000; stroke-opacity:1;  stroke-linecap:round; stroke-linejoin:round;">
</svg:g>
<svg:g style="fill:#AFAFAF; fill-opacity:0.0;  stroke:#AFAFAF; stroke-width:101600.000000; stroke-opacity:1;  stroke-linecap:round; stroke-linejoin:round;">
<svg:g transform="rotate(-90.000000 59144000.000000 60160000.000000)">
<svg:text x="59144000.000000" y="60160000.000000" textLength="6718837.000000" font-size="1557866.000000" lengthAdjust="spacingAndGlyphs" text-anchor="start" opacity="0">&gt;VALUE</svg:text>
</svg:g>
<svg:g class="stroked-text"><svg:desc>&gt;VALUE</svg:desc>
<svg:path d="M58309428 59815769 L58643257 58925560 L58977085 59815769 "/>
<svg:path d="M57919961 58536093 L59088361 58146626 L57919961 57757160 "/>
<svg:path d="M58754533 57423331 L58754533 56866950 "/>
<svg:path d="M59088361 57534607 L57919961 57145140 L59088361 56755674 "/>
<svg:path d="M59088361 55809826 L59088361 56366207 L57919961 56366207 "/>
<svg:path d="M57919961 55420360 L58865809 55420360 L58977085 55364721 L59032723 55309083 L59088361 55197807 L59088361 54975255 L59032723 54863979 L58977085 54808340 L58865809 54752702 L57919961 54752702 "/>
<svg:path d="M58476342 54196321 L58476342 53806855 "/>
<svg:path d="M59088361 53639940 L59088361 54196321 L57919961 54196321 L57919961 53639940 "/>
</svg:g><svg:g>
</svg:g>
<svg:g>
</svg:g>
<svg:g>
</svg:g>
<svg:g>
</svg:g>
</svg:g>
<svg:g style="fill:#000000; fill-opacity:0.0;  stroke:#000000; stroke-width:101600.000000; stroke-opacity:1;  stroke-linecap:round; stroke-linejoin:round;">
<svg:g>
</svg:g>
<svg:g>
</svg:g>
<svg:g>
</svg:g>
<svg:g>
</svg:g>
</svg:g> 
</svg:g><svg:g><svg:title>SVG Picture created as kicadBoard-F_Mask.svg date 2022/12/04 11:02:01 </svg:title>
  <svg:desc>Picture generated by PCBNEW </svg:desc>
<svg:g style="fill:#000000; fill-opacity:1.000000;stroke:#000000; stroke-opacity:1.000000; stroke-linecap:round; stroke-linejoin:round;" transform="translate(0 0) scale(1 1)">
</svg:g>
<svg:g style="fill:#000000; fill-opacity:0.0;  stroke:#000000; stroke-width:0.000000; stroke-opacity:1;  stroke-linecap:round; stroke-linejoin:round;">
<svg:g>
</svg:g>
<svg:g style="fill:#000000; fill-opacity:1.0;  stroke:#000000; stroke-width:1.000000; stroke-opacity:1;  stroke-linecap:round; stroke-linejoin:round;">
<svg:circle cx="56570000.000000" cy="50000000.000000" r="1150000.000000"/> 
</svg:g>
<svg:g style="fill:#000000; fill-opacity:1.0;  stroke:#000000; stroke-width:21200.000000; stroke-opacity:1;  stroke-linecap:round; stroke-linejoin:round;">
</svg:g>
<svg:g style="fill:#000000; fill-opacity:1.0;  stroke:#000000; stroke-width:1.000000; stroke-opacity:1;  stroke-linecap:round; stroke-linejoin:round;">
<svg:circle cx="43430000.000000" cy="50000000.000000" r="1150000.000000"/> 
</svg:g>
<svg:g style="fill:#000000; fill-opacity:1.0;  stroke:#000000; stroke-width:21200.000000; stroke-opacity:1;  stroke-linecap:round; stroke-linejoin:round;">
</svg:g>
<svg:g style="fill:#000000; fill-opacity:1.0;  stroke:#000000; stroke-width:1661200.000000; stroke-opacity:1;  stroke-linecap:round; stroke-linejoin:round;">
</svg:g>
<svg:g style="fill:#000000; fill-opacity:0.0;  stroke:#000000; stroke-width:1661200.000000; stroke-opacity:1;  stroke-linecap:round; stroke-linejoin:round;">
<svg:path d="M46500000 48019000 L46500000 46561000 "/>
<svg:path d="M49000000 48019000 L49000000 46561000 "/>
<svg:path d="M51000000 48019000 L51000000 46561000 "/>
<svg:path d="M53500000 48019000 L53500000 46561000 "/>
</svg:g>
<svg:g>
</svg:g>
<svg:g>
</svg:g>
<svg:g>
</svg:g>
</svg:g>
<svg:g style="fill:#000000; fill-opacity:0.0;  stroke:#000000; stroke-width:1661200.000000; stroke-opacity:1;  stroke-linecap:round; stroke-linejoin:round;">
<svg:g>
</svg:g>
<svg:g>
</svg:g>
<svg:g>
</svg:g>
<svg:g>
</svg:g>
</svg:g> 
</svg:g><svg:g><svg:title>SVG Picture created as kicadBoard-F_Paste.svg date 2022/12/04 11:02:01 </svg:title>
  <svg:desc>Picture generated by PCBNEW </svg:desc>
<svg:g style="fill:#000000; fill-opacity:1.000000;stroke:#000000; stroke-opacity:1.000000; stroke-linecap:round; stroke-linejoin:round;" transform="translate(0 0) scale(1 1)">
</svg:g>
<svg:g style="fill:#000000; fill-opacity:0.0;  stroke:#000000; stroke-width:0.000000; stroke-opacity:1;  stroke-linecap:round; stroke-linejoin:round;">
<svg:g>
</svg:g>
<svg:g>
</svg:g>
<svg:g>
</svg:g>
<svg:g>
</svg:g>
</svg:g>
<svg:g style="fill:#000000; fill-opacity:0.0;  stroke:#000000; stroke-width:0.000000; stroke-opacity:1;  stroke-linecap:round; stroke-linejoin:round;">
<svg:g>
</svg:g>
<svg:g>
</svg:g>
<svg:g>
</svg:g>
<svg:g>
</svg:g>
</svg:g> 
</svg:g><svg:g><svg:title>SVG Picture created as kicadBoard-F_Silkscreen.svg date 2022/12/04 11:02:01 </svg:title>
  <svg:desc>Picture generated by PCBNEW </svg:desc>
<svg:g style="fill:#000000; fill-opacity:1.000000;stroke:#000000; stroke-opacity:1.000000; stroke-linecap:round; stroke-linejoin:round;" transform="translate(0 0) scale(1 1)">
</svg:g>
<svg:g style="fill:#000000; fill-opacity:0.0;  stroke:#000000; stroke-width:0.000000; stroke-opacity:1;  stroke-linecap:round; stroke-linejoin:round;">
</svg:g>
<svg:g style="fill:#F2EDA1; fill-opacity:0.0;  stroke:#F2EDA1; stroke-width:0.000000; stroke-opacity:1;  stroke-linecap:round; stroke-linejoin:round;">
</svg:g>
<svg:g style="fill:#F2EDA1; fill-opacity:0.0;  stroke:#F2EDA1; stroke-width:101600.000000; stroke-opacity:1;  stroke-linecap:round; stroke-linejoin:round;">
<svg:text x="42380000.000000" y="44920000.000000" textLength="18193658.000000" font-size="1557866.000000" lengthAdjust="spacingAndGlyphs" text-anchor="start" opacity="0">FZECONBERGPN8752</svg:text>
<svg:g class="stroked-text"><svg:desc>FZECONBERGPN8752</svg:desc>
<svg:path d="M43113697 44252342 L42724230 44252342 "/>
<svg:path d="M42724230 44864361 L42724230 43695961 L43280611 43695961 "/>
<svg:path d="M43614440 43695961 L44393373 43695961 L43614440 44864361 L44393373 44864361 "/>
<svg:path d="M44838478 44252342 L45227944 44252342 "/>
<svg:path d="M45394859 44864361 L44838478 44864361 L44838478 43695961 L45394859 43695961 "/>
<svg:path d="M46563259 44753085 L46507620 44808723 L46340706 44864361 L46229430 44864361 L46062516 44808723 L45951240 44697447 L45895601 44586171 L45839963 44363619 L45839963 44196704 L45895601 43974152 L45951240 43862876 L46062516 43751600 L46229430 43695961 L46340706 43695961 L46507620 43751600 L46563259 43807238 "/>
<svg:path d="M47286554 43695961 L47509106 43695961 L47620382 43751600 L47731659 43862876 L47787297 44085428 L47787297 44474895 L47731659 44697447 L47620382 44808723 L47509106 44864361 L47286554 44864361 L47175278 44808723 L47064001 44697447 L47008363 44474895 L47008363 44085428 L47064001 43862876 L47175278 43751600 L47286554 43695961 "/>
<svg:path d="M48288040 44864361 L48288040 43695961 L48955697 44864361 L48955697 43695961 "/>
<svg:path d="M49901544 44252342 L50068459 44307980 L50124097 44363619 L50179735 44474895 L50179735 44641809 L50124097 44753085 L50068459 44808723 L49957182 44864361 L49512078 44864361 L49512078 43695961 L49901544 43695961 L50012820 43751600 L50068459 43807238 L50124097 43918514 L50124097 44029790 L50068459 44141066 L50012820 44196704 L49901544 44252342 L49512078 44252342 "/>
<svg:path d="M50680478 44252342 L51069944 44252342 "/>
<svg:path d="M51236859 44864361 L50680478 44864361 L50680478 43695961 L51236859 43695961 "/>
<svg:path d="M52405259 44864361 L52015792 44307980 "/>
<svg:path d="M51737601 44864361 L51737601 43695961 L52182706 43695961 L52293982 43751600 L52349620 43807238 L52405259 43918514 L52405259 44085428 L52349620 44196704 L52293982 44252342 L52182706 44307980 L51737601 44307980 "/>
<svg:path d="M53518020 43751600 L53406744 43695961 L53239830 43695961 L53072916 43751600 L52961640 43862876 L52906001 43974152 L52850363 44196704 L52850363 44363619 L52906001 44586171 L52961640 44697447 L53072916 44808723 L53239830 44864361 L53351106 44864361 L53518020 44808723 L53573659 44753085 L53573659 44363619 L53351106 44363619 "/>
<svg:path d="M54074401 44864361 L54074401 43695961 L54519506 43695961 L54630782 43751600 L54686420 43807238 L54742059 43918514 L54742059 44085428 L54686420 44196704 L54630782 44252342 L54519506 44307980 L54074401 44307980 "/>
<svg:path d="M55242801 44864361 L55242801 43695961 L55910459 44864361 L55910459 43695961 "/>
<svg:path d="M56633754 44196704 L56522478 44141066 L56466840 44085428 L56411201 43974152 L56411201 43918514 L56466840 43807238 L56522478 43751600 L56633754 43695961 L56856306 43695961 L56967582 43751600 L57023220 43807238 L57078859 43918514 L57078859 43974152 L57023220 44085428 L56967582 44141066 L56856306 44196704 L56633754 44196704 L56522478 44252342 L56466840 44307980 L56411201 44419257 L56411201 44641809 L56466840 44753085 L56522478 44808723 L56633754 44864361 L56856306 44864361 L56967582 44808723 L57023220 44753085 L57078859 44641809 L57078859 44419257 L57023220 44307980 L56967582 44252342 L56856306 44196704 "/>
<svg:path d="M57468325 43695961 L58247259 43695961 L57746516 44864361 "/>
<svg:path d="M59248744 43695961 L58692363 43695961 L58636725 44252342 L58692363 44196704 L58803640 44141066 L59081830 44141066 L59193106 44196704 L59248744 44252342 L59304382 44363619 L59304382 44641809 L59248744 44753085 L59193106 44808723 L59081830 44864361 L58803640 44864361 L58692363 44808723 L58636725 44753085 "/>
<svg:path d="M59749487 43807238 L59805125 43751600 L59916401 43695961 L60194592 43695961 L60305868 43751600 L60361506 43807238 L60417144 43918514 L60417144 44029790 L60361506 44196704 L59693849 44864361 L60417144 44864361 "/>
</svg:g></svg:g>
<svg:g style="fill:#F2EDA1; fill-opacity:0.0;  stroke:#F2EDA1; stroke-width:32512.000000; stroke-opacity:1;  stroke-linecap:round; stroke-linejoin:round;">
<svg:text x="46190000.000000" y="52040000.000000" textLength="6684022.000000" font-size="498517.000000" lengthAdjust="spacingAndGlyphs" text-anchor="start" opacity="0">E L E C T R O N I C S</svg:text>
<svg:g class="stroked-text"><svg:desc>E L E C T R O N I C S</svg:desc>
<svg:path d="M46300153 51826349 L46424783 51826349 "/>
<svg:path d="M46478195 52022195 L46300153 52022195 L46300153 51648307 L46478195 51648307 "/>
<svg:path d="M47101342 52022195 L46923300 52022195 L46923300 51648307 "/>
<svg:path d="M47510838 51826349 L47635468 51826349 "/>
<svg:path d="M47688880 52022195 L47510838 52022195 L47510838 51648307 L47688880 51648307 "/>
<svg:path d="M48347635 51986587 L48329831 52004391 L48276418 52022195 L48240810 52022195 L48187397 52004391 L48151789 51968783 L48133985 51933174 L48116181 51861958 L48116181 51808545 L48133985 51737328 L48151789 51701720 L48187397 51666112 L48240810 51648307 L48276418 51648307 L48329831 51666112 L48347635 51683916 "/>
<svg:path d="M48739327 51648307 L48952978 51648307 "/>
<svg:path d="M48846152 52022195 L48846152 51648307 "/>
<svg:path d="M49576124 52022195 L49451495 51844153 "/>
<svg:path d="M49362474 52022195 L49362474 51648307 L49504908 51648307 L49540516 51666112 L49558320 51683916 L49576124 51719524 L49576124 51772937 L49558320 51808545 L49540516 51826349 L49504908 51844153 L49362474 51844153 "/>
<svg:path d="M50092446 51648307 L50163663 51648307 L50199271 51666112 L50234879 51701720 L50252684 51772937 L50252684 51897566 L50234879 51968783 L50199271 52004391 L50163663 52022195 L50092446 52022195 L50056837 52004391 L50021229 51968783 L50003425 51897566 L50003425 51772937 L50021229 51701720 L50056837 51666112 L50092446 51648307 "/>
<svg:path d="M50697788 52022195 L50697788 51648307 L50911439 52022195 L50911439 51648307 "/>
<svg:path d="M51374348 52022195 L51374348 51648307 "/>
<svg:path d="M52050907 51986587 L52033103 52004391 L51979690 52022195 L51944082 52022195 L51890669 52004391 L51855061 51968783 L51837256 51933174 L51819452 51861958 L51819452 51808545 L51837256 51737328 L51855061 51701720 L51890669 51666112 L51944082 51648307 L51979690 51648307 L52033103 51666112 L52050907 51683916 "/>
<svg:path d="M52478207 52004391 L52531620 52022195 L52620641 52022195 L52656249 52004391 L52674053 51986587 L52691858 51950979 L52691858 51915370 L52674053 51879762 L52656249 51861958 L52620641 51844153 L52549424 51826349 L52513816 51808545 L52496012 51790741 L52478207 51755132 L52478207 51719524 L52496012 51683916 L52513816 51666112 L52549424 51648307 L52638445 51648307 L52691858 51666112 "/>
</svg:g></svg:g>
<svg:g style="fill:#F2EDA1; fill-opacity:0.0;  stroke:#F2EDA1; stroke-width:50800.000000; stroke-opacity:1;  stroke-linecap:round; stroke-linejoin:round;">
<svg:path d="M47540000 50600000 L46790000 51100000 "/>
</svg:g>
<svg:g style="fill:#F2EDA1; fill-opacity:0.0;  stroke:#F2EDA1; stroke-width:152400.000000; stroke-opacity:1;  stroke-linecap:round; stroke-linejoin:round;">
<svg:path d="M53810000 58720000 L55080000 52870000 "/>
</svg:g>
<svg:g style="fill:#F2EDA1; fill-opacity:0.0;  stroke:#F2EDA1; stroke-width:50800.000000; stroke-opacity:1;  stroke-linecap:round; stroke-linejoin:round;">
<svg:path d="M50290000 51100000 L50915000 51100000 "/>
<svg:path d="M50040000 49600000 L50040000 49100000 "/>
<svg:path d="M50915000 49600000 L51290000 49600000 "/>
<svg:path d="M50040000 49100000 L48290000 49100000 "/>
<svg:path d="M48915000 50600000 L48915000 50350000 "/>
<svg:path d="M47540000 51100000 L46790000 51100000 "/>
<svg:path d="M46165000 49100000 L46165000 51100000 "/>
<svg:path d="M50915000 50350000 L51415000 51100000 "/>
</svg:g>
<svg:g style="fill:#F2EDA1; fill-opacity:0.0;  stroke:#F2EDA1; stroke-width:254000.000000; stroke-opacity:1;  stroke-linecap:round; stroke-linejoin:round;">
<svg:path d="M42600000 60190000 L57400000 60190000 "/>
</svg:g>
<svg:g style="fill:#F2EDA1; fill-opacity:0.0;  stroke:#F2EDA1; stroke-width:50800.000000; stroke-opacity:1;  stroke-linecap:round; stroke-linejoin:round;">
<svg:path d="M47540000 49600000 L46790000 50100000 "/>
</svg:g>
<svg:g style="fill:#F2EDA1; fill-opacity:0.0;  stroke:#F2EDA1; stroke-width:152400.000000; stroke-opacity:1;  stroke-linecap:round; stroke-linejoin:round;">
<svg:path d="M52540000 58720000 L53810000 58720000 "/>
</svg:g>
<svg:g style="fill:#F2EDA1; fill-opacity:0.0;  stroke:#F2EDA1; stroke-width:50800.000000; stroke-opacity:1;  stroke-linecap:round; stroke-linejoin:round;">
<svg:path d="M48915000 49850000 L48915000 49600000 "/>
<svg:path d="M50290000 49100000 L51665000 49100000 "/>
<svg:path d="M46790000 50100000 L46790000 49100000 "/>
<svg:path d="M50040000 50600000 L48915000 50600000 "/>
<svg:path d="M46790000 51100000 L46790000 50100000 "/>
<svg:path d="M46790000 49100000 L47540000 49600000 "/>
<svg:path d="M50040000 51100000 L50040000 50600000 "/>
<svg:path d="M48915000 50350000 L50040000 50350000 "/>
<svg:path d="M53665000 50100000 L54165000 50100000 "/>
<svg:path d="M48915000 49600000 L50040000 49600000 "/>
</svg:g>
<svg:g style="fill:#F2EDA1; fill-opacity:0.0;  stroke:#F2EDA1; stroke-width:254000.000000; stroke-opacity:1;  stroke-linecap:round; stroke-linejoin:round;">
<svg:path d="M57400000 60190000 L57400000 45890000 "/>
</svg:g>
<svg:g style="fill:#F2EDA1; fill-opacity:0.0;  stroke:#F2EDA1; stroke-width:152400.000000; stroke-opacity:1;  stroke-linecap:round; stroke-linejoin:round;">
<svg:path d="M46190000 58720000 L47460000 58720000 "/>
<svg:path d="M47460000 58720000 L48730000 52870000 "/>
</svg:g>
<svg:g style="fill:#F2EDA1; fill-opacity:0.0;  stroke:#F2EDA1; stroke-width:50800.000000; stroke-opacity:1;  stroke-linecap:round; stroke-linejoin:round;">
<svg:path d="M50915000 51100000 L50915000 50350000 "/>
</svg:g>
<svg:g style="fill:#F2EDA1; fill-opacity:0.0;  stroke:#F2EDA1; stroke-width:254000.000000; stroke-opacity:1;  stroke-linecap:round; stroke-linejoin:round;">
<svg:path d="M57400000 45890000 L42600000 45890000 "/>
</svg:g>
<svg:g style="fill:#F2EDA1; fill-opacity:0.0;  stroke:#F2EDA1; stroke-width:50800.000000; stroke-opacity:1;  stroke-linecap:round; stroke-linejoin:round;">
<svg:path d="M48290000 49100000 L48290000 51100000 "/>
<svg:path d="M52165000 51100000 L51665000 50350000 "/>
<svg:path d="M54165000 50100000 L54165000 50975000 "/>
<svg:path d="M50915000 49975000 L51290000 49975000 "/>
<svg:path d="M50040000 49850000 L48915000 49850000 "/>
<svg:path d="M50040000 50350000 L50040000 49850000 "/>
<svg:path d="M46165000 51100000 L46790000 51100000 "/>
</svg:g>
<svg:g style="fill:#F2EDA1; fill-opacity:0.0;  stroke:#F2EDA1; stroke-width:152400.000000; stroke-opacity:1;  stroke-linecap:round; stroke-linejoin:round;">
<svg:path d="M51270000 52870000 L52540000 58720000 "/>
</svg:g>
<svg:g style="fill:#F2EDA1; fill-opacity:0.0;  stroke:#F2EDA1; stroke-width:50800.000000; stroke-opacity:1;  stroke-linecap:round; stroke-linejoin:round;">
<svg:path d="M54160000 49600000 L54160000 49155000 "/>
<svg:path d="M50290000 49100000 L50290000 51100000 "/>
</svg:g>
<svg:g style="fill:#F2EDA1; fill-opacity:0.0;  stroke:#F2EDA1; stroke-width:152400.000000; stroke-opacity:1;  stroke-linecap:round; stroke-linejoin:round;">
<svg:path d="M44920000 52870000 L46190000 58720000 "/>
</svg:g>
<svg:g style="fill:#F2EDA1; fill-opacity:0.0;  stroke:#F2EDA1; stroke-width:50800.000000; stroke-opacity:1;  stroke-linecap:round; stroke-linejoin:round;">
<svg:path d="M46790000 50100000 L47540000 50600000 "/>
<svg:path d="M53665000 50100000 L53665000 50600000 "/>
<svg:path d="M50915000 49600000 L50915000 49975000 "/>
<svg:path d="M47540000 49100000 L46790000 49100000 "/>
<svg:path d="M46790000 49100000 L46165000 49100000 "/>
<svg:path d="M51415000 51100000 L52165000 51100000 "/>
<svg:path d="M48290000 51100000 L50040000 51100000 "/>
</svg:g>
<svg:g style="fill:#F2EDA1; fill-opacity:0.0;  stroke:#F2EDA1; stroke-width:254000.000000; stroke-opacity:1;  stroke-linecap:round; stroke-linejoin:round;">
<svg:path d="M42600000 45890000 L42600000 60190000 "/>
</svg:g>
<svg:g style="fill:#F2EDA1; fill-opacity:0.0;  stroke:#F2EDA1; stroke-width:50800.000000; stroke-opacity:1;  stroke-linecap:round; stroke-linejoin:round;">
<svg:path d="M51290000.000000 49975000.000000 A187500.000000 187500.000000 0.0 0 0 51290000.000000 49600000.000000"/>
<svg:path d="M53665000.000000 49600000.000000 A500000.000000 500000.000000 0.0 0 0 53665000.000000 50600000.000000"/>
<svg:path d="M54174998.454970 49155008.613470 A3627172.000000 3627172.000000 0.0 0 0 53415000.011283 49100000.342011"/>
<svg:path d="M53415000.001001 51100000.228622 A2374923.000000 2374923.000000 0.0 0 0 54165000.073201 50975000.216589"/>
<svg:path d="M47540000.000000 50100000.000000 A500000.000000 500000.000000 0.0 0 0 47540000.000000 49100000.000000"/>
<svg:path d="M54165000.000240 49599999.998203 A1891621.000000 1891621.000000 0.0 0 0 53664999.999760 49599999.998203"/>
<svg:path d="M53415000.000000 49100000.000000 A1000000.000000 1000000.000000 0.0 0 0 53415000.000000 51100000.000000"/>
<svg:path d="M47540000.000000 51100000.000000 A500000.000000 500000.000000 0.0 0 0 47540000.000000 50100000.000000"/>
<svg:path d="M51665000.000000 50350000.000000 A625000.000000 625000.000000 0.0 0 0 51665000.000000 49100000.000000"/>
<svg:g>
</svg:g>
<svg:g>
</svg:g>
<svg:g>
</svg:g>
<svg:g>
</svg:g>
</svg:g>
<svg:g style="fill:#000000; fill-opacity:0.0;  stroke:#000000; stroke-width:50800.000000; stroke-opacity:1;  stroke-linecap:round; stroke-linejoin:round;">
<svg:g>
</svg:g>
<svg:g>
</svg:g>
<svg:g>
</svg:g>
<svg:g>
</svg:g>
</svg:g> 
</svg:g><svg:g><svg:title>SVG Picture created as kicadBoard-Margin.svg date 2022/12/04 11:02:01 </svg:title>
  <svg:desc>Picture generated by PCBNEW </svg:desc>
<svg:g style="fill:#000000; fill-opacity:1.000000;stroke:#000000; stroke-opacity:1.000000; stroke-linecap:round; stroke-linejoin:round;" transform="translate(0 0) scale(1 1)">
</svg:g>
<svg:g style="fill:#000000; fill-opacity:0.0;  stroke:#000000; stroke-width:0.000000; stroke-opacity:1;  stroke-linecap:round; stroke-linejoin:round;">
<svg:g>
</svg:g>
<svg:g>
</svg:g>
<svg:g>
</svg:g>
<svg:g>
</svg:g>
</svg:g>
<svg:g style="fill:#000000; fill-opacity:0.0;  stroke:#000000; stroke-width:0.000000; stroke-opacity:1;  stroke-linecap:round; stroke-linejoin:round;">
<svg:g>
</svg:g>
<svg:g>
</svg:g>
<svg:g>
</svg:g>
<svg:g>
</svg:g>
</svg:g> 
</svg:g><svg:g><svg:title>SVG Picture created as kicadBoard-F_Cu.svg date 2022/12/04 11:02:01 </svg:title>
  <svg:desc>Picture generated by PCBNEW </svg:desc>
<svg:g style="fill:#000000; fill-opacity:1.000000;stroke:#000000; stroke-opacity:1.000000; stroke-linecap:round; stroke-linejoin:round;" transform="translate(0 0) scale(1 1)">
</svg:g>
<svg:g style="fill:#000000; fill-opacity:0.0;  stroke:#000000; stroke-width:0.000000; stroke-opacity:1;  stroke-linecap:round; stroke-linejoin:round;">
<svg:g>
</svg:g>
<svg:g style="fill:#C83434; fill-opacity:0.0;  stroke:#C83434; stroke-width:0.000000; stroke-opacity:1;  stroke-linecap:round; stroke-linejoin:round;">
</svg:g>
<svg:g style="fill:#C83434; fill-opacity:0.0;  stroke:#C83434; stroke-width:1458000.000000; stroke-opacity:1;  stroke-linecap:round; stroke-linejoin:round;">
<svg:path d="M46500000 48019000 L46500000 46561000 "/>
<svg:path d="M49000000 48019000 L49000000 46561000 "/>
<svg:path d="M51000000 48019000 L51000000 46561000 "/>
<svg:path d="M53500000 48019000 L53500000 46561000 "/>
</svg:g>
<svg:g>
</svg:g>
<svg:g>
</svg:g>
<svg:g>
</svg:g>
</svg:g>
<svg:g style="fill:#FFFFFF; fill-opacity:0.0;  stroke:#FFFFFF; stroke-width:1458000.000000; stroke-opacity:1;  stroke-linecap:round; stroke-linejoin:round;">
</svg:g>
<svg:g style="fill:#FFFFFF; fill-opacity:1.0;  stroke:#FFFFFF; stroke-width:1.000000; stroke-opacity:1;  stroke-linecap:round; stroke-linejoin:round;">
<svg:circle cx="56570000.000000" cy="50000000.000000" r="1149999.500000"/> 
</svg:g>
<svg:g style="fill:#FFFFFF; fill-opacity:1.0;  stroke:#FFFFFF; stroke-width:21200.000000; stroke-opacity:1;  stroke-linecap:round; stroke-linejoin:round;">
</svg:g>
<svg:g style="fill:#FFFFFF; fill-opacity:1.0;  stroke:#FFFFFF; stroke-width:1.000000; stroke-opacity:1;  stroke-linecap:round; stroke-linejoin:round;">
<svg:circle cx="43430000.000000" cy="50000000.000000" r="1149999.500000"/> 
</svg:g>
<svg:g style="fill:#FFFFFF; fill-opacity:1.0;  stroke:#FFFFFF; stroke-width:21200.000000; stroke-opacity:1;  stroke-linecap:round; stroke-linejoin:round;">
</svg:g>
<svg:g style="fill:#FFFFFF; fill-opacity:1.0;  stroke:#FFFFFF; stroke-width:1.000000; stroke-opacity:1;  stroke-linecap:round; stroke-linejoin:round;">
<svg:circle cx="46500000.000000" cy="47290000.000000" r="475000.000000"/> 
</svg:g>
<svg:g style="fill:#FFFFFF; fill-opacity:1.0;  stroke:#FFFFFF; stroke-width:21200.000000; stroke-opacity:1;  stroke-linecap:round; stroke-linejoin:round;">
</svg:g>
<svg:g style="fill:#FFFFFF; fill-opacity:1.0;  stroke:#FFFFFF; stroke-width:1.000000; stroke-opacity:1;  stroke-linecap:round; stroke-linejoin:round;">
<svg:circle cx="49000000.000000" cy="47290000.000000" r="475000.000000"/> 
</svg:g>
<svg:g style="fill:#FFFFFF; fill-opacity:1.0;  stroke:#FFFFFF; stroke-width:21200.000000; stroke-opacity:1;  stroke-linecap:round; stroke-linejoin:round;">
</svg:g>
<svg:g style="fill:#FFFFFF; fill-opacity:1.0;  stroke:#FFFFFF; stroke-width:1.000000; stroke-opacity:1;  stroke-linecap:round; stroke-linejoin:round;">
<svg:circle cx="51000000.000000" cy="47290000.000000" r="475000.000000"/> 
</svg:g>
<svg:g style="fill:#FFFFFF; fill-opacity:1.0;  stroke:#FFFFFF; stroke-width:21200.000000; stroke-opacity:1;  stroke-linecap:round; stroke-linejoin:round;">
</svg:g>
<svg:g style="fill:#FFFFFF; fill-opacity:1.0;  stroke:#FFFFFF; stroke-width:1.000000; stroke-opacity:1;  stroke-linecap:round; stroke-linejoin:round;">
<svg:circle cx="53500000.000000" cy="47290000.000000" r="475000.000000"/> 
</svg:g>
<svg:g style="fill:#FFFFFF; fill-opacity:1.0;  stroke:#FFFFFF; stroke-width:21200.000000; stroke-opacity:1;  stroke-linecap:round; stroke-linejoin:round;">
</svg:g>
<svg:g style="fill:#000000; fill-opacity:1.0;  stroke:#000000; stroke-width:21200.000000; stroke-opacity:1;  stroke-linecap:round; stroke-linejoin:round;">
<svg:g>
</svg:g>
<svg:g>
</svg:g>
<svg:g>
</svg:g>
<svg:g>
</svg:g>
</svg:g> 
</svg:g></svg>
