<?xml version='1.0' encoding='ASCII' standalone='yes'?>
<svg xmlns:svg="http://www.w3.org/2000/svg" xmlns="http://www.w3.org/2000/svg" xmlns:xlink="http://www.w3.org/1999/xlink" version="1.1" width="9.999980cm" height="9.999980cm" viewBox="0 0 99999800 99999800">
<title>SVG Picture created as kicadBoard-B_Cu.svg date 2022/12/02 18:11:47 </title>
  <desc>Picture generated by PCBNEW </desc>
<g style="fill:#000000; fill-opacity:1.000000;stroke:#000000; stroke-opacity:1.000000; stroke-linecap:round; stroke-linejoin:round;" transform="translate(0 0) scale(1 1)">
</g>
<g style="fill:#000000; fill-opacity:0.0;  stroke:#000000; stroke-width:0.000000; stroke-opacity:1;  stroke-linecap:round; stroke-linejoin:round;">
<g>
</g>
<g>
</g>
<g>
</g>
<g>
</g>
</g>
<g style="fill:#FFFFFF; fill-opacity:0.0;  stroke:#FFFFFF; stroke-width:0.000000; stroke-opacity:1;  stroke-linecap:round; stroke-linejoin:round;">
</g>
<g style="fill:#000000; fill-opacity:0.0;  stroke:#000000; stroke-width:0.000000; stroke-opacity:1;  stroke-linecap:round; stroke-linejoin:round;">
<g>
</g>
<g>
</g>
<g>
</g>
<g>
</g>
</g> 
<svg:g><svg:title>SVG Picture created as kicadBoard-B_Adhesive.svg date 2022/12/02 18:11:47 </svg:title>
  <svg:desc>Picture generated by PCBNEW </svg:desc>
<svg:g style="fill:#000000; fill-opacity:1.000000;stroke:#000000; stroke-opacity:1.000000; stroke-linecap:round; stroke-linejoin:round;" transform="translate(0 0) scale(1 1)">
</svg:g>
<svg:g style="fill:#000000; fill-opacity:0.0;  stroke:#000000; stroke-width:0.000000; stroke-opacity:1;  stroke-linecap:round; stroke-linejoin:round;">
<svg:g>
</svg:g>
<svg:g>
</svg:g>
<svg:g>
</svg:g>
<svg:g>
</svg:g>
</svg:g>
<svg:g style="fill:#000000; fill-opacity:0.0;  stroke:#000000; stroke-width:0.000000; stroke-opacity:1;  stroke-linecap:round; stroke-linejoin:round;">
<svg:g>
</svg:g>
<svg:g>
</svg:g>
<svg:g>
</svg:g>
<svg:g>
</svg:g>
</svg:g> 
</svg:g><svg:g><svg:title>SVG Picture created as kicadBoard-B_Courtyard.svg date 2022/12/02 18:11:47 </svg:title>
  <svg:desc>Picture generated by PCBNEW </svg:desc>
<svg:g style="fill:#000000; fill-opacity:1.000000;stroke:#000000; stroke-opacity:1.000000; stroke-linecap:round; stroke-linejoin:round;" transform="translate(0 0) scale(1 1)">
</svg:g>
<svg:g style="fill:#000000; fill-opacity:0.0;  stroke:#000000; stroke-width:0.000000; stroke-opacity:1;  stroke-linecap:round; stroke-linejoin:round;">
<svg:g>
</svg:g>
<svg:g>
</svg:g>
<svg:g>
</svg:g>
<svg:g>
</svg:g>
</svg:g>
<svg:g style="fill:#000000; fill-opacity:0.0;  stroke:#000000; stroke-width:0.000000; stroke-opacity:1;  stroke-linecap:round; stroke-linejoin:round;">
<svg:g>
</svg:g>
<svg:g>
</svg:g>
<svg:g>
</svg:g>
<svg:g>
</svg:g>
</svg:g> 
</svg:g><svg:g><svg:title>SVG Picture created as kicadBoard-B_Fab.svg date 2022/12/02 18:11:47 </svg:title>
  <svg:desc>Picture generated by PCBNEW </svg:desc>
<svg:g style="fill:#000000; fill-opacity:1.000000;stroke:#000000; stroke-opacity:1.000000; stroke-linecap:round; stroke-linejoin:round;" transform="translate(0 0) scale(1 1)">
</svg:g>
<svg:g style="fill:#000000; fill-opacity:0.0;  stroke:#000000; stroke-width:0.000000; stroke-opacity:1;  stroke-linecap:round; stroke-linejoin:round;">
<svg:g>
</svg:g>
<svg:g>
</svg:g>
<svg:g>
</svg:g>
<svg:g>
</svg:g>
</svg:g>
<svg:g style="fill:#000000; fill-opacity:0.0;  stroke:#000000; stroke-width:0.000000; stroke-opacity:1;  stroke-linecap:round; stroke-linejoin:round;">
<svg:g>
</svg:g>
<svg:g>
</svg:g>
<svg:g>
</svg:g>
<svg:g>
</svg:g>
</svg:g> 
</svg:g><svg:g><svg:title>SVG Picture created as kicadBoard-B_Mask.svg date 2022/12/02 18:11:47 </svg:title>
  <svg:desc>Picture generated by PCBNEW </svg:desc>
<svg:g style="fill:#000000; fill-opacity:1.000000;stroke:#000000; stroke-opacity:1.000000; stroke-linecap:round; stroke-linejoin:round;" transform="translate(0 0) scale(1 1)">
</svg:g>
<svg:g style="fill:#000000; fill-opacity:0.0;  stroke:#000000; stroke-width:0.000000; stroke-opacity:1;  stroke-linecap:round; stroke-linejoin:round;">
<svg:g>
</svg:g>
<svg:g>
</svg:g>
<svg:g>
</svg:g>
<svg:g>
</svg:g>
</svg:g>
<svg:g style="fill:#000000; fill-opacity:0.0;  stroke:#000000; stroke-width:0.000000; stroke-opacity:1;  stroke-linecap:round; stroke-linejoin:round;">
<svg:g>
</svg:g>
<svg:g>
</svg:g>
<svg:g>
</svg:g>
<svg:g>
</svg:g>
</svg:g> 
</svg:g><svg:g><svg:title>SVG Picture created as kicadBoard-B_Paste.svg date 2022/12/02 18:11:47 </svg:title>
  <svg:desc>Picture generated by PCBNEW </svg:desc>
<svg:g style="fill:#000000; fill-opacity:1.000000;stroke:#000000; stroke-opacity:1.000000; stroke-linecap:round; stroke-linejoin:round;" transform="translate(0 0) scale(1 1)">
</svg:g>
<svg:g style="fill:#000000; fill-opacity:0.0;  stroke:#000000; stroke-width:0.000000; stroke-opacity:1;  stroke-linecap:round; stroke-linejoin:round;">
<svg:g>
</svg:g>
<svg:g>
</svg:g>
<svg:g>
</svg:g>
<svg:g>
</svg:g>
</svg:g>
<svg:g style="fill:#000000; fill-opacity:0.0;  stroke:#000000; stroke-width:0.000000; stroke-opacity:1;  stroke-linecap:round; stroke-linejoin:round;">
<svg:g>
</svg:g>
<svg:g>
</svg:g>
<svg:g>
</svg:g>
<svg:g>
</svg:g>
</svg:g> 
</svg:g><svg:g><svg:title>SVG Picture created as kicadBoard-B_Silkscreen.svg date 2022/12/02 18:11:47 </svg:title>
  <svg:desc>Picture generated by PCBNEW </svg:desc>
<svg:g style="fill:#000000; fill-opacity:1.000000;stroke:#000000; stroke-opacity:1.000000; stroke-linecap:round; stroke-linejoin:round;" transform="translate(0 0) scale(1 1)">
</svg:g>
<svg:g style="fill:#000000; fill-opacity:0.0;  stroke:#000000; stroke-width:0.000000; stroke-opacity:1;  stroke-linecap:round; stroke-linejoin:round;">
<svg:g>
</svg:g>
<svg:g>
</svg:g>
<svg:g>
</svg:g>
<svg:g>
</svg:g>
</svg:g>
<svg:g style="fill:#000000; fill-opacity:0.0;  stroke:#000000; stroke-width:0.000000; stroke-opacity:1;  stroke-linecap:round; stroke-linejoin:round;">
<svg:g>
</svg:g>
<svg:g>
</svg:g>
<svg:g>
</svg:g>
<svg:g>
</svg:g>
</svg:g> 
</svg:g><svg:g><svg:title>SVG Picture created as kicadBoard-Edge_Cuts.svg date 2022/12/02 18:11:47 </svg:title>
  <svg:desc>Picture generated by PCBNEW </svg:desc>
<svg:g style="fill:#000000; fill-opacity:1.000000;stroke:#000000; stroke-opacity:1.000000; stroke-linecap:round; stroke-linejoin:round;" transform="translate(0 0) scale(1 1)">
</svg:g>
<svg:g style="fill:#000000; fill-opacity:0.0;  stroke:#000000; stroke-width:0.000000; stroke-opacity:1;  stroke-linecap:round; stroke-linejoin:round;">
<svg:g>
</svg:g>
<svg:g>
</svg:g>
<svg:g>
</svg:g>
<svg:g>
</svg:g>
</svg:g> 
</svg:g><svg:g><svg:title>SVG Picture created as kicadBoard-F_Adhesive.svg date 2022/12/02 18:11:47 </svg:title>
  <svg:desc>Picture generated by PCBNEW </svg:desc>
<svg:g style="fill:#000000; fill-opacity:1.000000;stroke:#000000; stroke-opacity:1.000000; stroke-linecap:round; stroke-linejoin:round;" transform="translate(0 0) scale(1 1)">
</svg:g>
<svg:g style="fill:#000000; fill-opacity:0.0;  stroke:#000000; stroke-width:0.000000; stroke-opacity:1;  stroke-linecap:round; stroke-linejoin:round;">
<svg:g>
</svg:g>
<svg:g>
</svg:g>
<svg:g>
</svg:g>
<svg:g>
</svg:g>
</svg:g>
<svg:g style="fill:#000000; fill-opacity:0.0;  stroke:#000000; stroke-width:0.000000; stroke-opacity:1;  stroke-linecap:round; stroke-linejoin:round;">
<svg:g>
</svg:g>
<svg:g>
</svg:g>
<svg:g>
</svg:g>
<svg:g>
</svg:g>
</svg:g> 
</svg:g><svg:g><svg:title>SVG Picture created as kicadBoard-F_Courtyard.svg date 2022/12/02 18:11:47 </svg:title>
  <svg:desc>Picture generated by PCBNEW </svg:desc>
<svg:g style="fill:#000000; fill-opacity:1.000000;stroke:#000000; stroke-opacity:1.000000; stroke-linecap:round; stroke-linejoin:round;" transform="translate(0 0) scale(1 1)">
</svg:g>
<svg:g style="fill:#000000; fill-opacity:0.0;  stroke:#000000; stroke-width:0.000000; stroke-opacity:1;  stroke-linecap:round; stroke-linejoin:round;">
<svg:g>
</svg:g>
<svg:g>
</svg:g>
<svg:g>
</svg:g>
<svg:g>
</svg:g>
</svg:g>
<svg:g style="fill:#000000; fill-opacity:0.0;  stroke:#000000; stroke-width:0.000000; stroke-opacity:1;  stroke-linecap:round; stroke-linejoin:round;">
<svg:g>
</svg:g>
<svg:g>
</svg:g>
<svg:g>
</svg:g>
<svg:g>
</svg:g>
</svg:g> 
</svg:g><svg:g><svg:title>SVG Picture created as kicadBoard-F_Cu.svg date 2022/12/02 18:11:47 </svg:title>
  <svg:desc>Picture generated by PCBNEW </svg:desc>
<svg:g style="fill:#000000; fill-opacity:1.000000;stroke:#000000; stroke-opacity:1.000000; stroke-linecap:round; stroke-linejoin:round;" transform="translate(0 0) scale(1 1)">
</svg:g>
<svg:g style="fill:#000000; fill-opacity:0.0;  stroke:#000000; stroke-width:0.000000; stroke-opacity:1;  stroke-linecap:round; stroke-linejoin:round;">
<svg:g>
</svg:g>
<svg:g style="fill:#C83434; fill-opacity:0.0;  stroke:#C83434; stroke-width:0.000000; stroke-opacity:1;  stroke-linecap:round; stroke-linejoin:round;">
</svg:g>
<svg:g style="fill:#C83434; fill-opacity:0.0;  stroke:#C83434; stroke-width:1.000000; stroke-opacity:1;  stroke-linecap:round; stroke-linejoin:round;">
</svg:g>
<svg:g style="fill:#C83434; fill-opacity:1.0;  stroke:#C83434; stroke-width:1.000000; stroke-opacity:1;  stroke-linecap:round; stroke-linejoin:round;">
<svg:path style="fill:#C83434; fill-opacity:1.0;  stroke:#C83434; stroke-width:1.000000; stroke-opacity:1;  stroke-linecap:round; stroke-linejoin:round;fill-rule:evenodd;" d="M 49600001.000000,46599899.000000 49600001.000000,43199901.000000 50399999.000000,43199901.000000 50399999.000000,46599899.000000 Z"/> 
<svg:path style="fill:#C83434; fill-opacity:1.0;  stroke:#C83434; stroke-width:1.000000; stroke-opacity:1;  stroke-linecap:round; stroke-linejoin:round;fill-rule:evenodd;" d="M 48330001.000000,45199899.000000 48330001.000000,43199901.000000 49129999.000000,43199901.000000 49129999.000000,45199899.000000 Z"/> 
<svg:path style="fill:#C83434; fill-opacity:1.0;  stroke:#C83434; stroke-width:1.000000; stroke-opacity:1;  stroke-linecap:round; stroke-linejoin:round;fill-rule:evenodd;" d="M 47060001.000000,45199899.000000 47060001.000000,43199901.000000 47859999.000000,43199901.000000 47859999.000000,45199899.000000 Z"/> 
<svg:path style="fill:#C83434; fill-opacity:1.0;  stroke:#C83434; stroke-width:1.000000; stroke-opacity:1;  stroke-linecap:round; stroke-linejoin:round;fill-rule:evenodd;" d="M 45790001.000000,45199899.000000 45790001.000000,43199901.000000 46589999.000000,43199901.000000 46589999.000000,45199899.000000 Z"/> 
<svg:path style="fill:#C83434; fill-opacity:1.0;  stroke:#C83434; stroke-width:1.000000; stroke-opacity:1;  stroke-linecap:round; stroke-linejoin:round;fill-rule:evenodd;" d="M 43199901.000000,46589999.000000 43199901.000000,45790001.000000 45199899.000000,45790001.000000 45199899.000000,46589999.000000 Z"/> 
<svg:path style="fill:#C83434; fill-opacity:1.0;  stroke:#C83434; stroke-width:1.000000; stroke-opacity:1;  stroke-linecap:round; stroke-linejoin:round;fill-rule:evenodd;" d="M 43199901.000000,47859999.000000 43199901.000000,47060001.000000 45199899.000000,47060001.000000 45199899.000000,47859999.000000 Z"/> 
<svg:path style="fill:#C83434; fill-opacity:1.0;  stroke:#C83434; stroke-width:1.000000; stroke-opacity:1;  stroke-linecap:round; stroke-linejoin:round;fill-rule:evenodd;" d="M 43199901.000000,49129999.000000 43199901.000000,48330001.000000 45199899.000000,48330001.000000 45199899.000000,49129999.000000 Z"/> 
<svg:path style="fill:#C83434; fill-opacity:1.0;  stroke:#C83434; stroke-width:1.000000; stroke-opacity:1;  stroke-linecap:round; stroke-linejoin:round;fill-rule:evenodd;" d="M 43199901.000000,50399999.000000 43199901.000000,49600001.000000 45199899.000000,49600001.000000 45199899.000000,50399999.000000 Z"/> 
<svg:path style="fill:#C83434; fill-opacity:1.0;  stroke:#C83434; stroke-width:1.000000; stroke-opacity:1;  stroke-linecap:round; stroke-linejoin:round;fill-rule:evenodd;" d="M 43199901.000000,51669999.000000 43199901.000000,50870001.000000 45199899.000000,50870001.000000 45199899.000000,51669999.000000 Z"/> 
<svg:path style="fill:#C83434; fill-opacity:1.0;  stroke:#C83434; stroke-width:1.000000; stroke-opacity:1;  stroke-linecap:round; stroke-linejoin:round;fill-rule:evenodd;" d="M 43199901.000000,52939999.000000 43199901.000000,52140001.000000 45199899.000000,52140001.000000 45199899.000000,52939999.000000 Z"/> 
<svg:path style="fill:#C83434; fill-opacity:1.0;  stroke:#C83434; stroke-width:1.000000; stroke-opacity:1;  stroke-linecap:round; stroke-linejoin:round;fill-rule:evenodd;" d="M 43199901.000000,54209999.000000 43199901.000000,53410001.000000 45199899.000000,53410001.000000 45199899.000000,54209999.000000 Z"/> 
<svg:path style="fill:#C83434; fill-opacity:1.0;  stroke:#C83434; stroke-width:1.000000; stroke-opacity:1;  stroke-linecap:round; stroke-linejoin:round;fill-rule:evenodd;" d="M 45790001.000000,56800099.000000 45790001.000000,54800101.000000 46589999.000000,54800101.000000 46589999.000000,56800099.000000 Z"/> 
<svg:path style="fill:#C83434; fill-opacity:1.0;  stroke:#C83434; stroke-width:1.000000; stroke-opacity:1;  stroke-linecap:round; stroke-linejoin:round;fill-rule:evenodd;" d="M 47060001.000000,56800099.000000 47060001.000000,54800101.000000 47859999.000000,54800101.000000 47859999.000000,56800099.000000 Z"/> 
<svg:path style="fill:#C83434; fill-opacity:1.0;  stroke:#C83434; stroke-width:1.000000; stroke-opacity:1;  stroke-linecap:round; stroke-linejoin:round;fill-rule:evenodd;" d="M 48330001.000000,56800099.000000 48330001.000000,54800101.000000 49129999.000000,54800101.000000 49129999.000000,56800099.000000 Z"/> 
<svg:path style="fill:#C83434; fill-opacity:1.0;  stroke:#C83434; stroke-width:1.000000; stroke-opacity:1;  stroke-linecap:round; stroke-linejoin:round;fill-rule:evenodd;" d="M 49600001.000000,56800099.000000 49600001.000000,54800101.000000 50399999.000000,54800101.000000 50399999.000000,56800099.000000 Z"/> 
<svg:path style="fill:#C83434; fill-opacity:1.0;  stroke:#C83434; stroke-width:1.000000; stroke-opacity:1;  stroke-linecap:round; stroke-linejoin:round;fill-rule:evenodd;" d="M 50870001.000000,56800099.000000 50870001.000000,54800101.000000 51669999.000000,54800101.000000 51669999.000000,56800099.000000 Z"/> 
<svg:path style="fill:#C83434; fill-opacity:1.0;  stroke:#C83434; stroke-width:1.000000; stroke-opacity:1;  stroke-linecap:round; stroke-linejoin:round;fill-rule:evenodd;" d="M 52140001.000000,56800099.000000 52140001.000000,54800101.000000 52939999.000000,54800101.000000 52939999.000000,56800099.000000 Z"/> 
<svg:path style="fill:#C83434; fill-opacity:1.0;  stroke:#C83434; stroke-width:1.000000; stroke-opacity:1;  stroke-linecap:round; stroke-linejoin:round;fill-rule:evenodd;" d="M 53410001.000000,56800099.000000 53410001.000000,54800101.000000 54209999.000000,54800101.000000 54209999.000000,56800099.000000 Z"/> 
<svg:path style="fill:#C83434; fill-opacity:1.0;  stroke:#C83434; stroke-width:1.000000; stroke-opacity:1;  stroke-linecap:round; stroke-linejoin:round;fill-rule:evenodd;" d="M 54800101.000000,54209999.000000 54800101.000000,53410001.000000 56800099.000000,53410001.000000 56800099.000000,54209999.000000 Z"/> 
<svg:path style="fill:#C83434; fill-opacity:1.0;  stroke:#C83434; stroke-width:1.000000; stroke-opacity:1;  stroke-linecap:round; stroke-linejoin:round;fill-rule:evenodd;" d="M 54800101.000000,52939999.000000 54800101.000000,52140001.000000 56800099.000000,52140001.000000 56800099.000000,52939999.000000 Z"/> 
<svg:path style="fill:#C83434; fill-opacity:1.0;  stroke:#C83434; stroke-width:1.000000; stroke-opacity:1;  stroke-linecap:round; stroke-linejoin:round;fill-rule:evenodd;" d="M 54800101.000000,51669999.000000 54800101.000000,50870001.000000 56800099.000000,50870001.000000 56800099.000000,51669999.000000 Z"/> 
<svg:path style="fill:#C83434; fill-opacity:1.0;  stroke:#C83434; stroke-width:1.000000; stroke-opacity:1;  stroke-linecap:round; stroke-linejoin:round;fill-rule:evenodd;" d="M 54800101.000000,50399999.000000 54800101.000000,49600001.000000 56800099.000000,49600001.000000 56800099.000000,50399999.000000 Z"/> 
<svg:path style="fill:#C83434; fill-opacity:1.0;  stroke:#C83434; stroke-width:1.000000; stroke-opacity:1;  stroke-linecap:round; stroke-linejoin:round;fill-rule:evenodd;" d="M 54800101.000000,49129999.000000 54800101.000000,48330001.000000 56800099.000000,48330001.000000 56800099.000000,49129999.000000 Z"/> 
<svg:path style="fill:#C83434; fill-opacity:1.0;  stroke:#C83434; stroke-width:1.000000; stroke-opacity:1;  stroke-linecap:round; stroke-linejoin:round;fill-rule:evenodd;" d="M 54800101.000000,47859999.000000 54800101.000000,47060001.000000 56800099.000000,47060001.000000 56800099.000000,47859999.000000 Z"/> 
<svg:path style="fill:#C83434; fill-opacity:1.0;  stroke:#C83434; stroke-width:1.000000; stroke-opacity:1;  stroke-linecap:round; stroke-linejoin:round;fill-rule:evenodd;" d="M 54800101.000000,46589999.000000 54800101.000000,45790001.000000 56800099.000000,45790001.000000 56800099.000000,46589999.000000 Z"/> 
<svg:path style="fill:#C83434; fill-opacity:1.0;  stroke:#C83434; stroke-width:1.000000; stroke-opacity:1;  stroke-linecap:round; stroke-linejoin:round;fill-rule:evenodd;" d="M 53410001.000000,45199899.000000 53410001.000000,43199901.000000 54209999.000000,43199901.000000 54209999.000000,45199899.000000 Z"/> 
<svg:path style="fill:#C83434; fill-opacity:1.0;  stroke:#C83434; stroke-width:1.000000; stroke-opacity:1;  stroke-linecap:round; stroke-linejoin:round;fill-rule:evenodd;" d="M 52140001.000000,45199899.000000 52140001.000000,43199901.000000 52939999.000000,43199901.000000 52939999.000000,45199899.000000 Z"/> 
<svg:path style="fill:#C83434; fill-opacity:1.0;  stroke:#C83434; stroke-width:1.000000; stroke-opacity:1;  stroke-linecap:round; stroke-linejoin:round;fill-rule:evenodd;" d="M 50870001.000000,45199899.000000 50870001.000000,43199901.000000 51669999.000000,43199901.000000 51669999.000000,45199899.000000 Z"/> 
</svg:g>
<svg:g>
</svg:g>
<svg:g>
</svg:g>
<svg:g>
</svg:g>
</svg:g>
<svg:g style="fill:#FFFFFF; fill-opacity:1.0;  stroke:#FFFFFF; stroke-width:1.000000; stroke-opacity:1;  stroke-linecap:round; stroke-linejoin:round;">
</svg:g>
<svg:g style="fill:#000000; fill-opacity:1.0;  stroke:#000000; stroke-width:1.000000; stroke-opacity:1;  stroke-linecap:round; stroke-linejoin:round;">
<svg:g>
</svg:g>
<svg:g>
</svg:g>
<svg:g>
</svg:g>
<svg:g>
</svg:g>
</svg:g> 
</svg:g><svg:g><svg:title>SVG Picture created as kicadBoard-F_Fab.svg date 2022/12/02 18:11:47 </svg:title>
  <svg:desc>Picture generated by PCBNEW </svg:desc>
<svg:g style="fill:#000000; fill-opacity:1.000000;stroke:#000000; stroke-opacity:1.000000; stroke-linecap:round; stroke-linejoin:round;" transform="translate(0 0) scale(1 1)">
</svg:g>
<svg:g style="fill:#000000; fill-opacity:0.0;  stroke:#000000; stroke-width:0.000000; stroke-opacity:1;  stroke-linecap:round; stroke-linejoin:round;">
</svg:g>
<svg:g style="fill:#AFAFAF; fill-opacity:0.0;  stroke:#AFAFAF; stroke-width:0.000000; stroke-opacity:1;  stroke-linecap:round; stroke-linejoin:round;">
</svg:g>
<svg:g style="fill:#AFAFAF; fill-opacity:0.0;  stroke:#AFAFAF; stroke-width:142240.000000; stroke-opacity:1;  stroke-linecap:round; stroke-linejoin:round;">
<svg:text x="46024900.000000" y="59465100.000000" textLength="9532112.000000" font-size="2181013.000000" lengthAdjust="spacingAndGlyphs" text-anchor="start" opacity="0">&gt;VALUE</svg:text>
<svg:g class="stroked-text"><svg:desc>&gt;VALUE</svg:desc>
<svg:path d="M46506822 58296700 L47753116 58764060 L46506822 59231420 "/>
<svg:path d="M48298369 57751446 L48843622 59387206 L49388876 57751446 "/>
<svg:path d="M49856236 58919846 L50635169 58919846 "/>
<svg:path d="M49700449 59387206 L50245702 57751446 L50790956 59387206 "/>
<svg:path d="M52115142 59387206 L51336209 59387206 L51336209 57751446 "/>
<svg:path d="M52660396 57751446 L52660396 59075633 L52738289 59231420 L52816182 59309313 L52971969 59387206 L53283542 59387206 L53439329 59309313 L53517222 59231420 L53595116 59075633 L53595116 57751446 "/>
<svg:path d="M54374049 58530380 L54919302 58530380 "/>
<svg:path d="M55152982 59387206 L54374049 59387206 L54374049 57751446 L55152982 57751446 "/>
</svg:g></svg:g>
<svg:g style="fill:#AFAFAF; fill-opacity:0.0;  stroke:#AFAFAF; stroke-width:203200.000000; stroke-opacity:1;  stroke-linecap:round; stroke-linejoin:round;">
<svg:path d="M49130000 55670000 L49599900 55670000 "/>
<svg:path d="M48329900 44330000 L47860000 44330000 "/>
<svg:path d="M47059900 44330000 L46590000 44330000 "/>
<svg:path d="M44330000 46590000 L44330000 47059900 "/>
<svg:path d="M50400100 55670000 L50870000 55670000 "/>
<svg:path d="M44330000 50400100 L44330000 50870000 "/>
<svg:path d="M55670000 47059900 L55670000 46590000 "/>
<svg:path d="M55670000 49599900 L55670000 49130000 "/>
<svg:path d="M52940100 55670000 L53410000 55670000 "/>
<svg:path d="M45789900 44330000 L45430000 44330000 "/>
<svg:path d="M44330000 55670000 L45789900 55670000 "/>
<svg:path d="M55670000 52140000 L55670000 51670100 "/>
<svg:path d="M44330000 45430000 L44330000 45789900 "/>
<svg:path d="M55670000 55670000 L55670000 54210100 "/>
<svg:path d="M50870000 44330000 L50400100 44330000 "/>
<svg:path d="M44330000 49130000 L44330000 49599900 "/>
<svg:path d="M44330000 52940100 L44330000 53410000 "/>
<svg:path d="M55670000 45789900 L55670000 44330000 "/>
<svg:path d="M47860000 55670000 L48329900 55670000 "/>
<svg:path d="M55670000 48329900 L55670000 47860000 "/>
<svg:path d="M44330000 51670100 L44330000 52140000 "/>
<svg:path d="M55670000 50870000 L55670000 50400100 "/>
<svg:path d="M44330000 55670000 L46870000 55679900 "/>
<svg:path d="M52140000 44330000 L51670100 44330000 "/>
<svg:path d="M55670000 44330000 L54210100 44330000 "/>
<svg:path d="M54210100 55670000 L55670000 55670000 "/>
<svg:path d="M55670000 53410000 L55670000 52940100 "/>
<svg:path d="M44330000 47860000 L44330000 48329900 "/>
<svg:path d="M45430000 44330000 L44330000 45430000 "/>
<svg:path d="M44330000 54210100 L44330000 55670000 "/>
<svg:path d="M53410000 44330000 L52940100 44330000 "/>
<svg:path d="M46590000 55670000 L47059900 55670000 "/>
<svg:path d="M51670100 55670000 L52140000 55670000 "/>
<svg:path d="M49599900 44330000 L49130000 44330000 "/>
<svg:path d="M55668500.000000 48329900.000000 A400100.000000 400100.000000 0.0 0 0 55668500.000000 49130100.000000"/>
<svg:path d="M55668500.000000 53410000.000000 A400000.000000 400000.000000 0.0 0 0 55668500.000000 54210000.000000"/>
<svg:path d="M46590100.000000 55668500.000000 A400100.000000 400100.000000 0.0 0 0 45789900.000000 55668500.000000"/>
<svg:path d="M55668500.000000 50870000.000000 A400000.000000 400000.000000 0.0 0 0 55668500.000000 51670000.000000"/>
<svg:path d="M44331500.000000 54210100.000000 A400100.000000 400100.000000 0.0 0 0 44331500.000000 53409900.000000"/>
<svg:path d="M53410000.000000 44331500.000000 A400000.000000 400000.000000 0.0 0 0 54210000.000000 44331500.000000"/>
<svg:path d="M49130100.000000 55668500.000000 A400100.000000 400100.000000 0.0 0 0 48329900.000000 55668500.000000"/>
<svg:path d="M44331500.000000 51670100.000000 A400100.000000 400100.000000 0.0 0 0 44331500.000000 50869900.000000"/>
<svg:path d="M55668500.000000 52140000.000000 A400000.000000 400000.000000 0.0 0 0 55668500.000000 52940000.000000"/>
<svg:path d="M55668500.000000 47059900.000000 A400100.000000 400100.000000 0.0 0 0 55668500.000000 47860100.000000"/>
<svg:path d="M44331500.000000 49130000.000000 A400000.000000 400000.000000 0.0 0 0 44331500.000000 48330000.000000"/>
<svg:path d="M45789900.000000 44331500.000000 A400100.000000 400100.000000 0.0 0 0 46590100.000000 44331500.000000"/>
<svg:path d="M44331500.000000 50400100.000000 A400100.000000 400100.000000 0.0 0 0 44331500.000000 49599900.000000"/>
<svg:path d="M50400100.000000 55668500.000000 A400100.000000 400100.000000 0.0 0 0 49599900.000000 55668500.000000"/>
<svg:path d="M54210000.000000 55668500.000000 A400000.000000 400000.000000 0.0 0 0 53410000.000000 55668500.000000"/>
<svg:path d="M47059900.000000 44331500.000000 A400100.000000 400100.000000 0.0 0 0 47860100.000000 44331500.000000"/>
<svg:path d="M55668500.000000 49599900.000000 A400100.000000 400100.000000 0.0 0 0 55668500.000000 50400100.000000"/>
<svg:path d="M44331500.000000 52940100.000000 A400100.000000 400100.000000 0.0 0 0 44331500.000000 52139900.000000"/>
<svg:path d="M52140000.000000 44331500.000000 A400000.000000 400000.000000 0.0 0 0 52940000.000000 44331500.000000"/>
<svg:path d="M52940000.000000 55668500.000000 A400000.000000 400000.000000 0.0 0 0 52140000.000000 55668500.000000"/>
<svg:path d="M44331500.000000 47860000.000000 A400000.000000 400000.000000 0.0 0 0 44331500.000000 47060000.000000"/>
<svg:path d="M47860100.000000 55668500.000000 A400100.000000 400100.000000 0.0 0 0 47059900.000000 55668500.000000"/>
<svg:path d="M51670000.000000 55668500.000000 A400000.000000 400000.000000 0.0 0 0 50870000.000000 55668500.000000"/>
<svg:path d="M50870000.000000 44331500.000000 A400000.000000 400000.000000 0.0 0 0 51670000.000000 44331500.000000"/>
<svg:path d="M44331500.000000 46590000.000000 A400000.000000 400000.000000 0.0 0 0 44331500.000000 45790000.000000"/>
<svg:path d="M49599900.000000 44331500.000000 A400100.000000 400100.000000 0.0 0 0 50400100.000000 44331500.000000"/>
<svg:path d="M48329900.000000 44331500.000000 A400100.000000 400100.000000 0.0 0 0 49130100.000000 44331500.000000"/>
<svg:path d="M55668500.000000 45789900.000000 A400100.000000 400100.000000 0.0 0 0 55668500.000000 46590100.000000"/>
<svg:g>
</svg:g>
<svg:g>
</svg:g>
<svg:g>
</svg:g>
<svg:g>
</svg:g>
</svg:g>
<svg:g style="fill:#000000; fill-opacity:0.0;  stroke:#000000; stroke-width:203200.000000; stroke-opacity:1;  stroke-linecap:round; stroke-linejoin:round;">
<svg:g>
</svg:g>
<svg:g>
</svg:g>
<svg:g>
</svg:g>
<svg:g>
</svg:g>
</svg:g> 
</svg:g><svg:g><svg:title>SVG Picture created as kicadBoard-F_Mask.svg date 2022/12/02 18:11:47 </svg:title>
  <svg:desc>Picture generated by PCBNEW </svg:desc>
<svg:g style="fill:#000000; fill-opacity:1.000000;stroke:#000000; stroke-opacity:1.000000; stroke-linecap:round; stroke-linejoin:round;" transform="translate(0 0) scale(1 1)">
</svg:g>
<svg:g style="fill:#000000; fill-opacity:0.0;  stroke:#000000; stroke-width:0.000000; stroke-opacity:1;  stroke-linecap:round; stroke-linejoin:round;">
<svg:g>
</svg:g>
<svg:g style="fill:#000000; fill-opacity:0.0;  stroke:#000000; stroke-width:1.000000; stroke-opacity:1;  stroke-linecap:round; stroke-linejoin:round;">
</svg:g>
<svg:g style="fill:#000000; fill-opacity:1.0;  stroke:#000000; stroke-width:1.000000; stroke-opacity:1;  stroke-linecap:round; stroke-linejoin:round;">
<svg:path style="fill:#000000; fill-opacity:1.0;  stroke:#000000; stroke-width:1.000000; stroke-opacity:1;  stroke-linecap:round; stroke-linejoin:round;fill-rule:evenodd;" d="M 49498400.000000,43199900.000000 49506134.000000,43161019.000000 49528158.000000,43128058.000000 49561119.000000,43106034.000000 49600000.000000,43098300.000000 50400000.000000,43098300.000000 50438881.000000,43106034.000000 50471842.000000,43128058.000000 50493866.000000,43161019.000000 50501600.000000,43199900.000000 50501600.000000,46599900.000000 50493866.000000,46638781.000000 50471842.000000,46671742.000000 50438881.000000,46693766.000000 50400000.000000,46701500.000000 49600000.000000,46701500.000000 49561119.000000,46693766.000000 49528158.000000,46671742.000000 49506134.000000,46638781.000000 49498400.000000,46599900.000000 Z"/> 
<svg:path style="fill:#000000; fill-opacity:1.0;  stroke:#000000; stroke-width:1.000000; stroke-opacity:1;  stroke-linecap:round; stroke-linejoin:round;fill-rule:evenodd;" d="M 48228400.000000,43199900.000000 48236134.000000,43161019.000000 48258158.000000,43128058.000000 48291119.000000,43106034.000000 48330000.000000,43098300.000000 49130000.000000,43098300.000000 49168881.000000,43106034.000000 49201842.000000,43128058.000000 49223866.000000,43161019.000000 49231600.000000,43199900.000000 49231600.000000,45199900.000000 49223866.000000,45238781.000000 49201842.000000,45271742.000000 49168881.000000,45293766.000000 49130000.000000,45301500.000000 48330000.000000,45301500.000000 48291119.000000,45293766.000000 48258158.000000,45271742.000000 48236134.000000,45238781.000000 48228400.000000,45199900.000000 Z"/> 
<svg:path style="fill:#000000; fill-opacity:1.0;  stroke:#000000; stroke-width:1.000000; stroke-opacity:1;  stroke-linecap:round; stroke-linejoin:round;fill-rule:evenodd;" d="M 46958400.000000,43199900.000000 46966134.000000,43161019.000000 46988158.000000,43128058.000000 47021119.000000,43106034.000000 47060000.000000,43098300.000000 47860000.000000,43098300.000000 47898881.000000,43106034.000000 47931842.000000,43128058.000000 47953866.000000,43161019.000000 47961600.000000,43199900.000000 47961600.000000,45199900.000000 47953866.000000,45238781.000000 47931842.000000,45271742.000000 47898881.000000,45293766.000000 47860000.000000,45301500.000000 47060000.000000,45301500.000000 47021119.000000,45293766.000000 46988158.000000,45271742.000000 46966134.000000,45238781.000000 46958400.000000,45199900.000000 Z"/> 
<svg:path style="fill:#000000; fill-opacity:1.0;  stroke:#000000; stroke-width:1.000000; stroke-opacity:1;  stroke-linecap:round; stroke-linejoin:round;fill-rule:evenodd;" d="M 45688400.000000,43199900.000000 45696134.000000,43161019.000000 45718158.000000,43128058.000000 45751119.000000,43106034.000000 45790000.000000,43098300.000000 46590000.000000,43098300.000000 46628881.000000,43106034.000000 46661842.000000,43128058.000000 46683866.000000,43161019.000000 46691600.000000,43199900.000000 46691600.000000,45199900.000000 46683866.000000,45238781.000000 46661842.000000,45271742.000000 46628881.000000,45293766.000000 46590000.000000,45301500.000000 45790000.000000,45301500.000000 45751119.000000,45293766.000000 45718158.000000,45271742.000000 45696134.000000,45238781.000000 45688400.000000,45199900.000000 Z"/> 
<svg:path style="fill:#000000; fill-opacity:1.0;  stroke:#000000; stroke-width:1.000000; stroke-opacity:1;  stroke-linecap:round; stroke-linejoin:round;fill-rule:evenodd;" d="M 43098300.000000,45790000.000000 43106034.000000,45751119.000000 43128058.000000,45718158.000000 43161019.000000,45696134.000000 43199900.000000,45688400.000000 45199900.000000,45688400.000000 45238781.000000,45696134.000000 45271742.000000,45718158.000000 45293766.000000,45751119.000000 45301500.000000,45790000.000000 45301500.000000,46590000.000000 45293766.000000,46628881.000000 45271742.000000,46661842.000000 45238781.000000,46683866.000000 45199900.000000,46691600.000000 43199900.000000,46691600.000000 43161019.000000,46683866.000000 43128058.000000,46661842.000000 43106034.000000,46628881.000000 43098300.000000,46590000.000000 Z"/> 
<svg:path style="fill:#000000; fill-opacity:1.0;  stroke:#000000; stroke-width:1.000000; stroke-opacity:1;  stroke-linecap:round; stroke-linejoin:round;fill-rule:evenodd;" d="M 43098300.000000,47060000.000000 43106034.000000,47021119.000000 43128058.000000,46988158.000000 43161019.000000,46966134.000000 43199900.000000,46958400.000000 45199900.000000,46958400.000000 45238781.000000,46966134.000000 45271742.000000,46988158.000000 45293766.000000,47021119.000000 45301500.000000,47060000.000000 45301500.000000,47860000.000000 45293766.000000,47898881.000000 45271742.000000,47931842.000000 45238781.000000,47953866.000000 45199900.000000,47961600.000000 43199900.000000,47961600.000000 43161019.000000,47953866.000000 43128058.000000,47931842.000000 43106034.000000,47898881.000000 43098300.000000,47860000.000000 Z"/> 
<svg:path style="fill:#000000; fill-opacity:1.0;  stroke:#000000; stroke-width:1.000000; stroke-opacity:1;  stroke-linecap:round; stroke-linejoin:round;fill-rule:evenodd;" d="M 43098300.000000,48330000.000000 43106034.000000,48291119.000000 43128058.000000,48258158.000000 43161019.000000,48236134.000000 43199900.000000,48228400.000000 45199900.000000,48228400.000000 45238781.000000,48236134.000000 45271742.000000,48258158.000000 45293766.000000,48291119.000000 45301500.000000,48330000.000000 45301500.000000,49130000.000000 45293766.000000,49168881.000000 45271742.000000,49201842.000000 45238781.000000,49223866.000000 45199900.000000,49231600.000000 43199900.000000,49231600.000000 43161019.000000,49223866.000000 43128058.000000,49201842.000000 43106034.000000,49168881.000000 43098300.000000,49130000.000000 Z"/> 
<svg:path style="fill:#000000; fill-opacity:1.0;  stroke:#000000; stroke-width:1.000000; stroke-opacity:1;  stroke-linecap:round; stroke-linejoin:round;fill-rule:evenodd;" d="M 43098300.000000,49600000.000000 43106034.000000,49561119.000000 43128058.000000,49528158.000000 43161019.000000,49506134.000000 43199900.000000,49498400.000000 45199900.000000,49498400.000000 45238781.000000,49506134.000000 45271742.000000,49528158.000000 45293766.000000,49561119.000000 45301500.000000,49600000.000000 45301500.000000,50400000.000000 45293766.000000,50438881.000000 45271742.000000,50471842.000000 45238781.000000,50493866.000000 45199900.000000,50501600.000000 43199900.000000,50501600.000000 43161019.000000,50493866.000000 43128058.000000,50471842.000000 43106034.000000,50438881.000000 43098300.000000,50400000.000000 Z"/> 
<svg:path style="fill:#000000; fill-opacity:1.0;  stroke:#000000; stroke-width:1.000000; stroke-opacity:1;  stroke-linecap:round; stroke-linejoin:round;fill-rule:evenodd;" d="M 43098300.000000,50870000.000000 43106034.000000,50831119.000000 43128058.000000,50798158.000000 43161019.000000,50776134.000000 43199900.000000,50768400.000000 45199900.000000,50768400.000000 45238781.000000,50776134.000000 45271742.000000,50798158.000000 45293766.000000,50831119.000000 45301500.000000,50870000.000000 45301500.000000,51670000.000000 45293766.000000,51708881.000000 45271742.000000,51741842.000000 45238781.000000,51763866.000000 45199900.000000,51771600.000000 43199900.000000,51771600.000000 43161019.000000,51763866.000000 43128058.000000,51741842.000000 43106034.000000,51708881.000000 43098300.000000,51670000.000000 Z"/> 
<svg:path style="fill:#000000; fill-opacity:1.0;  stroke:#000000; stroke-width:1.000000; stroke-opacity:1;  stroke-linecap:round; stroke-linejoin:round;fill-rule:evenodd;" d="M 43098300.000000,52140000.000000 43106034.000000,52101119.000000 43128058.000000,52068158.000000 43161019.000000,52046134.000000 43199900.000000,52038400.000000 45199900.000000,52038400.000000 45238781.000000,52046134.000000 45271742.000000,52068158.000000 45293766.000000,52101119.000000 45301500.000000,52140000.000000 45301500.000000,52940000.000000 45293766.000000,52978881.000000 45271742.000000,53011842.000000 45238781.000000,53033866.000000 45199900.000000,53041600.000000 43199900.000000,53041600.000000 43161019.000000,53033866.000000 43128058.000000,53011842.000000 43106034.000000,52978881.000000 43098300.000000,52940000.000000 Z"/> 
<svg:path style="fill:#000000; fill-opacity:1.0;  stroke:#000000; stroke-width:1.000000; stroke-opacity:1;  stroke-linecap:round; stroke-linejoin:round;fill-rule:evenodd;" d="M 43098300.000000,53410000.000000 43106034.000000,53371119.000000 43128058.000000,53338158.000000 43161019.000000,53316134.000000 43199900.000000,53308400.000000 45199900.000000,53308400.000000 45238781.000000,53316134.000000 45271742.000000,53338158.000000 45293766.000000,53371119.000000 45301500.000000,53410000.000000 45301500.000000,54210000.000000 45293766.000000,54248881.000000 45271742.000000,54281842.000000 45238781.000000,54303866.000000 45199900.000000,54311600.000000 43199900.000000,54311600.000000 43161019.000000,54303866.000000 43128058.000000,54281842.000000 43106034.000000,54248881.000000 43098300.000000,54210000.000000 Z"/> 
<svg:path style="fill:#000000; fill-opacity:1.0;  stroke:#000000; stroke-width:1.000000; stroke-opacity:1;  stroke-linecap:round; stroke-linejoin:round;fill-rule:evenodd;" d="M 45688400.000000,54800100.000000 45696134.000000,54761219.000000 45718158.000000,54728258.000000 45751119.000000,54706234.000000 45790000.000000,54698500.000000 46590000.000000,54698500.000000 46628881.000000,54706234.000000 46661842.000000,54728258.000000 46683866.000000,54761219.000000 46691600.000000,54800100.000000 46691600.000000,56800100.000000 46683866.000000,56838981.000000 46661842.000000,56871942.000000 46628881.000000,56893966.000000 46590000.000000,56901700.000000 45790000.000000,56901700.000000 45751119.000000,56893966.000000 45718158.000000,56871942.000000 45696134.000000,56838981.000000 45688400.000000,56800100.000000 Z"/> 
<svg:path style="fill:#000000; fill-opacity:1.0;  stroke:#000000; stroke-width:1.000000; stroke-opacity:1;  stroke-linecap:round; stroke-linejoin:round;fill-rule:evenodd;" d="M 46958400.000000,54800100.000000 46966134.000000,54761219.000000 46988158.000000,54728258.000000 47021119.000000,54706234.000000 47060000.000000,54698500.000000 47860000.000000,54698500.000000 47898881.000000,54706234.000000 47931842.000000,54728258.000000 47953866.000000,54761219.000000 47961600.000000,54800100.000000 47961600.000000,56800100.000000 47953866.000000,56838981.000000 47931842.000000,56871942.000000 47898881.000000,56893966.000000 47860000.000000,56901700.000000 47060000.000000,56901700.000000 47021119.000000,56893966.000000 46988158.000000,56871942.000000 46966134.000000,56838981.000000 46958400.000000,56800100.000000 Z"/> 
<svg:path style="fill:#000000; fill-opacity:1.0;  stroke:#000000; stroke-width:1.000000; stroke-opacity:1;  stroke-linecap:round; stroke-linejoin:round;fill-rule:evenodd;" d="M 48228400.000000,54800100.000000 48236134.000000,54761219.000000 48258158.000000,54728258.000000 48291119.000000,54706234.000000 48330000.000000,54698500.000000 49130000.000000,54698500.000000 49168881.000000,54706234.000000 49201842.000000,54728258.000000 49223866.000000,54761219.000000 49231600.000000,54800100.000000 49231600.000000,56800100.000000 49223866.000000,56838981.000000 49201842.000000,56871942.000000 49168881.000000,56893966.000000 49130000.000000,56901700.000000 48330000.000000,56901700.000000 48291119.000000,56893966.000000 48258158.000000,56871942.000000 48236134.000000,56838981.000000 48228400.000000,56800100.000000 Z"/> 
<svg:path style="fill:#000000; fill-opacity:1.0;  stroke:#000000; stroke-width:1.000000; stroke-opacity:1;  stroke-linecap:round; stroke-linejoin:round;fill-rule:evenodd;" d="M 49498400.000000,54800100.000000 49506134.000000,54761219.000000 49528158.000000,54728258.000000 49561119.000000,54706234.000000 49600000.000000,54698500.000000 50400000.000000,54698500.000000 50438881.000000,54706234.000000 50471842.000000,54728258.000000 50493866.000000,54761219.000000 50501600.000000,54800100.000000 50501600.000000,56800100.000000 50493866.000000,56838981.000000 50471842.000000,56871942.000000 50438881.000000,56893966.000000 50400000.000000,56901700.000000 49600000.000000,56901700.000000 49561119.000000,56893966.000000 49528158.000000,56871942.000000 49506134.000000,56838981.000000 49498400.000000,56800100.000000 Z"/> 
<svg:path style="fill:#000000; fill-opacity:1.0;  stroke:#000000; stroke-width:1.000000; stroke-opacity:1;  stroke-linecap:round; stroke-linejoin:round;fill-rule:evenodd;" d="M 50768400.000000,54800100.000000 50776134.000000,54761219.000000 50798158.000000,54728258.000000 50831119.000000,54706234.000000 50870000.000000,54698500.000000 51670000.000000,54698500.000000 51708881.000000,54706234.000000 51741842.000000,54728258.000000 51763866.000000,54761219.000000 51771600.000000,54800100.000000 51771600.000000,56800100.000000 51763866.000000,56838981.000000 51741842.000000,56871942.000000 51708881.000000,56893966.000000 51670000.000000,56901700.000000 50870000.000000,56901700.000000 50831119.000000,56893966.000000 50798158.000000,56871942.000000 50776134.000000,56838981.000000 50768400.000000,56800100.000000 Z"/> 
<svg:path style="fill:#000000; fill-opacity:1.0;  stroke:#000000; stroke-width:1.000000; stroke-opacity:1;  stroke-linecap:round; stroke-linejoin:round;fill-rule:evenodd;" d="M 52038400.000000,54800100.000000 52046134.000000,54761219.000000 52068158.000000,54728258.000000 52101119.000000,54706234.000000 52140000.000000,54698500.000000 52940000.000000,54698500.000000 52978881.000000,54706234.000000 53011842.000000,54728258.000000 53033866.000000,54761219.000000 53041600.000000,54800100.000000 53041600.000000,56800100.000000 53033866.000000,56838981.000000 53011842.000000,56871942.000000 52978881.000000,56893966.000000 52940000.000000,56901700.000000 52140000.000000,56901700.000000 52101119.000000,56893966.000000 52068158.000000,56871942.000000 52046134.000000,56838981.000000 52038400.000000,56800100.000000 Z"/> 
<svg:path style="fill:#000000; fill-opacity:1.0;  stroke:#000000; stroke-width:1.000000; stroke-opacity:1;  stroke-linecap:round; stroke-linejoin:round;fill-rule:evenodd;" d="M 53308400.000000,54800100.000000 53316134.000000,54761219.000000 53338158.000000,54728258.000000 53371119.000000,54706234.000000 53410000.000000,54698500.000000 54210000.000000,54698500.000000 54248881.000000,54706234.000000 54281842.000000,54728258.000000 54303866.000000,54761219.000000 54311600.000000,54800100.000000 54311600.000000,56800100.000000 54303866.000000,56838981.000000 54281842.000000,56871942.000000 54248881.000000,56893966.000000 54210000.000000,56901700.000000 53410000.000000,56901700.000000 53371119.000000,56893966.000000 53338158.000000,56871942.000000 53316134.000000,56838981.000000 53308400.000000,56800100.000000 Z"/> 
<svg:path style="fill:#000000; fill-opacity:1.0;  stroke:#000000; stroke-width:1.000000; stroke-opacity:1;  stroke-linecap:round; stroke-linejoin:round;fill-rule:evenodd;" d="M 54698500.000000,53410000.000000 54706234.000000,53371119.000000 54728258.000000,53338158.000000 54761219.000000,53316134.000000 54800100.000000,53308400.000000 56800100.000000,53308400.000000 56838981.000000,53316134.000000 56871942.000000,53338158.000000 56893966.000000,53371119.000000 56901700.000000,53410000.000000 56901700.000000,54210000.000000 56893966.000000,54248881.000000 56871942.000000,54281842.000000 56838981.000000,54303866.000000 56800100.000000,54311600.000000 54800100.000000,54311600.000000 54761219.000000,54303866.000000 54728258.000000,54281842.000000 54706234.000000,54248881.000000 54698500.000000,54210000.000000 Z"/> 
<svg:path style="fill:#000000; fill-opacity:1.0;  stroke:#000000; stroke-width:1.000000; stroke-opacity:1;  stroke-linecap:round; stroke-linejoin:round;fill-rule:evenodd;" d="M 54698500.000000,52140000.000000 54706234.000000,52101119.000000 54728258.000000,52068158.000000 54761219.000000,52046134.000000 54800100.000000,52038400.000000 56800100.000000,52038400.000000 56838981.000000,52046134.000000 56871942.000000,52068158.000000 56893966.000000,52101119.000000 56901700.000000,52140000.000000 56901700.000000,52940000.000000 56893966.000000,52978881.000000 56871942.000000,53011842.000000 56838981.000000,53033866.000000 56800100.000000,53041600.000000 54800100.000000,53041600.000000 54761219.000000,53033866.000000 54728258.000000,53011842.000000 54706234.000000,52978881.000000 54698500.000000,52940000.000000 Z"/> 
<svg:path style="fill:#000000; fill-opacity:1.0;  stroke:#000000; stroke-width:1.000000; stroke-opacity:1;  stroke-linecap:round; stroke-linejoin:round;fill-rule:evenodd;" d="M 54698500.000000,50870000.000000 54706234.000000,50831119.000000 54728258.000000,50798158.000000 54761219.000000,50776134.000000 54800100.000000,50768400.000000 56800100.000000,50768400.000000 56838981.000000,50776134.000000 56871942.000000,50798158.000000 56893966.000000,50831119.000000 56901700.000000,50870000.000000 56901700.000000,51670000.000000 56893966.000000,51708881.000000 56871942.000000,51741842.000000 56838981.000000,51763866.000000 56800100.000000,51771600.000000 54800100.000000,51771600.000000 54761219.000000,51763866.000000 54728258.000000,51741842.000000 54706234.000000,51708881.000000 54698500.000000,51670000.000000 Z"/> 
<svg:path style="fill:#000000; fill-opacity:1.0;  stroke:#000000; stroke-width:1.000000; stroke-opacity:1;  stroke-linecap:round; stroke-linejoin:round;fill-rule:evenodd;" d="M 54698500.000000,49600000.000000 54706234.000000,49561119.000000 54728258.000000,49528158.000000 54761219.000000,49506134.000000 54800100.000000,49498400.000000 56800100.000000,49498400.000000 56838981.000000,49506134.000000 56871942.000000,49528158.000000 56893966.000000,49561119.000000 56901700.000000,49600000.000000 56901700.000000,50400000.000000 56893966.000000,50438881.000000 56871942.000000,50471842.000000 56838981.000000,50493866.000000 56800100.000000,50501600.000000 54800100.000000,50501600.000000 54761219.000000,50493866.000000 54728258.000000,50471842.000000 54706234.000000,50438881.000000 54698500.000000,50400000.000000 Z"/> 
<svg:path style="fill:#000000; fill-opacity:1.0;  stroke:#000000; stroke-width:1.000000; stroke-opacity:1;  stroke-linecap:round; stroke-linejoin:round;fill-rule:evenodd;" d="M 54698500.000000,48330000.000000 54706234.000000,48291119.000000 54728258.000000,48258158.000000 54761219.000000,48236134.000000 54800100.000000,48228400.000000 56800100.000000,48228400.000000 56838981.000000,48236134.000000 56871942.000000,48258158.000000 56893966.000000,48291119.000000 56901700.000000,48330000.000000 56901700.000000,49130000.000000 56893966.000000,49168881.000000 56871942.000000,49201842.000000 56838981.000000,49223866.000000 56800100.000000,49231600.000000 54800100.000000,49231600.000000 54761219.000000,49223866.000000 54728258.000000,49201842.000000 54706234.000000,49168881.000000 54698500.000000,49130000.000000 Z"/> 
<svg:path style="fill:#000000; fill-opacity:1.0;  stroke:#000000; stroke-width:1.000000; stroke-opacity:1;  stroke-linecap:round; stroke-linejoin:round;fill-rule:evenodd;" d="M 54698500.000000,47060000.000000 54706234.000000,47021119.000000 54728258.000000,46988158.000000 54761219.000000,46966134.000000 54800100.000000,46958400.000000 56800100.000000,46958400.000000 56838981.000000,46966134.000000 56871942.000000,46988158.000000 56893966.000000,47021119.000000 56901700.000000,47060000.000000 56901700.000000,47860000.000000 56893966.000000,47898881.000000 56871942.000000,47931842.000000 56838981.000000,47953866.000000 56800100.000000,47961600.000000 54800100.000000,47961600.000000 54761219.000000,47953866.000000 54728258.000000,47931842.000000 54706234.000000,47898881.000000 54698500.000000,47860000.000000 Z"/> 
<svg:path style="fill:#000000; fill-opacity:1.0;  stroke:#000000; stroke-width:1.000000; stroke-opacity:1;  stroke-linecap:round; stroke-linejoin:round;fill-rule:evenodd;" d="M 54698500.000000,45790000.000000 54706234.000000,45751119.000000 54728258.000000,45718158.000000 54761219.000000,45696134.000000 54800100.000000,45688400.000000 56800100.000000,45688400.000000 56838981.000000,45696134.000000 56871942.000000,45718158.000000 56893966.000000,45751119.000000 56901700.000000,45790000.000000 56901700.000000,46590000.000000 56893966.000000,46628881.000000 56871942.000000,46661842.000000 56838981.000000,46683866.000000 56800100.000000,46691600.000000 54800100.000000,46691600.000000 54761219.000000,46683866.000000 54728258.000000,46661842.000000 54706234.000000,46628881.000000 54698500.000000,46590000.000000 Z"/> 
<svg:path style="fill:#000000; fill-opacity:1.0;  stroke:#000000; stroke-width:1.000000; stroke-opacity:1;  stroke-linecap:round; stroke-linejoin:round;fill-rule:evenodd;" d="M 53308400.000000,43199900.000000 53316134.000000,43161019.000000 53338158.000000,43128058.000000 53371119.000000,43106034.000000 53410000.000000,43098300.000000 54210000.000000,43098300.000000 54248881.000000,43106034.000000 54281842.000000,43128058.000000 54303866.000000,43161019.000000 54311600.000000,43199900.000000 54311600.000000,45199900.000000 54303866.000000,45238781.000000 54281842.000000,45271742.000000 54248881.000000,45293766.000000 54210000.000000,45301500.000000 53410000.000000,45301500.000000 53371119.000000,45293766.000000 53338158.000000,45271742.000000 53316134.000000,45238781.000000 53308400.000000,45199900.000000 Z"/> 
<svg:path style="fill:#000000; fill-opacity:1.0;  stroke:#000000; stroke-width:1.000000; stroke-opacity:1;  stroke-linecap:round; stroke-linejoin:round;fill-rule:evenodd;" d="M 52038400.000000,43199900.000000 52046134.000000,43161019.000000 52068158.000000,43128058.000000 52101119.000000,43106034.000000 52140000.000000,43098300.000000 52940000.000000,43098300.000000 52978881.000000,43106034.000000 53011842.000000,43128058.000000 53033866.000000,43161019.000000 53041600.000000,43199900.000000 53041600.000000,45199900.000000 53033866.000000,45238781.000000 53011842.000000,45271742.000000 52978881.000000,45293766.000000 52940000.000000,45301500.000000 52140000.000000,45301500.000000 52101119.000000,45293766.000000 52068158.000000,45271742.000000 52046134.000000,45238781.000000 52038400.000000,45199900.000000 Z"/> 
<svg:path style="fill:#000000; fill-opacity:1.0;  stroke:#000000; stroke-width:1.000000; stroke-opacity:1;  stroke-linecap:round; stroke-linejoin:round;fill-rule:evenodd;" d="M 50768400.000000,43199900.000000 50776134.000000,43161019.000000 50798158.000000,43128058.000000 50831119.000000,43106034.000000 50870000.000000,43098300.000000 51670000.000000,43098300.000000 51708881.000000,43106034.000000 51741842.000000,43128058.000000 51763866.000000,43161019.000000 51771600.000000,43199900.000000 51771600.000000,45199900.000000 51763866.000000,45238781.000000 51741842.000000,45271742.000000 51708881.000000,45293766.000000 51670000.000000,45301500.000000 50870000.000000,45301500.000000 50831119.000000,45293766.000000 50798158.000000,45271742.000000 50776134.000000,45238781.000000 50768400.000000,45199900.000000 Z"/> 
</svg:g>
<svg:g>
</svg:g>
<svg:g>
</svg:g>
<svg:g>
</svg:g>
</svg:g>
<svg:g style="fill:#000000; fill-opacity:1.0;  stroke:#000000; stroke-width:1.000000; stroke-opacity:1;  stroke-linecap:round; stroke-linejoin:round;">
<svg:g>
</svg:g>
<svg:g>
</svg:g>
<svg:g>
</svg:g>
<svg:g>
</svg:g>
</svg:g> 
</svg:g><svg:g><svg:title>SVG Picture created as kicadBoard-F_Paste.svg date 2022/12/02 18:11:47 </svg:title>
  <svg:desc>Picture generated by PCBNEW </svg:desc>
<svg:g style="fill:#000000; fill-opacity:1.000000;stroke:#000000; stroke-opacity:1.000000; stroke-linecap:round; stroke-linejoin:round;" transform="translate(0 0) scale(1 1)">
</svg:g>
<svg:g style="fill:#000000; fill-opacity:0.0;  stroke:#000000; stroke-width:0.000000; stroke-opacity:1;  stroke-linecap:round; stroke-linejoin:round;">
<svg:g>
</svg:g>
<svg:g style="fill:#000000; fill-opacity:0.0;  stroke:#000000; stroke-width:1.000000; stroke-opacity:1;  stroke-linecap:round; stroke-linejoin:round;">
</svg:g>
<svg:g style="fill:#000000; fill-opacity:1.0;  stroke:#000000; stroke-width:1.000000; stroke-opacity:1;  stroke-linecap:round; stroke-linejoin:round;">
<svg:path style="fill:#000000; fill-opacity:1.0;  stroke:#000000; stroke-width:1.000000; stroke-opacity:1;  stroke-linecap:round; stroke-linejoin:round;fill-rule:evenodd;" d="M 49600001.000000,46599899.000000 49600001.000000,43199901.000000 50399999.000000,43199901.000000 50399999.000000,46599899.000000 Z"/> 
<svg:path style="fill:#000000; fill-opacity:1.0;  stroke:#000000; stroke-width:1.000000; stroke-opacity:1;  stroke-linecap:round; stroke-linejoin:round;fill-rule:evenodd;" d="M 48330001.000000,45199899.000000 48330001.000000,43199901.000000 49129999.000000,43199901.000000 49129999.000000,45199899.000000 Z"/> 
<svg:path style="fill:#000000; fill-opacity:1.0;  stroke:#000000; stroke-width:1.000000; stroke-opacity:1;  stroke-linecap:round; stroke-linejoin:round;fill-rule:evenodd;" d="M 47060001.000000,45199899.000000 47060001.000000,43199901.000000 47859999.000000,43199901.000000 47859999.000000,45199899.000000 Z"/> 
<svg:path style="fill:#000000; fill-opacity:1.0;  stroke:#000000; stroke-width:1.000000; stroke-opacity:1;  stroke-linecap:round; stroke-linejoin:round;fill-rule:evenodd;" d="M 45790001.000000,45199899.000000 45790001.000000,43199901.000000 46589999.000000,43199901.000000 46589999.000000,45199899.000000 Z"/> 
<svg:path style="fill:#000000; fill-opacity:1.0;  stroke:#000000; stroke-width:1.000000; stroke-opacity:1;  stroke-linecap:round; stroke-linejoin:round;fill-rule:evenodd;" d="M 43199901.000000,46589999.000000 43199901.000000,45790001.000000 45199899.000000,45790001.000000 45199899.000000,46589999.000000 Z"/> 
<svg:path style="fill:#000000; fill-opacity:1.0;  stroke:#000000; stroke-width:1.000000; stroke-opacity:1;  stroke-linecap:round; stroke-linejoin:round;fill-rule:evenodd;" d="M 43199901.000000,47859999.000000 43199901.000000,47060001.000000 45199899.000000,47060001.000000 45199899.000000,47859999.000000 Z"/> 
<svg:path style="fill:#000000; fill-opacity:1.0;  stroke:#000000; stroke-width:1.000000; stroke-opacity:1;  stroke-linecap:round; stroke-linejoin:round;fill-rule:evenodd;" d="M 43199901.000000,49129999.000000 43199901.000000,48330001.000000 45199899.000000,48330001.000000 45199899.000000,49129999.000000 Z"/> 
<svg:path style="fill:#000000; fill-opacity:1.0;  stroke:#000000; stroke-width:1.000000; stroke-opacity:1;  stroke-linecap:round; stroke-linejoin:round;fill-rule:evenodd;" d="M 43199901.000000,50399999.000000 43199901.000000,49600001.000000 45199899.000000,49600001.000000 45199899.000000,50399999.000000 Z"/> 
<svg:path style="fill:#000000; fill-opacity:1.0;  stroke:#000000; stroke-width:1.000000; stroke-opacity:1;  stroke-linecap:round; stroke-linejoin:round;fill-rule:evenodd;" d="M 43199901.000000,51669999.000000 43199901.000000,50870001.000000 45199899.000000,50870001.000000 45199899.000000,51669999.000000 Z"/> 
<svg:path style="fill:#000000; fill-opacity:1.0;  stroke:#000000; stroke-width:1.000000; stroke-opacity:1;  stroke-linecap:round; stroke-linejoin:round;fill-rule:evenodd;" d="M 43199901.000000,52939999.000000 43199901.000000,52140001.000000 45199899.000000,52140001.000000 45199899.000000,52939999.000000 Z"/> 
<svg:path style="fill:#000000; fill-opacity:1.0;  stroke:#000000; stroke-width:1.000000; stroke-opacity:1;  stroke-linecap:round; stroke-linejoin:round;fill-rule:evenodd;" d="M 43199901.000000,54209999.000000 43199901.000000,53410001.000000 45199899.000000,53410001.000000 45199899.000000,54209999.000000 Z"/> 
<svg:path style="fill:#000000; fill-opacity:1.0;  stroke:#000000; stroke-width:1.000000; stroke-opacity:1;  stroke-linecap:round; stroke-linejoin:round;fill-rule:evenodd;" d="M 45790001.000000,56800099.000000 45790001.000000,54800101.000000 46589999.000000,54800101.000000 46589999.000000,56800099.000000 Z"/> 
<svg:path style="fill:#000000; fill-opacity:1.0;  stroke:#000000; stroke-width:1.000000; stroke-opacity:1;  stroke-linecap:round; stroke-linejoin:round;fill-rule:evenodd;" d="M 47060001.000000,56800099.000000 47060001.000000,54800101.000000 47859999.000000,54800101.000000 47859999.000000,56800099.000000 Z"/> 
<svg:path style="fill:#000000; fill-opacity:1.0;  stroke:#000000; stroke-width:1.000000; stroke-opacity:1;  stroke-linecap:round; stroke-linejoin:round;fill-rule:evenodd;" d="M 48330001.000000,56800099.000000 48330001.000000,54800101.000000 49129999.000000,54800101.000000 49129999.000000,56800099.000000 Z"/> 
<svg:path style="fill:#000000; fill-opacity:1.0;  stroke:#000000; stroke-width:1.000000; stroke-opacity:1;  stroke-linecap:round; stroke-linejoin:round;fill-rule:evenodd;" d="M 49600001.000000,56800099.000000 49600001.000000,54800101.000000 50399999.000000,54800101.000000 50399999.000000,56800099.000000 Z"/> 
<svg:path style="fill:#000000; fill-opacity:1.0;  stroke:#000000; stroke-width:1.000000; stroke-opacity:1;  stroke-linecap:round; stroke-linejoin:round;fill-rule:evenodd;" d="M 50870001.000000,56800099.000000 50870001.000000,54800101.000000 51669999.000000,54800101.000000 51669999.000000,56800099.000000 Z"/> 
<svg:path style="fill:#000000; fill-opacity:1.0;  stroke:#000000; stroke-width:1.000000; stroke-opacity:1;  stroke-linecap:round; stroke-linejoin:round;fill-rule:evenodd;" d="M 52140001.000000,56800099.000000 52140001.000000,54800101.000000 52939999.000000,54800101.000000 52939999.000000,56800099.000000 Z"/> 
<svg:path style="fill:#000000; fill-opacity:1.0;  stroke:#000000; stroke-width:1.000000; stroke-opacity:1;  stroke-linecap:round; stroke-linejoin:round;fill-rule:evenodd;" d="M 53410001.000000,56800099.000000 53410001.000000,54800101.000000 54209999.000000,54800101.000000 54209999.000000,56800099.000000 Z"/> 
<svg:path style="fill:#000000; fill-opacity:1.0;  stroke:#000000; stroke-width:1.000000; stroke-opacity:1;  stroke-linecap:round; stroke-linejoin:round;fill-rule:evenodd;" d="M 54800101.000000,54209999.000000 54800101.000000,53410001.000000 56800099.000000,53410001.000000 56800099.000000,54209999.000000 Z"/> 
<svg:path style="fill:#000000; fill-opacity:1.0;  stroke:#000000; stroke-width:1.000000; stroke-opacity:1;  stroke-linecap:round; stroke-linejoin:round;fill-rule:evenodd;" d="M 54800101.000000,52939999.000000 54800101.000000,52140001.000000 56800099.000000,52140001.000000 56800099.000000,52939999.000000 Z"/> 
<svg:path style="fill:#000000; fill-opacity:1.0;  stroke:#000000; stroke-width:1.000000; stroke-opacity:1;  stroke-linecap:round; stroke-linejoin:round;fill-rule:evenodd;" d="M 54800101.000000,51669999.000000 54800101.000000,50870001.000000 56800099.000000,50870001.000000 56800099.000000,51669999.000000 Z"/> 
<svg:path style="fill:#000000; fill-opacity:1.0;  stroke:#000000; stroke-width:1.000000; stroke-opacity:1;  stroke-linecap:round; stroke-linejoin:round;fill-rule:evenodd;" d="M 54800101.000000,50399999.000000 54800101.000000,49600001.000000 56800099.000000,49600001.000000 56800099.000000,50399999.000000 Z"/> 
<svg:path style="fill:#000000; fill-opacity:1.0;  stroke:#000000; stroke-width:1.000000; stroke-opacity:1;  stroke-linecap:round; stroke-linejoin:round;fill-rule:evenodd;" d="M 54800101.000000,49129999.000000 54800101.000000,48330001.000000 56800099.000000,48330001.000000 56800099.000000,49129999.000000 Z"/> 
<svg:path style="fill:#000000; fill-opacity:1.0;  stroke:#000000; stroke-width:1.000000; stroke-opacity:1;  stroke-linecap:round; stroke-linejoin:round;fill-rule:evenodd;" d="M 54800101.000000,47859999.000000 54800101.000000,47060001.000000 56800099.000000,47060001.000000 56800099.000000,47859999.000000 Z"/> 
<svg:path style="fill:#000000; fill-opacity:1.0;  stroke:#000000; stroke-width:1.000000; stroke-opacity:1;  stroke-linecap:round; stroke-linejoin:round;fill-rule:evenodd;" d="M 54800101.000000,46589999.000000 54800101.000000,45790001.000000 56800099.000000,45790001.000000 56800099.000000,46589999.000000 Z"/> 
<svg:path style="fill:#000000; fill-opacity:1.0;  stroke:#000000; stroke-width:1.000000; stroke-opacity:1;  stroke-linecap:round; stroke-linejoin:round;fill-rule:evenodd;" d="M 53410001.000000,45199899.000000 53410001.000000,43199901.000000 54209999.000000,43199901.000000 54209999.000000,45199899.000000 Z"/> 
<svg:path style="fill:#000000; fill-opacity:1.0;  stroke:#000000; stroke-width:1.000000; stroke-opacity:1;  stroke-linecap:round; stroke-linejoin:round;fill-rule:evenodd;" d="M 52140001.000000,45199899.000000 52140001.000000,43199901.000000 52939999.000000,43199901.000000 52939999.000000,45199899.000000 Z"/> 
<svg:path style="fill:#000000; fill-opacity:1.0;  stroke:#000000; stroke-width:1.000000; stroke-opacity:1;  stroke-linecap:round; stroke-linejoin:round;fill-rule:evenodd;" d="M 50870001.000000,45199899.000000 50870001.000000,43199901.000000 51669999.000000,43199901.000000 51669999.000000,45199899.000000 Z"/> 
</svg:g>
<svg:g>
</svg:g>
<svg:g>
</svg:g>
<svg:g>
</svg:g>
</svg:g>
<svg:g style="fill:#000000; fill-opacity:1.0;  stroke:#000000; stroke-width:1.000000; stroke-opacity:1;  stroke-linecap:round; stroke-linejoin:round;">
<svg:g>
</svg:g>
<svg:g>
</svg:g>
<svg:g>
</svg:g>
<svg:g>
</svg:g>
</svg:g> 
</svg:g><svg:g><svg:title>SVG Picture created as kicadBoard-F_Silkscreen.svg date 2022/12/02 18:11:47 </svg:title>
  <svg:desc>Picture generated by PCBNEW </svg:desc>
<svg:g style="fill:#000000; fill-opacity:1.000000;stroke:#000000; stroke-opacity:1.000000; stroke-linecap:round; stroke-linejoin:round;" transform="translate(0 0) scale(1 1)">
</svg:g>
<svg:g style="fill:#000000; fill-opacity:0.0;  stroke:#000000; stroke-width:0.000000; stroke-opacity:1;  stroke-linecap:round; stroke-linejoin:round;">
</svg:g>
<svg:g style="fill:#F2EDA1; fill-opacity:0.0;  stroke:#F2EDA1; stroke-width:0.000000; stroke-opacity:1;  stroke-linecap:round; stroke-linejoin:round;">
</svg:g>
<svg:g style="fill:#F2EDA1; fill-opacity:0.0;  stroke:#F2EDA1; stroke-width:142240.000000; stroke-opacity:1;  stroke-linecap:round; stroke-linejoin:round;">
<svg:text x="45994900.000000" y="42665000.000000" textLength="16824961.000000" font-size="2181013.000000" lengthAdjust="spacingAndGlyphs" text-anchor="start" opacity="0">FZE4XXLCC28</svg:text>
<svg:g class="stroked-text"><svg:desc>FZE4XXLCC28</svg:desc>
<svg:path d="M47022076 41730280 L46476822 41730280 "/>
<svg:path d="M46476822 42587106 L46476822 40951346 L47255756 40951346 "/>
<svg:path d="M47723116 40951346 L48813622 40951346 L47723116 42587106 L48813622 42587106 "/>
<svg:path d="M49436769 41730280 L49982022 41730280 "/>
<svg:path d="M50215702 42587106 L49436769 42587106 L49436769 40951346 L50215702 40951346 "/>
<svg:path d="M51617782 41496600 L51617782 42587106 "/>
<svg:path d="M51228316 40873453 L50838849 42041853 L51851462 42041853 "/>
<svg:path d="M52318822 40951346 L53409329 42587106 "/>
<svg:path d="M53409329 40951346 L52318822 42587106 "/>
<svg:path d="M53876689 40951346 L54967196 42587106 "/>
<svg:path d="M54967196 40951346 L53876689 42587106 "/>
<svg:path d="M56369276 42587106 L55590342 42587106 L55590342 40951346 "/>
<svg:path d="M57849249 42431320 L57771356 42509213 L57537676 42587106 L57381889 42587106 L57148209 42509213 L56992422 42353426 L56914529 42197640 L56836636 41886066 L56836636 41652386 L56914529 41340813 L56992422 41185026 L57148209 41029240 L57381889 40951346 L57537676 40951346 L57771356 41029240 L57849249 41107133 "/>
<svg:path d="M59485009 42431320 L59407116 42509213 L59173436 42587106 L59017649 42587106 L58783969 42509213 L58628182 42353426 L58550289 42197640 L58472396 41886066 L58472396 41652386 L58550289 41340813 L58628182 41185026 L58783969 41029240 L59017649 40951346 L59173436 40951346 L59407116 41029240 L59485009 41107133 "/>
<svg:path d="M60108156 41107133 L60186049 41029240 L60341836 40951346 L60731302 40951346 L60887089 41029240 L60964982 41107133 L61042876 41262920 L61042876 41418706 L60964982 41652386 L60030262 42587106 L61042876 42587106 "/>
<svg:path d="M61977596 41652386 L61821809 41574493 L61743916 41496600 L61666022 41340813 L61666022 41262920 L61743916 41107133 L61821809 41029240 L61977596 40951346 L62289169 40951346 L62444956 41029240 L62522849 41107133 L62600742 41262920 L62600742 41340813 L62522849 41496600 L62444956 41574493 L62289169 41652386 L61977596 41652386 L61821809 41730280 L61743916 41808173 L61666022 41963960 L61666022 42275533 L61743916 42431320 L61821809 42509213 L61977596 42587106 L62289169 42587106 L62444956 42509213 L62522849 42431320 L62600742 42275533 L62600742 41963960 L62522849 41808173 L62444956 41730280 L62289169 41652386 "/>
</svg:g><svg:g>
</svg:g>
<svg:g>
</svg:g>
<svg:g>
</svg:g>
<svg:g>
</svg:g>
</svg:g>
<svg:g style="fill:#000000; fill-opacity:0.0;  stroke:#000000; stroke-width:142240.000000; stroke-opacity:1;  stroke-linecap:round; stroke-linejoin:round;">
<svg:g>
</svg:g>
<svg:g>
</svg:g>
<svg:g>
</svg:g>
<svg:g>
</svg:g>
</svg:g> 
</svg:g><svg:g><svg:title>SVG Picture created as kicadBoard-Margin.svg date 2022/12/02 18:11:47 </svg:title>
  <svg:desc>Picture generated by PCBNEW </svg:desc>
<svg:g style="fill:#000000; fill-opacity:1.000000;stroke:#000000; stroke-opacity:1.000000; stroke-linecap:round; stroke-linejoin:round;" transform="translate(0 0) scale(1 1)">
</svg:g>
<svg:g style="fill:#000000; fill-opacity:0.0;  stroke:#000000; stroke-width:0.000000; stroke-opacity:1;  stroke-linecap:round; stroke-linejoin:round;">
<svg:g>
</svg:g>
<svg:g>
</svg:g>
<svg:g>
</svg:g>
<svg:g>
</svg:g>
</svg:g>
<svg:g style="fill:#000000; fill-opacity:0.0;  stroke:#000000; stroke-width:0.000000; stroke-opacity:1;  stroke-linecap:round; stroke-linejoin:round;">
<svg:g>
</svg:g>
<svg:g>
</svg:g>
<svg:g>
</svg:g>
<svg:g>
</svg:g>
</svg:g> 
</svg:g><svg:g><svg:title>SVG Picture created as kicadBoard-F_Cu.svg date 2022/12/02 18:11:47 </svg:title>
  <svg:desc>Picture generated by PCBNEW </svg:desc>
<svg:g style="fill:#000000; fill-opacity:1.000000;stroke:#000000; stroke-opacity:1.000000; stroke-linecap:round; stroke-linejoin:round;" transform="translate(0 0) scale(1 1)">
</svg:g>
<svg:g style="fill:#000000; fill-opacity:0.0;  stroke:#000000; stroke-width:0.000000; stroke-opacity:1;  stroke-linecap:round; stroke-linejoin:round;">
<svg:g>
</svg:g>
<svg:g style="fill:#C83434; fill-opacity:0.0;  stroke:#C83434; stroke-width:0.000000; stroke-opacity:1;  stroke-linecap:round; stroke-linejoin:round;">
</svg:g>
<svg:g style="fill:#C83434; fill-opacity:0.0;  stroke:#C83434; stroke-width:1.000000; stroke-opacity:1;  stroke-linecap:round; stroke-linejoin:round;">
</svg:g>
<svg:g style="fill:#C83434; fill-opacity:1.0;  stroke:#C83434; stroke-width:1.000000; stroke-opacity:1;  stroke-linecap:round; stroke-linejoin:round;">
<svg:path style="fill:#C83434; fill-opacity:1.0;  stroke:#C83434; stroke-width:1.000000; stroke-opacity:1;  stroke-linecap:round; stroke-linejoin:round;fill-rule:evenodd;" d="M 49600001.000000,46599899.000000 49600001.000000,43199901.000000 50399999.000000,43199901.000000 50399999.000000,46599899.000000 Z"/> 
<svg:path style="fill:#C83434; fill-opacity:1.0;  stroke:#C83434; stroke-width:1.000000; stroke-opacity:1;  stroke-linecap:round; stroke-linejoin:round;fill-rule:evenodd;" d="M 48330001.000000,45199899.000000 48330001.000000,43199901.000000 49129999.000000,43199901.000000 49129999.000000,45199899.000000 Z"/> 
<svg:path style="fill:#C83434; fill-opacity:1.0;  stroke:#C83434; stroke-width:1.000000; stroke-opacity:1;  stroke-linecap:round; stroke-linejoin:round;fill-rule:evenodd;" d="M 47060001.000000,45199899.000000 47060001.000000,43199901.000000 47859999.000000,43199901.000000 47859999.000000,45199899.000000 Z"/> 
<svg:path style="fill:#C83434; fill-opacity:1.0;  stroke:#C83434; stroke-width:1.000000; stroke-opacity:1;  stroke-linecap:round; stroke-linejoin:round;fill-rule:evenodd;" d="M 45790001.000000,45199899.000000 45790001.000000,43199901.000000 46589999.000000,43199901.000000 46589999.000000,45199899.000000 Z"/> 
<svg:path style="fill:#C83434; fill-opacity:1.0;  stroke:#C83434; stroke-width:1.000000; stroke-opacity:1;  stroke-linecap:round; stroke-linejoin:round;fill-rule:evenodd;" d="M 43199901.000000,46589999.000000 43199901.000000,45790001.000000 45199899.000000,45790001.000000 45199899.000000,46589999.000000 Z"/> 
<svg:path style="fill:#C83434; fill-opacity:1.0;  stroke:#C83434; stroke-width:1.000000; stroke-opacity:1;  stroke-linecap:round; stroke-linejoin:round;fill-rule:evenodd;" d="M 43199901.000000,47859999.000000 43199901.000000,47060001.000000 45199899.000000,47060001.000000 45199899.000000,47859999.000000 Z"/> 
<svg:path style="fill:#C83434; fill-opacity:1.0;  stroke:#C83434; stroke-width:1.000000; stroke-opacity:1;  stroke-linecap:round; stroke-linejoin:round;fill-rule:evenodd;" d="M 43199901.000000,49129999.000000 43199901.000000,48330001.000000 45199899.000000,48330001.000000 45199899.000000,49129999.000000 Z"/> 
<svg:path style="fill:#C83434; fill-opacity:1.0;  stroke:#C83434; stroke-width:1.000000; stroke-opacity:1;  stroke-linecap:round; stroke-linejoin:round;fill-rule:evenodd;" d="M 43199901.000000,50399999.000000 43199901.000000,49600001.000000 45199899.000000,49600001.000000 45199899.000000,50399999.000000 Z"/> 
<svg:path style="fill:#C83434; fill-opacity:1.0;  stroke:#C83434; stroke-width:1.000000; stroke-opacity:1;  stroke-linecap:round; stroke-linejoin:round;fill-rule:evenodd;" d="M 43199901.000000,51669999.000000 43199901.000000,50870001.000000 45199899.000000,50870001.000000 45199899.000000,51669999.000000 Z"/> 
<svg:path style="fill:#C83434; fill-opacity:1.0;  stroke:#C83434; stroke-width:1.000000; stroke-opacity:1;  stroke-linecap:round; stroke-linejoin:round;fill-rule:evenodd;" d="M 43199901.000000,52939999.000000 43199901.000000,52140001.000000 45199899.000000,52140001.000000 45199899.000000,52939999.000000 Z"/> 
<svg:path style="fill:#C83434; fill-opacity:1.0;  stroke:#C83434; stroke-width:1.000000; stroke-opacity:1;  stroke-linecap:round; stroke-linejoin:round;fill-rule:evenodd;" d="M 43199901.000000,54209999.000000 43199901.000000,53410001.000000 45199899.000000,53410001.000000 45199899.000000,54209999.000000 Z"/> 
<svg:path style="fill:#C83434; fill-opacity:1.0;  stroke:#C83434; stroke-width:1.000000; stroke-opacity:1;  stroke-linecap:round; stroke-linejoin:round;fill-rule:evenodd;" d="M 45790001.000000,56800099.000000 45790001.000000,54800101.000000 46589999.000000,54800101.000000 46589999.000000,56800099.000000 Z"/> 
<svg:path style="fill:#C83434; fill-opacity:1.0;  stroke:#C83434; stroke-width:1.000000; stroke-opacity:1;  stroke-linecap:round; stroke-linejoin:round;fill-rule:evenodd;" d="M 47060001.000000,56800099.000000 47060001.000000,54800101.000000 47859999.000000,54800101.000000 47859999.000000,56800099.000000 Z"/> 
<svg:path style="fill:#C83434; fill-opacity:1.0;  stroke:#C83434; stroke-width:1.000000; stroke-opacity:1;  stroke-linecap:round; stroke-linejoin:round;fill-rule:evenodd;" d="M 48330001.000000,56800099.000000 48330001.000000,54800101.000000 49129999.000000,54800101.000000 49129999.000000,56800099.000000 Z"/> 
<svg:path style="fill:#C83434; fill-opacity:1.0;  stroke:#C83434; stroke-width:1.000000; stroke-opacity:1;  stroke-linecap:round; stroke-linejoin:round;fill-rule:evenodd;" d="M 49600001.000000,56800099.000000 49600001.000000,54800101.000000 50399999.000000,54800101.000000 50399999.000000,56800099.000000 Z"/> 
<svg:path style="fill:#C83434; fill-opacity:1.0;  stroke:#C83434; stroke-width:1.000000; stroke-opacity:1;  stroke-linecap:round; stroke-linejoin:round;fill-rule:evenodd;" d="M 50870001.000000,56800099.000000 50870001.000000,54800101.000000 51669999.000000,54800101.000000 51669999.000000,56800099.000000 Z"/> 
<svg:path style="fill:#C83434; fill-opacity:1.0;  stroke:#C83434; stroke-width:1.000000; stroke-opacity:1;  stroke-linecap:round; stroke-linejoin:round;fill-rule:evenodd;" d="M 52140001.000000,56800099.000000 52140001.000000,54800101.000000 52939999.000000,54800101.000000 52939999.000000,56800099.000000 Z"/> 
<svg:path style="fill:#C83434; fill-opacity:1.0;  stroke:#C83434; stroke-width:1.000000; stroke-opacity:1;  stroke-linecap:round; stroke-linejoin:round;fill-rule:evenodd;" d="M 53410001.000000,56800099.000000 53410001.000000,54800101.000000 54209999.000000,54800101.000000 54209999.000000,56800099.000000 Z"/> 
<svg:path style="fill:#C83434; fill-opacity:1.0;  stroke:#C83434; stroke-width:1.000000; stroke-opacity:1;  stroke-linecap:round; stroke-linejoin:round;fill-rule:evenodd;" d="M 54800101.000000,54209999.000000 54800101.000000,53410001.000000 56800099.000000,53410001.000000 56800099.000000,54209999.000000 Z"/> 
<svg:path style="fill:#C83434; fill-opacity:1.0;  stroke:#C83434; stroke-width:1.000000; stroke-opacity:1;  stroke-linecap:round; stroke-linejoin:round;fill-rule:evenodd;" d="M 54800101.000000,52939999.000000 54800101.000000,52140001.000000 56800099.000000,52140001.000000 56800099.000000,52939999.000000 Z"/> 
<svg:path style="fill:#C83434; fill-opacity:1.0;  stroke:#C83434; stroke-width:1.000000; stroke-opacity:1;  stroke-linecap:round; stroke-linejoin:round;fill-rule:evenodd;" d="M 54800101.000000,51669999.000000 54800101.000000,50870001.000000 56800099.000000,50870001.000000 56800099.000000,51669999.000000 Z"/> 
<svg:path style="fill:#C83434; fill-opacity:1.0;  stroke:#C83434; stroke-width:1.000000; stroke-opacity:1;  stroke-linecap:round; stroke-linejoin:round;fill-rule:evenodd;" d="M 54800101.000000,50399999.000000 54800101.000000,49600001.000000 56800099.000000,49600001.000000 56800099.000000,50399999.000000 Z"/> 
<svg:path style="fill:#C83434; fill-opacity:1.0;  stroke:#C83434; stroke-width:1.000000; stroke-opacity:1;  stroke-linecap:round; stroke-linejoin:round;fill-rule:evenodd;" d="M 54800101.000000,49129999.000000 54800101.000000,48330001.000000 56800099.000000,48330001.000000 56800099.000000,49129999.000000 Z"/> 
<svg:path style="fill:#C83434; fill-opacity:1.0;  stroke:#C83434; stroke-width:1.000000; stroke-opacity:1;  stroke-linecap:round; stroke-linejoin:round;fill-rule:evenodd;" d="M 54800101.000000,47859999.000000 54800101.000000,47060001.000000 56800099.000000,47060001.000000 56800099.000000,47859999.000000 Z"/> 
<svg:path style="fill:#C83434; fill-opacity:1.0;  stroke:#C83434; stroke-width:1.000000; stroke-opacity:1;  stroke-linecap:round; stroke-linejoin:round;fill-rule:evenodd;" d="M 54800101.000000,46589999.000000 54800101.000000,45790001.000000 56800099.000000,45790001.000000 56800099.000000,46589999.000000 Z"/> 
<svg:path style="fill:#C83434; fill-opacity:1.0;  stroke:#C83434; stroke-width:1.000000; stroke-opacity:1;  stroke-linecap:round; stroke-linejoin:round;fill-rule:evenodd;" d="M 53410001.000000,45199899.000000 53410001.000000,43199901.000000 54209999.000000,43199901.000000 54209999.000000,45199899.000000 Z"/> 
<svg:path style="fill:#C83434; fill-opacity:1.0;  stroke:#C83434; stroke-width:1.000000; stroke-opacity:1;  stroke-linecap:round; stroke-linejoin:round;fill-rule:evenodd;" d="M 52140001.000000,45199899.000000 52140001.000000,43199901.000000 52939999.000000,43199901.000000 52939999.000000,45199899.000000 Z"/> 
<svg:path style="fill:#C83434; fill-opacity:1.0;  stroke:#C83434; stroke-width:1.000000; stroke-opacity:1;  stroke-linecap:round; stroke-linejoin:round;fill-rule:evenodd;" d="M 50870001.000000,45199899.000000 50870001.000000,43199901.000000 51669999.000000,43199901.000000 51669999.000000,45199899.000000 Z"/> 
</svg:g>
<svg:g>
</svg:g>
<svg:g>
</svg:g>
<svg:g>
</svg:g>
</svg:g>
<svg:g style="fill:#FFFFFF; fill-opacity:1.0;  stroke:#FFFFFF; stroke-width:1.000000; stroke-opacity:1;  stroke-linecap:round; stroke-linejoin:round;">
</svg:g>
<svg:g style="fill:#000000; fill-opacity:1.0;  stroke:#000000; stroke-width:1.000000; stroke-opacity:1;  stroke-linecap:round; stroke-linejoin:round;">
<svg:g>
</svg:g>
<svg:g>
</svg:g>
<svg:g>
</svg:g>
<svg:g>
</svg:g>
</svg:g> 
</svg:g></svg>
