<?xml version='1.0' encoding='ASCII' standalone='yes'?>
<svg xmlns:svg="http://www.w3.org/2000/svg" xmlns="http://www.w3.org/2000/svg" xmlns:xlink="http://www.w3.org/1999/xlink" version="1.1" width="9.999980cm" height="9.999980cm" viewBox="0 0 99999800 99999800">
<title>SVG Picture created as kicadBoard-B_Cu.svg date 2022/11/18 04:09:24 </title>
  <desc>Picture generated by PCBNEW </desc>
<g style="fill:#000000; fill-opacity:1.000000;stroke:#000000; stroke-opacity:1.000000; stroke-linecap:round; stroke-linejoin:round;" transform="translate(0 0) scale(1 1)">
</g>
<g style="fill:#000000; fill-opacity:0.0;  stroke:#000000; stroke-width:0.000000; stroke-opacity:1;  stroke-linecap:round; stroke-linejoin:round;">
<g>
</g>
<g>
</g>
<g>
</g>
<g>
</g>
</g>
<g style="fill:#FFFFFF; fill-opacity:0.0;  stroke:#FFFFFF; stroke-width:0.000000; stroke-opacity:1;  stroke-linecap:round; stroke-linejoin:round;">
</g>
<g style="fill:#000000; fill-opacity:0.0;  stroke:#000000; stroke-width:0.000000; stroke-opacity:1;  stroke-linecap:round; stroke-linejoin:round;">
<g>
</g>
<g>
</g>
<g>
</g>
<g>
</g>
</g> 
<svg:g><svg:title>SVG Picture created as kicadBoard-B_Adhesive.svg date 2022/11/18 04:09:24 </svg:title>
  <svg:desc>Picture generated by PCBNEW </svg:desc>
<svg:g style="fill:#000000; fill-opacity:1.000000;stroke:#000000; stroke-opacity:1.000000; stroke-linecap:round; stroke-linejoin:round;" transform="translate(0 0) scale(1 1)">
</svg:g>
<svg:g style="fill:#000000; fill-opacity:0.0;  stroke:#000000; stroke-width:0.000000; stroke-opacity:1;  stroke-linecap:round; stroke-linejoin:round;">
<svg:g>
</svg:g>
<svg:g>
</svg:g>
<svg:g>
</svg:g>
<svg:g>
</svg:g>
</svg:g>
<svg:g style="fill:#000000; fill-opacity:0.0;  stroke:#000000; stroke-width:0.000000; stroke-opacity:1;  stroke-linecap:round; stroke-linejoin:round;">
<svg:g>
</svg:g>
<svg:g>
</svg:g>
<svg:g>
</svg:g>
<svg:g>
</svg:g>
</svg:g> 
</svg:g><svg:g><svg:title>SVG Picture created as kicadBoard-B_Courtyard.svg date 2022/11/18 04:09:24 </svg:title>
  <svg:desc>Picture generated by PCBNEW </svg:desc>
<svg:g style="fill:#000000; fill-opacity:1.000000;stroke:#000000; stroke-opacity:1.000000; stroke-linecap:round; stroke-linejoin:round;" transform="translate(0 0) scale(1 1)">
</svg:g>
<svg:g style="fill:#000000; fill-opacity:0.0;  stroke:#000000; stroke-width:0.000000; stroke-opacity:1;  stroke-linecap:round; stroke-linejoin:round;">
<svg:g>
</svg:g>
<svg:g>
</svg:g>
<svg:g>
</svg:g>
<svg:g>
</svg:g>
</svg:g>
<svg:g style="fill:#000000; fill-opacity:0.0;  stroke:#000000; stroke-width:0.000000; stroke-opacity:1;  stroke-linecap:round; stroke-linejoin:round;">
<svg:g>
</svg:g>
<svg:g>
</svg:g>
<svg:g>
</svg:g>
<svg:g>
</svg:g>
</svg:g> 
</svg:g><svg:g><svg:title>SVG Picture created as kicadBoard-B_Fab.svg date 2022/11/18 04:09:24 </svg:title>
  <svg:desc>Picture generated by PCBNEW </svg:desc>
<svg:g style="fill:#000000; fill-opacity:1.000000;stroke:#000000; stroke-opacity:1.000000; stroke-linecap:round; stroke-linejoin:round;" transform="translate(0 0) scale(1 1)">
</svg:g>
<svg:g style="fill:#000000; fill-opacity:0.0;  stroke:#000000; stroke-width:0.000000; stroke-opacity:1;  stroke-linecap:round; stroke-linejoin:round;">
<svg:g>
</svg:g>
<svg:g>
</svg:g>
<svg:g>
</svg:g>
<svg:g>
</svg:g>
</svg:g>
<svg:g style="fill:#000000; fill-opacity:0.0;  stroke:#000000; stroke-width:0.000000; stroke-opacity:1;  stroke-linecap:round; stroke-linejoin:round;">
<svg:g>
</svg:g>
<svg:g>
</svg:g>
<svg:g>
</svg:g>
<svg:g>
</svg:g>
</svg:g> 
</svg:g><svg:g><svg:title>SVG Picture created as kicadBoard-B_Mask.svg date 2022/11/18 04:09:24 </svg:title>
  <svg:desc>Picture generated by PCBNEW </svg:desc>
<svg:g style="fill:#000000; fill-opacity:1.000000;stroke:#000000; stroke-opacity:1.000000; stroke-linecap:round; stroke-linejoin:round;" transform="translate(0 0) scale(1 1)">
</svg:g>
<svg:g style="fill:#000000; fill-opacity:0.0;  stroke:#000000; stroke-width:0.000000; stroke-opacity:1;  stroke-linecap:round; stroke-linejoin:round;">
<svg:g>
</svg:g>
<svg:g>
</svg:g>
<svg:g>
</svg:g>
<svg:g>
</svg:g>
</svg:g>
<svg:g style="fill:#000000; fill-opacity:0.0;  stroke:#000000; stroke-width:0.000000; stroke-opacity:1;  stroke-linecap:round; stroke-linejoin:round;">
<svg:g>
</svg:g>
<svg:g>
</svg:g>
<svg:g>
</svg:g>
<svg:g>
</svg:g>
</svg:g> 
</svg:g><svg:g><svg:title>SVG Picture created as kicadBoard-B_Paste.svg date 2022/11/18 04:09:24 </svg:title>
  <svg:desc>Picture generated by PCBNEW </svg:desc>
<svg:g style="fill:#000000; fill-opacity:1.000000;stroke:#000000; stroke-opacity:1.000000; stroke-linecap:round; stroke-linejoin:round;" transform="translate(0 0) scale(1 1)">
</svg:g>
<svg:g style="fill:#000000; fill-opacity:0.0;  stroke:#000000; stroke-width:0.000000; stroke-opacity:1;  stroke-linecap:round; stroke-linejoin:round;">
<svg:g>
</svg:g>
<svg:g>
</svg:g>
<svg:g>
</svg:g>
<svg:g>
</svg:g>
</svg:g>
<svg:g style="fill:#000000; fill-opacity:0.0;  stroke:#000000; stroke-width:0.000000; stroke-opacity:1;  stroke-linecap:round; stroke-linejoin:round;">
<svg:g>
</svg:g>
<svg:g>
</svg:g>
<svg:g>
</svg:g>
<svg:g>
</svg:g>
</svg:g> 
</svg:g><svg:g><svg:title>SVG Picture created as kicadBoard-B_Silkscreen.svg date 2022/11/18 04:09:24 </svg:title>
  <svg:desc>Picture generated by PCBNEW </svg:desc>
<svg:g style="fill:#000000; fill-opacity:1.000000;stroke:#000000; stroke-opacity:1.000000; stroke-linecap:round; stroke-linejoin:round;" transform="translate(0 0) scale(1 1)">
</svg:g>
<svg:g style="fill:#000000; fill-opacity:0.0;  stroke:#000000; stroke-width:0.000000; stroke-opacity:1;  stroke-linecap:round; stroke-linejoin:round;">
<svg:g>
</svg:g>
<svg:g>
</svg:g>
<svg:g>
</svg:g>
<svg:g>
</svg:g>
</svg:g>
<svg:g style="fill:#000000; fill-opacity:0.0;  stroke:#000000; stroke-width:0.000000; stroke-opacity:1;  stroke-linecap:round; stroke-linejoin:round;">
<svg:g>
</svg:g>
<svg:g>
</svg:g>
<svg:g>
</svg:g>
<svg:g>
</svg:g>
</svg:g> 
</svg:g><svg:g><svg:title>SVG Picture created as kicadBoard-Edge_Cuts.svg date 2022/11/18 04:09:24 </svg:title>
  <svg:desc>Picture generated by PCBNEW </svg:desc>
<svg:g style="fill:#000000; fill-opacity:1.000000;stroke:#000000; stroke-opacity:1.000000; stroke-linecap:round; stroke-linejoin:round;" transform="translate(0 0) scale(1 1)">
</svg:g>
<svg:g style="fill:#000000; fill-opacity:0.0;  stroke:#000000; stroke-width:0.000000; stroke-opacity:1;  stroke-linecap:round; stroke-linejoin:round;">
<svg:g>
</svg:g>
<svg:g>
</svg:g>
<svg:g>
</svg:g>
<svg:g>
</svg:g>
</svg:g> 
</svg:g><svg:g><svg:title>SVG Picture created as kicadBoard-F_Adhesive.svg date 2022/11/18 04:09:24 </svg:title>
  <svg:desc>Picture generated by PCBNEW </svg:desc>
<svg:g style="fill:#000000; fill-opacity:1.000000;stroke:#000000; stroke-opacity:1.000000; stroke-linecap:round; stroke-linejoin:round;" transform="translate(0 0) scale(1 1)">
</svg:g>
<svg:g style="fill:#000000; fill-opacity:0.0;  stroke:#000000; stroke-width:0.000000; stroke-opacity:1;  stroke-linecap:round; stroke-linejoin:round;">
<svg:g>
</svg:g>
<svg:g>
</svg:g>
<svg:g>
</svg:g>
<svg:g>
</svg:g>
</svg:g>
<svg:g style="fill:#000000; fill-opacity:0.0;  stroke:#000000; stroke-width:0.000000; stroke-opacity:1;  stroke-linecap:round; stroke-linejoin:round;">
<svg:g>
</svg:g>
<svg:g>
</svg:g>
<svg:g>
</svg:g>
<svg:g>
</svg:g>
</svg:g> 
</svg:g><svg:g><svg:title>SVG Picture created as kicadBoard-F_Courtyard.svg date 2022/11/18 04:09:24 </svg:title>
  <svg:desc>Picture generated by PCBNEW </svg:desc>
<svg:g style="fill:#000000; fill-opacity:1.000000;stroke:#000000; stroke-opacity:1.000000; stroke-linecap:round; stroke-linejoin:round;" transform="translate(0 0) scale(1 1)">
</svg:g>
<svg:g style="fill:#000000; fill-opacity:0.0;  stroke:#000000; stroke-width:0.000000; stroke-opacity:1;  stroke-linecap:round; stroke-linejoin:round;">
</svg:g>
<svg:g style="fill:#FF26E2; fill-opacity:0.0;  stroke:#FF26E2; stroke-width:0.000000; stroke-opacity:1;  stroke-linecap:round; stroke-linejoin:round;">
</svg:g>
<svg:g style="fill:#FF26E2; fill-opacity:0.0;  stroke:#FF26E2; stroke-width:50000.000000; stroke-opacity:1;  stroke-linecap:round; stroke-linejoin:round;">
<svg:path d="M46820000 51580000 L46820000 48420000 "/>
<svg:path d="M53180000 51580000 L46820000 51580000 "/>
<svg:path d="M46820000 48420000 L53180000 48420000 "/>
<svg:path d="M53180000 48420000 L53180000 51580000 "/>
<svg:g>
</svg:g>
<svg:g>
</svg:g>
<svg:g>
</svg:g>
<svg:g>
</svg:g>
</svg:g>
<svg:g style="fill:#000000; fill-opacity:0.0;  stroke:#000000; stroke-width:50000.000000; stroke-opacity:1;  stroke-linecap:round; stroke-linejoin:round;">
<svg:g>
</svg:g>
<svg:g>
</svg:g>
<svg:g>
</svg:g>
<svg:g>
</svg:g>
</svg:g> 
</svg:g><svg:g><svg:title>SVG Picture created as kicadBoard-F_Fab.svg date 2022/11/18 04:09:24 </svg:title>
  <svg:desc>Picture generated by PCBNEW </svg:desc>
<svg:g style="fill:#000000; fill-opacity:1.000000;stroke:#000000; stroke-opacity:1.000000; stroke-linecap:round; stroke-linejoin:round;" transform="translate(0 0) scale(1 1)">
</svg:g>
<svg:g style="fill:#000000; fill-opacity:0.0;  stroke:#000000; stroke-width:0.000000; stroke-opacity:1;  stroke-linecap:round; stroke-linejoin:round;">
</svg:g>
<svg:g style="fill:#AFAFAF; fill-opacity:0.0;  stroke:#AFAFAF; stroke-width:0.000000; stroke-opacity:1;  stroke-linecap:round; stroke-linejoin:round;">
</svg:g>
<svg:g style="fill:#AFAFAF; fill-opacity:0.0;  stroke:#AFAFAF; stroke-width:150000.000000; stroke-opacity:1;  stroke-linecap:round; stroke-linejoin:round;">
<svg:text x="50000000.000000" y="52780000.000000" textLength="14861667.000000" font-size="1333333.000000" lengthAdjust="spacingAndGlyphs" text-anchor="middle" opacity="0">R_2010_5025Metric</svg:text>
<svg:g class="stroked-text"><svg:desc>R_2010_5025Metric</svg:desc>
<svg:path d="M43476190 52732380 L43142857 52256190 "/>
<svg:path d="M42904761 52732380 L42904761 51732380 L43285714 51732380 L43380952 51780000 L43428571 51827619 L43476190 51922857 L43476190 52065714 L43428571 52160952 L43380952 52208571 L43285714 52256190 L42904761 52256190 "/>
<svg:path d="M43666666 52827619 L44428571 52827619 "/>
<svg:path d="M44619047 51827619 L44666666 51780000 L44761904 51732380 L45000000 51732380 L45095238 51780000 L45142857 51827619 L45190476 51922857 L45190476 52018095 L45142857 52160952 L44571428 52732380 L45190476 52732380 "/>
<svg:path d="M45809523 51732380 L45904761 51732380 L46000000 51780000 L46047619 51827619 L46095238 51922857 L46142857 52113333 L46142857 52351428 L46095238 52541904 L46047619 52637142 L46000000 52684761 L45904761 52732380 L45809523 52732380 L45714285 52684761 L45666666 52637142 L45619047 52541904 L45571428 52351428 L45571428 52113333 L45619047 51922857 L45666666 51827619 L45714285 51780000 L45809523 51732380 "/>
<svg:path d="M47095238 52732380 L46523809 52732380 "/>
<svg:path d="M46809523 52732380 L46809523 51732380 L46714285 51875238 L46619047 51970476 L46523809 52018095 "/>
<svg:path d="M47714285 51732380 L47809523 51732380 L47904761 51780000 L47952380 51827619 L48000000 51922857 L48047619 52113333 L48047619 52351428 L48000000 52541904 L47952380 52637142 L47904761 52684761 L47809523 52732380 L47714285 52732380 L47619047 52684761 L47571428 52637142 L47523809 52541904 L47476190 52351428 L47476190 52113333 L47523809 51922857 L47571428 51827619 L47619047 51780000 L47714285 51732380 "/>
<svg:path d="M48238095 52827619 L49000000 52827619 "/>
<svg:path d="M49714285 51732380 L49238095 51732380 L49190476 52208571 L49238095 52160952 L49333333 52113333 L49571428 52113333 L49666666 52160952 L49714285 52208571 L49761904 52303809 L49761904 52541904 L49714285 52637142 L49666666 52684761 L49571428 52732380 L49333333 52732380 L49238095 52684761 L49190476 52637142 "/>
<svg:path d="M50380952 51732380 L50476190 51732380 L50571428 51780000 L50619047 51827619 L50666666 51922857 L50714285 52113333 L50714285 52351428 L50666666 52541904 L50619047 52637142 L50571428 52684761 L50476190 52732380 L50380952 52732380 L50285714 52684761 L50238095 52637142 L50190476 52541904 L50142857 52351428 L50142857 52113333 L50190476 51922857 L50238095 51827619 L50285714 51780000 L50380952 51732380 "/>
<svg:path d="M51095238 51827619 L51142857 51780000 L51238095 51732380 L51476190 51732380 L51571428 51780000 L51619047 51827619 L51666666 51922857 L51666666 52018095 L51619047 52160952 L51047619 52732380 L51666666 52732380 "/>
<svg:path d="M52571428 51732380 L52095238 51732380 L52047619 52208571 L52095238 52160952 L52190476 52113333 L52428571 52113333 L52523809 52160952 L52571428 52208571 L52619047 52303809 L52619047 52541904 L52571428 52637142 L52523809 52684761 L52428571 52732380 L52190476 52732380 L52095238 52684761 L52047619 52637142 "/>
<svg:path d="M53047619 52732380 L53047619 51732380 L53380952 52446666 L53714285 51732380 L53714285 52732380 "/>
<svg:path d="M54571428 52684761 L54476190 52732380 L54285714 52732380 L54190476 52684761 L54142857 52589523 L54142857 52208571 L54190476 52113333 L54285714 52065714 L54476190 52065714 L54571428 52113333 L54619047 52208571 L54619047 52303809 L54142857 52399047 "/>
<svg:path d="M54904761 52065714 L55285714 52065714 "/>
<svg:path d="M55047619 51732380 L55047619 52589523 L55095238 52684761 L55190476 52732380 L55285714 52732380 "/>
<svg:path d="M55619047 52732380 L55619047 52065714 "/>
<svg:path d="M55619047 52256190 L55666666 52160952 L55714285 52113333 L55809523 52065714 L55904761 52065714 "/>
<svg:path d="M56238095 52732380 L56238095 52065714 "/>
<svg:path d="M56238095 51732380 L56190476 51780000 L56238095 51827619 L56285714 51780000 L56238095 51732380 L56238095 51827619 "/>
<svg:path d="M57142857 52684761 L57047619 52732380 L56857142 52732380 L56761904 52684761 L56714285 52637142 L56666666 52541904 L56666666 52256190 L56714285 52160952 L56761904 52113333 L56857142 52065714 L57047619 52065714 L57142857 52113333 "/>
</svg:g><svg:text x="50000000.000000" y="50500000.000000" textLength="11480714.000000" font-size="1333333.000000" lengthAdjust="spacingAndGlyphs" text-anchor="middle" opacity="0">FZKRR21525VA</svg:text>
<svg:g class="stroked-text"><svg:desc>FZKRR21525VA</svg:desc>
<svg:path d="M44928571 49928571 L44595238 49928571 "/>
<svg:path d="M44595238 50452380 L44595238 49452380 L45071428 49452380 "/>
<svg:path d="M45357142 49452380 L46023809 49452380 L45357142 50452380 L46023809 50452380 "/>
<svg:path d="M46404761 50452380 L46404761 49452380 "/>
<svg:path d="M46976190 50452380 L46547619 49880952 "/>
<svg:path d="M46976190 49452380 L46404761 50023809 "/>
<svg:path d="M47976190 50452380 L47642857 49976190 "/>
<svg:path d="M47404761 50452380 L47404761 49452380 L47785714 49452380 L47880952 49500000 L47928571 49547619 L47976190 49642857 L47976190 49785714 L47928571 49880952 L47880952 49928571 L47785714 49976190 L47404761 49976190 "/>
<svg:path d="M48976190 50452380 L48642857 49976190 "/>
<svg:path d="M48404761 50452380 L48404761 49452380 L48785714 49452380 L48880952 49500000 L48928571 49547619 L48976190 49642857 L48976190 49785714 L48928571 49880952 L48880952 49928571 L48785714 49976190 L48404761 49976190 "/>
<svg:path d="M49357142 49547619 L49404761 49500000 L49500000 49452380 L49738095 49452380 L49833333 49500000 L49880952 49547619 L49928571 49642857 L49928571 49738095 L49880952 49880952 L49309523 50452380 L49928571 50452380 "/>
<svg:path d="M50880952 50452380 L50309523 50452380 "/>
<svg:path d="M50595238 50452380 L50595238 49452380 L50500000 49595238 L50404761 49690476 L50309523 49738095 "/>
<svg:path d="M51785714 49452380 L51309523 49452380 L51261904 49928571 L51309523 49880952 L51404761 49833333 L51642857 49833333 L51738095 49880952 L51785714 49928571 L51833333 50023809 L51833333 50261904 L51785714 50357142 L51738095 50404761 L51642857 50452380 L51404761 50452380 L51309523 50404761 L51261904 50357142 "/>
<svg:path d="M52214285 49547619 L52261904 49500000 L52357142 49452380 L52595238 49452380 L52690476 49500000 L52738095 49547619 L52785714 49642857 L52785714 49738095 L52738095 49880952 L52166666 50452380 L52785714 50452380 "/>
<svg:path d="M53690476 49452380 L53214285 49452380 L53166666 49928571 L53214285 49880952 L53309523 49833333 L53547619 49833333 L53642857 49880952 L53690476 49928571 L53738095 50023809 L53738095 50261904 L53690476 50357142 L53642857 50404761 L53547619 50452380 L53309523 50452380 L53214285 50404761 L53166666 50357142 "/>
<svg:path d="M54023809 49452380 L54357142 50452380 L54690476 49452380 "/>
<svg:path d="M54976190 50166666 L55452380 50166666 "/>
<svg:path d="M54880952 50452380 L55214285 49452380 L55547619 50452380 "/>
</svg:g></svg:g>
<svg:g style="fill:#AFAFAF; fill-opacity:0.0;  stroke:#AFAFAF; stroke-width:100000.000000; stroke-opacity:1;  stroke-linecap:round; stroke-linejoin:round;">
<svg:path d="M47500000 51250000 L47500000 48750000 "/>
<svg:path d="M47500000 48750000 L52500000 48750000 "/>
<svg:path d="M52500000 48750000 L52500000 51250000 "/>
<svg:path d="M52500000 51250000 L47500000 51250000 "/>
<svg:g>
</svg:g>
<svg:g>
</svg:g>
<svg:g>
</svg:g>
<svg:g>
</svg:g>
</svg:g>
<svg:g style="fill:#000000; fill-opacity:0.0;  stroke:#000000; stroke-width:100000.000000; stroke-opacity:1;  stroke-linecap:round; stroke-linejoin:round;">
<svg:g>
</svg:g>
<svg:g>
</svg:g>
<svg:g>
</svg:g>
<svg:g>
</svg:g>
</svg:g> 
</svg:g><svg:g><svg:title>SVG Picture created as kicadBoard-F_Mask.svg date 2022/11/18 04:09:24 </svg:title>
  <svg:desc>Picture generated by PCBNEW </svg:desc>
<svg:g style="fill:#000000; fill-opacity:1.000000;stroke:#000000; stroke-opacity:1.000000; stroke-linecap:round; stroke-linejoin:round;" transform="translate(0 0) scale(1 1)">
</svg:g>
<svg:g style="fill:#000000; fill-opacity:0.0;  stroke:#000000; stroke-width:0.000000; stroke-opacity:1;  stroke-linecap:round; stroke-linejoin:round;">
<svg:g>
</svg:g>
<svg:g style="fill:#000000; fill-opacity:0.0;  stroke:#000000; stroke-width:1.000000; stroke-opacity:1;  stroke-linecap:round; stroke-linejoin:round;">
</svg:g>
<svg:g style="fill:#000000; fill-opacity:1.0;  stroke:#000000; stroke-width:1.000000; stroke-opacity:1;  stroke-linecap:round; stroke-linejoin:round;">
<svg:path style="fill:#000000; fill-opacity:1.0;  stroke:#000000; stroke-width:1.000000; stroke-opacity:1;  stroke-linecap:round; stroke-linejoin:round;fill-rule:evenodd;" d="M 47075000.000000,48925000.000000 47094030.000000,48829329.000000 47148223.000000,48748223.000000 47229329.000000,48694030.000000 47325000.000000,48675000.000000 48050000.000000,48675000.000000 48145671.000000,48694030.000000 48226777.000000,48748223.000000 48280970.000000,48829329.000000 48300000.000000,48925000.000000 48300000.000000,51075000.000000 48280970.000000,51170671.000000 48226777.000000,51251777.000000 48145671.000000,51305970.000000 48050000.000000,51325000.000000 47325000.000000,51325000.000000 47229329.000000,51305970.000000 47148223.000000,51251777.000000 47094030.000000,51170671.000000 47075000.000000,51075000.000000 Z"/> 
<svg:path style="fill:#000000; fill-opacity:1.0;  stroke:#000000; stroke-width:1.000000; stroke-opacity:1;  stroke-linecap:round; stroke-linejoin:round;fill-rule:evenodd;" d="M 51700000.000000,48925000.000000 51719030.000000,48829329.000000 51773223.000000,48748223.000000 51854329.000000,48694030.000000 51950000.000000,48675000.000000 52675000.000000,48675000.000000 52770671.000000,48694030.000000 52851777.000000,48748223.000000 52905970.000000,48829329.000000 52925000.000000,48925000.000000 52925000.000000,51075000.000000 52905970.000000,51170671.000000 52851777.000000,51251777.000000 52770671.000000,51305970.000000 52675000.000000,51325000.000000 51950000.000000,51325000.000000 51854329.000000,51305970.000000 51773223.000000,51251777.000000 51719030.000000,51170671.000000 51700000.000000,51075000.000000 Z"/> 
</svg:g>
<svg:g>
</svg:g>
<svg:g>
</svg:g>
<svg:g>
</svg:g>
</svg:g>
<svg:g style="fill:#000000; fill-opacity:1.0;  stroke:#000000; stroke-width:1.000000; stroke-opacity:1;  stroke-linecap:round; stroke-linejoin:round;">
<svg:g>
</svg:g>
<svg:g>
</svg:g>
<svg:g>
</svg:g>
<svg:g>
</svg:g>
</svg:g> 
</svg:g><svg:g><svg:title>SVG Picture created as kicadBoard-F_Paste.svg date 2022/11/18 04:09:24 </svg:title>
  <svg:desc>Picture generated by PCBNEW </svg:desc>
<svg:g style="fill:#000000; fill-opacity:1.000000;stroke:#000000; stroke-opacity:1.000000; stroke-linecap:round; stroke-linejoin:round;" transform="translate(0 0) scale(1 1)">
</svg:g>
<svg:g style="fill:#000000; fill-opacity:0.0;  stroke:#000000; stroke-width:0.000000; stroke-opacity:1;  stroke-linecap:round; stroke-linejoin:round;">
<svg:g>
</svg:g>
<svg:g style="fill:#000000; fill-opacity:0.0;  stroke:#000000; stroke-width:1.000000; stroke-opacity:1;  stroke-linecap:round; stroke-linejoin:round;">
</svg:g>
<svg:g style="fill:#000000; fill-opacity:1.0;  stroke:#000000; stroke-width:1.000000; stroke-opacity:1;  stroke-linecap:round; stroke-linejoin:round;">
<svg:path style="fill:#000000; fill-opacity:1.0;  stroke:#000000; stroke-width:1.000000; stroke-opacity:1;  stroke-linecap:round; stroke-linejoin:round;fill-rule:evenodd;" d="M 47075000.000000,48925000.000000 47094030.000000,48829329.000000 47148223.000000,48748223.000000 47229329.000000,48694030.000000 47325000.000000,48675000.000000 48050000.000000,48675000.000000 48145671.000000,48694030.000000 48226777.000000,48748223.000000 48280970.000000,48829329.000000 48300000.000000,48925000.000000 48300000.000000,51075000.000000 48280970.000000,51170671.000000 48226777.000000,51251777.000000 48145671.000000,51305970.000000 48050000.000000,51325000.000000 47325000.000000,51325000.000000 47229329.000000,51305970.000000 47148223.000000,51251777.000000 47094030.000000,51170671.000000 47075000.000000,51075000.000000 Z"/> 
<svg:path style="fill:#000000; fill-opacity:1.0;  stroke:#000000; stroke-width:1.000000; stroke-opacity:1;  stroke-linecap:round; stroke-linejoin:round;fill-rule:evenodd;" d="M 51700000.000000,48925000.000000 51719030.000000,48829329.000000 51773223.000000,48748223.000000 51854329.000000,48694030.000000 51950000.000000,48675000.000000 52675000.000000,48675000.000000 52770671.000000,48694030.000000 52851777.000000,48748223.000000 52905970.000000,48829329.000000 52925000.000000,48925000.000000 52925000.000000,51075000.000000 52905970.000000,51170671.000000 52851777.000000,51251777.000000 52770671.000000,51305970.000000 52675000.000000,51325000.000000 51950000.000000,51325000.000000 51854329.000000,51305970.000000 51773223.000000,51251777.000000 51719030.000000,51170671.000000 51700000.000000,51075000.000000 Z"/> 
</svg:g>
<svg:g>
</svg:g>
<svg:g>
</svg:g>
<svg:g>
</svg:g>
</svg:g>
<svg:g style="fill:#000000; fill-opacity:1.0;  stroke:#000000; stroke-width:1.000000; stroke-opacity:1;  stroke-linecap:round; stroke-linejoin:round;">
<svg:g>
</svg:g>
<svg:g>
</svg:g>
<svg:g>
</svg:g>
<svg:g>
</svg:g>
</svg:g> 
</svg:g><svg:g><svg:title>SVG Picture created as kicadBoard-F_Silkscreen.svg date 2022/11/18 04:09:24 </svg:title>
  <svg:desc>Picture generated by PCBNEW </svg:desc>
<svg:g style="fill:#000000; fill-opacity:1.000000;stroke:#000000; stroke-opacity:1.000000; stroke-linecap:round; stroke-linejoin:round;" transform="translate(0 0) scale(1 1)">
</svg:g>
<svg:g style="fill:#000000; fill-opacity:0.0;  stroke:#000000; stroke-width:0.000000; stroke-opacity:1;  stroke-linecap:round; stroke-linejoin:round;">
</svg:g>
<svg:g style="fill:#F2EDA1; fill-opacity:0.0;  stroke:#F2EDA1; stroke-width:0.000000; stroke-opacity:1;  stroke-linecap:round; stroke-linejoin:round;">
</svg:g>
<svg:g style="fill:#F2EDA1; fill-opacity:0.0;  stroke:#F2EDA1; stroke-width:150000.000000; stroke-opacity:1;  stroke-linecap:round; stroke-linejoin:round;">
<svg:text x="50000000.000000" y="48220000.000000" textLength="11285715.000000" font-size="1333333.000000" lengthAdjust="spacingAndGlyphs" text-anchor="middle" opacity="0">FZKRR21525VA</svg:text>
<svg:g class="stroked-text"><svg:desc>FZKRR21525VA</svg:desc>
<svg:path d="M44928571 47648571 L44595238 47648571 "/>
<svg:path d="M44595238 48172380 L44595238 47172380 L45071428 47172380 "/>
<svg:path d="M45357142 47172380 L46023809 47172380 L45357142 48172380 L46023809 48172380 "/>
<svg:path d="M46404761 48172380 L46404761 47172380 "/>
<svg:path d="M46976190 48172380 L46547619 47600952 "/>
<svg:path d="M46976190 47172380 L46404761 47743809 "/>
<svg:path d="M47976190 48172380 L47642857 47696190 "/>
<svg:path d="M47404761 48172380 L47404761 47172380 L47785714 47172380 L47880952 47220000 L47928571 47267619 L47976190 47362857 L47976190 47505714 L47928571 47600952 L47880952 47648571 L47785714 47696190 L47404761 47696190 "/>
<svg:path d="M48976190 48172380 L48642857 47696190 "/>
<svg:path d="M48404761 48172380 L48404761 47172380 L48785714 47172380 L48880952 47220000 L48928571 47267619 L48976190 47362857 L48976190 47505714 L48928571 47600952 L48880952 47648571 L48785714 47696190 L48404761 47696190 "/>
<svg:path d="M49357142 47267619 L49404761 47220000 L49500000 47172380 L49738095 47172380 L49833333 47220000 L49880952 47267619 L49928571 47362857 L49928571 47458095 L49880952 47600952 L49309523 48172380 L49928571 48172380 "/>
<svg:path d="M50880952 48172380 L50309523 48172380 "/>
<svg:path d="M50595238 48172380 L50595238 47172380 L50500000 47315238 L50404761 47410476 L50309523 47458095 "/>
<svg:path d="M51785714 47172380 L51309523 47172380 L51261904 47648571 L51309523 47600952 L51404761 47553333 L51642857 47553333 L51738095 47600952 L51785714 47648571 L51833333 47743809 L51833333 47981904 L51785714 48077142 L51738095 48124761 L51642857 48172380 L51404761 48172380 L51309523 48124761 L51261904 48077142 "/>
<svg:path d="M52214285 47267619 L52261904 47220000 L52357142 47172380 L52595238 47172380 L52690476 47220000 L52738095 47267619 L52785714 47362857 L52785714 47458095 L52738095 47600952 L52166666 48172380 L52785714 48172380 "/>
<svg:path d="M53690476 47172380 L53214285 47172380 L53166666 47648571 L53214285 47600952 L53309523 47553333 L53547619 47553333 L53642857 47600952 L53690476 47648571 L53738095 47743809 L53738095 47981904 L53690476 48077142 L53642857 48124761 L53547619 48172380 L53309523 48172380 L53214285 48124761 L53166666 48077142 "/>
<svg:path d="M54023809 47172380 L54357142 48172380 L54690476 47172380 "/>
<svg:path d="M54976190 47886666 L55452380 47886666 "/>
<svg:path d="M54880952 48172380 L55214285 47172380 L55547619 48172380 "/>
</svg:g></svg:g>
<svg:g style="fill:#F2EDA1; fill-opacity:0.0;  stroke:#F2EDA1; stroke-width:120000.000000; stroke-opacity:1;  stroke-linecap:round; stroke-linejoin:round;">
<svg:path d="M48472936 51360000 L51527064 51360000 "/>
<svg:path d="M48472936 48640000 L51527064 48640000 "/>
<svg:g>
</svg:g>
<svg:g>
</svg:g>
<svg:g>
</svg:g>
<svg:g>
</svg:g>
</svg:g>
<svg:g style="fill:#000000; fill-opacity:0.0;  stroke:#000000; stroke-width:120000.000000; stroke-opacity:1;  stroke-linecap:round; stroke-linejoin:round;">
<svg:g>
</svg:g>
<svg:g>
</svg:g>
<svg:g>
</svg:g>
<svg:g>
</svg:g>
</svg:g> 
</svg:g><svg:g><svg:title>SVG Picture created as kicadBoard-Margin.svg date 2022/11/18 04:09:24 </svg:title>
  <svg:desc>Picture generated by PCBNEW </svg:desc>
<svg:g style="fill:#000000; fill-opacity:1.000000;stroke:#000000; stroke-opacity:1.000000; stroke-linecap:round; stroke-linejoin:round;" transform="translate(0 0) scale(1 1)">
</svg:g>
<svg:g style="fill:#000000; fill-opacity:0.0;  stroke:#000000; stroke-width:0.000000; stroke-opacity:1;  stroke-linecap:round; stroke-linejoin:round;">
<svg:g>
</svg:g>
<svg:g>
</svg:g>
<svg:g>
</svg:g>
<svg:g>
</svg:g>
</svg:g>
<svg:g style="fill:#000000; fill-opacity:0.0;  stroke:#000000; stroke-width:0.000000; stroke-opacity:1;  stroke-linecap:round; stroke-linejoin:round;">
<svg:g>
</svg:g>
<svg:g>
</svg:g>
<svg:g>
</svg:g>
<svg:g>
</svg:g>
</svg:g> 
</svg:g><svg:g><svg:title>SVG Picture created as kicadBoard-F_Cu.svg date 2022/11/18 04:09:24 </svg:title>
  <svg:desc>Picture generated by PCBNEW </svg:desc>
<svg:g style="fill:#000000; fill-opacity:1.000000;stroke:#000000; stroke-opacity:1.000000; stroke-linecap:round; stroke-linejoin:round;" transform="translate(0 0) scale(1 1)">
</svg:g>
<svg:g style="fill:#000000; fill-opacity:0.0;  stroke:#000000; stroke-width:0.000000; stroke-opacity:1;  stroke-linecap:round; stroke-linejoin:round;">
<svg:g>
</svg:g>
<svg:g style="fill:#C83434; fill-opacity:0.0;  stroke:#C83434; stroke-width:0.000000; stroke-opacity:1;  stroke-linecap:round; stroke-linejoin:round;">
</svg:g>
<svg:g style="fill:#C83434; fill-opacity:0.0;  stroke:#C83434; stroke-width:1.000000; stroke-opacity:1;  stroke-linecap:round; stroke-linejoin:round;">
</svg:g>
<svg:g style="fill:#C83434; fill-opacity:1.0;  stroke:#C83434; stroke-width:1.000000; stroke-opacity:1;  stroke-linecap:round; stroke-linejoin:round;">
<svg:path style="fill:#C83434; fill-opacity:1.0;  stroke:#C83434; stroke-width:1.000000; stroke-opacity:1;  stroke-linecap:round; stroke-linejoin:round;fill-rule:evenodd;" d="M 47075000.000000,48925000.000000 47094030.000000,48829329.000000 47148223.000000,48748223.000000 47229329.000000,48694030.000000 47325000.000000,48675000.000000 48050000.000000,48675000.000000 48145671.000000,48694030.000000 48226777.000000,48748223.000000 48280970.000000,48829329.000000 48300000.000000,48925000.000000 48300000.000000,51075000.000000 48280970.000000,51170671.000000 48226777.000000,51251777.000000 48145671.000000,51305970.000000 48050000.000000,51325000.000000 47325000.000000,51325000.000000 47229329.000000,51305970.000000 47148223.000000,51251777.000000 47094030.000000,51170671.000000 47075000.000000,51075000.000000 Z"/> 
<svg:path style="fill:#C83434; fill-opacity:1.0;  stroke:#C83434; stroke-width:1.000000; stroke-opacity:1;  stroke-linecap:round; stroke-linejoin:round;fill-rule:evenodd;" d="M 51700000.000000,48925000.000000 51719030.000000,48829329.000000 51773223.000000,48748223.000000 51854329.000000,48694030.000000 51950000.000000,48675000.000000 52675000.000000,48675000.000000 52770671.000000,48694030.000000 52851777.000000,48748223.000000 52905970.000000,48829329.000000 52925000.000000,48925000.000000 52925000.000000,51075000.000000 52905970.000000,51170671.000000 52851777.000000,51251777.000000 52770671.000000,51305970.000000 52675000.000000,51325000.000000 51950000.000000,51325000.000000 51854329.000000,51305970.000000 51773223.000000,51251777.000000 51719030.000000,51170671.000000 51700000.000000,51075000.000000 Z"/> 
</svg:g>
<svg:g>
</svg:g>
<svg:g>
</svg:g>
<svg:g>
</svg:g>
</svg:g>
<svg:g style="fill:#FFFFFF; fill-opacity:1.0;  stroke:#FFFFFF; stroke-width:1.000000; stroke-opacity:1;  stroke-linecap:round; stroke-linejoin:round;">
</svg:g>
<svg:g style="fill:#000000; fill-opacity:1.0;  stroke:#000000; stroke-width:1.000000; stroke-opacity:1;  stroke-linecap:round; stroke-linejoin:round;">
<svg:g>
</svg:g>
<svg:g>
</svg:g>
<svg:g>
</svg:g>
<svg:g>
</svg:g>
</svg:g> 
</svg:g></svg>
