<?xml version='1.0' encoding='ASCII' standalone='yes'?>
<svg xmlns:svg="http://www.w3.org/2000/svg" xmlns="http://www.w3.org/2000/svg" xmlns:xlink="http://www.w3.org/1999/xlink" version="1.1" width="9.999980cm" height="9.999980cm" viewBox="0 0 99999800 99999800">
<title>SVG Picture created as kicadBoard-B_Cu.svg date 2022/11/16 21:57:21 </title>
  <desc>Picture generated by PCBNEW </desc>
<g style="fill:#000000; fill-opacity:1.000000;stroke:#000000; stroke-opacity:1.000000; stroke-linecap:round; stroke-linejoin:round;" transform="translate(0 0) scale(1 1)">
</g>
<g style="fill:#000000; fill-opacity:0.0;  stroke:#000000; stroke-width:0.000000; stroke-opacity:1;  stroke-linecap:round; stroke-linejoin:round;">
<g>
</g>
<g style="fill:#4D7FC4; fill-opacity:0.0;  stroke:#4D7FC4; stroke-width:0.000000; stroke-opacity:1;  stroke-linecap:round; stroke-linejoin:round;">
</g>
<g style="fill:#4D7FC4; fill-opacity:0.0;  stroke:#4D7FC4; stroke-width:1.000000; stroke-opacity:1;  stroke-linecap:round; stroke-linejoin:round;">
</g>
<g style="fill:#4D7FC4; fill-opacity:1.0;  stroke:#4D7FC4; stroke-width:1.000000; stroke-opacity:1;  stroke-linecap:round; stroke-linejoin:round;">
<path style="fill:#4D7FC4; fill-opacity:1.0;  stroke:#4D7FC4; stroke-width:1.000000; stroke-opacity:1;  stroke-linecap:round; stroke-linejoin:round;fill-rule:evenodd;" d="M 48800000.000000,51200000.000000 48800000.000000,48800000.000000 51200000.000000,48800000.000000 51200000.000000,51200000.000000 Z"/> 
<circle cx="93000000.000000" cy="50000000.000000" r="1200000.000000"/> 
</g>
<g>
</g>
<g>
</g>
<g>
</g>
</g>
<g style="fill:#FFFFFF; fill-opacity:1.0;  stroke:#FFFFFF; stroke-width:1.000000; stroke-opacity:1;  stroke-linecap:round; stroke-linejoin:round;">
<circle cx="50000000.000000" cy="50000000.000000" r="600000.000000"/> 
</g>
<g style="fill:#FFFFFF; fill-opacity:1.0;  stroke:#FFFFFF; stroke-width:21200.000000; stroke-opacity:1;  stroke-linecap:round; stroke-linejoin:round;">
</g>
<g style="fill:#FFFFFF; fill-opacity:1.0;  stroke:#FFFFFF; stroke-width:1.000000; stroke-opacity:1;  stroke-linecap:round; stroke-linejoin:round;">
<circle cx="93000000.000000" cy="50000000.000000" r="600000.000000"/> 
</g>
<g style="fill:#FFFFFF; fill-opacity:1.0;  stroke:#FFFFFF; stroke-width:21200.000000; stroke-opacity:1;  stroke-linecap:round; stroke-linejoin:round;">
</g>
<g style="fill:#000000; fill-opacity:1.0;  stroke:#000000; stroke-width:21200.000000; stroke-opacity:1;  stroke-linecap:round; stroke-linejoin:round;">
<g>
</g>
<g>
</g>
<g>
</g>
<g>
</g>
</g> 
<svg:g><svg:title>SVG Picture created as kicadBoard-B_Adhesive.svg date 2022/11/16 21:57:21 </svg:title>
  <svg:desc>Picture generated by PCBNEW </svg:desc>
<svg:g style="fill:#000000; fill-opacity:1.000000;stroke:#000000; stroke-opacity:1.000000; stroke-linecap:round; stroke-linejoin:round;" transform="translate(0 0) scale(1 1)">
</svg:g>
<svg:g style="fill:#000000; fill-opacity:0.0;  stroke:#000000; stroke-width:0.000000; stroke-opacity:1;  stroke-linecap:round; stroke-linejoin:round;">
<svg:g>
</svg:g>
<svg:g>
</svg:g>
<svg:g>
</svg:g>
<svg:g>
</svg:g>
</svg:g>
<svg:g style="fill:#000000; fill-opacity:0.0;  stroke:#000000; stroke-width:0.000000; stroke-opacity:1;  stroke-linecap:round; stroke-linejoin:round;">
<svg:g>
</svg:g>
<svg:g>
</svg:g>
<svg:g>
</svg:g>
<svg:g>
</svg:g>
</svg:g> 
</svg:g><svg:g><svg:title>SVG Picture created as kicadBoard-B_Courtyard.svg date 2022/11/16 21:57:21 </svg:title>
  <svg:desc>Picture generated by PCBNEW </svg:desc>
<svg:g style="fill:#000000; fill-opacity:1.000000;stroke:#000000; stroke-opacity:1.000000; stroke-linecap:round; stroke-linejoin:round;" transform="translate(0 0) scale(1 1)">
</svg:g>
<svg:g style="fill:#000000; fill-opacity:0.0;  stroke:#000000; stroke-width:0.000000; stroke-opacity:1;  stroke-linecap:round; stroke-linejoin:round;">
<svg:g>
</svg:g>
<svg:g>
</svg:g>
<svg:g>
</svg:g>
<svg:g>
</svg:g>
</svg:g>
<svg:g style="fill:#000000; fill-opacity:0.0;  stroke:#000000; stroke-width:0.000000; stroke-opacity:1;  stroke-linecap:round; stroke-linejoin:round;">
<svg:g>
</svg:g>
<svg:g>
</svg:g>
<svg:g>
</svg:g>
<svg:g>
</svg:g>
</svg:g> 
</svg:g><svg:g><svg:title>SVG Picture created as kicadBoard-B_Fab.svg date 2022/11/16 21:57:21 </svg:title>
  <svg:desc>Picture generated by PCBNEW </svg:desc>
<svg:g style="fill:#000000; fill-opacity:1.000000;stroke:#000000; stroke-opacity:1.000000; stroke-linecap:round; stroke-linejoin:round;" transform="translate(0 0) scale(1 1)">
</svg:g>
<svg:g style="fill:#000000; fill-opacity:0.0;  stroke:#000000; stroke-width:0.000000; stroke-opacity:1;  stroke-linecap:round; stroke-linejoin:round;">
<svg:g>
</svg:g>
<svg:g>
</svg:g>
<svg:g>
</svg:g>
<svg:g>
</svg:g>
</svg:g>
<svg:g style="fill:#000000; fill-opacity:0.0;  stroke:#000000; stroke-width:0.000000; stroke-opacity:1;  stroke-linecap:round; stroke-linejoin:round;">
<svg:g>
</svg:g>
<svg:g>
</svg:g>
<svg:g>
</svg:g>
<svg:g>
</svg:g>
</svg:g> 
</svg:g><svg:g><svg:title>SVG Picture created as kicadBoard-B_Mask.svg date 2022/11/16 21:57:21 </svg:title>
  <svg:desc>Picture generated by PCBNEW </svg:desc>
<svg:g style="fill:#000000; fill-opacity:1.000000;stroke:#000000; stroke-opacity:1.000000; stroke-linecap:round; stroke-linejoin:round;" transform="translate(0 0) scale(1 1)">
</svg:g>
<svg:g style="fill:#000000; fill-opacity:0.0;  stroke:#000000; stroke-width:0.000000; stroke-opacity:1;  stroke-linecap:round; stroke-linejoin:round;">
<svg:g>
</svg:g>
<svg:g style="fill:#000000; fill-opacity:0.0;  stroke:#000000; stroke-width:1.000000; stroke-opacity:1;  stroke-linecap:round; stroke-linejoin:round;">
</svg:g>
<svg:g style="fill:#000000; fill-opacity:1.0;  stroke:#000000; stroke-width:1.000000; stroke-opacity:1;  stroke-linecap:round; stroke-linejoin:round;">
<svg:path style="fill:#000000; fill-opacity:1.0;  stroke:#000000; stroke-width:1.000000; stroke-opacity:1;  stroke-linecap:round; stroke-linejoin:round;fill-rule:evenodd;" d="M 48800000.000000,51200000.000000 48800000.000000,48800000.000000 51200000.000000,48800000.000000 51200000.000000,51200000.000000 Z"/> 
<svg:circle cx="93000000.000000" cy="50000000.000000" r="1200000.000000"/> 
</svg:g>
<svg:g>
</svg:g>
<svg:g>
</svg:g>
<svg:g>
</svg:g>
</svg:g>
<svg:g style="fill:#000000; fill-opacity:1.0;  stroke:#000000; stroke-width:1.000000; stroke-opacity:1;  stroke-linecap:round; stroke-linejoin:round;">
<svg:g>
</svg:g>
<svg:g>
</svg:g>
<svg:g>
</svg:g>
<svg:g>
</svg:g>
</svg:g> 
</svg:g><svg:g><svg:title>SVG Picture created as kicadBoard-B_Paste.svg date 2022/11/16 21:57:21 </svg:title>
  <svg:desc>Picture generated by PCBNEW </svg:desc>
<svg:g style="fill:#000000; fill-opacity:1.000000;stroke:#000000; stroke-opacity:1.000000; stroke-linecap:round; stroke-linejoin:round;" transform="translate(0 0) scale(1 1)">
</svg:g>
<svg:g style="fill:#000000; fill-opacity:0.0;  stroke:#000000; stroke-width:0.000000; stroke-opacity:1;  stroke-linecap:round; stroke-linejoin:round;">
<svg:g>
</svg:g>
<svg:g>
</svg:g>
<svg:g>
</svg:g>
<svg:g>
</svg:g>
</svg:g>
<svg:g style="fill:#000000; fill-opacity:0.0;  stroke:#000000; stroke-width:0.000000; stroke-opacity:1;  stroke-linecap:round; stroke-linejoin:round;">
<svg:g>
</svg:g>
<svg:g>
</svg:g>
<svg:g>
</svg:g>
<svg:g>
</svg:g>
</svg:g> 
</svg:g><svg:g><svg:title>SVG Picture created as kicadBoard-B_Silkscreen.svg date 2022/11/16 21:57:21 </svg:title>
  <svg:desc>Picture generated by PCBNEW </svg:desc>
<svg:g style="fill:#000000; fill-opacity:1.000000;stroke:#000000; stroke-opacity:1.000000; stroke-linecap:round; stroke-linejoin:round;" transform="translate(0 0) scale(1 1)">
</svg:g>
<svg:g style="fill:#000000; fill-opacity:0.0;  stroke:#000000; stroke-width:0.000000; stroke-opacity:1;  stroke-linecap:round; stroke-linejoin:round;">
<svg:g>
</svg:g>
<svg:g>
</svg:g>
<svg:g>
</svg:g>
<svg:g>
</svg:g>
</svg:g>
<svg:g style="fill:#000000; fill-opacity:0.0;  stroke:#000000; stroke-width:0.000000; stroke-opacity:1;  stroke-linecap:round; stroke-linejoin:round;">
<svg:g>
</svg:g>
<svg:g>
</svg:g>
<svg:g>
</svg:g>
<svg:g>
</svg:g>
</svg:g> 
</svg:g><svg:g><svg:title>SVG Picture created as kicadBoard-Edge_Cuts.svg date 2022/11/16 21:57:21 </svg:title>
  <svg:desc>Picture generated by PCBNEW </svg:desc>
<svg:g style="fill:#000000; fill-opacity:1.000000;stroke:#000000; stroke-opacity:1.000000; stroke-linecap:round; stroke-linejoin:round;" transform="translate(0 0) scale(1 1)">
</svg:g>
<svg:g style="fill:#000000; fill-opacity:0.0;  stroke:#000000; stroke-width:0.000000; stroke-opacity:1;  stroke-linecap:round; stroke-linejoin:round;">
<svg:g>
</svg:g>
<svg:g>
</svg:g>
<svg:g>
</svg:g>
<svg:g>
</svg:g>
</svg:g> 
</svg:g><svg:g><svg:title>SVG Picture created as kicadBoard-F_Adhesive.svg date 2022/11/16 21:57:21 </svg:title>
  <svg:desc>Picture generated by PCBNEW </svg:desc>
<svg:g style="fill:#000000; fill-opacity:1.000000;stroke:#000000; stroke-opacity:1.000000; stroke-linecap:round; stroke-linejoin:round;" transform="translate(0 0) scale(1 1)">
</svg:g>
<svg:g style="fill:#000000; fill-opacity:0.0;  stroke:#000000; stroke-width:0.000000; stroke-opacity:1;  stroke-linecap:round; stroke-linejoin:round;">
<svg:g>
</svg:g>
<svg:g>
</svg:g>
<svg:g>
</svg:g>
<svg:g>
</svg:g>
</svg:g>
<svg:g style="fill:#000000; fill-opacity:0.0;  stroke:#000000; stroke-width:0.000000; stroke-opacity:1;  stroke-linecap:round; stroke-linejoin:round;">
<svg:g>
</svg:g>
<svg:g>
</svg:g>
<svg:g>
</svg:g>
<svg:g>
</svg:g>
</svg:g> 
</svg:g><svg:g><svg:title>SVG Picture created as kicadBoard-F_Courtyard.svg date 2022/11/16 21:57:21 </svg:title>
  <svg:desc>Picture generated by PCBNEW </svg:desc>
<svg:g style="fill:#000000; fill-opacity:1.000000;stroke:#000000; stroke-opacity:1.000000; stroke-linecap:round; stroke-linejoin:round;" transform="translate(0 0) scale(1 1)">
</svg:g>
<svg:g style="fill:#000000; fill-opacity:0.0;  stroke:#000000; stroke-width:0.000000; stroke-opacity:1;  stroke-linecap:round; stroke-linejoin:round;">
</svg:g>
<svg:g style="fill:#FF26E2; fill-opacity:0.0;  stroke:#FF26E2; stroke-width:0.000000; stroke-opacity:1;  stroke-linecap:round; stroke-linejoin:round;">
</svg:g>
<svg:g style="fill:#FF26E2; fill-opacity:0.0;  stroke:#FF26E2; stroke-width:50000.000000; stroke-opacity:1;  stroke-linecap:round; stroke-linejoin:round;">
<svg:path d="M94450000 56750000 L94450000 43250000 "/>
<svg:path d="M48550000 43250000 L48550000 56750000 "/>
<svg:path d="M48550000 56750000 L94450000 56750000 "/>
<svg:path d="M94450000 43250000 L48550000 43250000 "/>
<svg:g>
</svg:g>
<svg:g>
</svg:g>
<svg:g>
</svg:g>
<svg:g>
</svg:g>
</svg:g>
<svg:g style="fill:#000000; fill-opacity:0.0;  stroke:#000000; stroke-width:50000.000000; stroke-opacity:1;  stroke-linecap:round; stroke-linejoin:round;">
<svg:g>
</svg:g>
<svg:g>
</svg:g>
<svg:g>
</svg:g>
<svg:g>
</svg:g>
</svg:g> 
</svg:g><svg:g><svg:title>SVG Picture created as kicadBoard-F_Fab.svg date 2022/11/16 21:57:21 </svg:title>
  <svg:desc>Picture generated by PCBNEW </svg:desc>
<svg:g style="fill:#000000; fill-opacity:1.000000;stroke:#000000; stroke-opacity:1.000000; stroke-linecap:round; stroke-linejoin:round;" transform="translate(0 0) scale(1 1)">
</svg:g>
<svg:g style="fill:#000000; fill-opacity:0.0;  stroke:#000000; stroke-width:0.000000; stroke-opacity:1;  stroke-linecap:round; stroke-linejoin:round;">
</svg:g>
<svg:g style="fill:#AFAFAF; fill-opacity:0.0;  stroke:#AFAFAF; stroke-width:0.000000; stroke-opacity:1;  stroke-linecap:round; stroke-linejoin:round;">
</svg:g>
<svg:g style="fill:#AFAFAF; fill-opacity:0.0;  stroke:#AFAFAF; stroke-width:150000.000000; stroke-opacity:1;  stroke-linecap:round; stroke-linejoin:round;">
<svg:text x="71500000.000000" y="58120000.000000" textLength="39004524.000000" font-size="1333333.000000" lengthAdjust="spacingAndGlyphs" text-anchor="middle" opacity="0">CP_Axial_L37.0mm_D13.0mm_P43.00mm_Horizontal</svg:text>
<svg:g class="stroked-text"><svg:desc>CP_Axial_L37.0mm_D13.0mm_P43.00mm_Horizontal</svg:desc>
<svg:path d="M52904761 57977142 L52857142 58024761 L52714285 58072380 L52619047 58072380 L52476190 58024761 L52380952 57929523 L52333333 57834285 L52285714 57643809 L52285714 57500952 L52333333 57310476 L52380952 57215238 L52476190 57120000 L52619047 57072380 L52714285 57072380 L52857142 57120000 L52904761 57167619 "/>
<svg:path d="M53333333 58072380 L53333333 57072380 L53714285 57072380 L53809523 57120000 L53857142 57167619 L53904761 57262857 L53904761 57405714 L53857142 57500952 L53809523 57548571 L53714285 57596190 L53333333 57596190 "/>
<svg:path d="M54095238 58167619 L54857142 58167619 "/>
<svg:path d="M55047619 57786666 L55523809 57786666 "/>
<svg:path d="M54952380 58072380 L55285714 57072380 L55619047 58072380 "/>
<svg:path d="M55857142 58072380 L56380952 57405714 "/>
<svg:path d="M55857142 57405714 L56380952 58072380 "/>
<svg:path d="M56761904 58072380 L56761904 57405714 "/>
<svg:path d="M56761904 57072380 L56714285 57120000 L56761904 57167619 L56809523 57120000 L56761904 57072380 L56761904 57167619 "/>
<svg:path d="M57666666 58072380 L57666666 57548571 L57619047 57453333 L57523809 57405714 L57333333 57405714 L57238095 57453333 "/>
<svg:path d="M57666666 58024761 L57571428 58072380 L57333333 58072380 L57238095 58024761 L57190476 57929523 L57190476 57834285 L57238095 57739047 L57333333 57691428 L57571428 57691428 L57666666 57643809 "/>
<svg:path d="M58285714 58072380 L58190476 58024761 L58142857 57929523 L58142857 57072380 "/>
<svg:path d="M58428571 58167619 L59190476 58167619 "/>
<svg:path d="M59904761 58072380 L59428571 58072380 L59428571 57072380 "/>
<svg:path d="M60142857 57072380 L60761904 57072380 L60428571 57453333 L60571428 57453333 L60666666 57500952 L60714285 57548571 L60761904 57643809 L60761904 57881904 L60714285 57977142 L60666666 58024761 L60571428 58072380 L60285714 58072380 L60190476 58024761 L60142857 57977142 "/>
<svg:path d="M61095238 57072380 L61761904 57072380 L61333333 58072380 "/>
<svg:path d="M62142857 57977142 L62190476 58024761 L62142857 58072380 L62095238 58024761 L62142857 57977142 L62142857 58072380 "/>
<svg:path d="M62809523 57072380 L62904761 57072380 L62999999 57120000 L63047619 57167619 L63095238 57262857 L63142857 57453333 L63142857 57691428 L63095238 57881904 L63047619 57977142 L62999999 58024761 L62904761 58072380 L62809523 58072380 L62714285 58024761 L62666666 57977142 L62619047 57881904 L62571428 57691428 L62571428 57453333 L62619047 57262857 L62666666 57167619 L62714285 57120000 L62809523 57072380 "/>
<svg:path d="M63571428 58072380 L63571428 57405714 "/>
<svg:path d="M63571428 57500952 L63619047 57453333 L63714285 57405714 L63857142 57405714 L63952380 57453333 L63999999 57548571 L63999999 58072380 "/>
<svg:path d="M63999999 57548571 L64047619 57453333 L64142857 57405714 L64285714 57405714 L64380952 57453333 L64428571 57548571 L64428571 58072380 "/>
<svg:path d="M64904761 58072380 L64904761 57405714 "/>
<svg:path d="M64904761 57500952 L64952380 57453333 L65047619 57405714 L65190476 57405714 L65285714 57453333 L65333333 57548571 L65333333 58072380 "/>
<svg:path d="M65333333 57548571 L65380952 57453333 L65476190 57405714 L65619047 57405714 L65714285 57453333 L65761904 57548571 L65761904 58072380 "/>
<svg:path d="M65999999 58167619 L66761904 58167619 "/>
<svg:path d="M66999999 58072380 L66999999 57072380 L67238095 57072380 L67380952 57120000 L67476190 57215238 L67523809 57310476 L67571428 57500952 L67571428 57643809 L67523809 57834285 L67476190 57929523 L67380952 58024761 L67238095 58072380 L66999999 58072380 "/>
<svg:path d="M68523809 58072380 L67952380 58072380 "/>
<svg:path d="M68238095 58072380 L68238095 57072380 L68142857 57215238 L68047619 57310476 L67952380 57358095 "/>
<svg:path d="M68857142 57072380 L69476190 57072380 L69142857 57453333 L69285714 57453333 L69380952 57500952 L69428571 57548571 L69476190 57643809 L69476190 57881904 L69428571 57977142 L69380952 58024761 L69285714 58072380 L69000000 58072380 L68904761 58024761 L68857142 57977142 "/>
<svg:path d="M69904761 57977142 L69952380 58024761 L69904761 58072380 L69857142 58024761 L69904761 57977142 L69904761 58072380 "/>
<svg:path d="M70571428 57072380 L70666666 57072380 L70761904 57120000 L70809523 57167619 L70857142 57262857 L70904761 57453333 L70904761 57691428 L70857142 57881904 L70809523 57977142 L70761904 58024761 L70666666 58072380 L70571428 58072380 L70476190 58024761 L70428571 57977142 L70380952 57881904 L70333333 57691428 L70333333 57453333 L70380952 57262857 L70428571 57167619 L70476190 57120000 L70571428 57072380 "/>
<svg:path d="M71333333 58072380 L71333333 57405714 "/>
<svg:path d="M71333333 57500952 L71380952 57453333 L71476190 57405714 L71619047 57405714 L71714285 57453333 L71761904 57548571 L71761904 58072380 "/>
<svg:path d="M71761904 57548571 L71809523 57453333 L71904761 57405714 L72047619 57405714 L72142857 57453333 L72190476 57548571 L72190476 58072380 "/>
<svg:path d="M72666666 58072380 L72666666 57405714 "/>
<svg:path d="M72666666 57500952 L72714285 57453333 L72809523 57405714 L72952380 57405714 L73047619 57453333 L73095238 57548571 L73095238 58072380 "/>
<svg:path d="M73095238 57548571 L73142857 57453333 L73238095 57405714 L73380952 57405714 L73476190 57453333 L73523809 57548571 L73523809 58072380 "/>
<svg:path d="M73761904 58167619 L74523809 58167619 "/>
<svg:path d="M74761904 58072380 L74761904 57072380 L75142857 57072380 L75238095 57120000 L75285714 57167619 L75333333 57262857 L75333333 57405714 L75285714 57500952 L75238095 57548571 L75142857 57596190 L74761904 57596190 "/>
<svg:path d="M76190476 57405714 L76190476 58072380 "/>
<svg:path d="M75952380 57024761 L75714285 57739047 L76333333 57739047 "/>
<svg:path d="M76619047 57072380 L77238095 57072380 L76904761 57453333 L77047619 57453333 L77142857 57500952 L77190476 57548571 L77238095 57643809 L77238095 57881904 L77190476 57977142 L77142857 58024761 L77047619 58072380 L76761904 58072380 L76666666 58024761 L76619047 57977142 "/>
<svg:path d="M77666666 57977142 L77714285 58024761 L77666666 58072380 L77619047 58024761 L77666666 57977142 L77666666 58072380 "/>
<svg:path d="M78333333 57072380 L78428571 57072380 L78523809 57120000 L78571428 57167619 L78619047 57262857 L78666666 57453333 L78666666 57691428 L78619047 57881904 L78571428 57977142 L78523809 58024761 L78428571 58072380 L78333333 58072380 L78238095 58024761 L78190476 57977142 L78142857 57881904 L78095238 57691428 L78095238 57453333 L78142857 57262857 L78190476 57167619 L78238095 57120000 L78333333 57072380 "/>
<svg:path d="M79285714 57072380 L79380952 57072380 L79476190 57120000 L79523809 57167619 L79571428 57262857 L79619047 57453333 L79619047 57691428 L79571428 57881904 L79523809 57977142 L79476190 58024761 L79380952 58072380 L79285714 58072380 L79190476 58024761 L79142857 57977142 L79095238 57881904 L79047619 57691428 L79047619 57453333 L79095238 57262857 L79142857 57167619 L79190476 57120000 L79285714 57072380 "/>
<svg:path d="M80047619 58072380 L80047619 57405714 "/>
<svg:path d="M80047619 57500952 L80095238 57453333 L80190476 57405714 L80333333 57405714 L80428571 57453333 L80476190 57548571 L80476190 58072380 "/>
<svg:path d="M80476190 57548571 L80523809 57453333 L80619047 57405714 L80761904 57405714 L80857142 57453333 L80904761 57548571 L80904761 58072380 "/>
<svg:path d="M81380952 58072380 L81380952 57405714 "/>
<svg:path d="M81380952 57500952 L81428571 57453333 L81523809 57405714 L81666666 57405714 L81761904 57453333 L81809523 57548571 L81809523 58072380 "/>
<svg:path d="M81809523 57548571 L81857142 57453333 L81952380 57405714 L82095238 57405714 L82190476 57453333 L82238095 57548571 L82238095 58072380 "/>
<svg:path d="M82476190 58167619 L83238095 58167619 "/>
<svg:path d="M83476190 58072380 L83476190 57072380 "/>
<svg:path d="M83476190 57548571 L84047619 57548571 "/>
<svg:path d="M84047619 58072380 L84047619 57072380 "/>
<svg:path d="M84666666 58072380 L84571428 58024761 L84523809 57977142 L84476190 57881904 L84476190 57596190 L84523809 57500952 L84571428 57453333 L84666666 57405714 L84809523 57405714 L84904761 57453333 L84952380 57500952 L84999999 57596190 L84999999 57881904 L84952380 57977142 L84904761 58024761 L84809523 58072380 L84666666 58072380 "/>
<svg:path d="M85428571 58072380 L85428571 57405714 "/>
<svg:path d="M85428571 57596190 L85476190 57500952 L85523809 57453333 L85619047 57405714 L85714285 57405714 "/>
<svg:path d="M86047619 58072380 L86047619 57405714 "/>
<svg:path d="M86047619 57072380 L85999999 57120000 L86047619 57167619 L86095238 57120000 L86047619 57072380 L86047619 57167619 "/>
<svg:path d="M86428571 57405714 L86952380 57405714 L86428571 58072380 L86952380 58072380 "/>
<svg:path d="M87476190 58072380 L87380952 58024761 L87333333 57977142 L87285714 57881904 L87285714 57596190 L87333333 57500952 L87380952 57453333 L87476190 57405714 L87619047 57405714 L87714285 57453333 L87761904 57500952 L87809523 57596190 L87809523 57881904 L87761904 57977142 L87714285 58024761 L87619047 58072380 L87476190 58072380 "/>
<svg:path d="M88238095 57405714 L88238095 58072380 "/>
<svg:path d="M88238095 57500952 L88285714 57453333 L88380952 57405714 L88523809 57405714 L88619047 57453333 L88666666 57548571 L88666666 58072380 "/>
<svg:path d="M88999999 57405714 L89380952 57405714 "/>
<svg:path d="M89142857 57072380 L89142857 57929523 L89190476 58024761 L89285714 58072380 L89380952 58072380 "/>
<svg:path d="M90142857 58072380 L90142857 57548571 L90095238 57453333 L89999999 57405714 L89809523 57405714 L89714285 57453333 "/>
<svg:path d="M90142857 58024761 L90047619 58072380 L89809523 58072380 L89714285 58024761 L89666666 57929523 L89666666 57834285 L89714285 57739047 L89809523 57691428 L90047619 57691428 L90142857 57643809 "/>
<svg:path d="M90761904 58072380 L90666666 58024761 L90619047 57929523 L90619047 57072380 "/>
</svg:g><svg:text x="71500000.000000" y="50500000.000000" textLength="27528333.000000" font-size="1333333.000000" lengthAdjust="spacingAndGlyphs" text-anchor="middle" opacity="0">FZKCCPAXIALL37D13P43HORIZONTAL</svg:text>
<svg:g class="stroked-text"><svg:desc>FZKCCPAXIALL37D13P43HORIZONTAL</svg:desc>
<svg:path d="M58404761 49928571 L58071428 49928571 "/>
<svg:path d="M58071428 50452380 L58071428 49452380 L58547619 49452380 "/>
<svg:path d="M58833333 49452380 L59499999 49452380 L58833333 50452380 L59499999 50452380 "/>
<svg:path d="M59880952 50452380 L59880952 49452380 "/>
<svg:path d="M60452380 50452380 L60023809 49880952 "/>
<svg:path d="M60452380 49452380 L59880952 50023809 "/>
<svg:path d="M61452380 50357142 L61404761 50404761 L61261904 50452380 L61166666 50452380 L61023809 50404761 L60928571 50309523 L60880952 50214285 L60833333 50023809 L60833333 49880952 L60880952 49690476 L60928571 49595238 L61023809 49500000 L61166666 49452380 L61261904 49452380 L61404761 49500000 L61452380 49547619 "/>
<svg:path d="M62452380 50357142 L62404761 50404761 L62261904 50452380 L62166666 50452380 L62023809 50404761 L61928571 50309523 L61880952 50214285 L61833333 50023809 L61833333 49880952 L61880952 49690476 L61928571 49595238 L62023809 49500000 L62166666 49452380 L62261904 49452380 L62404761 49500000 L62452380 49547619 "/>
<svg:path d="M62880952 50452380 L62880952 49452380 L63261904 49452380 L63357142 49500000 L63404761 49547619 L63452380 49642857 L63452380 49785714 L63404761 49880952 L63357142 49928571 L63261904 49976190 L62880952 49976190 "/>
<svg:path d="M63833333 50166666 L64309523 50166666 "/>
<svg:path d="M63738095 50452380 L64071428 49452380 L64404761 50452380 "/>
<svg:path d="M64642857 49452380 L65309523 50452380 "/>
<svg:path d="M65309523 49452380 L64642857 50452380 "/>
<svg:path d="M65690476 50452380 L65690476 49452380 "/>
<svg:path d="M66119047 50166666 L66595238 50166666 "/>
<svg:path d="M66023809 50452380 L66357142 49452380 L66690476 50452380 "/>
<svg:path d="M67500000 50452380 L67023809 50452380 L67023809 49452380 "/>
<svg:path d="M68309523 50452380 L67833333 50452380 L67833333 49452380 "/>
<svg:path d="M68547619 49452380 L69166666 49452380 L68833333 49833333 L68976190 49833333 L69071428 49880952 L69119047 49928571 L69166666 50023809 L69166666 50261904 L69119047 50357142 L69071428 50404761 L68976190 50452380 L68690476 50452380 L68595238 50404761 L68547619 50357142 "/>
<svg:path d="M69500000 49452380 L70166666 49452380 L69738095 50452380 "/>
<svg:path d="M70547619 50452380 L70547619 49452380 L70785714 49452380 L70928571 49500000 L71023809 49595238 L71071428 49690476 L71119047 49880952 L71119047 50023809 L71071428 50214285 L71023809 50309523 L70928571 50404761 L70785714 50452380 L70547619 50452380 "/>
<svg:path d="M72071428 50452380 L71500000 50452380 "/>
<svg:path d="M71785714 50452380 L71785714 49452380 L71690476 49595238 L71595238 49690476 L71500000 49738095 "/>
<svg:path d="M72404761 49452380 L73023809 49452380 L72690476 49833333 L72833333 49833333 L72928571 49880952 L72976190 49928571 L73023809 50023809 L73023809 50261904 L72976190 50357142 L72928571 50404761 L72833333 50452380 L72547619 50452380 L72452380 50404761 L72404761 50357142 "/>
<svg:path d="M73452380 50452380 L73452380 49452380 L73833333 49452380 L73928571 49500000 L73976190 49547619 L74023809 49642857 L74023809 49785714 L73976190 49880952 L73928571 49928571 L73833333 49976190 L73452380 49976190 "/>
<svg:path d="M74880952 49785714 L74880952 50452380 "/>
<svg:path d="M74642857 49404761 L74404761 50119047 L75023809 50119047 "/>
<svg:path d="M75309523 49452380 L75928571 49452380 L75595238 49833333 L75738095 49833333 L75833333 49880952 L75880952 49928571 L75928571 50023809 L75928571 50261904 L75880952 50357142 L75833333 50404761 L75738095 50452380 L75452380 50452380 L75357142 50404761 L75309523 50357142 "/>
<svg:path d="M76357142 50452380 L76357142 49452380 "/>
<svg:path d="M76357142 49928571 L76928571 49928571 "/>
<svg:path d="M76928571 50452380 L76928571 49452380 "/>
<svg:path d="M77595238 49452380 L77785714 49452380 L77880952 49500000 L77976190 49595238 L78023809 49785714 L78023809 50119047 L77976190 50309523 L77880952 50404761 L77785714 50452380 L77595238 50452380 L77499999 50404761 L77404761 50309523 L77357142 50119047 L77357142 49785714 L77404761 49595238 L77499999 49500000 L77595238 49452380 "/>
<svg:path d="M79023809 50452380 L78690476 49976190 "/>
<svg:path d="M78452380 50452380 L78452380 49452380 L78833333 49452380 L78928571 49500000 L78976190 49547619 L79023809 49642857 L79023809 49785714 L78976190 49880952 L78928571 49928571 L78833333 49976190 L78452380 49976190 "/>
<svg:path d="M79452380 50452380 L79452380 49452380 "/>
<svg:path d="M79833333 49452380 L80500000 49452380 L79833333 50452380 L80500000 50452380 "/>
<svg:path d="M81071428 49452380 L81261904 49452380 L81357142 49500000 L81452380 49595238 L81500000 49785714 L81500000 50119047 L81452380 50309523 L81357142 50404761 L81261904 50452380 L81071428 50452380 L80976190 50404761 L80880952 50309523 L80833333 50119047 L80833333 49785714 L80880952 49595238 L80976190 49500000 L81071428 49452380 "/>
<svg:path d="M81928571 50452380 L81928571 49452380 L82500000 50452380 L82500000 49452380 "/>
<svg:path d="M82833333 49452380 L83404761 49452380 "/>
<svg:path d="M83119047 50452380 L83119047 49452380 "/>
<svg:path d="M83690476 50166666 L84166666 50166666 "/>
<svg:path d="M83595238 50452380 L83928571 49452380 L84261904 50452380 "/>
<svg:path d="M85071428 50452380 L84595238 50452380 L84595238 49452380 "/>
</svg:g></svg:g>
<svg:g style="fill:#AFAFAF; fill-opacity:0.0;  stroke:#AFAFAF; stroke-width:100000.000000; stroke-opacity:1;  stroke-linecap:round; stroke-linejoin:round;">
<svg:path d="M53000000 43500000 L53000000 56500000 "/>
<svg:path d="M53000000 56500000 L54680000 56500000 "/>
<svg:path d="M93000000 50000000 L90000000 50000000 "/>
<svg:path d="M56480000 43500000 L90000000 43500000 "/>
<svg:path d="M55600000 49100000 L55600000 50900000 "/>
<svg:path d="M53000000 43500000 L54680000 43500000 "/>
<svg:path d="M56480000 56500000 L90000000 56500000 "/>
<svg:path d="M55580000 55600000 L56480000 56500000 "/>
<svg:path d="M55580000 44400000 L56480000 43500000 "/>
<svg:path d="M54700000 50000000 L56500000 50000000 "/>
<svg:path d="M50000000 50000000 L53000000 50000000 "/>
<svg:path d="M90000000 43500000 L90000000 56500000 "/>
<svg:path d="M54680000 43500000 L55580000 44400000 "/>
<svg:path d="M54680000 56500000 L55580000 55600000 "/>
<svg:g>
</svg:g>
<svg:g>
</svg:g>
<svg:g>
</svg:g>
<svg:g>
</svg:g>
</svg:g>
<svg:g style="fill:#000000; fill-opacity:0.0;  stroke:#000000; stroke-width:100000.000000; stroke-opacity:1;  stroke-linecap:round; stroke-linejoin:round;">
<svg:g>
</svg:g>
<svg:g>
</svg:g>
<svg:g>
</svg:g>
<svg:g>
</svg:g>
</svg:g> 
</svg:g><svg:g><svg:title>SVG Picture created as kicadBoard-F_Mask.svg date 2022/11/16 21:57:21 </svg:title>
  <svg:desc>Picture generated by PCBNEW </svg:desc>
<svg:g style="fill:#000000; fill-opacity:1.000000;stroke:#000000; stroke-opacity:1.000000; stroke-linecap:round; stroke-linejoin:round;" transform="translate(0 0) scale(1 1)">
</svg:g>
<svg:g style="fill:#000000; fill-opacity:0.0;  stroke:#000000; stroke-width:0.000000; stroke-opacity:1;  stroke-linecap:round; stroke-linejoin:round;">
<svg:g>
</svg:g>
<svg:g style="fill:#000000; fill-opacity:0.0;  stroke:#000000; stroke-width:1.000000; stroke-opacity:1;  stroke-linecap:round; stroke-linejoin:round;">
</svg:g>
<svg:g style="fill:#000000; fill-opacity:1.0;  stroke:#000000; stroke-width:1.000000; stroke-opacity:1;  stroke-linecap:round; stroke-linejoin:round;">
<svg:path style="fill:#000000; fill-opacity:1.0;  stroke:#000000; stroke-width:1.000000; stroke-opacity:1;  stroke-linecap:round; stroke-linejoin:round;fill-rule:evenodd;" d="M 48800000.000000,51200000.000000 48800000.000000,48800000.000000 51200000.000000,48800000.000000 51200000.000000,51200000.000000 Z"/> 
<svg:circle cx="93000000.000000" cy="50000000.000000" r="1200000.000000"/> 
</svg:g>
<svg:g>
</svg:g>
<svg:g>
</svg:g>
<svg:g>
</svg:g>
</svg:g>
<svg:g style="fill:#000000; fill-opacity:1.0;  stroke:#000000; stroke-width:1.000000; stroke-opacity:1;  stroke-linecap:round; stroke-linejoin:round;">
<svg:g>
</svg:g>
<svg:g>
</svg:g>
<svg:g>
</svg:g>
<svg:g>
</svg:g>
</svg:g> 
</svg:g><svg:g><svg:title>SVG Picture created as kicadBoard-F_Paste.svg date 2022/11/16 21:57:21 </svg:title>
  <svg:desc>Picture generated by PCBNEW </svg:desc>
<svg:g style="fill:#000000; fill-opacity:1.000000;stroke:#000000; stroke-opacity:1.000000; stroke-linecap:round; stroke-linejoin:round;" transform="translate(0 0) scale(1 1)">
</svg:g>
<svg:g style="fill:#000000; fill-opacity:0.0;  stroke:#000000; stroke-width:0.000000; stroke-opacity:1;  stroke-linecap:round; stroke-linejoin:round;">
<svg:g>
</svg:g>
<svg:g>
</svg:g>
<svg:g>
</svg:g>
<svg:g>
</svg:g>
</svg:g>
<svg:g style="fill:#000000; fill-opacity:0.0;  stroke:#000000; stroke-width:0.000000; stroke-opacity:1;  stroke-linecap:round; stroke-linejoin:round;">
<svg:g>
</svg:g>
<svg:g>
</svg:g>
<svg:g>
</svg:g>
<svg:g>
</svg:g>
</svg:g> 
</svg:g><svg:g><svg:title>SVG Picture created as kicadBoard-F_Silkscreen.svg date 2022/11/16 21:57:21 </svg:title>
  <svg:desc>Picture generated by PCBNEW </svg:desc>
<svg:g style="fill:#000000; fill-opacity:1.000000;stroke:#000000; stroke-opacity:1.000000; stroke-linecap:round; stroke-linejoin:round;" transform="translate(0 0) scale(1 1)">
</svg:g>
<svg:g style="fill:#000000; fill-opacity:0.0;  stroke:#000000; stroke-width:0.000000; stroke-opacity:1;  stroke-linecap:round; stroke-linejoin:round;">
</svg:g>
<svg:g style="fill:#F2EDA1; fill-opacity:0.0;  stroke:#F2EDA1; stroke-width:0.000000; stroke-opacity:1;  stroke-linecap:round; stroke-linejoin:round;">
</svg:g>
<svg:g style="fill:#F2EDA1; fill-opacity:0.0;  stroke:#F2EDA1; stroke-width:150000.000000; stroke-opacity:1;  stroke-linecap:round; stroke-linejoin:round;">
<svg:text x="71500000.000000" y="42880000.000000" textLength="27333334.000000" font-size="1333333.000000" lengthAdjust="spacingAndGlyphs" text-anchor="middle" opacity="0">FZKCCPAXIALL37D13P43HORIZONTAL</svg:text>
<svg:g class="stroked-text"><svg:desc>FZKCCPAXIALL37D13P43HORIZONTAL</svg:desc>
<svg:path d="M58404761 42308571 L58071428 42308571 "/>
<svg:path d="M58071428 42832380 L58071428 41832380 L58547619 41832380 "/>
<svg:path d="M58833333 41832380 L59499999 41832380 L58833333 42832380 L59499999 42832380 "/>
<svg:path d="M59880952 42832380 L59880952 41832380 "/>
<svg:path d="M60452380 42832380 L60023809 42260952 "/>
<svg:path d="M60452380 41832380 L59880952 42403809 "/>
<svg:path d="M61452380 42737142 L61404761 42784761 L61261904 42832380 L61166666 42832380 L61023809 42784761 L60928571 42689523 L60880952 42594285 L60833333 42403809 L60833333 42260952 L60880952 42070476 L60928571 41975238 L61023809 41880000 L61166666 41832380 L61261904 41832380 L61404761 41880000 L61452380 41927619 "/>
<svg:path d="M62452380 42737142 L62404761 42784761 L62261904 42832380 L62166666 42832380 L62023809 42784761 L61928571 42689523 L61880952 42594285 L61833333 42403809 L61833333 42260952 L61880952 42070476 L61928571 41975238 L62023809 41880000 L62166666 41832380 L62261904 41832380 L62404761 41880000 L62452380 41927619 "/>
<svg:path d="M62880952 42832380 L62880952 41832380 L63261904 41832380 L63357142 41880000 L63404761 41927619 L63452380 42022857 L63452380 42165714 L63404761 42260952 L63357142 42308571 L63261904 42356190 L62880952 42356190 "/>
<svg:path d="M63833333 42546666 L64309523 42546666 "/>
<svg:path d="M63738095 42832380 L64071428 41832380 L64404761 42832380 "/>
<svg:path d="M64642857 41832380 L65309523 42832380 "/>
<svg:path d="M65309523 41832380 L64642857 42832380 "/>
<svg:path d="M65690476 42832380 L65690476 41832380 "/>
<svg:path d="M66119047 42546666 L66595238 42546666 "/>
<svg:path d="M66023809 42832380 L66357142 41832380 L66690476 42832380 "/>
<svg:path d="M67500000 42832380 L67023809 42832380 L67023809 41832380 "/>
<svg:path d="M68309523 42832380 L67833333 42832380 L67833333 41832380 "/>
<svg:path d="M68547619 41832380 L69166666 41832380 L68833333 42213333 L68976190 42213333 L69071428 42260952 L69119047 42308571 L69166666 42403809 L69166666 42641904 L69119047 42737142 L69071428 42784761 L68976190 42832380 L68690476 42832380 L68595238 42784761 L68547619 42737142 "/>
<svg:path d="M69500000 41832380 L70166666 41832380 L69738095 42832380 "/>
<svg:path d="M70547619 42832380 L70547619 41832380 L70785714 41832380 L70928571 41880000 L71023809 41975238 L71071428 42070476 L71119047 42260952 L71119047 42403809 L71071428 42594285 L71023809 42689523 L70928571 42784761 L70785714 42832380 L70547619 42832380 "/>
<svg:path d="M72071428 42832380 L71500000 42832380 "/>
<svg:path d="M71785714 42832380 L71785714 41832380 L71690476 41975238 L71595238 42070476 L71500000 42118095 "/>
<svg:path d="M72404761 41832380 L73023809 41832380 L72690476 42213333 L72833333 42213333 L72928571 42260952 L72976190 42308571 L73023809 42403809 L73023809 42641904 L72976190 42737142 L72928571 42784761 L72833333 42832380 L72547619 42832380 L72452380 42784761 L72404761 42737142 "/>
<svg:path d="M73452380 42832380 L73452380 41832380 L73833333 41832380 L73928571 41880000 L73976190 41927619 L74023809 42022857 L74023809 42165714 L73976190 42260952 L73928571 42308571 L73833333 42356190 L73452380 42356190 "/>
<svg:path d="M74880952 42165714 L74880952 42832380 "/>
<svg:path d="M74642857 41784761 L74404761 42499047 L75023809 42499047 "/>
<svg:path d="M75309523 41832380 L75928571 41832380 L75595238 42213333 L75738095 42213333 L75833333 42260952 L75880952 42308571 L75928571 42403809 L75928571 42641904 L75880952 42737142 L75833333 42784761 L75738095 42832380 L75452380 42832380 L75357142 42784761 L75309523 42737142 "/>
<svg:path d="M76357142 42832380 L76357142 41832380 "/>
<svg:path d="M76357142 42308571 L76928571 42308571 "/>
<svg:path d="M76928571 42832380 L76928571 41832380 "/>
<svg:path d="M77595238 41832380 L77785714 41832380 L77880952 41880000 L77976190 41975238 L78023809 42165714 L78023809 42499047 L77976190 42689523 L77880952 42784761 L77785714 42832380 L77595238 42832380 L77499999 42784761 L77404761 42689523 L77357142 42499047 L77357142 42165714 L77404761 41975238 L77499999 41880000 L77595238 41832380 "/>
<svg:path d="M79023809 42832380 L78690476 42356190 "/>
<svg:path d="M78452380 42832380 L78452380 41832380 L78833333 41832380 L78928571 41880000 L78976190 41927619 L79023809 42022857 L79023809 42165714 L78976190 42260952 L78928571 42308571 L78833333 42356190 L78452380 42356190 "/>
<svg:path d="M79452380 42832380 L79452380 41832380 "/>
<svg:path d="M79833333 41832380 L80500000 41832380 L79833333 42832380 L80500000 42832380 "/>
<svg:path d="M81071428 41832380 L81261904 41832380 L81357142 41880000 L81452380 41975238 L81500000 42165714 L81500000 42499047 L81452380 42689523 L81357142 42784761 L81261904 42832380 L81071428 42832380 L80976190 42784761 L80880952 42689523 L80833333 42499047 L80833333 42165714 L80880952 41975238 L80976190 41880000 L81071428 41832380 "/>
<svg:path d="M81928571 42832380 L81928571 41832380 L82500000 42832380 L82500000 41832380 "/>
<svg:path d="M82833333 41832380 L83404761 41832380 "/>
<svg:path d="M83119047 42832380 L83119047 41832380 "/>
<svg:path d="M83690476 42546666 L84166666 42546666 "/>
<svg:path d="M83595238 42832380 L83928571 41832380 L84261904 42832380 "/>
<svg:path d="M85071428 42832380 L84595238 42832380 L84595238 41832380 "/>
</svg:g></svg:g>
<svg:g style="fill:#F2EDA1; fill-opacity:0.0;  stroke:#F2EDA1; stroke-width:120000.000000; stroke-opacity:1;  stroke-linecap:round; stroke-linejoin:round;">
<svg:path d="M56480000 43380000 L90120000 43380000 "/>
<svg:path d="M55580000 55720000 L56480000 56620000 "/>
<svg:path d="M56480000 56620000 L90120000 56620000 "/>
<svg:path d="M90120000 43380000 L90120000 56620000 "/>
<svg:path d="M54680000 43380000 L55580000 44280000 "/>
<svg:path d="M52880000 43380000 L54680000 43380000 "/>
<svg:path d="M91560000 50000000 L90120000 50000000 "/>
<svg:path d="M52880000 43380000 L52880000 56620000 "/>
<svg:path d="M54680000 56620000 L55580000 55720000 "/>
<svg:path d="M50780000 47400000 L52580000 47400000 "/>
<svg:path d="M55580000 44280000 L56480000 43380000 "/>
<svg:path d="M51440000 50000000 L52880000 50000000 "/>
<svg:path d="M51680000 46500000 L51680000 48300000 "/>
<svg:path d="M52880000 56620000 L54680000 56620000 "/>
<svg:g>
</svg:g>
<svg:g>
</svg:g>
<svg:g>
</svg:g>
<svg:g>
</svg:g>
</svg:g>
<svg:g style="fill:#000000; fill-opacity:0.0;  stroke:#000000; stroke-width:120000.000000; stroke-opacity:1;  stroke-linecap:round; stroke-linejoin:round;">
<svg:g>
</svg:g>
<svg:g>
</svg:g>
<svg:g>
</svg:g>
<svg:g>
</svg:g>
</svg:g> 
</svg:g><svg:g><svg:title>SVG Picture created as kicadBoard-Margin.svg date 2022/11/16 21:57:21 </svg:title>
  <svg:desc>Picture generated by PCBNEW </svg:desc>
<svg:g style="fill:#000000; fill-opacity:1.000000;stroke:#000000; stroke-opacity:1.000000; stroke-linecap:round; stroke-linejoin:round;" transform="translate(0 0) scale(1 1)">
</svg:g>
<svg:g style="fill:#000000; fill-opacity:0.0;  stroke:#000000; stroke-width:0.000000; stroke-opacity:1;  stroke-linecap:round; stroke-linejoin:round;">
<svg:g>
</svg:g>
<svg:g>
</svg:g>
<svg:g>
</svg:g>
<svg:g>
</svg:g>
</svg:g>
<svg:g style="fill:#000000; fill-opacity:0.0;  stroke:#000000; stroke-width:0.000000; stroke-opacity:1;  stroke-linecap:round; stroke-linejoin:round;">
<svg:g>
</svg:g>
<svg:g>
</svg:g>
<svg:g>
</svg:g>
<svg:g>
</svg:g>
</svg:g> 
</svg:g><svg:g><svg:title>SVG Picture created as kicadBoard-F_Cu.svg date 2022/11/16 21:57:21 </svg:title>
  <svg:desc>Picture generated by PCBNEW </svg:desc>
<svg:g style="fill:#000000; fill-opacity:1.000000;stroke:#000000; stroke-opacity:1.000000; stroke-linecap:round; stroke-linejoin:round;" transform="translate(0 0) scale(1 1)">
</svg:g>
<svg:g style="fill:#000000; fill-opacity:0.0;  stroke:#000000; stroke-width:0.000000; stroke-opacity:1;  stroke-linecap:round; stroke-linejoin:round;">
<svg:g>
</svg:g>
<svg:g style="fill:#C83434; fill-opacity:0.0;  stroke:#C83434; stroke-width:0.000000; stroke-opacity:1;  stroke-linecap:round; stroke-linejoin:round;">
</svg:g>
<svg:g style="fill:#C83434; fill-opacity:0.0;  stroke:#C83434; stroke-width:1.000000; stroke-opacity:1;  stroke-linecap:round; stroke-linejoin:round;">
</svg:g>
<svg:g style="fill:#C83434; fill-opacity:1.0;  stroke:#C83434; stroke-width:1.000000; stroke-opacity:1;  stroke-linecap:round; stroke-linejoin:round;">
<svg:path style="fill:#C83434; fill-opacity:1.0;  stroke:#C83434; stroke-width:1.000000; stroke-opacity:1;  stroke-linecap:round; stroke-linejoin:round;fill-rule:evenodd;" d="M 48800000.000000,51200000.000000 48800000.000000,48800000.000000 51200000.000000,48800000.000000 51200000.000000,51200000.000000 Z"/> 
<svg:circle cx="93000000.000000" cy="50000000.000000" r="1200000.000000"/> 
</svg:g>
<svg:g>
</svg:g>
<svg:g>
</svg:g>
<svg:g>
</svg:g>
</svg:g>
<svg:g style="fill:#FFFFFF; fill-opacity:1.0;  stroke:#FFFFFF; stroke-width:1.000000; stroke-opacity:1;  stroke-linecap:round; stroke-linejoin:round;">
<svg:circle cx="50000000.000000" cy="50000000.000000" r="600000.000000"/> 
</svg:g>
<svg:g style="fill:#FFFFFF; fill-opacity:1.0;  stroke:#FFFFFF; stroke-width:21200.000000; stroke-opacity:1;  stroke-linecap:round; stroke-linejoin:round;">
</svg:g>
<svg:g style="fill:#FFFFFF; fill-opacity:1.0;  stroke:#FFFFFF; stroke-width:1.000000; stroke-opacity:1;  stroke-linecap:round; stroke-linejoin:round;">
<svg:circle cx="93000000.000000" cy="50000000.000000" r="600000.000000"/> 
</svg:g>
<svg:g style="fill:#FFFFFF; fill-opacity:1.0;  stroke:#FFFFFF; stroke-width:21200.000000; stroke-opacity:1;  stroke-linecap:round; stroke-linejoin:round;">
</svg:g>
<svg:g style="fill:#000000; fill-opacity:1.0;  stroke:#000000; stroke-width:21200.000000; stroke-opacity:1;  stroke-linecap:round; stroke-linejoin:round;">
<svg:g>
</svg:g>
<svg:g>
</svg:g>
<svg:g>
</svg:g>
<svg:g>
</svg:g>
</svg:g> 
</svg:g></svg>
