<?xml version='1.0' encoding='ASCII' standalone='yes'?>
<svg xmlns:svg="http://www.w3.org/2000/svg" xmlns="http://www.w3.org/2000/svg" xmlns:xlink="http://www.w3.org/1999/xlink" version="1.1" width="9.999980cm" height="9.999980cm" viewBox="0 0 99999800 99999800">
<title>SVG Picture created as kicadBoard-B_Cu.svg date 2022/11/18 07:16:58 </title>
  <desc>Picture generated by PCBNEW </desc>
<g style="fill:#000000; fill-opacity:1.000000;stroke:#000000; stroke-opacity:1.000000; stroke-linecap:round; stroke-linejoin:round;" transform="translate(0 0) scale(1 1)">
</g>
<g style="fill:#000000; fill-opacity:0.0;  stroke:#000000; stroke-width:0.000000; stroke-opacity:1;  stroke-linecap:round; stroke-linejoin:round;">
<g>
</g>
<g style="fill:#4D7FC4; fill-opacity:0.0;  stroke:#4D7FC4; stroke-width:0.000000; stroke-opacity:1;  stroke-linecap:round; stroke-linejoin:round;">
</g>
<g style="fill:#4D7FC4; fill-opacity:1.0;  stroke:#4D7FC4; stroke-width:1.000000; stroke-opacity:1;  stroke-linecap:round; stroke-linejoin:round;">
<circle cx="50000000.000000" cy="50000000.000000" r="1200000.000000"/> 
</g>
<g style="fill:#4D7FC4; fill-opacity:1.0;  stroke:#4D7FC4; stroke-width:21200.000000; stroke-opacity:1;  stroke-linecap:round; stroke-linejoin:round;">
</g>
<g style="fill:#4D7FC4; fill-opacity:1.0;  stroke:#4D7FC4; stroke-width:1.000000; stroke-opacity:1;  stroke-linecap:round; stroke-linejoin:round;">
<circle cx="52400000.000000" cy="47700000.000000" r="1200000.000000"/> 
</g>
<g style="fill:#4D7FC4; fill-opacity:1.0;  stroke:#4D7FC4; stroke-width:21200.000000; stroke-opacity:1;  stroke-linecap:round; stroke-linejoin:round;">
</g>
<g>
</g>
<g>
</g>
<g>
</g>
</g>
<g style="fill:#FFFFFF; fill-opacity:1.0;  stroke:#FFFFFF; stroke-width:21200.000000; stroke-opacity:1;  stroke-linecap:round; stroke-linejoin:round;">
</g>
<g style="fill:#FFFFFF; fill-opacity:1.0;  stroke:#FFFFFF; stroke-width:1.000000; stroke-opacity:1;  stroke-linecap:round; stroke-linejoin:round;">
<circle cx="50000000.000000" cy="50000000.000000" r="600000.000000"/> 
</g>
<g style="fill:#FFFFFF; fill-opacity:1.0;  stroke:#FFFFFF; stroke-width:21200.000000; stroke-opacity:1;  stroke-linecap:round; stroke-linejoin:round;">
</g>
<g style="fill:#FFFFFF; fill-opacity:1.0;  stroke:#FFFFFF; stroke-width:1.000000; stroke-opacity:1;  stroke-linecap:round; stroke-linejoin:round;">
<circle cx="52400000.000000" cy="47700000.000000" r="600000.000000"/> 
</g>
<g style="fill:#FFFFFF; fill-opacity:1.0;  stroke:#FFFFFF; stroke-width:21200.000000; stroke-opacity:1;  stroke-linecap:round; stroke-linejoin:round;">
</g>
<g style="fill:#000000; fill-opacity:1.0;  stroke:#000000; stroke-width:21200.000000; stroke-opacity:1;  stroke-linecap:round; stroke-linejoin:round;">
<g>
</g>
<g>
</g>
<g>
</g>
<g>
</g>
</g> 
<svg:g><svg:title>SVG Picture created as kicadBoard-B_Adhesive.svg date 2022/11/18 07:16:58 </svg:title>
  <svg:desc>Picture generated by PCBNEW </svg:desc>
<svg:g style="fill:#000000; fill-opacity:1.000000;stroke:#000000; stroke-opacity:1.000000; stroke-linecap:round; stroke-linejoin:round;" transform="translate(0 0) scale(1 1)">
</svg:g>
<svg:g style="fill:#000000; fill-opacity:0.0;  stroke:#000000; stroke-width:0.000000; stroke-opacity:1;  stroke-linecap:round; stroke-linejoin:round;">
<svg:g>
</svg:g>
<svg:g>
</svg:g>
<svg:g>
</svg:g>
<svg:g>
</svg:g>
</svg:g>
<svg:g style="fill:#000000; fill-opacity:0.0;  stroke:#000000; stroke-width:0.000000; stroke-opacity:1;  stroke-linecap:round; stroke-linejoin:round;">
<svg:g>
</svg:g>
<svg:g>
</svg:g>
<svg:g>
</svg:g>
<svg:g>
</svg:g>
</svg:g> 
</svg:g><svg:g><svg:title>SVG Picture created as kicadBoard-B_Courtyard.svg date 2022/11/18 07:16:58 </svg:title>
  <svg:desc>Picture generated by PCBNEW </svg:desc>
<svg:g style="fill:#000000; fill-opacity:1.000000;stroke:#000000; stroke-opacity:1.000000; stroke-linecap:round; stroke-linejoin:round;" transform="translate(0 0) scale(1 1)">
</svg:g>
<svg:g style="fill:#000000; fill-opacity:0.0;  stroke:#000000; stroke-width:0.000000; stroke-opacity:1;  stroke-linecap:round; stroke-linejoin:round;">
<svg:g>
</svg:g>
<svg:g>
</svg:g>
<svg:g>
</svg:g>
<svg:g>
</svg:g>
</svg:g>
<svg:g style="fill:#000000; fill-opacity:0.0;  stroke:#000000; stroke-width:0.000000; stroke-opacity:1;  stroke-linecap:round; stroke-linejoin:round;">
<svg:g>
</svg:g>
<svg:g>
</svg:g>
<svg:g>
</svg:g>
<svg:g>
</svg:g>
</svg:g> 
</svg:g><svg:g><svg:title>SVG Picture created as kicadBoard-B_Fab.svg date 2022/11/18 07:16:58 </svg:title>
  <svg:desc>Picture generated by PCBNEW </svg:desc>
<svg:g style="fill:#000000; fill-opacity:1.000000;stroke:#000000; stroke-opacity:1.000000; stroke-linecap:round; stroke-linejoin:round;" transform="translate(0 0) scale(1 1)">
</svg:g>
<svg:g style="fill:#000000; fill-opacity:0.0;  stroke:#000000; stroke-width:0.000000; stroke-opacity:1;  stroke-linecap:round; stroke-linejoin:round;">
<svg:g>
</svg:g>
<svg:g>
</svg:g>
<svg:g>
</svg:g>
<svg:g>
</svg:g>
</svg:g>
<svg:g style="fill:#000000; fill-opacity:0.0;  stroke:#000000; stroke-width:0.000000; stroke-opacity:1;  stroke-linecap:round; stroke-linejoin:round;">
<svg:g>
</svg:g>
<svg:g>
</svg:g>
<svg:g>
</svg:g>
<svg:g>
</svg:g>
</svg:g> 
</svg:g><svg:g><svg:title>SVG Picture created as kicadBoard-B_Mask.svg date 2022/11/18 07:16:58 </svg:title>
  <svg:desc>Picture generated by PCBNEW </svg:desc>
<svg:g style="fill:#000000; fill-opacity:1.000000;stroke:#000000; stroke-opacity:1.000000; stroke-linecap:round; stroke-linejoin:round;" transform="translate(0 0) scale(1 1)">
</svg:g>
<svg:g style="fill:#000000; fill-opacity:0.0;  stroke:#000000; stroke-width:0.000000; stroke-opacity:1;  stroke-linecap:round; stroke-linejoin:round;">
<svg:g>
</svg:g>
<svg:g style="fill:#000000; fill-opacity:1.0;  stroke:#000000; stroke-width:1.000000; stroke-opacity:1;  stroke-linecap:round; stroke-linejoin:round;">
<svg:circle cx="50000000.000000" cy="50000000.000000" r="1200000.000000"/> 
</svg:g>
<svg:g style="fill:#000000; fill-opacity:1.0;  stroke:#000000; stroke-width:21200.000000; stroke-opacity:1;  stroke-linecap:round; stroke-linejoin:round;">
</svg:g>
<svg:g style="fill:#000000; fill-opacity:1.0;  stroke:#000000; stroke-width:1.000000; stroke-opacity:1;  stroke-linecap:round; stroke-linejoin:round;">
<svg:circle cx="52400000.000000" cy="47700000.000000" r="1200000.000000"/> 
</svg:g>
<svg:g style="fill:#000000; fill-opacity:1.0;  stroke:#000000; stroke-width:21200.000000; stroke-opacity:1;  stroke-linecap:round; stroke-linejoin:round;">
</svg:g>
<svg:g>
</svg:g>
<svg:g>
</svg:g>
<svg:g>
</svg:g>
</svg:g>
<svg:g style="fill:#000000; fill-opacity:1.0;  stroke:#000000; stroke-width:21200.000000; stroke-opacity:1;  stroke-linecap:round; stroke-linejoin:round;">
<svg:g>
</svg:g>
<svg:g>
</svg:g>
<svg:g>
</svg:g>
<svg:g>
</svg:g>
</svg:g> 
</svg:g><svg:g><svg:title>SVG Picture created as kicadBoard-B_Paste.svg date 2022/11/18 07:16:58 </svg:title>
  <svg:desc>Picture generated by PCBNEW </svg:desc>
<svg:g style="fill:#000000; fill-opacity:1.000000;stroke:#000000; stroke-opacity:1.000000; stroke-linecap:round; stroke-linejoin:round;" transform="translate(0 0) scale(1 1)">
</svg:g>
<svg:g style="fill:#000000; fill-opacity:0.0;  stroke:#000000; stroke-width:0.000000; stroke-opacity:1;  stroke-linecap:round; stroke-linejoin:round;">
<svg:g>
</svg:g>
<svg:g>
</svg:g>
<svg:g>
</svg:g>
<svg:g>
</svg:g>
</svg:g>
<svg:g style="fill:#000000; fill-opacity:0.0;  stroke:#000000; stroke-width:0.000000; stroke-opacity:1;  stroke-linecap:round; stroke-linejoin:round;">
<svg:g>
</svg:g>
<svg:g>
</svg:g>
<svg:g>
</svg:g>
<svg:g>
</svg:g>
</svg:g> 
</svg:g><svg:g><svg:title>SVG Picture created as kicadBoard-B_Silkscreen.svg date 2022/11/18 07:16:58 </svg:title>
  <svg:desc>Picture generated by PCBNEW </svg:desc>
<svg:g style="fill:#000000; fill-opacity:1.000000;stroke:#000000; stroke-opacity:1.000000; stroke-linecap:round; stroke-linejoin:round;" transform="translate(0 0) scale(1 1)">
</svg:g>
<svg:g style="fill:#000000; fill-opacity:0.0;  stroke:#000000; stroke-width:0.000000; stroke-opacity:1;  stroke-linecap:round; stroke-linejoin:round;">
<svg:g>
</svg:g>
<svg:g>
</svg:g>
<svg:g>
</svg:g>
<svg:g>
</svg:g>
</svg:g>
<svg:g style="fill:#000000; fill-opacity:0.0;  stroke:#000000; stroke-width:0.000000; stroke-opacity:1;  stroke-linecap:round; stroke-linejoin:round;">
<svg:g>
</svg:g>
<svg:g>
</svg:g>
<svg:g>
</svg:g>
<svg:g>
</svg:g>
</svg:g> 
</svg:g><svg:g><svg:title>SVG Picture created as kicadBoard-Edge_Cuts.svg date 2022/11/18 07:16:58 </svg:title>
  <svg:desc>Picture generated by PCBNEW </svg:desc>
<svg:g style="fill:#000000; fill-opacity:1.000000;stroke:#000000; stroke-opacity:1.000000; stroke-linecap:round; stroke-linejoin:round;" transform="translate(0 0) scale(1 1)">
</svg:g>
<svg:g style="fill:#000000; fill-opacity:0.0;  stroke:#000000; stroke-width:0.000000; stroke-opacity:1;  stroke-linecap:round; stroke-linejoin:round;">
<svg:g>
</svg:g>
<svg:g>
</svg:g>
<svg:g>
</svg:g>
<svg:g>
</svg:g>
</svg:g> 
</svg:g><svg:g><svg:title>SVG Picture created as kicadBoard-F_Adhesive.svg date 2022/11/18 07:16:58 </svg:title>
  <svg:desc>Picture generated by PCBNEW </svg:desc>
<svg:g style="fill:#000000; fill-opacity:1.000000;stroke:#000000; stroke-opacity:1.000000; stroke-linecap:round; stroke-linejoin:round;" transform="translate(0 0) scale(1 1)">
</svg:g>
<svg:g style="fill:#000000; fill-opacity:0.0;  stroke:#000000; stroke-width:0.000000; stroke-opacity:1;  stroke-linecap:round; stroke-linejoin:round;">
<svg:g>
</svg:g>
<svg:g>
</svg:g>
<svg:g>
</svg:g>
<svg:g>
</svg:g>
</svg:g>
<svg:g style="fill:#000000; fill-opacity:0.0;  stroke:#000000; stroke-width:0.000000; stroke-opacity:1;  stroke-linecap:round; stroke-linejoin:round;">
<svg:g>
</svg:g>
<svg:g>
</svg:g>
<svg:g>
</svg:g>
<svg:g>
</svg:g>
</svg:g> 
</svg:g><svg:g><svg:title>SVG Picture created as kicadBoard-F_Courtyard.svg date 2022/11/18 07:16:58 </svg:title>
  <svg:desc>Picture generated by PCBNEW </svg:desc>
<svg:g style="fill:#000000; fill-opacity:1.000000;stroke:#000000; stroke-opacity:1.000000; stroke-linecap:round; stroke-linejoin:round;" transform="translate(0 0) scale(1 1)">
</svg:g>
<svg:g style="fill:#000000; fill-opacity:0.0;  stroke:#000000; stroke-width:0.000000; stroke-opacity:1;  stroke-linecap:round; stroke-linejoin:round;">
</svg:g>
<svg:g style="fill:#FF26E2; fill-opacity:0.0;  stroke:#FF26E2; stroke-width:0.000000; stroke-opacity:1;  stroke-linecap:round; stroke-linejoin:round;">
</svg:g>
<svg:g style="fill:#FF26E2; fill-opacity:0.0;  stroke:#FF26E2; stroke-width:50000.000000; stroke-opacity:1;  stroke-linecap:round; stroke-linejoin:round;">
<svg:path d="M46250000 45750000 L46250000 54250000 "/>
<svg:path d="M46250000 54250000 L53750000 54250000 "/>
<svg:path d="M53750000 54250000 L53750000 45750000 "/>
<svg:path d="M53750000 45750000 L46250000 45750000 "/>
<svg:g>
</svg:g>
<svg:g>
</svg:g>
<svg:g>
</svg:g>
<svg:g>
</svg:g>
</svg:g>
<svg:g style="fill:#000000; fill-opacity:0.0;  stroke:#000000; stroke-width:50000.000000; stroke-opacity:1;  stroke-linecap:round; stroke-linejoin:round;">
<svg:g>
</svg:g>
<svg:g>
</svg:g>
<svg:g>
</svg:g>
<svg:g>
</svg:g>
</svg:g> 
</svg:g><svg:g><svg:title>SVG Picture created as kicadBoard-F_Cu.svg date 2022/11/18 07:16:58 </svg:title>
  <svg:desc>Picture generated by PCBNEW </svg:desc>
<svg:g style="fill:#000000; fill-opacity:1.000000;stroke:#000000; stroke-opacity:1.000000; stroke-linecap:round; stroke-linejoin:round;" transform="translate(0 0) scale(1 1)">
</svg:g>
<svg:g style="fill:#000000; fill-opacity:0.0;  stroke:#000000; stroke-width:0.000000; stroke-opacity:1;  stroke-linecap:round; stroke-linejoin:round;">
<svg:g>
</svg:g>
<svg:g style="fill:#C83434; fill-opacity:0.0;  stroke:#C83434; stroke-width:0.000000; stroke-opacity:1;  stroke-linecap:round; stroke-linejoin:round;">
</svg:g>
<svg:g style="fill:#C83434; fill-opacity:1.0;  stroke:#C83434; stroke-width:1.000000; stroke-opacity:1;  stroke-linecap:round; stroke-linejoin:round;">
<svg:circle cx="50000000.000000" cy="50000000.000000" r="1200000.000000"/> 
</svg:g>
<svg:g style="fill:#C83434; fill-opacity:1.0;  stroke:#C83434; stroke-width:21200.000000; stroke-opacity:1;  stroke-linecap:round; stroke-linejoin:round;">
</svg:g>
<svg:g style="fill:#C83434; fill-opacity:1.0;  stroke:#C83434; stroke-width:1.000000; stroke-opacity:1;  stroke-linecap:round; stroke-linejoin:round;">
<svg:circle cx="52400000.000000" cy="47700000.000000" r="1200000.000000"/> 
</svg:g>
<svg:g style="fill:#C83434; fill-opacity:1.0;  stroke:#C83434; stroke-width:21200.000000; stroke-opacity:1;  stroke-linecap:round; stroke-linejoin:round;">
</svg:g>
<svg:g>
</svg:g>
<svg:g>
</svg:g>
<svg:g>
</svg:g>
</svg:g>
<svg:g style="fill:#FFFFFF; fill-opacity:1.0;  stroke:#FFFFFF; stroke-width:21200.000000; stroke-opacity:1;  stroke-linecap:round; stroke-linejoin:round;">
</svg:g>
<svg:g style="fill:#FFFFFF; fill-opacity:1.0;  stroke:#FFFFFF; stroke-width:1.000000; stroke-opacity:1;  stroke-linecap:round; stroke-linejoin:round;">
<svg:circle cx="50000000.000000" cy="50000000.000000" r="600000.000000"/> 
</svg:g>
<svg:g style="fill:#FFFFFF; fill-opacity:1.0;  stroke:#FFFFFF; stroke-width:21200.000000; stroke-opacity:1;  stroke-linecap:round; stroke-linejoin:round;">
</svg:g>
<svg:g style="fill:#FFFFFF; fill-opacity:1.0;  stroke:#FFFFFF; stroke-width:1.000000; stroke-opacity:1;  stroke-linecap:round; stroke-linejoin:round;">
<svg:circle cx="52400000.000000" cy="47700000.000000" r="600000.000000"/> 
</svg:g>
<svg:g style="fill:#FFFFFF; fill-opacity:1.0;  stroke:#FFFFFF; stroke-width:21200.000000; stroke-opacity:1;  stroke-linecap:round; stroke-linejoin:round;">
</svg:g>
<svg:g style="fill:#000000; fill-opacity:1.0;  stroke:#000000; stroke-width:21200.000000; stroke-opacity:1;  stroke-linecap:round; stroke-linejoin:round;">
<svg:g>
</svg:g>
<svg:g>
</svg:g>
<svg:g>
</svg:g>
<svg:g>
</svg:g>
</svg:g> 
</svg:g><svg:g><svg:title>SVG Picture created as kicadBoard-F_Fab.svg date 2022/11/18 07:16:58 </svg:title>
  <svg:desc>Picture generated by PCBNEW </svg:desc>
<svg:g style="fill:#000000; fill-opacity:1.000000;stroke:#000000; stroke-opacity:1.000000; stroke-linecap:round; stroke-linejoin:round;" transform="translate(0 0) scale(1 1)">
</svg:g>
<svg:g style="fill:#000000; fill-opacity:0.0;  stroke:#000000; stroke-width:0.000000; stroke-opacity:1;  stroke-linecap:round; stroke-linejoin:round;">
</svg:g>
<svg:g style="fill:#AFAFAF; fill-opacity:0.0;  stroke:#AFAFAF; stroke-width:0.000000; stroke-opacity:1;  stroke-linecap:round; stroke-linejoin:round;">
</svg:g>
<svg:g style="fill:#AFAFAF; fill-opacity:0.0;  stroke:#AFAFAF; stroke-width:150000.000000; stroke-opacity:1;  stroke-linecap:round; stroke-linejoin:round;">
<svg:text x="50000000.000000" y="55750000.000000" textLength="42528333.000000" font-size="1333333.000000" lengthAdjust="spacingAndGlyphs" text-anchor="middle" opacity="0">R_Radial_Power_L7.0mm_W8.0mm_Px2.40mm_Py2.30mm</svg:text>
<svg:g class="stroked-text"><svg:desc>R_Radial_Power_L7.0mm_W8.0mm_Px2.40mm_Py2.30mm</svg:desc>
<svg:path d="M29642857 55702380 L29309523 55226190 "/>
<svg:path d="M29071428 55702380 L29071428 54702380 L29452380 54702380 L29547619 54750000 L29595238 54797619 L29642857 54892857 L29642857 55035714 L29595238 55130952 L29547619 55178571 L29452380 55226190 L29071428 55226190 "/>
<svg:path d="M29833333 55797619 L30595238 55797619 "/>
<svg:path d="M31404761 55702380 L31071428 55226190 "/>
<svg:path d="M30833333 55702380 L30833333 54702380 L31214285 54702380 L31309523 54750000 L31357142 54797619 L31404761 54892857 L31404761 55035714 L31357142 55130952 L31309523 55178571 L31214285 55226190 L30833333 55226190 "/>
<svg:path d="M32261904 55702380 L32261904 55178571 L32214285 55083333 L32119047 55035714 L31928571 55035714 L31833333 55083333 "/>
<svg:path d="M32261904 55654761 L32166666 55702380 L31928571 55702380 L31833333 55654761 L31785714 55559523 L31785714 55464285 L31833333 55369047 L31928571 55321428 L32166666 55321428 L32261904 55273809 "/>
<svg:path d="M33166666 55702380 L33166666 54702380 "/>
<svg:path d="M33166666 55654761 L33071428 55702380 L32880952 55702380 L32785714 55654761 L32738095 55607142 L32690476 55511904 L32690476 55226190 L32738095 55130952 L32785714 55083333 L32880952 55035714 L33071428 55035714 L33166666 55083333 "/>
<svg:path d="M33642857 55702380 L33642857 55035714 "/>
<svg:path d="M33642857 54702380 L33595238 54750000 L33642857 54797619 L33690476 54750000 L33642857 54702380 L33642857 54797619 "/>
<svg:path d="M34547619 55702380 L34547619 55178571 L34500000 55083333 L34404761 55035714 L34214285 55035714 L34119047 55083333 "/>
<svg:path d="M34547619 55654761 L34452380 55702380 L34214285 55702380 L34119047 55654761 L34071428 55559523 L34071428 55464285 L34119047 55369047 L34214285 55321428 L34452380 55321428 L34547619 55273809 "/>
<svg:path d="M35166666 55702380 L35071428 55654761 L35023809 55559523 L35023809 54702380 "/>
<svg:path d="M35309523 55797619 L36071428 55797619 "/>
<svg:path d="M36309523 55702380 L36309523 54702380 L36690476 54702380 L36785714 54750000 L36833333 54797619 L36880952 54892857 L36880952 55035714 L36833333 55130952 L36785714 55178571 L36690476 55226190 L36309523 55226190 "/>
<svg:path d="M37452380 55702380 L37357142 55654761 L37309523 55607142 L37261904 55511904 L37261904 55226190 L37309523 55130952 L37357142 55083333 L37452380 55035714 L37595238 55035714 L37690476 55083333 L37738095 55130952 L37785714 55226190 L37785714 55511904 L37738095 55607142 L37690476 55654761 L37595238 55702380 L37452380 55702380 "/>
<svg:path d="M38119047 55035714 L38309523 55702380 L38500000 55226190 L38690476 55702380 L38880952 55035714 "/>
<svg:path d="M39642857 55654761 L39547619 55702380 L39357142 55702380 L39261904 55654761 L39214285 55559523 L39214285 55178571 L39261904 55083333 L39357142 55035714 L39547619 55035714 L39642857 55083333 L39690476 55178571 L39690476 55273809 L39214285 55369047 "/>
<svg:path d="M40119047 55702380 L40119047 55035714 "/>
<svg:path d="M40119047 55226190 L40166666 55130952 L40214285 55083333 L40309523 55035714 L40404761 55035714 "/>
<svg:path d="M40500000 55797619 L41261904 55797619 "/>
<svg:path d="M41976190 55702380 L41500000 55702380 L41500000 54702380 "/>
<svg:path d="M42214285 54702380 L42880952 54702380 L42452380 55702380 "/>
<svg:path d="M43261904 55607142 L43309523 55654761 L43261904 55702380 L43214285 55654761 L43261904 55607142 L43261904 55702380 "/>
<svg:path d="M43928571 54702380 L44023809 54702380 L44119047 54750000 L44166666 54797619 L44214285 54892857 L44261904 55083333 L44261904 55321428 L44214285 55511904 L44166666 55607142 L44119047 55654761 L44023809 55702380 L43928571 55702380 L43833333 55654761 L43785714 55607142 L43738095 55511904 L43690476 55321428 L43690476 55083333 L43738095 54892857 L43785714 54797619 L43833333 54750000 L43928571 54702380 "/>
<svg:path d="M44690476 55702380 L44690476 55035714 "/>
<svg:path d="M44690476 55130952 L44738095 55083333 L44833333 55035714 L44976190 55035714 L45071428 55083333 L45119047 55178571 L45119047 55702380 "/>
<svg:path d="M45119047 55178571 L45166666 55083333 L45261904 55035714 L45404761 55035714 L45500000 55083333 L45547619 55178571 L45547619 55702380 "/>
<svg:path d="M46023809 55702380 L46023809 55035714 "/>
<svg:path d="M46023809 55130952 L46071428 55083333 L46166666 55035714 L46309523 55035714 L46404761 55083333 L46452380 55178571 L46452380 55702380 "/>
<svg:path d="M46452380 55178571 L46500000 55083333 L46595238 55035714 L46738095 55035714 L46833333 55083333 L46880952 55178571 L46880952 55702380 "/>
<svg:path d="M47119047 55797619 L47880952 55797619 "/>
<svg:path d="M48023809 54702380 L48261904 55702380 L48452380 54988095 L48642857 55702380 L48880952 54702380 "/>
<svg:path d="M49404761 55130952 L49309523 55083333 L49261904 55035714 L49214285 54940476 L49214285 54892857 L49261904 54797619 L49309523 54750000 L49404761 54702380 L49595238 54702380 L49690476 54750000 L49738095 54797619 L49785714 54892857 L49785714 54940476 L49738095 55035714 L49690476 55083333 L49595238 55130952 L49404761 55130952 L49309523 55178571 L49261904 55226190 L49214285 55321428 L49214285 55511904 L49261904 55607142 L49309523 55654761 L49404761 55702380 L49595238 55702380 L49690476 55654761 L49738095 55607142 L49785714 55511904 L49785714 55321428 L49738095 55226190 L49690476 55178571 L49595238 55130952 "/>
<svg:path d="M50214285 55607142 L50261904 55654761 L50214285 55702380 L50166666 55654761 L50214285 55607142 L50214285 55702380 "/>
<svg:path d="M50880952 54702380 L50976190 54702380 L51071428 54750000 L51119047 54797619 L51166666 54892857 L51214285 55083333 L51214285 55321428 L51166666 55511904 L51119047 55607142 L51071428 55654761 L50976190 55702380 L50880952 55702380 L50785714 55654761 L50738095 55607142 L50690476 55511904 L50642857 55321428 L50642857 55083333 L50690476 54892857 L50738095 54797619 L50785714 54750000 L50880952 54702380 "/>
<svg:path d="M51642857 55702380 L51642857 55035714 "/>
<svg:path d="M51642857 55130952 L51690476 55083333 L51785714 55035714 L51928571 55035714 L52023809 55083333 L52071428 55178571 L52071428 55702380 "/>
<svg:path d="M52071428 55178571 L52119047 55083333 L52214285 55035714 L52357142 55035714 L52452380 55083333 L52500000 55178571 L52500000 55702380 "/>
<svg:path d="M52976190 55702380 L52976190 55035714 "/>
<svg:path d="M52976190 55130952 L53023809 55083333 L53119047 55035714 L53261904 55035714 L53357142 55083333 L53404761 55178571 L53404761 55702380 "/>
<svg:path d="M53404761 55178571 L53452380 55083333 L53547619 55035714 L53690476 55035714 L53785714 55083333 L53833333 55178571 L53833333 55702380 "/>
<svg:path d="M54071428 55797619 L54833333 55797619 "/>
<svg:path d="M55071428 55702380 L55071428 54702380 L55452380 54702380 L55547619 54750000 L55595238 54797619 L55642857 54892857 L55642857 55035714 L55595238 55130952 L55547619 55178571 L55452380 55226190 L55071428 55226190 "/>
<svg:path d="M55976190 55702380 L56500000 55035714 "/>
<svg:path d="M55976190 55035714 L56500000 55702380 "/>
<svg:path d="M56833333 54797619 L56880952 54750000 L56976190 54702380 L57214285 54702380 L57309523 54750000 L57357142 54797619 L57404761 54892857 L57404761 54988095 L57357142 55130952 L56785714 55702380 L57404761 55702380 "/>
<svg:path d="M57833333 55607142 L57880952 55654761 L57833333 55702380 L57785714 55654761 L57833333 55607142 L57833333 55702380 "/>
<svg:path d="M58738095 55035714 L58738095 55702380 "/>
<svg:path d="M58500000 54654761 L58261904 55369047 L58880952 55369047 "/>
<svg:path d="M59452380 54702380 L59547619 54702380 L59642857 54750000 L59690476 54797619 L59738095 54892857 L59785714 55083333 L59785714 55321428 L59738095 55511904 L59690476 55607142 L59642857 55654761 L59547619 55702380 L59452380 55702380 L59357142 55654761 L59309523 55607142 L59261904 55511904 L59214285 55321428 L59214285 55083333 L59261904 54892857 L59309523 54797619 L59357142 54750000 L59452380 54702380 "/>
<svg:path d="M60214285 55702380 L60214285 55035714 "/>
<svg:path d="M60214285 55130952 L60261904 55083333 L60357142 55035714 L60499999 55035714 L60595238 55083333 L60642857 55178571 L60642857 55702380 "/>
<svg:path d="M60642857 55178571 L60690476 55083333 L60785714 55035714 L60928571 55035714 L61023809 55083333 L61071428 55178571 L61071428 55702380 "/>
<svg:path d="M61547619 55702380 L61547619 55035714 "/>
<svg:path d="M61547619 55130952 L61595238 55083333 L61690476 55035714 L61833333 55035714 L61928571 55083333 L61976190 55178571 L61976190 55702380 "/>
<svg:path d="M61976190 55178571 L62023809 55083333 L62119047 55035714 L62261904 55035714 L62357142 55083333 L62404761 55178571 L62404761 55702380 "/>
<svg:path d="M62642857 55797619 L63404761 55797619 "/>
<svg:path d="M63642857 55702380 L63642857 54702380 L64023809 54702380 L64119047 54750000 L64166666 54797619 L64214285 54892857 L64214285 55035714 L64166666 55130952 L64119047 55178571 L64023809 55226190 L63642857 55226190 "/>
<svg:path d="M64547619 55035714 L64785714 55702380 "/>
<svg:path d="M65023809 55035714 L64785714 55702380 L64690476 55940476 L64642857 55988095 L64547619 56035714 "/>
<svg:path d="M65357142 54797619 L65404761 54750000 L65500000 54702380 L65738095 54702380 L65833333 54750000 L65880952 54797619 L65928571 54892857 L65928571 54988095 L65880952 55130952 L65309523 55702380 L65928571 55702380 "/>
<svg:path d="M66357142 55607142 L66404761 55654761 L66357142 55702380 L66309523 55654761 L66357142 55607142 L66357142 55702380 "/>
<svg:path d="M66738095 54702380 L67357142 54702380 L67023809 55083333 L67166666 55083333 L67261904 55130952 L67309523 55178571 L67357142 55273809 L67357142 55511904 L67309523 55607142 L67261904 55654761 L67166666 55702380 L66880952 55702380 L66785714 55654761 L66738095 55607142 "/>
<svg:path d="M67976190 54702380 L68071428 54702380 L68166666 54750000 L68214285 54797619 L68261904 54892857 L68309523 55083333 L68309523 55321428 L68261904 55511904 L68214285 55607142 L68166666 55654761 L68071428 55702380 L67976190 55702380 L67880952 55654761 L67833333 55607142 L67785714 55511904 L67738095 55321428 L67738095 55083333 L67785714 54892857 L67833333 54797619 L67880952 54750000 L67976190 54702380 "/>
<svg:path d="M68738095 55702380 L68738095 55035714 "/>
<svg:path d="M68738095 55130952 L68785714 55083333 L68880952 55035714 L69023809 55035714 L69119047 55083333 L69166666 55178571 L69166666 55702380 "/>
<svg:path d="M69166666 55178571 L69214285 55083333 L69309523 55035714 L69452380 55035714 L69547619 55083333 L69595238 55178571 L69595238 55702380 "/>
<svg:path d="M70071428 55702380 L70071428 55035714 "/>
<svg:path d="M70071428 55130952 L70119047 55083333 L70214285 55035714 L70357142 55035714 L70452380 55083333 L70500000 55178571 L70500000 55702380 "/>
<svg:path d="M70500000 55178571 L70547619 55083333 L70642857 55035714 L70785714 55035714 L70880952 55083333 L70928571 55178571 L70928571 55702380 "/>
</svg:g><svg:text x="51200000.000000" y="50500000.000000" textLength="22575952.000000" font-size="1333333.000000" lengthAdjust="spacingAndGlyphs" text-anchor="middle" opacity="0">FZKRRRPOWERL7W8PX24PY23</svg:text>
<svg:g class="stroked-text"><svg:desc>FZKRRRPOWERL7W8PX24PY23</svg:desc>
<svg:path d="M40580952 49928571 L40247619 49928571 "/>
<svg:path d="M40247619 50452380 L40247619 49452380 L40723809 49452380 "/>
<svg:path d="M41009523 49452380 L41676190 49452380 L41009523 50452380 L41676190 50452380 "/>
<svg:path d="M42057142 50452380 L42057142 49452380 "/>
<svg:path d="M42628571 50452380 L42200000 49880952 "/>
<svg:path d="M42628571 49452380 L42057142 50023809 "/>
<svg:path d="M43628571 50452380 L43295238 49976190 "/>
<svg:path d="M43057142 50452380 L43057142 49452380 L43438095 49452380 L43533333 49500000 L43580952 49547619 L43628571 49642857 L43628571 49785714 L43580952 49880952 L43533333 49928571 L43438095 49976190 L43057142 49976190 "/>
<svg:path d="M44628571 50452380 L44295238 49976190 "/>
<svg:path d="M44057142 50452380 L44057142 49452380 L44438095 49452380 L44533333 49500000 L44580952 49547619 L44628571 49642857 L44628571 49785714 L44580952 49880952 L44533333 49928571 L44438095 49976190 L44057142 49976190 "/>
<svg:path d="M45628571 50452380 L45295238 49976190 "/>
<svg:path d="M45057142 50452380 L45057142 49452380 L45438095 49452380 L45533333 49500000 L45580952 49547619 L45628571 49642857 L45628571 49785714 L45580952 49880952 L45533333 49928571 L45438095 49976190 L45057142 49976190 "/>
<svg:path d="M46057142 50452380 L46057142 49452380 L46438095 49452380 L46533333 49500000 L46580952 49547619 L46628571 49642857 L46628571 49785714 L46580952 49880952 L46533333 49928571 L46438095 49976190 L46057142 49976190 "/>
<svg:path d="M47247619 49452380 L47438095 49452380 L47533333 49500000 L47628571 49595238 L47676190 49785714 L47676190 50119047 L47628571 50309523 L47533333 50404761 L47438095 50452380 L47247619 50452380 L47152380 50404761 L47057142 50309523 L47009523 50119047 L47009523 49785714 L47057142 49595238 L47152380 49500000 L47247619 49452380 "/>
<svg:path d="M48009523 49452380 L48247619 50452380 L48438095 49738095 L48628571 50452380 L48866666 49452380 "/>
<svg:path d="M49247619 49928571 L49580952 49928571 "/>
<svg:path d="M49723809 50452380 L49247619 50452380 L49247619 49452380 L49723809 49452380 "/>
<svg:path d="M50723809 50452380 L50390476 49976190 "/>
<svg:path d="M50152380 50452380 L50152380 49452380 L50533333 49452380 L50628571 49500000 L50676190 49547619 L50723809 49642857 L50723809 49785714 L50676190 49880952 L50628571 49928571 L50533333 49976190 L50152380 49976190 "/>
<svg:path d="M51628571 50452380 L51152380 50452380 L51152380 49452380 "/>
<svg:path d="M51866666 49452380 L52533333 49452380 L52104761 50452380 "/>
<svg:path d="M52819047 49452380 L53057142 50452380 L53247619 49738095 L53438095 50452380 L53676190 49452380 "/>
<svg:path d="M54200000 49880952 L54104761 49833333 L54057142 49785714 L54009523 49690476 L54009523 49642857 L54057142 49547619 L54104761 49500000 L54200000 49452380 L54390476 49452380 L54485714 49500000 L54533333 49547619 L54580952 49642857 L54580952 49690476 L54533333 49785714 L54485714 49833333 L54390476 49880952 L54200000 49880952 L54104761 49928571 L54057142 49976190 L54009523 50071428 L54009523 50261904 L54057142 50357142 L54104761 50404761 L54200000 50452380 L54390476 50452380 L54485714 50404761 L54533333 50357142 L54580952 50261904 L54580952 50071428 L54533333 49976190 L54485714 49928571 L54390476 49880952 "/>
<svg:path d="M55009523 50452380 L55009523 49452380 L55390476 49452380 L55485714 49500000 L55533333 49547619 L55580952 49642857 L55580952 49785714 L55533333 49880952 L55485714 49928571 L55390476 49976190 L55009523 49976190 "/>
<svg:path d="M55914285 49452380 L56580952 50452380 "/>
<svg:path d="M56580952 49452380 L55914285 50452380 "/>
<svg:path d="M56914285 49547619 L56961904 49500000 L57057142 49452380 L57295238 49452380 L57390476 49500000 L57438095 49547619 L57485714 49642857 L57485714 49738095 L57438095 49880952 L56866666 50452380 L57485714 50452380 "/>
<svg:path d="M58342857 49785714 L58342857 50452380 "/>
<svg:path d="M58104761 49404761 L57866666 50119047 L58485714 50119047 "/>
<svg:path d="M58866666 50452380 L58866666 49452380 L59247619 49452380 L59342857 49500000 L59390476 49547619 L59438095 49642857 L59438095 49785714 L59390476 49880952 L59342857 49928571 L59247619 49976190 L58866666 49976190 "/>
<svg:path d="M60057142 49976190 L60057142 50452380 "/>
<svg:path d="M59723809 49452380 L60057142 49976190 L60390476 49452380 "/>
<svg:path d="M60676190 49547619 L60723809 49500000 L60819047 49452380 L61057142 49452380 L61152380 49500000 L61199999 49547619 L61247619 49642857 L61247619 49738095 L61199999 49880952 L60628571 50452380 L61247619 50452380 "/>
<svg:path d="M61580952 49452380 L62199999 49452380 L61866666 49833333 L62009523 49833333 L62104761 49880952 L62152380 49928571 L62199999 50023809 L62199999 50261904 L62152380 50357142 L62104761 50404761 L62009523 50452380 L61723809 50452380 L61628571 50404761 L61580952 50357142 "/>
</svg:g></svg:g>
<svg:g style="fill:#AFAFAF; fill-opacity:0.0;  stroke:#AFAFAF; stroke-width:100000.000000; stroke-opacity:1;  stroke-linecap:round; stroke-linejoin:round;">
<svg:path d="M46500000 46000000 L46500000 54000000 "/>
<svg:path d="M53500000 54000000 L53500000 46000000 "/>
<svg:path d="M53500000 46000000 L46500000 46000000 "/>
<svg:path d="M46500000 54000000 L53500000 54000000 "/>
<svg:g>
</svg:g>
<svg:g>
</svg:g>
<svg:g>
</svg:g>
<svg:g>
</svg:g>
</svg:g>
<svg:g style="fill:#000000; fill-opacity:0.0;  stroke:#000000; stroke-width:100000.000000; stroke-opacity:1;  stroke-linecap:round; stroke-linejoin:round;">
<svg:g>
</svg:g>
<svg:g>
</svg:g>
<svg:g>
</svg:g>
<svg:g>
</svg:g>
</svg:g> 
</svg:g><svg:g><svg:title>SVG Picture created as kicadBoard-F_Mask.svg date 2022/11/18 07:16:58 </svg:title>
  <svg:desc>Picture generated by PCBNEW </svg:desc>
<svg:g style="fill:#000000; fill-opacity:1.000000;stroke:#000000; stroke-opacity:1.000000; stroke-linecap:round; stroke-linejoin:round;" transform="translate(0 0) scale(1 1)">
</svg:g>
<svg:g style="fill:#000000; fill-opacity:0.0;  stroke:#000000; stroke-width:0.000000; stroke-opacity:1;  stroke-linecap:round; stroke-linejoin:round;">
<svg:g>
</svg:g>
<svg:g style="fill:#000000; fill-opacity:1.0;  stroke:#000000; stroke-width:1.000000; stroke-opacity:1;  stroke-linecap:round; stroke-linejoin:round;">
<svg:circle cx="50000000.000000" cy="50000000.000000" r="1200000.000000"/> 
</svg:g>
<svg:g style="fill:#000000; fill-opacity:1.0;  stroke:#000000; stroke-width:21200.000000; stroke-opacity:1;  stroke-linecap:round; stroke-linejoin:round;">
</svg:g>
<svg:g style="fill:#000000; fill-opacity:1.0;  stroke:#000000; stroke-width:1.000000; stroke-opacity:1;  stroke-linecap:round; stroke-linejoin:round;">
<svg:circle cx="52400000.000000" cy="47700000.000000" r="1200000.000000"/> 
</svg:g>
<svg:g style="fill:#000000; fill-opacity:1.0;  stroke:#000000; stroke-width:21200.000000; stroke-opacity:1;  stroke-linecap:round; stroke-linejoin:round;">
</svg:g>
<svg:g>
</svg:g>
<svg:g>
</svg:g>
<svg:g>
</svg:g>
</svg:g>
<svg:g style="fill:#000000; fill-opacity:1.0;  stroke:#000000; stroke-width:21200.000000; stroke-opacity:1;  stroke-linecap:round; stroke-linejoin:round;">
<svg:g>
</svg:g>
<svg:g>
</svg:g>
<svg:g>
</svg:g>
<svg:g>
</svg:g>
</svg:g> 
</svg:g><svg:g><svg:title>SVG Picture created as kicadBoard-F_Paste.svg date 2022/11/18 07:16:58 </svg:title>
  <svg:desc>Picture generated by PCBNEW </svg:desc>
<svg:g style="fill:#000000; fill-opacity:1.000000;stroke:#000000; stroke-opacity:1.000000; stroke-linecap:round; stroke-linejoin:round;" transform="translate(0 0) scale(1 1)">
</svg:g>
<svg:g style="fill:#000000; fill-opacity:0.0;  stroke:#000000; stroke-width:0.000000; stroke-opacity:1;  stroke-linecap:round; stroke-linejoin:round;">
<svg:g>
</svg:g>
<svg:g>
</svg:g>
<svg:g>
</svg:g>
<svg:g>
</svg:g>
</svg:g>
<svg:g style="fill:#000000; fill-opacity:0.0;  stroke:#000000; stroke-width:0.000000; stroke-opacity:1;  stroke-linecap:round; stroke-linejoin:round;">
<svg:g>
</svg:g>
<svg:g>
</svg:g>
<svg:g>
</svg:g>
<svg:g>
</svg:g>
</svg:g> 
</svg:g><svg:g><svg:title>SVG Picture created as kicadBoard-F_Silkscreen.svg date 2022/11/18 07:16:58 </svg:title>
  <svg:desc>Picture generated by PCBNEW </svg:desc>
<svg:g style="fill:#000000; fill-opacity:1.000000;stroke:#000000; stroke-opacity:1.000000; stroke-linecap:round; stroke-linejoin:round;" transform="translate(0 0) scale(1 1)">
</svg:g>
<svg:g style="fill:#000000; fill-opacity:0.0;  stroke:#000000; stroke-width:0.000000; stroke-opacity:1;  stroke-linecap:round; stroke-linejoin:round;">
</svg:g>
<svg:g style="fill:#F2EDA1; fill-opacity:0.0;  stroke:#F2EDA1; stroke-width:0.000000; stroke-opacity:1;  stroke-linecap:round; stroke-linejoin:round;">
</svg:g>
<svg:g style="fill:#F2EDA1; fill-opacity:0.0;  stroke:#F2EDA1; stroke-width:150000.000000; stroke-opacity:1;  stroke-linecap:round; stroke-linejoin:round;">
<svg:text x="50000000.000000" y="45250000.000000" textLength="22380953.000000" font-size="1333333.000000" lengthAdjust="spacingAndGlyphs" text-anchor="middle" opacity="0">FZKRRRPOWERL7W8PX24PY23</svg:text>
<svg:g class="stroked-text"><svg:desc>FZKRRRPOWERL7W8PX24PY23</svg:desc>
<svg:path d="M39380952 44678571 L39047619 44678571 "/>
<svg:path d="M39047619 45202380 L39047619 44202380 L39523809 44202380 "/>
<svg:path d="M39809523 44202380 L40476190 44202380 L39809523 45202380 L40476190 45202380 "/>
<svg:path d="M40857142 45202380 L40857142 44202380 "/>
<svg:path d="M41428571 45202380 L41000000 44630952 "/>
<svg:path d="M41428571 44202380 L40857142 44773809 "/>
<svg:path d="M42428571 45202380 L42095238 44726190 "/>
<svg:path d="M41857142 45202380 L41857142 44202380 L42238095 44202380 L42333333 44250000 L42380952 44297619 L42428571 44392857 L42428571 44535714 L42380952 44630952 L42333333 44678571 L42238095 44726190 L41857142 44726190 "/>
<svg:path d="M43428571 45202380 L43095238 44726190 "/>
<svg:path d="M42857142 45202380 L42857142 44202380 L43238095 44202380 L43333333 44250000 L43380952 44297619 L43428571 44392857 L43428571 44535714 L43380952 44630952 L43333333 44678571 L43238095 44726190 L42857142 44726190 "/>
<svg:path d="M44428571 45202380 L44095238 44726190 "/>
<svg:path d="M43857142 45202380 L43857142 44202380 L44238095 44202380 L44333333 44250000 L44380952 44297619 L44428571 44392857 L44428571 44535714 L44380952 44630952 L44333333 44678571 L44238095 44726190 L43857142 44726190 "/>
<svg:path d="M44857142 45202380 L44857142 44202380 L45238095 44202380 L45333333 44250000 L45380952 44297619 L45428571 44392857 L45428571 44535714 L45380952 44630952 L45333333 44678571 L45238095 44726190 L44857142 44726190 "/>
<svg:path d="M46047619 44202380 L46238095 44202380 L46333333 44250000 L46428571 44345238 L46476190 44535714 L46476190 44869047 L46428571 45059523 L46333333 45154761 L46238095 45202380 L46047619 45202380 L45952380 45154761 L45857142 45059523 L45809523 44869047 L45809523 44535714 L45857142 44345238 L45952380 44250000 L46047619 44202380 "/>
<svg:path d="M46809523 44202380 L47047619 45202380 L47238095 44488095 L47428571 45202380 L47666666 44202380 "/>
<svg:path d="M48047619 44678571 L48380952 44678571 "/>
<svg:path d="M48523809 45202380 L48047619 45202380 L48047619 44202380 L48523809 44202380 "/>
<svg:path d="M49523809 45202380 L49190476 44726190 "/>
<svg:path d="M48952380 45202380 L48952380 44202380 L49333333 44202380 L49428571 44250000 L49476190 44297619 L49523809 44392857 L49523809 44535714 L49476190 44630952 L49428571 44678571 L49333333 44726190 L48952380 44726190 "/>
<svg:path d="M50428571 45202380 L49952380 45202380 L49952380 44202380 "/>
<svg:path d="M50666666 44202380 L51333333 44202380 L50904761 45202380 "/>
<svg:path d="M51619047 44202380 L51857142 45202380 L52047619 44488095 L52238095 45202380 L52476190 44202380 "/>
<svg:path d="M53000000 44630952 L52904761 44583333 L52857142 44535714 L52809523 44440476 L52809523 44392857 L52857142 44297619 L52904761 44250000 L53000000 44202380 L53190476 44202380 L53285714 44250000 L53333333 44297619 L53380952 44392857 L53380952 44440476 L53333333 44535714 L53285714 44583333 L53190476 44630952 L53000000 44630952 L52904761 44678571 L52857142 44726190 L52809523 44821428 L52809523 45011904 L52857142 45107142 L52904761 45154761 L53000000 45202380 L53190476 45202380 L53285714 45154761 L53333333 45107142 L53380952 45011904 L53380952 44821428 L53333333 44726190 L53285714 44678571 L53190476 44630952 "/>
<svg:path d="M53809523 45202380 L53809523 44202380 L54190476 44202380 L54285714 44250000 L54333333 44297619 L54380952 44392857 L54380952 44535714 L54333333 44630952 L54285714 44678571 L54190476 44726190 L53809523 44726190 "/>
<svg:path d="M54714285 44202380 L55380952 45202380 "/>
<svg:path d="M55380952 44202380 L54714285 45202380 "/>
<svg:path d="M55714285 44297619 L55761904 44250000 L55857142 44202380 L56095238 44202380 L56190476 44250000 L56238095 44297619 L56285714 44392857 L56285714 44488095 L56238095 44630952 L55666666 45202380 L56285714 45202380 "/>
<svg:path d="M57142857 44535714 L57142857 45202380 "/>
<svg:path d="M56904761 44154761 L56666666 44869047 L57285714 44869047 "/>
<svg:path d="M57666666 45202380 L57666666 44202380 L58047619 44202380 L58142857 44250000 L58190476 44297619 L58238095 44392857 L58238095 44535714 L58190476 44630952 L58142857 44678571 L58047619 44726190 L57666666 44726190 "/>
<svg:path d="M58857142 44726190 L58857142 45202380 "/>
<svg:path d="M58523809 44202380 L58857142 44726190 L59190476 44202380 "/>
<svg:path d="M59476190 44297619 L59523809 44250000 L59619047 44202380 L59857142 44202380 L59952380 44250000 L59999999 44297619 L60047619 44392857 L60047619 44488095 L59999999 44630952 L59428571 45202380 L60047619 45202380 "/>
<svg:path d="M60380952 44202380 L60999999 44202380 L60666666 44583333 L60809523 44583333 L60904761 44630952 L60952380 44678571 L60999999 44773809 L60999999 45011904 L60952380 45107142 L60904761 45154761 L60809523 45202380 L60523809 45202380 L60428571 45154761 L60380952 45107142 "/>
</svg:g></svg:g>
<svg:g style="fill:#F2EDA1; fill-opacity:0.0;  stroke:#F2EDA1; stroke-width:120000.000000; stroke-opacity:1;  stroke-linecap:round; stroke-linejoin:round;">
<svg:path d="M46380000 45880000 L53620000 45880000 "/>
<svg:path d="M46380000 54120000 L53620000 54120000 "/>
<svg:path d="M46380000 45880000 L46380000 54120000 "/>
<svg:path d="M53620000 48525000 L53620000 54120000 "/>
<svg:path d="M53620000 45880000 L53620000 46875000 "/>
<svg:g>
</svg:g>
<svg:g>
</svg:g>
<svg:g>
</svg:g>
<svg:g>
</svg:g>
</svg:g>
<svg:g style="fill:#000000; fill-opacity:0.0;  stroke:#000000; stroke-width:120000.000000; stroke-opacity:1;  stroke-linecap:round; stroke-linejoin:round;">
<svg:g>
</svg:g>
<svg:g>
</svg:g>
<svg:g>
</svg:g>
<svg:g>
</svg:g>
</svg:g> 
</svg:g><svg:g><svg:title>SVG Picture created as kicadBoard-Margin.svg date 2022/11/18 07:16:58 </svg:title>
  <svg:desc>Picture generated by PCBNEW </svg:desc>
<svg:g style="fill:#000000; fill-opacity:1.000000;stroke:#000000; stroke-opacity:1.000000; stroke-linecap:round; stroke-linejoin:round;" transform="translate(0 0) scale(1 1)">
</svg:g>
<svg:g style="fill:#000000; fill-opacity:0.0;  stroke:#000000; stroke-width:0.000000; stroke-opacity:1;  stroke-linecap:round; stroke-linejoin:round;">
<svg:g>
</svg:g>
<svg:g>
</svg:g>
<svg:g>
</svg:g>
<svg:g>
</svg:g>
</svg:g>
<svg:g style="fill:#000000; fill-opacity:0.0;  stroke:#000000; stroke-width:0.000000; stroke-opacity:1;  stroke-linecap:round; stroke-linejoin:round;">
<svg:g>
</svg:g>
<svg:g>
</svg:g>
<svg:g>
</svg:g>
<svg:g>
</svg:g>
</svg:g> 
</svg:g><svg:g><svg:title>SVG Picture created as kicadBoard-F_Cu.svg date 2022/11/18 07:16:58 </svg:title>
  <svg:desc>Picture generated by PCBNEW </svg:desc>
<svg:g style="fill:#000000; fill-opacity:1.000000;stroke:#000000; stroke-opacity:1.000000; stroke-linecap:round; stroke-linejoin:round;" transform="translate(0 0) scale(1 1)">
</svg:g>
<svg:g style="fill:#000000; fill-opacity:0.0;  stroke:#000000; stroke-width:0.000000; stroke-opacity:1;  stroke-linecap:round; stroke-linejoin:round;">
<svg:g>
</svg:g>
<svg:g style="fill:#C83434; fill-opacity:0.0;  stroke:#C83434; stroke-width:0.000000; stroke-opacity:1;  stroke-linecap:round; stroke-linejoin:round;">
</svg:g>
<svg:g style="fill:#C83434; fill-opacity:1.0;  stroke:#C83434; stroke-width:1.000000; stroke-opacity:1;  stroke-linecap:round; stroke-linejoin:round;">
<svg:circle cx="50000000.000000" cy="50000000.000000" r="1200000.000000"/> 
</svg:g>
<svg:g style="fill:#C83434; fill-opacity:1.0;  stroke:#C83434; stroke-width:21200.000000; stroke-opacity:1;  stroke-linecap:round; stroke-linejoin:round;">
</svg:g>
<svg:g style="fill:#C83434; fill-opacity:1.0;  stroke:#C83434; stroke-width:1.000000; stroke-opacity:1;  stroke-linecap:round; stroke-linejoin:round;">
<svg:circle cx="52400000.000000" cy="47700000.000000" r="1200000.000000"/> 
</svg:g>
<svg:g style="fill:#C83434; fill-opacity:1.0;  stroke:#C83434; stroke-width:21200.000000; stroke-opacity:1;  stroke-linecap:round; stroke-linejoin:round;">
</svg:g>
<svg:g>
</svg:g>
<svg:g>
</svg:g>
<svg:g>
</svg:g>
</svg:g>
<svg:g style="fill:#FFFFFF; fill-opacity:1.0;  stroke:#FFFFFF; stroke-width:21200.000000; stroke-opacity:1;  stroke-linecap:round; stroke-linejoin:round;">
</svg:g>
<svg:g style="fill:#FFFFFF; fill-opacity:1.0;  stroke:#FFFFFF; stroke-width:1.000000; stroke-opacity:1;  stroke-linecap:round; stroke-linejoin:round;">
<svg:circle cx="50000000.000000" cy="50000000.000000" r="600000.000000"/> 
</svg:g>
<svg:g style="fill:#FFFFFF; fill-opacity:1.0;  stroke:#FFFFFF; stroke-width:21200.000000; stroke-opacity:1;  stroke-linecap:round; stroke-linejoin:round;">
</svg:g>
<svg:g style="fill:#FFFFFF; fill-opacity:1.0;  stroke:#FFFFFF; stroke-width:1.000000; stroke-opacity:1;  stroke-linecap:round; stroke-linejoin:round;">
<svg:circle cx="52400000.000000" cy="47700000.000000" r="600000.000000"/> 
</svg:g>
<svg:g style="fill:#FFFFFF; fill-opacity:1.0;  stroke:#FFFFFF; stroke-width:21200.000000; stroke-opacity:1;  stroke-linecap:round; stroke-linejoin:round;">
</svg:g>
<svg:g style="fill:#000000; fill-opacity:1.0;  stroke:#000000; stroke-width:21200.000000; stroke-opacity:1;  stroke-linecap:round; stroke-linejoin:round;">
<svg:g>
</svg:g>
<svg:g>
</svg:g>
<svg:g>
</svg:g>
<svg:g>
</svg:g>
</svg:g> 
</svg:g></svg>
