<?xml version='1.0' encoding='ASCII' standalone='yes'?>
<svg xmlns:svg="http://www.w3.org/2000/svg" xmlns="http://www.w3.org/2000/svg" xmlns:xlink="http://www.w3.org/1999/xlink" version="1.1" width="9.999980cm" height="9.999980cm" viewBox="0 0 99999800 99999800">
<title>SVG Picture created as kicadBoard-B_Cu.svg date 2022/11/16 21:54:09 </title>
  <desc>Picture generated by PCBNEW </desc>
<g style="fill:#000000; fill-opacity:1.000000;stroke:#000000; stroke-opacity:1.000000; stroke-linecap:round; stroke-linejoin:round;" transform="translate(0 0) scale(1 1)">
</g>
<g style="fill:#000000; fill-opacity:0.0;  stroke:#000000; stroke-width:0.000000; stroke-opacity:1;  stroke-linecap:round; stroke-linejoin:round;">
<g>
</g>
<g style="fill:#4D7FC4; fill-opacity:0.0;  stroke:#4D7FC4; stroke-width:0.000000; stroke-opacity:1;  stroke-linecap:round; stroke-linejoin:round;">
</g>
<g style="fill:#4D7FC4; fill-opacity:0.0;  stroke:#4D7FC4; stroke-width:1.000000; stroke-opacity:1;  stroke-linecap:round; stroke-linejoin:round;">
</g>
<g style="fill:#4D7FC4; fill-opacity:1.0;  stroke:#4D7FC4; stroke-width:1.000000; stroke-opacity:1;  stroke-linecap:round; stroke-linejoin:round;">
<path style="fill:#4D7FC4; fill-opacity:1.0;  stroke:#4D7FC4; stroke-width:1.000000; stroke-opacity:1;  stroke-linecap:round; stroke-linejoin:round;fill-rule:evenodd;" d="M 48800000.000000,51200000.000000 48800000.000000,48800000.000000 51200000.000000,48800000.000000 51200000.000000,51200000.000000 Z"/> 
<circle cx="85000000.000000" cy="50000000.000000" r="1200000.000000"/> 
</g>
<g>
</g>
<g>
</g>
<g>
</g>
</g>
<g style="fill:#FFFFFF; fill-opacity:1.0;  stroke:#FFFFFF; stroke-width:1.000000; stroke-opacity:1;  stroke-linecap:round; stroke-linejoin:round;">
<circle cx="50000000.000000" cy="50000000.000000" r="600000.000000"/> 
</g>
<g style="fill:#FFFFFF; fill-opacity:1.0;  stroke:#FFFFFF; stroke-width:21200.000000; stroke-opacity:1;  stroke-linecap:round; stroke-linejoin:round;">
</g>
<g style="fill:#FFFFFF; fill-opacity:1.0;  stroke:#FFFFFF; stroke-width:1.000000; stroke-opacity:1;  stroke-linecap:round; stroke-linejoin:round;">
<circle cx="85000000.000000" cy="50000000.000000" r="600000.000000"/> 
</g>
<g style="fill:#FFFFFF; fill-opacity:1.0;  stroke:#FFFFFF; stroke-width:21200.000000; stroke-opacity:1;  stroke-linecap:round; stroke-linejoin:round;">
</g>
<g style="fill:#000000; fill-opacity:1.0;  stroke:#000000; stroke-width:21200.000000; stroke-opacity:1;  stroke-linecap:round; stroke-linejoin:round;">
<g>
</g>
<g>
</g>
<g>
</g>
<g>
</g>
</g> 
<svg:g><svg:title>SVG Picture created as kicadBoard-B_Adhesive.svg date 2022/11/16 21:54:09 </svg:title>
  <svg:desc>Picture generated by PCBNEW </svg:desc>
<svg:g style="fill:#000000; fill-opacity:1.000000;stroke:#000000; stroke-opacity:1.000000; stroke-linecap:round; stroke-linejoin:round;" transform="translate(0 0) scale(1 1)">
</svg:g>
<svg:g style="fill:#000000; fill-opacity:0.0;  stroke:#000000; stroke-width:0.000000; stroke-opacity:1;  stroke-linecap:round; stroke-linejoin:round;">
<svg:g>
</svg:g>
<svg:g>
</svg:g>
<svg:g>
</svg:g>
<svg:g>
</svg:g>
</svg:g>
<svg:g style="fill:#000000; fill-opacity:0.0;  stroke:#000000; stroke-width:0.000000; stroke-opacity:1;  stroke-linecap:round; stroke-linejoin:round;">
<svg:g>
</svg:g>
<svg:g>
</svg:g>
<svg:g>
</svg:g>
<svg:g>
</svg:g>
</svg:g> 
</svg:g><svg:g><svg:title>SVG Picture created as kicadBoard-B_Courtyard.svg date 2022/11/16 21:54:10 </svg:title>
  <svg:desc>Picture generated by PCBNEW </svg:desc>
<svg:g style="fill:#000000; fill-opacity:1.000000;stroke:#000000; stroke-opacity:1.000000; stroke-linecap:round; stroke-linejoin:round;" transform="translate(0 0) scale(1 1)">
</svg:g>
<svg:g style="fill:#000000; fill-opacity:0.0;  stroke:#000000; stroke-width:0.000000; stroke-opacity:1;  stroke-linecap:round; stroke-linejoin:round;">
<svg:g>
</svg:g>
<svg:g>
</svg:g>
<svg:g>
</svg:g>
<svg:g>
</svg:g>
</svg:g>
<svg:g style="fill:#000000; fill-opacity:0.0;  stroke:#000000; stroke-width:0.000000; stroke-opacity:1;  stroke-linecap:round; stroke-linejoin:round;">
<svg:g>
</svg:g>
<svg:g>
</svg:g>
<svg:g>
</svg:g>
<svg:g>
</svg:g>
</svg:g> 
</svg:g><svg:g><svg:title>SVG Picture created as kicadBoard-B_Fab.svg date 2022/11/16 21:54:10 </svg:title>
  <svg:desc>Picture generated by PCBNEW </svg:desc>
<svg:g style="fill:#000000; fill-opacity:1.000000;stroke:#000000; stroke-opacity:1.000000; stroke-linecap:round; stroke-linejoin:round;" transform="translate(0 0) scale(1 1)">
</svg:g>
<svg:g style="fill:#000000; fill-opacity:0.0;  stroke:#000000; stroke-width:0.000000; stroke-opacity:1;  stroke-linecap:round; stroke-linejoin:round;">
<svg:g>
</svg:g>
<svg:g>
</svg:g>
<svg:g>
</svg:g>
<svg:g>
</svg:g>
</svg:g>
<svg:g style="fill:#000000; fill-opacity:0.0;  stroke:#000000; stroke-width:0.000000; stroke-opacity:1;  stroke-linecap:round; stroke-linejoin:round;">
<svg:g>
</svg:g>
<svg:g>
</svg:g>
<svg:g>
</svg:g>
<svg:g>
</svg:g>
</svg:g> 
</svg:g><svg:g><svg:title>SVG Picture created as kicadBoard-B_Mask.svg date 2022/11/16 21:54:10 </svg:title>
  <svg:desc>Picture generated by PCBNEW </svg:desc>
<svg:g style="fill:#000000; fill-opacity:1.000000;stroke:#000000; stroke-opacity:1.000000; stroke-linecap:round; stroke-linejoin:round;" transform="translate(0 0) scale(1 1)">
</svg:g>
<svg:g style="fill:#000000; fill-opacity:0.0;  stroke:#000000; stroke-width:0.000000; stroke-opacity:1;  stroke-linecap:round; stroke-linejoin:round;">
<svg:g>
</svg:g>
<svg:g style="fill:#000000; fill-opacity:0.0;  stroke:#000000; stroke-width:1.000000; stroke-opacity:1;  stroke-linecap:round; stroke-linejoin:round;">
</svg:g>
<svg:g style="fill:#000000; fill-opacity:1.0;  stroke:#000000; stroke-width:1.000000; stroke-opacity:1;  stroke-linecap:round; stroke-linejoin:round;">
<svg:path style="fill:#000000; fill-opacity:1.0;  stroke:#000000; stroke-width:1.000000; stroke-opacity:1;  stroke-linecap:round; stroke-linejoin:round;fill-rule:evenodd;" d="M 48800000.000000,51200000.000000 48800000.000000,48800000.000000 51200000.000000,48800000.000000 51200000.000000,51200000.000000 Z"/> 
<svg:circle cx="85000000.000000" cy="50000000.000000" r="1200000.000000"/> 
</svg:g>
<svg:g>
</svg:g>
<svg:g>
</svg:g>
<svg:g>
</svg:g>
</svg:g>
<svg:g style="fill:#000000; fill-opacity:1.0;  stroke:#000000; stroke-width:1.000000; stroke-opacity:1;  stroke-linecap:round; stroke-linejoin:round;">
<svg:g>
</svg:g>
<svg:g>
</svg:g>
<svg:g>
</svg:g>
<svg:g>
</svg:g>
</svg:g> 
</svg:g><svg:g><svg:title>SVG Picture created as kicadBoard-B_Paste.svg date 2022/11/16 21:54:09 </svg:title>
  <svg:desc>Picture generated by PCBNEW </svg:desc>
<svg:g style="fill:#000000; fill-opacity:1.000000;stroke:#000000; stroke-opacity:1.000000; stroke-linecap:round; stroke-linejoin:round;" transform="translate(0 0) scale(1 1)">
</svg:g>
<svg:g style="fill:#000000; fill-opacity:0.0;  stroke:#000000; stroke-width:0.000000; stroke-opacity:1;  stroke-linecap:round; stroke-linejoin:round;">
<svg:g>
</svg:g>
<svg:g>
</svg:g>
<svg:g>
</svg:g>
<svg:g>
</svg:g>
</svg:g>
<svg:g style="fill:#000000; fill-opacity:0.0;  stroke:#000000; stroke-width:0.000000; stroke-opacity:1;  stroke-linecap:round; stroke-linejoin:round;">
<svg:g>
</svg:g>
<svg:g>
</svg:g>
<svg:g>
</svg:g>
<svg:g>
</svg:g>
</svg:g> 
</svg:g><svg:g><svg:title>SVG Picture created as kicadBoard-B_Silkscreen.svg date 2022/11/16 21:54:09 </svg:title>
  <svg:desc>Picture generated by PCBNEW </svg:desc>
<svg:g style="fill:#000000; fill-opacity:1.000000;stroke:#000000; stroke-opacity:1.000000; stroke-linecap:round; stroke-linejoin:round;" transform="translate(0 0) scale(1 1)">
</svg:g>
<svg:g style="fill:#000000; fill-opacity:0.0;  stroke:#000000; stroke-width:0.000000; stroke-opacity:1;  stroke-linecap:round; stroke-linejoin:round;">
<svg:g>
</svg:g>
<svg:g>
</svg:g>
<svg:g>
</svg:g>
<svg:g>
</svg:g>
</svg:g>
<svg:g style="fill:#000000; fill-opacity:0.0;  stroke:#000000; stroke-width:0.000000; stroke-opacity:1;  stroke-linecap:round; stroke-linejoin:round;">
<svg:g>
</svg:g>
<svg:g>
</svg:g>
<svg:g>
</svg:g>
<svg:g>
</svg:g>
</svg:g> 
</svg:g><svg:g><svg:title>SVG Picture created as kicadBoard-Edge_Cuts.svg date 2022/11/16 21:54:10 </svg:title>
  <svg:desc>Picture generated by PCBNEW </svg:desc>
<svg:g style="fill:#000000; fill-opacity:1.000000;stroke:#000000; stroke-opacity:1.000000; stroke-linecap:round; stroke-linejoin:round;" transform="translate(0 0) scale(1 1)">
</svg:g>
<svg:g style="fill:#000000; fill-opacity:0.0;  stroke:#000000; stroke-width:0.000000; stroke-opacity:1;  stroke-linecap:round; stroke-linejoin:round;">
<svg:g>
</svg:g>
<svg:g>
</svg:g>
<svg:g>
</svg:g>
<svg:g>
</svg:g>
</svg:g> 
</svg:g><svg:g><svg:title>SVG Picture created as kicadBoard-F_Adhesive.svg date 2022/11/16 21:54:09 </svg:title>
  <svg:desc>Picture generated by PCBNEW </svg:desc>
<svg:g style="fill:#000000; fill-opacity:1.000000;stroke:#000000; stroke-opacity:1.000000; stroke-linecap:round; stroke-linejoin:round;" transform="translate(0 0) scale(1 1)">
</svg:g>
<svg:g style="fill:#000000; fill-opacity:0.0;  stroke:#000000; stroke-width:0.000000; stroke-opacity:1;  stroke-linecap:round; stroke-linejoin:round;">
<svg:g>
</svg:g>
<svg:g>
</svg:g>
<svg:g>
</svg:g>
<svg:g>
</svg:g>
</svg:g>
<svg:g style="fill:#000000; fill-opacity:0.0;  stroke:#000000; stroke-width:0.000000; stroke-opacity:1;  stroke-linecap:round; stroke-linejoin:round;">
<svg:g>
</svg:g>
<svg:g>
</svg:g>
<svg:g>
</svg:g>
<svg:g>
</svg:g>
</svg:g> 
</svg:g><svg:g><svg:title>SVG Picture created as kicadBoard-F_Courtyard.svg date 2022/11/16 21:54:10 </svg:title>
  <svg:desc>Picture generated by PCBNEW </svg:desc>
<svg:g style="fill:#000000; fill-opacity:1.000000;stroke:#000000; stroke-opacity:1.000000; stroke-linecap:round; stroke-linejoin:round;" transform="translate(0 0) scale(1 1)">
</svg:g>
<svg:g style="fill:#000000; fill-opacity:0.0;  stroke:#000000; stroke-width:0.000000; stroke-opacity:1;  stroke-linecap:round; stroke-linejoin:round;">
</svg:g>
<svg:g style="fill:#FF26E2; fill-opacity:0.0;  stroke:#FF26E2; stroke-width:0.000000; stroke-opacity:1;  stroke-linecap:round; stroke-linejoin:round;">
</svg:g>
<svg:g style="fill:#FF26E2; fill-opacity:0.0;  stroke:#FF26E2; stroke-width:50000.000000; stroke-opacity:1;  stroke-linecap:round; stroke-linejoin:round;">
<svg:path d="M48550000 40750000 L48550000 59250000 "/>
<svg:path d="M86450000 40750000 L48550000 40750000 "/>
<svg:path d="M86450000 59250000 L86450000 40750000 "/>
<svg:path d="M48550000 59250000 L86450000 59250000 "/>
<svg:g>
</svg:g>
<svg:g>
</svg:g>
<svg:g>
</svg:g>
<svg:g>
</svg:g>
</svg:g>
<svg:g style="fill:#000000; fill-opacity:0.0;  stroke:#000000; stroke-width:50000.000000; stroke-opacity:1;  stroke-linecap:round; stroke-linejoin:round;">
<svg:g>
</svg:g>
<svg:g>
</svg:g>
<svg:g>
</svg:g>
<svg:g>
</svg:g>
</svg:g> 
</svg:g><svg:g><svg:title>SVG Picture created as kicadBoard-F_Cu.svg date 2022/11/16 21:54:09 </svg:title>
  <svg:desc>Picture generated by PCBNEW </svg:desc>
<svg:g style="fill:#000000; fill-opacity:1.000000;stroke:#000000; stroke-opacity:1.000000; stroke-linecap:round; stroke-linejoin:round;" transform="translate(0 0) scale(1 1)">
</svg:g>
<svg:g style="fill:#000000; fill-opacity:0.0;  stroke:#000000; stroke-width:0.000000; stroke-opacity:1;  stroke-linecap:round; stroke-linejoin:round;">
<svg:g>
</svg:g>
<svg:g style="fill:#C83434; fill-opacity:0.0;  stroke:#C83434; stroke-width:0.000000; stroke-opacity:1;  stroke-linecap:round; stroke-linejoin:round;">
</svg:g>
<svg:g style="fill:#C83434; fill-opacity:0.0;  stroke:#C83434; stroke-width:1.000000; stroke-opacity:1;  stroke-linecap:round; stroke-linejoin:round;">
</svg:g>
<svg:g style="fill:#C83434; fill-opacity:1.0;  stroke:#C83434; stroke-width:1.000000; stroke-opacity:1;  stroke-linecap:round; stroke-linejoin:round;">
<svg:path style="fill:#C83434; fill-opacity:1.0;  stroke:#C83434; stroke-width:1.000000; stroke-opacity:1;  stroke-linecap:round; stroke-linejoin:round;fill-rule:evenodd;" d="M 48800000.000000,51200000.000000 48800000.000000,48800000.000000 51200000.000000,48800000.000000 51200000.000000,51200000.000000 Z"/> 
<svg:circle cx="85000000.000000" cy="50000000.000000" r="1200000.000000"/> 
</svg:g>
<svg:g>
</svg:g>
<svg:g>
</svg:g>
<svg:g>
</svg:g>
</svg:g>
<svg:g style="fill:#FFFFFF; fill-opacity:1.0;  stroke:#FFFFFF; stroke-width:1.000000; stroke-opacity:1;  stroke-linecap:round; stroke-linejoin:round;">
<svg:circle cx="50000000.000000" cy="50000000.000000" r="600000.000000"/> 
</svg:g>
<svg:g style="fill:#FFFFFF; fill-opacity:1.0;  stroke:#FFFFFF; stroke-width:21200.000000; stroke-opacity:1;  stroke-linecap:round; stroke-linejoin:round;">
</svg:g>
<svg:g style="fill:#FFFFFF; fill-opacity:1.0;  stroke:#FFFFFF; stroke-width:1.000000; stroke-opacity:1;  stroke-linecap:round; stroke-linejoin:round;">
<svg:circle cx="85000000.000000" cy="50000000.000000" r="600000.000000"/> 
</svg:g>
<svg:g style="fill:#FFFFFF; fill-opacity:1.0;  stroke:#FFFFFF; stroke-width:21200.000000; stroke-opacity:1;  stroke-linecap:round; stroke-linejoin:round;">
</svg:g>
<svg:g style="fill:#000000; fill-opacity:1.0;  stroke:#000000; stroke-width:21200.000000; stroke-opacity:1;  stroke-linecap:round; stroke-linejoin:round;">
<svg:g>
</svg:g>
<svg:g>
</svg:g>
<svg:g>
</svg:g>
<svg:g>
</svg:g>
</svg:g> 
</svg:g><svg:g><svg:title>SVG Picture created as kicadBoard-F_Fab.svg date 2022/11/16 21:54:10 </svg:title>
  <svg:desc>Picture generated by PCBNEW </svg:desc>
<svg:g style="fill:#000000; fill-opacity:1.000000;stroke:#000000; stroke-opacity:1.000000; stroke-linecap:round; stroke-linejoin:round;" transform="translate(0 0) scale(1 1)">
</svg:g>
<svg:g style="fill:#000000; fill-opacity:0.0;  stroke:#000000; stroke-width:0.000000; stroke-opacity:1;  stroke-linecap:round; stroke-linejoin:round;">
</svg:g>
<svg:g style="fill:#AFAFAF; fill-opacity:0.0;  stroke:#AFAFAF; stroke-width:0.000000; stroke-opacity:1;  stroke-linecap:round; stroke-linejoin:round;">
</svg:g>
<svg:g style="fill:#AFAFAF; fill-opacity:0.0;  stroke:#AFAFAF; stroke-width:150000.000000; stroke-opacity:1;  stroke-linecap:round; stroke-linejoin:round;">
<svg:text x="67500000.000000" y="60620000.000000" textLength="39004524.000000" font-size="1333333.000000" lengthAdjust="spacingAndGlyphs" text-anchor="middle" opacity="0">CP_Axial_L30.0mm_D18.0mm_P35.00mm_Horizontal</svg:text>
<svg:g class="stroked-text"><svg:desc>CP_Axial_L30.0mm_D18.0mm_P35.00mm_Horizontal</svg:desc>
<svg:path d="M48904761 60477142 L48857142 60524761 L48714285 60572380 L48619047 60572380 L48476190 60524761 L48380952 60429523 L48333333 60334285 L48285714 60143809 L48285714 60000952 L48333333 59810476 L48380952 59715238 L48476190 59620000 L48619047 59572380 L48714285 59572380 L48857142 59620000 L48904761 59667619 "/>
<svg:path d="M49333333 60572380 L49333333 59572380 L49714285 59572380 L49809523 59620000 L49857142 59667619 L49904761 59762857 L49904761 59905714 L49857142 60000952 L49809523 60048571 L49714285 60096190 L49333333 60096190 "/>
<svg:path d="M50095238 60667619 L50857142 60667619 "/>
<svg:path d="M51047619 60286666 L51523809 60286666 "/>
<svg:path d="M50952380 60572380 L51285714 59572380 L51619047 60572380 "/>
<svg:path d="M51857142 60572380 L52380952 59905714 "/>
<svg:path d="M51857142 59905714 L52380952 60572380 "/>
<svg:path d="M52761904 60572380 L52761904 59905714 "/>
<svg:path d="M52761904 59572380 L52714285 59620000 L52761904 59667619 L52809523 59620000 L52761904 59572380 L52761904 59667619 "/>
<svg:path d="M53666666 60572380 L53666666 60048571 L53619047 59953333 L53523809 59905714 L53333333 59905714 L53238095 59953333 "/>
<svg:path d="M53666666 60524761 L53571428 60572380 L53333333 60572380 L53238095 60524761 L53190476 60429523 L53190476 60334285 L53238095 60239047 L53333333 60191428 L53571428 60191428 L53666666 60143809 "/>
<svg:path d="M54285714 60572380 L54190476 60524761 L54142857 60429523 L54142857 59572380 "/>
<svg:path d="M54428571 60667619 L55190476 60667619 "/>
<svg:path d="M55904761 60572380 L55428571 60572380 L55428571 59572380 "/>
<svg:path d="M56142857 59572380 L56761904 59572380 L56428571 59953333 L56571428 59953333 L56666666 60000952 L56714285 60048571 L56761904 60143809 L56761904 60381904 L56714285 60477142 L56666666 60524761 L56571428 60572380 L56285714 60572380 L56190476 60524761 L56142857 60477142 "/>
<svg:path d="M57380952 59572380 L57476190 59572380 L57571428 59620000 L57619047 59667619 L57666666 59762857 L57714285 59953333 L57714285 60191428 L57666666 60381904 L57619047 60477142 L57571428 60524761 L57476190 60572380 L57380952 60572380 L57285714 60524761 L57238095 60477142 L57190476 60381904 L57142857 60191428 L57142857 59953333 L57190476 59762857 L57238095 59667619 L57285714 59620000 L57380952 59572380 "/>
<svg:path d="M58142857 60477142 L58190476 60524761 L58142857 60572380 L58095238 60524761 L58142857 60477142 L58142857 60572380 "/>
<svg:path d="M58809523 59572380 L58904761 59572380 L58999999 59620000 L59047619 59667619 L59095238 59762857 L59142857 59953333 L59142857 60191428 L59095238 60381904 L59047619 60477142 L58999999 60524761 L58904761 60572380 L58809523 60572380 L58714285 60524761 L58666666 60477142 L58619047 60381904 L58571428 60191428 L58571428 59953333 L58619047 59762857 L58666666 59667619 L58714285 59620000 L58809523 59572380 "/>
<svg:path d="M59571428 60572380 L59571428 59905714 "/>
<svg:path d="M59571428 60000952 L59619047 59953333 L59714285 59905714 L59857142 59905714 L59952380 59953333 L59999999 60048571 L59999999 60572380 "/>
<svg:path d="M59999999 60048571 L60047619 59953333 L60142857 59905714 L60285714 59905714 L60380952 59953333 L60428571 60048571 L60428571 60572380 "/>
<svg:path d="M60904761 60572380 L60904761 59905714 "/>
<svg:path d="M60904761 60000952 L60952380 59953333 L61047619 59905714 L61190476 59905714 L61285714 59953333 L61333333 60048571 L61333333 60572380 "/>
<svg:path d="M61333333 60048571 L61380952 59953333 L61476190 59905714 L61619047 59905714 L61714285 59953333 L61761904 60048571 L61761904 60572380 "/>
<svg:path d="M61999999 60667619 L62761904 60667619 "/>
<svg:path d="M62999999 60572380 L62999999 59572380 L63238095 59572380 L63380952 59620000 L63476190 59715238 L63523809 59810476 L63571428 60000952 L63571428 60143809 L63523809 60334285 L63476190 60429523 L63380952 60524761 L63238095 60572380 L62999999 60572380 "/>
<svg:path d="M64523809 60572380 L63952380 60572380 "/>
<svg:path d="M64238095 60572380 L64238095 59572380 L64142857 59715238 L64047619 59810476 L63952380 59858095 "/>
<svg:path d="M65095238 60000952 L64999999 59953333 L64952380 59905714 L64904761 59810476 L64904761 59762857 L64952380 59667619 L64999999 59620000 L65095238 59572380 L65285714 59572380 L65380952 59620000 L65428571 59667619 L65476190 59762857 L65476190 59810476 L65428571 59905714 L65380952 59953333 L65285714 60000952 L65095238 60000952 L64999999 60048571 L64952380 60096190 L64904761 60191428 L64904761 60381904 L64952380 60477142 L64999999 60524761 L65095238 60572380 L65285714 60572380 L65380952 60524761 L65428571 60477142 L65476190 60381904 L65476190 60191428 L65428571 60096190 L65380952 60048571 L65285714 60000952 "/>
<svg:path d="M65904761 60477142 L65952380 60524761 L65904761 60572380 L65857142 60524761 L65904761 60477142 L65904761 60572380 "/>
<svg:path d="M66571428 59572380 L66666666 59572380 L66761904 59620000 L66809523 59667619 L66857142 59762857 L66904761 59953333 L66904761 60191428 L66857142 60381904 L66809523 60477142 L66761904 60524761 L66666666 60572380 L66571428 60572380 L66476190 60524761 L66428571 60477142 L66380952 60381904 L66333333 60191428 L66333333 59953333 L66380952 59762857 L66428571 59667619 L66476190 59620000 L66571428 59572380 "/>
<svg:path d="M67333333 60572380 L67333333 59905714 "/>
<svg:path d="M67333333 60000952 L67380952 59953333 L67476190 59905714 L67619047 59905714 L67714285 59953333 L67761904 60048571 L67761904 60572380 "/>
<svg:path d="M67761904 60048571 L67809523 59953333 L67904761 59905714 L68047619 59905714 L68142857 59953333 L68190476 60048571 L68190476 60572380 "/>
<svg:path d="M68666666 60572380 L68666666 59905714 "/>
<svg:path d="M68666666 60000952 L68714285 59953333 L68809523 59905714 L68952380 59905714 L69047619 59953333 L69095238 60048571 L69095238 60572380 "/>
<svg:path d="M69095238 60048571 L69142857 59953333 L69238095 59905714 L69380952 59905714 L69476190 59953333 L69523809 60048571 L69523809 60572380 "/>
<svg:path d="M69761904 60667619 L70523809 60667619 "/>
<svg:path d="M70761904 60572380 L70761904 59572380 L71142857 59572380 L71238095 59620000 L71285714 59667619 L71333333 59762857 L71333333 59905714 L71285714 60000952 L71238095 60048571 L71142857 60096190 L70761904 60096190 "/>
<svg:path d="M71666666 59572380 L72285714 59572380 L71952380 59953333 L72095238 59953333 L72190476 60000952 L72238095 60048571 L72285714 60143809 L72285714 60381904 L72238095 60477142 L72190476 60524761 L72095238 60572380 L71809523 60572380 L71714285 60524761 L71666666 60477142 "/>
<svg:path d="M73190476 59572380 L72714285 59572380 L72666666 60048571 L72714285 60000952 L72809523 59953333 L73047619 59953333 L73142857 60000952 L73190476 60048571 L73238095 60143809 L73238095 60381904 L73190476 60477142 L73142857 60524761 L73047619 60572380 L72809523 60572380 L72714285 60524761 L72666666 60477142 "/>
<svg:path d="M73666666 60477142 L73714285 60524761 L73666666 60572380 L73619047 60524761 L73666666 60477142 L73666666 60572380 "/>
<svg:path d="M74333333 59572380 L74428571 59572380 L74523809 59620000 L74571428 59667619 L74619047 59762857 L74666666 59953333 L74666666 60191428 L74619047 60381904 L74571428 60477142 L74523809 60524761 L74428571 60572380 L74333333 60572380 L74238095 60524761 L74190476 60477142 L74142857 60381904 L74095238 60191428 L74095238 59953333 L74142857 59762857 L74190476 59667619 L74238095 59620000 L74333333 59572380 "/>
<svg:path d="M75285714 59572380 L75380952 59572380 L75476190 59620000 L75523809 59667619 L75571428 59762857 L75619047 59953333 L75619047 60191428 L75571428 60381904 L75523809 60477142 L75476190 60524761 L75380952 60572380 L75285714 60572380 L75190476 60524761 L75142857 60477142 L75095238 60381904 L75047619 60191428 L75047619 59953333 L75095238 59762857 L75142857 59667619 L75190476 59620000 L75285714 59572380 "/>
<svg:path d="M76047619 60572380 L76047619 59905714 "/>
<svg:path d="M76047619 60000952 L76095238 59953333 L76190476 59905714 L76333333 59905714 L76428571 59953333 L76476190 60048571 L76476190 60572380 "/>
<svg:path d="M76476190 60048571 L76523809 59953333 L76619047 59905714 L76761904 59905714 L76857142 59953333 L76904761 60048571 L76904761 60572380 "/>
<svg:path d="M77380952 60572380 L77380952 59905714 "/>
<svg:path d="M77380952 60000952 L77428571 59953333 L77523809 59905714 L77666666 59905714 L77761904 59953333 L77809523 60048571 L77809523 60572380 "/>
<svg:path d="M77809523 60048571 L77857142 59953333 L77952380 59905714 L78095238 59905714 L78190476 59953333 L78238095 60048571 L78238095 60572380 "/>
<svg:path d="M78476190 60667619 L79238095 60667619 "/>
<svg:path d="M79476190 60572380 L79476190 59572380 "/>
<svg:path d="M79476190 60048571 L80047619 60048571 "/>
<svg:path d="M80047619 60572380 L80047619 59572380 "/>
<svg:path d="M80666666 60572380 L80571428 60524761 L80523809 60477142 L80476190 60381904 L80476190 60096190 L80523809 60000952 L80571428 59953333 L80666666 59905714 L80809523 59905714 L80904761 59953333 L80952380 60000952 L80999999 60096190 L80999999 60381904 L80952380 60477142 L80904761 60524761 L80809523 60572380 L80666666 60572380 "/>
<svg:path d="M81428571 60572380 L81428571 59905714 "/>
<svg:path d="M81428571 60096190 L81476190 60000952 L81523809 59953333 L81619047 59905714 L81714285 59905714 "/>
<svg:path d="M82047619 60572380 L82047619 59905714 "/>
<svg:path d="M82047619 59572380 L81999999 59620000 L82047619 59667619 L82095238 59620000 L82047619 59572380 L82047619 59667619 "/>
<svg:path d="M82428571 59905714 L82952380 59905714 L82428571 60572380 L82952380 60572380 "/>
<svg:path d="M83476190 60572380 L83380952 60524761 L83333333 60477142 L83285714 60381904 L83285714 60096190 L83333333 60000952 L83380952 59953333 L83476190 59905714 L83619047 59905714 L83714285 59953333 L83761904 60000952 L83809523 60096190 L83809523 60381904 L83761904 60477142 L83714285 60524761 L83619047 60572380 L83476190 60572380 "/>
<svg:path d="M84238095 59905714 L84238095 60572380 "/>
<svg:path d="M84238095 60000952 L84285714 59953333 L84380952 59905714 L84523809 59905714 L84619047 59953333 L84666666 60048571 L84666666 60572380 "/>
<svg:path d="M84999999 59905714 L85380952 59905714 "/>
<svg:path d="M85142857 59572380 L85142857 60429523 L85190476 60524761 L85285714 60572380 L85380952 60572380 "/>
<svg:path d="M86142857 60572380 L86142857 60048571 L86095238 59953333 L85999999 59905714 L85809523 59905714 L85714285 59953333 "/>
<svg:path d="M86142857 60524761 L86047619 60572380 L85809523 60572380 L85714285 60524761 L85666666 60429523 L85666666 60334285 L85714285 60239047 L85809523 60191428 L86047619 60191428 L86142857 60143809 "/>
<svg:path d="M86761904 60572380 L86666666 60524761 L86619047 60429523 L86619047 59572380 "/>
</svg:g><svg:text x="67500000.000000" y="50500000.000000" textLength="26575952.000000" font-size="1333333.000000" lengthAdjust="spacingAndGlyphs" text-anchor="middle" opacity="0">FZKCCPAXIALL3D18P35HORIZONTAL</svg:text>
<svg:g class="stroked-text"><svg:desc>FZKCCPAXIALL3D18P35HORIZONTAL</svg:desc>
<svg:path d="M54880952 49928571 L54547619 49928571 "/>
<svg:path d="M54547619 50452380 L54547619 49452380 L55023809 49452380 "/>
<svg:path d="M55309523 49452380 L55976190 49452380 L55309523 50452380 L55976190 50452380 "/>
<svg:path d="M56357142 50452380 L56357142 49452380 "/>
<svg:path d="M56928571 50452380 L56500000 49880952 "/>
<svg:path d="M56928571 49452380 L56357142 50023809 "/>
<svg:path d="M57928571 50357142 L57880952 50404761 L57738095 50452380 L57642857 50452380 L57500000 50404761 L57404761 50309523 L57357142 50214285 L57309523 50023809 L57309523 49880952 L57357142 49690476 L57404761 49595238 L57500000 49500000 L57642857 49452380 L57738095 49452380 L57880952 49500000 L57928571 49547619 "/>
<svg:path d="M58928571 50357142 L58880952 50404761 L58738095 50452380 L58642857 50452380 L58500000 50404761 L58404761 50309523 L58357142 50214285 L58309523 50023809 L58309523 49880952 L58357142 49690476 L58404761 49595238 L58500000 49500000 L58642857 49452380 L58738095 49452380 L58880952 49500000 L58928571 49547619 "/>
<svg:path d="M59357142 50452380 L59357142 49452380 L59738095 49452380 L59833333 49500000 L59880952 49547619 L59928571 49642857 L59928571 49785714 L59880952 49880952 L59833333 49928571 L59738095 49976190 L59357142 49976190 "/>
<svg:path d="M60309523 50166666 L60785714 50166666 "/>
<svg:path d="M60214285 50452380 L60547619 49452380 L60880952 50452380 "/>
<svg:path d="M61119047 49452380 L61785714 50452380 "/>
<svg:path d="M61785714 49452380 L61119047 50452380 "/>
<svg:path d="M62166666 50452380 L62166666 49452380 "/>
<svg:path d="M62595238 50166666 L63071428 50166666 "/>
<svg:path d="M62500000 50452380 L62833333 49452380 L63166666 50452380 "/>
<svg:path d="M63976190 50452380 L63500000 50452380 L63500000 49452380 "/>
<svg:path d="M64785714 50452380 L64309523 50452380 L64309523 49452380 "/>
<svg:path d="M65023809 49452380 L65642857 49452380 L65309523 49833333 L65452380 49833333 L65547619 49880952 L65595238 49928571 L65642857 50023809 L65642857 50261904 L65595238 50357142 L65547619 50404761 L65452380 50452380 L65166666 50452380 L65071428 50404761 L65023809 50357142 "/>
<svg:path d="M66071428 50452380 L66071428 49452380 L66309523 49452380 L66452380 49500000 L66547619 49595238 L66595238 49690476 L66642857 49880952 L66642857 50023809 L66595238 50214285 L66547619 50309523 L66452380 50404761 L66309523 50452380 L66071428 50452380 "/>
<svg:path d="M67595238 50452380 L67023809 50452380 "/>
<svg:path d="M67309523 50452380 L67309523 49452380 L67214285 49595238 L67119047 49690476 L67023809 49738095 "/>
<svg:path d="M68166666 49880952 L68071428 49833333 L68023809 49785714 L67976190 49690476 L67976190 49642857 L68023809 49547619 L68071428 49500000 L68166666 49452380 L68357142 49452380 L68452380 49500000 L68500000 49547619 L68547619 49642857 L68547619 49690476 L68500000 49785714 L68452380 49833333 L68357142 49880952 L68166666 49880952 L68071428 49928571 L68023809 49976190 L67976190 50071428 L67976190 50261904 L68023809 50357142 L68071428 50404761 L68166666 50452380 L68357142 50452380 L68452380 50404761 L68500000 50357142 L68547619 50261904 L68547619 50071428 L68500000 49976190 L68452380 49928571 L68357142 49880952 "/>
<svg:path d="M68976190 50452380 L68976190 49452380 L69357142 49452380 L69452380 49500000 L69500000 49547619 L69547619 49642857 L69547619 49785714 L69500000 49880952 L69452380 49928571 L69357142 49976190 L68976190 49976190 "/>
<svg:path d="M69880952 49452380 L70500000 49452380 L70166666 49833333 L70309523 49833333 L70404761 49880952 L70452380 49928571 L70500000 50023809 L70500000 50261904 L70452380 50357142 L70404761 50404761 L70309523 50452380 L70023809 50452380 L69928571 50404761 L69880952 50357142 "/>
<svg:path d="M71404761 49452380 L70928571 49452380 L70880952 49928571 L70928571 49880952 L71023809 49833333 L71261904 49833333 L71357142 49880952 L71404761 49928571 L71452380 50023809 L71452380 50261904 L71404761 50357142 L71357142 50404761 L71261904 50452380 L71023809 50452380 L70928571 50404761 L70880952 50357142 "/>
<svg:path d="M71880952 50452380 L71880952 49452380 "/>
<svg:path d="M71880952 49928571 L72452380 49928571 "/>
<svg:path d="M72452380 50452380 L72452380 49452380 "/>
<svg:path d="M73119047 49452380 L73309523 49452380 L73404761 49500000 L73500000 49595238 L73547619 49785714 L73547619 50119047 L73500000 50309523 L73404761 50404761 L73309523 50452380 L73119047 50452380 L73023809 50404761 L72928571 50309523 L72880952 50119047 L72880952 49785714 L72928571 49595238 L73023809 49500000 L73119047 49452380 "/>
<svg:path d="M74547619 50452380 L74214285 49976190 "/>
<svg:path d="M73976190 50452380 L73976190 49452380 L74357142 49452380 L74452380 49500000 L74500000 49547619 L74547619 49642857 L74547619 49785714 L74500000 49880952 L74452380 49928571 L74357142 49976190 L73976190 49976190 "/>
<svg:path d="M74976190 50452380 L74976190 49452380 "/>
<svg:path d="M75357142 49452380 L76023809 49452380 L75357142 50452380 L76023809 50452380 "/>
<svg:path d="M76595238 49452380 L76785714 49452380 L76880952 49500000 L76976190 49595238 L77023809 49785714 L77023809 50119047 L76976190 50309523 L76880952 50404761 L76785714 50452380 L76595238 50452380 L76500000 50404761 L76404761 50309523 L76357142 50119047 L76357142 49785714 L76404761 49595238 L76500000 49500000 L76595238 49452380 "/>
<svg:path d="M77452380 50452380 L77452380 49452380 L78023809 50452380 L78023809 49452380 "/>
<svg:path d="M78357142 49452380 L78928571 49452380 "/>
<svg:path d="M78642857 50452380 L78642857 49452380 "/>
<svg:path d="M79214285 50166666 L79690476 50166666 "/>
<svg:path d="M79119047 50452380 L79452380 49452380 L79785714 50452380 "/>
<svg:path d="M80595238 50452380 L80119047 50452380 L80119047 49452380 "/>
</svg:g></svg:g>
<svg:g style="fill:#AFAFAF; fill-opacity:0.0;  stroke:#AFAFAF; stroke-width:100000.000000; stroke-opacity:1;  stroke-linecap:round; stroke-linejoin:round;">
<svg:path d="M54180000 59000000 L55080000 58100000 "/>
<svg:path d="M85000000 50000000 L82500000 50000000 "/>
<svg:path d="M50000000 50000000 L52500000 50000000 "/>
<svg:path d="M55980000 41000000 L82500000 41000000 "/>
<svg:path d="M52500000 41000000 L52500000 59000000 "/>
<svg:path d="M55080000 58100000 L55980000 59000000 "/>
<svg:path d="M54180000 41000000 L55080000 41900000 "/>
<svg:path d="M52500000 41000000 L54180000 41000000 "/>
<svg:path d="M55100000 49100000 L55100000 50900000 "/>
<svg:path d="M54200000 50000000 L56000000 50000000 "/>
<svg:path d="M52500000 59000000 L54180000 59000000 "/>
<svg:path d="M55980000 59000000 L82500000 59000000 "/>
<svg:path d="M82500000 41000000 L82500000 59000000 "/>
<svg:path d="M55080000 41900000 L55980000 41000000 "/>
<svg:g>
</svg:g>
<svg:g>
</svg:g>
<svg:g>
</svg:g>
<svg:g>
</svg:g>
</svg:g>
<svg:g style="fill:#000000; fill-opacity:0.0;  stroke:#000000; stroke-width:100000.000000; stroke-opacity:1;  stroke-linecap:round; stroke-linejoin:round;">
<svg:g>
</svg:g>
<svg:g>
</svg:g>
<svg:g>
</svg:g>
<svg:g>
</svg:g>
</svg:g> 
</svg:g><svg:g><svg:title>SVG Picture created as kicadBoard-F_Mask.svg date 2022/11/16 21:54:10 </svg:title>
  <svg:desc>Picture generated by PCBNEW </svg:desc>
<svg:g style="fill:#000000; fill-opacity:1.000000;stroke:#000000; stroke-opacity:1.000000; stroke-linecap:round; stroke-linejoin:round;" transform="translate(0 0) scale(1 1)">
</svg:g>
<svg:g style="fill:#000000; fill-opacity:0.0;  stroke:#000000; stroke-width:0.000000; stroke-opacity:1;  stroke-linecap:round; stroke-linejoin:round;">
<svg:g>
</svg:g>
<svg:g style="fill:#000000; fill-opacity:0.0;  stroke:#000000; stroke-width:1.000000; stroke-opacity:1;  stroke-linecap:round; stroke-linejoin:round;">
</svg:g>
<svg:g style="fill:#000000; fill-opacity:1.0;  stroke:#000000; stroke-width:1.000000; stroke-opacity:1;  stroke-linecap:round; stroke-linejoin:round;">
<svg:path style="fill:#000000; fill-opacity:1.0;  stroke:#000000; stroke-width:1.000000; stroke-opacity:1;  stroke-linecap:round; stroke-linejoin:round;fill-rule:evenodd;" d="M 48800000.000000,51200000.000000 48800000.000000,48800000.000000 51200000.000000,48800000.000000 51200000.000000,51200000.000000 Z"/> 
<svg:circle cx="85000000.000000" cy="50000000.000000" r="1200000.000000"/> 
</svg:g>
<svg:g>
</svg:g>
<svg:g>
</svg:g>
<svg:g>
</svg:g>
</svg:g>
<svg:g style="fill:#000000; fill-opacity:1.0;  stroke:#000000; stroke-width:1.000000; stroke-opacity:1;  stroke-linecap:round; stroke-linejoin:round;">
<svg:g>
</svg:g>
<svg:g>
</svg:g>
<svg:g>
</svg:g>
<svg:g>
</svg:g>
</svg:g> 
</svg:g><svg:g><svg:title>SVG Picture created as kicadBoard-F_Paste.svg date 2022/11/16 21:54:09 </svg:title>
  <svg:desc>Picture generated by PCBNEW </svg:desc>
<svg:g style="fill:#000000; fill-opacity:1.000000;stroke:#000000; stroke-opacity:1.000000; stroke-linecap:round; stroke-linejoin:round;" transform="translate(0 0) scale(1 1)">
</svg:g>
<svg:g style="fill:#000000; fill-opacity:0.0;  stroke:#000000; stroke-width:0.000000; stroke-opacity:1;  stroke-linecap:round; stroke-linejoin:round;">
<svg:g>
</svg:g>
<svg:g>
</svg:g>
<svg:g>
</svg:g>
<svg:g>
</svg:g>
</svg:g>
<svg:g style="fill:#000000; fill-opacity:0.0;  stroke:#000000; stroke-width:0.000000; stroke-opacity:1;  stroke-linecap:round; stroke-linejoin:round;">
<svg:g>
</svg:g>
<svg:g>
</svg:g>
<svg:g>
</svg:g>
<svg:g>
</svg:g>
</svg:g> 
</svg:g><svg:g><svg:title>SVG Picture created as kicadBoard-F_Silkscreen.svg date 2022/11/16 21:54:10 </svg:title>
  <svg:desc>Picture generated by PCBNEW </svg:desc>
<svg:g style="fill:#000000; fill-opacity:1.000000;stroke:#000000; stroke-opacity:1.000000; stroke-linecap:round; stroke-linejoin:round;" transform="translate(0 0) scale(1 1)">
</svg:g>
<svg:g style="fill:#000000; fill-opacity:0.0;  stroke:#000000; stroke-width:0.000000; stroke-opacity:1;  stroke-linecap:round; stroke-linejoin:round;">
</svg:g>
<svg:g style="fill:#F2EDA1; fill-opacity:0.0;  stroke:#F2EDA1; stroke-width:0.000000; stroke-opacity:1;  stroke-linecap:round; stroke-linejoin:round;">
</svg:g>
<svg:g style="fill:#F2EDA1; fill-opacity:0.0;  stroke:#F2EDA1; stroke-width:150000.000000; stroke-opacity:1;  stroke-linecap:round; stroke-linejoin:round;">
<svg:text x="67500000.000000" y="40380000.000000" textLength="26380953.000000" font-size="1333333.000000" lengthAdjust="spacingAndGlyphs" text-anchor="middle" opacity="0">FZKCCPAXIALL3D18P35HORIZONTAL</svg:text>
<svg:g class="stroked-text"><svg:desc>FZKCCPAXIALL3D18P35HORIZONTAL</svg:desc>
<svg:path d="M54880952 39808571 L54547619 39808571 "/>
<svg:path d="M54547619 40332380 L54547619 39332380 L55023809 39332380 "/>
<svg:path d="M55309523 39332380 L55976190 39332380 L55309523 40332380 L55976190 40332380 "/>
<svg:path d="M56357142 40332380 L56357142 39332380 "/>
<svg:path d="M56928571 40332380 L56500000 39760952 "/>
<svg:path d="M56928571 39332380 L56357142 39903809 "/>
<svg:path d="M57928571 40237142 L57880952 40284761 L57738095 40332380 L57642857 40332380 L57500000 40284761 L57404761 40189523 L57357142 40094285 L57309523 39903809 L57309523 39760952 L57357142 39570476 L57404761 39475238 L57500000 39380000 L57642857 39332380 L57738095 39332380 L57880952 39380000 L57928571 39427619 "/>
<svg:path d="M58928571 40237142 L58880952 40284761 L58738095 40332380 L58642857 40332380 L58500000 40284761 L58404761 40189523 L58357142 40094285 L58309523 39903809 L58309523 39760952 L58357142 39570476 L58404761 39475238 L58500000 39380000 L58642857 39332380 L58738095 39332380 L58880952 39380000 L58928571 39427619 "/>
<svg:path d="M59357142 40332380 L59357142 39332380 L59738095 39332380 L59833333 39380000 L59880952 39427619 L59928571 39522857 L59928571 39665714 L59880952 39760952 L59833333 39808571 L59738095 39856190 L59357142 39856190 "/>
<svg:path d="M60309523 40046666 L60785714 40046666 "/>
<svg:path d="M60214285 40332380 L60547619 39332380 L60880952 40332380 "/>
<svg:path d="M61119047 39332380 L61785714 40332380 "/>
<svg:path d="M61785714 39332380 L61119047 40332380 "/>
<svg:path d="M62166666 40332380 L62166666 39332380 "/>
<svg:path d="M62595238 40046666 L63071428 40046666 "/>
<svg:path d="M62500000 40332380 L62833333 39332380 L63166666 40332380 "/>
<svg:path d="M63976190 40332380 L63500000 40332380 L63500000 39332380 "/>
<svg:path d="M64785714 40332380 L64309523 40332380 L64309523 39332380 "/>
<svg:path d="M65023809 39332380 L65642857 39332380 L65309523 39713333 L65452380 39713333 L65547619 39760952 L65595238 39808571 L65642857 39903809 L65642857 40141904 L65595238 40237142 L65547619 40284761 L65452380 40332380 L65166666 40332380 L65071428 40284761 L65023809 40237142 "/>
<svg:path d="M66071428 40332380 L66071428 39332380 L66309523 39332380 L66452380 39380000 L66547619 39475238 L66595238 39570476 L66642857 39760952 L66642857 39903809 L66595238 40094285 L66547619 40189523 L66452380 40284761 L66309523 40332380 L66071428 40332380 "/>
<svg:path d="M67595238 40332380 L67023809 40332380 "/>
<svg:path d="M67309523 40332380 L67309523 39332380 L67214285 39475238 L67119047 39570476 L67023809 39618095 "/>
<svg:path d="M68166666 39760952 L68071428 39713333 L68023809 39665714 L67976190 39570476 L67976190 39522857 L68023809 39427619 L68071428 39380000 L68166666 39332380 L68357142 39332380 L68452380 39380000 L68500000 39427619 L68547619 39522857 L68547619 39570476 L68500000 39665714 L68452380 39713333 L68357142 39760952 L68166666 39760952 L68071428 39808571 L68023809 39856190 L67976190 39951428 L67976190 40141904 L68023809 40237142 L68071428 40284761 L68166666 40332380 L68357142 40332380 L68452380 40284761 L68500000 40237142 L68547619 40141904 L68547619 39951428 L68500000 39856190 L68452380 39808571 L68357142 39760952 "/>
<svg:path d="M68976190 40332380 L68976190 39332380 L69357142 39332380 L69452380 39380000 L69500000 39427619 L69547619 39522857 L69547619 39665714 L69500000 39760952 L69452380 39808571 L69357142 39856190 L68976190 39856190 "/>
<svg:path d="M69880952 39332380 L70500000 39332380 L70166666 39713333 L70309523 39713333 L70404761 39760952 L70452380 39808571 L70500000 39903809 L70500000 40141904 L70452380 40237142 L70404761 40284761 L70309523 40332380 L70023809 40332380 L69928571 40284761 L69880952 40237142 "/>
<svg:path d="M71404761 39332380 L70928571 39332380 L70880952 39808571 L70928571 39760952 L71023809 39713333 L71261904 39713333 L71357142 39760952 L71404761 39808571 L71452380 39903809 L71452380 40141904 L71404761 40237142 L71357142 40284761 L71261904 40332380 L71023809 40332380 L70928571 40284761 L70880952 40237142 "/>
<svg:path d="M71880952 40332380 L71880952 39332380 "/>
<svg:path d="M71880952 39808571 L72452380 39808571 "/>
<svg:path d="M72452380 40332380 L72452380 39332380 "/>
<svg:path d="M73119047 39332380 L73309523 39332380 L73404761 39380000 L73500000 39475238 L73547619 39665714 L73547619 39999047 L73500000 40189523 L73404761 40284761 L73309523 40332380 L73119047 40332380 L73023809 40284761 L72928571 40189523 L72880952 39999047 L72880952 39665714 L72928571 39475238 L73023809 39380000 L73119047 39332380 "/>
<svg:path d="M74547619 40332380 L74214285 39856190 "/>
<svg:path d="M73976190 40332380 L73976190 39332380 L74357142 39332380 L74452380 39380000 L74500000 39427619 L74547619 39522857 L74547619 39665714 L74500000 39760952 L74452380 39808571 L74357142 39856190 L73976190 39856190 "/>
<svg:path d="M74976190 40332380 L74976190 39332380 "/>
<svg:path d="M75357142 39332380 L76023809 39332380 L75357142 40332380 L76023809 40332380 "/>
<svg:path d="M76595238 39332380 L76785714 39332380 L76880952 39380000 L76976190 39475238 L77023809 39665714 L77023809 39999047 L76976190 40189523 L76880952 40284761 L76785714 40332380 L76595238 40332380 L76500000 40284761 L76404761 40189523 L76357142 39999047 L76357142 39665714 L76404761 39475238 L76500000 39380000 L76595238 39332380 "/>
<svg:path d="M77452380 40332380 L77452380 39332380 L78023809 40332380 L78023809 39332380 "/>
<svg:path d="M78357142 39332380 L78928571 39332380 "/>
<svg:path d="M78642857 40332380 L78642857 39332380 "/>
<svg:path d="M79214285 40046666 L79690476 40046666 "/>
<svg:path d="M79119047 40332380 L79452380 39332380 L79785714 40332380 "/>
<svg:path d="M80595238 40332380 L80119047 40332380 L80119047 39332380 "/>
</svg:g></svg:g>
<svg:g style="fill:#F2EDA1; fill-opacity:0.0;  stroke:#F2EDA1; stroke-width:120000.000000; stroke-opacity:1;  stroke-linecap:round; stroke-linejoin:round;">
<svg:path d="M54180000 40880000 L55080000 41780000 "/>
<svg:path d="M55080000 58220000 L55980000 59120000 "/>
<svg:path d="M52380000 59120000 L54180000 59120000 "/>
<svg:path d="M50280000 47400000 L52080000 47400000 "/>
<svg:path d="M82620000 40880000 L82620000 59120000 "/>
<svg:path d="M51440000 50000000 L52380000 50000000 "/>
<svg:path d="M52380000 40880000 L54180000 40880000 "/>
<svg:path d="M83560000 50000000 L82620000 50000000 "/>
<svg:path d="M55980000 59120000 L82620000 59120000 "/>
<svg:path d="M52380000 40880000 L52380000 59120000 "/>
<svg:path d="M55980000 40880000 L82620000 40880000 "/>
<svg:path d="M54180000 59120000 L55080000 58220000 "/>
<svg:path d="M55080000 41780000 L55980000 40880000 "/>
<svg:path d="M51180000 46500000 L51180000 48300000 "/>
<svg:g>
</svg:g>
<svg:g>
</svg:g>
<svg:g>
</svg:g>
<svg:g>
</svg:g>
</svg:g>
<svg:g style="fill:#000000; fill-opacity:0.0;  stroke:#000000; stroke-width:120000.000000; stroke-opacity:1;  stroke-linecap:round; stroke-linejoin:round;">
<svg:g>
</svg:g>
<svg:g>
</svg:g>
<svg:g>
</svg:g>
<svg:g>
</svg:g>
</svg:g> 
</svg:g><svg:g><svg:title>SVG Picture created as kicadBoard-Margin.svg date 2022/11/16 21:54:10 </svg:title>
  <svg:desc>Picture generated by PCBNEW </svg:desc>
<svg:g style="fill:#000000; fill-opacity:1.000000;stroke:#000000; stroke-opacity:1.000000; stroke-linecap:round; stroke-linejoin:round;" transform="translate(0 0) scale(1 1)">
</svg:g>
<svg:g style="fill:#000000; fill-opacity:0.0;  stroke:#000000; stroke-width:0.000000; stroke-opacity:1;  stroke-linecap:round; stroke-linejoin:round;">
<svg:g>
</svg:g>
<svg:g>
</svg:g>
<svg:g>
</svg:g>
<svg:g>
</svg:g>
</svg:g>
<svg:g style="fill:#000000; fill-opacity:0.0;  stroke:#000000; stroke-width:0.000000; stroke-opacity:1;  stroke-linecap:round; stroke-linejoin:round;">
<svg:g>
</svg:g>
<svg:g>
</svg:g>
<svg:g>
</svg:g>
<svg:g>
</svg:g>
</svg:g> 
</svg:g><svg:g><svg:title>SVG Picture created as kicadBoard-F_Cu.svg date 2022/11/16 21:54:09 </svg:title>
  <svg:desc>Picture generated by PCBNEW </svg:desc>
<svg:g style="fill:#000000; fill-opacity:1.000000;stroke:#000000; stroke-opacity:1.000000; stroke-linecap:round; stroke-linejoin:round;" transform="translate(0 0) scale(1 1)">
</svg:g>
<svg:g style="fill:#000000; fill-opacity:0.0;  stroke:#000000; stroke-width:0.000000; stroke-opacity:1;  stroke-linecap:round; stroke-linejoin:round;">
<svg:g>
</svg:g>
<svg:g style="fill:#C83434; fill-opacity:0.0;  stroke:#C83434; stroke-width:0.000000; stroke-opacity:1;  stroke-linecap:round; stroke-linejoin:round;">
</svg:g>
<svg:g style="fill:#C83434; fill-opacity:0.0;  stroke:#C83434; stroke-width:1.000000; stroke-opacity:1;  stroke-linecap:round; stroke-linejoin:round;">
</svg:g>
<svg:g style="fill:#C83434; fill-opacity:1.0;  stroke:#C83434; stroke-width:1.000000; stroke-opacity:1;  stroke-linecap:round; stroke-linejoin:round;">
<svg:path style="fill:#C83434; fill-opacity:1.0;  stroke:#C83434; stroke-width:1.000000; stroke-opacity:1;  stroke-linecap:round; stroke-linejoin:round;fill-rule:evenodd;" d="M 48800000.000000,51200000.000000 48800000.000000,48800000.000000 51200000.000000,48800000.000000 51200000.000000,51200000.000000 Z"/> 
<svg:circle cx="85000000.000000" cy="50000000.000000" r="1200000.000000"/> 
</svg:g>
<svg:g>
</svg:g>
<svg:g>
</svg:g>
<svg:g>
</svg:g>
</svg:g>
<svg:g style="fill:#FFFFFF; fill-opacity:1.0;  stroke:#FFFFFF; stroke-width:1.000000; stroke-opacity:1;  stroke-linecap:round; stroke-linejoin:round;">
<svg:circle cx="50000000.000000" cy="50000000.000000" r="600000.000000"/> 
</svg:g>
<svg:g style="fill:#FFFFFF; fill-opacity:1.0;  stroke:#FFFFFF; stroke-width:21200.000000; stroke-opacity:1;  stroke-linecap:round; stroke-linejoin:round;">
</svg:g>
<svg:g style="fill:#FFFFFF; fill-opacity:1.0;  stroke:#FFFFFF; stroke-width:1.000000; stroke-opacity:1;  stroke-linecap:round; stroke-linejoin:round;">
<svg:circle cx="85000000.000000" cy="50000000.000000" r="600000.000000"/> 
</svg:g>
<svg:g style="fill:#FFFFFF; fill-opacity:1.0;  stroke:#FFFFFF; stroke-width:21200.000000; stroke-opacity:1;  stroke-linecap:round; stroke-linejoin:round;">
</svg:g>
<svg:g style="fill:#000000; fill-opacity:1.0;  stroke:#000000; stroke-width:21200.000000; stroke-opacity:1;  stroke-linecap:round; stroke-linejoin:round;">
<svg:g>
</svg:g>
<svg:g>
</svg:g>
<svg:g>
</svg:g>
<svg:g>
</svg:g>
</svg:g> 
</svg:g></svg>
