<?xml version='1.0' encoding='ASCII' standalone='yes'?>
<svg xmlns:svg="http://www.w3.org/2000/svg" xmlns="http://www.w3.org/2000/svg" xmlns:xlink="http://www.w3.org/1999/xlink" version="1.1" width="9.999980cm" height="9.999980cm" viewBox="0 0 99999800 99999800">
<title>SVG Picture created as kicadBoard-B_Cu.svg date 2022/12/03 00:28:46 </title>
  <desc>Picture generated by PCBNEW </desc>
<g style="fill:#000000; fill-opacity:1.000000;stroke:#000000; stroke-opacity:1.000000; stroke-linecap:round; stroke-linejoin:round;" transform="translate(0 0) scale(1 1)">
</g>
<g style="fill:#000000; fill-opacity:0.0;  stroke:#000000; stroke-width:0.000000; stroke-opacity:1;  stroke-linecap:round; stroke-linejoin:round;">
<g>
</g>
<g>
</g>
<g>
</g>
<g>
</g>
</g>
<g style="fill:#FFFFFF; fill-opacity:0.0;  stroke:#FFFFFF; stroke-width:0.000000; stroke-opacity:1;  stroke-linecap:round; stroke-linejoin:round;">
</g>
<g style="fill:#000000; fill-opacity:0.0;  stroke:#000000; stroke-width:0.000000; stroke-opacity:1;  stroke-linecap:round; stroke-linejoin:round;">
<g>
</g>
<g>
</g>
<g>
</g>
<g>
</g>
</g> 
<svg:g><svg:title>SVG Picture created as kicadBoard-B_Courtyard.svg date 2022/12/03 00:28:46 </svg:title>
  <svg:desc>Picture generated by PCBNEW </svg:desc>
<svg:g style="fill:#000000; fill-opacity:1.000000;stroke:#000000; stroke-opacity:1.000000; stroke-linecap:round; stroke-linejoin:round;" transform="translate(0 0) scale(1 1)">
</svg:g>
<svg:g style="fill:#000000; fill-opacity:0.0;  stroke:#000000; stroke-width:0.000000; stroke-opacity:1;  stroke-linecap:round; stroke-linejoin:round;">
<svg:g>
</svg:g>
<svg:g>
</svg:g>
<svg:g>
</svg:g>
<svg:g>
</svg:g>
</svg:g>
<svg:g style="fill:#000000; fill-opacity:0.0;  stroke:#000000; stroke-width:0.000000; stroke-opacity:1;  stroke-linecap:round; stroke-linejoin:round;">
<svg:g>
</svg:g>
<svg:g>
</svg:g>
<svg:g>
</svg:g>
<svg:g>
</svg:g>
</svg:g> 
</svg:g><svg:g><svg:title>SVG Picture created as kicadBoard-F_Courtyard.svg date 2022/12/03 00:28:46 </svg:title>
  <svg:desc>Picture generated by PCBNEW </svg:desc>
<svg:g style="fill:#000000; fill-opacity:1.000000;stroke:#000000; stroke-opacity:1.000000; stroke-linecap:round; stroke-linejoin:round;" transform="translate(0 0) scale(1 1)">
</svg:g>
<svg:g style="fill:#000000; fill-opacity:0.0;  stroke:#000000; stroke-width:0.000000; stroke-opacity:1;  stroke-linecap:round; stroke-linejoin:round;">
<svg:g>
</svg:g>
<svg:g>
</svg:g>
<svg:g>
</svg:g>
<svg:g>
</svg:g>
</svg:g>
<svg:g style="fill:#000000; fill-opacity:0.0;  stroke:#000000; stroke-width:0.000000; stroke-opacity:1;  stroke-linecap:round; stroke-linejoin:round;">
<svg:g>
</svg:g>
<svg:g>
</svg:g>
<svg:g>
</svg:g>
<svg:g>
</svg:g>
</svg:g> 
</svg:g><svg:g><svg:title>SVG Picture created as kicadBoard-F_Cu.svg date 2022/12/03 00:28:46 </svg:title>
  <svg:desc>Picture generated by PCBNEW </svg:desc>
<svg:g style="fill:#000000; fill-opacity:1.000000;stroke:#000000; stroke-opacity:1.000000; stroke-linecap:round; stroke-linejoin:round;" transform="translate(0 0) scale(1 1)">
</svg:g>
<svg:g style="fill:#000000; fill-opacity:0.0;  stroke:#000000; stroke-width:0.000000; stroke-opacity:1;  stroke-linecap:round; stroke-linejoin:round;">
<svg:g>
</svg:g>
<svg:g style="fill:#C83434; fill-opacity:0.0;  stroke:#C83434; stroke-width:0.000000; stroke-opacity:1;  stroke-linecap:round; stroke-linejoin:round;">
</svg:g>
<svg:g style="fill:#C83434; fill-opacity:0.0;  stroke:#C83434; stroke-width:1.000000; stroke-opacity:1;  stroke-linecap:round; stroke-linejoin:round;">
</svg:g>
<svg:g style="fill:#C83434; fill-opacity:1.0;  stroke:#C83434; stroke-width:1.000000; stroke-opacity:1;  stroke-linecap:round; stroke-linejoin:round;">
<svg:path style="fill:#C83434; fill-opacity:1.0;  stroke:#C83434; stroke-width:1.000000; stroke-opacity:1;  stroke-linecap:round; stroke-linejoin:round;fill-rule:evenodd;" d="M 46975000.000000,47645000.000000 46978425.000000,47627779.000000 46988180.000000,47613180.000000 47002779.000000,47603425.000000 47020000.000000,47600000.000000 47480000.000000,47600000.000000 47497221.000000,47603425.000000 47511820.000000,47613180.000000 47521575.000000,47627779.000000 47525000.000000,47645000.000000 47525000.000000,47855000.000000 47521575.000000,47872221.000000 47511820.000000,47886820.000000 47497221.000000,47896575.000000 47480000.000000,47900000.000000 47020000.000000,47900000.000000 47002779.000000,47896575.000000 46988180.000000,47886820.000000 46978425.000000,47872221.000000 46975000.000000,47855000.000000 Z"/> 
<svg:path style="fill:#C83434; fill-opacity:1.0;  stroke:#C83434; stroke-width:1.000000; stroke-opacity:1;  stroke-linecap:round; stroke-linejoin:round;fill-rule:evenodd;" d="M 46975000.000000,48145000.000000 46978425.000000,48127779.000000 46988180.000000,48113180.000000 47002779.000000,48103425.000000 47020000.000000,48100000.000000 47480000.000000,48100000.000000 47497221.000000,48103425.000000 47511820.000000,48113180.000000 47521575.000000,48127779.000000 47525000.000000,48145000.000000 47525000.000000,48355000.000000 47521575.000000,48372221.000000 47511820.000000,48386820.000000 47497221.000000,48396575.000000 47480000.000000,48400000.000000 47020000.000000,48400000.000000 47002779.000000,48396575.000000 46988180.000000,48386820.000000 46978425.000000,48372221.000000 46975000.000000,48355000.000000 Z"/> 
<svg:path style="fill:#C83434; fill-opacity:1.0;  stroke:#C83434; stroke-width:1.000000; stroke-opacity:1;  stroke-linecap:round; stroke-linejoin:round;fill-rule:evenodd;" d="M 46975000.000000,48645000.000000 46978425.000000,48627779.000000 46988180.000000,48613180.000000 47002779.000000,48603425.000000 47020000.000000,48600000.000000 47480000.000000,48600000.000000 47497221.000000,48603425.000000 47511820.000000,48613180.000000 47521575.000000,48627779.000000 47525000.000000,48645000.000000 47525000.000000,48855000.000000 47521575.000000,48872221.000000 47511820.000000,48886820.000000 47497221.000000,48896575.000000 47480000.000000,48900000.000000 47020000.000000,48900000.000000 47002779.000000,48896575.000000 46988180.000000,48886820.000000 46978425.000000,48872221.000000 46975000.000000,48855000.000000 Z"/> 
<svg:path style="fill:#C83434; fill-opacity:1.0;  stroke:#C83434; stroke-width:1.000000; stroke-opacity:1;  stroke-linecap:round; stroke-linejoin:round;fill-rule:evenodd;" d="M 46975000.000000,49145000.000000 46978425.000000,49127779.000000 46988180.000000,49113180.000000 47002779.000000,49103425.000000 47020000.000000,49100000.000000 47480000.000000,49100000.000000 47497221.000000,49103425.000000 47511820.000000,49113180.000000 47521575.000000,49127779.000000 47525000.000000,49145000.000000 47525000.000000,49355000.000000 47521575.000000,49372221.000000 47511820.000000,49386820.000000 47497221.000000,49396575.000000 47480000.000000,49400000.000000 47020000.000000,49400000.000000 47002779.000000,49396575.000000 46988180.000000,49386820.000000 46978425.000000,49372221.000000 46975000.000000,49355000.000000 Z"/> 
<svg:path style="fill:#C83434; fill-opacity:1.0;  stroke:#C83434; stroke-width:1.000000; stroke-opacity:1;  stroke-linecap:round; stroke-linejoin:round;fill-rule:evenodd;" d="M 46975000.000000,49645000.000000 46978425.000000,49627779.000000 46988180.000000,49613180.000000 47002779.000000,49603425.000000 47020000.000000,49600000.000000 47480000.000000,49600000.000000 47497221.000000,49603425.000000 47511820.000000,49613180.000000 47521575.000000,49627779.000000 47525000.000000,49645000.000000 47525000.000000,49855000.000000 47521575.000000,49872221.000000 47511820.000000,49886820.000000 47497221.000000,49896575.000000 47480000.000000,49900000.000000 47020000.000000,49900000.000000 47002779.000000,49896575.000000 46988180.000000,49886820.000000 46978425.000000,49872221.000000 46975000.000000,49855000.000000 Z"/> 
<svg:path style="fill:#C83434; fill-opacity:1.0;  stroke:#C83434; stroke-width:1.000000; stroke-opacity:1;  stroke-linecap:round; stroke-linejoin:round;fill-rule:evenodd;" d="M 46975000.000000,50145000.000000 46978425.000000,50127779.000000 46988180.000000,50113180.000000 47002779.000000,50103425.000000 47020000.000000,50100000.000000 47480000.000000,50100000.000000 47497221.000000,50103425.000000 47511820.000000,50113180.000000 47521575.000000,50127779.000000 47525000.000000,50145000.000000 47525000.000000,50355000.000000 47521575.000000,50372221.000000 47511820.000000,50386820.000000 47497221.000000,50396575.000000 47480000.000000,50400000.000000 47020000.000000,50400000.000000 47002779.000000,50396575.000000 46988180.000000,50386820.000000 46978425.000000,50372221.000000 46975000.000000,50355000.000000 Z"/> 
<svg:path style="fill:#C83434; fill-opacity:1.0;  stroke:#C83434; stroke-width:1.000000; stroke-opacity:1;  stroke-linecap:round; stroke-linejoin:round;fill-rule:evenodd;" d="M 46975000.000000,50645000.000000 46978425.000000,50627779.000000 46988180.000000,50613180.000000 47002779.000000,50603425.000000 47020000.000000,50600000.000000 47480000.000000,50600000.000000 47497221.000000,50603425.000000 47511820.000000,50613180.000000 47521575.000000,50627779.000000 47525000.000000,50645000.000000 47525000.000000,50855000.000000 47521575.000000,50872221.000000 47511820.000000,50886820.000000 47497221.000000,50896575.000000 47480000.000000,50900000.000000 47020000.000000,50900000.000000 47002779.000000,50896575.000000 46988180.000000,50886820.000000 46978425.000000,50872221.000000 46975000.000000,50855000.000000 Z"/> 
<svg:path style="fill:#C83434; fill-opacity:1.0;  stroke:#C83434; stroke-width:1.000000; stroke-opacity:1;  stroke-linecap:round; stroke-linejoin:round;fill-rule:evenodd;" d="M 46975000.000000,51145000.000000 46978425.000000,51127779.000000 46988180.000000,51113180.000000 47002779.000000,51103425.000000 47020000.000000,51100000.000000 47480000.000000,51100000.000000 47497221.000000,51103425.000000 47511820.000000,51113180.000000 47521575.000000,51127779.000000 47525000.000000,51145000.000000 47525000.000000,51355000.000000 47521575.000000,51372221.000000 47511820.000000,51386820.000000 47497221.000000,51396575.000000 47480000.000000,51400000.000000 47020000.000000,51400000.000000 47002779.000000,51396575.000000 46988180.000000,51386820.000000 46978425.000000,51372221.000000 46975000.000000,51355000.000000 Z"/> 
<svg:path style="fill:#C83434; fill-opacity:1.0;  stroke:#C83434; stroke-width:1.000000; stroke-opacity:1;  stroke-linecap:round; stroke-linejoin:round;fill-rule:evenodd;" d="M 46975000.000000,51645000.000000 46978425.000000,51627779.000000 46988180.000000,51613180.000000 47002779.000000,51603425.000000 47020000.000000,51600000.000000 47480000.000000,51600000.000000 47497221.000000,51603425.000000 47511820.000000,51613180.000000 47521575.000000,51627779.000000 47525000.000000,51645000.000000 47525000.000000,51855000.000000 47521575.000000,51872221.000000 47511820.000000,51886820.000000 47497221.000000,51896575.000000 47480000.000000,51900000.000000 47020000.000000,51900000.000000 47002779.000000,51896575.000000 46988180.000000,51886820.000000 46978425.000000,51872221.000000 46975000.000000,51855000.000000 Z"/> 
<svg:path style="fill:#C83434; fill-opacity:1.0;  stroke:#C83434; stroke-width:1.000000; stroke-opacity:1;  stroke-linecap:round; stroke-linejoin:round;fill-rule:evenodd;" d="M 46975000.000000,52145000.000000 46978425.000000,52127779.000000 46988180.000000,52113180.000000 47002779.000000,52103425.000000 47020000.000000,52100000.000000 47480000.000000,52100000.000000 47497221.000000,52103425.000000 47511820.000000,52113180.000000 47521575.000000,52127779.000000 47525000.000000,52145000.000000 47525000.000000,52355000.000000 47521575.000000,52372221.000000 47511820.000000,52386820.000000 47497221.000000,52396575.000000 47480000.000000,52400000.000000 47020000.000000,52400000.000000 47002779.000000,52396575.000000 46988180.000000,52386820.000000 46978425.000000,52372221.000000 46975000.000000,52355000.000000 Z"/> 
<svg:path style="fill:#C83434; fill-opacity:1.0;  stroke:#C83434; stroke-width:1.000000; stroke-opacity:1;  stroke-linecap:round; stroke-linejoin:round;fill-rule:evenodd;" d="M 47645000.000000,53025000.000000 47627779.000000,53021575.000000 47613180.000000,53011820.000000 47603425.000000,52997221.000000 47600000.000000,52980000.000000 47600000.000000,52520000.000000 47603425.000000,52502779.000000 47613180.000000,52488180.000000 47627779.000000,52478425.000000 47645000.000000,52475000.000000 47855000.000000,52475000.000000 47872221.000000,52478425.000000 47886820.000000,52488180.000000 47896575.000000,52502779.000000 47900000.000000,52520000.000000 47900000.000000,52980000.000000 47896575.000000,52997221.000000 47886820.000000,53011820.000000 47872221.000000,53021575.000000 47855000.000000,53025000.000000 Z"/> 
<svg:path style="fill:#C83434; fill-opacity:1.0;  stroke:#C83434; stroke-width:1.000000; stroke-opacity:1;  stroke-linecap:round; stroke-linejoin:round;fill-rule:evenodd;" d="M 48145000.000000,53025000.000000 48127779.000000,53021575.000000 48113180.000000,53011820.000000 48103425.000000,52997221.000000 48100000.000000,52980000.000000 48100000.000000,52520000.000000 48103425.000000,52502779.000000 48113180.000000,52488180.000000 48127779.000000,52478425.000000 48145000.000000,52475000.000000 48355000.000000,52475000.000000 48372221.000000,52478425.000000 48386820.000000,52488180.000000 48396575.000000,52502779.000000 48400000.000000,52520000.000000 48400000.000000,52980000.000000 48396575.000000,52997221.000000 48386820.000000,53011820.000000 48372221.000000,53021575.000000 48355000.000000,53025000.000000 Z"/> 
<svg:path style="fill:#C83434; fill-opacity:1.0;  stroke:#C83434; stroke-width:1.000000; stroke-opacity:1;  stroke-linecap:round; stroke-linejoin:round;fill-rule:evenodd;" d="M 48645000.000000,53025000.000000 48627779.000000,53021575.000000 48613180.000000,53011820.000000 48603425.000000,52997221.000000 48600000.000000,52980000.000000 48600000.000000,52520000.000000 48603425.000000,52502779.000000 48613180.000000,52488180.000000 48627779.000000,52478425.000000 48645000.000000,52475000.000000 48855000.000000,52475000.000000 48872221.000000,52478425.000000 48886820.000000,52488180.000000 48896575.000000,52502779.000000 48900000.000000,52520000.000000 48900000.000000,52980000.000000 48896575.000000,52997221.000000 48886820.000000,53011820.000000 48872221.000000,53021575.000000 48855000.000000,53025000.000000 Z"/> 
<svg:path style="fill:#C83434; fill-opacity:1.0;  stroke:#C83434; stroke-width:1.000000; stroke-opacity:1;  stroke-linecap:round; stroke-linejoin:round;fill-rule:evenodd;" d="M 49145000.000000,53025000.000000 49127779.000000,53021575.000000 49113180.000000,53011820.000000 49103425.000000,52997221.000000 49100000.000000,52980000.000000 49100000.000000,52520000.000000 49103425.000000,52502779.000000 49113180.000000,52488180.000000 49127779.000000,52478425.000000 49145000.000000,52475000.000000 49355000.000000,52475000.000000 49372221.000000,52478425.000000 49386820.000000,52488180.000000 49396575.000000,52502779.000000 49400000.000000,52520000.000000 49400000.000000,52980000.000000 49396575.000000,52997221.000000 49386820.000000,53011820.000000 49372221.000000,53021575.000000 49355000.000000,53025000.000000 Z"/> 
<svg:path style="fill:#C83434; fill-opacity:1.0;  stroke:#C83434; stroke-width:1.000000; stroke-opacity:1;  stroke-linecap:round; stroke-linejoin:round;fill-rule:evenodd;" d="M 49645000.000000,53025000.000000 49627779.000000,53021575.000000 49613180.000000,53011820.000000 49603425.000000,52997221.000000 49600000.000000,52980000.000000 49600000.000000,52520000.000000 49603425.000000,52502779.000000 49613180.000000,52488180.000000 49627779.000000,52478425.000000 49645000.000000,52475000.000000 49855000.000000,52475000.000000 49872221.000000,52478425.000000 49886820.000000,52488180.000000 49896575.000000,52502779.000000 49900000.000000,52520000.000000 49900000.000000,52980000.000000 49896575.000000,52997221.000000 49886820.000000,53011820.000000 49872221.000000,53021575.000000 49855000.000000,53025000.000000 Z"/> 
<svg:path style="fill:#C83434; fill-opacity:1.0;  stroke:#C83434; stroke-width:1.000000; stroke-opacity:1;  stroke-linecap:round; stroke-linejoin:round;fill-rule:evenodd;" d="M 50145000.000000,53025000.000000 50127779.000000,53021575.000000 50113180.000000,53011820.000000 50103425.000000,52997221.000000 50100000.000000,52980000.000000 50100000.000000,52520000.000000 50103425.000000,52502779.000000 50113180.000000,52488180.000000 50127779.000000,52478425.000000 50145000.000000,52475000.000000 50355000.000000,52475000.000000 50372221.000000,52478425.000000 50386820.000000,52488180.000000 50396575.000000,52502779.000000 50400000.000000,52520000.000000 50400000.000000,52980000.000000 50396575.000000,52997221.000000 50386820.000000,53011820.000000 50372221.000000,53021575.000000 50355000.000000,53025000.000000 Z"/> 
<svg:path style="fill:#C83434; fill-opacity:1.0;  stroke:#C83434; stroke-width:1.000000; stroke-opacity:1;  stroke-linecap:round; stroke-linejoin:round;fill-rule:evenodd;" d="M 50645000.000000,53025000.000000 50627779.000000,53021575.000000 50613180.000000,53011820.000000 50603425.000000,52997221.000000 50600000.000000,52980000.000000 50600000.000000,52520000.000000 50603425.000000,52502779.000000 50613180.000000,52488180.000000 50627779.000000,52478425.000000 50645000.000000,52475000.000000 50855000.000000,52475000.000000 50872221.000000,52478425.000000 50886820.000000,52488180.000000 50896575.000000,52502779.000000 50900000.000000,52520000.000000 50900000.000000,52980000.000000 50896575.000000,52997221.000000 50886820.000000,53011820.000000 50872221.000000,53021575.000000 50855000.000000,53025000.000000 Z"/> 
<svg:path style="fill:#C83434; fill-opacity:1.0;  stroke:#C83434; stroke-width:1.000000; stroke-opacity:1;  stroke-linecap:round; stroke-linejoin:round;fill-rule:evenodd;" d="M 51145000.000000,53025000.000000 51127779.000000,53021575.000000 51113180.000000,53011820.000000 51103425.000000,52997221.000000 51100000.000000,52980000.000000 51100000.000000,52520000.000000 51103425.000000,52502779.000000 51113180.000000,52488180.000000 51127779.000000,52478425.000000 51145000.000000,52475000.000000 51355000.000000,52475000.000000 51372221.000000,52478425.000000 51386820.000000,52488180.000000 51396575.000000,52502779.000000 51400000.000000,52520000.000000 51400000.000000,52980000.000000 51396575.000000,52997221.000000 51386820.000000,53011820.000000 51372221.000000,53021575.000000 51355000.000000,53025000.000000 Z"/> 
<svg:path style="fill:#C83434; fill-opacity:1.0;  stroke:#C83434; stroke-width:1.000000; stroke-opacity:1;  stroke-linecap:round; stroke-linejoin:round;fill-rule:evenodd;" d="M 51645000.000000,53025000.000000 51627779.000000,53021575.000000 51613180.000000,53011820.000000 51603425.000000,52997221.000000 51600000.000000,52980000.000000 51600000.000000,52520000.000000 51603425.000000,52502779.000000 51613180.000000,52488180.000000 51627779.000000,52478425.000000 51645000.000000,52475000.000000 51855000.000000,52475000.000000 51872221.000000,52478425.000000 51886820.000000,52488180.000000 51896575.000000,52502779.000000 51900000.000000,52520000.000000 51900000.000000,52980000.000000 51896575.000000,52997221.000000 51886820.000000,53011820.000000 51872221.000000,53021575.000000 51855000.000000,53025000.000000 Z"/> 
<svg:path style="fill:#C83434; fill-opacity:1.0;  stroke:#C83434; stroke-width:1.000000; stroke-opacity:1;  stroke-linecap:round; stroke-linejoin:round;fill-rule:evenodd;" d="M 52145000.000000,53025000.000000 52127779.000000,53021575.000000 52113180.000000,53011820.000000 52103425.000000,52997221.000000 52100000.000000,52980000.000000 52100000.000000,52520000.000000 52103425.000000,52502779.000000 52113180.000000,52488180.000000 52127779.000000,52478425.000000 52145000.000000,52475000.000000 52355000.000000,52475000.000000 52372221.000000,52478425.000000 52386820.000000,52488180.000000 52396575.000000,52502779.000000 52400000.000000,52520000.000000 52400000.000000,52980000.000000 52396575.000000,52997221.000000 52386820.000000,53011820.000000 52372221.000000,53021575.000000 52355000.000000,53025000.000000 Z"/> 
<svg:path style="fill:#C83434; fill-opacity:1.0;  stroke:#C83434; stroke-width:1.000000; stroke-opacity:1;  stroke-linecap:round; stroke-linejoin:round;fill-rule:evenodd;" d="M 53025000.000000,52355000.000000 53021575.000000,52372221.000000 53011820.000000,52386820.000000 52997221.000000,52396575.000000 52980000.000000,52400000.000000 52520000.000000,52400000.000000 52502779.000000,52396575.000000 52488180.000000,52386820.000000 52478425.000000,52372221.000000 52475000.000000,52355000.000000 52475000.000000,52145000.000000 52478425.000000,52127779.000000 52488180.000000,52113180.000000 52502779.000000,52103425.000000 52520000.000000,52100000.000000 52980000.000000,52100000.000000 52997221.000000,52103425.000000 53011820.000000,52113180.000000 53021575.000000,52127779.000000 53025000.000000,52145000.000000 Z"/> 
<svg:path style="fill:#C83434; fill-opacity:1.0;  stroke:#C83434; stroke-width:1.000000; stroke-opacity:1;  stroke-linecap:round; stroke-linejoin:round;fill-rule:evenodd;" d="M 53025000.000000,51855000.000000 53021575.000000,51872221.000000 53011820.000000,51886820.000000 52997221.000000,51896575.000000 52980000.000000,51900000.000000 52520000.000000,51900000.000000 52502779.000000,51896575.000000 52488180.000000,51886820.000000 52478425.000000,51872221.000000 52475000.000000,51855000.000000 52475000.000000,51645000.000000 52478425.000000,51627779.000000 52488180.000000,51613180.000000 52502779.000000,51603425.000000 52520000.000000,51600000.000000 52980000.000000,51600000.000000 52997221.000000,51603425.000000 53011820.000000,51613180.000000 53021575.000000,51627779.000000 53025000.000000,51645000.000000 Z"/> 
<svg:path style="fill:#C83434; fill-opacity:1.0;  stroke:#C83434; stroke-width:1.000000; stroke-opacity:1;  stroke-linecap:round; stroke-linejoin:round;fill-rule:evenodd;" d="M 53025000.000000,51355000.000000 53021575.000000,51372221.000000 53011820.000000,51386820.000000 52997221.000000,51396575.000000 52980000.000000,51400000.000000 52520000.000000,51400000.000000 52502779.000000,51396575.000000 52488180.000000,51386820.000000 52478425.000000,51372221.000000 52475000.000000,51355000.000000 52475000.000000,51145000.000000 52478425.000000,51127779.000000 52488180.000000,51113180.000000 52502779.000000,51103425.000000 52520000.000000,51100000.000000 52980000.000000,51100000.000000 52997221.000000,51103425.000000 53011820.000000,51113180.000000 53021575.000000,51127779.000000 53025000.000000,51145000.000000 Z"/> 
<svg:path style="fill:#C83434; fill-opacity:1.0;  stroke:#C83434; stroke-width:1.000000; stroke-opacity:1;  stroke-linecap:round; stroke-linejoin:round;fill-rule:evenodd;" d="M 53025000.000000,50855000.000000 53021575.000000,50872221.000000 53011820.000000,50886820.000000 52997221.000000,50896575.000000 52980000.000000,50900000.000000 52520000.000000,50900000.000000 52502779.000000,50896575.000000 52488180.000000,50886820.000000 52478425.000000,50872221.000000 52475000.000000,50855000.000000 52475000.000000,50645000.000000 52478425.000000,50627779.000000 52488180.000000,50613180.000000 52502779.000000,50603425.000000 52520000.000000,50600000.000000 52980000.000000,50600000.000000 52997221.000000,50603425.000000 53011820.000000,50613180.000000 53021575.000000,50627779.000000 53025000.000000,50645000.000000 Z"/> 
<svg:path style="fill:#C83434; fill-opacity:1.0;  stroke:#C83434; stroke-width:1.000000; stroke-opacity:1;  stroke-linecap:round; stroke-linejoin:round;fill-rule:evenodd;" d="M 53025000.000000,50355000.000000 53021575.000000,50372221.000000 53011820.000000,50386820.000000 52997221.000000,50396575.000000 52980000.000000,50400000.000000 52520000.000000,50400000.000000 52502779.000000,50396575.000000 52488180.000000,50386820.000000 52478425.000000,50372221.000000 52475000.000000,50355000.000000 52475000.000000,50145000.000000 52478425.000000,50127779.000000 52488180.000000,50113180.000000 52502779.000000,50103425.000000 52520000.000000,50100000.000000 52980000.000000,50100000.000000 52997221.000000,50103425.000000 53011820.000000,50113180.000000 53021575.000000,50127779.000000 53025000.000000,50145000.000000 Z"/> 
<svg:path style="fill:#C83434; fill-opacity:1.0;  stroke:#C83434; stroke-width:1.000000; stroke-opacity:1;  stroke-linecap:round; stroke-linejoin:round;fill-rule:evenodd;" d="M 53025000.000000,49855000.000000 53021575.000000,49872221.000000 53011820.000000,49886820.000000 52997221.000000,49896575.000000 52980000.000000,49900000.000000 52520000.000000,49900000.000000 52502779.000000,49896575.000000 52488180.000000,49886820.000000 52478425.000000,49872221.000000 52475000.000000,49855000.000000 52475000.000000,49645000.000000 52478425.000000,49627779.000000 52488180.000000,49613180.000000 52502779.000000,49603425.000000 52520000.000000,49600000.000000 52980000.000000,49600000.000000 52997221.000000,49603425.000000 53011820.000000,49613180.000000 53021575.000000,49627779.000000 53025000.000000,49645000.000000 Z"/> 
<svg:path style="fill:#C83434; fill-opacity:1.0;  stroke:#C83434; stroke-width:1.000000; stroke-opacity:1;  stroke-linecap:round; stroke-linejoin:round;fill-rule:evenodd;" d="M 53025000.000000,49355000.000000 53021575.000000,49372221.000000 53011820.000000,49386820.000000 52997221.000000,49396575.000000 52980000.000000,49400000.000000 52520000.000000,49400000.000000 52502779.000000,49396575.000000 52488180.000000,49386820.000000 52478425.000000,49372221.000000 52475000.000000,49355000.000000 52475000.000000,49145000.000000 52478425.000000,49127779.000000 52488180.000000,49113180.000000 52502779.000000,49103425.000000 52520000.000000,49100000.000000 52980000.000000,49100000.000000 52997221.000000,49103425.000000 53011820.000000,49113180.000000 53021575.000000,49127779.000000 53025000.000000,49145000.000000 Z"/> 
<svg:path style="fill:#C83434; fill-opacity:1.0;  stroke:#C83434; stroke-width:1.000000; stroke-opacity:1;  stroke-linecap:round; stroke-linejoin:round;fill-rule:evenodd;" d="M 53025000.000000,48855000.000000 53021575.000000,48872221.000000 53011820.000000,48886820.000000 52997221.000000,48896575.000000 52980000.000000,48900000.000000 52520000.000000,48900000.000000 52502779.000000,48896575.000000 52488180.000000,48886820.000000 52478425.000000,48872221.000000 52475000.000000,48855000.000000 52475000.000000,48645000.000000 52478425.000000,48627779.000000 52488180.000000,48613180.000000 52502779.000000,48603425.000000 52520000.000000,48600000.000000 52980000.000000,48600000.000000 52997221.000000,48603425.000000 53011820.000000,48613180.000000 53021575.000000,48627779.000000 53025000.000000,48645000.000000 Z"/> 
<svg:path style="fill:#C83434; fill-opacity:1.0;  stroke:#C83434; stroke-width:1.000000; stroke-opacity:1;  stroke-linecap:round; stroke-linejoin:round;fill-rule:evenodd;" d="M 53025000.000000,48355000.000000 53021575.000000,48372221.000000 53011820.000000,48386820.000000 52997221.000000,48396575.000000 52980000.000000,48400000.000000 52520000.000000,48400000.000000 52502779.000000,48396575.000000 52488180.000000,48386820.000000 52478425.000000,48372221.000000 52475000.000000,48355000.000000 52475000.000000,48145000.000000 52478425.000000,48127779.000000 52488180.000000,48113180.000000 52502779.000000,48103425.000000 52520000.000000,48100000.000000 52980000.000000,48100000.000000 52997221.000000,48103425.000000 53011820.000000,48113180.000000 53021575.000000,48127779.000000 53025000.000000,48145000.000000 Z"/> 
<svg:path style="fill:#C83434; fill-opacity:1.0;  stroke:#C83434; stroke-width:1.000000; stroke-opacity:1;  stroke-linecap:round; stroke-linejoin:round;fill-rule:evenodd;" d="M 53025000.000000,47855000.000000 53021575.000000,47872221.000000 53011820.000000,47886820.000000 52997221.000000,47896575.000000 52980000.000000,47900000.000000 52520000.000000,47900000.000000 52502779.000000,47896575.000000 52488180.000000,47886820.000000 52478425.000000,47872221.000000 52475000.000000,47855000.000000 52475000.000000,47645000.000000 52478425.000000,47627779.000000 52488180.000000,47613180.000000 52502779.000000,47603425.000000 52520000.000000,47600000.000000 52980000.000000,47600000.000000 52997221.000000,47603425.000000 53011820.000000,47613180.000000 53021575.000000,47627779.000000 53025000.000000,47645000.000000 Z"/> 
<svg:path style="fill:#C83434; fill-opacity:1.0;  stroke:#C83434; stroke-width:1.000000; stroke-opacity:1;  stroke-linecap:round; stroke-linejoin:round;fill-rule:evenodd;" d="M 52355000.000000,46975000.000000 52372221.000000,46978425.000000 52386820.000000,46988180.000000 52396575.000000,47002779.000000 52400000.000000,47020000.000000 52400000.000000,47480000.000000 52396575.000000,47497221.000000 52386820.000000,47511820.000000 52372221.000000,47521575.000000 52355000.000000,47525000.000000 52145000.000000,47525000.000000 52127779.000000,47521575.000000 52113180.000000,47511820.000000 52103425.000000,47497221.000000 52100000.000000,47480000.000000 52100000.000000,47020000.000000 52103425.000000,47002779.000000 52113180.000000,46988180.000000 52127779.000000,46978425.000000 52145000.000000,46975000.000000 Z"/> 
<svg:path style="fill:#C83434; fill-opacity:1.0;  stroke:#C83434; stroke-width:1.000000; stroke-opacity:1;  stroke-linecap:round; stroke-linejoin:round;fill-rule:evenodd;" d="M 51855000.000000,46975000.000000 51872221.000000,46978425.000000 51886820.000000,46988180.000000 51896575.000000,47002779.000000 51900000.000000,47020000.000000 51900000.000000,47480000.000000 51896575.000000,47497221.000000 51886820.000000,47511820.000000 51872221.000000,47521575.000000 51855000.000000,47525000.000000 51645000.000000,47525000.000000 51627779.000000,47521575.000000 51613180.000000,47511820.000000 51603425.000000,47497221.000000 51600000.000000,47480000.000000 51600000.000000,47020000.000000 51603425.000000,47002779.000000 51613180.000000,46988180.000000 51627779.000000,46978425.000000 51645000.000000,46975000.000000 Z"/> 
<svg:path style="fill:#C83434; fill-opacity:1.0;  stroke:#C83434; stroke-width:1.000000; stroke-opacity:1;  stroke-linecap:round; stroke-linejoin:round;fill-rule:evenodd;" d="M 51355000.000000,46975000.000000 51372221.000000,46978425.000000 51386820.000000,46988180.000000 51396575.000000,47002779.000000 51400000.000000,47020000.000000 51400000.000000,47480000.000000 51396575.000000,47497221.000000 51386820.000000,47511820.000000 51372221.000000,47521575.000000 51355000.000000,47525000.000000 51145000.000000,47525000.000000 51127779.000000,47521575.000000 51113180.000000,47511820.000000 51103425.000000,47497221.000000 51100000.000000,47480000.000000 51100000.000000,47020000.000000 51103425.000000,47002779.000000 51113180.000000,46988180.000000 51127779.000000,46978425.000000 51145000.000000,46975000.000000 Z"/> 
<svg:path style="fill:#C83434; fill-opacity:1.0;  stroke:#C83434; stroke-width:1.000000; stroke-opacity:1;  stroke-linecap:round; stroke-linejoin:round;fill-rule:evenodd;" d="M 50855000.000000,46975000.000000 50872221.000000,46978425.000000 50886820.000000,46988180.000000 50896575.000000,47002779.000000 50900000.000000,47020000.000000 50900000.000000,47480000.000000 50896575.000000,47497221.000000 50886820.000000,47511820.000000 50872221.000000,47521575.000000 50855000.000000,47525000.000000 50645000.000000,47525000.000000 50627779.000000,47521575.000000 50613180.000000,47511820.000000 50603425.000000,47497221.000000 50600000.000000,47480000.000000 50600000.000000,47020000.000000 50603425.000000,47002779.000000 50613180.000000,46988180.000000 50627779.000000,46978425.000000 50645000.000000,46975000.000000 Z"/> 
<svg:path style="fill:#C83434; fill-opacity:1.0;  stroke:#C83434; stroke-width:1.000000; stroke-opacity:1;  stroke-linecap:round; stroke-linejoin:round;fill-rule:evenodd;" d="M 50355000.000000,46975000.000000 50372221.000000,46978425.000000 50386820.000000,46988180.000000 50396575.000000,47002779.000000 50400000.000000,47020000.000000 50400000.000000,47480000.000000 50396575.000000,47497221.000000 50386820.000000,47511820.000000 50372221.000000,47521575.000000 50355000.000000,47525000.000000 50145000.000000,47525000.000000 50127779.000000,47521575.000000 50113180.000000,47511820.000000 50103425.000000,47497221.000000 50100000.000000,47480000.000000 50100000.000000,47020000.000000 50103425.000000,47002779.000000 50113180.000000,46988180.000000 50127779.000000,46978425.000000 50145000.000000,46975000.000000 Z"/> 
<svg:path style="fill:#C83434; fill-opacity:1.0;  stroke:#C83434; stroke-width:1.000000; stroke-opacity:1;  stroke-linecap:round; stroke-linejoin:round;fill-rule:evenodd;" d="M 49855000.000000,46975000.000000 49872221.000000,46978425.000000 49886820.000000,46988180.000000 49896575.000000,47002779.000000 49900000.000000,47020000.000000 49900000.000000,47480000.000000 49896575.000000,47497221.000000 49886820.000000,47511820.000000 49872221.000000,47521575.000000 49855000.000000,47525000.000000 49645000.000000,47525000.000000 49627779.000000,47521575.000000 49613180.000000,47511820.000000 49603425.000000,47497221.000000 49600000.000000,47480000.000000 49600000.000000,47020000.000000 49603425.000000,47002779.000000 49613180.000000,46988180.000000 49627779.000000,46978425.000000 49645000.000000,46975000.000000 Z"/> 
<svg:path style="fill:#C83434; fill-opacity:1.0;  stroke:#C83434; stroke-width:1.000000; stroke-opacity:1;  stroke-linecap:round; stroke-linejoin:round;fill-rule:evenodd;" d="M 49355000.000000,46975000.000000 49372221.000000,46978425.000000 49386820.000000,46988180.000000 49396575.000000,47002779.000000 49400000.000000,47020000.000000 49400000.000000,47480000.000000 49396575.000000,47497221.000000 49386820.000000,47511820.000000 49372221.000000,47521575.000000 49355000.000000,47525000.000000 49145000.000000,47525000.000000 49127779.000000,47521575.000000 49113180.000000,47511820.000000 49103425.000000,47497221.000000 49100000.000000,47480000.000000 49100000.000000,47020000.000000 49103425.000000,47002779.000000 49113180.000000,46988180.000000 49127779.000000,46978425.000000 49145000.000000,46975000.000000 Z"/> 
<svg:path style="fill:#C83434; fill-opacity:1.0;  stroke:#C83434; stroke-width:1.000000; stroke-opacity:1;  stroke-linecap:round; stroke-linejoin:round;fill-rule:evenodd;" d="M 48855000.000000,46975000.000000 48872221.000000,46978425.000000 48886820.000000,46988180.000000 48896575.000000,47002779.000000 48900000.000000,47020000.000000 48900000.000000,47480000.000000 48896575.000000,47497221.000000 48886820.000000,47511820.000000 48872221.000000,47521575.000000 48855000.000000,47525000.000000 48645000.000000,47525000.000000 48627779.000000,47521575.000000 48613180.000000,47511820.000000 48603425.000000,47497221.000000 48600000.000000,47480000.000000 48600000.000000,47020000.000000 48603425.000000,47002779.000000 48613180.000000,46988180.000000 48627779.000000,46978425.000000 48645000.000000,46975000.000000 Z"/> 
<svg:path style="fill:#C83434; fill-opacity:1.0;  stroke:#C83434; stroke-width:1.000000; stroke-opacity:1;  stroke-linecap:round; stroke-linejoin:round;fill-rule:evenodd;" d="M 48355000.000000,46975000.000000 48372221.000000,46978425.000000 48386820.000000,46988180.000000 48396575.000000,47002779.000000 48400000.000000,47020000.000000 48400000.000000,47480000.000000 48396575.000000,47497221.000000 48386820.000000,47511820.000000 48372221.000000,47521575.000000 48355000.000000,47525000.000000 48145000.000000,47525000.000000 48127779.000000,47521575.000000 48113180.000000,47511820.000000 48103425.000000,47497221.000000 48100000.000000,47480000.000000 48100000.000000,47020000.000000 48103425.000000,47002779.000000 48113180.000000,46988180.000000 48127779.000000,46978425.000000 48145000.000000,46975000.000000 Z"/> 
<svg:path style="fill:#C83434; fill-opacity:1.0;  stroke:#C83434; stroke-width:1.000000; stroke-opacity:1;  stroke-linecap:round; stroke-linejoin:round;fill-rule:evenodd;" d="M 47855000.000000,46975000.000000 47872221.000000,46978425.000000 47886820.000000,46988180.000000 47896575.000000,47002779.000000 47900000.000000,47020000.000000 47900000.000000,47480000.000000 47896575.000000,47497221.000000 47886820.000000,47511820.000000 47872221.000000,47521575.000000 47855000.000000,47525000.000000 47645000.000000,47525000.000000 47627779.000000,47521575.000000 47613180.000000,47511820.000000 47603425.000000,47497221.000000 47600000.000000,47480000.000000 47600000.000000,47020000.000000 47603425.000000,47002779.000000 47613180.000000,46988180.000000 47627779.000000,46978425.000000 47645000.000000,46975000.000000 Z"/> 
<svg:path style="fill:#C83434; fill-opacity:1.0;  stroke:#C83434; stroke-width:1.000000; stroke-opacity:1;  stroke-linecap:round; stroke-linejoin:round;fill-rule:evenodd;" d="M 47950000.000000,48155000.000000 47965605.000000,48076550.000000 48010043.000000,48010043.000000 48076550.000000,47965605.000000 48155000.000000,47950000.000000 51845000.000000,47950000.000000 51923450.000000,47965605.000000 51989957.000000,48010043.000000 52034395.000000,48076550.000000 52050000.000000,48155000.000000 52050000.000000,51845000.000000 52034395.000000,51923450.000000 51989957.000000,51989957.000000 51923450.000000,52034395.000000 51845000.000000,52050000.000000 48155000.000000,52050000.000000 48076550.000000,52034395.000000 48010043.000000,51989957.000000 47965605.000000,51923450.000000 47950000.000000,51845000.000000 Z"/> 
</svg:g>
<svg:g>
</svg:g>
<svg:g>
</svg:g>
<svg:g>
</svg:g>
</svg:g>
<svg:g style="fill:#FFFFFF; fill-opacity:1.0;  stroke:#FFFFFF; stroke-width:1.000000; stroke-opacity:1;  stroke-linecap:round; stroke-linejoin:round;">
</svg:g>
<svg:g style="fill:#000000; fill-opacity:1.0;  stroke:#000000; stroke-width:1.000000; stroke-opacity:1;  stroke-linecap:round; stroke-linejoin:round;">
<svg:g>
</svg:g>
<svg:g>
</svg:g>
<svg:g>
</svg:g>
<svg:g>
</svg:g>
</svg:g> 
</svg:g></svg>
