<?xml version='1.0' encoding='ASCII' standalone='yes'?>
<svg xmlns:svg="http://www.w3.org/2000/svg" xmlns="http://www.w3.org/2000/svg" xmlns:xlink="http://www.w3.org/1999/xlink" version="1.1" width="9.999980cm" height="9.999980cm" viewBox="0 0 99999800 99999800">
<title>SVG Picture created as kicadBoard-B_Cu.svg date 2022/11/16 11:29:06 </title>
  <desc>Picture generated by PCBNEW </desc>
<g style="fill:#000000; fill-opacity:1.000000;stroke:#000000; stroke-opacity:1.000000; stroke-linecap:round; stroke-linejoin:round;" transform="translate(0 0) scale(1 1)">
</g>
<g style="fill:#000000; fill-opacity:0.0;  stroke:#000000; stroke-width:0.000000; stroke-opacity:1;  stroke-linecap:round; stroke-linejoin:round;">
<g>
</g>
<g>
</g>
<g>
</g>
<g>
</g>
</g>
<g style="fill:#FFFFFF; fill-opacity:0.0;  stroke:#FFFFFF; stroke-width:0.000000; stroke-opacity:1;  stroke-linecap:round; stroke-linejoin:round;">
</g>
<g style="fill:#000000; fill-opacity:0.0;  stroke:#000000; stroke-width:0.000000; stroke-opacity:1;  stroke-linecap:round; stroke-linejoin:round;">
<g>
</g>
<g>
</g>
<g>
</g>
<g>
</g>
</g> 
<svg:g><svg:title>SVG Picture created as kicadBoard-B_Adhesive.svg date 2022/11/16 11:29:06 </svg:title>
  <svg:desc>Picture generated by PCBNEW </svg:desc>
<svg:g style="fill:#000000; fill-opacity:1.000000;stroke:#000000; stroke-opacity:1.000000; stroke-linecap:round; stroke-linejoin:round;" transform="translate(0 0) scale(1 1)">
</svg:g>
<svg:g style="fill:#000000; fill-opacity:0.0;  stroke:#000000; stroke-width:0.000000; stroke-opacity:1;  stroke-linecap:round; stroke-linejoin:round;">
<svg:g>
</svg:g>
<svg:g>
</svg:g>
<svg:g>
</svg:g>
<svg:g>
</svg:g>
</svg:g>
<svg:g style="fill:#000000; fill-opacity:0.0;  stroke:#000000; stroke-width:0.000000; stroke-opacity:1;  stroke-linecap:round; stroke-linejoin:round;">
<svg:g>
</svg:g>
<svg:g>
</svg:g>
<svg:g>
</svg:g>
<svg:g>
</svg:g>
</svg:g> 
</svg:g><svg:g><svg:title>SVG Picture created as kicadBoard-B_Courtyard.svg date 2022/11/16 11:29:06 </svg:title>
  <svg:desc>Picture generated by PCBNEW </svg:desc>
<svg:g style="fill:#000000; fill-opacity:1.000000;stroke:#000000; stroke-opacity:1.000000; stroke-linecap:round; stroke-linejoin:round;" transform="translate(0 0) scale(1 1)">
</svg:g>
<svg:g style="fill:#000000; fill-opacity:0.0;  stroke:#000000; stroke-width:0.000000; stroke-opacity:1;  stroke-linecap:round; stroke-linejoin:round;">
<svg:g>
</svg:g>
<svg:g>
</svg:g>
<svg:g>
</svg:g>
<svg:g>
</svg:g>
</svg:g>
<svg:g style="fill:#000000; fill-opacity:0.0;  stroke:#000000; stroke-width:0.000000; stroke-opacity:1;  stroke-linecap:round; stroke-linejoin:round;">
<svg:g>
</svg:g>
<svg:g>
</svg:g>
<svg:g>
</svg:g>
<svg:g>
</svg:g>
</svg:g> 
</svg:g><svg:g><svg:title>SVG Picture created as kicadBoard-B_Fab.svg date 2022/11/16 11:29:06 </svg:title>
  <svg:desc>Picture generated by PCBNEW </svg:desc>
<svg:g style="fill:#000000; fill-opacity:1.000000;stroke:#000000; stroke-opacity:1.000000; stroke-linecap:round; stroke-linejoin:round;" transform="translate(0 0) scale(1 1)">
</svg:g>
<svg:g style="fill:#000000; fill-opacity:0.0;  stroke:#000000; stroke-width:0.000000; stroke-opacity:1;  stroke-linecap:round; stroke-linejoin:round;">
<svg:g>
</svg:g>
<svg:g>
</svg:g>
<svg:g>
</svg:g>
<svg:g>
</svg:g>
</svg:g>
<svg:g style="fill:#000000; fill-opacity:0.0;  stroke:#000000; stroke-width:0.000000; stroke-opacity:1;  stroke-linecap:round; stroke-linejoin:round;">
<svg:g>
</svg:g>
<svg:g>
</svg:g>
<svg:g>
</svg:g>
<svg:g>
</svg:g>
</svg:g> 
</svg:g><svg:g><svg:title>SVG Picture created as kicadBoard-B_Mask.svg date 2022/11/16 11:29:06 </svg:title>
  <svg:desc>Picture generated by PCBNEW </svg:desc>
<svg:g style="fill:#000000; fill-opacity:1.000000;stroke:#000000; stroke-opacity:1.000000; stroke-linecap:round; stroke-linejoin:round;" transform="translate(0 0) scale(1 1)">
</svg:g>
<svg:g style="fill:#000000; fill-opacity:0.0;  stroke:#000000; stroke-width:0.000000; stroke-opacity:1;  stroke-linecap:round; stroke-linejoin:round;">
<svg:g>
</svg:g>
<svg:g>
</svg:g>
<svg:g>
</svg:g>
<svg:g>
</svg:g>
</svg:g>
<svg:g style="fill:#000000; fill-opacity:0.0;  stroke:#000000; stroke-width:0.000000; stroke-opacity:1;  stroke-linecap:round; stroke-linejoin:round;">
<svg:g>
</svg:g>
<svg:g>
</svg:g>
<svg:g>
</svg:g>
<svg:g>
</svg:g>
</svg:g> 
</svg:g><svg:g><svg:title>SVG Picture created as kicadBoard-B_Paste.svg date 2022/11/16 11:29:06 </svg:title>
  <svg:desc>Picture generated by PCBNEW </svg:desc>
<svg:g style="fill:#000000; fill-opacity:1.000000;stroke:#000000; stroke-opacity:1.000000; stroke-linecap:round; stroke-linejoin:round;" transform="translate(0 0) scale(1 1)">
</svg:g>
<svg:g style="fill:#000000; fill-opacity:0.0;  stroke:#000000; stroke-width:0.000000; stroke-opacity:1;  stroke-linecap:round; stroke-linejoin:round;">
<svg:g>
</svg:g>
<svg:g>
</svg:g>
<svg:g>
</svg:g>
<svg:g>
</svg:g>
</svg:g>
<svg:g style="fill:#000000; fill-opacity:0.0;  stroke:#000000; stroke-width:0.000000; stroke-opacity:1;  stroke-linecap:round; stroke-linejoin:round;">
<svg:g>
</svg:g>
<svg:g>
</svg:g>
<svg:g>
</svg:g>
<svg:g>
</svg:g>
</svg:g> 
</svg:g><svg:g><svg:title>SVG Picture created as kicadBoard-B_Silkscreen.svg date 2022/11/16 11:29:06 </svg:title>
  <svg:desc>Picture generated by PCBNEW </svg:desc>
<svg:g style="fill:#000000; fill-opacity:1.000000;stroke:#000000; stroke-opacity:1.000000; stroke-linecap:round; stroke-linejoin:round;" transform="translate(0 0) scale(1 1)">
</svg:g>
<svg:g style="fill:#000000; fill-opacity:0.0;  stroke:#000000; stroke-width:0.000000; stroke-opacity:1;  stroke-linecap:round; stroke-linejoin:round;">
<svg:g>
</svg:g>
<svg:g>
</svg:g>
<svg:g>
</svg:g>
<svg:g>
</svg:g>
</svg:g>
<svg:g style="fill:#000000; fill-opacity:0.0;  stroke:#000000; stroke-width:0.000000; stroke-opacity:1;  stroke-linecap:round; stroke-linejoin:round;">
<svg:g>
</svg:g>
<svg:g>
</svg:g>
<svg:g>
</svg:g>
<svg:g>
</svg:g>
</svg:g> 
</svg:g><svg:g><svg:title>SVG Picture created as kicadBoard-Edge_Cuts.svg date 2022/11/16 11:29:06 </svg:title>
  <svg:desc>Picture generated by PCBNEW </svg:desc>
<svg:g style="fill:#000000; fill-opacity:1.000000;stroke:#000000; stroke-opacity:1.000000; stroke-linecap:round; stroke-linejoin:round;" transform="translate(0 0) scale(1 1)">
</svg:g>
<svg:g style="fill:#000000; fill-opacity:0.0;  stroke:#000000; stroke-width:0.000000; stroke-opacity:1;  stroke-linecap:round; stroke-linejoin:round;">
<svg:g>
</svg:g>
<svg:g>
</svg:g>
<svg:g>
</svg:g>
<svg:g>
</svg:g>
</svg:g> 
</svg:g><svg:g><svg:title>SVG Picture created as kicadBoard-F_Adhesive.svg date 2022/11/16 11:29:06 </svg:title>
  <svg:desc>Picture generated by PCBNEW </svg:desc>
<svg:g style="fill:#000000; fill-opacity:1.000000;stroke:#000000; stroke-opacity:1.000000; stroke-linecap:round; stroke-linejoin:round;" transform="translate(0 0) scale(1 1)">
</svg:g>
<svg:g style="fill:#000000; fill-opacity:0.0;  stroke:#000000; stroke-width:0.000000; stroke-opacity:1;  stroke-linecap:round; stroke-linejoin:round;">
<svg:g>
</svg:g>
<svg:g>
</svg:g>
<svg:g>
</svg:g>
<svg:g>
</svg:g>
</svg:g>
<svg:g style="fill:#000000; fill-opacity:0.0;  stroke:#000000; stroke-width:0.000000; stroke-opacity:1;  stroke-linecap:round; stroke-linejoin:round;">
<svg:g>
</svg:g>
<svg:g>
</svg:g>
<svg:g>
</svg:g>
<svg:g>
</svg:g>
</svg:g> 
</svg:g><svg:g><svg:title>SVG Picture created as kicadBoard-F_Courtyard.svg date 2022/11/16 11:29:06 </svg:title>
  <svg:desc>Picture generated by PCBNEW </svg:desc>
<svg:g style="fill:#000000; fill-opacity:1.000000;stroke:#000000; stroke-opacity:1.000000; stroke-linecap:round; stroke-linejoin:round;" transform="translate(0 0) scale(1 1)">
</svg:g>
<svg:g style="fill:#000000; fill-opacity:0.0;  stroke:#000000; stroke-width:0.000000; stroke-opacity:1;  stroke-linecap:round; stroke-linejoin:round;">
</svg:g>
<svg:g style="fill:#FF26E2; fill-opacity:0.0;  stroke:#FF26E2; stroke-width:0.000000; stroke-opacity:1;  stroke-linecap:round; stroke-linejoin:round;">
</svg:g>
<svg:g style="fill:#FF26E2; fill-opacity:0.0;  stroke:#FF26E2; stroke-width:50000.000000; stroke-opacity:1;  stroke-linecap:round; stroke-linejoin:round;">
<svg:path d="M47100000 48250000 L48250000 47100000 "/>
<svg:path d="M46050000 48950000 L46050000 51050000 "/>
<svg:path d="M47100000 48950000 L46050000 48950000 "/>
<svg:path d="M47100000 51050000 L47100000 51750000 "/>
<svg:path d="M47100000 48250000 L47100000 48950000 "/>
<svg:path d="M52900000 47100000 L52900000 48950000 "/>
<svg:path d="M52900000 48950000 L53950000 48950000 "/>
<svg:path d="M47100000 51750000 L48250000 52900000 "/>
<svg:path d="M53950000 48950000 L53950000 51050000 "/>
<svg:path d="M48250000 52900000 L52900000 52900000 "/>
<svg:path d="M46050000 51050000 L47100000 51050000 "/>
<svg:path d="M48250000 47100000 L52900000 47100000 "/>
<svg:path d="M53950000 51050000 L52900000 51050000 "/>
<svg:path d="M52900000 51050000 L52900000 52900000 "/>
<svg:g>
</svg:g>
<svg:g>
</svg:g>
<svg:g>
</svg:g>
<svg:g>
</svg:g>
</svg:g>
<svg:g style="fill:#000000; fill-opacity:0.0;  stroke:#000000; stroke-width:50000.000000; stroke-opacity:1;  stroke-linecap:round; stroke-linejoin:round;">
<svg:g>
</svg:g>
<svg:g>
</svg:g>
<svg:g>
</svg:g>
<svg:g>
</svg:g>
</svg:g> 
</svg:g><svg:g><svg:title>SVG Picture created as kicadBoard-F_Cu.svg date 2022/11/16 11:29:06 </svg:title>
  <svg:desc>Picture generated by PCBNEW </svg:desc>
<svg:g style="fill:#000000; fill-opacity:1.000000;stroke:#000000; stroke-opacity:1.000000; stroke-linecap:round; stroke-linejoin:round;" transform="translate(0 0) scale(1 1)">
</svg:g>
<svg:g style="fill:#000000; fill-opacity:0.0;  stroke:#000000; stroke-width:0.000000; stroke-opacity:1;  stroke-linecap:round; stroke-linejoin:round;">
<svg:g>
</svg:g>
<svg:g style="fill:#C83434; fill-opacity:0.0;  stroke:#C83434; stroke-width:0.000000; stroke-opacity:1;  stroke-linecap:round; stroke-linejoin:round;">
</svg:g>
<svg:g style="fill:#C83434; fill-opacity:0.0;  stroke:#C83434; stroke-width:1.000000; stroke-opacity:1;  stroke-linecap:round; stroke-linejoin:round;">
</svg:g>
<svg:g style="fill:#C83434; fill-opacity:1.0;  stroke:#C83434; stroke-width:1.000000; stroke-opacity:1;  stroke-linecap:round; stroke-linejoin:round;">
<svg:path style="fill:#C83434; fill-opacity:1.0;  stroke:#C83434; stroke-width:1.000000; stroke-opacity:1;  stroke-linecap:round; stroke-linejoin:round;fill-rule:evenodd;" d="M 46300000.000000,49450000.000000 46319030.000000,49354329.000000 46373223.000000,49273223.000000 46454329.000000,49219030.000000 46550000.000000,49200000.000000 49050000.000000,49200000.000000 49145671.000000,49219030.000000 49226777.000000,49273223.000000 49280970.000000,49354329.000000 49300000.000000,49450000.000000 49300000.000000,50550000.000000 49280970.000000,50645671.000000 49226777.000000,50726777.000000 49145671.000000,50780970.000000 49050000.000000,50800000.000000 46550000.000000,50800000.000000 46454329.000000,50780970.000000 46373223.000000,50726777.000000 46319030.000000,50645671.000000 46300000.000000,50550000.000000 Z"/> 
<svg:path style="fill:#C83434; fill-opacity:1.0;  stroke:#C83434; stroke-width:1.000000; stroke-opacity:1;  stroke-linecap:round; stroke-linejoin:round;fill-rule:evenodd;" d="M 50700000.000000,49450000.000000 50719030.000000,49354329.000000 50773223.000000,49273223.000000 50854329.000000,49219030.000000 50950000.000000,49200000.000000 53450000.000000,49200000.000000 53545671.000000,49219030.000000 53626777.000000,49273223.000000 53680970.000000,49354329.000000 53700000.000000,49450000.000000 53700000.000000,50550000.000000 53680970.000000,50645671.000000 53626777.000000,50726777.000000 53545671.000000,50780970.000000 53450000.000000,50800000.000000 50950000.000000,50800000.000000 50854329.000000,50780970.000000 50773223.000000,50726777.000000 50719030.000000,50645671.000000 50700000.000000,50550000.000000 Z"/> 
</svg:g>
<svg:g>
</svg:g>
<svg:g>
</svg:g>
<svg:g>
</svg:g>
</svg:g>
<svg:g style="fill:#FFFFFF; fill-opacity:1.0;  stroke:#FFFFFF; stroke-width:1.000000; stroke-opacity:1;  stroke-linecap:round; stroke-linejoin:round;">
</svg:g>
<svg:g style="fill:#000000; fill-opacity:1.0;  stroke:#000000; stroke-width:1.000000; stroke-opacity:1;  stroke-linecap:round; stroke-linejoin:round;">
<svg:g>
</svg:g>
<svg:g>
</svg:g>
<svg:g>
</svg:g>
<svg:g>
</svg:g>
</svg:g> 
</svg:g><svg:g><svg:title>SVG Picture created as kicadBoard-F_Fab.svg date 2022/11/16 11:29:06 </svg:title>
  <svg:desc>Picture generated by PCBNEW </svg:desc>
<svg:g style="fill:#000000; fill-opacity:1.000000;stroke:#000000; stroke-opacity:1.000000; stroke-linecap:round; stroke-linejoin:round;" transform="translate(0 0) scale(1 1)">
</svg:g>
<svg:g style="fill:#000000; fill-opacity:0.0;  stroke:#000000; stroke-width:0.000000; stroke-opacity:1;  stroke-linecap:round; stroke-linejoin:round;">
</svg:g>
<svg:g style="fill:#AFAFAF; fill-opacity:0.0;  stroke:#AFAFAF; stroke-width:0.000000; stroke-opacity:1;  stroke-linecap:round; stroke-linejoin:round;">
</svg:g>
<svg:g style="fill:#AFAFAF; fill-opacity:0.0;  stroke:#AFAFAF; stroke-width:150000.000000; stroke-opacity:1;  stroke-linecap:round; stroke-linejoin:round;">
<svg:text x="50000000.000000" y="54200000.000000" textLength="11004524.000000" font-size="1333333.000000" lengthAdjust="spacingAndGlyphs" text-anchor="middle" opacity="0">CP_Elec_5x5.7</svg:text>
<svg:g class="stroked-text"><svg:desc>CP_Elec_5x5.7</svg:desc>
<svg:path d="M45404761 54057142 L45357142 54104761 L45214285 54152380 L45119047 54152380 L44976190 54104761 L44880952 54009523 L44833333 53914285 L44785714 53723809 L44785714 53580952 L44833333 53390476 L44880952 53295238 L44976190 53200000 L45119047 53152380 L45214285 53152380 L45357142 53200000 L45404761 53247619 "/>
<svg:path d="M45833333 54152380 L45833333 53152380 L46214285 53152380 L46309523 53200000 L46357142 53247619 L46404761 53342857 L46404761 53485714 L46357142 53580952 L46309523 53628571 L46214285 53676190 L45833333 53676190 "/>
<svg:path d="M46595238 54247619 L47357142 54247619 "/>
<svg:path d="M47595238 53628571 L47928571 53628571 "/>
<svg:path d="M48071428 54152380 L47595238 54152380 L47595238 53152380 L48071428 53152380 "/>
<svg:path d="M48642857 54152380 L48547619 54104761 L48500000 54009523 L48500000 53152380 "/>
<svg:path d="M49404761 54104761 L49309523 54152380 L49119047 54152380 L49023809 54104761 L48976190 54009523 L48976190 53628571 L49023809 53533333 L49119047 53485714 L49309523 53485714 L49404761 53533333 L49452380 53628571 L49452380 53723809 L48976190 53819047 "/>
<svg:path d="M50309523 54104761 L50214285 54152380 L50023809 54152380 L49928571 54104761 L49880952 54057142 L49833333 53961904 L49833333 53676190 L49880952 53580952 L49928571 53533333 L50023809 53485714 L50214285 53485714 L50309523 53533333 "/>
<svg:path d="M50500000 54247619 L51261904 54247619 "/>
<svg:path d="M51976190 53152380 L51500000 53152380 L51452380 53628571 L51500000 53580952 L51595238 53533333 L51833333 53533333 L51928571 53580952 L51976190 53628571 L52023809 53723809 L52023809 53961904 L51976190 54057142 L51928571 54104761 L51833333 54152380 L51595238 54152380 L51500000 54104761 L51452380 54057142 "/>
<svg:path d="M52357142 54152380 L52880952 53485714 "/>
<svg:path d="M52357142 53485714 L52880952 54152380 "/>
<svg:path d="M53738095 53152380 L53261904 53152380 L53214285 53628571 L53261904 53580952 L53357142 53533333 L53595238 53533333 L53690476 53580952 L53738095 53628571 L53785714 53723809 L53785714 53961904 L53738095 54057142 L53690476 54104761 L53595238 54152380 L53357142 54152380 L53261904 54104761 L53214285 54057142 "/>
<svg:path d="M54214285 54057142 L54261904 54104761 L54214285 54152380 L54166666 54104761 L54214285 54057142 L54214285 54152380 "/>
<svg:path d="M54595238 53152380 L55261904 53152380 L54833333 54152380 "/>
</svg:g><svg:text x="50000000.000000" y="50500000.000000" textLength="22528333.000000" font-size="1333333.000000" lengthAdjust="spacingAndGlyphs" text-anchor="middle" opacity="0">FZKCAPACITORSMCPELEC5X57</svg:text>
<svg:g class="stroked-text"><svg:desc>FZKCAPACITORSMCPELEC5X57</svg:desc>
<svg:path d="M39404761 49928571 L39071428 49928571 "/>
<svg:path d="M39071428 50452380 L39071428 49452380 L39547619 49452380 "/>
<svg:path d="M39833333 49452380 L40500000 49452380 L39833333 50452380 L40500000 50452380 "/>
<svg:path d="M40880952 50452380 L40880952 49452380 "/>
<svg:path d="M41452380 50452380 L41023809 49880952 "/>
<svg:path d="M41452380 49452380 L40880952 50023809 "/>
<svg:path d="M42452380 50357142 L42404761 50404761 L42261904 50452380 L42166666 50452380 L42023809 50404761 L41928571 50309523 L41880952 50214285 L41833333 50023809 L41833333 49880952 L41880952 49690476 L41928571 49595238 L42023809 49500000 L42166666 49452380 L42261904 49452380 L42404761 49500000 L42452380 49547619 "/>
<svg:path d="M42833333 50166666 L43309523 50166666 "/>
<svg:path d="M42738095 50452380 L43071428 49452380 L43404761 50452380 "/>
<svg:path d="M43738095 50452380 L43738095 49452380 L44119047 49452380 L44214285 49500000 L44261904 49547619 L44309523 49642857 L44309523 49785714 L44261904 49880952 L44214285 49928571 L44119047 49976190 L43738095 49976190 "/>
<svg:path d="M44690476 50166666 L45166666 50166666 "/>
<svg:path d="M44595238 50452380 L44928571 49452380 L45261904 50452380 "/>
<svg:path d="M46166666 50357142 L46119047 50404761 L45976190 50452380 L45880952 50452380 L45738095 50404761 L45642857 50309523 L45595238 50214285 L45547619 50023809 L45547619 49880952 L45595238 49690476 L45642857 49595238 L45738095 49500000 L45880952 49452380 L45976190 49452380 L46119047 49500000 L46166666 49547619 "/>
<svg:path d="M46595238 50452380 L46595238 49452380 "/>
<svg:path d="M46928571 49452380 L47500000 49452380 "/>
<svg:path d="M47214285 50452380 L47214285 49452380 "/>
<svg:path d="M48023809 49452380 L48214285 49452380 L48309523 49500000 L48404761 49595238 L48452380 49785714 L48452380 50119047 L48404761 50309523 L48309523 50404761 L48214285 50452380 L48023809 50452380 L47928571 50404761 L47833333 50309523 L47785714 50119047 L47785714 49785714 L47833333 49595238 L47928571 49500000 L48023809 49452380 "/>
<svg:path d="M49452380 50452380 L49119047 49976190 "/>
<svg:path d="M48880952 50452380 L48880952 49452380 L49261904 49452380 L49357142 49500000 L49404761 49547619 L49452380 49642857 L49452380 49785714 L49404761 49880952 L49357142 49928571 L49261904 49976190 L48880952 49976190 "/>
<svg:path d="M49833333 50404761 L49976190 50452380 L50214285 50452380 L50309523 50404761 L50357142 50357142 L50404761 50261904 L50404761 50166666 L50357142 50071428 L50309523 50023809 L50214285 49976190 L50023809 49928571 L49928571 49880952 L49880952 49833333 L49833333 49738095 L49833333 49642857 L49880952 49547619 L49928571 49500000 L50023809 49452380 L50261904 49452380 L50404761 49500000 "/>
<svg:path d="M50833333 50452380 L50833333 49452380 L51166666 50166666 L51500000 49452380 L51500000 50452380 "/>
<svg:path d="M52547619 50357142 L52500000 50404761 L52357142 50452380 L52261904 50452380 L52119047 50404761 L52023809 50309523 L51976190 50214285 L51928571 50023809 L51928571 49880952 L51976190 49690476 L52023809 49595238 L52119047 49500000 L52261904 49452380 L52357142 49452380 L52500000 49500000 L52547619 49547619 "/>
<svg:path d="M52976190 50452380 L52976190 49452380 L53357142 49452380 L53452380 49500000 L53500000 49547619 L53547619 49642857 L53547619 49785714 L53500000 49880952 L53452380 49928571 L53357142 49976190 L52976190 49976190 "/>
<svg:path d="M53976190 49928571 L54309523 49928571 "/>
<svg:path d="M54452380 50452380 L53976190 50452380 L53976190 49452380 L54452380 49452380 "/>
<svg:path d="M55357142 50452380 L54880952 50452380 L54880952 49452380 "/>
<svg:path d="M55690476 49928571 L56023809 49928571 "/>
<svg:path d="M56166666 50452380 L55690476 50452380 L55690476 49452380 L56166666 49452380 "/>
<svg:path d="M57166666 50357142 L57119047 50404761 L56976190 50452380 L56880952 50452380 L56738095 50404761 L56642857 50309523 L56595238 50214285 L56547619 50023809 L56547619 49880952 L56595238 49690476 L56642857 49595238 L56738095 49500000 L56880952 49452380 L56976190 49452380 L57119047 49500000 L57166666 49547619 "/>
<svg:path d="M58071428 49452380 L57595238 49452380 L57547619 49928571 L57595238 49880952 L57690476 49833333 L57928571 49833333 L58023809 49880952 L58071428 49928571 L58119047 50023809 L58119047 50261904 L58071428 50357142 L58023809 50404761 L57928571 50452380 L57690476 50452380 L57595238 50404761 L57547619 50357142 "/>
<svg:path d="M58452380 49452380 L59119047 50452380 "/>
<svg:path d="M59119047 49452380 L58452380 50452380 "/>
<svg:path d="M59976190 49452380 L59500000 49452380 L59452380 49928571 L59500000 49880952 L59595238 49833333 L59833333 49833333 L59928571 49880952 L59976190 49928571 L60023809 50023809 L60023809 50261904 L59976190 50357142 L59928571 50404761 L59833333 50452380 L59595238 50452380 L59500000 50404761 L59452380 50357142 "/>
<svg:path d="M60357142 49452380 L61023809 49452380 L60595238 50452380 "/>
</svg:g></svg:g>
<svg:g style="fill:#AFAFAF; fill-opacity:0.0;  stroke:#AFAFAF; stroke-width:100000.000000; stroke-opacity:1;  stroke-linecap:round; stroke-linejoin:round;">
<svg:path d="M48350000 52650000 L52650000 52650000 "/>
<svg:path d="M47350000 48350000 L47350000 51650000 "/>
<svg:path d="M47350000 51650000 L48350000 52650000 "/>
<svg:path d="M48216044 48550000 L48216044 49050000 "/>
<svg:path d="M47350000 48350000 L48350000 47350000 "/>
<svg:path d="M52650000 47350000 L52650000 52650000 "/>
<svg:path d="M47966044 48800000 L48466044 48800000 "/>
<svg:path d="M48350000 47350000 L52650000 47350000 "/>
<svg:circle cx="50000000.000000" cy="50000000.000000" r="2500000.000000"/> 
<svg:g>
</svg:g>
<svg:g>
</svg:g>
<svg:g>
</svg:g>
<svg:g>
</svg:g>
</svg:g>
<svg:g style="fill:#000000; fill-opacity:0.0;  stroke:#000000; stroke-width:100000.000000; stroke-opacity:1;  stroke-linecap:round; stroke-linejoin:round;">
<svg:g>
</svg:g>
<svg:g>
</svg:g>
<svg:g>
</svg:g>
<svg:g>
</svg:g>
</svg:g> 
</svg:g><svg:g><svg:title>SVG Picture created as kicadBoard-F_Paste.svg date 2022/11/16 11:29:06 </svg:title>
  <svg:desc>Picture generated by PCBNEW </svg:desc>
<svg:g style="fill:#000000; fill-opacity:1.000000;stroke:#000000; stroke-opacity:1.000000; stroke-linecap:round; stroke-linejoin:round;" transform="translate(0 0) scale(1 1)">
</svg:g>
<svg:g style="fill:#000000; fill-opacity:0.0;  stroke:#000000; stroke-width:0.000000; stroke-opacity:1;  stroke-linecap:round; stroke-linejoin:round;">
<svg:g>
</svg:g>
<svg:g style="fill:#000000; fill-opacity:0.0;  stroke:#000000; stroke-width:1.000000; stroke-opacity:1;  stroke-linecap:round; stroke-linejoin:round;">
</svg:g>
<svg:g style="fill:#000000; fill-opacity:1.0;  stroke:#000000; stroke-width:1.000000; stroke-opacity:1;  stroke-linecap:round; stroke-linejoin:round;">
<svg:path style="fill:#000000; fill-opacity:1.0;  stroke:#000000; stroke-width:1.000000; stroke-opacity:1;  stroke-linecap:round; stroke-linejoin:round;fill-rule:evenodd;" d="M 46300000.000000,49450000.000000 46319030.000000,49354329.000000 46373223.000000,49273223.000000 46454329.000000,49219030.000000 46550000.000000,49200000.000000 49050000.000000,49200000.000000 49145671.000000,49219030.000000 49226777.000000,49273223.000000 49280970.000000,49354329.000000 49300000.000000,49450000.000000 49300000.000000,50550000.000000 49280970.000000,50645671.000000 49226777.000000,50726777.000000 49145671.000000,50780970.000000 49050000.000000,50800000.000000 46550000.000000,50800000.000000 46454329.000000,50780970.000000 46373223.000000,50726777.000000 46319030.000000,50645671.000000 46300000.000000,50550000.000000 Z"/> 
<svg:path style="fill:#000000; fill-opacity:1.0;  stroke:#000000; stroke-width:1.000000; stroke-opacity:1;  stroke-linecap:round; stroke-linejoin:round;fill-rule:evenodd;" d="M 50700000.000000,49450000.000000 50719030.000000,49354329.000000 50773223.000000,49273223.000000 50854329.000000,49219030.000000 50950000.000000,49200000.000000 53450000.000000,49200000.000000 53545671.000000,49219030.000000 53626777.000000,49273223.000000 53680970.000000,49354329.000000 53700000.000000,49450000.000000 53700000.000000,50550000.000000 53680970.000000,50645671.000000 53626777.000000,50726777.000000 53545671.000000,50780970.000000 53450000.000000,50800000.000000 50950000.000000,50800000.000000 50854329.000000,50780970.000000 50773223.000000,50726777.000000 50719030.000000,50645671.000000 50700000.000000,50550000.000000 Z"/> 
</svg:g>
<svg:g>
</svg:g>
<svg:g>
</svg:g>
<svg:g>
</svg:g>
</svg:g>
<svg:g style="fill:#000000; fill-opacity:1.0;  stroke:#000000; stroke-width:1.000000; stroke-opacity:1;  stroke-linecap:round; stroke-linejoin:round;">
<svg:g>
</svg:g>
<svg:g>
</svg:g>
<svg:g>
</svg:g>
<svg:g>
</svg:g>
</svg:g> 
</svg:g><svg:g><svg:title>SVG Picture created as kicadBoard-F_Silkscreen.svg date 2022/11/16 11:29:06 </svg:title>
  <svg:desc>Picture generated by PCBNEW </svg:desc>
<svg:g style="fill:#000000; fill-opacity:1.000000;stroke:#000000; stroke-opacity:1.000000; stroke-linecap:round; stroke-linejoin:round;" transform="translate(0 0) scale(1 1)">
</svg:g>
<svg:g style="fill:#000000; fill-opacity:0.0;  stroke:#000000; stroke-width:0.000000; stroke-opacity:1;  stroke-linecap:round; stroke-linejoin:round;">
</svg:g>
<svg:g style="fill:#F2EDA1; fill-opacity:0.0;  stroke:#F2EDA1; stroke-width:0.000000; stroke-opacity:1;  stroke-linecap:round; stroke-linejoin:round;">
</svg:g>
<svg:g style="fill:#F2EDA1; fill-opacity:0.0;  stroke:#F2EDA1; stroke-width:150000.000000; stroke-opacity:1;  stroke-linecap:round; stroke-linejoin:round;">
<svg:text x="50000000.000000" y="46800000.000000" textLength="22333334.000000" font-size="1333333.000000" lengthAdjust="spacingAndGlyphs" text-anchor="middle" opacity="0">FZKCAPACITORSMCPELEC5X57</svg:text>
<svg:g class="stroked-text"><svg:desc>FZKCAPACITORSMCPELEC5X57</svg:desc>
<svg:path d="M39404761 46228571 L39071428 46228571 "/>
<svg:path d="M39071428 46752380 L39071428 45752380 L39547619 45752380 "/>
<svg:path d="M39833333 45752380 L40500000 45752380 L39833333 46752380 L40500000 46752380 "/>
<svg:path d="M40880952 46752380 L40880952 45752380 "/>
<svg:path d="M41452380 46752380 L41023809 46180952 "/>
<svg:path d="M41452380 45752380 L40880952 46323809 "/>
<svg:path d="M42452380 46657142 L42404761 46704761 L42261904 46752380 L42166666 46752380 L42023809 46704761 L41928571 46609523 L41880952 46514285 L41833333 46323809 L41833333 46180952 L41880952 45990476 L41928571 45895238 L42023809 45800000 L42166666 45752380 L42261904 45752380 L42404761 45800000 L42452380 45847619 "/>
<svg:path d="M42833333 46466666 L43309523 46466666 "/>
<svg:path d="M42738095 46752380 L43071428 45752380 L43404761 46752380 "/>
<svg:path d="M43738095 46752380 L43738095 45752380 L44119047 45752380 L44214285 45800000 L44261904 45847619 L44309523 45942857 L44309523 46085714 L44261904 46180952 L44214285 46228571 L44119047 46276190 L43738095 46276190 "/>
<svg:path d="M44690476 46466666 L45166666 46466666 "/>
<svg:path d="M44595238 46752380 L44928571 45752380 L45261904 46752380 "/>
<svg:path d="M46166666 46657142 L46119047 46704761 L45976190 46752380 L45880952 46752380 L45738095 46704761 L45642857 46609523 L45595238 46514285 L45547619 46323809 L45547619 46180952 L45595238 45990476 L45642857 45895238 L45738095 45800000 L45880952 45752380 L45976190 45752380 L46119047 45800000 L46166666 45847619 "/>
<svg:path d="M46595238 46752380 L46595238 45752380 "/>
<svg:path d="M46928571 45752380 L47500000 45752380 "/>
<svg:path d="M47214285 46752380 L47214285 45752380 "/>
<svg:path d="M48023809 45752380 L48214285 45752380 L48309523 45800000 L48404761 45895238 L48452380 46085714 L48452380 46419047 L48404761 46609523 L48309523 46704761 L48214285 46752380 L48023809 46752380 L47928571 46704761 L47833333 46609523 L47785714 46419047 L47785714 46085714 L47833333 45895238 L47928571 45800000 L48023809 45752380 "/>
<svg:path d="M49452380 46752380 L49119047 46276190 "/>
<svg:path d="M48880952 46752380 L48880952 45752380 L49261904 45752380 L49357142 45800000 L49404761 45847619 L49452380 45942857 L49452380 46085714 L49404761 46180952 L49357142 46228571 L49261904 46276190 L48880952 46276190 "/>
<svg:path d="M49833333 46704761 L49976190 46752380 L50214285 46752380 L50309523 46704761 L50357142 46657142 L50404761 46561904 L50404761 46466666 L50357142 46371428 L50309523 46323809 L50214285 46276190 L50023809 46228571 L49928571 46180952 L49880952 46133333 L49833333 46038095 L49833333 45942857 L49880952 45847619 L49928571 45800000 L50023809 45752380 L50261904 45752380 L50404761 45800000 "/>
<svg:path d="M50833333 46752380 L50833333 45752380 L51166666 46466666 L51500000 45752380 L51500000 46752380 "/>
<svg:path d="M52547619 46657142 L52500000 46704761 L52357142 46752380 L52261904 46752380 L52119047 46704761 L52023809 46609523 L51976190 46514285 L51928571 46323809 L51928571 46180952 L51976190 45990476 L52023809 45895238 L52119047 45800000 L52261904 45752380 L52357142 45752380 L52500000 45800000 L52547619 45847619 "/>
<svg:path d="M52976190 46752380 L52976190 45752380 L53357142 45752380 L53452380 45800000 L53500000 45847619 L53547619 45942857 L53547619 46085714 L53500000 46180952 L53452380 46228571 L53357142 46276190 L52976190 46276190 "/>
<svg:path d="M53976190 46228571 L54309523 46228571 "/>
<svg:path d="M54452380 46752380 L53976190 46752380 L53976190 45752380 L54452380 45752380 "/>
<svg:path d="M55357142 46752380 L54880952 46752380 L54880952 45752380 "/>
<svg:path d="M55690476 46228571 L56023809 46228571 "/>
<svg:path d="M56166666 46752380 L55690476 46752380 L55690476 45752380 L56166666 45752380 "/>
<svg:path d="M57166666 46657142 L57119047 46704761 L56976190 46752380 L56880952 46752380 L56738095 46704761 L56642857 46609523 L56595238 46514285 L56547619 46323809 L56547619 46180952 L56595238 45990476 L56642857 45895238 L56738095 45800000 L56880952 45752380 L56976190 45752380 L57119047 45800000 L57166666 45847619 "/>
<svg:path d="M58071428 45752380 L57595238 45752380 L57547619 46228571 L57595238 46180952 L57690476 46133333 L57928571 46133333 L58023809 46180952 L58071428 46228571 L58119047 46323809 L58119047 46561904 L58071428 46657142 L58023809 46704761 L57928571 46752380 L57690476 46752380 L57595238 46704761 L57547619 46657142 "/>
<svg:path d="M58452380 45752380 L59119047 46752380 "/>
<svg:path d="M59119047 45752380 L58452380 46752380 "/>
<svg:path d="M59976190 45752380 L59500000 45752380 L59452380 46228571 L59500000 46180952 L59595238 46133333 L59833333 46133333 L59928571 46180952 L59976190 46228571 L60023809 46323809 L60023809 46561904 L59976190 46657142 L59928571 46704761 L59833333 46752380 L59595238 46752380 L59500000 46704761 L59452380 46657142 "/>
<svg:path d="M60357142 45752380 L61023809 45752380 L60595238 46752380 "/>
</svg:g></svg:g>
<svg:g style="fill:#F2EDA1; fill-opacity:0.0;  stroke:#F2EDA1; stroke-width:120000.000000; stroke-opacity:1;  stroke-linecap:round; stroke-linejoin:round;">
<svg:path d="M47240000 51695563 L47240000 51060000 "/>
<svg:path d="M48304437 47240000 L52760000 47240000 "/>
<svg:path d="M47240000 48304437 L47240000 48940000 "/>
<svg:path d="M52760000 47240000 L52760000 48940000 "/>
<svg:path d="M47240000 48304437 L48304437 47240000 "/>
<svg:path d="M48304437 52760000 L52760000 52760000 "/>
<svg:path d="M46375000 48315000 L47000000 48315000 "/>
<svg:path d="M46687500 48002500 L46687500 48627500 "/>
<svg:path d="M52760000 52760000 L52760000 51060000 "/>
<svg:path d="M47240000 51695563 L48304437 52760000 "/>
<svg:g>
</svg:g>
<svg:g>
</svg:g>
<svg:g>
</svg:g>
<svg:g>
</svg:g>
</svg:g>
<svg:g style="fill:#000000; fill-opacity:0.0;  stroke:#000000; stroke-width:120000.000000; stroke-opacity:1;  stroke-linecap:round; stroke-linejoin:round;">
<svg:g>
</svg:g>
<svg:g>
</svg:g>
<svg:g>
</svg:g>
<svg:g>
</svg:g>
</svg:g> 
</svg:g><svg:g><svg:title>SVG Picture created as kicadBoard-Margin.svg date 2022/11/16 11:29:06 </svg:title>
  <svg:desc>Picture generated by PCBNEW </svg:desc>
<svg:g style="fill:#000000; fill-opacity:1.000000;stroke:#000000; stroke-opacity:1.000000; stroke-linecap:round; stroke-linejoin:round;" transform="translate(0 0) scale(1 1)">
</svg:g>
<svg:g style="fill:#000000; fill-opacity:0.0;  stroke:#000000; stroke-width:0.000000; stroke-opacity:1;  stroke-linecap:round; stroke-linejoin:round;">
<svg:g>
</svg:g>
<svg:g>
</svg:g>
<svg:g>
</svg:g>
<svg:g>
</svg:g>
</svg:g>
<svg:g style="fill:#000000; fill-opacity:0.0;  stroke:#000000; stroke-width:0.000000; stroke-opacity:1;  stroke-linecap:round; stroke-linejoin:round;">
<svg:g>
</svg:g>
<svg:g>
</svg:g>
<svg:g>
</svg:g>
<svg:g>
</svg:g>
</svg:g> 
</svg:g><svg:g><svg:title>SVG Picture created as kicadBoard-F_Cu.svg date 2022/11/16 11:29:06 </svg:title>
  <svg:desc>Picture generated by PCBNEW </svg:desc>
<svg:g style="fill:#000000; fill-opacity:1.000000;stroke:#000000; stroke-opacity:1.000000; stroke-linecap:round; stroke-linejoin:round;" transform="translate(0 0) scale(1 1)">
</svg:g>
<svg:g style="fill:#000000; fill-opacity:0.0;  stroke:#000000; stroke-width:0.000000; stroke-opacity:1;  stroke-linecap:round; stroke-linejoin:round;">
<svg:g>
</svg:g>
<svg:g style="fill:#C83434; fill-opacity:0.0;  stroke:#C83434; stroke-width:0.000000; stroke-opacity:1;  stroke-linecap:round; stroke-linejoin:round;">
</svg:g>
<svg:g style="fill:#C83434; fill-opacity:0.0;  stroke:#C83434; stroke-width:1.000000; stroke-opacity:1;  stroke-linecap:round; stroke-linejoin:round;">
</svg:g>
<svg:g style="fill:#C83434; fill-opacity:1.0;  stroke:#C83434; stroke-width:1.000000; stroke-opacity:1;  stroke-linecap:round; stroke-linejoin:round;">
<svg:path style="fill:#C83434; fill-opacity:1.0;  stroke:#C83434; stroke-width:1.000000; stroke-opacity:1;  stroke-linecap:round; stroke-linejoin:round;fill-rule:evenodd;" d="M 46300000.000000,49450000.000000 46319030.000000,49354329.000000 46373223.000000,49273223.000000 46454329.000000,49219030.000000 46550000.000000,49200000.000000 49050000.000000,49200000.000000 49145671.000000,49219030.000000 49226777.000000,49273223.000000 49280970.000000,49354329.000000 49300000.000000,49450000.000000 49300000.000000,50550000.000000 49280970.000000,50645671.000000 49226777.000000,50726777.000000 49145671.000000,50780970.000000 49050000.000000,50800000.000000 46550000.000000,50800000.000000 46454329.000000,50780970.000000 46373223.000000,50726777.000000 46319030.000000,50645671.000000 46300000.000000,50550000.000000 Z"/> 
<svg:path style="fill:#C83434; fill-opacity:1.0;  stroke:#C83434; stroke-width:1.000000; stroke-opacity:1;  stroke-linecap:round; stroke-linejoin:round;fill-rule:evenodd;" d="M 50700000.000000,49450000.000000 50719030.000000,49354329.000000 50773223.000000,49273223.000000 50854329.000000,49219030.000000 50950000.000000,49200000.000000 53450000.000000,49200000.000000 53545671.000000,49219030.000000 53626777.000000,49273223.000000 53680970.000000,49354329.000000 53700000.000000,49450000.000000 53700000.000000,50550000.000000 53680970.000000,50645671.000000 53626777.000000,50726777.000000 53545671.000000,50780970.000000 53450000.000000,50800000.000000 50950000.000000,50800000.000000 50854329.000000,50780970.000000 50773223.000000,50726777.000000 50719030.000000,50645671.000000 50700000.000000,50550000.000000 Z"/> 
</svg:g>
<svg:g>
</svg:g>
<svg:g>
</svg:g>
<svg:g>
</svg:g>
</svg:g>
<svg:g style="fill:#FFFFFF; fill-opacity:1.0;  stroke:#FFFFFF; stroke-width:1.000000; stroke-opacity:1;  stroke-linecap:round; stroke-linejoin:round;">
</svg:g>
<svg:g style="fill:#000000; fill-opacity:1.0;  stroke:#000000; stroke-width:1.000000; stroke-opacity:1;  stroke-linecap:round; stroke-linejoin:round;">
<svg:g>
</svg:g>
<svg:g>
</svg:g>
<svg:g>
</svg:g>
<svg:g>
</svg:g>
</svg:g> 
</svg:g><svg:g><svg:title>SVG Picture created as kicadBoard-F_Mask.svg date 2022/11/16 11:29:06 </svg:title>
  <svg:desc>Picture generated by PCBNEW </svg:desc>
<svg:g style="fill:#000000; fill-opacity:1.000000;stroke:#000000; stroke-opacity:1.000000; stroke-linecap:round; stroke-linejoin:round;" transform="translate(0 0) scale(1 1)">
</svg:g>
<svg:g style="fill:#000000; fill-opacity:0.0;  stroke:#000000; stroke-width:0.000000; stroke-opacity:1;  stroke-linecap:round; stroke-linejoin:round;">
<svg:g>
</svg:g>
<svg:g style="fill:#000000; fill-opacity:0.0;  stroke:#000000; stroke-width:1.000000; stroke-opacity:1;  stroke-linecap:round; stroke-linejoin:round;">
</svg:g>
<svg:g style="fill:#000000; fill-opacity:1.0;  stroke:#000000; stroke-width:1.000000; stroke-opacity:1;  stroke-linecap:round; stroke-linejoin:round;">
<svg:path style="fill:#000000; fill-opacity:1.0;  stroke:#000000; stroke-width:1.000000; stroke-opacity:1;  stroke-linecap:round; stroke-linejoin:round;fill-rule:evenodd;" d="M 46300000.000000,49450000.000000 46319030.000000,49354329.000000 46373223.000000,49273223.000000 46454329.000000,49219030.000000 46550000.000000,49200000.000000 49050000.000000,49200000.000000 49145671.000000,49219030.000000 49226777.000000,49273223.000000 49280970.000000,49354329.000000 49300000.000000,49450000.000000 49300000.000000,50550000.000000 49280970.000000,50645671.000000 49226777.000000,50726777.000000 49145671.000000,50780970.000000 49050000.000000,50800000.000000 46550000.000000,50800000.000000 46454329.000000,50780970.000000 46373223.000000,50726777.000000 46319030.000000,50645671.000000 46300000.000000,50550000.000000 Z"/> 
<svg:path style="fill:#000000; fill-opacity:1.0;  stroke:#000000; stroke-width:1.000000; stroke-opacity:1;  stroke-linecap:round; stroke-linejoin:round;fill-rule:evenodd;" d="M 50700000.000000,49450000.000000 50719030.000000,49354329.000000 50773223.000000,49273223.000000 50854329.000000,49219030.000000 50950000.000000,49200000.000000 53450000.000000,49200000.000000 53545671.000000,49219030.000000 53626777.000000,49273223.000000 53680970.000000,49354329.000000 53700000.000000,49450000.000000 53700000.000000,50550000.000000 53680970.000000,50645671.000000 53626777.000000,50726777.000000 53545671.000000,50780970.000000 53450000.000000,50800000.000000 50950000.000000,50800000.000000 50854329.000000,50780970.000000 50773223.000000,50726777.000000 50719030.000000,50645671.000000 50700000.000000,50550000.000000 Z"/> 
</svg:g>
<svg:g>
</svg:g>
<svg:g>
</svg:g>
<svg:g>
</svg:g>
</svg:g>
<svg:g style="fill:#000000; fill-opacity:1.0;  stroke:#000000; stroke-width:1.000000; stroke-opacity:1;  stroke-linecap:round; stroke-linejoin:round;">
<svg:g>
</svg:g>
<svg:g>
</svg:g>
<svg:g>
</svg:g>
<svg:g>
</svg:g>
</svg:g> 
</svg:g></svg>
