<?xml version='1.0' encoding='ASCII' standalone='yes'?>
<svg xmlns:svg="http://www.w3.org/2000/svg" xmlns="http://www.w3.org/2000/svg" xmlns:xlink="http://www.w3.org/1999/xlink" version="1.1" width="9.999980cm" height="9.999980cm" viewBox="0 0 99999800 99999800">
<title>SVG Picture created as kicadBoard-B_Cu.svg date 2022/11/18 04:25:29 </title>
  <desc>Picture generated by PCBNEW </desc>
<g style="fill:#000000; fill-opacity:1.000000;stroke:#000000; stroke-opacity:1.000000; stroke-linecap:round; stroke-linejoin:round;" transform="translate(0 0) scale(1 1)">
</g>
<g style="fill:#000000; fill-opacity:0.0;  stroke:#000000; stroke-width:0.000000; stroke-opacity:1;  stroke-linecap:round; stroke-linejoin:round;">
<g>
</g>
<g>
</g>
<g>
</g>
<g>
</g>
</g>
<g style="fill:#FFFFFF; fill-opacity:0.0;  stroke:#FFFFFF; stroke-width:0.000000; stroke-opacity:1;  stroke-linecap:round; stroke-linejoin:round;">
</g>
<g style="fill:#000000; fill-opacity:0.0;  stroke:#000000; stroke-width:0.000000; stroke-opacity:1;  stroke-linecap:round; stroke-linejoin:round;">
<g>
</g>
<g>
</g>
<g>
</g>
<g>
</g>
</g> 
<svg:g><svg:title>SVG Picture created as kicadBoard-B_Adhesive.svg date 2022/11/18 04:25:29 </svg:title>
  <svg:desc>Picture generated by PCBNEW </svg:desc>
<svg:g style="fill:#000000; fill-opacity:1.000000;stroke:#000000; stroke-opacity:1.000000; stroke-linecap:round; stroke-linejoin:round;" transform="translate(0 0) scale(1 1)">
</svg:g>
<svg:g style="fill:#000000; fill-opacity:0.0;  stroke:#000000; stroke-width:0.000000; stroke-opacity:1;  stroke-linecap:round; stroke-linejoin:round;">
<svg:g>
</svg:g>
<svg:g>
</svg:g>
<svg:g>
</svg:g>
<svg:g>
</svg:g>
</svg:g>
<svg:g style="fill:#000000; fill-opacity:0.0;  stroke:#000000; stroke-width:0.000000; stroke-opacity:1;  stroke-linecap:round; stroke-linejoin:round;">
<svg:g>
</svg:g>
<svg:g>
</svg:g>
<svg:g>
</svg:g>
<svg:g>
</svg:g>
</svg:g> 
</svg:g><svg:g><svg:title>SVG Picture created as kicadBoard-B_Courtyard.svg date 2022/11/18 04:25:29 </svg:title>
  <svg:desc>Picture generated by PCBNEW </svg:desc>
<svg:g style="fill:#000000; fill-opacity:1.000000;stroke:#000000; stroke-opacity:1.000000; stroke-linecap:round; stroke-linejoin:round;" transform="translate(0 0) scale(1 1)">
</svg:g>
<svg:g style="fill:#000000; fill-opacity:0.0;  stroke:#000000; stroke-width:0.000000; stroke-opacity:1;  stroke-linecap:round; stroke-linejoin:round;">
<svg:g>
</svg:g>
<svg:g>
</svg:g>
<svg:g>
</svg:g>
<svg:g>
</svg:g>
</svg:g>
<svg:g style="fill:#000000; fill-opacity:0.0;  stroke:#000000; stroke-width:0.000000; stroke-opacity:1;  stroke-linecap:round; stroke-linejoin:round;">
<svg:g>
</svg:g>
<svg:g>
</svg:g>
<svg:g>
</svg:g>
<svg:g>
</svg:g>
</svg:g> 
</svg:g><svg:g><svg:title>SVG Picture created as kicadBoard-B_Fab.svg date 2022/11/18 04:25:29 </svg:title>
  <svg:desc>Picture generated by PCBNEW </svg:desc>
<svg:g style="fill:#000000; fill-opacity:1.000000;stroke:#000000; stroke-opacity:1.000000; stroke-linecap:round; stroke-linejoin:round;" transform="translate(0 0) scale(1 1)">
</svg:g>
<svg:g style="fill:#000000; fill-opacity:0.0;  stroke:#000000; stroke-width:0.000000; stroke-opacity:1;  stroke-linecap:round; stroke-linejoin:round;">
<svg:g>
</svg:g>
<svg:g>
</svg:g>
<svg:g>
</svg:g>
<svg:g>
</svg:g>
</svg:g>
<svg:g style="fill:#000000; fill-opacity:0.0;  stroke:#000000; stroke-width:0.000000; stroke-opacity:1;  stroke-linecap:round; stroke-linejoin:round;">
<svg:g>
</svg:g>
<svg:g>
</svg:g>
<svg:g>
</svg:g>
<svg:g>
</svg:g>
</svg:g> 
</svg:g><svg:g><svg:title>SVG Picture created as kicadBoard-B_Mask.svg date 2022/11/18 04:25:29 </svg:title>
  <svg:desc>Picture generated by PCBNEW </svg:desc>
<svg:g style="fill:#000000; fill-opacity:1.000000;stroke:#000000; stroke-opacity:1.000000; stroke-linecap:round; stroke-linejoin:round;" transform="translate(0 0) scale(1 1)">
</svg:g>
<svg:g style="fill:#000000; fill-opacity:0.0;  stroke:#000000; stroke-width:0.000000; stroke-opacity:1;  stroke-linecap:round; stroke-linejoin:round;">
<svg:g>
</svg:g>
<svg:g>
</svg:g>
<svg:g>
</svg:g>
<svg:g>
</svg:g>
</svg:g>
<svg:g style="fill:#000000; fill-opacity:0.0;  stroke:#000000; stroke-width:0.000000; stroke-opacity:1;  stroke-linecap:round; stroke-linejoin:round;">
<svg:g>
</svg:g>
<svg:g>
</svg:g>
<svg:g>
</svg:g>
<svg:g>
</svg:g>
</svg:g> 
</svg:g><svg:g><svg:title>SVG Picture created as kicadBoard-B_Paste.svg date 2022/11/18 04:25:29 </svg:title>
  <svg:desc>Picture generated by PCBNEW </svg:desc>
<svg:g style="fill:#000000; fill-opacity:1.000000;stroke:#000000; stroke-opacity:1.000000; stroke-linecap:round; stroke-linejoin:round;" transform="translate(0 0) scale(1 1)">
</svg:g>
<svg:g style="fill:#000000; fill-opacity:0.0;  stroke:#000000; stroke-width:0.000000; stroke-opacity:1;  stroke-linecap:round; stroke-linejoin:round;">
<svg:g>
</svg:g>
<svg:g>
</svg:g>
<svg:g>
</svg:g>
<svg:g>
</svg:g>
</svg:g>
<svg:g style="fill:#000000; fill-opacity:0.0;  stroke:#000000; stroke-width:0.000000; stroke-opacity:1;  stroke-linecap:round; stroke-linejoin:round;">
<svg:g>
</svg:g>
<svg:g>
</svg:g>
<svg:g>
</svg:g>
<svg:g>
</svg:g>
</svg:g> 
</svg:g><svg:g><svg:title>SVG Picture created as kicadBoard-B_Silkscreen.svg date 2022/11/18 04:25:29 </svg:title>
  <svg:desc>Picture generated by PCBNEW </svg:desc>
<svg:g style="fill:#000000; fill-opacity:1.000000;stroke:#000000; stroke-opacity:1.000000; stroke-linecap:round; stroke-linejoin:round;" transform="translate(0 0) scale(1 1)">
</svg:g>
<svg:g style="fill:#000000; fill-opacity:0.0;  stroke:#000000; stroke-width:0.000000; stroke-opacity:1;  stroke-linecap:round; stroke-linejoin:round;">
<svg:g>
</svg:g>
<svg:g>
</svg:g>
<svg:g>
</svg:g>
<svg:g>
</svg:g>
</svg:g>
<svg:g style="fill:#000000; fill-opacity:0.0;  stroke:#000000; stroke-width:0.000000; stroke-opacity:1;  stroke-linecap:round; stroke-linejoin:round;">
<svg:g>
</svg:g>
<svg:g>
</svg:g>
<svg:g>
</svg:g>
<svg:g>
</svg:g>
</svg:g> 
</svg:g><svg:g><svg:title>SVG Picture created as kicadBoard-Edge_Cuts.svg date 2022/11/18 04:25:29 </svg:title>
  <svg:desc>Picture generated by PCBNEW </svg:desc>
<svg:g style="fill:#000000; fill-opacity:1.000000;stroke:#000000; stroke-opacity:1.000000; stroke-linecap:round; stroke-linejoin:round;" transform="translate(0 0) scale(1 1)">
</svg:g>
<svg:g style="fill:#000000; fill-opacity:0.0;  stroke:#000000; stroke-width:0.000000; stroke-opacity:1;  stroke-linecap:round; stroke-linejoin:round;">
<svg:g>
</svg:g>
<svg:g>
</svg:g>
<svg:g>
</svg:g>
<svg:g>
</svg:g>
</svg:g> 
</svg:g><svg:g><svg:title>SVG Picture created as kicadBoard-F_Adhesive.svg date 2022/11/18 04:25:29 </svg:title>
  <svg:desc>Picture generated by PCBNEW </svg:desc>
<svg:g style="fill:#000000; fill-opacity:1.000000;stroke:#000000; stroke-opacity:1.000000; stroke-linecap:round; stroke-linejoin:round;" transform="translate(0 0) scale(1 1)">
</svg:g>
<svg:g style="fill:#000000; fill-opacity:0.0;  stroke:#000000; stroke-width:0.000000; stroke-opacity:1;  stroke-linecap:round; stroke-linejoin:round;">
<svg:g>
</svg:g>
<svg:g>
</svg:g>
<svg:g>
</svg:g>
<svg:g>
</svg:g>
</svg:g>
<svg:g style="fill:#000000; fill-opacity:0.0;  stroke:#000000; stroke-width:0.000000; stroke-opacity:1;  stroke-linecap:round; stroke-linejoin:round;">
<svg:g>
</svg:g>
<svg:g>
</svg:g>
<svg:g>
</svg:g>
<svg:g>
</svg:g>
</svg:g> 
</svg:g><svg:g><svg:title>SVG Picture created as kicadBoard-F_Courtyard.svg date 2022/11/18 04:25:29 </svg:title>
  <svg:desc>Picture generated by PCBNEW </svg:desc>
<svg:g style="fill:#000000; fill-opacity:1.000000;stroke:#000000; stroke-opacity:1.000000; stroke-linecap:round; stroke-linejoin:round;" transform="translate(0 0) scale(1 1)">
</svg:g>
<svg:g style="fill:#000000; fill-opacity:0.0;  stroke:#000000; stroke-width:0.000000; stroke-opacity:1;  stroke-linecap:round; stroke-linejoin:round;">
</svg:g>
<svg:g style="fill:#FF26E2; fill-opacity:0.0;  stroke:#FF26E2; stroke-width:0.000000; stroke-opacity:1;  stroke-linecap:round; stroke-linejoin:round;">
</svg:g>
<svg:g style="fill:#FF26E2; fill-opacity:0.0;  stroke:#FF26E2; stroke-width:50000.000000; stroke-opacity:1;  stroke-linecap:round; stroke-linejoin:round;">
<svg:path d="M51550000 51050000 L51550000 48950000 "/>
<svg:path d="M48450000 48950000 L48450000 51050000 "/>
<svg:path d="M48450000 48950000 L51550000 48950000 "/>
<svg:path d="M51550000 51050000 L48450000 51050000 "/>
<svg:g>
</svg:g>
<svg:g>
</svg:g>
<svg:g>
</svg:g>
<svg:g>
</svg:g>
</svg:g>
<svg:g style="fill:#000000; fill-opacity:0.0;  stroke:#000000; stroke-width:50000.000000; stroke-opacity:1;  stroke-linecap:round; stroke-linejoin:round;">
<svg:g>
</svg:g>
<svg:g>
</svg:g>
<svg:g>
</svg:g>
<svg:g>
</svg:g>
</svg:g> 
</svg:g><svg:g><svg:title>SVG Picture created as kicadBoard-F_Fab.svg date 2022/11/18 04:25:29 </svg:title>
  <svg:desc>Picture generated by PCBNEW </svg:desc>
<svg:g style="fill:#000000; fill-opacity:1.000000;stroke:#000000; stroke-opacity:1.000000; stroke-linecap:round; stroke-linejoin:round;" transform="translate(0 0) scale(1 1)">
</svg:g>
<svg:g style="fill:#000000; fill-opacity:0.0;  stroke:#000000; stroke-width:0.000000; stroke-opacity:1;  stroke-linecap:round; stroke-linejoin:round;">
</svg:g>
<svg:g style="fill:#AFAFAF; fill-opacity:0.0;  stroke:#AFAFAF; stroke-width:0.000000; stroke-opacity:1;  stroke-linecap:round; stroke-linejoin:round;">
</svg:g>
<svg:g style="fill:#AFAFAF; fill-opacity:0.0;  stroke:#AFAFAF; stroke-width:150000.000000; stroke-opacity:1;  stroke-linecap:round; stroke-linejoin:round;">
<svg:text x="50000000.000000" y="52600000.000000" textLength="18052143.000000" font-size="1333333.000000" lengthAdjust="spacingAndGlyphs" text-anchor="middle" opacity="0">R_Array_Convex_2x0603</svg:text>
<svg:g class="stroked-text"><svg:desc>R_Array_Convex_2x0603</svg:desc>
<svg:path d="M41880952 52552380 L41547619 52076190 "/>
<svg:path d="M41309523 52552380 L41309523 51552380 L41690476 51552380 L41785714 51600000 L41833333 51647619 L41880952 51742857 L41880952 51885714 L41833333 51980952 L41785714 52028571 L41690476 52076190 L41309523 52076190 "/>
<svg:path d="M42071428 52647619 L42833333 52647619 "/>
<svg:path d="M43023809 52266666 L43499999 52266666 "/>
<svg:path d="M42928571 52552380 L43261904 51552380 L43595238 52552380 "/>
<svg:path d="M43928571 52552380 L43928571 51885714 "/>
<svg:path d="M43928571 52076190 L43976190 51980952 L44023809 51933333 L44119047 51885714 L44214285 51885714 "/>
<svg:path d="M44547619 52552380 L44547619 51885714 "/>
<svg:path d="M44547619 52076190 L44595238 51980952 L44642857 51933333 L44738095 51885714 L44833333 51885714 "/>
<svg:path d="M45595238 52552380 L45595238 52028571 L45547619 51933333 L45452380 51885714 L45261904 51885714 L45166666 51933333 "/>
<svg:path d="M45595238 52504761 L45499999 52552380 L45261904 52552380 L45166666 52504761 L45119047 52409523 L45119047 52314285 L45166666 52219047 L45261904 52171428 L45499999 52171428 L45595238 52123809 "/>
<svg:path d="M45976190 51885714 L46214285 52552380 "/>
<svg:path d="M46452380 51885714 L46214285 52552380 L46119047 52790476 L46071428 52838095 L45976190 52885714 "/>
<svg:path d="M46595238 52647619 L47357142 52647619 "/>
<svg:path d="M48166666 52457142 L48119047 52504761 L47976190 52552380 L47880952 52552380 L47738095 52504761 L47642857 52409523 L47595238 52314285 L47547619 52123809 L47547619 51980952 L47595238 51790476 L47642857 51695238 L47738095 51600000 L47880952 51552380 L47976190 51552380 L48119047 51600000 L48166666 51647619 "/>
<svg:path d="M48738095 52552380 L48642857 52504761 L48595238 52457142 L48547619 52361904 L48547619 52076190 L48595238 51980952 L48642857 51933333 L48738095 51885714 L48880952 51885714 L48976190 51933333 L49023809 51980952 L49071428 52076190 L49071428 52361904 L49023809 52457142 L48976190 52504761 L48880952 52552380 L48738095 52552380 "/>
<svg:path d="M49500000 51885714 L49500000 52552380 "/>
<svg:path d="M49500000 51980952 L49547619 51933333 L49642857 51885714 L49785714 51885714 L49880952 51933333 L49928571 52028571 L49928571 52552380 "/>
<svg:path d="M50309523 51885714 L50547619 52552380 L50785714 51885714 "/>
<svg:path d="M51547619 52504761 L51452380 52552380 L51261904 52552380 L51166666 52504761 L51119047 52409523 L51119047 52028571 L51166666 51933333 L51261904 51885714 L51452380 51885714 L51547619 51933333 L51595238 52028571 L51595238 52123809 L51119047 52219047 "/>
<svg:path d="M51928571 52552380 L52452380 51885714 "/>
<svg:path d="M51928571 51885714 L52452380 52552380 "/>
<svg:path d="M52595238 52647619 L53357142 52647619 "/>
<svg:path d="M53547619 51647619 L53595238 51600000 L53690476 51552380 L53928571 51552380 L54023809 51600000 L54071428 51647619 L54119047 51742857 L54119047 51838095 L54071428 51980952 L53499999 52552380 L54119047 52552380 "/>
<svg:path d="M54452380 52552380 L54976190 51885714 "/>
<svg:path d="M54452380 51885714 L54976190 52552380 "/>
<svg:path d="M55547619 51552380 L55642857 51552380 L55738095 51600000 L55785714 51647619 L55833333 51742857 L55880952 51933333 L55880952 52171428 L55833333 52361904 L55785714 52457142 L55738095 52504761 L55642857 52552380 L55547619 52552380 L55452380 52504761 L55404761 52457142 L55357142 52361904 L55309523 52171428 L55309523 51933333 L55357142 51742857 L55404761 51647619 L55452380 51600000 L55547619 51552380 "/>
<svg:path d="M56738095 51552380 L56547619 51552380 L56452380 51600000 L56404761 51647619 L56309523 51790476 L56261904 51980952 L56261904 52361904 L56309523 52457142 L56357142 52504761 L56452380 52552380 L56642857 52552380 L56738095 52504761 L56785714 52457142 L56833333 52361904 L56833333 52123809 L56785714 52028571 L56738095 51980952 L56642857 51933333 L56452380 51933333 L56357142 51980952 L56309523 52028571 L56261904 52123809 "/>
<svg:path d="M57452380 51552380 L57547619 51552380 L57642857 51600000 L57690476 51647619 L57738095 51742857 L57785714 51933333 L57785714 52171428 L57738095 52361904 L57690476 52457142 L57642857 52504761 L57547619 52552380 L57452380 52552380 L57357142 52504761 L57309523 52457142 L57261904 52361904 L57214285 52171428 L57214285 51933333 L57261904 51742857 L57309523 51647619 L57357142 51600000 L57452380 51552380 "/>
<svg:path d="M58119047 51552380 L58738095 51552380 L58404761 51933333 L58547619 51933333 L58642857 51980952 L58690476 52028571 L58738095 52123809 L58738095 52361904 L58690476 52457142 L58642857 52504761 L58547619 52552380 L58261904 52552380 L58166666 52504761 L58119047 52457142 "/>
</svg:g><svg:text x="50000000.000000" y="48750000.000000" textLength="19195000.000000" font-size="1333333.000000" lengthAdjust="spacingAndGlyphs" text-anchor="middle" opacity="0">FZKRRARRAYCONVEX2X63</svg:text>
<svg:g class="stroked-text"><svg:desc>FZKRRARRAYCONVEX2X63</svg:desc>
<svg:path d="M41071428 48178571 L40738095 48178571 "/>
<svg:path d="M40738095 48702380 L40738095 47702380 L41214285 47702380 "/>
<svg:path d="M41500000 47702380 L42166666 47702380 L41500000 48702380 L42166666 48702380 "/>
<svg:path d="M42547619 48702380 L42547619 47702380 "/>
<svg:path d="M43119047 48702380 L42690476 48130952 "/>
<svg:path d="M43119047 47702380 L42547619 48273809 "/>
<svg:path d="M44119047 48702380 L43785714 48226190 "/>
<svg:path d="M43547619 48702380 L43547619 47702380 L43928571 47702380 L44023809 47750000 L44071428 47797619 L44119047 47892857 L44119047 48035714 L44071428 48130952 L44023809 48178571 L43928571 48226190 L43547619 48226190 "/>
<svg:path d="M45119047 48702380 L44785714 48226190 "/>
<svg:path d="M44547619 48702380 L44547619 47702380 L44928571 47702380 L45023809 47750000 L45071428 47797619 L45119047 47892857 L45119047 48035714 L45071428 48130952 L45023809 48178571 L44928571 48226190 L44547619 48226190 "/>
<svg:path d="M45500000 48416666 L45976190 48416666 "/>
<svg:path d="M45404761 48702380 L45738095 47702380 L46071428 48702380 "/>
<svg:path d="M46976190 48702380 L46642857 48226190 "/>
<svg:path d="M46404761 48702380 L46404761 47702380 L46785714 47702380 L46880952 47750000 L46928571 47797619 L46976190 47892857 L46976190 48035714 L46928571 48130952 L46880952 48178571 L46785714 48226190 L46404761 48226190 "/>
<svg:path d="M47976190 48702380 L47642857 48226190 "/>
<svg:path d="M47404761 48702380 L47404761 47702380 L47785714 47702380 L47880952 47750000 L47928571 47797619 L47976190 47892857 L47976190 48035714 L47928571 48130952 L47880952 48178571 L47785714 48226190 L47404761 48226190 "/>
<svg:path d="M48357142 48416666 L48833333 48416666 "/>
<svg:path d="M48261904 48702380 L48595238 47702380 L48928571 48702380 "/>
<svg:path d="M49452380 48226190 L49452380 48702380 "/>
<svg:path d="M49119047 47702380 L49452380 48226190 L49785714 47702380 "/>
<svg:path d="M50690476 48607142 L50642857 48654761 L50500000 48702380 L50404761 48702380 L50261904 48654761 L50166666 48559523 L50119047 48464285 L50071428 48273809 L50071428 48130952 L50119047 47940476 L50166666 47845238 L50261904 47750000 L50404761 47702380 L50500000 47702380 L50642857 47750000 L50690476 47797619 "/>
<svg:path d="M51309523 47702380 L51500000 47702380 L51595238 47750000 L51690476 47845238 L51738095 48035714 L51738095 48369047 L51690476 48559523 L51595238 48654761 L51500000 48702380 L51309523 48702380 L51214285 48654761 L51119047 48559523 L51071428 48369047 L51071428 48035714 L51119047 47845238 L51214285 47750000 L51309523 47702380 "/>
<svg:path d="M52166666 48702380 L52166666 47702380 L52738095 48702380 L52738095 47702380 "/>
<svg:path d="M53071428 47702380 L53404761 48702380 L53738095 47702380 "/>
<svg:path d="M54071428 48178571 L54404761 48178571 "/>
<svg:path d="M54547619 48702380 L54071428 48702380 L54071428 47702380 L54547619 47702380 "/>
<svg:path d="M54880952 47702380 L55547619 48702380 "/>
<svg:path d="M55547619 47702380 L54880952 48702380 "/>
<svg:path d="M55880952 47797619 L55928571 47750000 L56023809 47702380 L56261904 47702380 L56357142 47750000 L56404761 47797619 L56452380 47892857 L56452380 47988095 L56404761 48130952 L55833333 48702380 L56452380 48702380 "/>
<svg:path d="M56785714 47702380 L57452380 48702380 "/>
<svg:path d="M57452380 47702380 L56785714 48702380 "/>
<svg:path d="M58261904 47702380 L58071428 47702380 L57976190 47750000 L57928571 47797619 L57833333 47940476 L57785714 48130952 L57785714 48511904 L57833333 48607142 L57880952 48654761 L57976190 48702380 L58166666 48702380 L58261904 48654761 L58309523 48607142 L58357142 48511904 L58357142 48273809 L58309523 48178571 L58261904 48130952 L58166666 48083333 L57976190 48083333 L57880952 48130952 L57833333 48178571 L57785714 48273809 "/>
<svg:path d="M58690476 47702380 L59309523 47702380 L58976190 48083333 L59119047 48083333 L59214285 48130952 L59261904 48178571 L59309523 48273809 L59309523 48511904 L59261904 48607142 L59214285 48654761 L59119047 48702380 L58833333 48702380 L58738095 48654761 L58690476 48607142 "/>
</svg:g></svg:g>
<svg:g style="fill:#AFAFAF; fill-opacity:0.0;  stroke:#AFAFAF; stroke-width:100000.000000; stroke-opacity:1;  stroke-linecap:round; stroke-linejoin:round;">
<svg:path d="M50800000 49200000 L50800000 50800000 "/>
<svg:path d="M50800000 50800000 L49200000 50800000 "/>
<svg:path d="M49200000 49200000 L50800000 49200000 "/>
<svg:path d="M49200000 50800000 L49200000 49200000 "/>
<svg:g>
</svg:g>
<svg:g>
</svg:g>
<svg:g>
</svg:g>
<svg:g>
</svg:g>
</svg:g>
<svg:g style="fill:#000000; fill-opacity:0.0;  stroke:#000000; stroke-width:100000.000000; stroke-opacity:1;  stroke-linecap:round; stroke-linejoin:round;">
<svg:g>
</svg:g>
<svg:g>
</svg:g>
<svg:g>
</svg:g>
<svg:g>
</svg:g>
</svg:g> 
</svg:g><svg:g><svg:title>SVG Picture created as kicadBoard-F_Mask.svg date 2022/11/18 04:25:29 </svg:title>
  <svg:desc>Picture generated by PCBNEW </svg:desc>
<svg:g style="fill:#000000; fill-opacity:1.000000;stroke:#000000; stroke-opacity:1.000000; stroke-linecap:round; stroke-linejoin:round;" transform="translate(0 0) scale(1 1)">
</svg:g>
<svg:g style="fill:#000000; fill-opacity:0.0;  stroke:#000000; stroke-width:0.000000; stroke-opacity:1;  stroke-linecap:round; stroke-linejoin:round;">
<svg:g>
</svg:g>
<svg:g style="fill:#000000; fill-opacity:0.0;  stroke:#000000; stroke-width:1.000000; stroke-opacity:1;  stroke-linecap:round; stroke-linejoin:round;">
</svg:g>
<svg:g style="fill:#000000; fill-opacity:1.0;  stroke:#000000; stroke-width:1.000000; stroke-opacity:1;  stroke-linecap:round; stroke-linejoin:round;">
<svg:path style="fill:#000000; fill-opacity:1.0;  stroke:#000000; stroke-width:1.000000; stroke-opacity:1;  stroke-linecap:round; stroke-linejoin:round;fill-rule:evenodd;" d="M 48700000.000000,49750000.000000 48700000.000000,49250000.000000 49500000.000000,49250000.000000 49500000.000000,49750000.000000 Z"/> 
<svg:path style="fill:#000000; fill-opacity:1.0;  stroke:#000000; stroke-width:1.000000; stroke-opacity:1;  stroke-linecap:round; stroke-linejoin:round;fill-rule:evenodd;" d="M 48700000.000000,50750000.000000 48700000.000000,50250000.000000 49500000.000000,50250000.000000 49500000.000000,50750000.000000 Z"/> 
<svg:path style="fill:#000000; fill-opacity:1.0;  stroke:#000000; stroke-width:1.000000; stroke-opacity:1;  stroke-linecap:round; stroke-linejoin:round;fill-rule:evenodd;" d="M 50500000.000000,50750000.000000 50500000.000000,50250000.000000 51300000.000000,50250000.000000 51300000.000000,50750000.000000 Z"/> 
<svg:path style="fill:#000000; fill-opacity:1.0;  stroke:#000000; stroke-width:1.000000; stroke-opacity:1;  stroke-linecap:round; stroke-linejoin:round;fill-rule:evenodd;" d="M 50500000.000000,49750000.000000 50500000.000000,49250000.000000 51300000.000000,49250000.000000 51300000.000000,49750000.000000 Z"/> 
</svg:g>
<svg:g>
</svg:g>
<svg:g>
</svg:g>
<svg:g>
</svg:g>
</svg:g>
<svg:g style="fill:#000000; fill-opacity:1.0;  stroke:#000000; stroke-width:1.000000; stroke-opacity:1;  stroke-linecap:round; stroke-linejoin:round;">
<svg:g>
</svg:g>
<svg:g>
</svg:g>
<svg:g>
</svg:g>
<svg:g>
</svg:g>
</svg:g> 
</svg:g><svg:g><svg:title>SVG Picture created as kicadBoard-F_Paste.svg date 2022/11/18 04:25:29 </svg:title>
  <svg:desc>Picture generated by PCBNEW </svg:desc>
<svg:g style="fill:#000000; fill-opacity:1.000000;stroke:#000000; stroke-opacity:1.000000; stroke-linecap:round; stroke-linejoin:round;" transform="translate(0 0) scale(1 1)">
</svg:g>
<svg:g style="fill:#000000; fill-opacity:0.0;  stroke:#000000; stroke-width:0.000000; stroke-opacity:1;  stroke-linecap:round; stroke-linejoin:round;">
<svg:g>
</svg:g>
<svg:g style="fill:#000000; fill-opacity:0.0;  stroke:#000000; stroke-width:1.000000; stroke-opacity:1;  stroke-linecap:round; stroke-linejoin:round;">
</svg:g>
<svg:g style="fill:#000000; fill-opacity:1.0;  stroke:#000000; stroke-width:1.000000; stroke-opacity:1;  stroke-linecap:round; stroke-linejoin:round;">
<svg:path style="fill:#000000; fill-opacity:1.0;  stroke:#000000; stroke-width:1.000000; stroke-opacity:1;  stroke-linecap:round; stroke-linejoin:round;fill-rule:evenodd;" d="M 48700000.000000,49750000.000000 48700000.000000,49250000.000000 49500000.000000,49250000.000000 49500000.000000,49750000.000000 Z"/> 
<svg:path style="fill:#000000; fill-opacity:1.0;  stroke:#000000; stroke-width:1.000000; stroke-opacity:1;  stroke-linecap:round; stroke-linejoin:round;fill-rule:evenodd;" d="M 48700000.000000,50750000.000000 48700000.000000,50250000.000000 49500000.000000,50250000.000000 49500000.000000,50750000.000000 Z"/> 
<svg:path style="fill:#000000; fill-opacity:1.0;  stroke:#000000; stroke-width:1.000000; stroke-opacity:1;  stroke-linecap:round; stroke-linejoin:round;fill-rule:evenodd;" d="M 50500000.000000,50750000.000000 50500000.000000,50250000.000000 51300000.000000,50250000.000000 51300000.000000,50750000.000000 Z"/> 
<svg:path style="fill:#000000; fill-opacity:1.0;  stroke:#000000; stroke-width:1.000000; stroke-opacity:1;  stroke-linecap:round; stroke-linejoin:round;fill-rule:evenodd;" d="M 50500000.000000,49750000.000000 50500000.000000,49250000.000000 51300000.000000,49250000.000000 51300000.000000,49750000.000000 Z"/> 
</svg:g>
<svg:g>
</svg:g>
<svg:g>
</svg:g>
<svg:g>
</svg:g>
</svg:g>
<svg:g style="fill:#000000; fill-opacity:1.0;  stroke:#000000; stroke-width:1.000000; stroke-opacity:1;  stroke-linecap:round; stroke-linejoin:round;">
<svg:g>
</svg:g>
<svg:g>
</svg:g>
<svg:g>
</svg:g>
<svg:g>
</svg:g>
</svg:g> 
</svg:g><svg:g><svg:title>SVG Picture created as kicadBoard-F_Silkscreen.svg date 2022/11/18 04:25:29 </svg:title>
  <svg:desc>Picture generated by PCBNEW </svg:desc>
<svg:g style="fill:#000000; fill-opacity:1.000000;stroke:#000000; stroke-opacity:1.000000; stroke-linecap:round; stroke-linejoin:round;" transform="translate(0 0) scale(1 1)">
</svg:g>
<svg:g style="fill:#000000; fill-opacity:0.0;  stroke:#000000; stroke-width:0.000000; stroke-opacity:1;  stroke-linecap:round; stroke-linejoin:round;">
</svg:g>
<svg:g style="fill:#F2EDA1; fill-opacity:0.0;  stroke:#F2EDA1; stroke-width:0.000000; stroke-opacity:1;  stroke-linecap:round; stroke-linejoin:round;">
</svg:g>
<svg:g style="fill:#F2EDA1; fill-opacity:0.0;  stroke:#F2EDA1; stroke-width:150000.000000; stroke-opacity:1;  stroke-linecap:round; stroke-linejoin:round;">
<svg:text x="50000000.000000" y="48750000.000000" textLength="19000001.000000" font-size="1333333.000000" lengthAdjust="spacingAndGlyphs" text-anchor="middle" opacity="0">FZKRRARRAYCONVEX2X63</svg:text>
<svg:g class="stroked-text"><svg:desc>FZKRRARRAYCONVEX2X63</svg:desc>
<svg:path d="M41071428 48178571 L40738095 48178571 "/>
<svg:path d="M40738095 48702380 L40738095 47702380 L41214285 47702380 "/>
<svg:path d="M41500000 47702380 L42166666 47702380 L41500000 48702380 L42166666 48702380 "/>
<svg:path d="M42547619 48702380 L42547619 47702380 "/>
<svg:path d="M43119047 48702380 L42690476 48130952 "/>
<svg:path d="M43119047 47702380 L42547619 48273809 "/>
<svg:path d="M44119047 48702380 L43785714 48226190 "/>
<svg:path d="M43547619 48702380 L43547619 47702380 L43928571 47702380 L44023809 47750000 L44071428 47797619 L44119047 47892857 L44119047 48035714 L44071428 48130952 L44023809 48178571 L43928571 48226190 L43547619 48226190 "/>
<svg:path d="M45119047 48702380 L44785714 48226190 "/>
<svg:path d="M44547619 48702380 L44547619 47702380 L44928571 47702380 L45023809 47750000 L45071428 47797619 L45119047 47892857 L45119047 48035714 L45071428 48130952 L45023809 48178571 L44928571 48226190 L44547619 48226190 "/>
<svg:path d="M45500000 48416666 L45976190 48416666 "/>
<svg:path d="M45404761 48702380 L45738095 47702380 L46071428 48702380 "/>
<svg:path d="M46976190 48702380 L46642857 48226190 "/>
<svg:path d="M46404761 48702380 L46404761 47702380 L46785714 47702380 L46880952 47750000 L46928571 47797619 L46976190 47892857 L46976190 48035714 L46928571 48130952 L46880952 48178571 L46785714 48226190 L46404761 48226190 "/>
<svg:path d="M47976190 48702380 L47642857 48226190 "/>
<svg:path d="M47404761 48702380 L47404761 47702380 L47785714 47702380 L47880952 47750000 L47928571 47797619 L47976190 47892857 L47976190 48035714 L47928571 48130952 L47880952 48178571 L47785714 48226190 L47404761 48226190 "/>
<svg:path d="M48357142 48416666 L48833333 48416666 "/>
<svg:path d="M48261904 48702380 L48595238 47702380 L48928571 48702380 "/>
<svg:path d="M49452380 48226190 L49452380 48702380 "/>
<svg:path d="M49119047 47702380 L49452380 48226190 L49785714 47702380 "/>
<svg:path d="M50690476 48607142 L50642857 48654761 L50500000 48702380 L50404761 48702380 L50261904 48654761 L50166666 48559523 L50119047 48464285 L50071428 48273809 L50071428 48130952 L50119047 47940476 L50166666 47845238 L50261904 47750000 L50404761 47702380 L50500000 47702380 L50642857 47750000 L50690476 47797619 "/>
<svg:path d="M51309523 47702380 L51500000 47702380 L51595238 47750000 L51690476 47845238 L51738095 48035714 L51738095 48369047 L51690476 48559523 L51595238 48654761 L51500000 48702380 L51309523 48702380 L51214285 48654761 L51119047 48559523 L51071428 48369047 L51071428 48035714 L51119047 47845238 L51214285 47750000 L51309523 47702380 "/>
<svg:path d="M52166666 48702380 L52166666 47702380 L52738095 48702380 L52738095 47702380 "/>
<svg:path d="M53071428 47702380 L53404761 48702380 L53738095 47702380 "/>
<svg:path d="M54071428 48178571 L54404761 48178571 "/>
<svg:path d="M54547619 48702380 L54071428 48702380 L54071428 47702380 L54547619 47702380 "/>
<svg:path d="M54880952 47702380 L55547619 48702380 "/>
<svg:path d="M55547619 47702380 L54880952 48702380 "/>
<svg:path d="M55880952 47797619 L55928571 47750000 L56023809 47702380 L56261904 47702380 L56357142 47750000 L56404761 47797619 L56452380 47892857 L56452380 47988095 L56404761 48130952 L55833333 48702380 L56452380 48702380 "/>
<svg:path d="M56785714 47702380 L57452380 48702380 "/>
<svg:path d="M57452380 47702380 L56785714 48702380 "/>
<svg:path d="M58261904 47702380 L58071428 47702380 L57976190 47750000 L57928571 47797619 L57833333 47940476 L57785714 48130952 L57785714 48511904 L57833333 48607142 L57880952 48654761 L57976190 48702380 L58166666 48702380 L58261904 48654761 L58309523 48607142 L58357142 48511904 L58357142 48273809 L58309523 48178571 L58261904 48130952 L58166666 48083333 L57976190 48083333 L57880952 48130952 L57833333 48178571 L57785714 48273809 "/>
<svg:path d="M58690476 47702380 L59309523 47702380 L58976190 48083333 L59119047 48083333 L59214285 48130952 L59261904 48178571 L59309523 48273809 L59309523 48511904 L59261904 48607142 L59214285 48654761 L59119047 48702380 L58833333 48702380 L58738095 48654761 L58690476 48607142 "/>
</svg:g></svg:g>
<svg:g style="fill:#F2EDA1; fill-opacity:0.0;  stroke:#F2EDA1; stroke-width:120000.000000; stroke-opacity:1;  stroke-linecap:round; stroke-linejoin:round;">
<svg:path d="M50500000 50970000 L49500000 50970000 "/>
<svg:path d="M50500000 49030000 L49500000 49030000 "/>
<svg:g>
</svg:g>
<svg:g>
</svg:g>
<svg:g>
</svg:g>
<svg:g>
</svg:g>
</svg:g>
<svg:g style="fill:#000000; fill-opacity:0.0;  stroke:#000000; stroke-width:120000.000000; stroke-opacity:1;  stroke-linecap:round; stroke-linejoin:round;">
<svg:g>
</svg:g>
<svg:g>
</svg:g>
<svg:g>
</svg:g>
<svg:g>
</svg:g>
</svg:g> 
</svg:g><svg:g><svg:title>SVG Picture created as kicadBoard-Margin.svg date 2022/11/18 04:25:29 </svg:title>
  <svg:desc>Picture generated by PCBNEW </svg:desc>
<svg:g style="fill:#000000; fill-opacity:1.000000;stroke:#000000; stroke-opacity:1.000000; stroke-linecap:round; stroke-linejoin:round;" transform="translate(0 0) scale(1 1)">
</svg:g>
<svg:g style="fill:#000000; fill-opacity:0.0;  stroke:#000000; stroke-width:0.000000; stroke-opacity:1;  stroke-linecap:round; stroke-linejoin:round;">
<svg:g>
</svg:g>
<svg:g>
</svg:g>
<svg:g>
</svg:g>
<svg:g>
</svg:g>
</svg:g>
<svg:g style="fill:#000000; fill-opacity:0.0;  stroke:#000000; stroke-width:0.000000; stroke-opacity:1;  stroke-linecap:round; stroke-linejoin:round;">
<svg:g>
</svg:g>
<svg:g>
</svg:g>
<svg:g>
</svg:g>
<svg:g>
</svg:g>
</svg:g> 
</svg:g><svg:g><svg:title>SVG Picture created as kicadBoard-F_Cu.svg date 2022/11/18 04:25:29 </svg:title>
  <svg:desc>Picture generated by PCBNEW </svg:desc>
<svg:g style="fill:#000000; fill-opacity:1.000000;stroke:#000000; stroke-opacity:1.000000; stroke-linecap:round; stroke-linejoin:round;" transform="translate(0 0) scale(1 1)">
</svg:g>
<svg:g style="fill:#000000; fill-opacity:0.0;  stroke:#000000; stroke-width:0.000000; stroke-opacity:1;  stroke-linecap:round; stroke-linejoin:round;">
<svg:g>
</svg:g>
<svg:g style="fill:#C83434; fill-opacity:0.0;  stroke:#C83434; stroke-width:0.000000; stroke-opacity:1;  stroke-linecap:round; stroke-linejoin:round;">
</svg:g>
<svg:g style="fill:#C83434; fill-opacity:0.0;  stroke:#C83434; stroke-width:1.000000; stroke-opacity:1;  stroke-linecap:round; stroke-linejoin:round;">
</svg:g>
<svg:g style="fill:#C83434; fill-opacity:1.0;  stroke:#C83434; stroke-width:1.000000; stroke-opacity:1;  stroke-linecap:round; stroke-linejoin:round;">
<svg:path style="fill:#C83434; fill-opacity:1.0;  stroke:#C83434; stroke-width:1.000000; stroke-opacity:1;  stroke-linecap:round; stroke-linejoin:round;fill-rule:evenodd;" d="M 48700000.000000,49750000.000000 48700000.000000,49250000.000000 49500000.000000,49250000.000000 49500000.000000,49750000.000000 Z"/> 
<svg:path style="fill:#C83434; fill-opacity:1.0;  stroke:#C83434; stroke-width:1.000000; stroke-opacity:1;  stroke-linecap:round; stroke-linejoin:round;fill-rule:evenodd;" d="M 48700000.000000,50750000.000000 48700000.000000,50250000.000000 49500000.000000,50250000.000000 49500000.000000,50750000.000000 Z"/> 
<svg:path style="fill:#C83434; fill-opacity:1.0;  stroke:#C83434; stroke-width:1.000000; stroke-opacity:1;  stroke-linecap:round; stroke-linejoin:round;fill-rule:evenodd;" d="M 50500000.000000,50750000.000000 50500000.000000,50250000.000000 51300000.000000,50250000.000000 51300000.000000,50750000.000000 Z"/> 
<svg:path style="fill:#C83434; fill-opacity:1.0;  stroke:#C83434; stroke-width:1.000000; stroke-opacity:1;  stroke-linecap:round; stroke-linejoin:round;fill-rule:evenodd;" d="M 50500000.000000,49750000.000000 50500000.000000,49250000.000000 51300000.000000,49250000.000000 51300000.000000,49750000.000000 Z"/> 
</svg:g>
<svg:g>
</svg:g>
<svg:g>
</svg:g>
<svg:g>
</svg:g>
</svg:g>
<svg:g style="fill:#FFFFFF; fill-opacity:1.0;  stroke:#FFFFFF; stroke-width:1.000000; stroke-opacity:1;  stroke-linecap:round; stroke-linejoin:round;">
</svg:g>
<svg:g style="fill:#000000; fill-opacity:1.0;  stroke:#000000; stroke-width:1.000000; stroke-opacity:1;  stroke-linecap:round; stroke-linejoin:round;">
<svg:g>
</svg:g>
<svg:g>
</svg:g>
<svg:g>
</svg:g>
<svg:g>
</svg:g>
</svg:g> 
</svg:g></svg>
