<?xml version='1.0' encoding='ASCII' standalone='yes'?>
<svg xmlns:svg="http://www.w3.org/2000/svg" xmlns="http://www.w3.org/2000/svg" xmlns:xlink="http://www.w3.org/1999/xlink" version="1.1" width="9.999980cm" height="9.999980cm" viewBox="0 0 99999800 99999800">
<title>SVG Picture created as kicadBoard-B_Cu.svg date 2022/11/18 05:44:31 </title>
  <desc>Picture generated by PCBNEW </desc>
<g style="fill:#000000; fill-opacity:1.000000;stroke:#000000; stroke-opacity:1.000000; stroke-linecap:round; stroke-linejoin:round;" transform="translate(0 0) scale(1 1)">
</g>
<g style="fill:#000000; fill-opacity:0.0;  stroke:#000000; stroke-width:0.000000; stroke-opacity:1;  stroke-linecap:round; stroke-linejoin:round;">
<g>
</g>
<g style="fill:#4D7FC4; fill-opacity:0.0;  stroke:#4D7FC4; stroke-width:0.000000; stroke-opacity:1;  stroke-linecap:round; stroke-linejoin:round;">
</g>
<g style="fill:#4D7FC4; fill-opacity:1.0;  stroke:#4D7FC4; stroke-width:1.000000; stroke-opacity:1;  stroke-linecap:round; stroke-linejoin:round;">
<circle cx="50000000.000000" cy="50000000.000000" r="1200000.000000"/> 
</g>
<g style="fill:#4D7FC4; fill-opacity:1.0;  stroke:#4D7FC4; stroke-width:21200.000000; stroke-opacity:1;  stroke-linecap:round; stroke-linejoin:round;">
</g>
<g style="fill:#4D7FC4; fill-opacity:1.0;  stroke:#4D7FC4; stroke-width:1.000000; stroke-opacity:1;  stroke-linecap:round; stroke-linejoin:round;">
<circle cx="65240000.000000" cy="50000000.000000" r="1200000.000000"/> 
</g>
<g>
</g>
<g>
</g>
<g>
</g>
</g>
<g style="fill:#FFFFFF; fill-opacity:1.0;  stroke:#FFFFFF; stroke-width:1.000000; stroke-opacity:1;  stroke-linecap:round; stroke-linejoin:round;">
<circle cx="50000000.000000" cy="50000000.000000" r="600000.000000"/> 
</g>
<g style="fill:#FFFFFF; fill-opacity:1.0;  stroke:#FFFFFF; stroke-width:21200.000000; stroke-opacity:1;  stroke-linecap:round; stroke-linejoin:round;">
</g>
<g style="fill:#FFFFFF; fill-opacity:1.0;  stroke:#FFFFFF; stroke-width:1.000000; stroke-opacity:1;  stroke-linecap:round; stroke-linejoin:round;">
<circle cx="65240000.000000" cy="50000000.000000" r="600000.000000"/> 
</g>
<g style="fill:#FFFFFF; fill-opacity:1.0;  stroke:#FFFFFF; stroke-width:21200.000000; stroke-opacity:1;  stroke-linecap:round; stroke-linejoin:round;">
</g>
<g style="fill:#000000; fill-opacity:1.0;  stroke:#000000; stroke-width:21200.000000; stroke-opacity:1;  stroke-linecap:round; stroke-linejoin:round;">
<g>
</g>
<g>
</g>
<g>
</g>
<g>
</g>
</g> 
<svg:g><svg:title>SVG Picture created as kicadBoard-B_Adhesive.svg date 2022/11/18 05:44:31 </svg:title>
  <svg:desc>Picture generated by PCBNEW </svg:desc>
<svg:g style="fill:#000000; fill-opacity:1.000000;stroke:#000000; stroke-opacity:1.000000; stroke-linecap:round; stroke-linejoin:round;" transform="translate(0 0) scale(1 1)">
</svg:g>
<svg:g style="fill:#000000; fill-opacity:0.0;  stroke:#000000; stroke-width:0.000000; stroke-opacity:1;  stroke-linecap:round; stroke-linejoin:round;">
<svg:g>
</svg:g>
<svg:g>
</svg:g>
<svg:g>
</svg:g>
<svg:g>
</svg:g>
</svg:g>
<svg:g style="fill:#000000; fill-opacity:0.0;  stroke:#000000; stroke-width:0.000000; stroke-opacity:1;  stroke-linecap:round; stroke-linejoin:round;">
<svg:g>
</svg:g>
<svg:g>
</svg:g>
<svg:g>
</svg:g>
<svg:g>
</svg:g>
</svg:g> 
</svg:g><svg:g><svg:title>SVG Picture created as kicadBoard-B_Courtyard.svg date 2022/11/18 05:44:31 </svg:title>
  <svg:desc>Picture generated by PCBNEW </svg:desc>
<svg:g style="fill:#000000; fill-opacity:1.000000;stroke:#000000; stroke-opacity:1.000000; stroke-linecap:round; stroke-linejoin:round;" transform="translate(0 0) scale(1 1)">
</svg:g>
<svg:g style="fill:#000000; fill-opacity:0.0;  stroke:#000000; stroke-width:0.000000; stroke-opacity:1;  stroke-linecap:round; stroke-linejoin:round;">
<svg:g>
</svg:g>
<svg:g>
</svg:g>
<svg:g>
</svg:g>
<svg:g>
</svg:g>
</svg:g>
<svg:g style="fill:#000000; fill-opacity:0.0;  stroke:#000000; stroke-width:0.000000; stroke-opacity:1;  stroke-linecap:round; stroke-linejoin:round;">
<svg:g>
</svg:g>
<svg:g>
</svg:g>
<svg:g>
</svg:g>
<svg:g>
</svg:g>
</svg:g> 
</svg:g><svg:g><svg:title>SVG Picture created as kicadBoard-B_Fab.svg date 2022/11/18 05:44:31 </svg:title>
  <svg:desc>Picture generated by PCBNEW </svg:desc>
<svg:g style="fill:#000000; fill-opacity:1.000000;stroke:#000000; stroke-opacity:1.000000; stroke-linecap:round; stroke-linejoin:round;" transform="translate(0 0) scale(1 1)">
</svg:g>
<svg:g style="fill:#000000; fill-opacity:0.0;  stroke:#000000; stroke-width:0.000000; stroke-opacity:1;  stroke-linecap:round; stroke-linejoin:round;">
<svg:g>
</svg:g>
<svg:g>
</svg:g>
<svg:g>
</svg:g>
<svg:g>
</svg:g>
</svg:g>
<svg:g style="fill:#000000; fill-opacity:0.0;  stroke:#000000; stroke-width:0.000000; stroke-opacity:1;  stroke-linecap:round; stroke-linejoin:round;">
<svg:g>
</svg:g>
<svg:g>
</svg:g>
<svg:g>
</svg:g>
<svg:g>
</svg:g>
</svg:g> 
</svg:g><svg:g><svg:title>SVG Picture created as kicadBoard-B_Mask.svg date 2022/11/18 05:44:31 </svg:title>
  <svg:desc>Picture generated by PCBNEW </svg:desc>
<svg:g style="fill:#000000; fill-opacity:1.000000;stroke:#000000; stroke-opacity:1.000000; stroke-linecap:round; stroke-linejoin:round;" transform="translate(0 0) scale(1 1)">
</svg:g>
<svg:g style="fill:#000000; fill-opacity:0.0;  stroke:#000000; stroke-width:0.000000; stroke-opacity:1;  stroke-linecap:round; stroke-linejoin:round;">
<svg:g>
</svg:g>
<svg:g style="fill:#000000; fill-opacity:1.0;  stroke:#000000; stroke-width:1.000000; stroke-opacity:1;  stroke-linecap:round; stroke-linejoin:round;">
<svg:circle cx="50000000.000000" cy="50000000.000000" r="1200000.000000"/> 
</svg:g>
<svg:g style="fill:#000000; fill-opacity:1.0;  stroke:#000000; stroke-width:21200.000000; stroke-opacity:1;  stroke-linecap:round; stroke-linejoin:round;">
</svg:g>
<svg:g style="fill:#000000; fill-opacity:1.0;  stroke:#000000; stroke-width:1.000000; stroke-opacity:1;  stroke-linecap:round; stroke-linejoin:round;">
<svg:circle cx="65240000.000000" cy="50000000.000000" r="1200000.000000"/> 
</svg:g>
<svg:g>
</svg:g>
<svg:g>
</svg:g>
<svg:g>
</svg:g>
</svg:g>
<svg:g style="fill:#000000; fill-opacity:1.0;  stroke:#000000; stroke-width:1.000000; stroke-opacity:1;  stroke-linecap:round; stroke-linejoin:round;">
<svg:g>
</svg:g>
<svg:g>
</svg:g>
<svg:g>
</svg:g>
<svg:g>
</svg:g>
</svg:g> 
</svg:g><svg:g><svg:title>SVG Picture created as kicadBoard-B_Paste.svg date 2022/11/18 05:44:31 </svg:title>
  <svg:desc>Picture generated by PCBNEW </svg:desc>
<svg:g style="fill:#000000; fill-opacity:1.000000;stroke:#000000; stroke-opacity:1.000000; stroke-linecap:round; stroke-linejoin:round;" transform="translate(0 0) scale(1 1)">
</svg:g>
<svg:g style="fill:#000000; fill-opacity:0.0;  stroke:#000000; stroke-width:0.000000; stroke-opacity:1;  stroke-linecap:round; stroke-linejoin:round;">
<svg:g>
</svg:g>
<svg:g>
</svg:g>
<svg:g>
</svg:g>
<svg:g>
</svg:g>
</svg:g>
<svg:g style="fill:#000000; fill-opacity:0.0;  stroke:#000000; stroke-width:0.000000; stroke-opacity:1;  stroke-linecap:round; stroke-linejoin:round;">
<svg:g>
</svg:g>
<svg:g>
</svg:g>
<svg:g>
</svg:g>
<svg:g>
</svg:g>
</svg:g> 
</svg:g><svg:g><svg:title>SVG Picture created as kicadBoard-B_Silkscreen.svg date 2022/11/18 05:44:31 </svg:title>
  <svg:desc>Picture generated by PCBNEW </svg:desc>
<svg:g style="fill:#000000; fill-opacity:1.000000;stroke:#000000; stroke-opacity:1.000000; stroke-linecap:round; stroke-linejoin:round;" transform="translate(0 0) scale(1 1)">
</svg:g>
<svg:g style="fill:#000000; fill-opacity:0.0;  stroke:#000000; stroke-width:0.000000; stroke-opacity:1;  stroke-linecap:round; stroke-linejoin:round;">
<svg:g>
</svg:g>
<svg:g>
</svg:g>
<svg:g>
</svg:g>
<svg:g>
</svg:g>
</svg:g>
<svg:g style="fill:#000000; fill-opacity:0.0;  stroke:#000000; stroke-width:0.000000; stroke-opacity:1;  stroke-linecap:round; stroke-linejoin:round;">
<svg:g>
</svg:g>
<svg:g>
</svg:g>
<svg:g>
</svg:g>
<svg:g>
</svg:g>
</svg:g> 
</svg:g><svg:g><svg:title>SVG Picture created as kicadBoard-Edge_Cuts.svg date 2022/11/18 05:44:31 </svg:title>
  <svg:desc>Picture generated by PCBNEW </svg:desc>
<svg:g style="fill:#000000; fill-opacity:1.000000;stroke:#000000; stroke-opacity:1.000000; stroke-linecap:round; stroke-linejoin:round;" transform="translate(0 0) scale(1 1)">
</svg:g>
<svg:g style="fill:#000000; fill-opacity:0.0;  stroke:#000000; stroke-width:0.000000; stroke-opacity:1;  stroke-linecap:round; stroke-linejoin:round;">
<svg:g>
</svg:g>
<svg:g>
</svg:g>
<svg:g>
</svg:g>
<svg:g>
</svg:g>
</svg:g> 
</svg:g><svg:g><svg:title>SVG Picture created as kicadBoard-F_Adhesive.svg date 2022/11/18 05:44:31 </svg:title>
  <svg:desc>Picture generated by PCBNEW </svg:desc>
<svg:g style="fill:#000000; fill-opacity:1.000000;stroke:#000000; stroke-opacity:1.000000; stroke-linecap:round; stroke-linejoin:round;" transform="translate(0 0) scale(1 1)">
</svg:g>
<svg:g style="fill:#000000; fill-opacity:0.0;  stroke:#000000; stroke-width:0.000000; stroke-opacity:1;  stroke-linecap:round; stroke-linejoin:round;">
<svg:g>
</svg:g>
<svg:g>
</svg:g>
<svg:g>
</svg:g>
<svg:g>
</svg:g>
</svg:g>
<svg:g style="fill:#000000; fill-opacity:0.0;  stroke:#000000; stroke-width:0.000000; stroke-opacity:1;  stroke-linecap:round; stroke-linejoin:round;">
<svg:g>
</svg:g>
<svg:g>
</svg:g>
<svg:g>
</svg:g>
<svg:g>
</svg:g>
</svg:g> 
</svg:g><svg:g><svg:title>SVG Picture created as kicadBoard-F_Courtyard.svg date 2022/11/18 05:44:31 </svg:title>
  <svg:desc>Picture generated by PCBNEW </svg:desc>
<svg:g style="fill:#000000; fill-opacity:1.000000;stroke:#000000; stroke-opacity:1.000000; stroke-linecap:round; stroke-linejoin:round;" transform="translate(0 0) scale(1 1)">
</svg:g>
<svg:g style="fill:#000000; fill-opacity:0.0;  stroke:#000000; stroke-width:0.000000; stroke-opacity:1;  stroke-linecap:round; stroke-linejoin:round;">
</svg:g>
<svg:g style="fill:#FF26E2; fill-opacity:0.0;  stroke:#FF26E2; stroke-width:0.000000; stroke-opacity:1;  stroke-linecap:round; stroke-linejoin:round;">
</svg:g>
<svg:g style="fill:#FF26E2; fill-opacity:0.0;  stroke:#FF26E2; stroke-width:50000.000000; stroke-opacity:1;  stroke-linecap:round; stroke-linejoin:round;">
<svg:path d="M48550000 47500000 L48550000 52500000 "/>
<svg:path d="M48550000 52500000 L66690000 52500000 "/>
<svg:path d="M66690000 47500000 L48550000 47500000 "/>
<svg:path d="M66690000 52500000 L66690000 47500000 "/>
<svg:g>
</svg:g>
<svg:g>
</svg:g>
<svg:g>
</svg:g>
<svg:g>
</svg:g>
</svg:g>
<svg:g style="fill:#000000; fill-opacity:0.0;  stroke:#000000; stroke-width:50000.000000; stroke-opacity:1;  stroke-linecap:round; stroke-linejoin:round;">
<svg:g>
</svg:g>
<svg:g>
</svg:g>
<svg:g>
</svg:g>
<svg:g>
</svg:g>
</svg:g> 
</svg:g><svg:g><svg:title>SVG Picture created as kicadBoard-F_Fab.svg date 2022/11/18 05:44:31 </svg:title>
  <svg:desc>Picture generated by PCBNEW </svg:desc>
<svg:g style="fill:#000000; fill-opacity:1.000000;stroke:#000000; stroke-opacity:1.000000; stroke-linecap:round; stroke-linejoin:round;" transform="translate(0 0) scale(1 1)">
</svg:g>
<svg:g style="fill:#000000; fill-opacity:0.0;  stroke:#000000; stroke-width:0.000000; stroke-opacity:1;  stroke-linecap:round; stroke-linejoin:round;">
</svg:g>
<svg:g style="fill:#AFAFAF; fill-opacity:0.0;  stroke:#AFAFAF; stroke-width:0.000000; stroke-opacity:1;  stroke-linecap:round; stroke-linejoin:round;">
</svg:g>
<svg:g style="fill:#AFAFAF; fill-opacity:0.0;  stroke:#AFAFAF; stroke-width:150000.000000; stroke-opacity:1;  stroke-linecap:round; stroke-linejoin:round;">
<svg:text x="57620000.000000" y="53870000.000000" textLength="44147381.000000" font-size="1333333.000000" lengthAdjust="spacingAndGlyphs" text-anchor="middle" opacity="0">R_Axial_DIN0414_L11.9mm_D4.5mm_P15.24mm_Horizontal</svg:text>
<svg:g class="stroked-text"><svg:desc>R_Axial_DIN0414_L11.9mm_D4.5mm_P15.24mm_Horizontal</svg:desc>
<svg:path d="M36453333 53822380 L36120000 53346190 "/>
<svg:path d="M35881904 53822380 L35881904 52822380 L36262857 52822380 L36358095 52870000 L36405714 52917619 L36453333 53012857 L36453333 53155714 L36405714 53250952 L36358095 53298571 L36262857 53346190 L35881904 53346190 "/>
<svg:path d="M36643809 53917619 L37405714 53917619 "/>
<svg:path d="M37596190 53536666 L38072380 53536666 "/>
<svg:path d="M37500952 53822380 L37834285 52822380 L38167619 53822380 "/>
<svg:path d="M38405714 53822380 L38929523 53155714 "/>
<svg:path d="M38405714 53155714 L38929523 53822380 "/>
<svg:path d="M39310476 53822380 L39310476 53155714 "/>
<svg:path d="M39310476 52822380 L39262857 52870000 L39310476 52917619 L39358095 52870000 L39310476 52822380 L39310476 52917619 "/>
<svg:path d="M40215238 53822380 L40215238 53298571 L40167619 53203333 L40072380 53155714 L39881904 53155714 L39786666 53203333 "/>
<svg:path d="M40215238 53774761 L40120000 53822380 L39881904 53822380 L39786666 53774761 L39739047 53679523 L39739047 53584285 L39786666 53489047 L39881904 53441428 L40120000 53441428 L40215238 53393809 "/>
<svg:path d="M40834285 53822380 L40739047 53774761 L40691428 53679523 L40691428 52822380 "/>
<svg:path d="M40977142 53917619 L41739047 53917619 "/>
<svg:path d="M41977142 53822380 L41977142 52822380 L42215238 52822380 L42358095 52870000 L42453333 52965238 L42500952 53060476 L42548571 53250952 L42548571 53393809 L42500952 53584285 L42453333 53679523 L42358095 53774761 L42215238 53822380 L41977142 53822380 "/>
<svg:path d="M42977142 53822380 L42977142 52822380 "/>
<svg:path d="M43453333 53822380 L43453333 52822380 L44024761 53822380 L44024761 52822380 "/>
<svg:path d="M44691428 52822380 L44786666 52822380 L44881904 52870000 L44929523 52917619 L44977142 53012857 L45024761 53203333 L45024761 53441428 L44977142 53631904 L44929523 53727142 L44881904 53774761 L44786666 53822380 L44691428 53822380 L44596190 53774761 L44548571 53727142 L44500952 53631904 L44453333 53441428 L44453333 53203333 L44500952 53012857 L44548571 52917619 L44596190 52870000 L44691428 52822380 "/>
<svg:path d="M45881904 53155714 L45881904 53822380 "/>
<svg:path d="M45643809 52774761 L45405714 53489047 L46024761 53489047 "/>
<svg:path d="M46929523 53822380 L46358095 53822380 "/>
<svg:path d="M46643809 53822380 L46643809 52822380 L46548571 52965238 L46453333 53060476 L46358095 53108095 "/>
<svg:path d="M47786666 53155714 L47786666 53822380 "/>
<svg:path d="M47548571 52774761 L47310476 53489047 L47929523 53489047 "/>
<svg:path d="M48072380 53917619 L48834285 53917619 "/>
<svg:path d="M49548571 53822380 L49072380 53822380 L49072380 52822380 "/>
<svg:path d="M50405714 53822380 L49834285 53822380 "/>
<svg:path d="M50119999 53822380 L50119999 52822380 L50024761 52965238 L49929523 53060476 L49834285 53108095 "/>
<svg:path d="M51358095 53822380 L50786666 53822380 "/>
<svg:path d="M51072380 53822380 L51072380 52822380 L50977142 52965238 L50881904 53060476 L50786666 53108095 "/>
<svg:path d="M51786666 53727142 L51834285 53774761 L51786666 53822380 L51739047 53774761 L51786666 53727142 L51786666 53822380 "/>
<svg:path d="M52310476 53822380 L52500952 53822380 L52596190 53774761 L52643809 53727142 L52739047 53584285 L52786666 53393809 L52786666 53012857 L52739047 52917619 L52691428 52870000 L52596190 52822380 L52405714 52822380 L52310476 52870000 L52262857 52917619 L52215238 53012857 L52215238 53250952 L52262857 53346190 L52310476 53393809 L52405714 53441428 L52596190 53441428 L52691428 53393809 L52739047 53346190 L52786666 53250952 "/>
<svg:path d="M53215238 53822380 L53215238 53155714 "/>
<svg:path d="M53215238 53250952 L53262857 53203333 L53358095 53155714 L53500952 53155714 L53596190 53203333 L53643809 53298571 L53643809 53822380 "/>
<svg:path d="M53643809 53298571 L53691428 53203333 L53786666 53155714 L53929523 53155714 L54024761 53203333 L54072380 53298571 L54072380 53822380 "/>
<svg:path d="M54548571 53822380 L54548571 53155714 "/>
<svg:path d="M54548571 53250952 L54596190 53203333 L54691428 53155714 L54834285 53155714 L54929523 53203333 L54977142 53298571 L54977142 53822380 "/>
<svg:path d="M54977142 53298571 L55024761 53203333 L55119999 53155714 L55262857 53155714 L55358095 53203333 L55405714 53298571 L55405714 53822380 "/>
<svg:path d="M55643809 53917619 L56405714 53917619 "/>
<svg:path d="M56643809 53822380 L56643809 52822380 L56881904 52822380 L57024761 52870000 L57119999 52965238 L57167619 53060476 L57215238 53250952 L57215238 53393809 L57167619 53584285 L57119999 53679523 L57024761 53774761 L56881904 53822380 L56643809 53822380 "/>
<svg:path d="M58072380 53155714 L58072380 53822380 "/>
<svg:path d="M57834285 52774761 L57596190 53489047 L58215238 53489047 "/>
<svg:path d="M58596190 53727142 L58643809 53774761 L58596190 53822380 L58548571 53774761 L58596190 53727142 L58596190 53822380 "/>
<svg:path d="M59548571 52822380 L59072380 52822380 L59024761 53298571 L59072380 53250952 L59167619 53203333 L59405714 53203333 L59500952 53250952 L59548571 53298571 L59596190 53393809 L59596190 53631904 L59548571 53727142 L59500952 53774761 L59405714 53822380 L59167619 53822380 L59072380 53774761 L59024761 53727142 "/>
<svg:path d="M60024761 53822380 L60024761 53155714 "/>
<svg:path d="M60024761 53250952 L60072380 53203333 L60167619 53155714 L60310476 53155714 L60405714 53203333 L60453333 53298571 L60453333 53822380 "/>
<svg:path d="M60453333 53298571 L60500952 53203333 L60596190 53155714 L60739047 53155714 L60834285 53203333 L60881904 53298571 L60881904 53822380 "/>
<svg:path d="M61358095 53822380 L61358095 53155714 "/>
<svg:path d="M61358095 53250952 L61405714 53203333 L61500952 53155714 L61643809 53155714 L61739047 53203333 L61786666 53298571 L61786666 53822380 "/>
<svg:path d="M61786666 53298571 L61834285 53203333 L61929523 53155714 L62072380 53155714 L62167619 53203333 L62215238 53298571 L62215238 53822380 "/>
<svg:path d="M62453333 53917619 L63215238 53917619 "/>
<svg:path d="M63453333 53822380 L63453333 52822380 L63834285 52822380 L63929523 52870000 L63977142 52917619 L64024761 53012857 L64024761 53155714 L63977142 53250952 L63929523 53298571 L63834285 53346190 L63453333 53346190 "/>
<svg:path d="M64977142 53822380 L64405714 53822380 "/>
<svg:path d="M64691428 53822380 L64691428 52822380 L64596190 52965238 L64500952 53060476 L64405714 53108095 "/>
<svg:path d="M65881904 52822380 L65405714 52822380 L65358095 53298571 L65405714 53250952 L65500952 53203333 L65739047 53203333 L65834285 53250952 L65881904 53298571 L65929523 53393809 L65929523 53631904 L65881904 53727142 L65834285 53774761 L65739047 53822380 L65500952 53822380 L65405714 53774761 L65358095 53727142 "/>
<svg:path d="M66358095 53727142 L66405714 53774761 L66358095 53822380 L66310476 53774761 L66358095 53727142 L66358095 53822380 "/>
<svg:path d="M66786666 52917619 L66834285 52870000 L66929523 52822380 L67167619 52822380 L67262857 52870000 L67310476 52917619 L67358095 53012857 L67358095 53108095 L67310476 53250952 L66739047 53822380 L67358095 53822380 "/>
<svg:path d="M68215238 53155714 L68215238 53822380 "/>
<svg:path d="M67977142 52774761 L67739047 53489047 L68358095 53489047 "/>
<svg:path d="M68739047 53822380 L68739047 53155714 "/>
<svg:path d="M68739047 53250952 L68786666 53203333 L68881904 53155714 L69024761 53155714 L69119999 53203333 L69167619 53298571 L69167619 53822380 "/>
<svg:path d="M69167619 53298571 L69215238 53203333 L69310476 53155714 L69453333 53155714 L69548571 53203333 L69596190 53298571 L69596190 53822380 "/>
<svg:path d="M70072380 53822380 L70072380 53155714 "/>
<svg:path d="M70072380 53250952 L70119999 53203333 L70215238 53155714 L70358095 53155714 L70453333 53203333 L70500952 53298571 L70500952 53822380 "/>
<svg:path d="M70500952 53298571 L70548571 53203333 L70643809 53155714 L70786666 53155714 L70881904 53203333 L70929523 53298571 L70929523 53822380 "/>
<svg:path d="M71167619 53917619 L71929523 53917619 "/>
<svg:path d="M72167619 53822380 L72167619 52822380 "/>
<svg:path d="M72167619 53298571 L72739047 53298571 "/>
<svg:path d="M72739047 53822380 L72739047 52822380 "/>
<svg:path d="M73358095 53822380 L73262857 53774761 L73215238 53727142 L73167619 53631904 L73167619 53346190 L73215238 53250952 L73262857 53203333 L73358095 53155714 L73500952 53155714 L73596190 53203333 L73643809 53250952 L73691428 53346190 L73691428 53631904 L73643809 53727142 L73596190 53774761 L73500952 53822380 L73358095 53822380 "/>
<svg:path d="M74119999 53822380 L74119999 53155714 "/>
<svg:path d="M74119999 53346190 L74167619 53250952 L74215238 53203333 L74310476 53155714 L74405714 53155714 "/>
<svg:path d="M74739047 53822380 L74739047 53155714 "/>
<svg:path d="M74739047 52822380 L74691428 52870000 L74739047 52917619 L74786666 52870000 L74739047 52822380 L74739047 52917619 "/>
<svg:path d="M75119999 53155714 L75643809 53155714 L75119999 53822380 L75643809 53822380 "/>
<svg:path d="M76167619 53822380 L76072380 53774761 L76024761 53727142 L75977142 53631904 L75977142 53346190 L76024761 53250952 L76072380 53203333 L76167619 53155714 L76310476 53155714 L76405714 53203333 L76453333 53250952 L76500952 53346190 L76500952 53631904 L76453333 53727142 L76405714 53774761 L76310476 53822380 L76167619 53822380 "/>
<svg:path d="M76929523 53155714 L76929523 53822380 "/>
<svg:path d="M76929523 53250952 L76977142 53203333 L77072380 53155714 L77215238 53155714 L77310476 53203333 L77358095 53298571 L77358095 53822380 "/>
<svg:path d="M77691428 53155714 L78072380 53155714 "/>
<svg:path d="M77834285 52822380 L77834285 53679523 L77881904 53774761 L77977142 53822380 L78072380 53822380 "/>
<svg:path d="M78834285 53822380 L78834285 53298571 L78786666 53203333 L78691428 53155714 L78500952 53155714 L78405714 53203333 "/>
<svg:path d="M78834285 53774761 L78739047 53822380 L78500952 53822380 L78405714 53774761 L78358095 53679523 L78358095 53584285 L78405714 53489047 L78500952 53441428 L78739047 53441428 L78834285 53393809 "/>
<svg:path d="M79453333 53822380 L79358095 53774761 L79310476 53679523 L79310476 52822380 "/>
</svg:g><svg:text x="57620000.000000" y="50500000.000000" textLength="26766429.000000" font-size="1333333.000000" lengthAdjust="spacingAndGlyphs" text-anchor="middle" opacity="0">FZKRRAXIALDIN414L119D45P1524H</svg:text>
<svg:g class="stroked-text"><svg:desc>FZKRRAXIALDIN414L119D45P1524H</svg:desc>
<svg:path d="M44905714 49928571 L44572380 49928571 "/>
<svg:path d="M44572380 50452380 L44572380 49452380 L45048571 49452380 "/>
<svg:path d="M45334285 49452380 L46000952 49452380 L45334285 50452380 L46000952 50452380 "/>
<svg:path d="M46381904 50452380 L46381904 49452380 "/>
<svg:path d="M46953333 50452380 L46524761 49880952 "/>
<svg:path d="M46953333 49452380 L46381904 50023809 "/>
<svg:path d="M47953333 50452380 L47620000 49976190 "/>
<svg:path d="M47381904 50452380 L47381904 49452380 L47762857 49452380 L47858095 49500000 L47905714 49547619 L47953333 49642857 L47953333 49785714 L47905714 49880952 L47858095 49928571 L47762857 49976190 L47381904 49976190 "/>
<svg:path d="M48953333 50452380 L48620000 49976190 "/>
<svg:path d="M48381904 50452380 L48381904 49452380 L48762857 49452380 L48858095 49500000 L48905714 49547619 L48953333 49642857 L48953333 49785714 L48905714 49880952 L48858095 49928571 L48762857 49976190 L48381904 49976190 "/>
<svg:path d="M49334285 50166666 L49810476 50166666 "/>
<svg:path d="M49239047 50452380 L49572380 49452380 L49905714 50452380 "/>
<svg:path d="M50143809 49452380 L50810476 50452380 "/>
<svg:path d="M50810476 49452380 L50143809 50452380 "/>
<svg:path d="M51191428 50452380 L51191428 49452380 "/>
<svg:path d="M51620000 50166666 L52096190 50166666 "/>
<svg:path d="M51524761 50452380 L51858095 49452380 L52191428 50452380 "/>
<svg:path d="M53000952 50452380 L52524761 50452380 L52524761 49452380 "/>
<svg:path d="M53334285 50452380 L53334285 49452380 L53572380 49452380 L53715238 49500000 L53810476 49595238 L53858095 49690476 L53905714 49880952 L53905714 50023809 L53858095 50214285 L53810476 50309523 L53715238 50404761 L53572380 50452380 L53334285 50452380 "/>
<svg:path d="M54334285 50452380 L54334285 49452380 "/>
<svg:path d="M54810476 50452380 L54810476 49452380 L55381904 50452380 L55381904 49452380 "/>
<svg:path d="M56286666 49785714 L56286666 50452380 "/>
<svg:path d="M56048571 49404761 L55810476 50119047 L56429523 50119047 "/>
<svg:path d="M57334285 50452380 L56762857 50452380 "/>
<svg:path d="M57048571 50452380 L57048571 49452380 L56953333 49595238 L56858095 49690476 L56762857 49738095 "/>
<svg:path d="M58191428 49785714 L58191428 50452380 "/>
<svg:path d="M57953333 49404761 L57715238 50119047 L58334285 50119047 "/>
<svg:path d="M59191428 50452380 L58715238 50452380 L58715238 49452380 "/>
<svg:path d="M60048571 50452380 L59477142 50452380 "/>
<svg:path d="M59762857 50452380 L59762857 49452380 L59667619 49595238 L59572380 49690476 L59477142 49738095 "/>
<svg:path d="M61000952 50452380 L60429523 50452380 "/>
<svg:path d="M60715238 50452380 L60715238 49452380 L60620000 49595238 L60524761 49690476 L60429523 49738095 "/>
<svg:path d="M61477142 50452380 L61667619 50452380 L61762857 50404761 L61810476 50357142 L61905714 50214285 L61953333 50023809 L61953333 49642857 L61905714 49547619 L61858095 49500000 L61762857 49452380 L61572380 49452380 L61477142 49500000 L61429523 49547619 L61381904 49642857 L61381904 49880952 L61429523 49976190 L61477142 50023809 L61572380 50071428 L61762857 50071428 L61858095 50023809 L61905714 49976190 L61953333 49880952 "/>
<svg:path d="M62381904 50452380 L62381904 49452380 L62620000 49452380 L62762857 49500000 L62858095 49595238 L62905714 49690476 L62953333 49880952 L62953333 50023809 L62905714 50214285 L62858095 50309523 L62762857 50404761 L62620000 50452380 L62381904 50452380 "/>
<svg:path d="M63810476 49785714 L63810476 50452380 "/>
<svg:path d="M63572380 49404761 L63334285 50119047 L63953333 50119047 "/>
<svg:path d="M64810476 49452380 L64334285 49452380 L64286666 49928571 L64334285 49880952 L64429523 49833333 L64667619 49833333 L64762857 49880952 L64810476 49928571 L64858095 50023809 L64858095 50261904 L64810476 50357142 L64762857 50404761 L64667619 50452380 L64429523 50452380 L64334285 50404761 L64286666 50357142 "/>
<svg:path d="M65286666 50452380 L65286666 49452380 L65667619 49452380 L65762857 49500000 L65810476 49547619 L65858095 49642857 L65858095 49785714 L65810476 49880952 L65762857 49928571 L65667619 49976190 L65286666 49976190 "/>
<svg:path d="M66810476 50452380 L66239047 50452380 "/>
<svg:path d="M66524761 50452380 L66524761 49452380 L66429523 49595238 L66334285 49690476 L66239047 49738095 "/>
<svg:path d="M67715238 49452380 L67239047 49452380 L67191428 49928571 L67239047 49880952 L67334285 49833333 L67572380 49833333 L67667619 49880952 L67715238 49928571 L67762857 50023809 L67762857 50261904 L67715238 50357142 L67667619 50404761 L67572380 50452380 L67334285 50452380 L67239047 50404761 L67191428 50357142 "/>
<svg:path d="M68143809 49547619 L68191428 49500000 L68286666 49452380 L68524761 49452380 L68620000 49500000 L68667619 49547619 L68715238 49642857 L68715238 49738095 L68667619 49880952 L68096190 50452380 L68715238 50452380 "/>
<svg:path d="M69572380 49785714 L69572380 50452380 "/>
<svg:path d="M69334285 49404761 L69096190 50119047 L69715238 50119047 "/>
<svg:path d="M70096190 50452380 L70096190 49452380 "/>
<svg:path d="M70096190 49928571 L70667619 49928571 "/>
<svg:path d="M70667619 50452380 L70667619 49452380 "/>
</svg:g></svg:g>
<svg:g style="fill:#AFAFAF; fill-opacity:0.0;  stroke:#AFAFAF; stroke-width:100000.000000; stroke-opacity:1;  stroke-linecap:round; stroke-linejoin:round;">
<svg:path d="M63570000 47750000 L51670000 47750000 "/>
<svg:path d="M63570000 52250000 L63570000 47750000 "/>
<svg:path d="M50000000 50000000 L51670000 50000000 "/>
<svg:path d="M51670000 52250000 L63570000 52250000 "/>
<svg:path d="M51670000 47750000 L51670000 52250000 "/>
<svg:path d="M65240000 50000000 L63570000 50000000 "/>
<svg:g>
</svg:g>
<svg:g>
</svg:g>
<svg:g>
</svg:g>
<svg:g>
</svg:g>
</svg:g>
<svg:g style="fill:#000000; fill-opacity:0.0;  stroke:#000000; stroke-width:100000.000000; stroke-opacity:1;  stroke-linecap:round; stroke-linejoin:round;">
<svg:g>
</svg:g>
<svg:g>
</svg:g>
<svg:g>
</svg:g>
<svg:g>
</svg:g>
</svg:g> 
</svg:g><svg:g><svg:title>SVG Picture created as kicadBoard-F_Mask.svg date 2022/11/18 05:44:31 </svg:title>
  <svg:desc>Picture generated by PCBNEW </svg:desc>
<svg:g style="fill:#000000; fill-opacity:1.000000;stroke:#000000; stroke-opacity:1.000000; stroke-linecap:round; stroke-linejoin:round;" transform="translate(0 0) scale(1 1)">
</svg:g>
<svg:g style="fill:#000000; fill-opacity:0.0;  stroke:#000000; stroke-width:0.000000; stroke-opacity:1;  stroke-linecap:round; stroke-linejoin:round;">
<svg:g>
</svg:g>
<svg:g style="fill:#000000; fill-opacity:1.0;  stroke:#000000; stroke-width:1.000000; stroke-opacity:1;  stroke-linecap:round; stroke-linejoin:round;">
<svg:circle cx="50000000.000000" cy="50000000.000000" r="1200000.000000"/> 
</svg:g>
<svg:g style="fill:#000000; fill-opacity:1.0;  stroke:#000000; stroke-width:21200.000000; stroke-opacity:1;  stroke-linecap:round; stroke-linejoin:round;">
</svg:g>
<svg:g style="fill:#000000; fill-opacity:1.0;  stroke:#000000; stroke-width:1.000000; stroke-opacity:1;  stroke-linecap:round; stroke-linejoin:round;">
<svg:circle cx="65240000.000000" cy="50000000.000000" r="1200000.000000"/> 
</svg:g>
<svg:g>
</svg:g>
<svg:g>
</svg:g>
<svg:g>
</svg:g>
</svg:g>
<svg:g style="fill:#000000; fill-opacity:1.0;  stroke:#000000; stroke-width:1.000000; stroke-opacity:1;  stroke-linecap:round; stroke-linejoin:round;">
<svg:g>
</svg:g>
<svg:g>
</svg:g>
<svg:g>
</svg:g>
<svg:g>
</svg:g>
</svg:g> 
</svg:g><svg:g><svg:title>SVG Picture created as kicadBoard-F_Paste.svg date 2022/11/18 05:44:31 </svg:title>
  <svg:desc>Picture generated by PCBNEW </svg:desc>
<svg:g style="fill:#000000; fill-opacity:1.000000;stroke:#000000; stroke-opacity:1.000000; stroke-linecap:round; stroke-linejoin:round;" transform="translate(0 0) scale(1 1)">
</svg:g>
<svg:g style="fill:#000000; fill-opacity:0.0;  stroke:#000000; stroke-width:0.000000; stroke-opacity:1;  stroke-linecap:round; stroke-linejoin:round;">
<svg:g>
</svg:g>
<svg:g>
</svg:g>
<svg:g>
</svg:g>
<svg:g>
</svg:g>
</svg:g>
<svg:g style="fill:#000000; fill-opacity:0.0;  stroke:#000000; stroke-width:0.000000; stroke-opacity:1;  stroke-linecap:round; stroke-linejoin:round;">
<svg:g>
</svg:g>
<svg:g>
</svg:g>
<svg:g>
</svg:g>
<svg:g>
</svg:g>
</svg:g> 
</svg:g><svg:g><svg:title>SVG Picture created as kicadBoard-F_Silkscreen.svg date 2022/11/18 05:44:31 </svg:title>
  <svg:desc>Picture generated by PCBNEW </svg:desc>
<svg:g style="fill:#000000; fill-opacity:1.000000;stroke:#000000; stroke-opacity:1.000000; stroke-linecap:round; stroke-linejoin:round;" transform="translate(0 0) scale(1 1)">
</svg:g>
<svg:g style="fill:#000000; fill-opacity:0.0;  stroke:#000000; stroke-width:0.000000; stroke-opacity:1;  stroke-linecap:round; stroke-linejoin:round;">
</svg:g>
<svg:g style="fill:#F2EDA1; fill-opacity:0.0;  stroke:#F2EDA1; stroke-width:0.000000; stroke-opacity:1;  stroke-linecap:round; stroke-linejoin:round;">
</svg:g>
<svg:g style="fill:#F2EDA1; fill-opacity:0.0;  stroke:#F2EDA1; stroke-width:150000.000000; stroke-opacity:1;  stroke-linecap:round; stroke-linejoin:round;">
<svg:text x="57620000.000000" y="47130000.000000" textLength="26571430.000000" font-size="1333333.000000" lengthAdjust="spacingAndGlyphs" text-anchor="middle" opacity="0">FZKRRAXIALDIN414L119D45P1524H</svg:text>
<svg:g class="stroked-text"><svg:desc>FZKRRAXIALDIN414L119D45P1524H</svg:desc>
<svg:path d="M44905714 46558571 L44572380 46558571 "/>
<svg:path d="M44572380 47082380 L44572380 46082380 L45048571 46082380 "/>
<svg:path d="M45334285 46082380 L46000952 46082380 L45334285 47082380 L46000952 47082380 "/>
<svg:path d="M46381904 47082380 L46381904 46082380 "/>
<svg:path d="M46953333 47082380 L46524761 46510952 "/>
<svg:path d="M46953333 46082380 L46381904 46653809 "/>
<svg:path d="M47953333 47082380 L47620000 46606190 "/>
<svg:path d="M47381904 47082380 L47381904 46082380 L47762857 46082380 L47858095 46130000 L47905714 46177619 L47953333 46272857 L47953333 46415714 L47905714 46510952 L47858095 46558571 L47762857 46606190 L47381904 46606190 "/>
<svg:path d="M48953333 47082380 L48620000 46606190 "/>
<svg:path d="M48381904 47082380 L48381904 46082380 L48762857 46082380 L48858095 46130000 L48905714 46177619 L48953333 46272857 L48953333 46415714 L48905714 46510952 L48858095 46558571 L48762857 46606190 L48381904 46606190 "/>
<svg:path d="M49334285 46796666 L49810476 46796666 "/>
<svg:path d="M49239047 47082380 L49572380 46082380 L49905714 47082380 "/>
<svg:path d="M50143809 46082380 L50810476 47082380 "/>
<svg:path d="M50810476 46082380 L50143809 47082380 "/>
<svg:path d="M51191428 47082380 L51191428 46082380 "/>
<svg:path d="M51620000 46796666 L52096190 46796666 "/>
<svg:path d="M51524761 47082380 L51858095 46082380 L52191428 47082380 "/>
<svg:path d="M53000952 47082380 L52524761 47082380 L52524761 46082380 "/>
<svg:path d="M53334285 47082380 L53334285 46082380 L53572380 46082380 L53715238 46130000 L53810476 46225238 L53858095 46320476 L53905714 46510952 L53905714 46653809 L53858095 46844285 L53810476 46939523 L53715238 47034761 L53572380 47082380 L53334285 47082380 "/>
<svg:path d="M54334285 47082380 L54334285 46082380 "/>
<svg:path d="M54810476 47082380 L54810476 46082380 L55381904 47082380 L55381904 46082380 "/>
<svg:path d="M56286666 46415714 L56286666 47082380 "/>
<svg:path d="M56048571 46034761 L55810476 46749047 L56429523 46749047 "/>
<svg:path d="M57334285 47082380 L56762857 47082380 "/>
<svg:path d="M57048571 47082380 L57048571 46082380 L56953333 46225238 L56858095 46320476 L56762857 46368095 "/>
<svg:path d="M58191428 46415714 L58191428 47082380 "/>
<svg:path d="M57953333 46034761 L57715238 46749047 L58334285 46749047 "/>
<svg:path d="M59191428 47082380 L58715238 47082380 L58715238 46082380 "/>
<svg:path d="M60048571 47082380 L59477142 47082380 "/>
<svg:path d="M59762857 47082380 L59762857 46082380 L59667619 46225238 L59572380 46320476 L59477142 46368095 "/>
<svg:path d="M61000952 47082380 L60429523 47082380 "/>
<svg:path d="M60715238 47082380 L60715238 46082380 L60620000 46225238 L60524761 46320476 L60429523 46368095 "/>
<svg:path d="M61477142 47082380 L61667619 47082380 L61762857 47034761 L61810476 46987142 L61905714 46844285 L61953333 46653809 L61953333 46272857 L61905714 46177619 L61858095 46130000 L61762857 46082380 L61572380 46082380 L61477142 46130000 L61429523 46177619 L61381904 46272857 L61381904 46510952 L61429523 46606190 L61477142 46653809 L61572380 46701428 L61762857 46701428 L61858095 46653809 L61905714 46606190 L61953333 46510952 "/>
<svg:path d="M62381904 47082380 L62381904 46082380 L62620000 46082380 L62762857 46130000 L62858095 46225238 L62905714 46320476 L62953333 46510952 L62953333 46653809 L62905714 46844285 L62858095 46939523 L62762857 47034761 L62620000 47082380 L62381904 47082380 "/>
<svg:path d="M63810476 46415714 L63810476 47082380 "/>
<svg:path d="M63572380 46034761 L63334285 46749047 L63953333 46749047 "/>
<svg:path d="M64810476 46082380 L64334285 46082380 L64286666 46558571 L64334285 46510952 L64429523 46463333 L64667619 46463333 L64762857 46510952 L64810476 46558571 L64858095 46653809 L64858095 46891904 L64810476 46987142 L64762857 47034761 L64667619 47082380 L64429523 47082380 L64334285 47034761 L64286666 46987142 "/>
<svg:path d="M65286666 47082380 L65286666 46082380 L65667619 46082380 L65762857 46130000 L65810476 46177619 L65858095 46272857 L65858095 46415714 L65810476 46510952 L65762857 46558571 L65667619 46606190 L65286666 46606190 "/>
<svg:path d="M66810476 47082380 L66239047 47082380 "/>
<svg:path d="M66524761 47082380 L66524761 46082380 L66429523 46225238 L66334285 46320476 L66239047 46368095 "/>
<svg:path d="M67715238 46082380 L67239047 46082380 L67191428 46558571 L67239047 46510952 L67334285 46463333 L67572380 46463333 L67667619 46510952 L67715238 46558571 L67762857 46653809 L67762857 46891904 L67715238 46987142 L67667619 47034761 L67572380 47082380 L67334285 47082380 L67239047 47034761 L67191428 46987142 "/>
<svg:path d="M68143809 46177619 L68191428 46130000 L68286666 46082380 L68524761 46082380 L68620000 46130000 L68667619 46177619 L68715238 46272857 L68715238 46368095 L68667619 46510952 L68096190 47082380 L68715238 47082380 "/>
<svg:path d="M69572380 46415714 L69572380 47082380 "/>
<svg:path d="M69334285 46034761 L69096190 46749047 L69715238 46749047 "/>
<svg:path d="M70096190 47082380 L70096190 46082380 "/>
<svg:path d="M70096190 46558571 L70667619 46558571 "/>
<svg:path d="M70667619 47082380 L70667619 46082380 "/>
</svg:g></svg:g>
<svg:g style="fill:#F2EDA1; fill-opacity:0.0;  stroke:#F2EDA1; stroke-width:120000.000000; stroke-opacity:1;  stroke-linecap:round; stroke-linejoin:round;">
<svg:path d="M51550000 52370000 L63690000 52370000 "/>
<svg:path d="M63690000 52370000 L63690000 47630000 "/>
<svg:path d="M63690000 47630000 L51550000 47630000 "/>
<svg:path d="M51550000 47630000 L51550000 52370000 "/>
<svg:path d="M51440000 50000000 L51550000 50000000 "/>
<svg:path d="M63800000 50000000 L63690000 50000000 "/>
<svg:g>
</svg:g>
<svg:g>
</svg:g>
<svg:g>
</svg:g>
<svg:g>
</svg:g>
</svg:g>
<svg:g style="fill:#000000; fill-opacity:0.0;  stroke:#000000; stroke-width:120000.000000; stroke-opacity:1;  stroke-linecap:round; stroke-linejoin:round;">
<svg:g>
</svg:g>
<svg:g>
</svg:g>
<svg:g>
</svg:g>
<svg:g>
</svg:g>
</svg:g> 
</svg:g><svg:g><svg:title>SVG Picture created as kicadBoard-Margin.svg date 2022/11/18 05:44:31 </svg:title>
  <svg:desc>Picture generated by PCBNEW </svg:desc>
<svg:g style="fill:#000000; fill-opacity:1.000000;stroke:#000000; stroke-opacity:1.000000; stroke-linecap:round; stroke-linejoin:round;" transform="translate(0 0) scale(1 1)">
</svg:g>
<svg:g style="fill:#000000; fill-opacity:0.0;  stroke:#000000; stroke-width:0.000000; stroke-opacity:1;  stroke-linecap:round; stroke-linejoin:round;">
<svg:g>
</svg:g>
<svg:g>
</svg:g>
<svg:g>
</svg:g>
<svg:g>
</svg:g>
</svg:g>
<svg:g style="fill:#000000; fill-opacity:0.0;  stroke:#000000; stroke-width:0.000000; stroke-opacity:1;  stroke-linecap:round; stroke-linejoin:round;">
<svg:g>
</svg:g>
<svg:g>
</svg:g>
<svg:g>
</svg:g>
<svg:g>
</svg:g>
</svg:g> 
</svg:g><svg:g><svg:title>SVG Picture created as kicadBoard-F_Cu.svg date 2022/11/18 05:44:31 </svg:title>
  <svg:desc>Picture generated by PCBNEW </svg:desc>
<svg:g style="fill:#000000; fill-opacity:1.000000;stroke:#000000; stroke-opacity:1.000000; stroke-linecap:round; stroke-linejoin:round;" transform="translate(0 0) scale(1 1)">
</svg:g>
<svg:g style="fill:#000000; fill-opacity:0.0;  stroke:#000000; stroke-width:0.000000; stroke-opacity:1;  stroke-linecap:round; stroke-linejoin:round;">
<svg:g>
</svg:g>
<svg:g style="fill:#C83434; fill-opacity:0.0;  stroke:#C83434; stroke-width:0.000000; stroke-opacity:1;  stroke-linecap:round; stroke-linejoin:round;">
</svg:g>
<svg:g style="fill:#C83434; fill-opacity:1.0;  stroke:#C83434; stroke-width:1.000000; stroke-opacity:1;  stroke-linecap:round; stroke-linejoin:round;">
<svg:circle cx="50000000.000000" cy="50000000.000000" r="1200000.000000"/> 
</svg:g>
<svg:g style="fill:#C83434; fill-opacity:1.0;  stroke:#C83434; stroke-width:21200.000000; stroke-opacity:1;  stroke-linecap:round; stroke-linejoin:round;">
</svg:g>
<svg:g style="fill:#C83434; fill-opacity:1.0;  stroke:#C83434; stroke-width:1.000000; stroke-opacity:1;  stroke-linecap:round; stroke-linejoin:round;">
<svg:circle cx="65240000.000000" cy="50000000.000000" r="1200000.000000"/> 
</svg:g>
<svg:g>
</svg:g>
<svg:g>
</svg:g>
<svg:g>
</svg:g>
</svg:g>
<svg:g style="fill:#FFFFFF; fill-opacity:1.0;  stroke:#FFFFFF; stroke-width:1.000000; stroke-opacity:1;  stroke-linecap:round; stroke-linejoin:round;">
<svg:circle cx="50000000.000000" cy="50000000.000000" r="600000.000000"/> 
</svg:g>
<svg:g style="fill:#FFFFFF; fill-opacity:1.0;  stroke:#FFFFFF; stroke-width:21200.000000; stroke-opacity:1;  stroke-linecap:round; stroke-linejoin:round;">
</svg:g>
<svg:g style="fill:#FFFFFF; fill-opacity:1.0;  stroke:#FFFFFF; stroke-width:1.000000; stroke-opacity:1;  stroke-linecap:round; stroke-linejoin:round;">
<svg:circle cx="65240000.000000" cy="50000000.000000" r="600000.000000"/> 
</svg:g>
<svg:g style="fill:#FFFFFF; fill-opacity:1.0;  stroke:#FFFFFF; stroke-width:21200.000000; stroke-opacity:1;  stroke-linecap:round; stroke-linejoin:round;">
</svg:g>
<svg:g style="fill:#000000; fill-opacity:1.0;  stroke:#000000; stroke-width:21200.000000; stroke-opacity:1;  stroke-linecap:round; stroke-linejoin:round;">
<svg:g>
</svg:g>
<svg:g>
</svg:g>
<svg:g>
</svg:g>
<svg:g>
</svg:g>
</svg:g> 
</svg:g></svg>
