<?xml version='1.0' encoding='ASCII' standalone='yes'?>
<svg xmlns:svg="http://www.w3.org/2000/svg" xmlns="http://www.w3.org/2000/svg" xmlns:xlink="http://www.w3.org/1999/xlink" version="1.1" width="9.999980cm" height="9.999980cm" viewBox="0 0 99999800 99999800">
<title>SVG Picture created as kicadBoard-B_Cu.svg date 2022/11/17 10:14:33 </title>
  <desc>Picture generated by PCBNEW </desc>
<g style="fill:#000000; fill-opacity:1.000000;stroke:#000000; stroke-opacity:1.000000; stroke-linecap:round; stroke-linejoin:round;" transform="translate(0 0) scale(1 1)">
</g>
<g style="fill:#000000; fill-opacity:0.0;  stroke:#000000; stroke-width:0.000000; stroke-opacity:1;  stroke-linecap:round; stroke-linejoin:round;">
<g>
</g>
<g>
</g>
<g>
</g>
<g>
</g>
</g>
<g style="fill:#FFFFFF; fill-opacity:0.0;  stroke:#FFFFFF; stroke-width:0.000000; stroke-opacity:1;  stroke-linecap:round; stroke-linejoin:round;">
</g>
<g style="fill:#000000; fill-opacity:0.0;  stroke:#000000; stroke-width:0.000000; stroke-opacity:1;  stroke-linecap:round; stroke-linejoin:round;">
<g>
</g>
<g>
</g>
<g>
</g>
<g>
</g>
</g> 
<svg:g><svg:title>SVG Picture created as kicadBoard-B_Adhesive.svg date 2022/11/17 10:14:33 </svg:title>
  <svg:desc>Picture generated by PCBNEW </svg:desc>
<svg:g style="fill:#000000; fill-opacity:1.000000;stroke:#000000; stroke-opacity:1.000000; stroke-linecap:round; stroke-linejoin:round;" transform="translate(0 0) scale(1 1)">
</svg:g>
<svg:g style="fill:#000000; fill-opacity:0.0;  stroke:#000000; stroke-width:0.000000; stroke-opacity:1;  stroke-linecap:round; stroke-linejoin:round;">
<svg:g>
</svg:g>
<svg:g>
</svg:g>
<svg:g>
</svg:g>
<svg:g>
</svg:g>
</svg:g>
<svg:g style="fill:#000000; fill-opacity:0.0;  stroke:#000000; stroke-width:0.000000; stroke-opacity:1;  stroke-linecap:round; stroke-linejoin:round;">
<svg:g>
</svg:g>
<svg:g>
</svg:g>
<svg:g>
</svg:g>
<svg:g>
</svg:g>
</svg:g> 
</svg:g><svg:g><svg:title>SVG Picture created as kicadBoard-B_Courtyard.svg date 2022/11/17 10:14:33 </svg:title>
  <svg:desc>Picture generated by PCBNEW </svg:desc>
<svg:g style="fill:#000000; fill-opacity:1.000000;stroke:#000000; stroke-opacity:1.000000; stroke-linecap:round; stroke-linejoin:round;" transform="translate(0 0) scale(1 1)">
</svg:g>
<svg:g style="fill:#000000; fill-opacity:0.0;  stroke:#000000; stroke-width:0.000000; stroke-opacity:1;  stroke-linecap:round; stroke-linejoin:round;">
<svg:g>
</svg:g>
<svg:g>
</svg:g>
<svg:g>
</svg:g>
<svg:g>
</svg:g>
</svg:g>
<svg:g style="fill:#000000; fill-opacity:0.0;  stroke:#000000; stroke-width:0.000000; stroke-opacity:1;  stroke-linecap:round; stroke-linejoin:round;">
<svg:g>
</svg:g>
<svg:g>
</svg:g>
<svg:g>
</svg:g>
<svg:g>
</svg:g>
</svg:g> 
</svg:g><svg:g><svg:title>SVG Picture created as kicadBoard-B_Fab.svg date 2022/11/17 10:14:33 </svg:title>
  <svg:desc>Picture generated by PCBNEW </svg:desc>
<svg:g style="fill:#000000; fill-opacity:1.000000;stroke:#000000; stroke-opacity:1.000000; stroke-linecap:round; stroke-linejoin:round;" transform="translate(0 0) scale(1 1)">
</svg:g>
<svg:g style="fill:#000000; fill-opacity:0.0;  stroke:#000000; stroke-width:0.000000; stroke-opacity:1;  stroke-linecap:round; stroke-linejoin:round;">
<svg:g>
</svg:g>
<svg:g>
</svg:g>
<svg:g>
</svg:g>
<svg:g>
</svg:g>
</svg:g>
<svg:g style="fill:#000000; fill-opacity:0.0;  stroke:#000000; stroke-width:0.000000; stroke-opacity:1;  stroke-linecap:round; stroke-linejoin:round;">
<svg:g>
</svg:g>
<svg:g>
</svg:g>
<svg:g>
</svg:g>
<svg:g>
</svg:g>
</svg:g> 
</svg:g><svg:g><svg:title>SVG Picture created as kicadBoard-B_Mask.svg date 2022/11/17 10:14:33 </svg:title>
  <svg:desc>Picture generated by PCBNEW </svg:desc>
<svg:g style="fill:#000000; fill-opacity:1.000000;stroke:#000000; stroke-opacity:1.000000; stroke-linecap:round; stroke-linejoin:round;" transform="translate(0 0) scale(1 1)">
</svg:g>
<svg:g style="fill:#000000; fill-opacity:0.0;  stroke:#000000; stroke-width:0.000000; stroke-opacity:1;  stroke-linecap:round; stroke-linejoin:round;">
<svg:g>
</svg:g>
<svg:g>
</svg:g>
<svg:g>
</svg:g>
<svg:g>
</svg:g>
</svg:g>
<svg:g style="fill:#000000; fill-opacity:0.0;  stroke:#000000; stroke-width:0.000000; stroke-opacity:1;  stroke-linecap:round; stroke-linejoin:round;">
<svg:g>
</svg:g>
<svg:g>
</svg:g>
<svg:g>
</svg:g>
<svg:g>
</svg:g>
</svg:g> 
</svg:g><svg:g><svg:title>SVG Picture created as kicadBoard-B_Paste.svg date 2022/11/17 10:14:33 </svg:title>
  <svg:desc>Picture generated by PCBNEW </svg:desc>
<svg:g style="fill:#000000; fill-opacity:1.000000;stroke:#000000; stroke-opacity:1.000000; stroke-linecap:round; stroke-linejoin:round;" transform="translate(0 0) scale(1 1)">
</svg:g>
<svg:g style="fill:#000000; fill-opacity:0.0;  stroke:#000000; stroke-width:0.000000; stroke-opacity:1;  stroke-linecap:round; stroke-linejoin:round;">
<svg:g>
</svg:g>
<svg:g>
</svg:g>
<svg:g>
</svg:g>
<svg:g>
</svg:g>
</svg:g>
<svg:g style="fill:#000000; fill-opacity:0.0;  stroke:#000000; stroke-width:0.000000; stroke-opacity:1;  stroke-linecap:round; stroke-linejoin:round;">
<svg:g>
</svg:g>
<svg:g>
</svg:g>
<svg:g>
</svg:g>
<svg:g>
</svg:g>
</svg:g> 
</svg:g><svg:g><svg:title>SVG Picture created as kicadBoard-B_Silkscreen.svg date 2022/11/17 10:14:33 </svg:title>
  <svg:desc>Picture generated by PCBNEW </svg:desc>
<svg:g style="fill:#000000; fill-opacity:1.000000;stroke:#000000; stroke-opacity:1.000000; stroke-linecap:round; stroke-linejoin:round;" transform="translate(0 0) scale(1 1)">
</svg:g>
<svg:g style="fill:#000000; fill-opacity:0.0;  stroke:#000000; stroke-width:0.000000; stroke-opacity:1;  stroke-linecap:round; stroke-linejoin:round;">
<svg:g>
</svg:g>
<svg:g>
</svg:g>
<svg:g>
</svg:g>
<svg:g>
</svg:g>
</svg:g>
<svg:g style="fill:#000000; fill-opacity:0.0;  stroke:#000000; stroke-width:0.000000; stroke-opacity:1;  stroke-linecap:round; stroke-linejoin:round;">
<svg:g>
</svg:g>
<svg:g>
</svg:g>
<svg:g>
</svg:g>
<svg:g>
</svg:g>
</svg:g> 
</svg:g><svg:g><svg:title>SVG Picture created as kicadBoard-Edge_Cuts.svg date 2022/11/17 10:14:33 </svg:title>
  <svg:desc>Picture generated by PCBNEW </svg:desc>
<svg:g style="fill:#000000; fill-opacity:1.000000;stroke:#000000; stroke-opacity:1.000000; stroke-linecap:round; stroke-linejoin:round;" transform="translate(0 0) scale(1 1)">
</svg:g>
<svg:g style="fill:#000000; fill-opacity:0.0;  stroke:#000000; stroke-width:0.000000; stroke-opacity:1;  stroke-linecap:round; stroke-linejoin:round;">
<svg:g>
</svg:g>
<svg:g>
</svg:g>
<svg:g>
</svg:g>
<svg:g>
</svg:g>
</svg:g> 
</svg:g><svg:g><svg:title>SVG Picture created as kicadBoard-F_Adhesive.svg date 2022/11/17 10:14:33 </svg:title>
  <svg:desc>Picture generated by PCBNEW </svg:desc>
<svg:g style="fill:#000000; fill-opacity:1.000000;stroke:#000000; stroke-opacity:1.000000; stroke-linecap:round; stroke-linejoin:round;" transform="translate(0 0) scale(1 1)">
</svg:g>
<svg:g style="fill:#000000; fill-opacity:0.0;  stroke:#000000; stroke-width:0.000000; stroke-opacity:1;  stroke-linecap:round; stroke-linejoin:round;">
<svg:g>
</svg:g>
<svg:g>
</svg:g>
<svg:g>
</svg:g>
<svg:g>
</svg:g>
</svg:g>
<svg:g style="fill:#000000; fill-opacity:0.0;  stroke:#000000; stroke-width:0.000000; stroke-opacity:1;  stroke-linecap:round; stroke-linejoin:round;">
<svg:g>
</svg:g>
<svg:g>
</svg:g>
<svg:g>
</svg:g>
<svg:g>
</svg:g>
</svg:g> 
</svg:g><svg:g><svg:title>SVG Picture created as kicadBoard-F_Courtyard.svg date 2022/11/17 10:14:33 </svg:title>
  <svg:desc>Picture generated by PCBNEW </svg:desc>
<svg:g style="fill:#000000; fill-opacity:1.000000;stroke:#000000; stroke-opacity:1.000000; stroke-linecap:round; stroke-linejoin:round;" transform="translate(0 0) scale(1 1)">
</svg:g>
<svg:g style="fill:#000000; fill-opacity:0.0;  stroke:#000000; stroke-width:0.000000; stroke-opacity:1;  stroke-linecap:round; stroke-linejoin:round;">
</svg:g>
<svg:g style="fill:#FF26E2; fill-opacity:0.0;  stroke:#FF26E2; stroke-width:0.000000; stroke-opacity:1;  stroke-linecap:round; stroke-linejoin:round;">
</svg:g>
<svg:g style="fill:#FF26E2; fill-opacity:0.0;  stroke:#FF26E2; stroke-width:50000.000000; stroke-opacity:1;  stroke-linecap:round; stroke-linejoin:round;">
<svg:path d="M53450000 7550000 L46550000 7550000 "/>
<svg:path d="M46550000 7550000 L46550000 92450000 "/>
<svg:path d="M53450000 92450000 L53450000 7550000 "/>
<svg:path d="M46550000 92450000 L53450000 92450000 "/>
<svg:g>
</svg:g>
<svg:g>
</svg:g>
<svg:g>
</svg:g>
<svg:g>
</svg:g>
</svg:g>
<svg:g style="fill:#000000; fill-opacity:0.0;  stroke:#000000; stroke-width:50000.000000; stroke-opacity:1;  stroke-linecap:round; stroke-linejoin:round;">
<svg:g>
</svg:g>
<svg:g>
</svg:g>
<svg:g>
</svg:g>
<svg:g>
</svg:g>
</svg:g> 
</svg:g><svg:g><svg:title>SVG Picture created as kicadBoard-F_Fab.svg date 2022/11/17 10:14:33 </svg:title>
  <svg:desc>Picture generated by PCBNEW </svg:desc>
<svg:g style="fill:#000000; fill-opacity:1.000000;stroke:#000000; stroke-opacity:1.000000; stroke-linecap:round; stroke-linejoin:round;" transform="translate(0 0) scale(1 1)">
</svg:g>
<svg:g style="fill:#000000; fill-opacity:0.0;  stroke:#000000; stroke-width:0.000000; stroke-opacity:1;  stroke-linecap:round; stroke-linejoin:round;">
</svg:g>
<svg:g style="fill:#AFAFAF; fill-opacity:0.0;  stroke:#AFAFAF; stroke-width:0.000000; stroke-opacity:1;  stroke-linecap:round; stroke-linejoin:round;">
</svg:g>
<svg:g style="fill:#AFAFAF; fill-opacity:0.0;  stroke:#AFAFAF; stroke-width:150000.000000; stroke-opacity:1;  stroke-linecap:round; stroke-linejoin:round;">
<svg:text x="50000000.000000" y="93470000.000000" textLength="37147381.000000" font-size="1333333.000000" lengthAdjust="spacingAndGlyphs" text-anchor="middle" opacity="0">PinHeader_1x33_P2.54mm_Vertical_SMD_Pin1Left</svg:text>
<svg:g class="stroked-text"><svg:desc>PinHeader_1x33_P2.54mm_Vertical_SMD_Pin1Left</svg:desc>
<svg:path d="M31761904 93422380 L31761904 92422380 L32142857 92422380 L32238095 92470000 L32285714 92517619 L32333333 92612857 L32333333 92755714 L32285714 92850952 L32238095 92898571 L32142857 92946190 L31761904 92946190 "/>
<svg:path d="M32761904 93422380 L32761904 92755714 "/>
<svg:path d="M32761904 92422380 L32714285 92470000 L32761904 92517619 L32809523 92470000 L32761904 92422380 L32761904 92517619 "/>
<svg:path d="M33238095 92755714 L33238095 93422380 "/>
<svg:path d="M33238095 92850952 L33285714 92803333 L33380952 92755714 L33523809 92755714 L33619047 92803333 L33666666 92898571 L33666666 93422380 "/>
<svg:path d="M34142857 93422380 L34142857 92422380 "/>
<svg:path d="M34142857 92898571 L34714285 92898571 "/>
<svg:path d="M34714285 93422380 L34714285 92422380 "/>
<svg:path d="M35571428 93374761 L35476190 93422380 L35285714 93422380 L35190476 93374761 L35142857 93279523 L35142857 92898571 L35190476 92803333 L35285714 92755714 L35476190 92755714 L35571428 92803333 L35619047 92898571 L35619047 92993809 L35142857 93089047 "/>
<svg:path d="M36476190 93422380 L36476190 92898571 L36428571 92803333 L36333333 92755714 L36142857 92755714 L36047619 92803333 "/>
<svg:path d="M36476190 93374761 L36380952 93422380 L36142857 93422380 L36047619 93374761 L36000000 93279523 L36000000 93184285 L36047619 93089047 L36142857 93041428 L36380952 93041428 L36476190 92993809 "/>
<svg:path d="M37380952 93422380 L37380952 92422380 "/>
<svg:path d="M37380952 93374761 L37285714 93422380 L37095238 93422380 L37000000 93374761 L36952380 93327142 L36904761 93231904 L36904761 92946190 L36952380 92850952 L37000000 92803333 L37095238 92755714 L37285714 92755714 L37380952 92803333 "/>
<svg:path d="M38238095 93374761 L38142857 93422380 L37952380 93422380 L37857142 93374761 L37809523 93279523 L37809523 92898571 L37857142 92803333 L37952380 92755714 L38142857 92755714 L38238095 92803333 L38285714 92898571 L38285714 92993809 L37809523 93089047 "/>
<svg:path d="M38714285 93422380 L38714285 92755714 "/>
<svg:path d="M38714285 92946190 L38761904 92850952 L38809523 92803333 L38904761 92755714 L39000000 92755714 "/>
<svg:path d="M39095238 93517619 L39857142 93517619 "/>
<svg:path d="M40619047 93422380 L40047619 93422380 "/>
<svg:path d="M40333333 93422380 L40333333 92422380 L40238095 92565238 L40142857 92660476 L40047619 92708095 "/>
<svg:path d="M40952380 93422380 L41476190 92755714 "/>
<svg:path d="M40952380 92755714 L41476190 93422380 "/>
<svg:path d="M41761904 92422380 L42380952 92422380 L42047619 92803333 L42190476 92803333 L42285714 92850952 L42333333 92898571 L42380952 92993809 L42380952 93231904 L42333333 93327142 L42285714 93374761 L42190476 93422380 L41904761 93422380 L41809523 93374761 L41761904 93327142 "/>
<svg:path d="M42714285 92422380 L43333333 92422380 L43000000 92803333 L43142857 92803333 L43238095 92850952 L43285714 92898571 L43333333 92993809 L43333333 93231904 L43285714 93327142 L43238095 93374761 L43142857 93422380 L42857142 93422380 L42761904 93374761 L42714285 93327142 "/>
<svg:path d="M43523809 93517619 L44285714 93517619 "/>
<svg:path d="M44523809 93422380 L44523809 92422380 L44904761 92422380 L45000000 92470000 L45047619 92517619 L45095238 92612857 L45095238 92755714 L45047619 92850952 L45000000 92898571 L44904761 92946190 L44523809 92946190 "/>
<svg:path d="M45476190 92517619 L45523809 92470000 L45619047 92422380 L45857142 92422380 L45952380 92470000 L46000000 92517619 L46047619 92612857 L46047619 92708095 L46000000 92850952 L45428571 93422380 L46047619 93422380 "/>
<svg:path d="M46476190 93327142 L46523809 93374761 L46476190 93422380 L46428571 93374761 L46476190 93327142 L46476190 93422380 "/>
<svg:path d="M47428571 92422380 L46952380 92422380 L46904761 92898571 L46952380 92850952 L47047619 92803333 L47285714 92803333 L47380952 92850952 L47428571 92898571 L47476190 92993809 L47476190 93231904 L47428571 93327142 L47380952 93374761 L47285714 93422380 L47047619 93422380 L46952380 93374761 L46904761 93327142 "/>
<svg:path d="M48333333 92755714 L48333333 93422380 "/>
<svg:path d="M48095238 92374761 L47857142 93089047 L48476190 93089047 "/>
<svg:path d="M48857142 93422380 L48857142 92755714 "/>
<svg:path d="M48857142 92850952 L48904761 92803333 L49000000 92755714 L49142857 92755714 L49238095 92803333 L49285714 92898571 L49285714 93422380 "/>
<svg:path d="M49285714 92898571 L49333333 92803333 L49428571 92755714 L49571428 92755714 L49666666 92803333 L49714285 92898571 L49714285 93422380 "/>
<svg:path d="M50190476 93422380 L50190476 92755714 "/>
<svg:path d="M50190476 92850952 L50238095 92803333 L50333333 92755714 L50476190 92755714 L50571428 92803333 L50619047 92898571 L50619047 93422380 "/>
<svg:path d="M50619047 92898571 L50666666 92803333 L50761904 92755714 L50904761 92755714 L51000000 92803333 L51047619 92898571 L51047619 93422380 "/>
<svg:path d="M51285714 93517619 L52047619 93517619 "/>
<svg:path d="M52142857 92422380 L52476190 93422380 L52809523 92422380 "/>
<svg:path d="M53523809 93374761 L53428571 93422380 L53238095 93422380 L53142857 93374761 L53095238 93279523 L53095238 92898571 L53142857 92803333 L53238095 92755714 L53428571 92755714 L53523809 92803333 L53571428 92898571 L53571428 92993809 L53095238 93089047 "/>
<svg:path d="M54000000 93422380 L54000000 92755714 "/>
<svg:path d="M54000000 92946190 L54047619 92850952 L54095238 92803333 L54190476 92755714 L54285714 92755714 "/>
<svg:path d="M54476190 92755714 L54857142 92755714 "/>
<svg:path d="M54619047 92422380 L54619047 93279523 L54666666 93374761 L54761904 93422380 L54857142 93422380 "/>
<svg:path d="M55190476 93422380 L55190476 92755714 "/>
<svg:path d="M55190476 92422380 L55142857 92470000 L55190476 92517619 L55238095 92470000 L55190476 92422380 L55190476 92517619 "/>
<svg:path d="M56095238 93374761 L56000000 93422380 L55809523 93422380 L55714285 93374761 L55666666 93327142 L55619047 93231904 L55619047 92946190 L55666666 92850952 L55714285 92803333 L55809523 92755714 L56000000 92755714 L56095238 92803333 "/>
<svg:path d="M56952380 93422380 L56952380 92898571 L56904761 92803333 L56809523 92755714 L56619047 92755714 L56523809 92803333 "/>
<svg:path d="M56952380 93374761 L56857142 93422380 L56619047 93422380 L56523809 93374761 L56476190 93279523 L56476190 93184285 L56523809 93089047 L56619047 93041428 L56857142 93041428 L56952380 92993809 "/>
<svg:path d="M57571428 93422380 L57476190 93374761 L57428571 93279523 L57428571 92422380 "/>
<svg:path d="M57714285 93517619 L58476190 93517619 "/>
<svg:path d="M58666666 93374761 L58809523 93422380 L59047619 93422380 L59142857 93374761 L59190476 93327142 L59238095 93231904 L59238095 93136666 L59190476 93041428 L59142857 92993809 L59047619 92946190 L58857142 92898571 L58761904 92850952 L58714285 92803333 L58666666 92708095 L58666666 92612857 L58714285 92517619 L58761904 92470000 L58857142 92422380 L59095238 92422380 L59238095 92470000 "/>
<svg:path d="M59666666 93422380 L59666666 92422380 L60000000 93136666 L60333333 92422380 L60333333 93422380 "/>
<svg:path d="M60809523 93422380 L60809523 92422380 L61047619 92422380 L61190476 92470000 L61285714 92565238 L61333333 92660476 L61380952 92850952 L61380952 92993809 L61333333 93184285 L61285714 93279523 L61190476 93374761 L61047619 93422380 L60809523 93422380 "/>
<svg:path d="M61571428 93517619 L62333333 93517619 "/>
<svg:path d="M62571428 93422380 L62571428 92422380 L62952380 92422380 L63047619 92470000 L63095238 92517619 L63142857 92612857 L63142857 92755714 L63095238 92850952 L63047619 92898571 L62952380 92946190 L62571428 92946190 "/>
<svg:path d="M63571428 93422380 L63571428 92755714 "/>
<svg:path d="M63571428 92422380 L63523809 92470000 L63571428 92517619 L63619047 92470000 L63571428 92422380 L63571428 92517619 "/>
<svg:path d="M64047619 92755714 L64047619 93422380 "/>
<svg:path d="M64047619 92850952 L64095238 92803333 L64190476 92755714 L64333333 92755714 L64428571 92803333 L64476190 92898571 L64476190 93422380 "/>
<svg:path d="M65476190 93422380 L64904761 93422380 "/>
<svg:path d="M65190476 93422380 L65190476 92422380 L65095238 92565238 L65000000 92660476 L64904761 92708095 "/>
<svg:path d="M66380952 93422380 L65904761 93422380 L65904761 92422380 "/>
<svg:path d="M67095238 93374761 L66999999 93422380 L66809523 93422380 L66714285 93374761 L66666666 93279523 L66666666 92898571 L66714285 92803333 L66809523 92755714 L66999999 92755714 L67095238 92803333 L67142857 92898571 L67142857 92993809 L66666666 93089047 "/>
<svg:path d="M67428571 92755714 L67809523 92755714 "/>
<svg:path d="M67571428 93422380 L67571428 92565238 L67619047 92470000 L67714285 92422380 L67809523 92422380 "/>
<svg:path d="M68000000 92755714 L68380952 92755714 "/>
<svg:path d="M68142857 92422380 L68142857 93279523 L68190476 93374761 L68285714 93422380 L68380952 93422380 "/>
</svg:g><svg:g transform="rotate(-90.000000 50000000.000000 50000000.000000)">
<svg:text x="50000000.000000" y="50500000.000000" textLength="47623571.000000" font-size="1333333.000000" lengthAdjust="spacingAndGlyphs" text-anchor="middle" opacity="0">FZKCNPINHEADER254PINHEADER1X33P254VERTICALSMPIN1LEFT</svg:text>
</svg:g>
<svg:g class="stroked-text"><svg:desc>FZKCNPINHEADER254PINHEADER1X33P254VERTICALSMPIN1LEFT</svg:desc>
<svg:path d="M49928571 73142857 L49928571 73476190 "/>
<svg:path d="M50452380 73476190 L49452380 73476190 L49452380 73000000 "/>
<svg:path d="M49452380 72714285 L49452380 72047619 L50452380 72714285 L50452380 72047619 "/>
<svg:path d="M50452380 71666666 L49452380 71666666 "/>
<svg:path d="M50452380 71095238 L49880952 71523809 "/>
<svg:path d="M49452380 71095238 L50023809 71666666 "/>
<svg:path d="M50357142 70095238 L50404761 70142857 L50452380 70285714 L50452380 70380952 L50404761 70523809 L50309523 70619047 L50214285 70666666 L50023809 70714285 L49880952 70714285 L49690476 70666666 L49595238 70619047 L49500000 70523809 L49452380 70380952 L49452380 70285714 L49500000 70142857 L49547619 70095238 "/>
<svg:path d="M50452380 69666666 L49452380 69666666 L50452380 69095238 L49452380 69095238 "/>
<svg:path d="M50452380 68619047 L49452380 68619047 L49452380 68238095 L49500000 68142857 L49547619 68095238 L49642857 68047619 L49785714 68047619 L49880952 68095238 L49928571 68142857 L49976190 68238095 L49976190 68619047 "/>
<svg:path d="M50452380 67619047 L49452380 67619047 "/>
<svg:path d="M50452380 67142857 L49452380 67142857 L50452380 66571428 L49452380 66571428 "/>
<svg:path d="M50452380 66095238 L49452380 66095238 "/>
<svg:path d="M49928571 66095238 L49928571 65523809 "/>
<svg:path d="M50452380 65523809 L49452380 65523809 "/>
<svg:path d="M49928571 65047619 L49928571 64714285 "/>
<svg:path d="M50452380 64571428 L50452380 65047619 L49452380 65047619 L49452380 64571428 "/>
<svg:path d="M50166666 64190476 L50166666 63714285 "/>
<svg:path d="M50452380 64285714 L49452380 63952380 L50452380 63619047 "/>
<svg:path d="M50452380 63285714 L49452380 63285714 L49452380 63047619 L49500000 62904761 L49595238 62809523 L49690476 62761904 L49880952 62714285 L50023809 62714285 L50214285 62761904 L50309523 62809523 L50404761 62904761 L50452380 63047619 L50452380 63285714 "/>
<svg:path d="M49928571 62285714 L49928571 61952380 "/>
<svg:path d="M50452380 61809523 L50452380 62285714 L49452380 62285714 L49452380 61809523 "/>
<svg:path d="M50452380 60809523 L49976190 61142857 "/>
<svg:path d="M50452380 61380952 L49452380 61380952 L49452380 61000000 L49500000 60904761 L49547619 60857142 L49642857 60809523 L49785714 60809523 L49880952 60857142 L49928571 60904761 L49976190 61000000 L49976190 61380952 "/>
<svg:path d="M49547619 60428571 L49500000 60380952 L49452380 60285714 L49452380 60047619 L49500000 59952380 L49547619 59904761 L49642857 59857142 L49738095 59857142 L49880952 59904761 L50452380 60476190 L50452380 59857142 "/>
<svg:path d="M49452380 58952380 L49452380 59428571 L49928571 59476190 L49880952 59428571 L49833333 59333333 L49833333 59095238 L49880952 59000000 L49928571 58952380 L50023809 58904761 L50261904 58904761 L50357142 58952380 L50404761 59000000 L50452380 59095238 L50452380 59333333 L50404761 59428571 L50357142 59476190 "/>
<svg:path d="M49785714 58047619 L50452380 58047619 "/>
<svg:path d="M49404761 58285714 L50119047 58523809 L50119047 57904761 "/>
<svg:path d="M50452380 57523809 L49452380 57523809 L49452380 57142857 L49500000 57047619 L49547619 57000000 L49642857 56952380 L49785714 56952380 L49880952 57000000 L49928571 57047619 L49976190 57142857 L49976190 57523809 "/>
<svg:path d="M50452380 56523809 L49452380 56523809 "/>
<svg:path d="M50452380 56047619 L49452380 56047619 L50452380 55476190 L49452380 55476190 "/>
<svg:path d="M50452380 55000000 L49452380 55000000 "/>
<svg:path d="M49928571 55000000 L49928571 54428571 "/>
<svg:path d="M50452380 54428571 L49452380 54428571 "/>
<svg:path d="M49928571 53952380 L49928571 53619047 "/>
<svg:path d="M50452380 53476190 L50452380 53952380 L49452380 53952380 L49452380 53476190 "/>
<svg:path d="M50166666 53095238 L50166666 52619047 "/>
<svg:path d="M50452380 53190476 L49452380 52857142 L50452380 52523809 "/>
<svg:path d="M50452380 52190476 L49452380 52190476 L49452380 51952380 L49500000 51809523 L49595238 51714285 L49690476 51666666 L49880952 51619047 L50023809 51619047 L50214285 51666666 L50309523 51714285 L50404761 51809523 L50452380 51952380 L50452380 52190476 "/>
<svg:path d="M49928571 51190476 L49928571 50857142 "/>
<svg:path d="M50452380 50714285 L50452380 51190476 L49452380 51190476 L49452380 50714285 "/>
<svg:path d="M50452380 49714285 L49976190 50047619 "/>
<svg:path d="M50452380 50285714 L49452380 50285714 L49452380 49904761 L49500000 49809523 L49547619 49761904 L49642857 49714285 L49785714 49714285 L49880952 49761904 L49928571 49809523 L49976190 49904761 L49976190 50285714 "/>
<svg:path d="M50452380 48761904 L50452380 49333333 "/>
<svg:path d="M50452380 49047619 L49452380 49047619 L49595238 49142857 L49690476 49238095 L49738095 49333333 "/>
<svg:path d="M49452380 48428571 L50452380 47761904 "/>
<svg:path d="M49452380 47761904 L50452380 48428571 "/>
<svg:path d="M49452380 47476190 L49452380 46857142 L49833333 47190476 L49833333 47047619 L49880952 46952380 L49928571 46904761 L50023809 46857142 L50261904 46857142 L50357142 46904761 L50404761 46952380 L50452380 47047619 L50452380 47333333 L50404761 47428571 L50357142 47476190 "/>
<svg:path d="M49452380 46523809 L49452380 45904761 L49833333 46238095 L49833333 46095238 L49880952 46000000 L49928571 45952380 L50023809 45904761 L50261904 45904761 L50357142 45952380 L50404761 46000000 L50452380 46095238 L50452380 46380952 L50404761 46476190 L50357142 46523809 "/>
<svg:path d="M50452380 45476190 L49452380 45476190 L49452380 45095238 L49500000 45000000 L49547619 44952380 L49642857 44904761 L49785714 44904761 L49880952 44952380 L49928571 45000000 L49976190 45095238 L49976190 45476190 "/>
<svg:path d="M49547619 44523809 L49500000 44476190 L49452380 44380952 L49452380 44142857 L49500000 44047619 L49547619 44000000 L49642857 43952380 L49738095 43952380 L49880952 44000000 L50452380 44571428 L50452380 43952380 "/>
<svg:path d="M49452380 43047619 L49452380 43523809 L49928571 43571428 L49880952 43523809 L49833333 43428571 L49833333 43190476 L49880952 43095238 L49928571 43047619 L50023809 43000000 L50261904 43000000 L50357142 43047619 L50404761 43095238 L50452380 43190476 L50452380 43428571 L50404761 43523809 L50357142 43571428 "/>
<svg:path d="M49785714 42142857 L50452380 42142857 "/>
<svg:path d="M49404761 42380952 L50119047 42619047 L50119047 42000000 "/>
<svg:path d="M49452380 41761904 L50452380 41428571 L49452380 41095238 "/>
<svg:path d="M49928571 40761904 L49928571 40428571 "/>
<svg:path d="M50452380 40285714 L50452380 40761904 L49452380 40761904 L49452380 40285714 "/>
<svg:path d="M50452380 39285714 L49976190 39619047 "/>
<svg:path d="M50452380 39857142 L49452380 39857142 L49452380 39476190 L49500000 39380952 L49547619 39333333 L49642857 39285714 L49785714 39285714 L49880952 39333333 L49928571 39380952 L49976190 39476190 L49976190 39857142 "/>
<svg:path d="M49452380 39000000 L49452380 38428571 "/>
<svg:path d="M50452380 38714285 L49452380 38714285 "/>
<svg:path d="M50452380 38095238 L49452380 38095238 "/>
<svg:path d="M50357142 37047619 L50404761 37095238 L50452380 37238095 L50452380 37333333 L50404761 37476190 L50309523 37571428 L50214285 37619047 L50023809 37666666 L49880952 37666666 L49690476 37619047 L49595238 37571428 L49500000 37476190 L49452380 37333333 L49452380 37238095 L49500000 37095238 L49547619 37047619 "/>
<svg:path d="M50166666 36666666 L50166666 36190476 "/>
<svg:path d="M50452380 36761904 L49452380 36428571 L50452380 36095238 "/>
<svg:path d="M50452380 35285714 L50452380 35761904 L49452380 35761904 "/>
<svg:path d="M50404761 35000000 L50452380 34857142 L50452380 34619047 L50404761 34523809 L50357142 34476190 L50261904 34428571 L50166666 34428571 L50071428 34476190 L50023809 34523809 L49976190 34619047 L49928571 34809523 L49880952 34904761 L49833333 34952380 L49738095 35000000 L49642857 35000000 L49547619 34952380 L49500000 34904761 L49452380 34809523 L49452380 34571428 L49500000 34428571 "/>
<svg:path d="M50452380 34000000 L49452380 34000000 L50166666 33666666 L49452380 33333333 L50452380 33333333 "/>
<svg:path d="M50452380 32857142 L49452380 32857142 L49452380 32476190 L49500000 32380952 L49547619 32333333 L49642857 32285714 L49785714 32285714 L49880952 32333333 L49928571 32380952 L49976190 32476190 L49976190 32857142 "/>
<svg:path d="M50452380 31857142 L49452380 31857142 "/>
<svg:path d="M50452380 31380952 L49452380 31380952 L50452380 30809523 L49452380 30809523 "/>
<svg:path d="M50452380 29809523 L50452380 30380952 "/>
<svg:path d="M50452380 30095238 L49452380 30095238 L49595238 30190476 L49690476 30285714 L49738095 30380952 "/>
<svg:path d="M50452380 28904761 L50452380 29380952 L49452380 29380952 "/>
<svg:path d="M49928571 28571428 L49928571 28238095 "/>
<svg:path d="M50452380 28095238 L50452380 28571428 L49452380 28571428 L49452380 28095238 "/>
<svg:path d="M49928571 27333333 L49928571 27666666 "/>
<svg:path d="M50452380 27666666 L49452380 27666666 L49452380 27190476 "/>
<svg:path d="M49452380 26952380 L49452380 26380952 "/>
<svg:path d="M50452380 26666666 L49452380 26666666 "/>
</svg:g></svg:g>
<svg:g style="fill:#AFAFAF; fill-opacity:0.0;  stroke:#AFAFAF; stroke-width:100000.000000; stroke-opacity:1;  stroke-linecap:round; stroke-linejoin:round;">
<svg:path d="M47460000 64920000 L47460000 65560000 "/>
<svg:path d="M47460000 9680000 L48730000 9680000 "/>
<svg:path d="M52540000 21740000 L52540000 22380000 "/>
<svg:path d="M51270000 31900000 L52540000 31900000 "/>
<svg:path d="M52540000 52220000 L52540000 52860000 "/>
<svg:path d="M47460000 50320000 L48730000 50320000 "/>
<svg:path d="M52540000 57300000 L52540000 57940000 "/>
<svg:path d="M48730000 90320000 L47460000 90320000 "/>
<svg:path d="M51270000 42060000 L52540000 42060000 "/>
<svg:path d="M51270000 8090000 L51270000 91910000 "/>
<svg:path d="M52540000 16660000 L52540000 17300000 "/>
<svg:path d="M47460000 75720000 L48730000 75720000 "/>
<svg:path d="M52540000 63020000 L51270000 63020000 "/>
<svg:path d="M52540000 47780000 L51270000 47780000 "/>
<svg:path d="M52540000 77620000 L52540000 78260000 "/>
<svg:path d="M52540000 67460000 L52540000 68100000 "/>
<svg:path d="M52540000 57940000 L51270000 57940000 "/>
<svg:path d="M51270000 87780000 L52540000 87780000 "/>
<svg:path d="M48730000 54760000 L47460000 54760000 "/>
<svg:path d="M52540000 78260000 L51270000 78260000 "/>
<svg:path d="M48730000 9040000 L49680000 8090000 "/>
<svg:path d="M47460000 59840000 L47460000 60480000 "/>
<svg:path d="M47460000 60480000 L48730000 60480000 "/>
<svg:path d="M47460000 34440000 L47460000 35080000 "/>
<svg:path d="M47460000 70640000 L48730000 70640000 "/>
<svg:path d="M52540000 11580000 L52540000 12220000 "/>
<svg:path d="M47460000 35080000 L48730000 35080000 "/>
<svg:path d="M47460000 14760000 L48730000 14760000 "/>
<svg:path d="M47460000 49680000 L47460000 50320000 "/>
<svg:path d="M48730000 19200000 L47460000 19200000 "/>
<svg:path d="M52540000 87780000 L52540000 88420000 "/>
<svg:path d="M52540000 72540000 L52540000 73180000 "/>
<svg:path d="M47460000 24920000 L48730000 24920000 "/>
<svg:path d="M52540000 27460000 L51270000 27460000 "/>
<svg:path d="M51270000 52220000 L52540000 52220000 "/>
<svg:path d="M52540000 52860000 L51270000 52860000 "/>
<svg:path d="M47460000 65560000 L48730000 65560000 "/>
<svg:path d="M47460000 14120000 L47460000 14760000 "/>
<svg:path d="M47460000 9040000 L47460000 9680000 "/>
<svg:path d="M51270000 21740000 L52540000 21740000 "/>
<svg:path d="M48730000 14120000 L47460000 14120000 "/>
<svg:path d="M51270000 91910000 L48730000 91910000 "/>
<svg:path d="M51270000 77620000 L52540000 77620000 "/>
<svg:path d="M47460000 24280000 L47460000 24920000 "/>
<svg:path d="M52540000 88420000 L51270000 88420000 "/>
<svg:path d="M51270000 16660000 L52540000 16660000 "/>
<svg:path d="M48730000 91910000 L48730000 9040000 "/>
<svg:path d="M47460000 39520000 L47460000 40160000 "/>
<svg:path d="M52540000 37620000 L51270000 37620000 "/>
<svg:path d="M47460000 55400000 L48730000 55400000 "/>
<svg:path d="M48730000 59840000 L47460000 59840000 "/>
<svg:path d="M47460000 54760000 L47460000 55400000 "/>
<svg:path d="M52540000 32540000 L51270000 32540000 "/>
<svg:path d="M48730000 75080000 L47460000 75080000 "/>
<svg:path d="M47460000 80800000 L48730000 80800000 "/>
<svg:path d="M52540000 22380000 L51270000 22380000 "/>
<svg:path d="M52540000 83340000 L51270000 83340000 "/>
<svg:path d="M52540000 73180000 L51270000 73180000 "/>
<svg:path d="M52540000 62380000 L52540000 63020000 "/>
<svg:path d="M51270000 26820000 L52540000 26820000 "/>
<svg:path d="M51270000 72540000 L52540000 72540000 "/>
<svg:path d="M48730000 24280000 L47460000 24280000 "/>
<svg:path d="M52540000 17300000 L51270000 17300000 "/>
<svg:path d="M52540000 82700000 L52540000 83340000 "/>
<svg:path d="M51270000 57300000 L52540000 57300000 "/>
<svg:path d="M47460000 85240000 L47460000 85880000 "/>
<svg:path d="M52540000 42060000 L52540000 42700000 "/>
<svg:path d="M48730000 80160000 L47460000 80160000 "/>
<svg:path d="M48730000 39520000 L47460000 39520000 "/>
<svg:path d="M52540000 31900000 L52540000 32540000 "/>
<svg:path d="M51270000 47140000 L52540000 47140000 "/>
<svg:path d="M52540000 12220000 L51270000 12220000 "/>
<svg:path d="M47460000 44600000 L47460000 45240000 "/>
<svg:path d="M47460000 90960000 L48730000 90960000 "/>
<svg:path d="M47460000 30000000 L48730000 30000000 "/>
<svg:path d="M48730000 29360000 L47460000 29360000 "/>
<svg:path d="M52540000 68100000 L51270000 68100000 "/>
<svg:path d="M47460000 90320000 L47460000 90960000 "/>
<svg:path d="M52540000 26820000 L52540000 27460000 "/>
<svg:path d="M51270000 36980000 L52540000 36980000 "/>
<svg:path d="M47460000 19840000 L48730000 19840000 "/>
<svg:path d="M48730000 44600000 L47460000 44600000 "/>
<svg:path d="M51270000 62380000 L52540000 62380000 "/>
<svg:path d="M47460000 29360000 L47460000 30000000 "/>
<svg:path d="M52540000 36980000 L52540000 37620000 "/>
<svg:path d="M47460000 80160000 L47460000 80800000 "/>
<svg:path d="M47460000 70000000 L47460000 70640000 "/>
<svg:path d="M48730000 34440000 L47460000 34440000 "/>
<svg:path d="M47460000 19200000 L47460000 19840000 "/>
<svg:path d="M48730000 9040000 L47460000 9040000 "/>
<svg:path d="M51270000 67460000 L52540000 67460000 "/>
<svg:path d="M48730000 49680000 L47460000 49680000 "/>
<svg:path d="M48730000 70000000 L47460000 70000000 "/>
<svg:path d="M47460000 85880000 L48730000 85880000 "/>
<svg:path d="M52540000 47140000 L52540000 47780000 "/>
<svg:path d="M47460000 45240000 L48730000 45240000 "/>
<svg:path d="M48730000 64920000 L47460000 64920000 "/>
<svg:path d="M48730000 85240000 L47460000 85240000 "/>
<svg:path d="M47460000 40160000 L48730000 40160000 "/>
<svg:path d="M51270000 82700000 L52540000 82700000 "/>
<svg:path d="M51270000 11580000 L52540000 11580000 "/>
<svg:path d="M49680000 8090000 L51270000 8090000 "/>
<svg:path d="M52540000 42700000 L51270000 42700000 "/>
<svg:path d="M47460000 75080000 L47460000 75720000 "/>
<svg:g>
</svg:g>
<svg:g>
</svg:g>
<svg:g>
</svg:g>
<svg:g>
</svg:g>
</svg:g>
<svg:g style="fill:#000000; fill-opacity:0.0;  stroke:#000000; stroke-width:100000.000000; stroke-opacity:1;  stroke-linecap:round; stroke-linejoin:round;">
<svg:g>
</svg:g>
<svg:g>
</svg:g>
<svg:g>
</svg:g>
<svg:g>
</svg:g>
</svg:g> 
</svg:g><svg:g><svg:title>SVG Picture created as kicadBoard-F_Mask.svg date 2022/11/17 10:14:33 </svg:title>
  <svg:desc>Picture generated by PCBNEW </svg:desc>
<svg:g style="fill:#000000; fill-opacity:1.000000;stroke:#000000; stroke-opacity:1.000000; stroke-linecap:round; stroke-linejoin:round;" transform="translate(0 0) scale(1 1)">
</svg:g>
<svg:g style="fill:#000000; fill-opacity:0.0;  stroke:#000000; stroke-width:0.000000; stroke-opacity:1;  stroke-linecap:round; stroke-linejoin:round;">
<svg:g>
</svg:g>
<svg:g style="fill:#000000; fill-opacity:0.0;  stroke:#000000; stroke-width:1.000000; stroke-opacity:1;  stroke-linecap:round; stroke-linejoin:round;">
</svg:g>
<svg:g style="fill:#000000; fill-opacity:1.0;  stroke:#000000; stroke-width:1.000000; stroke-opacity:1;  stroke-linecap:round; stroke-linejoin:round;">
<svg:path style="fill:#000000; fill-opacity:1.0;  stroke:#000000; stroke-width:1.000000; stroke-opacity:1;  stroke-linecap:round; stroke-linejoin:round;fill-rule:evenodd;" d="M 47090000.000000,9860000.000000 47090000.000000,8860000.000000 49600000.000000,8860000.000000 49600000.000000,9860000.000000 Z"/> 
<svg:path style="fill:#000000; fill-opacity:1.0;  stroke:#000000; stroke-width:1.000000; stroke-opacity:1;  stroke-linecap:round; stroke-linejoin:round;fill-rule:evenodd;" d="M 50400000.000000,12400000.000000 50400000.000000,11400000.000000 52910000.000000,11400000.000000 52910000.000000,12400000.000000 Z"/> 
<svg:path style="fill:#000000; fill-opacity:1.0;  stroke:#000000; stroke-width:1.000000; stroke-opacity:1;  stroke-linecap:round; stroke-linejoin:round;fill-rule:evenodd;" d="M 47090000.000000,14940000.000000 47090000.000000,13940000.000000 49600000.000000,13940000.000000 49600000.000000,14940000.000000 Z"/> 
<svg:path style="fill:#000000; fill-opacity:1.0;  stroke:#000000; stroke-width:1.000000; stroke-opacity:1;  stroke-linecap:round; stroke-linejoin:round;fill-rule:evenodd;" d="M 50400000.000000,17480000.000000 50400000.000000,16480000.000000 52910000.000000,16480000.000000 52910000.000000,17480000.000000 Z"/> 
<svg:path style="fill:#000000; fill-opacity:1.0;  stroke:#000000; stroke-width:1.000000; stroke-opacity:1;  stroke-linecap:round; stroke-linejoin:round;fill-rule:evenodd;" d="M 47090000.000000,20020000.000000 47090000.000000,19020000.000000 49600000.000000,19020000.000000 49600000.000000,20020000.000000 Z"/> 
<svg:path style="fill:#000000; fill-opacity:1.0;  stroke:#000000; stroke-width:1.000000; stroke-opacity:1;  stroke-linecap:round; stroke-linejoin:round;fill-rule:evenodd;" d="M 50400000.000000,22560000.000000 50400000.000000,21560000.000000 52910000.000000,21560000.000000 52910000.000000,22560000.000000 Z"/> 
<svg:path style="fill:#000000; fill-opacity:1.0;  stroke:#000000; stroke-width:1.000000; stroke-opacity:1;  stroke-linecap:round; stroke-linejoin:round;fill-rule:evenodd;" d="M 47090000.000000,25100000.000000 47090000.000000,24100000.000000 49600000.000000,24100000.000000 49600000.000000,25100000.000000 Z"/> 
<svg:path style="fill:#000000; fill-opacity:1.0;  stroke:#000000; stroke-width:1.000000; stroke-opacity:1;  stroke-linecap:round; stroke-linejoin:round;fill-rule:evenodd;" d="M 50400000.000000,27640000.000000 50400000.000000,26640000.000000 52910000.000000,26640000.000000 52910000.000000,27640000.000000 Z"/> 
<svg:path style="fill:#000000; fill-opacity:1.0;  stroke:#000000; stroke-width:1.000000; stroke-opacity:1;  stroke-linecap:round; stroke-linejoin:round;fill-rule:evenodd;" d="M 47090000.000000,30180000.000000 47090000.000000,29180000.000000 49600000.000000,29180000.000000 49600000.000000,30180000.000000 Z"/> 
<svg:path style="fill:#000000; fill-opacity:1.0;  stroke:#000000; stroke-width:1.000000; stroke-opacity:1;  stroke-linecap:round; stroke-linejoin:round;fill-rule:evenodd;" d="M 50400000.000000,32720000.000000 50400000.000000,31720000.000000 52910000.000000,31720000.000000 52910000.000000,32720000.000000 Z"/> 
<svg:path style="fill:#000000; fill-opacity:1.0;  stroke:#000000; stroke-width:1.000000; stroke-opacity:1;  stroke-linecap:round; stroke-linejoin:round;fill-rule:evenodd;" d="M 47090000.000000,35260000.000000 47090000.000000,34260000.000000 49600000.000000,34260000.000000 49600000.000000,35260000.000000 Z"/> 
<svg:path style="fill:#000000; fill-opacity:1.0;  stroke:#000000; stroke-width:1.000000; stroke-opacity:1;  stroke-linecap:round; stroke-linejoin:round;fill-rule:evenodd;" d="M 50400000.000000,37800000.000000 50400000.000000,36800000.000000 52910000.000000,36800000.000000 52910000.000000,37800000.000000 Z"/> 
<svg:path style="fill:#000000; fill-opacity:1.0;  stroke:#000000; stroke-width:1.000000; stroke-opacity:1;  stroke-linecap:round; stroke-linejoin:round;fill-rule:evenodd;" d="M 47090000.000000,40340000.000000 47090000.000000,39340000.000000 49600000.000000,39340000.000000 49600000.000000,40340000.000000 Z"/> 
<svg:path style="fill:#000000; fill-opacity:1.0;  stroke:#000000; stroke-width:1.000000; stroke-opacity:1;  stroke-linecap:round; stroke-linejoin:round;fill-rule:evenodd;" d="M 50400000.000000,42880000.000000 50400000.000000,41880000.000000 52910000.000000,41880000.000000 52910000.000000,42880000.000000 Z"/> 
<svg:path style="fill:#000000; fill-opacity:1.0;  stroke:#000000; stroke-width:1.000000; stroke-opacity:1;  stroke-linecap:round; stroke-linejoin:round;fill-rule:evenodd;" d="M 47090000.000000,45420000.000000 47090000.000000,44420000.000000 49600000.000000,44420000.000000 49600000.000000,45420000.000000 Z"/> 
<svg:path style="fill:#000000; fill-opacity:1.0;  stroke:#000000; stroke-width:1.000000; stroke-opacity:1;  stroke-linecap:round; stroke-linejoin:round;fill-rule:evenodd;" d="M 50400000.000000,47960000.000000 50400000.000000,46960000.000000 52910000.000000,46960000.000000 52910000.000000,47960000.000000 Z"/> 
<svg:path style="fill:#000000; fill-opacity:1.0;  stroke:#000000; stroke-width:1.000000; stroke-opacity:1;  stroke-linecap:round; stroke-linejoin:round;fill-rule:evenodd;" d="M 47090000.000000,50500000.000000 47090000.000000,49500000.000000 49600000.000000,49500000.000000 49600000.000000,50500000.000000 Z"/> 
<svg:path style="fill:#000000; fill-opacity:1.0;  stroke:#000000; stroke-width:1.000000; stroke-opacity:1;  stroke-linecap:round; stroke-linejoin:round;fill-rule:evenodd;" d="M 50400000.000000,53040000.000000 50400000.000000,52040000.000000 52910000.000000,52040000.000000 52910000.000000,53040000.000000 Z"/> 
<svg:path style="fill:#000000; fill-opacity:1.0;  stroke:#000000; stroke-width:1.000000; stroke-opacity:1;  stroke-linecap:round; stroke-linejoin:round;fill-rule:evenodd;" d="M 47090000.000000,55580000.000000 47090000.000000,54580000.000000 49600000.000000,54580000.000000 49600000.000000,55580000.000000 Z"/> 
<svg:path style="fill:#000000; fill-opacity:1.0;  stroke:#000000; stroke-width:1.000000; stroke-opacity:1;  stroke-linecap:round; stroke-linejoin:round;fill-rule:evenodd;" d="M 50400000.000000,58120000.000000 50400000.000000,57120000.000000 52910000.000000,57120000.000000 52910000.000000,58120000.000000 Z"/> 
<svg:path style="fill:#000000; fill-opacity:1.0;  stroke:#000000; stroke-width:1.000000; stroke-opacity:1;  stroke-linecap:round; stroke-linejoin:round;fill-rule:evenodd;" d="M 47090000.000000,60660000.000000 47090000.000000,59660000.000000 49600000.000000,59660000.000000 49600000.000000,60660000.000000 Z"/> 
<svg:path style="fill:#000000; fill-opacity:1.0;  stroke:#000000; stroke-width:1.000000; stroke-opacity:1;  stroke-linecap:round; stroke-linejoin:round;fill-rule:evenodd;" d="M 50400000.000000,63200000.000000 50400000.000000,62200000.000000 52910000.000000,62200000.000000 52910000.000000,63200000.000000 Z"/> 
<svg:path style="fill:#000000; fill-opacity:1.0;  stroke:#000000; stroke-width:1.000000; stroke-opacity:1;  stroke-linecap:round; stroke-linejoin:round;fill-rule:evenodd;" d="M 47090000.000000,65740000.000000 47090000.000000,64740000.000000 49600000.000000,64740000.000000 49600000.000000,65740000.000000 Z"/> 
<svg:path style="fill:#000000; fill-opacity:1.0;  stroke:#000000; stroke-width:1.000000; stroke-opacity:1;  stroke-linecap:round; stroke-linejoin:round;fill-rule:evenodd;" d="M 50400000.000000,68280000.000000 50400000.000000,67280000.000000 52910000.000000,67280000.000000 52910000.000000,68280000.000000 Z"/> 
<svg:path style="fill:#000000; fill-opacity:1.0;  stroke:#000000; stroke-width:1.000000; stroke-opacity:1;  stroke-linecap:round; stroke-linejoin:round;fill-rule:evenodd;" d="M 47090000.000000,70820000.000000 47090000.000000,69820000.000000 49600000.000000,69820000.000000 49600000.000000,70820000.000000 Z"/> 
<svg:path style="fill:#000000; fill-opacity:1.0;  stroke:#000000; stroke-width:1.000000; stroke-opacity:1;  stroke-linecap:round; stroke-linejoin:round;fill-rule:evenodd;" d="M 50400000.000000,73360000.000000 50400000.000000,72360000.000000 52910000.000000,72360000.000000 52910000.000000,73360000.000000 Z"/> 
<svg:path style="fill:#000000; fill-opacity:1.0;  stroke:#000000; stroke-width:1.000000; stroke-opacity:1;  stroke-linecap:round; stroke-linejoin:round;fill-rule:evenodd;" d="M 47090000.000000,75900000.000000 47090000.000000,74900000.000000 49600000.000000,74900000.000000 49600000.000000,75900000.000000 Z"/> 
<svg:path style="fill:#000000; fill-opacity:1.0;  stroke:#000000; stroke-width:1.000000; stroke-opacity:1;  stroke-linecap:round; stroke-linejoin:round;fill-rule:evenodd;" d="M 50400000.000000,78440000.000000 50400000.000000,77440000.000000 52910000.000000,77440000.000000 52910000.000000,78440000.000000 Z"/> 
<svg:path style="fill:#000000; fill-opacity:1.0;  stroke:#000000; stroke-width:1.000000; stroke-opacity:1;  stroke-linecap:round; stroke-linejoin:round;fill-rule:evenodd;" d="M 47090000.000000,80980000.000000 47090000.000000,79980000.000000 49600000.000000,79980000.000000 49600000.000000,80980000.000000 Z"/> 
<svg:path style="fill:#000000; fill-opacity:1.0;  stroke:#000000; stroke-width:1.000000; stroke-opacity:1;  stroke-linecap:round; stroke-linejoin:round;fill-rule:evenodd;" d="M 50400000.000000,83520000.000000 50400000.000000,82520000.000000 52910000.000000,82520000.000000 52910000.000000,83520000.000000 Z"/> 
<svg:path style="fill:#000000; fill-opacity:1.0;  stroke:#000000; stroke-width:1.000000; stroke-opacity:1;  stroke-linecap:round; stroke-linejoin:round;fill-rule:evenodd;" d="M 47090000.000000,86060000.000000 47090000.000000,85060000.000000 49600000.000000,85060000.000000 49600000.000000,86060000.000000 Z"/> 
<svg:path style="fill:#000000; fill-opacity:1.0;  stroke:#000000; stroke-width:1.000000; stroke-opacity:1;  stroke-linecap:round; stroke-linejoin:round;fill-rule:evenodd;" d="M 50400000.000000,88600000.000000 50400000.000000,87600000.000000 52910000.000000,87600000.000000 52910000.000000,88600000.000000 Z"/> 
<svg:path style="fill:#000000; fill-opacity:1.0;  stroke:#000000; stroke-width:1.000000; stroke-opacity:1;  stroke-linecap:round; stroke-linejoin:round;fill-rule:evenodd;" d="M 47090000.000000,91140000.000000 47090000.000000,90140000.000000 49600000.000000,90140000.000000 49600000.000000,91140000.000000 Z"/> 
</svg:g>
<svg:g>
</svg:g>
<svg:g>
</svg:g>
<svg:g>
</svg:g>
</svg:g>
<svg:g style="fill:#000000; fill-opacity:1.0;  stroke:#000000; stroke-width:1.000000; stroke-opacity:1;  stroke-linecap:round; stroke-linejoin:round;">
<svg:g>
</svg:g>
<svg:g>
</svg:g>
<svg:g>
</svg:g>
<svg:g>
</svg:g>
</svg:g> 
</svg:g><svg:g><svg:title>SVG Picture created as kicadBoard-F_Paste.svg date 2022/11/17 10:14:33 </svg:title>
  <svg:desc>Picture generated by PCBNEW </svg:desc>
<svg:g style="fill:#000000; fill-opacity:1.000000;stroke:#000000; stroke-opacity:1.000000; stroke-linecap:round; stroke-linejoin:round;" transform="translate(0 0) scale(1 1)">
</svg:g>
<svg:g style="fill:#000000; fill-opacity:0.0;  stroke:#000000; stroke-width:0.000000; stroke-opacity:1;  stroke-linecap:round; stroke-linejoin:round;">
<svg:g>
</svg:g>
<svg:g style="fill:#000000; fill-opacity:0.0;  stroke:#000000; stroke-width:1.000000; stroke-opacity:1;  stroke-linecap:round; stroke-linejoin:round;">
</svg:g>
<svg:g style="fill:#000000; fill-opacity:1.0;  stroke:#000000; stroke-width:1.000000; stroke-opacity:1;  stroke-linecap:round; stroke-linejoin:round;">
<svg:path style="fill:#000000; fill-opacity:1.0;  stroke:#000000; stroke-width:1.000000; stroke-opacity:1;  stroke-linecap:round; stroke-linejoin:round;fill-rule:evenodd;" d="M 47090000.000000,9860000.000000 47090000.000000,8860000.000000 49600000.000000,8860000.000000 49600000.000000,9860000.000000 Z"/> 
<svg:path style="fill:#000000; fill-opacity:1.0;  stroke:#000000; stroke-width:1.000000; stroke-opacity:1;  stroke-linecap:round; stroke-linejoin:round;fill-rule:evenodd;" d="M 50400000.000000,12400000.000000 50400000.000000,11400000.000000 52910000.000000,11400000.000000 52910000.000000,12400000.000000 Z"/> 
<svg:path style="fill:#000000; fill-opacity:1.0;  stroke:#000000; stroke-width:1.000000; stroke-opacity:1;  stroke-linecap:round; stroke-linejoin:round;fill-rule:evenodd;" d="M 47090000.000000,14940000.000000 47090000.000000,13940000.000000 49600000.000000,13940000.000000 49600000.000000,14940000.000000 Z"/> 
<svg:path style="fill:#000000; fill-opacity:1.0;  stroke:#000000; stroke-width:1.000000; stroke-opacity:1;  stroke-linecap:round; stroke-linejoin:round;fill-rule:evenodd;" d="M 50400000.000000,17480000.000000 50400000.000000,16480000.000000 52910000.000000,16480000.000000 52910000.000000,17480000.000000 Z"/> 
<svg:path style="fill:#000000; fill-opacity:1.0;  stroke:#000000; stroke-width:1.000000; stroke-opacity:1;  stroke-linecap:round; stroke-linejoin:round;fill-rule:evenodd;" d="M 47090000.000000,20020000.000000 47090000.000000,19020000.000000 49600000.000000,19020000.000000 49600000.000000,20020000.000000 Z"/> 
<svg:path style="fill:#000000; fill-opacity:1.0;  stroke:#000000; stroke-width:1.000000; stroke-opacity:1;  stroke-linecap:round; stroke-linejoin:round;fill-rule:evenodd;" d="M 50400000.000000,22560000.000000 50400000.000000,21560000.000000 52910000.000000,21560000.000000 52910000.000000,22560000.000000 Z"/> 
<svg:path style="fill:#000000; fill-opacity:1.0;  stroke:#000000; stroke-width:1.000000; stroke-opacity:1;  stroke-linecap:round; stroke-linejoin:round;fill-rule:evenodd;" d="M 47090000.000000,25100000.000000 47090000.000000,24100000.000000 49600000.000000,24100000.000000 49600000.000000,25100000.000000 Z"/> 
<svg:path style="fill:#000000; fill-opacity:1.0;  stroke:#000000; stroke-width:1.000000; stroke-opacity:1;  stroke-linecap:round; stroke-linejoin:round;fill-rule:evenodd;" d="M 50400000.000000,27640000.000000 50400000.000000,26640000.000000 52910000.000000,26640000.000000 52910000.000000,27640000.000000 Z"/> 
<svg:path style="fill:#000000; fill-opacity:1.0;  stroke:#000000; stroke-width:1.000000; stroke-opacity:1;  stroke-linecap:round; stroke-linejoin:round;fill-rule:evenodd;" d="M 47090000.000000,30180000.000000 47090000.000000,29180000.000000 49600000.000000,29180000.000000 49600000.000000,30180000.000000 Z"/> 
<svg:path style="fill:#000000; fill-opacity:1.0;  stroke:#000000; stroke-width:1.000000; stroke-opacity:1;  stroke-linecap:round; stroke-linejoin:round;fill-rule:evenodd;" d="M 50400000.000000,32720000.000000 50400000.000000,31720000.000000 52910000.000000,31720000.000000 52910000.000000,32720000.000000 Z"/> 
<svg:path style="fill:#000000; fill-opacity:1.0;  stroke:#000000; stroke-width:1.000000; stroke-opacity:1;  stroke-linecap:round; stroke-linejoin:round;fill-rule:evenodd;" d="M 47090000.000000,35260000.000000 47090000.000000,34260000.000000 49600000.000000,34260000.000000 49600000.000000,35260000.000000 Z"/> 
<svg:path style="fill:#000000; fill-opacity:1.0;  stroke:#000000; stroke-width:1.000000; stroke-opacity:1;  stroke-linecap:round; stroke-linejoin:round;fill-rule:evenodd;" d="M 50400000.000000,37800000.000000 50400000.000000,36800000.000000 52910000.000000,36800000.000000 52910000.000000,37800000.000000 Z"/> 
<svg:path style="fill:#000000; fill-opacity:1.0;  stroke:#000000; stroke-width:1.000000; stroke-opacity:1;  stroke-linecap:round; stroke-linejoin:round;fill-rule:evenodd;" d="M 47090000.000000,40340000.000000 47090000.000000,39340000.000000 49600000.000000,39340000.000000 49600000.000000,40340000.000000 Z"/> 
<svg:path style="fill:#000000; fill-opacity:1.0;  stroke:#000000; stroke-width:1.000000; stroke-opacity:1;  stroke-linecap:round; stroke-linejoin:round;fill-rule:evenodd;" d="M 50400000.000000,42880000.000000 50400000.000000,41880000.000000 52910000.000000,41880000.000000 52910000.000000,42880000.000000 Z"/> 
<svg:path style="fill:#000000; fill-opacity:1.0;  stroke:#000000; stroke-width:1.000000; stroke-opacity:1;  stroke-linecap:round; stroke-linejoin:round;fill-rule:evenodd;" d="M 47090000.000000,45420000.000000 47090000.000000,44420000.000000 49600000.000000,44420000.000000 49600000.000000,45420000.000000 Z"/> 
<svg:path style="fill:#000000; fill-opacity:1.0;  stroke:#000000; stroke-width:1.000000; stroke-opacity:1;  stroke-linecap:round; stroke-linejoin:round;fill-rule:evenodd;" d="M 50400000.000000,47960000.000000 50400000.000000,46960000.000000 52910000.000000,46960000.000000 52910000.000000,47960000.000000 Z"/> 
<svg:path style="fill:#000000; fill-opacity:1.0;  stroke:#000000; stroke-width:1.000000; stroke-opacity:1;  stroke-linecap:round; stroke-linejoin:round;fill-rule:evenodd;" d="M 47090000.000000,50500000.000000 47090000.000000,49500000.000000 49600000.000000,49500000.000000 49600000.000000,50500000.000000 Z"/> 
<svg:path style="fill:#000000; fill-opacity:1.0;  stroke:#000000; stroke-width:1.000000; stroke-opacity:1;  stroke-linecap:round; stroke-linejoin:round;fill-rule:evenodd;" d="M 50400000.000000,53040000.000000 50400000.000000,52040000.000000 52910000.000000,52040000.000000 52910000.000000,53040000.000000 Z"/> 
<svg:path style="fill:#000000; fill-opacity:1.0;  stroke:#000000; stroke-width:1.000000; stroke-opacity:1;  stroke-linecap:round; stroke-linejoin:round;fill-rule:evenodd;" d="M 47090000.000000,55580000.000000 47090000.000000,54580000.000000 49600000.000000,54580000.000000 49600000.000000,55580000.000000 Z"/> 
<svg:path style="fill:#000000; fill-opacity:1.0;  stroke:#000000; stroke-width:1.000000; stroke-opacity:1;  stroke-linecap:round; stroke-linejoin:round;fill-rule:evenodd;" d="M 50400000.000000,58120000.000000 50400000.000000,57120000.000000 52910000.000000,57120000.000000 52910000.000000,58120000.000000 Z"/> 
<svg:path style="fill:#000000; fill-opacity:1.0;  stroke:#000000; stroke-width:1.000000; stroke-opacity:1;  stroke-linecap:round; stroke-linejoin:round;fill-rule:evenodd;" d="M 47090000.000000,60660000.000000 47090000.000000,59660000.000000 49600000.000000,59660000.000000 49600000.000000,60660000.000000 Z"/> 
<svg:path style="fill:#000000; fill-opacity:1.0;  stroke:#000000; stroke-width:1.000000; stroke-opacity:1;  stroke-linecap:round; stroke-linejoin:round;fill-rule:evenodd;" d="M 50400000.000000,63200000.000000 50400000.000000,62200000.000000 52910000.000000,62200000.000000 52910000.000000,63200000.000000 Z"/> 
<svg:path style="fill:#000000; fill-opacity:1.0;  stroke:#000000; stroke-width:1.000000; stroke-opacity:1;  stroke-linecap:round; stroke-linejoin:round;fill-rule:evenodd;" d="M 47090000.000000,65740000.000000 47090000.000000,64740000.000000 49600000.000000,64740000.000000 49600000.000000,65740000.000000 Z"/> 
<svg:path style="fill:#000000; fill-opacity:1.0;  stroke:#000000; stroke-width:1.000000; stroke-opacity:1;  stroke-linecap:round; stroke-linejoin:round;fill-rule:evenodd;" d="M 50400000.000000,68280000.000000 50400000.000000,67280000.000000 52910000.000000,67280000.000000 52910000.000000,68280000.000000 Z"/> 
<svg:path style="fill:#000000; fill-opacity:1.0;  stroke:#000000; stroke-width:1.000000; stroke-opacity:1;  stroke-linecap:round; stroke-linejoin:round;fill-rule:evenodd;" d="M 47090000.000000,70820000.000000 47090000.000000,69820000.000000 49600000.000000,69820000.000000 49600000.000000,70820000.000000 Z"/> 
<svg:path style="fill:#000000; fill-opacity:1.0;  stroke:#000000; stroke-width:1.000000; stroke-opacity:1;  stroke-linecap:round; stroke-linejoin:round;fill-rule:evenodd;" d="M 50400000.000000,73360000.000000 50400000.000000,72360000.000000 52910000.000000,72360000.000000 52910000.000000,73360000.000000 Z"/> 
<svg:path style="fill:#000000; fill-opacity:1.0;  stroke:#000000; stroke-width:1.000000; stroke-opacity:1;  stroke-linecap:round; stroke-linejoin:round;fill-rule:evenodd;" d="M 47090000.000000,75900000.000000 47090000.000000,74900000.000000 49600000.000000,74900000.000000 49600000.000000,75900000.000000 Z"/> 
<svg:path style="fill:#000000; fill-opacity:1.0;  stroke:#000000; stroke-width:1.000000; stroke-opacity:1;  stroke-linecap:round; stroke-linejoin:round;fill-rule:evenodd;" d="M 50400000.000000,78440000.000000 50400000.000000,77440000.000000 52910000.000000,77440000.000000 52910000.000000,78440000.000000 Z"/> 
<svg:path style="fill:#000000; fill-opacity:1.0;  stroke:#000000; stroke-width:1.000000; stroke-opacity:1;  stroke-linecap:round; stroke-linejoin:round;fill-rule:evenodd;" d="M 47090000.000000,80980000.000000 47090000.000000,79980000.000000 49600000.000000,79980000.000000 49600000.000000,80980000.000000 Z"/> 
<svg:path style="fill:#000000; fill-opacity:1.0;  stroke:#000000; stroke-width:1.000000; stroke-opacity:1;  stroke-linecap:round; stroke-linejoin:round;fill-rule:evenodd;" d="M 50400000.000000,83520000.000000 50400000.000000,82520000.000000 52910000.000000,82520000.000000 52910000.000000,83520000.000000 Z"/> 
<svg:path style="fill:#000000; fill-opacity:1.0;  stroke:#000000; stroke-width:1.000000; stroke-opacity:1;  stroke-linecap:round; stroke-linejoin:round;fill-rule:evenodd;" d="M 47090000.000000,86060000.000000 47090000.000000,85060000.000000 49600000.000000,85060000.000000 49600000.000000,86060000.000000 Z"/> 
<svg:path style="fill:#000000; fill-opacity:1.0;  stroke:#000000; stroke-width:1.000000; stroke-opacity:1;  stroke-linecap:round; stroke-linejoin:round;fill-rule:evenodd;" d="M 50400000.000000,88600000.000000 50400000.000000,87600000.000000 52910000.000000,87600000.000000 52910000.000000,88600000.000000 Z"/> 
<svg:path style="fill:#000000; fill-opacity:1.0;  stroke:#000000; stroke-width:1.000000; stroke-opacity:1;  stroke-linecap:round; stroke-linejoin:round;fill-rule:evenodd;" d="M 47090000.000000,91140000.000000 47090000.000000,90140000.000000 49600000.000000,90140000.000000 49600000.000000,91140000.000000 Z"/> 
</svg:g>
<svg:g>
</svg:g>
<svg:g>
</svg:g>
<svg:g>
</svg:g>
</svg:g>
<svg:g style="fill:#000000; fill-opacity:1.0;  stroke:#000000; stroke-width:1.000000; stroke-opacity:1;  stroke-linecap:round; stroke-linejoin:round;">
<svg:g>
</svg:g>
<svg:g>
</svg:g>
<svg:g>
</svg:g>
<svg:g>
</svg:g>
</svg:g> 
</svg:g><svg:g><svg:title>SVG Picture created as kicadBoard-F_Silkscreen.svg date 2022/11/17 10:14:33 </svg:title>
  <svg:desc>Picture generated by PCBNEW </svg:desc>
<svg:g style="fill:#000000; fill-opacity:1.000000;stroke:#000000; stroke-opacity:1.000000; stroke-linecap:round; stroke-linejoin:round;" transform="translate(0 0) scale(1 1)">
</svg:g>
<svg:g style="fill:#000000; fill-opacity:0.0;  stroke:#000000; stroke-width:0.000000; stroke-opacity:1;  stroke-linecap:round; stroke-linejoin:round;">
</svg:g>
<svg:g style="fill:#F2EDA1; fill-opacity:0.0;  stroke:#F2EDA1; stroke-width:0.000000; stroke-opacity:1;  stroke-linecap:round; stroke-linejoin:round;">
</svg:g>
<svg:g style="fill:#F2EDA1; fill-opacity:0.0;  stroke:#F2EDA1; stroke-width:150000.000000; stroke-opacity:1;  stroke-linecap:round; stroke-linejoin:round;">
<svg:text x="50000000.000000" y="7530000.000000" textLength="47428572.000000" font-size="1333333.000000" lengthAdjust="spacingAndGlyphs" text-anchor="middle" opacity="0">FZKCNPINHEADER254PINHEADER1X33P254VERTICALSMPIN1LEFT</svg:text>
<svg:g class="stroked-text"><svg:desc>FZKCNPINHEADER254PINHEADER1X33P254VERTICALSMPIN1LEFT</svg:desc>
<svg:path d="M26857142 6958571 L26523809 6958571 "/>
<svg:path d="M26523809 7482380 L26523809 6482380 L27000000 6482380 "/>
<svg:path d="M27285714 6482380 L27952380 6482380 L27285714 7482380 L27952380 7482380 "/>
<svg:path d="M28333333 7482380 L28333333 6482380 "/>
<svg:path d="M28904761 7482380 L28476190 6910952 "/>
<svg:path d="M28904761 6482380 L28333333 7053809 "/>
<svg:path d="M29904761 7387142 L29857142 7434761 L29714285 7482380 L29619047 7482380 L29476190 7434761 L29380952 7339523 L29333333 7244285 L29285714 7053809 L29285714 6910952 L29333333 6720476 L29380952 6625238 L29476190 6530000 L29619047 6482380 L29714285 6482380 L29857142 6530000 L29904761 6577619 "/>
<svg:path d="M30333333 7482380 L30333333 6482380 L30904761 7482380 L30904761 6482380 "/>
<svg:path d="M31380952 7482380 L31380952 6482380 L31761904 6482380 L31857142 6530000 L31904761 6577619 L31952380 6672857 L31952380 6815714 L31904761 6910952 L31857142 6958571 L31761904 7006190 L31380952 7006190 "/>
<svg:path d="M32380952 7482380 L32380952 6482380 "/>
<svg:path d="M32857142 7482380 L32857142 6482380 L33428571 7482380 L33428571 6482380 "/>
<svg:path d="M33904761 7482380 L33904761 6482380 "/>
<svg:path d="M33904761 6958571 L34476190 6958571 "/>
<svg:path d="M34476190 7482380 L34476190 6482380 "/>
<svg:path d="M34952380 6958571 L35285714 6958571 "/>
<svg:path d="M35428571 7482380 L34952380 7482380 L34952380 6482380 L35428571 6482380 "/>
<svg:path d="M35809523 7196666 L36285714 7196666 "/>
<svg:path d="M35714285 7482380 L36047619 6482380 L36380952 7482380 "/>
<svg:path d="M36714285 7482380 L36714285 6482380 L36952380 6482380 L37095238 6530000 L37190476 6625238 L37238095 6720476 L37285714 6910952 L37285714 7053809 L37238095 7244285 L37190476 7339523 L37095238 7434761 L36952380 7482380 L36714285 7482380 "/>
<svg:path d="M37714285 6958571 L38047619 6958571 "/>
<svg:path d="M38190476 7482380 L37714285 7482380 L37714285 6482380 L38190476 6482380 "/>
<svg:path d="M39190476 7482380 L38857142 7006190 "/>
<svg:path d="M38619047 7482380 L38619047 6482380 L39000000 6482380 L39095238 6530000 L39142857 6577619 L39190476 6672857 L39190476 6815714 L39142857 6910952 L39095238 6958571 L39000000 7006190 L38619047 7006190 "/>
<svg:path d="M39571428 6577619 L39619047 6530000 L39714285 6482380 L39952380 6482380 L40047619 6530000 L40095238 6577619 L40142857 6672857 L40142857 6768095 L40095238 6910952 L39523809 7482380 L40142857 7482380 "/>
<svg:path d="M41047619 6482380 L40571428 6482380 L40523809 6958571 L40571428 6910952 L40666666 6863333 L40904761 6863333 L41000000 6910952 L41047619 6958571 L41095238 7053809 L41095238 7291904 L41047619 7387142 L41000000 7434761 L40904761 7482380 L40666666 7482380 L40571428 7434761 L40523809 7387142 "/>
<svg:path d="M41952380 6815714 L41952380 7482380 "/>
<svg:path d="M41714285 6434761 L41476190 7149047 L42095238 7149047 "/>
<svg:path d="M42476190 7482380 L42476190 6482380 L42857142 6482380 L42952380 6530000 L43000000 6577619 L43047619 6672857 L43047619 6815714 L43000000 6910952 L42952380 6958571 L42857142 7006190 L42476190 7006190 "/>
<svg:path d="M43476190 7482380 L43476190 6482380 "/>
<svg:path d="M43952380 7482380 L43952380 6482380 L44523809 7482380 L44523809 6482380 "/>
<svg:path d="M45000000 7482380 L45000000 6482380 "/>
<svg:path d="M45000000 6958571 L45571428 6958571 "/>
<svg:path d="M45571428 7482380 L45571428 6482380 "/>
<svg:path d="M46047619 6958571 L46380952 6958571 "/>
<svg:path d="M46523809 7482380 L46047619 7482380 L46047619 6482380 L46523809 6482380 "/>
<svg:path d="M46904761 7196666 L47380952 7196666 "/>
<svg:path d="M46809523 7482380 L47142857 6482380 L47476190 7482380 "/>
<svg:path d="M47809523 7482380 L47809523 6482380 L48047619 6482380 L48190476 6530000 L48285714 6625238 L48333333 6720476 L48380952 6910952 L48380952 7053809 L48333333 7244285 L48285714 7339523 L48190476 7434761 L48047619 7482380 L47809523 7482380 "/>
<svg:path d="M48809523 6958571 L49142857 6958571 "/>
<svg:path d="M49285714 7482380 L48809523 7482380 L48809523 6482380 L49285714 6482380 "/>
<svg:path d="M50285714 7482380 L49952380 7006190 "/>
<svg:path d="M49714285 7482380 L49714285 6482380 L50095238 6482380 L50190476 6530000 L50238095 6577619 L50285714 6672857 L50285714 6815714 L50238095 6910952 L50190476 6958571 L50095238 7006190 L49714285 7006190 "/>
<svg:path d="M51238095 7482380 L50666666 7482380 "/>
<svg:path d="M50952380 7482380 L50952380 6482380 L50857142 6625238 L50761904 6720476 L50666666 6768095 "/>
<svg:path d="M51571428 6482380 L52238095 7482380 "/>
<svg:path d="M52238095 6482380 L51571428 7482380 "/>
<svg:path d="M52523809 6482380 L53142857 6482380 L52809523 6863333 L52952380 6863333 L53047619 6910952 L53095238 6958571 L53142857 7053809 L53142857 7291904 L53095238 7387142 L53047619 7434761 L52952380 7482380 L52666666 7482380 L52571428 7434761 L52523809 7387142 "/>
<svg:path d="M53476190 6482380 L54095238 6482380 L53761904 6863333 L53904761 6863333 L54000000 6910952 L54047619 6958571 L54095238 7053809 L54095238 7291904 L54047619 7387142 L54000000 7434761 L53904761 7482380 L53619047 7482380 L53523809 7434761 L53476190 7387142 "/>
<svg:path d="M54523809 7482380 L54523809 6482380 L54904761 6482380 L55000000 6530000 L55047619 6577619 L55095238 6672857 L55095238 6815714 L55047619 6910952 L55000000 6958571 L54904761 7006190 L54523809 7006190 "/>
<svg:path d="M55476190 6577619 L55523809 6530000 L55619047 6482380 L55857142 6482380 L55952380 6530000 L56000000 6577619 L56047619 6672857 L56047619 6768095 L56000000 6910952 L55428571 7482380 L56047619 7482380 "/>
<svg:path d="M56952380 6482380 L56476190 6482380 L56428571 6958571 L56476190 6910952 L56571428 6863333 L56809523 6863333 L56904761 6910952 L56952380 6958571 L57000000 7053809 L57000000 7291904 L56952380 7387142 L56904761 7434761 L56809523 7482380 L56571428 7482380 L56476190 7434761 L56428571 7387142 "/>
<svg:path d="M57857142 6815714 L57857142 7482380 "/>
<svg:path d="M57619047 6434761 L57380952 7149047 L58000000 7149047 "/>
<svg:path d="M58238095 6482380 L58571428 7482380 L58904761 6482380 "/>
<svg:path d="M59238095 6958571 L59571428 6958571 "/>
<svg:path d="M59714285 7482380 L59238095 7482380 L59238095 6482380 L59714285 6482380 "/>
<svg:path d="M60714285 7482380 L60380952 7006190 "/>
<svg:path d="M60142857 7482380 L60142857 6482380 L60523809 6482380 L60619047 6530000 L60666666 6577619 L60714285 6672857 L60714285 6815714 L60666666 6910952 L60619047 6958571 L60523809 7006190 L60142857 7006190 "/>
<svg:path d="M61000000 6482380 L61571428 6482380 "/>
<svg:path d="M61285714 7482380 L61285714 6482380 "/>
<svg:path d="M61904761 7482380 L61904761 6482380 "/>
<svg:path d="M62952380 7387142 L62904761 7434761 L62761904 7482380 L62666666 7482380 L62523809 7434761 L62428571 7339523 L62380952 7244285 L62333333 7053809 L62333333 6910952 L62380952 6720476 L62428571 6625238 L62523809 6530000 L62666666 6482380 L62761904 6482380 L62904761 6530000 L62952380 6577619 "/>
<svg:path d="M63333333 7196666 L63809523 7196666 "/>
<svg:path d="M63238095 7482380 L63571428 6482380 L63904761 7482380 "/>
<svg:path d="M64714285 7482380 L64238095 7482380 L64238095 6482380 "/>
<svg:path d="M65000000 7434761 L65142857 7482380 L65380952 7482380 L65476190 7434761 L65523809 7387142 L65571428 7291904 L65571428 7196666 L65523809 7101428 L65476190 7053809 L65380952 7006190 L65190476 6958571 L65095238 6910952 L65047619 6863333 L65000000 6768095 L65000000 6672857 L65047619 6577619 L65095238 6530000 L65190476 6482380 L65428571 6482380 L65571428 6530000 "/>
<svg:path d="M66000000 7482380 L66000000 6482380 L66333333 7196666 L66666666 6482380 L66666666 7482380 "/>
<svg:path d="M67142857 7482380 L67142857 6482380 L67523809 6482380 L67619047 6530000 L67666666 6577619 L67714285 6672857 L67714285 6815714 L67666666 6910952 L67619047 6958571 L67523809 7006190 L67142857 7006190 "/>
<svg:path d="M68142857 7482380 L68142857 6482380 "/>
<svg:path d="M68619047 7482380 L68619047 6482380 L69190476 7482380 L69190476 6482380 "/>
<svg:path d="M70190476 7482380 L69619047 7482380 "/>
<svg:path d="M69904761 7482380 L69904761 6482380 L69809523 6625238 L69714285 6720476 L69619047 6768095 "/>
<svg:path d="M71095238 7482380 L70619047 7482380 L70619047 6482380 "/>
<svg:path d="M71428571 6958571 L71761904 6958571 "/>
<svg:path d="M71904761 7482380 L71428571 7482380 L71428571 6482380 L71904761 6482380 "/>
<svg:path d="M72666666 6958571 L72333333 6958571 "/>
<svg:path d="M72333333 7482380 L72333333 6482380 L72809523 6482380 "/>
<svg:path d="M73047619 6482380 L73619047 6482380 "/>
<svg:path d="M73333333 7482380 L73333333 6482380 "/>
</svg:g></svg:g>
<svg:g style="fill:#F2EDA1; fill-opacity:0.0;  stroke:#F2EDA1; stroke-width:120000.000000; stroke-opacity:1;  stroke-linecap:round; stroke-linejoin:round;">
<svg:path d="M48670000 76160000 L48670000 79720000 "/>
<svg:path d="M51330000 83780000 L51330000 87340000 "/>
<svg:path d="M51330000 91400000 L51330000 91970000 "/>
<svg:path d="M48670000 66000000 L48670000 69560000 "/>
<svg:path d="M51330000 48220000 L51330000 51780000 "/>
<svg:path d="M51330000 27900000 L51330000 31460000 "/>
<svg:path d="M48670000 35520000 L48670000 39080000 "/>
<svg:path d="M48670000 25360000 L48670000 28920000 "/>
<svg:path d="M48670000 10120000 L48670000 13680000 "/>
<svg:path d="M48670000 60920000 L48670000 64480000 "/>
<svg:path d="M48670000 50760000 L48670000 54320000 "/>
<svg:path d="M51330000 43140000 L51330000 46700000 "/>
<svg:path d="M48670000 30440000 L48670000 34000000 "/>
<svg:path d="M48670000 91970000 L51330000 91970000 "/>
<svg:path d="M48670000 81240000 L48670000 84800000 "/>
<svg:path d="M51330000 63460000 L51330000 67020000 "/>
<svg:path d="M48670000 45680000 L48670000 49240000 "/>
<svg:path d="M48670000 15200000 L48670000 18760000 "/>
<svg:path d="M51330000 53300000 L51330000 56860000 "/>
<svg:path d="M51330000 73620000 L51330000 77180000 "/>
<svg:path d="M51330000 78700000 L51330000 82260000 "/>
<svg:path d="M51330000 12660000 L51330000 16220000 "/>
<svg:path d="M48670000 20280000 L48670000 23840000 "/>
<svg:path d="M51330000 8030000 L51330000 11140000 "/>
<svg:path d="M48670000 40600000 L48670000 44160000 "/>
<svg:path d="M51330000 17740000 L51330000 21300000 "/>
<svg:path d="M48670000 8030000 L48670000 8600000 "/>
<svg:path d="M48670000 86320000 L48670000 89880000 "/>
<svg:path d="M48670000 71080000 L48670000 74640000 "/>
<svg:path d="M51330000 32980000 L51330000 36540000 "/>
<svg:path d="M51330000 88860000 L51330000 91970000 "/>
<svg:path d="M48670000 8030000 L51330000 8030000 "/>
<svg:path d="M51330000 58380000 L51330000 61940000 "/>
<svg:path d="M48670000 55840000 L48670000 59400000 "/>
<svg:path d="M51330000 68540000 L51330000 72100000 "/>
<svg:path d="M51330000 22820000 L51330000 26380000 "/>
<svg:path d="M51330000 38060000 L51330000 41620000 "/>
<svg:path d="M48670000 8600000 L47150000 8600000 "/>
<svg:g>
</svg:g>
<svg:g>
</svg:g>
<svg:g>
</svg:g>
<svg:g>
</svg:g>
</svg:g>
<svg:g style="fill:#000000; fill-opacity:0.0;  stroke:#000000; stroke-width:120000.000000; stroke-opacity:1;  stroke-linecap:round; stroke-linejoin:round;">
<svg:g>
</svg:g>
<svg:g>
</svg:g>
<svg:g>
</svg:g>
<svg:g>
</svg:g>
</svg:g> 
</svg:g><svg:g><svg:title>SVG Picture created as kicadBoard-Margin.svg date 2022/11/17 10:14:33 </svg:title>
  <svg:desc>Picture generated by PCBNEW </svg:desc>
<svg:g style="fill:#000000; fill-opacity:1.000000;stroke:#000000; stroke-opacity:1.000000; stroke-linecap:round; stroke-linejoin:round;" transform="translate(0 0) scale(1 1)">
</svg:g>
<svg:g style="fill:#000000; fill-opacity:0.0;  stroke:#000000; stroke-width:0.000000; stroke-opacity:1;  stroke-linecap:round; stroke-linejoin:round;">
<svg:g>
</svg:g>
<svg:g>
</svg:g>
<svg:g>
</svg:g>
<svg:g>
</svg:g>
</svg:g>
<svg:g style="fill:#000000; fill-opacity:0.0;  stroke:#000000; stroke-width:0.000000; stroke-opacity:1;  stroke-linecap:round; stroke-linejoin:round;">
<svg:g>
</svg:g>
<svg:g>
</svg:g>
<svg:g>
</svg:g>
<svg:g>
</svg:g>
</svg:g> 
</svg:g><svg:g><svg:title>SVG Picture created as kicadBoard-F_Cu.svg date 2022/11/17 10:14:33 </svg:title>
  <svg:desc>Picture generated by PCBNEW </svg:desc>
<svg:g style="fill:#000000; fill-opacity:1.000000;stroke:#000000; stroke-opacity:1.000000; stroke-linecap:round; stroke-linejoin:round;" transform="translate(0 0) scale(1 1)">
</svg:g>
<svg:g style="fill:#000000; fill-opacity:0.0;  stroke:#000000; stroke-width:0.000000; stroke-opacity:1;  stroke-linecap:round; stroke-linejoin:round;">
<svg:g>
</svg:g>
<svg:g style="fill:#C83434; fill-opacity:0.0;  stroke:#C83434; stroke-width:0.000000; stroke-opacity:1;  stroke-linecap:round; stroke-linejoin:round;">
</svg:g>
<svg:g style="fill:#C83434; fill-opacity:0.0;  stroke:#C83434; stroke-width:1.000000; stroke-opacity:1;  stroke-linecap:round; stroke-linejoin:round;">
</svg:g>
<svg:g style="fill:#C83434; fill-opacity:1.0;  stroke:#C83434; stroke-width:1.000000; stroke-opacity:1;  stroke-linecap:round; stroke-linejoin:round;">
<svg:path style="fill:#C83434; fill-opacity:1.0;  stroke:#C83434; stroke-width:1.000000; stroke-opacity:1;  stroke-linecap:round; stroke-linejoin:round;fill-rule:evenodd;" d="M 47090000.000000,9860000.000000 47090000.000000,8860000.000000 49600000.000000,8860000.000000 49600000.000000,9860000.000000 Z"/> 
<svg:path style="fill:#C83434; fill-opacity:1.0;  stroke:#C83434; stroke-width:1.000000; stroke-opacity:1;  stroke-linecap:round; stroke-linejoin:round;fill-rule:evenodd;" d="M 50400000.000000,12400000.000000 50400000.000000,11400000.000000 52910000.000000,11400000.000000 52910000.000000,12400000.000000 Z"/> 
<svg:path style="fill:#C83434; fill-opacity:1.0;  stroke:#C83434; stroke-width:1.000000; stroke-opacity:1;  stroke-linecap:round; stroke-linejoin:round;fill-rule:evenodd;" d="M 47090000.000000,14940000.000000 47090000.000000,13940000.000000 49600000.000000,13940000.000000 49600000.000000,14940000.000000 Z"/> 
<svg:path style="fill:#C83434; fill-opacity:1.0;  stroke:#C83434; stroke-width:1.000000; stroke-opacity:1;  stroke-linecap:round; stroke-linejoin:round;fill-rule:evenodd;" d="M 50400000.000000,17480000.000000 50400000.000000,16480000.000000 52910000.000000,16480000.000000 52910000.000000,17480000.000000 Z"/> 
<svg:path style="fill:#C83434; fill-opacity:1.0;  stroke:#C83434; stroke-width:1.000000; stroke-opacity:1;  stroke-linecap:round; stroke-linejoin:round;fill-rule:evenodd;" d="M 47090000.000000,20020000.000000 47090000.000000,19020000.000000 49600000.000000,19020000.000000 49600000.000000,20020000.000000 Z"/> 
<svg:path style="fill:#C83434; fill-opacity:1.0;  stroke:#C83434; stroke-width:1.000000; stroke-opacity:1;  stroke-linecap:round; stroke-linejoin:round;fill-rule:evenodd;" d="M 50400000.000000,22560000.000000 50400000.000000,21560000.000000 52910000.000000,21560000.000000 52910000.000000,22560000.000000 Z"/> 
<svg:path style="fill:#C83434; fill-opacity:1.0;  stroke:#C83434; stroke-width:1.000000; stroke-opacity:1;  stroke-linecap:round; stroke-linejoin:round;fill-rule:evenodd;" d="M 47090000.000000,25100000.000000 47090000.000000,24100000.000000 49600000.000000,24100000.000000 49600000.000000,25100000.000000 Z"/> 
<svg:path style="fill:#C83434; fill-opacity:1.0;  stroke:#C83434; stroke-width:1.000000; stroke-opacity:1;  stroke-linecap:round; stroke-linejoin:round;fill-rule:evenodd;" d="M 50400000.000000,27640000.000000 50400000.000000,26640000.000000 52910000.000000,26640000.000000 52910000.000000,27640000.000000 Z"/> 
<svg:path style="fill:#C83434; fill-opacity:1.0;  stroke:#C83434; stroke-width:1.000000; stroke-opacity:1;  stroke-linecap:round; stroke-linejoin:round;fill-rule:evenodd;" d="M 47090000.000000,30180000.000000 47090000.000000,29180000.000000 49600000.000000,29180000.000000 49600000.000000,30180000.000000 Z"/> 
<svg:path style="fill:#C83434; fill-opacity:1.0;  stroke:#C83434; stroke-width:1.000000; stroke-opacity:1;  stroke-linecap:round; stroke-linejoin:round;fill-rule:evenodd;" d="M 50400000.000000,32720000.000000 50400000.000000,31720000.000000 52910000.000000,31720000.000000 52910000.000000,32720000.000000 Z"/> 
<svg:path style="fill:#C83434; fill-opacity:1.0;  stroke:#C83434; stroke-width:1.000000; stroke-opacity:1;  stroke-linecap:round; stroke-linejoin:round;fill-rule:evenodd;" d="M 47090000.000000,35260000.000000 47090000.000000,34260000.000000 49600000.000000,34260000.000000 49600000.000000,35260000.000000 Z"/> 
<svg:path style="fill:#C83434; fill-opacity:1.0;  stroke:#C83434; stroke-width:1.000000; stroke-opacity:1;  stroke-linecap:round; stroke-linejoin:round;fill-rule:evenodd;" d="M 50400000.000000,37800000.000000 50400000.000000,36800000.000000 52910000.000000,36800000.000000 52910000.000000,37800000.000000 Z"/> 
<svg:path style="fill:#C83434; fill-opacity:1.0;  stroke:#C83434; stroke-width:1.000000; stroke-opacity:1;  stroke-linecap:round; stroke-linejoin:round;fill-rule:evenodd;" d="M 47090000.000000,40340000.000000 47090000.000000,39340000.000000 49600000.000000,39340000.000000 49600000.000000,40340000.000000 Z"/> 
<svg:path style="fill:#C83434; fill-opacity:1.0;  stroke:#C83434; stroke-width:1.000000; stroke-opacity:1;  stroke-linecap:round; stroke-linejoin:round;fill-rule:evenodd;" d="M 50400000.000000,42880000.000000 50400000.000000,41880000.000000 52910000.000000,41880000.000000 52910000.000000,42880000.000000 Z"/> 
<svg:path style="fill:#C83434; fill-opacity:1.0;  stroke:#C83434; stroke-width:1.000000; stroke-opacity:1;  stroke-linecap:round; stroke-linejoin:round;fill-rule:evenodd;" d="M 47090000.000000,45420000.000000 47090000.000000,44420000.000000 49600000.000000,44420000.000000 49600000.000000,45420000.000000 Z"/> 
<svg:path style="fill:#C83434; fill-opacity:1.0;  stroke:#C83434; stroke-width:1.000000; stroke-opacity:1;  stroke-linecap:round; stroke-linejoin:round;fill-rule:evenodd;" d="M 50400000.000000,47960000.000000 50400000.000000,46960000.000000 52910000.000000,46960000.000000 52910000.000000,47960000.000000 Z"/> 
<svg:path style="fill:#C83434; fill-opacity:1.0;  stroke:#C83434; stroke-width:1.000000; stroke-opacity:1;  stroke-linecap:round; stroke-linejoin:round;fill-rule:evenodd;" d="M 47090000.000000,50500000.000000 47090000.000000,49500000.000000 49600000.000000,49500000.000000 49600000.000000,50500000.000000 Z"/> 
<svg:path style="fill:#C83434; fill-opacity:1.0;  stroke:#C83434; stroke-width:1.000000; stroke-opacity:1;  stroke-linecap:round; stroke-linejoin:round;fill-rule:evenodd;" d="M 50400000.000000,53040000.000000 50400000.000000,52040000.000000 52910000.000000,52040000.000000 52910000.000000,53040000.000000 Z"/> 
<svg:path style="fill:#C83434; fill-opacity:1.0;  stroke:#C83434; stroke-width:1.000000; stroke-opacity:1;  stroke-linecap:round; stroke-linejoin:round;fill-rule:evenodd;" d="M 47090000.000000,55580000.000000 47090000.000000,54580000.000000 49600000.000000,54580000.000000 49600000.000000,55580000.000000 Z"/> 
<svg:path style="fill:#C83434; fill-opacity:1.0;  stroke:#C83434; stroke-width:1.000000; stroke-opacity:1;  stroke-linecap:round; stroke-linejoin:round;fill-rule:evenodd;" d="M 50400000.000000,58120000.000000 50400000.000000,57120000.000000 52910000.000000,57120000.000000 52910000.000000,58120000.000000 Z"/> 
<svg:path style="fill:#C83434; fill-opacity:1.0;  stroke:#C83434; stroke-width:1.000000; stroke-opacity:1;  stroke-linecap:round; stroke-linejoin:round;fill-rule:evenodd;" d="M 47090000.000000,60660000.000000 47090000.000000,59660000.000000 49600000.000000,59660000.000000 49600000.000000,60660000.000000 Z"/> 
<svg:path style="fill:#C83434; fill-opacity:1.0;  stroke:#C83434; stroke-width:1.000000; stroke-opacity:1;  stroke-linecap:round; stroke-linejoin:round;fill-rule:evenodd;" d="M 50400000.000000,63200000.000000 50400000.000000,62200000.000000 52910000.000000,62200000.000000 52910000.000000,63200000.000000 Z"/> 
<svg:path style="fill:#C83434; fill-opacity:1.0;  stroke:#C83434; stroke-width:1.000000; stroke-opacity:1;  stroke-linecap:round; stroke-linejoin:round;fill-rule:evenodd;" d="M 47090000.000000,65740000.000000 47090000.000000,64740000.000000 49600000.000000,64740000.000000 49600000.000000,65740000.000000 Z"/> 
<svg:path style="fill:#C83434; fill-opacity:1.0;  stroke:#C83434; stroke-width:1.000000; stroke-opacity:1;  stroke-linecap:round; stroke-linejoin:round;fill-rule:evenodd;" d="M 50400000.000000,68280000.000000 50400000.000000,67280000.000000 52910000.000000,67280000.000000 52910000.000000,68280000.000000 Z"/> 
<svg:path style="fill:#C83434; fill-opacity:1.0;  stroke:#C83434; stroke-width:1.000000; stroke-opacity:1;  stroke-linecap:round; stroke-linejoin:round;fill-rule:evenodd;" d="M 47090000.000000,70820000.000000 47090000.000000,69820000.000000 49600000.000000,69820000.000000 49600000.000000,70820000.000000 Z"/> 
<svg:path style="fill:#C83434; fill-opacity:1.0;  stroke:#C83434; stroke-width:1.000000; stroke-opacity:1;  stroke-linecap:round; stroke-linejoin:round;fill-rule:evenodd;" d="M 50400000.000000,73360000.000000 50400000.000000,72360000.000000 52910000.000000,72360000.000000 52910000.000000,73360000.000000 Z"/> 
<svg:path style="fill:#C83434; fill-opacity:1.0;  stroke:#C83434; stroke-width:1.000000; stroke-opacity:1;  stroke-linecap:round; stroke-linejoin:round;fill-rule:evenodd;" d="M 47090000.000000,75900000.000000 47090000.000000,74900000.000000 49600000.000000,74900000.000000 49600000.000000,75900000.000000 Z"/> 
<svg:path style="fill:#C83434; fill-opacity:1.0;  stroke:#C83434; stroke-width:1.000000; stroke-opacity:1;  stroke-linecap:round; stroke-linejoin:round;fill-rule:evenodd;" d="M 50400000.000000,78440000.000000 50400000.000000,77440000.000000 52910000.000000,77440000.000000 52910000.000000,78440000.000000 Z"/> 
<svg:path style="fill:#C83434; fill-opacity:1.0;  stroke:#C83434; stroke-width:1.000000; stroke-opacity:1;  stroke-linecap:round; stroke-linejoin:round;fill-rule:evenodd;" d="M 47090000.000000,80980000.000000 47090000.000000,79980000.000000 49600000.000000,79980000.000000 49600000.000000,80980000.000000 Z"/> 
<svg:path style="fill:#C83434; fill-opacity:1.0;  stroke:#C83434; stroke-width:1.000000; stroke-opacity:1;  stroke-linecap:round; stroke-linejoin:round;fill-rule:evenodd;" d="M 50400000.000000,83520000.000000 50400000.000000,82520000.000000 52910000.000000,82520000.000000 52910000.000000,83520000.000000 Z"/> 
<svg:path style="fill:#C83434; fill-opacity:1.0;  stroke:#C83434; stroke-width:1.000000; stroke-opacity:1;  stroke-linecap:round; stroke-linejoin:round;fill-rule:evenodd;" d="M 47090000.000000,86060000.000000 47090000.000000,85060000.000000 49600000.000000,85060000.000000 49600000.000000,86060000.000000 Z"/> 
<svg:path style="fill:#C83434; fill-opacity:1.0;  stroke:#C83434; stroke-width:1.000000; stroke-opacity:1;  stroke-linecap:round; stroke-linejoin:round;fill-rule:evenodd;" d="M 50400000.000000,88600000.000000 50400000.000000,87600000.000000 52910000.000000,87600000.000000 52910000.000000,88600000.000000 Z"/> 
<svg:path style="fill:#C83434; fill-opacity:1.0;  stroke:#C83434; stroke-width:1.000000; stroke-opacity:1;  stroke-linecap:round; stroke-linejoin:round;fill-rule:evenodd;" d="M 47090000.000000,91140000.000000 47090000.000000,90140000.000000 49600000.000000,90140000.000000 49600000.000000,91140000.000000 Z"/> 
</svg:g>
<svg:g>
</svg:g>
<svg:g>
</svg:g>
<svg:g>
</svg:g>
</svg:g>
<svg:g style="fill:#FFFFFF; fill-opacity:1.0;  stroke:#FFFFFF; stroke-width:1.000000; stroke-opacity:1;  stroke-linecap:round; stroke-linejoin:round;">
</svg:g>
<svg:g style="fill:#000000; fill-opacity:1.0;  stroke:#000000; stroke-width:1.000000; stroke-opacity:1;  stroke-linecap:round; stroke-linejoin:round;">
<svg:g>
</svg:g>
<svg:g>
</svg:g>
<svg:g>
</svg:g>
<svg:g>
</svg:g>
</svg:g> 
</svg:g></svg>
