<?xml version='1.0' encoding='ASCII' standalone='yes'?>
<svg xmlns:svg="http://www.w3.org/2000/svg" xmlns="http://www.w3.org/2000/svg" xmlns:xlink="http://www.w3.org/1999/xlink" version="1.1" width="9.999980cm" height="9.999980cm" viewBox="0 0 99999800 99999800">
<title>SVG Picture created as kicadBoard-B_Cu.svg date 2022/12/04 02:55:52 </title>
  <desc>Picture generated by PCBNEW </desc>
<g style="fill:#000000; fill-opacity:1.000000;stroke:#000000; stroke-opacity:1.000000; stroke-linecap:round; stroke-linejoin:round;" transform="translate(0 0) scale(1 1)">
</g>
<g style="fill:#000000; fill-opacity:0.0;  stroke:#000000; stroke-width:0.000000; stroke-opacity:1;  stroke-linecap:round; stroke-linejoin:round;">
<g>
</g>
<g>
</g>
<g>
</g>
<g>
</g>
</g>
<g style="fill:#FFFFFF; fill-opacity:0.0;  stroke:#FFFFFF; stroke-width:0.000000; stroke-opacity:1;  stroke-linecap:round; stroke-linejoin:round;">
</g>
<g style="fill:#000000; fill-opacity:0.0;  stroke:#000000; stroke-width:0.000000; stroke-opacity:1;  stroke-linecap:round; stroke-linejoin:round;">
<g>
</g>
<g>
</g>
<g>
</g>
<g>
</g>
</g> 
<svg:g><svg:title>SVG Picture created as kicadBoard-B_Adhesive.svg date 2022/12/04 02:55:52 </svg:title>
  <svg:desc>Picture generated by PCBNEW </svg:desc>
<svg:g style="fill:#000000; fill-opacity:1.000000;stroke:#000000; stroke-opacity:1.000000; stroke-linecap:round; stroke-linejoin:round;" transform="translate(0 0) scale(1 1)">
</svg:g>
<svg:g style="fill:#000000; fill-opacity:0.0;  stroke:#000000; stroke-width:0.000000; stroke-opacity:1;  stroke-linecap:round; stroke-linejoin:round;">
<svg:g>
</svg:g>
<svg:g>
</svg:g>
<svg:g>
</svg:g>
<svg:g>
</svg:g>
</svg:g>
<svg:g style="fill:#000000; fill-opacity:0.0;  stroke:#000000; stroke-width:0.000000; stroke-opacity:1;  stroke-linecap:round; stroke-linejoin:round;">
<svg:g>
</svg:g>
<svg:g>
</svg:g>
<svg:g>
</svg:g>
<svg:g>
</svg:g>
</svg:g> 
</svg:g><svg:g><svg:title>SVG Picture created as kicadBoard-B_Courtyard.svg date 2022/12/04 02:55:52 </svg:title>
  <svg:desc>Picture generated by PCBNEW </svg:desc>
<svg:g style="fill:#000000; fill-opacity:1.000000;stroke:#000000; stroke-opacity:1.000000; stroke-linecap:round; stroke-linejoin:round;" transform="translate(0 0) scale(1 1)">
</svg:g>
<svg:g style="fill:#000000; fill-opacity:0.0;  stroke:#000000; stroke-width:0.000000; stroke-opacity:1;  stroke-linecap:round; stroke-linejoin:round;">
<svg:g>
</svg:g>
<svg:g>
</svg:g>
<svg:g>
</svg:g>
<svg:g>
</svg:g>
</svg:g>
<svg:g style="fill:#000000; fill-opacity:0.0;  stroke:#000000; stroke-width:0.000000; stroke-opacity:1;  stroke-linecap:round; stroke-linejoin:round;">
<svg:g>
</svg:g>
<svg:g>
</svg:g>
<svg:g>
</svg:g>
<svg:g>
</svg:g>
</svg:g> 
</svg:g><svg:g><svg:title>SVG Picture created as kicadBoard-B_Fab.svg date 2022/12/04 02:55:52 </svg:title>
  <svg:desc>Picture generated by PCBNEW </svg:desc>
<svg:g style="fill:#000000; fill-opacity:1.000000;stroke:#000000; stroke-opacity:1.000000; stroke-linecap:round; stroke-linejoin:round;" transform="translate(0 0) scale(1 1)">
</svg:g>
<svg:g style="fill:#000000; fill-opacity:0.0;  stroke:#000000; stroke-width:0.000000; stroke-opacity:1;  stroke-linecap:round; stroke-linejoin:round;">
<svg:g>
</svg:g>
<svg:g>
</svg:g>
<svg:g>
</svg:g>
<svg:g>
</svg:g>
</svg:g>
<svg:g style="fill:#000000; fill-opacity:0.0;  stroke:#000000; stroke-width:0.000000; stroke-opacity:1;  stroke-linecap:round; stroke-linejoin:round;">
<svg:g>
</svg:g>
<svg:g>
</svg:g>
<svg:g>
</svg:g>
<svg:g>
</svg:g>
</svg:g> 
</svg:g><svg:g><svg:title>SVG Picture created as kicadBoard-B_Mask.svg date 2022/12/04 02:55:52 </svg:title>
  <svg:desc>Picture generated by PCBNEW </svg:desc>
<svg:g style="fill:#000000; fill-opacity:1.000000;stroke:#000000; stroke-opacity:1.000000; stroke-linecap:round; stroke-linejoin:round;" transform="translate(0 0) scale(1 1)">
</svg:g>
<svg:g style="fill:#000000; fill-opacity:0.0;  stroke:#000000; stroke-width:0.000000; stroke-opacity:1;  stroke-linecap:round; stroke-linejoin:round;">
<svg:g>
</svg:g>
<svg:g>
</svg:g>
<svg:g>
</svg:g>
<svg:g>
</svg:g>
</svg:g>
<svg:g style="fill:#000000; fill-opacity:0.0;  stroke:#000000; stroke-width:0.000000; stroke-opacity:1;  stroke-linecap:round; stroke-linejoin:round;">
<svg:g>
</svg:g>
<svg:g>
</svg:g>
<svg:g>
</svg:g>
<svg:g>
</svg:g>
</svg:g> 
</svg:g><svg:g><svg:title>SVG Picture created as kicadBoard-B_Paste.svg date 2022/12/04 02:55:52 </svg:title>
  <svg:desc>Picture generated by PCBNEW </svg:desc>
<svg:g style="fill:#000000; fill-opacity:1.000000;stroke:#000000; stroke-opacity:1.000000; stroke-linecap:round; stroke-linejoin:round;" transform="translate(0 0) scale(1 1)">
</svg:g>
<svg:g style="fill:#000000; fill-opacity:0.0;  stroke:#000000; stroke-width:0.000000; stroke-opacity:1;  stroke-linecap:round; stroke-linejoin:round;">
<svg:g>
</svg:g>
<svg:g>
</svg:g>
<svg:g>
</svg:g>
<svg:g>
</svg:g>
</svg:g>
<svg:g style="fill:#000000; fill-opacity:0.0;  stroke:#000000; stroke-width:0.000000; stroke-opacity:1;  stroke-linecap:round; stroke-linejoin:round;">
<svg:g>
</svg:g>
<svg:g>
</svg:g>
<svg:g>
</svg:g>
<svg:g>
</svg:g>
</svg:g> 
</svg:g><svg:g><svg:title>SVG Picture created as kicadBoard-B_Silkscreen.svg date 2022/12/04 02:55:52 </svg:title>
  <svg:desc>Picture generated by PCBNEW </svg:desc>
<svg:g style="fill:#000000; fill-opacity:1.000000;stroke:#000000; stroke-opacity:1.000000; stroke-linecap:round; stroke-linejoin:round;" transform="translate(0 0) scale(1 1)">
</svg:g>
<svg:g style="fill:#000000; fill-opacity:0.0;  stroke:#000000; stroke-width:0.000000; stroke-opacity:1;  stroke-linecap:round; stroke-linejoin:round;">
<svg:g>
</svg:g>
<svg:g>
</svg:g>
<svg:g>
</svg:g>
<svg:g>
</svg:g>
</svg:g>
<svg:g style="fill:#000000; fill-opacity:0.0;  stroke:#000000; stroke-width:0.000000; stroke-opacity:1;  stroke-linecap:round; stroke-linejoin:round;">
<svg:g>
</svg:g>
<svg:g>
</svg:g>
<svg:g>
</svg:g>
<svg:g>
</svg:g>
</svg:g> 
</svg:g><svg:g><svg:title>SVG Picture created as kicadBoard-Edge_Cuts.svg date 2022/12/04 02:55:52 </svg:title>
  <svg:desc>Picture generated by PCBNEW </svg:desc>
<svg:g style="fill:#000000; fill-opacity:1.000000;stroke:#000000; stroke-opacity:1.000000; stroke-linecap:round; stroke-linejoin:round;" transform="translate(0 0) scale(1 1)">
</svg:g>
<svg:g style="fill:#000000; fill-opacity:0.0;  stroke:#000000; stroke-width:0.000000; stroke-opacity:1;  stroke-linecap:round; stroke-linejoin:round;">
<svg:g>
</svg:g>
<svg:g>
</svg:g>
<svg:g>
</svg:g>
<svg:g>
</svg:g>
</svg:g> 
</svg:g><svg:g><svg:title>SVG Picture created as kicadBoard-F_Adhesive.svg date 2022/12/04 02:55:52 </svg:title>
  <svg:desc>Picture generated by PCBNEW </svg:desc>
<svg:g style="fill:#000000; fill-opacity:1.000000;stroke:#000000; stroke-opacity:1.000000; stroke-linecap:round; stroke-linejoin:round;" transform="translate(0 0) scale(1 1)">
</svg:g>
<svg:g style="fill:#000000; fill-opacity:0.0;  stroke:#000000; stroke-width:0.000000; stroke-opacity:1;  stroke-linecap:round; stroke-linejoin:round;">
<svg:g>
</svg:g>
<svg:g>
</svg:g>
<svg:g>
</svg:g>
<svg:g>
</svg:g>
</svg:g>
<svg:g style="fill:#000000; fill-opacity:0.0;  stroke:#000000; stroke-width:0.000000; stroke-opacity:1;  stroke-linecap:round; stroke-linejoin:round;">
<svg:g>
</svg:g>
<svg:g>
</svg:g>
<svg:g>
</svg:g>
<svg:g>
</svg:g>
</svg:g> 
</svg:g><svg:g><svg:title>SVG Picture created as kicadBoard-F_Courtyard.svg date 2022/12/04 02:55:52 </svg:title>
  <svg:desc>Picture generated by PCBNEW </svg:desc>
<svg:g style="fill:#000000; fill-opacity:1.000000;stroke:#000000; stroke-opacity:1.000000; stroke-linecap:round; stroke-linejoin:round;" transform="translate(0 0) scale(1 1)">
</svg:g>
<svg:g style="fill:#000000; fill-opacity:0.0;  stroke:#000000; stroke-width:0.000000; stroke-opacity:1;  stroke-linecap:round; stroke-linejoin:round;">
<svg:g>
</svg:g>
<svg:g>
</svg:g>
<svg:g>
</svg:g>
<svg:g>
</svg:g>
</svg:g>
<svg:g style="fill:#000000; fill-opacity:0.0;  stroke:#000000; stroke-width:0.000000; stroke-opacity:1;  stroke-linecap:round; stroke-linejoin:round;">
<svg:g>
</svg:g>
<svg:g>
</svg:g>
<svg:g>
</svg:g>
<svg:g>
</svg:g>
</svg:g> 
</svg:g><svg:g><svg:title>SVG Picture created as kicadBoard-F_Cu.svg date 2022/12/04 02:55:52 </svg:title>
  <svg:desc>Picture generated by PCBNEW </svg:desc>
<svg:g style="fill:#000000; fill-opacity:1.000000;stroke:#000000; stroke-opacity:1.000000; stroke-linecap:round; stroke-linejoin:round;" transform="translate(0 0) scale(1 1)">
</svg:g>
<svg:g style="fill:#000000; fill-opacity:0.0;  stroke:#000000; stroke-width:0.000000; stroke-opacity:1;  stroke-linecap:round; stroke-linejoin:round;">
<svg:g>
</svg:g>
<svg:g style="fill:#C83434; fill-opacity:0.0;  stroke:#C83434; stroke-width:0.000000; stroke-opacity:1;  stroke-linecap:round; stroke-linejoin:round;">
</svg:g>
<svg:g style="fill:#C83434; fill-opacity:0.0;  stroke:#C83434; stroke-width:1.000000; stroke-opacity:1;  stroke-linecap:round; stroke-linejoin:round;">
</svg:g>
<svg:g style="fill:#C83434; fill-opacity:1.0;  stroke:#C83434; stroke-width:1.000000; stroke-opacity:1;  stroke-linecap:round; stroke-linejoin:round;">
<svg:path style="fill:#C83434; fill-opacity:1.0;  stroke:#C83434; stroke-width:1.000000; stroke-opacity:1;  stroke-linecap:round; stroke-linejoin:round;fill-rule:evenodd;" d="M 47200001.000000,46049999.000000 47200001.000000,44550001.000000 47799999.000000,44550001.000000 47799999.000000,46049999.000000 Z"/> 
<svg:path style="fill:#C83434; fill-opacity:1.0;  stroke:#C83434; stroke-width:1.000000; stroke-opacity:1;  stroke-linecap:round; stroke-linejoin:round;fill-rule:evenodd;" d="M 48200001.000000,46049999.000000 48200001.000000,44550001.000000 48799999.000000,44550001.000000 48799999.000000,46049999.000000 Z"/> 
<svg:path style="fill:#C83434; fill-opacity:1.0;  stroke:#C83434; stroke-width:1.000000; stroke-opacity:1;  stroke-linecap:round; stroke-linejoin:round;fill-rule:evenodd;" d="M 49200001.000000,46049999.000000 49200001.000000,44550001.000000 49799999.000000,44550001.000000 49799999.000000,46049999.000000 Z"/> 
<svg:path style="fill:#C83434; fill-opacity:1.0;  stroke:#C83434; stroke-width:1.000000; stroke-opacity:1;  stroke-linecap:round; stroke-linejoin:round;fill-rule:evenodd;" d="M 50200001.000000,46049999.000000 50200001.000000,44550001.000000 50799999.000000,44550001.000000 50799999.000000,46049999.000000 Z"/> 
<svg:path style="fill:#C83434; fill-opacity:1.0;  stroke:#C83434; stroke-width:1.000000; stroke-opacity:1;  stroke-linecap:round; stroke-linejoin:round;fill-rule:evenodd;" d="M 51200001.000000,46049999.000000 51200001.000000,44550001.000000 51799999.000000,44550001.000000 51799999.000000,46049999.000000 Z"/> 
<svg:path style="fill:#C83434; fill-opacity:1.0;  stroke:#C83434; stroke-width:1.000000; stroke-opacity:1;  stroke-linecap:round; stroke-linejoin:round;fill-rule:evenodd;" d="M 52200001.000000,46049999.000000 52200001.000000,44550001.000000 52799999.000000,44550001.000000 52799999.000000,46049999.000000 Z"/> 
<svg:path style="fill:#C83434; fill-opacity:1.0;  stroke:#C83434; stroke-width:1.000000; stroke-opacity:1;  stroke-linecap:round; stroke-linejoin:round;fill-rule:evenodd;" d="M 45100001.000000,50099999.000000 45100001.000000,47900001.000000 46499999.000000,47900001.000000 46499999.000000,50099999.000000 Z"/> 
<svg:path style="fill:#C83434; fill-opacity:1.0;  stroke:#C83434; stroke-width:1.000000; stroke-opacity:1;  stroke-linecap:round; stroke-linejoin:round;fill-rule:evenodd;" d="M 53500001.000000,50099999.000000 53500001.000000,47900001.000000 54899999.000000,47900001.000000 54899999.000000,50099999.000000 Z"/> 
<svg:path style="fill:#C83434; fill-opacity:1.0;  stroke:#C83434; stroke-width:1.000000; stroke-opacity:1;  stroke-linecap:round; stroke-linejoin:round;fill-rule:evenodd;" d="M 45100001.000000,43999999.000000 45100001.000000,41800001.000000 46499999.000000,41800001.000000 46499999.000000,43999999.000000 Z"/> 
<svg:path style="fill:#C83434; fill-opacity:1.0;  stroke:#C83434; stroke-width:1.000000; stroke-opacity:1;  stroke-linecap:round; stroke-linejoin:round;fill-rule:evenodd;" d="M 53500001.000000,43999999.000000 53500001.000000,41800001.000000 54899999.000000,41800001.000000 54899999.000000,43999999.000000 Z"/> 
</svg:g>
<svg:g>
</svg:g>
<svg:g>
</svg:g>
<svg:g>
</svg:g>
</svg:g>
<svg:g style="fill:#FFFFFF; fill-opacity:1.0;  stroke:#FFFFFF; stroke-width:1.000000; stroke-opacity:1;  stroke-linecap:round; stroke-linejoin:round;">
</svg:g>
<svg:g style="fill:#000000; fill-opacity:1.0;  stroke:#000000; stroke-width:1.000000; stroke-opacity:1;  stroke-linecap:round; stroke-linejoin:round;">
<svg:g>
</svg:g>
<svg:g>
</svg:g>
<svg:g>
</svg:g>
<svg:g>
</svg:g>
</svg:g> 
</svg:g><svg:g><svg:title>SVG Picture created as kicadBoard-F_Fab.svg date 2022/12/04 02:55:52 </svg:title>
  <svg:desc>Picture generated by PCBNEW </svg:desc>
<svg:g style="fill:#000000; fill-opacity:1.000000;stroke:#000000; stroke-opacity:1.000000; stroke-linecap:round; stroke-linejoin:round;" transform="translate(0 0) scale(1 1)">
</svg:g>
<svg:g style="fill:#000000; fill-opacity:0.0;  stroke:#000000; stroke-width:0.000000; stroke-opacity:1;  stroke-linecap:round; stroke-linejoin:round;">
</svg:g>
<svg:g style="fill:#AFAFAF; fill-opacity:0.0;  stroke:#AFAFAF; stroke-width:0.000000; stroke-opacity:1;  stroke-linecap:round; stroke-linejoin:round;">
</svg:g>
<svg:g style="fill:#AFAFAF; fill-opacity:0.0;  stroke:#AFAFAF; stroke-width:150000.000000; stroke-opacity:1;  stroke-linecap:round; stroke-linejoin:round;">
<svg:text x="50000000.000000" y="50635000.000000" textLength="4970175.000000" font-size="1693333.000000" lengthAdjust="spacingAndGlyphs" text-anchor="middle" opacity="0">Val**</svg:text>
<svg:g class="stroked-text"><svg:desc>Val**</svg:desc>
<svg:path d="M47701904 49304523 L48125238 50574523 L48548571 49304523 "/>
<svg:path d="M49516190 50574523 L49516190 49909285 L49455714 49788333 L49334761 49727857 L49092857 49727857 L48971904 49788333 "/>
<svg:path d="M49516190 50514047 L49395238 50574523 L49092857 50574523 L48971904 50514047 L48911428 50393095 L48911428 50272142 L48971904 50151190 L49092857 50090714 L49395238 50090714 L49516190 50030238 "/>
<svg:path d="M50302380 50574523 L50181428 50514047 L50120952 50393095 L50120952 49304523 "/>
<svg:path d="M50967619 49304523 L50967619 49606904 "/>
<svg:path d="M50665238 49485952 L50967619 49606904 L51270000 49485952 "/>
<svg:path d="M50786190 49848809 L50967619 49606904 L51149047 49848809 "/>
<svg:path d="M51935238 49304523 L51935238 49606904 "/>
<svg:path d="M51632857 49485952 L51935238 49606904 L52237619 49485952 "/>
<svg:path d="M51753809 49848809 L51935238 49606904 L52116666 49848809 "/>
</svg:g><svg:g>
</svg:g>
<svg:g>
</svg:g>
<svg:g>
</svg:g>
<svg:g>
</svg:g>
</svg:g>
<svg:g style="fill:#000000; fill-opacity:0.0;  stroke:#000000; stroke-width:150000.000000; stroke-opacity:1;  stroke-linecap:round; stroke-linejoin:round;">
<svg:g>
</svg:g>
<svg:g>
</svg:g>
<svg:g>
</svg:g>
<svg:g>
</svg:g>
</svg:g> 
</svg:g><svg:g><svg:title>SVG Picture created as kicadBoard-F_Mask.svg date 2022/12/04 02:55:52 </svg:title>
  <svg:desc>Picture generated by PCBNEW </svg:desc>
<svg:g style="fill:#000000; fill-opacity:1.000000;stroke:#000000; stroke-opacity:1.000000; stroke-linecap:round; stroke-linejoin:round;" transform="translate(0 0) scale(1 1)">
</svg:g>
<svg:g style="fill:#000000; fill-opacity:0.0;  stroke:#000000; stroke-width:0.000000; stroke-opacity:1;  stroke-linecap:round; stroke-linejoin:round;">
<svg:g>
</svg:g>
<svg:g style="fill:#000000; fill-opacity:0.0;  stroke:#000000; stroke-width:1.000000; stroke-opacity:1;  stroke-linecap:round; stroke-linejoin:round;">
</svg:g>
<svg:g style="fill:#000000; fill-opacity:1.0;  stroke:#000000; stroke-width:1.000000; stroke-opacity:1;  stroke-linecap:round; stroke-linejoin:round;">
<svg:path style="fill:#000000; fill-opacity:1.0;  stroke:#000000; stroke-width:1.000000; stroke-opacity:1;  stroke-linecap:round; stroke-linejoin:round;fill-rule:evenodd;" d="M 47098400.000000,44550000.000000 47106134.000000,44511119.000000 47128158.000000,44478158.000000 47161119.000000,44456134.000000 47200000.000000,44448400.000000 47800000.000000,44448400.000000 47838881.000000,44456134.000000 47871842.000000,44478158.000000 47893866.000000,44511119.000000 47901600.000000,44550000.000000 47901600.000000,46050000.000000 47893866.000000,46088881.000000 47871842.000000,46121842.000000 47838881.000000,46143866.000000 47800000.000000,46151600.000000 47200000.000000,46151600.000000 47161119.000000,46143866.000000 47128158.000000,46121842.000000 47106134.000000,46088881.000000 47098400.000000,46050000.000000 Z"/> 
<svg:path style="fill:#000000; fill-opacity:1.0;  stroke:#000000; stroke-width:1.000000; stroke-opacity:1;  stroke-linecap:round; stroke-linejoin:round;fill-rule:evenodd;" d="M 48098400.000000,44550000.000000 48106134.000000,44511119.000000 48128158.000000,44478158.000000 48161119.000000,44456134.000000 48200000.000000,44448400.000000 48800000.000000,44448400.000000 48838881.000000,44456134.000000 48871842.000000,44478158.000000 48893866.000000,44511119.000000 48901600.000000,44550000.000000 48901600.000000,46050000.000000 48893866.000000,46088881.000000 48871842.000000,46121842.000000 48838881.000000,46143866.000000 48800000.000000,46151600.000000 48200000.000000,46151600.000000 48161119.000000,46143866.000000 48128158.000000,46121842.000000 48106134.000000,46088881.000000 48098400.000000,46050000.000000 Z"/> 
<svg:path style="fill:#000000; fill-opacity:1.0;  stroke:#000000; stroke-width:1.000000; stroke-opacity:1;  stroke-linecap:round; stroke-linejoin:round;fill-rule:evenodd;" d="M 49098400.000000,44550000.000000 49106134.000000,44511119.000000 49128158.000000,44478158.000000 49161119.000000,44456134.000000 49200000.000000,44448400.000000 49800000.000000,44448400.000000 49838881.000000,44456134.000000 49871842.000000,44478158.000000 49893866.000000,44511119.000000 49901600.000000,44550000.000000 49901600.000000,46050000.000000 49893866.000000,46088881.000000 49871842.000000,46121842.000000 49838881.000000,46143866.000000 49800000.000000,46151600.000000 49200000.000000,46151600.000000 49161119.000000,46143866.000000 49128158.000000,46121842.000000 49106134.000000,46088881.000000 49098400.000000,46050000.000000 Z"/> 
<svg:path style="fill:#000000; fill-opacity:1.0;  stroke:#000000; stroke-width:1.000000; stroke-opacity:1;  stroke-linecap:round; stroke-linejoin:round;fill-rule:evenodd;" d="M 50098400.000000,44550000.000000 50106134.000000,44511119.000000 50128158.000000,44478158.000000 50161119.000000,44456134.000000 50200000.000000,44448400.000000 50800000.000000,44448400.000000 50838881.000000,44456134.000000 50871842.000000,44478158.000000 50893866.000000,44511119.000000 50901600.000000,44550000.000000 50901600.000000,46050000.000000 50893866.000000,46088881.000000 50871842.000000,46121842.000000 50838881.000000,46143866.000000 50800000.000000,46151600.000000 50200000.000000,46151600.000000 50161119.000000,46143866.000000 50128158.000000,46121842.000000 50106134.000000,46088881.000000 50098400.000000,46050000.000000 Z"/> 
<svg:path style="fill:#000000; fill-opacity:1.0;  stroke:#000000; stroke-width:1.000000; stroke-opacity:1;  stroke-linecap:round; stroke-linejoin:round;fill-rule:evenodd;" d="M 51098400.000000,44550000.000000 51106134.000000,44511119.000000 51128158.000000,44478158.000000 51161119.000000,44456134.000000 51200000.000000,44448400.000000 51800000.000000,44448400.000000 51838881.000000,44456134.000000 51871842.000000,44478158.000000 51893866.000000,44511119.000000 51901600.000000,44550000.000000 51901600.000000,46050000.000000 51893866.000000,46088881.000000 51871842.000000,46121842.000000 51838881.000000,46143866.000000 51800000.000000,46151600.000000 51200000.000000,46151600.000000 51161119.000000,46143866.000000 51128158.000000,46121842.000000 51106134.000000,46088881.000000 51098400.000000,46050000.000000 Z"/> 
<svg:path style="fill:#000000; fill-opacity:1.0;  stroke:#000000; stroke-width:1.000000; stroke-opacity:1;  stroke-linecap:round; stroke-linejoin:round;fill-rule:evenodd;" d="M 52098400.000000,44550000.000000 52106134.000000,44511119.000000 52128158.000000,44478158.000000 52161119.000000,44456134.000000 52200000.000000,44448400.000000 52800000.000000,44448400.000000 52838881.000000,44456134.000000 52871842.000000,44478158.000000 52893866.000000,44511119.000000 52901600.000000,44550000.000000 52901600.000000,46050000.000000 52893866.000000,46088881.000000 52871842.000000,46121842.000000 52838881.000000,46143866.000000 52800000.000000,46151600.000000 52200000.000000,46151600.000000 52161119.000000,46143866.000000 52128158.000000,46121842.000000 52106134.000000,46088881.000000 52098400.000000,46050000.000000 Z"/> 
<svg:path style="fill:#000000; fill-opacity:1.0;  stroke:#000000; stroke-width:1.000000; stroke-opacity:1;  stroke-linecap:round; stroke-linejoin:round;fill-rule:evenodd;" d="M 44998400.000000,47900000.000000 45006134.000000,47861119.000000 45028158.000000,47828158.000000 45061119.000000,47806134.000000 45100000.000000,47798400.000000 46500000.000000,47798400.000000 46538881.000000,47806134.000000 46571842.000000,47828158.000000 46593866.000000,47861119.000000 46601600.000000,47900000.000000 46601600.000000,50100000.000000 46593866.000000,50138881.000000 46571842.000000,50171842.000000 46538881.000000,50193866.000000 46500000.000000,50201600.000000 45100000.000000,50201600.000000 45061119.000000,50193866.000000 45028158.000000,50171842.000000 45006134.000000,50138881.000000 44998400.000000,50100000.000000 Z"/> 
<svg:path style="fill:#000000; fill-opacity:1.0;  stroke:#000000; stroke-width:1.000000; stroke-opacity:1;  stroke-linecap:round; stroke-linejoin:round;fill-rule:evenodd;" d="M 53398400.000000,47900000.000000 53406134.000000,47861119.000000 53428158.000000,47828158.000000 53461119.000000,47806134.000000 53500000.000000,47798400.000000 54900000.000000,47798400.000000 54938881.000000,47806134.000000 54971842.000000,47828158.000000 54993866.000000,47861119.000000 55001600.000000,47900000.000000 55001600.000000,50100000.000000 54993866.000000,50138881.000000 54971842.000000,50171842.000000 54938881.000000,50193866.000000 54900000.000000,50201600.000000 53500000.000000,50201600.000000 53461119.000000,50193866.000000 53428158.000000,50171842.000000 53406134.000000,50138881.000000 53398400.000000,50100000.000000 Z"/> 
<svg:path style="fill:#000000; fill-opacity:1.0;  stroke:#000000; stroke-width:1.000000; stroke-opacity:1;  stroke-linecap:round; stroke-linejoin:round;fill-rule:evenodd;" d="M 44998400.000000,41800000.000000 45006134.000000,41761119.000000 45028158.000000,41728158.000000 45061119.000000,41706134.000000 45100000.000000,41698400.000000 46500000.000000,41698400.000000 46538881.000000,41706134.000000 46571842.000000,41728158.000000 46593866.000000,41761119.000000 46601600.000000,41800000.000000 46601600.000000,44000000.000000 46593866.000000,44038881.000000 46571842.000000,44071842.000000 46538881.000000,44093866.000000 46500000.000000,44101600.000000 45100000.000000,44101600.000000 45061119.000000,44093866.000000 45028158.000000,44071842.000000 45006134.000000,44038881.000000 44998400.000000,44000000.000000 Z"/> 
<svg:path style="fill:#000000; fill-opacity:1.0;  stroke:#000000; stroke-width:1.000000; stroke-opacity:1;  stroke-linecap:round; stroke-linejoin:round;fill-rule:evenodd;" d="M 53398400.000000,41800000.000000 53406134.000000,41761119.000000 53428158.000000,41728158.000000 53461119.000000,41706134.000000 53500000.000000,41698400.000000 54900000.000000,41698400.000000 54938881.000000,41706134.000000 54971842.000000,41728158.000000 54993866.000000,41761119.000000 55001600.000000,41800000.000000 55001600.000000,44000000.000000 54993866.000000,44038881.000000 54971842.000000,44071842.000000 54938881.000000,44093866.000000 54900000.000000,44101600.000000 53500000.000000,44101600.000000 53461119.000000,44093866.000000 53428158.000000,44071842.000000 53406134.000000,44038881.000000 53398400.000000,44000000.000000 Z"/> 
</svg:g>
<svg:g>
</svg:g>
<svg:g>
</svg:g>
<svg:g>
</svg:g>
</svg:g>
<svg:g style="fill:#000000; fill-opacity:1.0;  stroke:#000000; stroke-width:1.000000; stroke-opacity:1;  stroke-linecap:round; stroke-linejoin:round;">
<svg:g>
</svg:g>
<svg:g>
</svg:g>
<svg:g>
</svg:g>
<svg:g>
</svg:g>
</svg:g> 
</svg:g><svg:g><svg:title>SVG Picture created as kicadBoard-F_Paste.svg date 2022/12/04 02:55:52 </svg:title>
  <svg:desc>Picture generated by PCBNEW </svg:desc>
<svg:g style="fill:#000000; fill-opacity:1.000000;stroke:#000000; stroke-opacity:1.000000; stroke-linecap:round; stroke-linejoin:round;" transform="translate(0 0) scale(1 1)">
</svg:g>
<svg:g style="fill:#000000; fill-opacity:0.0;  stroke:#000000; stroke-width:0.000000; stroke-opacity:1;  stroke-linecap:round; stroke-linejoin:round;">
<svg:g>
</svg:g>
<svg:g style="fill:#000000; fill-opacity:0.0;  stroke:#000000; stroke-width:1.000000; stroke-opacity:1;  stroke-linecap:round; stroke-linejoin:round;">
</svg:g>
<svg:g style="fill:#000000; fill-opacity:1.0;  stroke:#000000; stroke-width:1.000000; stroke-opacity:1;  stroke-linecap:round; stroke-linejoin:round;">
<svg:path style="fill:#000000; fill-opacity:1.0;  stroke:#000000; stroke-width:1.000000; stroke-opacity:1;  stroke-linecap:round; stroke-linejoin:round;fill-rule:evenodd;" d="M 47200001.000000,46049999.000000 47200001.000000,44550001.000000 47799999.000000,44550001.000000 47799999.000000,46049999.000000 Z"/> 
<svg:path style="fill:#000000; fill-opacity:1.0;  stroke:#000000; stroke-width:1.000000; stroke-opacity:1;  stroke-linecap:round; stroke-linejoin:round;fill-rule:evenodd;" d="M 48200001.000000,46049999.000000 48200001.000000,44550001.000000 48799999.000000,44550001.000000 48799999.000000,46049999.000000 Z"/> 
<svg:path style="fill:#000000; fill-opacity:1.0;  stroke:#000000; stroke-width:1.000000; stroke-opacity:1;  stroke-linecap:round; stroke-linejoin:round;fill-rule:evenodd;" d="M 49200001.000000,46049999.000000 49200001.000000,44550001.000000 49799999.000000,44550001.000000 49799999.000000,46049999.000000 Z"/> 
<svg:path style="fill:#000000; fill-opacity:1.0;  stroke:#000000; stroke-width:1.000000; stroke-opacity:1;  stroke-linecap:round; stroke-linejoin:round;fill-rule:evenodd;" d="M 50200001.000000,46049999.000000 50200001.000000,44550001.000000 50799999.000000,44550001.000000 50799999.000000,46049999.000000 Z"/> 
<svg:path style="fill:#000000; fill-opacity:1.0;  stroke:#000000; stroke-width:1.000000; stroke-opacity:1;  stroke-linecap:round; stroke-linejoin:round;fill-rule:evenodd;" d="M 51200001.000000,46049999.000000 51200001.000000,44550001.000000 51799999.000000,44550001.000000 51799999.000000,46049999.000000 Z"/> 
<svg:path style="fill:#000000; fill-opacity:1.0;  stroke:#000000; stroke-width:1.000000; stroke-opacity:1;  stroke-linecap:round; stroke-linejoin:round;fill-rule:evenodd;" d="M 52200001.000000,46049999.000000 52200001.000000,44550001.000000 52799999.000000,44550001.000000 52799999.000000,46049999.000000 Z"/> 
<svg:path style="fill:#000000; fill-opacity:1.0;  stroke:#000000; stroke-width:1.000000; stroke-opacity:1;  stroke-linecap:round; stroke-linejoin:round;fill-rule:evenodd;" d="M 45100001.000000,50099999.000000 45100001.000000,47900001.000000 46499999.000000,47900001.000000 46499999.000000,50099999.000000 Z"/> 
<svg:path style="fill:#000000; fill-opacity:1.0;  stroke:#000000; stroke-width:1.000000; stroke-opacity:1;  stroke-linecap:round; stroke-linejoin:round;fill-rule:evenodd;" d="M 53500001.000000,50099999.000000 53500001.000000,47900001.000000 54899999.000000,47900001.000000 54899999.000000,50099999.000000 Z"/> 
<svg:path style="fill:#000000; fill-opacity:1.0;  stroke:#000000; stroke-width:1.000000; stroke-opacity:1;  stroke-linecap:round; stroke-linejoin:round;fill-rule:evenodd;" d="M 45100001.000000,43999999.000000 45100001.000000,41800001.000000 46499999.000000,41800001.000000 46499999.000000,43999999.000000 Z"/> 
<svg:path style="fill:#000000; fill-opacity:1.0;  stroke:#000000; stroke-width:1.000000; stroke-opacity:1;  stroke-linecap:round; stroke-linejoin:round;fill-rule:evenodd;" d="M 53500001.000000,43999999.000000 53500001.000000,41800001.000000 54899999.000000,41800001.000000 54899999.000000,43999999.000000 Z"/> 
</svg:g>
<svg:g>
</svg:g>
<svg:g>
</svg:g>
<svg:g>
</svg:g>
</svg:g>
<svg:g style="fill:#000000; fill-opacity:1.0;  stroke:#000000; stroke-width:1.000000; stroke-opacity:1;  stroke-linecap:round; stroke-linejoin:round;">
<svg:g>
</svg:g>
<svg:g>
</svg:g>
<svg:g>
</svg:g>
<svg:g>
</svg:g>
</svg:g> 
</svg:g><svg:g><svg:title>SVG Picture created as kicadBoard-F_Silkscreen.svg date 2022/12/04 02:55:52 </svg:title>
  <svg:desc>Picture generated by PCBNEW </svg:desc>
<svg:g style="fill:#000000; fill-opacity:1.000000;stroke:#000000; stroke-opacity:1.000000; stroke-linecap:round; stroke-linejoin:round;" transform="translate(0 0) scale(1 1)">
</svg:g>
<svg:g style="fill:#000000; fill-opacity:0.0;  stroke:#000000; stroke-width:0.000000; stroke-opacity:1;  stroke-linecap:round; stroke-linejoin:round;">
</svg:g>
<svg:g style="fill:#F2EDA1; fill-opacity:0.0;  stroke:#F2EDA1; stroke-width:0.000000; stroke-opacity:1;  stroke-linecap:round; stroke-linejoin:round;">
</svg:g>
<svg:g style="fill:#F2EDA1; fill-opacity:0.0;  stroke:#F2EDA1; stroke-width:150000.000000; stroke-opacity:1;  stroke-linecap:round; stroke-linejoin:round;">
<svg:text x="50000000.000000" y="50635000.000000" textLength="11550953.000000" font-size="1693333.000000" lengthAdjust="spacingAndGlyphs" text-anchor="middle" opacity="0">FZAJST6POS</svg:text>
<svg:g class="stroked-text"><svg:desc>FZAJST6POS</svg:desc>
<svg:path d="M44950238 49909285 L44526904 49909285 "/>
<svg:path d="M44526904 50574523 L44526904 49304523 L45131666 49304523 "/>
<svg:path d="M45494523 49304523 L46341190 49304523 L45494523 50574523 L46341190 50574523 "/>
<svg:path d="M46764523 50211666 L47369285 50211666 "/>
<svg:path d="M46643571 50574523 L47066904 49304523 L47490238 50574523 "/>
<svg:path d="M48276428 49304523 L48276428 50211666 L48215952 50393095 L48094999 50514047 L47913571 50574523 L47792619 50574523 "/>
<svg:path d="M48820714 50514047 L49002142 50574523 L49304523 50574523 L49425476 50514047 L49485952 50453571 L49546428 50332619 L49546428 50211666 L49485952 50090714 L49425476 50030238 L49304523 49969761 L49062619 49909285 L48941666 49848809 L48881190 49788333 L48820714 49667380 L48820714 49546428 L48881190 49425476 L48941666 49365000 L49062619 49304523 L49365000 49304523 L49546428 49365000 "/>
<svg:path d="M49909285 49304523 L50635000 49304523 "/>
<svg:path d="M50272142 50574523 L50272142 49304523 "/>
<svg:path d="M51602619 49304523 L51360714 49304523 L51239761 49365000 L51179285 49425476 L51058333 49606904 L50997857 49848809 L50997857 50332619 L51058333 50453571 L51118809 50514047 L51239761 50574523 L51481666 50574523 L51602619 50514047 L51663095 50453571 L51723571 50332619 L51723571 50030238 L51663095 49909285 L51602619 49848809 L51481666 49788333 L51239761 49788333 L51118809 49848809 L51058333 49909285 L50997857 50030238 "/>
<svg:path d="M52267857 50574523 L52267857 49304523 L52751666 49304523 L52872619 49365000 L52933095 49425476 L52993571 49546428 L52993571 49727857 L52933095 49848809 L52872619 49909285 L52751666 49969761 L52267857 49969761 "/>
<svg:path d="M53779761 49304523 L54021666 49304523 L54142619 49365000 L54263571 49485952 L54324047 49727857 L54324047 50151190 L54263571 50393095 L54142619 50514047 L54021666 50574523 L53779761 50574523 L53658809 50514047 L53537857 50393095 L53477380 50151190 L53477380 49727857 L53537857 49485952 L53658809 49365000 L53779761 49304523 "/>
<svg:path d="M54807857 50514047 L54989285 50574523 L55291666 50574523 L55412619 50514047 L55473095 50453571 L55533571 50332619 L55533571 50211666 L55473095 50090714 L55412619 50030238 L55291666 49969761 L55049761 49909285 L54928809 49848809 L54868333 49788333 L54807857 49667380 L54807857 49546428 L54868333 49425476 L54928809 49365000 L55049761 49304523 L55352142 49304523 L55533571 49365000 "/>
</svg:g></svg:g>
<svg:g style="fill:#F2EDA1; fill-opacity:0.0;  stroke:#F2EDA1; stroke-width:101600.000000; stroke-opacity:1;  stroke-linecap:round; stroke-linejoin:round;">
<svg:text x="49600000.000000" y="48500000.000000" textLength="1419038.000000" font-size="1557866.000000" lengthAdjust="spacingAndGlyphs" text-anchor="start" opacity="0">H</svg:text>
<svg:g class="stroked-text"><svg:desc>H</svg:desc>
<svg:path d="M49944230 48444361 L49944230 47275961 "/>
<svg:path d="M49944230 47832342 L50611887 47832342 "/>
<svg:path d="M50611887 48444361 L50611887 47275961 "/>
</svg:g><svg:text x="49500000.000000" y="43700000.000000" textLength="1133566.000000" font-size="1557866.000000" lengthAdjust="spacingAndGlyphs" text-anchor="start" opacity="0">V</svg:text>
<svg:g class="stroked-text"><svg:desc>V</svg:desc>
<svg:path d="M49677316 42475961 L50066782 43644361 L50456249 42475961 "/>
</svg:g></svg:g>
<svg:g style="fill:#F2EDA1; fill-opacity:0.0;  stroke:#F2EDA1; stroke-width:127000.000000; stroke-opacity:1;  stroke-linecap:round; stroke-linejoin:round;">
<svg:path d="M54000000 41900000 L54000000 45300000 "/>
<svg:path d="M53200000 49900000 L53200000 48500000 "/>
<svg:path d="M54000000 48500000 L54000000 50000000 "/>
<svg:path d="M53200000 48500000 L54000000 48500000 "/>
<svg:path d="M46800000 50000000 L46800000 48500000 "/>
<svg:path d="M54000000 45300000 L54000000 48500000 "/>
<svg:path d="M46000000 50000000 L46000000 48500000 "/>
<svg:path d="M46000000 45300000 L46000000 41900000 "/>
<svg:path d="M46000000 45300000 L54000000 45300000 "/>
<svg:path d="M46800000 50000000 L46000000 50000000 "/>
<svg:path d="M46000000 41900000 L54000000 41900000 "/>
<svg:path d="M54000000 50000000 L46800000 50000000 "/>
<svg:path d="M46800000 48500000 L46000000 48500000 "/>
<svg:path d="M46000000 48500000 L46000000 45300000 "/>
<svg:g>
</svg:g>
<svg:g>
</svg:g>
<svg:g>
</svg:g>
<svg:g>
</svg:g>
</svg:g>
<svg:g style="fill:#000000; fill-opacity:0.0;  stroke:#000000; stroke-width:127000.000000; stroke-opacity:1;  stroke-linecap:round; stroke-linejoin:round;">
<svg:g>
</svg:g>
<svg:g>
</svg:g>
<svg:g>
</svg:g>
<svg:g>
</svg:g>
</svg:g> 
</svg:g><svg:g><svg:title>SVG Picture created as kicadBoard-Margin.svg date 2022/12/04 02:55:52 </svg:title>
  <svg:desc>Picture generated by PCBNEW </svg:desc>
<svg:g style="fill:#000000; fill-opacity:1.000000;stroke:#000000; stroke-opacity:1.000000; stroke-linecap:round; stroke-linejoin:round;" transform="translate(0 0) scale(1 1)">
</svg:g>
<svg:g style="fill:#000000; fill-opacity:0.0;  stroke:#000000; stroke-width:0.000000; stroke-opacity:1;  stroke-linecap:round; stroke-linejoin:round;">
<svg:g>
</svg:g>
<svg:g>
</svg:g>
<svg:g>
</svg:g>
<svg:g>
</svg:g>
</svg:g>
<svg:g style="fill:#000000; fill-opacity:0.0;  stroke:#000000; stroke-width:0.000000; stroke-opacity:1;  stroke-linecap:round; stroke-linejoin:round;">
<svg:g>
</svg:g>
<svg:g>
</svg:g>
<svg:g>
</svg:g>
<svg:g>
</svg:g>
</svg:g> 
</svg:g><svg:g><svg:title>SVG Picture created as kicadBoard-F_Cu.svg date 2022/12/04 02:55:52 </svg:title>
  <svg:desc>Picture generated by PCBNEW </svg:desc>
<svg:g style="fill:#000000; fill-opacity:1.000000;stroke:#000000; stroke-opacity:1.000000; stroke-linecap:round; stroke-linejoin:round;" transform="translate(0 0) scale(1 1)">
</svg:g>
<svg:g style="fill:#000000; fill-opacity:0.0;  stroke:#000000; stroke-width:0.000000; stroke-opacity:1;  stroke-linecap:round; stroke-linejoin:round;">
<svg:g>
</svg:g>
<svg:g style="fill:#C83434; fill-opacity:0.0;  stroke:#C83434; stroke-width:0.000000; stroke-opacity:1;  stroke-linecap:round; stroke-linejoin:round;">
</svg:g>
<svg:g style="fill:#C83434; fill-opacity:0.0;  stroke:#C83434; stroke-width:1.000000; stroke-opacity:1;  stroke-linecap:round; stroke-linejoin:round;">
</svg:g>
<svg:g style="fill:#C83434; fill-opacity:1.0;  stroke:#C83434; stroke-width:1.000000; stroke-opacity:1;  stroke-linecap:round; stroke-linejoin:round;">
<svg:path style="fill:#C83434; fill-opacity:1.0;  stroke:#C83434; stroke-width:1.000000; stroke-opacity:1;  stroke-linecap:round; stroke-linejoin:round;fill-rule:evenodd;" d="M 47200001.000000,46049999.000000 47200001.000000,44550001.000000 47799999.000000,44550001.000000 47799999.000000,46049999.000000 Z"/> 
<svg:path style="fill:#C83434; fill-opacity:1.0;  stroke:#C83434; stroke-width:1.000000; stroke-opacity:1;  stroke-linecap:round; stroke-linejoin:round;fill-rule:evenodd;" d="M 48200001.000000,46049999.000000 48200001.000000,44550001.000000 48799999.000000,44550001.000000 48799999.000000,46049999.000000 Z"/> 
<svg:path style="fill:#C83434; fill-opacity:1.0;  stroke:#C83434; stroke-width:1.000000; stroke-opacity:1;  stroke-linecap:round; stroke-linejoin:round;fill-rule:evenodd;" d="M 49200001.000000,46049999.000000 49200001.000000,44550001.000000 49799999.000000,44550001.000000 49799999.000000,46049999.000000 Z"/> 
<svg:path style="fill:#C83434; fill-opacity:1.0;  stroke:#C83434; stroke-width:1.000000; stroke-opacity:1;  stroke-linecap:round; stroke-linejoin:round;fill-rule:evenodd;" d="M 50200001.000000,46049999.000000 50200001.000000,44550001.000000 50799999.000000,44550001.000000 50799999.000000,46049999.000000 Z"/> 
<svg:path style="fill:#C83434; fill-opacity:1.0;  stroke:#C83434; stroke-width:1.000000; stroke-opacity:1;  stroke-linecap:round; stroke-linejoin:round;fill-rule:evenodd;" d="M 51200001.000000,46049999.000000 51200001.000000,44550001.000000 51799999.000000,44550001.000000 51799999.000000,46049999.000000 Z"/> 
<svg:path style="fill:#C83434; fill-opacity:1.0;  stroke:#C83434; stroke-width:1.000000; stroke-opacity:1;  stroke-linecap:round; stroke-linejoin:round;fill-rule:evenodd;" d="M 52200001.000000,46049999.000000 52200001.000000,44550001.000000 52799999.000000,44550001.000000 52799999.000000,46049999.000000 Z"/> 
<svg:path style="fill:#C83434; fill-opacity:1.0;  stroke:#C83434; stroke-width:1.000000; stroke-opacity:1;  stroke-linecap:round; stroke-linejoin:round;fill-rule:evenodd;" d="M 45100001.000000,50099999.000000 45100001.000000,47900001.000000 46499999.000000,47900001.000000 46499999.000000,50099999.000000 Z"/> 
<svg:path style="fill:#C83434; fill-opacity:1.0;  stroke:#C83434; stroke-width:1.000000; stroke-opacity:1;  stroke-linecap:round; stroke-linejoin:round;fill-rule:evenodd;" d="M 53500001.000000,50099999.000000 53500001.000000,47900001.000000 54899999.000000,47900001.000000 54899999.000000,50099999.000000 Z"/> 
<svg:path style="fill:#C83434; fill-opacity:1.0;  stroke:#C83434; stroke-width:1.000000; stroke-opacity:1;  stroke-linecap:round; stroke-linejoin:round;fill-rule:evenodd;" d="M 45100001.000000,43999999.000000 45100001.000000,41800001.000000 46499999.000000,41800001.000000 46499999.000000,43999999.000000 Z"/> 
<svg:path style="fill:#C83434; fill-opacity:1.0;  stroke:#C83434; stroke-width:1.000000; stroke-opacity:1;  stroke-linecap:round; stroke-linejoin:round;fill-rule:evenodd;" d="M 53500001.000000,43999999.000000 53500001.000000,41800001.000000 54899999.000000,41800001.000000 54899999.000000,43999999.000000 Z"/> 
</svg:g>
<svg:g>
</svg:g>
<svg:g>
</svg:g>
<svg:g>
</svg:g>
</svg:g>
<svg:g style="fill:#FFFFFF; fill-opacity:1.0;  stroke:#FFFFFF; stroke-width:1.000000; stroke-opacity:1;  stroke-linecap:round; stroke-linejoin:round;">
</svg:g>
<svg:g style="fill:#000000; fill-opacity:1.0;  stroke:#000000; stroke-width:1.000000; stroke-opacity:1;  stroke-linecap:round; stroke-linejoin:round;">
<svg:g>
</svg:g>
<svg:g>
</svg:g>
<svg:g>
</svg:g>
<svg:g>
</svg:g>
</svg:g> 
</svg:g></svg>
