<?xml version='1.0' encoding='ASCII' standalone='yes'?>
<svg xmlns:svg="http://www.w3.org/2000/svg" xmlns="http://www.w3.org/2000/svg" xmlns:xlink="http://www.w3.org/1999/xlink" version="1.1" width="9.999980cm" height="9.999980cm" viewBox="0 0 99999800 99999800">
<title>SVG Picture created as kicadBoard-B_Cu.svg date 2022/12/05 12:47:19 </title>
  <desc>Picture generated by PCBNEW </desc>
<g style="fill:#000000; fill-opacity:1.000000;stroke:#000000; stroke-opacity:1.000000; stroke-linecap:round; stroke-linejoin:round;" transform="translate(0 0) scale(1 1)">
</g>
<g style="fill:#000000; fill-opacity:0.0;  stroke:#000000; stroke-width:0.000000; stroke-opacity:1;  stroke-linecap:round; stroke-linejoin:round;">
<g>
</g>
<g>
</g>
<g>
</g>
<g>
</g>
</g>
<g style="fill:#FFFFFF; fill-opacity:0.0;  stroke:#FFFFFF; stroke-width:0.000000; stroke-opacity:1;  stroke-linecap:round; stroke-linejoin:round;">
</g>
<g style="fill:#000000; fill-opacity:0.0;  stroke:#000000; stroke-width:0.000000; stroke-opacity:1;  stroke-linecap:round; stroke-linejoin:round;">
<g>
</g>
<g>
</g>
<g>
</g>
<g>
</g>
</g> 
<svg:g><svg:title>SVG Picture created as kicadBoard-B_Adhesive.svg date 2022/12/05 12:47:19 </svg:title>
  <svg:desc>Picture generated by PCBNEW </svg:desc>
<svg:g style="fill:#000000; fill-opacity:1.000000;stroke:#000000; stroke-opacity:1.000000; stroke-linecap:round; stroke-linejoin:round;" transform="translate(0 0) scale(1 1)">
</svg:g>
<svg:g style="fill:#000000; fill-opacity:0.0;  stroke:#000000; stroke-width:0.000000; stroke-opacity:1;  stroke-linecap:round; stroke-linejoin:round;">
<svg:g>
</svg:g>
<svg:g>
</svg:g>
<svg:g>
</svg:g>
<svg:g>
</svg:g>
</svg:g>
<svg:g style="fill:#000000; fill-opacity:0.0;  stroke:#000000; stroke-width:0.000000; stroke-opacity:1;  stroke-linecap:round; stroke-linejoin:round;">
<svg:g>
</svg:g>
<svg:g>
</svg:g>
<svg:g>
</svg:g>
<svg:g>
</svg:g>
</svg:g> 
</svg:g><svg:g><svg:title>SVG Picture created as kicadBoard-B_Courtyard.svg date 2022/12/05 12:47:19 </svg:title>
  <svg:desc>Picture generated by PCBNEW </svg:desc>
<svg:g style="fill:#000000; fill-opacity:1.000000;stroke:#000000; stroke-opacity:1.000000; stroke-linecap:round; stroke-linejoin:round;" transform="translate(0 0) scale(1 1)">
</svg:g>
<svg:g style="fill:#000000; fill-opacity:0.0;  stroke:#000000; stroke-width:0.000000; stroke-opacity:1;  stroke-linecap:round; stroke-linejoin:round;">
<svg:g>
</svg:g>
<svg:g>
</svg:g>
<svg:g>
</svg:g>
<svg:g>
</svg:g>
</svg:g>
<svg:g style="fill:#000000; fill-opacity:0.0;  stroke:#000000; stroke-width:0.000000; stroke-opacity:1;  stroke-linecap:round; stroke-linejoin:round;">
<svg:g>
</svg:g>
<svg:g>
</svg:g>
<svg:g>
</svg:g>
<svg:g>
</svg:g>
</svg:g> 
</svg:g><svg:g><svg:title>SVG Picture created as kicadBoard-B_Fab.svg date 2022/12/05 12:47:19 </svg:title>
  <svg:desc>Picture generated by PCBNEW </svg:desc>
<svg:g style="fill:#000000; fill-opacity:1.000000;stroke:#000000; stroke-opacity:1.000000; stroke-linecap:round; stroke-linejoin:round;" transform="translate(0 0) scale(1 1)">
</svg:g>
<svg:g style="fill:#000000; fill-opacity:0.0;  stroke:#000000; stroke-width:0.000000; stroke-opacity:1;  stroke-linecap:round; stroke-linejoin:round;">
<svg:g>
</svg:g>
<svg:g>
</svg:g>
<svg:g>
</svg:g>
<svg:g>
</svg:g>
</svg:g>
<svg:g style="fill:#000000; fill-opacity:0.0;  stroke:#000000; stroke-width:0.000000; stroke-opacity:1;  stroke-linecap:round; stroke-linejoin:round;">
<svg:g>
</svg:g>
<svg:g>
</svg:g>
<svg:g>
</svg:g>
<svg:g>
</svg:g>
</svg:g> 
</svg:g><svg:g><svg:title>SVG Picture created as kicadBoard-B_Mask.svg date 2022/12/05 12:47:19 </svg:title>
  <svg:desc>Picture generated by PCBNEW </svg:desc>
<svg:g style="fill:#000000; fill-opacity:1.000000;stroke:#000000; stroke-opacity:1.000000; stroke-linecap:round; stroke-linejoin:round;" transform="translate(0 0) scale(1 1)">
</svg:g>
<svg:g style="fill:#000000; fill-opacity:0.0;  stroke:#000000; stroke-width:0.000000; stroke-opacity:1;  stroke-linecap:round; stroke-linejoin:round;">
<svg:g>
</svg:g>
<svg:g>
</svg:g>
<svg:g>
</svg:g>
<svg:g>
</svg:g>
</svg:g>
<svg:g style="fill:#000000; fill-opacity:0.0;  stroke:#000000; stroke-width:0.000000; stroke-opacity:1;  stroke-linecap:round; stroke-linejoin:round;">
<svg:g>
</svg:g>
<svg:g>
</svg:g>
<svg:g>
</svg:g>
<svg:g>
</svg:g>
</svg:g> 
</svg:g><svg:g><svg:title>SVG Picture created as kicadBoard-B_Paste.svg date 2022/12/05 12:47:19 </svg:title>
  <svg:desc>Picture generated by PCBNEW </svg:desc>
<svg:g style="fill:#000000; fill-opacity:1.000000;stroke:#000000; stroke-opacity:1.000000; stroke-linecap:round; stroke-linejoin:round;" transform="translate(0 0) scale(1 1)">
</svg:g>
<svg:g style="fill:#000000; fill-opacity:0.0;  stroke:#000000; stroke-width:0.000000; stroke-opacity:1;  stroke-linecap:round; stroke-linejoin:round;">
<svg:g>
</svg:g>
<svg:g>
</svg:g>
<svg:g>
</svg:g>
<svg:g>
</svg:g>
</svg:g>
<svg:g style="fill:#000000; fill-opacity:0.0;  stroke:#000000; stroke-width:0.000000; stroke-opacity:1;  stroke-linecap:round; stroke-linejoin:round;">
<svg:g>
</svg:g>
<svg:g>
</svg:g>
<svg:g>
</svg:g>
<svg:g>
</svg:g>
</svg:g> 
</svg:g><svg:g><svg:title>SVG Picture created as kicadBoard-B_Silkscreen.svg date 2022/12/05 12:47:19 </svg:title>
  <svg:desc>Picture generated by PCBNEW </svg:desc>
<svg:g style="fill:#000000; fill-opacity:1.000000;stroke:#000000; stroke-opacity:1.000000; stroke-linecap:round; stroke-linejoin:round;" transform="translate(0 0) scale(1 1)">
</svg:g>
<svg:g style="fill:#000000; fill-opacity:0.0;  stroke:#000000; stroke-width:0.000000; stroke-opacity:1;  stroke-linecap:round; stroke-linejoin:round;">
<svg:g>
</svg:g>
<svg:g>
</svg:g>
<svg:g>
</svg:g>
<svg:g>
</svg:g>
</svg:g>
<svg:g style="fill:#000000; fill-opacity:0.0;  stroke:#000000; stroke-width:0.000000; stroke-opacity:1;  stroke-linecap:round; stroke-linejoin:round;">
<svg:g>
</svg:g>
<svg:g>
</svg:g>
<svg:g>
</svg:g>
<svg:g>
</svg:g>
</svg:g> 
</svg:g><svg:g><svg:title>SVG Picture created as kicadBoard-Edge_Cuts.svg date 2022/12/05 12:47:19 </svg:title>
  <svg:desc>Picture generated by PCBNEW </svg:desc>
<svg:g style="fill:#000000; fill-opacity:1.000000;stroke:#000000; stroke-opacity:1.000000; stroke-linecap:round; stroke-linejoin:round;" transform="translate(0 0) scale(1 1)">
</svg:g>
<svg:g style="fill:#000000; fill-opacity:0.0;  stroke:#000000; stroke-width:0.000000; stroke-opacity:1;  stroke-linecap:round; stroke-linejoin:round;">
<svg:g>
</svg:g>
<svg:g>
</svg:g>
<svg:g>
</svg:g>
<svg:g>
</svg:g>
</svg:g> 
</svg:g><svg:g><svg:title>SVG Picture created as kicadBoard-F_Adhesive.svg date 2022/12/05 12:47:19 </svg:title>
  <svg:desc>Picture generated by PCBNEW </svg:desc>
<svg:g style="fill:#000000; fill-opacity:1.000000;stroke:#000000; stroke-opacity:1.000000; stroke-linecap:round; stroke-linejoin:round;" transform="translate(0 0) scale(1 1)">
</svg:g>
<svg:g style="fill:#000000; fill-opacity:0.0;  stroke:#000000; stroke-width:0.000000; stroke-opacity:1;  stroke-linecap:round; stroke-linejoin:round;">
<svg:g>
</svg:g>
<svg:g>
</svg:g>
<svg:g>
</svg:g>
<svg:g>
</svg:g>
</svg:g>
<svg:g style="fill:#000000; fill-opacity:0.0;  stroke:#000000; stroke-width:0.000000; stroke-opacity:1;  stroke-linecap:round; stroke-linejoin:round;">
<svg:g>
</svg:g>
<svg:g>
</svg:g>
<svg:g>
</svg:g>
<svg:g>
</svg:g>
</svg:g> 
</svg:g><svg:g><svg:title>SVG Picture created as kicadBoard-F_Courtyard.svg date 2022/12/05 12:47:19 </svg:title>
  <svg:desc>Picture generated by PCBNEW </svg:desc>
<svg:g style="fill:#000000; fill-opacity:1.000000;stroke:#000000; stroke-opacity:1.000000; stroke-linecap:round; stroke-linejoin:round;" transform="translate(0 0) scale(1 1)">
</svg:g>
<svg:g style="fill:#000000; fill-opacity:0.0;  stroke:#000000; stroke-width:0.000000; stroke-opacity:1;  stroke-linecap:round; stroke-linejoin:round;">
<svg:g>
</svg:g>
<svg:g>
</svg:g>
<svg:g>
</svg:g>
<svg:g>
</svg:g>
</svg:g>
<svg:g style="fill:#000000; fill-opacity:0.0;  stroke:#000000; stroke-width:0.000000; stroke-opacity:1;  stroke-linecap:round; stroke-linejoin:round;">
<svg:g>
</svg:g>
<svg:g>
</svg:g>
<svg:g>
</svg:g>
<svg:g>
</svg:g>
</svg:g> 
</svg:g><svg:g><svg:title>SVG Picture created as kicadBoard-F_Cu.svg date 2022/12/05 12:47:19 </svg:title>
  <svg:desc>Picture generated by PCBNEW </svg:desc>
<svg:g style="fill:#000000; fill-opacity:1.000000;stroke:#000000; stroke-opacity:1.000000; stroke-linecap:round; stroke-linejoin:round;" transform="translate(0 0) scale(1 1)">
</svg:g>
<svg:g style="fill:#000000; fill-opacity:0.0;  stroke:#000000; stroke-width:0.000000; stroke-opacity:1;  stroke-linecap:round; stroke-linejoin:round;">
</svg:g>
<svg:g style="fill:#C83434; fill-opacity:0.0;  stroke:#C83434; stroke-width:0.000000; stroke-opacity:1;  stroke-linecap:round; stroke-linejoin:round;">
</svg:g>
<svg:g style="fill:#C83434; fill-opacity:1.0;  stroke:#C83434; stroke-width:1.000000; stroke-opacity:1;  stroke-linecap:round; stroke-linejoin:round;">
<svg:path style="fill:#C83434; fill-opacity:1.0;  stroke:#C83434; stroke-width:1.000000; stroke-opacity:1;  stroke-linecap:round; stroke-linejoin:round;fill-rule:evenodd;" d="M 45000000.000000,50200000.000000 42600000.000000,50200000.000000 42600000.000000,48000000.000000 45000000.000000,48000000.000000 Z"/> 
<svg:path style="fill:#C83434; fill-opacity:1.0;  stroke:#C83434; stroke-width:1.000000; stroke-opacity:1;  stroke-linecap:round; stroke-linejoin:round;fill-rule:evenodd;" d="M 45000000.000000,51050000.000000 43700000.000000,51050000.000000 43700000.000000,50200000.000000 45000000.000000,50200000.000000 Z"/> 
<svg:path style="fill:#C83434; fill-opacity:1.0;  stroke:#C83434; stroke-width:1.000000; stroke-opacity:1;  stroke-linecap:round; stroke-linejoin:round;fill-rule:evenodd;" d="M 57400000.000000,50200000.000000 55000000.000000,50200000.000000 55000000.000000,48000000.000000 57400000.000000,48000000.000000 Z"/> 
<svg:path style="fill:#C83434; fill-opacity:1.0;  stroke:#C83434; stroke-width:1.000000; stroke-opacity:1;  stroke-linecap:round; stroke-linejoin:round;fill-rule:evenodd;" d="M 56300000.000000,51050000.000000 55000000.000000,51050000.000000 55000000.000000,50200000.000000 56300000.000000,50200000.000000 Z"/> 
<svg:g>
<svg:path style="fill:#C83434; fill-opacity:1.0;  stroke:#C83434; stroke-width:1.000000; stroke-opacity:1;  stroke-linecap:round; stroke-linejoin:round;fill-rule:evenodd;" d="M 46100001.000000,47899999.000000 46100001.000000,47100001.000000 46399999.000000,47100001.000000 46399999.000000,47899999.000000 Z"/> 
<svg:path style="fill:#C83434; fill-opacity:1.0;  stroke:#C83434; stroke-width:1.000000; stroke-opacity:1;  stroke-linecap:round; stroke-linejoin:round;fill-rule:evenodd;" d="M 46600001.000000,47899999.000000 46600001.000000,47100001.000000 46899999.000000,47100001.000000 46899999.000000,47899999.000000 Z"/> 
<svg:path style="fill:#C83434; fill-opacity:1.0;  stroke:#C83434; stroke-width:1.000000; stroke-opacity:1;  stroke-linecap:round; stroke-linejoin:round;fill-rule:evenodd;" d="M 47100001.000000,47899999.000000 47100001.000000,47100001.000000 47399999.000000,47100001.000000 47399999.000000,47899999.000000 Z"/> 
<svg:path style="fill:#C83434; fill-opacity:1.0;  stroke:#C83434; stroke-width:1.000000; stroke-opacity:1;  stroke-linecap:round; stroke-linejoin:round;fill-rule:evenodd;" d="M 47600001.000000,47899999.000000 47600001.000000,47100001.000000 47899999.000000,47100001.000000 47899999.000000,47899999.000000 Z"/> 
<svg:path style="fill:#C83434; fill-opacity:1.0;  stroke:#C83434; stroke-width:1.000000; stroke-opacity:1;  stroke-linecap:round; stroke-linejoin:round;fill-rule:evenodd;" d="M 48100001.000000,47899999.000000 48100001.000000,47100001.000000 48399999.000000,47100001.000000 48399999.000000,47899999.000000 Z"/> 
<svg:path style="fill:#C83434; fill-opacity:1.0;  stroke:#C83434; stroke-width:1.000000; stroke-opacity:1;  stroke-linecap:round; stroke-linejoin:round;fill-rule:evenodd;" d="M 48600001.000000,47899999.000000 48600001.000000,47100001.000000 48899999.000000,47100001.000000 48899999.000000,47899999.000000 Z"/> 
<svg:path style="fill:#C83434; fill-opacity:1.0;  stroke:#C83434; stroke-width:1.000000; stroke-opacity:1;  stroke-linecap:round; stroke-linejoin:round;fill-rule:evenodd;" d="M 49100001.000000,47899999.000000 49100001.000000,47100001.000000 49399999.000000,47100001.000000 49399999.000000,47899999.000000 Z"/> 
<svg:path style="fill:#C83434; fill-opacity:1.0;  stroke:#C83434; stroke-width:1.000000; stroke-opacity:1;  stroke-linecap:round; stroke-linejoin:round;fill-rule:evenodd;" d="M 49600001.000000,47899999.000000 49600001.000000,47100001.000000 49899999.000000,47100001.000000 49899999.000000,47899999.000000 Z"/> 
<svg:path style="fill:#C83434; fill-opacity:1.0;  stroke:#C83434; stroke-width:1.000000; stroke-opacity:1;  stroke-linecap:round; stroke-linejoin:round;fill-rule:evenodd;" d="M 50100001.000000,47899999.000000 50100001.000000,47100001.000000 50399999.000000,47100001.000000 50399999.000000,47899999.000000 Z"/> 
<svg:path style="fill:#C83434; fill-opacity:1.0;  stroke:#C83434; stroke-width:1.000000; stroke-opacity:1;  stroke-linecap:round; stroke-linejoin:round;fill-rule:evenodd;" d="M 50600001.000000,47899999.000000 50600001.000000,47100001.000000 50899999.000000,47100001.000000 50899999.000000,47899999.000000 Z"/> 
<svg:path style="fill:#C83434; fill-opacity:1.0;  stroke:#C83434; stroke-width:1.000000; stroke-opacity:1;  stroke-linecap:round; stroke-linejoin:round;fill-rule:evenodd;" d="M 51100001.000000,47899999.000000 51100001.000000,47100001.000000 51399999.000000,47100001.000000 51399999.000000,47899999.000000 Z"/> 
<svg:path style="fill:#C83434; fill-opacity:1.0;  stroke:#C83434; stroke-width:1.000000; stroke-opacity:1;  stroke-linecap:round; stroke-linejoin:round;fill-rule:evenodd;" d="M 51600001.000000,47899999.000000 51600001.000000,47100001.000000 51899999.000000,47100001.000000 51899999.000000,47899999.000000 Z"/> 
<svg:path style="fill:#C83434; fill-opacity:1.0;  stroke:#C83434; stroke-width:1.000000; stroke-opacity:1;  stroke-linecap:round; stroke-linejoin:round;fill-rule:evenodd;" d="M 52100001.000000,47899999.000000 52100001.000000,47100001.000000 52399999.000000,47100001.000000 52399999.000000,47899999.000000 Z"/> 
<svg:path style="fill:#C83434; fill-opacity:1.0;  stroke:#C83434; stroke-width:1.000000; stroke-opacity:1;  stroke-linecap:round; stroke-linejoin:round;fill-rule:evenodd;" d="M 52600001.000000,47899999.000000 52600001.000000,47100001.000000 52899999.000000,47100001.000000 52899999.000000,47899999.000000 Z"/> 
<svg:path style="fill:#C83434; fill-opacity:1.0;  stroke:#C83434; stroke-width:1.000000; stroke-opacity:1;  stroke-linecap:round; stroke-linejoin:round;fill-rule:evenodd;" d="M 53100001.000000,47899999.000000 53100001.000000,47100001.000000 53399999.000000,47100001.000000 53399999.000000,47899999.000000 Z"/> 
<svg:path style="fill:#C83434; fill-opacity:1.0;  stroke:#C83434; stroke-width:1.000000; stroke-opacity:1;  stroke-linecap:round; stroke-linejoin:round;fill-rule:evenodd;" d="M 53600001.000000,47899999.000000 53600001.000000,47100001.000000 53899999.000000,47100001.000000 53899999.000000,47899999.000000 Z"/> 
</svg:g>
<svg:g>
</svg:g>
<svg:g>
</svg:g>
<svg:g>
</svg:g>
</svg:g>
<svg:g style="fill:#FFFFFF; fill-opacity:1.0;  stroke:#FFFFFF; stroke-width:1.000000; stroke-opacity:1;  stroke-linecap:round; stroke-linejoin:round;">
</svg:g>
<svg:g style="fill:#000000; fill-opacity:1.0;  stroke:#000000; stroke-width:1.000000; stroke-opacity:1;  stroke-linecap:round; stroke-linejoin:round;">
<svg:g>
</svg:g>
<svg:g>
</svg:g>
<svg:g>
</svg:g>
<svg:g>
</svg:g>
</svg:g> 
</svg:g><svg:g><svg:title>SVG Picture created as kicadBoard-F_Fab.svg date 2022/12/05 12:47:19 </svg:title>
  <svg:desc>Picture generated by PCBNEW </svg:desc>
<svg:g style="fill:#000000; fill-opacity:1.000000;stroke:#000000; stroke-opacity:1.000000; stroke-linecap:round; stroke-linejoin:round;" transform="translate(0 0) scale(1 1)">
</svg:g>
<svg:g style="fill:#000000; fill-opacity:0.0;  stroke:#000000; stroke-width:0.000000; stroke-opacity:1;  stroke-linecap:round; stroke-linejoin:round;">
</svg:g>
<svg:g style="fill:#AFAFAF; fill-opacity:0.0;  stroke:#AFAFAF; stroke-width:0.000000; stroke-opacity:1;  stroke-linecap:round; stroke-linejoin:round;">
</svg:g>
<svg:g style="fill:#AFAFAF; fill-opacity:0.0;  stroke:#AFAFAF; stroke-width:101600.000000; stroke-opacity:1;  stroke-linecap:round; stroke-linejoin:round;">
<svg:text x="42920000.000000" y="55620000.000000" textLength="6808651.000000" font-size="1557866.000000" lengthAdjust="spacingAndGlyphs" text-anchor="start" opacity="0">&gt;VALUE</svg:text>
<svg:g class="stroked-text"><svg:desc>&gt;VALUE</svg:desc>
<svg:path d="M43264230 54785428 L44154440 55119257 L43264230 55453085 "/>
<svg:path d="M44543906 54395961 L44933373 55564361 L45322840 54395961 "/>
<svg:path d="M45656668 55230533 L46213049 55230533 "/>
<svg:path d="M45545392 55564361 L45934859 54395961 L46324325 55564361 "/>
<svg:path d="M47270173 55564361 L46713792 55564361 L46713792 54395961 "/>
<svg:path d="M47659640 54395961 L47659640 55341809 L47715278 55453085 L47770916 55508723 L47882192 55564361 L48104744 55564361 L48216020 55508723 L48271659 55453085 L48327297 55341809 L48327297 54395961 "/>
<svg:path d="M48883678 54952342 L49273144 54952342 "/>
<svg:path d="M49440059 55564361 L48883678 55564361 L48883678 54395961 L49440059 54395961 "/>
</svg:g><svg:path d="M56950000 48350000 L56950000 48550000 "/>
<svg:path d="M43650000 49050000 L43600000 49100000 "/>
<svg:path d="M56950000 49300000 L56200000 49300000 "/>
<svg:path d="M43650000 48350000 L43050000 48350000 "/>
<svg:path d="M43050000 48550000 L43650000 48550000 "/>
<svg:path d="M43050000 48350000 L43050000 48550000 "/>
<svg:path d="M56400000 49100000 L56950000 49100000 "/>
</svg:g>
<svg:g style="fill:#AFAFAF; fill-opacity:0.0;  stroke:#AFAFAF; stroke-width:203200.000000; stroke-opacity:1;  stroke-linecap:round; stroke-linejoin:round;">
<svg:path d="M56050000 48100000 L56050000 51400000 "/>
</svg:g>
<svg:g style="fill:#AFAFAF; fill-opacity:0.0;  stroke:#AFAFAF; stroke-width:101600.000000; stroke-opacity:1;  stroke-linecap:round; stroke-linejoin:round;">
<svg:path d="M56350000 49050000 L56400000 49100000 "/>
<svg:path d="M43600000 49100000 L43050000 49100000 "/>
<svg:path d="M56350000 48350000 L56950000 48350000 "/>
<svg:path d="M43800000 48050000 L43650000 48050000 "/>
<svg:path d="M43800000 49300000 L43800000 48100000 "/>
<svg:path d="M56350000 48050000 L56350000 48350000 "/>
<svg:path d="M56950000 49100000 L56950000 49300000 "/>
</svg:g>
<svg:g style="fill:#AFAFAF; fill-opacity:0.0;  stroke:#AFAFAF; stroke-width:203200.000000; stroke-opacity:1;  stroke-linecap:round; stroke-linejoin:round;">
<svg:path d="M43950000 51400000 L43950000 48100000 "/>
</svg:g>
<svg:g style="fill:#AFAFAF; fill-opacity:0.0;  stroke:#AFAFAF; stroke-width:101600.000000; stroke-opacity:1;  stroke-linecap:round; stroke-linejoin:round;">
<svg:path d="M43650000 48550000 L43650000 49050000 "/>
</svg:g>
<svg:g style="fill:#AFAFAF; fill-opacity:0.0;  stroke:#AFAFAF; stroke-width:203200.000000; stroke-opacity:1;  stroke-linecap:round; stroke-linejoin:round;">
<svg:path d="M43950000 48100000 L56050000 48100000 "/>
</svg:g>
<svg:g style="fill:#AFAFAF; fill-opacity:0.0;  stroke:#AFAFAF; stroke-width:101600.000000; stroke-opacity:1;  stroke-linecap:round; stroke-linejoin:round;">
<svg:path d="M56200000 49300000 L56200000 48100000 "/>
<svg:path d="M43650000 48050000 L43650000 48350000 "/>
<svg:path d="M56200000 48050000 L56350000 48050000 "/>
<svg:path d="M56950000 48550000 L56350000 48550000 "/>
<svg:path d="M43050000 49300000 L43800000 49300000 "/>
<svg:path d="M43050000 49100000 L43050000 49300000 "/>
<svg:path d="M56350000 48550000 L56350000 49050000 "/>
</svg:g>
<svg:g style="fill:#AFAFAF; fill-opacity:1.0;  stroke:#AFAFAF; stroke-width:1.000000; stroke-opacity:1;  stroke-linecap:round; stroke-linejoin:round;">
<svg:path style="fill:#AFAFAF; fill-opacity:1.0;  stroke:#AFAFAF; stroke-width:1.000000; stroke-opacity:1;  stroke-linecap:round; stroke-linejoin:round;fill-rule:evenodd;" d="M 53350000.000000,48000000.000000 53150000.000000,48000000.000000 53150000.000000,47300000.000000 53350000.000000,47300000.000000 Z"/> 
<svg:path style="fill:#AFAFAF; fill-opacity:1.0;  stroke:#AFAFAF; stroke-width:1.000000; stroke-opacity:1;  stroke-linecap:round; stroke-linejoin:round;fill-rule:evenodd;" d="M 50350000.000000,48000000.000000 50150000.000000,48000000.000000 50150000.000000,47300000.000000 50350000.000000,47300000.000000 Z"/> 
<svg:path style="fill:#AFAFAF; fill-opacity:1.0;  stroke:#AFAFAF; stroke-width:1.000000; stroke-opacity:1;  stroke-linecap:round; stroke-linejoin:round;fill-rule:evenodd;" d="M 52350000.000000,48000000.000000 52150000.000000,48000000.000000 52150000.000000,47300000.000000 52350000.000000,47300000.000000 Z"/> 
<svg:path style="fill:#AFAFAF; fill-opacity:1.0;  stroke:#AFAFAF; stroke-width:1.000000; stroke-opacity:1;  stroke-linecap:round; stroke-linejoin:round;fill-rule:evenodd;" d="M 49350000.000000,48000000.000000 49150000.000000,48000000.000000 49150000.000000,47300000.000000 49350000.000000,47300000.000000 Z"/> 
<svg:path style="fill:#AFAFAF; fill-opacity:1.0;  stroke:#AFAFAF; stroke-width:1.000000; stroke-opacity:1;  stroke-linecap:round; stroke-linejoin:round;fill-rule:evenodd;" d="M 52850000.000000,48000000.000000 52650000.000000,48000000.000000 52650000.000000,47300000.000000 52850000.000000,47300000.000000 Z"/> 
<svg:path style="fill:#AFAFAF; fill-opacity:1.0;  stroke:#AFAFAF; stroke-width:1.000000; stroke-opacity:1;  stroke-linecap:round; stroke-linejoin:round;fill-rule:evenodd;" d="M 46850000.000000,48000000.000000 46650000.000000,48000000.000000 46650000.000000,47300000.000000 46850000.000000,47300000.000000 Z"/> 
<svg:path style="fill:#AFAFAF; fill-opacity:1.0;  stroke:#AFAFAF; stroke-width:1.000000; stroke-opacity:1;  stroke-linecap:round; stroke-linejoin:round;fill-rule:evenodd;" d="M 51850000.000000,48000000.000000 51650000.000000,48000000.000000 51650000.000000,47300000.000000 51850000.000000,47300000.000000 Z"/> 
<svg:path style="fill:#AFAFAF; fill-opacity:1.0;  stroke:#AFAFAF; stroke-width:1.000000; stroke-opacity:1;  stroke-linecap:round; stroke-linejoin:round;fill-rule:evenodd;" d="M 49850000.000000,48000000.000000 49650000.000000,48000000.000000 49650000.000000,47300000.000000 49850000.000000,47300000.000000 Z"/> 
<svg:path style="fill:#AFAFAF; fill-opacity:1.0;  stroke:#AFAFAF; stroke-width:1.000000; stroke-opacity:1;  stroke-linecap:round; stroke-linejoin:round;fill-rule:evenodd;" d="M 48850000.000000,48000000.000000 48650000.000000,48000000.000000 48650000.000000,47300000.000000 48850000.000000,47300000.000000 Z"/> 
<svg:path style="fill:#AFAFAF; fill-opacity:1.0;  stroke:#AFAFAF; stroke-width:1.000000; stroke-opacity:1;  stroke-linecap:round; stroke-linejoin:round;fill-rule:evenodd;" d="M 51350000.000000,48000000.000000 51150000.000000,48000000.000000 51150000.000000,47300000.000000 51350000.000000,47300000.000000 Z"/> 
<svg:path style="fill:#AFAFAF; fill-opacity:1.0;  stroke:#AFAFAF; stroke-width:1.000000; stroke-opacity:1;  stroke-linecap:round; stroke-linejoin:round;fill-rule:evenodd;" d="M 46350000.000000,48000000.000000 46150000.000000,48000000.000000 46150000.000000,47300000.000000 46350000.000000,47300000.000000 Z"/> 
<svg:path style="fill:#AFAFAF; fill-opacity:1.0;  stroke:#AFAFAF; stroke-width:1.000000; stroke-opacity:1;  stroke-linecap:round; stroke-linejoin:round;fill-rule:evenodd;" d="M 53850000.000000,48000000.000000 53650000.000000,48000000.000000 53650000.000000,47300000.000000 53850000.000000,47300000.000000 Z"/> 
<svg:path style="fill:#AFAFAF; fill-opacity:1.0;  stroke:#AFAFAF; stroke-width:1.000000; stroke-opacity:1;  stroke-linecap:round; stroke-linejoin:round;fill-rule:evenodd;" d="M 48350000.000000,48000000.000000 48150000.000000,48000000.000000 48150000.000000,47300000.000000 48350000.000000,47300000.000000 Z"/> 
<svg:path style="fill:#AFAFAF; fill-opacity:1.0;  stroke:#AFAFAF; stroke-width:1.000000; stroke-opacity:1;  stroke-linecap:round; stroke-linejoin:round;fill-rule:evenodd;" d="M 47850000.000000,48000000.000000 47650000.000000,48000000.000000 47650000.000000,47300000.000000 47850000.000000,47300000.000000 Z"/> 
<svg:path style="fill:#AFAFAF; fill-opacity:1.0;  stroke:#AFAFAF; stroke-width:1.000000; stroke-opacity:1;  stroke-linecap:round; stroke-linejoin:round;fill-rule:evenodd;" d="M 50850000.000000,48000000.000000 50650000.000000,48000000.000000 50650000.000000,47300000.000000 50850000.000000,47300000.000000 Z"/> 
<svg:path style="fill:#AFAFAF; fill-opacity:1.0;  stroke:#AFAFAF; stroke-width:1.000000; stroke-opacity:1;  stroke-linecap:round; stroke-linejoin:round;fill-rule:evenodd;" d="M 47350000.000000,48000000.000000 47150000.000000,48000000.000000 47150000.000000,47300000.000000 47350000.000000,47300000.000000 Z"/> 
<svg:g>
</svg:g>
<svg:g>
</svg:g>
<svg:g>
</svg:g>
<svg:g>
</svg:g>
</svg:g>
<svg:g style="fill:#000000; fill-opacity:1.0;  stroke:#000000; stroke-width:1.000000; stroke-opacity:1;  stroke-linecap:round; stroke-linejoin:round;">
<svg:g>
</svg:g>
<svg:g>
</svg:g>
<svg:g>
</svg:g>
<svg:g>
</svg:g>
</svg:g> 
</svg:g><svg:g><svg:title>SVG Picture created as kicadBoard-F_Mask.svg date 2022/12/05 12:47:19 </svg:title>
  <svg:desc>Picture generated by PCBNEW </svg:desc>
<svg:g style="fill:#000000; fill-opacity:1.000000;stroke:#000000; stroke-opacity:1.000000; stroke-linecap:round; stroke-linejoin:round;" transform="translate(0 0) scale(1 1)">
</svg:g>
<svg:g style="fill:#000000; fill-opacity:0.0;  stroke:#000000; stroke-width:0.000000; stroke-opacity:1;  stroke-linecap:round; stroke-linejoin:round;">
</svg:g>
<svg:g style="fill:#D864FF; fill-opacity:0.0;  stroke:#D864FF; stroke-width:0.000000; stroke-opacity:1;  stroke-linecap:round; stroke-linejoin:round;">
</svg:g>
<svg:g style="fill:#D864FF; fill-opacity:1.0;  stroke:#D864FF; stroke-width:1.000000; stroke-opacity:1;  stroke-linecap:round; stroke-linejoin:round;">
<svg:path style="fill:#D864FF; fill-opacity:1.0;  stroke:#D864FF; stroke-width:1.000000; stroke-opacity:1;  stroke-linecap:round; stroke-linejoin:round;fill-rule:evenodd;" d="M 56300000.000000,51050000.000000 55000000.000000,51050000.000000 55000000.000000,48000000.000000 56300000.000000,48000000.000000 Z"/> 
<svg:path style="fill:#D864FF; fill-opacity:1.0;  stroke:#D864FF; stroke-width:1.000000; stroke-opacity:1;  stroke-linecap:round; stroke-linejoin:round;fill-rule:evenodd;" d="M 45000000.000000,51050000.000000 43700000.000000,51050000.000000 43700000.000000,48000000.000000 45000000.000000,48000000.000000 Z"/> 
<svg:path style="fill:#D864FF; fill-opacity:1.0;  stroke:#D864FF; stroke-width:1.000000; stroke-opacity:1;  stroke-linecap:round; stroke-linejoin:round;fill-rule:evenodd;" d="M 43750000.000000,50200000.000000 42600000.000000,50200000.000000 42600000.000000,48000000.000000 43750000.000000,48000000.000000 Z"/> 
<svg:path style="fill:#D864FF; fill-opacity:1.0;  stroke:#D864FF; stroke-width:1.000000; stroke-opacity:1;  stroke-linecap:round; stroke-linejoin:round;fill-rule:evenodd;" d="M 57400000.000000,50200000.000000 56250000.000000,50200000.000000 56250000.000000,48000000.000000 57400000.000000,48000000.000000 Z"/> 
<svg:g>
</svg:g>
<svg:g style="fill:#000000; fill-opacity:1.0;  stroke:#000000; stroke-width:1.000000; stroke-opacity:1;  stroke-linecap:round; stroke-linejoin:round;">
<svg:path style="fill:#000000; fill-opacity:1.0;  stroke:#000000; stroke-width:1.000000; stroke-opacity:1;  stroke-linecap:round; stroke-linejoin:round;fill-rule:evenodd;" d="M 45998400.000000,47100000.000000 46006134.000000,47061119.000000 46028158.000000,47028158.000000 46061119.000000,47006134.000000 46100000.000000,46998400.000000 46400000.000000,46998400.000000 46438881.000000,47006134.000000 46471842.000000,47028158.000000 46493866.000000,47061119.000000 46501600.000000,47100000.000000 46501600.000000,47900000.000000 46493866.000000,47938881.000000 46471842.000000,47971842.000000 46438881.000000,47993866.000000 46400000.000000,48001600.000000 46100000.000000,48001600.000000 46061119.000000,47993866.000000 46028158.000000,47971842.000000 46006134.000000,47938881.000000 45998400.000000,47900000.000000 Z"/> 
<svg:path style="fill:#000000; fill-opacity:1.0;  stroke:#000000; stroke-width:1.000000; stroke-opacity:1;  stroke-linecap:round; stroke-linejoin:round;fill-rule:evenodd;" d="M 46498400.000000,47100000.000000 46506134.000000,47061119.000000 46528158.000000,47028158.000000 46561119.000000,47006134.000000 46600000.000000,46998400.000000 46900000.000000,46998400.000000 46938881.000000,47006134.000000 46971842.000000,47028158.000000 46993866.000000,47061119.000000 47001600.000000,47100000.000000 47001600.000000,47900000.000000 46993866.000000,47938881.000000 46971842.000000,47971842.000000 46938881.000000,47993866.000000 46900000.000000,48001600.000000 46600000.000000,48001600.000000 46561119.000000,47993866.000000 46528158.000000,47971842.000000 46506134.000000,47938881.000000 46498400.000000,47900000.000000 Z"/> 
<svg:path style="fill:#000000; fill-opacity:1.0;  stroke:#000000; stroke-width:1.000000; stroke-opacity:1;  stroke-linecap:round; stroke-linejoin:round;fill-rule:evenodd;" d="M 46998400.000000,47100000.000000 47006134.000000,47061119.000000 47028158.000000,47028158.000000 47061119.000000,47006134.000000 47100000.000000,46998400.000000 47400000.000000,46998400.000000 47438881.000000,47006134.000000 47471842.000000,47028158.000000 47493866.000000,47061119.000000 47501600.000000,47100000.000000 47501600.000000,47900000.000000 47493866.000000,47938881.000000 47471842.000000,47971842.000000 47438881.000000,47993866.000000 47400000.000000,48001600.000000 47100000.000000,48001600.000000 47061119.000000,47993866.000000 47028158.000000,47971842.000000 47006134.000000,47938881.000000 46998400.000000,47900000.000000 Z"/> 
<svg:path style="fill:#000000; fill-opacity:1.0;  stroke:#000000; stroke-width:1.000000; stroke-opacity:1;  stroke-linecap:round; stroke-linejoin:round;fill-rule:evenodd;" d="M 47498400.000000,47100000.000000 47506134.000000,47061119.000000 47528158.000000,47028158.000000 47561119.000000,47006134.000000 47600000.000000,46998400.000000 47900000.000000,46998400.000000 47938881.000000,47006134.000000 47971842.000000,47028158.000000 47993866.000000,47061119.000000 48001600.000000,47100000.000000 48001600.000000,47900000.000000 47993866.000000,47938881.000000 47971842.000000,47971842.000000 47938881.000000,47993866.000000 47900000.000000,48001600.000000 47600000.000000,48001600.000000 47561119.000000,47993866.000000 47528158.000000,47971842.000000 47506134.000000,47938881.000000 47498400.000000,47900000.000000 Z"/> 
<svg:path style="fill:#000000; fill-opacity:1.0;  stroke:#000000; stroke-width:1.000000; stroke-opacity:1;  stroke-linecap:round; stroke-linejoin:round;fill-rule:evenodd;" d="M 47998400.000000,47100000.000000 48006134.000000,47061119.000000 48028158.000000,47028158.000000 48061119.000000,47006134.000000 48100000.000000,46998400.000000 48400000.000000,46998400.000000 48438881.000000,47006134.000000 48471842.000000,47028158.000000 48493866.000000,47061119.000000 48501600.000000,47100000.000000 48501600.000000,47900000.000000 48493866.000000,47938881.000000 48471842.000000,47971842.000000 48438881.000000,47993866.000000 48400000.000000,48001600.000000 48100000.000000,48001600.000000 48061119.000000,47993866.000000 48028158.000000,47971842.000000 48006134.000000,47938881.000000 47998400.000000,47900000.000000 Z"/> 
<svg:path style="fill:#000000; fill-opacity:1.0;  stroke:#000000; stroke-width:1.000000; stroke-opacity:1;  stroke-linecap:round; stroke-linejoin:round;fill-rule:evenodd;" d="M 48498400.000000,47100000.000000 48506134.000000,47061119.000000 48528158.000000,47028158.000000 48561119.000000,47006134.000000 48600000.000000,46998400.000000 48900000.000000,46998400.000000 48938881.000000,47006134.000000 48971842.000000,47028158.000000 48993866.000000,47061119.000000 49001600.000000,47100000.000000 49001600.000000,47900000.000000 48993866.000000,47938881.000000 48971842.000000,47971842.000000 48938881.000000,47993866.000000 48900000.000000,48001600.000000 48600000.000000,48001600.000000 48561119.000000,47993866.000000 48528158.000000,47971842.000000 48506134.000000,47938881.000000 48498400.000000,47900000.000000 Z"/> 
<svg:path style="fill:#000000; fill-opacity:1.0;  stroke:#000000; stroke-width:1.000000; stroke-opacity:1;  stroke-linecap:round; stroke-linejoin:round;fill-rule:evenodd;" d="M 48998400.000000,47100000.000000 49006134.000000,47061119.000000 49028158.000000,47028158.000000 49061119.000000,47006134.000000 49100000.000000,46998400.000000 49400000.000000,46998400.000000 49438881.000000,47006134.000000 49471842.000000,47028158.000000 49493866.000000,47061119.000000 49501600.000000,47100000.000000 49501600.000000,47900000.000000 49493866.000000,47938881.000000 49471842.000000,47971842.000000 49438881.000000,47993866.000000 49400000.000000,48001600.000000 49100000.000000,48001600.000000 49061119.000000,47993866.000000 49028158.000000,47971842.000000 49006134.000000,47938881.000000 48998400.000000,47900000.000000 Z"/> 
<svg:path style="fill:#000000; fill-opacity:1.0;  stroke:#000000; stroke-width:1.000000; stroke-opacity:1;  stroke-linecap:round; stroke-linejoin:round;fill-rule:evenodd;" d="M 49498400.000000,47100000.000000 49506134.000000,47061119.000000 49528158.000000,47028158.000000 49561119.000000,47006134.000000 49600000.000000,46998400.000000 49900000.000000,46998400.000000 49938881.000000,47006134.000000 49971842.000000,47028158.000000 49993866.000000,47061119.000000 50001600.000000,47100000.000000 50001600.000000,47900000.000000 49993866.000000,47938881.000000 49971842.000000,47971842.000000 49938881.000000,47993866.000000 49900000.000000,48001600.000000 49600000.000000,48001600.000000 49561119.000000,47993866.000000 49528158.000000,47971842.000000 49506134.000000,47938881.000000 49498400.000000,47900000.000000 Z"/> 
<svg:path style="fill:#000000; fill-opacity:1.0;  stroke:#000000; stroke-width:1.000000; stroke-opacity:1;  stroke-linecap:round; stroke-linejoin:round;fill-rule:evenodd;" d="M 49998400.000000,47100000.000000 50006134.000000,47061119.000000 50028158.000000,47028158.000000 50061119.000000,47006134.000000 50100000.000000,46998400.000000 50400000.000000,46998400.000000 50438881.000000,47006134.000000 50471842.000000,47028158.000000 50493866.000000,47061119.000000 50501600.000000,47100000.000000 50501600.000000,47900000.000000 50493866.000000,47938881.000000 50471842.000000,47971842.000000 50438881.000000,47993866.000000 50400000.000000,48001600.000000 50100000.000000,48001600.000000 50061119.000000,47993866.000000 50028158.000000,47971842.000000 50006134.000000,47938881.000000 49998400.000000,47900000.000000 Z"/> 
<svg:path style="fill:#000000; fill-opacity:1.0;  stroke:#000000; stroke-width:1.000000; stroke-opacity:1;  stroke-linecap:round; stroke-linejoin:round;fill-rule:evenodd;" d="M 50498400.000000,47100000.000000 50506134.000000,47061119.000000 50528158.000000,47028158.000000 50561119.000000,47006134.000000 50600000.000000,46998400.000000 50900000.000000,46998400.000000 50938881.000000,47006134.000000 50971842.000000,47028158.000000 50993866.000000,47061119.000000 51001600.000000,47100000.000000 51001600.000000,47900000.000000 50993866.000000,47938881.000000 50971842.000000,47971842.000000 50938881.000000,47993866.000000 50900000.000000,48001600.000000 50600000.000000,48001600.000000 50561119.000000,47993866.000000 50528158.000000,47971842.000000 50506134.000000,47938881.000000 50498400.000000,47900000.000000 Z"/> 
<svg:path style="fill:#000000; fill-opacity:1.0;  stroke:#000000; stroke-width:1.000000; stroke-opacity:1;  stroke-linecap:round; stroke-linejoin:round;fill-rule:evenodd;" d="M 50998400.000000,47100000.000000 51006134.000000,47061119.000000 51028158.000000,47028158.000000 51061119.000000,47006134.000000 51100000.000000,46998400.000000 51400000.000000,46998400.000000 51438881.000000,47006134.000000 51471842.000000,47028158.000000 51493866.000000,47061119.000000 51501600.000000,47100000.000000 51501600.000000,47900000.000000 51493866.000000,47938881.000000 51471842.000000,47971842.000000 51438881.000000,47993866.000000 51400000.000000,48001600.000000 51100000.000000,48001600.000000 51061119.000000,47993866.000000 51028158.000000,47971842.000000 51006134.000000,47938881.000000 50998400.000000,47900000.000000 Z"/> 
<svg:path style="fill:#000000; fill-opacity:1.0;  stroke:#000000; stroke-width:1.000000; stroke-opacity:1;  stroke-linecap:round; stroke-linejoin:round;fill-rule:evenodd;" d="M 51498400.000000,47100000.000000 51506134.000000,47061119.000000 51528158.000000,47028158.000000 51561119.000000,47006134.000000 51600000.000000,46998400.000000 51900000.000000,46998400.000000 51938881.000000,47006134.000000 51971842.000000,47028158.000000 51993866.000000,47061119.000000 52001600.000000,47100000.000000 52001600.000000,47900000.000000 51993866.000000,47938881.000000 51971842.000000,47971842.000000 51938881.000000,47993866.000000 51900000.000000,48001600.000000 51600000.000000,48001600.000000 51561119.000000,47993866.000000 51528158.000000,47971842.000000 51506134.000000,47938881.000000 51498400.000000,47900000.000000 Z"/> 
<svg:path style="fill:#000000; fill-opacity:1.0;  stroke:#000000; stroke-width:1.000000; stroke-opacity:1;  stroke-linecap:round; stroke-linejoin:round;fill-rule:evenodd;" d="M 51998400.000000,47100000.000000 52006134.000000,47061119.000000 52028158.000000,47028158.000000 52061119.000000,47006134.000000 52100000.000000,46998400.000000 52400000.000000,46998400.000000 52438881.000000,47006134.000000 52471842.000000,47028158.000000 52493866.000000,47061119.000000 52501600.000000,47100000.000000 52501600.000000,47900000.000000 52493866.000000,47938881.000000 52471842.000000,47971842.000000 52438881.000000,47993866.000000 52400000.000000,48001600.000000 52100000.000000,48001600.000000 52061119.000000,47993866.000000 52028158.000000,47971842.000000 52006134.000000,47938881.000000 51998400.000000,47900000.000000 Z"/> 
<svg:path style="fill:#000000; fill-opacity:1.0;  stroke:#000000; stroke-width:1.000000; stroke-opacity:1;  stroke-linecap:round; stroke-linejoin:round;fill-rule:evenodd;" d="M 52498400.000000,47100000.000000 52506134.000000,47061119.000000 52528158.000000,47028158.000000 52561119.000000,47006134.000000 52600000.000000,46998400.000000 52900000.000000,46998400.000000 52938881.000000,47006134.000000 52971842.000000,47028158.000000 52993866.000000,47061119.000000 53001600.000000,47100000.000000 53001600.000000,47900000.000000 52993866.000000,47938881.000000 52971842.000000,47971842.000000 52938881.000000,47993866.000000 52900000.000000,48001600.000000 52600000.000000,48001600.000000 52561119.000000,47993866.000000 52528158.000000,47971842.000000 52506134.000000,47938881.000000 52498400.000000,47900000.000000 Z"/> 
<svg:path style="fill:#000000; fill-opacity:1.0;  stroke:#000000; stroke-width:1.000000; stroke-opacity:1;  stroke-linecap:round; stroke-linejoin:round;fill-rule:evenodd;" d="M 52998400.000000,47100000.000000 53006134.000000,47061119.000000 53028158.000000,47028158.000000 53061119.000000,47006134.000000 53100000.000000,46998400.000000 53400000.000000,46998400.000000 53438881.000000,47006134.000000 53471842.000000,47028158.000000 53493866.000000,47061119.000000 53501600.000000,47100000.000000 53501600.000000,47900000.000000 53493866.000000,47938881.000000 53471842.000000,47971842.000000 53438881.000000,47993866.000000 53400000.000000,48001600.000000 53100000.000000,48001600.000000 53061119.000000,47993866.000000 53028158.000000,47971842.000000 53006134.000000,47938881.000000 52998400.000000,47900000.000000 Z"/> 
<svg:path style="fill:#000000; fill-opacity:1.0;  stroke:#000000; stroke-width:1.000000; stroke-opacity:1;  stroke-linecap:round; stroke-linejoin:round;fill-rule:evenodd;" d="M 53498400.000000,47100000.000000 53506134.000000,47061119.000000 53528158.000000,47028158.000000 53561119.000000,47006134.000000 53600000.000000,46998400.000000 53900000.000000,46998400.000000 53938881.000000,47006134.000000 53971842.000000,47028158.000000 53993866.000000,47061119.000000 54001600.000000,47100000.000000 54001600.000000,47900000.000000 53993866.000000,47938881.000000 53971842.000000,47971842.000000 53938881.000000,47993866.000000 53900000.000000,48001600.000000 53600000.000000,48001600.000000 53561119.000000,47993866.000000 53528158.000000,47971842.000000 53506134.000000,47938881.000000 53498400.000000,47900000.000000 Z"/> 
</svg:g>
<svg:g>
</svg:g>
<svg:g>
</svg:g>
<svg:g>
</svg:g>
</svg:g>
<svg:g style="fill:#000000; fill-opacity:1.0;  stroke:#000000; stroke-width:1.000000; stroke-opacity:1;  stroke-linecap:round; stroke-linejoin:round;">
<svg:g>
</svg:g>
<svg:g>
</svg:g>
<svg:g>
</svg:g>
<svg:g>
</svg:g>
</svg:g> 
</svg:g><svg:g><svg:title>SVG Picture created as kicadBoard-F_Paste.svg date 2022/12/05 12:47:19 </svg:title>
  <svg:desc>Picture generated by PCBNEW </svg:desc>
<svg:g style="fill:#000000; fill-opacity:1.000000;stroke:#000000; stroke-opacity:1.000000; stroke-linecap:round; stroke-linejoin:round;" transform="translate(0 0) scale(1 1)">
</svg:g>
<svg:g style="fill:#000000; fill-opacity:0.0;  stroke:#000000; stroke-width:0.000000; stroke-opacity:1;  stroke-linecap:round; stroke-linejoin:round;">
</svg:g>
<svg:g style="fill:#B4A09A; fill-opacity:0.0;  stroke:#B4A09A; stroke-width:0.000000; stroke-opacity:1;  stroke-linecap:round; stroke-linejoin:round;">
</svg:g>
<svg:g style="fill:#B4A09A; fill-opacity:1.0;  stroke:#B4A09A; stroke-width:1.000000; stroke-opacity:1;  stroke-linecap:round; stroke-linejoin:round;">
<svg:path style="fill:#B4A09A; fill-opacity:1.0;  stroke:#B4A09A; stroke-width:1.000000; stroke-opacity:1;  stroke-linecap:round; stroke-linejoin:round;fill-rule:evenodd;" d="M 44800000.000000,50050000.000000 42800000.000000,50050000.000000 42800000.000000,48150000.000000 44800000.000000,48150000.000000 Z"/> 
<svg:path style="fill:#B4A09A; fill-opacity:1.0;  stroke:#B4A09A; stroke-width:1.000000; stroke-opacity:1;  stroke-linecap:round; stroke-linejoin:round;fill-rule:evenodd;" d="M 57200000.000000,50050000.000000 55200000.000000,50050000.000000 55200000.000000,48150000.000000 57200000.000000,48150000.000000 Z"/> 
<svg:g>
</svg:g>
<svg:g style="fill:#000000; fill-opacity:1.0;  stroke:#000000; stroke-width:1.000000; stroke-opacity:1;  stroke-linecap:round; stroke-linejoin:round;">
<svg:path style="fill:#000000; fill-opacity:1.0;  stroke:#000000; stroke-width:1.000000; stroke-opacity:1;  stroke-linecap:round; stroke-linejoin:round;fill-rule:evenodd;" d="M 46100001.000000,47899999.000000 46100001.000000,47100001.000000 46399999.000000,47100001.000000 46399999.000000,47899999.000000 Z"/> 
<svg:path style="fill:#000000; fill-opacity:1.0;  stroke:#000000; stroke-width:1.000000; stroke-opacity:1;  stroke-linecap:round; stroke-linejoin:round;fill-rule:evenodd;" d="M 46600001.000000,47899999.000000 46600001.000000,47100001.000000 46899999.000000,47100001.000000 46899999.000000,47899999.000000 Z"/> 
<svg:path style="fill:#000000; fill-opacity:1.0;  stroke:#000000; stroke-width:1.000000; stroke-opacity:1;  stroke-linecap:round; stroke-linejoin:round;fill-rule:evenodd;" d="M 47100001.000000,47899999.000000 47100001.000000,47100001.000000 47399999.000000,47100001.000000 47399999.000000,47899999.000000 Z"/> 
<svg:path style="fill:#000000; fill-opacity:1.0;  stroke:#000000; stroke-width:1.000000; stroke-opacity:1;  stroke-linecap:round; stroke-linejoin:round;fill-rule:evenodd;" d="M 47600001.000000,47899999.000000 47600001.000000,47100001.000000 47899999.000000,47100001.000000 47899999.000000,47899999.000000 Z"/> 
<svg:path style="fill:#000000; fill-opacity:1.0;  stroke:#000000; stroke-width:1.000000; stroke-opacity:1;  stroke-linecap:round; stroke-linejoin:round;fill-rule:evenodd;" d="M 48100001.000000,47899999.000000 48100001.000000,47100001.000000 48399999.000000,47100001.000000 48399999.000000,47899999.000000 Z"/> 
<svg:path style="fill:#000000; fill-opacity:1.0;  stroke:#000000; stroke-width:1.000000; stroke-opacity:1;  stroke-linecap:round; stroke-linejoin:round;fill-rule:evenodd;" d="M 48600001.000000,47899999.000000 48600001.000000,47100001.000000 48899999.000000,47100001.000000 48899999.000000,47899999.000000 Z"/> 
<svg:path style="fill:#000000; fill-opacity:1.0;  stroke:#000000; stroke-width:1.000000; stroke-opacity:1;  stroke-linecap:round; stroke-linejoin:round;fill-rule:evenodd;" d="M 49100001.000000,47899999.000000 49100001.000000,47100001.000000 49399999.000000,47100001.000000 49399999.000000,47899999.000000 Z"/> 
<svg:path style="fill:#000000; fill-opacity:1.0;  stroke:#000000; stroke-width:1.000000; stroke-opacity:1;  stroke-linecap:round; stroke-linejoin:round;fill-rule:evenodd;" d="M 49600001.000000,47899999.000000 49600001.000000,47100001.000000 49899999.000000,47100001.000000 49899999.000000,47899999.000000 Z"/> 
<svg:path style="fill:#000000; fill-opacity:1.0;  stroke:#000000; stroke-width:1.000000; stroke-opacity:1;  stroke-linecap:round; stroke-linejoin:round;fill-rule:evenodd;" d="M 50100001.000000,47899999.000000 50100001.000000,47100001.000000 50399999.000000,47100001.000000 50399999.000000,47899999.000000 Z"/> 
<svg:path style="fill:#000000; fill-opacity:1.0;  stroke:#000000; stroke-width:1.000000; stroke-opacity:1;  stroke-linecap:round; stroke-linejoin:round;fill-rule:evenodd;" d="M 50600001.000000,47899999.000000 50600001.000000,47100001.000000 50899999.000000,47100001.000000 50899999.000000,47899999.000000 Z"/> 
<svg:path style="fill:#000000; fill-opacity:1.0;  stroke:#000000; stroke-width:1.000000; stroke-opacity:1;  stroke-linecap:round; stroke-linejoin:round;fill-rule:evenodd;" d="M 51100001.000000,47899999.000000 51100001.000000,47100001.000000 51399999.000000,47100001.000000 51399999.000000,47899999.000000 Z"/> 
<svg:path style="fill:#000000; fill-opacity:1.0;  stroke:#000000; stroke-width:1.000000; stroke-opacity:1;  stroke-linecap:round; stroke-linejoin:round;fill-rule:evenodd;" d="M 51600001.000000,47899999.000000 51600001.000000,47100001.000000 51899999.000000,47100001.000000 51899999.000000,47899999.000000 Z"/> 
<svg:path style="fill:#000000; fill-opacity:1.0;  stroke:#000000; stroke-width:1.000000; stroke-opacity:1;  stroke-linecap:round; stroke-linejoin:round;fill-rule:evenodd;" d="M 52100001.000000,47899999.000000 52100001.000000,47100001.000000 52399999.000000,47100001.000000 52399999.000000,47899999.000000 Z"/> 
<svg:path style="fill:#000000; fill-opacity:1.0;  stroke:#000000; stroke-width:1.000000; stroke-opacity:1;  stroke-linecap:round; stroke-linejoin:round;fill-rule:evenodd;" d="M 52600001.000000,47899999.000000 52600001.000000,47100001.000000 52899999.000000,47100001.000000 52899999.000000,47899999.000000 Z"/> 
<svg:path style="fill:#000000; fill-opacity:1.0;  stroke:#000000; stroke-width:1.000000; stroke-opacity:1;  stroke-linecap:round; stroke-linejoin:round;fill-rule:evenodd;" d="M 53100001.000000,47899999.000000 53100001.000000,47100001.000000 53399999.000000,47100001.000000 53399999.000000,47899999.000000 Z"/> 
<svg:path style="fill:#000000; fill-opacity:1.0;  stroke:#000000; stroke-width:1.000000; stroke-opacity:1;  stroke-linecap:round; stroke-linejoin:round;fill-rule:evenodd;" d="M 53600001.000000,47899999.000000 53600001.000000,47100001.000000 53899999.000000,47100001.000000 53899999.000000,47899999.000000 Z"/> 
</svg:g>
<svg:g>
</svg:g>
<svg:g>
</svg:g>
<svg:g>
</svg:g>
</svg:g>
<svg:g style="fill:#000000; fill-opacity:1.0;  stroke:#000000; stroke-width:1.000000; stroke-opacity:1;  stroke-linecap:round; stroke-linejoin:round;">
<svg:g>
</svg:g>
<svg:g>
</svg:g>
<svg:g>
</svg:g>
<svg:g>
</svg:g>
</svg:g> 
</svg:g><svg:g><svg:title>SVG Picture created as kicadBoard-F_Silkscreen.svg date 2022/12/05 12:47:19 </svg:title>
  <svg:desc>Picture generated by PCBNEW </svg:desc>
<svg:g style="fill:#000000; fill-opacity:1.000000;stroke:#000000; stroke-opacity:1.000000; stroke-linecap:round; stroke-linejoin:round;" transform="translate(0 0) scale(1 1)">
</svg:g>
<svg:g style="fill:#000000; fill-opacity:0.0;  stroke:#000000; stroke-width:0.000000; stroke-opacity:1;  stroke-linecap:round; stroke-linejoin:round;">
</svg:g>
<svg:g style="fill:#F2EDA1; fill-opacity:0.0;  stroke:#F2EDA1; stroke-width:0.000000; stroke-opacity:1;  stroke-linecap:round; stroke-linejoin:round;">
</svg:g>
<svg:g style="fill:#F2EDA1; fill-opacity:0.0;  stroke:#F2EDA1; stroke-width:101600.000000; stroke-opacity:1;  stroke-linecap:round; stroke-linejoin:round;">
<svg:text x="42920000.000000" y="46730000.000000" textLength="18138020.000000" font-size="1557866.000000" lengthAdjust="spacingAndGlyphs" text-anchor="start" opacity="0">FZECONMX52745169</svg:text>
<svg:g class="stroked-text"><svg:desc>FZECONMX52745169</svg:desc>
<svg:path d="M43653697 46062342 L43264230 46062342 "/>
<svg:path d="M43264230 46674361 L43264230 45505961 L43820611 45505961 "/>
<svg:path d="M44154440 45505961 L44933373 45505961 L44154440 46674361 L44933373 46674361 "/>
<svg:path d="M45378478 46062342 L45767944 46062342 "/>
<svg:path d="M45934859 46674361 L45378478 46674361 L45378478 45505961 L45934859 45505961 "/>
<svg:path d="M47103259 46563085 L47047620 46618723 L46880706 46674361 L46769430 46674361 L46602516 46618723 L46491240 46507447 L46435601 46396171 L46379963 46173619 L46379963 46006704 L46435601 45784152 L46491240 45672876 L46602516 45561600 L46769430 45505961 L46880706 45505961 L47047620 45561600 L47103259 45617238 "/>
<svg:path d="M47826554 45505961 L48049106 45505961 L48160382 45561600 L48271659 45672876 L48327297 45895428 L48327297 46284895 L48271659 46507447 L48160382 46618723 L48049106 46674361 L47826554 46674361 L47715278 46618723 L47604001 46507447 L47548363 46284895 L47548363 45895428 L47604001 45672876 L47715278 45561600 L47826554 45505961 "/>
<svg:path d="M48828040 46674361 L48828040 45505961 L49495697 46674361 L49495697 45505961 "/>
<svg:path d="M50052078 46674361 L50052078 45505961 L50441544 46340533 L50831011 45505961 L50831011 46674361 "/>
<svg:path d="M51276116 45505961 L52055049 46674361 "/>
<svg:path d="M52055049 45505961 L51276116 46674361 "/>
<svg:path d="M53056535 45505961 L52500154 45505961 L52444516 46062342 L52500154 46006704 L52611430 45951066 L52889620 45951066 L53000897 46006704 L53056535 46062342 L53112173 46173619 L53112173 46451809 L53056535 46563085 L53000897 46618723 L52889620 46674361 L52611430 46674361 L52500154 46618723 L52444516 46563085 "/>
<svg:path d="M53557278 45617238 L53612916 45561600 L53724192 45505961 L54002382 45505961 L54113659 45561600 L54169297 45617238 L54224935 45728514 L54224935 45839790 L54169297 46006704 L53501640 46674361 L54224935 46674361 "/>
<svg:path d="M54614401 45505961 L55393335 45505961 L54892592 46674361 "/>
<svg:path d="M56339182 45895428 L56339182 46674361 "/>
<svg:path d="M56060992 45450323 L55782801 46284895 L56506097 46284895 "/>
<svg:path d="M57507582 45505961 L56951201 45505961 L56895563 46062342 L56951201 46006704 L57062478 45951066 L57340668 45951066 L57451944 46006704 L57507582 46062342 L57563220 46173619 L57563220 46451809 L57507582 46563085 L57451944 46618723 L57340668 46674361 L57062478 46674361 L56951201 46618723 L56895563 46563085 "/>
<svg:path d="M58675982 46674361 L58008325 46674361 "/>
<svg:path d="M58342154 46674361 L58342154 45505961 L58230878 45672876 L58119601 45784152 L58008325 45839790 "/>
<svg:path d="M59677468 45505961 L59454916 45505961 L59343640 45561600 L59288001 45617238 L59176725 45784152 L59121087 46006704 L59121087 46451809 L59176725 46563085 L59232363 46618723 L59343640 46674361 L59566192 46674361 L59677468 46618723 L59733106 46563085 L59788744 46451809 L59788744 46173619 L59733106 46062342 L59677468 46006704 L59566192 45951066 L59343640 45951066 L59232363 46006704 L59176725 46062342 L59121087 46173619 "/>
<svg:path d="M60345125 46674361 L60567678 46674361 L60678954 46618723 L60734592 46563085 L60845868 46396171 L60901506 46173619 L60901506 45728514 L60845868 45617238 L60790230 45561600 L60678954 45505961 L60456401 45505961 L60345125 45561600 L60289487 45617238 L60233849 45728514 L60233849 46006704 L60289487 46117980 L60345125 46173619 L60456401 46229257 L60678954 46229257 L60790230 46173619 L60845868 46117980 L60901506 46006704 "/>
</svg:g><svg:path d="M46200000 53250000 L46200000 53100000 "/>
</svg:g>
<svg:g style="fill:#F2EDA1; fill-opacity:0.0;  stroke:#F2EDA1; stroke-width:203200.000000; stroke-opacity:1;  stroke-linecap:round; stroke-linejoin:round;">
<svg:path d="M56950000 53000000 L43050000 53000000 "/>
</svg:g>
<svg:g style="fill:#F2EDA1; fill-opacity:0.0;  stroke:#F2EDA1; stroke-width:101600.000000; stroke-opacity:1;  stroke-linecap:round; stroke-linejoin:round;">
<svg:path d="M53800000 53250000 L54050000 53500000 "/>
</svg:g>
<svg:g style="fill:#F2EDA1; fill-opacity:0.0;  stroke:#F2EDA1; stroke-width:203200.000000; stroke-opacity:1;  stroke-linecap:round; stroke-linejoin:round;">
<svg:path d="M43050000 53000000 L43050000 53500000 "/>
<svg:path d="M56850000 53600000 L56950000 53500000 "/>
</svg:g>
<svg:g style="fill:#F2EDA1; fill-opacity:0.0;  stroke:#F2EDA1; stroke-width:101600.000000; stroke-opacity:1;  stroke-linecap:round; stroke-linejoin:round;">
<svg:path d="M45950000 53100000 L45950000 53500000 "/>
<svg:path d="M54050000 53500000 L54050000 53100000 "/>
</svg:g>
<svg:g style="fill:#F2EDA1; fill-opacity:0.0;  stroke:#F2EDA1; stroke-width:203200.000000; stroke-opacity:1;  stroke-linecap:round; stroke-linejoin:round;">
<svg:path d="M43050000 53500000 L43150000 53600000 "/>
<svg:path d="M56050000 51400000 L43950000 51400000 "/>
<svg:path d="M54500000 51250000 L54500000 49000000 "/>
<svg:path d="M44500000 51500000 L44500000 52900000 "/>
<svg:path d="M45500000 49000000 L45500000 51250000 "/>
</svg:g>
<svg:g style="fill:#F2EDA1; fill-opacity:0.0;  stroke:#F2EDA1; stroke-width:101600.000000; stroke-opacity:1;  stroke-linecap:round; stroke-linejoin:round;">
<svg:path d="M53800000 53100000 L53800000 53250000 "/>
</svg:g>
<svg:g style="fill:#F2EDA1; fill-opacity:0.0;  stroke:#F2EDA1; stroke-width:203200.000000; stroke-opacity:1;  stroke-linecap:round; stroke-linejoin:round;">
<svg:path d="M45350000 51250000 L45350000 49000000 "/>
<svg:path d="M55500000 51500000 L55500000 52900000 "/>
<svg:path d="M54650000 49000000 L54650000 51250000 "/>
<svg:path d="M43150000 53600000 L56850000 53600000 "/>
</svg:g>
<svg:g style="fill:#F2EDA1; fill-opacity:0.0;  stroke:#F2EDA1; stroke-width:101600.000000; stroke-opacity:1;  stroke-linecap:round; stroke-linejoin:round;">
<svg:path d="M45950000 53500000 L46200000 53250000 "/>
</svg:g>
<svg:g style="fill:#F2EDA1; fill-opacity:0.0;  stroke:#F2EDA1; stroke-width:203200.000000; stroke-opacity:1;  stroke-linecap:round; stroke-linejoin:round;">
<svg:path d="M56950000 53500000 L56950000 53000000 "/>
<svg:path d="M54650000.000000 49000000.000000 A75000.000000 75000.000000 0.0 0 0 54500000.000000 49000000.000000"/>
<svg:path d="M45500000.000000 49000000.000000 A75000.000000 75000.000000 0.0 0 0 45350000.000000 49000000.000000"/>
</svg:g>
<svg:g style="fill:#F2EDA1; fill-opacity:1.0;  stroke:#F2EDA1; stroke-width:1.000000; stroke-opacity:1;  stroke-linecap:round; stroke-linejoin:round;">
<svg:path style="fill:#F2EDA1; fill-opacity:1.0;  stroke:#F2EDA1; stroke-width:1.000000; stroke-opacity:1;  stroke-linecap:round; stroke-linejoin:round;fill-rule:evenodd;" d="M 46300800.000000,51183720.000000 46300800.000000,51300800.000000 45699200.000000,51300800.000000 45699200.000000,51183720.000000 46000000.000000,50762600.000000 Z"/> 
<svg:g>
</svg:g>
<svg:g>
</svg:g>
<svg:g>
</svg:g>
<svg:g>
</svg:g>
</svg:g>
<svg:g style="fill:#000000; fill-opacity:1.0;  stroke:#000000; stroke-width:1.000000; stroke-opacity:1;  stroke-linecap:round; stroke-linejoin:round;">
<svg:g>
</svg:g>
<svg:g>
</svg:g>
<svg:g>
</svg:g>
<svg:g>
</svg:g>
</svg:g> 
</svg:g><svg:g><svg:title>SVG Picture created as kicadBoard-Margin.svg date 2022/12/05 12:47:19 </svg:title>
  <svg:desc>Picture generated by PCBNEW </svg:desc>
<svg:g style="fill:#000000; fill-opacity:1.000000;stroke:#000000; stroke-opacity:1.000000; stroke-linecap:round; stroke-linejoin:round;" transform="translate(0 0) scale(1 1)">
</svg:g>
<svg:g style="fill:#000000; fill-opacity:0.0;  stroke:#000000; stroke-width:0.000000; stroke-opacity:1;  stroke-linecap:round; stroke-linejoin:round;">
<svg:g>
</svg:g>
<svg:g>
</svg:g>
<svg:g>
</svg:g>
<svg:g>
</svg:g>
</svg:g>
<svg:g style="fill:#000000; fill-opacity:0.0;  stroke:#000000; stroke-width:0.000000; stroke-opacity:1;  stroke-linecap:round; stroke-linejoin:round;">
<svg:g>
</svg:g>
<svg:g>
</svg:g>
<svg:g>
</svg:g>
<svg:g>
</svg:g>
</svg:g> 
</svg:g><svg:g><svg:title>SVG Picture created as kicadBoard-F_Cu.svg date 2022/12/05 12:47:19 </svg:title>
  <svg:desc>Picture generated by PCBNEW </svg:desc>
<svg:g style="fill:#000000; fill-opacity:1.000000;stroke:#000000; stroke-opacity:1.000000; stroke-linecap:round; stroke-linejoin:round;" transform="translate(0 0) scale(1 1)">
</svg:g>
<svg:g style="fill:#000000; fill-opacity:0.0;  stroke:#000000; stroke-width:0.000000; stroke-opacity:1;  stroke-linecap:round; stroke-linejoin:round;">
</svg:g>
<svg:g style="fill:#C83434; fill-opacity:0.0;  stroke:#C83434; stroke-width:0.000000; stroke-opacity:1;  stroke-linecap:round; stroke-linejoin:round;">
</svg:g>
<svg:g style="fill:#C83434; fill-opacity:1.0;  stroke:#C83434; stroke-width:1.000000; stroke-opacity:1;  stroke-linecap:round; stroke-linejoin:round;">
<svg:path style="fill:#C83434; fill-opacity:1.0;  stroke:#C83434; stroke-width:1.000000; stroke-opacity:1;  stroke-linecap:round; stroke-linejoin:round;fill-rule:evenodd;" d="M 45000000.000000,50200000.000000 42600000.000000,50200000.000000 42600000.000000,48000000.000000 45000000.000000,48000000.000000 Z"/> 
<svg:path style="fill:#C83434; fill-opacity:1.0;  stroke:#C83434; stroke-width:1.000000; stroke-opacity:1;  stroke-linecap:round; stroke-linejoin:round;fill-rule:evenodd;" d="M 45000000.000000,51050000.000000 43700000.000000,51050000.000000 43700000.000000,50200000.000000 45000000.000000,50200000.000000 Z"/> 
<svg:path style="fill:#C83434; fill-opacity:1.0;  stroke:#C83434; stroke-width:1.000000; stroke-opacity:1;  stroke-linecap:round; stroke-linejoin:round;fill-rule:evenodd;" d="M 57400000.000000,50200000.000000 55000000.000000,50200000.000000 55000000.000000,48000000.000000 57400000.000000,48000000.000000 Z"/> 
<svg:path style="fill:#C83434; fill-opacity:1.0;  stroke:#C83434; stroke-width:1.000000; stroke-opacity:1;  stroke-linecap:round; stroke-linejoin:round;fill-rule:evenodd;" d="M 56300000.000000,51050000.000000 55000000.000000,51050000.000000 55000000.000000,50200000.000000 56300000.000000,50200000.000000 Z"/> 
<svg:g>
<svg:path style="fill:#C83434; fill-opacity:1.0;  stroke:#C83434; stroke-width:1.000000; stroke-opacity:1;  stroke-linecap:round; stroke-linejoin:round;fill-rule:evenodd;" d="M 46100001.000000,47899999.000000 46100001.000000,47100001.000000 46399999.000000,47100001.000000 46399999.000000,47899999.000000 Z"/> 
<svg:path style="fill:#C83434; fill-opacity:1.0;  stroke:#C83434; stroke-width:1.000000; stroke-opacity:1;  stroke-linecap:round; stroke-linejoin:round;fill-rule:evenodd;" d="M 46600001.000000,47899999.000000 46600001.000000,47100001.000000 46899999.000000,47100001.000000 46899999.000000,47899999.000000 Z"/> 
<svg:path style="fill:#C83434; fill-opacity:1.0;  stroke:#C83434; stroke-width:1.000000; stroke-opacity:1;  stroke-linecap:round; stroke-linejoin:round;fill-rule:evenodd;" d="M 47100001.000000,47899999.000000 47100001.000000,47100001.000000 47399999.000000,47100001.000000 47399999.000000,47899999.000000 Z"/> 
<svg:path style="fill:#C83434; fill-opacity:1.0;  stroke:#C83434; stroke-width:1.000000; stroke-opacity:1;  stroke-linecap:round; stroke-linejoin:round;fill-rule:evenodd;" d="M 47600001.000000,47899999.000000 47600001.000000,47100001.000000 47899999.000000,47100001.000000 47899999.000000,47899999.000000 Z"/> 
<svg:path style="fill:#C83434; fill-opacity:1.0;  stroke:#C83434; stroke-width:1.000000; stroke-opacity:1;  stroke-linecap:round; stroke-linejoin:round;fill-rule:evenodd;" d="M 48100001.000000,47899999.000000 48100001.000000,47100001.000000 48399999.000000,47100001.000000 48399999.000000,47899999.000000 Z"/> 
<svg:path style="fill:#C83434; fill-opacity:1.0;  stroke:#C83434; stroke-width:1.000000; stroke-opacity:1;  stroke-linecap:round; stroke-linejoin:round;fill-rule:evenodd;" d="M 48600001.000000,47899999.000000 48600001.000000,47100001.000000 48899999.000000,47100001.000000 48899999.000000,47899999.000000 Z"/> 
<svg:path style="fill:#C83434; fill-opacity:1.0;  stroke:#C83434; stroke-width:1.000000; stroke-opacity:1;  stroke-linecap:round; stroke-linejoin:round;fill-rule:evenodd;" d="M 49100001.000000,47899999.000000 49100001.000000,47100001.000000 49399999.000000,47100001.000000 49399999.000000,47899999.000000 Z"/> 
<svg:path style="fill:#C83434; fill-opacity:1.0;  stroke:#C83434; stroke-width:1.000000; stroke-opacity:1;  stroke-linecap:round; stroke-linejoin:round;fill-rule:evenodd;" d="M 49600001.000000,47899999.000000 49600001.000000,47100001.000000 49899999.000000,47100001.000000 49899999.000000,47899999.000000 Z"/> 
<svg:path style="fill:#C83434; fill-opacity:1.0;  stroke:#C83434; stroke-width:1.000000; stroke-opacity:1;  stroke-linecap:round; stroke-linejoin:round;fill-rule:evenodd;" d="M 50100001.000000,47899999.000000 50100001.000000,47100001.000000 50399999.000000,47100001.000000 50399999.000000,47899999.000000 Z"/> 
<svg:path style="fill:#C83434; fill-opacity:1.0;  stroke:#C83434; stroke-width:1.000000; stroke-opacity:1;  stroke-linecap:round; stroke-linejoin:round;fill-rule:evenodd;" d="M 50600001.000000,47899999.000000 50600001.000000,47100001.000000 50899999.000000,47100001.000000 50899999.000000,47899999.000000 Z"/> 
<svg:path style="fill:#C83434; fill-opacity:1.0;  stroke:#C83434; stroke-width:1.000000; stroke-opacity:1;  stroke-linecap:round; stroke-linejoin:round;fill-rule:evenodd;" d="M 51100001.000000,47899999.000000 51100001.000000,47100001.000000 51399999.000000,47100001.000000 51399999.000000,47899999.000000 Z"/> 
<svg:path style="fill:#C83434; fill-opacity:1.0;  stroke:#C83434; stroke-width:1.000000; stroke-opacity:1;  stroke-linecap:round; stroke-linejoin:round;fill-rule:evenodd;" d="M 51600001.000000,47899999.000000 51600001.000000,47100001.000000 51899999.000000,47100001.000000 51899999.000000,47899999.000000 Z"/> 
<svg:path style="fill:#C83434; fill-opacity:1.0;  stroke:#C83434; stroke-width:1.000000; stroke-opacity:1;  stroke-linecap:round; stroke-linejoin:round;fill-rule:evenodd;" d="M 52100001.000000,47899999.000000 52100001.000000,47100001.000000 52399999.000000,47100001.000000 52399999.000000,47899999.000000 Z"/> 
<svg:path style="fill:#C83434; fill-opacity:1.0;  stroke:#C83434; stroke-width:1.000000; stroke-opacity:1;  stroke-linecap:round; stroke-linejoin:round;fill-rule:evenodd;" d="M 52600001.000000,47899999.000000 52600001.000000,47100001.000000 52899999.000000,47100001.000000 52899999.000000,47899999.000000 Z"/> 
<svg:path style="fill:#C83434; fill-opacity:1.0;  stroke:#C83434; stroke-width:1.000000; stroke-opacity:1;  stroke-linecap:round; stroke-linejoin:round;fill-rule:evenodd;" d="M 53100001.000000,47899999.000000 53100001.000000,47100001.000000 53399999.000000,47100001.000000 53399999.000000,47899999.000000 Z"/> 
<svg:path style="fill:#C83434; fill-opacity:1.0;  stroke:#C83434; stroke-width:1.000000; stroke-opacity:1;  stroke-linecap:round; stroke-linejoin:round;fill-rule:evenodd;" d="M 53600001.000000,47899999.000000 53600001.000000,47100001.000000 53899999.000000,47100001.000000 53899999.000000,47899999.000000 Z"/> 
</svg:g>
<svg:g>
</svg:g>
<svg:g>
</svg:g>
<svg:g>
</svg:g>
</svg:g>
<svg:g style="fill:#FFFFFF; fill-opacity:1.0;  stroke:#FFFFFF; stroke-width:1.000000; stroke-opacity:1;  stroke-linecap:round; stroke-linejoin:round;">
</svg:g>
<svg:g style="fill:#000000; fill-opacity:1.0;  stroke:#000000; stroke-width:1.000000; stroke-opacity:1;  stroke-linecap:round; stroke-linejoin:round;">
<svg:g>
</svg:g>
<svg:g>
</svg:g>
<svg:g>
</svg:g>
<svg:g>
</svg:g>
</svg:g> 
</svg:g></svg>
