<?xml version='1.0' encoding='ASCII' standalone='yes'?>
<svg xmlns:svg="http://www.w3.org/2000/svg" xmlns="http://www.w3.org/2000/svg" xmlns:xlink="http://www.w3.org/1999/xlink" version="1.1" width="9.999980cm" height="9.999980cm" viewBox="0 0 99999800 99999800">
<title>SVG Picture created as kicadBoard-B_Cu.svg date 2022/11/19 05:07:10 </title>
  <desc>Picture generated by PCBNEW </desc>
<g style="fill:#000000; fill-opacity:1.000000;stroke:#000000; stroke-opacity:1.000000; stroke-linecap:round; stroke-linejoin:round;" transform="translate(0 0) scale(1 1)">
</g>
<g style="fill:#000000; fill-opacity:0.0;  stroke:#000000; stroke-width:0.000000; stroke-opacity:1;  stroke-linecap:round; stroke-linejoin:round;">
<g>
</g>
<g>
</g>
<g>
</g>
<g>
</g>
</g>
<g style="fill:#FFFFFF; fill-opacity:0.0;  stroke:#FFFFFF; stroke-width:0.000000; stroke-opacity:1;  stroke-linecap:round; stroke-linejoin:round;">
</g>
<g style="fill:#000000; fill-opacity:0.0;  stroke:#000000; stroke-width:0.000000; stroke-opacity:1;  stroke-linecap:round; stroke-linejoin:round;">
<g>
</g>
<g>
</g>
<g>
</g>
<g>
</g>
</g> 
<svg:g><svg:title>SVG Picture created as kicadBoard-B_Adhesive.svg date 2022/11/19 05:07:10 </svg:title>
  <svg:desc>Picture generated by PCBNEW </svg:desc>
<svg:g style="fill:#000000; fill-opacity:1.000000;stroke:#000000; stroke-opacity:1.000000; stroke-linecap:round; stroke-linejoin:round;" transform="translate(0 0) scale(1 1)">
</svg:g>
<svg:g style="fill:#000000; fill-opacity:0.0;  stroke:#000000; stroke-width:0.000000; stroke-opacity:1;  stroke-linecap:round; stroke-linejoin:round;">
<svg:g>
</svg:g>
<svg:g>
</svg:g>
<svg:g>
</svg:g>
<svg:g>
</svg:g>
</svg:g>
<svg:g style="fill:#000000; fill-opacity:0.0;  stroke:#000000; stroke-width:0.000000; stroke-opacity:1;  stroke-linecap:round; stroke-linejoin:round;">
<svg:g>
</svg:g>
<svg:g>
</svg:g>
<svg:g>
</svg:g>
<svg:g>
</svg:g>
</svg:g> 
</svg:g><svg:g><svg:title>SVG Picture created as kicadBoard-B_Courtyard.svg date 2022/11/19 05:07:10 </svg:title>
  <svg:desc>Picture generated by PCBNEW </svg:desc>
<svg:g style="fill:#000000; fill-opacity:1.000000;stroke:#000000; stroke-opacity:1.000000; stroke-linecap:round; stroke-linejoin:round;" transform="translate(0 0) scale(1 1)">
</svg:g>
<svg:g style="fill:#000000; fill-opacity:0.0;  stroke:#000000; stroke-width:0.000000; stroke-opacity:1;  stroke-linecap:round; stroke-linejoin:round;">
<svg:g>
</svg:g>
<svg:g>
</svg:g>
<svg:g>
</svg:g>
<svg:g>
</svg:g>
</svg:g>
<svg:g style="fill:#000000; fill-opacity:0.0;  stroke:#000000; stroke-width:0.000000; stroke-opacity:1;  stroke-linecap:round; stroke-linejoin:round;">
<svg:g>
</svg:g>
<svg:g>
</svg:g>
<svg:g>
</svg:g>
<svg:g>
</svg:g>
</svg:g> 
</svg:g><svg:g><svg:title>SVG Picture created as kicadBoard-B_Fab.svg date 2022/11/19 05:07:10 </svg:title>
  <svg:desc>Picture generated by PCBNEW </svg:desc>
<svg:g style="fill:#000000; fill-opacity:1.000000;stroke:#000000; stroke-opacity:1.000000; stroke-linecap:round; stroke-linejoin:round;" transform="translate(0 0) scale(1 1)">
</svg:g>
<svg:g style="fill:#000000; fill-opacity:0.0;  stroke:#000000; stroke-width:0.000000; stroke-opacity:1;  stroke-linecap:round; stroke-linejoin:round;">
<svg:g>
</svg:g>
<svg:g>
</svg:g>
<svg:g>
</svg:g>
<svg:g>
</svg:g>
</svg:g>
<svg:g style="fill:#000000; fill-opacity:0.0;  stroke:#000000; stroke-width:0.000000; stroke-opacity:1;  stroke-linecap:round; stroke-linejoin:round;">
<svg:g>
</svg:g>
<svg:g>
</svg:g>
<svg:g>
</svg:g>
<svg:g>
</svg:g>
</svg:g> 
</svg:g><svg:g><svg:title>SVG Picture created as kicadBoard-B_Mask.svg date 2022/11/19 05:07:10 </svg:title>
  <svg:desc>Picture generated by PCBNEW </svg:desc>
<svg:g style="fill:#000000; fill-opacity:1.000000;stroke:#000000; stroke-opacity:1.000000; stroke-linecap:round; stroke-linejoin:round;" transform="translate(0 0) scale(1 1)">
</svg:g>
<svg:g style="fill:#000000; fill-opacity:0.0;  stroke:#000000; stroke-width:0.000000; stroke-opacity:1;  stroke-linecap:round; stroke-linejoin:round;">
<svg:g>
</svg:g>
<svg:g>
</svg:g>
<svg:g>
</svg:g>
<svg:g>
</svg:g>
</svg:g>
<svg:g style="fill:#000000; fill-opacity:0.0;  stroke:#000000; stroke-width:0.000000; stroke-opacity:1;  stroke-linecap:round; stroke-linejoin:round;">
<svg:g>
</svg:g>
<svg:g>
</svg:g>
<svg:g>
</svg:g>
<svg:g>
</svg:g>
</svg:g> 
</svg:g><svg:g><svg:title>SVG Picture created as kicadBoard-B_Paste.svg date 2022/11/19 05:07:10 </svg:title>
  <svg:desc>Picture generated by PCBNEW </svg:desc>
<svg:g style="fill:#000000; fill-opacity:1.000000;stroke:#000000; stroke-opacity:1.000000; stroke-linecap:round; stroke-linejoin:round;" transform="translate(0 0) scale(1 1)">
</svg:g>
<svg:g style="fill:#000000; fill-opacity:0.0;  stroke:#000000; stroke-width:0.000000; stroke-opacity:1;  stroke-linecap:round; stroke-linejoin:round;">
<svg:g>
</svg:g>
<svg:g>
</svg:g>
<svg:g>
</svg:g>
<svg:g>
</svg:g>
</svg:g>
<svg:g style="fill:#000000; fill-opacity:0.0;  stroke:#000000; stroke-width:0.000000; stroke-opacity:1;  stroke-linecap:round; stroke-linejoin:round;">
<svg:g>
</svg:g>
<svg:g>
</svg:g>
<svg:g>
</svg:g>
<svg:g>
</svg:g>
</svg:g> 
</svg:g><svg:g><svg:title>SVG Picture created as kicadBoard-B_Silkscreen.svg date 2022/11/19 05:07:10 </svg:title>
  <svg:desc>Picture generated by PCBNEW </svg:desc>
<svg:g style="fill:#000000; fill-opacity:1.000000;stroke:#000000; stroke-opacity:1.000000; stroke-linecap:round; stroke-linejoin:round;" transform="translate(0 0) scale(1 1)">
</svg:g>
<svg:g style="fill:#000000; fill-opacity:0.0;  stroke:#000000; stroke-width:0.000000; stroke-opacity:1;  stroke-linecap:round; stroke-linejoin:round;">
<svg:g>
</svg:g>
<svg:g>
</svg:g>
<svg:g>
</svg:g>
<svg:g>
</svg:g>
</svg:g>
<svg:g style="fill:#000000; fill-opacity:0.0;  stroke:#000000; stroke-width:0.000000; stroke-opacity:1;  stroke-linecap:round; stroke-linejoin:round;">
<svg:g>
</svg:g>
<svg:g>
</svg:g>
<svg:g>
</svg:g>
<svg:g>
</svg:g>
</svg:g> 
</svg:g><svg:g><svg:title>SVG Picture created as kicadBoard-Edge_Cuts.svg date 2022/11/19 05:07:10 </svg:title>
  <svg:desc>Picture generated by PCBNEW </svg:desc>
<svg:g style="fill:#000000; fill-opacity:1.000000;stroke:#000000; stroke-opacity:1.000000; stroke-linecap:round; stroke-linejoin:round;" transform="translate(0 0) scale(1 1)">
</svg:g>
<svg:g style="fill:#000000; fill-opacity:0.0;  stroke:#000000; stroke-width:0.000000; stroke-opacity:1;  stroke-linecap:round; stroke-linejoin:round;">
<svg:g>
</svg:g>
<svg:g>
</svg:g>
<svg:g>
</svg:g>
<svg:g>
</svg:g>
</svg:g> 
</svg:g><svg:g><svg:title>SVG Picture created as kicadBoard-F_Adhesive.svg date 2022/11/19 05:07:10 </svg:title>
  <svg:desc>Picture generated by PCBNEW </svg:desc>
<svg:g style="fill:#000000; fill-opacity:1.000000;stroke:#000000; stroke-opacity:1.000000; stroke-linecap:round; stroke-linejoin:round;" transform="translate(0 0) scale(1 1)">
</svg:g>
<svg:g style="fill:#000000; fill-opacity:0.0;  stroke:#000000; stroke-width:0.000000; stroke-opacity:1;  stroke-linecap:round; stroke-linejoin:round;">
<svg:g>
</svg:g>
<svg:g>
</svg:g>
<svg:g>
</svg:g>
<svg:g>
</svg:g>
</svg:g>
<svg:g style="fill:#000000; fill-opacity:0.0;  stroke:#000000; stroke-width:0.000000; stroke-opacity:1;  stroke-linecap:round; stroke-linejoin:round;">
<svg:g>
</svg:g>
<svg:g>
</svg:g>
<svg:g>
</svg:g>
<svg:g>
</svg:g>
</svg:g> 
</svg:g><svg:g><svg:title>SVG Picture created as kicadBoard-F_Courtyard.svg date 2022/11/19 05:07:10 </svg:title>
  <svg:desc>Picture generated by PCBNEW </svg:desc>
<svg:g style="fill:#000000; fill-opacity:1.000000;stroke:#000000; stroke-opacity:1.000000; stroke-linecap:round; stroke-linejoin:round;" transform="translate(0 0) scale(1 1)">
</svg:g>
<svg:g style="fill:#000000; fill-opacity:0.0;  stroke:#000000; stroke-width:0.000000; stroke-opacity:1;  stroke-linecap:round; stroke-linejoin:round;">
</svg:g>
<svg:g style="fill:#FF26E2; fill-opacity:0.0;  stroke:#FF26E2; stroke-width:0.000000; stroke-opacity:1;  stroke-linecap:round; stroke-linejoin:round;">
</svg:g>
<svg:g style="fill:#FF26E2; fill-opacity:0.0;  stroke:#FF26E2; stroke-width:50000.000000; stroke-opacity:1;  stroke-linecap:round; stroke-linejoin:round;">
<svg:path d="M47880000 47880000 L47880000 52120000 "/>
<svg:path d="M47880000 52120000 L52120000 52120000 "/>
<svg:path d="M52120000 47880000 L47880000 47880000 "/>
<svg:path d="M52120000 52120000 L52120000 47880000 "/>
<svg:g>
</svg:g>
<svg:g>
</svg:g>
<svg:g>
</svg:g>
<svg:g>
</svg:g>
</svg:g>
<svg:g style="fill:#000000; fill-opacity:0.0;  stroke:#000000; stroke-width:50000.000000; stroke-opacity:1;  stroke-linecap:round; stroke-linejoin:round;">
<svg:g>
</svg:g>
<svg:g>
</svg:g>
<svg:g>
</svg:g>
<svg:g>
</svg:g>
</svg:g> 
</svg:g><svg:g><svg:title>SVG Picture created as kicadBoard-F_Fab.svg date 2022/11/19 05:07:10 </svg:title>
  <svg:desc>Picture generated by PCBNEW </svg:desc>
<svg:g style="fill:#000000; fill-opacity:1.000000;stroke:#000000; stroke-opacity:1.000000; stroke-linecap:round; stroke-linejoin:round;" transform="translate(0 0) scale(1 1)">
</svg:g>
<svg:g style="fill:#000000; fill-opacity:0.0;  stroke:#000000; stroke-width:0.000000; stroke-opacity:1;  stroke-linecap:round; stroke-linejoin:round;">
</svg:g>
<svg:g style="fill:#AFAFAF; fill-opacity:0.0;  stroke:#AFAFAF; stroke-width:0.000000; stroke-opacity:1;  stroke-linecap:round; stroke-linejoin:round;">
</svg:g>
<svg:g style="fill:#AFAFAF; fill-opacity:0.0;  stroke:#AFAFAF; stroke-width:150000.000000; stroke-opacity:1;  stroke-linecap:round; stroke-linejoin:round;">
<svg:text x="50000000.000000" y="53320000.000000" textLength="36147381.000000" font-size="1333333.000000" lengthAdjust="spacingAndGlyphs" text-anchor="middle" opacity="0">QFN-20-1EP_3x3mm_P0.4mm_EP1.65x1.65mm</svg:text>
<svg:g class="stroked-text"><svg:desc>QFN-20-1EP_3x3mm_P0.4mm_EP1.65x1.65mm</svg:desc>
<svg:path d="M32928571 53367619 L32833333 53320000 L32738095 53224761 L32595238 53081904 L32500000 53034285 L32404761 53034285 "/>
<svg:path d="M32452380 53272380 L32357142 53224761 L32261904 53129523 L32214285 52939047 L32214285 52605714 L32261904 52415238 L32357142 52320000 L32452380 52272380 L32642857 52272380 L32738095 52320000 L32833333 52415238 L32880952 52605714 L32880952 52939047 L32833333 53129523 L32738095 53224761 L32642857 53272380 L32452380 53272380 "/>
<svg:path d="M33642857 52748571 L33309523 52748571 "/>
<svg:path d="M33309523 53272380 L33309523 52272380 L33785714 52272380 "/>
<svg:path d="M34166666 53272380 L34166666 52272380 L34738095 53272380 L34738095 52272380 "/>
<svg:path d="M35214285 52891428 L35976190 52891428 "/>
<svg:path d="M36404761 52367619 L36452380 52320000 L36547619 52272380 L36785714 52272380 L36880952 52320000 L36928571 52367619 L36976190 52462857 L36976190 52558095 L36928571 52700952 L36357142 53272380 L36976190 53272380 "/>
<svg:path d="M37595238 52272380 L37690476 52272380 L37785714 52320000 L37833333 52367619 L37880952 52462857 L37928571 52653333 L37928571 52891428 L37880952 53081904 L37833333 53177142 L37785714 53224761 L37690476 53272380 L37595238 53272380 L37500000 53224761 L37452380 53177142 L37404761 53081904 L37357142 52891428 L37357142 52653333 L37404761 52462857 L37452380 52367619 L37500000 52320000 L37595238 52272380 "/>
<svg:path d="M38357142 52891428 L39119047 52891428 "/>
<svg:path d="M40119047 53272380 L39547619 53272380 "/>
<svg:path d="M39833333 53272380 L39833333 52272380 L39738095 52415238 L39642857 52510476 L39547619 52558095 "/>
<svg:path d="M40547619 52748571 L40880952 52748571 "/>
<svg:path d="M41023809 53272380 L40547619 53272380 L40547619 52272380 L41023809 52272380 "/>
<svg:path d="M41452380 53272380 L41452380 52272380 L41833333 52272380 L41928571 52320000 L41976190 52367619 L42023809 52462857 L42023809 52605714 L41976190 52700952 L41928571 52748571 L41833333 52796190 L41452380 52796190 "/>
<svg:path d="M42214285 53367619 L42976190 53367619 "/>
<svg:path d="M43119047 52272380 L43738095 52272380 L43404761 52653333 L43547619 52653333 L43642857 52700952 L43690476 52748571 L43738095 52843809 L43738095 53081904 L43690476 53177142 L43642857 53224761 L43547619 53272380 L43261904 53272380 L43166666 53224761 L43119047 53177142 "/>
<svg:path d="M44071428 53272380 L44595238 52605714 "/>
<svg:path d="M44071428 52605714 L44595238 53272380 "/>
<svg:path d="M44880952 52272380 L45500000 52272380 L45166666 52653333 L45309523 52653333 L45404761 52700952 L45452380 52748571 L45500000 52843809 L45500000 53081904 L45452380 53177142 L45404761 53224761 L45309523 53272380 L45023809 53272380 L44928571 53224761 L44880952 53177142 "/>
<svg:path d="M45928571 53272380 L45928571 52605714 "/>
<svg:path d="M45928571 52700952 L45976190 52653333 L46071428 52605714 L46214285 52605714 L46309523 52653333 L46357142 52748571 L46357142 53272380 "/>
<svg:path d="M46357142 52748571 L46404761 52653333 L46500000 52605714 L46642857 52605714 L46738095 52653333 L46785714 52748571 L46785714 53272380 "/>
<svg:path d="M47261904 53272380 L47261904 52605714 "/>
<svg:path d="M47261904 52700952 L47309523 52653333 L47404761 52605714 L47547619 52605714 L47642857 52653333 L47690476 52748571 L47690476 53272380 "/>
<svg:path d="M47690476 52748571 L47738095 52653333 L47833333 52605714 L47976190 52605714 L48071428 52653333 L48119047 52748571 L48119047 53272380 "/>
<svg:path d="M48357142 53367619 L49119047 53367619 "/>
<svg:path d="M49357142 53272380 L49357142 52272380 L49738095 52272380 L49833333 52320000 L49880952 52367619 L49928571 52462857 L49928571 52605714 L49880952 52700952 L49833333 52748571 L49738095 52796190 L49357142 52796190 "/>
<svg:path d="M50547619 52272380 L50642857 52272380 L50738095 52320000 L50785714 52367619 L50833333 52462857 L50880952 52653333 L50880952 52891428 L50833333 53081904 L50785714 53177142 L50738095 53224761 L50642857 53272380 L50547619 53272380 L50452380 53224761 L50404761 53177142 L50357142 53081904 L50309523 52891428 L50309523 52653333 L50357142 52462857 L50404761 52367619 L50452380 52320000 L50547619 52272380 "/>
<svg:path d="M51309523 53177142 L51357142 53224761 L51309523 53272380 L51261904 53224761 L51309523 53177142 L51309523 53272380 "/>
<svg:path d="M52214285 52605714 L52214285 53272380 "/>
<svg:path d="M51976190 52224761 L51738095 52939047 L52357142 52939047 "/>
<svg:path d="M52738095 53272380 L52738095 52605714 "/>
<svg:path d="M52738095 52700952 L52785714 52653333 L52880952 52605714 L53023809 52605714 L53119047 52653333 L53166666 52748571 L53166666 53272380 "/>
<svg:path d="M53166666 52748571 L53214285 52653333 L53309523 52605714 L53452380 52605714 L53547619 52653333 L53595238 52748571 L53595238 53272380 "/>
<svg:path d="M54071428 53272380 L54071428 52605714 "/>
<svg:path d="M54071428 52700952 L54119047 52653333 L54214285 52605714 L54357142 52605714 L54452380 52653333 L54500000 52748571 L54500000 53272380 "/>
<svg:path d="M54500000 52748571 L54547619 52653333 L54642857 52605714 L54785714 52605714 L54880952 52653333 L54928571 52748571 L54928571 53272380 "/>
<svg:path d="M55166666 53367619 L55928571 53367619 "/>
<svg:path d="M56166666 52748571 L56500000 52748571 "/>
<svg:path d="M56642857 53272380 L56166666 53272380 L56166666 52272380 L56642857 52272380 "/>
<svg:path d="M57071428 53272380 L57071428 52272380 L57452380 52272380 L57547619 52320000 L57595238 52367619 L57642857 52462857 L57642857 52605714 L57595238 52700952 L57547619 52748571 L57452380 52796190 L57071428 52796190 "/>
<svg:path d="M58595238 53272380 L58023809 53272380 "/>
<svg:path d="M58309523 53272380 L58309523 52272380 L58214285 52415238 L58119047 52510476 L58023809 52558095 "/>
<svg:path d="M59023809 53177142 L59071428 53224761 L59023809 53272380 L58976190 53224761 L59023809 53177142 L59023809 53272380 "/>
<svg:path d="M59928571 52272380 L59738095 52272380 L59642857 52320000 L59595238 52367619 L59500000 52510476 L59452380 52700952 L59452380 53081904 L59500000 53177142 L59547619 53224761 L59642857 53272380 L59833333 53272380 L59928571 53224761 L59976190 53177142 L60023809 53081904 L60023809 52843809 L59976190 52748571 L59928571 52700952 L59833333 52653333 L59642857 52653333 L59547619 52700952 L59500000 52748571 L59452380 52843809 "/>
<svg:path d="M60928571 52272380 L60452380 52272380 L60404761 52748571 L60452380 52700952 L60547619 52653333 L60785714 52653333 L60880952 52700952 L60928571 52748571 L60976190 52843809 L60976190 53081904 L60928571 53177142 L60880952 53224761 L60785714 53272380 L60547619 53272380 L60452380 53224761 L60404761 53177142 "/>
<svg:path d="M61309523 53272380 L61833333 52605714 "/>
<svg:path d="M61309523 52605714 L61833333 53272380 "/>
<svg:path d="M62738095 53272380 L62166666 53272380 "/>
<svg:path d="M62452380 53272380 L62452380 52272380 L62357142 52415238 L62261904 52510476 L62166666 52558095 "/>
<svg:path d="M63166666 53177142 L63214285 53224761 L63166666 53272380 L63119047 53224761 L63166666 53177142 L63166666 53272380 "/>
<svg:path d="M64071428 52272380 L63880952 52272380 L63785714 52320000 L63738095 52367619 L63642857 52510476 L63595238 52700952 L63595238 53081904 L63642857 53177142 L63690476 53224761 L63785714 53272380 L63976190 53272380 L64071428 53224761 L64119047 53177142 L64166666 53081904 L64166666 52843809 L64119047 52748571 L64071428 52700952 L63976190 52653333 L63785714 52653333 L63690476 52700952 L63642857 52748571 L63595238 52843809 "/>
<svg:path d="M65071428 52272380 L64595238 52272380 L64547619 52748571 L64595238 52700952 L64690476 52653333 L64928571 52653333 L65023809 52700952 L65071428 52748571 L65119047 52843809 L65119047 53081904 L65071428 53177142 L65023809 53224761 L64928571 53272380 L64690476 53272380 L64595238 53224761 L64547619 53177142 "/>
<svg:path d="M65547619 53272380 L65547619 52605714 "/>
<svg:path d="M65547619 52700952 L65595238 52653333 L65690476 52605714 L65833333 52605714 L65928571 52653333 L65976190 52748571 L65976190 53272380 "/>
<svg:path d="M65976190 52748571 L66023809 52653333 L66119047 52605714 L66261904 52605714 L66357142 52653333 L66404761 52748571 L66404761 53272380 "/>
<svg:path d="M66880952 53272380 L66880952 52605714 "/>
<svg:path d="M66880952 52700952 L66928571 52653333 L67023809 52605714 L67166666 52605714 L67261904 52653333 L67309523 52748571 L67309523 53272380 "/>
<svg:path d="M67309523 52748571 L67357142 52653333 L67452380 52605714 L67595238 52605714 L67690476 52653333 L67738095 52748571 L67738095 53272380 "/>
</svg:g></svg:g>
<svg:g style="fill:#AFAFAF; fill-opacity:0.0;  stroke:#AFAFAF; stroke-width:110000.000000; stroke-opacity:1;  stroke-linecap:round; stroke-linejoin:round;">
<svg:text x="50000000.000000" y="50375000.000000" textLength="19587857.000000" font-size="1000000.000000" lengthAdjust="spacingAndGlyphs" text-anchor="middle" opacity="0">FZKDFNQFN21EP3X3P4EP165X165</svg:text>
<svg:g class="stroked-text"><svg:desc>FZKDFNQFN21EP3X3P4EP165X165</svg:desc>
<svg:path d="M40732142 49946428 L40482142 49946428 "/>
<svg:path d="M40482142 50339285 L40482142 49589285 L40839285 49589285 "/>
<svg:path d="M41053571 49589285 L41553571 49589285 L41053571 50339285 L41553571 50339285 "/>
<svg:path d="M41839285 50339285 L41839285 49589285 "/>
<svg:path d="M42267857 50339285 L41946428 49910714 "/>
<svg:path d="M42267857 49589285 L41839285 50017857 "/>
<svg:path d="M42589285 50339285 L42589285 49589285 L42767857 49589285 L42875000 49625000 L42946428 49696428 L42982142 49767857 L43017857 49910714 L43017857 50017857 L42982142 50160714 L42946428 50232142 L42875000 50303571 L42767857 50339285 L42589285 50339285 "/>
<svg:path d="M43589285 49946428 L43339285 49946428 "/>
<svg:path d="M43339285 50339285 L43339285 49589285 L43696428 49589285 "/>
<svg:path d="M43982142 50339285 L43982142 49589285 L44410714 50339285 L44410714 49589285 "/>
<svg:path d="M45267857 50410714 L45196428 50375000 L45125000 50303571 L45017857 50196428 L44946428 50160714 L44875000 50160714 "/>
<svg:path d="M44910714 50339285 L44839285 50303571 L44767857 50232142 L44732142 50089285 L44732142 49839285 L44767857 49696428 L44839285 49625000 L44910714 49589285 L45053571 49589285 L45125000 49625000 L45196428 49696428 L45232142 49839285 L45232142 50089285 L45196428 50232142 L45125000 50303571 L45053571 50339285 L44910714 50339285 "/>
<svg:path d="M45803571 49946428 L45553571 49946428 "/>
<svg:path d="M45553571 50339285 L45553571 49589285 L45910714 49589285 "/>
<svg:path d="M46196428 50339285 L46196428 49589285 L46625000 50339285 L46625000 49589285 "/>
<svg:path d="M46946428 49660714 L46982142 49625000 L47053571 49589285 L47232142 49589285 L47303571 49625000 L47339285 49660714 L47375000 49732142 L47375000 49803571 L47339285 49910714 L46910714 50339285 L47375000 50339285 "/>
<svg:path d="M48089285 50339285 L47660714 50339285 "/>
<svg:path d="M47875000 50339285 L47875000 49589285 L47803571 49696428 L47732142 49767857 L47660714 49803571 "/>
<svg:path d="M48410714 49946428 L48660714 49946428 "/>
<svg:path d="M48767857 50339285 L48410714 50339285 L48410714 49589285 L48767857 49589285 "/>
<svg:path d="M49089285 50339285 L49089285 49589285 L49375000 49589285 L49446428 49625000 L49482142 49660714 L49517857 49732142 L49517857 49839285 L49482142 49910714 L49446428 49946428 L49375000 49982142 L49089285 49982142 "/>
<svg:path d="M49767857 49589285 L50232142 49589285 L49982142 49875000 L50089285 49875000 L50160714 49910714 L50196428 49946428 L50232142 50017857 L50232142 50196428 L50196428 50267857 L50160714 50303571 L50089285 50339285 L49875000 50339285 L49803571 50303571 L49767857 50267857 "/>
<svg:path d="M50482142 49589285 L50982142 50339285 "/>
<svg:path d="M50982142 49589285 L50482142 50339285 "/>
<svg:path d="M51196428 49589285 L51660714 49589285 L51410714 49875000 L51517857 49875000 L51589285 49910714 L51625000 49946428 L51660714 50017857 L51660714 50196428 L51625000 50267857 L51589285 50303571 L51517857 50339285 L51303571 50339285 L51232142 50303571 L51196428 50267857 "/>
<svg:path d="M51982142 50339285 L51982142 49589285 L52267857 49589285 L52339285 49625000 L52375000 49660714 L52410714 49732142 L52410714 49839285 L52375000 49910714 L52339285 49946428 L52267857 49982142 L51982142 49982142 "/>
<svg:path d="M53053571 49839285 L53053571 50339285 "/>
<svg:path d="M52875000 49553571 L52696428 50089285 L53160714 50089285 "/>
<svg:path d="M53446428 49946428 L53696428 49946428 "/>
<svg:path d="M53803571 50339285 L53446428 50339285 L53446428 49589285 L53803571 49589285 "/>
<svg:path d="M54125000 50339285 L54125000 49589285 L54410714 49589285 L54482142 49625000 L54517857 49660714 L54553571 49732142 L54553571 49839285 L54517857 49910714 L54482142 49946428 L54410714 49982142 L54125000 49982142 "/>
<svg:path d="M55267857 50339285 L54839285 50339285 "/>
<svg:path d="M55053571 50339285 L55053571 49589285 L54982142 49696428 L54910714 49767857 L54839285 49803571 "/>
<svg:path d="M55910714 49589285 L55767857 49589285 L55696428 49625000 L55660714 49660714 L55589285 49767857 L55553571 49910714 L55553571 50196428 L55589285 50267857 L55625000 50303571 L55696428 50339285 L55839285 50339285 L55910714 50303571 L55946428 50267857 L55982142 50196428 L55982142 50017857 L55946428 49946428 L55910714 49910714 L55839285 49875000 L55696428 49875000 L55625000 49910714 L55589285 49946428 L55553571 50017857 "/>
<svg:path d="M56660714 49589285 L56303571 49589285 L56267857 49946428 L56303571 49910714 L56375000 49875000 L56553571 49875000 L56625000 49910714 L56660714 49946428 L56696428 50017857 L56696428 50196428 L56660714 50267857 L56625000 50303571 L56553571 50339285 L56375000 50339285 L56303571 50303571 L56267857 50267857 "/>
<svg:path d="M56946428 49589285 L57446428 50339285 "/>
<svg:path d="M57446428 49589285 L56946428 50339285 "/>
<svg:path d="M58125000 50339285 L57696428 50339285 "/>
<svg:path d="M57910714 50339285 L57910714 49589285 L57839285 49696428 L57767857 49767857 L57696428 49803571 "/>
<svg:path d="M58767857 49589285 L58625000 49589285 L58553571 49625000 L58517857 49660714 L58446428 49767857 L58410714 49910714 L58410714 50196428 L58446428 50267857 L58482142 50303571 L58553571 50339285 L58696428 50339285 L58767857 50303571 L58803571 50267857 L58839285 50196428 L58839285 50017857 L58803571 49946428 L58767857 49910714 L58696428 49875000 L58553571 49875000 L58482142 49910714 L58446428 49946428 L58410714 50017857 "/>
<svg:path d="M59517857 49589285 L59160714 49589285 L59125000 49946428 L59160714 49910714 L59232142 49875000 L59410714 49875000 L59482142 49910714 L59517857 49946428 L59553571 50017857 L59553571 50196428 L59517857 50267857 L59482142 50303571 L59410714 50339285 L59232142 50339285 L59160714 50303571 L59125000 50267857 "/>
</svg:g></svg:g>
<svg:g style="fill:#AFAFAF; fill-opacity:0.0;  stroke:#AFAFAF; stroke-width:100000.000000; stroke-opacity:1;  stroke-linecap:round; stroke-linejoin:round;">
<svg:path d="M51500000 51500000 L48500000 51500000 "/>
<svg:path d="M49250000 48500000 L51500000 48500000 "/>
<svg:path d="M48500000 49250000 L49250000 48500000 "/>
<svg:path d="M48500000 51500000 L48500000 49250000 "/>
<svg:path d="M51500000 48500000 L51500000 51500000 "/>
<svg:g>
</svg:g>
<svg:g>
</svg:g>
<svg:g>
</svg:g>
<svg:g>
</svg:g>
</svg:g>
<svg:g style="fill:#000000; fill-opacity:0.0;  stroke:#000000; stroke-width:100000.000000; stroke-opacity:1;  stroke-linecap:round; stroke-linejoin:round;">
<svg:g>
</svg:g>
<svg:g>
</svg:g>
<svg:g>
</svg:g>
<svg:g>
</svg:g>
</svg:g> 
</svg:g><svg:g><svg:title>SVG Picture created as kicadBoard-F_Mask.svg date 2022/11/19 05:07:10 </svg:title>
  <svg:desc>Picture generated by PCBNEW </svg:desc>
<svg:g style="fill:#000000; fill-opacity:1.000000;stroke:#000000; stroke-opacity:1.000000; stroke-linecap:round; stroke-linejoin:round;" transform="translate(0 0) scale(1 1)">
</svg:g>
<svg:g style="fill:#000000; fill-opacity:0.0;  stroke:#000000; stroke-width:0.000000; stroke-opacity:1;  stroke-linecap:round; stroke-linejoin:round;">
<svg:g>
</svg:g>
<svg:g style="fill:#000000; fill-opacity:0.0;  stroke:#000000; stroke-width:1.000000; stroke-opacity:1;  stroke-linecap:round; stroke-linejoin:round;">
</svg:g>
<svg:g style="fill:#000000; fill-opacity:1.0;  stroke:#000000; stroke-width:1.000000; stroke-opacity:1;  stroke-linecap:round; stroke-linejoin:round;">
<svg:path style="fill:#000000; fill-opacity:1.0;  stroke:#000000; stroke-width:1.000000; stroke-opacity:1;  stroke-linecap:round; stroke-linejoin:round;fill-rule:evenodd;" d="M 48125000.000000,49150000.000000 48128806.000000,49130866.000000 48139645.000000,49114645.000000 48155866.000000,49103806.000000 48175000.000000,49100000.000000 48925000.000000,49100000.000000 48944134.000000,49103806.000000 48960355.000000,49114645.000000 48971194.000000,49130866.000000 48975000.000000,49150000.000000 48975000.000000,49250000.000000 48971194.000000,49269134.000000 48960355.000000,49285355.000000 48944134.000000,49296194.000000 48925000.000000,49300000.000000 48175000.000000,49300000.000000 48155866.000000,49296194.000000 48139645.000000,49285355.000000 48128806.000000,49269134.000000 48125000.000000,49250000.000000 Z"/> 
<svg:path style="fill:#000000; fill-opacity:1.0;  stroke:#000000; stroke-width:1.000000; stroke-opacity:1;  stroke-linecap:round; stroke-linejoin:round;fill-rule:evenodd;" d="M 48125000.000000,49550000.000000 48128806.000000,49530866.000000 48139645.000000,49514645.000000 48155866.000000,49503806.000000 48175000.000000,49500000.000000 48925000.000000,49500000.000000 48944134.000000,49503806.000000 48960355.000000,49514645.000000 48971194.000000,49530866.000000 48975000.000000,49550000.000000 48975000.000000,49650000.000000 48971194.000000,49669134.000000 48960355.000000,49685355.000000 48944134.000000,49696194.000000 48925000.000000,49700000.000000 48175000.000000,49700000.000000 48155866.000000,49696194.000000 48139645.000000,49685355.000000 48128806.000000,49669134.000000 48125000.000000,49650000.000000 Z"/> 
<svg:path style="fill:#000000; fill-opacity:1.0;  stroke:#000000; stroke-width:1.000000; stroke-opacity:1;  stroke-linecap:round; stroke-linejoin:round;fill-rule:evenodd;" d="M 48125000.000000,49950000.000000 48128806.000000,49930866.000000 48139645.000000,49914645.000000 48155866.000000,49903806.000000 48175000.000000,49900000.000000 48925000.000000,49900000.000000 48944134.000000,49903806.000000 48960355.000000,49914645.000000 48971194.000000,49930866.000000 48975000.000000,49950000.000000 48975000.000000,50050000.000000 48971194.000000,50069134.000000 48960355.000000,50085355.000000 48944134.000000,50096194.000000 48925000.000000,50100000.000000 48175000.000000,50100000.000000 48155866.000000,50096194.000000 48139645.000000,50085355.000000 48128806.000000,50069134.000000 48125000.000000,50050000.000000 Z"/> 
<svg:path style="fill:#000000; fill-opacity:1.0;  stroke:#000000; stroke-width:1.000000; stroke-opacity:1;  stroke-linecap:round; stroke-linejoin:round;fill-rule:evenodd;" d="M 48125000.000000,50350000.000000 48128806.000000,50330866.000000 48139645.000000,50314645.000000 48155866.000000,50303806.000000 48175000.000000,50300000.000000 48925000.000000,50300000.000000 48944134.000000,50303806.000000 48960355.000000,50314645.000000 48971194.000000,50330866.000000 48975000.000000,50350000.000000 48975000.000000,50450000.000000 48971194.000000,50469134.000000 48960355.000000,50485355.000000 48944134.000000,50496194.000000 48925000.000000,50500000.000000 48175000.000000,50500000.000000 48155866.000000,50496194.000000 48139645.000000,50485355.000000 48128806.000000,50469134.000000 48125000.000000,50450000.000000 Z"/> 
<svg:path style="fill:#000000; fill-opacity:1.0;  stroke:#000000; stroke-width:1.000000; stroke-opacity:1;  stroke-linecap:round; stroke-linejoin:round;fill-rule:evenodd;" d="M 48125000.000000,50750000.000000 48128806.000000,50730866.000000 48139645.000000,50714645.000000 48155866.000000,50703806.000000 48175000.000000,50700000.000000 48925000.000000,50700000.000000 48944134.000000,50703806.000000 48960355.000000,50714645.000000 48971194.000000,50730866.000000 48975000.000000,50750000.000000 48975000.000000,50850000.000000 48971194.000000,50869134.000000 48960355.000000,50885355.000000 48944134.000000,50896194.000000 48925000.000000,50900000.000000 48175000.000000,50900000.000000 48155866.000000,50896194.000000 48139645.000000,50885355.000000 48128806.000000,50869134.000000 48125000.000000,50850000.000000 Z"/> 
<svg:path style="fill:#000000; fill-opacity:1.0;  stroke:#000000; stroke-width:1.000000; stroke-opacity:1;  stroke-linecap:round; stroke-linejoin:round;fill-rule:evenodd;" d="M 49100000.000000,51075000.000000 49103806.000000,51055866.000000 49114645.000000,51039645.000000 49130866.000000,51028806.000000 49150000.000000,51025000.000000 49250000.000000,51025000.000000 49269134.000000,51028806.000000 49285355.000000,51039645.000000 49296194.000000,51055866.000000 49300000.000000,51075000.000000 49300000.000000,51825000.000000 49296194.000000,51844134.000000 49285355.000000,51860355.000000 49269134.000000,51871194.000000 49250000.000000,51875000.000000 49150000.000000,51875000.000000 49130866.000000,51871194.000000 49114645.000000,51860355.000000 49103806.000000,51844134.000000 49100000.000000,51825000.000000 Z"/> 
<svg:path style="fill:#000000; fill-opacity:1.0;  stroke:#000000; stroke-width:1.000000; stroke-opacity:1;  stroke-linecap:round; stroke-linejoin:round;fill-rule:evenodd;" d="M 49500000.000000,51075000.000000 49503806.000000,51055866.000000 49514645.000000,51039645.000000 49530866.000000,51028806.000000 49550000.000000,51025000.000000 49650000.000000,51025000.000000 49669134.000000,51028806.000000 49685355.000000,51039645.000000 49696194.000000,51055866.000000 49700000.000000,51075000.000000 49700000.000000,51825000.000000 49696194.000000,51844134.000000 49685355.000000,51860355.000000 49669134.000000,51871194.000000 49650000.000000,51875000.000000 49550000.000000,51875000.000000 49530866.000000,51871194.000000 49514645.000000,51860355.000000 49503806.000000,51844134.000000 49500000.000000,51825000.000000 Z"/> 
<svg:path style="fill:#000000; fill-opacity:1.0;  stroke:#000000; stroke-width:1.000000; stroke-opacity:1;  stroke-linecap:round; stroke-linejoin:round;fill-rule:evenodd;" d="M 49900000.000000,51075000.000000 49903806.000000,51055866.000000 49914645.000000,51039645.000000 49930866.000000,51028806.000000 49950000.000000,51025000.000000 50050000.000000,51025000.000000 50069134.000000,51028806.000000 50085355.000000,51039645.000000 50096194.000000,51055866.000000 50100000.000000,51075000.000000 50100000.000000,51825000.000000 50096194.000000,51844134.000000 50085355.000000,51860355.000000 50069134.000000,51871194.000000 50050000.000000,51875000.000000 49950000.000000,51875000.000000 49930866.000000,51871194.000000 49914645.000000,51860355.000000 49903806.000000,51844134.000000 49900000.000000,51825000.000000 Z"/> 
<svg:path style="fill:#000000; fill-opacity:1.0;  stroke:#000000; stroke-width:1.000000; stroke-opacity:1;  stroke-linecap:round; stroke-linejoin:round;fill-rule:evenodd;" d="M 50300000.000000,51075000.000000 50303806.000000,51055866.000000 50314645.000000,51039645.000000 50330866.000000,51028806.000000 50350000.000000,51025000.000000 50450000.000000,51025000.000000 50469134.000000,51028806.000000 50485355.000000,51039645.000000 50496194.000000,51055866.000000 50500000.000000,51075000.000000 50500000.000000,51825000.000000 50496194.000000,51844134.000000 50485355.000000,51860355.000000 50469134.000000,51871194.000000 50450000.000000,51875000.000000 50350000.000000,51875000.000000 50330866.000000,51871194.000000 50314645.000000,51860355.000000 50303806.000000,51844134.000000 50300000.000000,51825000.000000 Z"/> 
<svg:path style="fill:#000000; fill-opacity:1.0;  stroke:#000000; stroke-width:1.000000; stroke-opacity:1;  stroke-linecap:round; stroke-linejoin:round;fill-rule:evenodd;" d="M 50700000.000000,51075000.000000 50703806.000000,51055866.000000 50714645.000000,51039645.000000 50730866.000000,51028806.000000 50750000.000000,51025000.000000 50850000.000000,51025000.000000 50869134.000000,51028806.000000 50885355.000000,51039645.000000 50896194.000000,51055866.000000 50900000.000000,51075000.000000 50900000.000000,51825000.000000 50896194.000000,51844134.000000 50885355.000000,51860355.000000 50869134.000000,51871194.000000 50850000.000000,51875000.000000 50750000.000000,51875000.000000 50730866.000000,51871194.000000 50714645.000000,51860355.000000 50703806.000000,51844134.000000 50700000.000000,51825000.000000 Z"/> 
<svg:path style="fill:#000000; fill-opacity:1.0;  stroke:#000000; stroke-width:1.000000; stroke-opacity:1;  stroke-linecap:round; stroke-linejoin:round;fill-rule:evenodd;" d="M 51025000.000000,50750000.000000 51028806.000000,50730866.000000 51039645.000000,50714645.000000 51055866.000000,50703806.000000 51075000.000000,50700000.000000 51825000.000000,50700000.000000 51844134.000000,50703806.000000 51860355.000000,50714645.000000 51871194.000000,50730866.000000 51875000.000000,50750000.000000 51875000.000000,50850000.000000 51871194.000000,50869134.000000 51860355.000000,50885355.000000 51844134.000000,50896194.000000 51825000.000000,50900000.000000 51075000.000000,50900000.000000 51055866.000000,50896194.000000 51039645.000000,50885355.000000 51028806.000000,50869134.000000 51025000.000000,50850000.000000 Z"/> 
<svg:path style="fill:#000000; fill-opacity:1.0;  stroke:#000000; stroke-width:1.000000; stroke-opacity:1;  stroke-linecap:round; stroke-linejoin:round;fill-rule:evenodd;" d="M 51025000.000000,50350000.000000 51028806.000000,50330866.000000 51039645.000000,50314645.000000 51055866.000000,50303806.000000 51075000.000000,50300000.000000 51825000.000000,50300000.000000 51844134.000000,50303806.000000 51860355.000000,50314645.000000 51871194.000000,50330866.000000 51875000.000000,50350000.000000 51875000.000000,50450000.000000 51871194.000000,50469134.000000 51860355.000000,50485355.000000 51844134.000000,50496194.000000 51825000.000000,50500000.000000 51075000.000000,50500000.000000 51055866.000000,50496194.000000 51039645.000000,50485355.000000 51028806.000000,50469134.000000 51025000.000000,50450000.000000 Z"/> 
<svg:path style="fill:#000000; fill-opacity:1.0;  stroke:#000000; stroke-width:1.000000; stroke-opacity:1;  stroke-linecap:round; stroke-linejoin:round;fill-rule:evenodd;" d="M 51025000.000000,49950000.000000 51028806.000000,49930866.000000 51039645.000000,49914645.000000 51055866.000000,49903806.000000 51075000.000000,49900000.000000 51825000.000000,49900000.000000 51844134.000000,49903806.000000 51860355.000000,49914645.000000 51871194.000000,49930866.000000 51875000.000000,49950000.000000 51875000.000000,50050000.000000 51871194.000000,50069134.000000 51860355.000000,50085355.000000 51844134.000000,50096194.000000 51825000.000000,50100000.000000 51075000.000000,50100000.000000 51055866.000000,50096194.000000 51039645.000000,50085355.000000 51028806.000000,50069134.000000 51025000.000000,50050000.000000 Z"/> 
<svg:path style="fill:#000000; fill-opacity:1.0;  stroke:#000000; stroke-width:1.000000; stroke-opacity:1;  stroke-linecap:round; stroke-linejoin:round;fill-rule:evenodd;" d="M 51025000.000000,49550000.000000 51028806.000000,49530866.000000 51039645.000000,49514645.000000 51055866.000000,49503806.000000 51075000.000000,49500000.000000 51825000.000000,49500000.000000 51844134.000000,49503806.000000 51860355.000000,49514645.000000 51871194.000000,49530866.000000 51875000.000000,49550000.000000 51875000.000000,49650000.000000 51871194.000000,49669134.000000 51860355.000000,49685355.000000 51844134.000000,49696194.000000 51825000.000000,49700000.000000 51075000.000000,49700000.000000 51055866.000000,49696194.000000 51039645.000000,49685355.000000 51028806.000000,49669134.000000 51025000.000000,49650000.000000 Z"/> 
<svg:path style="fill:#000000; fill-opacity:1.0;  stroke:#000000; stroke-width:1.000000; stroke-opacity:1;  stroke-linecap:round; stroke-linejoin:round;fill-rule:evenodd;" d="M 51025000.000000,49150000.000000 51028806.000000,49130866.000000 51039645.000000,49114645.000000 51055866.000000,49103806.000000 51075000.000000,49100000.000000 51825000.000000,49100000.000000 51844134.000000,49103806.000000 51860355.000000,49114645.000000 51871194.000000,49130866.000000 51875000.000000,49150000.000000 51875000.000000,49250000.000000 51871194.000000,49269134.000000 51860355.000000,49285355.000000 51844134.000000,49296194.000000 51825000.000000,49300000.000000 51075000.000000,49300000.000000 51055866.000000,49296194.000000 51039645.000000,49285355.000000 51028806.000000,49269134.000000 51025000.000000,49250000.000000 Z"/> 
<svg:path style="fill:#000000; fill-opacity:1.0;  stroke:#000000; stroke-width:1.000000; stroke-opacity:1;  stroke-linecap:round; stroke-linejoin:round;fill-rule:evenodd;" d="M 50700000.000000,48175000.000000 50703806.000000,48155866.000000 50714645.000000,48139645.000000 50730866.000000,48128806.000000 50750000.000000,48125000.000000 50850000.000000,48125000.000000 50869134.000000,48128806.000000 50885355.000000,48139645.000000 50896194.000000,48155866.000000 50900000.000000,48175000.000000 50900000.000000,48925000.000000 50896194.000000,48944134.000000 50885355.000000,48960355.000000 50869134.000000,48971194.000000 50850000.000000,48975000.000000 50750000.000000,48975000.000000 50730866.000000,48971194.000000 50714645.000000,48960355.000000 50703806.000000,48944134.000000 50700000.000000,48925000.000000 Z"/> 
<svg:path style="fill:#000000; fill-opacity:1.0;  stroke:#000000; stroke-width:1.000000; stroke-opacity:1;  stroke-linecap:round; stroke-linejoin:round;fill-rule:evenodd;" d="M 50300000.000000,48175000.000000 50303806.000000,48155866.000000 50314645.000000,48139645.000000 50330866.000000,48128806.000000 50350000.000000,48125000.000000 50450000.000000,48125000.000000 50469134.000000,48128806.000000 50485355.000000,48139645.000000 50496194.000000,48155866.000000 50500000.000000,48175000.000000 50500000.000000,48925000.000000 50496194.000000,48944134.000000 50485355.000000,48960355.000000 50469134.000000,48971194.000000 50450000.000000,48975000.000000 50350000.000000,48975000.000000 50330866.000000,48971194.000000 50314645.000000,48960355.000000 50303806.000000,48944134.000000 50300000.000000,48925000.000000 Z"/> 
<svg:path style="fill:#000000; fill-opacity:1.0;  stroke:#000000; stroke-width:1.000000; stroke-opacity:1;  stroke-linecap:round; stroke-linejoin:round;fill-rule:evenodd;" d="M 49900000.000000,48175000.000000 49903806.000000,48155866.000000 49914645.000000,48139645.000000 49930866.000000,48128806.000000 49950000.000000,48125000.000000 50050000.000000,48125000.000000 50069134.000000,48128806.000000 50085355.000000,48139645.000000 50096194.000000,48155866.000000 50100000.000000,48175000.000000 50100000.000000,48925000.000000 50096194.000000,48944134.000000 50085355.000000,48960355.000000 50069134.000000,48971194.000000 50050000.000000,48975000.000000 49950000.000000,48975000.000000 49930866.000000,48971194.000000 49914645.000000,48960355.000000 49903806.000000,48944134.000000 49900000.000000,48925000.000000 Z"/> 
<svg:path style="fill:#000000; fill-opacity:1.0;  stroke:#000000; stroke-width:1.000000; stroke-opacity:1;  stroke-linecap:round; stroke-linejoin:round;fill-rule:evenodd;" d="M 49500000.000000,48175000.000000 49503806.000000,48155866.000000 49514645.000000,48139645.000000 49530866.000000,48128806.000000 49550000.000000,48125000.000000 49650000.000000,48125000.000000 49669134.000000,48128806.000000 49685355.000000,48139645.000000 49696194.000000,48155866.000000 49700000.000000,48175000.000000 49700000.000000,48925000.000000 49696194.000000,48944134.000000 49685355.000000,48960355.000000 49669134.000000,48971194.000000 49650000.000000,48975000.000000 49550000.000000,48975000.000000 49530866.000000,48971194.000000 49514645.000000,48960355.000000 49503806.000000,48944134.000000 49500000.000000,48925000.000000 Z"/> 
<svg:path style="fill:#000000; fill-opacity:1.0;  stroke:#000000; stroke-width:1.000000; stroke-opacity:1;  stroke-linecap:round; stroke-linejoin:round;fill-rule:evenodd;" d="M 49100000.000000,48175000.000000 49103806.000000,48155866.000000 49114645.000000,48139645.000000 49130866.000000,48128806.000000 49150000.000000,48125000.000000 49250000.000000,48125000.000000 49269134.000000,48128806.000000 49285355.000000,48139645.000000 49296194.000000,48155866.000000 49300000.000000,48175000.000000 49300000.000000,48925000.000000 49296194.000000,48944134.000000 49285355.000000,48960355.000000 49269134.000000,48971194.000000 49250000.000000,48975000.000000 49150000.000000,48975000.000000 49130866.000000,48971194.000000 49114645.000000,48960355.000000 49103806.000000,48944134.000000 49100000.000000,48925000.000000 Z"/> 
<svg:path style="fill:#000000; fill-opacity:1.0;  stroke:#000000; stroke-width:1.000000; stroke-opacity:1;  stroke-linecap:round; stroke-linejoin:round;fill-rule:evenodd;" d="M 49175000.000000,50825000.000000 49175000.000000,49175000.000000 50825000.000000,49175000.000000 50825000.000000,50825000.000000 Z"/> 
</svg:g>
<svg:g>
</svg:g>
<svg:g>
</svg:g>
<svg:g>
</svg:g>
</svg:g>
<svg:g style="fill:#000000; fill-opacity:1.0;  stroke:#000000; stroke-width:1.000000; stroke-opacity:1;  stroke-linecap:round; stroke-linejoin:round;">
<svg:g>
</svg:g>
<svg:g>
</svg:g>
<svg:g>
</svg:g>
<svg:g>
</svg:g>
</svg:g> 
</svg:g><svg:g><svg:title>SVG Picture created as kicadBoard-F_Paste.svg date 2022/11/19 05:07:10 </svg:title>
  <svg:desc>Picture generated by PCBNEW </svg:desc>
<svg:g style="fill:#000000; fill-opacity:1.000000;stroke:#000000; stroke-opacity:1.000000; stroke-linecap:round; stroke-linejoin:round;" transform="translate(0 0) scale(1 1)">
</svg:g>
<svg:g style="fill:#000000; fill-opacity:0.0;  stroke:#000000; stroke-width:0.000000; stroke-opacity:1;  stroke-linecap:round; stroke-linejoin:round;">
<svg:g>
</svg:g>
<svg:g style="fill:#000000; fill-opacity:0.0;  stroke:#000000; stroke-width:1.000000; stroke-opacity:1;  stroke-linecap:round; stroke-linejoin:round;">
</svg:g>
<svg:g style="fill:#000000; fill-opacity:1.0;  stroke:#000000; stroke-width:1.000000; stroke-opacity:1;  stroke-linecap:round; stroke-linejoin:round;">
<svg:path style="fill:#000000; fill-opacity:1.0;  stroke:#000000; stroke-width:1.000000; stroke-opacity:1;  stroke-linecap:round; stroke-linejoin:round;fill-rule:evenodd;" d="M 49255000.000000,49422500.000000 49267750.000000,49358401.000000 49304060.000000,49304060.000000 49358401.000000,49267750.000000 49422500.000000,49255000.000000 49757500.000000,49255000.000000 49821599.000000,49267750.000000 49875940.000000,49304060.000000 49912250.000000,49358401.000000 49925000.000000,49422500.000000 49925000.000000,49757500.000000 49912250.000000,49821599.000000 49875940.000000,49875940.000000 49821599.000000,49912250.000000 49757500.000000,49925000.000000 49422500.000000,49925000.000000 49358401.000000,49912250.000000 49304060.000000,49875940.000000 49267750.000000,49821599.000000 49255000.000000,49757500.000000 Z"/> 
<svg:path style="fill:#000000; fill-opacity:1.0;  stroke:#000000; stroke-width:1.000000; stroke-opacity:1;  stroke-linecap:round; stroke-linejoin:round;fill-rule:evenodd;" d="M 50075000.000000,50242500.000000 50087750.000000,50178401.000000 50124060.000000,50124060.000000 50178401.000000,50087750.000000 50242500.000000,50075000.000000 50577500.000000,50075000.000000 50641599.000000,50087750.000000 50695940.000000,50124060.000000 50732250.000000,50178401.000000 50745000.000000,50242500.000000 50745000.000000,50577500.000000 50732250.000000,50641599.000000 50695940.000000,50695940.000000 50641599.000000,50732250.000000 50577500.000000,50745000.000000 50242500.000000,50745000.000000 50178401.000000,50732250.000000 50124060.000000,50695940.000000 50087750.000000,50641599.000000 50075000.000000,50577500.000000 Z"/> 
<svg:path style="fill:#000000; fill-opacity:1.0;  stroke:#000000; stroke-width:1.000000; stroke-opacity:1;  stroke-linecap:round; stroke-linejoin:round;fill-rule:evenodd;" d="M 50075000.000000,49422500.000000 50087750.000000,49358401.000000 50124060.000000,49304060.000000 50178401.000000,49267750.000000 50242500.000000,49255000.000000 50577500.000000,49255000.000000 50641599.000000,49267750.000000 50695940.000000,49304060.000000 50732250.000000,49358401.000000 50745000.000000,49422500.000000 50745000.000000,49757500.000000 50732250.000000,49821599.000000 50695940.000000,49875940.000000 50641599.000000,49912250.000000 50577500.000000,49925000.000000 50242500.000000,49925000.000000 50178401.000000,49912250.000000 50124060.000000,49875940.000000 50087750.000000,49821599.000000 50075000.000000,49757500.000000 Z"/> 
<svg:path style="fill:#000000; fill-opacity:1.0;  stroke:#000000; stroke-width:1.000000; stroke-opacity:1;  stroke-linecap:round; stroke-linejoin:round;fill-rule:evenodd;" d="M 49255000.000000,50242500.000000 49267750.000000,50178401.000000 49304060.000000,50124060.000000 49358401.000000,50087750.000000 49422500.000000,50075000.000000 49757500.000000,50075000.000000 49821599.000000,50087750.000000 49875940.000000,50124060.000000 49912250.000000,50178401.000000 49925000.000000,50242500.000000 49925000.000000,50577500.000000 49912250.000000,50641599.000000 49875940.000000,50695940.000000 49821599.000000,50732250.000000 49757500.000000,50745000.000000 49422500.000000,50745000.000000 49358401.000000,50732250.000000 49304060.000000,50695940.000000 49267750.000000,50641599.000000 49255000.000000,50577500.000000 Z"/> 
<svg:path style="fill:#000000; fill-opacity:1.0;  stroke:#000000; stroke-width:1.000000; stroke-opacity:1;  stroke-linecap:round; stroke-linejoin:round;fill-rule:evenodd;" d="M 48125000.000000,49150000.000000 48128806.000000,49130866.000000 48139645.000000,49114645.000000 48155866.000000,49103806.000000 48175000.000000,49100000.000000 48925000.000000,49100000.000000 48944134.000000,49103806.000000 48960355.000000,49114645.000000 48971194.000000,49130866.000000 48975000.000000,49150000.000000 48975000.000000,49250000.000000 48971194.000000,49269134.000000 48960355.000000,49285355.000000 48944134.000000,49296194.000000 48925000.000000,49300000.000000 48175000.000000,49300000.000000 48155866.000000,49296194.000000 48139645.000000,49285355.000000 48128806.000000,49269134.000000 48125000.000000,49250000.000000 Z"/> 
<svg:path style="fill:#000000; fill-opacity:1.0;  stroke:#000000; stroke-width:1.000000; stroke-opacity:1;  stroke-linecap:round; stroke-linejoin:round;fill-rule:evenodd;" d="M 48125000.000000,49550000.000000 48128806.000000,49530866.000000 48139645.000000,49514645.000000 48155866.000000,49503806.000000 48175000.000000,49500000.000000 48925000.000000,49500000.000000 48944134.000000,49503806.000000 48960355.000000,49514645.000000 48971194.000000,49530866.000000 48975000.000000,49550000.000000 48975000.000000,49650000.000000 48971194.000000,49669134.000000 48960355.000000,49685355.000000 48944134.000000,49696194.000000 48925000.000000,49700000.000000 48175000.000000,49700000.000000 48155866.000000,49696194.000000 48139645.000000,49685355.000000 48128806.000000,49669134.000000 48125000.000000,49650000.000000 Z"/> 
<svg:path style="fill:#000000; fill-opacity:1.0;  stroke:#000000; stroke-width:1.000000; stroke-opacity:1;  stroke-linecap:round; stroke-linejoin:round;fill-rule:evenodd;" d="M 48125000.000000,49950000.000000 48128806.000000,49930866.000000 48139645.000000,49914645.000000 48155866.000000,49903806.000000 48175000.000000,49900000.000000 48925000.000000,49900000.000000 48944134.000000,49903806.000000 48960355.000000,49914645.000000 48971194.000000,49930866.000000 48975000.000000,49950000.000000 48975000.000000,50050000.000000 48971194.000000,50069134.000000 48960355.000000,50085355.000000 48944134.000000,50096194.000000 48925000.000000,50100000.000000 48175000.000000,50100000.000000 48155866.000000,50096194.000000 48139645.000000,50085355.000000 48128806.000000,50069134.000000 48125000.000000,50050000.000000 Z"/> 
<svg:path style="fill:#000000; fill-opacity:1.0;  stroke:#000000; stroke-width:1.000000; stroke-opacity:1;  stroke-linecap:round; stroke-linejoin:round;fill-rule:evenodd;" d="M 48125000.000000,50350000.000000 48128806.000000,50330866.000000 48139645.000000,50314645.000000 48155866.000000,50303806.000000 48175000.000000,50300000.000000 48925000.000000,50300000.000000 48944134.000000,50303806.000000 48960355.000000,50314645.000000 48971194.000000,50330866.000000 48975000.000000,50350000.000000 48975000.000000,50450000.000000 48971194.000000,50469134.000000 48960355.000000,50485355.000000 48944134.000000,50496194.000000 48925000.000000,50500000.000000 48175000.000000,50500000.000000 48155866.000000,50496194.000000 48139645.000000,50485355.000000 48128806.000000,50469134.000000 48125000.000000,50450000.000000 Z"/> 
<svg:path style="fill:#000000; fill-opacity:1.0;  stroke:#000000; stroke-width:1.000000; stroke-opacity:1;  stroke-linecap:round; stroke-linejoin:round;fill-rule:evenodd;" d="M 48125000.000000,50750000.000000 48128806.000000,50730866.000000 48139645.000000,50714645.000000 48155866.000000,50703806.000000 48175000.000000,50700000.000000 48925000.000000,50700000.000000 48944134.000000,50703806.000000 48960355.000000,50714645.000000 48971194.000000,50730866.000000 48975000.000000,50750000.000000 48975000.000000,50850000.000000 48971194.000000,50869134.000000 48960355.000000,50885355.000000 48944134.000000,50896194.000000 48925000.000000,50900000.000000 48175000.000000,50900000.000000 48155866.000000,50896194.000000 48139645.000000,50885355.000000 48128806.000000,50869134.000000 48125000.000000,50850000.000000 Z"/> 
<svg:path style="fill:#000000; fill-opacity:1.0;  stroke:#000000; stroke-width:1.000000; stroke-opacity:1;  stroke-linecap:round; stroke-linejoin:round;fill-rule:evenodd;" d="M 49100000.000000,51075000.000000 49103806.000000,51055866.000000 49114645.000000,51039645.000000 49130866.000000,51028806.000000 49150000.000000,51025000.000000 49250000.000000,51025000.000000 49269134.000000,51028806.000000 49285355.000000,51039645.000000 49296194.000000,51055866.000000 49300000.000000,51075000.000000 49300000.000000,51825000.000000 49296194.000000,51844134.000000 49285355.000000,51860355.000000 49269134.000000,51871194.000000 49250000.000000,51875000.000000 49150000.000000,51875000.000000 49130866.000000,51871194.000000 49114645.000000,51860355.000000 49103806.000000,51844134.000000 49100000.000000,51825000.000000 Z"/> 
<svg:path style="fill:#000000; fill-opacity:1.0;  stroke:#000000; stroke-width:1.000000; stroke-opacity:1;  stroke-linecap:round; stroke-linejoin:round;fill-rule:evenodd;" d="M 49500000.000000,51075000.000000 49503806.000000,51055866.000000 49514645.000000,51039645.000000 49530866.000000,51028806.000000 49550000.000000,51025000.000000 49650000.000000,51025000.000000 49669134.000000,51028806.000000 49685355.000000,51039645.000000 49696194.000000,51055866.000000 49700000.000000,51075000.000000 49700000.000000,51825000.000000 49696194.000000,51844134.000000 49685355.000000,51860355.000000 49669134.000000,51871194.000000 49650000.000000,51875000.000000 49550000.000000,51875000.000000 49530866.000000,51871194.000000 49514645.000000,51860355.000000 49503806.000000,51844134.000000 49500000.000000,51825000.000000 Z"/> 
<svg:path style="fill:#000000; fill-opacity:1.0;  stroke:#000000; stroke-width:1.000000; stroke-opacity:1;  stroke-linecap:round; stroke-linejoin:round;fill-rule:evenodd;" d="M 49900000.000000,51075000.000000 49903806.000000,51055866.000000 49914645.000000,51039645.000000 49930866.000000,51028806.000000 49950000.000000,51025000.000000 50050000.000000,51025000.000000 50069134.000000,51028806.000000 50085355.000000,51039645.000000 50096194.000000,51055866.000000 50100000.000000,51075000.000000 50100000.000000,51825000.000000 50096194.000000,51844134.000000 50085355.000000,51860355.000000 50069134.000000,51871194.000000 50050000.000000,51875000.000000 49950000.000000,51875000.000000 49930866.000000,51871194.000000 49914645.000000,51860355.000000 49903806.000000,51844134.000000 49900000.000000,51825000.000000 Z"/> 
<svg:path style="fill:#000000; fill-opacity:1.0;  stroke:#000000; stroke-width:1.000000; stroke-opacity:1;  stroke-linecap:round; stroke-linejoin:round;fill-rule:evenodd;" d="M 50300000.000000,51075000.000000 50303806.000000,51055866.000000 50314645.000000,51039645.000000 50330866.000000,51028806.000000 50350000.000000,51025000.000000 50450000.000000,51025000.000000 50469134.000000,51028806.000000 50485355.000000,51039645.000000 50496194.000000,51055866.000000 50500000.000000,51075000.000000 50500000.000000,51825000.000000 50496194.000000,51844134.000000 50485355.000000,51860355.000000 50469134.000000,51871194.000000 50450000.000000,51875000.000000 50350000.000000,51875000.000000 50330866.000000,51871194.000000 50314645.000000,51860355.000000 50303806.000000,51844134.000000 50300000.000000,51825000.000000 Z"/> 
<svg:path style="fill:#000000; fill-opacity:1.0;  stroke:#000000; stroke-width:1.000000; stroke-opacity:1;  stroke-linecap:round; stroke-linejoin:round;fill-rule:evenodd;" d="M 50700000.000000,51075000.000000 50703806.000000,51055866.000000 50714645.000000,51039645.000000 50730866.000000,51028806.000000 50750000.000000,51025000.000000 50850000.000000,51025000.000000 50869134.000000,51028806.000000 50885355.000000,51039645.000000 50896194.000000,51055866.000000 50900000.000000,51075000.000000 50900000.000000,51825000.000000 50896194.000000,51844134.000000 50885355.000000,51860355.000000 50869134.000000,51871194.000000 50850000.000000,51875000.000000 50750000.000000,51875000.000000 50730866.000000,51871194.000000 50714645.000000,51860355.000000 50703806.000000,51844134.000000 50700000.000000,51825000.000000 Z"/> 
<svg:path style="fill:#000000; fill-opacity:1.0;  stroke:#000000; stroke-width:1.000000; stroke-opacity:1;  stroke-linecap:round; stroke-linejoin:round;fill-rule:evenodd;" d="M 51025000.000000,50750000.000000 51028806.000000,50730866.000000 51039645.000000,50714645.000000 51055866.000000,50703806.000000 51075000.000000,50700000.000000 51825000.000000,50700000.000000 51844134.000000,50703806.000000 51860355.000000,50714645.000000 51871194.000000,50730866.000000 51875000.000000,50750000.000000 51875000.000000,50850000.000000 51871194.000000,50869134.000000 51860355.000000,50885355.000000 51844134.000000,50896194.000000 51825000.000000,50900000.000000 51075000.000000,50900000.000000 51055866.000000,50896194.000000 51039645.000000,50885355.000000 51028806.000000,50869134.000000 51025000.000000,50850000.000000 Z"/> 
<svg:path style="fill:#000000; fill-opacity:1.0;  stroke:#000000; stroke-width:1.000000; stroke-opacity:1;  stroke-linecap:round; stroke-linejoin:round;fill-rule:evenodd;" d="M 51025000.000000,50350000.000000 51028806.000000,50330866.000000 51039645.000000,50314645.000000 51055866.000000,50303806.000000 51075000.000000,50300000.000000 51825000.000000,50300000.000000 51844134.000000,50303806.000000 51860355.000000,50314645.000000 51871194.000000,50330866.000000 51875000.000000,50350000.000000 51875000.000000,50450000.000000 51871194.000000,50469134.000000 51860355.000000,50485355.000000 51844134.000000,50496194.000000 51825000.000000,50500000.000000 51075000.000000,50500000.000000 51055866.000000,50496194.000000 51039645.000000,50485355.000000 51028806.000000,50469134.000000 51025000.000000,50450000.000000 Z"/> 
<svg:path style="fill:#000000; fill-opacity:1.0;  stroke:#000000; stroke-width:1.000000; stroke-opacity:1;  stroke-linecap:round; stroke-linejoin:round;fill-rule:evenodd;" d="M 51025000.000000,49950000.000000 51028806.000000,49930866.000000 51039645.000000,49914645.000000 51055866.000000,49903806.000000 51075000.000000,49900000.000000 51825000.000000,49900000.000000 51844134.000000,49903806.000000 51860355.000000,49914645.000000 51871194.000000,49930866.000000 51875000.000000,49950000.000000 51875000.000000,50050000.000000 51871194.000000,50069134.000000 51860355.000000,50085355.000000 51844134.000000,50096194.000000 51825000.000000,50100000.000000 51075000.000000,50100000.000000 51055866.000000,50096194.000000 51039645.000000,50085355.000000 51028806.000000,50069134.000000 51025000.000000,50050000.000000 Z"/> 
<svg:path style="fill:#000000; fill-opacity:1.0;  stroke:#000000; stroke-width:1.000000; stroke-opacity:1;  stroke-linecap:round; stroke-linejoin:round;fill-rule:evenodd;" d="M 51025000.000000,49550000.000000 51028806.000000,49530866.000000 51039645.000000,49514645.000000 51055866.000000,49503806.000000 51075000.000000,49500000.000000 51825000.000000,49500000.000000 51844134.000000,49503806.000000 51860355.000000,49514645.000000 51871194.000000,49530866.000000 51875000.000000,49550000.000000 51875000.000000,49650000.000000 51871194.000000,49669134.000000 51860355.000000,49685355.000000 51844134.000000,49696194.000000 51825000.000000,49700000.000000 51075000.000000,49700000.000000 51055866.000000,49696194.000000 51039645.000000,49685355.000000 51028806.000000,49669134.000000 51025000.000000,49650000.000000 Z"/> 
<svg:path style="fill:#000000; fill-opacity:1.0;  stroke:#000000; stroke-width:1.000000; stroke-opacity:1;  stroke-linecap:round; stroke-linejoin:round;fill-rule:evenodd;" d="M 51025000.000000,49150000.000000 51028806.000000,49130866.000000 51039645.000000,49114645.000000 51055866.000000,49103806.000000 51075000.000000,49100000.000000 51825000.000000,49100000.000000 51844134.000000,49103806.000000 51860355.000000,49114645.000000 51871194.000000,49130866.000000 51875000.000000,49150000.000000 51875000.000000,49250000.000000 51871194.000000,49269134.000000 51860355.000000,49285355.000000 51844134.000000,49296194.000000 51825000.000000,49300000.000000 51075000.000000,49300000.000000 51055866.000000,49296194.000000 51039645.000000,49285355.000000 51028806.000000,49269134.000000 51025000.000000,49250000.000000 Z"/> 
<svg:path style="fill:#000000; fill-opacity:1.0;  stroke:#000000; stroke-width:1.000000; stroke-opacity:1;  stroke-linecap:round; stroke-linejoin:round;fill-rule:evenodd;" d="M 50700000.000000,48175000.000000 50703806.000000,48155866.000000 50714645.000000,48139645.000000 50730866.000000,48128806.000000 50750000.000000,48125000.000000 50850000.000000,48125000.000000 50869134.000000,48128806.000000 50885355.000000,48139645.000000 50896194.000000,48155866.000000 50900000.000000,48175000.000000 50900000.000000,48925000.000000 50896194.000000,48944134.000000 50885355.000000,48960355.000000 50869134.000000,48971194.000000 50850000.000000,48975000.000000 50750000.000000,48975000.000000 50730866.000000,48971194.000000 50714645.000000,48960355.000000 50703806.000000,48944134.000000 50700000.000000,48925000.000000 Z"/> 
<svg:path style="fill:#000000; fill-opacity:1.0;  stroke:#000000; stroke-width:1.000000; stroke-opacity:1;  stroke-linecap:round; stroke-linejoin:round;fill-rule:evenodd;" d="M 50300000.000000,48175000.000000 50303806.000000,48155866.000000 50314645.000000,48139645.000000 50330866.000000,48128806.000000 50350000.000000,48125000.000000 50450000.000000,48125000.000000 50469134.000000,48128806.000000 50485355.000000,48139645.000000 50496194.000000,48155866.000000 50500000.000000,48175000.000000 50500000.000000,48925000.000000 50496194.000000,48944134.000000 50485355.000000,48960355.000000 50469134.000000,48971194.000000 50450000.000000,48975000.000000 50350000.000000,48975000.000000 50330866.000000,48971194.000000 50314645.000000,48960355.000000 50303806.000000,48944134.000000 50300000.000000,48925000.000000 Z"/> 
<svg:path style="fill:#000000; fill-opacity:1.0;  stroke:#000000; stroke-width:1.000000; stroke-opacity:1;  stroke-linecap:round; stroke-linejoin:round;fill-rule:evenodd;" d="M 49900000.000000,48175000.000000 49903806.000000,48155866.000000 49914645.000000,48139645.000000 49930866.000000,48128806.000000 49950000.000000,48125000.000000 50050000.000000,48125000.000000 50069134.000000,48128806.000000 50085355.000000,48139645.000000 50096194.000000,48155866.000000 50100000.000000,48175000.000000 50100000.000000,48925000.000000 50096194.000000,48944134.000000 50085355.000000,48960355.000000 50069134.000000,48971194.000000 50050000.000000,48975000.000000 49950000.000000,48975000.000000 49930866.000000,48971194.000000 49914645.000000,48960355.000000 49903806.000000,48944134.000000 49900000.000000,48925000.000000 Z"/> 
<svg:path style="fill:#000000; fill-opacity:1.0;  stroke:#000000; stroke-width:1.000000; stroke-opacity:1;  stroke-linecap:round; stroke-linejoin:round;fill-rule:evenodd;" d="M 49500000.000000,48175000.000000 49503806.000000,48155866.000000 49514645.000000,48139645.000000 49530866.000000,48128806.000000 49550000.000000,48125000.000000 49650000.000000,48125000.000000 49669134.000000,48128806.000000 49685355.000000,48139645.000000 49696194.000000,48155866.000000 49700000.000000,48175000.000000 49700000.000000,48925000.000000 49696194.000000,48944134.000000 49685355.000000,48960355.000000 49669134.000000,48971194.000000 49650000.000000,48975000.000000 49550000.000000,48975000.000000 49530866.000000,48971194.000000 49514645.000000,48960355.000000 49503806.000000,48944134.000000 49500000.000000,48925000.000000 Z"/> 
<svg:path style="fill:#000000; fill-opacity:1.0;  stroke:#000000; stroke-width:1.000000; stroke-opacity:1;  stroke-linecap:round; stroke-linejoin:round;fill-rule:evenodd;" d="M 49100000.000000,48175000.000000 49103806.000000,48155866.000000 49114645.000000,48139645.000000 49130866.000000,48128806.000000 49150000.000000,48125000.000000 49250000.000000,48125000.000000 49269134.000000,48128806.000000 49285355.000000,48139645.000000 49296194.000000,48155866.000000 49300000.000000,48175000.000000 49300000.000000,48925000.000000 49296194.000000,48944134.000000 49285355.000000,48960355.000000 49269134.000000,48971194.000000 49250000.000000,48975000.000000 49150000.000000,48975000.000000 49130866.000000,48971194.000000 49114645.000000,48960355.000000 49103806.000000,48944134.000000 49100000.000000,48925000.000000 Z"/> 
</svg:g>
<svg:g>
</svg:g>
<svg:g>
</svg:g>
<svg:g>
</svg:g>
</svg:g>
<svg:g style="fill:#000000; fill-opacity:1.0;  stroke:#000000; stroke-width:1.000000; stroke-opacity:1;  stroke-linecap:round; stroke-linejoin:round;">
<svg:g>
</svg:g>
<svg:g>
</svg:g>
<svg:g>
</svg:g>
<svg:g>
</svg:g>
</svg:g> 
</svg:g><svg:g><svg:title>SVG Picture created as kicadBoard-F_Silkscreen.svg date 2022/11/19 05:07:10 </svg:title>
  <svg:desc>Picture generated by PCBNEW </svg:desc>
<svg:g style="fill:#000000; fill-opacity:1.000000;stroke:#000000; stroke-opacity:1.000000; stroke-linecap:round; stroke-linejoin:round;" transform="translate(0 0) scale(1 1)">
</svg:g>
<svg:g style="fill:#000000; fill-opacity:0.0;  stroke:#000000; stroke-width:0.000000; stroke-opacity:1;  stroke-linecap:round; stroke-linejoin:round;">
</svg:g>
<svg:g style="fill:#F2EDA1; fill-opacity:0.0;  stroke:#F2EDA1; stroke-width:0.000000; stroke-opacity:1;  stroke-linecap:round; stroke-linejoin:round;">
</svg:g>
<svg:g style="fill:#F2EDA1; fill-opacity:0.0;  stroke:#F2EDA1; stroke-width:150000.000000; stroke-opacity:1;  stroke-linecap:round; stroke-linejoin:round;">
<svg:text x="50000000.000000" y="47680000.000000" textLength="25857144.000000" font-size="1333333.000000" lengthAdjust="spacingAndGlyphs" text-anchor="middle" opacity="0">FZKDFNQFN21EP3X3P4EP165X165</svg:text>
<svg:g class="stroked-text"><svg:desc>FZKDFNQFN21EP3X3P4EP165X165</svg:desc>
<svg:path d="M37642857 47108571 L37309523 47108571 "/>
<svg:path d="M37309523 47632380 L37309523 46632380 L37785714 46632380 "/>
<svg:path d="M38071428 46632380 L38738095 46632380 L38071428 47632380 L38738095 47632380 "/>
<svg:path d="M39119047 47632380 L39119047 46632380 "/>
<svg:path d="M39690476 47632380 L39261904 47060952 "/>
<svg:path d="M39690476 46632380 L39119047 47203809 "/>
<svg:path d="M40119047 47632380 L40119047 46632380 L40357142 46632380 L40499999 46680000 L40595238 46775238 L40642857 46870476 L40690476 47060952 L40690476 47203809 L40642857 47394285 L40595238 47489523 L40499999 47584761 L40357142 47632380 L40119047 47632380 "/>
<svg:path d="M41452380 47108571 L41119047 47108571 "/>
<svg:path d="M41119047 47632380 L41119047 46632380 L41595238 46632380 "/>
<svg:path d="M41976190 47632380 L41976190 46632380 L42547619 47632380 L42547619 46632380 "/>
<svg:path d="M43690476 47727619 L43595238 47680000 L43499999 47584761 L43357142 47441904 L43261904 47394285 L43166666 47394285 "/>
<svg:path d="M43214285 47632380 L43119047 47584761 L43023809 47489523 L42976190 47299047 L42976190 46965714 L43023809 46775238 L43119047 46680000 L43214285 46632380 L43404761 46632380 L43499999 46680000 L43595238 46775238 L43642857 46965714 L43642857 47299047 L43595238 47489523 L43499999 47584761 L43404761 47632380 L43214285 47632380 "/>
<svg:path d="M44404761 47108571 L44071428 47108571 "/>
<svg:path d="M44071428 47632380 L44071428 46632380 L44547619 46632380 "/>
<svg:path d="M44928571 47632380 L44928571 46632380 L45499999 47632380 L45499999 46632380 "/>
<svg:path d="M45928571 46727619 L45976190 46680000 L46071428 46632380 L46309523 46632380 L46404761 46680000 L46452380 46727619 L46499999 46822857 L46499999 46918095 L46452380 47060952 L45880952 47632380 L46499999 47632380 "/>
<svg:path d="M47452380 47632380 L46880952 47632380 "/>
<svg:path d="M47166666 47632380 L47166666 46632380 L47071428 46775238 L46976190 46870476 L46880952 46918095 "/>
<svg:path d="M47880952 47108571 L48214285 47108571 "/>
<svg:path d="M48357142 47632380 L47880952 47632380 L47880952 46632380 L48357142 46632380 "/>
<svg:path d="M48785714 47632380 L48785714 46632380 L49166666 46632380 L49261904 46680000 L49309523 46727619 L49357142 46822857 L49357142 46965714 L49309523 47060952 L49261904 47108571 L49166666 47156190 L48785714 47156190 "/>
<svg:path d="M49690476 46632380 L50309523 46632380 L49976190 47013333 L50119047 47013333 L50214285 47060952 L50261904 47108571 L50309523 47203809 L50309523 47441904 L50261904 47537142 L50214285 47584761 L50119047 47632380 L49833333 47632380 L49738095 47584761 L49690476 47537142 "/>
<svg:path d="M50642857 46632380 L51309523 47632380 "/>
<svg:path d="M51309523 46632380 L50642857 47632380 "/>
<svg:path d="M51595238 46632380 L52214285 46632380 L51880952 47013333 L52023809 47013333 L52119047 47060952 L52166666 47108571 L52214285 47203809 L52214285 47441904 L52166666 47537142 L52119047 47584761 L52023809 47632380 L51738095 47632380 L51642857 47584761 L51595238 47537142 "/>
<svg:path d="M52642857 47632380 L52642857 46632380 L53023809 46632380 L53119047 46680000 L53166666 46727619 L53214285 46822857 L53214285 46965714 L53166666 47060952 L53119047 47108571 L53023809 47156190 L52642857 47156190 "/>
<svg:path d="M54071428 46965714 L54071428 47632380 "/>
<svg:path d="M53833333 46584761 L53595238 47299047 L54214285 47299047 "/>
<svg:path d="M54595238 47108571 L54928571 47108571 "/>
<svg:path d="M55071428 47632380 L54595238 47632380 L54595238 46632380 L55071428 46632380 "/>
<svg:path d="M55499999 47632380 L55499999 46632380 L55880952 46632380 L55976190 46680000 L56023809 46727619 L56071428 46822857 L56071428 46965714 L56023809 47060952 L55976190 47108571 L55880952 47156190 L55499999 47156190 "/>
<svg:path d="M57023809 47632380 L56452380 47632380 "/>
<svg:path d="M56738095 47632380 L56738095 46632380 L56642857 46775238 L56547619 46870476 L56452380 46918095 "/>
<svg:path d="M57880952 46632380 L57690476 46632380 L57595238 46680000 L57547619 46727619 L57452380 46870476 L57404761 47060952 L57404761 47441904 L57452380 47537142 L57499999 47584761 L57595238 47632380 L57785714 47632380 L57880952 47584761 L57928571 47537142 L57976190 47441904 L57976190 47203809 L57928571 47108571 L57880952 47060952 L57785714 47013333 L57595238 47013333 L57499999 47060952 L57452380 47108571 L57404761 47203809 "/>
<svg:path d="M58880952 46632380 L58404761 46632380 L58357142 47108571 L58404761 47060952 L58499999 47013333 L58738095 47013333 L58833333 47060952 L58880952 47108571 L58928571 47203809 L58928571 47441904 L58880952 47537142 L58833333 47584761 L58738095 47632380 L58499999 47632380 L58404761 47584761 L58357142 47537142 "/>
<svg:path d="M59261904 46632380 L59928571 47632380 "/>
<svg:path d="M59928571 46632380 L59261904 47632380 "/>
<svg:path d="M60833333 47632380 L60261904 47632380 "/>
<svg:path d="M60547619 47632380 L60547619 46632380 L60452380 46775238 L60357142 46870476 L60261904 46918095 "/>
<svg:path d="M61690476 46632380 L61499999 46632380 L61404761 46680000 L61357142 46727619 L61261904 46870476 L61214285 47060952 L61214285 47441904 L61261904 47537142 L61309523 47584761 L61404761 47632380 L61595238 47632380 L61690476 47584761 L61738095 47537142 L61785714 47441904 L61785714 47203809 L61738095 47108571 L61690476 47060952 L61595238 47013333 L61404761 47013333 L61309523 47060952 L61261904 47108571 L61214285 47203809 "/>
<svg:path d="M62690476 46632380 L62214285 46632380 L62166666 47108571 L62214285 47060952 L62309523 47013333 L62547619 47013333 L62642857 47060952 L62690476 47108571 L62738095 47203809 L62738095 47441904 L62690476 47537142 L62642857 47584761 L62547619 47632380 L62309523 47632380 L62214285 47584761 L62166666 47537142 "/>
</svg:g></svg:g>
<svg:g style="fill:#F2EDA1; fill-opacity:0.0;  stroke:#F2EDA1; stroke-width:120000.000000; stroke-opacity:1;  stroke-linecap:round; stroke-linejoin:round;">
<svg:path d="M51610000 51610000 L51610000 51160000 "/>
<svg:path d="M48390000 51610000 L48390000 51160000 "/>
<svg:path d="M51610000 48390000 L51610000 48840000 "/>
<svg:path d="M48840000 51610000 L48390000 51610000 "/>
<svg:path d="M51160000 48390000 L51610000 48390000 "/>
<svg:path d="M51160000 51610000 L51610000 51610000 "/>
<svg:path d="M48840000 48390000 L48390000 48390000 "/>
<svg:g>
</svg:g>
<svg:g>
</svg:g>
<svg:g>
</svg:g>
<svg:g>
</svg:g>
</svg:g>
<svg:g style="fill:#000000; fill-opacity:0.0;  stroke:#000000; stroke-width:120000.000000; stroke-opacity:1;  stroke-linecap:round; stroke-linejoin:round;">
<svg:g>
</svg:g>
<svg:g>
</svg:g>
<svg:g>
</svg:g>
<svg:g>
</svg:g>
</svg:g> 
</svg:g><svg:g><svg:title>SVG Picture created as kicadBoard-Margin.svg date 2022/11/19 05:07:10 </svg:title>
  <svg:desc>Picture generated by PCBNEW </svg:desc>
<svg:g style="fill:#000000; fill-opacity:1.000000;stroke:#000000; stroke-opacity:1.000000; stroke-linecap:round; stroke-linejoin:round;" transform="translate(0 0) scale(1 1)">
</svg:g>
<svg:g style="fill:#000000; fill-opacity:0.0;  stroke:#000000; stroke-width:0.000000; stroke-opacity:1;  stroke-linecap:round; stroke-linejoin:round;">
<svg:g>
</svg:g>
<svg:g>
</svg:g>
<svg:g>
</svg:g>
<svg:g>
</svg:g>
</svg:g>
<svg:g style="fill:#000000; fill-opacity:0.0;  stroke:#000000; stroke-width:0.000000; stroke-opacity:1;  stroke-linecap:round; stroke-linejoin:round;">
<svg:g>
</svg:g>
<svg:g>
</svg:g>
<svg:g>
</svg:g>
<svg:g>
</svg:g>
</svg:g> 
</svg:g><svg:g><svg:title>SVG Picture created as kicadBoard-F_Cu.svg date 2022/11/19 05:07:10 </svg:title>
  <svg:desc>Picture generated by PCBNEW </svg:desc>
<svg:g style="fill:#000000; fill-opacity:1.000000;stroke:#000000; stroke-opacity:1.000000; stroke-linecap:round; stroke-linejoin:round;" transform="translate(0 0) scale(1 1)">
</svg:g>
<svg:g style="fill:#000000; fill-opacity:0.0;  stroke:#000000; stroke-width:0.000000; stroke-opacity:1;  stroke-linecap:round; stroke-linejoin:round;">
<svg:g>
</svg:g>
<svg:g style="fill:#C83434; fill-opacity:0.0;  stroke:#C83434; stroke-width:0.000000; stroke-opacity:1;  stroke-linecap:round; stroke-linejoin:round;">
</svg:g>
<svg:g style="fill:#C83434; fill-opacity:0.0;  stroke:#C83434; stroke-width:1.000000; stroke-opacity:1;  stroke-linecap:round; stroke-linejoin:round;">
</svg:g>
<svg:g style="fill:#C83434; fill-opacity:1.0;  stroke:#C83434; stroke-width:1.000000; stroke-opacity:1;  stroke-linecap:round; stroke-linejoin:round;">
<svg:path style="fill:#C83434; fill-opacity:1.0;  stroke:#C83434; stroke-width:1.000000; stroke-opacity:1;  stroke-linecap:round; stroke-linejoin:round;fill-rule:evenodd;" d="M 48125000.000000,49150000.000000 48128806.000000,49130866.000000 48139645.000000,49114645.000000 48155866.000000,49103806.000000 48175000.000000,49100000.000000 48925000.000000,49100000.000000 48944134.000000,49103806.000000 48960355.000000,49114645.000000 48971194.000000,49130866.000000 48975000.000000,49150000.000000 48975000.000000,49250000.000000 48971194.000000,49269134.000000 48960355.000000,49285355.000000 48944134.000000,49296194.000000 48925000.000000,49300000.000000 48175000.000000,49300000.000000 48155866.000000,49296194.000000 48139645.000000,49285355.000000 48128806.000000,49269134.000000 48125000.000000,49250000.000000 Z"/> 
<svg:path style="fill:#C83434; fill-opacity:1.0;  stroke:#C83434; stroke-width:1.000000; stroke-opacity:1;  stroke-linecap:round; stroke-linejoin:round;fill-rule:evenodd;" d="M 48125000.000000,49550000.000000 48128806.000000,49530866.000000 48139645.000000,49514645.000000 48155866.000000,49503806.000000 48175000.000000,49500000.000000 48925000.000000,49500000.000000 48944134.000000,49503806.000000 48960355.000000,49514645.000000 48971194.000000,49530866.000000 48975000.000000,49550000.000000 48975000.000000,49650000.000000 48971194.000000,49669134.000000 48960355.000000,49685355.000000 48944134.000000,49696194.000000 48925000.000000,49700000.000000 48175000.000000,49700000.000000 48155866.000000,49696194.000000 48139645.000000,49685355.000000 48128806.000000,49669134.000000 48125000.000000,49650000.000000 Z"/> 
<svg:path style="fill:#C83434; fill-opacity:1.0;  stroke:#C83434; stroke-width:1.000000; stroke-opacity:1;  stroke-linecap:round; stroke-linejoin:round;fill-rule:evenodd;" d="M 48125000.000000,49950000.000000 48128806.000000,49930866.000000 48139645.000000,49914645.000000 48155866.000000,49903806.000000 48175000.000000,49900000.000000 48925000.000000,49900000.000000 48944134.000000,49903806.000000 48960355.000000,49914645.000000 48971194.000000,49930866.000000 48975000.000000,49950000.000000 48975000.000000,50050000.000000 48971194.000000,50069134.000000 48960355.000000,50085355.000000 48944134.000000,50096194.000000 48925000.000000,50100000.000000 48175000.000000,50100000.000000 48155866.000000,50096194.000000 48139645.000000,50085355.000000 48128806.000000,50069134.000000 48125000.000000,50050000.000000 Z"/> 
<svg:path style="fill:#C83434; fill-opacity:1.0;  stroke:#C83434; stroke-width:1.000000; stroke-opacity:1;  stroke-linecap:round; stroke-linejoin:round;fill-rule:evenodd;" d="M 48125000.000000,50350000.000000 48128806.000000,50330866.000000 48139645.000000,50314645.000000 48155866.000000,50303806.000000 48175000.000000,50300000.000000 48925000.000000,50300000.000000 48944134.000000,50303806.000000 48960355.000000,50314645.000000 48971194.000000,50330866.000000 48975000.000000,50350000.000000 48975000.000000,50450000.000000 48971194.000000,50469134.000000 48960355.000000,50485355.000000 48944134.000000,50496194.000000 48925000.000000,50500000.000000 48175000.000000,50500000.000000 48155866.000000,50496194.000000 48139645.000000,50485355.000000 48128806.000000,50469134.000000 48125000.000000,50450000.000000 Z"/> 
<svg:path style="fill:#C83434; fill-opacity:1.0;  stroke:#C83434; stroke-width:1.000000; stroke-opacity:1;  stroke-linecap:round; stroke-linejoin:round;fill-rule:evenodd;" d="M 48125000.000000,50750000.000000 48128806.000000,50730866.000000 48139645.000000,50714645.000000 48155866.000000,50703806.000000 48175000.000000,50700000.000000 48925000.000000,50700000.000000 48944134.000000,50703806.000000 48960355.000000,50714645.000000 48971194.000000,50730866.000000 48975000.000000,50750000.000000 48975000.000000,50850000.000000 48971194.000000,50869134.000000 48960355.000000,50885355.000000 48944134.000000,50896194.000000 48925000.000000,50900000.000000 48175000.000000,50900000.000000 48155866.000000,50896194.000000 48139645.000000,50885355.000000 48128806.000000,50869134.000000 48125000.000000,50850000.000000 Z"/> 
<svg:path style="fill:#C83434; fill-opacity:1.0;  stroke:#C83434; stroke-width:1.000000; stroke-opacity:1;  stroke-linecap:round; stroke-linejoin:round;fill-rule:evenodd;" d="M 49100000.000000,51075000.000000 49103806.000000,51055866.000000 49114645.000000,51039645.000000 49130866.000000,51028806.000000 49150000.000000,51025000.000000 49250000.000000,51025000.000000 49269134.000000,51028806.000000 49285355.000000,51039645.000000 49296194.000000,51055866.000000 49300000.000000,51075000.000000 49300000.000000,51825000.000000 49296194.000000,51844134.000000 49285355.000000,51860355.000000 49269134.000000,51871194.000000 49250000.000000,51875000.000000 49150000.000000,51875000.000000 49130866.000000,51871194.000000 49114645.000000,51860355.000000 49103806.000000,51844134.000000 49100000.000000,51825000.000000 Z"/> 
<svg:path style="fill:#C83434; fill-opacity:1.0;  stroke:#C83434; stroke-width:1.000000; stroke-opacity:1;  stroke-linecap:round; stroke-linejoin:round;fill-rule:evenodd;" d="M 49500000.000000,51075000.000000 49503806.000000,51055866.000000 49514645.000000,51039645.000000 49530866.000000,51028806.000000 49550000.000000,51025000.000000 49650000.000000,51025000.000000 49669134.000000,51028806.000000 49685355.000000,51039645.000000 49696194.000000,51055866.000000 49700000.000000,51075000.000000 49700000.000000,51825000.000000 49696194.000000,51844134.000000 49685355.000000,51860355.000000 49669134.000000,51871194.000000 49650000.000000,51875000.000000 49550000.000000,51875000.000000 49530866.000000,51871194.000000 49514645.000000,51860355.000000 49503806.000000,51844134.000000 49500000.000000,51825000.000000 Z"/> 
<svg:path style="fill:#C83434; fill-opacity:1.0;  stroke:#C83434; stroke-width:1.000000; stroke-opacity:1;  stroke-linecap:round; stroke-linejoin:round;fill-rule:evenodd;" d="M 49900000.000000,51075000.000000 49903806.000000,51055866.000000 49914645.000000,51039645.000000 49930866.000000,51028806.000000 49950000.000000,51025000.000000 50050000.000000,51025000.000000 50069134.000000,51028806.000000 50085355.000000,51039645.000000 50096194.000000,51055866.000000 50100000.000000,51075000.000000 50100000.000000,51825000.000000 50096194.000000,51844134.000000 50085355.000000,51860355.000000 50069134.000000,51871194.000000 50050000.000000,51875000.000000 49950000.000000,51875000.000000 49930866.000000,51871194.000000 49914645.000000,51860355.000000 49903806.000000,51844134.000000 49900000.000000,51825000.000000 Z"/> 
<svg:path style="fill:#C83434; fill-opacity:1.0;  stroke:#C83434; stroke-width:1.000000; stroke-opacity:1;  stroke-linecap:round; stroke-linejoin:round;fill-rule:evenodd;" d="M 50300000.000000,51075000.000000 50303806.000000,51055866.000000 50314645.000000,51039645.000000 50330866.000000,51028806.000000 50350000.000000,51025000.000000 50450000.000000,51025000.000000 50469134.000000,51028806.000000 50485355.000000,51039645.000000 50496194.000000,51055866.000000 50500000.000000,51075000.000000 50500000.000000,51825000.000000 50496194.000000,51844134.000000 50485355.000000,51860355.000000 50469134.000000,51871194.000000 50450000.000000,51875000.000000 50350000.000000,51875000.000000 50330866.000000,51871194.000000 50314645.000000,51860355.000000 50303806.000000,51844134.000000 50300000.000000,51825000.000000 Z"/> 
<svg:path style="fill:#C83434; fill-opacity:1.0;  stroke:#C83434; stroke-width:1.000000; stroke-opacity:1;  stroke-linecap:round; stroke-linejoin:round;fill-rule:evenodd;" d="M 50700000.000000,51075000.000000 50703806.000000,51055866.000000 50714645.000000,51039645.000000 50730866.000000,51028806.000000 50750000.000000,51025000.000000 50850000.000000,51025000.000000 50869134.000000,51028806.000000 50885355.000000,51039645.000000 50896194.000000,51055866.000000 50900000.000000,51075000.000000 50900000.000000,51825000.000000 50896194.000000,51844134.000000 50885355.000000,51860355.000000 50869134.000000,51871194.000000 50850000.000000,51875000.000000 50750000.000000,51875000.000000 50730866.000000,51871194.000000 50714645.000000,51860355.000000 50703806.000000,51844134.000000 50700000.000000,51825000.000000 Z"/> 
<svg:path style="fill:#C83434; fill-opacity:1.0;  stroke:#C83434; stroke-width:1.000000; stroke-opacity:1;  stroke-linecap:round; stroke-linejoin:round;fill-rule:evenodd;" d="M 51025000.000000,50750000.000000 51028806.000000,50730866.000000 51039645.000000,50714645.000000 51055866.000000,50703806.000000 51075000.000000,50700000.000000 51825000.000000,50700000.000000 51844134.000000,50703806.000000 51860355.000000,50714645.000000 51871194.000000,50730866.000000 51875000.000000,50750000.000000 51875000.000000,50850000.000000 51871194.000000,50869134.000000 51860355.000000,50885355.000000 51844134.000000,50896194.000000 51825000.000000,50900000.000000 51075000.000000,50900000.000000 51055866.000000,50896194.000000 51039645.000000,50885355.000000 51028806.000000,50869134.000000 51025000.000000,50850000.000000 Z"/> 
<svg:path style="fill:#C83434; fill-opacity:1.0;  stroke:#C83434; stroke-width:1.000000; stroke-opacity:1;  stroke-linecap:round; stroke-linejoin:round;fill-rule:evenodd;" d="M 51025000.000000,50350000.000000 51028806.000000,50330866.000000 51039645.000000,50314645.000000 51055866.000000,50303806.000000 51075000.000000,50300000.000000 51825000.000000,50300000.000000 51844134.000000,50303806.000000 51860355.000000,50314645.000000 51871194.000000,50330866.000000 51875000.000000,50350000.000000 51875000.000000,50450000.000000 51871194.000000,50469134.000000 51860355.000000,50485355.000000 51844134.000000,50496194.000000 51825000.000000,50500000.000000 51075000.000000,50500000.000000 51055866.000000,50496194.000000 51039645.000000,50485355.000000 51028806.000000,50469134.000000 51025000.000000,50450000.000000 Z"/> 
<svg:path style="fill:#C83434; fill-opacity:1.0;  stroke:#C83434; stroke-width:1.000000; stroke-opacity:1;  stroke-linecap:round; stroke-linejoin:round;fill-rule:evenodd;" d="M 51025000.000000,49950000.000000 51028806.000000,49930866.000000 51039645.000000,49914645.000000 51055866.000000,49903806.000000 51075000.000000,49900000.000000 51825000.000000,49900000.000000 51844134.000000,49903806.000000 51860355.000000,49914645.000000 51871194.000000,49930866.000000 51875000.000000,49950000.000000 51875000.000000,50050000.000000 51871194.000000,50069134.000000 51860355.000000,50085355.000000 51844134.000000,50096194.000000 51825000.000000,50100000.000000 51075000.000000,50100000.000000 51055866.000000,50096194.000000 51039645.000000,50085355.000000 51028806.000000,50069134.000000 51025000.000000,50050000.000000 Z"/> 
<svg:path style="fill:#C83434; fill-opacity:1.0;  stroke:#C83434; stroke-width:1.000000; stroke-opacity:1;  stroke-linecap:round; stroke-linejoin:round;fill-rule:evenodd;" d="M 51025000.000000,49550000.000000 51028806.000000,49530866.000000 51039645.000000,49514645.000000 51055866.000000,49503806.000000 51075000.000000,49500000.000000 51825000.000000,49500000.000000 51844134.000000,49503806.000000 51860355.000000,49514645.000000 51871194.000000,49530866.000000 51875000.000000,49550000.000000 51875000.000000,49650000.000000 51871194.000000,49669134.000000 51860355.000000,49685355.000000 51844134.000000,49696194.000000 51825000.000000,49700000.000000 51075000.000000,49700000.000000 51055866.000000,49696194.000000 51039645.000000,49685355.000000 51028806.000000,49669134.000000 51025000.000000,49650000.000000 Z"/> 
<svg:path style="fill:#C83434; fill-opacity:1.0;  stroke:#C83434; stroke-width:1.000000; stroke-opacity:1;  stroke-linecap:round; stroke-linejoin:round;fill-rule:evenodd;" d="M 51025000.000000,49150000.000000 51028806.000000,49130866.000000 51039645.000000,49114645.000000 51055866.000000,49103806.000000 51075000.000000,49100000.000000 51825000.000000,49100000.000000 51844134.000000,49103806.000000 51860355.000000,49114645.000000 51871194.000000,49130866.000000 51875000.000000,49150000.000000 51875000.000000,49250000.000000 51871194.000000,49269134.000000 51860355.000000,49285355.000000 51844134.000000,49296194.000000 51825000.000000,49300000.000000 51075000.000000,49300000.000000 51055866.000000,49296194.000000 51039645.000000,49285355.000000 51028806.000000,49269134.000000 51025000.000000,49250000.000000 Z"/> 
<svg:path style="fill:#C83434; fill-opacity:1.0;  stroke:#C83434; stroke-width:1.000000; stroke-opacity:1;  stroke-linecap:round; stroke-linejoin:round;fill-rule:evenodd;" d="M 50700000.000000,48175000.000000 50703806.000000,48155866.000000 50714645.000000,48139645.000000 50730866.000000,48128806.000000 50750000.000000,48125000.000000 50850000.000000,48125000.000000 50869134.000000,48128806.000000 50885355.000000,48139645.000000 50896194.000000,48155866.000000 50900000.000000,48175000.000000 50900000.000000,48925000.000000 50896194.000000,48944134.000000 50885355.000000,48960355.000000 50869134.000000,48971194.000000 50850000.000000,48975000.000000 50750000.000000,48975000.000000 50730866.000000,48971194.000000 50714645.000000,48960355.000000 50703806.000000,48944134.000000 50700000.000000,48925000.000000 Z"/> 
<svg:path style="fill:#C83434; fill-opacity:1.0;  stroke:#C83434; stroke-width:1.000000; stroke-opacity:1;  stroke-linecap:round; stroke-linejoin:round;fill-rule:evenodd;" d="M 50300000.000000,48175000.000000 50303806.000000,48155866.000000 50314645.000000,48139645.000000 50330866.000000,48128806.000000 50350000.000000,48125000.000000 50450000.000000,48125000.000000 50469134.000000,48128806.000000 50485355.000000,48139645.000000 50496194.000000,48155866.000000 50500000.000000,48175000.000000 50500000.000000,48925000.000000 50496194.000000,48944134.000000 50485355.000000,48960355.000000 50469134.000000,48971194.000000 50450000.000000,48975000.000000 50350000.000000,48975000.000000 50330866.000000,48971194.000000 50314645.000000,48960355.000000 50303806.000000,48944134.000000 50300000.000000,48925000.000000 Z"/> 
<svg:path style="fill:#C83434; fill-opacity:1.0;  stroke:#C83434; stroke-width:1.000000; stroke-opacity:1;  stroke-linecap:round; stroke-linejoin:round;fill-rule:evenodd;" d="M 49900000.000000,48175000.000000 49903806.000000,48155866.000000 49914645.000000,48139645.000000 49930866.000000,48128806.000000 49950000.000000,48125000.000000 50050000.000000,48125000.000000 50069134.000000,48128806.000000 50085355.000000,48139645.000000 50096194.000000,48155866.000000 50100000.000000,48175000.000000 50100000.000000,48925000.000000 50096194.000000,48944134.000000 50085355.000000,48960355.000000 50069134.000000,48971194.000000 50050000.000000,48975000.000000 49950000.000000,48975000.000000 49930866.000000,48971194.000000 49914645.000000,48960355.000000 49903806.000000,48944134.000000 49900000.000000,48925000.000000 Z"/> 
<svg:path style="fill:#C83434; fill-opacity:1.0;  stroke:#C83434; stroke-width:1.000000; stroke-opacity:1;  stroke-linecap:round; stroke-linejoin:round;fill-rule:evenodd;" d="M 49500000.000000,48175000.000000 49503806.000000,48155866.000000 49514645.000000,48139645.000000 49530866.000000,48128806.000000 49550000.000000,48125000.000000 49650000.000000,48125000.000000 49669134.000000,48128806.000000 49685355.000000,48139645.000000 49696194.000000,48155866.000000 49700000.000000,48175000.000000 49700000.000000,48925000.000000 49696194.000000,48944134.000000 49685355.000000,48960355.000000 49669134.000000,48971194.000000 49650000.000000,48975000.000000 49550000.000000,48975000.000000 49530866.000000,48971194.000000 49514645.000000,48960355.000000 49503806.000000,48944134.000000 49500000.000000,48925000.000000 Z"/> 
<svg:path style="fill:#C83434; fill-opacity:1.0;  stroke:#C83434; stroke-width:1.000000; stroke-opacity:1;  stroke-linecap:round; stroke-linejoin:round;fill-rule:evenodd;" d="M 49100000.000000,48175000.000000 49103806.000000,48155866.000000 49114645.000000,48139645.000000 49130866.000000,48128806.000000 49150000.000000,48125000.000000 49250000.000000,48125000.000000 49269134.000000,48128806.000000 49285355.000000,48139645.000000 49296194.000000,48155866.000000 49300000.000000,48175000.000000 49300000.000000,48925000.000000 49296194.000000,48944134.000000 49285355.000000,48960355.000000 49269134.000000,48971194.000000 49250000.000000,48975000.000000 49150000.000000,48975000.000000 49130866.000000,48971194.000000 49114645.000000,48960355.000000 49103806.000000,48944134.000000 49100000.000000,48925000.000000 Z"/> 
<svg:path style="fill:#C83434; fill-opacity:1.0;  stroke:#C83434; stroke-width:1.000000; stroke-opacity:1;  stroke-linecap:round; stroke-linejoin:round;fill-rule:evenodd;" d="M 49175000.000000,50825000.000000 49175000.000000,49175000.000000 50825000.000000,49175000.000000 50825000.000000,50825000.000000 Z"/> 
</svg:g>
<svg:g>
</svg:g>
<svg:g>
</svg:g>
<svg:g>
</svg:g>
</svg:g>
<svg:g style="fill:#FFFFFF; fill-opacity:1.0;  stroke:#FFFFFF; stroke-width:1.000000; stroke-opacity:1;  stroke-linecap:round; stroke-linejoin:round;">
</svg:g>
<svg:g style="fill:#000000; fill-opacity:1.0;  stroke:#000000; stroke-width:1.000000; stroke-opacity:1;  stroke-linecap:round; stroke-linejoin:round;">
<svg:g>
</svg:g>
<svg:g>
</svg:g>
<svg:g>
</svg:g>
<svg:g>
</svg:g>
</svg:g> 
</svg:g></svg>
