<?xml version='1.0' encoding='ASCII' standalone='yes'?>
<svg xmlns:svg="http://www.w3.org/2000/svg" xmlns="http://www.w3.org/2000/svg" xmlns:xlink="http://www.w3.org/1999/xlink" version="1.1" width="9.999980cm" height="9.999980cm" viewBox="0 0 99999800 99999800">
<title>SVG Picture created as kicadBoard-B_Cu.svg date 2022/11/17 04:02:21 </title>
  <desc>Picture generated by PCBNEW </desc>
<g style="fill:#000000; fill-opacity:1.000000;stroke:#000000; stroke-opacity:1.000000; stroke-linecap:round; stroke-linejoin:round;" transform="translate(0 0) scale(1 1)">
</g>
<g style="fill:#000000; fill-opacity:0.0;  stroke:#000000; stroke-width:0.000000; stroke-opacity:1;  stroke-linecap:round; stroke-linejoin:round;">
<g>
</g>
<g style="fill:#4D7FC4; fill-opacity:0.0;  stroke:#4D7FC4; stroke-width:0.000000; stroke-opacity:1;  stroke-linecap:round; stroke-linejoin:round;">
</g>
<g style="fill:#4D7FC4; fill-opacity:1.0;  stroke:#4D7FC4; stroke-width:1.000000; stroke-opacity:1;  stroke-linecap:round; stroke-linejoin:round;">
<circle cx="50000000.000000" cy="50000000.000000" r="800000.000000"/> 
</g>
<g style="fill:#4D7FC4; fill-opacity:1.0;  stroke:#4D7FC4; stroke-width:21200.000000; stroke-opacity:1;  stroke-linecap:round; stroke-linejoin:round;">
</g>
<g style="fill:#4D7FC4; fill-opacity:1.0;  stroke:#4D7FC4; stroke-width:1.000000; stroke-opacity:1;  stroke-linecap:round; stroke-linejoin:round;">
<circle cx="60000000.000000" cy="50000000.000000" r="800000.000000"/> 
</g>
<g style="fill:#4D7FC4; fill-opacity:1.0;  stroke:#4D7FC4; stroke-width:21200.000000; stroke-opacity:1;  stroke-linecap:round; stroke-linejoin:round;">
</g>
<g>
</g>
<g>
</g>
<g>
</g>
</g>
<g style="fill:#FFFFFF; fill-opacity:1.0;  stroke:#FFFFFF; stroke-width:21200.000000; stroke-opacity:1;  stroke-linecap:round; stroke-linejoin:round;">
</g>
<g style="fill:#FFFFFF; fill-opacity:1.0;  stroke:#FFFFFF; stroke-width:1.000000; stroke-opacity:1;  stroke-linecap:round; stroke-linejoin:round;">
<circle cx="50000000.000000" cy="50000000.000000" r="400000.000000"/> 
</g>
<g style="fill:#FFFFFF; fill-opacity:1.0;  stroke:#FFFFFF; stroke-width:21200.000000; stroke-opacity:1;  stroke-linecap:round; stroke-linejoin:round;">
</g>
<g style="fill:#FFFFFF; fill-opacity:1.0;  stroke:#FFFFFF; stroke-width:1.000000; stroke-opacity:1;  stroke-linecap:round; stroke-linejoin:round;">
<circle cx="60000000.000000" cy="50000000.000000" r="400000.000000"/> 
</g>
<g style="fill:#FFFFFF; fill-opacity:1.0;  stroke:#FFFFFF; stroke-width:21200.000000; stroke-opacity:1;  stroke-linecap:round; stroke-linejoin:round;">
</g>
<g style="fill:#000000; fill-opacity:1.0;  stroke:#000000; stroke-width:21200.000000; stroke-opacity:1;  stroke-linecap:round; stroke-linejoin:round;">
<g>
</g>
<g>
</g>
<g>
</g>
<g>
</g>
</g> 
<svg:g><svg:title>SVG Picture created as kicadBoard-B_Adhesive.svg date 2022/11/17 04:02:21 </svg:title>
  <svg:desc>Picture generated by PCBNEW </svg:desc>
<svg:g style="fill:#000000; fill-opacity:1.000000;stroke:#000000; stroke-opacity:1.000000; stroke-linecap:round; stroke-linejoin:round;" transform="translate(0 0) scale(1 1)">
</svg:g>
<svg:g style="fill:#000000; fill-opacity:0.0;  stroke:#000000; stroke-width:0.000000; stroke-opacity:1;  stroke-linecap:round; stroke-linejoin:round;">
<svg:g>
</svg:g>
<svg:g>
</svg:g>
<svg:g>
</svg:g>
<svg:g>
</svg:g>
</svg:g>
<svg:g style="fill:#000000; fill-opacity:0.0;  stroke:#000000; stroke-width:0.000000; stroke-opacity:1;  stroke-linecap:round; stroke-linejoin:round;">
<svg:g>
</svg:g>
<svg:g>
</svg:g>
<svg:g>
</svg:g>
<svg:g>
</svg:g>
</svg:g> 
</svg:g><svg:g><svg:title>SVG Picture created as kicadBoard-B_Courtyard.svg date 2022/11/17 04:02:21 </svg:title>
  <svg:desc>Picture generated by PCBNEW </svg:desc>
<svg:g style="fill:#000000; fill-opacity:1.000000;stroke:#000000; stroke-opacity:1.000000; stroke-linecap:round; stroke-linejoin:round;" transform="translate(0 0) scale(1 1)">
</svg:g>
<svg:g style="fill:#000000; fill-opacity:0.0;  stroke:#000000; stroke-width:0.000000; stroke-opacity:1;  stroke-linecap:round; stroke-linejoin:round;">
<svg:g>
</svg:g>
<svg:g>
</svg:g>
<svg:g>
</svg:g>
<svg:g>
</svg:g>
</svg:g>
<svg:g style="fill:#000000; fill-opacity:0.0;  stroke:#000000; stroke-width:0.000000; stroke-opacity:1;  stroke-linecap:round; stroke-linejoin:round;">
<svg:g>
</svg:g>
<svg:g>
</svg:g>
<svg:g>
</svg:g>
<svg:g>
</svg:g>
</svg:g> 
</svg:g><svg:g><svg:title>SVG Picture created as kicadBoard-B_Fab.svg date 2022/11/17 04:02:21 </svg:title>
  <svg:desc>Picture generated by PCBNEW </svg:desc>
<svg:g style="fill:#000000; fill-opacity:1.000000;stroke:#000000; stroke-opacity:1.000000; stroke-linecap:round; stroke-linejoin:round;" transform="translate(0 0) scale(1 1)">
</svg:g>
<svg:g style="fill:#000000; fill-opacity:0.0;  stroke:#000000; stroke-width:0.000000; stroke-opacity:1;  stroke-linecap:round; stroke-linejoin:round;">
<svg:g>
</svg:g>
<svg:g>
</svg:g>
<svg:g>
</svg:g>
<svg:g>
</svg:g>
</svg:g>
<svg:g style="fill:#000000; fill-opacity:0.0;  stroke:#000000; stroke-width:0.000000; stroke-opacity:1;  stroke-linecap:round; stroke-linejoin:round;">
<svg:g>
</svg:g>
<svg:g>
</svg:g>
<svg:g>
</svg:g>
<svg:g>
</svg:g>
</svg:g> 
</svg:g><svg:g><svg:title>SVG Picture created as kicadBoard-B_Mask.svg date 2022/11/17 04:02:21 </svg:title>
  <svg:desc>Picture generated by PCBNEW </svg:desc>
<svg:g style="fill:#000000; fill-opacity:1.000000;stroke:#000000; stroke-opacity:1.000000; stroke-linecap:round; stroke-linejoin:round;" transform="translate(0 0) scale(1 1)">
</svg:g>
<svg:g style="fill:#000000; fill-opacity:0.0;  stroke:#000000; stroke-width:0.000000; stroke-opacity:1;  stroke-linecap:round; stroke-linejoin:round;">
<svg:g>
</svg:g>
<svg:g style="fill:#000000; fill-opacity:1.0;  stroke:#000000; stroke-width:1.000000; stroke-opacity:1;  stroke-linecap:round; stroke-linejoin:round;">
<svg:circle cx="50000000.000000" cy="50000000.000000" r="800000.000000"/> 
</svg:g>
<svg:g style="fill:#000000; fill-opacity:1.0;  stroke:#000000; stroke-width:21200.000000; stroke-opacity:1;  stroke-linecap:round; stroke-linejoin:round;">
</svg:g>
<svg:g style="fill:#000000; fill-opacity:1.0;  stroke:#000000; stroke-width:1.000000; stroke-opacity:1;  stroke-linecap:round; stroke-linejoin:round;">
<svg:circle cx="60000000.000000" cy="50000000.000000" r="800000.000000"/> 
</svg:g>
<svg:g style="fill:#000000; fill-opacity:1.0;  stroke:#000000; stroke-width:21200.000000; stroke-opacity:1;  stroke-linecap:round; stroke-linejoin:round;">
</svg:g>
<svg:g>
</svg:g>
<svg:g>
</svg:g>
<svg:g>
</svg:g>
</svg:g>
<svg:g style="fill:#000000; fill-opacity:1.0;  stroke:#000000; stroke-width:21200.000000; stroke-opacity:1;  stroke-linecap:round; stroke-linejoin:round;">
<svg:g>
</svg:g>
<svg:g>
</svg:g>
<svg:g>
</svg:g>
<svg:g>
</svg:g>
</svg:g> 
</svg:g><svg:g><svg:title>SVG Picture created as kicadBoard-B_Paste.svg date 2022/11/17 04:02:21 </svg:title>
  <svg:desc>Picture generated by PCBNEW </svg:desc>
<svg:g style="fill:#000000; fill-opacity:1.000000;stroke:#000000; stroke-opacity:1.000000; stroke-linecap:round; stroke-linejoin:round;" transform="translate(0 0) scale(1 1)">
</svg:g>
<svg:g style="fill:#000000; fill-opacity:0.0;  stroke:#000000; stroke-width:0.000000; stroke-opacity:1;  stroke-linecap:round; stroke-linejoin:round;">
<svg:g>
</svg:g>
<svg:g>
</svg:g>
<svg:g>
</svg:g>
<svg:g>
</svg:g>
</svg:g>
<svg:g style="fill:#000000; fill-opacity:0.0;  stroke:#000000; stroke-width:0.000000; stroke-opacity:1;  stroke-linecap:round; stroke-linejoin:round;">
<svg:g>
</svg:g>
<svg:g>
</svg:g>
<svg:g>
</svg:g>
<svg:g>
</svg:g>
</svg:g> 
</svg:g><svg:g><svg:title>SVG Picture created as kicadBoard-B_Silkscreen.svg date 2022/11/17 04:02:21 </svg:title>
  <svg:desc>Picture generated by PCBNEW </svg:desc>
<svg:g style="fill:#000000; fill-opacity:1.000000;stroke:#000000; stroke-opacity:1.000000; stroke-linecap:round; stroke-linejoin:round;" transform="translate(0 0) scale(1 1)">
</svg:g>
<svg:g style="fill:#000000; fill-opacity:0.0;  stroke:#000000; stroke-width:0.000000; stroke-opacity:1;  stroke-linecap:round; stroke-linejoin:round;">
<svg:g>
</svg:g>
<svg:g>
</svg:g>
<svg:g>
</svg:g>
<svg:g>
</svg:g>
</svg:g>
<svg:g style="fill:#000000; fill-opacity:0.0;  stroke:#000000; stroke-width:0.000000; stroke-opacity:1;  stroke-linecap:round; stroke-linejoin:round;">
<svg:g>
</svg:g>
<svg:g>
</svg:g>
<svg:g>
</svg:g>
<svg:g>
</svg:g>
</svg:g> 
</svg:g><svg:g><svg:title>SVG Picture created as kicadBoard-Edge_Cuts.svg date 2022/11/17 04:02:21 </svg:title>
  <svg:desc>Picture generated by PCBNEW </svg:desc>
<svg:g style="fill:#000000; fill-opacity:1.000000;stroke:#000000; stroke-opacity:1.000000; stroke-linecap:round; stroke-linejoin:round;" transform="translate(0 0) scale(1 1)">
</svg:g>
<svg:g style="fill:#000000; fill-opacity:0.0;  stroke:#000000; stroke-width:0.000000; stroke-opacity:1;  stroke-linecap:round; stroke-linejoin:round;">
<svg:g>
</svg:g>
<svg:g>
</svg:g>
<svg:g>
</svg:g>
<svg:g>
</svg:g>
</svg:g> 
</svg:g><svg:g><svg:title>SVG Picture created as kicadBoard-F_Adhesive.svg date 2022/11/17 04:02:21 </svg:title>
  <svg:desc>Picture generated by PCBNEW </svg:desc>
<svg:g style="fill:#000000; fill-opacity:1.000000;stroke:#000000; stroke-opacity:1.000000; stroke-linecap:round; stroke-linejoin:round;" transform="translate(0 0) scale(1 1)">
</svg:g>
<svg:g style="fill:#000000; fill-opacity:0.0;  stroke:#000000; stroke-width:0.000000; stroke-opacity:1;  stroke-linecap:round; stroke-linejoin:round;">
<svg:g>
</svg:g>
<svg:g>
</svg:g>
<svg:g>
</svg:g>
<svg:g>
</svg:g>
</svg:g>
<svg:g style="fill:#000000; fill-opacity:0.0;  stroke:#000000; stroke-width:0.000000; stroke-opacity:1;  stroke-linecap:round; stroke-linejoin:round;">
<svg:g>
</svg:g>
<svg:g>
</svg:g>
<svg:g>
</svg:g>
<svg:g>
</svg:g>
</svg:g> 
</svg:g><svg:g><svg:title>SVG Picture created as kicadBoard-F_Courtyard.svg date 2022/11/17 04:02:21 </svg:title>
  <svg:desc>Picture generated by PCBNEW </svg:desc>
<svg:g style="fill:#000000; fill-opacity:1.000000;stroke:#000000; stroke-opacity:1.000000; stroke-linecap:round; stroke-linejoin:round;" transform="translate(0 0) scale(1 1)">
</svg:g>
<svg:g style="fill:#000000; fill-opacity:0.0;  stroke:#000000; stroke-width:0.000000; stroke-opacity:1;  stroke-linecap:round; stroke-linejoin:round;">
</svg:g>
<svg:g style="fill:#FF26E2; fill-opacity:0.0;  stroke:#FF26E2; stroke-width:0.000000; stroke-opacity:1;  stroke-linecap:round; stroke-linejoin:round;">
</svg:g>
<svg:g style="fill:#FF26E2; fill-opacity:0.0;  stroke:#FF26E2; stroke-width:50000.000000; stroke-opacity:1;  stroke-linecap:round; stroke-linejoin:round;">
<svg:path d="M48950000 52500000 L61050000 52500000 "/>
<svg:path d="M61050000 52500000 L61050000 47500000 "/>
<svg:path d="M48950000 47500000 L48950000 52500000 "/>
<svg:path d="M61050000 47500000 L48950000 47500000 "/>
<svg:g>
</svg:g>
<svg:g>
</svg:g>
<svg:g>
</svg:g>
<svg:g>
</svg:g>
</svg:g>
<svg:g style="fill:#000000; fill-opacity:0.0;  stroke:#000000; stroke-width:50000.000000; stroke-opacity:1;  stroke-linecap:round; stroke-linejoin:round;">
<svg:g>
</svg:g>
<svg:g>
</svg:g>
<svg:g>
</svg:g>
<svg:g>
</svg:g>
</svg:g> 
</svg:g><svg:g><svg:title>SVG Picture created as kicadBoard-F_Cu.svg date 2022/11/17 04:02:21 </svg:title>
  <svg:desc>Picture generated by PCBNEW </svg:desc>
<svg:g style="fill:#000000; fill-opacity:1.000000;stroke:#000000; stroke-opacity:1.000000; stroke-linecap:round; stroke-linejoin:round;" transform="translate(0 0) scale(1 1)">
</svg:g>
<svg:g style="fill:#000000; fill-opacity:0.0;  stroke:#000000; stroke-width:0.000000; stroke-opacity:1;  stroke-linecap:round; stroke-linejoin:round;">
<svg:g>
</svg:g>
<svg:g style="fill:#C83434; fill-opacity:0.0;  stroke:#C83434; stroke-width:0.000000; stroke-opacity:1;  stroke-linecap:round; stroke-linejoin:round;">
</svg:g>
<svg:g style="fill:#C83434; fill-opacity:1.0;  stroke:#C83434; stroke-width:1.000000; stroke-opacity:1;  stroke-linecap:round; stroke-linejoin:round;">
<svg:circle cx="50000000.000000" cy="50000000.000000" r="800000.000000"/> 
</svg:g>
<svg:g style="fill:#C83434; fill-opacity:1.0;  stroke:#C83434; stroke-width:21200.000000; stroke-opacity:1;  stroke-linecap:round; stroke-linejoin:round;">
</svg:g>
<svg:g style="fill:#C83434; fill-opacity:1.0;  stroke:#C83434; stroke-width:1.000000; stroke-opacity:1;  stroke-linecap:round; stroke-linejoin:round;">
<svg:circle cx="60000000.000000" cy="50000000.000000" r="800000.000000"/> 
</svg:g>
<svg:g style="fill:#C83434; fill-opacity:1.0;  stroke:#C83434; stroke-width:21200.000000; stroke-opacity:1;  stroke-linecap:round; stroke-linejoin:round;">
</svg:g>
<svg:g>
</svg:g>
<svg:g>
</svg:g>
<svg:g>
</svg:g>
</svg:g>
<svg:g style="fill:#FFFFFF; fill-opacity:1.0;  stroke:#FFFFFF; stroke-width:21200.000000; stroke-opacity:1;  stroke-linecap:round; stroke-linejoin:round;">
</svg:g>
<svg:g style="fill:#FFFFFF; fill-opacity:1.0;  stroke:#FFFFFF; stroke-width:1.000000; stroke-opacity:1;  stroke-linecap:round; stroke-linejoin:round;">
<svg:circle cx="50000000.000000" cy="50000000.000000" r="400000.000000"/> 
</svg:g>
<svg:g style="fill:#FFFFFF; fill-opacity:1.0;  stroke:#FFFFFF; stroke-width:21200.000000; stroke-opacity:1;  stroke-linecap:round; stroke-linejoin:round;">
</svg:g>
<svg:g style="fill:#FFFFFF; fill-opacity:1.0;  stroke:#FFFFFF; stroke-width:1.000000; stroke-opacity:1;  stroke-linecap:round; stroke-linejoin:round;">
<svg:circle cx="60000000.000000" cy="50000000.000000" r="400000.000000"/> 
</svg:g>
<svg:g style="fill:#FFFFFF; fill-opacity:1.0;  stroke:#FFFFFF; stroke-width:21200.000000; stroke-opacity:1;  stroke-linecap:round; stroke-linejoin:round;">
</svg:g>
<svg:g style="fill:#000000; fill-opacity:1.0;  stroke:#000000; stroke-width:21200.000000; stroke-opacity:1;  stroke-linecap:round; stroke-linejoin:round;">
<svg:g>
</svg:g>
<svg:g>
</svg:g>
<svg:g>
</svg:g>
<svg:g>
</svg:g>
</svg:g> 
</svg:g><svg:g><svg:title>SVG Picture created as kicadBoard-F_Fab.svg date 2022/11/17 04:02:21 </svg:title>
  <svg:desc>Picture generated by PCBNEW </svg:desc>
<svg:g style="fill:#000000; fill-opacity:1.000000;stroke:#000000; stroke-opacity:1.000000; stroke-linecap:round; stroke-linejoin:round;" transform="translate(0 0) scale(1 1)">
</svg:g>
<svg:g style="fill:#000000; fill-opacity:0.0;  stroke:#000000; stroke-width:0.000000; stroke-opacity:1;  stroke-linecap:round; stroke-linejoin:round;">
</svg:g>
<svg:g style="fill:#AFAFAF; fill-opacity:0.0;  stroke:#AFAFAF; stroke-width:0.000000; stroke-opacity:1;  stroke-linecap:round; stroke-linejoin:round;">
</svg:g>
<svg:g style="fill:#AFAFAF; fill-opacity:0.0;  stroke:#AFAFAF; stroke-width:150000.000000; stroke-opacity:1;  stroke-linecap:round; stroke-linejoin:round;">
<svg:text x="55000000.000000" y="54000000.000000" textLength="32147381.000000" font-size="1333333.000000" lengthAdjust="spacingAndGlyphs" text-anchor="middle" opacity="0">C_Rect_L11.5mm_W4.5mm_P10.00mm_MKT</svg:text>
<svg:g class="stroked-text"><svg:desc>C_Rect_L11.5mm_W4.5mm_P10.00mm_MKT</svg:desc>
<svg:path d="M39833333 53857142 L39785714 53904761 L39642857 53952380 L39547619 53952380 L39404761 53904761 L39309523 53809523 L39261904 53714285 L39214285 53523809 L39214285 53380952 L39261904 53190476 L39309523 53095238 L39404761 53000000 L39547619 52952380 L39642857 52952380 L39785714 53000000 L39833333 53047619 "/>
<svg:path d="M40023809 54047619 L40785714 54047619 "/>
<svg:path d="M41595238 53952380 L41261904 53476190 "/>
<svg:path d="M41023809 53952380 L41023809 52952380 L41404761 52952380 L41500000 53000000 L41547619 53047619 L41595238 53142857 L41595238 53285714 L41547619 53380952 L41500000 53428571 L41404761 53476190 L41023809 53476190 "/>
<svg:path d="M42404761 53904761 L42309523 53952380 L42119047 53952380 L42023809 53904761 L41976190 53809523 L41976190 53428571 L42023809 53333333 L42119047 53285714 L42309523 53285714 L42404761 53333333 L42452380 53428571 L42452380 53523809 L41976190 53619047 "/>
<svg:path d="M43309523 53904761 L43214285 53952380 L43023809 53952380 L42928571 53904761 L42880952 53857142 L42833333 53761904 L42833333 53476190 L42880952 53380952 L42928571 53333333 L43023809 53285714 L43214285 53285714 L43309523 53333333 "/>
<svg:path d="M43595238 53285714 L43976190 53285714 "/>
<svg:path d="M43738095 52952380 L43738095 53809523 L43785714 53904761 L43880952 53952380 L43976190 53952380 "/>
<svg:path d="M44071428 54047619 L44833333 54047619 "/>
<svg:path d="M45547619 53952380 L45071428 53952380 L45071428 52952380 "/>
<svg:path d="M46404761 53952380 L45833333 53952380 "/>
<svg:path d="M46119047 53952380 L46119047 52952380 L46023809 53095238 L45928571 53190476 L45833333 53238095 "/>
<svg:path d="M47357142 53952380 L46785714 53952380 "/>
<svg:path d="M47071428 53952380 L47071428 52952380 L46976190 53095238 L46880952 53190476 L46785714 53238095 "/>
<svg:path d="M47785714 53857142 L47833333 53904761 L47785714 53952380 L47738095 53904761 L47785714 53857142 L47785714 53952380 "/>
<svg:path d="M48738095 52952380 L48261904 52952380 L48214285 53428571 L48261904 53380952 L48357142 53333333 L48595238 53333333 L48690476 53380952 L48738095 53428571 L48785714 53523809 L48785714 53761904 L48738095 53857142 L48690476 53904761 L48595238 53952380 L48357142 53952380 L48261904 53904761 L48214285 53857142 "/>
<svg:path d="M49214285 53952380 L49214285 53285714 "/>
<svg:path d="M49214285 53380952 L49261904 53333333 L49357142 53285714 L49500000 53285714 L49595238 53333333 L49642857 53428571 L49642857 53952380 "/>
<svg:path d="M49642857 53428571 L49690476 53333333 L49785714 53285714 L49928571 53285714 L50023809 53333333 L50071428 53428571 L50071428 53952380 "/>
<svg:path d="M50547619 53952380 L50547619 53285714 "/>
<svg:path d="M50547619 53380952 L50595238 53333333 L50690476 53285714 L50833333 53285714 L50928571 53333333 L50976190 53428571 L50976190 53952380 "/>
<svg:path d="M50976190 53428571 L51023809 53333333 L51119047 53285714 L51261904 53285714 L51357142 53333333 L51404761 53428571 L51404761 53952380 "/>
<svg:path d="M51642857 54047619 L52404761 54047619 "/>
<svg:path d="M52547619 52952380 L52785714 53952380 L52976190 53238095 L53166666 53952380 L53404761 52952380 "/>
<svg:path d="M54214285 53285714 L54214285 53952380 "/>
<svg:path d="M53976190 52904761 L53738095 53619047 L54357142 53619047 "/>
<svg:path d="M54738095 53857142 L54785714 53904761 L54738095 53952380 L54690476 53904761 L54738095 53857142 L54738095 53952380 "/>
<svg:path d="M55690476 52952380 L55214285 52952380 L55166666 53428571 L55214285 53380952 L55309523 53333333 L55547619 53333333 L55642857 53380952 L55690476 53428571 L55738095 53523809 L55738095 53761904 L55690476 53857142 L55642857 53904761 L55547619 53952380 L55309523 53952380 L55214285 53904761 L55166666 53857142 "/>
<svg:path d="M56166666 53952380 L56166666 53285714 "/>
<svg:path d="M56166666 53380952 L56214285 53333333 L56309523 53285714 L56452380 53285714 L56547619 53333333 L56595238 53428571 L56595238 53952380 "/>
<svg:path d="M56595238 53428571 L56642857 53333333 L56738095 53285714 L56880952 53285714 L56976190 53333333 L57023809 53428571 L57023809 53952380 "/>
<svg:path d="M57500000 53952380 L57500000 53285714 "/>
<svg:path d="M57500000 53380952 L57547619 53333333 L57642857 53285714 L57785714 53285714 L57880952 53333333 L57928571 53428571 L57928571 53952380 "/>
<svg:path d="M57928571 53428571 L57976190 53333333 L58071428 53285714 L58214285 53285714 L58309523 53333333 L58357142 53428571 L58357142 53952380 "/>
<svg:path d="M58595238 54047619 L59357142 54047619 "/>
<svg:path d="M59595238 53952380 L59595238 52952380 L59976190 52952380 L60071428 53000000 L60119047 53047619 L60166666 53142857 L60166666 53285714 L60119047 53380952 L60071428 53428571 L59976190 53476190 L59595238 53476190 "/>
<svg:path d="M61119047 53952380 L60547619 53952380 "/>
<svg:path d="M60833333 53952380 L60833333 52952380 L60738095 53095238 L60642857 53190476 L60547619 53238095 "/>
<svg:path d="M61738095 52952380 L61833333 52952380 L61928571 53000000 L61976190 53047619 L62023809 53142857 L62071428 53333333 L62071428 53571428 L62023809 53761904 L61976190 53857142 L61928571 53904761 L61833333 53952380 L61738095 53952380 L61642857 53904761 L61595238 53857142 L61547619 53761904 L61499999 53571428 L61499999 53333333 L61547619 53142857 L61595238 53047619 L61642857 53000000 L61738095 52952380 "/>
<svg:path d="M62499999 53857142 L62547619 53904761 L62499999 53952380 L62452380 53904761 L62499999 53857142 L62499999 53952380 "/>
<svg:path d="M63166666 52952380 L63261904 52952380 L63357142 53000000 L63404761 53047619 L63452380 53142857 L63499999 53333333 L63499999 53571428 L63452380 53761904 L63404761 53857142 L63357142 53904761 L63261904 53952380 L63166666 53952380 L63071428 53904761 L63023809 53857142 L62976190 53761904 L62928571 53571428 L62928571 53333333 L62976190 53142857 L63023809 53047619 L63071428 53000000 L63166666 52952380 "/>
<svg:path d="M64119047 52952380 L64214285 52952380 L64309523 53000000 L64357142 53047619 L64404761 53142857 L64452380 53333333 L64452380 53571428 L64404761 53761904 L64357142 53857142 L64309523 53904761 L64214285 53952380 L64119047 53952380 L64023809 53904761 L63976190 53857142 L63928571 53761904 L63880952 53571428 L63880952 53333333 L63928571 53142857 L63976190 53047619 L64023809 53000000 L64119047 52952380 "/>
<svg:path d="M64880952 53952380 L64880952 53285714 "/>
<svg:path d="M64880952 53380952 L64928571 53333333 L65023809 53285714 L65166666 53285714 L65261904 53333333 L65309523 53428571 L65309523 53952380 "/>
<svg:path d="M65309523 53428571 L65357142 53333333 L65452380 53285714 L65595238 53285714 L65690476 53333333 L65738095 53428571 L65738095 53952380 "/>
<svg:path d="M66214285 53952380 L66214285 53285714 "/>
<svg:path d="M66214285 53380952 L66261904 53333333 L66357142 53285714 L66499999 53285714 L66595238 53333333 L66642857 53428571 L66642857 53952380 "/>
<svg:path d="M66642857 53428571 L66690476 53333333 L66785714 53285714 L66928571 53285714 L67023809 53333333 L67071428 53428571 L67071428 53952380 "/>
<svg:path d="M67309523 54047619 L68071428 54047619 "/>
<svg:path d="M68309523 53952380 L68309523 52952380 L68642857 53666666 L68976190 52952380 L68976190 53952380 "/>
<svg:path d="M69452380 53952380 L69452380 52952380 "/>
<svg:path d="M70023809 53952380 L69595238 53380952 "/>
<svg:path d="M70023809 52952380 L69452380 53523809 "/>
<svg:path d="M70309523 52952380 L70880952 52952380 "/>
<svg:path d="M70595238 53952380 L70595238 52952380 "/>
</svg:g><svg:text x="55000000.000000" y="50500000.000000" textLength="20242619.000000" font-size="1333333.000000" lengthAdjust="spacingAndGlyphs" text-anchor="middle" opacity="0">FZKCCRECTL115W45P1MKT</svg:text>
<svg:g class="stroked-text"><svg:desc>FZKCCRECTL115W45P1MKT</svg:desc>
<svg:path d="M45547619 49928571 L45214285 49928571 "/>
<svg:path d="M45214285 50452380 L45214285 49452380 L45690476 49452380 "/>
<svg:path d="M45976190 49452380 L46642857 49452380 L45976190 50452380 L46642857 50452380 "/>
<svg:path d="M47023809 50452380 L47023809 49452380 "/>
<svg:path d="M47595238 50452380 L47166666 49880952 "/>
<svg:path d="M47595238 49452380 L47023809 50023809 "/>
<svg:path d="M48595238 50357142 L48547619 50404761 L48404761 50452380 L48309523 50452380 L48166666 50404761 L48071428 50309523 L48023809 50214285 L47976190 50023809 L47976190 49880952 L48023809 49690476 L48071428 49595238 L48166666 49500000 L48309523 49452380 L48404761 49452380 L48547619 49500000 L48595238 49547619 "/>
<svg:path d="M49595238 50357142 L49547619 50404761 L49404761 50452380 L49309523 50452380 L49166666 50404761 L49071428 50309523 L49023809 50214285 L48976190 50023809 L48976190 49880952 L49023809 49690476 L49071428 49595238 L49166666 49500000 L49309523 49452380 L49404761 49452380 L49547619 49500000 L49595238 49547619 "/>
<svg:path d="M50595238 50452380 L50261904 49976190 "/>
<svg:path d="M50023809 50452380 L50023809 49452380 L50404761 49452380 L50500000 49500000 L50547619 49547619 L50595238 49642857 L50595238 49785714 L50547619 49880952 L50500000 49928571 L50404761 49976190 L50023809 49976190 "/>
<svg:path d="M51023809 49928571 L51357142 49928571 "/>
<svg:path d="M51500000 50452380 L51023809 50452380 L51023809 49452380 L51500000 49452380 "/>
<svg:path d="M52500000 50357142 L52452380 50404761 L52309523 50452380 L52214285 50452380 L52071428 50404761 L51976190 50309523 L51928571 50214285 L51880952 50023809 L51880952 49880952 L51928571 49690476 L51976190 49595238 L52071428 49500000 L52214285 49452380 L52309523 49452380 L52452380 49500000 L52500000 49547619 "/>
<svg:path d="M52785714 49452380 L53357142 49452380 "/>
<svg:path d="M53071428 50452380 L53071428 49452380 "/>
<svg:path d="M54166666 50452380 L53690476 50452380 L53690476 49452380 "/>
<svg:path d="M55023809 50452380 L54452380 50452380 "/>
<svg:path d="M54738095 50452380 L54738095 49452380 L54642857 49595238 L54547619 49690476 L54452380 49738095 "/>
<svg:path d="M55976190 50452380 L55404761 50452380 "/>
<svg:path d="M55690476 50452380 L55690476 49452380 L55595238 49595238 L55500000 49690476 L55404761 49738095 "/>
<svg:path d="M56880952 49452380 L56404761 49452380 L56357142 49928571 L56404761 49880952 L56500000 49833333 L56738095 49833333 L56833333 49880952 L56880952 49928571 L56928571 50023809 L56928571 50261904 L56880952 50357142 L56833333 50404761 L56738095 50452380 L56500000 50452380 L56404761 50404761 L56357142 50357142 "/>
<svg:path d="M57261904 49452380 L57500000 50452380 L57690476 49738095 L57880952 50452380 L58119047 49452380 "/>
<svg:path d="M58928571 49785714 L58928571 50452380 "/>
<svg:path d="M58690476 49404761 L58452380 50119047 L59071428 50119047 "/>
<svg:path d="M59928571 49452380 L59452380 49452380 L59404761 49928571 L59452380 49880952 L59547619 49833333 L59785714 49833333 L59880952 49880952 L59928571 49928571 L59976190 50023809 L59976190 50261904 L59928571 50357142 L59880952 50404761 L59785714 50452380 L59547619 50452380 L59452380 50404761 L59404761 50357142 "/>
<svg:path d="M60404761 50452380 L60404761 49452380 L60785714 49452380 L60880952 49500000 L60928571 49547619 L60976190 49642857 L60976190 49785714 L60928571 49880952 L60880952 49928571 L60785714 49976190 L60404761 49976190 "/>
<svg:path d="M61928571 50452380 L61357142 50452380 "/>
<svg:path d="M61642857 50452380 L61642857 49452380 L61547619 49595238 L61452380 49690476 L61357142 49738095 "/>
<svg:path d="M62357142 50452380 L62357142 49452380 L62690476 50166666 L63023809 49452380 L63023809 50452380 "/>
<svg:path d="M63500000 50452380 L63500000 49452380 "/>
<svg:path d="M64071428 50452380 L63642857 49880952 "/>
<svg:path d="M64071428 49452380 L63500000 50023809 "/>
<svg:path d="M64357142 49452380 L64928571 49452380 "/>
<svg:path d="M64642857 50452380 L64642857 49452380 "/>
</svg:g></svg:g>
<svg:g style="fill:#AFAFAF; fill-opacity:0.0;  stroke:#AFAFAF; stroke-width:100000.000000; stroke-opacity:1;  stroke-linecap:round; stroke-linejoin:round;">
<svg:path d="M60750000 47750000 L49250000 47750000 "/>
<svg:path d="M49250000 52250000 L60750000 52250000 "/>
<svg:path d="M60750000 52250000 L60750000 47750000 "/>
<svg:path d="M49250000 47750000 L49250000 52250000 "/>
<svg:g>
</svg:g>
<svg:g>
</svg:g>
<svg:g>
</svg:g>
<svg:g>
</svg:g>
</svg:g>
<svg:g style="fill:#000000; fill-opacity:0.0;  stroke:#000000; stroke-width:100000.000000; stroke-opacity:1;  stroke-linecap:round; stroke-linejoin:round;">
<svg:g>
</svg:g>
<svg:g>
</svg:g>
<svg:g>
</svg:g>
<svg:g>
</svg:g>
</svg:g> 
</svg:g><svg:g><svg:title>SVG Picture created as kicadBoard-F_Mask.svg date 2022/11/17 04:02:21 </svg:title>
  <svg:desc>Picture generated by PCBNEW </svg:desc>
<svg:g style="fill:#000000; fill-opacity:1.000000;stroke:#000000; stroke-opacity:1.000000; stroke-linecap:round; stroke-linejoin:round;" transform="translate(0 0) scale(1 1)">
</svg:g>
<svg:g style="fill:#000000; fill-opacity:0.0;  stroke:#000000; stroke-width:0.000000; stroke-opacity:1;  stroke-linecap:round; stroke-linejoin:round;">
<svg:g>
</svg:g>
<svg:g style="fill:#000000; fill-opacity:1.0;  stroke:#000000; stroke-width:1.000000; stroke-opacity:1;  stroke-linecap:round; stroke-linejoin:round;">
<svg:circle cx="50000000.000000" cy="50000000.000000" r="800000.000000"/> 
</svg:g>
<svg:g style="fill:#000000; fill-opacity:1.0;  stroke:#000000; stroke-width:21200.000000; stroke-opacity:1;  stroke-linecap:round; stroke-linejoin:round;">
</svg:g>
<svg:g style="fill:#000000; fill-opacity:1.0;  stroke:#000000; stroke-width:1.000000; stroke-opacity:1;  stroke-linecap:round; stroke-linejoin:round;">
<svg:circle cx="60000000.000000" cy="50000000.000000" r="800000.000000"/> 
</svg:g>
<svg:g style="fill:#000000; fill-opacity:1.0;  stroke:#000000; stroke-width:21200.000000; stroke-opacity:1;  stroke-linecap:round; stroke-linejoin:round;">
</svg:g>
<svg:g>
</svg:g>
<svg:g>
</svg:g>
<svg:g>
</svg:g>
</svg:g>
<svg:g style="fill:#000000; fill-opacity:1.0;  stroke:#000000; stroke-width:21200.000000; stroke-opacity:1;  stroke-linecap:round; stroke-linejoin:round;">
<svg:g>
</svg:g>
<svg:g>
</svg:g>
<svg:g>
</svg:g>
<svg:g>
</svg:g>
</svg:g> 
</svg:g><svg:g><svg:title>SVG Picture created as kicadBoard-F_Paste.svg date 2022/11/17 04:02:21 </svg:title>
  <svg:desc>Picture generated by PCBNEW </svg:desc>
<svg:g style="fill:#000000; fill-opacity:1.000000;stroke:#000000; stroke-opacity:1.000000; stroke-linecap:round; stroke-linejoin:round;" transform="translate(0 0) scale(1 1)">
</svg:g>
<svg:g style="fill:#000000; fill-opacity:0.0;  stroke:#000000; stroke-width:0.000000; stroke-opacity:1;  stroke-linecap:round; stroke-linejoin:round;">
<svg:g>
</svg:g>
<svg:g>
</svg:g>
<svg:g>
</svg:g>
<svg:g>
</svg:g>
</svg:g>
<svg:g style="fill:#000000; fill-opacity:0.0;  stroke:#000000; stroke-width:0.000000; stroke-opacity:1;  stroke-linecap:round; stroke-linejoin:round;">
<svg:g>
</svg:g>
<svg:g>
</svg:g>
<svg:g>
</svg:g>
<svg:g>
</svg:g>
</svg:g> 
</svg:g><svg:g><svg:title>SVG Picture created as kicadBoard-F_Silkscreen.svg date 2022/11/17 04:02:21 </svg:title>
  <svg:desc>Picture generated by PCBNEW </svg:desc>
<svg:g style="fill:#000000; fill-opacity:1.000000;stroke:#000000; stroke-opacity:1.000000; stroke-linecap:round; stroke-linejoin:round;" transform="translate(0 0) scale(1 1)">
</svg:g>
<svg:g style="fill:#000000; fill-opacity:0.0;  stroke:#000000; stroke-width:0.000000; stroke-opacity:1;  stroke-linecap:round; stroke-linejoin:round;">
</svg:g>
<svg:g style="fill:#F2EDA1; fill-opacity:0.0;  stroke:#F2EDA1; stroke-width:0.000000; stroke-opacity:1;  stroke-linecap:round; stroke-linejoin:round;">
</svg:g>
<svg:g style="fill:#F2EDA1; fill-opacity:0.0;  stroke:#F2EDA1; stroke-width:150000.000000; stroke-opacity:1;  stroke-linecap:round; stroke-linejoin:round;">
<svg:text x="55000000.000000" y="47000000.000000" textLength="20047620.000000" font-size="1333333.000000" lengthAdjust="spacingAndGlyphs" text-anchor="middle" opacity="0">FZKCCRECTL115W45P1MKT</svg:text>
<svg:g class="stroked-text"><svg:desc>FZKCCRECTL115W45P1MKT</svg:desc>
<svg:path d="M45547619 46428571 L45214285 46428571 "/>
<svg:path d="M45214285 46952380 L45214285 45952380 L45690476 45952380 "/>
<svg:path d="M45976190 45952380 L46642857 45952380 L45976190 46952380 L46642857 46952380 "/>
<svg:path d="M47023809 46952380 L47023809 45952380 "/>
<svg:path d="M47595238 46952380 L47166666 46380952 "/>
<svg:path d="M47595238 45952380 L47023809 46523809 "/>
<svg:path d="M48595238 46857142 L48547619 46904761 L48404761 46952380 L48309523 46952380 L48166666 46904761 L48071428 46809523 L48023809 46714285 L47976190 46523809 L47976190 46380952 L48023809 46190476 L48071428 46095238 L48166666 46000000 L48309523 45952380 L48404761 45952380 L48547619 46000000 L48595238 46047619 "/>
<svg:path d="M49595238 46857142 L49547619 46904761 L49404761 46952380 L49309523 46952380 L49166666 46904761 L49071428 46809523 L49023809 46714285 L48976190 46523809 L48976190 46380952 L49023809 46190476 L49071428 46095238 L49166666 46000000 L49309523 45952380 L49404761 45952380 L49547619 46000000 L49595238 46047619 "/>
<svg:path d="M50595238 46952380 L50261904 46476190 "/>
<svg:path d="M50023809 46952380 L50023809 45952380 L50404761 45952380 L50500000 46000000 L50547619 46047619 L50595238 46142857 L50595238 46285714 L50547619 46380952 L50500000 46428571 L50404761 46476190 L50023809 46476190 "/>
<svg:path d="M51023809 46428571 L51357142 46428571 "/>
<svg:path d="M51500000 46952380 L51023809 46952380 L51023809 45952380 L51500000 45952380 "/>
<svg:path d="M52500000 46857142 L52452380 46904761 L52309523 46952380 L52214285 46952380 L52071428 46904761 L51976190 46809523 L51928571 46714285 L51880952 46523809 L51880952 46380952 L51928571 46190476 L51976190 46095238 L52071428 46000000 L52214285 45952380 L52309523 45952380 L52452380 46000000 L52500000 46047619 "/>
<svg:path d="M52785714 45952380 L53357142 45952380 "/>
<svg:path d="M53071428 46952380 L53071428 45952380 "/>
<svg:path d="M54166666 46952380 L53690476 46952380 L53690476 45952380 "/>
<svg:path d="M55023809 46952380 L54452380 46952380 "/>
<svg:path d="M54738095 46952380 L54738095 45952380 L54642857 46095238 L54547619 46190476 L54452380 46238095 "/>
<svg:path d="M55976190 46952380 L55404761 46952380 "/>
<svg:path d="M55690476 46952380 L55690476 45952380 L55595238 46095238 L55500000 46190476 L55404761 46238095 "/>
<svg:path d="M56880952 45952380 L56404761 45952380 L56357142 46428571 L56404761 46380952 L56500000 46333333 L56738095 46333333 L56833333 46380952 L56880952 46428571 L56928571 46523809 L56928571 46761904 L56880952 46857142 L56833333 46904761 L56738095 46952380 L56500000 46952380 L56404761 46904761 L56357142 46857142 "/>
<svg:path d="M57261904 45952380 L57500000 46952380 L57690476 46238095 L57880952 46952380 L58119047 45952380 "/>
<svg:path d="M58928571 46285714 L58928571 46952380 "/>
<svg:path d="M58690476 45904761 L58452380 46619047 L59071428 46619047 "/>
<svg:path d="M59928571 45952380 L59452380 45952380 L59404761 46428571 L59452380 46380952 L59547619 46333333 L59785714 46333333 L59880952 46380952 L59928571 46428571 L59976190 46523809 L59976190 46761904 L59928571 46857142 L59880952 46904761 L59785714 46952380 L59547619 46952380 L59452380 46904761 L59404761 46857142 "/>
<svg:path d="M60404761 46952380 L60404761 45952380 L60785714 45952380 L60880952 46000000 L60928571 46047619 L60976190 46142857 L60976190 46285714 L60928571 46380952 L60880952 46428571 L60785714 46476190 L60404761 46476190 "/>
<svg:path d="M61928571 46952380 L61357142 46952380 "/>
<svg:path d="M61642857 46952380 L61642857 45952380 L61547619 46095238 L61452380 46190476 L61357142 46238095 "/>
<svg:path d="M62357142 46952380 L62357142 45952380 L62690476 46666666 L63023809 45952380 L63023809 46952380 "/>
<svg:path d="M63500000 46952380 L63500000 45952380 "/>
<svg:path d="M64071428 46952380 L63642857 46380952 "/>
<svg:path d="M64071428 45952380 L63500000 46523809 "/>
<svg:path d="M64357142 45952380 L64928571 45952380 "/>
<svg:path d="M64642857 46952380 L64642857 45952380 "/>
</svg:g></svg:g>
<svg:g style="fill:#F2EDA1; fill-opacity:0.0;  stroke:#F2EDA1; stroke-width:120000.000000; stroke-opacity:1;  stroke-linecap:round; stroke-linejoin:round;">
<svg:path d="M49130000 52370000 L60870000 52370000 "/>
<svg:path d="M60870000 47630000 L60870000 49335000 "/>
<svg:path d="M49130000 47630000 L60870000 47630000 "/>
<svg:path d="M60870000 50665000 L60870000 52370000 "/>
<svg:path d="M49130000 50665000 L49130000 52370000 "/>
<svg:path d="M49130000 47630000 L49130000 49335000 "/>
<svg:g>
</svg:g>
<svg:g>
</svg:g>
<svg:g>
</svg:g>
<svg:g>
</svg:g>
</svg:g>
<svg:g style="fill:#000000; fill-opacity:0.0;  stroke:#000000; stroke-width:120000.000000; stroke-opacity:1;  stroke-linecap:round; stroke-linejoin:round;">
<svg:g>
</svg:g>
<svg:g>
</svg:g>
<svg:g>
</svg:g>
<svg:g>
</svg:g>
</svg:g> 
</svg:g><svg:g><svg:title>SVG Picture created as kicadBoard-Margin.svg date 2022/11/17 04:02:21 </svg:title>
  <svg:desc>Picture generated by PCBNEW </svg:desc>
<svg:g style="fill:#000000; fill-opacity:1.000000;stroke:#000000; stroke-opacity:1.000000; stroke-linecap:round; stroke-linejoin:round;" transform="translate(0 0) scale(1 1)">
</svg:g>
<svg:g style="fill:#000000; fill-opacity:0.0;  stroke:#000000; stroke-width:0.000000; stroke-opacity:1;  stroke-linecap:round; stroke-linejoin:round;">
<svg:g>
</svg:g>
<svg:g>
</svg:g>
<svg:g>
</svg:g>
<svg:g>
</svg:g>
</svg:g>
<svg:g style="fill:#000000; fill-opacity:0.0;  stroke:#000000; stroke-width:0.000000; stroke-opacity:1;  stroke-linecap:round; stroke-linejoin:round;">
<svg:g>
</svg:g>
<svg:g>
</svg:g>
<svg:g>
</svg:g>
<svg:g>
</svg:g>
</svg:g> 
</svg:g><svg:g><svg:title>SVG Picture created as kicadBoard-F_Cu.svg date 2022/11/17 04:02:21 </svg:title>
  <svg:desc>Picture generated by PCBNEW </svg:desc>
<svg:g style="fill:#000000; fill-opacity:1.000000;stroke:#000000; stroke-opacity:1.000000; stroke-linecap:round; stroke-linejoin:round;" transform="translate(0 0) scale(1 1)">
</svg:g>
<svg:g style="fill:#000000; fill-opacity:0.0;  stroke:#000000; stroke-width:0.000000; stroke-opacity:1;  stroke-linecap:round; stroke-linejoin:round;">
<svg:g>
</svg:g>
<svg:g style="fill:#C83434; fill-opacity:0.0;  stroke:#C83434; stroke-width:0.000000; stroke-opacity:1;  stroke-linecap:round; stroke-linejoin:round;">
</svg:g>
<svg:g style="fill:#C83434; fill-opacity:1.0;  stroke:#C83434; stroke-width:1.000000; stroke-opacity:1;  stroke-linecap:round; stroke-linejoin:round;">
<svg:circle cx="50000000.000000" cy="50000000.000000" r="800000.000000"/> 
</svg:g>
<svg:g style="fill:#C83434; fill-opacity:1.0;  stroke:#C83434; stroke-width:21200.000000; stroke-opacity:1;  stroke-linecap:round; stroke-linejoin:round;">
</svg:g>
<svg:g style="fill:#C83434; fill-opacity:1.0;  stroke:#C83434; stroke-width:1.000000; stroke-opacity:1;  stroke-linecap:round; stroke-linejoin:round;">
<svg:circle cx="60000000.000000" cy="50000000.000000" r="800000.000000"/> 
</svg:g>
<svg:g style="fill:#C83434; fill-opacity:1.0;  stroke:#C83434; stroke-width:21200.000000; stroke-opacity:1;  stroke-linecap:round; stroke-linejoin:round;">
</svg:g>
<svg:g>
</svg:g>
<svg:g>
</svg:g>
<svg:g>
</svg:g>
</svg:g>
<svg:g style="fill:#FFFFFF; fill-opacity:1.0;  stroke:#FFFFFF; stroke-width:21200.000000; stroke-opacity:1;  stroke-linecap:round; stroke-linejoin:round;">
</svg:g>
<svg:g style="fill:#FFFFFF; fill-opacity:1.0;  stroke:#FFFFFF; stroke-width:1.000000; stroke-opacity:1;  stroke-linecap:round; stroke-linejoin:round;">
<svg:circle cx="50000000.000000" cy="50000000.000000" r="400000.000000"/> 
</svg:g>
<svg:g style="fill:#FFFFFF; fill-opacity:1.0;  stroke:#FFFFFF; stroke-width:21200.000000; stroke-opacity:1;  stroke-linecap:round; stroke-linejoin:round;">
</svg:g>
<svg:g style="fill:#FFFFFF; fill-opacity:1.0;  stroke:#FFFFFF; stroke-width:1.000000; stroke-opacity:1;  stroke-linecap:round; stroke-linejoin:round;">
<svg:circle cx="60000000.000000" cy="50000000.000000" r="400000.000000"/> 
</svg:g>
<svg:g style="fill:#FFFFFF; fill-opacity:1.0;  stroke:#FFFFFF; stroke-width:21200.000000; stroke-opacity:1;  stroke-linecap:round; stroke-linejoin:round;">
</svg:g>
<svg:g style="fill:#000000; fill-opacity:1.0;  stroke:#000000; stroke-width:21200.000000; stroke-opacity:1;  stroke-linecap:round; stroke-linejoin:round;">
<svg:g>
</svg:g>
<svg:g>
</svg:g>
<svg:g>
</svg:g>
<svg:g>
</svg:g>
</svg:g> 
</svg:g></svg>
