<?xml version='1.0' encoding='ASCII' standalone='yes'?>
<svg xmlns:svg="http://www.w3.org/2000/svg" xmlns="http://www.w3.org/2000/svg" xmlns:xlink="http://www.w3.org/1999/xlink" version="1.1" width="9.999980cm" height="9.999980cm" viewBox="0 0 99999800 99999800">
<title>SVG Picture created as kicadBoard-B_Cu.svg date 2022/11/17 02:26:22 </title>
  <desc>Picture generated by PCBNEW </desc>
<g style="fill:#000000; fill-opacity:1.000000;stroke:#000000; stroke-opacity:1.000000; stroke-linecap:round; stroke-linejoin:round;" transform="translate(0 0) scale(1 1)">
</g>
<g style="fill:#000000; fill-opacity:0.0;  stroke:#000000; stroke-width:0.000000; stroke-opacity:1;  stroke-linecap:round; stroke-linejoin:round;">
<g>
</g>
<g style="fill:#4D7FC4; fill-opacity:0.0;  stroke:#4D7FC4; stroke-width:0.000000; stroke-opacity:1;  stroke-linecap:round; stroke-linejoin:round;">
</g>
<g style="fill:#4D7FC4; fill-opacity:1.0;  stroke:#4D7FC4; stroke-width:1.000000; stroke-opacity:1;  stroke-linecap:round; stroke-linejoin:round;">
<circle cx="50000000.000000" cy="50000000.000000" r="800000.000000"/> 
</g>
<g style="fill:#4D7FC4; fill-opacity:1.0;  stroke:#4D7FC4; stroke-width:21200.000000; stroke-opacity:1;  stroke-linecap:round; stroke-linejoin:round;">
</g>
<g style="fill:#4D7FC4; fill-opacity:1.0;  stroke:#4D7FC4; stroke-width:1.000000; stroke-opacity:1;  stroke-linecap:round; stroke-linejoin:round;">
<circle cx="52500000.000000" cy="50000000.000000" r="800000.000000"/> 
</g>
<g style="fill:#4D7FC4; fill-opacity:1.0;  stroke:#4D7FC4; stroke-width:21200.000000; stroke-opacity:1;  stroke-linecap:round; stroke-linejoin:round;">
</g>
<g>
</g>
<g>
</g>
<g>
</g>
</g>
<g style="fill:#FFFFFF; fill-opacity:1.0;  stroke:#FFFFFF; stroke-width:21200.000000; stroke-opacity:1;  stroke-linecap:round; stroke-linejoin:round;">
</g>
<g style="fill:#FFFFFF; fill-opacity:1.0;  stroke:#FFFFFF; stroke-width:1.000000; stroke-opacity:1;  stroke-linecap:round; stroke-linejoin:round;">
<circle cx="50000000.000000" cy="50000000.000000" r="400000.000000"/> 
</g>
<g style="fill:#FFFFFF; fill-opacity:1.0;  stroke:#FFFFFF; stroke-width:21200.000000; stroke-opacity:1;  stroke-linecap:round; stroke-linejoin:round;">
</g>
<g style="fill:#FFFFFF; fill-opacity:1.0;  stroke:#FFFFFF; stroke-width:1.000000; stroke-opacity:1;  stroke-linecap:round; stroke-linejoin:round;">
<circle cx="52500000.000000" cy="50000000.000000" r="400000.000000"/> 
</g>
<g style="fill:#FFFFFF; fill-opacity:1.0;  stroke:#FFFFFF; stroke-width:21200.000000; stroke-opacity:1;  stroke-linecap:round; stroke-linejoin:round;">
</g>
<g style="fill:#000000; fill-opacity:1.0;  stroke:#000000; stroke-width:21200.000000; stroke-opacity:1;  stroke-linecap:round; stroke-linejoin:round;">
<g>
</g>
<g>
</g>
<g>
</g>
<g>
</g>
</g> 
<svg:g><svg:title>SVG Picture created as kicadBoard-B_Adhesive.svg date 2022/11/17 02:26:22 </svg:title>
  <svg:desc>Picture generated by PCBNEW </svg:desc>
<svg:g style="fill:#000000; fill-opacity:1.000000;stroke:#000000; stroke-opacity:1.000000; stroke-linecap:round; stroke-linejoin:round;" transform="translate(0 0) scale(1 1)">
</svg:g>
<svg:g style="fill:#000000; fill-opacity:0.0;  stroke:#000000; stroke-width:0.000000; stroke-opacity:1;  stroke-linecap:round; stroke-linejoin:round;">
<svg:g>
</svg:g>
<svg:g>
</svg:g>
<svg:g>
</svg:g>
<svg:g>
</svg:g>
</svg:g>
<svg:g style="fill:#000000; fill-opacity:0.0;  stroke:#000000; stroke-width:0.000000; stroke-opacity:1;  stroke-linecap:round; stroke-linejoin:round;">
<svg:g>
</svg:g>
<svg:g>
</svg:g>
<svg:g>
</svg:g>
<svg:g>
</svg:g>
</svg:g> 
</svg:g><svg:g><svg:title>SVG Picture created as kicadBoard-B_Courtyard.svg date 2022/11/17 02:26:22 </svg:title>
  <svg:desc>Picture generated by PCBNEW </svg:desc>
<svg:g style="fill:#000000; fill-opacity:1.000000;stroke:#000000; stroke-opacity:1.000000; stroke-linecap:round; stroke-linejoin:round;" transform="translate(0 0) scale(1 1)">
</svg:g>
<svg:g style="fill:#000000; fill-opacity:0.0;  stroke:#000000; stroke-width:0.000000; stroke-opacity:1;  stroke-linecap:round; stroke-linejoin:round;">
<svg:g>
</svg:g>
<svg:g>
</svg:g>
<svg:g>
</svg:g>
<svg:g>
</svg:g>
</svg:g>
<svg:g style="fill:#000000; fill-opacity:0.0;  stroke:#000000; stroke-width:0.000000; stroke-opacity:1;  stroke-linecap:round; stroke-linejoin:round;">
<svg:g>
</svg:g>
<svg:g>
</svg:g>
<svg:g>
</svg:g>
<svg:g>
</svg:g>
</svg:g> 
</svg:g><svg:g><svg:title>SVG Picture created as kicadBoard-B_Fab.svg date 2022/11/17 02:26:22 </svg:title>
  <svg:desc>Picture generated by PCBNEW </svg:desc>
<svg:g style="fill:#000000; fill-opacity:1.000000;stroke:#000000; stroke-opacity:1.000000; stroke-linecap:round; stroke-linejoin:round;" transform="translate(0 0) scale(1 1)">
</svg:g>
<svg:g style="fill:#000000; fill-opacity:0.0;  stroke:#000000; stroke-width:0.000000; stroke-opacity:1;  stroke-linecap:round; stroke-linejoin:round;">
<svg:g>
</svg:g>
<svg:g>
</svg:g>
<svg:g>
</svg:g>
<svg:g>
</svg:g>
</svg:g>
<svg:g style="fill:#000000; fill-opacity:0.0;  stroke:#000000; stroke-width:0.000000; stroke-opacity:1;  stroke-linecap:round; stroke-linejoin:round;">
<svg:g>
</svg:g>
<svg:g>
</svg:g>
<svg:g>
</svg:g>
<svg:g>
</svg:g>
</svg:g> 
</svg:g><svg:g><svg:title>SVG Picture created as kicadBoard-B_Mask.svg date 2022/11/17 02:26:22 </svg:title>
  <svg:desc>Picture generated by PCBNEW </svg:desc>
<svg:g style="fill:#000000; fill-opacity:1.000000;stroke:#000000; stroke-opacity:1.000000; stroke-linecap:round; stroke-linejoin:round;" transform="translate(0 0) scale(1 1)">
</svg:g>
<svg:g style="fill:#000000; fill-opacity:0.0;  stroke:#000000; stroke-width:0.000000; stroke-opacity:1;  stroke-linecap:round; stroke-linejoin:round;">
<svg:g>
</svg:g>
<svg:g style="fill:#000000; fill-opacity:1.0;  stroke:#000000; stroke-width:1.000000; stroke-opacity:1;  stroke-linecap:round; stroke-linejoin:round;">
<svg:circle cx="50000000.000000" cy="50000000.000000" r="800000.000000"/> 
</svg:g>
<svg:g style="fill:#000000; fill-opacity:1.0;  stroke:#000000; stroke-width:21200.000000; stroke-opacity:1;  stroke-linecap:round; stroke-linejoin:round;">
</svg:g>
<svg:g style="fill:#000000; fill-opacity:1.0;  stroke:#000000; stroke-width:1.000000; stroke-opacity:1;  stroke-linecap:round; stroke-linejoin:round;">
<svg:circle cx="52500000.000000" cy="50000000.000000" r="800000.000000"/> 
</svg:g>
<svg:g style="fill:#000000; fill-opacity:1.0;  stroke:#000000; stroke-width:21200.000000; stroke-opacity:1;  stroke-linecap:round; stroke-linejoin:round;">
</svg:g>
<svg:g>
</svg:g>
<svg:g>
</svg:g>
<svg:g>
</svg:g>
</svg:g>
<svg:g style="fill:#000000; fill-opacity:1.0;  stroke:#000000; stroke-width:21200.000000; stroke-opacity:1;  stroke-linecap:round; stroke-linejoin:round;">
<svg:g>
</svg:g>
<svg:g>
</svg:g>
<svg:g>
</svg:g>
<svg:g>
</svg:g>
</svg:g> 
</svg:g><svg:g><svg:title>SVG Picture created as kicadBoard-B_Paste.svg date 2022/11/17 02:26:22 </svg:title>
  <svg:desc>Picture generated by PCBNEW </svg:desc>
<svg:g style="fill:#000000; fill-opacity:1.000000;stroke:#000000; stroke-opacity:1.000000; stroke-linecap:round; stroke-linejoin:round;" transform="translate(0 0) scale(1 1)">
</svg:g>
<svg:g style="fill:#000000; fill-opacity:0.0;  stroke:#000000; stroke-width:0.000000; stroke-opacity:1;  stroke-linecap:round; stroke-linejoin:round;">
<svg:g>
</svg:g>
<svg:g>
</svg:g>
<svg:g>
</svg:g>
<svg:g>
</svg:g>
</svg:g>
<svg:g style="fill:#000000; fill-opacity:0.0;  stroke:#000000; stroke-width:0.000000; stroke-opacity:1;  stroke-linecap:round; stroke-linejoin:round;">
<svg:g>
</svg:g>
<svg:g>
</svg:g>
<svg:g>
</svg:g>
<svg:g>
</svg:g>
</svg:g> 
</svg:g><svg:g><svg:title>SVG Picture created as kicadBoard-B_Silkscreen.svg date 2022/11/17 02:26:22 </svg:title>
  <svg:desc>Picture generated by PCBNEW </svg:desc>
<svg:g style="fill:#000000; fill-opacity:1.000000;stroke:#000000; stroke-opacity:1.000000; stroke-linecap:round; stroke-linejoin:round;" transform="translate(0 0) scale(1 1)">
</svg:g>
<svg:g style="fill:#000000; fill-opacity:0.0;  stroke:#000000; stroke-width:0.000000; stroke-opacity:1;  stroke-linecap:round; stroke-linejoin:round;">
<svg:g>
</svg:g>
<svg:g>
</svg:g>
<svg:g>
</svg:g>
<svg:g>
</svg:g>
</svg:g>
<svg:g style="fill:#000000; fill-opacity:0.0;  stroke:#000000; stroke-width:0.000000; stroke-opacity:1;  stroke-linecap:round; stroke-linejoin:round;">
<svg:g>
</svg:g>
<svg:g>
</svg:g>
<svg:g>
</svg:g>
<svg:g>
</svg:g>
</svg:g> 
</svg:g><svg:g><svg:title>SVG Picture created as kicadBoard-Edge_Cuts.svg date 2022/11/17 02:26:22 </svg:title>
  <svg:desc>Picture generated by PCBNEW </svg:desc>
<svg:g style="fill:#000000; fill-opacity:1.000000;stroke:#000000; stroke-opacity:1.000000; stroke-linecap:round; stroke-linejoin:round;" transform="translate(0 0) scale(1 1)">
</svg:g>
<svg:g style="fill:#000000; fill-opacity:0.0;  stroke:#000000; stroke-width:0.000000; stroke-opacity:1;  stroke-linecap:round; stroke-linejoin:round;">
<svg:g>
</svg:g>
<svg:g>
</svg:g>
<svg:g>
</svg:g>
<svg:g>
</svg:g>
</svg:g> 
</svg:g><svg:g><svg:title>SVG Picture created as kicadBoard-F_Adhesive.svg date 2022/11/17 02:26:22 </svg:title>
  <svg:desc>Picture generated by PCBNEW </svg:desc>
<svg:g style="fill:#000000; fill-opacity:1.000000;stroke:#000000; stroke-opacity:1.000000; stroke-linecap:round; stroke-linejoin:round;" transform="translate(0 0) scale(1 1)">
</svg:g>
<svg:g style="fill:#000000; fill-opacity:0.0;  stroke:#000000; stroke-width:0.000000; stroke-opacity:1;  stroke-linecap:round; stroke-linejoin:round;">
<svg:g>
</svg:g>
<svg:g>
</svg:g>
<svg:g>
</svg:g>
<svg:g>
</svg:g>
</svg:g>
<svg:g style="fill:#000000; fill-opacity:0.0;  stroke:#000000; stroke-width:0.000000; stroke-opacity:1;  stroke-linecap:round; stroke-linejoin:round;">
<svg:g>
</svg:g>
<svg:g>
</svg:g>
<svg:g>
</svg:g>
<svg:g>
</svg:g>
</svg:g> 
</svg:g><svg:g><svg:title>SVG Picture created as kicadBoard-F_Courtyard.svg date 2022/11/17 02:26:22 </svg:title>
  <svg:desc>Picture generated by PCBNEW </svg:desc>
<svg:g style="fill:#000000; fill-opacity:1.000000;stroke:#000000; stroke-opacity:1.000000; stroke-linecap:round; stroke-linejoin:round;" transform="translate(0 0) scale(1 1)">
</svg:g>
<svg:g style="fill:#000000; fill-opacity:0.0;  stroke:#000000; stroke-width:0.000000; stroke-opacity:1;  stroke-linecap:round; stroke-linejoin:round;">
</svg:g>
<svg:g style="fill:#FF26E2; fill-opacity:0.0;  stroke:#FF26E2; stroke-width:0.000000; stroke-opacity:1;  stroke-linecap:round; stroke-linejoin:round;">
</svg:g>
<svg:g style="fill:#FF26E2; fill-opacity:0.0;  stroke:#FF26E2; stroke-width:50000.000000; stroke-opacity:1;  stroke-linecap:round; stroke-linejoin:round;">
<svg:path d="M53550000 51050000 L53550000 48950000 "/>
<svg:path d="M48950000 51050000 L53550000 51050000 "/>
<svg:path d="M53550000 48950000 L48950000 48950000 "/>
<svg:path d="M48950000 48950000 L48950000 51050000 "/>
<svg:g>
</svg:g>
<svg:g>
</svg:g>
<svg:g>
</svg:g>
<svg:g>
</svg:g>
</svg:g>
<svg:g style="fill:#000000; fill-opacity:0.0;  stroke:#000000; stroke-width:50000.000000; stroke-opacity:1;  stroke-linecap:round; stroke-linejoin:round;">
<svg:g>
</svg:g>
<svg:g>
</svg:g>
<svg:g>
</svg:g>
<svg:g>
</svg:g>
</svg:g> 
</svg:g><svg:g><svg:title>SVG Picture created as kicadBoard-F_Fab.svg date 2022/11/17 02:26:22 </svg:title>
  <svg:desc>Picture generated by PCBNEW </svg:desc>
<svg:g style="fill:#000000; fill-opacity:1.000000;stroke:#000000; stroke-opacity:1.000000; stroke-linecap:round; stroke-linejoin:round;" transform="translate(0 0) scale(1 1)">
</svg:g>
<svg:g style="fill:#000000; fill-opacity:0.0;  stroke:#000000; stroke-width:0.000000; stroke-opacity:1;  stroke-linecap:round; stroke-linejoin:round;">
</svg:g>
<svg:g style="fill:#AFAFAF; fill-opacity:0.0;  stroke:#AFAFAF; stroke-width:0.000000; stroke-opacity:1;  stroke-linecap:round; stroke-linejoin:round;">
</svg:g>
<svg:g style="fill:#AFAFAF; fill-opacity:0.0;  stroke:#AFAFAF; stroke-width:150000.000000; stroke-opacity:1;  stroke-linecap:round; stroke-linejoin:round;">
<svg:text x="51250000.000000" y="52550000.000000" textLength="26623571.000000" font-size="1333333.000000" lengthAdjust="spacingAndGlyphs" text-anchor="middle" opacity="0">C_Disc_D3.0mm_W1.6mm_P2.50mm</svg:text>
<svg:g class="stroked-text"><svg:desc>C_Disc_D3.0mm_W1.6mm_P2.50mm</svg:desc>
<svg:path d="M38845238 52407142 L38797619 52454761 L38654761 52502380 L38559523 52502380 L38416666 52454761 L38321428 52359523 L38273809 52264285 L38226190 52073809 L38226190 51930952 L38273809 51740476 L38321428 51645238 L38416666 51550000 L38559523 51502380 L38654761 51502380 L38797619 51550000 L38845238 51597619 "/>
<svg:path d="M39035714 52597619 L39797619 52597619 "/>
<svg:path d="M40035714 52502380 L40035714 51502380 L40273809 51502380 L40416666 51550000 L40511904 51645238 L40559523 51740476 L40607142 51930952 L40607142 52073809 L40559523 52264285 L40511904 52359523 L40416666 52454761 L40273809 52502380 L40035714 52502380 "/>
<svg:path d="M41035714 52502380 L41035714 51835714 "/>
<svg:path d="M41035714 51502380 L40988095 51550000 L41035714 51597619 L41083333 51550000 L41035714 51502380 L41035714 51597619 "/>
<svg:path d="M41464285 52454761 L41559523 52502380 L41750000 52502380 L41845238 52454761 L41892857 52359523 L41892857 52311904 L41845238 52216666 L41750000 52169047 L41607142 52169047 L41511904 52121428 L41464285 52026190 L41464285 51978571 L41511904 51883333 L41607142 51835714 L41750000 51835714 L41845238 51883333 "/>
<svg:path d="M42750000 52454761 L42654761 52502380 L42464285 52502380 L42369047 52454761 L42321428 52407142 L42273809 52311904 L42273809 52026190 L42321428 51930952 L42369047 51883333 L42464285 51835714 L42654761 51835714 L42750000 51883333 "/>
<svg:path d="M42940476 52597619 L43702380 52597619 "/>
<svg:path d="M43940476 52502380 L43940476 51502380 L44178571 51502380 L44321428 51550000 L44416666 51645238 L44464285 51740476 L44511904 51930952 L44511904 52073809 L44464285 52264285 L44416666 52359523 L44321428 52454761 L44178571 52502380 L43940476 52502380 "/>
<svg:path d="M44845238 51502380 L45464285 51502380 L45130952 51883333 L45273809 51883333 L45369047 51930952 L45416666 51978571 L45464285 52073809 L45464285 52311904 L45416666 52407142 L45369047 52454761 L45273809 52502380 L44988095 52502380 L44892857 52454761 L44845238 52407142 "/>
<svg:path d="M45892857 52407142 L45940476 52454761 L45892857 52502380 L45845238 52454761 L45892857 52407142 L45892857 52502380 "/>
<svg:path d="M46559523 51502380 L46654761 51502380 L46750000 51550000 L46797619 51597619 L46845238 51692857 L46892857 51883333 L46892857 52121428 L46845238 52311904 L46797619 52407142 L46750000 52454761 L46654761 52502380 L46559523 52502380 L46464285 52454761 L46416666 52407142 L46369047 52311904 L46321428 52121428 L46321428 51883333 L46369047 51692857 L46416666 51597619 L46464285 51550000 L46559523 51502380 "/>
<svg:path d="M47321428 52502380 L47321428 51835714 "/>
<svg:path d="M47321428 51930952 L47369047 51883333 L47464285 51835714 L47607142 51835714 L47702380 51883333 L47750000 51978571 L47750000 52502380 "/>
<svg:path d="M47750000 51978571 L47797619 51883333 L47892857 51835714 L48035714 51835714 L48130952 51883333 L48178571 51978571 L48178571 52502380 "/>
<svg:path d="M48654761 52502380 L48654761 51835714 "/>
<svg:path d="M48654761 51930952 L48702380 51883333 L48797619 51835714 L48940476 51835714 L49035714 51883333 L49083333 51978571 L49083333 52502380 "/>
<svg:path d="M49083333 51978571 L49130952 51883333 L49226190 51835714 L49369047 51835714 L49464285 51883333 L49511904 51978571 L49511904 52502380 "/>
<svg:path d="M49750000 52597619 L50511904 52597619 "/>
<svg:path d="M50654761 51502380 L50892857 52502380 L51083333 51788095 L51273809 52502380 L51511904 51502380 "/>
<svg:path d="M52416666 52502380 L51845238 52502380 "/>
<svg:path d="M52130952 52502380 L52130952 51502380 L52035714 51645238 L51940476 51740476 L51845238 51788095 "/>
<svg:path d="M52845238 52407142 L52892857 52454761 L52845238 52502380 L52797619 52454761 L52845238 52407142 L52845238 52502380 "/>
<svg:path d="M53750000 51502380 L53559523 51502380 L53464285 51550000 L53416666 51597619 L53321428 51740476 L53273809 51930952 L53273809 52311904 L53321428 52407142 L53369047 52454761 L53464285 52502380 L53654761 52502380 L53750000 52454761 L53797619 52407142 L53845238 52311904 L53845238 52073809 L53797619 51978571 L53750000 51930952 L53654761 51883333 L53464285 51883333 L53369047 51930952 L53321428 51978571 L53273809 52073809 "/>
<svg:path d="M54273809 52502380 L54273809 51835714 "/>
<svg:path d="M54273809 51930952 L54321428 51883333 L54416666 51835714 L54559523 51835714 L54654761 51883333 L54702380 51978571 L54702380 52502380 "/>
<svg:path d="M54702380 51978571 L54750000 51883333 L54845238 51835714 L54988095 51835714 L55083333 51883333 L55130952 51978571 L55130952 52502380 "/>
<svg:path d="M55607142 52502380 L55607142 51835714 "/>
<svg:path d="M55607142 51930952 L55654761 51883333 L55750000 51835714 L55892857 51835714 L55988095 51883333 L56035714 51978571 L56035714 52502380 "/>
<svg:path d="M56035714 51978571 L56083333 51883333 L56178571 51835714 L56321428 51835714 L56416666 51883333 L56464285 51978571 L56464285 52502380 "/>
<svg:path d="M56702380 52597619 L57464285 52597619 "/>
<svg:path d="M57702380 52502380 L57702380 51502380 L58083333 51502380 L58178571 51550000 L58226190 51597619 L58273809 51692857 L58273809 51835714 L58226190 51930952 L58178571 51978571 L58083333 52026190 L57702380 52026190 "/>
<svg:path d="M58654761 51597619 L58702380 51550000 L58797619 51502380 L59035714 51502380 L59130952 51550000 L59178571 51597619 L59226190 51692857 L59226190 51788095 L59178571 51930952 L58607142 52502380 L59226190 52502380 "/>
<svg:path d="M59654761 52407142 L59702380 52454761 L59654761 52502380 L59607142 52454761 L59654761 52407142 L59654761 52502380 "/>
<svg:path d="M60607142 51502380 L60130952 51502380 L60083333 51978571 L60130952 51930952 L60226190 51883333 L60464285 51883333 L60559523 51930952 L60607142 51978571 L60654761 52073809 L60654761 52311904 L60607142 52407142 L60559523 52454761 L60464285 52502380 L60226190 52502380 L60130952 52454761 L60083333 52407142 "/>
<svg:path d="M61273809 51502380 L61369047 51502380 L61464285 51550000 L61511904 51597619 L61559523 51692857 L61607142 51883333 L61607142 52121428 L61559523 52311904 L61511904 52407142 L61464285 52454761 L61369047 52502380 L61273809 52502380 L61178571 52454761 L61130952 52407142 L61083333 52311904 L61035714 52121428 L61035714 51883333 L61083333 51692857 L61130952 51597619 L61178571 51550000 L61273809 51502380 "/>
<svg:path d="M62035714 52502380 L62035714 51835714 "/>
<svg:path d="M62035714 51930952 L62083333 51883333 L62178571 51835714 L62321428 51835714 L62416666 51883333 L62464285 51978571 L62464285 52502380 "/>
<svg:path d="M62464285 51978571 L62511904 51883333 L62607142 51835714 L62750000 51835714 L62845238 51883333 L62892857 51978571 L62892857 52502380 "/>
<svg:path d="M63369047 52502380 L63369047 51835714 "/>
<svg:path d="M63369047 51930952 L63416666 51883333 L63511904 51835714 L63654761 51835714 L63750000 51883333 L63797619 51978571 L63797619 52502380 "/>
<svg:path d="M63797619 51978571 L63845238 51883333 L63940476 51835714 L64083333 51835714 L64178571 51883333 L64226190 51978571 L64226190 52502380 "/>
</svg:g></svg:g>
<svg:g style="fill:#AFAFAF; fill-opacity:0.0;  stroke:#AFAFAF; stroke-width:90000.000000; stroke-opacity:1;  stroke-linecap:round; stroke-linejoin:round;">
<svg:text x="51250000.000000" y="50300000.000000" textLength="9880714.000000" font-size="800000.000000" lengthAdjust="spacingAndGlyphs" text-anchor="middle" opacity="0">FZKCCDISCD3W16P25</svg:text>
<svg:g class="stroked-text"><svg:desc>FZKCCDISCD3W16P25</svg:desc>
<svg:path d="M46750000 49957142 L46550000 49957142 "/>
<svg:path d="M46550000 50271428 L46550000 49671428 L46835714 49671428 "/>
<svg:path d="M47007142 49671428 L47407142 49671428 L47007142 50271428 L47407142 50271428 "/>
<svg:path d="M47635714 50271428 L47635714 49671428 "/>
<svg:path d="M47978571 50271428 L47721428 49928571 "/>
<svg:path d="M47978571 49671428 L47635714 50014285 "/>
<svg:path d="M48578571 50214285 L48550000 50242857 L48464285 50271428 L48407142 50271428 L48321428 50242857 L48264285 50185714 L48235714 50128571 L48207142 50014285 L48207142 49928571 L48235714 49814285 L48264285 49757142 L48321428 49700000 L48407142 49671428 L48464285 49671428 L48550000 49700000 L48578571 49728571 "/>
<svg:path d="M49178571 50214285 L49150000 50242857 L49064285 50271428 L49007142 50271428 L48921428 50242857 L48864285 50185714 L48835714 50128571 L48807142 50014285 L48807142 49928571 L48835714 49814285 L48864285 49757142 L48921428 49700000 L49007142 49671428 L49064285 49671428 L49150000 49700000 L49178571 49728571 "/>
<svg:path d="M49435714 50271428 L49435714 49671428 L49578571 49671428 L49664285 49700000 L49721428 49757142 L49750000 49814285 L49778571 49928571 L49778571 50014285 L49750000 50128571 L49721428 50185714 L49664285 50242857 L49578571 50271428 L49435714 50271428 "/>
<svg:path d="M50035714 50271428 L50035714 49671428 "/>
<svg:path d="M50292857 50242857 L50378571 50271428 L50521428 50271428 L50578571 50242857 L50607142 50214285 L50635714 50157142 L50635714 50100000 L50607142 50042857 L50578571 50014285 L50521428 49985714 L50407142 49957142 L50350000 49928571 L50321428 49900000 L50292857 49842857 L50292857 49785714 L50321428 49728571 L50350000 49700000 L50407142 49671428 L50550000 49671428 L50635714 49700000 "/>
<svg:path d="M51235714 50214285 L51207142 50242857 L51121428 50271428 L51064285 50271428 L50978571 50242857 L50921428 50185714 L50892857 50128571 L50864285 50014285 L50864285 49928571 L50892857 49814285 L50921428 49757142 L50978571 49700000 L51064285 49671428 L51121428 49671428 L51207142 49700000 L51235714 49728571 "/>
<svg:path d="M51492857 50271428 L51492857 49671428 L51635714 49671428 L51721428 49700000 L51778571 49757142 L51807142 49814285 L51835714 49928571 L51835714 50014285 L51807142 50128571 L51778571 50185714 L51721428 50242857 L51635714 50271428 L51492857 50271428 "/>
<svg:path d="M52035714 49671428 L52407142 49671428 L52207142 49900000 L52292857 49900000 L52350000 49928571 L52378571 49957142 L52407142 50014285 L52407142 50157142 L52378571 50214285 L52350000 50242857 L52292857 50271428 L52121428 50271428 L52064285 50242857 L52035714 50214285 "/>
<svg:path d="M52607142 49671428 L52750000 50271428 L52864285 49842857 L52978571 50271428 L53121428 49671428 "/>
<svg:path d="M53664285 50271428 L53321428 50271428 "/>
<svg:path d="M53492857 50271428 L53492857 49671428 L53435714 49757142 L53378571 49814285 L53321428 49842857 "/>
<svg:path d="M54178571 49671428 L54064285 49671428 L54007142 49700000 L53978571 49728571 L53921428 49814285 L53892857 49928571 L53892857 50157142 L53921428 50214285 L53950000 50242857 L54007142 50271428 L54121428 50271428 L54178571 50242857 L54207142 50214285 L54235714 50157142 L54235714 50014285 L54207142 49957142 L54178571 49928571 L54121428 49900000 L54007142 49900000 L53950000 49928571 L53921428 49957142 L53892857 50014285 "/>
<svg:path d="M54492857 50271428 L54492857 49671428 L54721428 49671428 L54778571 49700000 L54807142 49728571 L54835714 49785714 L54835714 49871428 L54807142 49928571 L54778571 49957142 L54721428 49985714 L54492857 49985714 "/>
<svg:path d="M55064285 49728571 L55092857 49700000 L55150000 49671428 L55292857 49671428 L55350000 49700000 L55378571 49728571 L55407142 49785714 L55407142 49842857 L55378571 49928571 L55035714 50271428 L55407142 50271428 "/>
<svg:path d="M55950000 49671428 L55664285 49671428 L55635714 49957142 L55664285 49928571 L55721428 49900000 L55864285 49900000 L55921428 49928571 L55950000 49957142 L55978571 50014285 L55978571 50157142 L55950000 50214285 L55921428 50242857 L55864285 50271428 L55721428 50271428 L55664285 50242857 L55635714 50214285 "/>
</svg:g></svg:g>
<svg:g style="fill:#AFAFAF; fill-opacity:0.0;  stroke:#AFAFAF; stroke-width:100000.000000; stroke-opacity:1;  stroke-linecap:round; stroke-linejoin:round;">
<svg:path d="M49750000 50800000 L52750000 50800000 "/>
<svg:path d="M49750000 49200000 L49750000 50800000 "/>
<svg:path d="M52750000 49200000 L49750000 49200000 "/>
<svg:path d="M52750000 50800000 L52750000 49200000 "/>
<svg:g>
</svg:g>
<svg:g>
</svg:g>
<svg:g>
</svg:g>
<svg:g>
</svg:g>
</svg:g>
<svg:g style="fill:#000000; fill-opacity:0.0;  stroke:#000000; stroke-width:100000.000000; stroke-opacity:1;  stroke-linecap:round; stroke-linejoin:round;">
<svg:g>
</svg:g>
<svg:g>
</svg:g>
<svg:g>
</svg:g>
<svg:g>
</svg:g>
</svg:g> 
</svg:g><svg:g><svg:title>SVG Picture created as kicadBoard-F_Mask.svg date 2022/11/17 02:26:22 </svg:title>
  <svg:desc>Picture generated by PCBNEW </svg:desc>
<svg:g style="fill:#000000; fill-opacity:1.000000;stroke:#000000; stroke-opacity:1.000000; stroke-linecap:round; stroke-linejoin:round;" transform="translate(0 0) scale(1 1)">
</svg:g>
<svg:g style="fill:#000000; fill-opacity:0.0;  stroke:#000000; stroke-width:0.000000; stroke-opacity:1;  stroke-linecap:round; stroke-linejoin:round;">
<svg:g>
</svg:g>
<svg:g style="fill:#000000; fill-opacity:1.0;  stroke:#000000; stroke-width:1.000000; stroke-opacity:1;  stroke-linecap:round; stroke-linejoin:round;">
<svg:circle cx="50000000.000000" cy="50000000.000000" r="800000.000000"/> 
</svg:g>
<svg:g style="fill:#000000; fill-opacity:1.0;  stroke:#000000; stroke-width:21200.000000; stroke-opacity:1;  stroke-linecap:round; stroke-linejoin:round;">
</svg:g>
<svg:g style="fill:#000000; fill-opacity:1.0;  stroke:#000000; stroke-width:1.000000; stroke-opacity:1;  stroke-linecap:round; stroke-linejoin:round;">
<svg:circle cx="52500000.000000" cy="50000000.000000" r="800000.000000"/> 
</svg:g>
<svg:g style="fill:#000000; fill-opacity:1.0;  stroke:#000000; stroke-width:21200.000000; stroke-opacity:1;  stroke-linecap:round; stroke-linejoin:round;">
</svg:g>
<svg:g>
</svg:g>
<svg:g>
</svg:g>
<svg:g>
</svg:g>
</svg:g>
<svg:g style="fill:#000000; fill-opacity:1.0;  stroke:#000000; stroke-width:21200.000000; stroke-opacity:1;  stroke-linecap:round; stroke-linejoin:round;">
<svg:g>
</svg:g>
<svg:g>
</svg:g>
<svg:g>
</svg:g>
<svg:g>
</svg:g>
</svg:g> 
</svg:g><svg:g><svg:title>SVG Picture created as kicadBoard-F_Paste.svg date 2022/11/17 02:26:22 </svg:title>
  <svg:desc>Picture generated by PCBNEW </svg:desc>
<svg:g style="fill:#000000; fill-opacity:1.000000;stroke:#000000; stroke-opacity:1.000000; stroke-linecap:round; stroke-linejoin:round;" transform="translate(0 0) scale(1 1)">
</svg:g>
<svg:g style="fill:#000000; fill-opacity:0.0;  stroke:#000000; stroke-width:0.000000; stroke-opacity:1;  stroke-linecap:round; stroke-linejoin:round;">
<svg:g>
</svg:g>
<svg:g>
</svg:g>
<svg:g>
</svg:g>
<svg:g>
</svg:g>
</svg:g>
<svg:g style="fill:#000000; fill-opacity:0.0;  stroke:#000000; stroke-width:0.000000; stroke-opacity:1;  stroke-linecap:round; stroke-linejoin:round;">
<svg:g>
</svg:g>
<svg:g>
</svg:g>
<svg:g>
</svg:g>
<svg:g>
</svg:g>
</svg:g> 
</svg:g><svg:g><svg:title>SVG Picture created as kicadBoard-F_Silkscreen.svg date 2022/11/17 02:26:22 </svg:title>
  <svg:desc>Picture generated by PCBNEW </svg:desc>
<svg:g style="fill:#000000; fill-opacity:1.000000;stroke:#000000; stroke-opacity:1.000000; stroke-linecap:round; stroke-linejoin:round;" transform="translate(0 0) scale(1 1)">
</svg:g>
<svg:g style="fill:#000000; fill-opacity:0.0;  stroke:#000000; stroke-width:0.000000; stroke-opacity:1;  stroke-linecap:round; stroke-linejoin:round;">
</svg:g>
<svg:g style="fill:#F2EDA1; fill-opacity:0.0;  stroke:#F2EDA1; stroke-width:0.000000; stroke-opacity:1;  stroke-linecap:round; stroke-linejoin:round;">
</svg:g>
<svg:g style="fill:#F2EDA1; fill-opacity:0.0;  stroke:#F2EDA1; stroke-width:150000.000000; stroke-opacity:1;  stroke-linecap:round; stroke-linejoin:round;">
<svg:text x="51250000.000000" y="48450000.000000" textLength="16142858.000000" font-size="1333333.000000" lengthAdjust="spacingAndGlyphs" text-anchor="middle" opacity="0">FZKCCDISCD3W16P25</svg:text>
<svg:g class="stroked-text"><svg:desc>FZKCCDISCD3W16P25</svg:desc>
<svg:path d="M43750000 47878571 L43416666 47878571 "/>
<svg:path d="M43416666 48402380 L43416666 47402380 L43892857 47402380 "/>
<svg:path d="M44178571 47402380 L44845238 47402380 L44178571 48402380 L44845238 48402380 "/>
<svg:path d="M45226190 48402380 L45226190 47402380 "/>
<svg:path d="M45797619 48402380 L45369047 47830952 "/>
<svg:path d="M45797619 47402380 L45226190 47973809 "/>
<svg:path d="M46797619 48307142 L46750000 48354761 L46607142 48402380 L46511904 48402380 L46369047 48354761 L46273809 48259523 L46226190 48164285 L46178571 47973809 L46178571 47830952 L46226190 47640476 L46273809 47545238 L46369047 47450000 L46511904 47402380 L46607142 47402380 L46750000 47450000 L46797619 47497619 "/>
<svg:path d="M47797619 48307142 L47750000 48354761 L47607142 48402380 L47511904 48402380 L47369047 48354761 L47273809 48259523 L47226190 48164285 L47178571 47973809 L47178571 47830952 L47226190 47640476 L47273809 47545238 L47369047 47450000 L47511904 47402380 L47607142 47402380 L47750000 47450000 L47797619 47497619 "/>
<svg:path d="M48226190 48402380 L48226190 47402380 L48464285 47402380 L48607142 47450000 L48702380 47545238 L48750000 47640476 L48797619 47830952 L48797619 47973809 L48750000 48164285 L48702380 48259523 L48607142 48354761 L48464285 48402380 L48226190 48402380 "/>
<svg:path d="M49226190 48402380 L49226190 47402380 "/>
<svg:path d="M49654761 48354761 L49797619 48402380 L50035714 48402380 L50130952 48354761 L50178571 48307142 L50226190 48211904 L50226190 48116666 L50178571 48021428 L50130952 47973809 L50035714 47926190 L49845238 47878571 L49750000 47830952 L49702380 47783333 L49654761 47688095 L49654761 47592857 L49702380 47497619 L49750000 47450000 L49845238 47402380 L50083333 47402380 L50226190 47450000 "/>
<svg:path d="M51226190 48307142 L51178571 48354761 L51035714 48402380 L50940476 48402380 L50797619 48354761 L50702380 48259523 L50654761 48164285 L50607142 47973809 L50607142 47830952 L50654761 47640476 L50702380 47545238 L50797619 47450000 L50940476 47402380 L51035714 47402380 L51178571 47450000 L51226190 47497619 "/>
<svg:path d="M51654761 48402380 L51654761 47402380 L51892857 47402380 L52035714 47450000 L52130952 47545238 L52178571 47640476 L52226190 47830952 L52226190 47973809 L52178571 48164285 L52130952 48259523 L52035714 48354761 L51892857 48402380 L51654761 48402380 "/>
<svg:path d="M52559523 47402380 L53178571 47402380 L52845238 47783333 L52988095 47783333 L53083333 47830952 L53130952 47878571 L53178571 47973809 L53178571 48211904 L53130952 48307142 L53083333 48354761 L52988095 48402380 L52702380 48402380 L52607142 48354761 L52559523 48307142 "/>
<svg:path d="M53511904 47402380 L53750000 48402380 L53940476 47688095 L54130952 48402380 L54369047 47402380 "/>
<svg:path d="M55273809 48402380 L54702380 48402380 "/>
<svg:path d="M54988095 48402380 L54988095 47402380 L54892857 47545238 L54797619 47640476 L54702380 47688095 "/>
<svg:path d="M56130952 47402380 L55940476 47402380 L55845238 47450000 L55797619 47497619 L55702380 47640476 L55654761 47830952 L55654761 48211904 L55702380 48307142 L55750000 48354761 L55845238 48402380 L56035714 48402380 L56130952 48354761 L56178571 48307142 L56226190 48211904 L56226190 47973809 L56178571 47878571 L56130952 47830952 L56035714 47783333 L55845238 47783333 L55750000 47830952 L55702380 47878571 L55654761 47973809 "/>
<svg:path d="M56654761 48402380 L56654761 47402380 L57035714 47402380 L57130952 47450000 L57178571 47497619 L57226190 47592857 L57226190 47735714 L57178571 47830952 L57130952 47878571 L57035714 47926190 L56654761 47926190 "/>
<svg:path d="M57607142 47497619 L57654761 47450000 L57750000 47402380 L57988095 47402380 L58083333 47450000 L58130952 47497619 L58178571 47592857 L58178571 47688095 L58130952 47830952 L57559523 48402380 L58178571 48402380 "/>
<svg:path d="M59083333 47402380 L58607142 47402380 L58559523 47878571 L58607142 47830952 L58702380 47783333 L58940476 47783333 L59035714 47830952 L59083333 47878571 L59130952 47973809 L59130952 48211904 L59083333 48307142 L59035714 48354761 L58940476 48402380 L58702380 48402380 L58607142 48354761 L58559523 48307142 "/>
</svg:g></svg:g>
<svg:g style="fill:#F2EDA1; fill-opacity:0.0;  stroke:#F2EDA1; stroke-width:120000.000000; stroke-opacity:1;  stroke-linecap:round; stroke-linejoin:round;">
<svg:path d="M50621000 50920000 L51879000 50920000 "/>
<svg:path d="M50621000 49080000 L51879000 49080000 "/>
<svg:g>
</svg:g>
<svg:g>
</svg:g>
<svg:g>
</svg:g>
<svg:g>
</svg:g>
</svg:g>
<svg:g style="fill:#000000; fill-opacity:0.0;  stroke:#000000; stroke-width:120000.000000; stroke-opacity:1;  stroke-linecap:round; stroke-linejoin:round;">
<svg:g>
</svg:g>
<svg:g>
</svg:g>
<svg:g>
</svg:g>
<svg:g>
</svg:g>
</svg:g> 
</svg:g><svg:g><svg:title>SVG Picture created as kicadBoard-Margin.svg date 2022/11/17 02:26:22 </svg:title>
  <svg:desc>Picture generated by PCBNEW </svg:desc>
<svg:g style="fill:#000000; fill-opacity:1.000000;stroke:#000000; stroke-opacity:1.000000; stroke-linecap:round; stroke-linejoin:round;" transform="translate(0 0) scale(1 1)">
</svg:g>
<svg:g style="fill:#000000; fill-opacity:0.0;  stroke:#000000; stroke-width:0.000000; stroke-opacity:1;  stroke-linecap:round; stroke-linejoin:round;">
<svg:g>
</svg:g>
<svg:g>
</svg:g>
<svg:g>
</svg:g>
<svg:g>
</svg:g>
</svg:g>
<svg:g style="fill:#000000; fill-opacity:0.0;  stroke:#000000; stroke-width:0.000000; stroke-opacity:1;  stroke-linecap:round; stroke-linejoin:round;">
<svg:g>
</svg:g>
<svg:g>
</svg:g>
<svg:g>
</svg:g>
<svg:g>
</svg:g>
</svg:g> 
</svg:g><svg:g><svg:title>SVG Picture created as kicadBoard-F_Cu.svg date 2022/11/17 02:26:22 </svg:title>
  <svg:desc>Picture generated by PCBNEW </svg:desc>
<svg:g style="fill:#000000; fill-opacity:1.000000;stroke:#000000; stroke-opacity:1.000000; stroke-linecap:round; stroke-linejoin:round;" transform="translate(0 0) scale(1 1)">
</svg:g>
<svg:g style="fill:#000000; fill-opacity:0.0;  stroke:#000000; stroke-width:0.000000; stroke-opacity:1;  stroke-linecap:round; stroke-linejoin:round;">
<svg:g>
</svg:g>
<svg:g style="fill:#C83434; fill-opacity:0.0;  stroke:#C83434; stroke-width:0.000000; stroke-opacity:1;  stroke-linecap:round; stroke-linejoin:round;">
</svg:g>
<svg:g style="fill:#C83434; fill-opacity:1.0;  stroke:#C83434; stroke-width:1.000000; stroke-opacity:1;  stroke-linecap:round; stroke-linejoin:round;">
<svg:circle cx="50000000.000000" cy="50000000.000000" r="800000.000000"/> 
</svg:g>
<svg:g style="fill:#C83434; fill-opacity:1.0;  stroke:#C83434; stroke-width:21200.000000; stroke-opacity:1;  stroke-linecap:round; stroke-linejoin:round;">
</svg:g>
<svg:g style="fill:#C83434; fill-opacity:1.0;  stroke:#C83434; stroke-width:1.000000; stroke-opacity:1;  stroke-linecap:round; stroke-linejoin:round;">
<svg:circle cx="52500000.000000" cy="50000000.000000" r="800000.000000"/> 
</svg:g>
<svg:g style="fill:#C83434; fill-opacity:1.0;  stroke:#C83434; stroke-width:21200.000000; stroke-opacity:1;  stroke-linecap:round; stroke-linejoin:round;">
</svg:g>
<svg:g>
</svg:g>
<svg:g>
</svg:g>
<svg:g>
</svg:g>
</svg:g>
<svg:g style="fill:#FFFFFF; fill-opacity:1.0;  stroke:#FFFFFF; stroke-width:21200.000000; stroke-opacity:1;  stroke-linecap:round; stroke-linejoin:round;">
</svg:g>
<svg:g style="fill:#FFFFFF; fill-opacity:1.0;  stroke:#FFFFFF; stroke-width:1.000000; stroke-opacity:1;  stroke-linecap:round; stroke-linejoin:round;">
<svg:circle cx="50000000.000000" cy="50000000.000000" r="400000.000000"/> 
</svg:g>
<svg:g style="fill:#FFFFFF; fill-opacity:1.0;  stroke:#FFFFFF; stroke-width:21200.000000; stroke-opacity:1;  stroke-linecap:round; stroke-linejoin:round;">
</svg:g>
<svg:g style="fill:#FFFFFF; fill-opacity:1.0;  stroke:#FFFFFF; stroke-width:1.000000; stroke-opacity:1;  stroke-linecap:round; stroke-linejoin:round;">
<svg:circle cx="52500000.000000" cy="50000000.000000" r="400000.000000"/> 
</svg:g>
<svg:g style="fill:#FFFFFF; fill-opacity:1.0;  stroke:#FFFFFF; stroke-width:21200.000000; stroke-opacity:1;  stroke-linecap:round; stroke-linejoin:round;">
</svg:g>
<svg:g style="fill:#000000; fill-opacity:1.0;  stroke:#000000; stroke-width:21200.000000; stroke-opacity:1;  stroke-linecap:round; stroke-linejoin:round;">
<svg:g>
</svg:g>
<svg:g>
</svg:g>
<svg:g>
</svg:g>
<svg:g>
</svg:g>
</svg:g> 
</svg:g></svg>
