<?xml version='1.0' encoding='ASCII' standalone='yes'?>
<svg xmlns:svg="http://www.w3.org/2000/svg" xmlns="http://www.w3.org/2000/svg" xmlns:xlink="http://www.w3.org/1999/xlink" version="1.1" width="9.999980cm" height="9.999980cm" viewBox="0 0 99999800 99999800">
<title>SVG Picture created as kicadBoard-B_Cu.svg date 2022/12/01 20:30:32 </title>
  <desc>Picture generated by PCBNEW </desc>
<g style="fill:#000000; fill-opacity:1.000000;stroke:#000000; stroke-opacity:1.000000; stroke-linecap:round; stroke-linejoin:round;" transform="translate(0 0) scale(1 1)">
</g>
<g style="fill:#000000; fill-opacity:0.0;  stroke:#000000; stroke-width:0.000000; stroke-opacity:1;  stroke-linecap:round; stroke-linejoin:round;">
<g>
</g>
<g style="fill:#4D7FC4; fill-opacity:0.0;  stroke:#4D7FC4; stroke-width:0.000000; stroke-opacity:1;  stroke-linecap:round; stroke-linejoin:round;">
</g>
<g style="fill:#4D7FC4; fill-opacity:1.0;  stroke:#4D7FC4; stroke-width:1.000000; stroke-opacity:1;  stroke-linecap:round; stroke-linejoin:round;">
<circle cx="50000000.000000" cy="48750000.000000" r="250000.000000"/> 
</g>
<g style="fill:#4D7FC4; fill-opacity:1.0;  stroke:#4D7FC4; stroke-width:21200.000000; stroke-opacity:1;  stroke-linecap:round; stroke-linejoin:round;">
</g>
<g style="fill:#4D7FC4; fill-opacity:1.0;  stroke:#4D7FC4; stroke-width:1.000000; stroke-opacity:1;  stroke-linecap:round; stroke-linejoin:round;">
<circle cx="48925000.000000" cy="51250000.000000" r="250000.000000"/> 
</g>
<g style="fill:#4D7FC4; fill-opacity:1.0;  stroke:#4D7FC4; stroke-width:21200.000000; stroke-opacity:1;  stroke-linecap:round; stroke-linejoin:round;">
</g>
<g style="fill:#4D7FC4; fill-opacity:1.0;  stroke:#4D7FC4; stroke-width:1.000000; stroke-opacity:1;  stroke-linecap:round; stroke-linejoin:round;">
<circle cx="51075000.000000" cy="50000000.000000" r="250000.000000"/> 
</g>
<g style="fill:#4D7FC4; fill-opacity:1.0;  stroke:#4D7FC4; stroke-width:21200.000000; stroke-opacity:1;  stroke-linecap:round; stroke-linejoin:round;">
</g>
<g style="fill:#4D7FC4; fill-opacity:1.0;  stroke:#4D7FC4; stroke-width:1.000000; stroke-opacity:1;  stroke-linecap:round; stroke-linejoin:round;">
<circle cx="48925000.000000" cy="48750000.000000" r="250000.000000"/> 
</g>
<g style="fill:#4D7FC4; fill-opacity:1.0;  stroke:#4D7FC4; stroke-width:21200.000000; stroke-opacity:1;  stroke-linecap:round; stroke-linejoin:round;">
</g>
<g style="fill:#4D7FC4; fill-opacity:1.0;  stroke:#4D7FC4; stroke-width:1.000000; stroke-opacity:1;  stroke-linecap:round; stroke-linejoin:round;">
<path style="fill:#4D7FC4; fill-opacity:1.0;  stroke:#4D7FC4; stroke-width:1.000000; stroke-opacity:1;  stroke-linecap:round; stroke-linejoin:round;fill-rule:evenodd;" d="M 48675001.000000,51499999.000000 48675001.000000,48500001.000000 51324999.000000,48500001.000000 51324999.000000,51499999.000000 Z"/> 
<circle cx="51075000.000000" cy="51250000.000000" r="250000.000000"/> 
</g>
<g style="fill:#4D7FC4; fill-opacity:1.0;  stroke:#4D7FC4; stroke-width:21200.000000; stroke-opacity:1;  stroke-linecap:round; stroke-linejoin:round;">
</g>
<g style="fill:#4D7FC4; fill-opacity:1.0;  stroke:#4D7FC4; stroke-width:1.000000; stroke-opacity:1;  stroke-linecap:round; stroke-linejoin:round;">
<circle cx="50000000.000000" cy="51250000.000000" r="250000.000000"/> 
</g>
<g style="fill:#4D7FC4; fill-opacity:1.0;  stroke:#4D7FC4; stroke-width:21200.000000; stroke-opacity:1;  stroke-linecap:round; stroke-linejoin:round;">
</g>
<g style="fill:#4D7FC4; fill-opacity:1.0;  stroke:#4D7FC4; stroke-width:1.000000; stroke-opacity:1;  stroke-linecap:round; stroke-linejoin:round;">
<circle cx="48925000.000000" cy="50000000.000000" r="250000.000000"/> 
</g>
<g style="fill:#4D7FC4; fill-opacity:1.0;  stroke:#4D7FC4; stroke-width:21200.000000; stroke-opacity:1;  stroke-linecap:round; stroke-linejoin:round;">
</g>
<g style="fill:#4D7FC4; fill-opacity:1.0;  stroke:#4D7FC4; stroke-width:1.000000; stroke-opacity:1;  stroke-linecap:round; stroke-linejoin:round;">
<circle cx="50000000.000000" cy="50000000.000000" r="250000.000000"/> 
</g>
<g style="fill:#4D7FC4; fill-opacity:1.0;  stroke:#4D7FC4; stroke-width:21200.000000; stroke-opacity:1;  stroke-linecap:round; stroke-linejoin:round;">
</g>
<g style="fill:#4D7FC4; fill-opacity:1.0;  stroke:#4D7FC4; stroke-width:1.000000; stroke-opacity:1;  stroke-linecap:round; stroke-linejoin:round;">
<circle cx="51075000.000000" cy="48750000.000000" r="250000.000000"/> 
</g>
<g style="fill:#4D7FC4; fill-opacity:1.0;  stroke:#4D7FC4; stroke-width:21200.000000; stroke-opacity:1;  stroke-linecap:round; stroke-linejoin:round;">
</g>
<g>
</g>
<g>
</g>
<g>
</g>
</g>
<g style="fill:#FFFFFF; fill-opacity:1.0;  stroke:#FFFFFF; stroke-width:21200.000000; stroke-opacity:1;  stroke-linecap:round; stroke-linejoin:round;">
</g>
<g style="fill:#FFFFFF; fill-opacity:1.0;  stroke:#FFFFFF; stroke-width:1.000000; stroke-opacity:1;  stroke-linecap:round; stroke-linejoin:round;">
<circle cx="50000000.000000" cy="48750000.000000" r="100000.000000"/> 
</g>
<g style="fill:#FFFFFF; fill-opacity:1.0;  stroke:#FFFFFF; stroke-width:21200.000000; stroke-opacity:1;  stroke-linecap:round; stroke-linejoin:round;">
</g>
<g style="fill:#FFFFFF; fill-opacity:1.0;  stroke:#FFFFFF; stroke-width:1.000000; stroke-opacity:1;  stroke-linecap:round; stroke-linejoin:round;">
<circle cx="48925000.000000" cy="51250000.000000" r="100000.000000"/> 
</g>
<g style="fill:#FFFFFF; fill-opacity:1.0;  stroke:#FFFFFF; stroke-width:21200.000000; stroke-opacity:1;  stroke-linecap:round; stroke-linejoin:round;">
</g>
<g style="fill:#FFFFFF; fill-opacity:1.0;  stroke:#FFFFFF; stroke-width:1.000000; stroke-opacity:1;  stroke-linecap:round; stroke-linejoin:round;">
<circle cx="51075000.000000" cy="50000000.000000" r="100000.000000"/> 
</g>
<g style="fill:#FFFFFF; fill-opacity:1.0;  stroke:#FFFFFF; stroke-width:21200.000000; stroke-opacity:1;  stroke-linecap:round; stroke-linejoin:round;">
</g>
<g style="fill:#FFFFFF; fill-opacity:1.0;  stroke:#FFFFFF; stroke-width:1.000000; stroke-opacity:1;  stroke-linecap:round; stroke-linejoin:round;">
<circle cx="48925000.000000" cy="48750000.000000" r="100000.000000"/> 
</g>
<g style="fill:#FFFFFF; fill-opacity:1.0;  stroke:#FFFFFF; stroke-width:21200.000000; stroke-opacity:1;  stroke-linecap:round; stroke-linejoin:round;">
</g>
<g style="fill:#FFFFFF; fill-opacity:1.0;  stroke:#FFFFFF; stroke-width:1.000000; stroke-opacity:1;  stroke-linecap:round; stroke-linejoin:round;">
<circle cx="51075000.000000" cy="51250000.000000" r="100000.000000"/> 
</g>
<g style="fill:#FFFFFF; fill-opacity:1.0;  stroke:#FFFFFF; stroke-width:21200.000000; stroke-opacity:1;  stroke-linecap:round; stroke-linejoin:round;">
</g>
<g style="fill:#FFFFFF; fill-opacity:1.0;  stroke:#FFFFFF; stroke-width:1.000000; stroke-opacity:1;  stroke-linecap:round; stroke-linejoin:round;">
<circle cx="50000000.000000" cy="51250000.000000" r="100000.000000"/> 
</g>
<g style="fill:#FFFFFF; fill-opacity:1.0;  stroke:#FFFFFF; stroke-width:21200.000000; stroke-opacity:1;  stroke-linecap:round; stroke-linejoin:round;">
</g>
<g style="fill:#FFFFFF; fill-opacity:1.0;  stroke:#FFFFFF; stroke-width:1.000000; stroke-opacity:1;  stroke-linecap:round; stroke-linejoin:round;">
<circle cx="48925000.000000" cy="50000000.000000" r="100000.000000"/> 
</g>
<g style="fill:#FFFFFF; fill-opacity:1.0;  stroke:#FFFFFF; stroke-width:21200.000000; stroke-opacity:1;  stroke-linecap:round; stroke-linejoin:round;">
</g>
<g style="fill:#FFFFFF; fill-opacity:1.0;  stroke:#FFFFFF; stroke-width:1.000000; stroke-opacity:1;  stroke-linecap:round; stroke-linejoin:round;">
<circle cx="50000000.000000" cy="50000000.000000" r="100000.000000"/> 
</g>
<g style="fill:#FFFFFF; fill-opacity:1.0;  stroke:#FFFFFF; stroke-width:21200.000000; stroke-opacity:1;  stroke-linecap:round; stroke-linejoin:round;">
</g>
<g style="fill:#FFFFFF; fill-opacity:1.0;  stroke:#FFFFFF; stroke-width:1.000000; stroke-opacity:1;  stroke-linecap:round; stroke-linejoin:round;">
<circle cx="51075000.000000" cy="48750000.000000" r="100000.000000"/> 
</g>
<g style="fill:#FFFFFF; fill-opacity:1.0;  stroke:#FFFFFF; stroke-width:21200.000000; stroke-opacity:1;  stroke-linecap:round; stroke-linejoin:round;">
</g>
<g style="fill:#000000; fill-opacity:1.0;  stroke:#000000; stroke-width:21200.000000; stroke-opacity:1;  stroke-linecap:round; stroke-linejoin:round;">
<g>
</g>
<g>
</g>
<g>
</g>
<g>
</g>
</g> 
<svg:g><svg:title>SVG Picture created as kicadBoard-B_Adhesive.svg date 2022/12/01 20:30:32 </svg:title>
  <svg:desc>Picture generated by PCBNEW </svg:desc>
<svg:g style="fill:#000000; fill-opacity:1.000000;stroke:#000000; stroke-opacity:1.000000; stroke-linecap:round; stroke-linejoin:round;" transform="translate(0 0) scale(1 1)">
</svg:g>
<svg:g style="fill:#000000; fill-opacity:0.0;  stroke:#000000; stroke-width:0.000000; stroke-opacity:1;  stroke-linecap:round; stroke-linejoin:round;">
<svg:g>
</svg:g>
<svg:g>
</svg:g>
<svg:g>
</svg:g>
<svg:g>
</svg:g>
</svg:g>
<svg:g style="fill:#000000; fill-opacity:0.0;  stroke:#000000; stroke-width:0.000000; stroke-opacity:1;  stroke-linecap:round; stroke-linejoin:round;">
<svg:g>
</svg:g>
<svg:g>
</svg:g>
<svg:g>
</svg:g>
<svg:g>
</svg:g>
</svg:g> 
</svg:g><svg:g><svg:title>SVG Picture created as kicadBoard-B_Courtyard.svg date 2022/12/01 20:30:32 </svg:title>
  <svg:desc>Picture generated by PCBNEW </svg:desc>
<svg:g style="fill:#000000; fill-opacity:1.000000;stroke:#000000; stroke-opacity:1.000000; stroke-linecap:round; stroke-linejoin:round;" transform="translate(0 0) scale(1 1)">
</svg:g>
<svg:g style="fill:#000000; fill-opacity:0.0;  stroke:#000000; stroke-width:0.000000; stroke-opacity:1;  stroke-linecap:round; stroke-linejoin:round;">
<svg:g>
</svg:g>
<svg:g>
</svg:g>
<svg:g>
</svg:g>
<svg:g>
</svg:g>
</svg:g>
<svg:g style="fill:#000000; fill-opacity:0.0;  stroke:#000000; stroke-width:0.000000; stroke-opacity:1;  stroke-linecap:round; stroke-linejoin:round;">
<svg:g>
</svg:g>
<svg:g>
</svg:g>
<svg:g>
</svg:g>
<svg:g>
</svg:g>
</svg:g> 
</svg:g><svg:g><svg:title>SVG Picture created as kicadBoard-B_Fab.svg date 2022/12/01 20:30:32 </svg:title>
  <svg:desc>Picture generated by PCBNEW </svg:desc>
<svg:g style="fill:#000000; fill-opacity:1.000000;stroke:#000000; stroke-opacity:1.000000; stroke-linecap:round; stroke-linejoin:round;" transform="translate(0 0) scale(1 1)">
</svg:g>
<svg:g style="fill:#000000; fill-opacity:0.0;  stroke:#000000; stroke-width:0.000000; stroke-opacity:1;  stroke-linecap:round; stroke-linejoin:round;">
<svg:g>
</svg:g>
<svg:g>
</svg:g>
<svg:g>
</svg:g>
<svg:g>
</svg:g>
</svg:g>
<svg:g style="fill:#000000; fill-opacity:0.0;  stroke:#000000; stroke-width:0.000000; stroke-opacity:1;  stroke-linecap:round; stroke-linejoin:round;">
<svg:g>
</svg:g>
<svg:g>
</svg:g>
<svg:g>
</svg:g>
<svg:g>
</svg:g>
</svg:g> 
</svg:g><svg:g><svg:title>SVG Picture created as kicadBoard-B_Mask.svg date 2022/12/01 20:30:32 </svg:title>
  <svg:desc>Picture generated by PCBNEW </svg:desc>
<svg:g style="fill:#000000; fill-opacity:1.000000;stroke:#000000; stroke-opacity:1.000000; stroke-linecap:round; stroke-linejoin:round;" transform="translate(0 0) scale(1 1)">
</svg:g>
<svg:g style="fill:#000000; fill-opacity:0.0;  stroke:#000000; stroke-width:0.000000; stroke-opacity:1;  stroke-linecap:round; stroke-linejoin:round;">
<svg:g>
</svg:g>
<svg:g>
</svg:g>
<svg:g>
</svg:g>
<svg:g>
</svg:g>
</svg:g>
<svg:g style="fill:#000000; fill-opacity:0.0;  stroke:#000000; stroke-width:0.000000; stroke-opacity:1;  stroke-linecap:round; stroke-linejoin:round;">
<svg:g>
</svg:g>
<svg:g>
</svg:g>
<svg:g>
</svg:g>
<svg:g>
</svg:g>
</svg:g> 
</svg:g><svg:g><svg:title>SVG Picture created as kicadBoard-B_Paste.svg date 2022/12/01 20:30:32 </svg:title>
  <svg:desc>Picture generated by PCBNEW </svg:desc>
<svg:g style="fill:#000000; fill-opacity:1.000000;stroke:#000000; stroke-opacity:1.000000; stroke-linecap:round; stroke-linejoin:round;" transform="translate(0 0) scale(1 1)">
</svg:g>
<svg:g style="fill:#000000; fill-opacity:0.0;  stroke:#000000; stroke-width:0.000000; stroke-opacity:1;  stroke-linecap:round; stroke-linejoin:round;">
<svg:g>
</svg:g>
<svg:g>
</svg:g>
<svg:g>
</svg:g>
<svg:g>
</svg:g>
</svg:g>
<svg:g style="fill:#000000; fill-opacity:0.0;  stroke:#000000; stroke-width:0.000000; stroke-opacity:1;  stroke-linecap:round; stroke-linejoin:round;">
<svg:g>
</svg:g>
<svg:g>
</svg:g>
<svg:g>
</svg:g>
<svg:g>
</svg:g>
</svg:g> 
</svg:g><svg:g><svg:title>SVG Picture created as kicadBoard-B_Silkscreen.svg date 2022/12/01 20:30:32 </svg:title>
  <svg:desc>Picture generated by PCBNEW </svg:desc>
<svg:g style="fill:#000000; fill-opacity:1.000000;stroke:#000000; stroke-opacity:1.000000; stroke-linecap:round; stroke-linejoin:round;" transform="translate(0 0) scale(1 1)">
</svg:g>
<svg:g style="fill:#000000; fill-opacity:0.0;  stroke:#000000; stroke-width:0.000000; stroke-opacity:1;  stroke-linecap:round; stroke-linejoin:round;">
<svg:g>
</svg:g>
<svg:g>
</svg:g>
<svg:g>
</svg:g>
<svg:g>
</svg:g>
</svg:g>
<svg:g style="fill:#000000; fill-opacity:0.0;  stroke:#000000; stroke-width:0.000000; stroke-opacity:1;  stroke-linecap:round; stroke-linejoin:round;">
<svg:g>
</svg:g>
<svg:g>
</svg:g>
<svg:g>
</svg:g>
<svg:g>
</svg:g>
</svg:g> 
</svg:g><svg:g><svg:title>SVG Picture created as kicadBoard-Edge_Cuts.svg date 2022/12/01 20:30:32 </svg:title>
  <svg:desc>Picture generated by PCBNEW </svg:desc>
<svg:g style="fill:#000000; fill-opacity:1.000000;stroke:#000000; stroke-opacity:1.000000; stroke-linecap:round; stroke-linejoin:round;" transform="translate(0 0) scale(1 1)">
</svg:g>
<svg:g style="fill:#000000; fill-opacity:0.0;  stroke:#000000; stroke-width:0.000000; stroke-opacity:1;  stroke-linecap:round; stroke-linejoin:round;">
<svg:g>
</svg:g>
<svg:g>
</svg:g>
<svg:g>
</svg:g>
<svg:g>
</svg:g>
</svg:g> 
</svg:g><svg:g><svg:title>SVG Picture created as kicadBoard-F_Adhesive.svg date 2022/12/01 20:30:32 </svg:title>
  <svg:desc>Picture generated by PCBNEW </svg:desc>
<svg:g style="fill:#000000; fill-opacity:1.000000;stroke:#000000; stroke-opacity:1.000000; stroke-linecap:round; stroke-linejoin:round;" transform="translate(0 0) scale(1 1)">
</svg:g>
<svg:g style="fill:#000000; fill-opacity:0.0;  stroke:#000000; stroke-width:0.000000; stroke-opacity:1;  stroke-linecap:round; stroke-linejoin:round;">
<svg:g>
</svg:g>
<svg:g>
</svg:g>
<svg:g>
</svg:g>
<svg:g>
</svg:g>
</svg:g>
<svg:g style="fill:#000000; fill-opacity:0.0;  stroke:#000000; stroke-width:0.000000; stroke-opacity:1;  stroke-linecap:round; stroke-linejoin:round;">
<svg:g>
</svg:g>
<svg:g>
</svg:g>
<svg:g>
</svg:g>
<svg:g>
</svg:g>
</svg:g> 
</svg:g><svg:g><svg:title>SVG Picture created as kicadBoard-F_Courtyard.svg date 2022/12/01 20:30:32 </svg:title>
  <svg:desc>Picture generated by PCBNEW </svg:desc>
<svg:g style="fill:#000000; fill-opacity:1.000000;stroke:#000000; stroke-opacity:1.000000; stroke-linecap:round; stroke-linejoin:round;" transform="translate(0 0) scale(1 1)">
</svg:g>
<svg:g style="fill:#000000; fill-opacity:0.0;  stroke:#000000; stroke-width:0.000000; stroke-opacity:1;  stroke-linecap:round; stroke-linejoin:round;">
</svg:g>
<svg:g style="fill:#FF26E2; fill-opacity:0.0;  stroke:#FF26E2; stroke-width:0.000000; stroke-opacity:1;  stroke-linecap:round; stroke-linejoin:round;">
</svg:g>
<svg:g style="fill:#FF26E2; fill-opacity:0.0;  stroke:#FF26E2; stroke-width:50000.000000; stroke-opacity:1;  stroke-linecap:round; stroke-linejoin:round;">
<svg:path d="M46300000 47300000 L46300000 52700000 "/>
<svg:path d="M46300000 52700000 L53700000 52700000 "/>
<svg:path d="M53700000 52700000 L53700000 47300000 "/>
<svg:path d="M53700000 47300000 L46300000 47300000 "/>
<svg:g>
</svg:g>
<svg:g>
</svg:g>
<svg:g>
</svg:g>
<svg:g>
</svg:g>
</svg:g>
<svg:g style="fill:#000000; fill-opacity:0.0;  stroke:#000000; stroke-width:50000.000000; stroke-opacity:1;  stroke-linecap:round; stroke-linejoin:round;">
<svg:g>
</svg:g>
<svg:g>
</svg:g>
<svg:g>
</svg:g>
<svg:g>
</svg:g>
</svg:g> 
</svg:g><svg:g><svg:title>SVG Picture created as kicadBoard-F_Cu.svg date 2022/12/01 20:30:32 </svg:title>
  <svg:desc>Picture generated by PCBNEW </svg:desc>
<svg:g style="fill:#000000; fill-opacity:1.000000;stroke:#000000; stroke-opacity:1.000000; stroke-linecap:round; stroke-linejoin:round;" transform="translate(0 0) scale(1 1)">
</svg:g>
<svg:g style="fill:#000000; fill-opacity:0.0;  stroke:#000000; stroke-width:0.000000; stroke-opacity:1;  stroke-linecap:round; stroke-linejoin:round;">
<svg:g>
</svg:g>
<svg:g style="fill:#C83434; fill-opacity:0.0;  stroke:#C83434; stroke-width:0.000000; stroke-opacity:1;  stroke-linecap:round; stroke-linejoin:round;">
</svg:g>
<svg:g style="fill:#C83434; fill-opacity:0.0;  stroke:#C83434; stroke-width:1.000000; stroke-opacity:1;  stroke-linecap:round; stroke-linejoin:round;">
</svg:g>
<svg:g style="fill:#C83434; fill-opacity:1.0;  stroke:#C83434; stroke-width:1.000000; stroke-opacity:1;  stroke-linecap:round; stroke-linejoin:round;">
<svg:path style="fill:#C83434; fill-opacity:1.0;  stroke:#C83434; stroke-width:1.000000; stroke-opacity:1;  stroke-linecap:round; stroke-linejoin:round;fill-rule:evenodd;" d="M 46550000.000000,47945000.000000 46561418.000000,47887597.000000 46593934.000000,47838934.000000 46642597.000000,47806418.000000 46700000.000000,47795000.000000 48050000.000000,47795000.000000 48107403.000000,47806418.000000 48156066.000000,47838934.000000 48188582.000000,47887597.000000 48200000.000000,47945000.000000 48200000.000000,48245000.000000 48188582.000000,48302403.000000 48156066.000000,48351066.000000 48107403.000000,48383582.000000 48050000.000000,48395000.000000 46700000.000000,48395000.000000 46642597.000000,48383582.000000 46593934.000000,48351066.000000 46561418.000000,48302403.000000 46550000.000000,48245000.000000 Z"/> 
<svg:path style="fill:#C83434; fill-opacity:1.0;  stroke:#C83434; stroke-width:1.000000; stroke-opacity:1;  stroke-linecap:round; stroke-linejoin:round;fill-rule:evenodd;" d="M 46550000.000000,49215000.000000 46561418.000000,49157597.000000 46593934.000000,49108934.000000 46642597.000000,49076418.000000 46700000.000000,49065000.000000 48050000.000000,49065000.000000 48107403.000000,49076418.000000 48156066.000000,49108934.000000 48188582.000000,49157597.000000 48200000.000000,49215000.000000 48200000.000000,49515000.000000 48188582.000000,49572403.000000 48156066.000000,49621066.000000 48107403.000000,49653582.000000 48050000.000000,49665000.000000 46700000.000000,49665000.000000 46642597.000000,49653582.000000 46593934.000000,49621066.000000 46561418.000000,49572403.000000 46550000.000000,49515000.000000 Z"/> 
<svg:path style="fill:#C83434; fill-opacity:1.0;  stroke:#C83434; stroke-width:1.000000; stroke-opacity:1;  stroke-linecap:round; stroke-linejoin:round;fill-rule:evenodd;" d="M 46550000.000000,50485000.000000 46561418.000000,50427597.000000 46593934.000000,50378934.000000 46642597.000000,50346418.000000 46700000.000000,50335000.000000 48050000.000000,50335000.000000 48107403.000000,50346418.000000 48156066.000000,50378934.000000 48188582.000000,50427597.000000 48200000.000000,50485000.000000 48200000.000000,50785000.000000 48188582.000000,50842403.000000 48156066.000000,50891066.000000 48107403.000000,50923582.000000 48050000.000000,50935000.000000 46700000.000000,50935000.000000 46642597.000000,50923582.000000 46593934.000000,50891066.000000 46561418.000000,50842403.000000 46550000.000000,50785000.000000 Z"/> 
<svg:path style="fill:#C83434; fill-opacity:1.0;  stroke:#C83434; stroke-width:1.000000; stroke-opacity:1;  stroke-linecap:round; stroke-linejoin:round;fill-rule:evenodd;" d="M 46550000.000000,51755000.000000 46561418.000000,51697597.000000 46593934.000000,51648934.000000 46642597.000000,51616418.000000 46700000.000000,51605000.000000 48050000.000000,51605000.000000 48107403.000000,51616418.000000 48156066.000000,51648934.000000 48188582.000000,51697597.000000 48200000.000000,51755000.000000 48200000.000000,52055000.000000 48188582.000000,52112403.000000 48156066.000000,52161066.000000 48107403.000000,52193582.000000 48050000.000000,52205000.000000 46700000.000000,52205000.000000 46642597.000000,52193582.000000 46593934.000000,52161066.000000 46561418.000000,52112403.000000 46550000.000000,52055000.000000 Z"/> 
<svg:path style="fill:#C83434; fill-opacity:1.0;  stroke:#C83434; stroke-width:1.000000; stroke-opacity:1;  stroke-linecap:round; stroke-linejoin:round;fill-rule:evenodd;" d="M 51800000.000000,51755000.000000 51811418.000000,51697597.000000 51843934.000000,51648934.000000 51892597.000000,51616418.000000 51950000.000000,51605000.000000 53300000.000000,51605000.000000 53357403.000000,51616418.000000 53406066.000000,51648934.000000 53438582.000000,51697597.000000 53450000.000000,51755000.000000 53450000.000000,52055000.000000 53438582.000000,52112403.000000 53406066.000000,52161066.000000 53357403.000000,52193582.000000 53300000.000000,52205000.000000 51950000.000000,52205000.000000 51892597.000000,52193582.000000 51843934.000000,52161066.000000 51811418.000000,52112403.000000 51800000.000000,52055000.000000 Z"/> 
<svg:path style="fill:#C83434; fill-opacity:1.0;  stroke:#C83434; stroke-width:1.000000; stroke-opacity:1;  stroke-linecap:round; stroke-linejoin:round;fill-rule:evenodd;" d="M 51800000.000000,50485000.000000 51811418.000000,50427597.000000 51843934.000000,50378934.000000 51892597.000000,50346418.000000 51950000.000000,50335000.000000 53300000.000000,50335000.000000 53357403.000000,50346418.000000 53406066.000000,50378934.000000 53438582.000000,50427597.000000 53450000.000000,50485000.000000 53450000.000000,50785000.000000 53438582.000000,50842403.000000 53406066.000000,50891066.000000 53357403.000000,50923582.000000 53300000.000000,50935000.000000 51950000.000000,50935000.000000 51892597.000000,50923582.000000 51843934.000000,50891066.000000 51811418.000000,50842403.000000 51800000.000000,50785000.000000 Z"/> 
<svg:path style="fill:#C83434; fill-opacity:1.0;  stroke:#C83434; stroke-width:1.000000; stroke-opacity:1;  stroke-linecap:round; stroke-linejoin:round;fill-rule:evenodd;" d="M 51800000.000000,49215000.000000 51811418.000000,49157597.000000 51843934.000000,49108934.000000 51892597.000000,49076418.000000 51950000.000000,49065000.000000 53300000.000000,49065000.000000 53357403.000000,49076418.000000 53406066.000000,49108934.000000 53438582.000000,49157597.000000 53450000.000000,49215000.000000 53450000.000000,49515000.000000 53438582.000000,49572403.000000 53406066.000000,49621066.000000 53357403.000000,49653582.000000 53300000.000000,49665000.000000 51950000.000000,49665000.000000 51892597.000000,49653582.000000 51843934.000000,49621066.000000 51811418.000000,49572403.000000 51800000.000000,49515000.000000 Z"/> 
<svg:path style="fill:#C83434; fill-opacity:1.0;  stroke:#C83434; stroke-width:1.000000; stroke-opacity:1;  stroke-linecap:round; stroke-linejoin:round;fill-rule:evenodd;" d="M 51800000.000000,47945000.000000 51811418.000000,47887597.000000 51843934.000000,47838934.000000 51892597.000000,47806418.000000 51950000.000000,47795000.000000 53300000.000000,47795000.000000 53357403.000000,47806418.000000 53406066.000000,47838934.000000 53438582.000000,47887597.000000 53450000.000000,47945000.000000 53450000.000000,48245000.000000 53438582.000000,48302403.000000 53406066.000000,48351066.000000 53357403.000000,48383582.000000 53300000.000000,48395000.000000 51950000.000000,48395000.000000 51892597.000000,48383582.000000 51843934.000000,48351066.000000 51811418.000000,48302403.000000 51800000.000000,48245000.000000 Z"/> 
<svg:path style="fill:#C83434; fill-opacity:1.0;  stroke:#C83434; stroke-width:1.000000; stroke-opacity:1;  stroke-linecap:round; stroke-linejoin:round;fill-rule:evenodd;" d="M 48675001.000000,51499999.000000 48675001.000000,48500001.000000 51324999.000000,48500001.000000 51324999.000000,51499999.000000 Z"/> 
<svg:circle cx="50000000.000000" cy="48750000.000000" r="250000.000000"/> 
</svg:g>
<svg:g style="fill:#C83434; fill-opacity:1.0;  stroke:#C83434; stroke-width:21200.000000; stroke-opacity:1;  stroke-linecap:round; stroke-linejoin:round;">
</svg:g>
<svg:g style="fill:#C83434; fill-opacity:1.0;  stroke:#C83434; stroke-width:1.000000; stroke-opacity:1;  stroke-linecap:round; stroke-linejoin:round;">
<svg:circle cx="48925000.000000" cy="51250000.000000" r="250000.000000"/> 
</svg:g>
<svg:g style="fill:#C83434; fill-opacity:1.0;  stroke:#C83434; stroke-width:21200.000000; stroke-opacity:1;  stroke-linecap:round; stroke-linejoin:round;">
</svg:g>
<svg:g style="fill:#C83434; fill-opacity:1.0;  stroke:#C83434; stroke-width:1.000000; stroke-opacity:1;  stroke-linecap:round; stroke-linejoin:round;">
<svg:circle cx="51075000.000000" cy="50000000.000000" r="250000.000000"/> 
</svg:g>
<svg:g style="fill:#C83434; fill-opacity:1.0;  stroke:#C83434; stroke-width:21200.000000; stroke-opacity:1;  stroke-linecap:round; stroke-linejoin:round;">
</svg:g>
<svg:g style="fill:#C83434; fill-opacity:1.0;  stroke:#C83434; stroke-width:1.000000; stroke-opacity:1;  stroke-linecap:round; stroke-linejoin:round;">
<svg:circle cx="48925000.000000" cy="48750000.000000" r="250000.000000"/> 
</svg:g>
<svg:g style="fill:#C83434; fill-opacity:1.0;  stroke:#C83434; stroke-width:21200.000000; stroke-opacity:1;  stroke-linecap:round; stroke-linejoin:round;">
</svg:g>
<svg:g style="fill:#C83434; fill-opacity:1.0;  stroke:#C83434; stroke-width:1.000000; stroke-opacity:1;  stroke-linecap:round; stroke-linejoin:round;">
<svg:circle cx="51075000.000000" cy="51250000.000000" r="250000.000000"/> 
</svg:g>
<svg:g style="fill:#C83434; fill-opacity:1.0;  stroke:#C83434; stroke-width:21200.000000; stroke-opacity:1;  stroke-linecap:round; stroke-linejoin:round;">
</svg:g>
<svg:g style="fill:#C83434; fill-opacity:1.0;  stroke:#C83434; stroke-width:1.000000; stroke-opacity:1;  stroke-linecap:round; stroke-linejoin:round;">
<svg:circle cx="50000000.000000" cy="51250000.000000" r="250000.000000"/> 
</svg:g>
<svg:g style="fill:#C83434; fill-opacity:1.0;  stroke:#C83434; stroke-width:21200.000000; stroke-opacity:1;  stroke-linecap:round; stroke-linejoin:round;">
</svg:g>
<svg:g style="fill:#C83434; fill-opacity:1.0;  stroke:#C83434; stroke-width:1.000000; stroke-opacity:1;  stroke-linecap:round; stroke-linejoin:round;">
<svg:circle cx="48925000.000000" cy="50000000.000000" r="250000.000000"/> 
</svg:g>
<svg:g style="fill:#C83434; fill-opacity:1.0;  stroke:#C83434; stroke-width:21200.000000; stroke-opacity:1;  stroke-linecap:round; stroke-linejoin:round;">
</svg:g>
<svg:g style="fill:#C83434; fill-opacity:1.0;  stroke:#C83434; stroke-width:1.000000; stroke-opacity:1;  stroke-linecap:round; stroke-linejoin:round;">
<svg:circle cx="50000000.000000" cy="50000000.000000" r="250000.000000"/> 
</svg:g>
<svg:g style="fill:#C83434; fill-opacity:1.0;  stroke:#C83434; stroke-width:21200.000000; stroke-opacity:1;  stroke-linecap:round; stroke-linejoin:round;">
</svg:g>
<svg:g style="fill:#C83434; fill-opacity:1.0;  stroke:#C83434; stroke-width:1.000000; stroke-opacity:1;  stroke-linecap:round; stroke-linejoin:round;">
<svg:circle cx="51075000.000000" cy="48750000.000000" r="250000.000000"/> 
</svg:g>
<svg:g style="fill:#C83434; fill-opacity:1.0;  stroke:#C83434; stroke-width:21200.000000; stroke-opacity:1;  stroke-linecap:round; stroke-linejoin:round;">
</svg:g>
<svg:g>
</svg:g>
<svg:g>
</svg:g>
<svg:g>
</svg:g>
</svg:g>
<svg:g style="fill:#FFFFFF; fill-opacity:1.0;  stroke:#FFFFFF; stroke-width:21200.000000; stroke-opacity:1;  stroke-linecap:round; stroke-linejoin:round;">
</svg:g>
<svg:g style="fill:#FFFFFF; fill-opacity:1.0;  stroke:#FFFFFF; stroke-width:1.000000; stroke-opacity:1;  stroke-linecap:round; stroke-linejoin:round;">
<svg:circle cx="50000000.000000" cy="48750000.000000" r="100000.000000"/> 
</svg:g>
<svg:g style="fill:#FFFFFF; fill-opacity:1.0;  stroke:#FFFFFF; stroke-width:21200.000000; stroke-opacity:1;  stroke-linecap:round; stroke-linejoin:round;">
</svg:g>
<svg:g style="fill:#FFFFFF; fill-opacity:1.0;  stroke:#FFFFFF; stroke-width:1.000000; stroke-opacity:1;  stroke-linecap:round; stroke-linejoin:round;">
<svg:circle cx="48925000.000000" cy="51250000.000000" r="100000.000000"/> 
</svg:g>
<svg:g style="fill:#FFFFFF; fill-opacity:1.0;  stroke:#FFFFFF; stroke-width:21200.000000; stroke-opacity:1;  stroke-linecap:round; stroke-linejoin:round;">
</svg:g>
<svg:g style="fill:#FFFFFF; fill-opacity:1.0;  stroke:#FFFFFF; stroke-width:1.000000; stroke-opacity:1;  stroke-linecap:round; stroke-linejoin:round;">
<svg:circle cx="51075000.000000" cy="50000000.000000" r="100000.000000"/> 
</svg:g>
<svg:g style="fill:#FFFFFF; fill-opacity:1.0;  stroke:#FFFFFF; stroke-width:21200.000000; stroke-opacity:1;  stroke-linecap:round; stroke-linejoin:round;">
</svg:g>
<svg:g style="fill:#FFFFFF; fill-opacity:1.0;  stroke:#FFFFFF; stroke-width:1.000000; stroke-opacity:1;  stroke-linecap:round; stroke-linejoin:round;">
<svg:circle cx="48925000.000000" cy="48750000.000000" r="100000.000000"/> 
</svg:g>
<svg:g style="fill:#FFFFFF; fill-opacity:1.0;  stroke:#FFFFFF; stroke-width:21200.000000; stroke-opacity:1;  stroke-linecap:round; stroke-linejoin:round;">
</svg:g>
<svg:g style="fill:#FFFFFF; fill-opacity:1.0;  stroke:#FFFFFF; stroke-width:1.000000; stroke-opacity:1;  stroke-linecap:round; stroke-linejoin:round;">
<svg:circle cx="51075000.000000" cy="51250000.000000" r="100000.000000"/> 
</svg:g>
<svg:g style="fill:#FFFFFF; fill-opacity:1.0;  stroke:#FFFFFF; stroke-width:21200.000000; stroke-opacity:1;  stroke-linecap:round; stroke-linejoin:round;">
</svg:g>
<svg:g style="fill:#FFFFFF; fill-opacity:1.0;  stroke:#FFFFFF; stroke-width:1.000000; stroke-opacity:1;  stroke-linecap:round; stroke-linejoin:round;">
<svg:circle cx="50000000.000000" cy="51250000.000000" r="100000.000000"/> 
</svg:g>
<svg:g style="fill:#FFFFFF; fill-opacity:1.0;  stroke:#FFFFFF; stroke-width:21200.000000; stroke-opacity:1;  stroke-linecap:round; stroke-linejoin:round;">
</svg:g>
<svg:g style="fill:#FFFFFF; fill-opacity:1.0;  stroke:#FFFFFF; stroke-width:1.000000; stroke-opacity:1;  stroke-linecap:round; stroke-linejoin:round;">
<svg:circle cx="48925000.000000" cy="50000000.000000" r="100000.000000"/> 
</svg:g>
<svg:g style="fill:#FFFFFF; fill-opacity:1.0;  stroke:#FFFFFF; stroke-width:21200.000000; stroke-opacity:1;  stroke-linecap:round; stroke-linejoin:round;">
</svg:g>
<svg:g style="fill:#FFFFFF; fill-opacity:1.0;  stroke:#FFFFFF; stroke-width:1.000000; stroke-opacity:1;  stroke-linecap:round; stroke-linejoin:round;">
<svg:circle cx="50000000.000000" cy="50000000.000000" r="100000.000000"/> 
</svg:g>
<svg:g style="fill:#FFFFFF; fill-opacity:1.0;  stroke:#FFFFFF; stroke-width:21200.000000; stroke-opacity:1;  stroke-linecap:round; stroke-linejoin:round;">
</svg:g>
<svg:g style="fill:#FFFFFF; fill-opacity:1.0;  stroke:#FFFFFF; stroke-width:1.000000; stroke-opacity:1;  stroke-linecap:round; stroke-linejoin:round;">
<svg:circle cx="51075000.000000" cy="48750000.000000" r="100000.000000"/> 
</svg:g>
<svg:g style="fill:#FFFFFF; fill-opacity:1.0;  stroke:#FFFFFF; stroke-width:21200.000000; stroke-opacity:1;  stroke-linecap:round; stroke-linejoin:round;">
</svg:g>
<svg:g style="fill:#000000; fill-opacity:1.0;  stroke:#000000; stroke-width:21200.000000; stroke-opacity:1;  stroke-linecap:round; stroke-linejoin:round;">
<svg:g>
</svg:g>
<svg:g>
</svg:g>
<svg:g>
</svg:g>
<svg:g>
</svg:g>
</svg:g> 
</svg:g><svg:g><svg:title>SVG Picture created as kicadBoard-F_Fab.svg date 2022/12/01 20:30:32 </svg:title>
  <svg:desc>Picture generated by PCBNEW </svg:desc>
<svg:g style="fill:#000000; fill-opacity:1.000000;stroke:#000000; stroke-opacity:1.000000; stroke-linecap:round; stroke-linejoin:round;" transform="translate(0 0) scale(1 1)">
</svg:g>
<svg:g style="fill:#000000; fill-opacity:0.0;  stroke:#000000; stroke-width:0.000000; stroke-opacity:1;  stroke-linecap:round; stroke-linejoin:round;">
</svg:g>
<svg:g style="fill:#AFAFAF; fill-opacity:0.0;  stroke:#AFAFAF; stroke-width:0.000000; stroke-opacity:1;  stroke-linecap:round; stroke-linejoin:round;">
</svg:g>
<svg:g style="fill:#AFAFAF; fill-opacity:0.0;  stroke:#AFAFAF; stroke-width:150000.000000; stroke-opacity:1;  stroke-linecap:round; stroke-linejoin:round;">
<svg:text x="50000000.000000" y="53900000.000000" textLength="47671190.000000" font-size="1333333.000000" lengthAdjust="spacingAndGlyphs" text-anchor="middle" opacity="0">Infineon_PG-DSO-8-27_3.9x4.9mm_EP2.65x3mm_ThermalVias</svg:text>
<svg:g class="stroked-text"><svg:desc>Infineon_PG-DSO-8-27_3.9x4.9mm_EP2.65x3mm_ThermalVias</svg:desc>
<svg:path d="M26500000 53852380 L26500000 52852380 "/>
<svg:path d="M26976190 53185714 L26976190 53852380 "/>
<svg:path d="M26976190 53280952 L27023809 53233333 L27119047 53185714 L27261904 53185714 L27357142 53233333 L27404761 53328571 L27404761 53852380 "/>
<svg:path d="M27738095 53185714 L28119047 53185714 "/>
<svg:path d="M27880952 53852380 L27880952 52995238 L27928571 52900000 L28023809 52852380 L28119047 52852380 "/>
<svg:path d="M28452380 53852380 L28452380 53185714 "/>
<svg:path d="M28452380 52852380 L28404761 52900000 L28452380 52947619 L28500000 52900000 L28452380 52852380 L28452380 52947619 "/>
<svg:path d="M28928571 53185714 L28928571 53852380 "/>
<svg:path d="M28928571 53280952 L28976190 53233333 L29071428 53185714 L29214285 53185714 L29309523 53233333 L29357142 53328571 L29357142 53852380 "/>
<svg:path d="M30214285 53804761 L30119047 53852380 L29928571 53852380 L29833333 53804761 L29785714 53709523 L29785714 53328571 L29833333 53233333 L29928571 53185714 L30119047 53185714 L30214285 53233333 L30261904 53328571 L30261904 53423809 L29785714 53519047 "/>
<svg:path d="M30833333 53852380 L30738095 53804761 L30690476 53757142 L30642857 53661904 L30642857 53376190 L30690476 53280952 L30738095 53233333 L30833333 53185714 L30976190 53185714 L31071428 53233333 L31119047 53280952 L31166666 53376190 L31166666 53661904 L31119047 53757142 L31071428 53804761 L30976190 53852380 L30833333 53852380 "/>
<svg:path d="M31595238 53185714 L31595238 53852380 "/>
<svg:path d="M31595238 53280952 L31642857 53233333 L31738095 53185714 L31880952 53185714 L31976190 53233333 L32023809 53328571 L32023809 53852380 "/>
<svg:path d="M32261904 53947619 L33023809 53947619 "/>
<svg:path d="M33261904 53852380 L33261904 52852380 L33642857 52852380 L33738095 52900000 L33785714 52947619 L33833333 53042857 L33833333 53185714 L33785714 53280952 L33738095 53328571 L33642857 53376190 L33261904 53376190 "/>
<svg:path d="M34785714 52900000 L34690476 52852380 L34547619 52852380 L34404761 52900000 L34309523 52995238 L34261904 53090476 L34214285 53280952 L34214285 53423809 L34261904 53614285 L34309523 53709523 L34404761 53804761 L34547619 53852380 L34642857 53852380 L34785714 53804761 L34833333 53757142 L34833333 53423809 L34642857 53423809 "/>
<svg:path d="M35261904 53471428 L36023809 53471428 "/>
<svg:path d="M36500000 53852380 L36500000 52852380 L36738095 52852380 L36880952 52900000 L36976190 52995238 L37023809 53090476 L37071428 53280952 L37071428 53423809 L37023809 53614285 L36976190 53709523 L36880952 53804761 L36738095 53852380 L36500000 53852380 "/>
<svg:path d="M37452380 53804761 L37595238 53852380 L37833333 53852380 L37928571 53804761 L37976190 53757142 L38023809 53661904 L38023809 53566666 L37976190 53471428 L37928571 53423809 L37833333 53376190 L37642857 53328571 L37547619 53280952 L37500000 53233333 L37452380 53138095 L37452380 53042857 L37500000 52947619 L37547619 52900000 L37642857 52852380 L37880952 52852380 L38023809 52900000 "/>
<svg:path d="M38642857 52852380 L38833333 52852380 L38928571 52900000 L39023809 52995238 L39071428 53185714 L39071428 53519047 L39023809 53709523 L38928571 53804761 L38833333 53852380 L38642857 53852380 L38547619 53804761 L38452380 53709523 L38404761 53519047 L38404761 53185714 L38452380 52995238 L38547619 52900000 L38642857 52852380 "/>
<svg:path d="M39500000 53471428 L40261904 53471428 "/>
<svg:path d="M40880952 53280952 L40785714 53233333 L40738095 53185714 L40690476 53090476 L40690476 53042857 L40738095 52947619 L40785714 52900000 L40880952 52852380 L41071428 52852380 L41166666 52900000 L41214285 52947619 L41261904 53042857 L41261904 53090476 L41214285 53185714 L41166666 53233333 L41071428 53280952 L40880952 53280952 L40785714 53328571 L40738095 53376190 L40690476 53471428 L40690476 53661904 L40738095 53757142 L40785714 53804761 L40880952 53852380 L41071428 53852380 L41166666 53804761 L41214285 53757142 L41261904 53661904 L41261904 53471428 L41214285 53376190 L41166666 53328571 L41071428 53280952 "/>
<svg:path d="M41690476 53471428 L42452380 53471428 "/>
<svg:path d="M42880952 52947619 L42928571 52900000 L43023809 52852380 L43261904 52852380 L43357142 52900000 L43404761 52947619 L43452380 53042857 L43452380 53138095 L43404761 53280952 L42833333 53852380 L43452380 53852380 "/>
<svg:path d="M43785714 52852380 L44452380 52852380 L44023809 53852380 "/>
<svg:path d="M44595238 53947619 L45357142 53947619 "/>
<svg:path d="M45500000 52852380 L46119047 52852380 L45785714 53233333 L45928571 53233333 L46023809 53280952 L46071428 53328571 L46119047 53423809 L46119047 53661904 L46071428 53757142 L46023809 53804761 L45928571 53852380 L45642857 53852380 L45547619 53804761 L45500000 53757142 "/>
<svg:path d="M46547619 53757142 L46595238 53804761 L46547619 53852380 L46500000 53804761 L46547619 53757142 L46547619 53852380 "/>
<svg:path d="M47071428 53852380 L47261904 53852380 L47357142 53804761 L47404761 53757142 L47500000 53614285 L47547619 53423809 L47547619 53042857 L47500000 52947619 L47452380 52900000 L47357142 52852380 L47166666 52852380 L47071428 52900000 L47023809 52947619 L46976190 53042857 L46976190 53280952 L47023809 53376190 L47071428 53423809 L47166666 53471428 L47357142 53471428 L47452380 53423809 L47500000 53376190 L47547619 53280952 "/>
<svg:path d="M47880952 53852380 L48404761 53185714 "/>
<svg:path d="M47880952 53185714 L48404761 53852380 "/>
<svg:path d="M49214285 53185714 L49214285 53852380 "/>
<svg:path d="M48976190 52804761 L48738095 53519047 L49357142 53519047 "/>
<svg:path d="M49738095 53757142 L49785714 53804761 L49738095 53852380 L49690476 53804761 L49738095 53757142 L49738095 53852380 "/>
<svg:path d="M50261904 53852380 L50452380 53852380 L50547619 53804761 L50595238 53757142 L50690476 53614285 L50738095 53423809 L50738095 53042857 L50690476 52947619 L50642857 52900000 L50547619 52852380 L50357142 52852380 L50261904 52900000 L50214285 52947619 L50166666 53042857 L50166666 53280952 L50214285 53376190 L50261904 53423809 L50357142 53471428 L50547619 53471428 L50642857 53423809 L50690476 53376190 L50738095 53280952 "/>
<svg:path d="M51166666 53852380 L51166666 53185714 "/>
<svg:path d="M51166666 53280952 L51214285 53233333 L51309523 53185714 L51452380 53185714 L51547619 53233333 L51595238 53328571 L51595238 53852380 "/>
<svg:path d="M51595238 53328571 L51642857 53233333 L51738095 53185714 L51880952 53185714 L51976190 53233333 L52023809 53328571 L52023809 53852380 "/>
<svg:path d="M52500000 53852380 L52500000 53185714 "/>
<svg:path d="M52500000 53280952 L52547619 53233333 L52642857 53185714 L52785714 53185714 L52880952 53233333 L52928571 53328571 L52928571 53852380 "/>
<svg:path d="M52928571 53328571 L52976190 53233333 L53071428 53185714 L53214285 53185714 L53309523 53233333 L53357142 53328571 L53357142 53852380 "/>
<svg:path d="M53595238 53947619 L54357142 53947619 "/>
<svg:path d="M54595238 53328571 L54928571 53328571 "/>
<svg:path d="M55071428 53852380 L54595238 53852380 L54595238 52852380 L55071428 52852380 "/>
<svg:path d="M55500000 53852380 L55500000 52852380 L55880952 52852380 L55976190 52900000 L56023809 52947619 L56071428 53042857 L56071428 53185714 L56023809 53280952 L55976190 53328571 L55880952 53376190 L55500000 53376190 "/>
<svg:path d="M56452380 52947619 L56500000 52900000 L56595238 52852380 L56833333 52852380 L56928571 52900000 L56976190 52947619 L57023809 53042857 L57023809 53138095 L56976190 53280952 L56404761 53852380 L57023809 53852380 "/>
<svg:path d="M57452380 53757142 L57500000 53804761 L57452380 53852380 L57404761 53804761 L57452380 53757142 L57452380 53852380 "/>
<svg:path d="M58357142 52852380 L58166666 52852380 L58071428 52900000 L58023809 52947619 L57928571 53090476 L57880952 53280952 L57880952 53661904 L57928571 53757142 L57976190 53804761 L58071428 53852380 L58261904 53852380 L58357142 53804761 L58404761 53757142 L58452380 53661904 L58452380 53423809 L58404761 53328571 L58357142 53280952 L58261904 53233333 L58071428 53233333 L57976190 53280952 L57928571 53328571 L57880952 53423809 "/>
<svg:path d="M59357142 52852380 L58880952 52852380 L58833333 53328571 L58880952 53280952 L58976190 53233333 L59214285 53233333 L59309523 53280952 L59357142 53328571 L59404761 53423809 L59404761 53661904 L59357142 53757142 L59309523 53804761 L59214285 53852380 L58976190 53852380 L58880952 53804761 L58833333 53757142 "/>
<svg:path d="M59738095 53852380 L60261904 53185714 "/>
<svg:path d="M59738095 53185714 L60261904 53852380 "/>
<svg:path d="M60547619 52852380 L61166666 52852380 L60833333 53233333 L60976190 53233333 L61071428 53280952 L61119047 53328571 L61166666 53423809 L61166666 53661904 L61119047 53757142 L61071428 53804761 L60976190 53852380 L60690476 53852380 L60595238 53804761 L60547619 53757142 "/>
<svg:path d="M61595238 53852380 L61595238 53185714 "/>
<svg:path d="M61595238 53280952 L61642857 53233333 L61738095 53185714 L61880952 53185714 L61976190 53233333 L62023809 53328571 L62023809 53852380 "/>
<svg:path d="M62023809 53328571 L62071428 53233333 L62166666 53185714 L62309523 53185714 L62404761 53233333 L62452380 53328571 L62452380 53852380 "/>
<svg:path d="M62928571 53852380 L62928571 53185714 "/>
<svg:path d="M62928571 53280952 L62976190 53233333 L63071428 53185714 L63214285 53185714 L63309523 53233333 L63357142 53328571 L63357142 53852380 "/>
<svg:path d="M63357142 53328571 L63404761 53233333 L63500000 53185714 L63642857 53185714 L63738095 53233333 L63785714 53328571 L63785714 53852380 "/>
<svg:path d="M64023809 53947619 L64785714 53947619 "/>
<svg:path d="M64880952 52852380 L65452380 52852380 "/>
<svg:path d="M65166666 53852380 L65166666 52852380 "/>
<svg:path d="M65785714 53852380 L65785714 52852380 "/>
<svg:path d="M66214285 53852380 L66214285 53328571 L66166666 53233333 L66071428 53185714 L65928571 53185714 L65833333 53233333 L65785714 53280952 "/>
<svg:path d="M67071428 53804761 L66976190 53852380 L66785714 53852380 L66690476 53804761 L66642857 53709523 L66642857 53328571 L66690476 53233333 L66785714 53185714 L66976190 53185714 L67071428 53233333 L67119047 53328571 L67119047 53423809 L66642857 53519047 "/>
<svg:path d="M67547619 53852380 L67547619 53185714 "/>
<svg:path d="M67547619 53376190 L67595238 53280952 L67642857 53233333 L67738095 53185714 L67833333 53185714 "/>
<svg:path d="M68166666 53852380 L68166666 53185714 "/>
<svg:path d="M68166666 53280952 L68214285 53233333 L68309523 53185714 L68452380 53185714 L68547619 53233333 L68595238 53328571 L68595238 53852380 "/>
<svg:path d="M68595238 53328571 L68642857 53233333 L68738095 53185714 L68880952 53185714 L68976190 53233333 L69023809 53328571 L69023809 53852380 "/>
<svg:path d="M69928571 53852380 L69928571 53328571 L69880952 53233333 L69785714 53185714 L69595238 53185714 L69500000 53233333 "/>
<svg:path d="M69928571 53804761 L69833333 53852380 L69595238 53852380 L69500000 53804761 L69452380 53709523 L69452380 53614285 L69500000 53519047 L69595238 53471428 L69833333 53471428 L69928571 53423809 "/>
<svg:path d="M70547619 53852380 L70452380 53804761 L70404761 53709523 L70404761 52852380 "/>
<svg:path d="M70785714 52852380 L71119047 53852380 L71452380 52852380 "/>
<svg:path d="M71785714 53852380 L71785714 53185714 "/>
<svg:path d="M71785714 52852380 L71738095 52900000 L71785714 52947619 L71833333 52900000 L71785714 52852380 L71785714 52947619 "/>
<svg:path d="M72690476 53852380 L72690476 53328571 L72642857 53233333 L72547619 53185714 L72357142 53185714 L72261904 53233333 "/>
<svg:path d="M72690476 53804761 L72595238 53852380 L72357142 53852380 L72261904 53804761 L72214285 53709523 L72214285 53614285 L72261904 53519047 L72357142 53471428 L72595238 53471428 L72690476 53423809 "/>
<svg:path d="M73119047 53804761 L73214285 53852380 L73404761 53852380 L73500000 53804761 L73547619 53709523 L73547619 53661904 L73500000 53566666 L73404761 53519047 L73261904 53519047 L73166666 53471428 L73119047 53376190 L73119047 53328571 L73166666 53233333 L73261904 53185714 L73404761 53185714 L73500000 53233333 "/>
</svg:g><svg:text x="50000000.000000" y="50490000.000000" textLength="33188333.000000" font-size="1306666.000000" lengthAdjust="spacingAndGlyphs" text-anchor="middle" opacity="0">FZKSOINFINEONPGDSO82739X49EP265X3THV</svg:text>
<svg:g class="stroked-text"><svg:desc>FZKSOINFINEONPGDSO82739X49EP265X3THV</svg:desc>
<svg:path d="M34063333 49930000 L33736666 49930000 "/>
<svg:path d="M33736666 50443333 L33736666 49463333 L34203333 49463333 "/>
<svg:path d="M34483333 49463333 L35136666 49463333 L34483333 50443333 L35136666 50443333 "/>
<svg:path d="M35510000 50443333 L35510000 49463333 "/>
<svg:path d="M36070000 50443333 L35650000 49883333 "/>
<svg:path d="M36070000 49463333 L35510000 50023333 "/>
<svg:path d="M36443333 50396666 L36583333 50443333 L36816666 50443333 L36910000 50396666 L36956666 50350000 L37003333 50256666 L37003333 50163333 L36956666 50070000 L36910000 50023333 L36816666 49976666 L36630000 49930000 L36536666 49883333 L36490000 49836666 L36443333 49743333 L36443333 49650000 L36490000 49556666 L36536666 49510000 L36630000 49463333 L36863333 49463333 L37003333 49510000 "/>
<svg:path d="M37610000 49463333 L37796666 49463333 L37890000 49510000 L37983333 49603333 L38030000 49790000 L38030000 50116666 L37983333 50303333 L37890000 50396666 L37796666 50443333 L37610000 50443333 L37516666 50396666 L37423333 50303333 L37376666 50116666 L37376666 49790000 L37423333 49603333 L37516666 49510000 L37610000 49463333 "/>
<svg:path d="M38450000 50443333 L38450000 49463333 "/>
<svg:path d="M38916666 50443333 L38916666 49463333 L39476666 50443333 L39476666 49463333 "/>
<svg:path d="M40270000 49930000 L39943333 49930000 "/>
<svg:path d="M39943333 50443333 L39943333 49463333 L40410000 49463333 "/>
<svg:path d="M40783333 50443333 L40783333 49463333 "/>
<svg:path d="M41250000 50443333 L41250000 49463333 L41810000 50443333 L41810000 49463333 "/>
<svg:path d="M42276666 49930000 L42603333 49930000 "/>
<svg:path d="M42743333 50443333 L42276666 50443333 L42276666 49463333 L42743333 49463333 "/>
<svg:path d="M43350000 49463333 L43536666 49463333 L43630000 49510000 L43723333 49603333 L43770000 49790000 L43770000 50116666 L43723333 50303333 L43630000 50396666 L43536666 50443333 L43350000 50443333 L43256666 50396666 L43163333 50303333 L43116666 50116666 L43116666 49790000 L43163333 49603333 L43256666 49510000 L43350000 49463333 "/>
<svg:path d="M44190000 50443333 L44190000 49463333 L44750000 50443333 L44750000 49463333 "/>
<svg:path d="M45216666 50443333 L45216666 49463333 L45590000 49463333 L45683333 49510000 L45730000 49556666 L45776666 49650000 L45776666 49790000 L45730000 49883333 L45683333 49930000 L45590000 49976666 L45216666 49976666 "/>
<svg:path d="M46710000 49510000 L46616666 49463333 L46476666 49463333 L46336666 49510000 L46243333 49603333 L46196666 49696666 L46150000 49883333 L46150000 50023333 L46196666 50210000 L46243333 50303333 L46336666 50396666 L46476666 50443333 L46570000 50443333 L46710000 50396666 L46756666 50350000 L46756666 50023333 L46570000 50023333 "/>
<svg:path d="M47176666 50443333 L47176666 49463333 L47410000 49463333 L47550000 49510000 L47643333 49603333 L47690000 49696666 L47736666 49883333 L47736666 50023333 L47690000 50210000 L47643333 50303333 L47550000 50396666 L47410000 50443333 L47176666 50443333 "/>
<svg:path d="M48110000 50396666 L48250000 50443333 L48483333 50443333 L48576666 50396666 L48623333 50350000 L48670000 50256666 L48670000 50163333 L48623333 50070000 L48576666 50023333 L48483333 49976666 L48296666 49930000 L48203333 49883333 L48156666 49836666 L48110000 49743333 L48110000 49650000 L48156666 49556666 L48203333 49510000 L48296666 49463333 L48530000 49463333 L48670000 49510000 "/>
<svg:path d="M49276666 49463333 L49463333 49463333 L49556666 49510000 L49650000 49603333 L49696666 49790000 L49696666 50116666 L49650000 50303333 L49556666 50396666 L49463333 50443333 L49276666 50443333 L49183333 50396666 L49090000 50303333 L49043333 50116666 L49043333 49790000 L49090000 49603333 L49183333 49510000 L49276666 49463333 "/>
<svg:path d="M50256666 49883333 L50163333 49836666 L50116666 49790000 L50070000 49696666 L50070000 49650000 L50116666 49556666 L50163333 49510000 L50256666 49463333 L50443333 49463333 L50536666 49510000 L50583333 49556666 L50630000 49650000 L50630000 49696666 L50583333 49790000 L50536666 49836666 L50443333 49883333 L50256666 49883333 L50163333 49930000 L50116666 49976666 L50070000 50070000 L50070000 50256666 L50116666 50350000 L50163333 50396666 L50256666 50443333 L50443333 50443333 L50536666 50396666 L50583333 50350000 L50630000 50256666 L50630000 50070000 L50583333 49976666 L50536666 49930000 L50443333 49883333 "/>
<svg:path d="M51003333 49556666 L51050000 49510000 L51143333 49463333 L51376666 49463333 L51470000 49510000 L51516666 49556666 L51563333 49650000 L51563333 49743333 L51516666 49883333 L50956666 50443333 L51563333 50443333 "/>
<svg:path d="M51890000 49463333 L52543333 49463333 L52123333 50443333 "/>
<svg:path d="M52823333 49463333 L53430000 49463333 L53103333 49836666 L53243333 49836666 L53336666 49883333 L53383333 49930000 L53430000 50023333 L53430000 50256666 L53383333 50350000 L53336666 50396666 L53243333 50443333 L52963333 50443333 L52870000 50396666 L52823333 50350000 "/>
<svg:path d="M53896666 50443333 L54083333 50443333 L54176666 50396666 L54223333 50350000 L54316666 50210000 L54363333 50023333 L54363333 49650000 L54316666 49556666 L54270000 49510000 L54176666 49463333 L53990000 49463333 L53896666 49510000 L53850000 49556666 L53803333 49650000 L53803333 49883333 L53850000 49976666 L53896666 50023333 L53990000 50070000 L54176666 50070000 L54270000 50023333 L54316666 49976666 L54363333 49883333 "/>
<svg:path d="M54690000 49463333 L55343333 50443333 "/>
<svg:path d="M55343333 49463333 L54690000 50443333 "/>
<svg:path d="M56136666 49790000 L56136666 50443333 "/>
<svg:path d="M55903333 49416666 L55670000 50116666 L56276666 50116666 "/>
<svg:path d="M56696666 50443333 L56883333 50443333 L56976666 50396666 L57023333 50350000 L57116666 50210000 L57163333 50023333 L57163333 49650000 L57116666 49556666 L57069999 49510000 L56976666 49463333 L56789999 49463333 L56696666 49510000 L56649999 49556666 L56603333 49650000 L56603333 49883333 L56649999 49976666 L56696666 50023333 L56789999 50070000 L56976666 50070000 L57069999 50023333 L57116666 49976666 L57163333 49883333 "/>
<svg:path d="M57583333 49930000 L57909999 49930000 "/>
<svg:path d="M58049999 50443333 L57583333 50443333 L57583333 49463333 L58049999 49463333 "/>
<svg:path d="M58469999 50443333 L58469999 49463333 L58843333 49463333 L58936666 49510000 L58983333 49556666 L59029999 49650000 L59029999 49790000 L58983333 49883333 L58936666 49930000 L58843333 49976666 L58469999 49976666 "/>
<svg:path d="M59403333 49556666 L59449999 49510000 L59543333 49463333 L59776666 49463333 L59869999 49510000 L59916666 49556666 L59963333 49650000 L59963333 49743333 L59916666 49883333 L59356666 50443333 L59963333 50443333 "/>
<svg:path d="M60803333 49463333 L60616666 49463333 L60523333 49510000 L60476666 49556666 L60383333 49696666 L60336666 49883333 L60336666 50256666 L60383333 50350000 L60429999 50396666 L60523333 50443333 L60709999 50443333 L60803333 50396666 L60849999 50350000 L60896666 50256666 L60896666 50023333 L60849999 49930000 L60803333 49883333 L60709999 49836666 L60523333 49836666 L60429999 49883333 L60383333 49930000 L60336666 50023333 "/>
<svg:path d="M61783333 49463333 L61316666 49463333 L61269999 49930000 L61316666 49883333 L61409999 49836666 L61643333 49836666 L61736666 49883333 L61783333 49930000 L61829999 50023333 L61829999 50256666 L61783333 50350000 L61736666 50396666 L61643333 50443333 L61409999 50443333 L61316666 50396666 L61269999 50350000 "/>
<svg:path d="M62156666 49463333 L62809999 50443333 "/>
<svg:path d="M62809999 49463333 L62156666 50443333 "/>
<svg:path d="M63089999 49463333 L63696666 49463333 L63369999 49836666 L63509999 49836666 L63603333 49883333 L63649999 49930000 L63696666 50023333 L63696666 50256666 L63649999 50350000 L63603333 50396666 L63509999 50443333 L63229999 50443333 L63136666 50396666 L63089999 50350000 "/>
<svg:path d="M63976666 49463333 L64536666 49463333 "/>
<svg:path d="M64256666 50443333 L64256666 49463333 "/>
<svg:path d="M64863333 50443333 L64863333 49463333 "/>
<svg:path d="M64863333 49930000 L65423333 49930000 "/>
<svg:path d="M65423333 50443333 L65423333 49463333 "/>
<svg:path d="M65749999 49463333 L66076666 50443333 L66403333 49463333 "/>
</svg:g></svg:g>
<svg:g style="fill:#AFAFAF; fill-opacity:0.0;  stroke:#AFAFAF; stroke-width:100000.000000; stroke-opacity:1;  stroke-linecap:round; stroke-linejoin:round;">
<svg:path d="M48050000 48525000 L49025000 47550000 "/>
<svg:path d="M51950000 47550000 L51950000 52450000 "/>
<svg:path d="M49025000 47550000 L51950000 47550000 "/>
<svg:path d="M48050000 52450000 L48050000 48525000 "/>
<svg:path d="M51950000 52450000 L48050000 52450000 "/>
<svg:g>
</svg:g>
<svg:g>
</svg:g>
<svg:g>
</svg:g>
<svg:g>
</svg:g>
</svg:g>
<svg:g style="fill:#000000; fill-opacity:0.0;  stroke:#000000; stroke-width:100000.000000; stroke-opacity:1;  stroke-linecap:round; stroke-linejoin:round;">
<svg:g>
</svg:g>
<svg:g>
</svg:g>
<svg:g>
</svg:g>
<svg:g>
</svg:g>
</svg:g> 
</svg:g><svg:g><svg:title>SVG Picture created as kicadBoard-F_Mask.svg date 2022/12/01 20:30:32 </svg:title>
  <svg:desc>Picture generated by PCBNEW </svg:desc>
<svg:g style="fill:#000000; fill-opacity:1.000000;stroke:#000000; stroke-opacity:1.000000; stroke-linecap:round; stroke-linejoin:round;" transform="translate(0 0) scale(1 1)">
</svg:g>
<svg:g style="fill:#000000; fill-opacity:0.0;  stroke:#000000; stroke-width:0.000000; stroke-opacity:1;  stroke-linecap:round; stroke-linejoin:round;">
<svg:g>
</svg:g>
<svg:g style="fill:#000000; fill-opacity:0.0;  stroke:#000000; stroke-width:1.000000; stroke-opacity:1;  stroke-linecap:round; stroke-linejoin:round;">
</svg:g>
<svg:g style="fill:#000000; fill-opacity:1.0;  stroke:#000000; stroke-width:1.000000; stroke-opacity:1;  stroke-linecap:round; stroke-linejoin:round;">
<svg:path style="fill:#000000; fill-opacity:1.0;  stroke:#000000; stroke-width:1.000000; stroke-opacity:1;  stroke-linecap:round; stroke-linejoin:round;fill-rule:evenodd;" d="M 46550000.000000,47945000.000000 46561418.000000,47887597.000000 46593934.000000,47838934.000000 46642597.000000,47806418.000000 46700000.000000,47795000.000000 48050000.000000,47795000.000000 48107403.000000,47806418.000000 48156066.000000,47838934.000000 48188582.000000,47887597.000000 48200000.000000,47945000.000000 48200000.000000,48245000.000000 48188582.000000,48302403.000000 48156066.000000,48351066.000000 48107403.000000,48383582.000000 48050000.000000,48395000.000000 46700000.000000,48395000.000000 46642597.000000,48383582.000000 46593934.000000,48351066.000000 46561418.000000,48302403.000000 46550000.000000,48245000.000000 Z"/> 
<svg:path style="fill:#000000; fill-opacity:1.0;  stroke:#000000; stroke-width:1.000000; stroke-opacity:1;  stroke-linecap:round; stroke-linejoin:round;fill-rule:evenodd;" d="M 46550000.000000,49215000.000000 46561418.000000,49157597.000000 46593934.000000,49108934.000000 46642597.000000,49076418.000000 46700000.000000,49065000.000000 48050000.000000,49065000.000000 48107403.000000,49076418.000000 48156066.000000,49108934.000000 48188582.000000,49157597.000000 48200000.000000,49215000.000000 48200000.000000,49515000.000000 48188582.000000,49572403.000000 48156066.000000,49621066.000000 48107403.000000,49653582.000000 48050000.000000,49665000.000000 46700000.000000,49665000.000000 46642597.000000,49653582.000000 46593934.000000,49621066.000000 46561418.000000,49572403.000000 46550000.000000,49515000.000000 Z"/> 
<svg:path style="fill:#000000; fill-opacity:1.0;  stroke:#000000; stroke-width:1.000000; stroke-opacity:1;  stroke-linecap:round; stroke-linejoin:round;fill-rule:evenodd;" d="M 46550000.000000,50485000.000000 46561418.000000,50427597.000000 46593934.000000,50378934.000000 46642597.000000,50346418.000000 46700000.000000,50335000.000000 48050000.000000,50335000.000000 48107403.000000,50346418.000000 48156066.000000,50378934.000000 48188582.000000,50427597.000000 48200000.000000,50485000.000000 48200000.000000,50785000.000000 48188582.000000,50842403.000000 48156066.000000,50891066.000000 48107403.000000,50923582.000000 48050000.000000,50935000.000000 46700000.000000,50935000.000000 46642597.000000,50923582.000000 46593934.000000,50891066.000000 46561418.000000,50842403.000000 46550000.000000,50785000.000000 Z"/> 
<svg:path style="fill:#000000; fill-opacity:1.0;  stroke:#000000; stroke-width:1.000000; stroke-opacity:1;  stroke-linecap:round; stroke-linejoin:round;fill-rule:evenodd;" d="M 46550000.000000,51755000.000000 46561418.000000,51697597.000000 46593934.000000,51648934.000000 46642597.000000,51616418.000000 46700000.000000,51605000.000000 48050000.000000,51605000.000000 48107403.000000,51616418.000000 48156066.000000,51648934.000000 48188582.000000,51697597.000000 48200000.000000,51755000.000000 48200000.000000,52055000.000000 48188582.000000,52112403.000000 48156066.000000,52161066.000000 48107403.000000,52193582.000000 48050000.000000,52205000.000000 46700000.000000,52205000.000000 46642597.000000,52193582.000000 46593934.000000,52161066.000000 46561418.000000,52112403.000000 46550000.000000,52055000.000000 Z"/> 
<svg:path style="fill:#000000; fill-opacity:1.0;  stroke:#000000; stroke-width:1.000000; stroke-opacity:1;  stroke-linecap:round; stroke-linejoin:round;fill-rule:evenodd;" d="M 51800000.000000,51755000.000000 51811418.000000,51697597.000000 51843934.000000,51648934.000000 51892597.000000,51616418.000000 51950000.000000,51605000.000000 53300000.000000,51605000.000000 53357403.000000,51616418.000000 53406066.000000,51648934.000000 53438582.000000,51697597.000000 53450000.000000,51755000.000000 53450000.000000,52055000.000000 53438582.000000,52112403.000000 53406066.000000,52161066.000000 53357403.000000,52193582.000000 53300000.000000,52205000.000000 51950000.000000,52205000.000000 51892597.000000,52193582.000000 51843934.000000,52161066.000000 51811418.000000,52112403.000000 51800000.000000,52055000.000000 Z"/> 
<svg:path style="fill:#000000; fill-opacity:1.0;  stroke:#000000; stroke-width:1.000000; stroke-opacity:1;  stroke-linecap:round; stroke-linejoin:round;fill-rule:evenodd;" d="M 51800000.000000,50485000.000000 51811418.000000,50427597.000000 51843934.000000,50378934.000000 51892597.000000,50346418.000000 51950000.000000,50335000.000000 53300000.000000,50335000.000000 53357403.000000,50346418.000000 53406066.000000,50378934.000000 53438582.000000,50427597.000000 53450000.000000,50485000.000000 53450000.000000,50785000.000000 53438582.000000,50842403.000000 53406066.000000,50891066.000000 53357403.000000,50923582.000000 53300000.000000,50935000.000000 51950000.000000,50935000.000000 51892597.000000,50923582.000000 51843934.000000,50891066.000000 51811418.000000,50842403.000000 51800000.000000,50785000.000000 Z"/> 
<svg:path style="fill:#000000; fill-opacity:1.0;  stroke:#000000; stroke-width:1.000000; stroke-opacity:1;  stroke-linecap:round; stroke-linejoin:round;fill-rule:evenodd;" d="M 51800000.000000,49215000.000000 51811418.000000,49157597.000000 51843934.000000,49108934.000000 51892597.000000,49076418.000000 51950000.000000,49065000.000000 53300000.000000,49065000.000000 53357403.000000,49076418.000000 53406066.000000,49108934.000000 53438582.000000,49157597.000000 53450000.000000,49215000.000000 53450000.000000,49515000.000000 53438582.000000,49572403.000000 53406066.000000,49621066.000000 53357403.000000,49653582.000000 53300000.000000,49665000.000000 51950000.000000,49665000.000000 51892597.000000,49653582.000000 51843934.000000,49621066.000000 51811418.000000,49572403.000000 51800000.000000,49515000.000000 Z"/> 
<svg:path style="fill:#000000; fill-opacity:1.0;  stroke:#000000; stroke-width:1.000000; stroke-opacity:1;  stroke-linecap:round; stroke-linejoin:round;fill-rule:evenodd;" d="M 51800000.000000,47945000.000000 51811418.000000,47887597.000000 51843934.000000,47838934.000000 51892597.000000,47806418.000000 51950000.000000,47795000.000000 53300000.000000,47795000.000000 53357403.000000,47806418.000000 53406066.000000,47838934.000000 53438582.000000,47887597.000000 53450000.000000,47945000.000000 53450000.000000,48245000.000000 53438582.000000,48302403.000000 53406066.000000,48351066.000000 53357403.000000,48383582.000000 53300000.000000,48395000.000000 51950000.000000,48395000.000000 51892597.000000,48383582.000000 51843934.000000,48351066.000000 51811418.000000,48302403.000000 51800000.000000,48245000.000000 Z"/> 
<svg:path style="fill:#000000; fill-opacity:1.0;  stroke:#000000; stroke-width:1.000000; stroke-opacity:1;  stroke-linecap:round; stroke-linejoin:round;fill-rule:evenodd;" d="M 48675001.000000,51499999.000000 48675001.000000,48500001.000000 51324999.000000,48500001.000000 51324999.000000,51499999.000000 Z"/> 
</svg:g>
<svg:g>
</svg:g>
<svg:g>
</svg:g>
<svg:g>
</svg:g>
</svg:g>
<svg:g style="fill:#000000; fill-opacity:1.0;  stroke:#000000; stroke-width:1.000000; stroke-opacity:1;  stroke-linecap:round; stroke-linejoin:round;">
<svg:g>
</svg:g>
<svg:g>
</svg:g>
<svg:g>
</svg:g>
<svg:g>
</svg:g>
</svg:g> 
</svg:g><svg:g><svg:title>SVG Picture created as kicadBoard-F_Paste.svg date 2022/12/01 20:30:32 </svg:title>
  <svg:desc>Picture generated by PCBNEW </svg:desc>
<svg:g style="fill:#000000; fill-opacity:1.000000;stroke:#000000; stroke-opacity:1.000000; stroke-linecap:round; stroke-linejoin:round;" transform="translate(0 0) scale(1 1)">
</svg:g>
<svg:g style="fill:#000000; fill-opacity:0.0;  stroke:#000000; stroke-width:0.000000; stroke-opacity:1;  stroke-linecap:round; stroke-linejoin:round;">
<svg:g>
</svg:g>
<svg:g style="fill:#000000; fill-opacity:0.0;  stroke:#000000; stroke-width:1.000000; stroke-opacity:1;  stroke-linecap:round; stroke-linejoin:round;">
</svg:g>
<svg:g style="fill:#000000; fill-opacity:1.0;  stroke:#000000; stroke-width:1.000000; stroke-opacity:1;  stroke-linecap:round; stroke-linejoin:round;">
<svg:path style="fill:#000000; fill-opacity:1.0;  stroke:#000000; stroke-width:1.000000; stroke-opacity:1;  stroke-linecap:round; stroke-linejoin:round;fill-rule:evenodd;" d="M 50105000.000000,50375000.000000 50124030.000000,50279329.000000 50178223.000000,50198223.000000 50259329.000000,50144030.000000 50355000.000000,50125000.000000 50965000.000000,50125000.000000 51060671.000000,50144030.000000 51141777.000000,50198223.000000 51195970.000000,50279329.000000 51215000.000000,50375000.000000 51215000.000000,51125000.000000 51195970.000000,51220671.000000 51141777.000000,51301777.000000 51060671.000000,51355970.000000 50965000.000000,51375000.000000 50355000.000000,51375000.000000 50259329.000000,51355970.000000 50178223.000000,51301777.000000 50124030.000000,51220671.000000 50105000.000000,51125000.000000 Z"/> 
<svg:path style="fill:#000000; fill-opacity:1.0;  stroke:#000000; stroke-width:1.000000; stroke-opacity:1;  stroke-linecap:round; stroke-linejoin:round;fill-rule:evenodd;" d="M 50105000.000000,48875000.000000 50124030.000000,48779329.000000 50178223.000000,48698223.000000 50259329.000000,48644030.000000 50355000.000000,48625000.000000 50965000.000000,48625000.000000 51060671.000000,48644030.000000 51141777.000000,48698223.000000 51195970.000000,48779329.000000 51215000.000000,48875000.000000 51215000.000000,49625000.000000 51195970.000000,49720671.000000 51141777.000000,49801777.000000 51060671.000000,49855970.000000 50965000.000000,49875000.000000 50355000.000000,49875000.000000 50259329.000000,49855970.000000 50178223.000000,49801777.000000 50124030.000000,49720671.000000 50105000.000000,49625000.000000 Z"/> 
<svg:path style="fill:#000000; fill-opacity:1.0;  stroke:#000000; stroke-width:1.000000; stroke-opacity:1;  stroke-linecap:round; stroke-linejoin:round;fill-rule:evenodd;" d="M 48785000.000000,50375000.000000 48804030.000000,50279329.000000 48858223.000000,50198223.000000 48939329.000000,50144030.000000 49035000.000000,50125000.000000 49645000.000000,50125000.000000 49740671.000000,50144030.000000 49821777.000000,50198223.000000 49875970.000000,50279329.000000 49895000.000000,50375000.000000 49895000.000000,51125000.000000 49875970.000000,51220671.000000 49821777.000000,51301777.000000 49740671.000000,51355970.000000 49645000.000000,51375000.000000 49035000.000000,51375000.000000 48939329.000000,51355970.000000 48858223.000000,51301777.000000 48804030.000000,51220671.000000 48785000.000000,51125000.000000 Z"/> 
<svg:path style="fill:#000000; fill-opacity:1.0;  stroke:#000000; stroke-width:1.000000; stroke-opacity:1;  stroke-linecap:round; stroke-linejoin:round;fill-rule:evenodd;" d="M 48785000.000000,48875000.000000 48804030.000000,48779329.000000 48858223.000000,48698223.000000 48939329.000000,48644030.000000 49035000.000000,48625000.000000 49645000.000000,48625000.000000 49740671.000000,48644030.000000 49821777.000000,48698223.000000 49875970.000000,48779329.000000 49895000.000000,48875000.000000 49895000.000000,49625000.000000 49875970.000000,49720671.000000 49821777.000000,49801777.000000 49740671.000000,49855970.000000 49645000.000000,49875000.000000 49035000.000000,49875000.000000 48939329.000000,49855970.000000 48858223.000000,49801777.000000 48804030.000000,49720671.000000 48785000.000000,49625000.000000 Z"/> 
<svg:path style="fill:#000000; fill-opacity:1.0;  stroke:#000000; stroke-width:1.000000; stroke-opacity:1;  stroke-linecap:round; stroke-linejoin:round;fill-rule:evenodd;" d="M 46550000.000000,47945000.000000 46561418.000000,47887597.000000 46593934.000000,47838934.000000 46642597.000000,47806418.000000 46700000.000000,47795000.000000 48050000.000000,47795000.000000 48107403.000000,47806418.000000 48156066.000000,47838934.000000 48188582.000000,47887597.000000 48200000.000000,47945000.000000 48200000.000000,48245000.000000 48188582.000000,48302403.000000 48156066.000000,48351066.000000 48107403.000000,48383582.000000 48050000.000000,48395000.000000 46700000.000000,48395000.000000 46642597.000000,48383582.000000 46593934.000000,48351066.000000 46561418.000000,48302403.000000 46550000.000000,48245000.000000 Z"/> 
<svg:path style="fill:#000000; fill-opacity:1.0;  stroke:#000000; stroke-width:1.000000; stroke-opacity:1;  stroke-linecap:round; stroke-linejoin:round;fill-rule:evenodd;" d="M 46550000.000000,49215000.000000 46561418.000000,49157597.000000 46593934.000000,49108934.000000 46642597.000000,49076418.000000 46700000.000000,49065000.000000 48050000.000000,49065000.000000 48107403.000000,49076418.000000 48156066.000000,49108934.000000 48188582.000000,49157597.000000 48200000.000000,49215000.000000 48200000.000000,49515000.000000 48188582.000000,49572403.000000 48156066.000000,49621066.000000 48107403.000000,49653582.000000 48050000.000000,49665000.000000 46700000.000000,49665000.000000 46642597.000000,49653582.000000 46593934.000000,49621066.000000 46561418.000000,49572403.000000 46550000.000000,49515000.000000 Z"/> 
<svg:path style="fill:#000000; fill-opacity:1.0;  stroke:#000000; stroke-width:1.000000; stroke-opacity:1;  stroke-linecap:round; stroke-linejoin:round;fill-rule:evenodd;" d="M 46550000.000000,50485000.000000 46561418.000000,50427597.000000 46593934.000000,50378934.000000 46642597.000000,50346418.000000 46700000.000000,50335000.000000 48050000.000000,50335000.000000 48107403.000000,50346418.000000 48156066.000000,50378934.000000 48188582.000000,50427597.000000 48200000.000000,50485000.000000 48200000.000000,50785000.000000 48188582.000000,50842403.000000 48156066.000000,50891066.000000 48107403.000000,50923582.000000 48050000.000000,50935000.000000 46700000.000000,50935000.000000 46642597.000000,50923582.000000 46593934.000000,50891066.000000 46561418.000000,50842403.000000 46550000.000000,50785000.000000 Z"/> 
<svg:path style="fill:#000000; fill-opacity:1.0;  stroke:#000000; stroke-width:1.000000; stroke-opacity:1;  stroke-linecap:round; stroke-linejoin:round;fill-rule:evenodd;" d="M 46550000.000000,51755000.000000 46561418.000000,51697597.000000 46593934.000000,51648934.000000 46642597.000000,51616418.000000 46700000.000000,51605000.000000 48050000.000000,51605000.000000 48107403.000000,51616418.000000 48156066.000000,51648934.000000 48188582.000000,51697597.000000 48200000.000000,51755000.000000 48200000.000000,52055000.000000 48188582.000000,52112403.000000 48156066.000000,52161066.000000 48107403.000000,52193582.000000 48050000.000000,52205000.000000 46700000.000000,52205000.000000 46642597.000000,52193582.000000 46593934.000000,52161066.000000 46561418.000000,52112403.000000 46550000.000000,52055000.000000 Z"/> 
<svg:path style="fill:#000000; fill-opacity:1.0;  stroke:#000000; stroke-width:1.000000; stroke-opacity:1;  stroke-linecap:round; stroke-linejoin:round;fill-rule:evenodd;" d="M 51800000.000000,51755000.000000 51811418.000000,51697597.000000 51843934.000000,51648934.000000 51892597.000000,51616418.000000 51950000.000000,51605000.000000 53300000.000000,51605000.000000 53357403.000000,51616418.000000 53406066.000000,51648934.000000 53438582.000000,51697597.000000 53450000.000000,51755000.000000 53450000.000000,52055000.000000 53438582.000000,52112403.000000 53406066.000000,52161066.000000 53357403.000000,52193582.000000 53300000.000000,52205000.000000 51950000.000000,52205000.000000 51892597.000000,52193582.000000 51843934.000000,52161066.000000 51811418.000000,52112403.000000 51800000.000000,52055000.000000 Z"/> 
<svg:path style="fill:#000000; fill-opacity:1.0;  stroke:#000000; stroke-width:1.000000; stroke-opacity:1;  stroke-linecap:round; stroke-linejoin:round;fill-rule:evenodd;" d="M 51800000.000000,50485000.000000 51811418.000000,50427597.000000 51843934.000000,50378934.000000 51892597.000000,50346418.000000 51950000.000000,50335000.000000 53300000.000000,50335000.000000 53357403.000000,50346418.000000 53406066.000000,50378934.000000 53438582.000000,50427597.000000 53450000.000000,50485000.000000 53450000.000000,50785000.000000 53438582.000000,50842403.000000 53406066.000000,50891066.000000 53357403.000000,50923582.000000 53300000.000000,50935000.000000 51950000.000000,50935000.000000 51892597.000000,50923582.000000 51843934.000000,50891066.000000 51811418.000000,50842403.000000 51800000.000000,50785000.000000 Z"/> 
<svg:path style="fill:#000000; fill-opacity:1.0;  stroke:#000000; stroke-width:1.000000; stroke-opacity:1;  stroke-linecap:round; stroke-linejoin:round;fill-rule:evenodd;" d="M 51800000.000000,49215000.000000 51811418.000000,49157597.000000 51843934.000000,49108934.000000 51892597.000000,49076418.000000 51950000.000000,49065000.000000 53300000.000000,49065000.000000 53357403.000000,49076418.000000 53406066.000000,49108934.000000 53438582.000000,49157597.000000 53450000.000000,49215000.000000 53450000.000000,49515000.000000 53438582.000000,49572403.000000 53406066.000000,49621066.000000 53357403.000000,49653582.000000 53300000.000000,49665000.000000 51950000.000000,49665000.000000 51892597.000000,49653582.000000 51843934.000000,49621066.000000 51811418.000000,49572403.000000 51800000.000000,49515000.000000 Z"/> 
<svg:path style="fill:#000000; fill-opacity:1.0;  stroke:#000000; stroke-width:1.000000; stroke-opacity:1;  stroke-linecap:round; stroke-linejoin:round;fill-rule:evenodd;" d="M 51800000.000000,47945000.000000 51811418.000000,47887597.000000 51843934.000000,47838934.000000 51892597.000000,47806418.000000 51950000.000000,47795000.000000 53300000.000000,47795000.000000 53357403.000000,47806418.000000 53406066.000000,47838934.000000 53438582.000000,47887597.000000 53450000.000000,47945000.000000 53450000.000000,48245000.000000 53438582.000000,48302403.000000 53406066.000000,48351066.000000 53357403.000000,48383582.000000 53300000.000000,48395000.000000 51950000.000000,48395000.000000 51892597.000000,48383582.000000 51843934.000000,48351066.000000 51811418.000000,48302403.000000 51800000.000000,48245000.000000 Z"/> 
</svg:g>
<svg:g>
</svg:g>
<svg:g>
</svg:g>
<svg:g>
</svg:g>
</svg:g>
<svg:g style="fill:#000000; fill-opacity:1.0;  stroke:#000000; stroke-width:1.000000; stroke-opacity:1;  stroke-linecap:round; stroke-linejoin:round;">
<svg:g>
</svg:g>
<svg:g>
</svg:g>
<svg:g>
</svg:g>
<svg:g>
</svg:g>
</svg:g> 
</svg:g><svg:g><svg:title>SVG Picture created as kicadBoard-F_Silkscreen.svg date 2022/12/01 20:30:32 </svg:title>
  <svg:desc>Picture generated by PCBNEW </svg:desc>
<svg:g style="fill:#000000; fill-opacity:1.000000;stroke:#000000; stroke-opacity:1.000000; stroke-linecap:round; stroke-linejoin:round;" transform="translate(0 0) scale(1 1)">
</svg:g>
<svg:g style="fill:#000000; fill-opacity:0.0;  stroke:#000000; stroke-width:0.000000; stroke-opacity:1;  stroke-linecap:round; stroke-linejoin:round;">
</svg:g>
<svg:g style="fill:#F2EDA1; fill-opacity:0.0;  stroke:#F2EDA1; stroke-width:0.000000; stroke-opacity:1;  stroke-linecap:round; stroke-linejoin:round;">
</svg:g>
<svg:g style="fill:#F2EDA1; fill-opacity:0.0;  stroke:#F2EDA1; stroke-width:150000.000000; stroke-opacity:1;  stroke-linecap:round; stroke-linejoin:round;">
<svg:text x="50000000.000000" y="47100000.000000" textLength="33666668.000000" font-size="1333333.000000" lengthAdjust="spacingAndGlyphs" text-anchor="middle" opacity="0">FZKSOINFINEONPGDSO82739X49EP265X3THV</svg:text>
<svg:g class="stroked-text"><svg:desc>FZKSOINFINEONPGDSO82739X49EP265X3THV</svg:desc>
<svg:path d="M33738095 46528571 L33404761 46528571 "/>
<svg:path d="M33404761 47052380 L33404761 46052380 L33880952 46052380 "/>
<svg:path d="M34166666 46052380 L34833333 46052380 L34166666 47052380 L34833333 47052380 "/>
<svg:path d="M35214285 47052380 L35214285 46052380 "/>
<svg:path d="M35785714 47052380 L35357142 46480952 "/>
<svg:path d="M35785714 46052380 L35214285 46623809 "/>
<svg:path d="M36166666 47004761 L36309523 47052380 L36547619 47052380 L36642857 47004761 L36690476 46957142 L36738095 46861904 L36738095 46766666 L36690476 46671428 L36642857 46623809 L36547619 46576190 L36357142 46528571 L36261904 46480952 L36214285 46433333 L36166666 46338095 L36166666 46242857 L36214285 46147619 L36261904 46100000 L36357142 46052380 L36595238 46052380 L36738095 46100000 "/>
<svg:path d="M37357142 46052380 L37547619 46052380 L37642857 46100000 L37738095 46195238 L37785714 46385714 L37785714 46719047 L37738095 46909523 L37642857 47004761 L37547619 47052380 L37357142 47052380 L37261904 47004761 L37166666 46909523 L37119047 46719047 L37119047 46385714 L37166666 46195238 L37261904 46100000 L37357142 46052380 "/>
<svg:path d="M38214285 47052380 L38214285 46052380 "/>
<svg:path d="M38690476 47052380 L38690476 46052380 L39261904 47052380 L39261904 46052380 "/>
<svg:path d="M40071428 46528571 L39738095 46528571 "/>
<svg:path d="M39738095 47052380 L39738095 46052380 L40214285 46052380 "/>
<svg:path d="M40595238 47052380 L40595238 46052380 "/>
<svg:path d="M41071428 47052380 L41071428 46052380 L41642857 47052380 L41642857 46052380 "/>
<svg:path d="M42119047 46528571 L42452380 46528571 "/>
<svg:path d="M42595238 47052380 L42119047 47052380 L42119047 46052380 L42595238 46052380 "/>
<svg:path d="M43214285 46052380 L43404761 46052380 L43500000 46100000 L43595238 46195238 L43642857 46385714 L43642857 46719047 L43595238 46909523 L43500000 47004761 L43404761 47052380 L43214285 47052380 L43119047 47004761 L43023809 46909523 L42976190 46719047 L42976190 46385714 L43023809 46195238 L43119047 46100000 L43214285 46052380 "/>
<svg:path d="M44071428 47052380 L44071428 46052380 L44642857 47052380 L44642857 46052380 "/>
<svg:path d="M45119047 47052380 L45119047 46052380 L45500000 46052380 L45595238 46100000 L45642857 46147619 L45690476 46242857 L45690476 46385714 L45642857 46480952 L45595238 46528571 L45500000 46576190 L45119047 46576190 "/>
<svg:path d="M46642857 46100000 L46547619 46052380 L46404761 46052380 L46261904 46100000 L46166666 46195238 L46119047 46290476 L46071428 46480952 L46071428 46623809 L46119047 46814285 L46166666 46909523 L46261904 47004761 L46404761 47052380 L46500000 47052380 L46642857 47004761 L46690476 46957142 L46690476 46623809 L46500000 46623809 "/>
<svg:path d="M47119047 47052380 L47119047 46052380 L47357142 46052380 L47500000 46100000 L47595238 46195238 L47642857 46290476 L47690476 46480952 L47690476 46623809 L47642857 46814285 L47595238 46909523 L47500000 47004761 L47357142 47052380 L47119047 47052380 "/>
<svg:path d="M48071428 47004761 L48214285 47052380 L48452380 47052380 L48547619 47004761 L48595238 46957142 L48642857 46861904 L48642857 46766666 L48595238 46671428 L48547619 46623809 L48452380 46576190 L48261904 46528571 L48166666 46480952 L48119047 46433333 L48071428 46338095 L48071428 46242857 L48119047 46147619 L48166666 46100000 L48261904 46052380 L48500000 46052380 L48642857 46100000 "/>
<svg:path d="M49261904 46052380 L49452380 46052380 L49547619 46100000 L49642857 46195238 L49690476 46385714 L49690476 46719047 L49642857 46909523 L49547619 47004761 L49452380 47052380 L49261904 47052380 L49166666 47004761 L49071428 46909523 L49023809 46719047 L49023809 46385714 L49071428 46195238 L49166666 46100000 L49261904 46052380 "/>
<svg:path d="M50261904 46480952 L50166666 46433333 L50119047 46385714 L50071428 46290476 L50071428 46242857 L50119047 46147619 L50166666 46100000 L50261904 46052380 L50452380 46052380 L50547619 46100000 L50595238 46147619 L50642857 46242857 L50642857 46290476 L50595238 46385714 L50547619 46433333 L50452380 46480952 L50261904 46480952 L50166666 46528571 L50119047 46576190 L50071428 46671428 L50071428 46861904 L50119047 46957142 L50166666 47004761 L50261904 47052380 L50452380 47052380 L50547619 47004761 L50595238 46957142 L50642857 46861904 L50642857 46671428 L50595238 46576190 L50547619 46528571 L50452380 46480952 "/>
<svg:path d="M51023809 46147619 L51071428 46100000 L51166666 46052380 L51404761 46052380 L51500000 46100000 L51547619 46147619 L51595238 46242857 L51595238 46338095 L51547619 46480952 L50976190 47052380 L51595238 47052380 "/>
<svg:path d="M51928571 46052380 L52595238 46052380 L52166666 47052380 "/>
<svg:path d="M52880952 46052380 L53499999 46052380 L53166666 46433333 L53309523 46433333 L53404761 46480952 L53452380 46528571 L53499999 46623809 L53499999 46861904 L53452380 46957142 L53404761 47004761 L53309523 47052380 L53023809 47052380 L52928571 47004761 L52880952 46957142 "/>
<svg:path d="M53976190 47052380 L54166666 47052380 L54261904 47004761 L54309523 46957142 L54404761 46814285 L54452380 46623809 L54452380 46242857 L54404761 46147619 L54357142 46100000 L54261904 46052380 L54071428 46052380 L53976190 46100000 L53928571 46147619 L53880952 46242857 L53880952 46480952 L53928571 46576190 L53976190 46623809 L54071428 46671428 L54261904 46671428 L54357142 46623809 L54404761 46576190 L54452380 46480952 "/>
<svg:path d="M54785714 46052380 L55452380 47052380 "/>
<svg:path d="M55452380 46052380 L54785714 47052380 "/>
<svg:path d="M56261904 46385714 L56261904 47052380 "/>
<svg:path d="M56023809 46004761 L55785714 46719047 L56404761 46719047 "/>
<svg:path d="M56833333 47052380 L57023809 47052380 L57119047 47004761 L57166666 46957142 L57261904 46814285 L57309523 46623809 L57309523 46242857 L57261904 46147619 L57214285 46100000 L57119047 46052380 L56928571 46052380 L56833333 46100000 L56785714 46147619 L56738095 46242857 L56738095 46480952 L56785714 46576190 L56833333 46623809 L56928571 46671428 L57119047 46671428 L57214285 46623809 L57261904 46576190 L57309523 46480952 "/>
<svg:path d="M57738095 46528571 L58071428 46528571 "/>
<svg:path d="M58214285 47052380 L57738095 47052380 L57738095 46052380 L58214285 46052380 "/>
<svg:path d="M58642857 47052380 L58642857 46052380 L59023809 46052380 L59119047 46100000 L59166666 46147619 L59214285 46242857 L59214285 46385714 L59166666 46480952 L59119047 46528571 L59023809 46576190 L58642857 46576190 "/>
<svg:path d="M59595238 46147619 L59642857 46100000 L59738095 46052380 L59976190 46052380 L60071428 46100000 L60119047 46147619 L60166666 46242857 L60166666 46338095 L60119047 46480952 L59547619 47052380 L60166666 47052380 "/>
<svg:path d="M61023809 46052380 L60833333 46052380 L60738095 46100000 L60690476 46147619 L60595238 46290476 L60547619 46480952 L60547619 46861904 L60595238 46957142 L60642857 47004761 L60738095 47052380 L60928571 47052380 L61023809 47004761 L61071428 46957142 L61119047 46861904 L61119047 46623809 L61071428 46528571 L61023809 46480952 L60928571 46433333 L60738095 46433333 L60642857 46480952 L60595238 46528571 L60547619 46623809 "/>
<svg:path d="M62023809 46052380 L61547619 46052380 L61499999 46528571 L61547619 46480952 L61642857 46433333 L61880952 46433333 L61976190 46480952 L62023809 46528571 L62071428 46623809 L62071428 46861904 L62023809 46957142 L61976190 47004761 L61880952 47052380 L61642857 47052380 L61547619 47004761 L61499999 46957142 "/>
<svg:path d="M62404761 46052380 L63071428 47052380 "/>
<svg:path d="M63071428 46052380 L62404761 47052380 "/>
<svg:path d="M63357142 46052380 L63976190 46052380 L63642857 46433333 L63785714 46433333 L63880952 46480952 L63928571 46528571 L63976190 46623809 L63976190 46861904 L63928571 46957142 L63880952 47004761 L63785714 47052380 L63499999 47052380 L63404761 47004761 L63357142 46957142 "/>
<svg:path d="M64261904 46052380 L64833333 46052380 "/>
<svg:path d="M64547619 47052380 L64547619 46052380 "/>
<svg:path d="M65166666 47052380 L65166666 46052380 "/>
<svg:path d="M65166666 46528571 L65738095 46528571 "/>
<svg:path d="M65738095 47052380 L65738095 46052380 "/>
<svg:path d="M66071428 46052380 L66404761 47052380 L66738095 46052380 "/>
</svg:g></svg:g>
<svg:g style="fill:#F2EDA1; fill-opacity:0.0;  stroke:#F2EDA1; stroke-width:120000.000000; stroke-opacity:1;  stroke-linecap:round; stroke-linejoin:round;">
<svg:path d="M50000000 47440000 L46550000 47440000 "/>
<svg:path d="M50000000 47440000 L51950000 47440000 "/>
<svg:path d="M50000000 52560000 L51950000 52560000 "/>
<svg:path d="M50000000 52560000 L48050000 52560000 "/>
<svg:g>
</svg:g>
<svg:g>
</svg:g>
<svg:g>
</svg:g>
<svg:g>
</svg:g>
</svg:g>
<svg:g style="fill:#000000; fill-opacity:0.0;  stroke:#000000; stroke-width:120000.000000; stroke-opacity:1;  stroke-linecap:round; stroke-linejoin:round;">
<svg:g>
</svg:g>
<svg:g>
</svg:g>
<svg:g>
</svg:g>
<svg:g>
</svg:g>
</svg:g> 
</svg:g><svg:g><svg:title>SVG Picture created as kicadBoard-Margin.svg date 2022/12/01 20:30:32 </svg:title>
  <svg:desc>Picture generated by PCBNEW </svg:desc>
<svg:g style="fill:#000000; fill-opacity:1.000000;stroke:#000000; stroke-opacity:1.000000; stroke-linecap:round; stroke-linejoin:round;" transform="translate(0 0) scale(1 1)">
</svg:g>
<svg:g style="fill:#000000; fill-opacity:0.0;  stroke:#000000; stroke-width:0.000000; stroke-opacity:1;  stroke-linecap:round; stroke-linejoin:round;">
<svg:g>
</svg:g>
<svg:g>
</svg:g>
<svg:g>
</svg:g>
<svg:g>
</svg:g>
</svg:g>
<svg:g style="fill:#000000; fill-opacity:0.0;  stroke:#000000; stroke-width:0.000000; stroke-opacity:1;  stroke-linecap:round; stroke-linejoin:round;">
<svg:g>
</svg:g>
<svg:g>
</svg:g>
<svg:g>
</svg:g>
<svg:g>
</svg:g>
</svg:g> 
</svg:g><svg:g><svg:title>SVG Picture created as kicadBoard-F_Cu.svg date 2022/12/01 20:30:32 </svg:title>
  <svg:desc>Picture generated by PCBNEW </svg:desc>
<svg:g style="fill:#000000; fill-opacity:1.000000;stroke:#000000; stroke-opacity:1.000000; stroke-linecap:round; stroke-linejoin:round;" transform="translate(0 0) scale(1 1)">
</svg:g>
<svg:g style="fill:#000000; fill-opacity:0.0;  stroke:#000000; stroke-width:0.000000; stroke-opacity:1;  stroke-linecap:round; stroke-linejoin:round;">
<svg:g>
</svg:g>
<svg:g style="fill:#C83434; fill-opacity:0.0;  stroke:#C83434; stroke-width:0.000000; stroke-opacity:1;  stroke-linecap:round; stroke-linejoin:round;">
</svg:g>
<svg:g style="fill:#C83434; fill-opacity:0.0;  stroke:#C83434; stroke-width:1.000000; stroke-opacity:1;  stroke-linecap:round; stroke-linejoin:round;">
</svg:g>
<svg:g style="fill:#C83434; fill-opacity:1.0;  stroke:#C83434; stroke-width:1.000000; stroke-opacity:1;  stroke-linecap:round; stroke-linejoin:round;">
<svg:path style="fill:#C83434; fill-opacity:1.0;  stroke:#C83434; stroke-width:1.000000; stroke-opacity:1;  stroke-linecap:round; stroke-linejoin:round;fill-rule:evenodd;" d="M 46550000.000000,47945000.000000 46561418.000000,47887597.000000 46593934.000000,47838934.000000 46642597.000000,47806418.000000 46700000.000000,47795000.000000 48050000.000000,47795000.000000 48107403.000000,47806418.000000 48156066.000000,47838934.000000 48188582.000000,47887597.000000 48200000.000000,47945000.000000 48200000.000000,48245000.000000 48188582.000000,48302403.000000 48156066.000000,48351066.000000 48107403.000000,48383582.000000 48050000.000000,48395000.000000 46700000.000000,48395000.000000 46642597.000000,48383582.000000 46593934.000000,48351066.000000 46561418.000000,48302403.000000 46550000.000000,48245000.000000 Z"/> 
<svg:path style="fill:#C83434; fill-opacity:1.0;  stroke:#C83434; stroke-width:1.000000; stroke-opacity:1;  stroke-linecap:round; stroke-linejoin:round;fill-rule:evenodd;" d="M 46550000.000000,49215000.000000 46561418.000000,49157597.000000 46593934.000000,49108934.000000 46642597.000000,49076418.000000 46700000.000000,49065000.000000 48050000.000000,49065000.000000 48107403.000000,49076418.000000 48156066.000000,49108934.000000 48188582.000000,49157597.000000 48200000.000000,49215000.000000 48200000.000000,49515000.000000 48188582.000000,49572403.000000 48156066.000000,49621066.000000 48107403.000000,49653582.000000 48050000.000000,49665000.000000 46700000.000000,49665000.000000 46642597.000000,49653582.000000 46593934.000000,49621066.000000 46561418.000000,49572403.000000 46550000.000000,49515000.000000 Z"/> 
<svg:path style="fill:#C83434; fill-opacity:1.0;  stroke:#C83434; stroke-width:1.000000; stroke-opacity:1;  stroke-linecap:round; stroke-linejoin:round;fill-rule:evenodd;" d="M 46550000.000000,50485000.000000 46561418.000000,50427597.000000 46593934.000000,50378934.000000 46642597.000000,50346418.000000 46700000.000000,50335000.000000 48050000.000000,50335000.000000 48107403.000000,50346418.000000 48156066.000000,50378934.000000 48188582.000000,50427597.000000 48200000.000000,50485000.000000 48200000.000000,50785000.000000 48188582.000000,50842403.000000 48156066.000000,50891066.000000 48107403.000000,50923582.000000 48050000.000000,50935000.000000 46700000.000000,50935000.000000 46642597.000000,50923582.000000 46593934.000000,50891066.000000 46561418.000000,50842403.000000 46550000.000000,50785000.000000 Z"/> 
<svg:path style="fill:#C83434; fill-opacity:1.0;  stroke:#C83434; stroke-width:1.000000; stroke-opacity:1;  stroke-linecap:round; stroke-linejoin:round;fill-rule:evenodd;" d="M 46550000.000000,51755000.000000 46561418.000000,51697597.000000 46593934.000000,51648934.000000 46642597.000000,51616418.000000 46700000.000000,51605000.000000 48050000.000000,51605000.000000 48107403.000000,51616418.000000 48156066.000000,51648934.000000 48188582.000000,51697597.000000 48200000.000000,51755000.000000 48200000.000000,52055000.000000 48188582.000000,52112403.000000 48156066.000000,52161066.000000 48107403.000000,52193582.000000 48050000.000000,52205000.000000 46700000.000000,52205000.000000 46642597.000000,52193582.000000 46593934.000000,52161066.000000 46561418.000000,52112403.000000 46550000.000000,52055000.000000 Z"/> 
<svg:path style="fill:#C83434; fill-opacity:1.0;  stroke:#C83434; stroke-width:1.000000; stroke-opacity:1;  stroke-linecap:round; stroke-linejoin:round;fill-rule:evenodd;" d="M 51800000.000000,51755000.000000 51811418.000000,51697597.000000 51843934.000000,51648934.000000 51892597.000000,51616418.000000 51950000.000000,51605000.000000 53300000.000000,51605000.000000 53357403.000000,51616418.000000 53406066.000000,51648934.000000 53438582.000000,51697597.000000 53450000.000000,51755000.000000 53450000.000000,52055000.000000 53438582.000000,52112403.000000 53406066.000000,52161066.000000 53357403.000000,52193582.000000 53300000.000000,52205000.000000 51950000.000000,52205000.000000 51892597.000000,52193582.000000 51843934.000000,52161066.000000 51811418.000000,52112403.000000 51800000.000000,52055000.000000 Z"/> 
<svg:path style="fill:#C83434; fill-opacity:1.0;  stroke:#C83434; stroke-width:1.000000; stroke-opacity:1;  stroke-linecap:round; stroke-linejoin:round;fill-rule:evenodd;" d="M 51800000.000000,50485000.000000 51811418.000000,50427597.000000 51843934.000000,50378934.000000 51892597.000000,50346418.000000 51950000.000000,50335000.000000 53300000.000000,50335000.000000 53357403.000000,50346418.000000 53406066.000000,50378934.000000 53438582.000000,50427597.000000 53450000.000000,50485000.000000 53450000.000000,50785000.000000 53438582.000000,50842403.000000 53406066.000000,50891066.000000 53357403.000000,50923582.000000 53300000.000000,50935000.000000 51950000.000000,50935000.000000 51892597.000000,50923582.000000 51843934.000000,50891066.000000 51811418.000000,50842403.000000 51800000.000000,50785000.000000 Z"/> 
<svg:path style="fill:#C83434; fill-opacity:1.0;  stroke:#C83434; stroke-width:1.000000; stroke-opacity:1;  stroke-linecap:round; stroke-linejoin:round;fill-rule:evenodd;" d="M 51800000.000000,49215000.000000 51811418.000000,49157597.000000 51843934.000000,49108934.000000 51892597.000000,49076418.000000 51950000.000000,49065000.000000 53300000.000000,49065000.000000 53357403.000000,49076418.000000 53406066.000000,49108934.000000 53438582.000000,49157597.000000 53450000.000000,49215000.000000 53450000.000000,49515000.000000 53438582.000000,49572403.000000 53406066.000000,49621066.000000 53357403.000000,49653582.000000 53300000.000000,49665000.000000 51950000.000000,49665000.000000 51892597.000000,49653582.000000 51843934.000000,49621066.000000 51811418.000000,49572403.000000 51800000.000000,49515000.000000 Z"/> 
<svg:path style="fill:#C83434; fill-opacity:1.0;  stroke:#C83434; stroke-width:1.000000; stroke-opacity:1;  stroke-linecap:round; stroke-linejoin:round;fill-rule:evenodd;" d="M 51800000.000000,47945000.000000 51811418.000000,47887597.000000 51843934.000000,47838934.000000 51892597.000000,47806418.000000 51950000.000000,47795000.000000 53300000.000000,47795000.000000 53357403.000000,47806418.000000 53406066.000000,47838934.000000 53438582.000000,47887597.000000 53450000.000000,47945000.000000 53450000.000000,48245000.000000 53438582.000000,48302403.000000 53406066.000000,48351066.000000 53357403.000000,48383582.000000 53300000.000000,48395000.000000 51950000.000000,48395000.000000 51892597.000000,48383582.000000 51843934.000000,48351066.000000 51811418.000000,48302403.000000 51800000.000000,48245000.000000 Z"/> 
<svg:path style="fill:#C83434; fill-opacity:1.0;  stroke:#C83434; stroke-width:1.000000; stroke-opacity:1;  stroke-linecap:round; stroke-linejoin:round;fill-rule:evenodd;" d="M 48675001.000000,51499999.000000 48675001.000000,48500001.000000 51324999.000000,48500001.000000 51324999.000000,51499999.000000 Z"/> 
<svg:circle cx="50000000.000000" cy="48750000.000000" r="250000.000000"/> 
</svg:g>
<svg:g style="fill:#C83434; fill-opacity:1.0;  stroke:#C83434; stroke-width:21200.000000; stroke-opacity:1;  stroke-linecap:round; stroke-linejoin:round;">
</svg:g>
<svg:g style="fill:#C83434; fill-opacity:1.0;  stroke:#C83434; stroke-width:1.000000; stroke-opacity:1;  stroke-linecap:round; stroke-linejoin:round;">
<svg:circle cx="48925000.000000" cy="51250000.000000" r="250000.000000"/> 
</svg:g>
<svg:g style="fill:#C83434; fill-opacity:1.0;  stroke:#C83434; stroke-width:21200.000000; stroke-opacity:1;  stroke-linecap:round; stroke-linejoin:round;">
</svg:g>
<svg:g style="fill:#C83434; fill-opacity:1.0;  stroke:#C83434; stroke-width:1.000000; stroke-opacity:1;  stroke-linecap:round; stroke-linejoin:round;">
<svg:circle cx="51075000.000000" cy="50000000.000000" r="250000.000000"/> 
</svg:g>
<svg:g style="fill:#C83434; fill-opacity:1.0;  stroke:#C83434; stroke-width:21200.000000; stroke-opacity:1;  stroke-linecap:round; stroke-linejoin:round;">
</svg:g>
<svg:g style="fill:#C83434; fill-opacity:1.0;  stroke:#C83434; stroke-width:1.000000; stroke-opacity:1;  stroke-linecap:round; stroke-linejoin:round;">
<svg:circle cx="48925000.000000" cy="48750000.000000" r="250000.000000"/> 
</svg:g>
<svg:g style="fill:#C83434; fill-opacity:1.0;  stroke:#C83434; stroke-width:21200.000000; stroke-opacity:1;  stroke-linecap:round; stroke-linejoin:round;">
</svg:g>
<svg:g style="fill:#C83434; fill-opacity:1.0;  stroke:#C83434; stroke-width:1.000000; stroke-opacity:1;  stroke-linecap:round; stroke-linejoin:round;">
<svg:circle cx="51075000.000000" cy="51250000.000000" r="250000.000000"/> 
</svg:g>
<svg:g style="fill:#C83434; fill-opacity:1.0;  stroke:#C83434; stroke-width:21200.000000; stroke-opacity:1;  stroke-linecap:round; stroke-linejoin:round;">
</svg:g>
<svg:g style="fill:#C83434; fill-opacity:1.0;  stroke:#C83434; stroke-width:1.000000; stroke-opacity:1;  stroke-linecap:round; stroke-linejoin:round;">
<svg:circle cx="50000000.000000" cy="51250000.000000" r="250000.000000"/> 
</svg:g>
<svg:g style="fill:#C83434; fill-opacity:1.0;  stroke:#C83434; stroke-width:21200.000000; stroke-opacity:1;  stroke-linecap:round; stroke-linejoin:round;">
</svg:g>
<svg:g style="fill:#C83434; fill-opacity:1.0;  stroke:#C83434; stroke-width:1.000000; stroke-opacity:1;  stroke-linecap:round; stroke-linejoin:round;">
<svg:circle cx="48925000.000000" cy="50000000.000000" r="250000.000000"/> 
</svg:g>
<svg:g style="fill:#C83434; fill-opacity:1.0;  stroke:#C83434; stroke-width:21200.000000; stroke-opacity:1;  stroke-linecap:round; stroke-linejoin:round;">
</svg:g>
<svg:g style="fill:#C83434; fill-opacity:1.0;  stroke:#C83434; stroke-width:1.000000; stroke-opacity:1;  stroke-linecap:round; stroke-linejoin:round;">
<svg:circle cx="50000000.000000" cy="50000000.000000" r="250000.000000"/> 
</svg:g>
<svg:g style="fill:#C83434; fill-opacity:1.0;  stroke:#C83434; stroke-width:21200.000000; stroke-opacity:1;  stroke-linecap:round; stroke-linejoin:round;">
</svg:g>
<svg:g style="fill:#C83434; fill-opacity:1.0;  stroke:#C83434; stroke-width:1.000000; stroke-opacity:1;  stroke-linecap:round; stroke-linejoin:round;">
<svg:circle cx="51075000.000000" cy="48750000.000000" r="250000.000000"/> 
</svg:g>
<svg:g style="fill:#C83434; fill-opacity:1.0;  stroke:#C83434; stroke-width:21200.000000; stroke-opacity:1;  stroke-linecap:round; stroke-linejoin:round;">
</svg:g>
<svg:g>
</svg:g>
<svg:g>
</svg:g>
<svg:g>
</svg:g>
</svg:g>
<svg:g style="fill:#FFFFFF; fill-opacity:1.0;  stroke:#FFFFFF; stroke-width:21200.000000; stroke-opacity:1;  stroke-linecap:round; stroke-linejoin:round;">
</svg:g>
<svg:g style="fill:#FFFFFF; fill-opacity:1.0;  stroke:#FFFFFF; stroke-width:1.000000; stroke-opacity:1;  stroke-linecap:round; stroke-linejoin:round;">
<svg:circle cx="50000000.000000" cy="48750000.000000" r="100000.000000"/> 
</svg:g>
<svg:g style="fill:#FFFFFF; fill-opacity:1.0;  stroke:#FFFFFF; stroke-width:21200.000000; stroke-opacity:1;  stroke-linecap:round; stroke-linejoin:round;">
</svg:g>
<svg:g style="fill:#FFFFFF; fill-opacity:1.0;  stroke:#FFFFFF; stroke-width:1.000000; stroke-opacity:1;  stroke-linecap:round; stroke-linejoin:round;">
<svg:circle cx="48925000.000000" cy="51250000.000000" r="100000.000000"/> 
</svg:g>
<svg:g style="fill:#FFFFFF; fill-opacity:1.0;  stroke:#FFFFFF; stroke-width:21200.000000; stroke-opacity:1;  stroke-linecap:round; stroke-linejoin:round;">
</svg:g>
<svg:g style="fill:#FFFFFF; fill-opacity:1.0;  stroke:#FFFFFF; stroke-width:1.000000; stroke-opacity:1;  stroke-linecap:round; stroke-linejoin:round;">
<svg:circle cx="51075000.000000" cy="50000000.000000" r="100000.000000"/> 
</svg:g>
<svg:g style="fill:#FFFFFF; fill-opacity:1.0;  stroke:#FFFFFF; stroke-width:21200.000000; stroke-opacity:1;  stroke-linecap:round; stroke-linejoin:round;">
</svg:g>
<svg:g style="fill:#FFFFFF; fill-opacity:1.0;  stroke:#FFFFFF; stroke-width:1.000000; stroke-opacity:1;  stroke-linecap:round; stroke-linejoin:round;">
<svg:circle cx="48925000.000000" cy="48750000.000000" r="100000.000000"/> 
</svg:g>
<svg:g style="fill:#FFFFFF; fill-opacity:1.0;  stroke:#FFFFFF; stroke-width:21200.000000; stroke-opacity:1;  stroke-linecap:round; stroke-linejoin:round;">
</svg:g>
<svg:g style="fill:#FFFFFF; fill-opacity:1.0;  stroke:#FFFFFF; stroke-width:1.000000; stroke-opacity:1;  stroke-linecap:round; stroke-linejoin:round;">
<svg:circle cx="51075000.000000" cy="51250000.000000" r="100000.000000"/> 
</svg:g>
<svg:g style="fill:#FFFFFF; fill-opacity:1.0;  stroke:#FFFFFF; stroke-width:21200.000000; stroke-opacity:1;  stroke-linecap:round; stroke-linejoin:round;">
</svg:g>
<svg:g style="fill:#FFFFFF; fill-opacity:1.0;  stroke:#FFFFFF; stroke-width:1.000000; stroke-opacity:1;  stroke-linecap:round; stroke-linejoin:round;">
<svg:circle cx="50000000.000000" cy="51250000.000000" r="100000.000000"/> 
</svg:g>
<svg:g style="fill:#FFFFFF; fill-opacity:1.0;  stroke:#FFFFFF; stroke-width:21200.000000; stroke-opacity:1;  stroke-linecap:round; stroke-linejoin:round;">
</svg:g>
<svg:g style="fill:#FFFFFF; fill-opacity:1.0;  stroke:#FFFFFF; stroke-width:1.000000; stroke-opacity:1;  stroke-linecap:round; stroke-linejoin:round;">
<svg:circle cx="48925000.000000" cy="50000000.000000" r="100000.000000"/> 
</svg:g>
<svg:g style="fill:#FFFFFF; fill-opacity:1.0;  stroke:#FFFFFF; stroke-width:21200.000000; stroke-opacity:1;  stroke-linecap:round; stroke-linejoin:round;">
</svg:g>
<svg:g style="fill:#FFFFFF; fill-opacity:1.0;  stroke:#FFFFFF; stroke-width:1.000000; stroke-opacity:1;  stroke-linecap:round; stroke-linejoin:round;">
<svg:circle cx="50000000.000000" cy="50000000.000000" r="100000.000000"/> 
</svg:g>
<svg:g style="fill:#FFFFFF; fill-opacity:1.0;  stroke:#FFFFFF; stroke-width:21200.000000; stroke-opacity:1;  stroke-linecap:round; stroke-linejoin:round;">
</svg:g>
<svg:g style="fill:#FFFFFF; fill-opacity:1.0;  stroke:#FFFFFF; stroke-width:1.000000; stroke-opacity:1;  stroke-linecap:round; stroke-linejoin:round;">
<svg:circle cx="51075000.000000" cy="48750000.000000" r="100000.000000"/> 
</svg:g>
<svg:g style="fill:#FFFFFF; fill-opacity:1.0;  stroke:#FFFFFF; stroke-width:21200.000000; stroke-opacity:1;  stroke-linecap:round; stroke-linejoin:round;">
</svg:g>
<svg:g style="fill:#000000; fill-opacity:1.0;  stroke:#000000; stroke-width:21200.000000; stroke-opacity:1;  stroke-linecap:round; stroke-linejoin:round;">
<svg:g>
</svg:g>
<svg:g>
</svg:g>
<svg:g>
</svg:g>
<svg:g>
</svg:g>
</svg:g> 
</svg:g></svg>
