<?xml version='1.0' encoding='ASCII' standalone='yes'?>
<svg xmlns:svg="http://www.w3.org/2000/svg" xmlns="http://www.w3.org/2000/svg" xmlns:xlink="http://www.w3.org/1999/xlink" version="1.1" width="9.999980cm" height="9.999980cm" viewBox="0 0 99999800 99999800">
<title>SVG Picture created as kicadBoard-B_Cu.svg date 2022/12/05 12:44:27 </title>
  <desc>Picture generated by PCBNEW </desc>
<g style="fill:#000000; fill-opacity:1.000000;stroke:#000000; stroke-opacity:1.000000; stroke-linecap:round; stroke-linejoin:round;" transform="translate(0 0) scale(1 1)">
</g>
<g style="fill:#000000; fill-opacity:0.0;  stroke:#000000; stroke-width:0.000000; stroke-opacity:1;  stroke-linecap:round; stroke-linejoin:round;">
<g>
</g>
<g>
</g>
<g>
</g>
<g>
</g>
</g>
<g style="fill:#FFFFFF; fill-opacity:0.0;  stroke:#FFFFFF; stroke-width:0.000000; stroke-opacity:1;  stroke-linecap:round; stroke-linejoin:round;">
</g>
<g style="fill:#000000; fill-opacity:0.0;  stroke:#000000; stroke-width:0.000000; stroke-opacity:1;  stroke-linecap:round; stroke-linejoin:round;">
<g>
</g>
<g>
</g>
<g>
</g>
<g>
</g>
</g> 
<svg:g><svg:title>SVG Picture created as kicadBoard-B_Adhesive.svg date 2022/12/05 12:44:27 </svg:title>
  <svg:desc>Picture generated by PCBNEW </svg:desc>
<svg:g style="fill:#000000; fill-opacity:1.000000;stroke:#000000; stroke-opacity:1.000000; stroke-linecap:round; stroke-linejoin:round;" transform="translate(0 0) scale(1 1)">
</svg:g>
<svg:g style="fill:#000000; fill-opacity:0.0;  stroke:#000000; stroke-width:0.000000; stroke-opacity:1;  stroke-linecap:round; stroke-linejoin:round;">
<svg:g>
</svg:g>
<svg:g>
</svg:g>
<svg:g>
</svg:g>
<svg:g>
</svg:g>
</svg:g>
<svg:g style="fill:#000000; fill-opacity:0.0;  stroke:#000000; stroke-width:0.000000; stroke-opacity:1;  stroke-linecap:round; stroke-linejoin:round;">
<svg:g>
</svg:g>
<svg:g>
</svg:g>
<svg:g>
</svg:g>
<svg:g>
</svg:g>
</svg:g> 
</svg:g><svg:g><svg:title>SVG Picture created as kicadBoard-B_Courtyard.svg date 2022/12/05 12:44:27 </svg:title>
  <svg:desc>Picture generated by PCBNEW </svg:desc>
<svg:g style="fill:#000000; fill-opacity:1.000000;stroke:#000000; stroke-opacity:1.000000; stroke-linecap:round; stroke-linejoin:round;" transform="translate(0 0) scale(1 1)">
</svg:g>
<svg:g style="fill:#000000; fill-opacity:0.0;  stroke:#000000; stroke-width:0.000000; stroke-opacity:1;  stroke-linecap:round; stroke-linejoin:round;">
<svg:g>
</svg:g>
<svg:g>
</svg:g>
<svg:g>
</svg:g>
<svg:g>
</svg:g>
</svg:g>
<svg:g style="fill:#000000; fill-opacity:0.0;  stroke:#000000; stroke-width:0.000000; stroke-opacity:1;  stroke-linecap:round; stroke-linejoin:round;">
<svg:g>
</svg:g>
<svg:g>
</svg:g>
<svg:g>
</svg:g>
<svg:g>
</svg:g>
</svg:g> 
</svg:g><svg:g><svg:title>SVG Picture created as kicadBoard-B_Fab.svg date 2022/12/05 12:44:27 </svg:title>
  <svg:desc>Picture generated by PCBNEW </svg:desc>
<svg:g style="fill:#000000; fill-opacity:1.000000;stroke:#000000; stroke-opacity:1.000000; stroke-linecap:round; stroke-linejoin:round;" transform="translate(0 0) scale(1 1)">
</svg:g>
<svg:g style="fill:#000000; fill-opacity:0.0;  stroke:#000000; stroke-width:0.000000; stroke-opacity:1;  stroke-linecap:round; stroke-linejoin:round;">
<svg:g>
</svg:g>
<svg:g>
</svg:g>
<svg:g>
</svg:g>
<svg:g>
</svg:g>
</svg:g>
<svg:g style="fill:#000000; fill-opacity:0.0;  stroke:#000000; stroke-width:0.000000; stroke-opacity:1;  stroke-linecap:round; stroke-linejoin:round;">
<svg:g>
</svg:g>
<svg:g>
</svg:g>
<svg:g>
</svg:g>
<svg:g>
</svg:g>
</svg:g> 
</svg:g><svg:g><svg:title>SVG Picture created as kicadBoard-B_Mask.svg date 2022/12/05 12:44:27 </svg:title>
  <svg:desc>Picture generated by PCBNEW </svg:desc>
<svg:g style="fill:#000000; fill-opacity:1.000000;stroke:#000000; stroke-opacity:1.000000; stroke-linecap:round; stroke-linejoin:round;" transform="translate(0 0) scale(1 1)">
</svg:g>
<svg:g style="fill:#000000; fill-opacity:0.0;  stroke:#000000; stroke-width:0.000000; stroke-opacity:1;  stroke-linecap:round; stroke-linejoin:round;">
<svg:g>
</svg:g>
<svg:g>
</svg:g>
<svg:g>
</svg:g>
<svg:g>
</svg:g>
</svg:g>
<svg:g style="fill:#000000; fill-opacity:0.0;  stroke:#000000; stroke-width:0.000000; stroke-opacity:1;  stroke-linecap:round; stroke-linejoin:round;">
<svg:g>
</svg:g>
<svg:g>
</svg:g>
<svg:g>
</svg:g>
<svg:g>
</svg:g>
</svg:g> 
</svg:g><svg:g><svg:title>SVG Picture created as kicadBoard-B_Paste.svg date 2022/12/05 12:44:27 </svg:title>
  <svg:desc>Picture generated by PCBNEW </svg:desc>
<svg:g style="fill:#000000; fill-opacity:1.000000;stroke:#000000; stroke-opacity:1.000000; stroke-linecap:round; stroke-linejoin:round;" transform="translate(0 0) scale(1 1)">
</svg:g>
<svg:g style="fill:#000000; fill-opacity:0.0;  stroke:#000000; stroke-width:0.000000; stroke-opacity:1;  stroke-linecap:round; stroke-linejoin:round;">
<svg:g>
</svg:g>
<svg:g>
</svg:g>
<svg:g>
</svg:g>
<svg:g>
</svg:g>
</svg:g>
<svg:g style="fill:#000000; fill-opacity:0.0;  stroke:#000000; stroke-width:0.000000; stroke-opacity:1;  stroke-linecap:round; stroke-linejoin:round;">
<svg:g>
</svg:g>
<svg:g>
</svg:g>
<svg:g>
</svg:g>
<svg:g>
</svg:g>
</svg:g> 
</svg:g><svg:g><svg:title>SVG Picture created as kicadBoard-B_Silkscreen.svg date 2022/12/05 12:44:27 </svg:title>
  <svg:desc>Picture generated by PCBNEW </svg:desc>
<svg:g style="fill:#000000; fill-opacity:1.000000;stroke:#000000; stroke-opacity:1.000000; stroke-linecap:round; stroke-linejoin:round;" transform="translate(0 0) scale(1 1)">
</svg:g>
<svg:g style="fill:#000000; fill-opacity:0.0;  stroke:#000000; stroke-width:0.000000; stroke-opacity:1;  stroke-linecap:round; stroke-linejoin:round;">
<svg:g>
</svg:g>
<svg:g>
</svg:g>
<svg:g>
</svg:g>
<svg:g>
</svg:g>
</svg:g>
<svg:g style="fill:#000000; fill-opacity:0.0;  stroke:#000000; stroke-width:0.000000; stroke-opacity:1;  stroke-linecap:round; stroke-linejoin:round;">
<svg:g>
</svg:g>
<svg:g>
</svg:g>
<svg:g>
</svg:g>
<svg:g>
</svg:g>
</svg:g> 
</svg:g><svg:g><svg:title>SVG Picture created as kicadBoard-Edge_Cuts.svg date 2022/12/05 12:44:27 </svg:title>
  <svg:desc>Picture generated by PCBNEW </svg:desc>
<svg:g style="fill:#000000; fill-opacity:1.000000;stroke:#000000; stroke-opacity:1.000000; stroke-linecap:round; stroke-linejoin:round;" transform="translate(0 0) scale(1 1)">
</svg:g>
<svg:g style="fill:#000000; fill-opacity:0.0;  stroke:#000000; stroke-width:0.000000; stroke-opacity:1;  stroke-linecap:round; stroke-linejoin:round;">
<svg:g>
</svg:g>
<svg:g>
</svg:g>
<svg:g>
</svg:g>
<svg:g>
</svg:g>
</svg:g> 
</svg:g><svg:g><svg:title>SVG Picture created as kicadBoard-F_Adhesive.svg date 2022/12/05 12:44:27 </svg:title>
  <svg:desc>Picture generated by PCBNEW </svg:desc>
<svg:g style="fill:#000000; fill-opacity:1.000000;stroke:#000000; stroke-opacity:1.000000; stroke-linecap:round; stroke-linejoin:round;" transform="translate(0 0) scale(1 1)">
</svg:g>
<svg:g style="fill:#000000; fill-opacity:0.0;  stroke:#000000; stroke-width:0.000000; stroke-opacity:1;  stroke-linecap:round; stroke-linejoin:round;">
<svg:g>
</svg:g>
<svg:g>
</svg:g>
<svg:g>
</svg:g>
<svg:g>
</svg:g>
</svg:g>
<svg:g style="fill:#000000; fill-opacity:0.0;  stroke:#000000; stroke-width:0.000000; stroke-opacity:1;  stroke-linecap:round; stroke-linejoin:round;">
<svg:g>
</svg:g>
<svg:g>
</svg:g>
<svg:g>
</svg:g>
<svg:g>
</svg:g>
</svg:g> 
</svg:g><svg:g><svg:title>SVG Picture created as kicadBoard-F_Courtyard.svg date 2022/12/05 12:44:27 </svg:title>
  <svg:desc>Picture generated by PCBNEW </svg:desc>
<svg:g style="fill:#000000; fill-opacity:1.000000;stroke:#000000; stroke-opacity:1.000000; stroke-linecap:round; stroke-linejoin:round;" transform="translate(0 0) scale(1 1)">
</svg:g>
<svg:g style="fill:#000000; fill-opacity:0.0;  stroke:#000000; stroke-width:0.000000; stroke-opacity:1;  stroke-linecap:round; stroke-linejoin:round;">
<svg:g>
</svg:g>
<svg:g>
</svg:g>
<svg:g>
</svg:g>
<svg:g>
</svg:g>
</svg:g>
<svg:g style="fill:#000000; fill-opacity:0.0;  stroke:#000000; stroke-width:0.000000; stroke-opacity:1;  stroke-linecap:round; stroke-linejoin:round;">
<svg:g>
</svg:g>
<svg:g>
</svg:g>
<svg:g>
</svg:g>
<svg:g>
</svg:g>
</svg:g> 
</svg:g><svg:g><svg:title>SVG Picture created as kicadBoard-F_Cu.svg date 2022/12/05 12:44:27 </svg:title>
  <svg:desc>Picture generated by PCBNEW </svg:desc>
<svg:g style="fill:#000000; fill-opacity:1.000000;stroke:#000000; stroke-opacity:1.000000; stroke-linecap:round; stroke-linejoin:round;" transform="translate(0 0) scale(1 1)">
</svg:g>
<svg:g style="fill:#000000; fill-opacity:0.0;  stroke:#000000; stroke-width:0.000000; stroke-opacity:1;  stroke-linecap:round; stroke-linejoin:round;">
</svg:g>
<svg:g style="fill:#C83434; fill-opacity:0.0;  stroke:#C83434; stroke-width:0.000000; stroke-opacity:1;  stroke-linecap:round; stroke-linejoin:round;">
</svg:g>
<svg:g style="fill:#C83434; fill-opacity:1.0;  stroke:#C83434; stroke-width:1.000000; stroke-opacity:1;  stroke-linecap:round; stroke-linejoin:round;">
<svg:path style="fill:#C83434; fill-opacity:1.0;  stroke:#C83434; stroke-width:1.000000; stroke-opacity:1;  stroke-linecap:round; stroke-linejoin:round;fill-rule:evenodd;" d="M 55800000.000000,51050000.000000 54500000.000000,51050000.000000 54500000.000000,50200000.000000 55800000.000000,50200000.000000 Z"/> 
<svg:path style="fill:#C83434; fill-opacity:1.0;  stroke:#C83434; stroke-width:1.000000; stroke-opacity:1;  stroke-linecap:round; stroke-linejoin:round;fill-rule:evenodd;" d="M 56900000.000000,50200000.000000 54500000.000000,50200000.000000 54500000.000000,48000000.000000 56900000.000000,48000000.000000 Z"/> 
<svg:path style="fill:#C83434; fill-opacity:1.0;  stroke:#C83434; stroke-width:1.000000; stroke-opacity:1;  stroke-linecap:round; stroke-linejoin:round;fill-rule:evenodd;" d="M 45500000.000000,51050000.000000 44200000.000000,51050000.000000 44200000.000000,50200000.000000 45500000.000000,50200000.000000 Z"/> 
<svg:path style="fill:#C83434; fill-opacity:1.0;  stroke:#C83434; stroke-width:1.000000; stroke-opacity:1;  stroke-linecap:round; stroke-linejoin:round;fill-rule:evenodd;" d="M 45500000.000000,50200000.000000 43100000.000000,50200000.000000 43100000.000000,48000000.000000 45500000.000000,48000000.000000 Z"/> 
<svg:g>
<svg:path style="fill:#C83434; fill-opacity:1.0;  stroke:#C83434; stroke-width:1.000000; stroke-opacity:1;  stroke-linecap:round; stroke-linejoin:round;fill-rule:evenodd;" d="M 46600001.000000,47899999.000000 46600001.000000,47100001.000000 46899999.000000,47100001.000000 46899999.000000,47899999.000000 Z"/> 
<svg:path style="fill:#C83434; fill-opacity:1.0;  stroke:#C83434; stroke-width:1.000000; stroke-opacity:1;  stroke-linecap:round; stroke-linejoin:round;fill-rule:evenodd;" d="M 47100001.000000,47899999.000000 47100001.000000,47100001.000000 47399999.000000,47100001.000000 47399999.000000,47899999.000000 Z"/> 
<svg:path style="fill:#C83434; fill-opacity:1.0;  stroke:#C83434; stroke-width:1.000000; stroke-opacity:1;  stroke-linecap:round; stroke-linejoin:round;fill-rule:evenodd;" d="M 47600001.000000,47899999.000000 47600001.000000,47100001.000000 47899999.000000,47100001.000000 47899999.000000,47899999.000000 Z"/> 
<svg:path style="fill:#C83434; fill-opacity:1.0;  stroke:#C83434; stroke-width:1.000000; stroke-opacity:1;  stroke-linecap:round; stroke-linejoin:round;fill-rule:evenodd;" d="M 48100001.000000,47899999.000000 48100001.000000,47100001.000000 48399999.000000,47100001.000000 48399999.000000,47899999.000000 Z"/> 
<svg:path style="fill:#C83434; fill-opacity:1.0;  stroke:#C83434; stroke-width:1.000000; stroke-opacity:1;  stroke-linecap:round; stroke-linejoin:round;fill-rule:evenodd;" d="M 48600001.000000,47899999.000000 48600001.000000,47100001.000000 48899999.000000,47100001.000000 48899999.000000,47899999.000000 Z"/> 
<svg:path style="fill:#C83434; fill-opacity:1.0;  stroke:#C83434; stroke-width:1.000000; stroke-opacity:1;  stroke-linecap:round; stroke-linejoin:round;fill-rule:evenodd;" d="M 49100001.000000,47899999.000000 49100001.000000,47100001.000000 49399999.000000,47100001.000000 49399999.000000,47899999.000000 Z"/> 
<svg:path style="fill:#C83434; fill-opacity:1.0;  stroke:#C83434; stroke-width:1.000000; stroke-opacity:1;  stroke-linecap:round; stroke-linejoin:round;fill-rule:evenodd;" d="M 49600001.000000,47899999.000000 49600001.000000,47100001.000000 49899999.000000,47100001.000000 49899999.000000,47899999.000000 Z"/> 
<svg:path style="fill:#C83434; fill-opacity:1.0;  stroke:#C83434; stroke-width:1.000000; stroke-opacity:1;  stroke-linecap:round; stroke-linejoin:round;fill-rule:evenodd;" d="M 50100001.000000,47899999.000000 50100001.000000,47100001.000000 50399999.000000,47100001.000000 50399999.000000,47899999.000000 Z"/> 
<svg:path style="fill:#C83434; fill-opacity:1.0;  stroke:#C83434; stroke-width:1.000000; stroke-opacity:1;  stroke-linecap:round; stroke-linejoin:round;fill-rule:evenodd;" d="M 50600001.000000,47899999.000000 50600001.000000,47100001.000000 50899999.000000,47100001.000000 50899999.000000,47899999.000000 Z"/> 
<svg:path style="fill:#C83434; fill-opacity:1.0;  stroke:#C83434; stroke-width:1.000000; stroke-opacity:1;  stroke-linecap:round; stroke-linejoin:round;fill-rule:evenodd;" d="M 51100001.000000,47899999.000000 51100001.000000,47100001.000000 51399999.000000,47100001.000000 51399999.000000,47899999.000000 Z"/> 
<svg:path style="fill:#C83434; fill-opacity:1.0;  stroke:#C83434; stroke-width:1.000000; stroke-opacity:1;  stroke-linecap:round; stroke-linejoin:round;fill-rule:evenodd;" d="M 51600001.000000,47899999.000000 51600001.000000,47100001.000000 51899999.000000,47100001.000000 51899999.000000,47899999.000000 Z"/> 
<svg:path style="fill:#C83434; fill-opacity:1.0;  stroke:#C83434; stroke-width:1.000000; stroke-opacity:1;  stroke-linecap:round; stroke-linejoin:round;fill-rule:evenodd;" d="M 52100001.000000,47899999.000000 52100001.000000,47100001.000000 52399999.000000,47100001.000000 52399999.000000,47899999.000000 Z"/> 
<svg:path style="fill:#C83434; fill-opacity:1.0;  stroke:#C83434; stroke-width:1.000000; stroke-opacity:1;  stroke-linecap:round; stroke-linejoin:round;fill-rule:evenodd;" d="M 52600001.000000,47899999.000000 52600001.000000,47100001.000000 52899999.000000,47100001.000000 52899999.000000,47899999.000000 Z"/> 
<svg:path style="fill:#C83434; fill-opacity:1.0;  stroke:#C83434; stroke-width:1.000000; stroke-opacity:1;  stroke-linecap:round; stroke-linejoin:round;fill-rule:evenodd;" d="M 53100001.000000,47899999.000000 53100001.000000,47100001.000000 53399999.000000,47100001.000000 53399999.000000,47899999.000000 Z"/> 
</svg:g>
<svg:g>
</svg:g>
<svg:g>
</svg:g>
<svg:g>
</svg:g>
</svg:g>
<svg:g style="fill:#FFFFFF; fill-opacity:1.0;  stroke:#FFFFFF; stroke-width:1.000000; stroke-opacity:1;  stroke-linecap:round; stroke-linejoin:round;">
</svg:g>
<svg:g style="fill:#000000; fill-opacity:1.0;  stroke:#000000; stroke-width:1.000000; stroke-opacity:1;  stroke-linecap:round; stroke-linejoin:round;">
<svg:g>
</svg:g>
<svg:g>
</svg:g>
<svg:g>
</svg:g>
<svg:g>
</svg:g>
</svg:g> 
</svg:g><svg:g><svg:title>SVG Picture created as kicadBoard-F_Fab.svg date 2022/12/05 12:44:27 </svg:title>
  <svg:desc>Picture generated by PCBNEW </svg:desc>
<svg:g style="fill:#000000; fill-opacity:1.000000;stroke:#000000; stroke-opacity:1.000000; stroke-linecap:round; stroke-linejoin:round;" transform="translate(0 0) scale(1 1)">
</svg:g>
<svg:g style="fill:#000000; fill-opacity:0.0;  stroke:#000000; stroke-width:0.000000; stroke-opacity:1;  stroke-linecap:round; stroke-linejoin:round;">
</svg:g>
<svg:g style="fill:#AFAFAF; fill-opacity:0.0;  stroke:#AFAFAF; stroke-width:0.000000; stroke-opacity:1;  stroke-linecap:round; stroke-linejoin:round;">
</svg:g>
<svg:g style="fill:#AFAFAF; fill-opacity:0.0;  stroke:#AFAFAF; stroke-width:101600.000000; stroke-opacity:1;  stroke-linecap:round; stroke-linejoin:round;">
<svg:text x="43420000.000000" y="55620000.000000" textLength="6808651.000000" font-size="1557866.000000" lengthAdjust="spacingAndGlyphs" text-anchor="start" opacity="0">&gt;VALUE</svg:text>
<svg:g class="stroked-text"><svg:desc>&gt;VALUE</svg:desc>
<svg:path d="M43764230 54785428 L44654440 55119257 L43764230 55453085 "/>
<svg:path d="M45043906 54395961 L45433373 55564361 L45822840 54395961 "/>
<svg:path d="M46156668 55230533 L46713049 55230533 "/>
<svg:path d="M46045392 55564361 L46434859 54395961 L46824325 55564361 "/>
<svg:path d="M47770173 55564361 L47213792 55564361 L47213792 54395961 "/>
<svg:path d="M48159640 54395961 L48159640 55341809 L48215278 55453085 L48270916 55508723 L48382192 55564361 L48604744 55564361 L48716020 55508723 L48771659 55453085 L48827297 55341809 L48827297 54395961 "/>
<svg:path d="M49383678 54952342 L49773144 54952342 "/>
<svg:path d="M49940059 55564361 L49383678 55564361 L49383678 54395961 L49940059 54395961 "/>
</svg:g><svg:path d="M55850000 48350000 L56450000 48350000 "/>
</svg:g>
<svg:g style="fill:#AFAFAF; fill-opacity:0.0;  stroke:#AFAFAF; stroke-width:203200.000000; stroke-opacity:1;  stroke-linecap:round; stroke-linejoin:round;">
<svg:path d="M55550000 48100000 L55550000 51400000 "/>
</svg:g>
<svg:g style="fill:#AFAFAF; fill-opacity:0.0;  stroke:#AFAFAF; stroke-width:101600.000000; stroke-opacity:1;  stroke-linecap:round; stroke-linejoin:round;">
<svg:path d="M55700000 48050000 L55850000 48050000 "/>
<svg:path d="M44150000 48350000 L43550000 48350000 "/>
<svg:path d="M44300000 48050000 L44150000 48050000 "/>
<svg:path d="M56450000 49300000 L55700000 49300000 "/>
<svg:path d="M55850000 49050000 L55900000 49100000 "/>
<svg:path d="M55700000 49300000 L55700000 48100000 "/>
<svg:path d="M56450000 49100000 L56450000 49300000 "/>
<svg:path d="M44150000 48550000 L44150000 49050000 "/>
<svg:path d="M43550000 48550000 L44150000 48550000 "/>
<svg:path d="M44100000 49100000 L43550000 49100000 "/>
<svg:path d="M44300000 49300000 L44300000 48100000 "/>
<svg:path d="M55900000 49100000 L56450000 49100000 "/>
<svg:path d="M44150000 49050000 L44100000 49100000 "/>
<svg:path d="M56450000 48350000 L56450000 48550000 "/>
<svg:path d="M44150000 48050000 L44150000 48350000 "/>
<svg:path d="M55850000 48050000 L55850000 48350000 "/>
</svg:g>
<svg:g style="fill:#AFAFAF; fill-opacity:0.0;  stroke:#AFAFAF; stroke-width:203200.000000; stroke-opacity:1;  stroke-linecap:round; stroke-linejoin:round;">
<svg:path d="M44450000 51400000 L44450000 48100000 "/>
</svg:g>
<svg:g style="fill:#AFAFAF; fill-opacity:0.0;  stroke:#AFAFAF; stroke-width:101600.000000; stroke-opacity:1;  stroke-linecap:round; stroke-linejoin:round;">
<svg:path d="M55850000 48550000 L55850000 49050000 "/>
<svg:path d="M43550000 49300000 L44300000 49300000 "/>
<svg:path d="M43550000 48350000 L43550000 48550000 "/>
<svg:path d="M56450000 48550000 L55850000 48550000 "/>
</svg:g>
<svg:g style="fill:#AFAFAF; fill-opacity:0.0;  stroke:#AFAFAF; stroke-width:203200.000000; stroke-opacity:1;  stroke-linecap:round; stroke-linejoin:round;">
<svg:path d="M44450000 48100000 L55550000 48100000 "/>
</svg:g>
<svg:g style="fill:#AFAFAF; fill-opacity:0.0;  stroke:#AFAFAF; stroke-width:101600.000000; stroke-opacity:1;  stroke-linecap:round; stroke-linejoin:round;">
<svg:path d="M43550000 49100000 L43550000 49300000 "/>
</svg:g>
<svg:g style="fill:#AFAFAF; fill-opacity:1.0;  stroke:#AFAFAF; stroke-width:1.000000; stroke-opacity:1;  stroke-linecap:round; stroke-linejoin:round;">
<svg:path style="fill:#AFAFAF; fill-opacity:1.0;  stroke:#AFAFAF; stroke-width:1.000000; stroke-opacity:1;  stroke-linecap:round; stroke-linejoin:round;fill-rule:evenodd;" d="M 50350000.000000,48000000.000000 50150000.000000,48000000.000000 50150000.000000,47300000.000000 50350000.000000,47300000.000000 Z"/> 
<svg:path style="fill:#AFAFAF; fill-opacity:1.0;  stroke:#AFAFAF; stroke-width:1.000000; stroke-opacity:1;  stroke-linecap:round; stroke-linejoin:round;fill-rule:evenodd;" d="M 49350000.000000,48000000.000000 49150000.000000,48000000.000000 49150000.000000,47300000.000000 49350000.000000,47300000.000000 Z"/> 
<svg:path style="fill:#AFAFAF; fill-opacity:1.0;  stroke:#AFAFAF; stroke-width:1.000000; stroke-opacity:1;  stroke-linecap:round; stroke-linejoin:round;fill-rule:evenodd;" d="M 50850000.000000,48000000.000000 50650000.000000,48000000.000000 50650000.000000,47300000.000000 50850000.000000,47300000.000000 Z"/> 
<svg:path style="fill:#AFAFAF; fill-opacity:1.0;  stroke:#AFAFAF; stroke-width:1.000000; stroke-opacity:1;  stroke-linecap:round; stroke-linejoin:round;fill-rule:evenodd;" d="M 49850000.000000,48000000.000000 49650000.000000,48000000.000000 49650000.000000,47300000.000000 49850000.000000,47300000.000000 Z"/> 
<svg:path style="fill:#AFAFAF; fill-opacity:1.0;  stroke:#AFAFAF; stroke-width:1.000000; stroke-opacity:1;  stroke-linecap:round; stroke-linejoin:round;fill-rule:evenodd;" d="M 51350000.000000,48000000.000000 51150000.000000,48000000.000000 51150000.000000,47300000.000000 51350000.000000,47300000.000000 Z"/> 
<svg:path style="fill:#AFAFAF; fill-opacity:1.0;  stroke:#AFAFAF; stroke-width:1.000000; stroke-opacity:1;  stroke-linecap:round; stroke-linejoin:round;fill-rule:evenodd;" d="M 51850000.000000,48000000.000000 51650000.000000,48000000.000000 51650000.000000,47300000.000000 51850000.000000,47300000.000000 Z"/> 
<svg:path style="fill:#AFAFAF; fill-opacity:1.0;  stroke:#AFAFAF; stroke-width:1.000000; stroke-opacity:1;  stroke-linecap:round; stroke-linejoin:round;fill-rule:evenodd;" d="M 52350000.000000,48000000.000000 52150000.000000,48000000.000000 52150000.000000,47300000.000000 52350000.000000,47300000.000000 Z"/> 
<svg:path style="fill:#AFAFAF; fill-opacity:1.0;  stroke:#AFAFAF; stroke-width:1.000000; stroke-opacity:1;  stroke-linecap:round; stroke-linejoin:round;fill-rule:evenodd;" d="M 48850000.000000,48000000.000000 48650000.000000,48000000.000000 48650000.000000,47300000.000000 48850000.000000,47300000.000000 Z"/> 
<svg:path style="fill:#AFAFAF; fill-opacity:1.0;  stroke:#AFAFAF; stroke-width:1.000000; stroke-opacity:1;  stroke-linecap:round; stroke-linejoin:round;fill-rule:evenodd;" d="M 47350000.000000,48000000.000000 47150000.000000,48000000.000000 47150000.000000,47300000.000000 47350000.000000,47300000.000000 Z"/> 
<svg:path style="fill:#AFAFAF; fill-opacity:1.0;  stroke:#AFAFAF; stroke-width:1.000000; stroke-opacity:1;  stroke-linecap:round; stroke-linejoin:round;fill-rule:evenodd;" d="M 48350000.000000,48000000.000000 48150000.000000,48000000.000000 48150000.000000,47300000.000000 48350000.000000,47300000.000000 Z"/> 
<svg:path style="fill:#AFAFAF; fill-opacity:1.0;  stroke:#AFAFAF; stroke-width:1.000000; stroke-opacity:1;  stroke-linecap:round; stroke-linejoin:round;fill-rule:evenodd;" d="M 52850000.000000,48000000.000000 52650000.000000,48000000.000000 52650000.000000,47300000.000000 52850000.000000,47300000.000000 Z"/> 
<svg:path style="fill:#AFAFAF; fill-opacity:1.0;  stroke:#AFAFAF; stroke-width:1.000000; stroke-opacity:1;  stroke-linecap:round; stroke-linejoin:round;fill-rule:evenodd;" d="M 46850000.000000,48000000.000000 46650000.000000,48000000.000000 46650000.000000,47300000.000000 46850000.000000,47300000.000000 Z"/> 
<svg:path style="fill:#AFAFAF; fill-opacity:1.0;  stroke:#AFAFAF; stroke-width:1.000000; stroke-opacity:1;  stroke-linecap:round; stroke-linejoin:round;fill-rule:evenodd;" d="M 47850000.000000,48000000.000000 47650000.000000,48000000.000000 47650000.000000,47300000.000000 47850000.000000,47300000.000000 Z"/> 
<svg:path style="fill:#AFAFAF; fill-opacity:1.0;  stroke:#AFAFAF; stroke-width:1.000000; stroke-opacity:1;  stroke-linecap:round; stroke-linejoin:round;fill-rule:evenodd;" d="M 53350000.000000,48000000.000000 53150000.000000,48000000.000000 53150000.000000,47300000.000000 53350000.000000,47300000.000000 Z"/> 
<svg:g>
</svg:g>
<svg:g>
</svg:g>
<svg:g>
</svg:g>
<svg:g>
</svg:g>
</svg:g>
<svg:g style="fill:#000000; fill-opacity:1.0;  stroke:#000000; stroke-width:1.000000; stroke-opacity:1;  stroke-linecap:round; stroke-linejoin:round;">
<svg:g>
</svg:g>
<svg:g>
</svg:g>
<svg:g>
</svg:g>
<svg:g>
</svg:g>
</svg:g> 
</svg:g><svg:g><svg:title>SVG Picture created as kicadBoard-F_Mask.svg date 2022/12/05 12:44:27 </svg:title>
  <svg:desc>Picture generated by PCBNEW </svg:desc>
<svg:g style="fill:#000000; fill-opacity:1.000000;stroke:#000000; stroke-opacity:1.000000; stroke-linecap:round; stroke-linejoin:round;" transform="translate(0 0) scale(1 1)">
</svg:g>
<svg:g style="fill:#000000; fill-opacity:0.0;  stroke:#000000; stroke-width:0.000000; stroke-opacity:1;  stroke-linecap:round; stroke-linejoin:round;">
</svg:g>
<svg:g style="fill:#D864FF; fill-opacity:0.0;  stroke:#D864FF; stroke-width:0.000000; stroke-opacity:1;  stroke-linecap:round; stroke-linejoin:round;">
</svg:g>
<svg:g style="fill:#D864FF; fill-opacity:1.0;  stroke:#D864FF; stroke-width:1.000000; stroke-opacity:1;  stroke-linecap:round; stroke-linejoin:round;">
<svg:path style="fill:#D864FF; fill-opacity:1.0;  stroke:#D864FF; stroke-width:1.000000; stroke-opacity:1;  stroke-linecap:round; stroke-linejoin:round;fill-rule:evenodd;" d="M 55800000.000000,51050000.000000 54500000.000000,51050000.000000 54500000.000000,48000000.000000 55800000.000000,48000000.000000 Z"/> 
<svg:path style="fill:#D864FF; fill-opacity:1.0;  stroke:#D864FF; stroke-width:1.000000; stroke-opacity:1;  stroke-linecap:round; stroke-linejoin:round;fill-rule:evenodd;" d="M 56900000.000000,50200000.000000 55750000.000000,50200000.000000 55750000.000000,48000000.000000 56900000.000000,48000000.000000 Z"/> 
<svg:path style="fill:#D864FF; fill-opacity:1.0;  stroke:#D864FF; stroke-width:1.000000; stroke-opacity:1;  stroke-linecap:round; stroke-linejoin:round;fill-rule:evenodd;" d="M 44250000.000000,50200000.000000 43100000.000000,50200000.000000 43100000.000000,48000000.000000 44250000.000000,48000000.000000 Z"/> 
<svg:path style="fill:#D864FF; fill-opacity:1.0;  stroke:#D864FF; stroke-width:1.000000; stroke-opacity:1;  stroke-linecap:round; stroke-linejoin:round;fill-rule:evenodd;" d="M 45500000.000000,51050000.000000 44200000.000000,51050000.000000 44200000.000000,48000000.000000 45500000.000000,48000000.000000 Z"/> 
<svg:g>
</svg:g>
<svg:g style="fill:#000000; fill-opacity:1.0;  stroke:#000000; stroke-width:1.000000; stroke-opacity:1;  stroke-linecap:round; stroke-linejoin:round;">
<svg:path style="fill:#000000; fill-opacity:1.0;  stroke:#000000; stroke-width:1.000000; stroke-opacity:1;  stroke-linecap:round; stroke-linejoin:round;fill-rule:evenodd;" d="M 46498400.000000,47100000.000000 46506134.000000,47061119.000000 46528158.000000,47028158.000000 46561119.000000,47006134.000000 46600000.000000,46998400.000000 46900000.000000,46998400.000000 46938881.000000,47006134.000000 46971842.000000,47028158.000000 46993866.000000,47061119.000000 47001600.000000,47100000.000000 47001600.000000,47900000.000000 46993866.000000,47938881.000000 46971842.000000,47971842.000000 46938881.000000,47993866.000000 46900000.000000,48001600.000000 46600000.000000,48001600.000000 46561119.000000,47993866.000000 46528158.000000,47971842.000000 46506134.000000,47938881.000000 46498400.000000,47900000.000000 Z"/> 
<svg:path style="fill:#000000; fill-opacity:1.0;  stroke:#000000; stroke-width:1.000000; stroke-opacity:1;  stroke-linecap:round; stroke-linejoin:round;fill-rule:evenodd;" d="M 46998400.000000,47100000.000000 47006134.000000,47061119.000000 47028158.000000,47028158.000000 47061119.000000,47006134.000000 47100000.000000,46998400.000000 47400000.000000,46998400.000000 47438881.000000,47006134.000000 47471842.000000,47028158.000000 47493866.000000,47061119.000000 47501600.000000,47100000.000000 47501600.000000,47900000.000000 47493866.000000,47938881.000000 47471842.000000,47971842.000000 47438881.000000,47993866.000000 47400000.000000,48001600.000000 47100000.000000,48001600.000000 47061119.000000,47993866.000000 47028158.000000,47971842.000000 47006134.000000,47938881.000000 46998400.000000,47900000.000000 Z"/> 
<svg:path style="fill:#000000; fill-opacity:1.0;  stroke:#000000; stroke-width:1.000000; stroke-opacity:1;  stroke-linecap:round; stroke-linejoin:round;fill-rule:evenodd;" d="M 47498400.000000,47100000.000000 47506134.000000,47061119.000000 47528158.000000,47028158.000000 47561119.000000,47006134.000000 47600000.000000,46998400.000000 47900000.000000,46998400.000000 47938881.000000,47006134.000000 47971842.000000,47028158.000000 47993866.000000,47061119.000000 48001600.000000,47100000.000000 48001600.000000,47900000.000000 47993866.000000,47938881.000000 47971842.000000,47971842.000000 47938881.000000,47993866.000000 47900000.000000,48001600.000000 47600000.000000,48001600.000000 47561119.000000,47993866.000000 47528158.000000,47971842.000000 47506134.000000,47938881.000000 47498400.000000,47900000.000000 Z"/> 
<svg:path style="fill:#000000; fill-opacity:1.0;  stroke:#000000; stroke-width:1.000000; stroke-opacity:1;  stroke-linecap:round; stroke-linejoin:round;fill-rule:evenodd;" d="M 47998400.000000,47100000.000000 48006134.000000,47061119.000000 48028158.000000,47028158.000000 48061119.000000,47006134.000000 48100000.000000,46998400.000000 48400000.000000,46998400.000000 48438881.000000,47006134.000000 48471842.000000,47028158.000000 48493866.000000,47061119.000000 48501600.000000,47100000.000000 48501600.000000,47900000.000000 48493866.000000,47938881.000000 48471842.000000,47971842.000000 48438881.000000,47993866.000000 48400000.000000,48001600.000000 48100000.000000,48001600.000000 48061119.000000,47993866.000000 48028158.000000,47971842.000000 48006134.000000,47938881.000000 47998400.000000,47900000.000000 Z"/> 
<svg:path style="fill:#000000; fill-opacity:1.0;  stroke:#000000; stroke-width:1.000000; stroke-opacity:1;  stroke-linecap:round; stroke-linejoin:round;fill-rule:evenodd;" d="M 48498400.000000,47100000.000000 48506134.000000,47061119.000000 48528158.000000,47028158.000000 48561119.000000,47006134.000000 48600000.000000,46998400.000000 48900000.000000,46998400.000000 48938881.000000,47006134.000000 48971842.000000,47028158.000000 48993866.000000,47061119.000000 49001600.000000,47100000.000000 49001600.000000,47900000.000000 48993866.000000,47938881.000000 48971842.000000,47971842.000000 48938881.000000,47993866.000000 48900000.000000,48001600.000000 48600000.000000,48001600.000000 48561119.000000,47993866.000000 48528158.000000,47971842.000000 48506134.000000,47938881.000000 48498400.000000,47900000.000000 Z"/> 
<svg:path style="fill:#000000; fill-opacity:1.0;  stroke:#000000; stroke-width:1.000000; stroke-opacity:1;  stroke-linecap:round; stroke-linejoin:round;fill-rule:evenodd;" d="M 48998400.000000,47100000.000000 49006134.000000,47061119.000000 49028158.000000,47028158.000000 49061119.000000,47006134.000000 49100000.000000,46998400.000000 49400000.000000,46998400.000000 49438881.000000,47006134.000000 49471842.000000,47028158.000000 49493866.000000,47061119.000000 49501600.000000,47100000.000000 49501600.000000,47900000.000000 49493866.000000,47938881.000000 49471842.000000,47971842.000000 49438881.000000,47993866.000000 49400000.000000,48001600.000000 49100000.000000,48001600.000000 49061119.000000,47993866.000000 49028158.000000,47971842.000000 49006134.000000,47938881.000000 48998400.000000,47900000.000000 Z"/> 
<svg:path style="fill:#000000; fill-opacity:1.0;  stroke:#000000; stroke-width:1.000000; stroke-opacity:1;  stroke-linecap:round; stroke-linejoin:round;fill-rule:evenodd;" d="M 49498400.000000,47100000.000000 49506134.000000,47061119.000000 49528158.000000,47028158.000000 49561119.000000,47006134.000000 49600000.000000,46998400.000000 49900000.000000,46998400.000000 49938881.000000,47006134.000000 49971842.000000,47028158.000000 49993866.000000,47061119.000000 50001600.000000,47100000.000000 50001600.000000,47900000.000000 49993866.000000,47938881.000000 49971842.000000,47971842.000000 49938881.000000,47993866.000000 49900000.000000,48001600.000000 49600000.000000,48001600.000000 49561119.000000,47993866.000000 49528158.000000,47971842.000000 49506134.000000,47938881.000000 49498400.000000,47900000.000000 Z"/> 
<svg:path style="fill:#000000; fill-opacity:1.0;  stroke:#000000; stroke-width:1.000000; stroke-opacity:1;  stroke-linecap:round; stroke-linejoin:round;fill-rule:evenodd;" d="M 49998400.000000,47100000.000000 50006134.000000,47061119.000000 50028158.000000,47028158.000000 50061119.000000,47006134.000000 50100000.000000,46998400.000000 50400000.000000,46998400.000000 50438881.000000,47006134.000000 50471842.000000,47028158.000000 50493866.000000,47061119.000000 50501600.000000,47100000.000000 50501600.000000,47900000.000000 50493866.000000,47938881.000000 50471842.000000,47971842.000000 50438881.000000,47993866.000000 50400000.000000,48001600.000000 50100000.000000,48001600.000000 50061119.000000,47993866.000000 50028158.000000,47971842.000000 50006134.000000,47938881.000000 49998400.000000,47900000.000000 Z"/> 
<svg:path style="fill:#000000; fill-opacity:1.0;  stroke:#000000; stroke-width:1.000000; stroke-opacity:1;  stroke-linecap:round; stroke-linejoin:round;fill-rule:evenodd;" d="M 50498400.000000,47100000.000000 50506134.000000,47061119.000000 50528158.000000,47028158.000000 50561119.000000,47006134.000000 50600000.000000,46998400.000000 50900000.000000,46998400.000000 50938881.000000,47006134.000000 50971842.000000,47028158.000000 50993866.000000,47061119.000000 51001600.000000,47100000.000000 51001600.000000,47900000.000000 50993866.000000,47938881.000000 50971842.000000,47971842.000000 50938881.000000,47993866.000000 50900000.000000,48001600.000000 50600000.000000,48001600.000000 50561119.000000,47993866.000000 50528158.000000,47971842.000000 50506134.000000,47938881.000000 50498400.000000,47900000.000000 Z"/> 
<svg:path style="fill:#000000; fill-opacity:1.0;  stroke:#000000; stroke-width:1.000000; stroke-opacity:1;  stroke-linecap:round; stroke-linejoin:round;fill-rule:evenodd;" d="M 50998400.000000,47100000.000000 51006134.000000,47061119.000000 51028158.000000,47028158.000000 51061119.000000,47006134.000000 51100000.000000,46998400.000000 51400000.000000,46998400.000000 51438881.000000,47006134.000000 51471842.000000,47028158.000000 51493866.000000,47061119.000000 51501600.000000,47100000.000000 51501600.000000,47900000.000000 51493866.000000,47938881.000000 51471842.000000,47971842.000000 51438881.000000,47993866.000000 51400000.000000,48001600.000000 51100000.000000,48001600.000000 51061119.000000,47993866.000000 51028158.000000,47971842.000000 51006134.000000,47938881.000000 50998400.000000,47900000.000000 Z"/> 
<svg:path style="fill:#000000; fill-opacity:1.0;  stroke:#000000; stroke-width:1.000000; stroke-opacity:1;  stroke-linecap:round; stroke-linejoin:round;fill-rule:evenodd;" d="M 51498400.000000,47100000.000000 51506134.000000,47061119.000000 51528158.000000,47028158.000000 51561119.000000,47006134.000000 51600000.000000,46998400.000000 51900000.000000,46998400.000000 51938881.000000,47006134.000000 51971842.000000,47028158.000000 51993866.000000,47061119.000000 52001600.000000,47100000.000000 52001600.000000,47900000.000000 51993866.000000,47938881.000000 51971842.000000,47971842.000000 51938881.000000,47993866.000000 51900000.000000,48001600.000000 51600000.000000,48001600.000000 51561119.000000,47993866.000000 51528158.000000,47971842.000000 51506134.000000,47938881.000000 51498400.000000,47900000.000000 Z"/> 
<svg:path style="fill:#000000; fill-opacity:1.0;  stroke:#000000; stroke-width:1.000000; stroke-opacity:1;  stroke-linecap:round; stroke-linejoin:round;fill-rule:evenodd;" d="M 51998400.000000,47100000.000000 52006134.000000,47061119.000000 52028158.000000,47028158.000000 52061119.000000,47006134.000000 52100000.000000,46998400.000000 52400000.000000,46998400.000000 52438881.000000,47006134.000000 52471842.000000,47028158.000000 52493866.000000,47061119.000000 52501600.000000,47100000.000000 52501600.000000,47900000.000000 52493866.000000,47938881.000000 52471842.000000,47971842.000000 52438881.000000,47993866.000000 52400000.000000,48001600.000000 52100000.000000,48001600.000000 52061119.000000,47993866.000000 52028158.000000,47971842.000000 52006134.000000,47938881.000000 51998400.000000,47900000.000000 Z"/> 
<svg:path style="fill:#000000; fill-opacity:1.0;  stroke:#000000; stroke-width:1.000000; stroke-opacity:1;  stroke-linecap:round; stroke-linejoin:round;fill-rule:evenodd;" d="M 52498400.000000,47100000.000000 52506134.000000,47061119.000000 52528158.000000,47028158.000000 52561119.000000,47006134.000000 52600000.000000,46998400.000000 52900000.000000,46998400.000000 52938881.000000,47006134.000000 52971842.000000,47028158.000000 52993866.000000,47061119.000000 53001600.000000,47100000.000000 53001600.000000,47900000.000000 52993866.000000,47938881.000000 52971842.000000,47971842.000000 52938881.000000,47993866.000000 52900000.000000,48001600.000000 52600000.000000,48001600.000000 52561119.000000,47993866.000000 52528158.000000,47971842.000000 52506134.000000,47938881.000000 52498400.000000,47900000.000000 Z"/> 
<svg:path style="fill:#000000; fill-opacity:1.0;  stroke:#000000; stroke-width:1.000000; stroke-opacity:1;  stroke-linecap:round; stroke-linejoin:round;fill-rule:evenodd;" d="M 52998400.000000,47100000.000000 53006134.000000,47061119.000000 53028158.000000,47028158.000000 53061119.000000,47006134.000000 53100000.000000,46998400.000000 53400000.000000,46998400.000000 53438881.000000,47006134.000000 53471842.000000,47028158.000000 53493866.000000,47061119.000000 53501600.000000,47100000.000000 53501600.000000,47900000.000000 53493866.000000,47938881.000000 53471842.000000,47971842.000000 53438881.000000,47993866.000000 53400000.000000,48001600.000000 53100000.000000,48001600.000000 53061119.000000,47993866.000000 53028158.000000,47971842.000000 53006134.000000,47938881.000000 52998400.000000,47900000.000000 Z"/> 
</svg:g>
<svg:g>
</svg:g>
<svg:g>
</svg:g>
<svg:g>
</svg:g>
</svg:g>
<svg:g style="fill:#000000; fill-opacity:1.0;  stroke:#000000; stroke-width:1.000000; stroke-opacity:1;  stroke-linecap:round; stroke-linejoin:round;">
<svg:g>
</svg:g>
<svg:g>
</svg:g>
<svg:g>
</svg:g>
<svg:g>
</svg:g>
</svg:g> 
</svg:g><svg:g><svg:title>SVG Picture created as kicadBoard-F_Paste.svg date 2022/12/05 12:44:27 </svg:title>
  <svg:desc>Picture generated by PCBNEW </svg:desc>
<svg:g style="fill:#000000; fill-opacity:1.000000;stroke:#000000; stroke-opacity:1.000000; stroke-linecap:round; stroke-linejoin:round;" transform="translate(0 0) scale(1 1)">
</svg:g>
<svg:g style="fill:#000000; fill-opacity:0.0;  stroke:#000000; stroke-width:0.000000; stroke-opacity:1;  stroke-linecap:round; stroke-linejoin:round;">
</svg:g>
<svg:g style="fill:#B4A09A; fill-opacity:0.0;  stroke:#B4A09A; stroke-width:0.000000; stroke-opacity:1;  stroke-linecap:round; stroke-linejoin:round;">
</svg:g>
<svg:g style="fill:#B4A09A; fill-opacity:1.0;  stroke:#B4A09A; stroke-width:1.000000; stroke-opacity:1;  stroke-linecap:round; stroke-linejoin:round;">
<svg:path style="fill:#B4A09A; fill-opacity:1.0;  stroke:#B4A09A; stroke-width:1.000000; stroke-opacity:1;  stroke-linecap:round; stroke-linejoin:round;fill-rule:evenodd;" d="M 45300000.000000,50050000.000000 43300000.000000,50050000.000000 43300000.000000,48150000.000000 45300000.000000,48150000.000000 Z"/> 
<svg:path style="fill:#B4A09A; fill-opacity:1.0;  stroke:#B4A09A; stroke-width:1.000000; stroke-opacity:1;  stroke-linecap:round; stroke-linejoin:round;fill-rule:evenodd;" d="M 56700000.000000,50050000.000000 54700000.000000,50050000.000000 54700000.000000,48150000.000000 56700000.000000,48150000.000000 Z"/> 
<svg:g>
</svg:g>
<svg:g style="fill:#000000; fill-opacity:1.0;  stroke:#000000; stroke-width:1.000000; stroke-opacity:1;  stroke-linecap:round; stroke-linejoin:round;">
<svg:path style="fill:#000000; fill-opacity:1.0;  stroke:#000000; stroke-width:1.000000; stroke-opacity:1;  stroke-linecap:round; stroke-linejoin:round;fill-rule:evenodd;" d="M 46600001.000000,47899999.000000 46600001.000000,47100001.000000 46899999.000000,47100001.000000 46899999.000000,47899999.000000 Z"/> 
<svg:path style="fill:#000000; fill-opacity:1.0;  stroke:#000000; stroke-width:1.000000; stroke-opacity:1;  stroke-linecap:round; stroke-linejoin:round;fill-rule:evenodd;" d="M 47100001.000000,47899999.000000 47100001.000000,47100001.000000 47399999.000000,47100001.000000 47399999.000000,47899999.000000 Z"/> 
<svg:path style="fill:#000000; fill-opacity:1.0;  stroke:#000000; stroke-width:1.000000; stroke-opacity:1;  stroke-linecap:round; stroke-linejoin:round;fill-rule:evenodd;" d="M 47600001.000000,47899999.000000 47600001.000000,47100001.000000 47899999.000000,47100001.000000 47899999.000000,47899999.000000 Z"/> 
<svg:path style="fill:#000000; fill-opacity:1.0;  stroke:#000000; stroke-width:1.000000; stroke-opacity:1;  stroke-linecap:round; stroke-linejoin:round;fill-rule:evenodd;" d="M 48100001.000000,47899999.000000 48100001.000000,47100001.000000 48399999.000000,47100001.000000 48399999.000000,47899999.000000 Z"/> 
<svg:path style="fill:#000000; fill-opacity:1.0;  stroke:#000000; stroke-width:1.000000; stroke-opacity:1;  stroke-linecap:round; stroke-linejoin:round;fill-rule:evenodd;" d="M 48600001.000000,47899999.000000 48600001.000000,47100001.000000 48899999.000000,47100001.000000 48899999.000000,47899999.000000 Z"/> 
<svg:path style="fill:#000000; fill-opacity:1.0;  stroke:#000000; stroke-width:1.000000; stroke-opacity:1;  stroke-linecap:round; stroke-linejoin:round;fill-rule:evenodd;" d="M 49100001.000000,47899999.000000 49100001.000000,47100001.000000 49399999.000000,47100001.000000 49399999.000000,47899999.000000 Z"/> 
<svg:path style="fill:#000000; fill-opacity:1.0;  stroke:#000000; stroke-width:1.000000; stroke-opacity:1;  stroke-linecap:round; stroke-linejoin:round;fill-rule:evenodd;" d="M 49600001.000000,47899999.000000 49600001.000000,47100001.000000 49899999.000000,47100001.000000 49899999.000000,47899999.000000 Z"/> 
<svg:path style="fill:#000000; fill-opacity:1.0;  stroke:#000000; stroke-width:1.000000; stroke-opacity:1;  stroke-linecap:round; stroke-linejoin:round;fill-rule:evenodd;" d="M 50100001.000000,47899999.000000 50100001.000000,47100001.000000 50399999.000000,47100001.000000 50399999.000000,47899999.000000 Z"/> 
<svg:path style="fill:#000000; fill-opacity:1.0;  stroke:#000000; stroke-width:1.000000; stroke-opacity:1;  stroke-linecap:round; stroke-linejoin:round;fill-rule:evenodd;" d="M 50600001.000000,47899999.000000 50600001.000000,47100001.000000 50899999.000000,47100001.000000 50899999.000000,47899999.000000 Z"/> 
<svg:path style="fill:#000000; fill-opacity:1.0;  stroke:#000000; stroke-width:1.000000; stroke-opacity:1;  stroke-linecap:round; stroke-linejoin:round;fill-rule:evenodd;" d="M 51100001.000000,47899999.000000 51100001.000000,47100001.000000 51399999.000000,47100001.000000 51399999.000000,47899999.000000 Z"/> 
<svg:path style="fill:#000000; fill-opacity:1.0;  stroke:#000000; stroke-width:1.000000; stroke-opacity:1;  stroke-linecap:round; stroke-linejoin:round;fill-rule:evenodd;" d="M 51600001.000000,47899999.000000 51600001.000000,47100001.000000 51899999.000000,47100001.000000 51899999.000000,47899999.000000 Z"/> 
<svg:path style="fill:#000000; fill-opacity:1.0;  stroke:#000000; stroke-width:1.000000; stroke-opacity:1;  stroke-linecap:round; stroke-linejoin:round;fill-rule:evenodd;" d="M 52100001.000000,47899999.000000 52100001.000000,47100001.000000 52399999.000000,47100001.000000 52399999.000000,47899999.000000 Z"/> 
<svg:path style="fill:#000000; fill-opacity:1.0;  stroke:#000000; stroke-width:1.000000; stroke-opacity:1;  stroke-linecap:round; stroke-linejoin:round;fill-rule:evenodd;" d="M 52600001.000000,47899999.000000 52600001.000000,47100001.000000 52899999.000000,47100001.000000 52899999.000000,47899999.000000 Z"/> 
<svg:path style="fill:#000000; fill-opacity:1.0;  stroke:#000000; stroke-width:1.000000; stroke-opacity:1;  stroke-linecap:round; stroke-linejoin:round;fill-rule:evenodd;" d="M 53100001.000000,47899999.000000 53100001.000000,47100001.000000 53399999.000000,47100001.000000 53399999.000000,47899999.000000 Z"/> 
</svg:g>
<svg:g>
</svg:g>
<svg:g>
</svg:g>
<svg:g>
</svg:g>
</svg:g>
<svg:g style="fill:#000000; fill-opacity:1.0;  stroke:#000000; stroke-width:1.000000; stroke-opacity:1;  stroke-linecap:round; stroke-linejoin:round;">
<svg:g>
</svg:g>
<svg:g>
</svg:g>
<svg:g>
</svg:g>
<svg:g>
</svg:g>
</svg:g> 
</svg:g><svg:g><svg:title>SVG Picture created as kicadBoard-F_Silkscreen.svg date 2022/12/05 12:44:27 </svg:title>
  <svg:desc>Picture generated by PCBNEW </svg:desc>
<svg:g style="fill:#000000; fill-opacity:1.000000;stroke:#000000; stroke-opacity:1.000000; stroke-linecap:round; stroke-linejoin:round;" transform="translate(0 0) scale(1 1)">
</svg:g>
<svg:g style="fill:#000000; fill-opacity:0.0;  stroke:#000000; stroke-width:0.000000; stroke-opacity:1;  stroke-linecap:round; stroke-linejoin:round;">
</svg:g>
<svg:g style="fill:#F2EDA1; fill-opacity:0.0;  stroke:#F2EDA1; stroke-width:0.000000; stroke-opacity:1;  stroke-linecap:round; stroke-linejoin:round;">
</svg:g>
<svg:g style="fill:#F2EDA1; fill-opacity:0.0;  stroke:#F2EDA1; stroke-width:101600.000000; stroke-opacity:1;  stroke-linecap:round; stroke-linejoin:round;">
<svg:text x="43420000.000000" y="46730000.000000" textLength="18138020.000000" font-size="1557866.000000" lengthAdjust="spacingAndGlyphs" text-anchor="start" opacity="0">FZECONMX52745149</svg:text>
<svg:g class="stroked-text"><svg:desc>FZECONMX52745149</svg:desc>
<svg:path d="M44153697 46062342 L43764230 46062342 "/>
<svg:path d="M43764230 46674361 L43764230 45505961 L44320611 45505961 "/>
<svg:path d="M44654440 45505961 L45433373 45505961 L44654440 46674361 L45433373 46674361 "/>
<svg:path d="M45878478 46062342 L46267944 46062342 "/>
<svg:path d="M46434859 46674361 L45878478 46674361 L45878478 45505961 L46434859 45505961 "/>
<svg:path d="M47603259 46563085 L47547620 46618723 L47380706 46674361 L47269430 46674361 L47102516 46618723 L46991240 46507447 L46935601 46396171 L46879963 46173619 L46879963 46006704 L46935601 45784152 L46991240 45672876 L47102516 45561600 L47269430 45505961 L47380706 45505961 L47547620 45561600 L47603259 45617238 "/>
<svg:path d="M48326554 45505961 L48549106 45505961 L48660382 45561600 L48771659 45672876 L48827297 45895428 L48827297 46284895 L48771659 46507447 L48660382 46618723 L48549106 46674361 L48326554 46674361 L48215278 46618723 L48104001 46507447 L48048363 46284895 L48048363 45895428 L48104001 45672876 L48215278 45561600 L48326554 45505961 "/>
<svg:path d="M49328040 46674361 L49328040 45505961 L49995697 46674361 L49995697 45505961 "/>
<svg:path d="M50552078 46674361 L50552078 45505961 L50941544 46340533 L51331011 45505961 L51331011 46674361 "/>
<svg:path d="M51776116 45505961 L52555049 46674361 "/>
<svg:path d="M52555049 45505961 L51776116 46674361 "/>
<svg:path d="M53556535 45505961 L53000154 45505961 L52944516 46062342 L53000154 46006704 L53111430 45951066 L53389620 45951066 L53500897 46006704 L53556535 46062342 L53612173 46173619 L53612173 46451809 L53556535 46563085 L53500897 46618723 L53389620 46674361 L53111430 46674361 L53000154 46618723 L52944516 46563085 "/>
<svg:path d="M54057278 45617238 L54112916 45561600 L54224192 45505961 L54502382 45505961 L54613659 45561600 L54669297 45617238 L54724935 45728514 L54724935 45839790 L54669297 46006704 L54001640 46674361 L54724935 46674361 "/>
<svg:path d="M55114401 45505961 L55893335 45505961 L55392592 46674361 "/>
<svg:path d="M56839182 45895428 L56839182 46674361 "/>
<svg:path d="M56560992 45450323 L56282801 46284895 L57006097 46284895 "/>
<svg:path d="M58007582 45505961 L57451201 45505961 L57395563 46062342 L57451201 46006704 L57562478 45951066 L57840668 45951066 L57951944 46006704 L58007582 46062342 L58063220 46173619 L58063220 46451809 L58007582 46563085 L57951944 46618723 L57840668 46674361 L57562478 46674361 L57451201 46618723 L57395563 46563085 "/>
<svg:path d="M59175982 46674361 L58508325 46674361 "/>
<svg:path d="M58842154 46674361 L58842154 45505961 L58730878 45672876 L58619601 45784152 L58508325 45839790 "/>
<svg:path d="M60177468 45895428 L60177468 46674361 "/>
<svg:path d="M59899278 45450323 L59621087 46284895 L60344382 46284895 "/>
<svg:path d="M60845125 46674361 L61067678 46674361 L61178954 46618723 L61234592 46563085 L61345868 46396171 L61401506 46173619 L61401506 45728514 L61345868 45617238 L61290230 45561600 L61178954 45505961 L60956401 45505961 L60845125 45561600 L60789487 45617238 L60733849 45728514 L60733849 46006704 L60789487 46117980 L60845125 46173619 L60956401 46229257 L61178954 46229257 L61290230 46173619 L61345868 46117980 L61401506 46006704 "/>
</svg:g></svg:g>
<svg:g style="fill:#F2EDA1; fill-opacity:0.0;  stroke:#F2EDA1; stroke-width:203200.000000; stroke-opacity:1;  stroke-linecap:round; stroke-linejoin:round;">
<svg:path d="M55000000 51500000 L55000000 52900000 "/>
<svg:path d="M45000000 51500000 L45000000 52900000 "/>
<svg:path d="M46000000 49000000 L46000000 51250000 "/>
<svg:path d="M54150000 49000000 L54150000 51250000 "/>
</svg:g>
<svg:g style="fill:#F2EDA1; fill-opacity:0.0;  stroke:#F2EDA1; stroke-width:101600.000000; stroke-opacity:1;  stroke-linecap:round; stroke-linejoin:round;">
<svg:path d="M53300000 53100000 L53300000 53250000 "/>
</svg:g>
<svg:g style="fill:#F2EDA1; fill-opacity:0.0;  stroke:#F2EDA1; stroke-width:203200.000000; stroke-opacity:1;  stroke-linecap:round; stroke-linejoin:round;">
<svg:path d="M45850000 51250000 L45850000 49000000 "/>
<svg:path d="M43550000 53000000 L43550000 53500000 "/>
</svg:g>
<svg:g style="fill:#F2EDA1; fill-opacity:0.0;  stroke:#F2EDA1; stroke-width:101600.000000; stroke-opacity:1;  stroke-linecap:round; stroke-linejoin:round;">
<svg:path d="M53550000 53500000 L53550000 53100000 "/>
<svg:path d="M46450000 53500000 L46700000 53250000 "/>
</svg:g>
<svg:g style="fill:#F2EDA1; fill-opacity:0.0;  stroke:#F2EDA1; stroke-width:203200.000000; stroke-opacity:1;  stroke-linecap:round; stroke-linejoin:round;">
<svg:path d="M43550000 53500000 L43650000 53600000 "/>
<svg:path d="M56450000 53000000 L43550000 53000000 "/>
<svg:path d="M56350000 53600000 L56450000 53500000 "/>
<svg:path d="M43650000 53600000 L56350000 53600000 "/>
<svg:path d="M54000000 51250000 L54000000 49000000 "/>
<svg:path d="M55550000 51400000 L44450000 51400000 "/>
</svg:g>
<svg:g style="fill:#F2EDA1; fill-opacity:0.0;  stroke:#F2EDA1; stroke-width:101600.000000; stroke-opacity:1;  stroke-linecap:round; stroke-linejoin:round;">
<svg:path d="M46700000 53250000 L46700000 53100000 "/>
<svg:path d="M46450000 53100000 L46450000 53500000 "/>
</svg:g>
<svg:g style="fill:#F2EDA1; fill-opacity:0.0;  stroke:#F2EDA1; stroke-width:203200.000000; stroke-opacity:1;  stroke-linecap:round; stroke-linejoin:round;">
<svg:path d="M56450000 53500000 L56450000 53000000 "/>
</svg:g>
<svg:g style="fill:#F2EDA1; fill-opacity:0.0;  stroke:#F2EDA1; stroke-width:101600.000000; stroke-opacity:1;  stroke-linecap:round; stroke-linejoin:round;">
<svg:path d="M53300000 53250000 L53550000 53500000 "/>
</svg:g>
<svg:g style="fill:#F2EDA1; fill-opacity:0.0;  stroke:#F2EDA1; stroke-width:203200.000000; stroke-opacity:1;  stroke-linecap:round; stroke-linejoin:round;">
<svg:path d="M46000000.000000 49000000.000000 A75000.000000 75000.000000 0.0 0 0 45850000.000000 49000000.000000"/>
<svg:path d="M54150000.000000 49000000.000000 A75000.000000 75000.000000 0.0 0 0 54000000.000000 49000000.000000"/>
</svg:g>
<svg:g style="fill:#F2EDA1; fill-opacity:1.0;  stroke:#F2EDA1; stroke-width:1.000000; stroke-opacity:1;  stroke-linecap:round; stroke-linejoin:round;">
<svg:path style="fill:#F2EDA1; fill-opacity:1.0;  stroke:#F2EDA1; stroke-width:1.000000; stroke-opacity:1;  stroke-linecap:round; stroke-linejoin:round;fill-rule:evenodd;" d="M 46800800.000000,51183720.000000 46800800.000000,51300800.000000 46199200.000000,51300800.000000 46199200.000000,51183720.000000 46500000.000000,50762600.000000 Z"/> 
<svg:g>
</svg:g>
<svg:g>
</svg:g>
<svg:g>
</svg:g>
<svg:g>
</svg:g>
</svg:g>
<svg:g style="fill:#000000; fill-opacity:1.0;  stroke:#000000; stroke-width:1.000000; stroke-opacity:1;  stroke-linecap:round; stroke-linejoin:round;">
<svg:g>
</svg:g>
<svg:g>
</svg:g>
<svg:g>
</svg:g>
<svg:g>
</svg:g>
</svg:g> 
</svg:g><svg:g><svg:title>SVG Picture created as kicadBoard-Margin.svg date 2022/12/05 12:44:27 </svg:title>
  <svg:desc>Picture generated by PCBNEW </svg:desc>
<svg:g style="fill:#000000; fill-opacity:1.000000;stroke:#000000; stroke-opacity:1.000000; stroke-linecap:round; stroke-linejoin:round;" transform="translate(0 0) scale(1 1)">
</svg:g>
<svg:g style="fill:#000000; fill-opacity:0.0;  stroke:#000000; stroke-width:0.000000; stroke-opacity:1;  stroke-linecap:round; stroke-linejoin:round;">
<svg:g>
</svg:g>
<svg:g>
</svg:g>
<svg:g>
</svg:g>
<svg:g>
</svg:g>
</svg:g>
<svg:g style="fill:#000000; fill-opacity:0.0;  stroke:#000000; stroke-width:0.000000; stroke-opacity:1;  stroke-linecap:round; stroke-linejoin:round;">
<svg:g>
</svg:g>
<svg:g>
</svg:g>
<svg:g>
</svg:g>
<svg:g>
</svg:g>
</svg:g> 
</svg:g><svg:g><svg:title>SVG Picture created as kicadBoard-F_Cu.svg date 2022/12/05 12:44:27 </svg:title>
  <svg:desc>Picture generated by PCBNEW </svg:desc>
<svg:g style="fill:#000000; fill-opacity:1.000000;stroke:#000000; stroke-opacity:1.000000; stroke-linecap:round; stroke-linejoin:round;" transform="translate(0 0) scale(1 1)">
</svg:g>
<svg:g style="fill:#000000; fill-opacity:0.0;  stroke:#000000; stroke-width:0.000000; stroke-opacity:1;  stroke-linecap:round; stroke-linejoin:round;">
</svg:g>
<svg:g style="fill:#C83434; fill-opacity:0.0;  stroke:#C83434; stroke-width:0.000000; stroke-opacity:1;  stroke-linecap:round; stroke-linejoin:round;">
</svg:g>
<svg:g style="fill:#C83434; fill-opacity:1.0;  stroke:#C83434; stroke-width:1.000000; stroke-opacity:1;  stroke-linecap:round; stroke-linejoin:round;">
<svg:path style="fill:#C83434; fill-opacity:1.0;  stroke:#C83434; stroke-width:1.000000; stroke-opacity:1;  stroke-linecap:round; stroke-linejoin:round;fill-rule:evenodd;" d="M 55800000.000000,51050000.000000 54500000.000000,51050000.000000 54500000.000000,50200000.000000 55800000.000000,50200000.000000 Z"/> 
<svg:path style="fill:#C83434; fill-opacity:1.0;  stroke:#C83434; stroke-width:1.000000; stroke-opacity:1;  stroke-linecap:round; stroke-linejoin:round;fill-rule:evenodd;" d="M 56900000.000000,50200000.000000 54500000.000000,50200000.000000 54500000.000000,48000000.000000 56900000.000000,48000000.000000 Z"/> 
<svg:path style="fill:#C83434; fill-opacity:1.0;  stroke:#C83434; stroke-width:1.000000; stroke-opacity:1;  stroke-linecap:round; stroke-linejoin:round;fill-rule:evenodd;" d="M 45500000.000000,51050000.000000 44200000.000000,51050000.000000 44200000.000000,50200000.000000 45500000.000000,50200000.000000 Z"/> 
<svg:path style="fill:#C83434; fill-opacity:1.0;  stroke:#C83434; stroke-width:1.000000; stroke-opacity:1;  stroke-linecap:round; stroke-linejoin:round;fill-rule:evenodd;" d="M 45500000.000000,50200000.000000 43100000.000000,50200000.000000 43100000.000000,48000000.000000 45500000.000000,48000000.000000 Z"/> 
<svg:g>
<svg:path style="fill:#C83434; fill-opacity:1.0;  stroke:#C83434; stroke-width:1.000000; stroke-opacity:1;  stroke-linecap:round; stroke-linejoin:round;fill-rule:evenodd;" d="M 46600001.000000,47899999.000000 46600001.000000,47100001.000000 46899999.000000,47100001.000000 46899999.000000,47899999.000000 Z"/> 
<svg:path style="fill:#C83434; fill-opacity:1.0;  stroke:#C83434; stroke-width:1.000000; stroke-opacity:1;  stroke-linecap:round; stroke-linejoin:round;fill-rule:evenodd;" d="M 47100001.000000,47899999.000000 47100001.000000,47100001.000000 47399999.000000,47100001.000000 47399999.000000,47899999.000000 Z"/> 
<svg:path style="fill:#C83434; fill-opacity:1.0;  stroke:#C83434; stroke-width:1.000000; stroke-opacity:1;  stroke-linecap:round; stroke-linejoin:round;fill-rule:evenodd;" d="M 47600001.000000,47899999.000000 47600001.000000,47100001.000000 47899999.000000,47100001.000000 47899999.000000,47899999.000000 Z"/> 
<svg:path style="fill:#C83434; fill-opacity:1.0;  stroke:#C83434; stroke-width:1.000000; stroke-opacity:1;  stroke-linecap:round; stroke-linejoin:round;fill-rule:evenodd;" d="M 48100001.000000,47899999.000000 48100001.000000,47100001.000000 48399999.000000,47100001.000000 48399999.000000,47899999.000000 Z"/> 
<svg:path style="fill:#C83434; fill-opacity:1.0;  stroke:#C83434; stroke-width:1.000000; stroke-opacity:1;  stroke-linecap:round; stroke-linejoin:round;fill-rule:evenodd;" d="M 48600001.000000,47899999.000000 48600001.000000,47100001.000000 48899999.000000,47100001.000000 48899999.000000,47899999.000000 Z"/> 
<svg:path style="fill:#C83434; fill-opacity:1.0;  stroke:#C83434; stroke-width:1.000000; stroke-opacity:1;  stroke-linecap:round; stroke-linejoin:round;fill-rule:evenodd;" d="M 49100001.000000,47899999.000000 49100001.000000,47100001.000000 49399999.000000,47100001.000000 49399999.000000,47899999.000000 Z"/> 
<svg:path style="fill:#C83434; fill-opacity:1.0;  stroke:#C83434; stroke-width:1.000000; stroke-opacity:1;  stroke-linecap:round; stroke-linejoin:round;fill-rule:evenodd;" d="M 49600001.000000,47899999.000000 49600001.000000,47100001.000000 49899999.000000,47100001.000000 49899999.000000,47899999.000000 Z"/> 
<svg:path style="fill:#C83434; fill-opacity:1.0;  stroke:#C83434; stroke-width:1.000000; stroke-opacity:1;  stroke-linecap:round; stroke-linejoin:round;fill-rule:evenodd;" d="M 50100001.000000,47899999.000000 50100001.000000,47100001.000000 50399999.000000,47100001.000000 50399999.000000,47899999.000000 Z"/> 
<svg:path style="fill:#C83434; fill-opacity:1.0;  stroke:#C83434; stroke-width:1.000000; stroke-opacity:1;  stroke-linecap:round; stroke-linejoin:round;fill-rule:evenodd;" d="M 50600001.000000,47899999.000000 50600001.000000,47100001.000000 50899999.000000,47100001.000000 50899999.000000,47899999.000000 Z"/> 
<svg:path style="fill:#C83434; fill-opacity:1.0;  stroke:#C83434; stroke-width:1.000000; stroke-opacity:1;  stroke-linecap:round; stroke-linejoin:round;fill-rule:evenodd;" d="M 51100001.000000,47899999.000000 51100001.000000,47100001.000000 51399999.000000,47100001.000000 51399999.000000,47899999.000000 Z"/> 
<svg:path style="fill:#C83434; fill-opacity:1.0;  stroke:#C83434; stroke-width:1.000000; stroke-opacity:1;  stroke-linecap:round; stroke-linejoin:round;fill-rule:evenodd;" d="M 51600001.000000,47899999.000000 51600001.000000,47100001.000000 51899999.000000,47100001.000000 51899999.000000,47899999.000000 Z"/> 
<svg:path style="fill:#C83434; fill-opacity:1.0;  stroke:#C83434; stroke-width:1.000000; stroke-opacity:1;  stroke-linecap:round; stroke-linejoin:round;fill-rule:evenodd;" d="M 52100001.000000,47899999.000000 52100001.000000,47100001.000000 52399999.000000,47100001.000000 52399999.000000,47899999.000000 Z"/> 
<svg:path style="fill:#C83434; fill-opacity:1.0;  stroke:#C83434; stroke-width:1.000000; stroke-opacity:1;  stroke-linecap:round; stroke-linejoin:round;fill-rule:evenodd;" d="M 52600001.000000,47899999.000000 52600001.000000,47100001.000000 52899999.000000,47100001.000000 52899999.000000,47899999.000000 Z"/> 
<svg:path style="fill:#C83434; fill-opacity:1.0;  stroke:#C83434; stroke-width:1.000000; stroke-opacity:1;  stroke-linecap:round; stroke-linejoin:round;fill-rule:evenodd;" d="M 53100001.000000,47899999.000000 53100001.000000,47100001.000000 53399999.000000,47100001.000000 53399999.000000,47899999.000000 Z"/> 
</svg:g>
<svg:g>
</svg:g>
<svg:g>
</svg:g>
<svg:g>
</svg:g>
</svg:g>
<svg:g style="fill:#FFFFFF; fill-opacity:1.0;  stroke:#FFFFFF; stroke-width:1.000000; stroke-opacity:1;  stroke-linecap:round; stroke-linejoin:round;">
</svg:g>
<svg:g style="fill:#000000; fill-opacity:1.0;  stroke:#000000; stroke-width:1.000000; stroke-opacity:1;  stroke-linecap:round; stroke-linejoin:round;">
<svg:g>
</svg:g>
<svg:g>
</svg:g>
<svg:g>
</svg:g>
<svg:g>
</svg:g>
</svg:g> 
</svg:g></svg>
