<?xml version='1.0' encoding='ASCII' standalone='yes'?>
<svg xmlns:svg="http://www.w3.org/2000/svg" xmlns="http://www.w3.org/2000/svg" xmlns:xlink="http://www.w3.org/1999/xlink" version="1.1" width="9.999980cm" height="9.999980cm" viewBox="0 0 99999800 99999800">
<title>SVG Picture created as kicadBoard-B_Cu.svg date 2022/12/04 19:04:12 </title>
  <desc>Picture generated by PCBNEW </desc>
<g style="fill:#000000; fill-opacity:1.000000;stroke:#000000; stroke-opacity:1.000000; stroke-linecap:round; stroke-linejoin:round;" transform="translate(0 0) scale(1 1)">
</g>
<g style="fill:#000000; fill-opacity:0.0;  stroke:#000000; stroke-width:0.000000; stroke-opacity:1;  stroke-linecap:round; stroke-linejoin:round;">
<g>
</g>
<g>
</g>
<g>
</g>
<g>
</g>
</g>
<g style="fill:#FFFFFF; fill-opacity:0.0;  stroke:#FFFFFF; stroke-width:0.000000; stroke-opacity:1;  stroke-linecap:round; stroke-linejoin:round;">
</g>
<g style="fill:#FFFFFF; fill-opacity:1.0;  stroke:#FFFFFF; stroke-width:1.000000; stroke-opacity:1;  stroke-linecap:round; stroke-linejoin:round;">
<circle cx="46300000.000000" cy="42400000.000000" r="749999.500000"/> 
</g>
<g style="fill:#FFFFFF; fill-opacity:1.0;  stroke:#FFFFFF; stroke-width:21200.000000; stroke-opacity:1;  stroke-linecap:round; stroke-linejoin:round;">
</g>
<g style="fill:#FFFFFF; fill-opacity:1.0;  stroke:#FFFFFF; stroke-width:1.000000; stroke-opacity:1;  stroke-linecap:round; stroke-linejoin:round;">
<circle cx="53700000.000000" cy="44000000.000000" r="749999.500000"/> 
</g>
<g style="fill:#FFFFFF; fill-opacity:1.0;  stroke:#FFFFFF; stroke-width:21200.000000; stroke-opacity:1;  stroke-linecap:round; stroke-linejoin:round;">
</g>
<g style="fill:#000000; fill-opacity:1.0;  stroke:#000000; stroke-width:21200.000000; stroke-opacity:1;  stroke-linecap:round; stroke-linejoin:round;">
</g>
<g style="fill:#D0D2CD; fill-opacity:1.0;  stroke:#D0D2CD; stroke-width:21200.000000; stroke-opacity:1;  stroke-linecap:round; stroke-linejoin:round;">
</g>
<g style="fill:#D0D2CD; fill-opacity:1.0;  stroke:#D0D2CD; stroke-width:50000.000000; stroke-opacity:1;  stroke-linecap:round; stroke-linejoin:round;">
</g>
<g style="fill:#D0D2CD; fill-opacity:0.0;  stroke:#D0D2CD; stroke-width:50000.000000; stroke-opacity:1;  stroke-linecap:round; stroke-linejoin:round;">
<path d="M55050000 43650000 L55050000 41250000 "/>
<path d="M55750000 41250000 L55750000 43650000 "/>
<path d="M44950000 41250000 L44950000 43650000 "/>
<path d="M44250000 43650000 L44250000 41250000 "/>
<path d="M44600000.000000 40900000.000001 A350001.000000 350001.000000 0.0 0 0 44250000.000001 41250000.000000"/>
<path d="M44600000.000000 43999999.999999 A350001.000000 350001.000000 0.0 0 0 44949999.999999 43650000.000000"/>
<path d="M55750000.000000 41250000.000000 A350000.000000 350000.000000 0.0 0 0 55400000.000000 40900000.000000"/>
<path d="M55050000.000000 43650000.000000 A350000.000000 350000.000000 0.0 0 0 55400000.000000 44000000.000000"/>
<path d="M55400000.000000 44000000.000000 A350000.000000 350000.000000 0.0 0 0 55750000.000000 43650000.000000"/>
<path d="M44949999.999999 41250000.000000 A350001.000000 350001.000000 0.0 0 0 44600000.000000 40900000.000001"/>
<path d="M55400000.000000 40900000.000000 A350000.000000 350000.000000 0.0 0 0 55050000.000000 41250000.000000"/>
<path d="M44250000.000001 43650000.000000 A350001.000000 350001.000000 0.0 0 0 44600000.000000 43999999.999999"/>
<g>
</g>
<g>
</g>
<g>
</g>
<g>
</g>
</g> 
<svg:g><svg:title>SVG Picture created as kicadBoard-B_Courtyard.svg date 2022/12/04 19:04:12 </svg:title>
  <svg:desc>Picture generated by PCBNEW </svg:desc>
<svg:g style="fill:#000000; fill-opacity:1.000000;stroke:#000000; stroke-opacity:1.000000; stroke-linecap:round; stroke-linejoin:round;" transform="translate(0 0) scale(1 1)">
</svg:g>
<svg:g style="fill:#000000; fill-opacity:0.0;  stroke:#000000; stroke-width:0.000000; stroke-opacity:1;  stroke-linecap:round; stroke-linejoin:round;">
<svg:g>
</svg:g>
<svg:g>
</svg:g>
<svg:g>
</svg:g>
<svg:g>
</svg:g>
</svg:g>
<svg:g style="fill:#000000; fill-opacity:0.0;  stroke:#000000; stroke-width:0.000000; stroke-opacity:1;  stroke-linecap:round; stroke-linejoin:round;">
</svg:g>
<svg:g style="fill:#D0D2CD; fill-opacity:0.0;  stroke:#D0D2CD; stroke-width:0.000000; stroke-opacity:1;  stroke-linecap:round; stroke-linejoin:round;">
</svg:g>
<svg:g style="fill:#D0D2CD; fill-opacity:0.0;  stroke:#D0D2CD; stroke-width:50000.000000; stroke-opacity:1;  stroke-linecap:round; stroke-linejoin:round;">
<svg:path d="M55050000 43650000 L55050000 41250000 "/>
<svg:path d="M55750000 41250000 L55750000 43650000 "/>
<svg:path d="M44950000 41250000 L44950000 43650000 "/>
<svg:path d="M44250000 43650000 L44250000 41250000 "/>
<svg:path d="M44600000.000000 40900000.000001 A350001.000000 350001.000000 0.0 0 0 44250000.000001 41250000.000000"/>
<svg:path d="M44600000.000000 43999999.999999 A350001.000000 350001.000000 0.0 0 0 44949999.999999 43650000.000000"/>
<svg:path d="M55750000.000000 41250000.000000 A350000.000000 350000.000000 0.0 0 0 55400000.000000 40900000.000000"/>
<svg:path d="M55050000.000000 43650000.000000 A350000.000000 350000.000000 0.0 0 0 55400000.000000 44000000.000000"/>
<svg:path d="M55400000.000000 44000000.000000 A350000.000000 350000.000000 0.0 0 0 55750000.000000 43650000.000000"/>
<svg:path d="M44949999.999999 41250000.000000 A350001.000000 350001.000000 0.0 0 0 44600000.000000 40900000.000001"/>
<svg:path d="M55400000.000000 40900000.000000 A350000.000000 350000.000000 0.0 0 0 55050000.000000 41250000.000000"/>
<svg:path d="M44250000.000001 43650000.000000 A350001.000000 350001.000000 0.0 0 0 44600000.000000 43999999.999999"/>
<svg:g>
</svg:g>
<svg:g>
</svg:g>
<svg:g>
</svg:g>
<svg:g>
</svg:g>
</svg:g> 
</svg:g><svg:g><svg:title>SVG Picture created as kicadBoard-F_Courtyard.svg date 2022/12/04 19:04:12 </svg:title>
  <svg:desc>Picture generated by PCBNEW </svg:desc>
<svg:g style="fill:#000000; fill-opacity:1.000000;stroke:#000000; stroke-opacity:1.000000; stroke-linecap:round; stroke-linejoin:round;" transform="translate(0 0) scale(1 1)">
</svg:g>
<svg:g style="fill:#000000; fill-opacity:0.0;  stroke:#000000; stroke-width:0.000000; stroke-opacity:1;  stroke-linecap:round; stroke-linejoin:round;">
<svg:g>
</svg:g>
<svg:g>
</svg:g>
<svg:g>
</svg:g>
<svg:g>
</svg:g>
</svg:g>
<svg:g style="fill:#000000; fill-opacity:0.0;  stroke:#000000; stroke-width:0.000000; stroke-opacity:1;  stroke-linecap:round; stroke-linejoin:round;">
</svg:g>
<svg:g style="fill:#D0D2CD; fill-opacity:0.0;  stroke:#D0D2CD; stroke-width:0.000000; stroke-opacity:1;  stroke-linecap:round; stroke-linejoin:round;">
</svg:g>
<svg:g style="fill:#D0D2CD; fill-opacity:0.0;  stroke:#D0D2CD; stroke-width:50000.000000; stroke-opacity:1;  stroke-linecap:round; stroke-linejoin:round;">
<svg:path d="M55050000 43650000 L55050000 41250000 "/>
<svg:path d="M55750000 41250000 L55750000 43650000 "/>
<svg:path d="M44950000 41250000 L44950000 43650000 "/>
<svg:path d="M44250000 43650000 L44250000 41250000 "/>
<svg:path d="M44600000.000000 40900000.000001 A350001.000000 350001.000000 0.0 0 0 44250000.000001 41250000.000000"/>
<svg:path d="M44600000.000000 43999999.999999 A350001.000000 350001.000000 0.0 0 0 44949999.999999 43650000.000000"/>
<svg:path d="M55750000.000000 41250000.000000 A350000.000000 350000.000000 0.0 0 0 55400000.000000 40900000.000000"/>
<svg:path d="M55050000.000000 43650000.000000 A350000.000000 350000.000000 0.0 0 0 55400000.000000 44000000.000000"/>
<svg:path d="M55400000.000000 44000000.000000 A350000.000000 350000.000000 0.0 0 0 55750000.000000 43650000.000000"/>
<svg:path d="M44949999.999999 41250000.000000 A350001.000000 350001.000000 0.0 0 0 44600000.000000 40900000.000001"/>
<svg:path d="M55400000.000000 40900000.000000 A350000.000000 350000.000000 0.0 0 0 55050000.000000 41250000.000000"/>
<svg:path d="M44250000.000001 43650000.000000 A350001.000000 350001.000000 0.0 0 0 44600000.000000 43999999.999999"/>
<svg:g>
</svg:g>
<svg:g>
</svg:g>
<svg:g>
</svg:g>
<svg:g>
</svg:g>
</svg:g> 
</svg:g><svg:g><svg:title>SVG Picture created as kicadBoard-F_Cu.svg date 2022/12/04 19:04:12 </svg:title>
  <svg:desc>Picture generated by PCBNEW </svg:desc>
<svg:g style="fill:#000000; fill-opacity:1.000000;stroke:#000000; stroke-opacity:1.000000; stroke-linecap:round; stroke-linejoin:round;" transform="translate(0 0) scale(1 1)">
</svg:g>
<svg:g style="fill:#000000; fill-opacity:0.0;  stroke:#000000; stroke-width:0.000000; stroke-opacity:1;  stroke-linecap:round; stroke-linejoin:round;">
<svg:g>
</svg:g>
<svg:g style="fill:#C83434; fill-opacity:0.0;  stroke:#C83434; stroke-width:0.000000; stroke-opacity:1;  stroke-linecap:round; stroke-linejoin:round;">
</svg:g>
<svg:g style="fill:#C83434; fill-opacity:0.0;  stroke:#C83434; stroke-width:1.000000; stroke-opacity:1;  stroke-linecap:round; stroke-linejoin:round;">
</svg:g>
<svg:g style="fill:#C83434; fill-opacity:1.0;  stroke:#C83434; stroke-width:1.000000; stroke-opacity:1;  stroke-linecap:round; stroke-linejoin:round;">
<svg:path style="fill:#C83434; fill-opacity:1.0;  stroke:#C83434; stroke-width:1.000000; stroke-opacity:1;  stroke-linecap:round; stroke-linejoin:round;fill-rule:evenodd;" d="M 47200001.000000,40699999.000000 47200001.000000,39200001.000000 47599999.000000,39200001.000000 47599999.000000,40699999.000000 Z"/> 
<svg:path style="fill:#C83434; fill-opacity:1.0;  stroke:#C83434; stroke-width:1.000000; stroke-opacity:1;  stroke-linecap:round; stroke-linejoin:round;fill-rule:evenodd;" d="M 48500001.000000,40699999.000000 48500001.000000,39200001.000000 48899999.000000,39200001.000000 48899999.000000,40699999.000000 Z"/> 
<svg:path style="fill:#C83434; fill-opacity:1.0;  stroke:#C83434; stroke-width:1.000000; stroke-opacity:1;  stroke-linecap:round; stroke-linejoin:round;fill-rule:evenodd;" d="M 51100001.000000,40699999.000000 51100001.000000,39200001.000000 51499999.000000,39200001.000000 51499999.000000,40699999.000000 Z"/> 
<svg:path style="fill:#C83434; fill-opacity:1.0;  stroke:#C83434; stroke-width:1.000000; stroke-opacity:1;  stroke-linecap:round; stroke-linejoin:round;fill-rule:evenodd;" d="M 52400001.000000,40699999.000000 52400001.000000,39200001.000000 52799999.000000,39200001.000000 52799999.000000,40699999.000000 Z"/> 
<svg:path style="fill:#C83434; fill-opacity:1.0;  stroke:#C83434; stroke-width:1.000000; stroke-opacity:1;  stroke-linecap:round; stroke-linejoin:round;fill-rule:evenodd;" d="M 51750001.000000,40699999.000000 51750001.000000,39200001.000000 52149999.000000,39200001.000000 52149999.000000,40699999.000000 Z"/> 
<svg:path style="fill:#C83434; fill-opacity:1.0;  stroke:#C83434; stroke-width:1.000000; stroke-opacity:1;  stroke-linecap:round; stroke-linejoin:round;fill-rule:evenodd;" d="M 50450001.000000,40699999.000000 50450001.000000,39200001.000000 50849999.000000,39200001.000000 50849999.000000,40699999.000000 Z"/> 
<svg:path style="fill:#C83434; fill-opacity:1.0;  stroke:#C83434; stroke-width:1.000000; stroke-opacity:1;  stroke-linecap:round; stroke-linejoin:round;fill-rule:evenodd;" d="M 49800001.000000,40699999.000000 49800001.000000,39200001.000000 50199999.000000,39200001.000000 50199999.000000,40699999.000000 Z"/> 
<svg:path style="fill:#C83434; fill-opacity:1.0;  stroke:#C83434; stroke-width:1.000000; stroke-opacity:1;  stroke-linecap:round; stroke-linejoin:round;fill-rule:evenodd;" d="M 49150001.000000,40699999.000000 49150001.000000,39200001.000000 49549999.000000,39200001.000000 49549999.000000,40699999.000000 Z"/> 
<svg:path style="fill:#C83434; fill-opacity:1.0;  stroke:#C83434; stroke-width:1.000000; stroke-opacity:1;  stroke-linecap:round; stroke-linejoin:round;fill-rule:evenodd;" d="M 47850001.000000,40699999.000000 47850001.000000,39200001.000000 48249999.000000,39200001.000000 48249999.000000,40699999.000000 Z"/> 
<svg:path style="fill:#C83434; fill-opacity:1.0;  stroke:#C83434; stroke-width:1.000000; stroke-opacity:1;  stroke-linecap:round; stroke-linejoin:round;fill-rule:evenodd;" d="M 45375001.000000,40699999.000000 45375001.000000,39200001.000000 46624999.000000,39200001.000000 46624999.000000,40699999.000000 Z"/> 
<svg:path style="fill:#C83434; fill-opacity:1.0;  stroke:#C83434; stroke-width:1.000000; stroke-opacity:1;  stroke-linecap:round; stroke-linejoin:round;fill-rule:evenodd;" d="M 53375001.000000,40699999.000000 53375001.000000,39200001.000000 54624999.000000,39200001.000000 54624999.000000,40699999.000000 Z"/> 
<svg:path style="fill:#C83434; fill-opacity:1.0;  stroke:#C83434; stroke-width:1.000000; stroke-opacity:1;  stroke-linecap:round; stroke-linejoin:round;fill-rule:evenodd;" d="M 46500000.000000,48800000.000000 46511664.000000,48692632.000000 46561427.000000,48559888.000000 46646447.000000,48446447.000000 46759888.000000,48361427.000000 46892632.000000,48311664.000000 47000000.000000,48300000.000000 47107368.000000,48311664.000000 47240112.000000,48361427.000000 47353553.000000,48446447.000000 47438573.000000,48559888.000000 47488336.000000,48692632.000000 47500000.000000,48800000.000000 47488336.000000,48907368.000000 47438573.000000,49040112.000000 47353553.000000,49153553.000000 47240112.000000,49238573.000000 47107368.000000,49288336.000000 47000000.000000,49300000.000000 46892632.000000,49288336.000000 46759888.000000,49238573.000000 46646447.000000,49153553.000000 46561427.000000,49040112.000000 46511664.000000,48907368.000000 46500000.000000,48800000.000000 Z"/> 
<svg:path style="fill:#C83434; fill-opacity:1.0;  stroke:#C83434; stroke-width:1.000000; stroke-opacity:1;  stroke-linecap:round; stroke-linejoin:round;fill-rule:evenodd;" d="M 52500000.000000,48800000.000000 52511664.000000,48692632.000000 52561427.000000,48559888.000000 52646447.000000,48446447.000000 52759888.000000,48361427.000000 52892632.000000,48311664.000000 53000000.000000,48300000.000000 53107368.000000,48311664.000000 53240112.000000,48361427.000000 53353553.000000,48446447.000000 53438573.000000,48559888.000000 53488336.000000,48692632.000000 53500000.000000,48800000.000000 53488336.000000,48907368.000000 53438573.000000,49040112.000000 53353553.000000,49153553.000000 53240112.000000,49238573.000000 53107368.000000,49288336.000000 53000000.000000,49300000.000000 52892632.000000,49288336.000000 52759888.000000,49238573.000000 52646447.000000,49153553.000000 52561427.000000,49040112.000000 52511664.000000,48907368.000000 52500000.000000,48800000.000000 Z"/> 
</svg:g>
<svg:g>
</svg:g>
<svg:g>
</svg:g>
<svg:g>
</svg:g>
</svg:g>
<svg:g style="fill:#FFFFFF; fill-opacity:1.0;  stroke:#FFFFFF; stroke-width:1.000000; stroke-opacity:1;  stroke-linecap:round; stroke-linejoin:round;">
<svg:circle cx="46300000.000000" cy="42400000.000000" r="749999.500000"/> 
</svg:g>
<svg:g style="fill:#FFFFFF; fill-opacity:1.0;  stroke:#FFFFFF; stroke-width:21200.000000; stroke-opacity:1;  stroke-linecap:round; stroke-linejoin:round;">
</svg:g>
<svg:g style="fill:#FFFFFF; fill-opacity:1.0;  stroke:#FFFFFF; stroke-width:1.000000; stroke-opacity:1;  stroke-linecap:round; stroke-linejoin:round;">
<svg:circle cx="53700000.000000" cy="44000000.000000" r="749999.500000"/> 
</svg:g>
<svg:g style="fill:#FFFFFF; fill-opacity:1.0;  stroke:#FFFFFF; stroke-width:21200.000000; stroke-opacity:1;  stroke-linecap:round; stroke-linejoin:round;">
</svg:g>
<svg:g style="fill:#000000; fill-opacity:1.0;  stroke:#000000; stroke-width:21200.000000; stroke-opacity:1;  stroke-linecap:round; stroke-linejoin:round;">
</svg:g>
<svg:g style="fill:#D0D2CD; fill-opacity:1.0;  stroke:#D0D2CD; stroke-width:21200.000000; stroke-opacity:1;  stroke-linecap:round; stroke-linejoin:round;">
</svg:g>
<svg:g style="fill:#D0D2CD; fill-opacity:1.0;  stroke:#D0D2CD; stroke-width:50000.000000; stroke-opacity:1;  stroke-linecap:round; stroke-linejoin:round;">
</svg:g>
<svg:g style="fill:#D0D2CD; fill-opacity:0.0;  stroke:#D0D2CD; stroke-width:50000.000000; stroke-opacity:1;  stroke-linecap:round; stroke-linejoin:round;">
<svg:path d="M55050000 43650000 L55050000 41250000 "/>
<svg:path d="M55750000 41250000 L55750000 43650000 "/>
<svg:path d="M44950000 41250000 L44950000 43650000 "/>
<svg:path d="M44250000 43650000 L44250000 41250000 "/>
<svg:path d="M44600000.000000 40900000.000001 A350001.000000 350001.000000 0.0 0 0 44250000.000001 41250000.000000"/>
<svg:path d="M44600000.000000 43999999.999999 A350001.000000 350001.000000 0.0 0 0 44949999.999999 43650000.000000"/>
<svg:path d="M55750000.000000 41250000.000000 A350000.000000 350000.000000 0.0 0 0 55400000.000000 40900000.000000"/>
<svg:path d="M55050000.000000 43650000.000000 A350000.000000 350000.000000 0.0 0 0 55400000.000000 44000000.000000"/>
<svg:path d="M55400000.000000 44000000.000000 A350000.000000 350000.000000 0.0 0 0 55750000.000000 43650000.000000"/>
<svg:path d="M44949999.999999 41250000.000000 A350001.000000 350001.000000 0.0 0 0 44600000.000000 40900000.000001"/>
<svg:path d="M55400000.000000 40900000.000000 A350000.000000 350000.000000 0.0 0 0 55050000.000000 41250000.000000"/>
<svg:path d="M44250000.000001 43650000.000000 A350001.000000 350001.000000 0.0 0 0 44600000.000000 43999999.999999"/>
<svg:g>
</svg:g>
<svg:g>
</svg:g>
<svg:g>
</svg:g>
<svg:g>
</svg:g>
</svg:g> 
</svg:g></svg>
