<?xml version='1.0' encoding='ASCII' standalone='yes'?>
<svg xmlns:svg="http://www.w3.org/2000/svg" xmlns="http://www.w3.org/2000/svg" xmlns:xlink="http://www.w3.org/1999/xlink" version="1.1" width="9.999980cm" height="9.999980cm" viewBox="0 0 99999800 99999800">
<title>SVG Picture created as kicadBoard-B_Cu.svg date 2022/12/01 23:51:53 </title>
  <desc>Picture generated by PCBNEW </desc>
<g style="fill:#000000; fill-opacity:1.000000;stroke:#000000; stroke-opacity:1.000000; stroke-linecap:round; stroke-linejoin:round;" transform="translate(0 0) scale(1 1)">
</g>
<g style="fill:#000000; fill-opacity:0.0;  stroke:#000000; stroke-width:0.000000; stroke-opacity:1;  stroke-linecap:round; stroke-linejoin:round;">
<g>
</g>
<g>
</g>
<g>
</g>
<g>
</g>
</g>
<g style="fill:#FFFFFF; fill-opacity:0.0;  stroke:#FFFFFF; stroke-width:0.000000; stroke-opacity:1;  stroke-linecap:round; stroke-linejoin:round;">
</g>
<g style="fill:#000000; fill-opacity:0.0;  stroke:#000000; stroke-width:0.000000; stroke-opacity:1;  stroke-linecap:round; stroke-linejoin:round;">
<g>
</g>
<g>
</g>
<g>
</g>
<g>
</g>
</g> 
<svg:g><svg:title>SVG Picture created as kicadBoard-B_Adhesive.svg date 2022/12/01 23:51:53 </svg:title>
  <svg:desc>Picture generated by PCBNEW </svg:desc>
<svg:g style="fill:#000000; fill-opacity:1.000000;stroke:#000000; stroke-opacity:1.000000; stroke-linecap:round; stroke-linejoin:round;" transform="translate(0 0) scale(1 1)">
</svg:g>
<svg:g style="fill:#000000; fill-opacity:0.0;  stroke:#000000; stroke-width:0.000000; stroke-opacity:1;  stroke-linecap:round; stroke-linejoin:round;">
<svg:g>
</svg:g>
<svg:g>
</svg:g>
<svg:g>
</svg:g>
<svg:g>
</svg:g>
</svg:g>
<svg:g style="fill:#000000; fill-opacity:0.0;  stroke:#000000; stroke-width:0.000000; stroke-opacity:1;  stroke-linecap:round; stroke-linejoin:round;">
<svg:g>
</svg:g>
<svg:g>
</svg:g>
<svg:g>
</svg:g>
<svg:g>
</svg:g>
</svg:g> 
</svg:g><svg:g><svg:title>SVG Picture created as kicadBoard-B_Courtyard.svg date 2022/12/01 23:51:53 </svg:title>
  <svg:desc>Picture generated by PCBNEW </svg:desc>
<svg:g style="fill:#000000; fill-opacity:1.000000;stroke:#000000; stroke-opacity:1.000000; stroke-linecap:round; stroke-linejoin:round;" transform="translate(0 0) scale(1 1)">
</svg:g>
<svg:g style="fill:#000000; fill-opacity:0.0;  stroke:#000000; stroke-width:0.000000; stroke-opacity:1;  stroke-linecap:round; stroke-linejoin:round;">
<svg:g>
</svg:g>
<svg:g>
</svg:g>
<svg:g>
</svg:g>
<svg:g>
</svg:g>
</svg:g>
<svg:g style="fill:#000000; fill-opacity:0.0;  stroke:#000000; stroke-width:0.000000; stroke-opacity:1;  stroke-linecap:round; stroke-linejoin:round;">
<svg:g>
</svg:g>
<svg:g>
</svg:g>
<svg:g>
</svg:g>
<svg:g>
</svg:g>
</svg:g> 
</svg:g><svg:g><svg:title>SVG Picture created as kicadBoard-B_Fab.svg date 2022/12/01 23:51:53 </svg:title>
  <svg:desc>Picture generated by PCBNEW </svg:desc>
<svg:g style="fill:#000000; fill-opacity:1.000000;stroke:#000000; stroke-opacity:1.000000; stroke-linecap:round; stroke-linejoin:round;" transform="translate(0 0) scale(1 1)">
</svg:g>
<svg:g style="fill:#000000; fill-opacity:0.0;  stroke:#000000; stroke-width:0.000000; stroke-opacity:1;  stroke-linecap:round; stroke-linejoin:round;">
<svg:g>
</svg:g>
<svg:g>
</svg:g>
<svg:g>
</svg:g>
<svg:g>
</svg:g>
</svg:g>
<svg:g style="fill:#000000; fill-opacity:0.0;  stroke:#000000; stroke-width:0.000000; stroke-opacity:1;  stroke-linecap:round; stroke-linejoin:round;">
<svg:g>
</svg:g>
<svg:g>
</svg:g>
<svg:g>
</svg:g>
<svg:g>
</svg:g>
</svg:g> 
</svg:g><svg:g><svg:title>SVG Picture created as kicadBoard-B_Mask.svg date 2022/12/01 23:51:53 </svg:title>
  <svg:desc>Picture generated by PCBNEW </svg:desc>
<svg:g style="fill:#000000; fill-opacity:1.000000;stroke:#000000; stroke-opacity:1.000000; stroke-linecap:round; stroke-linejoin:round;" transform="translate(0 0) scale(1 1)">
</svg:g>
<svg:g style="fill:#000000; fill-opacity:0.0;  stroke:#000000; stroke-width:0.000000; stroke-opacity:1;  stroke-linecap:round; stroke-linejoin:round;">
<svg:g>
</svg:g>
<svg:g>
</svg:g>
<svg:g>
</svg:g>
<svg:g>
</svg:g>
</svg:g>
<svg:g style="fill:#000000; fill-opacity:0.0;  stroke:#000000; stroke-width:0.000000; stroke-opacity:1;  stroke-linecap:round; stroke-linejoin:round;">
<svg:g>
</svg:g>
<svg:g>
</svg:g>
<svg:g>
</svg:g>
<svg:g>
</svg:g>
</svg:g> 
</svg:g><svg:g><svg:title>SVG Picture created as kicadBoard-B_Paste.svg date 2022/12/01 23:51:53 </svg:title>
  <svg:desc>Picture generated by PCBNEW </svg:desc>
<svg:g style="fill:#000000; fill-opacity:1.000000;stroke:#000000; stroke-opacity:1.000000; stroke-linecap:round; stroke-linejoin:round;" transform="translate(0 0) scale(1 1)">
</svg:g>
<svg:g style="fill:#000000; fill-opacity:0.0;  stroke:#000000; stroke-width:0.000000; stroke-opacity:1;  stroke-linecap:round; stroke-linejoin:round;">
<svg:g>
</svg:g>
<svg:g>
</svg:g>
<svg:g>
</svg:g>
<svg:g>
</svg:g>
</svg:g>
<svg:g style="fill:#000000; fill-opacity:0.0;  stroke:#000000; stroke-width:0.000000; stroke-opacity:1;  stroke-linecap:round; stroke-linejoin:round;">
<svg:g>
</svg:g>
<svg:g>
</svg:g>
<svg:g>
</svg:g>
<svg:g>
</svg:g>
</svg:g> 
</svg:g><svg:g><svg:title>SVG Picture created as kicadBoard-B_Silkscreen.svg date 2022/12/01 23:51:53 </svg:title>
  <svg:desc>Picture generated by PCBNEW </svg:desc>
<svg:g style="fill:#000000; fill-opacity:1.000000;stroke:#000000; stroke-opacity:1.000000; stroke-linecap:round; stroke-linejoin:round;" transform="translate(0 0) scale(1 1)">
</svg:g>
<svg:g style="fill:#000000; fill-opacity:0.0;  stroke:#000000; stroke-width:0.000000; stroke-opacity:1;  stroke-linecap:round; stroke-linejoin:round;">
<svg:g>
</svg:g>
<svg:g>
</svg:g>
<svg:g>
</svg:g>
<svg:g>
</svg:g>
</svg:g>
<svg:g style="fill:#000000; fill-opacity:0.0;  stroke:#000000; stroke-width:0.000000; stroke-opacity:1;  stroke-linecap:round; stroke-linejoin:round;">
<svg:g>
</svg:g>
<svg:g>
</svg:g>
<svg:g>
</svg:g>
<svg:g>
</svg:g>
</svg:g> 
</svg:g><svg:g><svg:title>SVG Picture created as kicadBoard-Edge_Cuts.svg date 2022/12/01 23:51:53 </svg:title>
  <svg:desc>Picture generated by PCBNEW </svg:desc>
<svg:g style="fill:#000000; fill-opacity:1.000000;stroke:#000000; stroke-opacity:1.000000; stroke-linecap:round; stroke-linejoin:round;" transform="translate(0 0) scale(1 1)">
</svg:g>
<svg:g style="fill:#000000; fill-opacity:0.0;  stroke:#000000; stroke-width:0.000000; stroke-opacity:1;  stroke-linecap:round; stroke-linejoin:round;">
<svg:g>
</svg:g>
<svg:g>
</svg:g>
<svg:g>
</svg:g>
<svg:g>
</svg:g>
</svg:g> 
</svg:g><svg:g><svg:title>SVG Picture created as kicadBoard-F_Adhesive.svg date 2022/12/01 23:51:53 </svg:title>
  <svg:desc>Picture generated by PCBNEW </svg:desc>
<svg:g style="fill:#000000; fill-opacity:1.000000;stroke:#000000; stroke-opacity:1.000000; stroke-linecap:round; stroke-linejoin:round;" transform="translate(0 0) scale(1 1)">
</svg:g>
<svg:g style="fill:#000000; fill-opacity:0.0;  stroke:#000000; stroke-width:0.000000; stroke-opacity:1;  stroke-linecap:round; stroke-linejoin:round;">
<svg:g>
</svg:g>
<svg:g>
</svg:g>
<svg:g>
</svg:g>
<svg:g>
</svg:g>
</svg:g>
<svg:g style="fill:#000000; fill-opacity:0.0;  stroke:#000000; stroke-width:0.000000; stroke-opacity:1;  stroke-linecap:round; stroke-linejoin:round;">
<svg:g>
</svg:g>
<svg:g>
</svg:g>
<svg:g>
</svg:g>
<svg:g>
</svg:g>
</svg:g> 
</svg:g><svg:g><svg:title>SVG Picture created as kicadBoard-F_Courtyard.svg date 2022/12/01 23:51:53 </svg:title>
  <svg:desc>Picture generated by PCBNEW </svg:desc>
<svg:g style="fill:#000000; fill-opacity:1.000000;stroke:#000000; stroke-opacity:1.000000; stroke-linecap:round; stroke-linejoin:round;" transform="translate(0 0) scale(1 1)">
</svg:g>
<svg:g style="fill:#000000; fill-opacity:0.0;  stroke:#000000; stroke-width:0.000000; stroke-opacity:1;  stroke-linecap:round; stroke-linejoin:round;">
</svg:g>
<svg:g style="fill:#FF26E2; fill-opacity:0.0;  stroke:#FF26E2; stroke-width:0.000000; stroke-opacity:1;  stroke-linecap:round; stroke-linejoin:round;">
</svg:g>
<svg:g style="fill:#FF26E2; fill-opacity:0.0;  stroke:#FF26E2; stroke-width:50000.000000; stroke-opacity:1;  stroke-linecap:round; stroke-linejoin:round;">
<svg:path d="M56040000 55400000 L43960000 55400000 "/>
<svg:path d="M43960000 44600000 L56040000 44600000 "/>
<svg:path d="M56040000 55400000 L56040000 44600000 "/>
<svg:path d="M43960000 44600000 L43960000 55400000 "/>
<svg:g>
</svg:g>
<svg:g>
</svg:g>
<svg:g>
</svg:g>
<svg:g>
</svg:g>
</svg:g>
<svg:g style="fill:#000000; fill-opacity:0.0;  stroke:#000000; stroke-width:50000.000000; stroke-opacity:1;  stroke-linecap:round; stroke-linejoin:round;">
<svg:g>
</svg:g>
<svg:g>
</svg:g>
<svg:g>
</svg:g>
<svg:g>
</svg:g>
</svg:g> 
</svg:g><svg:g><svg:title>SVG Picture created as kicadBoard-F_Cu.svg date 2022/12/01 23:51:53 </svg:title>
  <svg:desc>Picture generated by PCBNEW </svg:desc>
<svg:g style="fill:#000000; fill-opacity:1.000000;stroke:#000000; stroke-opacity:1.000000; stroke-linecap:round; stroke-linejoin:round;" transform="translate(0 0) scale(1 1)">
</svg:g>
<svg:g style="fill:#000000; fill-opacity:0.0;  stroke:#000000; stroke-width:0.000000; stroke-opacity:1;  stroke-linecap:round; stroke-linejoin:round;">
<svg:g>
</svg:g>
<svg:g style="fill:#C83434; fill-opacity:0.0;  stroke:#C83434; stroke-width:0.000000; stroke-opacity:1;  stroke-linecap:round; stroke-linejoin:round;">
</svg:g>
<svg:g style="fill:#C83434; fill-opacity:0.0;  stroke:#C83434; stroke-width:1.000000; stroke-opacity:1;  stroke-linecap:round; stroke-linejoin:round;">
</svg:g>
<svg:g style="fill:#C83434; fill-opacity:1.0;  stroke:#C83434; stroke-width:1.000000; stroke-opacity:1;  stroke-linecap:round; stroke-linejoin:round;">
<svg:path style="fill:#C83434; fill-opacity:1.0;  stroke:#C83434; stroke-width:1.000000; stroke-opacity:1;  stroke-linecap:round; stroke-linejoin:round;fill-rule:evenodd;" d="M 44217501.000000,45924999.000000 44217501.000000,45575001.000000 45917499.000000,45575001.000000 45917499.000000,45924999.000000 Z"/> 
<svg:path style="fill:#C83434; fill-opacity:1.0;  stroke:#C83434; stroke-width:1.000000; stroke-opacity:1;  stroke-linecap:round; stroke-linejoin:round;fill-rule:evenodd;" d="M 44217501.000000,46424999.000000 44217501.000000,46075001.000000 45917499.000000,46075001.000000 45917499.000000,46424999.000000 Z"/> 
<svg:path style="fill:#C83434; fill-opacity:1.0;  stroke:#C83434; stroke-width:1.000000; stroke-opacity:1;  stroke-linecap:round; stroke-linejoin:round;fill-rule:evenodd;" d="M 44217501.000000,46924999.000000 44217501.000000,46575001.000000 45917499.000000,46575001.000000 45917499.000000,46924999.000000 Z"/> 
<svg:path style="fill:#C83434; fill-opacity:1.0;  stroke:#C83434; stroke-width:1.000000; stroke-opacity:1;  stroke-linecap:round; stroke-linejoin:round;fill-rule:evenodd;" d="M 44217501.000000,47424999.000000 44217501.000000,47075001.000000 45917499.000000,47075001.000000 45917499.000000,47424999.000000 Z"/> 
<svg:path style="fill:#C83434; fill-opacity:1.0;  stroke:#C83434; stroke-width:1.000000; stroke-opacity:1;  stroke-linecap:round; stroke-linejoin:round;fill-rule:evenodd;" d="M 44217501.000000,47924999.000000 44217501.000000,47575001.000000 45917499.000000,47575001.000000 45917499.000000,47924999.000000 Z"/> 
<svg:path style="fill:#C83434; fill-opacity:1.0;  stroke:#C83434; stroke-width:1.000000; stroke-opacity:1;  stroke-linecap:round; stroke-linejoin:round;fill-rule:evenodd;" d="M 44217501.000000,48424999.000000 44217501.000000,48075001.000000 45917499.000000,48075001.000000 45917499.000000,48424999.000000 Z"/> 
<svg:path style="fill:#C83434; fill-opacity:1.0;  stroke:#C83434; stroke-width:1.000000; stroke-opacity:1;  stroke-linecap:round; stroke-linejoin:round;fill-rule:evenodd;" d="M 44217501.000000,48924999.000000 44217501.000000,48575001.000000 45917499.000000,48575001.000000 45917499.000000,48924999.000000 Z"/> 
<svg:path style="fill:#C83434; fill-opacity:1.0;  stroke:#C83434; stroke-width:1.000000; stroke-opacity:1;  stroke-linecap:round; stroke-linejoin:round;fill-rule:evenodd;" d="M 44217501.000000,49424999.000000 44217501.000000,49075001.000000 45917499.000000,49075001.000000 45917499.000000,49424999.000000 Z"/> 
<svg:path style="fill:#C83434; fill-opacity:1.0;  stroke:#C83434; stroke-width:1.000000; stroke-opacity:1;  stroke-linecap:round; stroke-linejoin:round;fill-rule:evenodd;" d="M 44217501.000000,49924999.000000 44217501.000000,49575001.000000 45917499.000000,49575001.000000 45917499.000000,49924999.000000 Z"/> 
<svg:path style="fill:#C83434; fill-opacity:1.0;  stroke:#C83434; stroke-width:1.000000; stroke-opacity:1;  stroke-linecap:round; stroke-linejoin:round;fill-rule:evenodd;" d="M 44217501.000000,50424999.000000 44217501.000000,50075001.000000 45917499.000000,50075001.000000 45917499.000000,50424999.000000 Z"/> 
<svg:path style="fill:#C83434; fill-opacity:1.0;  stroke:#C83434; stroke-width:1.000000; stroke-opacity:1;  stroke-linecap:round; stroke-linejoin:round;fill-rule:evenodd;" d="M 44217501.000000,50924999.000000 44217501.000000,50575001.000000 45917499.000000,50575001.000000 45917499.000000,50924999.000000 Z"/> 
<svg:path style="fill:#C83434; fill-opacity:1.0;  stroke:#C83434; stroke-width:1.000000; stroke-opacity:1;  stroke-linecap:round; stroke-linejoin:round;fill-rule:evenodd;" d="M 44217501.000000,51424999.000000 44217501.000000,51075001.000000 45917499.000000,51075001.000000 45917499.000000,51424999.000000 Z"/> 
<svg:path style="fill:#C83434; fill-opacity:1.0;  stroke:#C83434; stroke-width:1.000000; stroke-opacity:1;  stroke-linecap:round; stroke-linejoin:round;fill-rule:evenodd;" d="M 44217501.000000,51924999.000000 44217501.000000,51575001.000000 45917499.000000,51575001.000000 45917499.000000,51924999.000000 Z"/> 
<svg:path style="fill:#C83434; fill-opacity:1.0;  stroke:#C83434; stroke-width:1.000000; stroke-opacity:1;  stroke-linecap:round; stroke-linejoin:round;fill-rule:evenodd;" d="M 44217501.000000,52424999.000000 44217501.000000,52075001.000000 45917499.000000,52075001.000000 45917499.000000,52424999.000000 Z"/> 
<svg:path style="fill:#C83434; fill-opacity:1.0;  stroke:#C83434; stroke-width:1.000000; stroke-opacity:1;  stroke-linecap:round; stroke-linejoin:round;fill-rule:evenodd;" d="M 44217501.000000,52924999.000000 44217501.000000,52575001.000000 45917499.000000,52575001.000000 45917499.000000,52924999.000000 Z"/> 
<svg:path style="fill:#C83434; fill-opacity:1.0;  stroke:#C83434; stroke-width:1.000000; stroke-opacity:1;  stroke-linecap:round; stroke-linejoin:round;fill-rule:evenodd;" d="M 44217501.000000,53424999.000000 44217501.000000,53075001.000000 45917499.000000,53075001.000000 45917499.000000,53424999.000000 Z"/> 
<svg:path style="fill:#C83434; fill-opacity:1.0;  stroke:#C83434; stroke-width:1.000000; stroke-opacity:1;  stroke-linecap:round; stroke-linejoin:round;fill-rule:evenodd;" d="M 44217501.000000,53924999.000000 44217501.000000,53575001.000000 45917499.000000,53575001.000000 45917499.000000,53924999.000000 Z"/> 
<svg:path style="fill:#C83434; fill-opacity:1.0;  stroke:#C83434; stroke-width:1.000000; stroke-opacity:1;  stroke-linecap:round; stroke-linejoin:round;fill-rule:evenodd;" d="M 44217501.000000,54424999.000000 44217501.000000,54075001.000000 45917499.000000,54075001.000000 45917499.000000,54424999.000000 Z"/> 
<svg:path style="fill:#C83434; fill-opacity:1.0;  stroke:#C83434; stroke-width:1.000000; stroke-opacity:1;  stroke-linecap:round; stroke-linejoin:round;fill-rule:evenodd;" d="M 54082501.000000,54424999.000000 54082501.000000,54075001.000000 55782499.000000,54075001.000000 55782499.000000,54424999.000000 Z"/> 
<svg:path style="fill:#C83434; fill-opacity:1.0;  stroke:#C83434; stroke-width:1.000000; stroke-opacity:1;  stroke-linecap:round; stroke-linejoin:round;fill-rule:evenodd;" d="M 54082501.000000,53924999.000000 54082501.000000,53575001.000000 55782499.000000,53575001.000000 55782499.000000,53924999.000000 Z"/> 
<svg:path style="fill:#C83434; fill-opacity:1.0;  stroke:#C83434; stroke-width:1.000000; stroke-opacity:1;  stroke-linecap:round; stroke-linejoin:round;fill-rule:evenodd;" d="M 54082501.000000,53424999.000000 54082501.000000,53075001.000000 55782499.000000,53075001.000000 55782499.000000,53424999.000000 Z"/> 
<svg:path style="fill:#C83434; fill-opacity:1.0;  stroke:#C83434; stroke-width:1.000000; stroke-opacity:1;  stroke-linecap:round; stroke-linejoin:round;fill-rule:evenodd;" d="M 54082501.000000,52924999.000000 54082501.000000,52575001.000000 55782499.000000,52575001.000000 55782499.000000,52924999.000000 Z"/> 
<svg:path style="fill:#C83434; fill-opacity:1.0;  stroke:#C83434; stroke-width:1.000000; stroke-opacity:1;  stroke-linecap:round; stroke-linejoin:round;fill-rule:evenodd;" d="M 54082501.000000,52424999.000000 54082501.000000,52075001.000000 55782499.000000,52075001.000000 55782499.000000,52424999.000000 Z"/> 
<svg:path style="fill:#C83434; fill-opacity:1.0;  stroke:#C83434; stroke-width:1.000000; stroke-opacity:1;  stroke-linecap:round; stroke-linejoin:round;fill-rule:evenodd;" d="M 54082501.000000,51924999.000000 54082501.000000,51575001.000000 55782499.000000,51575001.000000 55782499.000000,51924999.000000 Z"/> 
<svg:path style="fill:#C83434; fill-opacity:1.0;  stroke:#C83434; stroke-width:1.000000; stroke-opacity:1;  stroke-linecap:round; stroke-linejoin:round;fill-rule:evenodd;" d="M 54082501.000000,51424999.000000 54082501.000000,51075001.000000 55782499.000000,51075001.000000 55782499.000000,51424999.000000 Z"/> 
<svg:path style="fill:#C83434; fill-opacity:1.0;  stroke:#C83434; stroke-width:1.000000; stroke-opacity:1;  stroke-linecap:round; stroke-linejoin:round;fill-rule:evenodd;" d="M 54082501.000000,50924999.000000 54082501.000000,50575001.000000 55782499.000000,50575001.000000 55782499.000000,50924999.000000 Z"/> 
<svg:path style="fill:#C83434; fill-opacity:1.0;  stroke:#C83434; stroke-width:1.000000; stroke-opacity:1;  stroke-linecap:round; stroke-linejoin:round;fill-rule:evenodd;" d="M 54082501.000000,50424999.000000 54082501.000000,50075001.000000 55782499.000000,50075001.000000 55782499.000000,50424999.000000 Z"/> 
<svg:path style="fill:#C83434; fill-opacity:1.0;  stroke:#C83434; stroke-width:1.000000; stroke-opacity:1;  stroke-linecap:round; stroke-linejoin:round;fill-rule:evenodd;" d="M 54082501.000000,49924999.000000 54082501.000000,49575001.000000 55782499.000000,49575001.000000 55782499.000000,49924999.000000 Z"/> 
<svg:path style="fill:#C83434; fill-opacity:1.0;  stroke:#C83434; stroke-width:1.000000; stroke-opacity:1;  stroke-linecap:round; stroke-linejoin:round;fill-rule:evenodd;" d="M 54082501.000000,49424999.000000 54082501.000000,49075001.000000 55782499.000000,49075001.000000 55782499.000000,49424999.000000 Z"/> 
<svg:path style="fill:#C83434; fill-opacity:1.0;  stroke:#C83434; stroke-width:1.000000; stroke-opacity:1;  stroke-linecap:round; stroke-linejoin:round;fill-rule:evenodd;" d="M 54082501.000000,48924999.000000 54082501.000000,48575001.000000 55782499.000000,48575001.000000 55782499.000000,48924999.000000 Z"/> 
<svg:path style="fill:#C83434; fill-opacity:1.0;  stroke:#C83434; stroke-width:1.000000; stroke-opacity:1;  stroke-linecap:round; stroke-linejoin:round;fill-rule:evenodd;" d="M 54082501.000000,48424999.000000 54082501.000000,48075001.000000 55782499.000000,48075001.000000 55782499.000000,48424999.000000 Z"/> 
<svg:path style="fill:#C83434; fill-opacity:1.0;  stroke:#C83434; stroke-width:1.000000; stroke-opacity:1;  stroke-linecap:round; stroke-linejoin:round;fill-rule:evenodd;" d="M 54082501.000000,47924999.000000 54082501.000000,47575001.000000 55782499.000000,47575001.000000 55782499.000000,47924999.000000 Z"/> 
<svg:path style="fill:#C83434; fill-opacity:1.0;  stroke:#C83434; stroke-width:1.000000; stroke-opacity:1;  stroke-linecap:round; stroke-linejoin:round;fill-rule:evenodd;" d="M 54082501.000000,47424999.000000 54082501.000000,47075001.000000 55782499.000000,47075001.000000 55782499.000000,47424999.000000 Z"/> 
<svg:path style="fill:#C83434; fill-opacity:1.0;  stroke:#C83434; stroke-width:1.000000; stroke-opacity:1;  stroke-linecap:round; stroke-linejoin:round;fill-rule:evenodd;" d="M 54082501.000000,46924999.000000 54082501.000000,46575001.000000 55782499.000000,46575001.000000 55782499.000000,46924999.000000 Z"/> 
<svg:path style="fill:#C83434; fill-opacity:1.0;  stroke:#C83434; stroke-width:1.000000; stroke-opacity:1;  stroke-linecap:round; stroke-linejoin:round;fill-rule:evenodd;" d="M 54082501.000000,46424999.000000 54082501.000000,46075001.000000 55782499.000000,46075001.000000 55782499.000000,46424999.000000 Z"/> 
<svg:path style="fill:#C83434; fill-opacity:1.0;  stroke:#C83434; stroke-width:1.000000; stroke-opacity:1;  stroke-linecap:round; stroke-linejoin:round;fill-rule:evenodd;" d="M 54082501.000000,45924999.000000 54082501.000000,45575001.000000 55782499.000000,45575001.000000 55782499.000000,45924999.000000 Z"/> 
<svg:path style="fill:#C83434; fill-opacity:1.0;  stroke:#C83434; stroke-width:1.000000; stroke-opacity:1;  stroke-linecap:round; stroke-linejoin:round;fill-rule:evenodd;" d="M 47400001.000000,53749999.000000 47400001.000000,46250001.000000 52599999.000000,46250001.000000 52599999.000000,53749999.000000 Z"/> 
</svg:g>
<svg:g>
</svg:g>
<svg:g>
</svg:g>
<svg:g>
</svg:g>
</svg:g>
<svg:g style="fill:#FFFFFF; fill-opacity:1.0;  stroke:#FFFFFF; stroke-width:1.000000; stroke-opacity:1;  stroke-linecap:round; stroke-linejoin:round;">
</svg:g>
<svg:g style="fill:#000000; fill-opacity:1.0;  stroke:#000000; stroke-width:1.000000; stroke-opacity:1;  stroke-linecap:round; stroke-linejoin:round;">
<svg:g>
</svg:g>
<svg:g>
</svg:g>
<svg:g>
</svg:g>
<svg:g>
</svg:g>
</svg:g> 
</svg:g><svg:g><svg:title>SVG Picture created as kicadBoard-F_Fab.svg date 2022/12/01 23:51:53 </svg:title>
  <svg:desc>Picture generated by PCBNEW </svg:desc>
<svg:g style="fill:#000000; fill-opacity:1.000000;stroke:#000000; stroke-opacity:1.000000; stroke-linecap:round; stroke-linejoin:round;" transform="translate(0 0) scale(1 1)">
</svg:g>
<svg:g style="fill:#000000; fill-opacity:0.0;  stroke:#000000; stroke-width:0.000000; stroke-opacity:1;  stroke-linecap:round; stroke-linejoin:round;">
</svg:g>
<svg:g style="fill:#AFAFAF; fill-opacity:0.0;  stroke:#AFAFAF; stroke-width:0.000000; stroke-opacity:1;  stroke-linecap:round; stroke-linejoin:round;">
</svg:g>
<svg:g style="fill:#AFAFAF; fill-opacity:0.0;  stroke:#AFAFAF; stroke-width:150000.000000; stroke-opacity:1;  stroke-linecap:round; stroke-linejoin:round;">
<svg:text x="50000000.000000" y="56600000.000000" textLength="21099762.000000" font-size="1333333.000000" lengthAdjust="spacingAndGlyphs" text-anchor="middle" opacity="0">ST_PowerSSO-36_SlugDown</svg:text>
<svg:g class="stroked-text"><svg:desc>ST_PowerSSO-36_SlugDown</svg:desc>
<svg:path d="M39738095 56504761 L39880952 56552380 L40119047 56552380 L40214285 56504761 L40261904 56457142 L40309523 56361904 L40309523 56266666 L40261904 56171428 L40214285 56123809 L40119047 56076190 L39928571 56028571 L39833333 55980952 L39785714 55933333 L39738095 55838095 L39738095 55742857 L39785714 55647619 L39833333 55600000 L39928571 55552380 L40166666 55552380 L40309523 55600000 "/>
<svg:path d="M40595238 55552380 L41166666 55552380 "/>
<svg:path d="M40880952 56552380 L40880952 55552380 "/>
<svg:path d="M41261904 56647619 L42023809 56647619 "/>
<svg:path d="M42261904 56552380 L42261904 55552380 L42642857 55552380 L42738095 55600000 L42785714 55647619 L42833333 55742857 L42833333 55885714 L42785714 55980952 L42738095 56028571 L42642857 56076190 L42261904 56076190 "/>
<svg:path d="M43404761 56552380 L43309523 56504761 L43261904 56457142 L43214285 56361904 L43214285 56076190 L43261904 55980952 L43309523 55933333 L43404761 55885714 L43547619 55885714 L43642857 55933333 L43690476 55980952 L43738095 56076190 L43738095 56361904 L43690476 56457142 L43642857 56504761 L43547619 56552380 L43404761 56552380 "/>
<svg:path d="M44071428 55885714 L44261904 56552380 L44452380 56076190 L44642857 56552380 L44833333 55885714 "/>
<svg:path d="M45595238 56504761 L45500000 56552380 L45309523 56552380 L45214285 56504761 L45166666 56409523 L45166666 56028571 L45214285 55933333 L45309523 55885714 L45500000 55885714 L45595238 55933333 L45642857 56028571 L45642857 56123809 L45166666 56219047 "/>
<svg:path d="M46071428 56552380 L46071428 55885714 "/>
<svg:path d="M46071428 56076190 L46119047 55980952 L46166666 55933333 L46261904 55885714 L46357142 55885714 "/>
<svg:path d="M46642857 56504761 L46785714 56552380 L47023809 56552380 L47119047 56504761 L47166666 56457142 L47214285 56361904 L47214285 56266666 L47166666 56171428 L47119047 56123809 L47023809 56076190 L46833333 56028571 L46738095 55980952 L46690476 55933333 L46642857 55838095 L46642857 55742857 L46690476 55647619 L46738095 55600000 L46833333 55552380 L47071428 55552380 L47214285 55600000 "/>
<svg:path d="M47595238 56504761 L47738095 56552380 L47976190 56552380 L48071428 56504761 L48119047 56457142 L48166666 56361904 L48166666 56266666 L48119047 56171428 L48071428 56123809 L47976190 56076190 L47785714 56028571 L47690476 55980952 L47642857 55933333 L47595238 55838095 L47595238 55742857 L47642857 55647619 L47690476 55600000 L47785714 55552380 L48023809 55552380 L48166666 55600000 "/>
<svg:path d="M48785714 55552380 L48976190 55552380 L49071428 55600000 L49166666 55695238 L49214285 55885714 L49214285 56219047 L49166666 56409523 L49071428 56504761 L48976190 56552380 L48785714 56552380 L48690476 56504761 L48595238 56409523 L48547619 56219047 L48547619 55885714 L48595238 55695238 L48690476 55600000 L48785714 55552380 "/>
<svg:path d="M49642857 56171428 L50404761 56171428 "/>
<svg:path d="M50785714 55552380 L51404761 55552380 L51071428 55933333 L51214285 55933333 L51309523 55980952 L51357142 56028571 L51404761 56123809 L51404761 56361904 L51357142 56457142 L51309523 56504761 L51214285 56552380 L50928571 56552380 L50833333 56504761 L50785714 56457142 "/>
<svg:path d="M52261904 55552380 L52071428 55552380 L51976190 55600000 L51928571 55647619 L51833333 55790476 L51785714 55980952 L51785714 56361904 L51833333 56457142 L51880952 56504761 L51976190 56552380 L52166666 56552380 L52261904 56504761 L52309523 56457142 L52357142 56361904 L52357142 56123809 L52309523 56028571 L52261904 55980952 L52166666 55933333 L51976190 55933333 L51880952 55980952 L51833333 56028571 L51785714 56123809 "/>
<svg:path d="M52547619 56647619 L53309523 56647619 "/>
<svg:path d="M53499999 56504761 L53642857 56552380 L53880952 56552380 L53976190 56504761 L54023809 56457142 L54071428 56361904 L54071428 56266666 L54023809 56171428 L53976190 56123809 L53880952 56076190 L53690476 56028571 L53595238 55980952 L53547619 55933333 L53499999 55838095 L53499999 55742857 L53547619 55647619 L53595238 55600000 L53690476 55552380 L53928571 55552380 L54071428 55600000 "/>
<svg:path d="M54642857 56552380 L54547619 56504761 L54499999 56409523 L54499999 55552380 "/>
<svg:path d="M55452380 55885714 L55452380 56552380 "/>
<svg:path d="M55023809 55885714 L55023809 56409523 L55071428 56504761 L55166666 56552380 L55309523 56552380 L55404761 56504761 L55452380 56457142 "/>
<svg:path d="M56357142 55885714 L56357142 56695238 L56309523 56790476 L56261904 56838095 L56166666 56885714 L56023809 56885714 L55928571 56838095 "/>
<svg:path d="M56357142 56504761 L56261904 56552380 L56071428 56552380 L55976190 56504761 L55928571 56457142 L55880952 56361904 L55880952 56076190 L55928571 55980952 L55976190 55933333 L56071428 55885714 L56261904 55885714 L56357142 55933333 "/>
<svg:path d="M56833333 56552380 L56833333 55552380 L57071428 55552380 L57214285 55600000 L57309523 55695238 L57357142 55790476 L57404761 55980952 L57404761 56123809 L57357142 56314285 L57309523 56409523 L57214285 56504761 L57071428 56552380 L56833333 56552380 "/>
<svg:path d="M57976190 56552380 L57880952 56504761 L57833333 56457142 L57785714 56361904 L57785714 56076190 L57833333 55980952 L57880952 55933333 L57976190 55885714 L58119047 55885714 L58214285 55933333 L58261904 55980952 L58309523 56076190 L58309523 56361904 L58261904 56457142 L58214285 56504761 L58119047 56552380 L57976190 56552380 "/>
<svg:path d="M58642857 55885714 L58833333 56552380 L59023809 56076190 L59214285 56552380 L59404761 55885714 "/>
<svg:path d="M59785714 55885714 L59785714 56552380 "/>
<svg:path d="M59785714 55980952 L59833333 55933333 L59928571 55885714 L60071428 55885714 L60166666 55933333 L60214285 56028571 L60214285 56552380 "/>
</svg:g><svg:text x="50000000.000000" y="50500000.000000" textLength="24718810.000000" font-size="1333333.000000" lengthAdjust="spacingAndGlyphs" text-anchor="middle" opacity="0">FZKSOSTPOWERSSO36SLUGDOWN</svg:text>
<svg:g class="stroked-text"><svg:desc>FZKSOSTPOWERSSO36SLUGDOWN</svg:desc>
<svg:path d="M38309523 49928571 L37976190 49928571 "/>
<svg:path d="M37976190 50452380 L37976190 49452380 L38452380 49452380 "/>
<svg:path d="M38738095 49452380 L39404761 49452380 L38738095 50452380 L39404761 50452380 "/>
<svg:path d="M39785714 50452380 L39785714 49452380 "/>
<svg:path d="M40357142 50452380 L39928571 49880952 "/>
<svg:path d="M40357142 49452380 L39785714 50023809 "/>
<svg:path d="M40738095 50404761 L40880952 50452380 L41119047 50452380 L41214285 50404761 L41261904 50357142 L41309523 50261904 L41309523 50166666 L41261904 50071428 L41214285 50023809 L41119047 49976190 L40928571 49928571 L40833333 49880952 L40785714 49833333 L40738095 49738095 L40738095 49642857 L40785714 49547619 L40833333 49500000 L40928571 49452380 L41166666 49452380 L41309523 49500000 "/>
<svg:path d="M41928571 49452380 L42119047 49452380 L42214285 49500000 L42309523 49595238 L42357142 49785714 L42357142 50119047 L42309523 50309523 L42214285 50404761 L42119047 50452380 L41928571 50452380 L41833333 50404761 L41738095 50309523 L41690476 50119047 L41690476 49785714 L41738095 49595238 L41833333 49500000 L41928571 49452380 "/>
<svg:path d="M42738095 50404761 L42880952 50452380 L43119047 50452380 L43214285 50404761 L43261904 50357142 L43309523 50261904 L43309523 50166666 L43261904 50071428 L43214285 50023809 L43119047 49976190 L42928571 49928571 L42833333 49880952 L42785714 49833333 L42738095 49738095 L42738095 49642857 L42785714 49547619 L42833333 49500000 L42928571 49452380 L43166666 49452380 L43309523 49500000 "/>
<svg:path d="M43595238 49452380 L44166666 49452380 "/>
<svg:path d="M43880952 50452380 L43880952 49452380 "/>
<svg:path d="M44500000 50452380 L44500000 49452380 L44880952 49452380 L44976190 49500000 L45023809 49547619 L45071428 49642857 L45071428 49785714 L45023809 49880952 L44976190 49928571 L44880952 49976190 L44500000 49976190 "/>
<svg:path d="M45690476 49452380 L45880952 49452380 L45976190 49500000 L46071428 49595238 L46119047 49785714 L46119047 50119047 L46071428 50309523 L45976190 50404761 L45880952 50452380 L45690476 50452380 L45595238 50404761 L45500000 50309523 L45452380 50119047 L45452380 49785714 L45500000 49595238 L45595238 49500000 L45690476 49452380 "/>
<svg:path d="M46452380 49452380 L46690476 50452380 L46880952 49738095 L47071428 50452380 L47309523 49452380 "/>
<svg:path d="M47690476 49928571 L48023809 49928571 "/>
<svg:path d="M48166666 50452380 L47690476 50452380 L47690476 49452380 L48166666 49452380 "/>
<svg:path d="M49166666 50452380 L48833333 49976190 "/>
<svg:path d="M48595238 50452380 L48595238 49452380 L48976190 49452380 L49071428 49500000 L49119047 49547619 L49166666 49642857 L49166666 49785714 L49119047 49880952 L49071428 49928571 L48976190 49976190 L48595238 49976190 "/>
<svg:path d="M49547619 50404761 L49690476 50452380 L49928571 50452380 L50023809 50404761 L50071428 50357142 L50119047 50261904 L50119047 50166666 L50071428 50071428 L50023809 50023809 L49928571 49976190 L49738095 49928571 L49642857 49880952 L49595238 49833333 L49547619 49738095 L49547619 49642857 L49595238 49547619 L49642857 49500000 L49738095 49452380 L49976190 49452380 L50119047 49500000 "/>
<svg:path d="M50500000 50404761 L50642857 50452380 L50880952 50452380 L50976190 50404761 L51023809 50357142 L51071428 50261904 L51071428 50166666 L51023809 50071428 L50976190 50023809 L50880952 49976190 L50690476 49928571 L50595238 49880952 L50547619 49833333 L50500000 49738095 L50500000 49642857 L50547619 49547619 L50595238 49500000 L50690476 49452380 L50928571 49452380 L51071428 49500000 "/>
<svg:path d="M51690476 49452380 L51880952 49452380 L51976190 49500000 L52071428 49595238 L52119047 49785714 L52119047 50119047 L52071428 50309523 L51976190 50404761 L51880952 50452380 L51690476 50452380 L51595238 50404761 L51500000 50309523 L51452380 50119047 L51452380 49785714 L51500000 49595238 L51595238 49500000 L51690476 49452380 "/>
<svg:path d="M52452380 49452380 L53071428 49452380 L52738095 49833333 L52880952 49833333 L52976190 49880952 L53023809 49928571 L53071428 50023809 L53071428 50261904 L53023809 50357142 L52976190 50404761 L52880952 50452380 L52595238 50452380 L52500000 50404761 L52452380 50357142 "/>
<svg:path d="M53928571 49452380 L53738095 49452380 L53642857 49500000 L53595238 49547619 L53500000 49690476 L53452380 49880952 L53452380 50261904 L53500000 50357142 L53547619 50404761 L53642857 50452380 L53833333 50452380 L53928571 50404761 L53976190 50357142 L54023809 50261904 L54023809 50023809 L53976190 49928571 L53928571 49880952 L53833333 49833333 L53642857 49833333 L53547619 49880952 L53500000 49928571 L53452380 50023809 "/>
<svg:path d="M54404761 50404761 L54547619 50452380 L54785714 50452380 L54880952 50404761 L54928571 50357142 L54976190 50261904 L54976190 50166666 L54928571 50071428 L54880952 50023809 L54785714 49976190 L54595238 49928571 L54499999 49880952 L54452380 49833333 L54404761 49738095 L54404761 49642857 L54452380 49547619 L54499999 49500000 L54595238 49452380 L54833333 49452380 L54976190 49500000 "/>
<svg:path d="M55880952 50452380 L55404761 50452380 L55404761 49452380 "/>
<svg:path d="M56214285 49452380 L56214285 50261904 L56261904 50357142 L56309523 50404761 L56404761 50452380 L56595238 50452380 L56690476 50404761 L56738095 50357142 L56785714 50261904 L56785714 49452380 "/>
<svg:path d="M57785714 49500000 L57690476 49452380 L57547619 49452380 L57404761 49500000 L57309523 49595238 L57261904 49690476 L57214285 49880952 L57214285 50023809 L57261904 50214285 L57309523 50309523 L57404761 50404761 L57547619 50452380 L57642857 50452380 L57785714 50404761 L57833333 50357142 L57833333 50023809 L57642857 50023809 "/>
<svg:path d="M58261904 50452380 L58261904 49452380 L58500000 49452380 L58642857 49500000 L58738095 49595238 L58785714 49690476 L58833333 49880952 L58833333 50023809 L58785714 50214285 L58738095 50309523 L58642857 50404761 L58500000 50452380 L58261904 50452380 "/>
<svg:path d="M59452380 49452380 L59642857 49452380 L59738095 49500000 L59833333 49595238 L59880952 49785714 L59880952 50119047 L59833333 50309523 L59738095 50404761 L59642857 50452380 L59452380 50452380 L59357142 50404761 L59261904 50309523 L59214285 50119047 L59214285 49785714 L59261904 49595238 L59357142 49500000 L59452380 49452380 "/>
<svg:path d="M60214285 49452380 L60452380 50452380 L60642857 49738095 L60833333 50452380 L61071428 49452380 "/>
<svg:path d="M61452380 50452380 L61452380 49452380 L62023809 50452380 L62023809 49452380 "/>
</svg:g></svg:g>
<svg:g style="fill:#AFAFAF; fill-opacity:0.0;  stroke:#AFAFAF; stroke-width:100000.000000; stroke-opacity:1;  stroke-linecap:round; stroke-linejoin:round;">
<svg:path d="M46250000 45850000 L46250000 55150000 "/>
<svg:path d="M53750000 55150000 L53750000 44850000 "/>
<svg:path d="M53750000 44850000 L47250000 44850000 "/>
<svg:path d="M47250000 44850000 L46250000 45850000 "/>
<svg:path d="M46250000 55150000 L53750000 55150000 "/>
<svg:g>
</svg:g>
<svg:g>
</svg:g>
<svg:g>
</svg:g>
<svg:g>
</svg:g>
</svg:g>
<svg:g style="fill:#000000; fill-opacity:0.0;  stroke:#000000; stroke-width:100000.000000; stroke-opacity:1;  stroke-linecap:round; stroke-linejoin:round;">
<svg:g>
</svg:g>
<svg:g>
</svg:g>
<svg:g>
</svg:g>
<svg:g>
</svg:g>
</svg:g> 
</svg:g><svg:g><svg:title>SVG Picture created as kicadBoard-F_Mask.svg date 2022/12/01 23:51:53 </svg:title>
  <svg:desc>Picture generated by PCBNEW </svg:desc>
<svg:g style="fill:#000000; fill-opacity:1.000000;stroke:#000000; stroke-opacity:1.000000; stroke-linecap:round; stroke-linejoin:round;" transform="translate(0 0) scale(1 1)">
</svg:g>
<svg:g style="fill:#000000; fill-opacity:0.0;  stroke:#000000; stroke-width:0.000000; stroke-opacity:1;  stroke-linecap:round; stroke-linejoin:round;">
<svg:g>
</svg:g>
<svg:g style="fill:#000000; fill-opacity:0.0;  stroke:#000000; stroke-width:1.000000; stroke-opacity:1;  stroke-linecap:round; stroke-linejoin:round;">
</svg:g>
<svg:g style="fill:#000000; fill-opacity:1.0;  stroke:#000000; stroke-width:1.000000; stroke-opacity:1;  stroke-linecap:round; stroke-linejoin:round;">
<svg:path style="fill:#000000; fill-opacity:1.0;  stroke:#000000; stroke-width:1.000000; stroke-opacity:1;  stroke-linecap:round; stroke-linejoin:round;fill-rule:evenodd;" d="M 44217501.000000,45924999.000000 44217501.000000,45575001.000000 45917499.000000,45575001.000000 45917499.000000,45924999.000000 Z"/> 
<svg:path style="fill:#000000; fill-opacity:1.0;  stroke:#000000; stroke-width:1.000000; stroke-opacity:1;  stroke-linecap:round; stroke-linejoin:round;fill-rule:evenodd;" d="M 44217501.000000,46424999.000000 44217501.000000,46075001.000000 45917499.000000,46075001.000000 45917499.000000,46424999.000000 Z"/> 
<svg:path style="fill:#000000; fill-opacity:1.0;  stroke:#000000; stroke-width:1.000000; stroke-opacity:1;  stroke-linecap:round; stroke-linejoin:round;fill-rule:evenodd;" d="M 44217501.000000,46924999.000000 44217501.000000,46575001.000000 45917499.000000,46575001.000000 45917499.000000,46924999.000000 Z"/> 
<svg:path style="fill:#000000; fill-opacity:1.0;  stroke:#000000; stroke-width:1.000000; stroke-opacity:1;  stroke-linecap:round; stroke-linejoin:round;fill-rule:evenodd;" d="M 44217501.000000,47424999.000000 44217501.000000,47075001.000000 45917499.000000,47075001.000000 45917499.000000,47424999.000000 Z"/> 
<svg:path style="fill:#000000; fill-opacity:1.0;  stroke:#000000; stroke-width:1.000000; stroke-opacity:1;  stroke-linecap:round; stroke-linejoin:round;fill-rule:evenodd;" d="M 44217501.000000,47924999.000000 44217501.000000,47575001.000000 45917499.000000,47575001.000000 45917499.000000,47924999.000000 Z"/> 
<svg:path style="fill:#000000; fill-opacity:1.0;  stroke:#000000; stroke-width:1.000000; stroke-opacity:1;  stroke-linecap:round; stroke-linejoin:round;fill-rule:evenodd;" d="M 44217501.000000,48424999.000000 44217501.000000,48075001.000000 45917499.000000,48075001.000000 45917499.000000,48424999.000000 Z"/> 
<svg:path style="fill:#000000; fill-opacity:1.0;  stroke:#000000; stroke-width:1.000000; stroke-opacity:1;  stroke-linecap:round; stroke-linejoin:round;fill-rule:evenodd;" d="M 44217501.000000,48924999.000000 44217501.000000,48575001.000000 45917499.000000,48575001.000000 45917499.000000,48924999.000000 Z"/> 
<svg:path style="fill:#000000; fill-opacity:1.0;  stroke:#000000; stroke-width:1.000000; stroke-opacity:1;  stroke-linecap:round; stroke-linejoin:round;fill-rule:evenodd;" d="M 44217501.000000,49424999.000000 44217501.000000,49075001.000000 45917499.000000,49075001.000000 45917499.000000,49424999.000000 Z"/> 
<svg:path style="fill:#000000; fill-opacity:1.0;  stroke:#000000; stroke-width:1.000000; stroke-opacity:1;  stroke-linecap:round; stroke-linejoin:round;fill-rule:evenodd;" d="M 44217501.000000,49924999.000000 44217501.000000,49575001.000000 45917499.000000,49575001.000000 45917499.000000,49924999.000000 Z"/> 
<svg:path style="fill:#000000; fill-opacity:1.0;  stroke:#000000; stroke-width:1.000000; stroke-opacity:1;  stroke-linecap:round; stroke-linejoin:round;fill-rule:evenodd;" d="M 44217501.000000,50424999.000000 44217501.000000,50075001.000000 45917499.000000,50075001.000000 45917499.000000,50424999.000000 Z"/> 
<svg:path style="fill:#000000; fill-opacity:1.0;  stroke:#000000; stroke-width:1.000000; stroke-opacity:1;  stroke-linecap:round; stroke-linejoin:round;fill-rule:evenodd;" d="M 44217501.000000,50924999.000000 44217501.000000,50575001.000000 45917499.000000,50575001.000000 45917499.000000,50924999.000000 Z"/> 
<svg:path style="fill:#000000; fill-opacity:1.0;  stroke:#000000; stroke-width:1.000000; stroke-opacity:1;  stroke-linecap:round; stroke-linejoin:round;fill-rule:evenodd;" d="M 44217501.000000,51424999.000000 44217501.000000,51075001.000000 45917499.000000,51075001.000000 45917499.000000,51424999.000000 Z"/> 
<svg:path style="fill:#000000; fill-opacity:1.0;  stroke:#000000; stroke-width:1.000000; stroke-opacity:1;  stroke-linecap:round; stroke-linejoin:round;fill-rule:evenodd;" d="M 44217501.000000,51924999.000000 44217501.000000,51575001.000000 45917499.000000,51575001.000000 45917499.000000,51924999.000000 Z"/> 
<svg:path style="fill:#000000; fill-opacity:1.0;  stroke:#000000; stroke-width:1.000000; stroke-opacity:1;  stroke-linecap:round; stroke-linejoin:round;fill-rule:evenodd;" d="M 44217501.000000,52424999.000000 44217501.000000,52075001.000000 45917499.000000,52075001.000000 45917499.000000,52424999.000000 Z"/> 
<svg:path style="fill:#000000; fill-opacity:1.0;  stroke:#000000; stroke-width:1.000000; stroke-opacity:1;  stroke-linecap:round; stroke-linejoin:round;fill-rule:evenodd;" d="M 44217501.000000,52924999.000000 44217501.000000,52575001.000000 45917499.000000,52575001.000000 45917499.000000,52924999.000000 Z"/> 
<svg:path style="fill:#000000; fill-opacity:1.0;  stroke:#000000; stroke-width:1.000000; stroke-opacity:1;  stroke-linecap:round; stroke-linejoin:round;fill-rule:evenodd;" d="M 44217501.000000,53424999.000000 44217501.000000,53075001.000000 45917499.000000,53075001.000000 45917499.000000,53424999.000000 Z"/> 
<svg:path style="fill:#000000; fill-opacity:1.0;  stroke:#000000; stroke-width:1.000000; stroke-opacity:1;  stroke-linecap:round; stroke-linejoin:round;fill-rule:evenodd;" d="M 44217501.000000,53924999.000000 44217501.000000,53575001.000000 45917499.000000,53575001.000000 45917499.000000,53924999.000000 Z"/> 
<svg:path style="fill:#000000; fill-opacity:1.0;  stroke:#000000; stroke-width:1.000000; stroke-opacity:1;  stroke-linecap:round; stroke-linejoin:round;fill-rule:evenodd;" d="M 44217501.000000,54424999.000000 44217501.000000,54075001.000000 45917499.000000,54075001.000000 45917499.000000,54424999.000000 Z"/> 
<svg:path style="fill:#000000; fill-opacity:1.0;  stroke:#000000; stroke-width:1.000000; stroke-opacity:1;  stroke-linecap:round; stroke-linejoin:round;fill-rule:evenodd;" d="M 54082501.000000,54424999.000000 54082501.000000,54075001.000000 55782499.000000,54075001.000000 55782499.000000,54424999.000000 Z"/> 
<svg:path style="fill:#000000; fill-opacity:1.0;  stroke:#000000; stroke-width:1.000000; stroke-opacity:1;  stroke-linecap:round; stroke-linejoin:round;fill-rule:evenodd;" d="M 54082501.000000,53924999.000000 54082501.000000,53575001.000000 55782499.000000,53575001.000000 55782499.000000,53924999.000000 Z"/> 
<svg:path style="fill:#000000; fill-opacity:1.0;  stroke:#000000; stroke-width:1.000000; stroke-opacity:1;  stroke-linecap:round; stroke-linejoin:round;fill-rule:evenodd;" d="M 54082501.000000,53424999.000000 54082501.000000,53075001.000000 55782499.000000,53075001.000000 55782499.000000,53424999.000000 Z"/> 
<svg:path style="fill:#000000; fill-opacity:1.0;  stroke:#000000; stroke-width:1.000000; stroke-opacity:1;  stroke-linecap:round; stroke-linejoin:round;fill-rule:evenodd;" d="M 54082501.000000,52924999.000000 54082501.000000,52575001.000000 55782499.000000,52575001.000000 55782499.000000,52924999.000000 Z"/> 
<svg:path style="fill:#000000; fill-opacity:1.0;  stroke:#000000; stroke-width:1.000000; stroke-opacity:1;  stroke-linecap:round; stroke-linejoin:round;fill-rule:evenodd;" d="M 54082501.000000,52424999.000000 54082501.000000,52075001.000000 55782499.000000,52075001.000000 55782499.000000,52424999.000000 Z"/> 
<svg:path style="fill:#000000; fill-opacity:1.0;  stroke:#000000; stroke-width:1.000000; stroke-opacity:1;  stroke-linecap:round; stroke-linejoin:round;fill-rule:evenodd;" d="M 54082501.000000,51924999.000000 54082501.000000,51575001.000000 55782499.000000,51575001.000000 55782499.000000,51924999.000000 Z"/> 
<svg:path style="fill:#000000; fill-opacity:1.0;  stroke:#000000; stroke-width:1.000000; stroke-opacity:1;  stroke-linecap:round; stroke-linejoin:round;fill-rule:evenodd;" d="M 54082501.000000,51424999.000000 54082501.000000,51075001.000000 55782499.000000,51075001.000000 55782499.000000,51424999.000000 Z"/> 
<svg:path style="fill:#000000; fill-opacity:1.0;  stroke:#000000; stroke-width:1.000000; stroke-opacity:1;  stroke-linecap:round; stroke-linejoin:round;fill-rule:evenodd;" d="M 54082501.000000,50924999.000000 54082501.000000,50575001.000000 55782499.000000,50575001.000000 55782499.000000,50924999.000000 Z"/> 
<svg:path style="fill:#000000; fill-opacity:1.0;  stroke:#000000; stroke-width:1.000000; stroke-opacity:1;  stroke-linecap:round; stroke-linejoin:round;fill-rule:evenodd;" d="M 54082501.000000,50424999.000000 54082501.000000,50075001.000000 55782499.000000,50075001.000000 55782499.000000,50424999.000000 Z"/> 
<svg:path style="fill:#000000; fill-opacity:1.0;  stroke:#000000; stroke-width:1.000000; stroke-opacity:1;  stroke-linecap:round; stroke-linejoin:round;fill-rule:evenodd;" d="M 54082501.000000,49924999.000000 54082501.000000,49575001.000000 55782499.000000,49575001.000000 55782499.000000,49924999.000000 Z"/> 
<svg:path style="fill:#000000; fill-opacity:1.0;  stroke:#000000; stroke-width:1.000000; stroke-opacity:1;  stroke-linecap:round; stroke-linejoin:round;fill-rule:evenodd;" d="M 54082501.000000,49424999.000000 54082501.000000,49075001.000000 55782499.000000,49075001.000000 55782499.000000,49424999.000000 Z"/> 
<svg:path style="fill:#000000; fill-opacity:1.0;  stroke:#000000; stroke-width:1.000000; stroke-opacity:1;  stroke-linecap:round; stroke-linejoin:round;fill-rule:evenodd;" d="M 54082501.000000,48924999.000000 54082501.000000,48575001.000000 55782499.000000,48575001.000000 55782499.000000,48924999.000000 Z"/> 
<svg:path style="fill:#000000; fill-opacity:1.0;  stroke:#000000; stroke-width:1.000000; stroke-opacity:1;  stroke-linecap:round; stroke-linejoin:round;fill-rule:evenodd;" d="M 54082501.000000,48424999.000000 54082501.000000,48075001.000000 55782499.000000,48075001.000000 55782499.000000,48424999.000000 Z"/> 
<svg:path style="fill:#000000; fill-opacity:1.0;  stroke:#000000; stroke-width:1.000000; stroke-opacity:1;  stroke-linecap:round; stroke-linejoin:round;fill-rule:evenodd;" d="M 54082501.000000,47924999.000000 54082501.000000,47575001.000000 55782499.000000,47575001.000000 55782499.000000,47924999.000000 Z"/> 
<svg:path style="fill:#000000; fill-opacity:1.0;  stroke:#000000; stroke-width:1.000000; stroke-opacity:1;  stroke-linecap:round; stroke-linejoin:round;fill-rule:evenodd;" d="M 54082501.000000,47424999.000000 54082501.000000,47075001.000000 55782499.000000,47075001.000000 55782499.000000,47424999.000000 Z"/> 
<svg:path style="fill:#000000; fill-opacity:1.0;  stroke:#000000; stroke-width:1.000000; stroke-opacity:1;  stroke-linecap:round; stroke-linejoin:round;fill-rule:evenodd;" d="M 54082501.000000,46924999.000000 54082501.000000,46575001.000000 55782499.000000,46575001.000000 55782499.000000,46924999.000000 Z"/> 
<svg:path style="fill:#000000; fill-opacity:1.0;  stroke:#000000; stroke-width:1.000000; stroke-opacity:1;  stroke-linecap:round; stroke-linejoin:round;fill-rule:evenodd;" d="M 54082501.000000,46424999.000000 54082501.000000,46075001.000000 55782499.000000,46075001.000000 55782499.000000,46424999.000000 Z"/> 
<svg:path style="fill:#000000; fill-opacity:1.0;  stroke:#000000; stroke-width:1.000000; stroke-opacity:1;  stroke-linecap:round; stroke-linejoin:round;fill-rule:evenodd;" d="M 54082501.000000,45924999.000000 54082501.000000,45575001.000000 55782499.000000,45575001.000000 55782499.000000,45924999.000000 Z"/> 
<svg:path style="fill:#000000; fill-opacity:1.0;  stroke:#000000; stroke-width:1.000000; stroke-opacity:1;  stroke-linecap:round; stroke-linejoin:round;fill-rule:evenodd;" d="M 47400001.000000,53749999.000000 47400001.000000,46250001.000000 52599999.000000,46250001.000000 52599999.000000,53749999.000000 Z"/> 
</svg:g>
<svg:g>
</svg:g>
<svg:g>
</svg:g>
<svg:g>
</svg:g>
</svg:g>
<svg:g style="fill:#000000; fill-opacity:1.0;  stroke:#000000; stroke-width:1.000000; stroke-opacity:1;  stroke-linecap:round; stroke-linejoin:round;">
<svg:g>
</svg:g>
<svg:g>
</svg:g>
<svg:g>
</svg:g>
<svg:g>
</svg:g>
</svg:g> 
</svg:g><svg:g><svg:title>SVG Picture created as kicadBoard-F_Paste.svg date 2022/12/01 23:51:53 </svg:title>
  <svg:desc>Picture generated by PCBNEW </svg:desc>
<svg:g style="fill:#000000; fill-opacity:1.000000;stroke:#000000; stroke-opacity:1.000000; stroke-linecap:round; stroke-linejoin:round;" transform="translate(0 0) scale(1 1)">
</svg:g>
<svg:g style="fill:#000000; fill-opacity:0.0;  stroke:#000000; stroke-width:0.000000; stroke-opacity:1;  stroke-linecap:round; stroke-linejoin:round;">
<svg:g>
</svg:g>
<svg:g style="fill:#000000; fill-opacity:0.0;  stroke:#000000; stroke-width:1.000000; stroke-opacity:1;  stroke-linecap:round; stroke-linejoin:round;">
</svg:g>
<svg:g style="fill:#000000; fill-opacity:1.0;  stroke:#000000; stroke-width:1.000000; stroke-opacity:1;  stroke-linecap:round; stroke-linejoin:round;">
<svg:path style="fill:#000000; fill-opacity:1.0;  stroke:#000000; stroke-width:1.000000; stroke-opacity:1;  stroke-linecap:round; stroke-linejoin:round;fill-rule:evenodd;" d="M 44217501.000000,45924999.000000 44217501.000000,45575001.000000 45917499.000000,45575001.000000 45917499.000000,45924999.000000 Z"/> 
<svg:path style="fill:#000000; fill-opacity:1.0;  stroke:#000000; stroke-width:1.000000; stroke-opacity:1;  stroke-linecap:round; stroke-linejoin:round;fill-rule:evenodd;" d="M 44217501.000000,46424999.000000 44217501.000000,46075001.000000 45917499.000000,46075001.000000 45917499.000000,46424999.000000 Z"/> 
<svg:path style="fill:#000000; fill-opacity:1.0;  stroke:#000000; stroke-width:1.000000; stroke-opacity:1;  stroke-linecap:round; stroke-linejoin:round;fill-rule:evenodd;" d="M 44217501.000000,46924999.000000 44217501.000000,46575001.000000 45917499.000000,46575001.000000 45917499.000000,46924999.000000 Z"/> 
<svg:path style="fill:#000000; fill-opacity:1.0;  stroke:#000000; stroke-width:1.000000; stroke-opacity:1;  stroke-linecap:round; stroke-linejoin:round;fill-rule:evenodd;" d="M 44217501.000000,47424999.000000 44217501.000000,47075001.000000 45917499.000000,47075001.000000 45917499.000000,47424999.000000 Z"/> 
<svg:path style="fill:#000000; fill-opacity:1.0;  stroke:#000000; stroke-width:1.000000; stroke-opacity:1;  stroke-linecap:round; stroke-linejoin:round;fill-rule:evenodd;" d="M 44217501.000000,47924999.000000 44217501.000000,47575001.000000 45917499.000000,47575001.000000 45917499.000000,47924999.000000 Z"/> 
<svg:path style="fill:#000000; fill-opacity:1.0;  stroke:#000000; stroke-width:1.000000; stroke-opacity:1;  stroke-linecap:round; stroke-linejoin:round;fill-rule:evenodd;" d="M 44217501.000000,48424999.000000 44217501.000000,48075001.000000 45917499.000000,48075001.000000 45917499.000000,48424999.000000 Z"/> 
<svg:path style="fill:#000000; fill-opacity:1.0;  stroke:#000000; stroke-width:1.000000; stroke-opacity:1;  stroke-linecap:round; stroke-linejoin:round;fill-rule:evenodd;" d="M 44217501.000000,48924999.000000 44217501.000000,48575001.000000 45917499.000000,48575001.000000 45917499.000000,48924999.000000 Z"/> 
<svg:path style="fill:#000000; fill-opacity:1.0;  stroke:#000000; stroke-width:1.000000; stroke-opacity:1;  stroke-linecap:round; stroke-linejoin:round;fill-rule:evenodd;" d="M 44217501.000000,49424999.000000 44217501.000000,49075001.000000 45917499.000000,49075001.000000 45917499.000000,49424999.000000 Z"/> 
<svg:path style="fill:#000000; fill-opacity:1.0;  stroke:#000000; stroke-width:1.000000; stroke-opacity:1;  stroke-linecap:round; stroke-linejoin:round;fill-rule:evenodd;" d="M 44217501.000000,49924999.000000 44217501.000000,49575001.000000 45917499.000000,49575001.000000 45917499.000000,49924999.000000 Z"/> 
<svg:path style="fill:#000000; fill-opacity:1.0;  stroke:#000000; stroke-width:1.000000; stroke-opacity:1;  stroke-linecap:round; stroke-linejoin:round;fill-rule:evenodd;" d="M 44217501.000000,50424999.000000 44217501.000000,50075001.000000 45917499.000000,50075001.000000 45917499.000000,50424999.000000 Z"/> 
<svg:path style="fill:#000000; fill-opacity:1.0;  stroke:#000000; stroke-width:1.000000; stroke-opacity:1;  stroke-linecap:round; stroke-linejoin:round;fill-rule:evenodd;" d="M 44217501.000000,50924999.000000 44217501.000000,50575001.000000 45917499.000000,50575001.000000 45917499.000000,50924999.000000 Z"/> 
<svg:path style="fill:#000000; fill-opacity:1.0;  stroke:#000000; stroke-width:1.000000; stroke-opacity:1;  stroke-linecap:round; stroke-linejoin:round;fill-rule:evenodd;" d="M 44217501.000000,51424999.000000 44217501.000000,51075001.000000 45917499.000000,51075001.000000 45917499.000000,51424999.000000 Z"/> 
<svg:path style="fill:#000000; fill-opacity:1.0;  stroke:#000000; stroke-width:1.000000; stroke-opacity:1;  stroke-linecap:round; stroke-linejoin:round;fill-rule:evenodd;" d="M 44217501.000000,51924999.000000 44217501.000000,51575001.000000 45917499.000000,51575001.000000 45917499.000000,51924999.000000 Z"/> 
<svg:path style="fill:#000000; fill-opacity:1.0;  stroke:#000000; stroke-width:1.000000; stroke-opacity:1;  stroke-linecap:round; stroke-linejoin:round;fill-rule:evenodd;" d="M 44217501.000000,52424999.000000 44217501.000000,52075001.000000 45917499.000000,52075001.000000 45917499.000000,52424999.000000 Z"/> 
<svg:path style="fill:#000000; fill-opacity:1.0;  stroke:#000000; stroke-width:1.000000; stroke-opacity:1;  stroke-linecap:round; stroke-linejoin:round;fill-rule:evenodd;" d="M 44217501.000000,52924999.000000 44217501.000000,52575001.000000 45917499.000000,52575001.000000 45917499.000000,52924999.000000 Z"/> 
<svg:path style="fill:#000000; fill-opacity:1.0;  stroke:#000000; stroke-width:1.000000; stroke-opacity:1;  stroke-linecap:round; stroke-linejoin:round;fill-rule:evenodd;" d="M 44217501.000000,53424999.000000 44217501.000000,53075001.000000 45917499.000000,53075001.000000 45917499.000000,53424999.000000 Z"/> 
<svg:path style="fill:#000000; fill-opacity:1.0;  stroke:#000000; stroke-width:1.000000; stroke-opacity:1;  stroke-linecap:round; stroke-linejoin:round;fill-rule:evenodd;" d="M 44217501.000000,53924999.000000 44217501.000000,53575001.000000 45917499.000000,53575001.000000 45917499.000000,53924999.000000 Z"/> 
<svg:path style="fill:#000000; fill-opacity:1.0;  stroke:#000000; stroke-width:1.000000; stroke-opacity:1;  stroke-linecap:round; stroke-linejoin:round;fill-rule:evenodd;" d="M 44217501.000000,54424999.000000 44217501.000000,54075001.000000 45917499.000000,54075001.000000 45917499.000000,54424999.000000 Z"/> 
<svg:path style="fill:#000000; fill-opacity:1.0;  stroke:#000000; stroke-width:1.000000; stroke-opacity:1;  stroke-linecap:round; stroke-linejoin:round;fill-rule:evenodd;" d="M 54082501.000000,54424999.000000 54082501.000000,54075001.000000 55782499.000000,54075001.000000 55782499.000000,54424999.000000 Z"/> 
<svg:path style="fill:#000000; fill-opacity:1.0;  stroke:#000000; stroke-width:1.000000; stroke-opacity:1;  stroke-linecap:round; stroke-linejoin:round;fill-rule:evenodd;" d="M 54082501.000000,53924999.000000 54082501.000000,53575001.000000 55782499.000000,53575001.000000 55782499.000000,53924999.000000 Z"/> 
<svg:path style="fill:#000000; fill-opacity:1.0;  stroke:#000000; stroke-width:1.000000; stroke-opacity:1;  stroke-linecap:round; stroke-linejoin:round;fill-rule:evenodd;" d="M 54082501.000000,53424999.000000 54082501.000000,53075001.000000 55782499.000000,53075001.000000 55782499.000000,53424999.000000 Z"/> 
<svg:path style="fill:#000000; fill-opacity:1.0;  stroke:#000000; stroke-width:1.000000; stroke-opacity:1;  stroke-linecap:round; stroke-linejoin:round;fill-rule:evenodd;" d="M 54082501.000000,52924999.000000 54082501.000000,52575001.000000 55782499.000000,52575001.000000 55782499.000000,52924999.000000 Z"/> 
<svg:path style="fill:#000000; fill-opacity:1.0;  stroke:#000000; stroke-width:1.000000; stroke-opacity:1;  stroke-linecap:round; stroke-linejoin:round;fill-rule:evenodd;" d="M 54082501.000000,52424999.000000 54082501.000000,52075001.000000 55782499.000000,52075001.000000 55782499.000000,52424999.000000 Z"/> 
<svg:path style="fill:#000000; fill-opacity:1.0;  stroke:#000000; stroke-width:1.000000; stroke-opacity:1;  stroke-linecap:round; stroke-linejoin:round;fill-rule:evenodd;" d="M 54082501.000000,51924999.000000 54082501.000000,51575001.000000 55782499.000000,51575001.000000 55782499.000000,51924999.000000 Z"/> 
<svg:path style="fill:#000000; fill-opacity:1.0;  stroke:#000000; stroke-width:1.000000; stroke-opacity:1;  stroke-linecap:round; stroke-linejoin:round;fill-rule:evenodd;" d="M 54082501.000000,51424999.000000 54082501.000000,51075001.000000 55782499.000000,51075001.000000 55782499.000000,51424999.000000 Z"/> 
<svg:path style="fill:#000000; fill-opacity:1.0;  stroke:#000000; stroke-width:1.000000; stroke-opacity:1;  stroke-linecap:round; stroke-linejoin:round;fill-rule:evenodd;" d="M 54082501.000000,50924999.000000 54082501.000000,50575001.000000 55782499.000000,50575001.000000 55782499.000000,50924999.000000 Z"/> 
<svg:path style="fill:#000000; fill-opacity:1.0;  stroke:#000000; stroke-width:1.000000; stroke-opacity:1;  stroke-linecap:round; stroke-linejoin:round;fill-rule:evenodd;" d="M 54082501.000000,50424999.000000 54082501.000000,50075001.000000 55782499.000000,50075001.000000 55782499.000000,50424999.000000 Z"/> 
<svg:path style="fill:#000000; fill-opacity:1.0;  stroke:#000000; stroke-width:1.000000; stroke-opacity:1;  stroke-linecap:round; stroke-linejoin:round;fill-rule:evenodd;" d="M 54082501.000000,49924999.000000 54082501.000000,49575001.000000 55782499.000000,49575001.000000 55782499.000000,49924999.000000 Z"/> 
<svg:path style="fill:#000000; fill-opacity:1.0;  stroke:#000000; stroke-width:1.000000; stroke-opacity:1;  stroke-linecap:round; stroke-linejoin:round;fill-rule:evenodd;" d="M 54082501.000000,49424999.000000 54082501.000000,49075001.000000 55782499.000000,49075001.000000 55782499.000000,49424999.000000 Z"/> 
<svg:path style="fill:#000000; fill-opacity:1.0;  stroke:#000000; stroke-width:1.000000; stroke-opacity:1;  stroke-linecap:round; stroke-linejoin:round;fill-rule:evenodd;" d="M 54082501.000000,48924999.000000 54082501.000000,48575001.000000 55782499.000000,48575001.000000 55782499.000000,48924999.000000 Z"/> 
<svg:path style="fill:#000000; fill-opacity:1.0;  stroke:#000000; stroke-width:1.000000; stroke-opacity:1;  stroke-linecap:round; stroke-linejoin:round;fill-rule:evenodd;" d="M 54082501.000000,48424999.000000 54082501.000000,48075001.000000 55782499.000000,48075001.000000 55782499.000000,48424999.000000 Z"/> 
<svg:path style="fill:#000000; fill-opacity:1.0;  stroke:#000000; stroke-width:1.000000; stroke-opacity:1;  stroke-linecap:round; stroke-linejoin:round;fill-rule:evenodd;" d="M 54082501.000000,47924999.000000 54082501.000000,47575001.000000 55782499.000000,47575001.000000 55782499.000000,47924999.000000 Z"/> 
<svg:path style="fill:#000000; fill-opacity:1.0;  stroke:#000000; stroke-width:1.000000; stroke-opacity:1;  stroke-linecap:round; stroke-linejoin:round;fill-rule:evenodd;" d="M 54082501.000000,47424999.000000 54082501.000000,47075001.000000 55782499.000000,47075001.000000 55782499.000000,47424999.000000 Z"/> 
<svg:path style="fill:#000000; fill-opacity:1.0;  stroke:#000000; stroke-width:1.000000; stroke-opacity:1;  stroke-linecap:round; stroke-linejoin:round;fill-rule:evenodd;" d="M 54082501.000000,46924999.000000 54082501.000000,46575001.000000 55782499.000000,46575001.000000 55782499.000000,46924999.000000 Z"/> 
<svg:path style="fill:#000000; fill-opacity:1.0;  stroke:#000000; stroke-width:1.000000; stroke-opacity:1;  stroke-linecap:round; stroke-linejoin:round;fill-rule:evenodd;" d="M 54082501.000000,46424999.000000 54082501.000000,46075001.000000 55782499.000000,46075001.000000 55782499.000000,46424999.000000 Z"/> 
<svg:path style="fill:#000000; fill-opacity:1.0;  stroke:#000000; stroke-width:1.000000; stroke-opacity:1;  stroke-linecap:round; stroke-linejoin:round;fill-rule:evenodd;" d="M 54082501.000000,45924999.000000 54082501.000000,45575001.000000 55782499.000000,45575001.000000 55782499.000000,45924999.000000 Z"/> 
<svg:path style="fill:#000000; fill-opacity:1.0;  stroke:#000000; stroke-width:1.000000; stroke-opacity:1;  stroke-linecap:round; stroke-linejoin:round;fill-rule:evenodd;" d="M 47400001.000000,53749999.000000 47400001.000000,46250001.000000 52599999.000000,46250001.000000 52599999.000000,53749999.000000 Z"/> 
</svg:g>
<svg:g>
</svg:g>
<svg:g>
</svg:g>
<svg:g>
</svg:g>
</svg:g>
<svg:g style="fill:#000000; fill-opacity:1.0;  stroke:#000000; stroke-width:1.000000; stroke-opacity:1;  stroke-linecap:round; stroke-linejoin:round;">
<svg:g>
</svg:g>
<svg:g>
</svg:g>
<svg:g>
</svg:g>
<svg:g>
</svg:g>
</svg:g> 
</svg:g><svg:g><svg:title>SVG Picture created as kicadBoard-F_Silkscreen.svg date 2022/12/01 23:51:53 </svg:title>
  <svg:desc>Picture generated by PCBNEW </svg:desc>
<svg:g style="fill:#000000; fill-opacity:1.000000;stroke:#000000; stroke-opacity:1.000000; stroke-linecap:round; stroke-linejoin:round;" transform="translate(0 0) scale(1 1)">
</svg:g>
<svg:g style="fill:#000000; fill-opacity:0.0;  stroke:#000000; stroke-width:0.000000; stroke-opacity:1;  stroke-linecap:round; stroke-linejoin:round;">
</svg:g>
<svg:g style="fill:#F2EDA1; fill-opacity:0.0;  stroke:#F2EDA1; stroke-width:0.000000; stroke-opacity:1;  stroke-linecap:round; stroke-linejoin:round;">
</svg:g>
<svg:g style="fill:#F2EDA1; fill-opacity:0.0;  stroke:#F2EDA1; stroke-width:150000.000000; stroke-opacity:1;  stroke-linecap:round; stroke-linejoin:round;">
<svg:text x="50000000.000000" y="44400000.000000" textLength="24523811.000000" font-size="1333333.000000" lengthAdjust="spacingAndGlyphs" text-anchor="middle" opacity="0">FZKSOSTPOWERSSO36SLUGDOWN</svg:text>
<svg:g class="stroked-text"><svg:desc>FZKSOSTPOWERSSO36SLUGDOWN</svg:desc>
<svg:path d="M38309523 43828571 L37976190 43828571 "/>
<svg:path d="M37976190 44352380 L37976190 43352380 L38452380 43352380 "/>
<svg:path d="M38738095 43352380 L39404761 43352380 L38738095 44352380 L39404761 44352380 "/>
<svg:path d="M39785714 44352380 L39785714 43352380 "/>
<svg:path d="M40357142 44352380 L39928571 43780952 "/>
<svg:path d="M40357142 43352380 L39785714 43923809 "/>
<svg:path d="M40738095 44304761 L40880952 44352380 L41119047 44352380 L41214285 44304761 L41261904 44257142 L41309523 44161904 L41309523 44066666 L41261904 43971428 L41214285 43923809 L41119047 43876190 L40928571 43828571 L40833333 43780952 L40785714 43733333 L40738095 43638095 L40738095 43542857 L40785714 43447619 L40833333 43400000 L40928571 43352380 L41166666 43352380 L41309523 43400000 "/>
<svg:path d="M41928571 43352380 L42119047 43352380 L42214285 43400000 L42309523 43495238 L42357142 43685714 L42357142 44019047 L42309523 44209523 L42214285 44304761 L42119047 44352380 L41928571 44352380 L41833333 44304761 L41738095 44209523 L41690476 44019047 L41690476 43685714 L41738095 43495238 L41833333 43400000 L41928571 43352380 "/>
<svg:path d="M42738095 44304761 L42880952 44352380 L43119047 44352380 L43214285 44304761 L43261904 44257142 L43309523 44161904 L43309523 44066666 L43261904 43971428 L43214285 43923809 L43119047 43876190 L42928571 43828571 L42833333 43780952 L42785714 43733333 L42738095 43638095 L42738095 43542857 L42785714 43447619 L42833333 43400000 L42928571 43352380 L43166666 43352380 L43309523 43400000 "/>
<svg:path d="M43595238 43352380 L44166666 43352380 "/>
<svg:path d="M43880952 44352380 L43880952 43352380 "/>
<svg:path d="M44500000 44352380 L44500000 43352380 L44880952 43352380 L44976190 43400000 L45023809 43447619 L45071428 43542857 L45071428 43685714 L45023809 43780952 L44976190 43828571 L44880952 43876190 L44500000 43876190 "/>
<svg:path d="M45690476 43352380 L45880952 43352380 L45976190 43400000 L46071428 43495238 L46119047 43685714 L46119047 44019047 L46071428 44209523 L45976190 44304761 L45880952 44352380 L45690476 44352380 L45595238 44304761 L45500000 44209523 L45452380 44019047 L45452380 43685714 L45500000 43495238 L45595238 43400000 L45690476 43352380 "/>
<svg:path d="M46452380 43352380 L46690476 44352380 L46880952 43638095 L47071428 44352380 L47309523 43352380 "/>
<svg:path d="M47690476 43828571 L48023809 43828571 "/>
<svg:path d="M48166666 44352380 L47690476 44352380 L47690476 43352380 L48166666 43352380 "/>
<svg:path d="M49166666 44352380 L48833333 43876190 "/>
<svg:path d="M48595238 44352380 L48595238 43352380 L48976190 43352380 L49071428 43400000 L49119047 43447619 L49166666 43542857 L49166666 43685714 L49119047 43780952 L49071428 43828571 L48976190 43876190 L48595238 43876190 "/>
<svg:path d="M49547619 44304761 L49690476 44352380 L49928571 44352380 L50023809 44304761 L50071428 44257142 L50119047 44161904 L50119047 44066666 L50071428 43971428 L50023809 43923809 L49928571 43876190 L49738095 43828571 L49642857 43780952 L49595238 43733333 L49547619 43638095 L49547619 43542857 L49595238 43447619 L49642857 43400000 L49738095 43352380 L49976190 43352380 L50119047 43400000 "/>
<svg:path d="M50500000 44304761 L50642857 44352380 L50880952 44352380 L50976190 44304761 L51023809 44257142 L51071428 44161904 L51071428 44066666 L51023809 43971428 L50976190 43923809 L50880952 43876190 L50690476 43828571 L50595238 43780952 L50547619 43733333 L50500000 43638095 L50500000 43542857 L50547619 43447619 L50595238 43400000 L50690476 43352380 L50928571 43352380 L51071428 43400000 "/>
<svg:path d="M51690476 43352380 L51880952 43352380 L51976190 43400000 L52071428 43495238 L52119047 43685714 L52119047 44019047 L52071428 44209523 L51976190 44304761 L51880952 44352380 L51690476 44352380 L51595238 44304761 L51500000 44209523 L51452380 44019047 L51452380 43685714 L51500000 43495238 L51595238 43400000 L51690476 43352380 "/>
<svg:path d="M52452380 43352380 L53071428 43352380 L52738095 43733333 L52880952 43733333 L52976190 43780952 L53023809 43828571 L53071428 43923809 L53071428 44161904 L53023809 44257142 L52976190 44304761 L52880952 44352380 L52595238 44352380 L52500000 44304761 L52452380 44257142 "/>
<svg:path d="M53928571 43352380 L53738095 43352380 L53642857 43400000 L53595238 43447619 L53500000 43590476 L53452380 43780952 L53452380 44161904 L53500000 44257142 L53547619 44304761 L53642857 44352380 L53833333 44352380 L53928571 44304761 L53976190 44257142 L54023809 44161904 L54023809 43923809 L53976190 43828571 L53928571 43780952 L53833333 43733333 L53642857 43733333 L53547619 43780952 L53500000 43828571 L53452380 43923809 "/>
<svg:path d="M54404761 44304761 L54547619 44352380 L54785714 44352380 L54880952 44304761 L54928571 44257142 L54976190 44161904 L54976190 44066666 L54928571 43971428 L54880952 43923809 L54785714 43876190 L54595238 43828571 L54499999 43780952 L54452380 43733333 L54404761 43638095 L54404761 43542857 L54452380 43447619 L54499999 43400000 L54595238 43352380 L54833333 43352380 L54976190 43400000 "/>
<svg:path d="M55880952 44352380 L55404761 44352380 L55404761 43352380 "/>
<svg:path d="M56214285 43352380 L56214285 44161904 L56261904 44257142 L56309523 44304761 L56404761 44352380 L56595238 44352380 L56690476 44304761 L56738095 44257142 L56785714 44161904 L56785714 43352380 "/>
<svg:path d="M57785714 43400000 L57690476 43352380 L57547619 43352380 L57404761 43400000 L57309523 43495238 L57261904 43590476 L57214285 43780952 L57214285 43923809 L57261904 44114285 L57309523 44209523 L57404761 44304761 L57547619 44352380 L57642857 44352380 L57785714 44304761 L57833333 44257142 L57833333 43923809 L57642857 43923809 "/>
<svg:path d="M58261904 44352380 L58261904 43352380 L58500000 43352380 L58642857 43400000 L58738095 43495238 L58785714 43590476 L58833333 43780952 L58833333 43923809 L58785714 44114285 L58738095 44209523 L58642857 44304761 L58500000 44352380 L58261904 44352380 "/>
<svg:path d="M59452380 43352380 L59642857 43352380 L59738095 43400000 L59833333 43495238 L59880952 43685714 L59880952 44019047 L59833333 44209523 L59738095 44304761 L59642857 44352380 L59452380 44352380 L59357142 44304761 L59261904 44209523 L59214285 44019047 L59214285 43685714 L59261904 43495238 L59357142 43400000 L59452380 43352380 "/>
<svg:path d="M60214285 43352380 L60452380 44352380 L60642857 43638095 L60833333 44352380 L61071428 43352380 "/>
<svg:path d="M61452380 44352380 L61452380 43352380 L62023809 44352380 L62023809 43352380 "/>
</svg:g></svg:g>
<svg:g style="fill:#F2EDA1; fill-opacity:0.0;  stroke:#F2EDA1; stroke-width:120000.000000; stroke-opacity:1;  stroke-linecap:round; stroke-linejoin:round;">
<svg:path d="M53850000 44750000 L53850000 45300000 "/>
<svg:path d="M46150000 45300000 L44450000 45300000 "/>
<svg:path d="M53750000 44750000 L53850000 44750000 "/>
<svg:path d="M46250000 44750000 L46150000 44750000 "/>
<svg:path d="M53850000 55250000 L53850000 54700000 "/>
<svg:path d="M53850000 55250000 L46150000 55250000 "/>
<svg:path d="M46150000 44750000 L46150000 45300000 "/>
<svg:path d="M46150000 55250000 L46150000 54700000 "/>
<svg:path d="M53850000 44750000 L46150000 44750000 "/>
<svg:path d="M53750000 55250000 L53850000 55250000 "/>
<svg:g>
</svg:g>
<svg:g>
</svg:g>
<svg:g>
</svg:g>
<svg:g>
</svg:g>
</svg:g>
<svg:g style="fill:#000000; fill-opacity:0.0;  stroke:#000000; stroke-width:120000.000000; stroke-opacity:1;  stroke-linecap:round; stroke-linejoin:round;">
<svg:g>
</svg:g>
<svg:g>
</svg:g>
<svg:g>
</svg:g>
<svg:g>
</svg:g>
</svg:g> 
</svg:g><svg:g><svg:title>SVG Picture created as kicadBoard-Margin.svg date 2022/12/01 23:51:53 </svg:title>
  <svg:desc>Picture generated by PCBNEW </svg:desc>
<svg:g style="fill:#000000; fill-opacity:1.000000;stroke:#000000; stroke-opacity:1.000000; stroke-linecap:round; stroke-linejoin:round;" transform="translate(0 0) scale(1 1)">
</svg:g>
<svg:g style="fill:#000000; fill-opacity:0.0;  stroke:#000000; stroke-width:0.000000; stroke-opacity:1;  stroke-linecap:round; stroke-linejoin:round;">
<svg:g>
</svg:g>
<svg:g>
</svg:g>
<svg:g>
</svg:g>
<svg:g>
</svg:g>
</svg:g>
<svg:g style="fill:#000000; fill-opacity:0.0;  stroke:#000000; stroke-width:0.000000; stroke-opacity:1;  stroke-linecap:round; stroke-linejoin:round;">
<svg:g>
</svg:g>
<svg:g>
</svg:g>
<svg:g>
</svg:g>
<svg:g>
</svg:g>
</svg:g> 
</svg:g><svg:g><svg:title>SVG Picture created as kicadBoard-F_Cu.svg date 2022/12/01 23:51:53 </svg:title>
  <svg:desc>Picture generated by PCBNEW </svg:desc>
<svg:g style="fill:#000000; fill-opacity:1.000000;stroke:#000000; stroke-opacity:1.000000; stroke-linecap:round; stroke-linejoin:round;" transform="translate(0 0) scale(1 1)">
</svg:g>
<svg:g style="fill:#000000; fill-opacity:0.0;  stroke:#000000; stroke-width:0.000000; stroke-opacity:1;  stroke-linecap:round; stroke-linejoin:round;">
<svg:g>
</svg:g>
<svg:g style="fill:#C83434; fill-opacity:0.0;  stroke:#C83434; stroke-width:0.000000; stroke-opacity:1;  stroke-linecap:round; stroke-linejoin:round;">
</svg:g>
<svg:g style="fill:#C83434; fill-opacity:0.0;  stroke:#C83434; stroke-width:1.000000; stroke-opacity:1;  stroke-linecap:round; stroke-linejoin:round;">
</svg:g>
<svg:g style="fill:#C83434; fill-opacity:1.0;  stroke:#C83434; stroke-width:1.000000; stroke-opacity:1;  stroke-linecap:round; stroke-linejoin:round;">
<svg:path style="fill:#C83434; fill-opacity:1.0;  stroke:#C83434; stroke-width:1.000000; stroke-opacity:1;  stroke-linecap:round; stroke-linejoin:round;fill-rule:evenodd;" d="M 44217501.000000,45924999.000000 44217501.000000,45575001.000000 45917499.000000,45575001.000000 45917499.000000,45924999.000000 Z"/> 
<svg:path style="fill:#C83434; fill-opacity:1.0;  stroke:#C83434; stroke-width:1.000000; stroke-opacity:1;  stroke-linecap:round; stroke-linejoin:round;fill-rule:evenodd;" d="M 44217501.000000,46424999.000000 44217501.000000,46075001.000000 45917499.000000,46075001.000000 45917499.000000,46424999.000000 Z"/> 
<svg:path style="fill:#C83434; fill-opacity:1.0;  stroke:#C83434; stroke-width:1.000000; stroke-opacity:1;  stroke-linecap:round; stroke-linejoin:round;fill-rule:evenodd;" d="M 44217501.000000,46924999.000000 44217501.000000,46575001.000000 45917499.000000,46575001.000000 45917499.000000,46924999.000000 Z"/> 
<svg:path style="fill:#C83434; fill-opacity:1.0;  stroke:#C83434; stroke-width:1.000000; stroke-opacity:1;  stroke-linecap:round; stroke-linejoin:round;fill-rule:evenodd;" d="M 44217501.000000,47424999.000000 44217501.000000,47075001.000000 45917499.000000,47075001.000000 45917499.000000,47424999.000000 Z"/> 
<svg:path style="fill:#C83434; fill-opacity:1.0;  stroke:#C83434; stroke-width:1.000000; stroke-opacity:1;  stroke-linecap:round; stroke-linejoin:round;fill-rule:evenodd;" d="M 44217501.000000,47924999.000000 44217501.000000,47575001.000000 45917499.000000,47575001.000000 45917499.000000,47924999.000000 Z"/> 
<svg:path style="fill:#C83434; fill-opacity:1.0;  stroke:#C83434; stroke-width:1.000000; stroke-opacity:1;  stroke-linecap:round; stroke-linejoin:round;fill-rule:evenodd;" d="M 44217501.000000,48424999.000000 44217501.000000,48075001.000000 45917499.000000,48075001.000000 45917499.000000,48424999.000000 Z"/> 
<svg:path style="fill:#C83434; fill-opacity:1.0;  stroke:#C83434; stroke-width:1.000000; stroke-opacity:1;  stroke-linecap:round; stroke-linejoin:round;fill-rule:evenodd;" d="M 44217501.000000,48924999.000000 44217501.000000,48575001.000000 45917499.000000,48575001.000000 45917499.000000,48924999.000000 Z"/> 
<svg:path style="fill:#C83434; fill-opacity:1.0;  stroke:#C83434; stroke-width:1.000000; stroke-opacity:1;  stroke-linecap:round; stroke-linejoin:round;fill-rule:evenodd;" d="M 44217501.000000,49424999.000000 44217501.000000,49075001.000000 45917499.000000,49075001.000000 45917499.000000,49424999.000000 Z"/> 
<svg:path style="fill:#C83434; fill-opacity:1.0;  stroke:#C83434; stroke-width:1.000000; stroke-opacity:1;  stroke-linecap:round; stroke-linejoin:round;fill-rule:evenodd;" d="M 44217501.000000,49924999.000000 44217501.000000,49575001.000000 45917499.000000,49575001.000000 45917499.000000,49924999.000000 Z"/> 
<svg:path style="fill:#C83434; fill-opacity:1.0;  stroke:#C83434; stroke-width:1.000000; stroke-opacity:1;  stroke-linecap:round; stroke-linejoin:round;fill-rule:evenodd;" d="M 44217501.000000,50424999.000000 44217501.000000,50075001.000000 45917499.000000,50075001.000000 45917499.000000,50424999.000000 Z"/> 
<svg:path style="fill:#C83434; fill-opacity:1.0;  stroke:#C83434; stroke-width:1.000000; stroke-opacity:1;  stroke-linecap:round; stroke-linejoin:round;fill-rule:evenodd;" d="M 44217501.000000,50924999.000000 44217501.000000,50575001.000000 45917499.000000,50575001.000000 45917499.000000,50924999.000000 Z"/> 
<svg:path style="fill:#C83434; fill-opacity:1.0;  stroke:#C83434; stroke-width:1.000000; stroke-opacity:1;  stroke-linecap:round; stroke-linejoin:round;fill-rule:evenodd;" d="M 44217501.000000,51424999.000000 44217501.000000,51075001.000000 45917499.000000,51075001.000000 45917499.000000,51424999.000000 Z"/> 
<svg:path style="fill:#C83434; fill-opacity:1.0;  stroke:#C83434; stroke-width:1.000000; stroke-opacity:1;  stroke-linecap:round; stroke-linejoin:round;fill-rule:evenodd;" d="M 44217501.000000,51924999.000000 44217501.000000,51575001.000000 45917499.000000,51575001.000000 45917499.000000,51924999.000000 Z"/> 
<svg:path style="fill:#C83434; fill-opacity:1.0;  stroke:#C83434; stroke-width:1.000000; stroke-opacity:1;  stroke-linecap:round; stroke-linejoin:round;fill-rule:evenodd;" d="M 44217501.000000,52424999.000000 44217501.000000,52075001.000000 45917499.000000,52075001.000000 45917499.000000,52424999.000000 Z"/> 
<svg:path style="fill:#C83434; fill-opacity:1.0;  stroke:#C83434; stroke-width:1.000000; stroke-opacity:1;  stroke-linecap:round; stroke-linejoin:round;fill-rule:evenodd;" d="M 44217501.000000,52924999.000000 44217501.000000,52575001.000000 45917499.000000,52575001.000000 45917499.000000,52924999.000000 Z"/> 
<svg:path style="fill:#C83434; fill-opacity:1.0;  stroke:#C83434; stroke-width:1.000000; stroke-opacity:1;  stroke-linecap:round; stroke-linejoin:round;fill-rule:evenodd;" d="M 44217501.000000,53424999.000000 44217501.000000,53075001.000000 45917499.000000,53075001.000000 45917499.000000,53424999.000000 Z"/> 
<svg:path style="fill:#C83434; fill-opacity:1.0;  stroke:#C83434; stroke-width:1.000000; stroke-opacity:1;  stroke-linecap:round; stroke-linejoin:round;fill-rule:evenodd;" d="M 44217501.000000,53924999.000000 44217501.000000,53575001.000000 45917499.000000,53575001.000000 45917499.000000,53924999.000000 Z"/> 
<svg:path style="fill:#C83434; fill-opacity:1.0;  stroke:#C83434; stroke-width:1.000000; stroke-opacity:1;  stroke-linecap:round; stroke-linejoin:round;fill-rule:evenodd;" d="M 44217501.000000,54424999.000000 44217501.000000,54075001.000000 45917499.000000,54075001.000000 45917499.000000,54424999.000000 Z"/> 
<svg:path style="fill:#C83434; fill-opacity:1.0;  stroke:#C83434; stroke-width:1.000000; stroke-opacity:1;  stroke-linecap:round; stroke-linejoin:round;fill-rule:evenodd;" d="M 54082501.000000,54424999.000000 54082501.000000,54075001.000000 55782499.000000,54075001.000000 55782499.000000,54424999.000000 Z"/> 
<svg:path style="fill:#C83434; fill-opacity:1.0;  stroke:#C83434; stroke-width:1.000000; stroke-opacity:1;  stroke-linecap:round; stroke-linejoin:round;fill-rule:evenodd;" d="M 54082501.000000,53924999.000000 54082501.000000,53575001.000000 55782499.000000,53575001.000000 55782499.000000,53924999.000000 Z"/> 
<svg:path style="fill:#C83434; fill-opacity:1.0;  stroke:#C83434; stroke-width:1.000000; stroke-opacity:1;  stroke-linecap:round; stroke-linejoin:round;fill-rule:evenodd;" d="M 54082501.000000,53424999.000000 54082501.000000,53075001.000000 55782499.000000,53075001.000000 55782499.000000,53424999.000000 Z"/> 
<svg:path style="fill:#C83434; fill-opacity:1.0;  stroke:#C83434; stroke-width:1.000000; stroke-opacity:1;  stroke-linecap:round; stroke-linejoin:round;fill-rule:evenodd;" d="M 54082501.000000,52924999.000000 54082501.000000,52575001.000000 55782499.000000,52575001.000000 55782499.000000,52924999.000000 Z"/> 
<svg:path style="fill:#C83434; fill-opacity:1.0;  stroke:#C83434; stroke-width:1.000000; stroke-opacity:1;  stroke-linecap:round; stroke-linejoin:round;fill-rule:evenodd;" d="M 54082501.000000,52424999.000000 54082501.000000,52075001.000000 55782499.000000,52075001.000000 55782499.000000,52424999.000000 Z"/> 
<svg:path style="fill:#C83434; fill-opacity:1.0;  stroke:#C83434; stroke-width:1.000000; stroke-opacity:1;  stroke-linecap:round; stroke-linejoin:round;fill-rule:evenodd;" d="M 54082501.000000,51924999.000000 54082501.000000,51575001.000000 55782499.000000,51575001.000000 55782499.000000,51924999.000000 Z"/> 
<svg:path style="fill:#C83434; fill-opacity:1.0;  stroke:#C83434; stroke-width:1.000000; stroke-opacity:1;  stroke-linecap:round; stroke-linejoin:round;fill-rule:evenodd;" d="M 54082501.000000,51424999.000000 54082501.000000,51075001.000000 55782499.000000,51075001.000000 55782499.000000,51424999.000000 Z"/> 
<svg:path style="fill:#C83434; fill-opacity:1.0;  stroke:#C83434; stroke-width:1.000000; stroke-opacity:1;  stroke-linecap:round; stroke-linejoin:round;fill-rule:evenodd;" d="M 54082501.000000,50924999.000000 54082501.000000,50575001.000000 55782499.000000,50575001.000000 55782499.000000,50924999.000000 Z"/> 
<svg:path style="fill:#C83434; fill-opacity:1.0;  stroke:#C83434; stroke-width:1.000000; stroke-opacity:1;  stroke-linecap:round; stroke-linejoin:round;fill-rule:evenodd;" d="M 54082501.000000,50424999.000000 54082501.000000,50075001.000000 55782499.000000,50075001.000000 55782499.000000,50424999.000000 Z"/> 
<svg:path style="fill:#C83434; fill-opacity:1.0;  stroke:#C83434; stroke-width:1.000000; stroke-opacity:1;  stroke-linecap:round; stroke-linejoin:round;fill-rule:evenodd;" d="M 54082501.000000,49924999.000000 54082501.000000,49575001.000000 55782499.000000,49575001.000000 55782499.000000,49924999.000000 Z"/> 
<svg:path style="fill:#C83434; fill-opacity:1.0;  stroke:#C83434; stroke-width:1.000000; stroke-opacity:1;  stroke-linecap:round; stroke-linejoin:round;fill-rule:evenodd;" d="M 54082501.000000,49424999.000000 54082501.000000,49075001.000000 55782499.000000,49075001.000000 55782499.000000,49424999.000000 Z"/> 
<svg:path style="fill:#C83434; fill-opacity:1.0;  stroke:#C83434; stroke-width:1.000000; stroke-opacity:1;  stroke-linecap:round; stroke-linejoin:round;fill-rule:evenodd;" d="M 54082501.000000,48924999.000000 54082501.000000,48575001.000000 55782499.000000,48575001.000000 55782499.000000,48924999.000000 Z"/> 
<svg:path style="fill:#C83434; fill-opacity:1.0;  stroke:#C83434; stroke-width:1.000000; stroke-opacity:1;  stroke-linecap:round; stroke-linejoin:round;fill-rule:evenodd;" d="M 54082501.000000,48424999.000000 54082501.000000,48075001.000000 55782499.000000,48075001.000000 55782499.000000,48424999.000000 Z"/> 
<svg:path style="fill:#C83434; fill-opacity:1.0;  stroke:#C83434; stroke-width:1.000000; stroke-opacity:1;  stroke-linecap:round; stroke-linejoin:round;fill-rule:evenodd;" d="M 54082501.000000,47924999.000000 54082501.000000,47575001.000000 55782499.000000,47575001.000000 55782499.000000,47924999.000000 Z"/> 
<svg:path style="fill:#C83434; fill-opacity:1.0;  stroke:#C83434; stroke-width:1.000000; stroke-opacity:1;  stroke-linecap:round; stroke-linejoin:round;fill-rule:evenodd;" d="M 54082501.000000,47424999.000000 54082501.000000,47075001.000000 55782499.000000,47075001.000000 55782499.000000,47424999.000000 Z"/> 
<svg:path style="fill:#C83434; fill-opacity:1.0;  stroke:#C83434; stroke-width:1.000000; stroke-opacity:1;  stroke-linecap:round; stroke-linejoin:round;fill-rule:evenodd;" d="M 54082501.000000,46924999.000000 54082501.000000,46575001.000000 55782499.000000,46575001.000000 55782499.000000,46924999.000000 Z"/> 
<svg:path style="fill:#C83434; fill-opacity:1.0;  stroke:#C83434; stroke-width:1.000000; stroke-opacity:1;  stroke-linecap:round; stroke-linejoin:round;fill-rule:evenodd;" d="M 54082501.000000,46424999.000000 54082501.000000,46075001.000000 55782499.000000,46075001.000000 55782499.000000,46424999.000000 Z"/> 
<svg:path style="fill:#C83434; fill-opacity:1.0;  stroke:#C83434; stroke-width:1.000000; stroke-opacity:1;  stroke-linecap:round; stroke-linejoin:round;fill-rule:evenodd;" d="M 54082501.000000,45924999.000000 54082501.000000,45575001.000000 55782499.000000,45575001.000000 55782499.000000,45924999.000000 Z"/> 
<svg:path style="fill:#C83434; fill-opacity:1.0;  stroke:#C83434; stroke-width:1.000000; stroke-opacity:1;  stroke-linecap:round; stroke-linejoin:round;fill-rule:evenodd;" d="M 47400001.000000,53749999.000000 47400001.000000,46250001.000000 52599999.000000,46250001.000000 52599999.000000,53749999.000000 Z"/> 
</svg:g>
<svg:g>
</svg:g>
<svg:g>
</svg:g>
<svg:g>
</svg:g>
</svg:g>
<svg:g style="fill:#FFFFFF; fill-opacity:1.0;  stroke:#FFFFFF; stroke-width:1.000000; stroke-opacity:1;  stroke-linecap:round; stroke-linejoin:round;">
</svg:g>
<svg:g style="fill:#000000; fill-opacity:1.0;  stroke:#000000; stroke-width:1.000000; stroke-opacity:1;  stroke-linecap:round; stroke-linejoin:round;">
<svg:g>
</svg:g>
<svg:g>
</svg:g>
<svg:g>
</svg:g>
<svg:g>
</svg:g>
</svg:g> 
</svg:g></svg>
