<?xml version='1.0' encoding='ASCII' standalone='yes'?>
<svg xmlns:svg="http://www.w3.org/2000/svg" xmlns="http://www.w3.org/2000/svg" xmlns:xlink="http://www.w3.org/1999/xlink" version="1.1" width="9.999980cm" height="9.999980cm" viewBox="0 0 99999800 99999800">
<title>SVG Picture created as kicadBoard-B_Cu.svg date 2022/12/05 02:41:22 </title>
  <desc>Picture generated by PCBNEW </desc>
<g style="fill:#000000; fill-opacity:1.000000;stroke:#000000; stroke-opacity:1.000000; stroke-linecap:round; stroke-linejoin:round;" transform="translate(0 0) scale(1 1)">
</g>
<g style="fill:#000000; fill-opacity:0.0;  stroke:#000000; stroke-width:0.000000; stroke-opacity:1;  stroke-linecap:round; stroke-linejoin:round;">
<g>
</g>
<g>
</g>
<g>
</g>
<g>
</g>
</g>
<g style="fill:#FFFFFF; fill-opacity:0.0;  stroke:#FFFFFF; stroke-width:0.000000; stroke-opacity:1;  stroke-linecap:round; stroke-linejoin:round;">
</g>
<g style="fill:#000000; fill-opacity:0.0;  stroke:#000000; stroke-width:0.000000; stroke-opacity:1;  stroke-linecap:round; stroke-linejoin:round;">
<g>
</g>
<g>
</g>
<g>
</g>
<g>
</g>
</g> 
<svg:g><svg:title>SVG Picture created as kicadBoard-B_Adhesive.svg date 2022/12/05 02:41:22 </svg:title>
  <svg:desc>Picture generated by PCBNEW </svg:desc>
<svg:g style="fill:#000000; fill-opacity:1.000000;stroke:#000000; stroke-opacity:1.000000; stroke-linecap:round; stroke-linejoin:round;" transform="translate(0 0) scale(1 1)">
</svg:g>
<svg:g style="fill:#000000; fill-opacity:0.0;  stroke:#000000; stroke-width:0.000000; stroke-opacity:1;  stroke-linecap:round; stroke-linejoin:round;">
<svg:g>
</svg:g>
<svg:g>
</svg:g>
<svg:g>
</svg:g>
<svg:g>
</svg:g>
</svg:g>
<svg:g style="fill:#000000; fill-opacity:0.0;  stroke:#000000; stroke-width:0.000000; stroke-opacity:1;  stroke-linecap:round; stroke-linejoin:round;">
<svg:g>
</svg:g>
<svg:g>
</svg:g>
<svg:g>
</svg:g>
<svg:g>
</svg:g>
</svg:g> 
</svg:g><svg:g><svg:title>SVG Picture created as kicadBoard-B_Courtyard.svg date 2022/12/05 02:41:22 </svg:title>
  <svg:desc>Picture generated by PCBNEW </svg:desc>
<svg:g style="fill:#000000; fill-opacity:1.000000;stroke:#000000; stroke-opacity:1.000000; stroke-linecap:round; stroke-linejoin:round;" transform="translate(0 0) scale(1 1)">
</svg:g>
<svg:g style="fill:#000000; fill-opacity:0.0;  stroke:#000000; stroke-width:0.000000; stroke-opacity:1;  stroke-linecap:round; stroke-linejoin:round;">
<svg:g>
</svg:g>
<svg:g>
</svg:g>
<svg:g>
</svg:g>
<svg:g>
</svg:g>
</svg:g>
<svg:g style="fill:#000000; fill-opacity:0.0;  stroke:#000000; stroke-width:0.000000; stroke-opacity:1;  stroke-linecap:round; stroke-linejoin:round;">
<svg:g>
</svg:g>
<svg:g>
</svg:g>
<svg:g>
</svg:g>
<svg:g>
</svg:g>
</svg:g> 
</svg:g><svg:g><svg:title>SVG Picture created as kicadBoard-B_Fab.svg date 2022/12/05 02:41:22 </svg:title>
  <svg:desc>Picture generated by PCBNEW </svg:desc>
<svg:g style="fill:#000000; fill-opacity:1.000000;stroke:#000000; stroke-opacity:1.000000; stroke-linecap:round; stroke-linejoin:round;" transform="translate(0 0) scale(1 1)">
</svg:g>
<svg:g style="fill:#000000; fill-opacity:0.0;  stroke:#000000; stroke-width:0.000000; stroke-opacity:1;  stroke-linecap:round; stroke-linejoin:round;">
<svg:g>
</svg:g>
<svg:g>
</svg:g>
<svg:g>
</svg:g>
<svg:g>
</svg:g>
</svg:g>
<svg:g style="fill:#000000; fill-opacity:0.0;  stroke:#000000; stroke-width:0.000000; stroke-opacity:1;  stroke-linecap:round; stroke-linejoin:round;">
<svg:g>
</svg:g>
<svg:g>
</svg:g>
<svg:g>
</svg:g>
<svg:g>
</svg:g>
</svg:g> 
</svg:g><svg:g><svg:title>SVG Picture created as kicadBoard-B_Mask.svg date 2022/12/05 02:41:22 </svg:title>
  <svg:desc>Picture generated by PCBNEW </svg:desc>
<svg:g style="fill:#000000; fill-opacity:1.000000;stroke:#000000; stroke-opacity:1.000000; stroke-linecap:round; stroke-linejoin:round;" transform="translate(0 0) scale(1 1)">
</svg:g>
<svg:g style="fill:#000000; fill-opacity:0.0;  stroke:#000000; stroke-width:0.000000; stroke-opacity:1;  stroke-linecap:round; stroke-linejoin:round;">
<svg:g>
</svg:g>
<svg:g>
</svg:g>
<svg:g>
</svg:g>
<svg:g>
</svg:g>
</svg:g>
<svg:g style="fill:#000000; fill-opacity:0.0;  stroke:#000000; stroke-width:0.000000; stroke-opacity:1;  stroke-linecap:round; stroke-linejoin:round;">
<svg:g>
</svg:g>
<svg:g>
</svg:g>
<svg:g>
</svg:g>
<svg:g>
</svg:g>
</svg:g> 
</svg:g><svg:g><svg:title>SVG Picture created as kicadBoard-B_Paste.svg date 2022/12/05 02:41:22 </svg:title>
  <svg:desc>Picture generated by PCBNEW </svg:desc>
<svg:g style="fill:#000000; fill-opacity:1.000000;stroke:#000000; stroke-opacity:1.000000; stroke-linecap:round; stroke-linejoin:round;" transform="translate(0 0) scale(1 1)">
</svg:g>
<svg:g style="fill:#000000; fill-opacity:0.0;  stroke:#000000; stroke-width:0.000000; stroke-opacity:1;  stroke-linecap:round; stroke-linejoin:round;">
<svg:g>
</svg:g>
<svg:g>
</svg:g>
<svg:g>
</svg:g>
<svg:g>
</svg:g>
</svg:g>
<svg:g style="fill:#000000; fill-opacity:0.0;  stroke:#000000; stroke-width:0.000000; stroke-opacity:1;  stroke-linecap:round; stroke-linejoin:round;">
<svg:g>
</svg:g>
<svg:g>
</svg:g>
<svg:g>
</svg:g>
<svg:g>
</svg:g>
</svg:g> 
</svg:g><svg:g><svg:title>SVG Picture created as kicadBoard-B_Silkscreen.svg date 2022/12/05 02:41:22 </svg:title>
  <svg:desc>Picture generated by PCBNEW </svg:desc>
<svg:g style="fill:#000000; fill-opacity:1.000000;stroke:#000000; stroke-opacity:1.000000; stroke-linecap:round; stroke-linejoin:round;" transform="translate(0 0) scale(1 1)">
</svg:g>
<svg:g style="fill:#000000; fill-opacity:0.0;  stroke:#000000; stroke-width:0.000000; stroke-opacity:1;  stroke-linecap:round; stroke-linejoin:round;">
<svg:g>
</svg:g>
<svg:g>
</svg:g>
<svg:g>
</svg:g>
<svg:g>
</svg:g>
</svg:g>
<svg:g style="fill:#000000; fill-opacity:0.0;  stroke:#000000; stroke-width:0.000000; stroke-opacity:1;  stroke-linecap:round; stroke-linejoin:round;">
<svg:g>
</svg:g>
<svg:g>
</svg:g>
<svg:g>
</svg:g>
<svg:g>
</svg:g>
</svg:g> 
</svg:g><svg:g><svg:title>SVG Picture created as kicadBoard-Edge_Cuts.svg date 2022/12/05 02:41:22 </svg:title>
  <svg:desc>Picture generated by PCBNEW </svg:desc>
<svg:g style="fill:#000000; fill-opacity:1.000000;stroke:#000000; stroke-opacity:1.000000; stroke-linecap:round; stroke-linejoin:round;" transform="translate(0 0) scale(1 1)">
</svg:g>
<svg:g style="fill:#000000; fill-opacity:0.0;  stroke:#000000; stroke-width:0.000000; stroke-opacity:1;  stroke-linecap:round; stroke-linejoin:round;">
<svg:g>
</svg:g>
<svg:g>
</svg:g>
<svg:g>
</svg:g>
<svg:g>
</svg:g>
</svg:g> 
</svg:g><svg:g><svg:title>SVG Picture created as kicadBoard-F_Adhesive.svg date 2022/12/05 02:41:22 </svg:title>
  <svg:desc>Picture generated by PCBNEW </svg:desc>
<svg:g style="fill:#000000; fill-opacity:1.000000;stroke:#000000; stroke-opacity:1.000000; stroke-linecap:round; stroke-linejoin:round;" transform="translate(0 0) scale(1 1)">
</svg:g>
<svg:g style="fill:#000000; fill-opacity:0.0;  stroke:#000000; stroke-width:0.000000; stroke-opacity:1;  stroke-linecap:round; stroke-linejoin:round;">
<svg:g>
</svg:g>
<svg:g>
</svg:g>
<svg:g>
</svg:g>
<svg:g>
</svg:g>
</svg:g>
<svg:g style="fill:#000000; fill-opacity:0.0;  stroke:#000000; stroke-width:0.000000; stroke-opacity:1;  stroke-linecap:round; stroke-linejoin:round;">
<svg:g>
</svg:g>
<svg:g>
</svg:g>
<svg:g>
</svg:g>
<svg:g>
</svg:g>
</svg:g> 
</svg:g><svg:g><svg:title>SVG Picture created as kicadBoard-F_Courtyard.svg date 2022/12/05 02:41:22 </svg:title>
  <svg:desc>Picture generated by PCBNEW </svg:desc>
<svg:g style="fill:#000000; fill-opacity:1.000000;stroke:#000000; stroke-opacity:1.000000; stroke-linecap:round; stroke-linejoin:round;" transform="translate(0 0) scale(1 1)">
</svg:g>
<svg:g style="fill:#000000; fill-opacity:0.0;  stroke:#000000; stroke-width:0.000000; stroke-opacity:1;  stroke-linecap:round; stroke-linejoin:round;">
<svg:g>
</svg:g>
<svg:g>
</svg:g>
<svg:g>
</svg:g>
<svg:g>
</svg:g>
</svg:g>
<svg:g style="fill:#000000; fill-opacity:0.0;  stroke:#000000; stroke-width:0.000000; stroke-opacity:1;  stroke-linecap:round; stroke-linejoin:round;">
<svg:g>
</svg:g>
<svg:g>
</svg:g>
<svg:g>
</svg:g>
<svg:g>
</svg:g>
</svg:g> 
</svg:g><svg:g><svg:title>SVG Picture created as kicadBoard-F_Cu.svg date 2022/12/05 02:41:22 </svg:title>
  <svg:desc>Picture generated by PCBNEW </svg:desc>
<svg:g style="fill:#000000; fill-opacity:1.000000;stroke:#000000; stroke-opacity:1.000000; stroke-linecap:round; stroke-linejoin:round;" transform="translate(0 0) scale(1 1)">
</svg:g>
<svg:g style="fill:#000000; fill-opacity:0.0;  stroke:#000000; stroke-width:0.000000; stroke-opacity:1;  stroke-linecap:round; stroke-linejoin:round;">
<svg:g>
</svg:g>
<svg:g style="fill:#C83434; fill-opacity:0.0;  stroke:#C83434; stroke-width:0.000000; stroke-opacity:1;  stroke-linecap:round; stroke-linejoin:round;">
</svg:g>
<svg:g style="fill:#C83434; fill-opacity:0.0;  stroke:#C83434; stroke-width:1.000000; stroke-opacity:1;  stroke-linecap:round; stroke-linejoin:round;">
</svg:g>
<svg:g style="fill:#C83434; fill-opacity:1.0;  stroke:#C83434; stroke-width:1.000000; stroke-opacity:1;  stroke-linecap:round; stroke-linejoin:round;">
<svg:path style="fill:#C83434; fill-opacity:1.0;  stroke:#C83434; stroke-width:1.000000; stroke-opacity:1;  stroke-linecap:round; stroke-linejoin:round;fill-rule:evenodd;" d="M 47600001.000000,48249999.000000 47600001.000000,46750001.000000 47899999.000000,46750001.000000 47899999.000000,48249999.000000 Z"/> 
<svg:path style="fill:#C83434; fill-opacity:1.0;  stroke:#C83434; stroke-width:1.000000; stroke-opacity:1;  stroke-linecap:round; stroke-linejoin:round;fill-rule:evenodd;" d="M 48100001.000000,48249999.000000 48100001.000000,46750001.000000 48399999.000000,46750001.000000 48399999.000000,48249999.000000 Z"/> 
<svg:path style="fill:#C83434; fill-opacity:1.0;  stroke:#C83434; stroke-width:1.000000; stroke-opacity:1;  stroke-linecap:round; stroke-linejoin:round;fill-rule:evenodd;" d="M 48600001.000000,48249999.000000 48600001.000000,46750001.000000 48899999.000000,46750001.000000 48899999.000000,48249999.000000 Z"/> 
<svg:path style="fill:#C83434; fill-opacity:1.0;  stroke:#C83434; stroke-width:1.000000; stroke-opacity:1;  stroke-linecap:round; stroke-linejoin:round;fill-rule:evenodd;" d="M 49100001.000000,48249999.000000 49100001.000000,46750001.000000 49399999.000000,46750001.000000 49399999.000000,48249999.000000 Z"/> 
<svg:path style="fill:#C83434; fill-opacity:1.0;  stroke:#C83434; stroke-width:1.000000; stroke-opacity:1;  stroke-linecap:round; stroke-linejoin:round;fill-rule:evenodd;" d="M 49600001.000000,48249999.000000 49600001.000000,46750001.000000 49899999.000000,46750001.000000 49899999.000000,48249999.000000 Z"/> 
<svg:path style="fill:#C83434; fill-opacity:1.0;  stroke:#C83434; stroke-width:1.000000; stroke-opacity:1;  stroke-linecap:round; stroke-linejoin:round;fill-rule:evenodd;" d="M 50100001.000000,48249999.000000 50100001.000000,46750001.000000 50399999.000000,46750001.000000 50399999.000000,48249999.000000 Z"/> 
<svg:path style="fill:#C83434; fill-opacity:1.0;  stroke:#C83434; stroke-width:1.000000; stroke-opacity:1;  stroke-linecap:round; stroke-linejoin:round;fill-rule:evenodd;" d="M 50600001.000000,48249999.000000 50600001.000000,46750001.000000 50899999.000000,46750001.000000 50899999.000000,48249999.000000 Z"/> 
<svg:path style="fill:#C83434; fill-opacity:1.0;  stroke:#C83434; stroke-width:1.000000; stroke-opacity:1;  stroke-linecap:round; stroke-linejoin:round;fill-rule:evenodd;" d="M 51100001.000000,48249999.000000 51100001.000000,46750001.000000 51399999.000000,46750001.000000 51399999.000000,48249999.000000 Z"/> 
<svg:path style="fill:#C83434; fill-opacity:1.0;  stroke:#C83434; stroke-width:1.000000; stroke-opacity:1;  stroke-linecap:round; stroke-linejoin:round;fill-rule:evenodd;" d="M 51600001.000000,48249999.000000 51600001.000000,46750001.000000 51899999.000000,46750001.000000 51899999.000000,48249999.000000 Z"/> 
<svg:path style="fill:#C83434; fill-opacity:1.0;  stroke:#C83434; stroke-width:1.000000; stroke-opacity:1;  stroke-linecap:round; stroke-linejoin:round;fill-rule:evenodd;" d="M 52100001.000000,48249999.000000 52100001.000000,46750001.000000 52399999.000000,46750001.000000 52399999.000000,48249999.000000 Z"/> 
</svg:g>
<svg:g>
</svg:g>
<svg:g>
</svg:g>
<svg:g>
</svg:g>
</svg:g>
<svg:g style="fill:#FFFFFF; fill-opacity:1.0;  stroke:#FFFFFF; stroke-width:1.000000; stroke-opacity:1;  stroke-linecap:round; stroke-linejoin:round;">
</svg:g>
<svg:g style="fill:#000000; fill-opacity:1.0;  stroke:#000000; stroke-width:1.000000; stroke-opacity:1;  stroke-linecap:round; stroke-linejoin:round;">
<svg:g>
</svg:g>
<svg:g>
</svg:g>
<svg:g>
</svg:g>
<svg:g>
</svg:g>
</svg:g> 
</svg:g><svg:g><svg:title>SVG Picture created as kicadBoard-F_Fab.svg date 2022/12/05 02:41:22 </svg:title>
  <svg:desc>Picture generated by PCBNEW </svg:desc>
<svg:g style="fill:#000000; fill-opacity:1.000000;stroke:#000000; stroke-opacity:1.000000; stroke-linecap:round; stroke-linejoin:round;" transform="translate(0 0) scale(1 1)">
</svg:g>
<svg:g style="fill:#000000; fill-opacity:0.0;  stroke:#000000; stroke-width:0.000000; stroke-opacity:1;  stroke-linecap:round; stroke-linejoin:round;">
</svg:g>
<svg:g style="fill:#AFAFAF; fill-opacity:0.0;  stroke:#AFAFAF; stroke-width:0.000000; stroke-opacity:1;  stroke-linecap:round; stroke-linejoin:round;">
</svg:g>
<svg:g style="fill:#AFAFAF; fill-opacity:0.0;  stroke:#AFAFAF; stroke-width:101600.000000; stroke-opacity:1;  stroke-linecap:round; stroke-linejoin:round;">
<svg:text x="47750000.000000" y="51750000.000000" textLength="6808651.000000" font-size="1557866.000000" lengthAdjust="spacingAndGlyphs" text-anchor="start" opacity="0">&gt;VALUE</svg:text>
<svg:g class="stroked-text"><svg:desc>&gt;VALUE</svg:desc>
<svg:path d="M48094230 50915428 L48984440 51249257 L48094230 51583085 "/>
<svg:path d="M49373906 50525961 L49763373 51694361 L50152840 50525961 "/>
<svg:path d="M50486668 51360533 L51043049 51360533 "/>
<svg:path d="M50375392 51694361 L50764859 50525961 L51154325 51694361 "/>
<svg:path d="M52100173 51694361 L51543792 51694361 L51543792 50525961 "/>
<svg:path d="M52489640 50525961 L52489640 51471809 L52545278 51583085 L52600916 51638723 L52712192 51694361 L52934744 51694361 L53046020 51638723 L53101659 51583085 L53157297 51471809 L53157297 50525961 "/>
<svg:path d="M53713678 51082342 L54103144 51082342 "/>
<svg:path d="M54270059 51694361 L53713678 51694361 L53713678 50525961 L54270059 50525961 "/>
</svg:g></svg:g>
<svg:g style="fill:#AFAFAF; fill-opacity:0.0;  stroke:#AFAFAF; stroke-width:203200.000000; stroke-opacity:1;  stroke-linecap:round; stroke-linejoin:round;">
<svg:path d="M47300000 47400000 L52700000 47400000 "/>
<svg:g>
</svg:g>
<svg:g>
</svg:g>
<svg:g>
</svg:g>
<svg:g>
</svg:g>
</svg:g>
<svg:g style="fill:#000000; fill-opacity:0.0;  stroke:#000000; stroke-width:203200.000000; stroke-opacity:1;  stroke-linecap:round; stroke-linejoin:round;">
<svg:g>
</svg:g>
<svg:g>
</svg:g>
<svg:g>
</svg:g>
<svg:g>
</svg:g>
</svg:g> 
</svg:g><svg:g><svg:title>SVG Picture created as kicadBoard-F_Mask.svg date 2022/12/05 02:41:22 </svg:title>
  <svg:desc>Picture generated by PCBNEW </svg:desc>
<svg:g style="fill:#000000; fill-opacity:1.000000;stroke:#000000; stroke-opacity:1.000000; stroke-linecap:round; stroke-linejoin:round;" transform="translate(0 0) scale(1 1)">
</svg:g>
<svg:g style="fill:#000000; fill-opacity:0.0;  stroke:#000000; stroke-width:0.000000; stroke-opacity:1;  stroke-linecap:round; stroke-linejoin:round;">
<svg:g>
</svg:g>
<svg:g style="fill:#000000; fill-opacity:0.0;  stroke:#000000; stroke-width:1.000000; stroke-opacity:1;  stroke-linecap:round; stroke-linejoin:round;">
</svg:g>
<svg:g style="fill:#000000; fill-opacity:1.0;  stroke:#000000; stroke-width:1.000000; stroke-opacity:1;  stroke-linecap:round; stroke-linejoin:round;">
<svg:path style="fill:#000000; fill-opacity:1.0;  stroke:#000000; stroke-width:1.000000; stroke-opacity:1;  stroke-linecap:round; stroke-linejoin:round;fill-rule:evenodd;" d="M 47498400.000000,46750000.000000 47506134.000000,46711119.000000 47528158.000000,46678158.000000 47561119.000000,46656134.000000 47600000.000000,46648400.000000 47900000.000000,46648400.000000 47938881.000000,46656134.000000 47971842.000000,46678158.000000 47993866.000000,46711119.000000 48001600.000000,46750000.000000 48001600.000000,48250000.000000 47993866.000000,48288881.000000 47971842.000000,48321842.000000 47938881.000000,48343866.000000 47900000.000000,48351600.000000 47600000.000000,48351600.000000 47561119.000000,48343866.000000 47528158.000000,48321842.000000 47506134.000000,48288881.000000 47498400.000000,48250000.000000 Z"/> 
<svg:path style="fill:#000000; fill-opacity:1.0;  stroke:#000000; stroke-width:1.000000; stroke-opacity:1;  stroke-linecap:round; stroke-linejoin:round;fill-rule:evenodd;" d="M 47998400.000000,46750000.000000 48006134.000000,46711119.000000 48028158.000000,46678158.000000 48061119.000000,46656134.000000 48100000.000000,46648400.000000 48400000.000000,46648400.000000 48438881.000000,46656134.000000 48471842.000000,46678158.000000 48493866.000000,46711119.000000 48501600.000000,46750000.000000 48501600.000000,48250000.000000 48493866.000000,48288881.000000 48471842.000000,48321842.000000 48438881.000000,48343866.000000 48400000.000000,48351600.000000 48100000.000000,48351600.000000 48061119.000000,48343866.000000 48028158.000000,48321842.000000 48006134.000000,48288881.000000 47998400.000000,48250000.000000 Z"/> 
<svg:path style="fill:#000000; fill-opacity:1.0;  stroke:#000000; stroke-width:1.000000; stroke-opacity:1;  stroke-linecap:round; stroke-linejoin:round;fill-rule:evenodd;" d="M 48498400.000000,46750000.000000 48506134.000000,46711119.000000 48528158.000000,46678158.000000 48561119.000000,46656134.000000 48600000.000000,46648400.000000 48900000.000000,46648400.000000 48938881.000000,46656134.000000 48971842.000000,46678158.000000 48993866.000000,46711119.000000 49001600.000000,46750000.000000 49001600.000000,48250000.000000 48993866.000000,48288881.000000 48971842.000000,48321842.000000 48938881.000000,48343866.000000 48900000.000000,48351600.000000 48600000.000000,48351600.000000 48561119.000000,48343866.000000 48528158.000000,48321842.000000 48506134.000000,48288881.000000 48498400.000000,48250000.000000 Z"/> 
<svg:path style="fill:#000000; fill-opacity:1.0;  stroke:#000000; stroke-width:1.000000; stroke-opacity:1;  stroke-linecap:round; stroke-linejoin:round;fill-rule:evenodd;" d="M 48998400.000000,46750000.000000 49006134.000000,46711119.000000 49028158.000000,46678158.000000 49061119.000000,46656134.000000 49100000.000000,46648400.000000 49400000.000000,46648400.000000 49438881.000000,46656134.000000 49471842.000000,46678158.000000 49493866.000000,46711119.000000 49501600.000000,46750000.000000 49501600.000000,48250000.000000 49493866.000000,48288881.000000 49471842.000000,48321842.000000 49438881.000000,48343866.000000 49400000.000000,48351600.000000 49100000.000000,48351600.000000 49061119.000000,48343866.000000 49028158.000000,48321842.000000 49006134.000000,48288881.000000 48998400.000000,48250000.000000 Z"/> 
<svg:path style="fill:#000000; fill-opacity:1.0;  stroke:#000000; stroke-width:1.000000; stroke-opacity:1;  stroke-linecap:round; stroke-linejoin:round;fill-rule:evenodd;" d="M 49498400.000000,46750000.000000 49506134.000000,46711119.000000 49528158.000000,46678158.000000 49561119.000000,46656134.000000 49600000.000000,46648400.000000 49900000.000000,46648400.000000 49938881.000000,46656134.000000 49971842.000000,46678158.000000 49993866.000000,46711119.000000 50001600.000000,46750000.000000 50001600.000000,48250000.000000 49993866.000000,48288881.000000 49971842.000000,48321842.000000 49938881.000000,48343866.000000 49900000.000000,48351600.000000 49600000.000000,48351600.000000 49561119.000000,48343866.000000 49528158.000000,48321842.000000 49506134.000000,48288881.000000 49498400.000000,48250000.000000 Z"/> 
<svg:path style="fill:#000000; fill-opacity:1.0;  stroke:#000000; stroke-width:1.000000; stroke-opacity:1;  stroke-linecap:round; stroke-linejoin:round;fill-rule:evenodd;" d="M 49998400.000000,46750000.000000 50006134.000000,46711119.000000 50028158.000000,46678158.000000 50061119.000000,46656134.000000 50100000.000000,46648400.000000 50400000.000000,46648400.000000 50438881.000000,46656134.000000 50471842.000000,46678158.000000 50493866.000000,46711119.000000 50501600.000000,46750000.000000 50501600.000000,48250000.000000 50493866.000000,48288881.000000 50471842.000000,48321842.000000 50438881.000000,48343866.000000 50400000.000000,48351600.000000 50100000.000000,48351600.000000 50061119.000000,48343866.000000 50028158.000000,48321842.000000 50006134.000000,48288881.000000 49998400.000000,48250000.000000 Z"/> 
<svg:path style="fill:#000000; fill-opacity:1.0;  stroke:#000000; stroke-width:1.000000; stroke-opacity:1;  stroke-linecap:round; stroke-linejoin:round;fill-rule:evenodd;" d="M 50498400.000000,46750000.000000 50506134.000000,46711119.000000 50528158.000000,46678158.000000 50561119.000000,46656134.000000 50600000.000000,46648400.000000 50900000.000000,46648400.000000 50938881.000000,46656134.000000 50971842.000000,46678158.000000 50993866.000000,46711119.000000 51001600.000000,46750000.000000 51001600.000000,48250000.000000 50993866.000000,48288881.000000 50971842.000000,48321842.000000 50938881.000000,48343866.000000 50900000.000000,48351600.000000 50600000.000000,48351600.000000 50561119.000000,48343866.000000 50528158.000000,48321842.000000 50506134.000000,48288881.000000 50498400.000000,48250000.000000 Z"/> 
<svg:path style="fill:#000000; fill-opacity:1.0;  stroke:#000000; stroke-width:1.000000; stroke-opacity:1;  stroke-linecap:round; stroke-linejoin:round;fill-rule:evenodd;" d="M 50998400.000000,46750000.000000 51006134.000000,46711119.000000 51028158.000000,46678158.000000 51061119.000000,46656134.000000 51100000.000000,46648400.000000 51400000.000000,46648400.000000 51438881.000000,46656134.000000 51471842.000000,46678158.000000 51493866.000000,46711119.000000 51501600.000000,46750000.000000 51501600.000000,48250000.000000 51493866.000000,48288881.000000 51471842.000000,48321842.000000 51438881.000000,48343866.000000 51400000.000000,48351600.000000 51100000.000000,48351600.000000 51061119.000000,48343866.000000 51028158.000000,48321842.000000 51006134.000000,48288881.000000 50998400.000000,48250000.000000 Z"/> 
<svg:path style="fill:#000000; fill-opacity:1.0;  stroke:#000000; stroke-width:1.000000; stroke-opacity:1;  stroke-linecap:round; stroke-linejoin:round;fill-rule:evenodd;" d="M 51498400.000000,46750000.000000 51506134.000000,46711119.000000 51528158.000000,46678158.000000 51561119.000000,46656134.000000 51600000.000000,46648400.000000 51900000.000000,46648400.000000 51938881.000000,46656134.000000 51971842.000000,46678158.000000 51993866.000000,46711119.000000 52001600.000000,46750000.000000 52001600.000000,48250000.000000 51993866.000000,48288881.000000 51971842.000000,48321842.000000 51938881.000000,48343866.000000 51900000.000000,48351600.000000 51600000.000000,48351600.000000 51561119.000000,48343866.000000 51528158.000000,48321842.000000 51506134.000000,48288881.000000 51498400.000000,48250000.000000 Z"/> 
<svg:path style="fill:#000000; fill-opacity:1.0;  stroke:#000000; stroke-width:1.000000; stroke-opacity:1;  stroke-linecap:round; stroke-linejoin:round;fill-rule:evenodd;" d="M 51998400.000000,46750000.000000 52006134.000000,46711119.000000 52028158.000000,46678158.000000 52061119.000000,46656134.000000 52100000.000000,46648400.000000 52400000.000000,46648400.000000 52438881.000000,46656134.000000 52471842.000000,46678158.000000 52493866.000000,46711119.000000 52501600.000000,46750000.000000 52501600.000000,48250000.000000 52493866.000000,48288881.000000 52471842.000000,48321842.000000 52438881.000000,48343866.000000 52400000.000000,48351600.000000 52100000.000000,48351600.000000 52061119.000000,48343866.000000 52028158.000000,48321842.000000 52006134.000000,48288881.000000 51998400.000000,48250000.000000 Z"/> 
</svg:g>
<svg:g>
</svg:g>
<svg:g>
</svg:g>
<svg:g>
</svg:g>
</svg:g>
<svg:g style="fill:#000000; fill-opacity:1.0;  stroke:#000000; stroke-width:1.000000; stroke-opacity:1;  stroke-linecap:round; stroke-linejoin:round;">
<svg:g>
</svg:g>
<svg:g>
</svg:g>
<svg:g>
</svg:g>
<svg:g>
</svg:g>
</svg:g> 
</svg:g><svg:g><svg:title>SVG Picture created as kicadBoard-F_Paste.svg date 2022/12/05 02:41:22 </svg:title>
  <svg:desc>Picture generated by PCBNEW </svg:desc>
<svg:g style="fill:#000000; fill-opacity:1.000000;stroke:#000000; stroke-opacity:1.000000; stroke-linecap:round; stroke-linejoin:round;" transform="translate(0 0) scale(1 1)">
</svg:g>
<svg:g style="fill:#000000; fill-opacity:0.0;  stroke:#000000; stroke-width:0.000000; stroke-opacity:1;  stroke-linecap:round; stroke-linejoin:round;">
<svg:g>
</svg:g>
<svg:g style="fill:#000000; fill-opacity:0.0;  stroke:#000000; stroke-width:1.000000; stroke-opacity:1;  stroke-linecap:round; stroke-linejoin:round;">
</svg:g>
<svg:g style="fill:#000000; fill-opacity:1.0;  stroke:#000000; stroke-width:1.000000; stroke-opacity:1;  stroke-linecap:round; stroke-linejoin:round;">
<svg:path style="fill:#000000; fill-opacity:1.0;  stroke:#000000; stroke-width:1.000000; stroke-opacity:1;  stroke-linecap:round; stroke-linejoin:round;fill-rule:evenodd;" d="M 47600001.000000,48249999.000000 47600001.000000,46750001.000000 47899999.000000,46750001.000000 47899999.000000,48249999.000000 Z"/> 
<svg:path style="fill:#000000; fill-opacity:1.0;  stroke:#000000; stroke-width:1.000000; stroke-opacity:1;  stroke-linecap:round; stroke-linejoin:round;fill-rule:evenodd;" d="M 48100001.000000,48249999.000000 48100001.000000,46750001.000000 48399999.000000,46750001.000000 48399999.000000,48249999.000000 Z"/> 
<svg:path style="fill:#000000; fill-opacity:1.0;  stroke:#000000; stroke-width:1.000000; stroke-opacity:1;  stroke-linecap:round; stroke-linejoin:round;fill-rule:evenodd;" d="M 48600001.000000,48249999.000000 48600001.000000,46750001.000000 48899999.000000,46750001.000000 48899999.000000,48249999.000000 Z"/> 
<svg:path style="fill:#000000; fill-opacity:1.0;  stroke:#000000; stroke-width:1.000000; stroke-opacity:1;  stroke-linecap:round; stroke-linejoin:round;fill-rule:evenodd;" d="M 49100001.000000,48249999.000000 49100001.000000,46750001.000000 49399999.000000,46750001.000000 49399999.000000,48249999.000000 Z"/> 
<svg:path style="fill:#000000; fill-opacity:1.0;  stroke:#000000; stroke-width:1.000000; stroke-opacity:1;  stroke-linecap:round; stroke-linejoin:round;fill-rule:evenodd;" d="M 49600001.000000,48249999.000000 49600001.000000,46750001.000000 49899999.000000,46750001.000000 49899999.000000,48249999.000000 Z"/> 
<svg:path style="fill:#000000; fill-opacity:1.0;  stroke:#000000; stroke-width:1.000000; stroke-opacity:1;  stroke-linecap:round; stroke-linejoin:round;fill-rule:evenodd;" d="M 50100001.000000,48249999.000000 50100001.000000,46750001.000000 50399999.000000,46750001.000000 50399999.000000,48249999.000000 Z"/> 
<svg:path style="fill:#000000; fill-opacity:1.0;  stroke:#000000; stroke-width:1.000000; stroke-opacity:1;  stroke-linecap:round; stroke-linejoin:round;fill-rule:evenodd;" d="M 50600001.000000,48249999.000000 50600001.000000,46750001.000000 50899999.000000,46750001.000000 50899999.000000,48249999.000000 Z"/> 
<svg:path style="fill:#000000; fill-opacity:1.0;  stroke:#000000; stroke-width:1.000000; stroke-opacity:1;  stroke-linecap:round; stroke-linejoin:round;fill-rule:evenodd;" d="M 51100001.000000,48249999.000000 51100001.000000,46750001.000000 51399999.000000,46750001.000000 51399999.000000,48249999.000000 Z"/> 
<svg:path style="fill:#000000; fill-opacity:1.0;  stroke:#000000; stroke-width:1.000000; stroke-opacity:1;  stroke-linecap:round; stroke-linejoin:round;fill-rule:evenodd;" d="M 51600001.000000,48249999.000000 51600001.000000,46750001.000000 51899999.000000,46750001.000000 51899999.000000,48249999.000000 Z"/> 
<svg:path style="fill:#000000; fill-opacity:1.0;  stroke:#000000; stroke-width:1.000000; stroke-opacity:1;  stroke-linecap:round; stroke-linejoin:round;fill-rule:evenodd;" d="M 52100001.000000,48249999.000000 52100001.000000,46750001.000000 52399999.000000,46750001.000000 52399999.000000,48249999.000000 Z"/> 
</svg:g>
<svg:g>
</svg:g>
<svg:g>
</svg:g>
<svg:g>
</svg:g>
</svg:g>
<svg:g style="fill:#000000; fill-opacity:1.0;  stroke:#000000; stroke-width:1.000000; stroke-opacity:1;  stroke-linecap:round; stroke-linejoin:round;">
<svg:g>
</svg:g>
<svg:g>
</svg:g>
<svg:g>
</svg:g>
<svg:g>
</svg:g>
</svg:g> 
</svg:g><svg:g><svg:title>SVG Picture created as kicadBoard-F_Silkscreen.svg date 2022/12/05 02:41:22 </svg:title>
  <svg:desc>Picture generated by PCBNEW </svg:desc>
<svg:g style="fill:#000000; fill-opacity:1.000000;stroke:#000000; stroke-opacity:1.000000; stroke-linecap:round; stroke-linejoin:round;" transform="translate(0 0) scale(1 1)">
</svg:g>
<svg:g style="fill:#000000; fill-opacity:0.0;  stroke:#000000; stroke-width:0.000000; stroke-opacity:1;  stroke-linecap:round; stroke-linejoin:round;">
</svg:g>
<svg:g style="fill:#F2EDA1; fill-opacity:0.0;  stroke:#F2EDA1; stroke-width:0.000000; stroke-opacity:1;  stroke-linecap:round; stroke-linejoin:round;">
</svg:g>
<svg:g style="fill:#F2EDA1; fill-opacity:0.0;  stroke:#F2EDA1; stroke-width:101600.000000; stroke-opacity:1;  stroke-linecap:round; stroke-linejoin:round;">
<svg:text x="46480000.000000" y="46190000.000000" textLength="16301963.000000" font-size="1557866.000000" lengthAdjust="spacingAndGlyphs" text-anchor="start" opacity="0">FZECONJST1FLZSM</svg:text>
<svg:g class="stroked-text"><svg:desc>FZECONJST1FLZSM</svg:desc>
<svg:path d="M47213697 45522342 L46824230 45522342 "/>
<svg:path d="M46824230 46134361 L46824230 44965961 L47380611 44965961 "/>
<svg:path d="M47714440 44965961 L48493373 44965961 L47714440 46134361 L48493373 46134361 "/>
<svg:path d="M48938478 45522342 L49327944 45522342 "/>
<svg:path d="M49494859 46134361 L48938478 46134361 L48938478 44965961 L49494859 44965961 "/>
<svg:path d="M50663259 46023085 L50607620 46078723 L50440706 46134361 L50329430 46134361 L50162516 46078723 L50051240 45967447 L49995601 45856171 L49939963 45633619 L49939963 45466704 L49995601 45244152 L50051240 45132876 L50162516 45021600 L50329430 44965961 L50440706 44965961 L50607620 45021600 L50663259 45077238 "/>
<svg:path d="M51386554 44965961 L51609106 44965961 L51720382 45021600 L51831659 45132876 L51887297 45355428 L51887297 45744895 L51831659 45967447 L51720382 46078723 L51609106 46134361 L51386554 46134361 L51275278 46078723 L51164001 45967447 L51108363 45744895 L51108363 45355428 L51164001 45132876 L51275278 45021600 L51386554 44965961 "/>
<svg:path d="M52388040 46134361 L52388040 44965961 L53055697 46134361 L53055697 44965961 "/>
<svg:path d="M53945906 44965961 L53945906 45800533 L53890268 45967447 L53778992 46078723 L53612078 46134361 L53500801 46134361 "/>
<svg:path d="M54446649 46078723 L54613563 46134361 L54891754 46134361 L55003030 46078723 L55058668 46023085 L55114306 45911809 L55114306 45800533 L55058668 45689257 L55003030 45633619 L54891754 45577980 L54669201 45522342 L54557925 45466704 L54502287 45411066 L54446649 45299790 L54446649 45188514 L54502287 45077238 L54557925 45021600 L54669201 44965961 L54947392 44965961 L55114306 45021600 "/>
<svg:path d="M55448135 44965961 L56115792 44965961 "/>
<svg:path d="M55781963 46134361 L55781963 44965961 "/>
<svg:path d="M57117278 46134361 L56449620 46134361 "/>
<svg:path d="M56783449 46134361 L56783449 44965961 L56672173 45132876 L56560897 45244152 L56449620 45299790 "/>
<svg:path d="M58007487 45522342 L57618020 45522342 "/>
<svg:path d="M57618020 46134361 L57618020 44965961 L58174401 44965961 "/>
<svg:path d="M59175887 46134361 L58619506 46134361 L58619506 44965961 "/>
<svg:path d="M59454078 44965961 L60233011 44965961 L59454078 46134361 L60233011 46134361 "/>
<svg:path d="M60622478 46078723 L60789392 46134361 L61067582 46134361 L61178859 46078723 L61234497 46023085 L61290135 45911809 L61290135 45800533 L61234497 45689257 L61178859 45633619 L61067582 45577980 L60845030 45522342 L60733754 45466704 L60678116 45411066 L60622478 45299790 L60622478 45188514 L60678116 45077238 L60733754 45021600 L60845030 44965961 L61123220 44965961 L61290135 45021600 "/>
<svg:path d="M61790878 46134361 L61790878 44965961 L62180344 45800533 L62569811 44965961 L62569811 46134361 "/>
</svg:g></svg:g>
<svg:g style="fill:#F2EDA1; fill-opacity:0.0;  stroke:#F2EDA1; stroke-width:203200.000000; stroke-opacity:1;  stroke-linecap:round; stroke-linejoin:round;">
<svg:path d="M44650000 47400000 L47300000 47400000 "/>
<svg:path d="M44650000 52500000 L44650000 47400000 "/>
</svg:g>
<svg:g style="fill:#F2EDA1; fill-opacity:0.0;  stroke:#F2EDA1; stroke-width:304800.000000; stroke-opacity:1;  stroke-linecap:round; stroke-linejoin:round;">
<svg:path d="M47000000 52000000 L46250000 50500000 "/>
<svg:path d="M45500000 52000000 L47000000 52000000 "/>
</svg:g>
<svg:g style="fill:#F2EDA1; fill-opacity:0.0;  stroke:#F2EDA1; stroke-width:203200.000000; stroke-opacity:1;  stroke-linecap:round; stroke-linejoin:round;">
<svg:path d="M55350000 47400000 L55350000 52500000 "/>
<svg:path d="M55350000 52500000 L44650000 52500000 "/>
</svg:g>
<svg:g style="fill:#F2EDA1; fill-opacity:0.0;  stroke:#F2EDA1; stroke-width:304800.000000; stroke-opacity:1;  stroke-linecap:round; stroke-linejoin:round;">
<svg:path d="M46250000 50500000 L45500000 52000000 "/>
</svg:g>
<svg:g style="fill:#F2EDA1; fill-opacity:0.0;  stroke:#F2EDA1; stroke-width:203200.000000; stroke-opacity:1;  stroke-linecap:round; stroke-linejoin:round;">
<svg:path d="M52700000 47400000 L55350000 47400000 "/>
<svg:g>
</svg:g>
<svg:g>
</svg:g>
<svg:g>
</svg:g>
<svg:g>
</svg:g>
</svg:g>
<svg:g style="fill:#000000; fill-opacity:0.0;  stroke:#000000; stroke-width:203200.000000; stroke-opacity:1;  stroke-linecap:round; stroke-linejoin:round;">
<svg:g>
</svg:g>
<svg:g>
</svg:g>
<svg:g>
</svg:g>
<svg:g>
</svg:g>
</svg:g> 
</svg:g><svg:g><svg:title>SVG Picture created as kicadBoard-Margin.svg date 2022/12/05 02:41:22 </svg:title>
  <svg:desc>Picture generated by PCBNEW </svg:desc>
<svg:g style="fill:#000000; fill-opacity:1.000000;stroke:#000000; stroke-opacity:1.000000; stroke-linecap:round; stroke-linejoin:round;" transform="translate(0 0) scale(1 1)">
</svg:g>
<svg:g style="fill:#000000; fill-opacity:0.0;  stroke:#000000; stroke-width:0.000000; stroke-opacity:1;  stroke-linecap:round; stroke-linejoin:round;">
<svg:g>
</svg:g>
<svg:g>
</svg:g>
<svg:g>
</svg:g>
<svg:g>
</svg:g>
</svg:g>
<svg:g style="fill:#000000; fill-opacity:0.0;  stroke:#000000; stroke-width:0.000000; stroke-opacity:1;  stroke-linecap:round; stroke-linejoin:round;">
<svg:g>
</svg:g>
<svg:g>
</svg:g>
<svg:g>
</svg:g>
<svg:g>
</svg:g>
</svg:g> 
</svg:g><svg:g><svg:title>SVG Picture created as kicadBoard-F_Cu.svg date 2022/12/05 02:41:22 </svg:title>
  <svg:desc>Picture generated by PCBNEW </svg:desc>
<svg:g style="fill:#000000; fill-opacity:1.000000;stroke:#000000; stroke-opacity:1.000000; stroke-linecap:round; stroke-linejoin:round;" transform="translate(0 0) scale(1 1)">
</svg:g>
<svg:g style="fill:#000000; fill-opacity:0.0;  stroke:#000000; stroke-width:0.000000; stroke-opacity:1;  stroke-linecap:round; stroke-linejoin:round;">
<svg:g>
</svg:g>
<svg:g style="fill:#C83434; fill-opacity:0.0;  stroke:#C83434; stroke-width:0.000000; stroke-opacity:1;  stroke-linecap:round; stroke-linejoin:round;">
</svg:g>
<svg:g style="fill:#C83434; fill-opacity:0.0;  stroke:#C83434; stroke-width:1.000000; stroke-opacity:1;  stroke-linecap:round; stroke-linejoin:round;">
</svg:g>
<svg:g style="fill:#C83434; fill-opacity:1.0;  stroke:#C83434; stroke-width:1.000000; stroke-opacity:1;  stroke-linecap:round; stroke-linejoin:round;">
<svg:path style="fill:#C83434; fill-opacity:1.0;  stroke:#C83434; stroke-width:1.000000; stroke-opacity:1;  stroke-linecap:round; stroke-linejoin:round;fill-rule:evenodd;" d="M 47600001.000000,48249999.000000 47600001.000000,46750001.000000 47899999.000000,46750001.000000 47899999.000000,48249999.000000 Z"/> 
<svg:path style="fill:#C83434; fill-opacity:1.0;  stroke:#C83434; stroke-width:1.000000; stroke-opacity:1;  stroke-linecap:round; stroke-linejoin:round;fill-rule:evenodd;" d="M 48100001.000000,48249999.000000 48100001.000000,46750001.000000 48399999.000000,46750001.000000 48399999.000000,48249999.000000 Z"/> 
<svg:path style="fill:#C83434; fill-opacity:1.0;  stroke:#C83434; stroke-width:1.000000; stroke-opacity:1;  stroke-linecap:round; stroke-linejoin:round;fill-rule:evenodd;" d="M 48600001.000000,48249999.000000 48600001.000000,46750001.000000 48899999.000000,46750001.000000 48899999.000000,48249999.000000 Z"/> 
<svg:path style="fill:#C83434; fill-opacity:1.0;  stroke:#C83434; stroke-width:1.000000; stroke-opacity:1;  stroke-linecap:round; stroke-linejoin:round;fill-rule:evenodd;" d="M 49100001.000000,48249999.000000 49100001.000000,46750001.000000 49399999.000000,46750001.000000 49399999.000000,48249999.000000 Z"/> 
<svg:path style="fill:#C83434; fill-opacity:1.0;  stroke:#C83434; stroke-width:1.000000; stroke-opacity:1;  stroke-linecap:round; stroke-linejoin:round;fill-rule:evenodd;" d="M 49600001.000000,48249999.000000 49600001.000000,46750001.000000 49899999.000000,46750001.000000 49899999.000000,48249999.000000 Z"/> 
<svg:path style="fill:#C83434; fill-opacity:1.0;  stroke:#C83434; stroke-width:1.000000; stroke-opacity:1;  stroke-linecap:round; stroke-linejoin:round;fill-rule:evenodd;" d="M 50100001.000000,48249999.000000 50100001.000000,46750001.000000 50399999.000000,46750001.000000 50399999.000000,48249999.000000 Z"/> 
<svg:path style="fill:#C83434; fill-opacity:1.0;  stroke:#C83434; stroke-width:1.000000; stroke-opacity:1;  stroke-linecap:round; stroke-linejoin:round;fill-rule:evenodd;" d="M 50600001.000000,48249999.000000 50600001.000000,46750001.000000 50899999.000000,46750001.000000 50899999.000000,48249999.000000 Z"/> 
<svg:path style="fill:#C83434; fill-opacity:1.0;  stroke:#C83434; stroke-width:1.000000; stroke-opacity:1;  stroke-linecap:round; stroke-linejoin:round;fill-rule:evenodd;" d="M 51100001.000000,48249999.000000 51100001.000000,46750001.000000 51399999.000000,46750001.000000 51399999.000000,48249999.000000 Z"/> 
<svg:path style="fill:#C83434; fill-opacity:1.0;  stroke:#C83434; stroke-width:1.000000; stroke-opacity:1;  stroke-linecap:round; stroke-linejoin:round;fill-rule:evenodd;" d="M 51600001.000000,48249999.000000 51600001.000000,46750001.000000 51899999.000000,46750001.000000 51899999.000000,48249999.000000 Z"/> 
<svg:path style="fill:#C83434; fill-opacity:1.0;  stroke:#C83434; stroke-width:1.000000; stroke-opacity:1;  stroke-linecap:round; stroke-linejoin:round;fill-rule:evenodd;" d="M 52100001.000000,48249999.000000 52100001.000000,46750001.000000 52399999.000000,46750001.000000 52399999.000000,48249999.000000 Z"/> 
</svg:g>
<svg:g>
</svg:g>
<svg:g>
</svg:g>
<svg:g>
</svg:g>
</svg:g>
<svg:g style="fill:#FFFFFF; fill-opacity:1.0;  stroke:#FFFFFF; stroke-width:1.000000; stroke-opacity:1;  stroke-linecap:round; stroke-linejoin:round;">
</svg:g>
<svg:g style="fill:#000000; fill-opacity:1.0;  stroke:#000000; stroke-width:1.000000; stroke-opacity:1;  stroke-linecap:round; stroke-linejoin:round;">
<svg:g>
</svg:g>
<svg:g>
</svg:g>
<svg:g>
</svg:g>
<svg:g>
</svg:g>
</svg:g> 
</svg:g></svg>
