<?xml version='1.0' encoding='ASCII' standalone='yes'?>
<svg xmlns:svg="http://www.w3.org/2000/svg" xmlns="http://www.w3.org/2000/svg" xmlns:xlink="http://www.w3.org/1999/xlink" version="1.1" width="9.999980cm" height="9.999980cm" viewBox="0 0 99999800 99999800">
<title>SVG Picture created as kicadBoard-B_Cu.svg date 2022/11/17 05:06:22 </title>
  <desc>Picture generated by PCBNEW </desc>
<g style="fill:#000000; fill-opacity:1.000000;stroke:#000000; stroke-opacity:1.000000; stroke-linecap:round; stroke-linejoin:round;" transform="translate(0 0) scale(1 1)">
</g>
<g style="fill:#000000; fill-opacity:0.0;  stroke:#000000; stroke-width:0.000000; stroke-opacity:1;  stroke-linecap:round; stroke-linejoin:round;">
<g>
</g>
<g style="fill:#4D7FC4; fill-opacity:0.0;  stroke:#4D7FC4; stroke-width:0.000000; stroke-opacity:1;  stroke-linecap:round; stroke-linejoin:round;">
</g>
<g style="fill:#4D7FC4; fill-opacity:1.0;  stroke:#4D7FC4; stroke-width:1.000000; stroke-opacity:1;  stroke-linecap:round; stroke-linejoin:round;">
<circle cx="50000000.000000" cy="50000000.000000" r="1200000.000000"/> 
</g>
<g style="fill:#4D7FC4; fill-opacity:1.0;  stroke:#4D7FC4; stroke-width:21200.000000; stroke-opacity:1;  stroke-linecap:round; stroke-linejoin:round;">
</g>
<g style="fill:#4D7FC4; fill-opacity:1.0;  stroke:#4D7FC4; stroke-width:1.000000; stroke-opacity:1;  stroke-linecap:round; stroke-linejoin:round;">
<circle cx="65000000.000000" cy="50000000.000000" r="1200000.000000"/> 
</g>
<g style="fill:#4D7FC4; fill-opacity:1.0;  stroke:#4D7FC4; stroke-width:21200.000000; stroke-opacity:1;  stroke-linecap:round; stroke-linejoin:round;">
</g>
<g>
</g>
<g>
</g>
<g>
</g>
</g>
<g style="fill:#FFFFFF; fill-opacity:1.0;  stroke:#FFFFFF; stroke-width:21200.000000; stroke-opacity:1;  stroke-linecap:round; stroke-linejoin:round;">
</g>
<g style="fill:#FFFFFF; fill-opacity:1.0;  stroke:#FFFFFF; stroke-width:1.000000; stroke-opacity:1;  stroke-linecap:round; stroke-linejoin:round;">
<circle cx="50000000.000000" cy="50000000.000000" r="600000.000000"/> 
</g>
<g style="fill:#FFFFFF; fill-opacity:1.0;  stroke:#FFFFFF; stroke-width:21200.000000; stroke-opacity:1;  stroke-linecap:round; stroke-linejoin:round;">
</g>
<g style="fill:#FFFFFF; fill-opacity:1.0;  stroke:#FFFFFF; stroke-width:1.000000; stroke-opacity:1;  stroke-linecap:round; stroke-linejoin:round;">
<circle cx="65000000.000000" cy="50000000.000000" r="600000.000000"/> 
</g>
<g style="fill:#FFFFFF; fill-opacity:1.0;  stroke:#FFFFFF; stroke-width:21200.000000; stroke-opacity:1;  stroke-linecap:round; stroke-linejoin:round;">
</g>
<g style="fill:#000000; fill-opacity:1.0;  stroke:#000000; stroke-width:21200.000000; stroke-opacity:1;  stroke-linecap:round; stroke-linejoin:round;">
<g>
</g>
<g>
</g>
<g>
</g>
<g>
</g>
</g> 
<svg:g><svg:title>SVG Picture created as kicadBoard-B_Adhesive.svg date 2022/11/17 05:06:22 </svg:title>
  <svg:desc>Picture generated by PCBNEW </svg:desc>
<svg:g style="fill:#000000; fill-opacity:1.000000;stroke:#000000; stroke-opacity:1.000000; stroke-linecap:round; stroke-linejoin:round;" transform="translate(0 0) scale(1 1)">
</svg:g>
<svg:g style="fill:#000000; fill-opacity:0.0;  stroke:#000000; stroke-width:0.000000; stroke-opacity:1;  stroke-linecap:round; stroke-linejoin:round;">
<svg:g>
</svg:g>
<svg:g>
</svg:g>
<svg:g>
</svg:g>
<svg:g>
</svg:g>
</svg:g>
<svg:g style="fill:#000000; fill-opacity:0.0;  stroke:#000000; stroke-width:0.000000; stroke-opacity:1;  stroke-linecap:round; stroke-linejoin:round;">
<svg:g>
</svg:g>
<svg:g>
</svg:g>
<svg:g>
</svg:g>
<svg:g>
</svg:g>
</svg:g> 
</svg:g><svg:g><svg:title>SVG Picture created as kicadBoard-B_Courtyard.svg date 2022/11/17 05:06:22 </svg:title>
  <svg:desc>Picture generated by PCBNEW </svg:desc>
<svg:g style="fill:#000000; fill-opacity:1.000000;stroke:#000000; stroke-opacity:1.000000; stroke-linecap:round; stroke-linejoin:round;" transform="translate(0 0) scale(1 1)">
</svg:g>
<svg:g style="fill:#000000; fill-opacity:0.0;  stroke:#000000; stroke-width:0.000000; stroke-opacity:1;  stroke-linecap:round; stroke-linejoin:round;">
<svg:g>
</svg:g>
<svg:g>
</svg:g>
<svg:g>
</svg:g>
<svg:g>
</svg:g>
</svg:g>
<svg:g style="fill:#000000; fill-opacity:0.0;  stroke:#000000; stroke-width:0.000000; stroke-opacity:1;  stroke-linecap:round; stroke-linejoin:round;">
<svg:g>
</svg:g>
<svg:g>
</svg:g>
<svg:g>
</svg:g>
<svg:g>
</svg:g>
</svg:g> 
</svg:g><svg:g><svg:title>SVG Picture created as kicadBoard-B_Fab.svg date 2022/11/17 05:06:22 </svg:title>
  <svg:desc>Picture generated by PCBNEW </svg:desc>
<svg:g style="fill:#000000; fill-opacity:1.000000;stroke:#000000; stroke-opacity:1.000000; stroke-linecap:round; stroke-linejoin:round;" transform="translate(0 0) scale(1 1)">
</svg:g>
<svg:g style="fill:#000000; fill-opacity:0.0;  stroke:#000000; stroke-width:0.000000; stroke-opacity:1;  stroke-linecap:round; stroke-linejoin:round;">
<svg:g>
</svg:g>
<svg:g>
</svg:g>
<svg:g>
</svg:g>
<svg:g>
</svg:g>
</svg:g>
<svg:g style="fill:#000000; fill-opacity:0.0;  stroke:#000000; stroke-width:0.000000; stroke-opacity:1;  stroke-linecap:round; stroke-linejoin:round;">
<svg:g>
</svg:g>
<svg:g>
</svg:g>
<svg:g>
</svg:g>
<svg:g>
</svg:g>
</svg:g> 
</svg:g><svg:g><svg:title>SVG Picture created as kicadBoard-B_Mask.svg date 2022/11/17 05:06:22 </svg:title>
  <svg:desc>Picture generated by PCBNEW </svg:desc>
<svg:g style="fill:#000000; fill-opacity:1.000000;stroke:#000000; stroke-opacity:1.000000; stroke-linecap:round; stroke-linejoin:round;" transform="translate(0 0) scale(1 1)">
</svg:g>
<svg:g style="fill:#000000; fill-opacity:0.0;  stroke:#000000; stroke-width:0.000000; stroke-opacity:1;  stroke-linecap:round; stroke-linejoin:round;">
<svg:g>
</svg:g>
<svg:g style="fill:#000000; fill-opacity:1.0;  stroke:#000000; stroke-width:1.000000; stroke-opacity:1;  stroke-linecap:round; stroke-linejoin:round;">
<svg:circle cx="50000000.000000" cy="50000000.000000" r="1200000.000000"/> 
</svg:g>
<svg:g style="fill:#000000; fill-opacity:1.0;  stroke:#000000; stroke-width:21200.000000; stroke-opacity:1;  stroke-linecap:round; stroke-linejoin:round;">
</svg:g>
<svg:g style="fill:#000000; fill-opacity:1.0;  stroke:#000000; stroke-width:1.000000; stroke-opacity:1;  stroke-linecap:round; stroke-linejoin:round;">
<svg:circle cx="65000000.000000" cy="50000000.000000" r="1200000.000000"/> 
</svg:g>
<svg:g style="fill:#000000; fill-opacity:1.0;  stroke:#000000; stroke-width:21200.000000; stroke-opacity:1;  stroke-linecap:round; stroke-linejoin:round;">
</svg:g>
<svg:g>
</svg:g>
<svg:g>
</svg:g>
<svg:g>
</svg:g>
</svg:g>
<svg:g style="fill:#000000; fill-opacity:1.0;  stroke:#000000; stroke-width:21200.000000; stroke-opacity:1;  stroke-linecap:round; stroke-linejoin:round;">
<svg:g>
</svg:g>
<svg:g>
</svg:g>
<svg:g>
</svg:g>
<svg:g>
</svg:g>
</svg:g> 
</svg:g><svg:g><svg:title>SVG Picture created as kicadBoard-B_Paste.svg date 2022/11/17 05:06:22 </svg:title>
  <svg:desc>Picture generated by PCBNEW </svg:desc>
<svg:g style="fill:#000000; fill-opacity:1.000000;stroke:#000000; stroke-opacity:1.000000; stroke-linecap:round; stroke-linejoin:round;" transform="translate(0 0) scale(1 1)">
</svg:g>
<svg:g style="fill:#000000; fill-opacity:0.0;  stroke:#000000; stroke-width:0.000000; stroke-opacity:1;  stroke-linecap:round; stroke-linejoin:round;">
<svg:g>
</svg:g>
<svg:g>
</svg:g>
<svg:g>
</svg:g>
<svg:g>
</svg:g>
</svg:g>
<svg:g style="fill:#000000; fill-opacity:0.0;  stroke:#000000; stroke-width:0.000000; stroke-opacity:1;  stroke-linecap:round; stroke-linejoin:round;">
<svg:g>
</svg:g>
<svg:g>
</svg:g>
<svg:g>
</svg:g>
<svg:g>
</svg:g>
</svg:g> 
</svg:g><svg:g><svg:title>SVG Picture created as kicadBoard-B_Silkscreen.svg date 2022/11/17 05:06:22 </svg:title>
  <svg:desc>Picture generated by PCBNEW </svg:desc>
<svg:g style="fill:#000000; fill-opacity:1.000000;stroke:#000000; stroke-opacity:1.000000; stroke-linecap:round; stroke-linejoin:round;" transform="translate(0 0) scale(1 1)">
</svg:g>
<svg:g style="fill:#000000; fill-opacity:0.0;  stroke:#000000; stroke-width:0.000000; stroke-opacity:1;  stroke-linecap:round; stroke-linejoin:round;">
<svg:g>
</svg:g>
<svg:g>
</svg:g>
<svg:g>
</svg:g>
<svg:g>
</svg:g>
</svg:g>
<svg:g style="fill:#000000; fill-opacity:0.0;  stroke:#000000; stroke-width:0.000000; stroke-opacity:1;  stroke-linecap:round; stroke-linejoin:round;">
<svg:g>
</svg:g>
<svg:g>
</svg:g>
<svg:g>
</svg:g>
<svg:g>
</svg:g>
</svg:g> 
</svg:g><svg:g><svg:title>SVG Picture created as kicadBoard-Edge_Cuts.svg date 2022/11/17 05:06:22 </svg:title>
  <svg:desc>Picture generated by PCBNEW </svg:desc>
<svg:g style="fill:#000000; fill-opacity:1.000000;stroke:#000000; stroke-opacity:1.000000; stroke-linecap:round; stroke-linejoin:round;" transform="translate(0 0) scale(1 1)">
</svg:g>
<svg:g style="fill:#000000; fill-opacity:0.0;  stroke:#000000; stroke-width:0.000000; stroke-opacity:1;  stroke-linecap:round; stroke-linejoin:round;">
<svg:g>
</svg:g>
<svg:g>
</svg:g>
<svg:g>
</svg:g>
<svg:g>
</svg:g>
</svg:g> 
</svg:g><svg:g><svg:title>SVG Picture created as kicadBoard-F_Adhesive.svg date 2022/11/17 05:06:22 </svg:title>
  <svg:desc>Picture generated by PCBNEW </svg:desc>
<svg:g style="fill:#000000; fill-opacity:1.000000;stroke:#000000; stroke-opacity:1.000000; stroke-linecap:round; stroke-linejoin:round;" transform="translate(0 0) scale(1 1)">
</svg:g>
<svg:g style="fill:#000000; fill-opacity:0.0;  stroke:#000000; stroke-width:0.000000; stroke-opacity:1;  stroke-linecap:round; stroke-linejoin:round;">
<svg:g>
</svg:g>
<svg:g>
</svg:g>
<svg:g>
</svg:g>
<svg:g>
</svg:g>
</svg:g>
<svg:g style="fill:#000000; fill-opacity:0.0;  stroke:#000000; stroke-width:0.000000; stroke-opacity:1;  stroke-linecap:round; stroke-linejoin:round;">
<svg:g>
</svg:g>
<svg:g>
</svg:g>
<svg:g>
</svg:g>
<svg:g>
</svg:g>
</svg:g> 
</svg:g><svg:g><svg:title>SVG Picture created as kicadBoard-F_Courtyard.svg date 2022/11/17 05:06:22 </svg:title>
  <svg:desc>Picture generated by PCBNEW </svg:desc>
<svg:g style="fill:#000000; fill-opacity:1.000000;stroke:#000000; stroke-opacity:1.000000; stroke-linecap:round; stroke-linejoin:round;" transform="translate(0 0) scale(1 1)">
</svg:g>
<svg:g style="fill:#000000; fill-opacity:0.0;  stroke:#000000; stroke-width:0.000000; stroke-opacity:1;  stroke-linecap:round; stroke-linejoin:round;">
</svg:g>
<svg:g style="fill:#FF26E2; fill-opacity:0.0;  stroke:#FF26E2; stroke-width:0.000000; stroke-opacity:1;  stroke-linecap:round; stroke-linejoin:round;">
</svg:g>
<svg:g style="fill:#FF26E2; fill-opacity:0.0;  stroke:#FF26E2; stroke-width:50000.000000; stroke-opacity:1;  stroke-linecap:round; stroke-linejoin:round;">
<svg:path d="M47750000 53250000 L67250000 53250000 "/>
<svg:path d="M47750000 46750000 L47750000 53250000 "/>
<svg:path d="M67250000 46750000 L47750000 46750000 "/>
<svg:path d="M67250000 53250000 L67250000 46750000 "/>
<svg:g>
</svg:g>
<svg:g>
</svg:g>
<svg:g>
</svg:g>
<svg:g>
</svg:g>
</svg:g>
<svg:g style="fill:#000000; fill-opacity:0.0;  stroke:#000000; stroke-width:50000.000000; stroke-opacity:1;  stroke-linecap:round; stroke-linejoin:round;">
<svg:g>
</svg:g>
<svg:g>
</svg:g>
<svg:g>
</svg:g>
<svg:g>
</svg:g>
</svg:g> 
</svg:g><svg:g><svg:title>SVG Picture created as kicadBoard-F_Fab.svg date 2022/11/17 05:06:22 </svg:title>
  <svg:desc>Picture generated by PCBNEW </svg:desc>
<svg:g style="fill:#000000; fill-opacity:1.000000;stroke:#000000; stroke-opacity:1.000000; stroke-linecap:round; stroke-linejoin:round;" transform="translate(0 0) scale(1 1)">
</svg:g>
<svg:g style="fill:#000000; fill-opacity:0.0;  stroke:#000000; stroke-width:0.000000; stroke-opacity:1;  stroke-linecap:round; stroke-linejoin:round;">
</svg:g>
<svg:g style="fill:#AFAFAF; fill-opacity:0.0;  stroke:#AFAFAF; stroke-width:0.000000; stroke-opacity:1;  stroke-linecap:round; stroke-linejoin:round;">
</svg:g>
<svg:g style="fill:#AFAFAF; fill-opacity:0.0;  stroke:#AFAFAF; stroke-width:150000.000000; stroke-opacity:1;  stroke-linecap:round; stroke-linejoin:round;">
<svg:text x="57500000.000000" y="54750000.000000" textLength="33290238.000000" font-size="1333333.000000" lengthAdjust="spacingAndGlyphs" text-anchor="middle" opacity="0">C_Rect_L19.0mm_W6.0mm_P15.00mm_MKS4</svg:text>
<svg:g class="stroked-text"><svg:desc>C_Rect_L19.0mm_W6.0mm_P15.00mm_MKS4</svg:desc>
<svg:path d="M41761904 54607142 L41714285 54654761 L41571428 54702380 L41476190 54702380 L41333333 54654761 L41238095 54559523 L41190476 54464285 L41142857 54273809 L41142857 54130952 L41190476 53940476 L41238095 53845238 L41333333 53750000 L41476190 53702380 L41571428 53702380 L41714285 53750000 L41761904 53797619 "/>
<svg:path d="M41952380 54797619 L42714285 54797619 "/>
<svg:path d="M43523809 54702380 L43190476 54226190 "/>
<svg:path d="M42952380 54702380 L42952380 53702380 L43333333 53702380 L43428571 53750000 L43476190 53797619 L43523809 53892857 L43523809 54035714 L43476190 54130952 L43428571 54178571 L43333333 54226190 L42952380 54226190 "/>
<svg:path d="M44333333 54654761 L44238095 54702380 L44047619 54702380 L43952380 54654761 L43904761 54559523 L43904761 54178571 L43952380 54083333 L44047619 54035714 L44238095 54035714 L44333333 54083333 L44380952 54178571 L44380952 54273809 L43904761 54369047 "/>
<svg:path d="M45238095 54654761 L45142857 54702380 L44952380 54702380 L44857142 54654761 L44809523 54607142 L44761904 54511904 L44761904 54226190 L44809523 54130952 L44857142 54083333 L44952380 54035714 L45142857 54035714 L45238095 54083333 "/>
<svg:path d="M45523809 54035714 L45904761 54035714 "/>
<svg:path d="M45666666 53702380 L45666666 54559523 L45714285 54654761 L45809523 54702380 L45904761 54702380 "/>
<svg:path d="M46000000 54797619 L46761904 54797619 "/>
<svg:path d="M47476190 54702380 L47000000 54702380 L47000000 53702380 "/>
<svg:path d="M48333333 54702380 L47761904 54702380 "/>
<svg:path d="M48047619 54702380 L48047619 53702380 L47952380 53845238 L47857142 53940476 L47761904 53988095 "/>
<svg:path d="M48809523 54702380 L49000000 54702380 L49095238 54654761 L49142857 54607142 L49238095 54464285 L49285714 54273809 L49285714 53892857 L49238095 53797619 L49190476 53750000 L49095238 53702380 L48904761 53702380 L48809523 53750000 L48761904 53797619 L48714285 53892857 L48714285 54130952 L48761904 54226190 L48809523 54273809 L48904761 54321428 L49095238 54321428 L49190476 54273809 L49238095 54226190 L49285714 54130952 "/>
<svg:path d="M49714285 54607142 L49761904 54654761 L49714285 54702380 L49666666 54654761 L49714285 54607142 L49714285 54702380 "/>
<svg:path d="M50380952 53702380 L50476190 53702380 L50571428 53750000 L50619047 53797619 L50666666 53892857 L50714285 54083333 L50714285 54321428 L50666666 54511904 L50619047 54607142 L50571428 54654761 L50476190 54702380 L50380952 54702380 L50285714 54654761 L50238095 54607142 L50190476 54511904 L50142857 54321428 L50142857 54083333 L50190476 53892857 L50238095 53797619 L50285714 53750000 L50380952 53702380 "/>
<svg:path d="M51142857 54702380 L51142857 54035714 "/>
<svg:path d="M51142857 54130952 L51190476 54083333 L51285714 54035714 L51428571 54035714 L51523809 54083333 L51571428 54178571 L51571428 54702380 "/>
<svg:path d="M51571428 54178571 L51619047 54083333 L51714285 54035714 L51857142 54035714 L51952380 54083333 L52000000 54178571 L52000000 54702380 "/>
<svg:path d="M52476190 54702380 L52476190 54035714 "/>
<svg:path d="M52476190 54130952 L52523809 54083333 L52619047 54035714 L52761904 54035714 L52857142 54083333 L52904761 54178571 L52904761 54702380 "/>
<svg:path d="M52904761 54178571 L52952380 54083333 L53047619 54035714 L53190476 54035714 L53285714 54083333 L53333333 54178571 L53333333 54702380 "/>
<svg:path d="M53571428 54797619 L54333333 54797619 "/>
<svg:path d="M54476190 53702380 L54714285 54702380 L54904761 53988095 L55095238 54702380 L55333333 53702380 "/>
<svg:path d="M56142857 53702380 L55952380 53702380 L55857142 53750000 L55809523 53797619 L55714285 53940476 L55666666 54130952 L55666666 54511904 L55714285 54607142 L55761904 54654761 L55857142 54702380 L56047619 54702380 L56142857 54654761 L56190476 54607142 L56238095 54511904 L56238095 54273809 L56190476 54178571 L56142857 54130952 L56047619 54083333 L55857142 54083333 L55761904 54130952 L55714285 54178571 L55666666 54273809 "/>
<svg:path d="M56666666 54607142 L56714285 54654761 L56666666 54702380 L56619047 54654761 L56666666 54607142 L56666666 54702380 "/>
<svg:path d="M57333333 53702380 L57428571 53702380 L57523809 53750000 L57571428 53797619 L57619047 53892857 L57666666 54083333 L57666666 54321428 L57619047 54511904 L57571428 54607142 L57523809 54654761 L57428571 54702380 L57333333 54702380 L57238095 54654761 L57190476 54607142 L57142857 54511904 L57095238 54321428 L57095238 54083333 L57142857 53892857 L57190476 53797619 L57238095 53750000 L57333333 53702380 "/>
<svg:path d="M58095238 54702380 L58095238 54035714 "/>
<svg:path d="M58095238 54130952 L58142857 54083333 L58238095 54035714 L58380952 54035714 L58476190 54083333 L58523809 54178571 L58523809 54702380 "/>
<svg:path d="M58523809 54178571 L58571428 54083333 L58666666 54035714 L58809523 54035714 L58904761 54083333 L58952380 54178571 L58952380 54702380 "/>
<svg:path d="M59428571 54702380 L59428571 54035714 "/>
<svg:path d="M59428571 54130952 L59476190 54083333 L59571428 54035714 L59714285 54035714 L59809523 54083333 L59857142 54178571 L59857142 54702380 "/>
<svg:path d="M59857142 54178571 L59904761 54083333 L60000000 54035714 L60142857 54035714 L60238095 54083333 L60285714 54178571 L60285714 54702380 "/>
<svg:path d="M60523809 54797619 L61285714 54797619 "/>
<svg:path d="M61523809 54702380 L61523809 53702380 L61904761 53702380 L62000000 53750000 L62047619 53797619 L62095238 53892857 L62095238 54035714 L62047619 54130952 L62000000 54178571 L61904761 54226190 L61523809 54226190 "/>
<svg:path d="M63047619 54702380 L62476190 54702380 "/>
<svg:path d="M62761904 54702380 L62761904 53702380 L62666666 53845238 L62571428 53940476 L62476190 53988095 "/>
<svg:path d="M63952380 53702380 L63476190 53702380 L63428571 54178571 L63476190 54130952 L63571428 54083333 L63809523 54083333 L63904761 54130952 L63952380 54178571 L64000000 54273809 L64000000 54511904 L63952380 54607142 L63904761 54654761 L63809523 54702380 L63571428 54702380 L63476190 54654761 L63428571 54607142 "/>
<svg:path d="M64428571 54607142 L64476190 54654761 L64428571 54702380 L64380952 54654761 L64428571 54607142 L64428571 54702380 "/>
<svg:path d="M65095238 53702380 L65190476 53702380 L65285714 53750000 L65333333 53797619 L65380952 53892857 L65428571 54083333 L65428571 54321428 L65380952 54511904 L65333333 54607142 L65285714 54654761 L65190476 54702380 L65095238 54702380 L65000000 54654761 L64952380 54607142 L64904761 54511904 L64857142 54321428 L64857142 54083333 L64904761 53892857 L64952380 53797619 L65000000 53750000 L65095238 53702380 "/>
<svg:path d="M66047619 53702380 L66142857 53702380 L66238095 53750000 L66285714 53797619 L66333333 53892857 L66380952 54083333 L66380952 54321428 L66333333 54511904 L66285714 54607142 L66238095 54654761 L66142857 54702380 L66047619 54702380 L65952380 54654761 L65904761 54607142 L65857142 54511904 L65809523 54321428 L65809523 54083333 L65857142 53892857 L65904761 53797619 L65952380 53750000 L66047619 53702380 "/>
<svg:path d="M66809523 54702380 L66809523 54035714 "/>
<svg:path d="M66809523 54130952 L66857142 54083333 L66952380 54035714 L67095238 54035714 L67190476 54083333 L67238095 54178571 L67238095 54702380 "/>
<svg:path d="M67238095 54178571 L67285714 54083333 L67380952 54035714 L67523809 54035714 L67619047 54083333 L67666666 54178571 L67666666 54702380 "/>
<svg:path d="M68142857 54702380 L68142857 54035714 "/>
<svg:path d="M68142857 54130952 L68190476 54083333 L68285714 54035714 L68428571 54035714 L68523809 54083333 L68571428 54178571 L68571428 54702380 "/>
<svg:path d="M68571428 54178571 L68619047 54083333 L68714285 54035714 L68857142 54035714 L68952380 54083333 L69000000 54178571 L69000000 54702380 "/>
<svg:path d="M69238095 54797619 L70000000 54797619 "/>
<svg:path d="M70238095 54702380 L70238095 53702380 L70571428 54416666 L70904761 53702380 L70904761 54702380 "/>
<svg:path d="M71380952 54702380 L71380952 53702380 "/>
<svg:path d="M71952380 54702380 L71523809 54130952 "/>
<svg:path d="M71952380 53702380 L71380952 54273809 "/>
<svg:path d="M72333333 54654761 L72476190 54702380 L72714285 54702380 L72809523 54654761 L72857142 54607142 L72904761 54511904 L72904761 54416666 L72857142 54321428 L72809523 54273809 L72714285 54226190 L72523809 54178571 L72428571 54130952 L72380952 54083333 L72333333 53988095 L72333333 53892857 L72380952 53797619 L72428571 53750000 L72523809 53702380 L72761904 53702380 L72904761 53750000 "/>
<svg:path d="M73761904 54035714 L73761904 54702380 "/>
<svg:path d="M73523809 53654761 L73285714 54369047 L73904761 54369047 "/>
</svg:g><svg:text x="57500000.000000" y="50500000.000000" textLength="20433095.000000" font-size="1333333.000000" lengthAdjust="spacingAndGlyphs" text-anchor="middle" opacity="0">FZKCCRECTL19W6P15MKS4</svg:text>
<svg:g class="stroked-text"><svg:desc>FZKCCRECTL19W6P15MKS4</svg:desc>
<svg:path d="M47952380 49928571 L47619047 49928571 "/>
<svg:path d="M47619047 50452380 L47619047 49452380 L48095238 49452380 "/>
<svg:path d="M48380952 49452380 L49047619 49452380 L48380952 50452380 L49047619 50452380 "/>
<svg:path d="M49428571 50452380 L49428571 49452380 "/>
<svg:path d="M50000000 50452380 L49571428 49880952 "/>
<svg:path d="M50000000 49452380 L49428571 50023809 "/>
<svg:path d="M51000000 50357142 L50952380 50404761 L50809523 50452380 L50714285 50452380 L50571428 50404761 L50476190 50309523 L50428571 50214285 L50380952 50023809 L50380952 49880952 L50428571 49690476 L50476190 49595238 L50571428 49500000 L50714285 49452380 L50809523 49452380 L50952380 49500000 L51000000 49547619 "/>
<svg:path d="M52000000 50357142 L51952380 50404761 L51809523 50452380 L51714285 50452380 L51571428 50404761 L51476190 50309523 L51428571 50214285 L51380952 50023809 L51380952 49880952 L51428571 49690476 L51476190 49595238 L51571428 49500000 L51714285 49452380 L51809523 49452380 L51952380 49500000 L52000000 49547619 "/>
<svg:path d="M53000000 50452380 L52666666 49976190 "/>
<svg:path d="M52428571 50452380 L52428571 49452380 L52809523 49452380 L52904761 49500000 L52952380 49547619 L53000000 49642857 L53000000 49785714 L52952380 49880952 L52904761 49928571 L52809523 49976190 L52428571 49976190 "/>
<svg:path d="M53428571 49928571 L53761904 49928571 "/>
<svg:path d="M53904761 50452380 L53428571 50452380 L53428571 49452380 L53904761 49452380 "/>
<svg:path d="M54904761 50357142 L54857142 50404761 L54714285 50452380 L54619047 50452380 L54476190 50404761 L54380952 50309523 L54333333 50214285 L54285714 50023809 L54285714 49880952 L54333333 49690476 L54380952 49595238 L54476190 49500000 L54619047 49452380 L54714285 49452380 L54857142 49500000 L54904761 49547619 "/>
<svg:path d="M55190476 49452380 L55761904 49452380 "/>
<svg:path d="M55476190 50452380 L55476190 49452380 "/>
<svg:path d="M56571428 50452380 L56095238 50452380 L56095238 49452380 "/>
<svg:path d="M57428571 50452380 L56857142 50452380 "/>
<svg:path d="M57142857 50452380 L57142857 49452380 L57047619 49595238 L56952380 49690476 L56857142 49738095 "/>
<svg:path d="M57904761 50452380 L58095238 50452380 L58190476 50404761 L58238095 50357142 L58333333 50214285 L58380952 50023809 L58380952 49642857 L58333333 49547619 L58285714 49500000 L58190476 49452380 L58000000 49452380 L57904761 49500000 L57857142 49547619 L57809523 49642857 L57809523 49880952 L57857142 49976190 L57904761 50023809 L58000000 50071428 L58190476 50071428 L58285714 50023809 L58333333 49976190 L58380952 49880952 "/>
<svg:path d="M58714285 49452380 L58952380 50452380 L59142857 49738095 L59333333 50452380 L59571428 49452380 "/>
<svg:path d="M60380952 49452380 L60190476 49452380 L60095238 49500000 L60047619 49547619 L59952380 49690476 L59904761 49880952 L59904761 50261904 L59952380 50357142 L60000000 50404761 L60095238 50452380 L60285714 50452380 L60380952 50404761 L60428571 50357142 L60476190 50261904 L60476190 50023809 L60428571 49928571 L60380952 49880952 L60285714 49833333 L60095238 49833333 L60000000 49880952 L59952380 49928571 L59904761 50023809 "/>
<svg:path d="M60904761 50452380 L60904761 49452380 L61285714 49452380 L61380952 49500000 L61428571 49547619 L61476190 49642857 L61476190 49785714 L61428571 49880952 L61380952 49928571 L61285714 49976190 L60904761 49976190 "/>
<svg:path d="M62428571 50452380 L61857142 50452380 "/>
<svg:path d="M62142857 50452380 L62142857 49452380 L62047619 49595238 L61952380 49690476 L61857142 49738095 "/>
<svg:path d="M63333333 49452380 L62857142 49452380 L62809523 49928571 L62857142 49880952 L62952380 49833333 L63190476 49833333 L63285714 49880952 L63333333 49928571 L63380952 50023809 L63380952 50261904 L63333333 50357142 L63285714 50404761 L63190476 50452380 L62952380 50452380 L62857142 50404761 L62809523 50357142 "/>
<svg:path d="M63809523 50452380 L63809523 49452380 L64142857 50166666 L64476190 49452380 L64476190 50452380 "/>
<svg:path d="M64952380 50452380 L64952380 49452380 "/>
<svg:path d="M65523809 50452380 L65095238 49880952 "/>
<svg:path d="M65523809 49452380 L64952380 50023809 "/>
<svg:path d="M65904761 50404761 L66047619 50452380 L66285714 50452380 L66380952 50404761 L66428571 50357142 L66476190 50261904 L66476190 50166666 L66428571 50071428 L66380952 50023809 L66285714 49976190 L66095238 49928571 L66000000 49880952 L65952380 49833333 L65904761 49738095 L65904761 49642857 L65952380 49547619 L66000000 49500000 L66095238 49452380 L66333333 49452380 L66476190 49500000 "/>
<svg:path d="M67333333 49785714 L67333333 50452380 "/>
<svg:path d="M67095238 49404761 L66857142 50119047 L67476190 50119047 "/>
</svg:g></svg:g>
<svg:g style="fill:#AFAFAF; fill-opacity:0.0;  stroke:#AFAFAF; stroke-width:100000.000000; stroke-opacity:1;  stroke-linecap:round; stroke-linejoin:round;">
<svg:path d="M48000000 53000000 L67000000 53000000 "/>
<svg:path d="M67000000 53000000 L67000000 47000000 "/>
<svg:path d="M67000000 47000000 L48000000 47000000 "/>
<svg:path d="M48000000 47000000 L48000000 53000000 "/>
<svg:g>
</svg:g>
<svg:g>
</svg:g>
<svg:g>
</svg:g>
<svg:g>
</svg:g>
</svg:g>
<svg:g style="fill:#000000; fill-opacity:0.0;  stroke:#000000; stroke-width:100000.000000; stroke-opacity:1;  stroke-linecap:round; stroke-linejoin:round;">
<svg:g>
</svg:g>
<svg:g>
</svg:g>
<svg:g>
</svg:g>
<svg:g>
</svg:g>
</svg:g> 
</svg:g><svg:g><svg:title>SVG Picture created as kicadBoard-F_Mask.svg date 2022/11/17 05:06:22 </svg:title>
  <svg:desc>Picture generated by PCBNEW </svg:desc>
<svg:g style="fill:#000000; fill-opacity:1.000000;stroke:#000000; stroke-opacity:1.000000; stroke-linecap:round; stroke-linejoin:round;" transform="translate(0 0) scale(1 1)">
</svg:g>
<svg:g style="fill:#000000; fill-opacity:0.0;  stroke:#000000; stroke-width:0.000000; stroke-opacity:1;  stroke-linecap:round; stroke-linejoin:round;">
<svg:g>
</svg:g>
<svg:g style="fill:#000000; fill-opacity:1.0;  stroke:#000000; stroke-width:1.000000; stroke-opacity:1;  stroke-linecap:round; stroke-linejoin:round;">
<svg:circle cx="50000000.000000" cy="50000000.000000" r="1200000.000000"/> 
</svg:g>
<svg:g style="fill:#000000; fill-opacity:1.0;  stroke:#000000; stroke-width:21200.000000; stroke-opacity:1;  stroke-linecap:round; stroke-linejoin:round;">
</svg:g>
<svg:g style="fill:#000000; fill-opacity:1.0;  stroke:#000000; stroke-width:1.000000; stroke-opacity:1;  stroke-linecap:round; stroke-linejoin:round;">
<svg:circle cx="65000000.000000" cy="50000000.000000" r="1200000.000000"/> 
</svg:g>
<svg:g style="fill:#000000; fill-opacity:1.0;  stroke:#000000; stroke-width:21200.000000; stroke-opacity:1;  stroke-linecap:round; stroke-linejoin:round;">
</svg:g>
<svg:g>
</svg:g>
<svg:g>
</svg:g>
<svg:g>
</svg:g>
</svg:g>
<svg:g style="fill:#000000; fill-opacity:1.0;  stroke:#000000; stroke-width:21200.000000; stroke-opacity:1;  stroke-linecap:round; stroke-linejoin:round;">
<svg:g>
</svg:g>
<svg:g>
</svg:g>
<svg:g>
</svg:g>
<svg:g>
</svg:g>
</svg:g> 
</svg:g><svg:g><svg:title>SVG Picture created as kicadBoard-F_Paste.svg date 2022/11/17 05:06:22 </svg:title>
  <svg:desc>Picture generated by PCBNEW </svg:desc>
<svg:g style="fill:#000000; fill-opacity:1.000000;stroke:#000000; stroke-opacity:1.000000; stroke-linecap:round; stroke-linejoin:round;" transform="translate(0 0) scale(1 1)">
</svg:g>
<svg:g style="fill:#000000; fill-opacity:0.0;  stroke:#000000; stroke-width:0.000000; stroke-opacity:1;  stroke-linecap:round; stroke-linejoin:round;">
<svg:g>
</svg:g>
<svg:g>
</svg:g>
<svg:g>
</svg:g>
<svg:g>
</svg:g>
</svg:g>
<svg:g style="fill:#000000; fill-opacity:0.0;  stroke:#000000; stroke-width:0.000000; stroke-opacity:1;  stroke-linecap:round; stroke-linejoin:round;">
<svg:g>
</svg:g>
<svg:g>
</svg:g>
<svg:g>
</svg:g>
<svg:g>
</svg:g>
</svg:g> 
</svg:g><svg:g><svg:title>SVG Picture created as kicadBoard-F_Silkscreen.svg date 2022/11/17 05:06:22 </svg:title>
  <svg:desc>Picture generated by PCBNEW </svg:desc>
<svg:g style="fill:#000000; fill-opacity:1.000000;stroke:#000000; stroke-opacity:1.000000; stroke-linecap:round; stroke-linejoin:round;" transform="translate(0 0) scale(1 1)">
</svg:g>
<svg:g style="fill:#000000; fill-opacity:0.0;  stroke:#000000; stroke-width:0.000000; stroke-opacity:1;  stroke-linecap:round; stroke-linejoin:round;">
</svg:g>
<svg:g style="fill:#F2EDA1; fill-opacity:0.0;  stroke:#F2EDA1; stroke-width:0.000000; stroke-opacity:1;  stroke-linecap:round; stroke-linejoin:round;">
</svg:g>
<svg:g style="fill:#F2EDA1; fill-opacity:0.0;  stroke:#F2EDA1; stroke-width:150000.000000; stroke-opacity:1;  stroke-linecap:round; stroke-linejoin:round;">
<svg:text x="57500000.000000" y="46250000.000000" textLength="20238096.000000" font-size="1333333.000000" lengthAdjust="spacingAndGlyphs" text-anchor="middle" opacity="0">FZKCCRECTL19W6P15MKS4</svg:text>
<svg:g class="stroked-text"><svg:desc>FZKCCRECTL19W6P15MKS4</svg:desc>
<svg:path d="M47952380 45678571 L47619047 45678571 "/>
<svg:path d="M47619047 46202380 L47619047 45202380 L48095238 45202380 "/>
<svg:path d="M48380952 45202380 L49047619 45202380 L48380952 46202380 L49047619 46202380 "/>
<svg:path d="M49428571 46202380 L49428571 45202380 "/>
<svg:path d="M50000000 46202380 L49571428 45630952 "/>
<svg:path d="M50000000 45202380 L49428571 45773809 "/>
<svg:path d="M51000000 46107142 L50952380 46154761 L50809523 46202380 L50714285 46202380 L50571428 46154761 L50476190 46059523 L50428571 45964285 L50380952 45773809 L50380952 45630952 L50428571 45440476 L50476190 45345238 L50571428 45250000 L50714285 45202380 L50809523 45202380 L50952380 45250000 L51000000 45297619 "/>
<svg:path d="M52000000 46107142 L51952380 46154761 L51809523 46202380 L51714285 46202380 L51571428 46154761 L51476190 46059523 L51428571 45964285 L51380952 45773809 L51380952 45630952 L51428571 45440476 L51476190 45345238 L51571428 45250000 L51714285 45202380 L51809523 45202380 L51952380 45250000 L52000000 45297619 "/>
<svg:path d="M53000000 46202380 L52666666 45726190 "/>
<svg:path d="M52428571 46202380 L52428571 45202380 L52809523 45202380 L52904761 45250000 L52952380 45297619 L53000000 45392857 L53000000 45535714 L52952380 45630952 L52904761 45678571 L52809523 45726190 L52428571 45726190 "/>
<svg:path d="M53428571 45678571 L53761904 45678571 "/>
<svg:path d="M53904761 46202380 L53428571 46202380 L53428571 45202380 L53904761 45202380 "/>
<svg:path d="M54904761 46107142 L54857142 46154761 L54714285 46202380 L54619047 46202380 L54476190 46154761 L54380952 46059523 L54333333 45964285 L54285714 45773809 L54285714 45630952 L54333333 45440476 L54380952 45345238 L54476190 45250000 L54619047 45202380 L54714285 45202380 L54857142 45250000 L54904761 45297619 "/>
<svg:path d="M55190476 45202380 L55761904 45202380 "/>
<svg:path d="M55476190 46202380 L55476190 45202380 "/>
<svg:path d="M56571428 46202380 L56095238 46202380 L56095238 45202380 "/>
<svg:path d="M57428571 46202380 L56857142 46202380 "/>
<svg:path d="M57142857 46202380 L57142857 45202380 L57047619 45345238 L56952380 45440476 L56857142 45488095 "/>
<svg:path d="M57904761 46202380 L58095238 46202380 L58190476 46154761 L58238095 46107142 L58333333 45964285 L58380952 45773809 L58380952 45392857 L58333333 45297619 L58285714 45250000 L58190476 45202380 L58000000 45202380 L57904761 45250000 L57857142 45297619 L57809523 45392857 L57809523 45630952 L57857142 45726190 L57904761 45773809 L58000000 45821428 L58190476 45821428 L58285714 45773809 L58333333 45726190 L58380952 45630952 "/>
<svg:path d="M58714285 45202380 L58952380 46202380 L59142857 45488095 L59333333 46202380 L59571428 45202380 "/>
<svg:path d="M60380952 45202380 L60190476 45202380 L60095238 45250000 L60047619 45297619 L59952380 45440476 L59904761 45630952 L59904761 46011904 L59952380 46107142 L60000000 46154761 L60095238 46202380 L60285714 46202380 L60380952 46154761 L60428571 46107142 L60476190 46011904 L60476190 45773809 L60428571 45678571 L60380952 45630952 L60285714 45583333 L60095238 45583333 L60000000 45630952 L59952380 45678571 L59904761 45773809 "/>
<svg:path d="M60904761 46202380 L60904761 45202380 L61285714 45202380 L61380952 45250000 L61428571 45297619 L61476190 45392857 L61476190 45535714 L61428571 45630952 L61380952 45678571 L61285714 45726190 L60904761 45726190 "/>
<svg:path d="M62428571 46202380 L61857142 46202380 "/>
<svg:path d="M62142857 46202380 L62142857 45202380 L62047619 45345238 L61952380 45440476 L61857142 45488095 "/>
<svg:path d="M63333333 45202380 L62857142 45202380 L62809523 45678571 L62857142 45630952 L62952380 45583333 L63190476 45583333 L63285714 45630952 L63333333 45678571 L63380952 45773809 L63380952 46011904 L63333333 46107142 L63285714 46154761 L63190476 46202380 L62952380 46202380 L62857142 46154761 L62809523 46107142 "/>
<svg:path d="M63809523 46202380 L63809523 45202380 L64142857 45916666 L64476190 45202380 L64476190 46202380 "/>
<svg:path d="M64952380 46202380 L64952380 45202380 "/>
<svg:path d="M65523809 46202380 L65095238 45630952 "/>
<svg:path d="M65523809 45202380 L64952380 45773809 "/>
<svg:path d="M65904761 46154761 L66047619 46202380 L66285714 46202380 L66380952 46154761 L66428571 46107142 L66476190 46011904 L66476190 45916666 L66428571 45821428 L66380952 45773809 L66285714 45726190 L66095238 45678571 L66000000 45630952 L65952380 45583333 L65904761 45488095 L65904761 45392857 L65952380 45297619 L66000000 45250000 L66095238 45202380 L66333333 45202380 L66476190 45250000 "/>
<svg:path d="M67333333 45535714 L67333333 46202380 "/>
<svg:path d="M67095238 45154761 L66857142 45869047 L67476190 45869047 "/>
</svg:g></svg:g>
<svg:g style="fill:#F2EDA1; fill-opacity:0.0;  stroke:#F2EDA1; stroke-width:120000.000000; stroke-opacity:1;  stroke-linecap:round; stroke-linejoin:round;">
<svg:path d="M67120000 46880000 L67120000 53120000 "/>
<svg:path d="M47880000 46880000 L67120000 46880000 "/>
<svg:path d="M47880000 46880000 L47880000 53120000 "/>
<svg:path d="M47880000 53120000 L67120000 53120000 "/>
<svg:g>
</svg:g>
<svg:g>
</svg:g>
<svg:g>
</svg:g>
<svg:g>
</svg:g>
</svg:g>
<svg:g style="fill:#000000; fill-opacity:0.0;  stroke:#000000; stroke-width:120000.000000; stroke-opacity:1;  stroke-linecap:round; stroke-linejoin:round;">
<svg:g>
</svg:g>
<svg:g>
</svg:g>
<svg:g>
</svg:g>
<svg:g>
</svg:g>
</svg:g> 
</svg:g><svg:g><svg:title>SVG Picture created as kicadBoard-Margin.svg date 2022/11/17 05:06:22 </svg:title>
  <svg:desc>Picture generated by PCBNEW </svg:desc>
<svg:g style="fill:#000000; fill-opacity:1.000000;stroke:#000000; stroke-opacity:1.000000; stroke-linecap:round; stroke-linejoin:round;" transform="translate(0 0) scale(1 1)">
</svg:g>
<svg:g style="fill:#000000; fill-opacity:0.0;  stroke:#000000; stroke-width:0.000000; stroke-opacity:1;  stroke-linecap:round; stroke-linejoin:round;">
<svg:g>
</svg:g>
<svg:g>
</svg:g>
<svg:g>
</svg:g>
<svg:g>
</svg:g>
</svg:g>
<svg:g style="fill:#000000; fill-opacity:0.0;  stroke:#000000; stroke-width:0.000000; stroke-opacity:1;  stroke-linecap:round; stroke-linejoin:round;">
<svg:g>
</svg:g>
<svg:g>
</svg:g>
<svg:g>
</svg:g>
<svg:g>
</svg:g>
</svg:g> 
</svg:g><svg:g><svg:title>SVG Picture created as kicadBoard-F_Cu.svg date 2022/11/17 05:06:22 </svg:title>
  <svg:desc>Picture generated by PCBNEW </svg:desc>
<svg:g style="fill:#000000; fill-opacity:1.000000;stroke:#000000; stroke-opacity:1.000000; stroke-linecap:round; stroke-linejoin:round;" transform="translate(0 0) scale(1 1)">
</svg:g>
<svg:g style="fill:#000000; fill-opacity:0.0;  stroke:#000000; stroke-width:0.000000; stroke-opacity:1;  stroke-linecap:round; stroke-linejoin:round;">
<svg:g>
</svg:g>
<svg:g style="fill:#C83434; fill-opacity:0.0;  stroke:#C83434; stroke-width:0.000000; stroke-opacity:1;  stroke-linecap:round; stroke-linejoin:round;">
</svg:g>
<svg:g style="fill:#C83434; fill-opacity:1.0;  stroke:#C83434; stroke-width:1.000000; stroke-opacity:1;  stroke-linecap:round; stroke-linejoin:round;">
<svg:circle cx="50000000.000000" cy="50000000.000000" r="1200000.000000"/> 
</svg:g>
<svg:g style="fill:#C83434; fill-opacity:1.0;  stroke:#C83434; stroke-width:21200.000000; stroke-opacity:1;  stroke-linecap:round; stroke-linejoin:round;">
</svg:g>
<svg:g style="fill:#C83434; fill-opacity:1.0;  stroke:#C83434; stroke-width:1.000000; stroke-opacity:1;  stroke-linecap:round; stroke-linejoin:round;">
<svg:circle cx="65000000.000000" cy="50000000.000000" r="1200000.000000"/> 
</svg:g>
<svg:g style="fill:#C83434; fill-opacity:1.0;  stroke:#C83434; stroke-width:21200.000000; stroke-opacity:1;  stroke-linecap:round; stroke-linejoin:round;">
</svg:g>
<svg:g>
</svg:g>
<svg:g>
</svg:g>
<svg:g>
</svg:g>
</svg:g>
<svg:g style="fill:#FFFFFF; fill-opacity:1.0;  stroke:#FFFFFF; stroke-width:21200.000000; stroke-opacity:1;  stroke-linecap:round; stroke-linejoin:round;">
</svg:g>
<svg:g style="fill:#FFFFFF; fill-opacity:1.0;  stroke:#FFFFFF; stroke-width:1.000000; stroke-opacity:1;  stroke-linecap:round; stroke-linejoin:round;">
<svg:circle cx="50000000.000000" cy="50000000.000000" r="600000.000000"/> 
</svg:g>
<svg:g style="fill:#FFFFFF; fill-opacity:1.0;  stroke:#FFFFFF; stroke-width:21200.000000; stroke-opacity:1;  stroke-linecap:round; stroke-linejoin:round;">
</svg:g>
<svg:g style="fill:#FFFFFF; fill-opacity:1.0;  stroke:#FFFFFF; stroke-width:1.000000; stroke-opacity:1;  stroke-linecap:round; stroke-linejoin:round;">
<svg:circle cx="65000000.000000" cy="50000000.000000" r="600000.000000"/> 
</svg:g>
<svg:g style="fill:#FFFFFF; fill-opacity:1.0;  stroke:#FFFFFF; stroke-width:21200.000000; stroke-opacity:1;  stroke-linecap:round; stroke-linejoin:round;">
</svg:g>
<svg:g style="fill:#000000; fill-opacity:1.0;  stroke:#000000; stroke-width:21200.000000; stroke-opacity:1;  stroke-linecap:round; stroke-linejoin:round;">
<svg:g>
</svg:g>
<svg:g>
</svg:g>
<svg:g>
</svg:g>
<svg:g>
</svg:g>
</svg:g> 
</svg:g></svg>
