<?xml version='1.0' encoding='ASCII' standalone='yes'?>
<svg xmlns:svg="http://www.w3.org/2000/svg" xmlns="http://www.w3.org/2000/svg" xmlns:xlink="http://www.w3.org/1999/xlink" version="1.1" width="9.999980cm" height="9.999980cm" viewBox="0 0 99999800 99999800">
<title>SVG Picture created as kicadBoard-B_Cu.svg date 2022/11/17 06:07:41 </title>
  <desc>Picture generated by PCBNEW </desc>
<g style="fill:#000000; fill-opacity:1.000000;stroke:#000000; stroke-opacity:1.000000; stroke-linecap:round; stroke-linejoin:round;" transform="translate(0 0) scale(1 1)">
</g>
<g style="fill:#000000; fill-opacity:0.0;  stroke:#000000; stroke-width:0.000000; stroke-opacity:1;  stroke-linecap:round; stroke-linejoin:round;">
<g>
</g>
<g style="fill:#4D7FC4; fill-opacity:0.0;  stroke:#4D7FC4; stroke-width:0.000000; stroke-opacity:1;  stroke-linecap:round; stroke-linejoin:round;">
</g>
<g style="fill:#4D7FC4; fill-opacity:1.0;  stroke:#4D7FC4; stroke-width:1.000000; stroke-opacity:1;  stroke-linecap:round; stroke-linejoin:round;">
<circle cx="50000000.000000" cy="50000000.000000" r="1200000.000000"/> 
</g>
<g style="fill:#4D7FC4; fill-opacity:1.0;  stroke:#4D7FC4; stroke-width:21200.000000; stroke-opacity:1;  stroke-linecap:round; stroke-linejoin:round;">
</g>
<g style="fill:#4D7FC4; fill-opacity:1.0;  stroke:#4D7FC4; stroke-width:1.000000; stroke-opacity:1;  stroke-linecap:round; stroke-linejoin:round;">
<circle cx="77500000.000000" cy="50000000.000000" r="1200000.000000"/> 
</g>
<g style="fill:#4D7FC4; fill-opacity:1.0;  stroke:#4D7FC4; stroke-width:21200.000000; stroke-opacity:1;  stroke-linecap:round; stroke-linejoin:round;">
</g>
<g>
</g>
<g>
</g>
<g>
</g>
</g>
<g style="fill:#FFFFFF; fill-opacity:1.0;  stroke:#FFFFFF; stroke-width:21200.000000; stroke-opacity:1;  stroke-linecap:round; stroke-linejoin:round;">
</g>
<g style="fill:#FFFFFF; fill-opacity:1.0;  stroke:#FFFFFF; stroke-width:1.000000; stroke-opacity:1;  stroke-linecap:round; stroke-linejoin:round;">
<circle cx="50000000.000000" cy="50000000.000000" r="600000.000000"/> 
</g>
<g style="fill:#FFFFFF; fill-opacity:1.0;  stroke:#FFFFFF; stroke-width:21200.000000; stroke-opacity:1;  stroke-linecap:round; stroke-linejoin:round;">
</g>
<g style="fill:#FFFFFF; fill-opacity:1.0;  stroke:#FFFFFF; stroke-width:1.000000; stroke-opacity:1;  stroke-linecap:round; stroke-linejoin:round;">
<circle cx="77500000.000000" cy="50000000.000000" r="600000.000000"/> 
</g>
<g style="fill:#FFFFFF; fill-opacity:1.0;  stroke:#FFFFFF; stroke-width:21200.000000; stroke-opacity:1;  stroke-linecap:round; stroke-linejoin:round;">
</g>
<g style="fill:#000000; fill-opacity:1.0;  stroke:#000000; stroke-width:21200.000000; stroke-opacity:1;  stroke-linecap:round; stroke-linejoin:round;">
<g>
</g>
<g>
</g>
<g>
</g>
<g>
</g>
</g> 
<svg:g><svg:title>SVG Picture created as kicadBoard-B_Adhesive.svg date 2022/11/17 06:07:41 </svg:title>
  <svg:desc>Picture generated by PCBNEW </svg:desc>
<svg:g style="fill:#000000; fill-opacity:1.000000;stroke:#000000; stroke-opacity:1.000000; stroke-linecap:round; stroke-linejoin:round;" transform="translate(0 0) scale(1 1)">
</svg:g>
<svg:g style="fill:#000000; fill-opacity:0.0;  stroke:#000000; stroke-width:0.000000; stroke-opacity:1;  stroke-linecap:round; stroke-linejoin:round;">
<svg:g>
</svg:g>
<svg:g>
</svg:g>
<svg:g>
</svg:g>
<svg:g>
</svg:g>
</svg:g>
<svg:g style="fill:#000000; fill-opacity:0.0;  stroke:#000000; stroke-width:0.000000; stroke-opacity:1;  stroke-linecap:round; stroke-linejoin:round;">
<svg:g>
</svg:g>
<svg:g>
</svg:g>
<svg:g>
</svg:g>
<svg:g>
</svg:g>
</svg:g> 
</svg:g><svg:g><svg:title>SVG Picture created as kicadBoard-B_Courtyard.svg date 2022/11/17 06:07:41 </svg:title>
  <svg:desc>Picture generated by PCBNEW </svg:desc>
<svg:g style="fill:#000000; fill-opacity:1.000000;stroke:#000000; stroke-opacity:1.000000; stroke-linecap:round; stroke-linejoin:round;" transform="translate(0 0) scale(1 1)">
</svg:g>
<svg:g style="fill:#000000; fill-opacity:0.0;  stroke:#000000; stroke-width:0.000000; stroke-opacity:1;  stroke-linecap:round; stroke-linejoin:round;">
<svg:g>
</svg:g>
<svg:g>
</svg:g>
<svg:g>
</svg:g>
<svg:g>
</svg:g>
</svg:g>
<svg:g style="fill:#000000; fill-opacity:0.0;  stroke:#000000; stroke-width:0.000000; stroke-opacity:1;  stroke-linecap:round; stroke-linejoin:round;">
<svg:g>
</svg:g>
<svg:g>
</svg:g>
<svg:g>
</svg:g>
<svg:g>
</svg:g>
</svg:g> 
</svg:g><svg:g><svg:title>SVG Picture created as kicadBoard-B_Fab.svg date 2022/11/17 06:07:41 </svg:title>
  <svg:desc>Picture generated by PCBNEW </svg:desc>
<svg:g style="fill:#000000; fill-opacity:1.000000;stroke:#000000; stroke-opacity:1.000000; stroke-linecap:round; stroke-linejoin:round;" transform="translate(0 0) scale(1 1)">
</svg:g>
<svg:g style="fill:#000000; fill-opacity:0.0;  stroke:#000000; stroke-width:0.000000; stroke-opacity:1;  stroke-linecap:round; stroke-linejoin:round;">
<svg:g>
</svg:g>
<svg:g>
</svg:g>
<svg:g>
</svg:g>
<svg:g>
</svg:g>
</svg:g>
<svg:g style="fill:#000000; fill-opacity:0.0;  stroke:#000000; stroke-width:0.000000; stroke-opacity:1;  stroke-linecap:round; stroke-linejoin:round;">
<svg:g>
</svg:g>
<svg:g>
</svg:g>
<svg:g>
</svg:g>
<svg:g>
</svg:g>
</svg:g> 
</svg:g><svg:g><svg:title>SVG Picture created as kicadBoard-B_Mask.svg date 2022/11/17 06:07:41 </svg:title>
  <svg:desc>Picture generated by PCBNEW </svg:desc>
<svg:g style="fill:#000000; fill-opacity:1.000000;stroke:#000000; stroke-opacity:1.000000; stroke-linecap:round; stroke-linejoin:round;" transform="translate(0 0) scale(1 1)">
</svg:g>
<svg:g style="fill:#000000; fill-opacity:0.0;  stroke:#000000; stroke-width:0.000000; stroke-opacity:1;  stroke-linecap:round; stroke-linejoin:round;">
<svg:g>
</svg:g>
<svg:g style="fill:#000000; fill-opacity:1.0;  stroke:#000000; stroke-width:1.000000; stroke-opacity:1;  stroke-linecap:round; stroke-linejoin:round;">
<svg:circle cx="50000000.000000" cy="50000000.000000" r="1200000.000000"/> 
</svg:g>
<svg:g style="fill:#000000; fill-opacity:1.0;  stroke:#000000; stroke-width:21200.000000; stroke-opacity:1;  stroke-linecap:round; stroke-linejoin:round;">
</svg:g>
<svg:g style="fill:#000000; fill-opacity:1.0;  stroke:#000000; stroke-width:1.000000; stroke-opacity:1;  stroke-linecap:round; stroke-linejoin:round;">
<svg:circle cx="77500000.000000" cy="50000000.000000" r="1200000.000000"/> 
</svg:g>
<svg:g style="fill:#000000; fill-opacity:1.0;  stroke:#000000; stroke-width:21200.000000; stroke-opacity:1;  stroke-linecap:round; stroke-linejoin:round;">
</svg:g>
<svg:g>
</svg:g>
<svg:g>
</svg:g>
<svg:g>
</svg:g>
</svg:g>
<svg:g style="fill:#000000; fill-opacity:1.0;  stroke:#000000; stroke-width:21200.000000; stroke-opacity:1;  stroke-linecap:round; stroke-linejoin:round;">
<svg:g>
</svg:g>
<svg:g>
</svg:g>
<svg:g>
</svg:g>
<svg:g>
</svg:g>
</svg:g> 
</svg:g><svg:g><svg:title>SVG Picture created as kicadBoard-B_Paste.svg date 2022/11/17 06:07:41 </svg:title>
  <svg:desc>Picture generated by PCBNEW </svg:desc>
<svg:g style="fill:#000000; fill-opacity:1.000000;stroke:#000000; stroke-opacity:1.000000; stroke-linecap:round; stroke-linejoin:round;" transform="translate(0 0) scale(1 1)">
</svg:g>
<svg:g style="fill:#000000; fill-opacity:0.0;  stroke:#000000; stroke-width:0.000000; stroke-opacity:1;  stroke-linecap:round; stroke-linejoin:round;">
<svg:g>
</svg:g>
<svg:g>
</svg:g>
<svg:g>
</svg:g>
<svg:g>
</svg:g>
</svg:g>
<svg:g style="fill:#000000; fill-opacity:0.0;  stroke:#000000; stroke-width:0.000000; stroke-opacity:1;  stroke-linecap:round; stroke-linejoin:round;">
<svg:g>
</svg:g>
<svg:g>
</svg:g>
<svg:g>
</svg:g>
<svg:g>
</svg:g>
</svg:g> 
</svg:g><svg:g><svg:title>SVG Picture created as kicadBoard-B_Silkscreen.svg date 2022/11/17 06:07:41 </svg:title>
  <svg:desc>Picture generated by PCBNEW </svg:desc>
<svg:g style="fill:#000000; fill-opacity:1.000000;stroke:#000000; stroke-opacity:1.000000; stroke-linecap:round; stroke-linejoin:round;" transform="translate(0 0) scale(1 1)">
</svg:g>
<svg:g style="fill:#000000; fill-opacity:0.0;  stroke:#000000; stroke-width:0.000000; stroke-opacity:1;  stroke-linecap:round; stroke-linejoin:round;">
<svg:g>
</svg:g>
<svg:g>
</svg:g>
<svg:g>
</svg:g>
<svg:g>
</svg:g>
</svg:g>
<svg:g style="fill:#000000; fill-opacity:0.0;  stroke:#000000; stroke-width:0.000000; stroke-opacity:1;  stroke-linecap:round; stroke-linejoin:round;">
<svg:g>
</svg:g>
<svg:g>
</svg:g>
<svg:g>
</svg:g>
<svg:g>
</svg:g>
</svg:g> 
</svg:g><svg:g><svg:title>SVG Picture created as kicadBoard-Edge_Cuts.svg date 2022/11/17 06:07:41 </svg:title>
  <svg:desc>Picture generated by PCBNEW </svg:desc>
<svg:g style="fill:#000000; fill-opacity:1.000000;stroke:#000000; stroke-opacity:1.000000; stroke-linecap:round; stroke-linejoin:round;" transform="translate(0 0) scale(1 1)">
</svg:g>
<svg:g style="fill:#000000; fill-opacity:0.0;  stroke:#000000; stroke-width:0.000000; stroke-opacity:1;  stroke-linecap:round; stroke-linejoin:round;">
<svg:g>
</svg:g>
<svg:g>
</svg:g>
<svg:g>
</svg:g>
<svg:g>
</svg:g>
</svg:g> 
</svg:g><svg:g><svg:title>SVG Picture created as kicadBoard-F_Adhesive.svg date 2022/11/17 06:07:41 </svg:title>
  <svg:desc>Picture generated by PCBNEW </svg:desc>
<svg:g style="fill:#000000; fill-opacity:1.000000;stroke:#000000; stroke-opacity:1.000000; stroke-linecap:round; stroke-linejoin:round;" transform="translate(0 0) scale(1 1)">
</svg:g>
<svg:g style="fill:#000000; fill-opacity:0.0;  stroke:#000000; stroke-width:0.000000; stroke-opacity:1;  stroke-linecap:round; stroke-linejoin:round;">
<svg:g>
</svg:g>
<svg:g>
</svg:g>
<svg:g>
</svg:g>
<svg:g>
</svg:g>
</svg:g>
<svg:g style="fill:#000000; fill-opacity:0.0;  stroke:#000000; stroke-width:0.000000; stroke-opacity:1;  stroke-linecap:round; stroke-linejoin:round;">
<svg:g>
</svg:g>
<svg:g>
</svg:g>
<svg:g>
</svg:g>
<svg:g>
</svg:g>
</svg:g> 
</svg:g><svg:g><svg:title>SVG Picture created as kicadBoard-F_Courtyard.svg date 2022/11/17 06:07:41 </svg:title>
  <svg:desc>Picture generated by PCBNEW </svg:desc>
<svg:g style="fill:#000000; fill-opacity:1.000000;stroke:#000000; stroke-opacity:1.000000; stroke-linecap:round; stroke-linejoin:round;" transform="translate(0 0) scale(1 1)">
</svg:g>
<svg:g style="fill:#000000; fill-opacity:0.0;  stroke:#000000; stroke-width:0.000000; stroke-opacity:1;  stroke-linecap:round; stroke-linejoin:round;">
</svg:g>
<svg:g style="fill:#FF26E2; fill-opacity:0.0;  stroke:#FF26E2; stroke-width:0.000000; stroke-opacity:1;  stroke-linecap:round; stroke-linejoin:round;">
</svg:g>
<svg:g style="fill:#FF26E2; fill-opacity:0.0;  stroke:#FF26E2; stroke-width:50000.000000; stroke-opacity:1;  stroke-linecap:round; stroke-linejoin:round;">
<svg:path d="M47000000 39750000 L47000000 60250000 "/>
<svg:path d="M80500000 60250000 L80500000 39750000 "/>
<svg:path d="M47000000 60250000 L80500000 60250000 "/>
<svg:path d="M80500000 39750000 L47000000 39750000 "/>
<svg:g>
</svg:g>
<svg:g>
</svg:g>
<svg:g>
</svg:g>
<svg:g>
</svg:g>
</svg:g>
<svg:g style="fill:#000000; fill-opacity:0.0;  stroke:#000000; stroke-width:50000.000000; stroke-opacity:1;  stroke-linecap:round; stroke-linejoin:round;">
<svg:g>
</svg:g>
<svg:g>
</svg:g>
<svg:g>
</svg:g>
<svg:g>
</svg:g>
</svg:g> 
</svg:g><svg:g><svg:title>SVG Picture created as kicadBoard-F_Cu.svg date 2022/11/17 06:07:41 </svg:title>
  <svg:desc>Picture generated by PCBNEW </svg:desc>
<svg:g style="fill:#000000; fill-opacity:1.000000;stroke:#000000; stroke-opacity:1.000000; stroke-linecap:round; stroke-linejoin:round;" transform="translate(0 0) scale(1 1)">
</svg:g>
<svg:g style="fill:#000000; fill-opacity:0.0;  stroke:#000000; stroke-width:0.000000; stroke-opacity:1;  stroke-linecap:round; stroke-linejoin:round;">
<svg:g>
</svg:g>
<svg:g style="fill:#C83434; fill-opacity:0.0;  stroke:#C83434; stroke-width:0.000000; stroke-opacity:1;  stroke-linecap:round; stroke-linejoin:round;">
</svg:g>
<svg:g style="fill:#C83434; fill-opacity:1.0;  stroke:#C83434; stroke-width:1.000000; stroke-opacity:1;  stroke-linecap:round; stroke-linejoin:round;">
<svg:circle cx="50000000.000000" cy="50000000.000000" r="1200000.000000"/> 
</svg:g>
<svg:g style="fill:#C83434; fill-opacity:1.0;  stroke:#C83434; stroke-width:21200.000000; stroke-opacity:1;  stroke-linecap:round; stroke-linejoin:round;">
</svg:g>
<svg:g style="fill:#C83434; fill-opacity:1.0;  stroke:#C83434; stroke-width:1.000000; stroke-opacity:1;  stroke-linecap:round; stroke-linejoin:round;">
<svg:circle cx="77500000.000000" cy="50000000.000000" r="1200000.000000"/> 
</svg:g>
<svg:g style="fill:#C83434; fill-opacity:1.0;  stroke:#C83434; stroke-width:21200.000000; stroke-opacity:1;  stroke-linecap:round; stroke-linejoin:round;">
</svg:g>
<svg:g>
</svg:g>
<svg:g>
</svg:g>
<svg:g>
</svg:g>
</svg:g>
<svg:g style="fill:#FFFFFF; fill-opacity:1.0;  stroke:#FFFFFF; stroke-width:21200.000000; stroke-opacity:1;  stroke-linecap:round; stroke-linejoin:round;">
</svg:g>
<svg:g style="fill:#FFFFFF; fill-opacity:1.0;  stroke:#FFFFFF; stroke-width:1.000000; stroke-opacity:1;  stroke-linecap:round; stroke-linejoin:round;">
<svg:circle cx="50000000.000000" cy="50000000.000000" r="600000.000000"/> 
</svg:g>
<svg:g style="fill:#FFFFFF; fill-opacity:1.0;  stroke:#FFFFFF; stroke-width:21200.000000; stroke-opacity:1;  stroke-linecap:round; stroke-linejoin:round;">
</svg:g>
<svg:g style="fill:#FFFFFF; fill-opacity:1.0;  stroke:#FFFFFF; stroke-width:1.000000; stroke-opacity:1;  stroke-linecap:round; stroke-linejoin:round;">
<svg:circle cx="77500000.000000" cy="50000000.000000" r="600000.000000"/> 
</svg:g>
<svg:g style="fill:#FFFFFF; fill-opacity:1.0;  stroke:#FFFFFF; stroke-width:21200.000000; stroke-opacity:1;  stroke-linecap:round; stroke-linejoin:round;">
</svg:g>
<svg:g style="fill:#000000; fill-opacity:1.0;  stroke:#000000; stroke-width:21200.000000; stroke-opacity:1;  stroke-linecap:round; stroke-linejoin:round;">
<svg:g>
</svg:g>
<svg:g>
</svg:g>
<svg:g>
</svg:g>
<svg:g>
</svg:g>
</svg:g> 
</svg:g><svg:g><svg:title>SVG Picture created as kicadBoard-F_Fab.svg date 2022/11/17 06:07:41 </svg:title>
  <svg:desc>Picture generated by PCBNEW </svg:desc>
<svg:g style="fill:#000000; fill-opacity:1.000000;stroke:#000000; stroke-opacity:1.000000; stroke-linecap:round; stroke-linejoin:round;" transform="translate(0 0) scale(1 1)">
</svg:g>
<svg:g style="fill:#000000; fill-opacity:0.0;  stroke:#000000; stroke-width:0.000000; stroke-opacity:1;  stroke-linecap:round; stroke-linejoin:round;">
</svg:g>
<svg:g style="fill:#AFAFAF; fill-opacity:0.0;  stroke:#AFAFAF; stroke-width:0.000000; stroke-opacity:1;  stroke-linecap:round; stroke-linejoin:round;">
</svg:g>
<svg:g style="fill:#AFAFAF; fill-opacity:0.0;  stroke:#AFAFAF; stroke-width:150000.000000; stroke-opacity:1;  stroke-linecap:round; stroke-linejoin:round;">
<svg:text x="63750000.000000" y="61750000.000000" textLength="34242619.000000" font-size="1333333.000000" lengthAdjust="spacingAndGlyphs" text-anchor="middle" opacity="0">C_Rect_L33.0mm_W20.0mm_P27.50mm_MKS4</svg:text>
<svg:g class="stroked-text"><svg:desc>C_Rect_L33.0mm_W20.0mm_P27.50mm_MKS4</svg:desc>
<svg:path d="M47535714 61607142 L47488095 61654761 L47345238 61702380 L47250000 61702380 L47107142 61654761 L47011904 61559523 L46964285 61464285 L46916666 61273809 L46916666 61130952 L46964285 60940476 L47011904 60845238 L47107142 60750000 L47250000 60702380 L47345238 60702380 L47488095 60750000 L47535714 60797619 "/>
<svg:path d="M47726190 61797619 L48488095 61797619 "/>
<svg:path d="M49297619 61702380 L48964285 61226190 "/>
<svg:path d="M48726190 61702380 L48726190 60702380 L49107142 60702380 L49202380 60750000 L49250000 60797619 L49297619 60892857 L49297619 61035714 L49250000 61130952 L49202380 61178571 L49107142 61226190 L48726190 61226190 "/>
<svg:path d="M50107142 61654761 L50011904 61702380 L49821428 61702380 L49726190 61654761 L49678571 61559523 L49678571 61178571 L49726190 61083333 L49821428 61035714 L50011904 61035714 L50107142 61083333 L50154761 61178571 L50154761 61273809 L49678571 61369047 "/>
<svg:path d="M51011904 61654761 L50916666 61702380 L50726190 61702380 L50630952 61654761 L50583333 61607142 L50535714 61511904 L50535714 61226190 L50583333 61130952 L50630952 61083333 L50726190 61035714 L50916666 61035714 L51011904 61083333 "/>
<svg:path d="M51297619 61035714 L51678571 61035714 "/>
<svg:path d="M51440476 60702380 L51440476 61559523 L51488095 61654761 L51583333 61702380 L51678571 61702380 "/>
<svg:path d="M51773809 61797619 L52535714 61797619 "/>
<svg:path d="M53250000 61702380 L52773809 61702380 L52773809 60702380 "/>
<svg:path d="M53488095 60702380 L54107142 60702380 L53773809 61083333 L53916666 61083333 L54011904 61130952 L54059523 61178571 L54107142 61273809 L54107142 61511904 L54059523 61607142 L54011904 61654761 L53916666 61702380 L53630952 61702380 L53535714 61654761 L53488095 61607142 "/>
<svg:path d="M54440476 60702380 L55059523 60702380 L54726190 61083333 L54869047 61083333 L54964285 61130952 L55011904 61178571 L55059523 61273809 L55059523 61511904 L55011904 61607142 L54964285 61654761 L54869047 61702380 L54583333 61702380 L54488095 61654761 L54440476 61607142 "/>
<svg:path d="M55488095 61607142 L55535714 61654761 L55488095 61702380 L55440476 61654761 L55488095 61607142 L55488095 61702380 "/>
<svg:path d="M56154761 60702380 L56250000 60702380 L56345238 60750000 L56392857 60797619 L56440476 60892857 L56488095 61083333 L56488095 61321428 L56440476 61511904 L56392857 61607142 L56345238 61654761 L56250000 61702380 L56154761 61702380 L56059523 61654761 L56011904 61607142 L55964285 61511904 L55916666 61321428 L55916666 61083333 L55964285 60892857 L56011904 60797619 L56059523 60750000 L56154761 60702380 "/>
<svg:path d="M56916666 61702380 L56916666 61035714 "/>
<svg:path d="M56916666 61130952 L56964285 61083333 L57059523 61035714 L57202380 61035714 L57297619 61083333 L57345238 61178571 L57345238 61702380 "/>
<svg:path d="M57345238 61178571 L57392857 61083333 L57488095 61035714 L57630952 61035714 L57726190 61083333 L57773809 61178571 L57773809 61702380 "/>
<svg:path d="M58250000 61702380 L58250000 61035714 "/>
<svg:path d="M58250000 61130952 L58297619 61083333 L58392857 61035714 L58535714 61035714 L58630952 61083333 L58678571 61178571 L58678571 61702380 "/>
<svg:path d="M58678571 61178571 L58726190 61083333 L58821428 61035714 L58964285 61035714 L59059523 61083333 L59107142 61178571 L59107142 61702380 "/>
<svg:path d="M59345238 61797619 L60107142 61797619 "/>
<svg:path d="M60250000 60702380 L60488095 61702380 L60678571 60988095 L60869047 61702380 L61107142 60702380 "/>
<svg:path d="M61440476 60797619 L61488095 60750000 L61583333 60702380 L61821428 60702380 L61916666 60750000 L61964285 60797619 L62011904 60892857 L62011904 60988095 L61964285 61130952 L61392857 61702380 L62011904 61702380 "/>
<svg:path d="M62630952 60702380 L62726190 60702380 L62821428 60750000 L62869047 60797619 L62916666 60892857 L62964285 61083333 L62964285 61321428 L62916666 61511904 L62869047 61607142 L62821428 61654761 L62726190 61702380 L62630952 61702380 L62535714 61654761 L62488095 61607142 L62440476 61511904 L62392857 61321428 L62392857 61083333 L62440476 60892857 L62488095 60797619 L62535714 60750000 L62630952 60702380 "/>
<svg:path d="M63392857 61607142 L63440476 61654761 L63392857 61702380 L63345238 61654761 L63392857 61607142 L63392857 61702380 "/>
<svg:path d="M64059523 60702380 L64154761 60702380 L64250000 60750000 L64297619 60797619 L64345238 60892857 L64392857 61083333 L64392857 61321428 L64345238 61511904 L64297619 61607142 L64250000 61654761 L64154761 61702380 L64059523 61702380 L63964285 61654761 L63916666 61607142 L63869047 61511904 L63821428 61321428 L63821428 61083333 L63869047 60892857 L63916666 60797619 L63964285 60750000 L64059523 60702380 "/>
<svg:path d="M64821428 61702380 L64821428 61035714 "/>
<svg:path d="M64821428 61130952 L64869047 61083333 L64964285 61035714 L65107142 61035714 L65202380 61083333 L65250000 61178571 L65250000 61702380 "/>
<svg:path d="M65250000 61178571 L65297619 61083333 L65392857 61035714 L65535714 61035714 L65630952 61083333 L65678571 61178571 L65678571 61702380 "/>
<svg:path d="M66154761 61702380 L66154761 61035714 "/>
<svg:path d="M66154761 61130952 L66202380 61083333 L66297619 61035714 L66440476 61035714 L66535714 61083333 L66583333 61178571 L66583333 61702380 "/>
<svg:path d="M66583333 61178571 L66630952 61083333 L66726190 61035714 L66869047 61035714 L66964285 61083333 L67011904 61178571 L67011904 61702380 "/>
<svg:path d="M67250000 61797619 L68011904 61797619 "/>
<svg:path d="M68250000 61702380 L68250000 60702380 L68630952 60702380 L68726190 60750000 L68773809 60797619 L68821428 60892857 L68821428 61035714 L68773809 61130952 L68726190 61178571 L68630952 61226190 L68250000 61226190 "/>
<svg:path d="M69202380 60797619 L69250000 60750000 L69345238 60702380 L69583333 60702380 L69678571 60750000 L69726190 60797619 L69773809 60892857 L69773809 60988095 L69726190 61130952 L69154761 61702380 L69773809 61702380 "/>
<svg:path d="M70107142 60702380 L70773809 60702380 L70345238 61702380 "/>
<svg:path d="M71154761 61607142 L71202380 61654761 L71154761 61702380 L71107142 61654761 L71154761 61607142 L71154761 61702380 "/>
<svg:path d="M72107142 60702380 L71630952 60702380 L71583333 61178571 L71630952 61130952 L71726190 61083333 L71964285 61083333 L72059523 61130952 L72107142 61178571 L72154761 61273809 L72154761 61511904 L72107142 61607142 L72059523 61654761 L71964285 61702380 L71726190 61702380 L71630952 61654761 L71583333 61607142 "/>
<svg:path d="M72773809 60702380 L72869047 60702380 L72964285 60750000 L73011904 60797619 L73059523 60892857 L73107142 61083333 L73107142 61321428 L73059523 61511904 L73011904 61607142 L72964285 61654761 L72869047 61702380 L72773809 61702380 L72678571 61654761 L72630952 61607142 L72583333 61511904 L72535714 61321428 L72535714 61083333 L72583333 60892857 L72630952 60797619 L72678571 60750000 L72773809 60702380 "/>
<svg:path d="M73535714 61702380 L73535714 61035714 "/>
<svg:path d="M73535714 61130952 L73583333 61083333 L73678571 61035714 L73821428 61035714 L73916666 61083333 L73964285 61178571 L73964285 61702380 "/>
<svg:path d="M73964285 61178571 L74011904 61083333 L74107142 61035714 L74250000 61035714 L74345238 61083333 L74392857 61178571 L74392857 61702380 "/>
<svg:path d="M74869047 61702380 L74869047 61035714 "/>
<svg:path d="M74869047 61130952 L74916666 61083333 L75011904 61035714 L75154761 61035714 L75250000 61083333 L75297619 61178571 L75297619 61702380 "/>
<svg:path d="M75297619 61178571 L75345238 61083333 L75440476 61035714 L75583333 61035714 L75678571 61083333 L75726190 61178571 L75726190 61702380 "/>
<svg:path d="M75964285 61797619 L76726190 61797619 "/>
<svg:path d="M76964285 61702380 L76964285 60702380 L77297619 61416666 L77630952 60702380 L77630952 61702380 "/>
<svg:path d="M78107142 61702380 L78107142 60702380 "/>
<svg:path d="M78678571 61702380 L78249999 61130952 "/>
<svg:path d="M78678571 60702380 L78107142 61273809 "/>
<svg:path d="M79059523 61654761 L79202380 61702380 L79440476 61702380 L79535714 61654761 L79583333 61607142 L79630952 61511904 L79630952 61416666 L79583333 61321428 L79535714 61273809 L79440476 61226190 L79249999 61178571 L79154761 61130952 L79107142 61083333 L79059523 60988095 L79059523 60892857 L79107142 60797619 L79154761 60750000 L79249999 60702380 L79488095 60702380 L79630952 60750000 "/>
<svg:path d="M80488095 61035714 L80488095 61702380 "/>
<svg:path d="M80249999 60654761 L80011904 61369047 L80630952 61369047 "/>
</svg:g><svg:text x="63750000.000000" y="50500000.000000" textLength="21385476.000000" font-size="1333333.000000" lengthAdjust="spacingAndGlyphs" text-anchor="middle" opacity="0">FZKCCRECTL33W2P275MKS4</svg:text>
<svg:g class="stroked-text"><svg:desc>FZKCCRECTL33W2P275MKS4</svg:desc>
<svg:path d="M53726190 49928571 L53392857 49928571 "/>
<svg:path d="M53392857 50452380 L53392857 49452380 L53869047 49452380 "/>
<svg:path d="M54154761 49452380 L54821428 49452380 L54154761 50452380 L54821428 50452380 "/>
<svg:path d="M55202380 50452380 L55202380 49452380 "/>
<svg:path d="M55773809 50452380 L55345238 49880952 "/>
<svg:path d="M55773809 49452380 L55202380 50023809 "/>
<svg:path d="M56773809 50357142 L56726190 50404761 L56583333 50452380 L56488095 50452380 L56345238 50404761 L56250000 50309523 L56202380 50214285 L56154761 50023809 L56154761 49880952 L56202380 49690476 L56250000 49595238 L56345238 49500000 L56488095 49452380 L56583333 49452380 L56726190 49500000 L56773809 49547619 "/>
<svg:path d="M57773809 50357142 L57726190 50404761 L57583333 50452380 L57488095 50452380 L57345238 50404761 L57250000 50309523 L57202380 50214285 L57154761 50023809 L57154761 49880952 L57202380 49690476 L57250000 49595238 L57345238 49500000 L57488095 49452380 L57583333 49452380 L57726190 49500000 L57773809 49547619 "/>
<svg:path d="M58773809 50452380 L58440476 49976190 "/>
<svg:path d="M58202380 50452380 L58202380 49452380 L58583333 49452380 L58678571 49500000 L58726190 49547619 L58773809 49642857 L58773809 49785714 L58726190 49880952 L58678571 49928571 L58583333 49976190 L58202380 49976190 "/>
<svg:path d="M59202380 49928571 L59535714 49928571 "/>
<svg:path d="M59678571 50452380 L59202380 50452380 L59202380 49452380 L59678571 49452380 "/>
<svg:path d="M60678571 50357142 L60630952 50404761 L60488095 50452380 L60392857 50452380 L60250000 50404761 L60154761 50309523 L60107142 50214285 L60059523 50023809 L60059523 49880952 L60107142 49690476 L60154761 49595238 L60250000 49500000 L60392857 49452380 L60488095 49452380 L60630952 49500000 L60678571 49547619 "/>
<svg:path d="M60964285 49452380 L61535714 49452380 "/>
<svg:path d="M61250000 50452380 L61250000 49452380 "/>
<svg:path d="M62345238 50452380 L61869047 50452380 L61869047 49452380 "/>
<svg:path d="M62583333 49452380 L63202380 49452380 L62869047 49833333 L63011904 49833333 L63107142 49880952 L63154761 49928571 L63202380 50023809 L63202380 50261904 L63154761 50357142 L63107142 50404761 L63011904 50452380 L62726190 50452380 L62630952 50404761 L62583333 50357142 "/>
<svg:path d="M63535714 49452380 L64154761 49452380 L63821428 49833333 L63964285 49833333 L64059523 49880952 L64107142 49928571 L64154761 50023809 L64154761 50261904 L64107142 50357142 L64059523 50404761 L63964285 50452380 L63678571 50452380 L63583333 50404761 L63535714 50357142 "/>
<svg:path d="M64488095 49452380 L64726190 50452380 L64916666 49738095 L65107142 50452380 L65345238 49452380 "/>
<svg:path d="M65678571 49547619 L65726190 49500000 L65821428 49452380 L66059523 49452380 L66154761 49500000 L66202380 49547619 L66250000 49642857 L66250000 49738095 L66202380 49880952 L65630952 50452380 L66250000 50452380 "/>
<svg:path d="M66678571 50452380 L66678571 49452380 L67059523 49452380 L67154761 49500000 L67202380 49547619 L67250000 49642857 L67250000 49785714 L67202380 49880952 L67154761 49928571 L67059523 49976190 L66678571 49976190 "/>
<svg:path d="M67630952 49547619 L67678571 49500000 L67773809 49452380 L68011904 49452380 L68107142 49500000 L68154761 49547619 L68202380 49642857 L68202380 49738095 L68154761 49880952 L67583333 50452380 L68202380 50452380 "/>
<svg:path d="M68535714 49452380 L69202380 49452380 L68773809 50452380 "/>
<svg:path d="M70059523 49452380 L69583333 49452380 L69535714 49928571 L69583333 49880952 L69678571 49833333 L69916666 49833333 L70011904 49880952 L70059523 49928571 L70107142 50023809 L70107142 50261904 L70059523 50357142 L70011904 50404761 L69916666 50452380 L69678571 50452380 L69583333 50404761 L69535714 50357142 "/>
<svg:path d="M70535714 50452380 L70535714 49452380 L70869047 50166666 L71202380 49452380 L71202380 50452380 "/>
<svg:path d="M71678571 50452380 L71678571 49452380 "/>
<svg:path d="M72250000 50452380 L71821428 49880952 "/>
<svg:path d="M72250000 49452380 L71678571 50023809 "/>
<svg:path d="M72630952 50404761 L72773809 50452380 L73011904 50452380 L73107142 50404761 L73154761 50357142 L73202380 50261904 L73202380 50166666 L73154761 50071428 L73107142 50023809 L73011904 49976190 L72821428 49928571 L72726190 49880952 L72678571 49833333 L72630952 49738095 L72630952 49642857 L72678571 49547619 L72726190 49500000 L72821428 49452380 L73059523 49452380 L73202380 49500000 "/>
<svg:path d="M74059523 49785714 L74059523 50452380 "/>
<svg:path d="M73821428 49404761 L73583333 50119047 L74202380 50119047 "/>
</svg:g></svg:g>
<svg:g style="fill:#AFAFAF; fill-opacity:0.0;  stroke:#AFAFAF; stroke-width:100000.000000; stroke-opacity:1;  stroke-linecap:round; stroke-linejoin:round;">
<svg:path d="M47250000 60000000 L80250000 60000000 "/>
<svg:path d="M47250000 40000000 L47250000 60000000 "/>
<svg:path d="M80250000 60000000 L80250000 40000000 "/>
<svg:path d="M80250000 40000000 L47250000 40000000 "/>
<svg:g>
</svg:g>
<svg:g>
</svg:g>
<svg:g>
</svg:g>
<svg:g>
</svg:g>
</svg:g>
<svg:g style="fill:#000000; fill-opacity:0.0;  stroke:#000000; stroke-width:100000.000000; stroke-opacity:1;  stroke-linecap:round; stroke-linejoin:round;">
<svg:g>
</svg:g>
<svg:g>
</svg:g>
<svg:g>
</svg:g>
<svg:g>
</svg:g>
</svg:g> 
</svg:g><svg:g><svg:title>SVG Picture created as kicadBoard-F_Mask.svg date 2022/11/17 06:07:41 </svg:title>
  <svg:desc>Picture generated by PCBNEW </svg:desc>
<svg:g style="fill:#000000; fill-opacity:1.000000;stroke:#000000; stroke-opacity:1.000000; stroke-linecap:round; stroke-linejoin:round;" transform="translate(0 0) scale(1 1)">
</svg:g>
<svg:g style="fill:#000000; fill-opacity:0.0;  stroke:#000000; stroke-width:0.000000; stroke-opacity:1;  stroke-linecap:round; stroke-linejoin:round;">
<svg:g>
</svg:g>
<svg:g style="fill:#000000; fill-opacity:1.0;  stroke:#000000; stroke-width:1.000000; stroke-opacity:1;  stroke-linecap:round; stroke-linejoin:round;">
<svg:circle cx="50000000.000000" cy="50000000.000000" r="1200000.000000"/> 
</svg:g>
<svg:g style="fill:#000000; fill-opacity:1.0;  stroke:#000000; stroke-width:21200.000000; stroke-opacity:1;  stroke-linecap:round; stroke-linejoin:round;">
</svg:g>
<svg:g style="fill:#000000; fill-opacity:1.0;  stroke:#000000; stroke-width:1.000000; stroke-opacity:1;  stroke-linecap:round; stroke-linejoin:round;">
<svg:circle cx="77500000.000000" cy="50000000.000000" r="1200000.000000"/> 
</svg:g>
<svg:g style="fill:#000000; fill-opacity:1.0;  stroke:#000000; stroke-width:21200.000000; stroke-opacity:1;  stroke-linecap:round; stroke-linejoin:round;">
</svg:g>
<svg:g>
</svg:g>
<svg:g>
</svg:g>
<svg:g>
</svg:g>
</svg:g>
<svg:g style="fill:#000000; fill-opacity:1.0;  stroke:#000000; stroke-width:21200.000000; stroke-opacity:1;  stroke-linecap:round; stroke-linejoin:round;">
<svg:g>
</svg:g>
<svg:g>
</svg:g>
<svg:g>
</svg:g>
<svg:g>
</svg:g>
</svg:g> 
</svg:g><svg:g><svg:title>SVG Picture created as kicadBoard-F_Paste.svg date 2022/11/17 06:07:41 </svg:title>
  <svg:desc>Picture generated by PCBNEW </svg:desc>
<svg:g style="fill:#000000; fill-opacity:1.000000;stroke:#000000; stroke-opacity:1.000000; stroke-linecap:round; stroke-linejoin:round;" transform="translate(0 0) scale(1 1)">
</svg:g>
<svg:g style="fill:#000000; fill-opacity:0.0;  stroke:#000000; stroke-width:0.000000; stroke-opacity:1;  stroke-linecap:round; stroke-linejoin:round;">
<svg:g>
</svg:g>
<svg:g>
</svg:g>
<svg:g>
</svg:g>
<svg:g>
</svg:g>
</svg:g>
<svg:g style="fill:#000000; fill-opacity:0.0;  stroke:#000000; stroke-width:0.000000; stroke-opacity:1;  stroke-linecap:round; stroke-linejoin:round;">
<svg:g>
</svg:g>
<svg:g>
</svg:g>
<svg:g>
</svg:g>
<svg:g>
</svg:g>
</svg:g> 
</svg:g><svg:g><svg:title>SVG Picture created as kicadBoard-F_Silkscreen.svg date 2022/11/17 06:07:41 </svg:title>
  <svg:desc>Picture generated by PCBNEW </svg:desc>
<svg:g style="fill:#000000; fill-opacity:1.000000;stroke:#000000; stroke-opacity:1.000000; stroke-linecap:round; stroke-linejoin:round;" transform="translate(0 0) scale(1 1)">
</svg:g>
<svg:g style="fill:#000000; fill-opacity:0.0;  stroke:#000000; stroke-width:0.000000; stroke-opacity:1;  stroke-linecap:round; stroke-linejoin:round;">
</svg:g>
<svg:g style="fill:#F2EDA1; fill-opacity:0.0;  stroke:#F2EDA1; stroke-width:0.000000; stroke-opacity:1;  stroke-linecap:round; stroke-linejoin:round;">
</svg:g>
<svg:g style="fill:#F2EDA1; fill-opacity:0.0;  stroke:#F2EDA1; stroke-width:150000.000000; stroke-opacity:1;  stroke-linecap:round; stroke-linejoin:round;">
<svg:text x="63750000.000000" y="39250000.000000" textLength="21190477.000000" font-size="1333333.000000" lengthAdjust="spacingAndGlyphs" text-anchor="middle" opacity="0">FZKCCRECTL33W2P275MKS4</svg:text>
<svg:g class="stroked-text"><svg:desc>FZKCCRECTL33W2P275MKS4</svg:desc>
<svg:path d="M53726190 38678571 L53392857 38678571 "/>
<svg:path d="M53392857 39202380 L53392857 38202380 L53869047 38202380 "/>
<svg:path d="M54154761 38202380 L54821428 38202380 L54154761 39202380 L54821428 39202380 "/>
<svg:path d="M55202380 39202380 L55202380 38202380 "/>
<svg:path d="M55773809 39202380 L55345238 38630952 "/>
<svg:path d="M55773809 38202380 L55202380 38773809 "/>
<svg:path d="M56773809 39107142 L56726190 39154761 L56583333 39202380 L56488095 39202380 L56345238 39154761 L56250000 39059523 L56202380 38964285 L56154761 38773809 L56154761 38630952 L56202380 38440476 L56250000 38345238 L56345238 38250000 L56488095 38202380 L56583333 38202380 L56726190 38250000 L56773809 38297619 "/>
<svg:path d="M57773809 39107142 L57726190 39154761 L57583333 39202380 L57488095 39202380 L57345238 39154761 L57250000 39059523 L57202380 38964285 L57154761 38773809 L57154761 38630952 L57202380 38440476 L57250000 38345238 L57345238 38250000 L57488095 38202380 L57583333 38202380 L57726190 38250000 L57773809 38297619 "/>
<svg:path d="M58773809 39202380 L58440476 38726190 "/>
<svg:path d="M58202380 39202380 L58202380 38202380 L58583333 38202380 L58678571 38250000 L58726190 38297619 L58773809 38392857 L58773809 38535714 L58726190 38630952 L58678571 38678571 L58583333 38726190 L58202380 38726190 "/>
<svg:path d="M59202380 38678571 L59535714 38678571 "/>
<svg:path d="M59678571 39202380 L59202380 39202380 L59202380 38202380 L59678571 38202380 "/>
<svg:path d="M60678571 39107142 L60630952 39154761 L60488095 39202380 L60392857 39202380 L60250000 39154761 L60154761 39059523 L60107142 38964285 L60059523 38773809 L60059523 38630952 L60107142 38440476 L60154761 38345238 L60250000 38250000 L60392857 38202380 L60488095 38202380 L60630952 38250000 L60678571 38297619 "/>
<svg:path d="M60964285 38202380 L61535714 38202380 "/>
<svg:path d="M61250000 39202380 L61250000 38202380 "/>
<svg:path d="M62345238 39202380 L61869047 39202380 L61869047 38202380 "/>
<svg:path d="M62583333 38202380 L63202380 38202380 L62869047 38583333 L63011904 38583333 L63107142 38630952 L63154761 38678571 L63202380 38773809 L63202380 39011904 L63154761 39107142 L63107142 39154761 L63011904 39202380 L62726190 39202380 L62630952 39154761 L62583333 39107142 "/>
<svg:path d="M63535714 38202380 L64154761 38202380 L63821428 38583333 L63964285 38583333 L64059523 38630952 L64107142 38678571 L64154761 38773809 L64154761 39011904 L64107142 39107142 L64059523 39154761 L63964285 39202380 L63678571 39202380 L63583333 39154761 L63535714 39107142 "/>
<svg:path d="M64488095 38202380 L64726190 39202380 L64916666 38488095 L65107142 39202380 L65345238 38202380 "/>
<svg:path d="M65678571 38297619 L65726190 38250000 L65821428 38202380 L66059523 38202380 L66154761 38250000 L66202380 38297619 L66250000 38392857 L66250000 38488095 L66202380 38630952 L65630952 39202380 L66250000 39202380 "/>
<svg:path d="M66678571 39202380 L66678571 38202380 L67059523 38202380 L67154761 38250000 L67202380 38297619 L67250000 38392857 L67250000 38535714 L67202380 38630952 L67154761 38678571 L67059523 38726190 L66678571 38726190 "/>
<svg:path d="M67630952 38297619 L67678571 38250000 L67773809 38202380 L68011904 38202380 L68107142 38250000 L68154761 38297619 L68202380 38392857 L68202380 38488095 L68154761 38630952 L67583333 39202380 L68202380 39202380 "/>
<svg:path d="M68535714 38202380 L69202380 38202380 L68773809 39202380 "/>
<svg:path d="M70059523 38202380 L69583333 38202380 L69535714 38678571 L69583333 38630952 L69678571 38583333 L69916666 38583333 L70011904 38630952 L70059523 38678571 L70107142 38773809 L70107142 39011904 L70059523 39107142 L70011904 39154761 L69916666 39202380 L69678571 39202380 L69583333 39154761 L69535714 39107142 "/>
<svg:path d="M70535714 39202380 L70535714 38202380 L70869047 38916666 L71202380 38202380 L71202380 39202380 "/>
<svg:path d="M71678571 39202380 L71678571 38202380 "/>
<svg:path d="M72250000 39202380 L71821428 38630952 "/>
<svg:path d="M72250000 38202380 L71678571 38773809 "/>
<svg:path d="M72630952 39154761 L72773809 39202380 L73011904 39202380 L73107142 39154761 L73154761 39107142 L73202380 39011904 L73202380 38916666 L73154761 38821428 L73107142 38773809 L73011904 38726190 L72821428 38678571 L72726190 38630952 L72678571 38583333 L72630952 38488095 L72630952 38392857 L72678571 38297619 L72726190 38250000 L72821428 38202380 L73059523 38202380 L73202380 38250000 "/>
<svg:path d="M74059523 38535714 L74059523 39202380 "/>
<svg:path d="M73821428 38154761 L73583333 38869047 L74202380 38869047 "/>
</svg:g></svg:g>
<svg:g style="fill:#F2EDA1; fill-opacity:0.0;  stroke:#F2EDA1; stroke-width:120000.000000; stroke-opacity:1;  stroke-linecap:round; stroke-linejoin:round;">
<svg:path d="M47130000 60120000 L80370000 60120000 "/>
<svg:path d="M47130000 39880000 L47130000 60120000 "/>
<svg:path d="M80370000 39880000 L80370000 60120000 "/>
<svg:path d="M47130000 39880000 L80370000 39880000 "/>
<svg:g>
</svg:g>
<svg:g>
</svg:g>
<svg:g>
</svg:g>
<svg:g>
</svg:g>
</svg:g>
<svg:g style="fill:#000000; fill-opacity:0.0;  stroke:#000000; stroke-width:120000.000000; stroke-opacity:1;  stroke-linecap:round; stroke-linejoin:round;">
<svg:g>
</svg:g>
<svg:g>
</svg:g>
<svg:g>
</svg:g>
<svg:g>
</svg:g>
</svg:g> 
</svg:g><svg:g><svg:title>SVG Picture created as kicadBoard-Margin.svg date 2022/11/17 06:07:41 </svg:title>
  <svg:desc>Picture generated by PCBNEW </svg:desc>
<svg:g style="fill:#000000; fill-opacity:1.000000;stroke:#000000; stroke-opacity:1.000000; stroke-linecap:round; stroke-linejoin:round;" transform="translate(0 0) scale(1 1)">
</svg:g>
<svg:g style="fill:#000000; fill-opacity:0.0;  stroke:#000000; stroke-width:0.000000; stroke-opacity:1;  stroke-linecap:round; stroke-linejoin:round;">
<svg:g>
</svg:g>
<svg:g>
</svg:g>
<svg:g>
</svg:g>
<svg:g>
</svg:g>
</svg:g>
<svg:g style="fill:#000000; fill-opacity:0.0;  stroke:#000000; stroke-width:0.000000; stroke-opacity:1;  stroke-linecap:round; stroke-linejoin:round;">
<svg:g>
</svg:g>
<svg:g>
</svg:g>
<svg:g>
</svg:g>
<svg:g>
</svg:g>
</svg:g> 
</svg:g><svg:g><svg:title>SVG Picture created as kicadBoard-F_Cu.svg date 2022/11/17 06:07:41 </svg:title>
  <svg:desc>Picture generated by PCBNEW </svg:desc>
<svg:g style="fill:#000000; fill-opacity:1.000000;stroke:#000000; stroke-opacity:1.000000; stroke-linecap:round; stroke-linejoin:round;" transform="translate(0 0) scale(1 1)">
</svg:g>
<svg:g style="fill:#000000; fill-opacity:0.0;  stroke:#000000; stroke-width:0.000000; stroke-opacity:1;  stroke-linecap:round; stroke-linejoin:round;">
<svg:g>
</svg:g>
<svg:g style="fill:#C83434; fill-opacity:0.0;  stroke:#C83434; stroke-width:0.000000; stroke-opacity:1;  stroke-linecap:round; stroke-linejoin:round;">
</svg:g>
<svg:g style="fill:#C83434; fill-opacity:1.0;  stroke:#C83434; stroke-width:1.000000; stroke-opacity:1;  stroke-linecap:round; stroke-linejoin:round;">
<svg:circle cx="50000000.000000" cy="50000000.000000" r="1200000.000000"/> 
</svg:g>
<svg:g style="fill:#C83434; fill-opacity:1.0;  stroke:#C83434; stroke-width:21200.000000; stroke-opacity:1;  stroke-linecap:round; stroke-linejoin:round;">
</svg:g>
<svg:g style="fill:#C83434; fill-opacity:1.0;  stroke:#C83434; stroke-width:1.000000; stroke-opacity:1;  stroke-linecap:round; stroke-linejoin:round;">
<svg:circle cx="77500000.000000" cy="50000000.000000" r="1200000.000000"/> 
</svg:g>
<svg:g style="fill:#C83434; fill-opacity:1.0;  stroke:#C83434; stroke-width:21200.000000; stroke-opacity:1;  stroke-linecap:round; stroke-linejoin:round;">
</svg:g>
<svg:g>
</svg:g>
<svg:g>
</svg:g>
<svg:g>
</svg:g>
</svg:g>
<svg:g style="fill:#FFFFFF; fill-opacity:1.0;  stroke:#FFFFFF; stroke-width:21200.000000; stroke-opacity:1;  stroke-linecap:round; stroke-linejoin:round;">
</svg:g>
<svg:g style="fill:#FFFFFF; fill-opacity:1.0;  stroke:#FFFFFF; stroke-width:1.000000; stroke-opacity:1;  stroke-linecap:round; stroke-linejoin:round;">
<svg:circle cx="50000000.000000" cy="50000000.000000" r="600000.000000"/> 
</svg:g>
<svg:g style="fill:#FFFFFF; fill-opacity:1.0;  stroke:#FFFFFF; stroke-width:21200.000000; stroke-opacity:1;  stroke-linecap:round; stroke-linejoin:round;">
</svg:g>
<svg:g style="fill:#FFFFFF; fill-opacity:1.0;  stroke:#FFFFFF; stroke-width:1.000000; stroke-opacity:1;  stroke-linecap:round; stroke-linejoin:round;">
<svg:circle cx="77500000.000000" cy="50000000.000000" r="600000.000000"/> 
</svg:g>
<svg:g style="fill:#FFFFFF; fill-opacity:1.0;  stroke:#FFFFFF; stroke-width:21200.000000; stroke-opacity:1;  stroke-linecap:round; stroke-linejoin:round;">
</svg:g>
<svg:g style="fill:#000000; fill-opacity:1.0;  stroke:#000000; stroke-width:21200.000000; stroke-opacity:1;  stroke-linecap:round; stroke-linejoin:round;">
<svg:g>
</svg:g>
<svg:g>
</svg:g>
<svg:g>
</svg:g>
<svg:g>
</svg:g>
</svg:g> 
</svg:g></svg>
