<?xml version='1.0' encoding='ASCII' standalone='yes'?>
<svg xmlns:svg="http://www.w3.org/2000/svg" xmlns="http://www.w3.org/2000/svg" xmlns:xlink="http://www.w3.org/1999/xlink" version="1.1" width="9.999980cm" height="9.999980cm" viewBox="0 0 99999800 99999800">
<title>SVG Picture created as kicadBoard-B_Cu.svg date 2022/11/17 09:05:06 </title>
  <desc>Picture generated by PCBNEW </desc>
<g style="fill:#000000; fill-opacity:1.000000;stroke:#000000; stroke-opacity:1.000000; stroke-linecap:round; stroke-linejoin:round;" transform="translate(0 0) scale(1 1)">
</g>
<g style="fill:#000000; fill-opacity:0.0;  stroke:#000000; stroke-width:0.000000; stroke-opacity:1;  stroke-linecap:round; stroke-linejoin:round;">
<g>
</g>
<g>
</g>
<g>
</g>
<g>
</g>
</g>
<g style="fill:#FFFFFF; fill-opacity:0.0;  stroke:#FFFFFF; stroke-width:0.000000; stroke-opacity:1;  stroke-linecap:round; stroke-linejoin:round;">
</g>
<g style="fill:#000000; fill-opacity:0.0;  stroke:#000000; stroke-width:0.000000; stroke-opacity:1;  stroke-linecap:round; stroke-linejoin:round;">
<g>
</g>
<g>
</g>
<g>
</g>
<g>
</g>
</g> 
<svg:g><svg:title>SVG Picture created as kicadBoard-B_Adhesive.svg date 2022/11/17 09:05:06 </svg:title>
  <svg:desc>Picture generated by PCBNEW </svg:desc>
<svg:g style="fill:#000000; fill-opacity:1.000000;stroke:#000000; stroke-opacity:1.000000; stroke-linecap:round; stroke-linejoin:round;" transform="translate(0 0) scale(1 1)">
</svg:g>
<svg:g style="fill:#000000; fill-opacity:0.0;  stroke:#000000; stroke-width:0.000000; stroke-opacity:1;  stroke-linecap:round; stroke-linejoin:round;">
<svg:g>
</svg:g>
<svg:g>
</svg:g>
<svg:g>
</svg:g>
<svg:g>
</svg:g>
</svg:g>
<svg:g style="fill:#000000; fill-opacity:0.0;  stroke:#000000; stroke-width:0.000000; stroke-opacity:1;  stroke-linecap:round; stroke-linejoin:round;">
<svg:g>
</svg:g>
<svg:g>
</svg:g>
<svg:g>
</svg:g>
<svg:g>
</svg:g>
</svg:g> 
</svg:g><svg:g><svg:title>SVG Picture created as kicadBoard-B_Courtyard.svg date 2022/11/17 09:05:06 </svg:title>
  <svg:desc>Picture generated by PCBNEW </svg:desc>
<svg:g style="fill:#000000; fill-opacity:1.000000;stroke:#000000; stroke-opacity:1.000000; stroke-linecap:round; stroke-linejoin:round;" transform="translate(0 0) scale(1 1)">
</svg:g>
<svg:g style="fill:#000000; fill-opacity:0.0;  stroke:#000000; stroke-width:0.000000; stroke-opacity:1;  stroke-linecap:round; stroke-linejoin:round;">
<svg:g>
</svg:g>
<svg:g>
</svg:g>
<svg:g>
</svg:g>
<svg:g>
</svg:g>
</svg:g>
<svg:g style="fill:#000000; fill-opacity:0.0;  stroke:#000000; stroke-width:0.000000; stroke-opacity:1;  stroke-linecap:round; stroke-linejoin:round;">
<svg:g>
</svg:g>
<svg:g>
</svg:g>
<svg:g>
</svg:g>
<svg:g>
</svg:g>
</svg:g> 
</svg:g><svg:g><svg:title>SVG Picture created as kicadBoard-B_Fab.svg date 2022/11/17 09:05:06 </svg:title>
  <svg:desc>Picture generated by PCBNEW </svg:desc>
<svg:g style="fill:#000000; fill-opacity:1.000000;stroke:#000000; stroke-opacity:1.000000; stroke-linecap:round; stroke-linejoin:round;" transform="translate(0 0) scale(1 1)">
</svg:g>
<svg:g style="fill:#000000; fill-opacity:0.0;  stroke:#000000; stroke-width:0.000000; stroke-opacity:1;  stroke-linecap:round; stroke-linejoin:round;">
<svg:g>
</svg:g>
<svg:g>
</svg:g>
<svg:g>
</svg:g>
<svg:g>
</svg:g>
</svg:g>
<svg:g style="fill:#000000; fill-opacity:0.0;  stroke:#000000; stroke-width:0.000000; stroke-opacity:1;  stroke-linecap:round; stroke-linejoin:round;">
<svg:g>
</svg:g>
<svg:g>
</svg:g>
<svg:g>
</svg:g>
<svg:g>
</svg:g>
</svg:g> 
</svg:g><svg:g><svg:title>SVG Picture created as kicadBoard-B_Mask.svg date 2022/11/17 09:05:06 </svg:title>
  <svg:desc>Picture generated by PCBNEW </svg:desc>
<svg:g style="fill:#000000; fill-opacity:1.000000;stroke:#000000; stroke-opacity:1.000000; stroke-linecap:round; stroke-linejoin:round;" transform="translate(0 0) scale(1 1)">
</svg:g>
<svg:g style="fill:#000000; fill-opacity:0.0;  stroke:#000000; stroke-width:0.000000; stroke-opacity:1;  stroke-linecap:round; stroke-linejoin:round;">
<svg:g>
</svg:g>
<svg:g>
</svg:g>
<svg:g>
</svg:g>
<svg:g>
</svg:g>
</svg:g>
<svg:g style="fill:#000000; fill-opacity:0.0;  stroke:#000000; stroke-width:0.000000; stroke-opacity:1;  stroke-linecap:round; stroke-linejoin:round;">
<svg:g>
</svg:g>
<svg:g>
</svg:g>
<svg:g>
</svg:g>
<svg:g>
</svg:g>
</svg:g> 
</svg:g><svg:g><svg:title>SVG Picture created as kicadBoard-B_Paste.svg date 2022/11/17 09:05:06 </svg:title>
  <svg:desc>Picture generated by PCBNEW </svg:desc>
<svg:g style="fill:#000000; fill-opacity:1.000000;stroke:#000000; stroke-opacity:1.000000; stroke-linecap:round; stroke-linejoin:round;" transform="translate(0 0) scale(1 1)">
</svg:g>
<svg:g style="fill:#000000; fill-opacity:0.0;  stroke:#000000; stroke-width:0.000000; stroke-opacity:1;  stroke-linecap:round; stroke-linejoin:round;">
<svg:g>
</svg:g>
<svg:g>
</svg:g>
<svg:g>
</svg:g>
<svg:g>
</svg:g>
</svg:g>
<svg:g style="fill:#000000; fill-opacity:0.0;  stroke:#000000; stroke-width:0.000000; stroke-opacity:1;  stroke-linecap:round; stroke-linejoin:round;">
<svg:g>
</svg:g>
<svg:g>
</svg:g>
<svg:g>
</svg:g>
<svg:g>
</svg:g>
</svg:g> 
</svg:g><svg:g><svg:title>SVG Picture created as kicadBoard-B_Silkscreen.svg date 2022/11/17 09:05:06 </svg:title>
  <svg:desc>Picture generated by PCBNEW </svg:desc>
<svg:g style="fill:#000000; fill-opacity:1.000000;stroke:#000000; stroke-opacity:1.000000; stroke-linecap:round; stroke-linejoin:round;" transform="translate(0 0) scale(1 1)">
</svg:g>
<svg:g style="fill:#000000; fill-opacity:0.0;  stroke:#000000; stroke-width:0.000000; stroke-opacity:1;  stroke-linecap:round; stroke-linejoin:round;">
<svg:g>
</svg:g>
<svg:g>
</svg:g>
<svg:g>
</svg:g>
<svg:g>
</svg:g>
</svg:g>
<svg:g style="fill:#000000; fill-opacity:0.0;  stroke:#000000; stroke-width:0.000000; stroke-opacity:1;  stroke-linecap:round; stroke-linejoin:round;">
<svg:g>
</svg:g>
<svg:g>
</svg:g>
<svg:g>
</svg:g>
<svg:g>
</svg:g>
</svg:g> 
</svg:g><svg:g><svg:title>SVG Picture created as kicadBoard-Edge_Cuts.svg date 2022/11/17 09:05:06 </svg:title>
  <svg:desc>Picture generated by PCBNEW </svg:desc>
<svg:g style="fill:#000000; fill-opacity:1.000000;stroke:#000000; stroke-opacity:1.000000; stroke-linecap:round; stroke-linejoin:round;" transform="translate(0 0) scale(1 1)">
</svg:g>
<svg:g style="fill:#000000; fill-opacity:0.0;  stroke:#000000; stroke-width:0.000000; stroke-opacity:1;  stroke-linecap:round; stroke-linejoin:round;">
<svg:g>
</svg:g>
<svg:g>
</svg:g>
<svg:g>
</svg:g>
<svg:g>
</svg:g>
</svg:g> 
</svg:g><svg:g><svg:title>SVG Picture created as kicadBoard-F_Adhesive.svg date 2022/11/17 09:05:06 </svg:title>
  <svg:desc>Picture generated by PCBNEW </svg:desc>
<svg:g style="fill:#000000; fill-opacity:1.000000;stroke:#000000; stroke-opacity:1.000000; stroke-linecap:round; stroke-linejoin:round;" transform="translate(0 0) scale(1 1)">
</svg:g>
<svg:g style="fill:#000000; fill-opacity:0.0;  stroke:#000000; stroke-width:0.000000; stroke-opacity:1;  stroke-linecap:round; stroke-linejoin:round;">
<svg:g>
</svg:g>
<svg:g>
</svg:g>
<svg:g>
</svg:g>
<svg:g>
</svg:g>
</svg:g>
<svg:g style="fill:#000000; fill-opacity:0.0;  stroke:#000000; stroke-width:0.000000; stroke-opacity:1;  stroke-linecap:round; stroke-linejoin:round;">
<svg:g>
</svg:g>
<svg:g>
</svg:g>
<svg:g>
</svg:g>
<svg:g>
</svg:g>
</svg:g> 
</svg:g><svg:g><svg:title>SVG Picture created as kicadBoard-F_Courtyard.svg date 2022/11/17 09:05:06 </svg:title>
  <svg:desc>Picture generated by PCBNEW </svg:desc>
<svg:g style="fill:#000000; fill-opacity:1.000000;stroke:#000000; stroke-opacity:1.000000; stroke-linecap:round; stroke-linejoin:round;" transform="translate(0 0) scale(1 1)">
</svg:g>
<svg:g style="fill:#000000; fill-opacity:0.0;  stroke:#000000; stroke-width:0.000000; stroke-opacity:1;  stroke-linecap:round; stroke-linejoin:round;">
</svg:g>
<svg:g style="fill:#FF26E2; fill-opacity:0.0;  stroke:#FF26E2; stroke-width:0.000000; stroke-opacity:1;  stroke-linecap:round; stroke-linejoin:round;">
</svg:g>
<svg:g style="fill:#FF26E2; fill-opacity:0.0;  stroke:#FF26E2; stroke-width:50000.000000; stroke-opacity:1;  stroke-linecap:round; stroke-linejoin:round;">
<svg:path d="M46550000 75900000 L53450000 75900000 "/>
<svg:path d="M53450000 24100000 L46550000 24100000 "/>
<svg:path d="M46550000 24100000 L46550000 75900000 "/>
<svg:path d="M53450000 75900000 L53450000 24100000 "/>
<svg:g>
</svg:g>
<svg:g>
</svg:g>
<svg:g>
</svg:g>
<svg:g>
</svg:g>
</svg:g>
<svg:g style="fill:#000000; fill-opacity:0.0;  stroke:#000000; stroke-width:50000.000000; stroke-opacity:1;  stroke-linecap:round; stroke-linejoin:round;">
<svg:g>
</svg:g>
<svg:g>
</svg:g>
<svg:g>
</svg:g>
<svg:g>
</svg:g>
</svg:g> 
</svg:g><svg:g><svg:title>SVG Picture created as kicadBoard-F_Fab.svg date 2022/11/17 09:05:06 </svg:title>
  <svg:desc>Picture generated by PCBNEW </svg:desc>
<svg:g style="fill:#000000; fill-opacity:1.000000;stroke:#000000; stroke-opacity:1.000000; stroke-linecap:round; stroke-linejoin:round;" transform="translate(0 0) scale(1 1)">
</svg:g>
<svg:g style="fill:#000000; fill-opacity:0.0;  stroke:#000000; stroke-width:0.000000; stroke-opacity:1;  stroke-linecap:round; stroke-linejoin:round;">
</svg:g>
<svg:g style="fill:#AFAFAF; fill-opacity:0.0;  stroke:#AFAFAF; stroke-width:0.000000; stroke-opacity:1;  stroke-linecap:round; stroke-linejoin:round;">
</svg:g>
<svg:g style="fill:#AFAFAF; fill-opacity:0.0;  stroke:#AFAFAF; stroke-width:150000.000000; stroke-opacity:1;  stroke-linecap:round; stroke-linejoin:round;">
<svg:text x="50000000.000000" y="76960000.000000" textLength="37147381.000000" font-size="1333333.000000" lengthAdjust="spacingAndGlyphs" text-anchor="middle" opacity="0">PinHeader_1x20_P2.54mm_Vertical_SMD_Pin1Left</svg:text>
<svg:g class="stroked-text"><svg:desc>PinHeader_1x20_P2.54mm_Vertical_SMD_Pin1Left</svg:desc>
<svg:path d="M31761904 76912380 L31761904 75912380 L32142857 75912380 L32238095 75960000 L32285714 76007619 L32333333 76102857 L32333333 76245714 L32285714 76340952 L32238095 76388571 L32142857 76436190 L31761904 76436190 "/>
<svg:path d="M32761904 76912380 L32761904 76245714 "/>
<svg:path d="M32761904 75912380 L32714285 75960000 L32761904 76007619 L32809523 75960000 L32761904 75912380 L32761904 76007619 "/>
<svg:path d="M33238095 76245714 L33238095 76912380 "/>
<svg:path d="M33238095 76340952 L33285714 76293333 L33380952 76245714 L33523809 76245714 L33619047 76293333 L33666666 76388571 L33666666 76912380 "/>
<svg:path d="M34142857 76912380 L34142857 75912380 "/>
<svg:path d="M34142857 76388571 L34714285 76388571 "/>
<svg:path d="M34714285 76912380 L34714285 75912380 "/>
<svg:path d="M35571428 76864761 L35476190 76912380 L35285714 76912380 L35190476 76864761 L35142857 76769523 L35142857 76388571 L35190476 76293333 L35285714 76245714 L35476190 76245714 L35571428 76293333 L35619047 76388571 L35619047 76483809 L35142857 76579047 "/>
<svg:path d="M36476190 76912380 L36476190 76388571 L36428571 76293333 L36333333 76245714 L36142857 76245714 L36047619 76293333 "/>
<svg:path d="M36476190 76864761 L36380952 76912380 L36142857 76912380 L36047619 76864761 L36000000 76769523 L36000000 76674285 L36047619 76579047 L36142857 76531428 L36380952 76531428 L36476190 76483809 "/>
<svg:path d="M37380952 76912380 L37380952 75912380 "/>
<svg:path d="M37380952 76864761 L37285714 76912380 L37095238 76912380 L37000000 76864761 L36952380 76817142 L36904761 76721904 L36904761 76436190 L36952380 76340952 L37000000 76293333 L37095238 76245714 L37285714 76245714 L37380952 76293333 "/>
<svg:path d="M38238095 76864761 L38142857 76912380 L37952380 76912380 L37857142 76864761 L37809523 76769523 L37809523 76388571 L37857142 76293333 L37952380 76245714 L38142857 76245714 L38238095 76293333 L38285714 76388571 L38285714 76483809 L37809523 76579047 "/>
<svg:path d="M38714285 76912380 L38714285 76245714 "/>
<svg:path d="M38714285 76436190 L38761904 76340952 L38809523 76293333 L38904761 76245714 L39000000 76245714 "/>
<svg:path d="M39095238 77007619 L39857142 77007619 "/>
<svg:path d="M40619047 76912380 L40047619 76912380 "/>
<svg:path d="M40333333 76912380 L40333333 75912380 L40238095 76055238 L40142857 76150476 L40047619 76198095 "/>
<svg:path d="M40952380 76912380 L41476190 76245714 "/>
<svg:path d="M40952380 76245714 L41476190 76912380 "/>
<svg:path d="M41809523 76007619 L41857142 75960000 L41952380 75912380 L42190476 75912380 L42285714 75960000 L42333333 76007619 L42380952 76102857 L42380952 76198095 L42333333 76340952 L41761904 76912380 L42380952 76912380 "/>
<svg:path d="M43000000 75912380 L43095238 75912380 L43190476 75960000 L43238095 76007619 L43285714 76102857 L43333333 76293333 L43333333 76531428 L43285714 76721904 L43238095 76817142 L43190476 76864761 L43095238 76912380 L43000000 76912380 L42904761 76864761 L42857142 76817142 L42809523 76721904 L42761904 76531428 L42761904 76293333 L42809523 76102857 L42857142 76007619 L42904761 75960000 L43000000 75912380 "/>
<svg:path d="M43523809 77007619 L44285714 77007619 "/>
<svg:path d="M44523809 76912380 L44523809 75912380 L44904761 75912380 L45000000 75960000 L45047619 76007619 L45095238 76102857 L45095238 76245714 L45047619 76340952 L45000000 76388571 L44904761 76436190 L44523809 76436190 "/>
<svg:path d="M45476190 76007619 L45523809 75960000 L45619047 75912380 L45857142 75912380 L45952380 75960000 L46000000 76007619 L46047619 76102857 L46047619 76198095 L46000000 76340952 L45428571 76912380 L46047619 76912380 "/>
<svg:path d="M46476190 76817142 L46523809 76864761 L46476190 76912380 L46428571 76864761 L46476190 76817142 L46476190 76912380 "/>
<svg:path d="M47428571 75912380 L46952380 75912380 L46904761 76388571 L46952380 76340952 L47047619 76293333 L47285714 76293333 L47380952 76340952 L47428571 76388571 L47476190 76483809 L47476190 76721904 L47428571 76817142 L47380952 76864761 L47285714 76912380 L47047619 76912380 L46952380 76864761 L46904761 76817142 "/>
<svg:path d="M48333333 76245714 L48333333 76912380 "/>
<svg:path d="M48095238 75864761 L47857142 76579047 L48476190 76579047 "/>
<svg:path d="M48857142 76912380 L48857142 76245714 "/>
<svg:path d="M48857142 76340952 L48904761 76293333 L49000000 76245714 L49142857 76245714 L49238095 76293333 L49285714 76388571 L49285714 76912380 "/>
<svg:path d="M49285714 76388571 L49333333 76293333 L49428571 76245714 L49571428 76245714 L49666666 76293333 L49714285 76388571 L49714285 76912380 "/>
<svg:path d="M50190476 76912380 L50190476 76245714 "/>
<svg:path d="M50190476 76340952 L50238095 76293333 L50333333 76245714 L50476190 76245714 L50571428 76293333 L50619047 76388571 L50619047 76912380 "/>
<svg:path d="M50619047 76388571 L50666666 76293333 L50761904 76245714 L50904761 76245714 L51000000 76293333 L51047619 76388571 L51047619 76912380 "/>
<svg:path d="M51285714 77007619 L52047619 77007619 "/>
<svg:path d="M52142857 75912380 L52476190 76912380 L52809523 75912380 "/>
<svg:path d="M53523809 76864761 L53428571 76912380 L53238095 76912380 L53142857 76864761 L53095238 76769523 L53095238 76388571 L53142857 76293333 L53238095 76245714 L53428571 76245714 L53523809 76293333 L53571428 76388571 L53571428 76483809 L53095238 76579047 "/>
<svg:path d="M54000000 76912380 L54000000 76245714 "/>
<svg:path d="M54000000 76436190 L54047619 76340952 L54095238 76293333 L54190476 76245714 L54285714 76245714 "/>
<svg:path d="M54476190 76245714 L54857142 76245714 "/>
<svg:path d="M54619047 75912380 L54619047 76769523 L54666666 76864761 L54761904 76912380 L54857142 76912380 "/>
<svg:path d="M55190476 76912380 L55190476 76245714 "/>
<svg:path d="M55190476 75912380 L55142857 75960000 L55190476 76007619 L55238095 75960000 L55190476 75912380 L55190476 76007619 "/>
<svg:path d="M56095238 76864761 L56000000 76912380 L55809523 76912380 L55714285 76864761 L55666666 76817142 L55619047 76721904 L55619047 76436190 L55666666 76340952 L55714285 76293333 L55809523 76245714 L56000000 76245714 L56095238 76293333 "/>
<svg:path d="M56952380 76912380 L56952380 76388571 L56904761 76293333 L56809523 76245714 L56619047 76245714 L56523809 76293333 "/>
<svg:path d="M56952380 76864761 L56857142 76912380 L56619047 76912380 L56523809 76864761 L56476190 76769523 L56476190 76674285 L56523809 76579047 L56619047 76531428 L56857142 76531428 L56952380 76483809 "/>
<svg:path d="M57571428 76912380 L57476190 76864761 L57428571 76769523 L57428571 75912380 "/>
<svg:path d="M57714285 77007619 L58476190 77007619 "/>
<svg:path d="M58666666 76864761 L58809523 76912380 L59047619 76912380 L59142857 76864761 L59190476 76817142 L59238095 76721904 L59238095 76626666 L59190476 76531428 L59142857 76483809 L59047619 76436190 L58857142 76388571 L58761904 76340952 L58714285 76293333 L58666666 76198095 L58666666 76102857 L58714285 76007619 L58761904 75960000 L58857142 75912380 L59095238 75912380 L59238095 75960000 "/>
<svg:path d="M59666666 76912380 L59666666 75912380 L60000000 76626666 L60333333 75912380 L60333333 76912380 "/>
<svg:path d="M60809523 76912380 L60809523 75912380 L61047619 75912380 L61190476 75960000 L61285714 76055238 L61333333 76150476 L61380952 76340952 L61380952 76483809 L61333333 76674285 L61285714 76769523 L61190476 76864761 L61047619 76912380 L60809523 76912380 "/>
<svg:path d="M61571428 77007619 L62333333 77007619 "/>
<svg:path d="M62571428 76912380 L62571428 75912380 L62952380 75912380 L63047619 75960000 L63095238 76007619 L63142857 76102857 L63142857 76245714 L63095238 76340952 L63047619 76388571 L62952380 76436190 L62571428 76436190 "/>
<svg:path d="M63571428 76912380 L63571428 76245714 "/>
<svg:path d="M63571428 75912380 L63523809 75960000 L63571428 76007619 L63619047 75960000 L63571428 75912380 L63571428 76007619 "/>
<svg:path d="M64047619 76245714 L64047619 76912380 "/>
<svg:path d="M64047619 76340952 L64095238 76293333 L64190476 76245714 L64333333 76245714 L64428571 76293333 L64476190 76388571 L64476190 76912380 "/>
<svg:path d="M65476190 76912380 L64904761 76912380 "/>
<svg:path d="M65190476 76912380 L65190476 75912380 L65095238 76055238 L65000000 76150476 L64904761 76198095 "/>
<svg:path d="M66380952 76912380 L65904761 76912380 L65904761 75912380 "/>
<svg:path d="M67095238 76864761 L66999999 76912380 L66809523 76912380 L66714285 76864761 L66666666 76769523 L66666666 76388571 L66714285 76293333 L66809523 76245714 L66999999 76245714 L67095238 76293333 L67142857 76388571 L67142857 76483809 L66666666 76579047 "/>
<svg:path d="M67428571 76245714 L67809523 76245714 "/>
<svg:path d="M67571428 76912380 L67571428 76055238 L67619047 75960000 L67714285 75912380 L67809523 75912380 "/>
<svg:path d="M68000000 76245714 L68380952 76245714 "/>
<svg:path d="M68142857 75912380 L68142857 76769523 L68190476 76864761 L68285714 76912380 L68380952 76912380 "/>
</svg:g><svg:g transform="rotate(-90.000000 50000000.000000 50000000.000000)">
<svg:text x="50000000.000000" y="50500000.000000" textLength="46671190.000000" font-size="1333333.000000" lengthAdjust="spacingAndGlyphs" text-anchor="middle" opacity="0">FZKCNPINHEADER254PINHEADER1X2P254VERTICALSMPIN1LEFT</svg:text>
</svg:g>
<svg:g class="stroked-text"><svg:desc>FZKCNPINHEADER254PINHEADER1X2P254VERTICALSMPIN1LEFT</svg:desc>
<svg:path d="M49928571 72666666 L49928571 72999999 "/>
<svg:path d="M50452380 72999999 L49452380 72999999 L49452380 72523809 "/>
<svg:path d="M49452380 72238095 L49452380 71571428 L50452380 72238095 L50452380 71571428 "/>
<svg:path d="M50452380 71190476 L49452380 71190476 "/>
<svg:path d="M50452380 70619047 L49880952 71047619 "/>
<svg:path d="M49452380 70619047 L50023809 71190476 "/>
<svg:path d="M50357142 69619047 L50404761 69666666 L50452380 69809523 L50452380 69904761 L50404761 70047619 L50309523 70142857 L50214285 70190476 L50023809 70238095 L49880952 70238095 L49690476 70190476 L49595238 70142857 L49500000 70047619 L49452380 69904761 L49452380 69809523 L49500000 69666666 L49547619 69619047 "/>
<svg:path d="M50452380 69190476 L49452380 69190476 L50452380 68619047 L49452380 68619047 "/>
<svg:path d="M50452380 68142857 L49452380 68142857 L49452380 67761904 L49500000 67666666 L49547619 67619047 L49642857 67571428 L49785714 67571428 L49880952 67619047 L49928571 67666666 L49976190 67761904 L49976190 68142857 "/>
<svg:path d="M50452380 67142857 L49452380 67142857 "/>
<svg:path d="M50452380 66666666 L49452380 66666666 L50452380 66095238 L49452380 66095238 "/>
<svg:path d="M50452380 65619047 L49452380 65619047 "/>
<svg:path d="M49928571 65619047 L49928571 65047619 "/>
<svg:path d="M50452380 65047619 L49452380 65047619 "/>
<svg:path d="M49928571 64571428 L49928571 64238095 "/>
<svg:path d="M50452380 64095238 L50452380 64571428 L49452380 64571428 L49452380 64095238 "/>
<svg:path d="M50166666 63714285 L50166666 63238095 "/>
<svg:path d="M50452380 63809523 L49452380 63476190 L50452380 63142857 "/>
<svg:path d="M50452380 62809523 L49452380 62809523 L49452380 62571428 L49500000 62428571 L49595238 62333333 L49690476 62285714 L49880952 62238095 L50023809 62238095 L50214285 62285714 L50309523 62333333 L50404761 62428571 L50452380 62571428 L50452380 62809523 "/>
<svg:path d="M49928571 61809523 L49928571 61476190 "/>
<svg:path d="M50452380 61333333 L50452380 61809523 L49452380 61809523 L49452380 61333333 "/>
<svg:path d="M50452380 60333333 L49976190 60666666 "/>
<svg:path d="M50452380 60904761 L49452380 60904761 L49452380 60523809 L49500000 60428571 L49547619 60380952 L49642857 60333333 L49785714 60333333 L49880952 60380952 L49928571 60428571 L49976190 60523809 L49976190 60904761 "/>
<svg:path d="M49547619 59952380 L49500000 59904761 L49452380 59809523 L49452380 59571428 L49500000 59476190 L49547619 59428571 L49642857 59380952 L49738095 59380952 L49880952 59428571 L50452380 59999999 L50452380 59380952 "/>
<svg:path d="M49452380 58476190 L49452380 58952380 L49928571 58999999 L49880952 58952380 L49833333 58857142 L49833333 58619047 L49880952 58523809 L49928571 58476190 L50023809 58428571 L50261904 58428571 L50357142 58476190 L50404761 58523809 L50452380 58619047 L50452380 58857142 L50404761 58952380 L50357142 58999999 "/>
<svg:path d="M49785714 57571428 L50452380 57571428 "/>
<svg:path d="M49404761 57809523 L50119047 58047619 L50119047 57428571 "/>
<svg:path d="M50452380 57047619 L49452380 57047619 L49452380 56666666 L49500000 56571428 L49547619 56523809 L49642857 56476190 L49785714 56476190 L49880952 56523809 L49928571 56571428 L49976190 56666666 L49976190 57047619 "/>
<svg:path d="M50452380 56047619 L49452380 56047619 "/>
<svg:path d="M50452380 55571428 L49452380 55571428 L50452380 54999999 L49452380 54999999 "/>
<svg:path d="M50452380 54523809 L49452380 54523809 "/>
<svg:path d="M49928571 54523809 L49928571 53952380 "/>
<svg:path d="M50452380 53952380 L49452380 53952380 "/>
<svg:path d="M49928571 53476190 L49928571 53142857 "/>
<svg:path d="M50452380 52999999 L50452380 53476190 L49452380 53476190 L49452380 52999999 "/>
<svg:path d="M50166666 52619047 L50166666 52142857 "/>
<svg:path d="M50452380 52714285 L49452380 52380952 L50452380 52047619 "/>
<svg:path d="M50452380 51714285 L49452380 51714285 L49452380 51476190 L49500000 51333333 L49595238 51238095 L49690476 51190476 L49880952 51142857 L50023809 51142857 L50214285 51190476 L50309523 51238095 L50404761 51333333 L50452380 51476190 L50452380 51714285 "/>
<svg:path d="M49928571 50714285 L49928571 50380952 "/>
<svg:path d="M50452380 50238095 L50452380 50714285 L49452380 50714285 L49452380 50238095 "/>
<svg:path d="M50452380 49238095 L49976190 49571428 "/>
<svg:path d="M50452380 49809523 L49452380 49809523 L49452380 49428571 L49500000 49333333 L49547619 49285714 L49642857 49238095 L49785714 49238095 L49880952 49285714 L49928571 49333333 L49976190 49428571 L49976190 49809523 "/>
<svg:path d="M50452380 48285714 L50452380 48857142 "/>
<svg:path d="M50452380 48571428 L49452380 48571428 L49595238 48666666 L49690476 48761904 L49738095 48857142 "/>
<svg:path d="M49452380 47952380 L50452380 47285714 "/>
<svg:path d="M49452380 47285714 L50452380 47952380 "/>
<svg:path d="M49547619 46952380 L49500000 46904761 L49452380 46809523 L49452380 46571428 L49500000 46476190 L49547619 46428571 L49642857 46380952 L49738095 46380952 L49880952 46428571 L50452380 47000000 L50452380 46380952 "/>
<svg:path d="M50452380 45952380 L49452380 45952380 L49452380 45571428 L49500000 45476190 L49547619 45428571 L49642857 45380952 L49785714 45380952 L49880952 45428571 L49928571 45476190 L49976190 45571428 L49976190 45952380 "/>
<svg:path d="M49547619 45000000 L49500000 44952380 L49452380 44857142 L49452380 44619047 L49500000 44523809 L49547619 44476190 L49642857 44428571 L49738095 44428571 L49880952 44476190 L50452380 45047619 L50452380 44428571 "/>
<svg:path d="M49452380 43523809 L49452380 44000000 L49928571 44047619 L49880952 44000000 L49833333 43904761 L49833333 43666666 L49880952 43571428 L49928571 43523809 L50023809 43476190 L50261904 43476190 L50357142 43523809 L50404761 43571428 L50452380 43666666 L50452380 43904761 L50404761 44000000 L50357142 44047619 "/>
<svg:path d="M49785714 42619047 L50452380 42619047 "/>
<svg:path d="M49404761 42857142 L50119047 43095238 L50119047 42476190 "/>
<svg:path d="M49452380 42238095 L50452380 41904761 L49452380 41571428 "/>
<svg:path d="M49928571 41238095 L49928571 40904761 "/>
<svg:path d="M50452380 40761904 L50452380 41238095 L49452380 41238095 L49452380 40761904 "/>
<svg:path d="M50452380 39761904 L49976190 40095238 "/>
<svg:path d="M50452380 40333333 L49452380 40333333 L49452380 39952380 L49500000 39857142 L49547619 39809523 L49642857 39761904 L49785714 39761904 L49880952 39809523 L49928571 39857142 L49976190 39952380 L49976190 40333333 "/>
<svg:path d="M49452380 39476190 L49452380 38904761 "/>
<svg:path d="M50452380 39190476 L49452380 39190476 "/>
<svg:path d="M50452380 38571428 L49452380 38571428 "/>
<svg:path d="M50357142 37523809 L50404761 37571428 L50452380 37714285 L50452380 37809523 L50404761 37952380 L50309523 38047619 L50214285 38095238 L50023809 38142857 L49880952 38142857 L49690476 38095238 L49595238 38047619 L49500000 37952380 L49452380 37809523 L49452380 37714285 L49500000 37571428 L49547619 37523809 "/>
<svg:path d="M50166666 37142857 L50166666 36666666 "/>
<svg:path d="M50452380 37238095 L49452380 36904761 L50452380 36571428 "/>
<svg:path d="M50452380 35761904 L50452380 36238095 L49452380 36238095 "/>
<svg:path d="M50404761 35476190 L50452380 35333333 L50452380 35095238 L50404761 35000000 L50357142 34952380 L50261904 34904761 L50166666 34904761 L50071428 34952380 L50023809 35000000 L49976190 35095238 L49928571 35285714 L49880952 35380952 L49833333 35428571 L49738095 35476190 L49642857 35476190 L49547619 35428571 L49500000 35380952 L49452380 35285714 L49452380 35047619 L49500000 34904761 "/>
<svg:path d="M50452380 34476190 L49452380 34476190 L50166666 34142857 L49452380 33809523 L50452380 33809523 "/>
<svg:path d="M50452380 33333333 L49452380 33333333 L49452380 32952380 L49500000 32857142 L49547619 32809523 L49642857 32761904 L49785714 32761904 L49880952 32809523 L49928571 32857142 L49976190 32952380 L49976190 33333333 "/>
<svg:path d="M50452380 32333333 L49452380 32333333 "/>
<svg:path d="M50452380 31857142 L49452380 31857142 L50452380 31285714 L49452380 31285714 "/>
<svg:path d="M50452380 30285714 L50452380 30857142 "/>
<svg:path d="M50452380 30571428 L49452380 30571428 L49595238 30666666 L49690476 30761904 L49738095 30857142 "/>
<svg:path d="M50452380 29380952 L50452380 29857142 L49452380 29857142 "/>
<svg:path d="M49928571 29047619 L49928571 28714285 "/>
<svg:path d="M50452380 28571428 L50452380 29047619 L49452380 29047619 L49452380 28571428 "/>
<svg:path d="M49928571 27809523 L49928571 28142857 "/>
<svg:path d="M50452380 28142857 L49452380 28142857 L49452380 27666666 "/>
<svg:path d="M49452380 27428571 L49452380 26857142 "/>
<svg:path d="M50452380 27142857 L49452380 27142857 "/>
</svg:g></svg:g>
<svg:g style="fill:#AFAFAF; fill-opacity:0.0;  stroke:#AFAFAF; stroke-width:100000.000000; stroke-opacity:1;  stroke-linecap:round; stroke-linejoin:round;">
<svg:path d="M47460000 31270000 L48730000 31270000 "/>
<svg:path d="M51270000 68730000 L52540000 68730000 "/>
<svg:path d="M47460000 56670000 L48730000 56670000 "/>
<svg:path d="M47460000 66830000 L48730000 66830000 "/>
<svg:path d="M47460000 41430000 L48730000 41430000 "/>
<svg:path d="M47460000 61110000 L47460000 61750000 "/>
<svg:path d="M51270000 28090000 L52540000 28090000 "/>
<svg:path d="M48730000 35710000 L47460000 35710000 "/>
<svg:path d="M52540000 73810000 L52540000 74450000 "/>
<svg:path d="M51270000 58570000 L52540000 58570000 "/>
<svg:path d="M51270000 48410000 L52540000 48410000 "/>
<svg:path d="M47460000 25550000 L47460000 26190000 "/>
<svg:path d="M52540000 43330000 L52540000 43970000 "/>
<svg:path d="M47460000 66190000 L47460000 66830000 "/>
<svg:path d="M51270000 75400000 L48730000 75400000 "/>
<svg:path d="M51270000 53490000 L52540000 53490000 "/>
<svg:path d="M52540000 33170000 L52540000 33810000 "/>
<svg:path d="M52540000 63650000 L52540000 64290000 "/>
<svg:path d="M52540000 38890000 L51270000 38890000 "/>
<svg:path d="M52540000 59210000 L51270000 59210000 "/>
<svg:path d="M52540000 54130000 L51270000 54130000 "/>
<svg:path d="M52540000 68730000 L52540000 69370000 "/>
<svg:path d="M51270000 43330000 L52540000 43330000 "/>
<svg:path d="M51270000 73810000 L52540000 73810000 "/>
<svg:path d="M48730000 40790000 L47460000 40790000 "/>
<svg:path d="M52540000 74450000 L51270000 74450000 "/>
<svg:path d="M48730000 25550000 L49680000 24600000 "/>
<svg:path d="M47460000 36350000 L48730000 36350000 "/>
<svg:path d="M47460000 45870000 L47460000 46510000 "/>
<svg:path d="M47460000 71270000 L47460000 71910000 "/>
<svg:path d="M48730000 75400000 L48730000 25550000 "/>
<svg:path d="M52540000 58570000 L52540000 59210000 "/>
<svg:path d="M47460000 51590000 L48730000 51590000 "/>
<svg:path d="M47460000 35710000 L47460000 36350000 "/>
<svg:path d="M52540000 48410000 L52540000 49050000 "/>
<svg:path d="M51270000 24600000 L51270000 75400000 "/>
<svg:path d="M48730000 25550000 L47460000 25550000 "/>
<svg:path d="M51270000 33170000 L52540000 33170000 "/>
<svg:path d="M47460000 46510000 L48730000 46510000 "/>
<svg:path d="M47460000 26190000 L48730000 26190000 "/>
<svg:path d="M51270000 63650000 L52540000 63650000 "/>
<svg:path d="M48730000 45870000 L47460000 45870000 "/>
<svg:path d="M48730000 56030000 L47460000 56030000 "/>
<svg:path d="M52540000 28090000 L52540000 28730000 "/>
<svg:path d="M51270000 38250000 L52540000 38250000 "/>
<svg:path d="M48730000 61110000 L47460000 61110000 "/>
<svg:path d="M49680000 24600000 L51270000 24600000 "/>
<svg:path d="M52540000 43970000 L51270000 43970000 "/>
<svg:path d="M47460000 71910000 L48730000 71910000 "/>
<svg:path d="M52540000 38250000 L52540000 38890000 "/>
<svg:path d="M47460000 56030000 L47460000 56670000 "/>
<svg:path d="M48730000 66190000 L47460000 66190000 "/>
<svg:path d="M48730000 50950000 L47460000 50950000 "/>
<svg:path d="M47460000 61750000 L48730000 61750000 "/>
<svg:path d="M52540000 64290000 L51270000 64290000 "/>
<svg:path d="M52540000 69370000 L51270000 69370000 "/>
<svg:path d="M47460000 50950000 L47460000 51590000 "/>
<svg:path d="M48730000 30630000 L47460000 30630000 "/>
<svg:path d="M47460000 30630000 L47460000 31270000 "/>
<svg:path d="M47460000 40790000 L47460000 41430000 "/>
<svg:path d="M52540000 53490000 L52540000 54130000 "/>
<svg:path d="M52540000 28730000 L51270000 28730000 "/>
<svg:path d="M52540000 33810000 L51270000 33810000 "/>
<svg:path d="M52540000 49050000 L51270000 49050000 "/>
<svg:path d="M48730000 71270000 L47460000 71270000 "/>
<svg:g>
</svg:g>
<svg:g>
</svg:g>
<svg:g>
</svg:g>
<svg:g>
</svg:g>
</svg:g>
<svg:g style="fill:#000000; fill-opacity:0.0;  stroke:#000000; stroke-width:100000.000000; stroke-opacity:1;  stroke-linecap:round; stroke-linejoin:round;">
<svg:g>
</svg:g>
<svg:g>
</svg:g>
<svg:g>
</svg:g>
<svg:g>
</svg:g>
</svg:g> 
</svg:g><svg:g><svg:title>SVG Picture created as kicadBoard-F_Mask.svg date 2022/11/17 09:05:06 </svg:title>
  <svg:desc>Picture generated by PCBNEW </svg:desc>
<svg:g style="fill:#000000; fill-opacity:1.000000;stroke:#000000; stroke-opacity:1.000000; stroke-linecap:round; stroke-linejoin:round;" transform="translate(0 0) scale(1 1)">
</svg:g>
<svg:g style="fill:#000000; fill-opacity:0.0;  stroke:#000000; stroke-width:0.000000; stroke-opacity:1;  stroke-linecap:round; stroke-linejoin:round;">
<svg:g>
</svg:g>
<svg:g style="fill:#000000; fill-opacity:0.0;  stroke:#000000; stroke-width:1.000000; stroke-opacity:1;  stroke-linecap:round; stroke-linejoin:round;">
</svg:g>
<svg:g style="fill:#000000; fill-opacity:1.0;  stroke:#000000; stroke-width:1.000000; stroke-opacity:1;  stroke-linecap:round; stroke-linejoin:round;">
<svg:path style="fill:#000000; fill-opacity:1.0;  stroke:#000000; stroke-width:1.000000; stroke-opacity:1;  stroke-linecap:round; stroke-linejoin:round;fill-rule:evenodd;" d="M 47090000.000000,26370000.000000 47090000.000000,25370000.000000 49600000.000000,25370000.000000 49600000.000000,26370000.000000 Z"/> 
<svg:path style="fill:#000000; fill-opacity:1.0;  stroke:#000000; stroke-width:1.000000; stroke-opacity:1;  stroke-linecap:round; stroke-linejoin:round;fill-rule:evenodd;" d="M 50400000.000000,28910000.000000 50400000.000000,27910000.000000 52910000.000000,27910000.000000 52910000.000000,28910000.000000 Z"/> 
<svg:path style="fill:#000000; fill-opacity:1.0;  stroke:#000000; stroke-width:1.000000; stroke-opacity:1;  stroke-linecap:round; stroke-linejoin:round;fill-rule:evenodd;" d="M 47090000.000000,31450000.000000 47090000.000000,30450000.000000 49600000.000000,30450000.000000 49600000.000000,31450000.000000 Z"/> 
<svg:path style="fill:#000000; fill-opacity:1.0;  stroke:#000000; stroke-width:1.000000; stroke-opacity:1;  stroke-linecap:round; stroke-linejoin:round;fill-rule:evenodd;" d="M 50400000.000000,33990000.000000 50400000.000000,32990000.000000 52910000.000000,32990000.000000 52910000.000000,33990000.000000 Z"/> 
<svg:path style="fill:#000000; fill-opacity:1.0;  stroke:#000000; stroke-width:1.000000; stroke-opacity:1;  stroke-linecap:round; stroke-linejoin:round;fill-rule:evenodd;" d="M 47090000.000000,36530000.000000 47090000.000000,35530000.000000 49600000.000000,35530000.000000 49600000.000000,36530000.000000 Z"/> 
<svg:path style="fill:#000000; fill-opacity:1.0;  stroke:#000000; stroke-width:1.000000; stroke-opacity:1;  stroke-linecap:round; stroke-linejoin:round;fill-rule:evenodd;" d="M 50400000.000000,39070000.000000 50400000.000000,38070000.000000 52910000.000000,38070000.000000 52910000.000000,39070000.000000 Z"/> 
<svg:path style="fill:#000000; fill-opacity:1.0;  stroke:#000000; stroke-width:1.000000; stroke-opacity:1;  stroke-linecap:round; stroke-linejoin:round;fill-rule:evenodd;" d="M 47090000.000000,41610000.000000 47090000.000000,40610000.000000 49600000.000000,40610000.000000 49600000.000000,41610000.000000 Z"/> 
<svg:path style="fill:#000000; fill-opacity:1.0;  stroke:#000000; stroke-width:1.000000; stroke-opacity:1;  stroke-linecap:round; stroke-linejoin:round;fill-rule:evenodd;" d="M 50400000.000000,44150000.000000 50400000.000000,43150000.000000 52910000.000000,43150000.000000 52910000.000000,44150000.000000 Z"/> 
<svg:path style="fill:#000000; fill-opacity:1.0;  stroke:#000000; stroke-width:1.000000; stroke-opacity:1;  stroke-linecap:round; stroke-linejoin:round;fill-rule:evenodd;" d="M 47090000.000000,46690000.000000 47090000.000000,45690000.000000 49600000.000000,45690000.000000 49600000.000000,46690000.000000 Z"/> 
<svg:path style="fill:#000000; fill-opacity:1.0;  stroke:#000000; stroke-width:1.000000; stroke-opacity:1;  stroke-linecap:round; stroke-linejoin:round;fill-rule:evenodd;" d="M 50400000.000000,49230000.000000 50400000.000000,48230000.000000 52910000.000000,48230000.000000 52910000.000000,49230000.000000 Z"/> 
<svg:path style="fill:#000000; fill-opacity:1.0;  stroke:#000000; stroke-width:1.000000; stroke-opacity:1;  stroke-linecap:round; stroke-linejoin:round;fill-rule:evenodd;" d="M 47090000.000000,51770000.000000 47090000.000000,50770000.000000 49600000.000000,50770000.000000 49600000.000000,51770000.000000 Z"/> 
<svg:path style="fill:#000000; fill-opacity:1.0;  stroke:#000000; stroke-width:1.000000; stroke-opacity:1;  stroke-linecap:round; stroke-linejoin:round;fill-rule:evenodd;" d="M 50400000.000000,54310000.000000 50400000.000000,53310000.000000 52910000.000000,53310000.000000 52910000.000000,54310000.000000 Z"/> 
<svg:path style="fill:#000000; fill-opacity:1.0;  stroke:#000000; stroke-width:1.000000; stroke-opacity:1;  stroke-linecap:round; stroke-linejoin:round;fill-rule:evenodd;" d="M 47090000.000000,56850000.000000 47090000.000000,55850000.000000 49600000.000000,55850000.000000 49600000.000000,56850000.000000 Z"/> 
<svg:path style="fill:#000000; fill-opacity:1.0;  stroke:#000000; stroke-width:1.000000; stroke-opacity:1;  stroke-linecap:round; stroke-linejoin:round;fill-rule:evenodd;" d="M 50400000.000000,59390000.000000 50400000.000000,58390000.000000 52910000.000000,58390000.000000 52910000.000000,59390000.000000 Z"/> 
<svg:path style="fill:#000000; fill-opacity:1.0;  stroke:#000000; stroke-width:1.000000; stroke-opacity:1;  stroke-linecap:round; stroke-linejoin:round;fill-rule:evenodd;" d="M 47090000.000000,61930000.000000 47090000.000000,60930000.000000 49600000.000000,60930000.000000 49600000.000000,61930000.000000 Z"/> 
<svg:path style="fill:#000000; fill-opacity:1.0;  stroke:#000000; stroke-width:1.000000; stroke-opacity:1;  stroke-linecap:round; stroke-linejoin:round;fill-rule:evenodd;" d="M 50400000.000000,64470000.000000 50400000.000000,63470000.000000 52910000.000000,63470000.000000 52910000.000000,64470000.000000 Z"/> 
<svg:path style="fill:#000000; fill-opacity:1.0;  stroke:#000000; stroke-width:1.000000; stroke-opacity:1;  stroke-linecap:round; stroke-linejoin:round;fill-rule:evenodd;" d="M 47090000.000000,67010000.000000 47090000.000000,66010000.000000 49600000.000000,66010000.000000 49600000.000000,67010000.000000 Z"/> 
<svg:path style="fill:#000000; fill-opacity:1.0;  stroke:#000000; stroke-width:1.000000; stroke-opacity:1;  stroke-linecap:round; stroke-linejoin:round;fill-rule:evenodd;" d="M 50400000.000000,69550000.000000 50400000.000000,68550000.000000 52910000.000000,68550000.000000 52910000.000000,69550000.000000 Z"/> 
<svg:path style="fill:#000000; fill-opacity:1.0;  stroke:#000000; stroke-width:1.000000; stroke-opacity:1;  stroke-linecap:round; stroke-linejoin:round;fill-rule:evenodd;" d="M 47090000.000000,72090000.000000 47090000.000000,71090000.000000 49600000.000000,71090000.000000 49600000.000000,72090000.000000 Z"/> 
<svg:path style="fill:#000000; fill-opacity:1.0;  stroke:#000000; stroke-width:1.000000; stroke-opacity:1;  stroke-linecap:round; stroke-linejoin:round;fill-rule:evenodd;" d="M 50400000.000000,74630000.000000 50400000.000000,73630000.000000 52910000.000000,73630000.000000 52910000.000000,74630000.000000 Z"/> 
</svg:g>
<svg:g>
</svg:g>
<svg:g>
</svg:g>
<svg:g>
</svg:g>
</svg:g>
<svg:g style="fill:#000000; fill-opacity:1.0;  stroke:#000000; stroke-width:1.000000; stroke-opacity:1;  stroke-linecap:round; stroke-linejoin:round;">
<svg:g>
</svg:g>
<svg:g>
</svg:g>
<svg:g>
</svg:g>
<svg:g>
</svg:g>
</svg:g> 
</svg:g><svg:g><svg:title>SVG Picture created as kicadBoard-F_Paste.svg date 2022/11/17 09:05:06 </svg:title>
  <svg:desc>Picture generated by PCBNEW </svg:desc>
<svg:g style="fill:#000000; fill-opacity:1.000000;stroke:#000000; stroke-opacity:1.000000; stroke-linecap:round; stroke-linejoin:round;" transform="translate(0 0) scale(1 1)">
</svg:g>
<svg:g style="fill:#000000; fill-opacity:0.0;  stroke:#000000; stroke-width:0.000000; stroke-opacity:1;  stroke-linecap:round; stroke-linejoin:round;">
<svg:g>
</svg:g>
<svg:g style="fill:#000000; fill-opacity:0.0;  stroke:#000000; stroke-width:1.000000; stroke-opacity:1;  stroke-linecap:round; stroke-linejoin:round;">
</svg:g>
<svg:g style="fill:#000000; fill-opacity:1.0;  stroke:#000000; stroke-width:1.000000; stroke-opacity:1;  stroke-linecap:round; stroke-linejoin:round;">
<svg:path style="fill:#000000; fill-opacity:1.0;  stroke:#000000; stroke-width:1.000000; stroke-opacity:1;  stroke-linecap:round; stroke-linejoin:round;fill-rule:evenodd;" d="M 47090000.000000,26370000.000000 47090000.000000,25370000.000000 49600000.000000,25370000.000000 49600000.000000,26370000.000000 Z"/> 
<svg:path style="fill:#000000; fill-opacity:1.0;  stroke:#000000; stroke-width:1.000000; stroke-opacity:1;  stroke-linecap:round; stroke-linejoin:round;fill-rule:evenodd;" d="M 50400000.000000,28910000.000000 50400000.000000,27910000.000000 52910000.000000,27910000.000000 52910000.000000,28910000.000000 Z"/> 
<svg:path style="fill:#000000; fill-opacity:1.0;  stroke:#000000; stroke-width:1.000000; stroke-opacity:1;  stroke-linecap:round; stroke-linejoin:round;fill-rule:evenodd;" d="M 47090000.000000,31450000.000000 47090000.000000,30450000.000000 49600000.000000,30450000.000000 49600000.000000,31450000.000000 Z"/> 
<svg:path style="fill:#000000; fill-opacity:1.0;  stroke:#000000; stroke-width:1.000000; stroke-opacity:1;  stroke-linecap:round; stroke-linejoin:round;fill-rule:evenodd;" d="M 50400000.000000,33990000.000000 50400000.000000,32990000.000000 52910000.000000,32990000.000000 52910000.000000,33990000.000000 Z"/> 
<svg:path style="fill:#000000; fill-opacity:1.0;  stroke:#000000; stroke-width:1.000000; stroke-opacity:1;  stroke-linecap:round; stroke-linejoin:round;fill-rule:evenodd;" d="M 47090000.000000,36530000.000000 47090000.000000,35530000.000000 49600000.000000,35530000.000000 49600000.000000,36530000.000000 Z"/> 
<svg:path style="fill:#000000; fill-opacity:1.0;  stroke:#000000; stroke-width:1.000000; stroke-opacity:1;  stroke-linecap:round; stroke-linejoin:round;fill-rule:evenodd;" d="M 50400000.000000,39070000.000000 50400000.000000,38070000.000000 52910000.000000,38070000.000000 52910000.000000,39070000.000000 Z"/> 
<svg:path style="fill:#000000; fill-opacity:1.0;  stroke:#000000; stroke-width:1.000000; stroke-opacity:1;  stroke-linecap:round; stroke-linejoin:round;fill-rule:evenodd;" d="M 47090000.000000,41610000.000000 47090000.000000,40610000.000000 49600000.000000,40610000.000000 49600000.000000,41610000.000000 Z"/> 
<svg:path style="fill:#000000; fill-opacity:1.0;  stroke:#000000; stroke-width:1.000000; stroke-opacity:1;  stroke-linecap:round; stroke-linejoin:round;fill-rule:evenodd;" d="M 50400000.000000,44150000.000000 50400000.000000,43150000.000000 52910000.000000,43150000.000000 52910000.000000,44150000.000000 Z"/> 
<svg:path style="fill:#000000; fill-opacity:1.0;  stroke:#000000; stroke-width:1.000000; stroke-opacity:1;  stroke-linecap:round; stroke-linejoin:round;fill-rule:evenodd;" d="M 47090000.000000,46690000.000000 47090000.000000,45690000.000000 49600000.000000,45690000.000000 49600000.000000,46690000.000000 Z"/> 
<svg:path style="fill:#000000; fill-opacity:1.0;  stroke:#000000; stroke-width:1.000000; stroke-opacity:1;  stroke-linecap:round; stroke-linejoin:round;fill-rule:evenodd;" d="M 50400000.000000,49230000.000000 50400000.000000,48230000.000000 52910000.000000,48230000.000000 52910000.000000,49230000.000000 Z"/> 
<svg:path style="fill:#000000; fill-opacity:1.0;  stroke:#000000; stroke-width:1.000000; stroke-opacity:1;  stroke-linecap:round; stroke-linejoin:round;fill-rule:evenodd;" d="M 47090000.000000,51770000.000000 47090000.000000,50770000.000000 49600000.000000,50770000.000000 49600000.000000,51770000.000000 Z"/> 
<svg:path style="fill:#000000; fill-opacity:1.0;  stroke:#000000; stroke-width:1.000000; stroke-opacity:1;  stroke-linecap:round; stroke-linejoin:round;fill-rule:evenodd;" d="M 50400000.000000,54310000.000000 50400000.000000,53310000.000000 52910000.000000,53310000.000000 52910000.000000,54310000.000000 Z"/> 
<svg:path style="fill:#000000; fill-opacity:1.0;  stroke:#000000; stroke-width:1.000000; stroke-opacity:1;  stroke-linecap:round; stroke-linejoin:round;fill-rule:evenodd;" d="M 47090000.000000,56850000.000000 47090000.000000,55850000.000000 49600000.000000,55850000.000000 49600000.000000,56850000.000000 Z"/> 
<svg:path style="fill:#000000; fill-opacity:1.0;  stroke:#000000; stroke-width:1.000000; stroke-opacity:1;  stroke-linecap:round; stroke-linejoin:round;fill-rule:evenodd;" d="M 50400000.000000,59390000.000000 50400000.000000,58390000.000000 52910000.000000,58390000.000000 52910000.000000,59390000.000000 Z"/> 
<svg:path style="fill:#000000; fill-opacity:1.0;  stroke:#000000; stroke-width:1.000000; stroke-opacity:1;  stroke-linecap:round; stroke-linejoin:round;fill-rule:evenodd;" d="M 47090000.000000,61930000.000000 47090000.000000,60930000.000000 49600000.000000,60930000.000000 49600000.000000,61930000.000000 Z"/> 
<svg:path style="fill:#000000; fill-opacity:1.0;  stroke:#000000; stroke-width:1.000000; stroke-opacity:1;  stroke-linecap:round; stroke-linejoin:round;fill-rule:evenodd;" d="M 50400000.000000,64470000.000000 50400000.000000,63470000.000000 52910000.000000,63470000.000000 52910000.000000,64470000.000000 Z"/> 
<svg:path style="fill:#000000; fill-opacity:1.0;  stroke:#000000; stroke-width:1.000000; stroke-opacity:1;  stroke-linecap:round; stroke-linejoin:round;fill-rule:evenodd;" d="M 47090000.000000,67010000.000000 47090000.000000,66010000.000000 49600000.000000,66010000.000000 49600000.000000,67010000.000000 Z"/> 
<svg:path style="fill:#000000; fill-opacity:1.0;  stroke:#000000; stroke-width:1.000000; stroke-opacity:1;  stroke-linecap:round; stroke-linejoin:round;fill-rule:evenodd;" d="M 50400000.000000,69550000.000000 50400000.000000,68550000.000000 52910000.000000,68550000.000000 52910000.000000,69550000.000000 Z"/> 
<svg:path style="fill:#000000; fill-opacity:1.0;  stroke:#000000; stroke-width:1.000000; stroke-opacity:1;  stroke-linecap:round; stroke-linejoin:round;fill-rule:evenodd;" d="M 47090000.000000,72090000.000000 47090000.000000,71090000.000000 49600000.000000,71090000.000000 49600000.000000,72090000.000000 Z"/> 
<svg:path style="fill:#000000; fill-opacity:1.0;  stroke:#000000; stroke-width:1.000000; stroke-opacity:1;  stroke-linecap:round; stroke-linejoin:round;fill-rule:evenodd;" d="M 50400000.000000,74630000.000000 50400000.000000,73630000.000000 52910000.000000,73630000.000000 52910000.000000,74630000.000000 Z"/> 
</svg:g>
<svg:g>
</svg:g>
<svg:g>
</svg:g>
<svg:g>
</svg:g>
</svg:g>
<svg:g style="fill:#000000; fill-opacity:1.0;  stroke:#000000; stroke-width:1.000000; stroke-opacity:1;  stroke-linecap:round; stroke-linejoin:round;">
<svg:g>
</svg:g>
<svg:g>
</svg:g>
<svg:g>
</svg:g>
<svg:g>
</svg:g>
</svg:g> 
</svg:g><svg:g><svg:title>SVG Picture created as kicadBoard-F_Silkscreen.svg date 2022/11/17 09:05:06 </svg:title>
  <svg:desc>Picture generated by PCBNEW </svg:desc>
<svg:g style="fill:#000000; fill-opacity:1.000000;stroke:#000000; stroke-opacity:1.000000; stroke-linecap:round; stroke-linejoin:round;" transform="translate(0 0) scale(1 1)">
</svg:g>
<svg:g style="fill:#000000; fill-opacity:0.0;  stroke:#000000; stroke-width:0.000000; stroke-opacity:1;  stroke-linecap:round; stroke-linejoin:round;">
</svg:g>
<svg:g style="fill:#F2EDA1; fill-opacity:0.0;  stroke:#F2EDA1; stroke-width:0.000000; stroke-opacity:1;  stroke-linecap:round; stroke-linejoin:round;">
</svg:g>
<svg:g style="fill:#F2EDA1; fill-opacity:0.0;  stroke:#F2EDA1; stroke-width:150000.000000; stroke-opacity:1;  stroke-linecap:round; stroke-linejoin:round;">
<svg:text x="50000000.000000" y="24040000.000000" textLength="46476191.000000" font-size="1333333.000000" lengthAdjust="spacingAndGlyphs" text-anchor="middle" opacity="0">FZKCNPINHEADER254PINHEADER1X2P254VERTICALSMPIN1LEFT</svg:text>
<svg:g class="stroked-text"><svg:desc>FZKCNPINHEADER254PINHEADER1X2P254VERTICALSMPIN1LEFT</svg:desc>
<svg:path d="M27333333 23468571 L27000000 23468571 "/>
<svg:path d="M27000000 23992380 L27000000 22992380 L27476190 22992380 "/>
<svg:path d="M27761904 22992380 L28428571 22992380 L27761904 23992380 L28428571 23992380 "/>
<svg:path d="M28809523 23992380 L28809523 22992380 "/>
<svg:path d="M29380952 23992380 L28952380 23420952 "/>
<svg:path d="M29380952 22992380 L28809523 23563809 "/>
<svg:path d="M30380952 23897142 L30333333 23944761 L30190476 23992380 L30095238 23992380 L29952380 23944761 L29857142 23849523 L29809523 23754285 L29761904 23563809 L29761904 23420952 L29809523 23230476 L29857142 23135238 L29952380 23040000 L30095238 22992380 L30190476 22992380 L30333333 23040000 L30380952 23087619 "/>
<svg:path d="M30809523 23992380 L30809523 22992380 L31380952 23992380 L31380952 22992380 "/>
<svg:path d="M31857142 23992380 L31857142 22992380 L32238095 22992380 L32333333 23040000 L32380952 23087619 L32428571 23182857 L32428571 23325714 L32380952 23420952 L32333333 23468571 L32238095 23516190 L31857142 23516190 "/>
<svg:path d="M32857142 23992380 L32857142 22992380 "/>
<svg:path d="M33333333 23992380 L33333333 22992380 L33904761 23992380 L33904761 22992380 "/>
<svg:path d="M34380952 23992380 L34380952 22992380 "/>
<svg:path d="M34380952 23468571 L34952380 23468571 "/>
<svg:path d="M34952380 23992380 L34952380 22992380 "/>
<svg:path d="M35428571 23468571 L35761904 23468571 "/>
<svg:path d="M35904761 23992380 L35428571 23992380 L35428571 22992380 L35904761 22992380 "/>
<svg:path d="M36285714 23706666 L36761904 23706666 "/>
<svg:path d="M36190476 23992380 L36523809 22992380 L36857142 23992380 "/>
<svg:path d="M37190476 23992380 L37190476 22992380 L37428571 22992380 L37571428 23040000 L37666666 23135238 L37714285 23230476 L37761904 23420952 L37761904 23563809 L37714285 23754285 L37666666 23849523 L37571428 23944761 L37428571 23992380 L37190476 23992380 "/>
<svg:path d="M38190476 23468571 L38523809 23468571 "/>
<svg:path d="M38666666 23992380 L38190476 23992380 L38190476 22992380 L38666666 22992380 "/>
<svg:path d="M39666666 23992380 L39333333 23516190 "/>
<svg:path d="M39095238 23992380 L39095238 22992380 L39476190 22992380 L39571428 23040000 L39619047 23087619 L39666666 23182857 L39666666 23325714 L39619047 23420952 L39571428 23468571 L39476190 23516190 L39095238 23516190 "/>
<svg:path d="M40047619 23087619 L40095238 23040000 L40190476 22992380 L40428571 22992380 L40523809 23040000 L40571428 23087619 L40619047 23182857 L40619047 23278095 L40571428 23420952 L40000000 23992380 L40619047 23992380 "/>
<svg:path d="M41523809 22992380 L41047619 22992380 L41000000 23468571 L41047619 23420952 L41142857 23373333 L41380952 23373333 L41476190 23420952 L41523809 23468571 L41571428 23563809 L41571428 23801904 L41523809 23897142 L41476190 23944761 L41380952 23992380 L41142857 23992380 L41047619 23944761 L41000000 23897142 "/>
<svg:path d="M42428571 23325714 L42428571 23992380 "/>
<svg:path d="M42190476 22944761 L41952380 23659047 L42571428 23659047 "/>
<svg:path d="M42952380 23992380 L42952380 22992380 L43333333 22992380 L43428571 23040000 L43476190 23087619 L43523809 23182857 L43523809 23325714 L43476190 23420952 L43428571 23468571 L43333333 23516190 L42952380 23516190 "/>
<svg:path d="M43952380 23992380 L43952380 22992380 "/>
<svg:path d="M44428571 23992380 L44428571 22992380 L45000000 23992380 L45000000 22992380 "/>
<svg:path d="M45476190 23992380 L45476190 22992380 "/>
<svg:path d="M45476190 23468571 L46047619 23468571 "/>
<svg:path d="M46047619 23992380 L46047619 22992380 "/>
<svg:path d="M46523809 23468571 L46857142 23468571 "/>
<svg:path d="M47000000 23992380 L46523809 23992380 L46523809 22992380 L47000000 22992380 "/>
<svg:path d="M47380952 23706666 L47857142 23706666 "/>
<svg:path d="M47285714 23992380 L47619047 22992380 L47952380 23992380 "/>
<svg:path d="M48285714 23992380 L48285714 22992380 L48523809 22992380 L48666666 23040000 L48761904 23135238 L48809523 23230476 L48857142 23420952 L48857142 23563809 L48809523 23754285 L48761904 23849523 L48666666 23944761 L48523809 23992380 L48285714 23992380 "/>
<svg:path d="M49285714 23468571 L49619047 23468571 "/>
<svg:path d="M49761904 23992380 L49285714 23992380 L49285714 22992380 L49761904 22992380 "/>
<svg:path d="M50761904 23992380 L50428571 23516190 "/>
<svg:path d="M50190476 23992380 L50190476 22992380 L50571428 22992380 L50666666 23040000 L50714285 23087619 L50761904 23182857 L50761904 23325714 L50714285 23420952 L50666666 23468571 L50571428 23516190 L50190476 23516190 "/>
<svg:path d="M51714285 23992380 L51142857 23992380 "/>
<svg:path d="M51428571 23992380 L51428571 22992380 L51333333 23135238 L51238095 23230476 L51142857 23278095 "/>
<svg:path d="M52047619 22992380 L52714285 23992380 "/>
<svg:path d="M52714285 22992380 L52047619 23992380 "/>
<svg:path d="M53047619 23087619 L53095238 23040000 L53190476 22992380 L53428571 22992380 L53523809 23040000 L53571428 23087619 L53619047 23182857 L53619047 23278095 L53571428 23420952 L53000000 23992380 L53619047 23992380 "/>
<svg:path d="M54047619 23992380 L54047619 22992380 L54428571 22992380 L54523809 23040000 L54571428 23087619 L54619047 23182857 L54619047 23325714 L54571428 23420952 L54523809 23468571 L54428571 23516190 L54047619 23516190 "/>
<svg:path d="M55000000 23087619 L55047619 23040000 L55142857 22992380 L55380952 22992380 L55476190 23040000 L55523809 23087619 L55571428 23182857 L55571428 23278095 L55523809 23420952 L54952380 23992380 L55571428 23992380 "/>
<svg:path d="M56476190 22992380 L56000000 22992380 L55952380 23468571 L56000000 23420952 L56095238 23373333 L56333333 23373333 L56428571 23420952 L56476190 23468571 L56523809 23563809 L56523809 23801904 L56476190 23897142 L56428571 23944761 L56333333 23992380 L56095238 23992380 L56000000 23944761 L55952380 23897142 "/>
<svg:path d="M57380952 23325714 L57380952 23992380 "/>
<svg:path d="M57142857 22944761 L56904761 23659047 L57523809 23659047 "/>
<svg:path d="M57761904 22992380 L58095238 23992380 L58428571 22992380 "/>
<svg:path d="M58761904 23468571 L59095238 23468571 "/>
<svg:path d="M59238095 23992380 L58761904 23992380 L58761904 22992380 L59238095 22992380 "/>
<svg:path d="M60238095 23992380 L59904761 23516190 "/>
<svg:path d="M59666666 23992380 L59666666 22992380 L60047619 22992380 L60142857 23040000 L60190476 23087619 L60238095 23182857 L60238095 23325714 L60190476 23420952 L60142857 23468571 L60047619 23516190 L59666666 23516190 "/>
<svg:path d="M60523809 22992380 L61095238 22992380 "/>
<svg:path d="M60809523 23992380 L60809523 22992380 "/>
<svg:path d="M61428571 23992380 L61428571 22992380 "/>
<svg:path d="M62476190 23897142 L62428571 23944761 L62285714 23992380 L62190476 23992380 L62047619 23944761 L61952380 23849523 L61904761 23754285 L61857142 23563809 L61857142 23420952 L61904761 23230476 L61952380 23135238 L62047619 23040000 L62190476 22992380 L62285714 22992380 L62428571 23040000 L62476190 23087619 "/>
<svg:path d="M62857142 23706666 L63333333 23706666 "/>
<svg:path d="M62761904 23992380 L63095238 22992380 L63428571 23992380 "/>
<svg:path d="M64238095 23992380 L63761904 23992380 L63761904 22992380 "/>
<svg:path d="M64523809 23944761 L64666666 23992380 L64904761 23992380 L65000000 23944761 L65047619 23897142 L65095238 23801904 L65095238 23706666 L65047619 23611428 L65000000 23563809 L64904761 23516190 L64714285 23468571 L64619047 23420952 L64571428 23373333 L64523809 23278095 L64523809 23182857 L64571428 23087619 L64619047 23040000 L64714285 22992380 L64952380 22992380 L65095238 23040000 "/>
<svg:path d="M65523809 23992380 L65523809 22992380 L65857142 23706666 L66190476 22992380 L66190476 23992380 "/>
<svg:path d="M66666666 23992380 L66666666 22992380 L67047619 22992380 L67142857 23040000 L67190476 23087619 L67238095 23182857 L67238095 23325714 L67190476 23420952 L67142857 23468571 L67047619 23516190 L66666666 23516190 "/>
<svg:path d="M67666666 23992380 L67666666 22992380 "/>
<svg:path d="M68142857 23992380 L68142857 22992380 L68714285 23992380 L68714285 22992380 "/>
<svg:path d="M69714285 23992380 L69142857 23992380 "/>
<svg:path d="M69428571 23992380 L69428571 22992380 L69333333 23135238 L69238095 23230476 L69142857 23278095 "/>
<svg:path d="M70619047 23992380 L70142857 23992380 L70142857 22992380 "/>
<svg:path d="M70952380 23468571 L71285714 23468571 "/>
<svg:path d="M71428571 23992380 L70952380 23992380 L70952380 22992380 L71428571 22992380 "/>
<svg:path d="M72190476 23468571 L71857142 23468571 "/>
<svg:path d="M71857142 23992380 L71857142 22992380 L72333333 22992380 "/>
<svg:path d="M72571428 22992380 L73142857 22992380 "/>
<svg:path d="M72857142 23992380 L72857142 22992380 "/>
</svg:g></svg:g>
<svg:g style="fill:#F2EDA1; fill-opacity:0.0;  stroke:#F2EDA1; stroke-width:120000.000000; stroke-opacity:1;  stroke-linecap:round; stroke-linejoin:round;">
<svg:path d="M51330000 44410000 L51330000 47970000 "/>
<svg:path d="M48670000 67270000 L48670000 70830000 "/>
<svg:path d="M48670000 46950000 L48670000 50510000 "/>
<svg:path d="M51330000 49490000 L51330000 53050000 "/>
<svg:path d="M51330000 54570000 L51330000 58130000 "/>
<svg:path d="M51330000 74890000 L51330000 75460000 "/>
<svg:path d="M48670000 26630000 L48670000 30190000 "/>
<svg:path d="M48670000 31710000 L48670000 35270000 "/>
<svg:path d="M48670000 52030000 L48670000 55590000 "/>
<svg:path d="M51330000 34250000 L51330000 37810000 "/>
<svg:path d="M51330000 29170000 L51330000 32730000 "/>
<svg:path d="M51330000 59650000 L51330000 63210000 "/>
<svg:path d="M48670000 41870000 L48670000 45430000 "/>
<svg:path d="M51330000 39330000 L51330000 42890000 "/>
<svg:path d="M48670000 57110000 L48670000 60670000 "/>
<svg:path d="M51330000 69810000 L51330000 73370000 "/>
<svg:path d="M51330000 64730000 L51330000 68290000 "/>
<svg:path d="M48670000 75460000 L51330000 75460000 "/>
<svg:path d="M48670000 62190000 L48670000 65750000 "/>
<svg:path d="M48670000 24540000 L51330000 24540000 "/>
<svg:path d="M48670000 72350000 L48670000 75460000 "/>
<svg:path d="M48670000 36790000 L48670000 40350000 "/>
<svg:path d="M51330000 24540000 L51330000 27650000 "/>
<svg:path d="M48670000 25110000 L47150000 25110000 "/>
<svg:path d="M48670000 24540000 L48670000 25110000 "/>
<svg:g>
</svg:g>
<svg:g>
</svg:g>
<svg:g>
</svg:g>
<svg:g>
</svg:g>
</svg:g>
<svg:g style="fill:#000000; fill-opacity:0.0;  stroke:#000000; stroke-width:120000.000000; stroke-opacity:1;  stroke-linecap:round; stroke-linejoin:round;">
<svg:g>
</svg:g>
<svg:g>
</svg:g>
<svg:g>
</svg:g>
<svg:g>
</svg:g>
</svg:g> 
</svg:g><svg:g><svg:title>SVG Picture created as kicadBoard-Margin.svg date 2022/11/17 09:05:06 </svg:title>
  <svg:desc>Picture generated by PCBNEW </svg:desc>
<svg:g style="fill:#000000; fill-opacity:1.000000;stroke:#000000; stroke-opacity:1.000000; stroke-linecap:round; stroke-linejoin:round;" transform="translate(0 0) scale(1 1)">
</svg:g>
<svg:g style="fill:#000000; fill-opacity:0.0;  stroke:#000000; stroke-width:0.000000; stroke-opacity:1;  stroke-linecap:round; stroke-linejoin:round;">
<svg:g>
</svg:g>
<svg:g>
</svg:g>
<svg:g>
</svg:g>
<svg:g>
</svg:g>
</svg:g>
<svg:g style="fill:#000000; fill-opacity:0.0;  stroke:#000000; stroke-width:0.000000; stroke-opacity:1;  stroke-linecap:round; stroke-linejoin:round;">
<svg:g>
</svg:g>
<svg:g>
</svg:g>
<svg:g>
</svg:g>
<svg:g>
</svg:g>
</svg:g> 
</svg:g><svg:g><svg:title>SVG Picture created as kicadBoard-F_Cu.svg date 2022/11/17 09:05:06 </svg:title>
  <svg:desc>Picture generated by PCBNEW </svg:desc>
<svg:g style="fill:#000000; fill-opacity:1.000000;stroke:#000000; stroke-opacity:1.000000; stroke-linecap:round; stroke-linejoin:round;" transform="translate(0 0) scale(1 1)">
</svg:g>
<svg:g style="fill:#000000; fill-opacity:0.0;  stroke:#000000; stroke-width:0.000000; stroke-opacity:1;  stroke-linecap:round; stroke-linejoin:round;">
<svg:g>
</svg:g>
<svg:g style="fill:#C83434; fill-opacity:0.0;  stroke:#C83434; stroke-width:0.000000; stroke-opacity:1;  stroke-linecap:round; stroke-linejoin:round;">
</svg:g>
<svg:g style="fill:#C83434; fill-opacity:0.0;  stroke:#C83434; stroke-width:1.000000; stroke-opacity:1;  stroke-linecap:round; stroke-linejoin:round;">
</svg:g>
<svg:g style="fill:#C83434; fill-opacity:1.0;  stroke:#C83434; stroke-width:1.000000; stroke-opacity:1;  stroke-linecap:round; stroke-linejoin:round;">
<svg:path style="fill:#C83434; fill-opacity:1.0;  stroke:#C83434; stroke-width:1.000000; stroke-opacity:1;  stroke-linecap:round; stroke-linejoin:round;fill-rule:evenodd;" d="M 47090000.000000,26370000.000000 47090000.000000,25370000.000000 49600000.000000,25370000.000000 49600000.000000,26370000.000000 Z"/> 
<svg:path style="fill:#C83434; fill-opacity:1.0;  stroke:#C83434; stroke-width:1.000000; stroke-opacity:1;  stroke-linecap:round; stroke-linejoin:round;fill-rule:evenodd;" d="M 50400000.000000,28910000.000000 50400000.000000,27910000.000000 52910000.000000,27910000.000000 52910000.000000,28910000.000000 Z"/> 
<svg:path style="fill:#C83434; fill-opacity:1.0;  stroke:#C83434; stroke-width:1.000000; stroke-opacity:1;  stroke-linecap:round; stroke-linejoin:round;fill-rule:evenodd;" d="M 47090000.000000,31450000.000000 47090000.000000,30450000.000000 49600000.000000,30450000.000000 49600000.000000,31450000.000000 Z"/> 
<svg:path style="fill:#C83434; fill-opacity:1.0;  stroke:#C83434; stroke-width:1.000000; stroke-opacity:1;  stroke-linecap:round; stroke-linejoin:round;fill-rule:evenodd;" d="M 50400000.000000,33990000.000000 50400000.000000,32990000.000000 52910000.000000,32990000.000000 52910000.000000,33990000.000000 Z"/> 
<svg:path style="fill:#C83434; fill-opacity:1.0;  stroke:#C83434; stroke-width:1.000000; stroke-opacity:1;  stroke-linecap:round; stroke-linejoin:round;fill-rule:evenodd;" d="M 47090000.000000,36530000.000000 47090000.000000,35530000.000000 49600000.000000,35530000.000000 49600000.000000,36530000.000000 Z"/> 
<svg:path style="fill:#C83434; fill-opacity:1.0;  stroke:#C83434; stroke-width:1.000000; stroke-opacity:1;  stroke-linecap:round; stroke-linejoin:round;fill-rule:evenodd;" d="M 50400000.000000,39070000.000000 50400000.000000,38070000.000000 52910000.000000,38070000.000000 52910000.000000,39070000.000000 Z"/> 
<svg:path style="fill:#C83434; fill-opacity:1.0;  stroke:#C83434; stroke-width:1.000000; stroke-opacity:1;  stroke-linecap:round; stroke-linejoin:round;fill-rule:evenodd;" d="M 47090000.000000,41610000.000000 47090000.000000,40610000.000000 49600000.000000,40610000.000000 49600000.000000,41610000.000000 Z"/> 
<svg:path style="fill:#C83434; fill-opacity:1.0;  stroke:#C83434; stroke-width:1.000000; stroke-opacity:1;  stroke-linecap:round; stroke-linejoin:round;fill-rule:evenodd;" d="M 50400000.000000,44150000.000000 50400000.000000,43150000.000000 52910000.000000,43150000.000000 52910000.000000,44150000.000000 Z"/> 
<svg:path style="fill:#C83434; fill-opacity:1.0;  stroke:#C83434; stroke-width:1.000000; stroke-opacity:1;  stroke-linecap:round; stroke-linejoin:round;fill-rule:evenodd;" d="M 47090000.000000,46690000.000000 47090000.000000,45690000.000000 49600000.000000,45690000.000000 49600000.000000,46690000.000000 Z"/> 
<svg:path style="fill:#C83434; fill-opacity:1.0;  stroke:#C83434; stroke-width:1.000000; stroke-opacity:1;  stroke-linecap:round; stroke-linejoin:round;fill-rule:evenodd;" d="M 50400000.000000,49230000.000000 50400000.000000,48230000.000000 52910000.000000,48230000.000000 52910000.000000,49230000.000000 Z"/> 
<svg:path style="fill:#C83434; fill-opacity:1.0;  stroke:#C83434; stroke-width:1.000000; stroke-opacity:1;  stroke-linecap:round; stroke-linejoin:round;fill-rule:evenodd;" d="M 47090000.000000,51770000.000000 47090000.000000,50770000.000000 49600000.000000,50770000.000000 49600000.000000,51770000.000000 Z"/> 
<svg:path style="fill:#C83434; fill-opacity:1.0;  stroke:#C83434; stroke-width:1.000000; stroke-opacity:1;  stroke-linecap:round; stroke-linejoin:round;fill-rule:evenodd;" d="M 50400000.000000,54310000.000000 50400000.000000,53310000.000000 52910000.000000,53310000.000000 52910000.000000,54310000.000000 Z"/> 
<svg:path style="fill:#C83434; fill-opacity:1.0;  stroke:#C83434; stroke-width:1.000000; stroke-opacity:1;  stroke-linecap:round; stroke-linejoin:round;fill-rule:evenodd;" d="M 47090000.000000,56850000.000000 47090000.000000,55850000.000000 49600000.000000,55850000.000000 49600000.000000,56850000.000000 Z"/> 
<svg:path style="fill:#C83434; fill-opacity:1.0;  stroke:#C83434; stroke-width:1.000000; stroke-opacity:1;  stroke-linecap:round; stroke-linejoin:round;fill-rule:evenodd;" d="M 50400000.000000,59390000.000000 50400000.000000,58390000.000000 52910000.000000,58390000.000000 52910000.000000,59390000.000000 Z"/> 
<svg:path style="fill:#C83434; fill-opacity:1.0;  stroke:#C83434; stroke-width:1.000000; stroke-opacity:1;  stroke-linecap:round; stroke-linejoin:round;fill-rule:evenodd;" d="M 47090000.000000,61930000.000000 47090000.000000,60930000.000000 49600000.000000,60930000.000000 49600000.000000,61930000.000000 Z"/> 
<svg:path style="fill:#C83434; fill-opacity:1.0;  stroke:#C83434; stroke-width:1.000000; stroke-opacity:1;  stroke-linecap:round; stroke-linejoin:round;fill-rule:evenodd;" d="M 50400000.000000,64470000.000000 50400000.000000,63470000.000000 52910000.000000,63470000.000000 52910000.000000,64470000.000000 Z"/> 
<svg:path style="fill:#C83434; fill-opacity:1.0;  stroke:#C83434; stroke-width:1.000000; stroke-opacity:1;  stroke-linecap:round; stroke-linejoin:round;fill-rule:evenodd;" d="M 47090000.000000,67010000.000000 47090000.000000,66010000.000000 49600000.000000,66010000.000000 49600000.000000,67010000.000000 Z"/> 
<svg:path style="fill:#C83434; fill-opacity:1.0;  stroke:#C83434; stroke-width:1.000000; stroke-opacity:1;  stroke-linecap:round; stroke-linejoin:round;fill-rule:evenodd;" d="M 50400000.000000,69550000.000000 50400000.000000,68550000.000000 52910000.000000,68550000.000000 52910000.000000,69550000.000000 Z"/> 
<svg:path style="fill:#C83434; fill-opacity:1.0;  stroke:#C83434; stroke-width:1.000000; stroke-opacity:1;  stroke-linecap:round; stroke-linejoin:round;fill-rule:evenodd;" d="M 47090000.000000,72090000.000000 47090000.000000,71090000.000000 49600000.000000,71090000.000000 49600000.000000,72090000.000000 Z"/> 
<svg:path style="fill:#C83434; fill-opacity:1.0;  stroke:#C83434; stroke-width:1.000000; stroke-opacity:1;  stroke-linecap:round; stroke-linejoin:round;fill-rule:evenodd;" d="M 50400000.000000,74630000.000000 50400000.000000,73630000.000000 52910000.000000,73630000.000000 52910000.000000,74630000.000000 Z"/> 
</svg:g>
<svg:g>
</svg:g>
<svg:g>
</svg:g>
<svg:g>
</svg:g>
</svg:g>
<svg:g style="fill:#FFFFFF; fill-opacity:1.0;  stroke:#FFFFFF; stroke-width:1.000000; stroke-opacity:1;  stroke-linecap:round; stroke-linejoin:round;">
</svg:g>
<svg:g style="fill:#000000; fill-opacity:1.0;  stroke:#000000; stroke-width:1.000000; stroke-opacity:1;  stroke-linecap:round; stroke-linejoin:round;">
<svg:g>
</svg:g>
<svg:g>
</svg:g>
<svg:g>
</svg:g>
<svg:g>
</svg:g>
</svg:g> 
</svg:g></svg>
