<?xml version='1.0' encoding='ASCII' standalone='yes'?>
<svg xmlns:svg="http://www.w3.org/2000/svg" xmlns="http://www.w3.org/2000/svg" xmlns:xlink="http://www.w3.org/1999/xlink" version="1.1" width="9.999980cm" height="9.999980cm" viewBox="0 0 99999800 99999800">
<title>SVG Picture created as kicadBoard-B_Cu.svg date 2022/11/19 04:40:33 </title>
  <desc>Picture generated by PCBNEW </desc>
<g style="fill:#000000; fill-opacity:1.000000;stroke:#000000; stroke-opacity:1.000000; stroke-linecap:round; stroke-linejoin:round;" transform="translate(0 0) scale(1 1)">
</g>
<g style="fill:#000000; fill-opacity:0.0;  stroke:#000000; stroke-width:0.000000; stroke-opacity:1;  stroke-linecap:round; stroke-linejoin:round;">
<g>
</g>
<g>
</g>
<g>
</g>
<g>
</g>
</g>
<g style="fill:#FFFFFF; fill-opacity:0.0;  stroke:#FFFFFF; stroke-width:0.000000; stroke-opacity:1;  stroke-linecap:round; stroke-linejoin:round;">
</g>
<g style="fill:#000000; fill-opacity:0.0;  stroke:#000000; stroke-width:0.000000; stroke-opacity:1;  stroke-linecap:round; stroke-linejoin:round;">
<g>
</g>
<g>
</g>
<g>
</g>
<g>
</g>
</g> 
<svg:g><svg:title>SVG Picture created as kicadBoard-B_Adhesive.svg date 2022/11/19 04:40:33 </svg:title>
  <svg:desc>Picture generated by PCBNEW </svg:desc>
<svg:g style="fill:#000000; fill-opacity:1.000000;stroke:#000000; stroke-opacity:1.000000; stroke-linecap:round; stroke-linejoin:round;" transform="translate(0 0) scale(1 1)">
</svg:g>
<svg:g style="fill:#000000; fill-opacity:0.0;  stroke:#000000; stroke-width:0.000000; stroke-opacity:1;  stroke-linecap:round; stroke-linejoin:round;">
<svg:g>
</svg:g>
<svg:g>
</svg:g>
<svg:g>
</svg:g>
<svg:g>
</svg:g>
</svg:g>
<svg:g style="fill:#000000; fill-opacity:0.0;  stroke:#000000; stroke-width:0.000000; stroke-opacity:1;  stroke-linecap:round; stroke-linejoin:round;">
<svg:g>
</svg:g>
<svg:g>
</svg:g>
<svg:g>
</svg:g>
<svg:g>
</svg:g>
</svg:g> 
</svg:g><svg:g><svg:title>SVG Picture created as kicadBoard-B_Courtyard.svg date 2022/11/19 04:40:33 </svg:title>
  <svg:desc>Picture generated by PCBNEW </svg:desc>
<svg:g style="fill:#000000; fill-opacity:1.000000;stroke:#000000; stroke-opacity:1.000000; stroke-linecap:round; stroke-linejoin:round;" transform="translate(0 0) scale(1 1)">
</svg:g>
<svg:g style="fill:#000000; fill-opacity:0.0;  stroke:#000000; stroke-width:0.000000; stroke-opacity:1;  stroke-linecap:round; stroke-linejoin:round;">
<svg:g>
</svg:g>
<svg:g>
</svg:g>
<svg:g>
</svg:g>
<svg:g>
</svg:g>
</svg:g>
<svg:g style="fill:#000000; fill-opacity:0.0;  stroke:#000000; stroke-width:0.000000; stroke-opacity:1;  stroke-linecap:round; stroke-linejoin:round;">
<svg:g>
</svg:g>
<svg:g>
</svg:g>
<svg:g>
</svg:g>
<svg:g>
</svg:g>
</svg:g> 
</svg:g><svg:g><svg:title>SVG Picture created as kicadBoard-B_Fab.svg date 2022/11/19 04:40:33 </svg:title>
  <svg:desc>Picture generated by PCBNEW </svg:desc>
<svg:g style="fill:#000000; fill-opacity:1.000000;stroke:#000000; stroke-opacity:1.000000; stroke-linecap:round; stroke-linejoin:round;" transform="translate(0 0) scale(1 1)">
</svg:g>
<svg:g style="fill:#000000; fill-opacity:0.0;  stroke:#000000; stroke-width:0.000000; stroke-opacity:1;  stroke-linecap:round; stroke-linejoin:round;">
<svg:g>
</svg:g>
<svg:g>
</svg:g>
<svg:g>
</svg:g>
<svg:g>
</svg:g>
</svg:g>
<svg:g style="fill:#000000; fill-opacity:0.0;  stroke:#000000; stroke-width:0.000000; stroke-opacity:1;  stroke-linecap:round; stroke-linejoin:round;">
<svg:g>
</svg:g>
<svg:g>
</svg:g>
<svg:g>
</svg:g>
<svg:g>
</svg:g>
</svg:g> 
</svg:g><svg:g><svg:title>SVG Picture created as kicadBoard-B_Mask.svg date 2022/11/19 04:40:33 </svg:title>
  <svg:desc>Picture generated by PCBNEW </svg:desc>
<svg:g style="fill:#000000; fill-opacity:1.000000;stroke:#000000; stroke-opacity:1.000000; stroke-linecap:round; stroke-linejoin:round;" transform="translate(0 0) scale(1 1)">
</svg:g>
<svg:g style="fill:#000000; fill-opacity:0.0;  stroke:#000000; stroke-width:0.000000; stroke-opacity:1;  stroke-linecap:round; stroke-linejoin:round;">
<svg:g>
</svg:g>
<svg:g>
</svg:g>
<svg:g>
</svg:g>
<svg:g>
</svg:g>
</svg:g>
<svg:g style="fill:#000000; fill-opacity:0.0;  stroke:#000000; stroke-width:0.000000; stroke-opacity:1;  stroke-linecap:round; stroke-linejoin:round;">
<svg:g>
</svg:g>
<svg:g>
</svg:g>
<svg:g>
</svg:g>
<svg:g>
</svg:g>
</svg:g> 
</svg:g><svg:g><svg:title>SVG Picture created as kicadBoard-B_Paste.svg date 2022/11/19 04:40:33 </svg:title>
  <svg:desc>Picture generated by PCBNEW </svg:desc>
<svg:g style="fill:#000000; fill-opacity:1.000000;stroke:#000000; stroke-opacity:1.000000; stroke-linecap:round; stroke-linejoin:round;" transform="translate(0 0) scale(1 1)">
</svg:g>
<svg:g style="fill:#000000; fill-opacity:0.0;  stroke:#000000; stroke-width:0.000000; stroke-opacity:1;  stroke-linecap:round; stroke-linejoin:round;">
<svg:g>
</svg:g>
<svg:g>
</svg:g>
<svg:g>
</svg:g>
<svg:g>
</svg:g>
</svg:g>
<svg:g style="fill:#000000; fill-opacity:0.0;  stroke:#000000; stroke-width:0.000000; stroke-opacity:1;  stroke-linecap:round; stroke-linejoin:round;">
<svg:g>
</svg:g>
<svg:g>
</svg:g>
<svg:g>
</svg:g>
<svg:g>
</svg:g>
</svg:g> 
</svg:g><svg:g><svg:title>SVG Picture created as kicadBoard-B_Silkscreen.svg date 2022/11/19 04:40:33 </svg:title>
  <svg:desc>Picture generated by PCBNEW </svg:desc>
<svg:g style="fill:#000000; fill-opacity:1.000000;stroke:#000000; stroke-opacity:1.000000; stroke-linecap:round; stroke-linejoin:round;" transform="translate(0 0) scale(1 1)">
</svg:g>
<svg:g style="fill:#000000; fill-opacity:0.0;  stroke:#000000; stroke-width:0.000000; stroke-opacity:1;  stroke-linecap:round; stroke-linejoin:round;">
<svg:g>
</svg:g>
<svg:g>
</svg:g>
<svg:g>
</svg:g>
<svg:g>
</svg:g>
</svg:g>
<svg:g style="fill:#000000; fill-opacity:0.0;  stroke:#000000; stroke-width:0.000000; stroke-opacity:1;  stroke-linecap:round; stroke-linejoin:round;">
<svg:g>
</svg:g>
<svg:g>
</svg:g>
<svg:g>
</svg:g>
<svg:g>
</svg:g>
</svg:g> 
</svg:g><svg:g><svg:title>SVG Picture created as kicadBoard-Edge_Cuts.svg date 2022/11/19 04:40:33 </svg:title>
  <svg:desc>Picture generated by PCBNEW </svg:desc>
<svg:g style="fill:#000000; fill-opacity:1.000000;stroke:#000000; stroke-opacity:1.000000; stroke-linecap:round; stroke-linejoin:round;" transform="translate(0 0) scale(1 1)">
</svg:g>
<svg:g style="fill:#000000; fill-opacity:0.0;  stroke:#000000; stroke-width:0.000000; stroke-opacity:1;  stroke-linecap:round; stroke-linejoin:round;">
<svg:g>
</svg:g>
<svg:g>
</svg:g>
<svg:g>
</svg:g>
<svg:g>
</svg:g>
</svg:g> 
</svg:g><svg:g><svg:title>SVG Picture created as kicadBoard-F_Adhesive.svg date 2022/11/19 04:40:33 </svg:title>
  <svg:desc>Picture generated by PCBNEW </svg:desc>
<svg:g style="fill:#000000; fill-opacity:1.000000;stroke:#000000; stroke-opacity:1.000000; stroke-linecap:round; stroke-linejoin:round;" transform="translate(0 0) scale(1 1)">
</svg:g>
<svg:g style="fill:#000000; fill-opacity:0.0;  stroke:#000000; stroke-width:0.000000; stroke-opacity:1;  stroke-linecap:round; stroke-linejoin:round;">
<svg:g>
</svg:g>
<svg:g>
</svg:g>
<svg:g>
</svg:g>
<svg:g>
</svg:g>
</svg:g>
<svg:g style="fill:#000000; fill-opacity:0.0;  stroke:#000000; stroke-width:0.000000; stroke-opacity:1;  stroke-linecap:round; stroke-linejoin:round;">
<svg:g>
</svg:g>
<svg:g>
</svg:g>
<svg:g>
</svg:g>
<svg:g>
</svg:g>
</svg:g> 
</svg:g><svg:g><svg:title>SVG Picture created as kicadBoard-F_Courtyard.svg date 2022/11/19 04:40:33 </svg:title>
  <svg:desc>Picture generated by PCBNEW </svg:desc>
<svg:g style="fill:#000000; fill-opacity:1.000000;stroke:#000000; stroke-opacity:1.000000; stroke-linecap:round; stroke-linejoin:round;" transform="translate(0 0) scale(1 1)">
</svg:g>
<svg:g style="fill:#000000; fill-opacity:0.0;  stroke:#000000; stroke-width:0.000000; stroke-opacity:1;  stroke-linecap:round; stroke-linejoin:round;">
</svg:g>
<svg:g style="fill:#FF26E2; fill-opacity:0.0;  stroke:#FF26E2; stroke-width:0.000000; stroke-opacity:1;  stroke-linecap:round; stroke-linejoin:round;">
</svg:g>
<svg:g style="fill:#FF26E2; fill-opacity:0.0;  stroke:#FF26E2; stroke-width:50000.000000; stroke-opacity:1;  stroke-linecap:round; stroke-linejoin:round;">
<svg:path d="M52100000 47900000 L47900000 47900000 "/>
<svg:path d="M47900000 47900000 L47900000 52100000 "/>
<svg:path d="M52100000 52100000 L52100000 47900000 "/>
<svg:path d="M47900000 52100000 L52100000 52100000 "/>
<svg:g>
</svg:g>
<svg:g>
</svg:g>
<svg:g>
</svg:g>
<svg:g>
</svg:g>
</svg:g>
<svg:g style="fill:#000000; fill-opacity:0.0;  stroke:#000000; stroke-width:50000.000000; stroke-opacity:1;  stroke-linecap:round; stroke-linejoin:round;">
<svg:g>
</svg:g>
<svg:g>
</svg:g>
<svg:g>
</svg:g>
<svg:g>
</svg:g>
</svg:g> 
</svg:g><svg:g><svg:title>SVG Picture created as kicadBoard-F_Fab.svg date 2022/11/19 04:40:33 </svg:title>
  <svg:desc>Picture generated by PCBNEW </svg:desc>
<svg:g style="fill:#000000; fill-opacity:1.000000;stroke:#000000; stroke-opacity:1.000000; stroke-linecap:round; stroke-linejoin:round;" transform="translate(0 0) scale(1 1)">
</svg:g>
<svg:g style="fill:#000000; fill-opacity:0.0;  stroke:#000000; stroke-width:0.000000; stroke-opacity:1;  stroke-linecap:round; stroke-linejoin:round;">
</svg:g>
<svg:g style="fill:#AFAFAF; fill-opacity:0.0;  stroke:#AFAFAF; stroke-width:0.000000; stroke-opacity:1;  stroke-linecap:round; stroke-linejoin:round;">
</svg:g>
<svg:g style="fill:#AFAFAF; fill-opacity:0.0;  stroke:#AFAFAF; stroke-width:150000.000000; stroke-opacity:1;  stroke-linecap:round; stroke-linejoin:round;">
<svg:text x="50000000.000000" y="53300000.000000" textLength="34242619.000000" font-size="1333333.000000" lengthAdjust="spacingAndGlyphs" text-anchor="middle" opacity="0">QFN-16-1EP_3x3mm_P0.5mm_EP1.9x1.9mm</svg:text>
<svg:g class="stroked-text"><svg:desc>QFN-16-1EP_3x3mm_P0.5mm_EP1.9x1.9mm</svg:desc>
<svg:path d="M33880952 53347619 L33785714 53300000 L33690476 53204761 L33547619 53061904 L33452380 53014285 L33357142 53014285 "/>
<svg:path d="M33404761 53252380 L33309523 53204761 L33214285 53109523 L33166666 52919047 L33166666 52585714 L33214285 52395238 L33309523 52300000 L33404761 52252380 L33595238 52252380 L33690476 52300000 L33785714 52395238 L33833333 52585714 L33833333 52919047 L33785714 53109523 L33690476 53204761 L33595238 53252380 L33404761 53252380 "/>
<svg:path d="M34595238 52728571 L34261904 52728571 "/>
<svg:path d="M34261904 53252380 L34261904 52252380 L34738095 52252380 "/>
<svg:path d="M35119047 53252380 L35119047 52252380 L35690476 53252380 L35690476 52252380 "/>
<svg:path d="M36166666 52871428 L36928571 52871428 "/>
<svg:path d="M37928571 53252380 L37357142 53252380 "/>
<svg:path d="M37642857 53252380 L37642857 52252380 L37547619 52395238 L37452380 52490476 L37357142 52538095 "/>
<svg:path d="M38785714 52252380 L38595238 52252380 L38500000 52300000 L38452380 52347619 L38357142 52490476 L38309523 52680952 L38309523 53061904 L38357142 53157142 L38404761 53204761 L38500000 53252380 L38690476 53252380 L38785714 53204761 L38833333 53157142 L38880952 53061904 L38880952 52823809 L38833333 52728571 L38785714 52680952 L38690476 52633333 L38500000 52633333 L38404761 52680952 L38357142 52728571 L38309523 52823809 "/>
<svg:path d="M39309523 52871428 L40071428 52871428 "/>
<svg:path d="M41071428 53252380 L40500000 53252380 "/>
<svg:path d="M40785714 53252380 L40785714 52252380 L40690476 52395238 L40595238 52490476 L40500000 52538095 "/>
<svg:path d="M41500000 52728571 L41833333 52728571 "/>
<svg:path d="M41976190 53252380 L41500000 53252380 L41500000 52252380 L41976190 52252380 "/>
<svg:path d="M42404761 53252380 L42404761 52252380 L42785714 52252380 L42880952 52300000 L42928571 52347619 L42976190 52442857 L42976190 52585714 L42928571 52680952 L42880952 52728571 L42785714 52776190 L42404761 52776190 "/>
<svg:path d="M43166666 53347619 L43928571 53347619 "/>
<svg:path d="M44071428 52252380 L44690476 52252380 L44357142 52633333 L44500000 52633333 L44595238 52680952 L44642857 52728571 L44690476 52823809 L44690476 53061904 L44642857 53157142 L44595238 53204761 L44500000 53252380 L44214285 53252380 L44119047 53204761 L44071428 53157142 "/>
<svg:path d="M45023809 53252380 L45547619 52585714 "/>
<svg:path d="M45023809 52585714 L45547619 53252380 "/>
<svg:path d="M45833333 52252380 L46452380 52252380 L46119047 52633333 L46261904 52633333 L46357142 52680952 L46404761 52728571 L46452380 52823809 L46452380 53061904 L46404761 53157142 L46357142 53204761 L46261904 53252380 L45976190 53252380 L45880952 53204761 L45833333 53157142 "/>
<svg:path d="M46880952 53252380 L46880952 52585714 "/>
<svg:path d="M46880952 52680952 L46928571 52633333 L47023809 52585714 L47166666 52585714 L47261904 52633333 L47309523 52728571 L47309523 53252380 "/>
<svg:path d="M47309523 52728571 L47357142 52633333 L47452380 52585714 L47595238 52585714 L47690476 52633333 L47738095 52728571 L47738095 53252380 "/>
<svg:path d="M48214285 53252380 L48214285 52585714 "/>
<svg:path d="M48214285 52680952 L48261904 52633333 L48357142 52585714 L48500000 52585714 L48595238 52633333 L48642857 52728571 L48642857 53252380 "/>
<svg:path d="M48642857 52728571 L48690476 52633333 L48785714 52585714 L48928571 52585714 L49023809 52633333 L49071428 52728571 L49071428 53252380 "/>
<svg:path d="M49309523 53347619 L50071428 53347619 "/>
<svg:path d="M50309523 53252380 L50309523 52252380 L50690476 52252380 L50785714 52300000 L50833333 52347619 L50880952 52442857 L50880952 52585714 L50833333 52680952 L50785714 52728571 L50690476 52776190 L50309523 52776190 "/>
<svg:path d="M51500000 52252380 L51595238 52252380 L51690476 52300000 L51738095 52347619 L51785714 52442857 L51833333 52633333 L51833333 52871428 L51785714 53061904 L51738095 53157142 L51690476 53204761 L51595238 53252380 L51500000 53252380 L51404761 53204761 L51357142 53157142 L51309523 53061904 L51261904 52871428 L51261904 52633333 L51309523 52442857 L51357142 52347619 L51404761 52300000 L51500000 52252380 "/>
<svg:path d="M52261904 53157142 L52309523 53204761 L52261904 53252380 L52214285 53204761 L52261904 53157142 L52261904 53252380 "/>
<svg:path d="M53214285 52252380 L52738095 52252380 L52690476 52728571 L52738095 52680952 L52833333 52633333 L53071428 52633333 L53166666 52680952 L53214285 52728571 L53261904 52823809 L53261904 53061904 L53214285 53157142 L53166666 53204761 L53071428 53252380 L52833333 53252380 L52738095 53204761 L52690476 53157142 "/>
<svg:path d="M53690476 53252380 L53690476 52585714 "/>
<svg:path d="M53690476 52680952 L53738095 52633333 L53833333 52585714 L53976190 52585714 L54071428 52633333 L54119047 52728571 L54119047 53252380 "/>
<svg:path d="M54119047 52728571 L54166666 52633333 L54261904 52585714 L54404761 52585714 L54500000 52633333 L54547619 52728571 L54547619 53252380 "/>
<svg:path d="M55023809 53252380 L55023809 52585714 "/>
<svg:path d="M55023809 52680952 L55071428 52633333 L55166666 52585714 L55309523 52585714 L55404761 52633333 L55452380 52728571 L55452380 53252380 "/>
<svg:path d="M55452380 52728571 L55499999 52633333 L55595238 52585714 L55738095 52585714 L55833333 52633333 L55880952 52728571 L55880952 53252380 "/>
<svg:path d="M56119047 53347619 L56880952 53347619 "/>
<svg:path d="M57119047 52728571 L57452380 52728571 "/>
<svg:path d="M57595238 53252380 L57119047 53252380 L57119047 52252380 L57595238 52252380 "/>
<svg:path d="M58023809 53252380 L58023809 52252380 L58404761 52252380 L58499999 52300000 L58547619 52347619 L58595238 52442857 L58595238 52585714 L58547619 52680952 L58499999 52728571 L58404761 52776190 L58023809 52776190 "/>
<svg:path d="M59547619 53252380 L58976190 53252380 "/>
<svg:path d="M59261904 53252380 L59261904 52252380 L59166666 52395238 L59071428 52490476 L58976190 52538095 "/>
<svg:path d="M59976190 53157142 L60023809 53204761 L59976190 53252380 L59928571 53204761 L59976190 53157142 L59976190 53252380 "/>
<svg:path d="M60499999 53252380 L60690476 53252380 L60785714 53204761 L60833333 53157142 L60928571 53014285 L60976190 52823809 L60976190 52442857 L60928571 52347619 L60880952 52300000 L60785714 52252380 L60595238 52252380 L60499999 52300000 L60452380 52347619 L60404761 52442857 L60404761 52680952 L60452380 52776190 L60499999 52823809 L60595238 52871428 L60785714 52871428 L60880952 52823809 L60928571 52776190 L60976190 52680952 "/>
<svg:path d="M61309523 53252380 L61833333 52585714 "/>
<svg:path d="M61309523 52585714 L61833333 53252380 "/>
<svg:path d="M62738095 53252380 L62166666 53252380 "/>
<svg:path d="M62452380 53252380 L62452380 52252380 L62357142 52395238 L62261904 52490476 L62166666 52538095 "/>
<svg:path d="M63166666 53157142 L63214285 53204761 L63166666 53252380 L63119047 53204761 L63166666 53157142 L63166666 53252380 "/>
<svg:path d="M63690476 53252380 L63880952 53252380 L63976190 53204761 L64023809 53157142 L64119047 53014285 L64166666 52823809 L64166666 52442857 L64119047 52347619 L64071428 52300000 L63976190 52252380 L63785714 52252380 L63690476 52300000 L63642857 52347619 L63595238 52442857 L63595238 52680952 L63642857 52776190 L63690476 52823809 L63785714 52871428 L63976190 52871428 L64071428 52823809 L64119047 52776190 L64166666 52680952 "/>
<svg:path d="M64595238 53252380 L64595238 52585714 "/>
<svg:path d="M64595238 52680952 L64642857 52633333 L64738095 52585714 L64880952 52585714 L64976190 52633333 L65023809 52728571 L65023809 53252380 "/>
<svg:path d="M65023809 52728571 L65071428 52633333 L65166666 52585714 L65309523 52585714 L65404761 52633333 L65452380 52728571 L65452380 53252380 "/>
<svg:path d="M65928571 53252380 L65928571 52585714 "/>
<svg:path d="M65928571 52680952 L65976190 52633333 L66071428 52585714 L66214285 52585714 L66309523 52633333 L66357142 52728571 L66357142 53252380 "/>
<svg:path d="M66357142 52728571 L66404761 52633333 L66499999 52585714 L66642857 52585714 L66738095 52633333 L66785714 52728571 L66785714 53252380 "/>
</svg:g></svg:g>
<svg:g style="fill:#AFAFAF; fill-opacity:0.0;  stroke:#AFAFAF; stroke-width:110000.000000; stroke-opacity:1;  stroke-linecap:round; stroke-linejoin:round;">
<svg:text x="50000000.000000" y="50375000.000000" textLength="18873571.000000" font-size="1000000.000000" lengthAdjust="spacingAndGlyphs" text-anchor="middle" opacity="0">FZKDFNQFN161EP3X3P5EP19X19</svg:text>
<svg:g class="stroked-text"><svg:desc>FZKDFNQFN161EP3X3P5EP19X19</svg:desc>
<svg:path d="M41089285 49946428 L40839285 49946428 "/>
<svg:path d="M40839285 50339285 L40839285 49589285 L41196428 49589285 "/>
<svg:path d="M41410714 49589285 L41910714 49589285 L41410714 50339285 L41910714 50339285 "/>
<svg:path d="M42196428 50339285 L42196428 49589285 "/>
<svg:path d="M42625000 50339285 L42303571 49910714 "/>
<svg:path d="M42625000 49589285 L42196428 50017857 "/>
<svg:path d="M42946428 50339285 L42946428 49589285 L43125000 49589285 L43232142 49625000 L43303571 49696428 L43339285 49767857 L43375000 49910714 L43375000 50017857 L43339285 50160714 L43303571 50232142 L43232142 50303571 L43125000 50339285 L42946428 50339285 "/>
<svg:path d="M43946428 49946428 L43696428 49946428 "/>
<svg:path d="M43696428 50339285 L43696428 49589285 L44053571 49589285 "/>
<svg:path d="M44339285 50339285 L44339285 49589285 L44767857 50339285 L44767857 49589285 "/>
<svg:path d="M45625000 50410714 L45553571 50375000 L45482142 50303571 L45375000 50196428 L45303571 50160714 L45232142 50160714 "/>
<svg:path d="M45267857 50339285 L45196428 50303571 L45125000 50232142 L45089285 50089285 L45089285 49839285 L45125000 49696428 L45196428 49625000 L45267857 49589285 L45410714 49589285 L45482142 49625000 L45553571 49696428 L45589285 49839285 L45589285 50089285 L45553571 50232142 L45482142 50303571 L45410714 50339285 L45267857 50339285 "/>
<svg:path d="M46160714 49946428 L45910714 49946428 "/>
<svg:path d="M45910714 50339285 L45910714 49589285 L46267857 49589285 "/>
<svg:path d="M46553571 50339285 L46553571 49589285 L46982142 50339285 L46982142 49589285 "/>
<svg:path d="M47732142 50339285 L47303571 50339285 "/>
<svg:path d="M47517857 50339285 L47517857 49589285 L47446428 49696428 L47375000 49767857 L47303571 49803571 "/>
<svg:path d="M48375000 49589285 L48232142 49589285 L48160714 49625000 L48125000 49660714 L48053571 49767857 L48017857 49910714 L48017857 50196428 L48053571 50267857 L48089285 50303571 L48160714 50339285 L48303571 50339285 L48375000 50303571 L48410714 50267857 L48446428 50196428 L48446428 50017857 L48410714 49946428 L48375000 49910714 L48303571 49875000 L48160714 49875000 L48089285 49910714 L48053571 49946428 L48017857 50017857 "/>
<svg:path d="M49160714 50339285 L48732142 50339285 "/>
<svg:path d="M48946428 50339285 L48946428 49589285 L48875000 49696428 L48803571 49767857 L48732142 49803571 "/>
<svg:path d="M49482142 49946428 L49732142 49946428 "/>
<svg:path d="M49839285 50339285 L49482142 50339285 L49482142 49589285 L49839285 49589285 "/>
<svg:path d="M50160714 50339285 L50160714 49589285 L50446428 49589285 L50517857 49625000 L50553571 49660714 L50589285 49732142 L50589285 49839285 L50553571 49910714 L50517857 49946428 L50446428 49982142 L50160714 49982142 "/>
<svg:path d="M50839285 49589285 L51303571 49589285 L51053571 49875000 L51160714 49875000 L51232142 49910714 L51267857 49946428 L51303571 50017857 L51303571 50196428 L51267857 50267857 L51232142 50303571 L51160714 50339285 L50946428 50339285 L50875000 50303571 L50839285 50267857 "/>
<svg:path d="M51553571 49589285 L52053571 50339285 "/>
<svg:path d="M52053571 49589285 L51553571 50339285 "/>
<svg:path d="M52267857 49589285 L52732142 49589285 L52482142 49875000 L52589285 49875000 L52660714 49910714 L52696428 49946428 L52732142 50017857 L52732142 50196428 L52696428 50267857 L52660714 50303571 L52589285 50339285 L52375000 50339285 L52303571 50303571 L52267857 50267857 "/>
<svg:path d="M53053571 50339285 L53053571 49589285 L53339285 49589285 L53410714 49625000 L53446428 49660714 L53482142 49732142 L53482142 49839285 L53446428 49910714 L53410714 49946428 L53339285 49982142 L53053571 49982142 "/>
<svg:path d="M54160714 49589285 L53803571 49589285 L53767857 49946428 L53803571 49910714 L53875000 49875000 L54053571 49875000 L54125000 49910714 L54160714 49946428 L54196428 50017857 L54196428 50196428 L54160714 50267857 L54125000 50303571 L54053571 50339285 L53875000 50339285 L53803571 50303571 L53767857 50267857 "/>
<svg:path d="M54517857 49946428 L54767857 49946428 "/>
<svg:path d="M54875000 50339285 L54517857 50339285 L54517857 49589285 L54875000 49589285 "/>
<svg:path d="M55196428 50339285 L55196428 49589285 L55482142 49589285 L55553571 49625000 L55589285 49660714 L55625000 49732142 L55625000 49839285 L55589285 49910714 L55553571 49946428 L55482142 49982142 L55196428 49982142 "/>
<svg:path d="M56339285 50339285 L55910714 50339285 "/>
<svg:path d="M56125000 50339285 L56125000 49589285 L56053571 49696428 L55982142 49767857 L55910714 49803571 "/>
<svg:path d="M56696428 50339285 L56839285 50339285 L56910714 50303571 L56946428 50267857 L57017857 50160714 L57053571 50017857 L57053571 49732142 L57017857 49660714 L56982142 49625000 L56910714 49589285 L56767857 49589285 L56696428 49625000 L56660714 49660714 L56625000 49732142 L56625000 49910714 L56660714 49982142 L56696428 50017857 L56767857 50053571 L56910714 50053571 L56982142 50017857 L57017857 49982142 L57053571 49910714 "/>
<svg:path d="M57303571 49589285 L57803571 50339285 "/>
<svg:path d="M57803571 49589285 L57303571 50339285 "/>
<svg:path d="M58482142 50339285 L58053571 50339285 "/>
<svg:path d="M58267857 50339285 L58267857 49589285 L58196428 49696428 L58125000 49767857 L58053571 49803571 "/>
<svg:path d="M58839285 50339285 L58982142 50339285 L59053571 50303571 L59089285 50267857 L59160714 50160714 L59196428 50017857 L59196428 49732142 L59160714 49660714 L59125000 49625000 L59053571 49589285 L58910714 49589285 L58839285 49625000 L58803571 49660714 L58767857 49732142 L58767857 49910714 L58803571 49982142 L58839285 50017857 L58910714 50053571 L59053571 50053571 L59125000 50017857 L59160714 49982142 L59196428 49910714 "/>
</svg:g></svg:g>
<svg:g style="fill:#AFAFAF; fill-opacity:0.0;  stroke:#AFAFAF; stroke-width:100000.000000; stroke-opacity:1;  stroke-linecap:round; stroke-linejoin:round;">
<svg:path d="M48500000 49250000 L49250000 48500000 "/>
<svg:path d="M48500000 51500000 L48500000 49250000 "/>
<svg:path d="M51500000 51500000 L48500000 51500000 "/>
<svg:path d="M51500000 48500000 L51500000 51500000 "/>
<svg:path d="M49250000 48500000 L51500000 48500000 "/>
<svg:g>
</svg:g>
<svg:g>
</svg:g>
<svg:g>
</svg:g>
<svg:g>
</svg:g>
</svg:g>
<svg:g style="fill:#000000; fill-opacity:0.0;  stroke:#000000; stroke-width:100000.000000; stroke-opacity:1;  stroke-linecap:round; stroke-linejoin:round;">
<svg:g>
</svg:g>
<svg:g>
</svg:g>
<svg:g>
</svg:g>
<svg:g>
</svg:g>
</svg:g> 
</svg:g><svg:g><svg:title>SVG Picture created as kicadBoard-F_Mask.svg date 2022/11/19 04:40:33 </svg:title>
  <svg:desc>Picture generated by PCBNEW </svg:desc>
<svg:g style="fill:#000000; fill-opacity:1.000000;stroke:#000000; stroke-opacity:1.000000; stroke-linecap:round; stroke-linejoin:round;" transform="translate(0 0) scale(1 1)">
</svg:g>
<svg:g style="fill:#000000; fill-opacity:0.0;  stroke:#000000; stroke-width:0.000000; stroke-opacity:1;  stroke-linecap:round; stroke-linejoin:round;">
<svg:g>
</svg:g>
<svg:g style="fill:#000000; fill-opacity:0.0;  stroke:#000000; stroke-width:1.000000; stroke-opacity:1;  stroke-linecap:round; stroke-linejoin:round;">
</svg:g>
<svg:g style="fill:#000000; fill-opacity:1.0;  stroke:#000000; stroke-width:1.000000; stroke-opacity:1;  stroke-linecap:round; stroke-linejoin:round;">
<svg:path style="fill:#000000; fill-opacity:1.0;  stroke:#000000; stroke-width:1.000000; stroke-opacity:1;  stroke-linecap:round; stroke-linejoin:round;fill-rule:evenodd;" d="M 48150000.000000,49187500.000000 48154758.000000,49163582.000000 48168306.000000,49143306.000000 48188582.000000,49129758.000000 48212500.000000,49125000.000000 48762500.000000,49125000.000000 48786418.000000,49129758.000000 48806694.000000,49143306.000000 48820242.000000,49163582.000000 48825000.000000,49187500.000000 48825000.000000,49312500.000000 48820242.000000,49336418.000000 48806694.000000,49356694.000000 48786418.000000,49370242.000000 48762500.000000,49375000.000000 48212500.000000,49375000.000000 48188582.000000,49370242.000000 48168306.000000,49356694.000000 48154758.000000,49336418.000000 48150000.000000,49312500.000000 Z"/> 
<svg:path style="fill:#000000; fill-opacity:1.0;  stroke:#000000; stroke-width:1.000000; stroke-opacity:1;  stroke-linecap:round; stroke-linejoin:round;fill-rule:evenodd;" d="M 48150000.000000,49687500.000000 48154758.000000,49663582.000000 48168306.000000,49643306.000000 48188582.000000,49629758.000000 48212500.000000,49625000.000000 48762500.000000,49625000.000000 48786418.000000,49629758.000000 48806694.000000,49643306.000000 48820242.000000,49663582.000000 48825000.000000,49687500.000000 48825000.000000,49812500.000000 48820242.000000,49836418.000000 48806694.000000,49856694.000000 48786418.000000,49870242.000000 48762500.000000,49875000.000000 48212500.000000,49875000.000000 48188582.000000,49870242.000000 48168306.000000,49856694.000000 48154758.000000,49836418.000000 48150000.000000,49812500.000000 Z"/> 
<svg:path style="fill:#000000; fill-opacity:1.0;  stroke:#000000; stroke-width:1.000000; stroke-opacity:1;  stroke-linecap:round; stroke-linejoin:round;fill-rule:evenodd;" d="M 48150000.000000,50187500.000000 48154758.000000,50163582.000000 48168306.000000,50143306.000000 48188582.000000,50129758.000000 48212500.000000,50125000.000000 48762500.000000,50125000.000000 48786418.000000,50129758.000000 48806694.000000,50143306.000000 48820242.000000,50163582.000000 48825000.000000,50187500.000000 48825000.000000,50312500.000000 48820242.000000,50336418.000000 48806694.000000,50356694.000000 48786418.000000,50370242.000000 48762500.000000,50375000.000000 48212500.000000,50375000.000000 48188582.000000,50370242.000000 48168306.000000,50356694.000000 48154758.000000,50336418.000000 48150000.000000,50312500.000000 Z"/> 
<svg:path style="fill:#000000; fill-opacity:1.0;  stroke:#000000; stroke-width:1.000000; stroke-opacity:1;  stroke-linecap:round; stroke-linejoin:round;fill-rule:evenodd;" d="M 48150000.000000,50687500.000000 48154758.000000,50663582.000000 48168306.000000,50643306.000000 48188582.000000,50629758.000000 48212500.000000,50625000.000000 48762500.000000,50625000.000000 48786418.000000,50629758.000000 48806694.000000,50643306.000000 48820242.000000,50663582.000000 48825000.000000,50687500.000000 48825000.000000,50812500.000000 48820242.000000,50836418.000000 48806694.000000,50856694.000000 48786418.000000,50870242.000000 48762500.000000,50875000.000000 48212500.000000,50875000.000000 48188582.000000,50870242.000000 48168306.000000,50856694.000000 48154758.000000,50836418.000000 48150000.000000,50812500.000000 Z"/> 
<svg:path style="fill:#000000; fill-opacity:1.0;  stroke:#000000; stroke-width:1.000000; stroke-opacity:1;  stroke-linecap:round; stroke-linejoin:round;fill-rule:evenodd;" d="M 49125000.000000,51237500.000000 49129758.000000,51213582.000000 49143306.000000,51193306.000000 49163582.000000,51179758.000000 49187500.000000,51175000.000000 49312500.000000,51175000.000000 49336418.000000,51179758.000000 49356694.000000,51193306.000000 49370242.000000,51213582.000000 49375000.000000,51237500.000000 49375000.000000,51787500.000000 49370242.000000,51811418.000000 49356694.000000,51831694.000000 49336418.000000,51845242.000000 49312500.000000,51850000.000000 49187500.000000,51850000.000000 49163582.000000,51845242.000000 49143306.000000,51831694.000000 49129758.000000,51811418.000000 49125000.000000,51787500.000000 Z"/> 
<svg:path style="fill:#000000; fill-opacity:1.0;  stroke:#000000; stroke-width:1.000000; stroke-opacity:1;  stroke-linecap:round; stroke-linejoin:round;fill-rule:evenodd;" d="M 49625000.000000,51237500.000000 49629758.000000,51213582.000000 49643306.000000,51193306.000000 49663582.000000,51179758.000000 49687500.000000,51175000.000000 49812500.000000,51175000.000000 49836418.000000,51179758.000000 49856694.000000,51193306.000000 49870242.000000,51213582.000000 49875000.000000,51237500.000000 49875000.000000,51787500.000000 49870242.000000,51811418.000000 49856694.000000,51831694.000000 49836418.000000,51845242.000000 49812500.000000,51850000.000000 49687500.000000,51850000.000000 49663582.000000,51845242.000000 49643306.000000,51831694.000000 49629758.000000,51811418.000000 49625000.000000,51787500.000000 Z"/> 
<svg:path style="fill:#000000; fill-opacity:1.0;  stroke:#000000; stroke-width:1.000000; stroke-opacity:1;  stroke-linecap:round; stroke-linejoin:round;fill-rule:evenodd;" d="M 50125000.000000,51237500.000000 50129758.000000,51213582.000000 50143306.000000,51193306.000000 50163582.000000,51179758.000000 50187500.000000,51175000.000000 50312500.000000,51175000.000000 50336418.000000,51179758.000000 50356694.000000,51193306.000000 50370242.000000,51213582.000000 50375000.000000,51237500.000000 50375000.000000,51787500.000000 50370242.000000,51811418.000000 50356694.000000,51831694.000000 50336418.000000,51845242.000000 50312500.000000,51850000.000000 50187500.000000,51850000.000000 50163582.000000,51845242.000000 50143306.000000,51831694.000000 50129758.000000,51811418.000000 50125000.000000,51787500.000000 Z"/> 
<svg:path style="fill:#000000; fill-opacity:1.0;  stroke:#000000; stroke-width:1.000000; stroke-opacity:1;  stroke-linecap:round; stroke-linejoin:round;fill-rule:evenodd;" d="M 50625000.000000,51237500.000000 50629758.000000,51213582.000000 50643306.000000,51193306.000000 50663582.000000,51179758.000000 50687500.000000,51175000.000000 50812500.000000,51175000.000000 50836418.000000,51179758.000000 50856694.000000,51193306.000000 50870242.000000,51213582.000000 50875000.000000,51237500.000000 50875000.000000,51787500.000000 50870242.000000,51811418.000000 50856694.000000,51831694.000000 50836418.000000,51845242.000000 50812500.000000,51850000.000000 50687500.000000,51850000.000000 50663582.000000,51845242.000000 50643306.000000,51831694.000000 50629758.000000,51811418.000000 50625000.000000,51787500.000000 Z"/> 
<svg:path style="fill:#000000; fill-opacity:1.0;  stroke:#000000; stroke-width:1.000000; stroke-opacity:1;  stroke-linecap:round; stroke-linejoin:round;fill-rule:evenodd;" d="M 51175000.000000,50687500.000000 51179758.000000,50663582.000000 51193306.000000,50643306.000000 51213582.000000,50629758.000000 51237500.000000,50625000.000000 51787500.000000,50625000.000000 51811418.000000,50629758.000000 51831694.000000,50643306.000000 51845242.000000,50663582.000000 51850000.000000,50687500.000000 51850000.000000,50812500.000000 51845242.000000,50836418.000000 51831694.000000,50856694.000000 51811418.000000,50870242.000000 51787500.000000,50875000.000000 51237500.000000,50875000.000000 51213582.000000,50870242.000000 51193306.000000,50856694.000000 51179758.000000,50836418.000000 51175000.000000,50812500.000000 Z"/> 
<svg:path style="fill:#000000; fill-opacity:1.0;  stroke:#000000; stroke-width:1.000000; stroke-opacity:1;  stroke-linecap:round; stroke-linejoin:round;fill-rule:evenodd;" d="M 51175000.000000,50187500.000000 51179758.000000,50163582.000000 51193306.000000,50143306.000000 51213582.000000,50129758.000000 51237500.000000,50125000.000000 51787500.000000,50125000.000000 51811418.000000,50129758.000000 51831694.000000,50143306.000000 51845242.000000,50163582.000000 51850000.000000,50187500.000000 51850000.000000,50312500.000000 51845242.000000,50336418.000000 51831694.000000,50356694.000000 51811418.000000,50370242.000000 51787500.000000,50375000.000000 51237500.000000,50375000.000000 51213582.000000,50370242.000000 51193306.000000,50356694.000000 51179758.000000,50336418.000000 51175000.000000,50312500.000000 Z"/> 
<svg:path style="fill:#000000; fill-opacity:1.0;  stroke:#000000; stroke-width:1.000000; stroke-opacity:1;  stroke-linecap:round; stroke-linejoin:round;fill-rule:evenodd;" d="M 51175000.000000,49687500.000000 51179758.000000,49663582.000000 51193306.000000,49643306.000000 51213582.000000,49629758.000000 51237500.000000,49625000.000000 51787500.000000,49625000.000000 51811418.000000,49629758.000000 51831694.000000,49643306.000000 51845242.000000,49663582.000000 51850000.000000,49687500.000000 51850000.000000,49812500.000000 51845242.000000,49836418.000000 51831694.000000,49856694.000000 51811418.000000,49870242.000000 51787500.000000,49875000.000000 51237500.000000,49875000.000000 51213582.000000,49870242.000000 51193306.000000,49856694.000000 51179758.000000,49836418.000000 51175000.000000,49812500.000000 Z"/> 
<svg:path style="fill:#000000; fill-opacity:1.0;  stroke:#000000; stroke-width:1.000000; stroke-opacity:1;  stroke-linecap:round; stroke-linejoin:round;fill-rule:evenodd;" d="M 51175000.000000,49187500.000000 51179758.000000,49163582.000000 51193306.000000,49143306.000000 51213582.000000,49129758.000000 51237500.000000,49125000.000000 51787500.000000,49125000.000000 51811418.000000,49129758.000000 51831694.000000,49143306.000000 51845242.000000,49163582.000000 51850000.000000,49187500.000000 51850000.000000,49312500.000000 51845242.000000,49336418.000000 51831694.000000,49356694.000000 51811418.000000,49370242.000000 51787500.000000,49375000.000000 51237500.000000,49375000.000000 51213582.000000,49370242.000000 51193306.000000,49356694.000000 51179758.000000,49336418.000000 51175000.000000,49312500.000000 Z"/> 
<svg:path style="fill:#000000; fill-opacity:1.0;  stroke:#000000; stroke-width:1.000000; stroke-opacity:1;  stroke-linecap:round; stroke-linejoin:round;fill-rule:evenodd;" d="M 50625000.000000,48212500.000000 50629758.000000,48188582.000000 50643306.000000,48168306.000000 50663582.000000,48154758.000000 50687500.000000,48150000.000000 50812500.000000,48150000.000000 50836418.000000,48154758.000000 50856694.000000,48168306.000000 50870242.000000,48188582.000000 50875000.000000,48212500.000000 50875000.000000,48762500.000000 50870242.000000,48786418.000000 50856694.000000,48806694.000000 50836418.000000,48820242.000000 50812500.000000,48825000.000000 50687500.000000,48825000.000000 50663582.000000,48820242.000000 50643306.000000,48806694.000000 50629758.000000,48786418.000000 50625000.000000,48762500.000000 Z"/> 
<svg:path style="fill:#000000; fill-opacity:1.0;  stroke:#000000; stroke-width:1.000000; stroke-opacity:1;  stroke-linecap:round; stroke-linejoin:round;fill-rule:evenodd;" d="M 50125000.000000,48212500.000000 50129758.000000,48188582.000000 50143306.000000,48168306.000000 50163582.000000,48154758.000000 50187500.000000,48150000.000000 50312500.000000,48150000.000000 50336418.000000,48154758.000000 50356694.000000,48168306.000000 50370242.000000,48188582.000000 50375000.000000,48212500.000000 50375000.000000,48762500.000000 50370242.000000,48786418.000000 50356694.000000,48806694.000000 50336418.000000,48820242.000000 50312500.000000,48825000.000000 50187500.000000,48825000.000000 50163582.000000,48820242.000000 50143306.000000,48806694.000000 50129758.000000,48786418.000000 50125000.000000,48762500.000000 Z"/> 
<svg:path style="fill:#000000; fill-opacity:1.0;  stroke:#000000; stroke-width:1.000000; stroke-opacity:1;  stroke-linecap:round; stroke-linejoin:round;fill-rule:evenodd;" d="M 49625000.000000,48212500.000000 49629758.000000,48188582.000000 49643306.000000,48168306.000000 49663582.000000,48154758.000000 49687500.000000,48150000.000000 49812500.000000,48150000.000000 49836418.000000,48154758.000000 49856694.000000,48168306.000000 49870242.000000,48188582.000000 49875000.000000,48212500.000000 49875000.000000,48762500.000000 49870242.000000,48786418.000000 49856694.000000,48806694.000000 49836418.000000,48820242.000000 49812500.000000,48825000.000000 49687500.000000,48825000.000000 49663582.000000,48820242.000000 49643306.000000,48806694.000000 49629758.000000,48786418.000000 49625000.000000,48762500.000000 Z"/> 
<svg:path style="fill:#000000; fill-opacity:1.0;  stroke:#000000; stroke-width:1.000000; stroke-opacity:1;  stroke-linecap:round; stroke-linejoin:round;fill-rule:evenodd;" d="M 49125000.000000,48212500.000000 49129758.000000,48188582.000000 49143306.000000,48168306.000000 49163582.000000,48154758.000000 49187500.000000,48150000.000000 49312500.000000,48150000.000000 49336418.000000,48154758.000000 49356694.000000,48168306.000000 49370242.000000,48188582.000000 49375000.000000,48212500.000000 49375000.000000,48762500.000000 49370242.000000,48786418.000000 49356694.000000,48806694.000000 49336418.000000,48820242.000000 49312500.000000,48825000.000000 49187500.000000,48825000.000000 49163582.000000,48820242.000000 49143306.000000,48806694.000000 49129758.000000,48786418.000000 49125000.000000,48762500.000000 Z"/> 
<svg:path style="fill:#000000; fill-opacity:1.0;  stroke:#000000; stroke-width:1.000000; stroke-opacity:1;  stroke-linecap:round; stroke-linejoin:round;fill-rule:evenodd;" d="M 49050000.000000,50950000.000000 49050000.000000,49050000.000000 50950000.000000,49050000.000000 50950000.000000,50950000.000000 Z"/> 
</svg:g>
<svg:g>
</svg:g>
<svg:g>
</svg:g>
<svg:g>
</svg:g>
</svg:g>
<svg:g style="fill:#000000; fill-opacity:1.0;  stroke:#000000; stroke-width:1.000000; stroke-opacity:1;  stroke-linecap:round; stroke-linejoin:round;">
<svg:g>
</svg:g>
<svg:g>
</svg:g>
<svg:g>
</svg:g>
<svg:g>
</svg:g>
</svg:g> 
</svg:g><svg:g><svg:title>SVG Picture created as kicadBoard-F_Paste.svg date 2022/11/19 04:40:33 </svg:title>
  <svg:desc>Picture generated by PCBNEW </svg:desc>
<svg:g style="fill:#000000; fill-opacity:1.000000;stroke:#000000; stroke-opacity:1.000000; stroke-linecap:round; stroke-linejoin:round;" transform="translate(0 0) scale(1 1)">
</svg:g>
<svg:g style="fill:#000000; fill-opacity:0.0;  stroke:#000000; stroke-width:0.000000; stroke-opacity:1;  stroke-linecap:round; stroke-linejoin:round;">
<svg:g>
</svg:g>
<svg:g style="fill:#000000; fill-opacity:0.0;  stroke:#000000; stroke-width:1.000000; stroke-opacity:1;  stroke-linecap:round; stroke-linejoin:round;">
</svg:g>
<svg:g style="fill:#000000; fill-opacity:1.0;  stroke:#000000; stroke-width:1.000000; stroke-opacity:1;  stroke-linecap:round; stroke-linejoin:round;">
<svg:path style="fill:#000000; fill-opacity:1.0;  stroke:#000000; stroke-width:1.000000; stroke-opacity:1;  stroke-linecap:round; stroke-linejoin:round;fill-rule:evenodd;" d="M 49140000.000000,49332500.000000 49154653.000000,49258833.000000 49196382.000000,49196382.000000 49258833.000000,49154653.000000 49332500.000000,49140000.000000 49717500.000000,49140000.000000 49791167.000000,49154653.000000 49853618.000000,49196382.000000 49895347.000000,49258833.000000 49910000.000000,49332500.000000 49910000.000000,49717500.000000 49895347.000000,49791167.000000 49853618.000000,49853618.000000 49791167.000000,49895347.000000 49717500.000000,49910000.000000 49332500.000000,49910000.000000 49258833.000000,49895347.000000 49196382.000000,49853618.000000 49154653.000000,49791167.000000 49140000.000000,49717500.000000 Z"/> 
<svg:path style="fill:#000000; fill-opacity:1.0;  stroke:#000000; stroke-width:1.000000; stroke-opacity:1;  stroke-linecap:round; stroke-linejoin:round;fill-rule:evenodd;" d="M 49140000.000000,50282500.000000 49154653.000000,50208833.000000 49196382.000000,50146382.000000 49258833.000000,50104653.000000 49332500.000000,50090000.000000 49717500.000000,50090000.000000 49791167.000000,50104653.000000 49853618.000000,50146382.000000 49895347.000000,50208833.000000 49910000.000000,50282500.000000 49910000.000000,50667500.000000 49895347.000000,50741167.000000 49853618.000000,50803618.000000 49791167.000000,50845347.000000 49717500.000000,50860000.000000 49332500.000000,50860000.000000 49258833.000000,50845347.000000 49196382.000000,50803618.000000 49154653.000000,50741167.000000 49140000.000000,50667500.000000 Z"/> 
<svg:path style="fill:#000000; fill-opacity:1.0;  stroke:#000000; stroke-width:1.000000; stroke-opacity:1;  stroke-linecap:round; stroke-linejoin:round;fill-rule:evenodd;" d="M 50090000.000000,50282500.000000 50104653.000000,50208833.000000 50146382.000000,50146382.000000 50208833.000000,50104653.000000 50282500.000000,50090000.000000 50667500.000000,50090000.000000 50741167.000000,50104653.000000 50803618.000000,50146382.000000 50845347.000000,50208833.000000 50860000.000000,50282500.000000 50860000.000000,50667500.000000 50845347.000000,50741167.000000 50803618.000000,50803618.000000 50741167.000000,50845347.000000 50667500.000000,50860000.000000 50282500.000000,50860000.000000 50208833.000000,50845347.000000 50146382.000000,50803618.000000 50104653.000000,50741167.000000 50090000.000000,50667500.000000 Z"/> 
<svg:path style="fill:#000000; fill-opacity:1.0;  stroke:#000000; stroke-width:1.000000; stroke-opacity:1;  stroke-linecap:round; stroke-linejoin:round;fill-rule:evenodd;" d="M 50090000.000000,49332500.000000 50104653.000000,49258833.000000 50146382.000000,49196382.000000 50208833.000000,49154653.000000 50282500.000000,49140000.000000 50667500.000000,49140000.000000 50741167.000000,49154653.000000 50803618.000000,49196382.000000 50845347.000000,49258833.000000 50860000.000000,49332500.000000 50860000.000000,49717500.000000 50845347.000000,49791167.000000 50803618.000000,49853618.000000 50741167.000000,49895347.000000 50667500.000000,49910000.000000 50282500.000000,49910000.000000 50208833.000000,49895347.000000 50146382.000000,49853618.000000 50104653.000000,49791167.000000 50090000.000000,49717500.000000 Z"/> 
<svg:path style="fill:#000000; fill-opacity:1.0;  stroke:#000000; stroke-width:1.000000; stroke-opacity:1;  stroke-linecap:round; stroke-linejoin:round;fill-rule:evenodd;" d="M 48150000.000000,49187500.000000 48154758.000000,49163582.000000 48168306.000000,49143306.000000 48188582.000000,49129758.000000 48212500.000000,49125000.000000 48762500.000000,49125000.000000 48786418.000000,49129758.000000 48806694.000000,49143306.000000 48820242.000000,49163582.000000 48825000.000000,49187500.000000 48825000.000000,49312500.000000 48820242.000000,49336418.000000 48806694.000000,49356694.000000 48786418.000000,49370242.000000 48762500.000000,49375000.000000 48212500.000000,49375000.000000 48188582.000000,49370242.000000 48168306.000000,49356694.000000 48154758.000000,49336418.000000 48150000.000000,49312500.000000 Z"/> 
<svg:path style="fill:#000000; fill-opacity:1.0;  stroke:#000000; stroke-width:1.000000; stroke-opacity:1;  stroke-linecap:round; stroke-linejoin:round;fill-rule:evenodd;" d="M 48150000.000000,49687500.000000 48154758.000000,49663582.000000 48168306.000000,49643306.000000 48188582.000000,49629758.000000 48212500.000000,49625000.000000 48762500.000000,49625000.000000 48786418.000000,49629758.000000 48806694.000000,49643306.000000 48820242.000000,49663582.000000 48825000.000000,49687500.000000 48825000.000000,49812500.000000 48820242.000000,49836418.000000 48806694.000000,49856694.000000 48786418.000000,49870242.000000 48762500.000000,49875000.000000 48212500.000000,49875000.000000 48188582.000000,49870242.000000 48168306.000000,49856694.000000 48154758.000000,49836418.000000 48150000.000000,49812500.000000 Z"/> 
<svg:path style="fill:#000000; fill-opacity:1.0;  stroke:#000000; stroke-width:1.000000; stroke-opacity:1;  stroke-linecap:round; stroke-linejoin:round;fill-rule:evenodd;" d="M 48150000.000000,50187500.000000 48154758.000000,50163582.000000 48168306.000000,50143306.000000 48188582.000000,50129758.000000 48212500.000000,50125000.000000 48762500.000000,50125000.000000 48786418.000000,50129758.000000 48806694.000000,50143306.000000 48820242.000000,50163582.000000 48825000.000000,50187500.000000 48825000.000000,50312500.000000 48820242.000000,50336418.000000 48806694.000000,50356694.000000 48786418.000000,50370242.000000 48762500.000000,50375000.000000 48212500.000000,50375000.000000 48188582.000000,50370242.000000 48168306.000000,50356694.000000 48154758.000000,50336418.000000 48150000.000000,50312500.000000 Z"/> 
<svg:path style="fill:#000000; fill-opacity:1.0;  stroke:#000000; stroke-width:1.000000; stroke-opacity:1;  stroke-linecap:round; stroke-linejoin:round;fill-rule:evenodd;" d="M 48150000.000000,50687500.000000 48154758.000000,50663582.000000 48168306.000000,50643306.000000 48188582.000000,50629758.000000 48212500.000000,50625000.000000 48762500.000000,50625000.000000 48786418.000000,50629758.000000 48806694.000000,50643306.000000 48820242.000000,50663582.000000 48825000.000000,50687500.000000 48825000.000000,50812500.000000 48820242.000000,50836418.000000 48806694.000000,50856694.000000 48786418.000000,50870242.000000 48762500.000000,50875000.000000 48212500.000000,50875000.000000 48188582.000000,50870242.000000 48168306.000000,50856694.000000 48154758.000000,50836418.000000 48150000.000000,50812500.000000 Z"/> 
<svg:path style="fill:#000000; fill-opacity:1.0;  stroke:#000000; stroke-width:1.000000; stroke-opacity:1;  stroke-linecap:round; stroke-linejoin:round;fill-rule:evenodd;" d="M 49125000.000000,51237500.000000 49129758.000000,51213582.000000 49143306.000000,51193306.000000 49163582.000000,51179758.000000 49187500.000000,51175000.000000 49312500.000000,51175000.000000 49336418.000000,51179758.000000 49356694.000000,51193306.000000 49370242.000000,51213582.000000 49375000.000000,51237500.000000 49375000.000000,51787500.000000 49370242.000000,51811418.000000 49356694.000000,51831694.000000 49336418.000000,51845242.000000 49312500.000000,51850000.000000 49187500.000000,51850000.000000 49163582.000000,51845242.000000 49143306.000000,51831694.000000 49129758.000000,51811418.000000 49125000.000000,51787500.000000 Z"/> 
<svg:path style="fill:#000000; fill-opacity:1.0;  stroke:#000000; stroke-width:1.000000; stroke-opacity:1;  stroke-linecap:round; stroke-linejoin:round;fill-rule:evenodd;" d="M 49625000.000000,51237500.000000 49629758.000000,51213582.000000 49643306.000000,51193306.000000 49663582.000000,51179758.000000 49687500.000000,51175000.000000 49812500.000000,51175000.000000 49836418.000000,51179758.000000 49856694.000000,51193306.000000 49870242.000000,51213582.000000 49875000.000000,51237500.000000 49875000.000000,51787500.000000 49870242.000000,51811418.000000 49856694.000000,51831694.000000 49836418.000000,51845242.000000 49812500.000000,51850000.000000 49687500.000000,51850000.000000 49663582.000000,51845242.000000 49643306.000000,51831694.000000 49629758.000000,51811418.000000 49625000.000000,51787500.000000 Z"/> 
<svg:path style="fill:#000000; fill-opacity:1.0;  stroke:#000000; stroke-width:1.000000; stroke-opacity:1;  stroke-linecap:round; stroke-linejoin:round;fill-rule:evenodd;" d="M 50125000.000000,51237500.000000 50129758.000000,51213582.000000 50143306.000000,51193306.000000 50163582.000000,51179758.000000 50187500.000000,51175000.000000 50312500.000000,51175000.000000 50336418.000000,51179758.000000 50356694.000000,51193306.000000 50370242.000000,51213582.000000 50375000.000000,51237500.000000 50375000.000000,51787500.000000 50370242.000000,51811418.000000 50356694.000000,51831694.000000 50336418.000000,51845242.000000 50312500.000000,51850000.000000 50187500.000000,51850000.000000 50163582.000000,51845242.000000 50143306.000000,51831694.000000 50129758.000000,51811418.000000 50125000.000000,51787500.000000 Z"/> 
<svg:path style="fill:#000000; fill-opacity:1.0;  stroke:#000000; stroke-width:1.000000; stroke-opacity:1;  stroke-linecap:round; stroke-linejoin:round;fill-rule:evenodd;" d="M 50625000.000000,51237500.000000 50629758.000000,51213582.000000 50643306.000000,51193306.000000 50663582.000000,51179758.000000 50687500.000000,51175000.000000 50812500.000000,51175000.000000 50836418.000000,51179758.000000 50856694.000000,51193306.000000 50870242.000000,51213582.000000 50875000.000000,51237500.000000 50875000.000000,51787500.000000 50870242.000000,51811418.000000 50856694.000000,51831694.000000 50836418.000000,51845242.000000 50812500.000000,51850000.000000 50687500.000000,51850000.000000 50663582.000000,51845242.000000 50643306.000000,51831694.000000 50629758.000000,51811418.000000 50625000.000000,51787500.000000 Z"/> 
<svg:path style="fill:#000000; fill-opacity:1.0;  stroke:#000000; stroke-width:1.000000; stroke-opacity:1;  stroke-linecap:round; stroke-linejoin:round;fill-rule:evenodd;" d="M 51175000.000000,50687500.000000 51179758.000000,50663582.000000 51193306.000000,50643306.000000 51213582.000000,50629758.000000 51237500.000000,50625000.000000 51787500.000000,50625000.000000 51811418.000000,50629758.000000 51831694.000000,50643306.000000 51845242.000000,50663582.000000 51850000.000000,50687500.000000 51850000.000000,50812500.000000 51845242.000000,50836418.000000 51831694.000000,50856694.000000 51811418.000000,50870242.000000 51787500.000000,50875000.000000 51237500.000000,50875000.000000 51213582.000000,50870242.000000 51193306.000000,50856694.000000 51179758.000000,50836418.000000 51175000.000000,50812500.000000 Z"/> 
<svg:path style="fill:#000000; fill-opacity:1.0;  stroke:#000000; stroke-width:1.000000; stroke-opacity:1;  stroke-linecap:round; stroke-linejoin:round;fill-rule:evenodd;" d="M 51175000.000000,50187500.000000 51179758.000000,50163582.000000 51193306.000000,50143306.000000 51213582.000000,50129758.000000 51237500.000000,50125000.000000 51787500.000000,50125000.000000 51811418.000000,50129758.000000 51831694.000000,50143306.000000 51845242.000000,50163582.000000 51850000.000000,50187500.000000 51850000.000000,50312500.000000 51845242.000000,50336418.000000 51831694.000000,50356694.000000 51811418.000000,50370242.000000 51787500.000000,50375000.000000 51237500.000000,50375000.000000 51213582.000000,50370242.000000 51193306.000000,50356694.000000 51179758.000000,50336418.000000 51175000.000000,50312500.000000 Z"/> 
<svg:path style="fill:#000000; fill-opacity:1.0;  stroke:#000000; stroke-width:1.000000; stroke-opacity:1;  stroke-linecap:round; stroke-linejoin:round;fill-rule:evenodd;" d="M 51175000.000000,49687500.000000 51179758.000000,49663582.000000 51193306.000000,49643306.000000 51213582.000000,49629758.000000 51237500.000000,49625000.000000 51787500.000000,49625000.000000 51811418.000000,49629758.000000 51831694.000000,49643306.000000 51845242.000000,49663582.000000 51850000.000000,49687500.000000 51850000.000000,49812500.000000 51845242.000000,49836418.000000 51831694.000000,49856694.000000 51811418.000000,49870242.000000 51787500.000000,49875000.000000 51237500.000000,49875000.000000 51213582.000000,49870242.000000 51193306.000000,49856694.000000 51179758.000000,49836418.000000 51175000.000000,49812500.000000 Z"/> 
<svg:path style="fill:#000000; fill-opacity:1.0;  stroke:#000000; stroke-width:1.000000; stroke-opacity:1;  stroke-linecap:round; stroke-linejoin:round;fill-rule:evenodd;" d="M 51175000.000000,49187500.000000 51179758.000000,49163582.000000 51193306.000000,49143306.000000 51213582.000000,49129758.000000 51237500.000000,49125000.000000 51787500.000000,49125000.000000 51811418.000000,49129758.000000 51831694.000000,49143306.000000 51845242.000000,49163582.000000 51850000.000000,49187500.000000 51850000.000000,49312500.000000 51845242.000000,49336418.000000 51831694.000000,49356694.000000 51811418.000000,49370242.000000 51787500.000000,49375000.000000 51237500.000000,49375000.000000 51213582.000000,49370242.000000 51193306.000000,49356694.000000 51179758.000000,49336418.000000 51175000.000000,49312500.000000 Z"/> 
<svg:path style="fill:#000000; fill-opacity:1.0;  stroke:#000000; stroke-width:1.000000; stroke-opacity:1;  stroke-linecap:round; stroke-linejoin:round;fill-rule:evenodd;" d="M 50625000.000000,48212500.000000 50629758.000000,48188582.000000 50643306.000000,48168306.000000 50663582.000000,48154758.000000 50687500.000000,48150000.000000 50812500.000000,48150000.000000 50836418.000000,48154758.000000 50856694.000000,48168306.000000 50870242.000000,48188582.000000 50875000.000000,48212500.000000 50875000.000000,48762500.000000 50870242.000000,48786418.000000 50856694.000000,48806694.000000 50836418.000000,48820242.000000 50812500.000000,48825000.000000 50687500.000000,48825000.000000 50663582.000000,48820242.000000 50643306.000000,48806694.000000 50629758.000000,48786418.000000 50625000.000000,48762500.000000 Z"/> 
<svg:path style="fill:#000000; fill-opacity:1.0;  stroke:#000000; stroke-width:1.000000; stroke-opacity:1;  stroke-linecap:round; stroke-linejoin:round;fill-rule:evenodd;" d="M 50125000.000000,48212500.000000 50129758.000000,48188582.000000 50143306.000000,48168306.000000 50163582.000000,48154758.000000 50187500.000000,48150000.000000 50312500.000000,48150000.000000 50336418.000000,48154758.000000 50356694.000000,48168306.000000 50370242.000000,48188582.000000 50375000.000000,48212500.000000 50375000.000000,48762500.000000 50370242.000000,48786418.000000 50356694.000000,48806694.000000 50336418.000000,48820242.000000 50312500.000000,48825000.000000 50187500.000000,48825000.000000 50163582.000000,48820242.000000 50143306.000000,48806694.000000 50129758.000000,48786418.000000 50125000.000000,48762500.000000 Z"/> 
<svg:path style="fill:#000000; fill-opacity:1.0;  stroke:#000000; stroke-width:1.000000; stroke-opacity:1;  stroke-linecap:round; stroke-linejoin:round;fill-rule:evenodd;" d="M 49625000.000000,48212500.000000 49629758.000000,48188582.000000 49643306.000000,48168306.000000 49663582.000000,48154758.000000 49687500.000000,48150000.000000 49812500.000000,48150000.000000 49836418.000000,48154758.000000 49856694.000000,48168306.000000 49870242.000000,48188582.000000 49875000.000000,48212500.000000 49875000.000000,48762500.000000 49870242.000000,48786418.000000 49856694.000000,48806694.000000 49836418.000000,48820242.000000 49812500.000000,48825000.000000 49687500.000000,48825000.000000 49663582.000000,48820242.000000 49643306.000000,48806694.000000 49629758.000000,48786418.000000 49625000.000000,48762500.000000 Z"/> 
<svg:path style="fill:#000000; fill-opacity:1.0;  stroke:#000000; stroke-width:1.000000; stroke-opacity:1;  stroke-linecap:round; stroke-linejoin:round;fill-rule:evenodd;" d="M 49125000.000000,48212500.000000 49129758.000000,48188582.000000 49143306.000000,48168306.000000 49163582.000000,48154758.000000 49187500.000000,48150000.000000 49312500.000000,48150000.000000 49336418.000000,48154758.000000 49356694.000000,48168306.000000 49370242.000000,48188582.000000 49375000.000000,48212500.000000 49375000.000000,48762500.000000 49370242.000000,48786418.000000 49356694.000000,48806694.000000 49336418.000000,48820242.000000 49312500.000000,48825000.000000 49187500.000000,48825000.000000 49163582.000000,48820242.000000 49143306.000000,48806694.000000 49129758.000000,48786418.000000 49125000.000000,48762500.000000 Z"/> 
</svg:g>
<svg:g>
</svg:g>
<svg:g>
</svg:g>
<svg:g>
</svg:g>
</svg:g>
<svg:g style="fill:#000000; fill-opacity:1.0;  stroke:#000000; stroke-width:1.000000; stroke-opacity:1;  stroke-linecap:round; stroke-linejoin:round;">
<svg:g>
</svg:g>
<svg:g>
</svg:g>
<svg:g>
</svg:g>
<svg:g>
</svg:g>
</svg:g> 
</svg:g><svg:g><svg:title>SVG Picture created as kicadBoard-F_Silkscreen.svg date 2022/11/19 04:40:33 </svg:title>
  <svg:desc>Picture generated by PCBNEW </svg:desc>
<svg:g style="fill:#000000; fill-opacity:1.000000;stroke:#000000; stroke-opacity:1.000000; stroke-linecap:round; stroke-linejoin:round;" transform="translate(0 0) scale(1 1)">
</svg:g>
<svg:g style="fill:#000000; fill-opacity:0.0;  stroke:#000000; stroke-width:0.000000; stroke-opacity:1;  stroke-linecap:round; stroke-linejoin:round;">
</svg:g>
<svg:g style="fill:#F2EDA1; fill-opacity:0.0;  stroke:#F2EDA1; stroke-width:0.000000; stroke-opacity:1;  stroke-linecap:round; stroke-linejoin:round;">
</svg:g>
<svg:g style="fill:#F2EDA1; fill-opacity:0.0;  stroke:#F2EDA1; stroke-width:150000.000000; stroke-opacity:1;  stroke-linecap:round; stroke-linejoin:round;">
<svg:text x="50000000.000000" y="47700000.000000" textLength="24904763.000000" font-size="1333333.000000" lengthAdjust="spacingAndGlyphs" text-anchor="middle" opacity="0">FZKDFNQFN161EP3X3P5EP19X19</svg:text>
<svg:g class="stroked-text"><svg:desc>FZKDFNQFN161EP3X3P5EP19X19</svg:desc>
<svg:path d="M38119047 47128571 L37785714 47128571 "/>
<svg:path d="M37785714 47652380 L37785714 46652380 L38261904 46652380 "/>
<svg:path d="M38547619 46652380 L39214285 46652380 L38547619 47652380 L39214285 47652380 "/>
<svg:path d="M39595238 47652380 L39595238 46652380 "/>
<svg:path d="M40166666 47652380 L39738095 47080952 "/>
<svg:path d="M40166666 46652380 L39595238 47223809 "/>
<svg:path d="M40595238 47652380 L40595238 46652380 L40833333 46652380 L40976190 46700000 L41071428 46795238 L41119047 46890476 L41166666 47080952 L41166666 47223809 L41119047 47414285 L41071428 47509523 L40976190 47604761 L40833333 47652380 L40595238 47652380 "/>
<svg:path d="M41928571 47128571 L41595238 47128571 "/>
<svg:path d="M41595238 47652380 L41595238 46652380 L42071428 46652380 "/>
<svg:path d="M42452380 47652380 L42452380 46652380 L43023809 47652380 L43023809 46652380 "/>
<svg:path d="M44166666 47747619 L44071428 47700000 L43976190 47604761 L43833333 47461904 L43738095 47414285 L43642857 47414285 "/>
<svg:path d="M43690476 47652380 L43595238 47604761 L43500000 47509523 L43452380 47319047 L43452380 46985714 L43500000 46795238 L43595238 46700000 L43690476 46652380 L43880952 46652380 L43976190 46700000 L44071428 46795238 L44119047 46985714 L44119047 47319047 L44071428 47509523 L43976190 47604761 L43880952 47652380 L43690476 47652380 "/>
<svg:path d="M44880952 47128571 L44547619 47128571 "/>
<svg:path d="M44547619 47652380 L44547619 46652380 L45023809 46652380 "/>
<svg:path d="M45404761 47652380 L45404761 46652380 L45976190 47652380 L45976190 46652380 "/>
<svg:path d="M46976190 47652380 L46404761 47652380 "/>
<svg:path d="M46690476 47652380 L46690476 46652380 L46595238 46795238 L46500000 46890476 L46404761 46938095 "/>
<svg:path d="M47833333 46652380 L47642857 46652380 L47547619 46700000 L47500000 46747619 L47404761 46890476 L47357142 47080952 L47357142 47461904 L47404761 47557142 L47452380 47604761 L47547619 47652380 L47738095 47652380 L47833333 47604761 L47880952 47557142 L47928571 47461904 L47928571 47223809 L47880952 47128571 L47833333 47080952 L47738095 47033333 L47547619 47033333 L47452380 47080952 L47404761 47128571 L47357142 47223809 "/>
<svg:path d="M48880952 47652380 L48309523 47652380 "/>
<svg:path d="M48595238 47652380 L48595238 46652380 L48499999 46795238 L48404761 46890476 L48309523 46938095 "/>
<svg:path d="M49309523 47128571 L49642857 47128571 "/>
<svg:path d="M49785714 47652380 L49309523 47652380 L49309523 46652380 L49785714 46652380 "/>
<svg:path d="M50214285 47652380 L50214285 46652380 L50595238 46652380 L50690476 46700000 L50738095 46747619 L50785714 46842857 L50785714 46985714 L50738095 47080952 L50690476 47128571 L50595238 47176190 L50214285 47176190 "/>
<svg:path d="M51119047 46652380 L51738095 46652380 L51404761 47033333 L51547619 47033333 L51642857 47080952 L51690476 47128571 L51738095 47223809 L51738095 47461904 L51690476 47557142 L51642857 47604761 L51547619 47652380 L51261904 47652380 L51166666 47604761 L51119047 47557142 "/>
<svg:path d="M52071428 46652380 L52738095 47652380 "/>
<svg:path d="M52738095 46652380 L52071428 47652380 "/>
<svg:path d="M53023809 46652380 L53642857 46652380 L53309523 47033333 L53452380 47033333 L53547619 47080952 L53595238 47128571 L53642857 47223809 L53642857 47461904 L53595238 47557142 L53547619 47604761 L53452380 47652380 L53166666 47652380 L53071428 47604761 L53023809 47557142 "/>
<svg:path d="M54071428 47652380 L54071428 46652380 L54452380 46652380 L54547619 46700000 L54595238 46747619 L54642857 46842857 L54642857 46985714 L54595238 47080952 L54547619 47128571 L54452380 47176190 L54071428 47176190 "/>
<svg:path d="M55547619 46652380 L55071428 46652380 L55023809 47128571 L55071428 47080952 L55166666 47033333 L55404761 47033333 L55499999 47080952 L55547619 47128571 L55595238 47223809 L55595238 47461904 L55547619 47557142 L55499999 47604761 L55404761 47652380 L55166666 47652380 L55071428 47604761 L55023809 47557142 "/>
<svg:path d="M56023809 47128571 L56357142 47128571 "/>
<svg:path d="M56499999 47652380 L56023809 47652380 L56023809 46652380 L56499999 46652380 "/>
<svg:path d="M56928571 47652380 L56928571 46652380 L57309523 46652380 L57404761 46700000 L57452380 46747619 L57499999 46842857 L57499999 46985714 L57452380 47080952 L57404761 47128571 L57309523 47176190 L56928571 47176190 "/>
<svg:path d="M58452380 47652380 L57880952 47652380 "/>
<svg:path d="M58166666 47652380 L58166666 46652380 L58071428 46795238 L57976190 46890476 L57880952 46938095 "/>
<svg:path d="M58928571 47652380 L59119047 47652380 L59214285 47604761 L59261904 47557142 L59357142 47414285 L59404761 47223809 L59404761 46842857 L59357142 46747619 L59309523 46700000 L59214285 46652380 L59023809 46652380 L58928571 46700000 L58880952 46747619 L58833333 46842857 L58833333 47080952 L58880952 47176190 L58928571 47223809 L59023809 47271428 L59214285 47271428 L59309523 47223809 L59357142 47176190 L59404761 47080952 "/>
<svg:path d="M59738095 46652380 L60404761 47652380 "/>
<svg:path d="M60404761 46652380 L59738095 47652380 "/>
<svg:path d="M61309523 47652380 L60738095 47652380 "/>
<svg:path d="M61023809 47652380 L61023809 46652380 L60928571 46795238 L60833333 46890476 L60738095 46938095 "/>
<svg:path d="M61785714 47652380 L61976190 47652380 L62071428 47604761 L62119047 47557142 L62214285 47414285 L62261904 47223809 L62261904 46842857 L62214285 46747619 L62166666 46700000 L62071428 46652380 L61880952 46652380 L61785714 46700000 L61738095 46747619 L61690476 46842857 L61690476 47080952 L61738095 47176190 L61785714 47223809 L61880952 47271428 L62071428 47271428 L62166666 47223809 L62214285 47176190 L62261904 47080952 "/>
</svg:g></svg:g>
<svg:g style="fill:#F2EDA1; fill-opacity:0.0;  stroke:#F2EDA1; stroke-width:120000.000000; stroke-opacity:1;  stroke-linecap:round; stroke-linejoin:round;">
<svg:path d="M48865000 48390000 L48390000 48390000 "/>
<svg:path d="M48390000 51610000 L48390000 51135000 "/>
<svg:path d="M51610000 51610000 L51610000 51135000 "/>
<svg:path d="M51610000 48390000 L51610000 48865000 "/>
<svg:path d="M48865000 51610000 L48390000 51610000 "/>
<svg:path d="M51135000 48390000 L51610000 48390000 "/>
<svg:path d="M51135000 51610000 L51610000 51610000 "/>
<svg:g>
</svg:g>
<svg:g>
</svg:g>
<svg:g>
</svg:g>
<svg:g>
</svg:g>
</svg:g>
<svg:g style="fill:#000000; fill-opacity:0.0;  stroke:#000000; stroke-width:120000.000000; stroke-opacity:1;  stroke-linecap:round; stroke-linejoin:round;">
<svg:g>
</svg:g>
<svg:g>
</svg:g>
<svg:g>
</svg:g>
<svg:g>
</svg:g>
</svg:g> 
</svg:g><svg:g><svg:title>SVG Picture created as kicadBoard-Margin.svg date 2022/11/19 04:40:33 </svg:title>
  <svg:desc>Picture generated by PCBNEW </svg:desc>
<svg:g style="fill:#000000; fill-opacity:1.000000;stroke:#000000; stroke-opacity:1.000000; stroke-linecap:round; stroke-linejoin:round;" transform="translate(0 0) scale(1 1)">
</svg:g>
<svg:g style="fill:#000000; fill-opacity:0.0;  stroke:#000000; stroke-width:0.000000; stroke-opacity:1;  stroke-linecap:round; stroke-linejoin:round;">
<svg:g>
</svg:g>
<svg:g>
</svg:g>
<svg:g>
</svg:g>
<svg:g>
</svg:g>
</svg:g>
<svg:g style="fill:#000000; fill-opacity:0.0;  stroke:#000000; stroke-width:0.000000; stroke-opacity:1;  stroke-linecap:round; stroke-linejoin:round;">
<svg:g>
</svg:g>
<svg:g>
</svg:g>
<svg:g>
</svg:g>
<svg:g>
</svg:g>
</svg:g> 
</svg:g><svg:g><svg:title>SVG Picture created as kicadBoard-F_Cu.svg date 2022/11/19 04:40:33 </svg:title>
  <svg:desc>Picture generated by PCBNEW </svg:desc>
<svg:g style="fill:#000000; fill-opacity:1.000000;stroke:#000000; stroke-opacity:1.000000; stroke-linecap:round; stroke-linejoin:round;" transform="translate(0 0) scale(1 1)">
</svg:g>
<svg:g style="fill:#000000; fill-opacity:0.0;  stroke:#000000; stroke-width:0.000000; stroke-opacity:1;  stroke-linecap:round; stroke-linejoin:round;">
<svg:g>
</svg:g>
<svg:g style="fill:#C83434; fill-opacity:0.0;  stroke:#C83434; stroke-width:0.000000; stroke-opacity:1;  stroke-linecap:round; stroke-linejoin:round;">
</svg:g>
<svg:g style="fill:#C83434; fill-opacity:0.0;  stroke:#C83434; stroke-width:1.000000; stroke-opacity:1;  stroke-linecap:round; stroke-linejoin:round;">
</svg:g>
<svg:g style="fill:#C83434; fill-opacity:1.0;  stroke:#C83434; stroke-width:1.000000; stroke-opacity:1;  stroke-linecap:round; stroke-linejoin:round;">
<svg:path style="fill:#C83434; fill-opacity:1.0;  stroke:#C83434; stroke-width:1.000000; stroke-opacity:1;  stroke-linecap:round; stroke-linejoin:round;fill-rule:evenodd;" d="M 48150000.000000,49187500.000000 48154758.000000,49163582.000000 48168306.000000,49143306.000000 48188582.000000,49129758.000000 48212500.000000,49125000.000000 48762500.000000,49125000.000000 48786418.000000,49129758.000000 48806694.000000,49143306.000000 48820242.000000,49163582.000000 48825000.000000,49187500.000000 48825000.000000,49312500.000000 48820242.000000,49336418.000000 48806694.000000,49356694.000000 48786418.000000,49370242.000000 48762500.000000,49375000.000000 48212500.000000,49375000.000000 48188582.000000,49370242.000000 48168306.000000,49356694.000000 48154758.000000,49336418.000000 48150000.000000,49312500.000000 Z"/> 
<svg:path style="fill:#C83434; fill-opacity:1.0;  stroke:#C83434; stroke-width:1.000000; stroke-opacity:1;  stroke-linecap:round; stroke-linejoin:round;fill-rule:evenodd;" d="M 48150000.000000,49687500.000000 48154758.000000,49663582.000000 48168306.000000,49643306.000000 48188582.000000,49629758.000000 48212500.000000,49625000.000000 48762500.000000,49625000.000000 48786418.000000,49629758.000000 48806694.000000,49643306.000000 48820242.000000,49663582.000000 48825000.000000,49687500.000000 48825000.000000,49812500.000000 48820242.000000,49836418.000000 48806694.000000,49856694.000000 48786418.000000,49870242.000000 48762500.000000,49875000.000000 48212500.000000,49875000.000000 48188582.000000,49870242.000000 48168306.000000,49856694.000000 48154758.000000,49836418.000000 48150000.000000,49812500.000000 Z"/> 
<svg:path style="fill:#C83434; fill-opacity:1.0;  stroke:#C83434; stroke-width:1.000000; stroke-opacity:1;  stroke-linecap:round; stroke-linejoin:round;fill-rule:evenodd;" d="M 48150000.000000,50187500.000000 48154758.000000,50163582.000000 48168306.000000,50143306.000000 48188582.000000,50129758.000000 48212500.000000,50125000.000000 48762500.000000,50125000.000000 48786418.000000,50129758.000000 48806694.000000,50143306.000000 48820242.000000,50163582.000000 48825000.000000,50187500.000000 48825000.000000,50312500.000000 48820242.000000,50336418.000000 48806694.000000,50356694.000000 48786418.000000,50370242.000000 48762500.000000,50375000.000000 48212500.000000,50375000.000000 48188582.000000,50370242.000000 48168306.000000,50356694.000000 48154758.000000,50336418.000000 48150000.000000,50312500.000000 Z"/> 
<svg:path style="fill:#C83434; fill-opacity:1.0;  stroke:#C83434; stroke-width:1.000000; stroke-opacity:1;  stroke-linecap:round; stroke-linejoin:round;fill-rule:evenodd;" d="M 48150000.000000,50687500.000000 48154758.000000,50663582.000000 48168306.000000,50643306.000000 48188582.000000,50629758.000000 48212500.000000,50625000.000000 48762500.000000,50625000.000000 48786418.000000,50629758.000000 48806694.000000,50643306.000000 48820242.000000,50663582.000000 48825000.000000,50687500.000000 48825000.000000,50812500.000000 48820242.000000,50836418.000000 48806694.000000,50856694.000000 48786418.000000,50870242.000000 48762500.000000,50875000.000000 48212500.000000,50875000.000000 48188582.000000,50870242.000000 48168306.000000,50856694.000000 48154758.000000,50836418.000000 48150000.000000,50812500.000000 Z"/> 
<svg:path style="fill:#C83434; fill-opacity:1.0;  stroke:#C83434; stroke-width:1.000000; stroke-opacity:1;  stroke-linecap:round; stroke-linejoin:round;fill-rule:evenodd;" d="M 49125000.000000,51237500.000000 49129758.000000,51213582.000000 49143306.000000,51193306.000000 49163582.000000,51179758.000000 49187500.000000,51175000.000000 49312500.000000,51175000.000000 49336418.000000,51179758.000000 49356694.000000,51193306.000000 49370242.000000,51213582.000000 49375000.000000,51237500.000000 49375000.000000,51787500.000000 49370242.000000,51811418.000000 49356694.000000,51831694.000000 49336418.000000,51845242.000000 49312500.000000,51850000.000000 49187500.000000,51850000.000000 49163582.000000,51845242.000000 49143306.000000,51831694.000000 49129758.000000,51811418.000000 49125000.000000,51787500.000000 Z"/> 
<svg:path style="fill:#C83434; fill-opacity:1.0;  stroke:#C83434; stroke-width:1.000000; stroke-opacity:1;  stroke-linecap:round; stroke-linejoin:round;fill-rule:evenodd;" d="M 49625000.000000,51237500.000000 49629758.000000,51213582.000000 49643306.000000,51193306.000000 49663582.000000,51179758.000000 49687500.000000,51175000.000000 49812500.000000,51175000.000000 49836418.000000,51179758.000000 49856694.000000,51193306.000000 49870242.000000,51213582.000000 49875000.000000,51237500.000000 49875000.000000,51787500.000000 49870242.000000,51811418.000000 49856694.000000,51831694.000000 49836418.000000,51845242.000000 49812500.000000,51850000.000000 49687500.000000,51850000.000000 49663582.000000,51845242.000000 49643306.000000,51831694.000000 49629758.000000,51811418.000000 49625000.000000,51787500.000000 Z"/> 
<svg:path style="fill:#C83434; fill-opacity:1.0;  stroke:#C83434; stroke-width:1.000000; stroke-opacity:1;  stroke-linecap:round; stroke-linejoin:round;fill-rule:evenodd;" d="M 50125000.000000,51237500.000000 50129758.000000,51213582.000000 50143306.000000,51193306.000000 50163582.000000,51179758.000000 50187500.000000,51175000.000000 50312500.000000,51175000.000000 50336418.000000,51179758.000000 50356694.000000,51193306.000000 50370242.000000,51213582.000000 50375000.000000,51237500.000000 50375000.000000,51787500.000000 50370242.000000,51811418.000000 50356694.000000,51831694.000000 50336418.000000,51845242.000000 50312500.000000,51850000.000000 50187500.000000,51850000.000000 50163582.000000,51845242.000000 50143306.000000,51831694.000000 50129758.000000,51811418.000000 50125000.000000,51787500.000000 Z"/> 
<svg:path style="fill:#C83434; fill-opacity:1.0;  stroke:#C83434; stroke-width:1.000000; stroke-opacity:1;  stroke-linecap:round; stroke-linejoin:round;fill-rule:evenodd;" d="M 50625000.000000,51237500.000000 50629758.000000,51213582.000000 50643306.000000,51193306.000000 50663582.000000,51179758.000000 50687500.000000,51175000.000000 50812500.000000,51175000.000000 50836418.000000,51179758.000000 50856694.000000,51193306.000000 50870242.000000,51213582.000000 50875000.000000,51237500.000000 50875000.000000,51787500.000000 50870242.000000,51811418.000000 50856694.000000,51831694.000000 50836418.000000,51845242.000000 50812500.000000,51850000.000000 50687500.000000,51850000.000000 50663582.000000,51845242.000000 50643306.000000,51831694.000000 50629758.000000,51811418.000000 50625000.000000,51787500.000000 Z"/> 
<svg:path style="fill:#C83434; fill-opacity:1.0;  stroke:#C83434; stroke-width:1.000000; stroke-opacity:1;  stroke-linecap:round; stroke-linejoin:round;fill-rule:evenodd;" d="M 51175000.000000,50687500.000000 51179758.000000,50663582.000000 51193306.000000,50643306.000000 51213582.000000,50629758.000000 51237500.000000,50625000.000000 51787500.000000,50625000.000000 51811418.000000,50629758.000000 51831694.000000,50643306.000000 51845242.000000,50663582.000000 51850000.000000,50687500.000000 51850000.000000,50812500.000000 51845242.000000,50836418.000000 51831694.000000,50856694.000000 51811418.000000,50870242.000000 51787500.000000,50875000.000000 51237500.000000,50875000.000000 51213582.000000,50870242.000000 51193306.000000,50856694.000000 51179758.000000,50836418.000000 51175000.000000,50812500.000000 Z"/> 
<svg:path style="fill:#C83434; fill-opacity:1.0;  stroke:#C83434; stroke-width:1.000000; stroke-opacity:1;  stroke-linecap:round; stroke-linejoin:round;fill-rule:evenodd;" d="M 51175000.000000,50187500.000000 51179758.000000,50163582.000000 51193306.000000,50143306.000000 51213582.000000,50129758.000000 51237500.000000,50125000.000000 51787500.000000,50125000.000000 51811418.000000,50129758.000000 51831694.000000,50143306.000000 51845242.000000,50163582.000000 51850000.000000,50187500.000000 51850000.000000,50312500.000000 51845242.000000,50336418.000000 51831694.000000,50356694.000000 51811418.000000,50370242.000000 51787500.000000,50375000.000000 51237500.000000,50375000.000000 51213582.000000,50370242.000000 51193306.000000,50356694.000000 51179758.000000,50336418.000000 51175000.000000,50312500.000000 Z"/> 
<svg:path style="fill:#C83434; fill-opacity:1.0;  stroke:#C83434; stroke-width:1.000000; stroke-opacity:1;  stroke-linecap:round; stroke-linejoin:round;fill-rule:evenodd;" d="M 51175000.000000,49687500.000000 51179758.000000,49663582.000000 51193306.000000,49643306.000000 51213582.000000,49629758.000000 51237500.000000,49625000.000000 51787500.000000,49625000.000000 51811418.000000,49629758.000000 51831694.000000,49643306.000000 51845242.000000,49663582.000000 51850000.000000,49687500.000000 51850000.000000,49812500.000000 51845242.000000,49836418.000000 51831694.000000,49856694.000000 51811418.000000,49870242.000000 51787500.000000,49875000.000000 51237500.000000,49875000.000000 51213582.000000,49870242.000000 51193306.000000,49856694.000000 51179758.000000,49836418.000000 51175000.000000,49812500.000000 Z"/> 
<svg:path style="fill:#C83434; fill-opacity:1.0;  stroke:#C83434; stroke-width:1.000000; stroke-opacity:1;  stroke-linecap:round; stroke-linejoin:round;fill-rule:evenodd;" d="M 51175000.000000,49187500.000000 51179758.000000,49163582.000000 51193306.000000,49143306.000000 51213582.000000,49129758.000000 51237500.000000,49125000.000000 51787500.000000,49125000.000000 51811418.000000,49129758.000000 51831694.000000,49143306.000000 51845242.000000,49163582.000000 51850000.000000,49187500.000000 51850000.000000,49312500.000000 51845242.000000,49336418.000000 51831694.000000,49356694.000000 51811418.000000,49370242.000000 51787500.000000,49375000.000000 51237500.000000,49375000.000000 51213582.000000,49370242.000000 51193306.000000,49356694.000000 51179758.000000,49336418.000000 51175000.000000,49312500.000000 Z"/> 
<svg:path style="fill:#C83434; fill-opacity:1.0;  stroke:#C83434; stroke-width:1.000000; stroke-opacity:1;  stroke-linecap:round; stroke-linejoin:round;fill-rule:evenodd;" d="M 50625000.000000,48212500.000000 50629758.000000,48188582.000000 50643306.000000,48168306.000000 50663582.000000,48154758.000000 50687500.000000,48150000.000000 50812500.000000,48150000.000000 50836418.000000,48154758.000000 50856694.000000,48168306.000000 50870242.000000,48188582.000000 50875000.000000,48212500.000000 50875000.000000,48762500.000000 50870242.000000,48786418.000000 50856694.000000,48806694.000000 50836418.000000,48820242.000000 50812500.000000,48825000.000000 50687500.000000,48825000.000000 50663582.000000,48820242.000000 50643306.000000,48806694.000000 50629758.000000,48786418.000000 50625000.000000,48762500.000000 Z"/> 
<svg:path style="fill:#C83434; fill-opacity:1.0;  stroke:#C83434; stroke-width:1.000000; stroke-opacity:1;  stroke-linecap:round; stroke-linejoin:round;fill-rule:evenodd;" d="M 50125000.000000,48212500.000000 50129758.000000,48188582.000000 50143306.000000,48168306.000000 50163582.000000,48154758.000000 50187500.000000,48150000.000000 50312500.000000,48150000.000000 50336418.000000,48154758.000000 50356694.000000,48168306.000000 50370242.000000,48188582.000000 50375000.000000,48212500.000000 50375000.000000,48762500.000000 50370242.000000,48786418.000000 50356694.000000,48806694.000000 50336418.000000,48820242.000000 50312500.000000,48825000.000000 50187500.000000,48825000.000000 50163582.000000,48820242.000000 50143306.000000,48806694.000000 50129758.000000,48786418.000000 50125000.000000,48762500.000000 Z"/> 
<svg:path style="fill:#C83434; fill-opacity:1.0;  stroke:#C83434; stroke-width:1.000000; stroke-opacity:1;  stroke-linecap:round; stroke-linejoin:round;fill-rule:evenodd;" d="M 49625000.000000,48212500.000000 49629758.000000,48188582.000000 49643306.000000,48168306.000000 49663582.000000,48154758.000000 49687500.000000,48150000.000000 49812500.000000,48150000.000000 49836418.000000,48154758.000000 49856694.000000,48168306.000000 49870242.000000,48188582.000000 49875000.000000,48212500.000000 49875000.000000,48762500.000000 49870242.000000,48786418.000000 49856694.000000,48806694.000000 49836418.000000,48820242.000000 49812500.000000,48825000.000000 49687500.000000,48825000.000000 49663582.000000,48820242.000000 49643306.000000,48806694.000000 49629758.000000,48786418.000000 49625000.000000,48762500.000000 Z"/> 
<svg:path style="fill:#C83434; fill-opacity:1.0;  stroke:#C83434; stroke-width:1.000000; stroke-opacity:1;  stroke-linecap:round; stroke-linejoin:round;fill-rule:evenodd;" d="M 49125000.000000,48212500.000000 49129758.000000,48188582.000000 49143306.000000,48168306.000000 49163582.000000,48154758.000000 49187500.000000,48150000.000000 49312500.000000,48150000.000000 49336418.000000,48154758.000000 49356694.000000,48168306.000000 49370242.000000,48188582.000000 49375000.000000,48212500.000000 49375000.000000,48762500.000000 49370242.000000,48786418.000000 49356694.000000,48806694.000000 49336418.000000,48820242.000000 49312500.000000,48825000.000000 49187500.000000,48825000.000000 49163582.000000,48820242.000000 49143306.000000,48806694.000000 49129758.000000,48786418.000000 49125000.000000,48762500.000000 Z"/> 
<svg:path style="fill:#C83434; fill-opacity:1.0;  stroke:#C83434; stroke-width:1.000000; stroke-opacity:1;  stroke-linecap:round; stroke-linejoin:round;fill-rule:evenodd;" d="M 49050000.000000,50950000.000000 49050000.000000,49050000.000000 50950000.000000,49050000.000000 50950000.000000,50950000.000000 Z"/> 
</svg:g>
<svg:g>
</svg:g>
<svg:g>
</svg:g>
<svg:g>
</svg:g>
</svg:g>
<svg:g style="fill:#FFFFFF; fill-opacity:1.0;  stroke:#FFFFFF; stroke-width:1.000000; stroke-opacity:1;  stroke-linecap:round; stroke-linejoin:round;">
</svg:g>
<svg:g style="fill:#000000; fill-opacity:1.0;  stroke:#000000; stroke-width:1.000000; stroke-opacity:1;  stroke-linecap:round; stroke-linejoin:round;">
<svg:g>
</svg:g>
<svg:g>
</svg:g>
<svg:g>
</svg:g>
<svg:g>
</svg:g>
</svg:g> 
</svg:g></svg>
