<?xml version='1.0' encoding='ASCII' standalone='yes'?>
<svg xmlns:svg="http://www.w3.org/2000/svg" xmlns="http://www.w3.org/2000/svg" xmlns:xlink="http://www.w3.org/1999/xlink" version="1.1" width="9.999980cm" height="9.999980cm" viewBox="0 0 99999800 99999800">
<title>SVG Picture created as kicadBoard-B_Cu.svg date 2022/12/03 04:00:05 </title>
  <desc>Picture generated by PCBNEW </desc>
<g style="fill:#000000; fill-opacity:1.000000;stroke:#000000; stroke-opacity:1.000000; stroke-linecap:round; stroke-linejoin:round;" transform="translate(0 0) scale(1 1)">
</g>
<g style="fill:#000000; fill-opacity:0.0;  stroke:#000000; stroke-width:0.000000; stroke-opacity:1;  stroke-linecap:round; stroke-linejoin:round;">
<g>
</g>
<g style="fill:#4D7FC4; fill-opacity:0.0;  stroke:#4D7FC4; stroke-width:0.000000; stroke-opacity:1;  stroke-linecap:round; stroke-linejoin:round;">
</g>
<g style="fill:#4D7FC4; fill-opacity:0.0;  stroke:#4D7FC4; stroke-width:1.000000; stroke-opacity:1;  stroke-linecap:round; stroke-linejoin:round;">
</g>
<g style="fill:#4D7FC4; fill-opacity:1.0;  stroke:#4D7FC4; stroke-width:1.000000; stroke-opacity:1;  stroke-linecap:round; stroke-linejoin:round;">
<path style="fill:#4D7FC4; fill-opacity:1.0;  stroke:#4D7FC4; stroke-width:1.000000; stroke-opacity:1;  stroke-linecap:round; stroke-linejoin:round;fill-rule:evenodd;" d="M 45885200.000000,54292600.000000 46672600.000000,53505200.000000 48247400.000000,53505200.000000 49034800.000000,54292600.000000 49034800.000000,55867400.000000 48247400.000000,56654800.000000 46672600.000000,56654800.000000 45885200.000000,55867400.000000 Z"/> 
<path style="fill:#4D7FC4; fill-opacity:1.0;  stroke:#4D7FC4; stroke-width:1.000000; stroke-opacity:1;  stroke-linecap:round; stroke-linejoin:round;fill-rule:evenodd;" d="M 45885200.000000,44132600.000000 46672600.000000,43345200.000000 48247400.000000,43345200.000000 49034800.000000,44132600.000000 49034800.000000,45707400.000000 48247400.000000,46494800.000000 46672600.000000,46494800.000000 45885200.000000,45707400.000000 Z"/> 
<path style="fill:#4D7FC4; fill-opacity:1.0;  stroke:#4D7FC4; stroke-width:1.000000; stroke-opacity:1;  stroke-linecap:round; stroke-linejoin:round;fill-rule:evenodd;" d="M 50584200.000000,49212600.000000 51371600.000000,48425200.000000 52946400.000000,48425200.000000 53733800.000000,49212600.000000 53733800.000000,50787400.000000 52946400.000000,51574800.000000 51371600.000000,51574800.000000 50584200.000000,50787400.000000 Z"/> 
</g>
<g>
</g>
<g>
</g>
<g>
</g>
</g>
<g style="fill:#FFFFFF; fill-opacity:1.0;  stroke:#FFFFFF; stroke-width:1.000000; stroke-opacity:1;  stroke-linecap:round; stroke-linejoin:round;">
<circle cx="47460000.000000" cy="55080000.000000" r="660400.000000"/> 
</g>
<g style="fill:#FFFFFF; fill-opacity:1.0;  stroke:#FFFFFF; stroke-width:21200.000000; stroke-opacity:1;  stroke-linecap:round; stroke-linejoin:round;">
</g>
<g style="fill:#FFFFFF; fill-opacity:1.0;  stroke:#FFFFFF; stroke-width:1.000000; stroke-opacity:1;  stroke-linecap:round; stroke-linejoin:round;">
<circle cx="47460000.000000" cy="44920000.000000" r="660400.000000"/> 
</g>
<g style="fill:#FFFFFF; fill-opacity:1.0;  stroke:#FFFFFF; stroke-width:21200.000000; stroke-opacity:1;  stroke-linecap:round; stroke-linejoin:round;">
</g>
<g style="fill:#FFFFFF; fill-opacity:1.0;  stroke:#FFFFFF; stroke-width:1.000000; stroke-opacity:1;  stroke-linecap:round; stroke-linejoin:round;">
<circle cx="52159000.000000" cy="50000000.000000" r="660400.000000"/> 
</g>
<g style="fill:#FFFFFF; fill-opacity:1.0;  stroke:#FFFFFF; stroke-width:21200.000000; stroke-opacity:1;  stroke-linecap:round; stroke-linejoin:round;">
</g>
<g style="fill:#000000; fill-opacity:1.0;  stroke:#000000; stroke-width:21200.000000; stroke-opacity:1;  stroke-linecap:round; stroke-linejoin:round;">
<g>
</g>
<g>
</g>
<g>
</g>
<g>
</g>
</g> 
<svg:g><svg:title>SVG Picture created as kicadBoard-B_Adhesive.svg date 2022/12/03 04:00:05 </svg:title>
  <svg:desc>Picture generated by PCBNEW </svg:desc>
<svg:g style="fill:#000000; fill-opacity:1.000000;stroke:#000000; stroke-opacity:1.000000; stroke-linecap:round; stroke-linejoin:round;" transform="translate(0 0) scale(1 1)">
</svg:g>
<svg:g style="fill:#000000; fill-opacity:0.0;  stroke:#000000; stroke-width:0.000000; stroke-opacity:1;  stroke-linecap:round; stroke-linejoin:round;">
<svg:g>
</svg:g>
<svg:g>
</svg:g>
<svg:g>
</svg:g>
<svg:g>
</svg:g>
</svg:g>
<svg:g style="fill:#000000; fill-opacity:0.0;  stroke:#000000; stroke-width:0.000000; stroke-opacity:1;  stroke-linecap:round; stroke-linejoin:round;">
<svg:g>
</svg:g>
<svg:g>
</svg:g>
<svg:g>
</svg:g>
<svg:g>
</svg:g>
</svg:g> 
</svg:g><svg:g><svg:title>SVG Picture created as kicadBoard-B_Courtyard.svg date 2022/12/03 04:00:05 </svg:title>
  <svg:desc>Picture generated by PCBNEW </svg:desc>
<svg:g style="fill:#000000; fill-opacity:1.000000;stroke:#000000; stroke-opacity:1.000000; stroke-linecap:round; stroke-linejoin:round;" transform="translate(0 0) scale(1 1)">
</svg:g>
<svg:g style="fill:#000000; fill-opacity:0.0;  stroke:#000000; stroke-width:0.000000; stroke-opacity:1;  stroke-linecap:round; stroke-linejoin:round;">
<svg:g>
</svg:g>
<svg:g>
</svg:g>
<svg:g>
</svg:g>
<svg:g>
</svg:g>
</svg:g>
<svg:g style="fill:#000000; fill-opacity:0.0;  stroke:#000000; stroke-width:0.000000; stroke-opacity:1;  stroke-linecap:round; stroke-linejoin:round;">
<svg:g>
</svg:g>
<svg:g>
</svg:g>
<svg:g>
</svg:g>
<svg:g>
</svg:g>
</svg:g> 
</svg:g><svg:g><svg:title>SVG Picture created as kicadBoard-B_Fab.svg date 2022/12/03 04:00:05 </svg:title>
  <svg:desc>Picture generated by PCBNEW </svg:desc>
<svg:g style="fill:#000000; fill-opacity:1.000000;stroke:#000000; stroke-opacity:1.000000; stroke-linecap:round; stroke-linejoin:round;" transform="translate(0 0) scale(1 1)">
</svg:g>
<svg:g style="fill:#000000; fill-opacity:0.0;  stroke:#000000; stroke-width:0.000000; stroke-opacity:1;  stroke-linecap:round; stroke-linejoin:round;">
<svg:g>
</svg:g>
<svg:g>
</svg:g>
<svg:g>
</svg:g>
<svg:g>
</svg:g>
</svg:g>
<svg:g style="fill:#000000; fill-opacity:0.0;  stroke:#000000; stroke-width:0.000000; stroke-opacity:1;  stroke-linecap:round; stroke-linejoin:round;">
<svg:g>
</svg:g>
<svg:g>
</svg:g>
<svg:g>
</svg:g>
<svg:g>
</svg:g>
</svg:g> 
</svg:g><svg:g><svg:title>SVG Picture created as kicadBoard-B_Mask.svg date 2022/12/03 04:00:05 </svg:title>
  <svg:desc>Picture generated by PCBNEW </svg:desc>
<svg:g style="fill:#000000; fill-opacity:1.000000;stroke:#000000; stroke-opacity:1.000000; stroke-linecap:round; stroke-linejoin:round;" transform="translate(0 0) scale(1 1)">
</svg:g>
<svg:g style="fill:#000000; fill-opacity:0.0;  stroke:#000000; stroke-width:0.000000; stroke-opacity:1;  stroke-linecap:round; stroke-linejoin:round;">
<svg:g>
</svg:g>
<svg:g style="fill:#000000; fill-opacity:0.0;  stroke:#000000; stroke-width:1.000000; stroke-opacity:1;  stroke-linecap:round; stroke-linejoin:round;">
</svg:g>
<svg:g style="fill:#000000; fill-opacity:1.0;  stroke:#000000; stroke-width:1.000000; stroke-opacity:1;  stroke-linecap:round; stroke-linejoin:round;">
<svg:path style="fill:#000000; fill-opacity:1.0;  stroke:#000000; stroke-width:1.000000; stroke-opacity:1;  stroke-linecap:round; stroke-linejoin:round;fill-rule:evenodd;" d="M 48307119.000000,53423004.000000 48319242.000000,53433358.000000 49106642.000000,54220758.000000 49135149.000000,54276706.000000 49136400.000000,54292600.000000 49136400.000000,55867400.000000 49116996.000000,55927119.000000 49106642.000000,55939242.000000 48319242.000000,56726642.000000 48263294.000000,56755149.000000 48247400.000000,56756400.000000 46672600.000000,56756400.000000 46612881.000000,56736996.000000 46600758.000000,56726642.000000 45813358.000000,55939242.000000 45784851.000000,55883294.000000 45783600.000000,55867400.000000 45783600.000000,54292600.000000 45803004.000000,54232881.000000 45813358.000000,54220758.000000 46600758.000000,53433358.000000 46656706.000000,53404851.000000 46672600.000000,53403600.000000 48247400.000000,53403600.000000 Z"/> 
<svg:path style="fill:#000000; fill-opacity:1.0;  stroke:#000000; stroke-width:1.000000; stroke-opacity:1;  stroke-linecap:round; stroke-linejoin:round;fill-rule:evenodd;" d="M 48307119.000000,43263004.000000 48319242.000000,43273358.000000 49106642.000000,44060758.000000 49135149.000000,44116706.000000 49136400.000000,44132600.000000 49136400.000000,45707400.000000 49116996.000000,45767119.000000 49106642.000000,45779242.000000 48319242.000000,46566642.000000 48263294.000000,46595149.000000 48247400.000000,46596400.000000 46672600.000000,46596400.000000 46612881.000000,46576996.000000 46600758.000000,46566642.000000 45813358.000000,45779242.000000 45784851.000000,45723294.000000 45783600.000000,45707400.000000 45783600.000000,44132600.000000 45803004.000000,44072881.000000 45813358.000000,44060758.000000 46600758.000000,43273358.000000 46656706.000000,43244851.000000 46672600.000000,43243600.000000 48247400.000000,43243600.000000 Z"/> 
<svg:path style="fill:#000000; fill-opacity:1.0;  stroke:#000000; stroke-width:1.000000; stroke-opacity:1;  stroke-linecap:round; stroke-linejoin:round;fill-rule:evenodd;" d="M 53006119.000000,48343004.000000 53018242.000000,48353358.000000 53805642.000000,49140758.000000 53834149.000000,49196706.000000 53835400.000000,49212600.000000 53835400.000000,50787400.000000 53815996.000000,50847119.000000 53805642.000000,50859242.000000 53018242.000000,51646642.000000 52962294.000000,51675149.000000 52946400.000000,51676400.000000 51371600.000000,51676400.000000 51311881.000000,51656996.000000 51299758.000000,51646642.000000 50512358.000000,50859242.000000 50483851.000000,50803294.000000 50482600.000000,50787400.000000 50482600.000000,49212600.000000 50502004.000000,49152881.000000 50512358.000000,49140758.000000 51299758.000000,48353358.000000 51355706.000000,48324851.000000 51371600.000000,48323600.000000 52946400.000000,48323600.000000 Z"/> 
</svg:g>
<svg:g>
</svg:g>
<svg:g>
</svg:g>
<svg:g>
</svg:g>
</svg:g>
<svg:g style="fill:#000000; fill-opacity:1.0;  stroke:#000000; stroke-width:1.000000; stroke-opacity:1;  stroke-linecap:round; stroke-linejoin:round;">
<svg:g>
</svg:g>
<svg:g>
</svg:g>
<svg:g>
</svg:g>
<svg:g>
</svg:g>
</svg:g> 
</svg:g><svg:g><svg:title>SVG Picture created as kicadBoard-B_Paste.svg date 2022/12/03 04:00:05 </svg:title>
  <svg:desc>Picture generated by PCBNEW </svg:desc>
<svg:g style="fill:#000000; fill-opacity:1.000000;stroke:#000000; stroke-opacity:1.000000; stroke-linecap:round; stroke-linejoin:round;" transform="translate(0 0) scale(1 1)">
</svg:g>
<svg:g style="fill:#000000; fill-opacity:0.0;  stroke:#000000; stroke-width:0.000000; stroke-opacity:1;  stroke-linecap:round; stroke-linejoin:round;">
<svg:g>
</svg:g>
<svg:g>
</svg:g>
<svg:g>
</svg:g>
<svg:g>
</svg:g>
</svg:g>
<svg:g style="fill:#000000; fill-opacity:0.0;  stroke:#000000; stroke-width:0.000000; stroke-opacity:1;  stroke-linecap:round; stroke-linejoin:round;">
<svg:g>
</svg:g>
<svg:g>
</svg:g>
<svg:g>
</svg:g>
<svg:g>
</svg:g>
</svg:g> 
</svg:g><svg:g><svg:title>SVG Picture created as kicadBoard-B_Silkscreen.svg date 2022/12/03 04:00:05 </svg:title>
  <svg:desc>Picture generated by PCBNEW </svg:desc>
<svg:g style="fill:#000000; fill-opacity:1.000000;stroke:#000000; stroke-opacity:1.000000; stroke-linecap:round; stroke-linejoin:round;" transform="translate(0 0) scale(1 1)">
</svg:g>
<svg:g style="fill:#000000; fill-opacity:0.0;  stroke:#000000; stroke-width:0.000000; stroke-opacity:1;  stroke-linecap:round; stroke-linejoin:round;">
<svg:g>
</svg:g>
<svg:g>
</svg:g>
<svg:g>
</svg:g>
<svg:g>
</svg:g>
</svg:g>
<svg:g style="fill:#000000; fill-opacity:0.0;  stroke:#000000; stroke-width:0.000000; stroke-opacity:1;  stroke-linecap:round; stroke-linejoin:round;">
<svg:g>
</svg:g>
<svg:g>
</svg:g>
<svg:g>
</svg:g>
<svg:g>
</svg:g>
</svg:g> 
</svg:g><svg:g><svg:title>SVG Picture created as kicadBoard-Edge_Cuts.svg date 2022/12/03 04:00:05 </svg:title>
  <svg:desc>Picture generated by PCBNEW </svg:desc>
<svg:g style="fill:#000000; fill-opacity:1.000000;stroke:#000000; stroke-opacity:1.000000; stroke-linecap:round; stroke-linejoin:round;" transform="translate(0 0) scale(1 1)">
</svg:g>
<svg:g style="fill:#000000; fill-opacity:0.0;  stroke:#000000; stroke-width:0.000000; stroke-opacity:1;  stroke-linecap:round; stroke-linejoin:round;">
<svg:g>
</svg:g>
<svg:g>
</svg:g>
<svg:g>
</svg:g>
<svg:g>
</svg:g>
</svg:g> 
</svg:g><svg:g><svg:title>SVG Picture created as kicadBoard-F_Adhesive.svg date 2022/12/03 04:00:05 </svg:title>
  <svg:desc>Picture generated by PCBNEW </svg:desc>
<svg:g style="fill:#000000; fill-opacity:1.000000;stroke:#000000; stroke-opacity:1.000000; stroke-linecap:round; stroke-linejoin:round;" transform="translate(0 0) scale(1 1)">
</svg:g>
<svg:g style="fill:#000000; fill-opacity:0.0;  stroke:#000000; stroke-width:0.000000; stroke-opacity:1;  stroke-linecap:round; stroke-linejoin:round;">
<svg:g>
</svg:g>
<svg:g>
</svg:g>
<svg:g>
</svg:g>
<svg:g>
</svg:g>
</svg:g>
<svg:g style="fill:#000000; fill-opacity:0.0;  stroke:#000000; stroke-width:0.000000; stroke-opacity:1;  stroke-linecap:round; stroke-linejoin:round;">
<svg:g>
</svg:g>
<svg:g>
</svg:g>
<svg:g>
</svg:g>
<svg:g>
</svg:g>
</svg:g> 
</svg:g><svg:g><svg:title>SVG Picture created as kicadBoard-F_Courtyard.svg date 2022/12/03 04:00:05 </svg:title>
  <svg:desc>Picture generated by PCBNEW </svg:desc>
<svg:g style="fill:#000000; fill-opacity:1.000000;stroke:#000000; stroke-opacity:1.000000; stroke-linecap:round; stroke-linejoin:round;" transform="translate(0 0) scale(1 1)">
</svg:g>
<svg:g style="fill:#000000; fill-opacity:0.0;  stroke:#000000; stroke-width:0.000000; stroke-opacity:1;  stroke-linecap:round; stroke-linejoin:round;">
<svg:g>
</svg:g>
<svg:g>
</svg:g>
<svg:g>
</svg:g>
<svg:g>
</svg:g>
</svg:g>
<svg:g style="fill:#000000; fill-opacity:0.0;  stroke:#000000; stroke-width:0.000000; stroke-opacity:1;  stroke-linecap:round; stroke-linejoin:round;">
<svg:g>
</svg:g>
<svg:g>
</svg:g>
<svg:g>
</svg:g>
<svg:g>
</svg:g>
</svg:g> 
</svg:g><svg:g><svg:title>SVG Picture created as kicadBoard-F_Cu.svg date 2022/12/03 04:00:05 </svg:title>
  <svg:desc>Picture generated by PCBNEW </svg:desc>
<svg:g style="fill:#000000; fill-opacity:1.000000;stroke:#000000; stroke-opacity:1.000000; stroke-linecap:round; stroke-linejoin:round;" transform="translate(0 0) scale(1 1)">
</svg:g>
<svg:g style="fill:#000000; fill-opacity:0.0;  stroke:#000000; stroke-width:0.000000; stroke-opacity:1;  stroke-linecap:round; stroke-linejoin:round;">
<svg:g>
</svg:g>
<svg:g style="fill:#C83434; fill-opacity:0.0;  stroke:#C83434; stroke-width:0.000000; stroke-opacity:1;  stroke-linecap:round; stroke-linejoin:round;">
</svg:g>
<svg:g style="fill:#C83434; fill-opacity:0.0;  stroke:#C83434; stroke-width:1.000000; stroke-opacity:1;  stroke-linecap:round; stroke-linejoin:round;">
</svg:g>
<svg:g style="fill:#C83434; fill-opacity:1.0;  stroke:#C83434; stroke-width:1.000000; stroke-opacity:1;  stroke-linecap:round; stroke-linejoin:round;">
<svg:path style="fill:#C83434; fill-opacity:1.0;  stroke:#C83434; stroke-width:1.000000; stroke-opacity:1;  stroke-linecap:round; stroke-linejoin:round;fill-rule:evenodd;" d="M 45885200.000000,54292600.000000 46672600.000000,53505200.000000 48247400.000000,53505200.000000 49034800.000000,54292600.000000 49034800.000000,55867400.000000 48247400.000000,56654800.000000 46672600.000000,56654800.000000 45885200.000000,55867400.000000 Z"/> 
<svg:path style="fill:#C83434; fill-opacity:1.0;  stroke:#C83434; stroke-width:1.000000; stroke-opacity:1;  stroke-linecap:round; stroke-linejoin:round;fill-rule:evenodd;" d="M 45885200.000000,44132600.000000 46672600.000000,43345200.000000 48247400.000000,43345200.000000 49034800.000000,44132600.000000 49034800.000000,45707400.000000 48247400.000000,46494800.000000 46672600.000000,46494800.000000 45885200.000000,45707400.000000 Z"/> 
<svg:path style="fill:#C83434; fill-opacity:1.0;  stroke:#C83434; stroke-width:1.000000; stroke-opacity:1;  stroke-linecap:round; stroke-linejoin:round;fill-rule:evenodd;" d="M 50584200.000000,49212600.000000 51371600.000000,48425200.000000 52946400.000000,48425200.000000 53733800.000000,49212600.000000 53733800.000000,50787400.000000 52946400.000000,51574800.000000 51371600.000000,51574800.000000 50584200.000000,50787400.000000 Z"/> 
</svg:g>
<svg:g>
</svg:g>
<svg:g>
</svg:g>
<svg:g>
</svg:g>
</svg:g>
<svg:g style="fill:#FFFFFF; fill-opacity:1.0;  stroke:#FFFFFF; stroke-width:1.000000; stroke-opacity:1;  stroke-linecap:round; stroke-linejoin:round;">
<svg:circle cx="47460000.000000" cy="55080000.000000" r="660400.000000"/> 
</svg:g>
<svg:g style="fill:#FFFFFF; fill-opacity:1.0;  stroke:#FFFFFF; stroke-width:21200.000000; stroke-opacity:1;  stroke-linecap:round; stroke-linejoin:round;">
</svg:g>
<svg:g style="fill:#FFFFFF; fill-opacity:1.0;  stroke:#FFFFFF; stroke-width:1.000000; stroke-opacity:1;  stroke-linecap:round; stroke-linejoin:round;">
<svg:circle cx="47460000.000000" cy="44920000.000000" r="660400.000000"/> 
</svg:g>
<svg:g style="fill:#FFFFFF; fill-opacity:1.0;  stroke:#FFFFFF; stroke-width:21200.000000; stroke-opacity:1;  stroke-linecap:round; stroke-linejoin:round;">
</svg:g>
<svg:g style="fill:#FFFFFF; fill-opacity:1.0;  stroke:#FFFFFF; stroke-width:1.000000; stroke-opacity:1;  stroke-linecap:round; stroke-linejoin:round;">
<svg:circle cx="52159000.000000" cy="50000000.000000" r="660400.000000"/> 
</svg:g>
<svg:g style="fill:#FFFFFF; fill-opacity:1.0;  stroke:#FFFFFF; stroke-width:21200.000000; stroke-opacity:1;  stroke-linecap:round; stroke-linejoin:round;">
</svg:g>
<svg:g style="fill:#000000; fill-opacity:1.0;  stroke:#000000; stroke-width:21200.000000; stroke-opacity:1;  stroke-linecap:round; stroke-linejoin:round;">
<svg:g>
</svg:g>
<svg:g>
</svg:g>
<svg:g>
</svg:g>
<svg:g>
</svg:g>
</svg:g> 
</svg:g><svg:g><svg:title>SVG Picture created as kicadBoard-F_Fab.svg date 2022/12/03 04:00:05 </svg:title>
  <svg:desc>Picture generated by PCBNEW </svg:desc>
<svg:g style="fill:#000000; fill-opacity:1.000000;stroke:#000000; stroke-opacity:1.000000; stroke-linecap:round; stroke-linejoin:round;" transform="translate(0 0) scale(1 1)">
</svg:g>
<svg:g style="fill:#000000; fill-opacity:0.0;  stroke:#000000; stroke-width:0.000000; stroke-opacity:1;  stroke-linecap:round; stroke-linejoin:round;">
</svg:g>
<svg:g style="fill:#AFAFAF; fill-opacity:0.0;  stroke:#AFAFAF; stroke-width:0.000000; stroke-opacity:1;  stroke-linecap:round; stroke-linejoin:round;">
</svg:g>
<svg:g style="fill:#AFAFAF; fill-opacity:0.0;  stroke:#AFAFAF; stroke-width:127000.000000; stroke-opacity:1;  stroke-linecap:round; stroke-linejoin:round;">
<svg:g transform="rotate(-90.000000 54572000.000000 59398000.000000)">
<svg:text x="54572000.000000" y="59398000.000000" textLength="6696529.000000" font-size="1524000.000000" lengthAdjust="spacingAndGlyphs" text-anchor="start" opacity="0">&gt;VALUE</svg:text>
</svg:g>
<svg:g class="stroked-text"><svg:desc>&gt;VALUE</svg:desc>
<svg:path d="M53755571 59043307 L54082142 58172450 L54408714 59043307 "/>
<svg:path d="M53374571 57791450 L54517571 57410450 L53374571 57029450 "/>
<svg:path d="M54191000 56702878 L54191000 56158592 "/>
<svg:path d="M54517571 56811735 L53374571 56430735 L54517571 56049735 "/>
<svg:path d="M54517571 55124450 L54517571 55668735 L53374571 55668735 "/>
<svg:path d="M53374571 54743450 L54299857 54743450 L54408714 54689021 L54463142 54634592 L54517571 54525735 L54517571 54308021 L54463142 54199164 L54408714 54144735 L54299857 54090307 L53374571 54090307 "/>
<svg:path d="M53918857 53546021 L53918857 53165021 "/>
<svg:path d="M54517571 53001735 L54517571 53546021 L53374571 53546021 L53374571 53001735 "/>
</svg:g></svg:g>
<svg:g style="fill:#AFAFAF; fill-opacity:0.0;  stroke:#AFAFAF; stroke-width:152400.000000; stroke-opacity:1;  stroke-linecap:round; stroke-linejoin:round;">
<svg:path d="M50889000 48857000 L50889000 51143000 "/>
<svg:path d="M47460000 46825000 L47460000 43142000 "/>
<svg:path d="M51524000 51905000 L51524000 48095000 "/>
<svg:path d="M47460000 56858000 L47460000 53175000 "/>
<svg:path d="M48095000 56858000 L48095000 53175000 "/>
<svg:path d="M48095000 46825000 L48095000 43142000 "/>
<svg:path d="M52159000 51905000 L52159000 48095000 "/>
<svg:g>
</svg:g>
<svg:g>
</svg:g>
<svg:g>
</svg:g>
<svg:g>
</svg:g>
</svg:g>
<svg:g style="fill:#000000; fill-opacity:0.0;  stroke:#000000; stroke-width:152400.000000; stroke-opacity:1;  stroke-linecap:round; stroke-linejoin:round;">
<svg:g>
</svg:g>
<svg:g>
</svg:g>
<svg:g>
</svg:g>
<svg:g>
</svg:g>
</svg:g> 
</svg:g><svg:g><svg:title>SVG Picture created as kicadBoard-F_Mask.svg date 2022/12/03 04:00:05 </svg:title>
  <svg:desc>Picture generated by PCBNEW </svg:desc>
<svg:g style="fill:#000000; fill-opacity:1.000000;stroke:#000000; stroke-opacity:1.000000; stroke-linecap:round; stroke-linejoin:round;" transform="translate(0 0) scale(1 1)">
</svg:g>
<svg:g style="fill:#000000; fill-opacity:0.0;  stroke:#000000; stroke-width:0.000000; stroke-opacity:1;  stroke-linecap:round; stroke-linejoin:round;">
<svg:g>
</svg:g>
<svg:g style="fill:#000000; fill-opacity:0.0;  stroke:#000000; stroke-width:1.000000; stroke-opacity:1;  stroke-linecap:round; stroke-linejoin:round;">
</svg:g>
<svg:g style="fill:#000000; fill-opacity:1.0;  stroke:#000000; stroke-width:1.000000; stroke-opacity:1;  stroke-linecap:round; stroke-linejoin:round;">
<svg:path style="fill:#000000; fill-opacity:1.0;  stroke:#000000; stroke-width:1.000000; stroke-opacity:1;  stroke-linecap:round; stroke-linejoin:round;fill-rule:evenodd;" d="M 48307119.000000,53423004.000000 48319242.000000,53433358.000000 49106642.000000,54220758.000000 49135149.000000,54276706.000000 49136400.000000,54292600.000000 49136400.000000,55867400.000000 49116996.000000,55927119.000000 49106642.000000,55939242.000000 48319242.000000,56726642.000000 48263294.000000,56755149.000000 48247400.000000,56756400.000000 46672600.000000,56756400.000000 46612881.000000,56736996.000000 46600758.000000,56726642.000000 45813358.000000,55939242.000000 45784851.000000,55883294.000000 45783600.000000,55867400.000000 45783600.000000,54292600.000000 45803004.000000,54232881.000000 45813358.000000,54220758.000000 46600758.000000,53433358.000000 46656706.000000,53404851.000000 46672600.000000,53403600.000000 48247400.000000,53403600.000000 Z"/> 
<svg:path style="fill:#000000; fill-opacity:1.0;  stroke:#000000; stroke-width:1.000000; stroke-opacity:1;  stroke-linecap:round; stroke-linejoin:round;fill-rule:evenodd;" d="M 48307119.000000,43263004.000000 48319242.000000,43273358.000000 49106642.000000,44060758.000000 49135149.000000,44116706.000000 49136400.000000,44132600.000000 49136400.000000,45707400.000000 49116996.000000,45767119.000000 49106642.000000,45779242.000000 48319242.000000,46566642.000000 48263294.000000,46595149.000000 48247400.000000,46596400.000000 46672600.000000,46596400.000000 46612881.000000,46576996.000000 46600758.000000,46566642.000000 45813358.000000,45779242.000000 45784851.000000,45723294.000000 45783600.000000,45707400.000000 45783600.000000,44132600.000000 45803004.000000,44072881.000000 45813358.000000,44060758.000000 46600758.000000,43273358.000000 46656706.000000,43244851.000000 46672600.000000,43243600.000000 48247400.000000,43243600.000000 Z"/> 
<svg:path style="fill:#000000; fill-opacity:1.0;  stroke:#000000; stroke-width:1.000000; stroke-opacity:1;  stroke-linecap:round; stroke-linejoin:round;fill-rule:evenodd;" d="M 53006119.000000,48343004.000000 53018242.000000,48353358.000000 53805642.000000,49140758.000000 53834149.000000,49196706.000000 53835400.000000,49212600.000000 53835400.000000,50787400.000000 53815996.000000,50847119.000000 53805642.000000,50859242.000000 53018242.000000,51646642.000000 52962294.000000,51675149.000000 52946400.000000,51676400.000000 51371600.000000,51676400.000000 51311881.000000,51656996.000000 51299758.000000,51646642.000000 50512358.000000,50859242.000000 50483851.000000,50803294.000000 50482600.000000,50787400.000000 50482600.000000,49212600.000000 50502004.000000,49152881.000000 50512358.000000,49140758.000000 51299758.000000,48353358.000000 51355706.000000,48324851.000000 51371600.000000,48323600.000000 52946400.000000,48323600.000000 Z"/> 
</svg:g>
<svg:g>
</svg:g>
<svg:g>
</svg:g>
<svg:g>
</svg:g>
</svg:g>
<svg:g style="fill:#000000; fill-opacity:1.0;  stroke:#000000; stroke-width:1.000000; stroke-opacity:1;  stroke-linecap:round; stroke-linejoin:round;">
<svg:g>
</svg:g>
<svg:g>
</svg:g>
<svg:g>
</svg:g>
<svg:g>
</svg:g>
</svg:g> 
</svg:g><svg:g><svg:title>SVG Picture created as kicadBoard-F_Paste.svg date 2022/12/03 04:00:05 </svg:title>
  <svg:desc>Picture generated by PCBNEW </svg:desc>
<svg:g style="fill:#000000; fill-opacity:1.000000;stroke:#000000; stroke-opacity:1.000000; stroke-linecap:round; stroke-linejoin:round;" transform="translate(0 0) scale(1 1)">
</svg:g>
<svg:g style="fill:#000000; fill-opacity:0.0;  stroke:#000000; stroke-width:0.000000; stroke-opacity:1;  stroke-linecap:round; stroke-linejoin:round;">
<svg:g>
</svg:g>
<svg:g>
</svg:g>
<svg:g>
</svg:g>
<svg:g>
</svg:g>
</svg:g>
<svg:g style="fill:#000000; fill-opacity:0.0;  stroke:#000000; stroke-width:0.000000; stroke-opacity:1;  stroke-linecap:round; stroke-linejoin:round;">
<svg:g>
</svg:g>
<svg:g>
</svg:g>
<svg:g>
</svg:g>
<svg:g>
</svg:g>
</svg:g> 
</svg:g><svg:g><svg:title>SVG Picture created as kicadBoard-F_Silkscreen.svg date 2022/12/03 04:00:05 </svg:title>
  <svg:desc>Picture generated by PCBNEW </svg:desc>
<svg:g style="fill:#000000; fill-opacity:1.000000;stroke:#000000; stroke-opacity:1.000000; stroke-linecap:round; stroke-linejoin:round;" transform="translate(0 0) scale(1 1)">
</svg:g>
<svg:g style="fill:#000000; fill-opacity:0.0;  stroke:#000000; stroke-width:0.000000; stroke-opacity:1;  stroke-linecap:round; stroke-linejoin:round;">
</svg:g>
<svg:g style="fill:#F2EDA1; fill-opacity:0.0;  stroke:#F2EDA1; stroke-width:0.000000; stroke-opacity:1;  stroke-linecap:round; stroke-linejoin:round;">
</svg:g>
<svg:g style="fill:#F2EDA1; fill-opacity:0.0;  stroke:#F2EDA1; stroke-width:127000.000000; stroke-opacity:1;  stroke-linecap:round; stroke-linejoin:round;">
<svg:g transform="rotate(-90.000000 54064000.000000 47460000.000000)">
<svg:text x="54064000.000000" y="47460000.000000" textLength="12627430.000000" font-size="1524000.000000" lengthAdjust="spacingAndGlyphs" text-anchor="start" opacity="0">FZEBATCR243V</svg:text>
</svg:g>
<svg:g class="stroked-text"><svg:desc>FZEBATCR243V</svg:desc>
<svg:path d="M53410857 46724307 L53410857 47105307 "/>
<svg:path d="M54009571 47105307 L52866571 47105307 L52866571 46561021 "/>
<svg:path d="M52866571 46234450 L52866571 45472450 L54009571 46234450 L54009571 45472450 "/>
<svg:path d="M53410857 45037021 L53410857 44656021 "/>
<svg:path d="M54009571 44492735 L54009571 45037021 L52866571 45037021 L52866571 44492735 "/>
<svg:path d="M53410857 43621878 L53465285 43458592 L53519714 43404164 L53628571 43349735 L53791857 43349735 L53900714 43404164 L53955142 43458592 L54009571 43567450 L54009571 44002878 L52866571 44002878 L52866571 43621878 L52921000 43513021 L52975428 43458592 L53084285 43404164 L53193142 43404164 L53302000 43458592 L53356428 43513021 L53410857 43621878 L53410857 44002878 "/>
<svg:path d="M53683000 42914307 L53683000 42370021 "/>
<svg:path d="M54009571 43023164 L52866571 42642164 L54009571 42261164 "/>
<svg:path d="M52866571 42043450 L52866571 41390307 "/>
<svg:path d="M54009571 41716878 L52866571 41716878 "/>
<svg:path d="M53900714 40356164 L53955142 40410592 L54009571 40573878 L54009571 40682735 L53955142 40846021 L53846285 40954878 L53737428 41009307 L53519714 41063735 L53356428 41063735 L53138714 41009307 L53029857 40954878 L52921000 40846021 L52866571 40682735 L52866571 40573878 L52921000 40410592 L52975428 40356164 "/>
<svg:path d="M54009571 39213164 L53465285 39594164 "/>
<svg:path d="M54009571 39866307 L52866571 39866307 L52866571 39430878 L52921000 39322021 L52975428 39267592 L53084285 39213164 L53247571 39213164 L53356428 39267592 L53410857 39322021 L53465285 39430878 L53465285 39866307 "/>
<svg:path d="M52975428 38777735 L52921000 38723307 L52866571 38614450 L52866571 38342307 L52921000 38233450 L52975428 38179021 L53084285 38124592 L53193142 38124592 L53356428 38179021 L54009571 38832164 L54009571 38124592 "/>
<svg:path d="M53247571 37144878 L54009571 37144878 "/>
<svg:path d="M52812142 37417021 L53628571 37689164 L53628571 36981592 "/>
<svg:path d="M52866571 36655021 L52866571 35947450 L53302000 36328450 L53302000 36165164 L53356428 36056307 L53410857 36001878 L53519714 35947450 L53791857 35947450 L53900714 36001878 L53955142 36056307 L54009571 36165164 L54009571 36491735 L53955142 36600592 L53900714 36655021 "/>
<svg:path d="M52866571 35620878 L54009571 35239878 L52866571 34858878 "/>
</svg:g><svg:g transform="rotate(-90.000000 50127000.000000 53810000.000000)">
<svg:text x="50127000.000000" y="53810000.000000" textLength="6315529.000000" font-size="1524000.000000" lengthAdjust="spacingAndGlyphs" text-anchor="start" opacity="0">LITH.3V</svg:text>
</svg:g>
<svg:g class="stroked-text"><svg:desc>LITH.3V</svg:desc>
<svg:path d="M50072571 52911021 L50072571 53455307 L48929571 53455307 "/>
<svg:path d="M50072571 52530021 L48929571 52530021 "/>
<svg:path d="M48929571 52149021 L48929571 51495878 "/>
<svg:path d="M50072571 51822450 L48929571 51822450 "/>
<svg:path d="M50072571 51114878 L48929571 51114878 "/>
<svg:path d="M49473857 51114878 L49473857 50461735 "/>
<svg:path d="M50072571 50461735 L48929571 50461735 "/>
<svg:path d="M49963714 49917450 L50018142 49863021 L50072571 49917450 L50018142 49971878 L49963714 49917450 L50072571 49917450 "/>
<svg:path d="M48929571 49482021 L48929571 48774450 L49365000 49155450 L49365000 48992164 L49419428 48883307 L49473857 48828878 L49582714 48774450 L49854857 48774450 L49963714 48828878 L50018142 48883307 L50072571 48992164 L50072571 49318735 L50018142 49427592 L49963714 49482021 "/>
<svg:path d="M48929571 48447878 L50072571 48066878 L48929571 47685878 "/>
</svg:g></svg:g>
<svg:g style="fill:#F2EDA1; fill-opacity:0.0;  stroke:#F2EDA1; stroke-width:152400.000000; stroke-opacity:1;  stroke-linecap:round; stroke-linejoin:round;">
<svg:path d="M48095000 53175000 L48095000 46825000 "/>
</svg:g>
<svg:g style="fill:#F2EDA1; fill-opacity:0.0;  stroke:#F2EDA1; stroke-width:254000.000000; stroke-opacity:1;  stroke-linecap:round; stroke-linejoin:round;">
<svg:path d="M45809000 50000000 L47079000 50000000 "/>
</svg:g>
<svg:g style="fill:#F2EDA1; fill-opacity:0.0;  stroke:#F2EDA1; stroke-width:152400.000000; stroke-opacity:1;  stroke-linecap:round; stroke-linejoin:round;">
<svg:path d="M48095000 53175000 L47460000 53175000 "/>
<svg:path d="M52159000 51905000 L51524000 51905000 "/>
<svg:path d="M52159000 48095000 L51524000 48095000 "/>
<svg:path d="M52159000 51905000 L52159000 54445000 "/>
<svg:path d="M48095000 46825000 L47460000 46825000 "/>
<svg:path d="M47460000 53175000 L47460000 46825000 "/>
<svg:path d="M50889000 48857000 L50889000 38316000 "/>
<svg:path d="M50889000 61684000 L50889000 51143000 "/>
<svg:path d="M48730000 62319000 L50254000 62319000 "/>
<svg:path d="M51524000 45555000 L51524000 39332000 "/>
<svg:path d="M52159000 45555000 L51524000 45555000 "/>
<svg:path d="M51524000 54445000 L51524000 60541000 "/>
</svg:g>
<svg:g style="fill:#F2EDA1; fill-opacity:0.0;  stroke:#F2EDA1; stroke-width:254000.000000; stroke-opacity:1;  stroke-linecap:round; stroke-linejoin:round;">
<svg:path d="M52794000 52413000 L52794000 53683000 "/>
</svg:g>
<svg:g style="fill:#F2EDA1; fill-opacity:0.0;  stroke:#F2EDA1; stroke-width:152400.000000; stroke-opacity:1;  stroke-linecap:round; stroke-linejoin:round;">
<svg:path d="M48730000 37681000 L50254000 37681000 "/>
<svg:path d="M52159000 48095000 L52159000 45555000 "/>
<svg:path d="M52159000 54445000 L51524000 54445000 "/>
</svg:g>
<svg:g style="fill:#F2EDA1; fill-opacity:0.0;  stroke:#F2EDA1; stroke-width:254000.000000; stroke-opacity:1;  stroke-linecap:round; stroke-linejoin:round;">
<svg:path d="M46444000 49365000 L46444000 50635000 "/>
</svg:g>
<svg:g style="fill:#F2EDA1; fill-opacity:0.0;  stroke:#F2EDA1; stroke-width:152400.000000; stroke-opacity:1;  stroke-linecap:round; stroke-linejoin:round;">
<svg:path d="M48095000 43142000 L48095000 38316000 "/>
<svg:path d="M51524000 51905000 L51524000 54445000 "/>
<svg:path d="M51524000 48095000 L51524000 45555000 "/>
<svg:path d="M48095000 61684000 L48095000 56858000 "/>
<svg:path d="M48095000 56858000 L47460000 56858000 "/>
<svg:path d="M48095000 43142000 L47460000 43142000 "/>
<svg:path d="M51524000.000000 39332000.000000 A635000.000000 635000.000000 0.0 0 0 50889000.000000 38697000.000000"/>
<svg:path d="M50254000.000000 62318999.000000 A634999.000000 634999.000000 0.0 0 0 50888998.999999 61683999.000000"/>
<svg:path d="M48095000.000001 61684000.000000 A634999.000000 634999.000000 0.0 0 0 48730000.000000 62318999.999999"/>
<svg:path d="M50888999.999999 38316001.000002 A635000.000000 635000.000000 0.0 0 0 50254000.000000 37681000.000000"/>
<svg:path d="M50889000.000000 61176000.000000 A635000.000000 635000.000000 0.0 0 0 51524000.000000 60541000.000000"/>
<svg:path d="M48730000.000000 37681000.000001 A634999.000000 634999.000000 0.0 0 0 48095000.000001 38316000.000000"/>
<svg:g>
</svg:g>
<svg:g>
</svg:g>
<svg:g>
</svg:g>
<svg:g>
</svg:g>
</svg:g>
<svg:g style="fill:#000000; fill-opacity:0.0;  stroke:#000000; stroke-width:152400.000000; stroke-opacity:1;  stroke-linecap:round; stroke-linejoin:round;">
<svg:g>
</svg:g>
<svg:g>
</svg:g>
<svg:g>
</svg:g>
<svg:g>
</svg:g>
</svg:g> 
</svg:g><svg:g><svg:title>SVG Picture created as kicadBoard-Margin.svg date 2022/12/03 04:00:05 </svg:title>
  <svg:desc>Picture generated by PCBNEW </svg:desc>
<svg:g style="fill:#000000; fill-opacity:1.000000;stroke:#000000; stroke-opacity:1.000000; stroke-linecap:round; stroke-linejoin:round;" transform="translate(0 0) scale(1 1)">
</svg:g>
<svg:g style="fill:#000000; fill-opacity:0.0;  stroke:#000000; stroke-width:0.000000; stroke-opacity:1;  stroke-linecap:round; stroke-linejoin:round;">
<svg:g>
</svg:g>
<svg:g>
</svg:g>
<svg:g>
</svg:g>
<svg:g>
</svg:g>
</svg:g>
<svg:g style="fill:#000000; fill-opacity:0.0;  stroke:#000000; stroke-width:0.000000; stroke-opacity:1;  stroke-linecap:round; stroke-linejoin:round;">
<svg:g>
</svg:g>
<svg:g>
</svg:g>
<svg:g>
</svg:g>
<svg:g>
</svg:g>
</svg:g> 
</svg:g><svg:g><svg:title>SVG Picture created as kicadBoard-F_Cu.svg date 2022/12/03 04:00:05 </svg:title>
  <svg:desc>Picture generated by PCBNEW </svg:desc>
<svg:g style="fill:#000000; fill-opacity:1.000000;stroke:#000000; stroke-opacity:1.000000; stroke-linecap:round; stroke-linejoin:round;" transform="translate(0 0) scale(1 1)">
</svg:g>
<svg:g style="fill:#000000; fill-opacity:0.0;  stroke:#000000; stroke-width:0.000000; stroke-opacity:1;  stroke-linecap:round; stroke-linejoin:round;">
<svg:g>
</svg:g>
<svg:g style="fill:#C83434; fill-opacity:0.0;  stroke:#C83434; stroke-width:0.000000; stroke-opacity:1;  stroke-linecap:round; stroke-linejoin:round;">
</svg:g>
<svg:g style="fill:#C83434; fill-opacity:0.0;  stroke:#C83434; stroke-width:1.000000; stroke-opacity:1;  stroke-linecap:round; stroke-linejoin:round;">
</svg:g>
<svg:g style="fill:#C83434; fill-opacity:1.0;  stroke:#C83434; stroke-width:1.000000; stroke-opacity:1;  stroke-linecap:round; stroke-linejoin:round;">
<svg:path style="fill:#C83434; fill-opacity:1.0;  stroke:#C83434; stroke-width:1.000000; stroke-opacity:1;  stroke-linecap:round; stroke-linejoin:round;fill-rule:evenodd;" d="M 45885200.000000,54292600.000000 46672600.000000,53505200.000000 48247400.000000,53505200.000000 49034800.000000,54292600.000000 49034800.000000,55867400.000000 48247400.000000,56654800.000000 46672600.000000,56654800.000000 45885200.000000,55867400.000000 Z"/> 
<svg:path style="fill:#C83434; fill-opacity:1.0;  stroke:#C83434; stroke-width:1.000000; stroke-opacity:1;  stroke-linecap:round; stroke-linejoin:round;fill-rule:evenodd;" d="M 45885200.000000,44132600.000000 46672600.000000,43345200.000000 48247400.000000,43345200.000000 49034800.000000,44132600.000000 49034800.000000,45707400.000000 48247400.000000,46494800.000000 46672600.000000,46494800.000000 45885200.000000,45707400.000000 Z"/> 
<svg:path style="fill:#C83434; fill-opacity:1.0;  stroke:#C83434; stroke-width:1.000000; stroke-opacity:1;  stroke-linecap:round; stroke-linejoin:round;fill-rule:evenodd;" d="M 50584200.000000,49212600.000000 51371600.000000,48425200.000000 52946400.000000,48425200.000000 53733800.000000,49212600.000000 53733800.000000,50787400.000000 52946400.000000,51574800.000000 51371600.000000,51574800.000000 50584200.000000,50787400.000000 Z"/> 
</svg:g>
<svg:g>
</svg:g>
<svg:g>
</svg:g>
<svg:g>
</svg:g>
</svg:g>
<svg:g style="fill:#FFFFFF; fill-opacity:1.0;  stroke:#FFFFFF; stroke-width:1.000000; stroke-opacity:1;  stroke-linecap:round; stroke-linejoin:round;">
<svg:circle cx="47460000.000000" cy="55080000.000000" r="660400.000000"/> 
</svg:g>
<svg:g style="fill:#FFFFFF; fill-opacity:1.0;  stroke:#FFFFFF; stroke-width:21200.000000; stroke-opacity:1;  stroke-linecap:round; stroke-linejoin:round;">
</svg:g>
<svg:g style="fill:#FFFFFF; fill-opacity:1.0;  stroke:#FFFFFF; stroke-width:1.000000; stroke-opacity:1;  stroke-linecap:round; stroke-linejoin:round;">
<svg:circle cx="47460000.000000" cy="44920000.000000" r="660400.000000"/> 
</svg:g>
<svg:g style="fill:#FFFFFF; fill-opacity:1.0;  stroke:#FFFFFF; stroke-width:21200.000000; stroke-opacity:1;  stroke-linecap:round; stroke-linejoin:round;">
</svg:g>
<svg:g style="fill:#FFFFFF; fill-opacity:1.0;  stroke:#FFFFFF; stroke-width:1.000000; stroke-opacity:1;  stroke-linecap:round; stroke-linejoin:round;">
<svg:circle cx="52159000.000000" cy="50000000.000000" r="660400.000000"/> 
</svg:g>
<svg:g style="fill:#FFFFFF; fill-opacity:1.0;  stroke:#FFFFFF; stroke-width:21200.000000; stroke-opacity:1;  stroke-linecap:round; stroke-linejoin:round;">
</svg:g>
<svg:g style="fill:#000000; fill-opacity:1.0;  stroke:#000000; stroke-width:21200.000000; stroke-opacity:1;  stroke-linecap:round; stroke-linejoin:round;">
<svg:g>
</svg:g>
<svg:g>
</svg:g>
<svg:g>
</svg:g>
<svg:g>
</svg:g>
</svg:g> 
</svg:g></svg>
