<?xml version='1.0' encoding='ASCII' standalone='yes'?>
<svg xmlns:svg="http://www.w3.org/2000/svg" xmlns="http://www.w3.org/2000/svg" xmlns:xlink="http://www.w3.org/1999/xlink" version="1.1" width="9.999980cm" height="9.999980cm" viewBox="0 0 99999800 99999800">
<title>SVG Picture created as kicadBoard-B_Cu.svg date 2022/12/05 03:28:32 </title>
  <desc>Picture generated by PCBNEW </desc>
<g style="fill:#000000; fill-opacity:1.000000;stroke:#000000; stroke-opacity:1.000000; stroke-linecap:round; stroke-linejoin:round;" transform="translate(0 0) scale(1 1)">
</g>
<g style="fill:#000000; fill-opacity:0.0;  stroke:#000000; stroke-width:0.000000; stroke-opacity:1;  stroke-linecap:round; stroke-linejoin:round;">
<g>
</g>
<g>
</g>
<g>
</g>
<g>
</g>
</g>
<g style="fill:#FFFFFF; fill-opacity:0.0;  stroke:#FFFFFF; stroke-width:0.000000; stroke-opacity:1;  stroke-linecap:round; stroke-linejoin:round;">
</g>
<g style="fill:#FFFFFF; fill-opacity:1.0;  stroke:#FFFFFF; stroke-width:1.000000; stroke-opacity:1;  stroke-linecap:round; stroke-linejoin:round;">
<circle cx="50000000.000000" cy="57770000.000000" r="749999.500000"/> 
</g>
<g style="fill:#FFFFFF; fill-opacity:1.0;  stroke:#FFFFFF; stroke-width:21200.000000; stroke-opacity:1;  stroke-linecap:round; stroke-linejoin:round;">
</g>
<g style="fill:#FFFFFF; fill-opacity:1.0;  stroke:#FFFFFF; stroke-width:1.000000; stroke-opacity:1;  stroke-linecap:round; stroke-linejoin:round;">
<circle cx="50000000.000000" cy="42230000.000000" r="749999.500000"/> 
</g>
<g style="fill:#FFFFFF; fill-opacity:1.0;  stroke:#FFFFFF; stroke-width:21200.000000; stroke-opacity:1;  stroke-linecap:round; stroke-linejoin:round;">
</g>
<g style="fill:#000000; fill-opacity:1.0;  stroke:#000000; stroke-width:21200.000000; stroke-opacity:1;  stroke-linecap:round; stroke-linejoin:round;">
<g>
</g>
<g>
</g>
<g>
</g>
<g>
</g>
</g> 
<svg:g><svg:title>SVG Picture created as kicadBoard-B_Adhesive.svg date 2022/12/05 03:28:32 </svg:title>
  <svg:desc>Picture generated by PCBNEW </svg:desc>
<svg:g style="fill:#000000; fill-opacity:1.000000;stroke:#000000; stroke-opacity:1.000000; stroke-linecap:round; stroke-linejoin:round;" transform="translate(0 0) scale(1 1)">
</svg:g>
<svg:g style="fill:#000000; fill-opacity:0.0;  stroke:#000000; stroke-width:0.000000; stroke-opacity:1;  stroke-linecap:round; stroke-linejoin:round;">
<svg:g>
</svg:g>
<svg:g>
</svg:g>
<svg:g>
</svg:g>
<svg:g>
</svg:g>
</svg:g>
<svg:g style="fill:#000000; fill-opacity:0.0;  stroke:#000000; stroke-width:0.000000; stroke-opacity:1;  stroke-linecap:round; stroke-linejoin:round;">
<svg:g>
</svg:g>
<svg:g>
</svg:g>
<svg:g>
</svg:g>
<svg:g>
</svg:g>
</svg:g> 
</svg:g><svg:g><svg:title>SVG Picture created as kicadBoard-B_Courtyard.svg date 2022/12/05 03:28:32 </svg:title>
  <svg:desc>Picture generated by PCBNEW </svg:desc>
<svg:g style="fill:#000000; fill-opacity:1.000000;stroke:#000000; stroke-opacity:1.000000; stroke-linecap:round; stroke-linejoin:round;" transform="translate(0 0) scale(1 1)">
</svg:g>
<svg:g style="fill:#000000; fill-opacity:0.0;  stroke:#000000; stroke-width:0.000000; stroke-opacity:1;  stroke-linecap:round; stroke-linejoin:round;">
<svg:g>
</svg:g>
<svg:g>
</svg:g>
<svg:g>
</svg:g>
<svg:g>
</svg:g>
</svg:g>
<svg:g style="fill:#000000; fill-opacity:0.0;  stroke:#000000; stroke-width:0.000000; stroke-opacity:1;  stroke-linecap:round; stroke-linejoin:round;">
<svg:g>
</svg:g>
<svg:g>
</svg:g>
<svg:g>
</svg:g>
<svg:g>
</svg:g>
</svg:g> 
</svg:g><svg:g><svg:title>SVG Picture created as kicadBoard-B_Fab.svg date 2022/12/05 03:28:32 </svg:title>
  <svg:desc>Picture generated by PCBNEW </svg:desc>
<svg:g style="fill:#000000; fill-opacity:1.000000;stroke:#000000; stroke-opacity:1.000000; stroke-linecap:round; stroke-linejoin:round;" transform="translate(0 0) scale(1 1)">
</svg:g>
<svg:g style="fill:#000000; fill-opacity:0.0;  stroke:#000000; stroke-width:0.000000; stroke-opacity:1;  stroke-linecap:round; stroke-linejoin:round;">
<svg:g>
</svg:g>
<svg:g>
</svg:g>
<svg:g>
</svg:g>
<svg:g>
</svg:g>
</svg:g>
<svg:g style="fill:#000000; fill-opacity:0.0;  stroke:#000000; stroke-width:0.000000; stroke-opacity:1;  stroke-linecap:round; stroke-linejoin:round;">
<svg:g>
</svg:g>
<svg:g>
</svg:g>
<svg:g>
</svg:g>
<svg:g>
</svg:g>
</svg:g> 
</svg:g><svg:g><svg:title>SVG Picture created as kicadBoard-B_Mask.svg date 2022/12/05 03:28:32 </svg:title>
  <svg:desc>Picture generated by PCBNEW </svg:desc>
<svg:g style="fill:#000000; fill-opacity:1.000000;stroke:#000000; stroke-opacity:1.000000; stroke-linecap:round; stroke-linejoin:round;" transform="translate(0 0) scale(1 1)">
</svg:g>
<svg:g style="fill:#000000; fill-opacity:0.0;  stroke:#000000; stroke-width:0.000000; stroke-opacity:1;  stroke-linecap:round; stroke-linejoin:round;">
<svg:g>
</svg:g>
<svg:g style="fill:#000000; fill-opacity:1.0;  stroke:#000000; stroke-width:1.000000; stroke-opacity:1;  stroke-linecap:round; stroke-linejoin:round;">
<svg:circle cx="50000000.000000" cy="57770000.000000" r="750000.000000"/> 
</svg:g>
<svg:g style="fill:#000000; fill-opacity:1.0;  stroke:#000000; stroke-width:21200.000000; stroke-opacity:1;  stroke-linecap:round; stroke-linejoin:round;">
</svg:g>
<svg:g style="fill:#000000; fill-opacity:1.0;  stroke:#000000; stroke-width:1.000000; stroke-opacity:1;  stroke-linecap:round; stroke-linejoin:round;">
<svg:circle cx="50000000.000000" cy="42230000.000000" r="750000.000000"/> 
</svg:g>
<svg:g style="fill:#000000; fill-opacity:1.0;  stroke:#000000; stroke-width:21200.000000; stroke-opacity:1;  stroke-linecap:round; stroke-linejoin:round;">
</svg:g>
<svg:g>
</svg:g>
<svg:g>
</svg:g>
<svg:g>
</svg:g>
</svg:g>
<svg:g style="fill:#000000; fill-opacity:1.0;  stroke:#000000; stroke-width:21200.000000; stroke-opacity:1;  stroke-linecap:round; stroke-linejoin:round;">
<svg:g>
</svg:g>
<svg:g>
</svg:g>
<svg:g>
</svg:g>
<svg:g>
</svg:g>
</svg:g> 
</svg:g><svg:g><svg:title>SVG Picture created as kicadBoard-B_Paste.svg date 2022/12/05 03:28:32 </svg:title>
  <svg:desc>Picture generated by PCBNEW </svg:desc>
<svg:g style="fill:#000000; fill-opacity:1.000000;stroke:#000000; stroke-opacity:1.000000; stroke-linecap:round; stroke-linejoin:round;" transform="translate(0 0) scale(1 1)">
</svg:g>
<svg:g style="fill:#000000; fill-opacity:0.0;  stroke:#000000; stroke-width:0.000000; stroke-opacity:1;  stroke-linecap:round; stroke-linejoin:round;">
<svg:g>
</svg:g>
<svg:g>
</svg:g>
<svg:g>
</svg:g>
<svg:g>
</svg:g>
</svg:g>
<svg:g style="fill:#000000; fill-opacity:0.0;  stroke:#000000; stroke-width:0.000000; stroke-opacity:1;  stroke-linecap:round; stroke-linejoin:round;">
<svg:g>
</svg:g>
<svg:g>
</svg:g>
<svg:g>
</svg:g>
<svg:g>
</svg:g>
</svg:g> 
</svg:g><svg:g><svg:title>SVG Picture created as kicadBoard-B_Silkscreen.svg date 2022/12/05 03:28:32 </svg:title>
  <svg:desc>Picture generated by PCBNEW </svg:desc>
<svg:g style="fill:#000000; fill-opacity:1.000000;stroke:#000000; stroke-opacity:1.000000; stroke-linecap:round; stroke-linejoin:round;" transform="translate(0 0) scale(1 1)">
</svg:g>
<svg:g style="fill:#000000; fill-opacity:0.0;  stroke:#000000; stroke-width:0.000000; stroke-opacity:1;  stroke-linecap:round; stroke-linejoin:round;">
<svg:g>
</svg:g>
<svg:g>
</svg:g>
<svg:g>
</svg:g>
<svg:g>
</svg:g>
</svg:g>
<svg:g style="fill:#000000; fill-opacity:0.0;  stroke:#000000; stroke-width:0.000000; stroke-opacity:1;  stroke-linecap:round; stroke-linejoin:round;">
<svg:g>
</svg:g>
<svg:g>
</svg:g>
<svg:g>
</svg:g>
<svg:g>
</svg:g>
</svg:g> 
</svg:g><svg:g><svg:title>SVG Picture created as kicadBoard-Edge_Cuts.svg date 2022/12/05 03:28:32 </svg:title>
  <svg:desc>Picture generated by PCBNEW </svg:desc>
<svg:g style="fill:#000000; fill-opacity:1.000000;stroke:#000000; stroke-opacity:1.000000; stroke-linecap:round; stroke-linejoin:round;" transform="translate(0 0) scale(1 1)">
</svg:g>
<svg:g style="fill:#000000; fill-opacity:0.0;  stroke:#000000; stroke-width:0.000000; stroke-opacity:1;  stroke-linecap:round; stroke-linejoin:round;">
<svg:g>
</svg:g>
<svg:g>
</svg:g>
<svg:g>
</svg:g>
<svg:g>
</svg:g>
</svg:g> 
</svg:g><svg:g><svg:title>SVG Picture created as kicadBoard-F_Adhesive.svg date 2022/12/05 03:28:32 </svg:title>
  <svg:desc>Picture generated by PCBNEW </svg:desc>
<svg:g style="fill:#000000; fill-opacity:1.000000;stroke:#000000; stroke-opacity:1.000000; stroke-linecap:round; stroke-linejoin:round;" transform="translate(0 0) scale(1 1)">
</svg:g>
<svg:g style="fill:#000000; fill-opacity:0.0;  stroke:#000000; stroke-width:0.000000; stroke-opacity:1;  stroke-linecap:round; stroke-linejoin:round;">
<svg:g>
</svg:g>
<svg:g>
</svg:g>
<svg:g>
</svg:g>
<svg:g>
</svg:g>
</svg:g>
<svg:g style="fill:#000000; fill-opacity:0.0;  stroke:#000000; stroke-width:0.000000; stroke-opacity:1;  stroke-linecap:round; stroke-linejoin:round;">
<svg:g>
</svg:g>
<svg:g>
</svg:g>
<svg:g>
</svg:g>
<svg:g>
</svg:g>
</svg:g> 
</svg:g><svg:g><svg:title>SVG Picture created as kicadBoard-F_Courtyard.svg date 2022/12/05 03:28:32 </svg:title>
  <svg:desc>Picture generated by PCBNEW </svg:desc>
<svg:g style="fill:#000000; fill-opacity:1.000000;stroke:#000000; stroke-opacity:1.000000; stroke-linecap:round; stroke-linejoin:round;" transform="translate(0 0) scale(1 1)">
</svg:g>
<svg:g style="fill:#000000; fill-opacity:0.0;  stroke:#000000; stroke-width:0.000000; stroke-opacity:1;  stroke-linecap:round; stroke-linejoin:round;">
<svg:g>
</svg:g>
<svg:g>
</svg:g>
<svg:g>
</svg:g>
<svg:g>
</svg:g>
</svg:g>
<svg:g style="fill:#000000; fill-opacity:0.0;  stroke:#000000; stroke-width:0.000000; stroke-opacity:1;  stroke-linecap:round; stroke-linejoin:round;">
<svg:g>
</svg:g>
<svg:g>
</svg:g>
<svg:g>
</svg:g>
<svg:g>
</svg:g>
</svg:g> 
</svg:g><svg:g><svg:title>SVG Picture created as kicadBoard-F_Cu.svg date 2022/12/05 03:28:32 </svg:title>
  <svg:desc>Picture generated by PCBNEW </svg:desc>
<svg:g style="fill:#000000; fill-opacity:1.000000;stroke:#000000; stroke-opacity:1.000000; stroke-linecap:round; stroke-linejoin:round;" transform="translate(0 0) scale(1 1)">
</svg:g>
<svg:g style="fill:#000000; fill-opacity:0.0;  stroke:#000000; stroke-width:0.000000; stroke-opacity:1;  stroke-linecap:round; stroke-linejoin:round;">
</svg:g>
<svg:g style="fill:#C83434; fill-opacity:0.0;  stroke:#C83434; stroke-width:0.000000; stroke-opacity:1;  stroke-linecap:round; stroke-linejoin:round;">
</svg:g>
<svg:g style="fill:#C83434; fill-opacity:1.0;  stroke:#C83434; stroke-width:1.000000; stroke-opacity:1;  stroke-linecap:round; stroke-linejoin:round;">
<svg:path style="fill:#C83434; fill-opacity:1.0;  stroke:#C83434; stroke-width:1.000000; stroke-opacity:1;  stroke-linecap:round; stroke-linejoin:round;fill-rule:evenodd;" d="M 49200000.000000,61630000.000000 45500000.000000,61630000.000000 45500000.000000,59330000.000000 49200000.000000,59330000.000000 Z"/> 
<svg:path style="fill:#C83434; fill-opacity:1.0;  stroke:#C83434; stroke-width:1.000000; stroke-opacity:1;  stroke-linecap:round; stroke-linejoin:round;fill-rule:evenodd;" d="M 49200000.000000,40670000.000000 45500000.000000,40670000.000000 45500000.000000,38370000.000000 49200000.000000,38370000.000000 Z"/> 
<svg:g>
<svg:path style="fill:#C83434; fill-opacity:1.0;  stroke:#C83434; stroke-width:1.000000; stroke-opacity:1;  stroke-linecap:round; stroke-linejoin:round;fill-rule:evenodd;" d="M 29500001.000000,55114999.000000 29500001.000000,54165001.000000 31399999.000000,54165001.000000 31399999.000000,55114999.000000 Z"/> 
<svg:path style="fill:#C83434; fill-opacity:1.0;  stroke:#C83434; stroke-width:1.000000; stroke-opacity:1;  stroke-linecap:round; stroke-linejoin:round;fill-rule:evenodd;" d="M 29500001.000000,56384999.000000 29500001.000000,55435001.000000 31399999.000000,55435001.000000 31399999.000000,56384999.000000 Z"/> 
<svg:path style="fill:#C83434; fill-opacity:1.0;  stroke:#C83434; stroke-width:1.000000; stroke-opacity:1;  stroke-linecap:round; stroke-linejoin:round;fill-rule:evenodd;" d="M 29500001.000000,47494999.000000 29500001.000000,46545001.000000 31399999.000000,46545001.000000 31399999.000000,47494999.000000 Z"/> 
<svg:path style="fill:#C83434; fill-opacity:1.0;  stroke:#C83434; stroke-width:1.000000; stroke-opacity:1;  stroke-linecap:round; stroke-linejoin:round;fill-rule:evenodd;" d="M 29500001.000000,50034999.000000 29500001.000000,49085001.000000 31399999.000000,49085001.000000 31399999.000000,50034999.000000 Z"/> 
<svg:path style="fill:#C83434; fill-opacity:1.0;  stroke:#C83434; stroke-width:1.000000; stroke-opacity:1;  stroke-linecap:round; stroke-linejoin:round;fill-rule:evenodd;" d="M 29500001.000000,52574999.000000 29500001.000000,51625001.000000 31399999.000000,51625001.000000 31399999.000000,52574999.000000 Z"/> 
<svg:path style="fill:#C83434; fill-opacity:1.0;  stroke:#C83434; stroke-width:1.000000; stroke-opacity:1;  stroke-linecap:round; stroke-linejoin:round;fill-rule:evenodd;" d="M 29500001.000000,48764999.000000 29500001.000000,47815001.000000 31399999.000000,47815001.000000 31399999.000000,48764999.000000 Z"/> 
<svg:path style="fill:#C83434; fill-opacity:1.0;  stroke:#C83434; stroke-width:1.000000; stroke-opacity:1;  stroke-linecap:round; stroke-linejoin:round;fill-rule:evenodd;" d="M 29500001.000000,51304999.000000 29500001.000000,50355001.000000 31399999.000000,50355001.000000 31399999.000000,51304999.000000 Z"/> 
<svg:path style="fill:#C83434; fill-opacity:1.0;  stroke:#C83434; stroke-width:1.000000; stroke-opacity:1;  stroke-linecap:round; stroke-linejoin:round;fill-rule:evenodd;" d="M 29500001.000000,53844999.000000 29500001.000000,52895001.000000 31399999.000000,52895001.000000 31399999.000000,53844999.000000 Z"/> 
</svg:g>
<svg:g>
</svg:g>
<svg:g>
</svg:g>
<svg:g>
</svg:g>
</svg:g>
<svg:g style="fill:#FFFFFF; fill-opacity:1.0;  stroke:#FFFFFF; stroke-width:1.000000; stroke-opacity:1;  stroke-linecap:round; stroke-linejoin:round;">
<svg:circle cx="50000000.000000" cy="57770000.000000" r="749999.500000"/> 
</svg:g>
<svg:g style="fill:#FFFFFF; fill-opacity:1.0;  stroke:#FFFFFF; stroke-width:21200.000000; stroke-opacity:1;  stroke-linecap:round; stroke-linejoin:round;">
</svg:g>
<svg:g style="fill:#FFFFFF; fill-opacity:1.0;  stroke:#FFFFFF; stroke-width:1.000000; stroke-opacity:1;  stroke-linecap:round; stroke-linejoin:round;">
<svg:circle cx="50000000.000000" cy="42230000.000000" r="749999.500000"/> 
</svg:g>
<svg:g style="fill:#FFFFFF; fill-opacity:1.0;  stroke:#FFFFFF; stroke-width:21200.000000; stroke-opacity:1;  stroke-linecap:round; stroke-linejoin:round;">
</svg:g>
<svg:g style="fill:#000000; fill-opacity:1.0;  stroke:#000000; stroke-width:21200.000000; stroke-opacity:1;  stroke-linecap:round; stroke-linejoin:round;">
<svg:g>
</svg:g>
<svg:g>
</svg:g>
<svg:g>
</svg:g>
<svg:g>
</svg:g>
</svg:g> 
</svg:g><svg:g><svg:title>SVG Picture created as kicadBoard-F_Fab.svg date 2022/12/05 03:28:32 </svg:title>
  <svg:desc>Picture generated by PCBNEW </svg:desc>
<svg:g style="fill:#000000; fill-opacity:1.000000;stroke:#000000; stroke-opacity:1.000000; stroke-linecap:round; stroke-linejoin:round;" transform="translate(0 0) scale(1 1)">
</svg:g>
<svg:g style="fill:#000000; fill-opacity:0.0;  stroke:#000000; stroke-width:0.000000; stroke-opacity:1;  stroke-linecap:round; stroke-linejoin:round;">
</svg:g>
<svg:g style="fill:#AFAFAF; fill-opacity:0.0;  stroke:#AFAFAF; stroke-width:0.000000; stroke-opacity:1;  stroke-linecap:round; stroke-linejoin:round;">
</svg:g>
<svg:g style="fill:#AFAFAF; fill-opacity:0.0;  stroke:#AFAFAF; stroke-width:101600.000000; stroke-opacity:1;  stroke-linecap:round; stroke-linejoin:round;">
<svg:text x="30315000.000000" y="62065000.000000" textLength="6808651.000000" font-size="1557866.000000" lengthAdjust="spacingAndGlyphs" text-anchor="start" opacity="0">&gt;VALUE</svg:text>
<svg:g class="stroked-text"><svg:desc>&gt;VALUE</svg:desc>
<svg:path d="M30659230 61230428 L31549440 61564257 L30659230 61898085 "/>
<svg:path d="M31938906 60840961 L32328373 62009361 L32717840 60840961 "/>
<svg:path d="M33051668 61675533 L33608049 61675533 "/>
<svg:path d="M32940392 62009361 L33329859 60840961 L33719325 62009361 "/>
<svg:path d="M34665173 62009361 L34108792 62009361 L34108792 60840961 "/>
<svg:path d="M35054640 60840961 L35054640 61786809 L35110278 61898085 L35165916 61953723 L35277192 62009361 L35499744 62009361 L35611020 61953723 L35666659 61898085 L35722297 61786809 L35722297 60840961 "/>
<svg:path d="M36278678 61397342 L36668144 61397342 "/>
<svg:path d="M36835059 62009361 L36278678 62009361 L36278678 60840961 L36835059 60840961 "/>
</svg:g></svg:g>
<svg:g style="fill:#AFAFAF; fill-opacity:0.0;  stroke:#AFAFAF; stroke-width:203200.000000; stroke-opacity:1;  stroke-linecap:round; stroke-linejoin:round;">
<svg:path d="M49910000 59694900 L45065000 59694900 "/>
<svg:path d="M44840000 40425000 L49920000 40425000 "/>
</svg:g>
<svg:g style="fill:#AFAFAF; fill-opacity:1.0;  stroke:#AFAFAF; stroke-width:1.000000; stroke-opacity:1;  stroke-linecap:round; stroke-linejoin:round;">
<svg:path style="fill:#AFAFAF; fill-opacity:1.0;  stroke:#AFAFAF; stroke-width:1.000000; stroke-opacity:1;  stroke-linecap:round; stroke-linejoin:round;fill-rule:evenodd;" d="M 30774400.000000,53708400.000000 29781600.000000,53708400.000000 29781600.000000,53022600.000000 30774400.000000,53022600.000000 Z"/> 
<svg:path style="fill:#AFAFAF; fill-opacity:1.0;  stroke:#AFAFAF; stroke-width:1.000000; stroke-opacity:1;  stroke-linecap:round; stroke-linejoin:round;fill-rule:evenodd;" d="M 30774400.000000,48628400.000000 29781600.000000,48628400.000000 29781600.000000,47942600.000000 30774400.000000,47942600.000000 Z"/> 
<svg:path style="fill:#AFAFAF; fill-opacity:1.0;  stroke:#AFAFAF; stroke-width:1.000000; stroke-opacity:1;  stroke-linecap:round; stroke-linejoin:round;fill-rule:evenodd;" d="M 30774400.000000,51168400.000000 29781600.000000,51168400.000000 29781600.000000,50482600.000000 30774400.000000,50482600.000000 Z"/> 
<svg:path style="fill:#AFAFAF; fill-opacity:1.0;  stroke:#AFAFAF; stroke-width:1.000000; stroke-opacity:1;  stroke-linecap:round; stroke-linejoin:round;fill-rule:evenodd;" d="M 31613800.000000,52336800.000000 30774400.000000,52336800.000000 30774400.000000,51879600.000000 31613800.000000,51879600.000000 Z"/> 
<svg:path style="fill:#AFAFAF; fill-opacity:1.0;  stroke:#AFAFAF; stroke-width:1.000000; stroke-opacity:1;  stroke-linecap:round; stroke-linejoin:round;fill-rule:evenodd;" d="M 30774400.000000,47358400.000000 29781600.000000,47358400.000000 29781600.000000,46672600.000000 30774400.000000,46672600.000000 Z"/> 
<svg:path style="fill:#AFAFAF; fill-opacity:1.0;  stroke:#AFAFAF; stroke-width:1.000000; stroke-opacity:1;  stroke-linecap:round; stroke-linejoin:round;fill-rule:evenodd;" d="M 30774400.000000,52438400.000000 29781600.000000,52438400.000000 29781600.000000,51752600.000000 30774400.000000,51752600.000000 Z"/> 
<svg:path style="fill:#AFAFAF; fill-opacity:1.0;  stroke:#AFAFAF; stroke-width:1.000000; stroke-opacity:1;  stroke-linecap:round; stroke-linejoin:round;fill-rule:evenodd;" d="M 31613800.000000,48526800.000000 30774400.000000,48526800.000000 30774400.000000,48069600.000000 31613800.000000,48069600.000000 Z"/> 
<svg:path style="fill:#AFAFAF; fill-opacity:1.0;  stroke:#AFAFAF; stroke-width:1.000000; stroke-opacity:1;  stroke-linecap:round; stroke-linejoin:round;fill-rule:evenodd;" d="M 31613800.000000,49796800.000000 30774400.000000,49796800.000000 30774400.000000,49339600.000000 31613800.000000,49339600.000000 Z"/> 
<svg:path style="fill:#AFAFAF; fill-opacity:1.0;  stroke:#AFAFAF; stroke-width:1.000000; stroke-opacity:1;  stroke-linecap:round; stroke-linejoin:round;fill-rule:evenodd;" d="M 30774400.000000,49898400.000000 29781600.000000,49898400.000000 29781600.000000,49212600.000000 30774400.000000,49212600.000000 Z"/> 
<svg:path style="fill:#AFAFAF; fill-opacity:1.0;  stroke:#AFAFAF; stroke-width:1.000000; stroke-opacity:1;  stroke-linecap:round; stroke-linejoin:round;fill-rule:evenodd;" d="M 31625000.000000,54953000.000000 29807000.000000,54953000.000000 29807000.000000,54343400.000000 31625000.000000,54343400.000000 Z"/> 
<svg:path style="fill:#AFAFAF; fill-opacity:1.0;  stroke:#AFAFAF; stroke-width:1.000000; stroke-opacity:1;  stroke-linecap:round; stroke-linejoin:round;fill-rule:evenodd;" d="M 31613800.000000,51066800.000000 30774400.000000,51066800.000000 30774400.000000,50609600.000000 31613800.000000,50609600.000000 Z"/> 
<svg:path style="fill:#AFAFAF; fill-opacity:1.0;  stroke:#AFAFAF; stroke-width:1.000000; stroke-opacity:1;  stroke-linecap:round; stroke-linejoin:round;fill-rule:evenodd;" d="M 31613800.000000,53606800.000000 30774400.000000,53606800.000000 30774400.000000,53149600.000000 31613800.000000,53149600.000000 Z"/> 
<svg:path style="fill:#AFAFAF; fill-opacity:1.0;  stroke:#AFAFAF; stroke-width:1.000000; stroke-opacity:1;  stroke-linecap:round; stroke-linejoin:round;fill-rule:evenodd;" d="M 31625000.000000,56223000.000000 29807000.000000,56223000.000000 29807000.000000,55613400.000000 31625000.000000,55613400.000000 Z"/> 
<svg:path style="fill:#AFAFAF; fill-opacity:1.0;  stroke:#AFAFAF; stroke-width:1.000000; stroke-opacity:1;  stroke-linecap:round; stroke-linejoin:round;fill-rule:evenodd;" d="M 31613800.000000,47256800.000000 30774400.000000,47256800.000000 30774400.000000,46799600.000000 31613800.000000,46799600.000000 Z"/> 
<svg:g>
</svg:g>
<svg:g>
</svg:g>
<svg:g>
</svg:g>
<svg:g>
</svg:g>
</svg:g>
<svg:g style="fill:#000000; fill-opacity:1.0;  stroke:#000000; stroke-width:1.000000; stroke-opacity:1;  stroke-linecap:round; stroke-linejoin:round;">
<svg:g>
</svg:g>
<svg:g>
</svg:g>
<svg:g>
</svg:g>
<svg:g>
</svg:g>
</svg:g> 
</svg:g><svg:g><svg:title>SVG Picture created as kicadBoard-F_Mask.svg date 2022/12/05 03:28:32 </svg:title>
  <svg:desc>Picture generated by PCBNEW </svg:desc>
<svg:g style="fill:#000000; fill-opacity:1.000000;stroke:#000000; stroke-opacity:1.000000; stroke-linecap:round; stroke-linejoin:round;" transform="translate(0 0) scale(1 1)">
</svg:g>
<svg:g style="fill:#000000; fill-opacity:0.0;  stroke:#000000; stroke-width:0.000000; stroke-opacity:1;  stroke-linecap:round; stroke-linejoin:round;">
</svg:g>
<svg:g style="fill:#D864FF; fill-opacity:0.0;  stroke:#D864FF; stroke-width:0.000000; stroke-opacity:1;  stroke-linecap:round; stroke-linejoin:round;">
</svg:g>
<svg:g style="fill:#D864FF; fill-opacity:1.0;  stroke:#D864FF; stroke-width:1.000000; stroke-opacity:1;  stroke-linecap:round; stroke-linejoin:round;">
<svg:path style="fill:#D864FF; fill-opacity:1.0;  stroke:#D864FF; stroke-width:1.000000; stroke-opacity:1;  stroke-linecap:round; stroke-linejoin:round;fill-rule:evenodd;" d="M 49325000.000000,61785000.000000 45375000.000000,61785000.000000 45375000.000000,59210000.000000 49325000.000000,59210000.000000 Z"/> 
<svg:path style="fill:#D864FF; fill-opacity:1.0;  stroke:#D864FF; stroke-width:1.000000; stroke-opacity:1;  stroke-linecap:round; stroke-linejoin:round;fill-rule:evenodd;" d="M 49325000.000000,40825000.000000 45375000.000000,40825000.000000 45375000.000000,38250000.000000 49325000.000000,38250000.000000 Z"/> 
<svg:g>
</svg:g>
<svg:g style="fill:#000000; fill-opacity:1.0;  stroke:#000000; stroke-width:1.000000; stroke-opacity:1;  stroke-linecap:round; stroke-linejoin:round;">
<svg:circle cx="50000000.000000" cy="57770000.000000" r="750000.000000"/> 
</svg:g>
<svg:g style="fill:#000000; fill-opacity:1.0;  stroke:#000000; stroke-width:21200.000000; stroke-opacity:1;  stroke-linecap:round; stroke-linejoin:round;">
</svg:g>
<svg:g style="fill:#000000; fill-opacity:1.0;  stroke:#000000; stroke-width:1.000000; stroke-opacity:1;  stroke-linecap:round; stroke-linejoin:round;">
<svg:circle cx="50000000.000000" cy="42230000.000000" r="750000.000000"/> 
</svg:g>
<svg:g style="fill:#000000; fill-opacity:1.0;  stroke:#000000; stroke-width:21200.000000; stroke-opacity:1;  stroke-linecap:round; stroke-linejoin:round;">
</svg:g>
<svg:g style="fill:#000000; fill-opacity:1.0;  stroke:#000000; stroke-width:1.000000; stroke-opacity:1;  stroke-linecap:round; stroke-linejoin:round;">
<svg:path style="fill:#000000; fill-opacity:1.0;  stroke:#000000; stroke-width:1.000000; stroke-opacity:1;  stroke-linecap:round; stroke-linejoin:round;fill-rule:evenodd;" d="M 29398400.000000,54165000.000000 29406134.000000,54126119.000000 29428158.000000,54093158.000000 29461119.000000,54071134.000000 29500000.000000,54063400.000000 31400000.000000,54063400.000000 31438881.000000,54071134.000000 31471842.000000,54093158.000000 31493866.000000,54126119.000000 31501600.000000,54165000.000000 31501600.000000,55115000.000000 31493866.000000,55153881.000000 31471842.000000,55186842.000000 31438881.000000,55208866.000000 31400000.000000,55216600.000000 29500000.000000,55216600.000000 29461119.000000,55208866.000000 29428158.000000,55186842.000000 29406134.000000,55153881.000000 29398400.000000,55115000.000000 Z"/> 
<svg:path style="fill:#000000; fill-opacity:1.0;  stroke:#000000; stroke-width:1.000000; stroke-opacity:1;  stroke-linecap:round; stroke-linejoin:round;fill-rule:evenodd;" d="M 29398400.000000,55435000.000000 29406134.000000,55396119.000000 29428158.000000,55363158.000000 29461119.000000,55341134.000000 29500000.000000,55333400.000000 31400000.000000,55333400.000000 31438881.000000,55341134.000000 31471842.000000,55363158.000000 31493866.000000,55396119.000000 31501600.000000,55435000.000000 31501600.000000,56385000.000000 31493866.000000,56423881.000000 31471842.000000,56456842.000000 31438881.000000,56478866.000000 31400000.000000,56486600.000000 29500000.000000,56486600.000000 29461119.000000,56478866.000000 29428158.000000,56456842.000000 29406134.000000,56423881.000000 29398400.000000,56385000.000000 Z"/> 
<svg:path style="fill:#000000; fill-opacity:1.0;  stroke:#000000; stroke-width:1.000000; stroke-opacity:1;  stroke-linecap:round; stroke-linejoin:round;fill-rule:evenodd;" d="M 29398400.000000,46545000.000000 29406134.000000,46506119.000000 29428158.000000,46473158.000000 29461119.000000,46451134.000000 29500000.000000,46443400.000000 31400000.000000,46443400.000000 31438881.000000,46451134.000000 31471842.000000,46473158.000000 31493866.000000,46506119.000000 31501600.000000,46545000.000000 31501600.000000,47495000.000000 31493866.000000,47533881.000000 31471842.000000,47566842.000000 31438881.000000,47588866.000000 31400000.000000,47596600.000000 29500000.000000,47596600.000000 29461119.000000,47588866.000000 29428158.000000,47566842.000000 29406134.000000,47533881.000000 29398400.000000,47495000.000000 Z"/> 
<svg:path style="fill:#000000; fill-opacity:1.0;  stroke:#000000; stroke-width:1.000000; stroke-opacity:1;  stroke-linecap:round; stroke-linejoin:round;fill-rule:evenodd;" d="M 29398400.000000,49085000.000000 29406134.000000,49046119.000000 29428158.000000,49013158.000000 29461119.000000,48991134.000000 29500000.000000,48983400.000000 31400000.000000,48983400.000000 31438881.000000,48991134.000000 31471842.000000,49013158.000000 31493866.000000,49046119.000000 31501600.000000,49085000.000000 31501600.000000,50035000.000000 31493866.000000,50073881.000000 31471842.000000,50106842.000000 31438881.000000,50128866.000000 31400000.000000,50136600.000000 29500000.000000,50136600.000000 29461119.000000,50128866.000000 29428158.000000,50106842.000000 29406134.000000,50073881.000000 29398400.000000,50035000.000000 Z"/> 
<svg:path style="fill:#000000; fill-opacity:1.0;  stroke:#000000; stroke-width:1.000000; stroke-opacity:1;  stroke-linecap:round; stroke-linejoin:round;fill-rule:evenodd;" d="M 29398400.000000,51625000.000000 29406134.000000,51586119.000000 29428158.000000,51553158.000000 29461119.000000,51531134.000000 29500000.000000,51523400.000000 31400000.000000,51523400.000000 31438881.000000,51531134.000000 31471842.000000,51553158.000000 31493866.000000,51586119.000000 31501600.000000,51625000.000000 31501600.000000,52575000.000000 31493866.000000,52613881.000000 31471842.000000,52646842.000000 31438881.000000,52668866.000000 31400000.000000,52676600.000000 29500000.000000,52676600.000000 29461119.000000,52668866.000000 29428158.000000,52646842.000000 29406134.000000,52613881.000000 29398400.000000,52575000.000000 Z"/> 
<svg:path style="fill:#000000; fill-opacity:1.0;  stroke:#000000; stroke-width:1.000000; stroke-opacity:1;  stroke-linecap:round; stroke-linejoin:round;fill-rule:evenodd;" d="M 29398400.000000,47815000.000000 29406134.000000,47776119.000000 29428158.000000,47743158.000000 29461119.000000,47721134.000000 29500000.000000,47713400.000000 31400000.000000,47713400.000000 31438881.000000,47721134.000000 31471842.000000,47743158.000000 31493866.000000,47776119.000000 31501600.000000,47815000.000000 31501600.000000,48765000.000000 31493866.000000,48803881.000000 31471842.000000,48836842.000000 31438881.000000,48858866.000000 31400000.000000,48866600.000000 29500000.000000,48866600.000000 29461119.000000,48858866.000000 29428158.000000,48836842.000000 29406134.000000,48803881.000000 29398400.000000,48765000.000000 Z"/> 
<svg:path style="fill:#000000; fill-opacity:1.0;  stroke:#000000; stroke-width:1.000000; stroke-opacity:1;  stroke-linecap:round; stroke-linejoin:round;fill-rule:evenodd;" d="M 29398400.000000,50355000.000000 29406134.000000,50316119.000000 29428158.000000,50283158.000000 29461119.000000,50261134.000000 29500000.000000,50253400.000000 31400000.000000,50253400.000000 31438881.000000,50261134.000000 31471842.000000,50283158.000000 31493866.000000,50316119.000000 31501600.000000,50355000.000000 31501600.000000,51305000.000000 31493866.000000,51343881.000000 31471842.000000,51376842.000000 31438881.000000,51398866.000000 31400000.000000,51406600.000000 29500000.000000,51406600.000000 29461119.000000,51398866.000000 29428158.000000,51376842.000000 29406134.000000,51343881.000000 29398400.000000,51305000.000000 Z"/> 
<svg:path style="fill:#000000; fill-opacity:1.0;  stroke:#000000; stroke-width:1.000000; stroke-opacity:1;  stroke-linecap:round; stroke-linejoin:round;fill-rule:evenodd;" d="M 29398400.000000,52895000.000000 29406134.000000,52856119.000000 29428158.000000,52823158.000000 29461119.000000,52801134.000000 29500000.000000,52793400.000000 31400000.000000,52793400.000000 31438881.000000,52801134.000000 31471842.000000,52823158.000000 31493866.000000,52856119.000000 31501600.000000,52895000.000000 31501600.000000,53845000.000000 31493866.000000,53883881.000000 31471842.000000,53916842.000000 31438881.000000,53938866.000000 31400000.000000,53946600.000000 29500000.000000,53946600.000000 29461119.000000,53938866.000000 29428158.000000,53916842.000000 29406134.000000,53883881.000000 29398400.000000,53845000.000000 Z"/> 
</svg:g>
<svg:g>
</svg:g>
<svg:g>
</svg:g>
<svg:g>
</svg:g>
</svg:g>
<svg:g style="fill:#000000; fill-opacity:1.0;  stroke:#000000; stroke-width:1.000000; stroke-opacity:1;  stroke-linecap:round; stroke-linejoin:round;">
<svg:g>
</svg:g>
<svg:g>
</svg:g>
<svg:g>
</svg:g>
<svg:g>
</svg:g>
</svg:g> 
</svg:g><svg:g><svg:title>SVG Picture created as kicadBoard-F_Paste.svg date 2022/12/05 03:28:32 </svg:title>
  <svg:desc>Picture generated by PCBNEW </svg:desc>
<svg:g style="fill:#000000; fill-opacity:1.000000;stroke:#000000; stroke-opacity:1.000000; stroke-linecap:round; stroke-linejoin:round;" transform="translate(0 0) scale(1 1)">
</svg:g>
<svg:g style="fill:#000000; fill-opacity:0.0;  stroke:#000000; stroke-width:0.000000; stroke-opacity:1;  stroke-linecap:round; stroke-linejoin:round;">
</svg:g>
<svg:g style="fill:#B4A09A; fill-opacity:0.0;  stroke:#B4A09A; stroke-width:0.000000; stroke-opacity:1;  stroke-linecap:round; stroke-linejoin:round;">
</svg:g>
<svg:g style="fill:#B4A09A; fill-opacity:1.0;  stroke:#B4A09A; stroke-width:1.000000; stroke-opacity:1;  stroke-linecap:round; stroke-linejoin:round;">
<svg:path style="fill:#B4A09A; fill-opacity:1.0;  stroke:#B4A09A; stroke-width:1.000000; stroke-opacity:1;  stroke-linecap:round; stroke-linejoin:round;fill-rule:evenodd;" d="M 49075000.000000,61510000.000000 45625000.000000,61510000.000000 45625000.000000,59460000.000000 49075000.000000,59460000.000000 Z"/> 
<svg:path style="fill:#B4A09A; fill-opacity:1.0;  stroke:#B4A09A; stroke-width:1.000000; stroke-opacity:1;  stroke-linecap:round; stroke-linejoin:round;fill-rule:evenodd;" d="M 49075000.000000,40550000.000000 45625000.000000,40550000.000000 45625000.000000,38500000.000000 49075000.000000,38500000.000000 Z"/> 
<svg:g>
</svg:g>
<svg:g style="fill:#000000; fill-opacity:1.0;  stroke:#000000; stroke-width:1.000000; stroke-opacity:1;  stroke-linecap:round; stroke-linejoin:round;">
<svg:path style="fill:#000000; fill-opacity:1.0;  stroke:#000000; stroke-width:1.000000; stroke-opacity:1;  stroke-linecap:round; stroke-linejoin:round;fill-rule:evenodd;" d="M 29500001.000000,55114999.000000 29500001.000000,54165001.000000 31399999.000000,54165001.000000 31399999.000000,55114999.000000 Z"/> 
<svg:path style="fill:#000000; fill-opacity:1.0;  stroke:#000000; stroke-width:1.000000; stroke-opacity:1;  stroke-linecap:round; stroke-linejoin:round;fill-rule:evenodd;" d="M 29500001.000000,56384999.000000 29500001.000000,55435001.000000 31399999.000000,55435001.000000 31399999.000000,56384999.000000 Z"/> 
<svg:path style="fill:#000000; fill-opacity:1.0;  stroke:#000000; stroke-width:1.000000; stroke-opacity:1;  stroke-linecap:round; stroke-linejoin:round;fill-rule:evenodd;" d="M 29500001.000000,47494999.000000 29500001.000000,46545001.000000 31399999.000000,46545001.000000 31399999.000000,47494999.000000 Z"/> 
<svg:path style="fill:#000000; fill-opacity:1.0;  stroke:#000000; stroke-width:1.000000; stroke-opacity:1;  stroke-linecap:round; stroke-linejoin:round;fill-rule:evenodd;" d="M 29500001.000000,50034999.000000 29500001.000000,49085001.000000 31399999.000000,49085001.000000 31399999.000000,50034999.000000 Z"/> 
<svg:path style="fill:#000000; fill-opacity:1.0;  stroke:#000000; stroke-width:1.000000; stroke-opacity:1;  stroke-linecap:round; stroke-linejoin:round;fill-rule:evenodd;" d="M 29500001.000000,52574999.000000 29500001.000000,51625001.000000 31399999.000000,51625001.000000 31399999.000000,52574999.000000 Z"/> 
<svg:path style="fill:#000000; fill-opacity:1.0;  stroke:#000000; stroke-width:1.000000; stroke-opacity:1;  stroke-linecap:round; stroke-linejoin:round;fill-rule:evenodd;" d="M 29500001.000000,48764999.000000 29500001.000000,47815001.000000 31399999.000000,47815001.000000 31399999.000000,48764999.000000 Z"/> 
<svg:path style="fill:#000000; fill-opacity:1.0;  stroke:#000000; stroke-width:1.000000; stroke-opacity:1;  stroke-linecap:round; stroke-linejoin:round;fill-rule:evenodd;" d="M 29500001.000000,51304999.000000 29500001.000000,50355001.000000 31399999.000000,50355001.000000 31399999.000000,51304999.000000 Z"/> 
<svg:path style="fill:#000000; fill-opacity:1.0;  stroke:#000000; stroke-width:1.000000; stroke-opacity:1;  stroke-linecap:round; stroke-linejoin:round;fill-rule:evenodd;" d="M 29500001.000000,53844999.000000 29500001.000000,52895001.000000 31399999.000000,52895001.000000 31399999.000000,53844999.000000 Z"/> 
</svg:g>
<svg:g>
</svg:g>
<svg:g>
</svg:g>
<svg:g>
</svg:g>
</svg:g>
<svg:g style="fill:#000000; fill-opacity:1.0;  stroke:#000000; stroke-width:1.000000; stroke-opacity:1;  stroke-linecap:round; stroke-linejoin:round;">
<svg:g>
</svg:g>
<svg:g>
</svg:g>
<svg:g>
</svg:g>
<svg:g>
</svg:g>
</svg:g> 
</svg:g><svg:g><svg:title>SVG Picture created as kicadBoard-F_Silkscreen.svg date 2022/12/05 03:28:32 </svg:title>
  <svg:desc>Picture generated by PCBNEW </svg:desc>
<svg:g style="fill:#000000; fill-opacity:1.000000;stroke:#000000; stroke-opacity:1.000000; stroke-linecap:round; stroke-linejoin:round;" transform="translate(0 0) scale(1 1)">
</svg:g>
<svg:g style="fill:#000000; fill-opacity:0.0;  stroke:#000000; stroke-width:0.000000; stroke-opacity:1;  stroke-linecap:round; stroke-linejoin:round;">
</svg:g>
<svg:g style="fill:#F2EDA1; fill-opacity:0.0;  stroke:#F2EDA1; stroke-width:0.000000; stroke-opacity:1;  stroke-linecap:round; stroke-linejoin:round;">
</svg:g>
<svg:g style="fill:#F2EDA1; fill-opacity:0.0;  stroke:#F2EDA1; stroke-width:101600.000000; stroke-opacity:1;  stroke-linecap:round; stroke-linejoin:round;">
<svg:text x="29680000.000000" y="39840000.000000" textLength="30100211.000000" font-size="1557866.000000" lengthAdjust="spacingAndGlyphs" text-anchor="start" opacity="0">FZECONKYOCERAELCO5366299862</svg:text>
<svg:g class="stroked-text"><svg:desc>FZECONKYOCERAELCO5366299862</svg:desc>
<svg:path d="M30413697 39172342 L30024230 39172342 "/>
<svg:path d="M30024230 39784361 L30024230 38615961 L30580611 38615961 "/>
<svg:path d="M30914440 38615961 L31693373 38615961 L30914440 39784361 L31693373 39784361 "/>
<svg:path d="M32138478 39172342 L32527944 39172342 "/>
<svg:path d="M32694859 39784361 L32138478 39784361 L32138478 38615961 L32694859 38615961 "/>
<svg:path d="M33863259 39673085 L33807620 39728723 L33640706 39784361 L33529430 39784361 L33362516 39728723 L33251240 39617447 L33195601 39506171 L33139963 39283619 L33139963 39116704 L33195601 38894152 L33251240 38782876 L33362516 38671600 L33529430 38615961 L33640706 38615961 L33807620 38671600 L33863259 38727238 "/>
<svg:path d="M34586554 38615961 L34809106 38615961 L34920382 38671600 L35031659 38782876 L35087297 39005428 L35087297 39394895 L35031659 39617447 L34920382 39728723 L34809106 39784361 L34586554 39784361 L34475278 39728723 L34364001 39617447 L34308363 39394895 L34308363 39005428 L34364001 38782876 L34475278 38671600 L34586554 38615961 "/>
<svg:path d="M35588040 39784361 L35588040 38615961 L36255697 39784361 L36255697 38615961 "/>
<svg:path d="M36812078 39784361 L36812078 38615961 "/>
<svg:path d="M37479735 39784361 L36978992 39116704 "/>
<svg:path d="M37479735 38615961 L36812078 39283619 "/>
<svg:path d="M38203030 39227980 L38203030 39784361 "/>
<svg:path d="M37813563 38615961 L38203030 39227980 L38592497 38615961 "/>
<svg:path d="M39204516 38615961 L39427068 38615961 L39538344 38671600 L39649620 38782876 L39705259 39005428 L39705259 39394895 L39649620 39617447 L39538344 39728723 L39427068 39784361 L39204516 39784361 L39093240 39728723 L38981963 39617447 L38926325 39394895 L38926325 39005428 L38981963 38782876 L39093240 38671600 L39204516 38615961 "/>
<svg:path d="M40873659 39673085 L40818020 39728723 L40651106 39784361 L40539830 39784361 L40372916 39728723 L40261640 39617447 L40206001 39506171 L40150363 39283619 L40150363 39116704 L40206001 38894152 L40261640 38782876 L40372916 38671600 L40539830 38615961 L40651106 38615961 L40818020 38671600 L40873659 38727238 "/>
<svg:path d="M41374401 39172342 L41763868 39172342 "/>
<svg:path d="M41930782 39784361 L41374401 39784361 L41374401 38615961 L41930782 38615961 "/>
<svg:path d="M43099182 39784361 L42709716 39227980 "/>
<svg:path d="M42431525 39784361 L42431525 38615961 L42876630 38615961 L42987906 38671600 L43043544 38727238 L43099182 38838514 L43099182 39005428 L43043544 39116704 L42987906 39172342 L42876630 39227980 L42431525 39227980 "/>
<svg:path d="M43544287 39450533 L44100668 39450533 "/>
<svg:path d="M43433011 39784361 L43822478 38615961 L44211944 39784361 "/>
<svg:path d="M44601411 39172342 L44990878 39172342 "/>
<svg:path d="M45157792 39784361 L44601411 39784361 L44601411 38615961 L45157792 38615961 "/>
<svg:path d="M46214916 39784361 L45658535 39784361 L45658535 38615961 "/>
<svg:path d="M47272040 39673085 L47216401 39728723 L47049487 39784361 L46938211 39784361 L46771297 39728723 L46660020 39617447 L46604382 39506171 L46548744 39283619 L46548744 39116704 L46604382 38894152 L46660020 38782876 L46771297 38671600 L46938211 38615961 L47049487 38615961 L47216401 38671600 L47272040 38727238 "/>
<svg:path d="M47995335 38615961 L48217887 38615961 L48329163 38671600 L48440440 38782876 L48496078 39005428 L48496078 39394895 L48440440 39617447 L48329163 39728723 L48217887 39784361 L47995335 39784361 L47884059 39728723 L47772782 39617447 L47717144 39394895 L47717144 39005428 L47772782 38782876 L47884059 38671600 L47995335 38615961 "/>
<svg:path d="M49553201 38615961 L48996820 38615961 L48941182 39172342 L48996820 39116704 L49108097 39061066 L49386287 39061066 L49497563 39116704 L49553201 39172342 L49608840 39283619 L49608840 39561809 L49553201 39673085 L49497563 39728723 L49386287 39784361 L49108097 39784361 L48996820 39728723 L48941182 39673085 "/>
<svg:path d="M49998306 38615961 L50721601 38615961 L50332135 39061066 L50499049 39061066 L50610325 39116704 L50665963 39172342 L50721601 39283619 L50721601 39561809 L50665963 39673085 L50610325 39728723 L50499049 39784361 L50165220 39784361 L50053944 39728723 L49998306 39673085 "/>
<svg:path d="M51723087 38615961 L51500535 38615961 L51389259 38671600 L51333620 38727238 L51222344 38894152 L51166706 39116704 L51166706 39561809 L51222344 39673085 L51277982 39728723 L51389259 39784361 L51611811 39784361 L51723087 39728723 L51778725 39673085 L51834363 39561809 L51834363 39283619 L51778725 39172342 L51723087 39116704 L51611811 39061066 L51389259 39061066 L51277982 39116704 L51222344 39172342 L51166706 39283619 "/>
<svg:path d="M52835849 38615961 L52613297 38615961 L52502020 38671600 L52446382 38727238 L52335106 38894152 L52279468 39116704 L52279468 39561809 L52335106 39673085 L52390744 39728723 L52502020 39784361 L52724573 39784361 L52835849 39728723 L52891487 39673085 L52947125 39561809 L52947125 39283619 L52891487 39172342 L52835849 39116704 L52724573 39061066 L52502020 39061066 L52390744 39116704 L52335106 39172342 L52279468 39283619 "/>
<svg:path d="M53392230 38727238 L53447868 38671600 L53559144 38615961 L53837335 38615961 L53948611 38671600 L54004249 38727238 L54059887 38838514 L54059887 38949790 L54004249 39116704 L53336592 39784361 L54059887 39784361 "/>
<svg:path d="M54616268 39784361 L54838820 39784361 L54950097 39728723 L55005735 39673085 L55117011 39506171 L55172649 39283619 L55172649 38838514 L55117011 38727238 L55061373 38671600 L54950097 38615961 L54727544 38615961 L54616268 38671600 L54560630 38727238 L54504992 38838514 L54504992 39116704 L54560630 39227980 L54616268 39283619 L54727544 39339257 L54950097 39339257 L55061373 39283619 L55117011 39227980 L55172649 39116704 "/>
<svg:path d="M55729030 39784361 L55951582 39784361 L56062859 39728723 L56118497 39673085 L56229773 39506171 L56285411 39283619 L56285411 38838514 L56229773 38727238 L56174135 38671600 L56062859 38615961 L55840306 38615961 L55729030 38671600 L55673392 38727238 L55617754 38838514 L55617754 39116704 L55673392 39227980 L55729030 39283619 L55840306 39339257 L56062859 39339257 L56174135 39283619 L56229773 39227980 L56285411 39116704 "/>
<svg:path d="M56953068 39116704 L56841792 39061066 L56786154 39005428 L56730516 38894152 L56730516 38838514 L56786154 38727238 L56841792 38671600 L56953068 38615961 L57175620 38615961 L57286897 38671600 L57342535 38727238 L57398173 38838514 L57398173 38894152 L57342535 39005428 L57286897 39061066 L57175620 39116704 L56953068 39116704 L56841792 39172342 L56786154 39227980 L56730516 39339257 L56730516 39561809 L56786154 39673085 L56841792 39728723 L56953068 39784361 L57175620 39784361 L57286897 39728723 L57342535 39673085 L57398173 39561809 L57398173 39339257 L57342535 39227980 L57286897 39172342 L57175620 39116704 "/>
<svg:path d="M58399659 38615961 L58177106 38615961 L58065830 38671600 L58010192 38727238 L57898916 38894152 L57843278 39116704 L57843278 39561809 L57898916 39673085 L57954554 39728723 L58065830 39784361 L58288382 39784361 L58399659 39728723 L58455297 39673085 L58510935 39561809 L58510935 39283619 L58455297 39172342 L58399659 39116704 L58288382 39061066 L58065830 39061066 L57954554 39116704 L57898916 39172342 L57843278 39283619 "/>
<svg:path d="M58956039 38727238 L59011678 38671600 L59122954 38615961 L59401144 38615961 L59512420 38671600 L59568059 38727238 L59623697 38838514 L59623697 38949790 L59568059 39116704 L58900401 39784361 L59623697 39784361 "/>
</svg:g><svg:path d="M48121400 45923100 L48121400 57154600 "/>
<svg:path d="M49120700 58153900 L49400400 58153900 "/>
<svg:path d="M41160000 52680000 L37000000 52680000 "/>
<svg:path d="M35960000 48200000 L35960000 49240000 "/>
<svg:path d="M49080700 44284300 L49360500 44284300 "/>
<svg:path d="M49320500 44923800 L49120700 44923800 "/>
</svg:g>
<svg:g style="fill:#F2EDA1; fill-opacity:0.0;  stroke:#F2EDA1; stroke-width:203200.000000; stroke-opacity:1;  stroke-linecap:round; stroke-linejoin:round;">
<svg:path d="M48561000 59912600 L48760900 59912700 "/>
<svg:path d="M46362600 61031800 L46002900 61031800 "/>
</svg:g>
<svg:g style="fill:#F2EDA1; fill-opacity:0.0;  stroke:#F2EDA1; stroke-width:101600.000000; stroke-opacity:1;  stroke-linecap:round; stroke-linejoin:round;">
<svg:path d="M41280000 53280000 L37120000 53280000 "/>
<svg:path d="M33012700 44963800 L33012700 55635800 "/>
<svg:path d="M58034000 58033900 L58034000 45003800 "/>
<svg:path d="M47521900 57234600 L47521900 45843100 "/>
</svg:g>
<svg:g style="fill:#F2EDA1; fill-opacity:0.0;  stroke:#F2EDA1; stroke-width:203200.000000; stroke-opacity:1;  stroke-linecap:round; stroke-linejoin:round;">
<svg:path d="M45065000 59694900 L29600000 59694900 "/>
</svg:g>
<svg:g style="fill:#F2EDA1; fill-opacity:0.0;  stroke:#F2EDA1; stroke-width:101600.000000; stroke-opacity:1;  stroke-linecap:round; stroke-linejoin:round;">
<svg:path d="M37080000 49800000 L41200000 49800000 "/>
<svg:path d="M49320500 58793400 L49080700 58793400 "/>
<svg:path d="M34680000 46480000 L34960000 46480000 "/>
</svg:g>
<svg:g style="fill:#F2EDA1; fill-opacity:0.0;  stroke:#F2EDA1; stroke-width:203200.000000; stroke-opacity:1;  stroke-linecap:round; stroke-linejoin:round;">
<svg:path d="M46003000 39048300 L46362700 39048200 "/>
<svg:path d="M55860000 59694900 L49920000 59694900 "/>
<svg:path d="M46122800 59912700 L46242700 59912600 "/>
<svg:path d="M29600000 45875000 L29600000 40425000 "/>
</svg:g>
<svg:g style="fill:#F2EDA1; fill-opacity:0.0;  stroke:#F2EDA1; stroke-width:101600.000000; stroke-opacity:1;  stroke-linecap:round; stroke-linejoin:round;">
<svg:path d="M42800000 51400000 L42800000 51760000 "/>
</svg:g>
<svg:g style="fill:#F2EDA1; fill-opacity:0.0;  stroke:#F2EDA1; stroke-width:203200.000000; stroke-opacity:1;  stroke-linecap:round; stroke-linejoin:round;">
<svg:path d="M45923000 60951900 L45923000 60072500 "/>
<svg:path d="M29600000 59694900 L29600000 57025000 "/>
<svg:path d="M46242800 40167400 L46042900 40167300 "/>
<svg:path d="M31700000 45875000 L29600000 45875000 "/>
</svg:g>
<svg:g style="fill:#F2EDA1; fill-opacity:0.0;  stroke:#F2EDA1; stroke-width:101600.000000; stroke-opacity:1;  stroke-linecap:round; stroke-linejoin:round;">
<svg:path d="M57034700 45003700 L57034700 57994000 "/>
<svg:path d="M36600000 53800000 L36600000 54920000 "/>
<svg:path d="M55995500 59033200 L55955500 59033200 "/>
<svg:path d="M35960000 53720000 L35960000 54920000 "/>
</svg:g>
<svg:g style="fill:#F2EDA1; fill-opacity:0.0;  stroke:#F2EDA1; stroke-width:203200.000000; stroke-opacity:1;  stroke-linecap:round; stroke-linejoin:round;">
<svg:path d="M48681000 40167300 L48561100 40167400 "/>
</svg:g>
<svg:g style="fill:#F2EDA1; fill-opacity:0.0;  stroke:#F2EDA1; stroke-width:101600.000000; stroke-opacity:1;  stroke-linecap:round; stroke-linejoin:round;">
<svg:path d="M33252600 56235300 L35850600 58833400 "/>
<svg:path d="M34920000 55960000 L34760000 55960000 "/>
</svg:g>
<svg:g style="fill:#F2EDA1; fill-opacity:0.0;  stroke:#F2EDA1; stroke-width:203200.000000; stroke-opacity:1;  stroke-linecap:round; stroke-linejoin:round;">
<svg:path d="M48880800 39128100 L48880800 40007500 "/>
</svg:g>
<svg:g style="fill:#F2EDA1; fill-opacity:0.0;  stroke:#F2EDA1; stroke-width:101600.000000; stroke-opacity:1;  stroke-linecap:round; stroke-linejoin:round;">
<svg:path d="M33972000 44004500 L55955500 44004500 "/>
<svg:path d="M42160000 51440000 L42160000 51680000 "/>
<svg:path d="M57034700 44004500 L56675000 44004500 "/>
<svg:path d="M61991000 44923800 L61991000 58113900 "/>
<svg:path d="M51039200 45963000 L51039200 57074700 "/>
<svg:path d="M36929800 59033200 L55435900 59033200 "/>
<svg:path d="M50399700 57154600 L50399700 46003000 "/>
<svg:path d="M34640000 47120000 L34880000 47120000 "/>
<svg:path d="M34920000 56600000 L34680000 56600000 "/>
<svg:path d="M57634300 44004500 L61071700 44004500 "/>
<svg:path d="M33680000 54880000 L33680000 48080000 "/>
</svg:g>
<svg:g style="fill:#F2EDA1; fill-opacity:0.0;  stroke:#F2EDA1; stroke-width:203200.000000; stroke-opacity:1;  stroke-linecap:round; stroke-linejoin:round;">
<svg:path d="M29600000 40425000 L44840000 40425000 "/>
</svg:g>
<svg:g style="fill:#F2EDA1; fill-opacity:0.0;  stroke:#F2EDA1; stroke-width:101600.000000; stroke-opacity:1;  stroke-linecap:round; stroke-linejoin:round;">
<svg:path d="M61071700 59033200 L57714200 59033200 "/>
</svg:g>
<svg:g style="fill:#F2EDA1; fill-opacity:0.0;  stroke:#F2EDA1; stroke-width:203200.000000; stroke-opacity:1;  stroke-linecap:round; stroke-linejoin:round;">
<svg:path d="M45923000 40087400 L45923100 39168200 "/>
<svg:path d="M55900000 57768800 L55860000 59694900 "/>
<svg:path d="M48441200 39048200 L48800900 39048200 "/>
</svg:g>
<svg:g style="fill:#F2EDA1; fill-opacity:0.0;  stroke:#F2EDA1; stroke-width:101600.000000; stroke-opacity:1;  stroke-linecap:round; stroke-linejoin:round;">
<svg:path d="M36600000 48120000 L36600000 49320000 "/>
</svg:g>
<svg:g style="fill:#F2EDA1; fill-opacity:0.0;  stroke:#F2EDA1; stroke-width:203200.000000; stroke-opacity:1;  stroke-linecap:round; stroke-linejoin:round;">
<svg:path d="M31700000 57025000 L31700000 45875000 "/>
<svg:path d="M29600000 57025000 L31700000 57025000 "/>
<svg:path d="M48800800 61031700 L48441100 61031800 "/>
<svg:path d="M55900000 40425000 L55900000 45254000 "/>
</svg:g>
<svg:g style="fill:#F2EDA1; fill-opacity:0.0;  stroke:#F2EDA1; stroke-width:101600.000000; stroke-opacity:1;  stroke-linecap:round; stroke-linejoin:round;">
<svg:path d="M37160000 50440000 L41160000 50440000 "/>
</svg:g>
<svg:g style="fill:#F2EDA1; fill-opacity:0.0;  stroke:#F2EDA1; stroke-width:203200.000000; stroke-opacity:1;  stroke-linecap:round; stroke-linejoin:round;">
<svg:path d="M48880800 59992600 L48880700 60911800 "/>
<svg:path d="M49920000 40425000 L55900000 40425000 "/>
</svg:g>
<svg:g style="fill:#F2EDA1; fill-opacity:0.0;  stroke:#F2EDA1; stroke-width:101600.000000; stroke-opacity:1;  stroke-linecap:round; stroke-linejoin:round;">
<svg:path d="M33040000.452052 54999999.994419 A1620123.000000 1620123.000000 0.0 0 0 34679999.994419 56599999.547948"/>
<svg:path d="M37120000.000000 53280000.000004 A519998.000000 519998.000000 0.0 0 0 36600000.000004 53800000.000000"/>
<svg:path d="M34640000.000000 47120000.000002 A959998.000000 959998.000000 0.0 0 0 33680000.000002 48080000.000000"/>
<svg:path d="M51039200.000000 45963000.000000 A1678701.000000 1678701.000000 0.0 0 0 49360500.000000 44284300.000000"/>
<svg:path d="M48121400.000000 57154600.000000 A999299.000000 999299.000000 0.0 0 0 49120700.000000 58153900.000000"/>
<svg:path d="M41280000.000000 53280000.000000 A1520001.000000 1520001.000000 0.0 0 0 42800000.000000 51760000.000000"/>
<svg:path d="M47521901.000000 57234599.000000 A1558800.000000 1558800.000000 0.0 0 0 49080700.000000 58793400.000000"/>
<svg:path d="M49320500.000000 58793400.000000 A1718701.000000 1718701.000000 0.0 0 0 51039200.000000 57074700.000000"/>
<svg:path d="M41160000.000000 52680000.000000 A999999.000000 999999.000000 0.0 0 0 42160000.000000 51680000.000000"/>
<svg:path d="M35850600.097102 58833399.902894 A682208.000000 682208.000000 0.0 0 0 36330301.001101 59033199.720175"/>
<svg:path d="M49080701.000000 44284299.000000 A1558800.000000 1558800.000000 0.0 0 0 47521900.000000 45843100.000000"/>
<svg:path d="M61991000.000000 44923800.000000 A919300.000000 919300.000000 0.0 0 0 61071700.000000 44004500.000000"/>
</svg:g>
<svg:g style="fill:#F2EDA1; fill-opacity:0.0;  stroke:#F2EDA1; stroke-width:203200.000000; stroke-opacity:1;  stroke-linecap:round; stroke-linejoin:round;">
<svg:path d="M46362700.228570 40327300.032530 A141411.000000 141411.000000 0.0 0 0 46242800.030303 40167399.788970"/>
</svg:g>
<svg:g style="fill:#F2EDA1; fill-opacity:0.0;  stroke:#F2EDA1; stroke-width:101600.000000; stroke-opacity:1;  stroke-linecap:round; stroke-linejoin:round;">
<svg:path d="M33012700.001165 55635800.000000 A868902.000000 868902.000000 0.0 0 0 33252600.135939 56235300.870446"/>
<svg:path d="M42160000.000000 51440000.000000 A999999.000000 999999.000000 0.0 0 0 41160000.000000 50440000.000000"/>
</svg:g>
<svg:g style="fill:#F2EDA1; fill-opacity:0.0;  stroke:#F2EDA1; stroke-width:203200.000000; stroke-opacity:1;  stroke-linecap:round; stroke-linejoin:round;">
<svg:path d="M48880799.672409 59992600.065584 A101882.000000 101882.000000 0.0 0 0 48760900.065584 59912700.327591"/>
<svg:path d="M46122799.995130 59912700.043780 A180908.000000 180908.000000 0.0 0 0 45922999.824028 60072499.980427"/>
</svg:g>
<svg:g style="fill:#F2EDA1; fill-opacity:0.0;  stroke:#F2EDA1; stroke-width:101600.000000; stroke-opacity:1;  stroke-linecap:round; stroke-linejoin:round;">
<svg:path d="M37000000.000000 52680000.000000 A1040000.000000 1040000.000000 0.0 0 0 35960000.000000 53720000.000000"/>
<svg:path d="M36600000.000000 48120000.000000 A1640000.000000 1640000.000000 0.0 0 0 34960000.000000 46480000.000000"/>
<svg:path d="M57034700.000000 45003700.000000 A999200.000000 999200.000000 0.0 0 0 56035500.000000 44004500.000000"/>
<svg:path d="M36600000.000001 49320000.000000 A480001.000000 480001.000000 0.0 0 0 37080000.000000 49799999.999999"/>
</svg:g>
<svg:g style="fill:#F2EDA1; fill-opacity:0.0;  stroke:#F2EDA1; stroke-width:203200.000000; stroke-opacity:1;  stroke-linecap:round; stroke-linejoin:round;">
<svg:path d="M48561099.874895 40167399.121040 A141223.000000 141223.000000 0.0 0 0 48441198.663589 40327201.048098"/>
</svg:g>
<svg:g style="fill:#F2EDA1; fill-opacity:0.0;  stroke:#F2EDA1; stroke-width:101600.000000; stroke-opacity:1;  stroke-linecap:round; stroke-linejoin:round;">
<svg:path d="M58034000.000000 45003800.000000 A999300.000000 999300.000000 0.0 0 0 57034700.000000 44004500.000000"/>
</svg:g>
<svg:g style="fill:#F2EDA1; fill-opacity:0.0;  stroke:#F2EDA1; stroke-width:203200.000000; stroke-opacity:1;  stroke-linecap:round; stroke-linejoin:round;">
<svg:path d="M46003000.065584 39048300.327591 A101882.000000 101882.000000 0.0 0 0 45923100.327591 39168199.934416"/>
<svg:path d="M46242700.042345 59912600.297552 A141221.000000 141221.000000 0.0 0 0 46362602.316479 59752799.954751"/>
</svg:g>
<svg:g style="fill:#F2EDA1; fill-opacity:0.0;  stroke:#F2EDA1; stroke-width:101600.000000; stroke-opacity:1;  stroke-linecap:round; stroke-linejoin:round;">
<svg:path d="M34920000.000000 55960000.000000 A1040000.000000 1040000.000000 0.0 0 0 35960000.000000 54920000.000000"/>
<svg:path d="M34680000.000000 46480000.000000 A1640000.000000 1640000.000000 0.0 0 0 33040000.000000 48120000.000000"/>
<svg:path d="M49400400.000000 58153900.000000 A999299.000000 999299.000000 0.0 0 0 50399700.000000 57154600.000000"/>
</svg:g>
<svg:g style="fill:#F2EDA1; fill-opacity:0.0;  stroke:#F2EDA1; stroke-width:203200.000000; stroke-opacity:1;  stroke-linecap:round; stroke-linejoin:round;">
<svg:path d="M48880799.999994 39128100.000000 A79899.000000 79899.000000 0.0 0 0 48800900.000000 39048200.000006"/>
<svg:path d="M48681000.004870 40167299.956220 A180908.000000 180908.000000 0.0 0 0 48880800.175972 40007500.019573"/>
<svg:path d="M46362699.953726 39048200.058845 A1681268.000000 1681268.000000 0.0 0 0 48441198.942465 39048200.926834"/>
<svg:path d="M55900000.545302 45254000.198672 A18279284.000000 18279284.000000 0.0 0 0 55900000.223662 57768798.918512"/>
</svg:g>
<svg:g style="fill:#F2EDA1; fill-opacity:0.0;  stroke:#F2EDA1; stroke-width:101600.000000; stroke-opacity:1;  stroke-linecap:round; stroke-linejoin:round;">
<svg:path d="M42800000.000000 51400000.000000 A1599999.000000 1599999.000000 0.0 0 0 41200000.000000 49800000.000000"/>
</svg:g>
<svg:g style="fill:#F2EDA1; fill-opacity:0.0;  stroke:#F2EDA1; stroke-width:203200.000000; stroke-opacity:1;  stroke-linecap:round; stroke-linejoin:round;">
<svg:path d="M48800799.934416 61031699.672409 A101882.000000 101882.000000 0.0 0 0 48880699.672409 60911800.065584"/>
<svg:path d="M45923000.327591 40087399.934416 A101882.000000 101882.000000 0.0 0 0 46042899.934416 40167299.672409"/>
</svg:g>
<svg:g style="fill:#F2EDA1; fill-opacity:0.0;  stroke:#F2EDA1; stroke-width:101600.000000; stroke-opacity:1;  stroke-linecap:round; stroke-linejoin:round;">
<svg:path d="M61071700.000000 59033200.000000 A919300.000000 919300.000000 0.0 0 0 61991000.000000 58113900.000000"/>
<svg:path d="M36330300.000000 59033199.999996 A75759202.000000 75759202.000000 0.0 0 0 36929800.000000 59033199.999996"/>
<svg:path d="M35960000.000000 49240000.000000 A1200000.000000 1200000.000000 0.0 0 0 37160000.000000 50440000.000000"/>
</svg:g>
<svg:g style="fill:#F2EDA1; fill-opacity:0.0;  stroke:#F2EDA1; stroke-width:203200.000000; stroke-opacity:1;  stroke-linecap:round; stroke-linejoin:round;">
<svg:path d="M48441100.046274 61031799.941155 A1681268.000000 1681268.000000 0.0 0 0 46362601.057535 61031799.073166"/>
</svg:g>
<svg:g style="fill:#F2EDA1; fill-opacity:0.0;  stroke:#F2EDA1; stroke-width:101600.000000; stroke-opacity:1;  stroke-linecap:round; stroke-linejoin:round;">
<svg:path d="M34920000.000000 56600000.000000 A1680001.000000 1680001.000000 0.0 0 0 36600000.000000 54920000.000000"/>
<svg:path d="M33972000.000000 44004500.000002 A959298.000000 959298.000000 0.0 0 0 33012700.000002 44963800.000000"/>
<svg:path d="M57034700.000000 59033200.000000 A999300.000000 999300.000000 0.0 0 0 58034000.000000 58033900.000000"/>
<svg:path d="M49120700.000000 44923800.000000 A999299.000000 999299.000000 0.0 0 0 48121400.000000 45923100.000000"/>
</svg:g>
<svg:g style="fill:#F2EDA1; fill-opacity:0.0;  stroke:#F2EDA1; stroke-width:203200.000000; stroke-opacity:1;  stroke-linecap:round; stroke-linejoin:round;">
<svg:path d="M45923000.000006 60951900.000000 A79899.000000 79899.000000 0.0 0 0 46002900.000000 61031799.999994"/>
</svg:g>
<svg:g style="fill:#F2EDA1; fill-opacity:0.0;  stroke:#F2EDA1; stroke-width:101600.000000; stroke-opacity:1;  stroke-linecap:round; stroke-linejoin:round;">
<svg:path d="M50399700.000000 46003000.000000 A1079199.000000 1079199.000000 0.0 0 0 49320500.000000 44923800.000000"/>
<svg:path d="M33680000.000000 54880000.000000 A1080001.000000 1080001.000000 0.0 0 0 34760000.000000 55960000.000000"/>
<svg:path d="M55995500.000000 59033200.000000 A1039200.000000 1039200.000000 0.0 0 0 57034700.000000 57994000.000000"/>
<svg:path d="M35960000.000000 48200000.000000 A1080001.000000 1080001.000000 0.0 0 0 34880000.000000 47120000.000000"/>
</svg:g>
<svg:g style="fill:#F2EDA1; fill-opacity:0.0;  stroke:#F2EDA1; stroke-width:203200.000000; stroke-opacity:1;  stroke-linecap:round; stroke-linejoin:round;">
<svg:path d="M48441098.781406 59752699.826568 A141412.000000 141412.000000 0.0 0 0 48561000.948054 59912601.361772"/>
<svg:g>
</svg:g>
<svg:g>
</svg:g>
<svg:g>
</svg:g>
<svg:g>
</svg:g>
</svg:g>
<svg:g style="fill:#000000; fill-opacity:0.0;  stroke:#000000; stroke-width:203200.000000; stroke-opacity:1;  stroke-linecap:round; stroke-linejoin:round;">
<svg:g>
</svg:g>
<svg:g>
</svg:g>
<svg:g>
</svg:g>
<svg:g>
</svg:g>
</svg:g> 
</svg:g><svg:g><svg:title>SVG Picture created as kicadBoard-Margin.svg date 2022/12/05 03:28:32 </svg:title>
  <svg:desc>Picture generated by PCBNEW </svg:desc>
<svg:g style="fill:#000000; fill-opacity:1.000000;stroke:#000000; stroke-opacity:1.000000; stroke-linecap:round; stroke-linejoin:round;" transform="translate(0 0) scale(1 1)">
</svg:g>
<svg:g style="fill:#000000; fill-opacity:0.0;  stroke:#000000; stroke-width:0.000000; stroke-opacity:1;  stroke-linecap:round; stroke-linejoin:round;">
<svg:g>
</svg:g>
<svg:g>
</svg:g>
<svg:g>
</svg:g>
<svg:g>
</svg:g>
</svg:g>
<svg:g style="fill:#000000; fill-opacity:0.0;  stroke:#000000; stroke-width:0.000000; stroke-opacity:1;  stroke-linecap:round; stroke-linejoin:round;">
<svg:g>
</svg:g>
<svg:g>
</svg:g>
<svg:g>
</svg:g>
<svg:g>
</svg:g>
</svg:g> 
</svg:g><svg:g><svg:title>SVG Picture created as kicadBoard-F_Cu.svg date 2022/12/05 03:28:32 </svg:title>
  <svg:desc>Picture generated by PCBNEW </svg:desc>
<svg:g style="fill:#000000; fill-opacity:1.000000;stroke:#000000; stroke-opacity:1.000000; stroke-linecap:round; stroke-linejoin:round;" transform="translate(0 0) scale(1 1)">
</svg:g>
<svg:g style="fill:#000000; fill-opacity:0.0;  stroke:#000000; stroke-width:0.000000; stroke-opacity:1;  stroke-linecap:round; stroke-linejoin:round;">
</svg:g>
<svg:g style="fill:#C83434; fill-opacity:0.0;  stroke:#C83434; stroke-width:0.000000; stroke-opacity:1;  stroke-linecap:round; stroke-linejoin:round;">
</svg:g>
<svg:g style="fill:#C83434; fill-opacity:1.0;  stroke:#C83434; stroke-width:1.000000; stroke-opacity:1;  stroke-linecap:round; stroke-linejoin:round;">
<svg:path style="fill:#C83434; fill-opacity:1.0;  stroke:#C83434; stroke-width:1.000000; stroke-opacity:1;  stroke-linecap:round; stroke-linejoin:round;fill-rule:evenodd;" d="M 49200000.000000,61630000.000000 45500000.000000,61630000.000000 45500000.000000,59330000.000000 49200000.000000,59330000.000000 Z"/> 
<svg:path style="fill:#C83434; fill-opacity:1.0;  stroke:#C83434; stroke-width:1.000000; stroke-opacity:1;  stroke-linecap:round; stroke-linejoin:round;fill-rule:evenodd;" d="M 49200000.000000,40670000.000000 45500000.000000,40670000.000000 45500000.000000,38370000.000000 49200000.000000,38370000.000000 Z"/> 
<svg:g>
<svg:path style="fill:#C83434; fill-opacity:1.0;  stroke:#C83434; stroke-width:1.000000; stroke-opacity:1;  stroke-linecap:round; stroke-linejoin:round;fill-rule:evenodd;" d="M 29500001.000000,55114999.000000 29500001.000000,54165001.000000 31399999.000000,54165001.000000 31399999.000000,55114999.000000 Z"/> 
<svg:path style="fill:#C83434; fill-opacity:1.0;  stroke:#C83434; stroke-width:1.000000; stroke-opacity:1;  stroke-linecap:round; stroke-linejoin:round;fill-rule:evenodd;" d="M 29500001.000000,56384999.000000 29500001.000000,55435001.000000 31399999.000000,55435001.000000 31399999.000000,56384999.000000 Z"/> 
<svg:path style="fill:#C83434; fill-opacity:1.0;  stroke:#C83434; stroke-width:1.000000; stroke-opacity:1;  stroke-linecap:round; stroke-linejoin:round;fill-rule:evenodd;" d="M 29500001.000000,47494999.000000 29500001.000000,46545001.000000 31399999.000000,46545001.000000 31399999.000000,47494999.000000 Z"/> 
<svg:path style="fill:#C83434; fill-opacity:1.0;  stroke:#C83434; stroke-width:1.000000; stroke-opacity:1;  stroke-linecap:round; stroke-linejoin:round;fill-rule:evenodd;" d="M 29500001.000000,50034999.000000 29500001.000000,49085001.000000 31399999.000000,49085001.000000 31399999.000000,50034999.000000 Z"/> 
<svg:path style="fill:#C83434; fill-opacity:1.0;  stroke:#C83434; stroke-width:1.000000; stroke-opacity:1;  stroke-linecap:round; stroke-linejoin:round;fill-rule:evenodd;" d="M 29500001.000000,52574999.000000 29500001.000000,51625001.000000 31399999.000000,51625001.000000 31399999.000000,52574999.000000 Z"/> 
<svg:path style="fill:#C83434; fill-opacity:1.0;  stroke:#C83434; stroke-width:1.000000; stroke-opacity:1;  stroke-linecap:round; stroke-linejoin:round;fill-rule:evenodd;" d="M 29500001.000000,48764999.000000 29500001.000000,47815001.000000 31399999.000000,47815001.000000 31399999.000000,48764999.000000 Z"/> 
<svg:path style="fill:#C83434; fill-opacity:1.0;  stroke:#C83434; stroke-width:1.000000; stroke-opacity:1;  stroke-linecap:round; stroke-linejoin:round;fill-rule:evenodd;" d="M 29500001.000000,51304999.000000 29500001.000000,50355001.000000 31399999.000000,50355001.000000 31399999.000000,51304999.000000 Z"/> 
<svg:path style="fill:#C83434; fill-opacity:1.0;  stroke:#C83434; stroke-width:1.000000; stroke-opacity:1;  stroke-linecap:round; stroke-linejoin:round;fill-rule:evenodd;" d="M 29500001.000000,53844999.000000 29500001.000000,52895001.000000 31399999.000000,52895001.000000 31399999.000000,53844999.000000 Z"/> 
</svg:g>
<svg:g>
</svg:g>
<svg:g>
</svg:g>
<svg:g>
</svg:g>
</svg:g>
<svg:g style="fill:#FFFFFF; fill-opacity:1.0;  stroke:#FFFFFF; stroke-width:1.000000; stroke-opacity:1;  stroke-linecap:round; stroke-linejoin:round;">
<svg:circle cx="50000000.000000" cy="57770000.000000" r="749999.500000"/> 
</svg:g>
<svg:g style="fill:#FFFFFF; fill-opacity:1.0;  stroke:#FFFFFF; stroke-width:21200.000000; stroke-opacity:1;  stroke-linecap:round; stroke-linejoin:round;">
</svg:g>
<svg:g style="fill:#FFFFFF; fill-opacity:1.0;  stroke:#FFFFFF; stroke-width:1.000000; stroke-opacity:1;  stroke-linecap:round; stroke-linejoin:round;">
<svg:circle cx="50000000.000000" cy="42230000.000000" r="749999.500000"/> 
</svg:g>
<svg:g style="fill:#FFFFFF; fill-opacity:1.0;  stroke:#FFFFFF; stroke-width:21200.000000; stroke-opacity:1;  stroke-linecap:round; stroke-linejoin:round;">
</svg:g>
<svg:g style="fill:#000000; fill-opacity:1.0;  stroke:#000000; stroke-width:21200.000000; stroke-opacity:1;  stroke-linecap:round; stroke-linejoin:round;">
<svg:g>
</svg:g>
<svg:g>
</svg:g>
<svg:g>
</svg:g>
<svg:g>
</svg:g>
</svg:g> 
</svg:g></svg>
