<?xml version='1.0' encoding='ASCII' standalone='yes'?>
<svg xmlns:svg="http://www.w3.org/2000/svg" xmlns="http://www.w3.org/2000/svg" xmlns:xlink="http://www.w3.org/1999/xlink" version="1.1" width="9.999980cm" height="9.999980cm" viewBox="0 0 99999800 99999800">
<title>SVG Picture created as kicadBoard-B_Cu.svg date 2022/12/03 03:41:31 </title>
  <desc>Picture generated by PCBNEW </desc>
<g style="fill:#000000; fill-opacity:1.000000;stroke:#000000; stroke-opacity:1.000000; stroke-linecap:round; stroke-linejoin:round;" transform="translate(0 0) scale(1 1)">
</g>
<g style="fill:#000000; fill-opacity:0.0;  stroke:#000000; stroke-width:0.000000; stroke-opacity:1;  stroke-linecap:round; stroke-linejoin:round;">
<g>
</g>
<g style="fill:#4D7FC4; fill-opacity:0.0;  stroke:#4D7FC4; stroke-width:0.000000; stroke-opacity:1;  stroke-linecap:round; stroke-linejoin:round;">
</g>
<g style="fill:#4D7FC4; fill-opacity:0.0;  stroke:#4D7FC4; stroke-width:1.000000; stroke-opacity:1;  stroke-linecap:round; stroke-linejoin:round;">
</g>
<g style="fill:#4D7FC4; fill-opacity:1.0;  stroke:#4D7FC4; stroke-width:1.000000; stroke-opacity:1;  stroke-linecap:round; stroke-linejoin:round;">
<path style="fill:#4D7FC4; fill-opacity:1.0;  stroke:#4D7FC4; stroke-width:1.000000; stroke-opacity:1;  stroke-linecap:round; stroke-linejoin:round;fill-rule:evenodd;" d="M 25870000.000000,54445000.000000 26505000.000000,53810000.000000 27775000.000000,53810000.000000 28410000.000000,54445000.000000 28410000.000000,55715000.000000 27775000.000000,56350000.000000 26505000.000000,56350000.000000 25870000.000000,55715000.000000 Z"/> 
<path style="fill:#4D7FC4; fill-opacity:1.0;  stroke:#4D7FC4; stroke-width:1.000000; stroke-opacity:1;  stroke-linecap:round; stroke-linejoin:round;fill-rule:evenodd;" d="M 25870000.000000,44285000.000000 26505000.000000,43650000.000000 27775000.000000,43650000.000000 28410000.000000,44285000.000000 28410000.000000,45555000.000000 27775000.000000,46190000.000000 26505000.000000,46190000.000000 25870000.000000,45555000.000000 Z"/> 
<path style="fill:#4D7FC4; fill-opacity:1.0;  stroke:#4D7FC4; stroke-width:1.000000; stroke-opacity:1;  stroke-linecap:round; stroke-linejoin:round;fill-rule:evenodd;" d="M 70701000.000000,49365000.000000 71336000.000000,48730000.000000 72606000.000000,48730000.000000 73241000.000000,49365000.000000 73241000.000000,50635000.000000 72606000.000000,51270000.000000 71336000.000000,51270000.000000 70701000.000000,50635000.000000 Z"/> 
</g>
<g>
</g>
<g>
</g>
<g>
</g>
</g>
<g style="fill:#FFFFFF; fill-opacity:1.0;  stroke:#FFFFFF; stroke-width:1.000000; stroke-opacity:1;  stroke-linecap:round; stroke-linejoin:round;">
<circle cx="27140000.000000" cy="55080000.000000" r="558800.000000"/> 
</g>
<g style="fill:#FFFFFF; fill-opacity:1.0;  stroke:#FFFFFF; stroke-width:21200.000000; stroke-opacity:1;  stroke-linecap:round; stroke-linejoin:round;">
</g>
<g style="fill:#FFFFFF; fill-opacity:1.0;  stroke:#FFFFFF; stroke-width:1.000000; stroke-opacity:1;  stroke-linecap:round; stroke-linejoin:round;">
<circle cx="27140000.000000" cy="44920000.000000" r="558800.000000"/> 
</g>
<g style="fill:#FFFFFF; fill-opacity:1.0;  stroke:#FFFFFF; stroke-width:21200.000000; stroke-opacity:1;  stroke-linecap:round; stroke-linejoin:round;">
</g>
<g style="fill:#FFFFFF; fill-opacity:1.0;  stroke:#FFFFFF; stroke-width:1.000000; stroke-opacity:1;  stroke-linecap:round; stroke-linejoin:round;">
<circle cx="71971000.000000" cy="50000000.000000" r="558800.000000"/> 
</g>
<g style="fill:#FFFFFF; fill-opacity:1.0;  stroke:#FFFFFF; stroke-width:21200.000000; stroke-opacity:1;  stroke-linecap:round; stroke-linejoin:round;">
</g>
<g style="fill:#000000; fill-opacity:1.0;  stroke:#000000; stroke-width:21200.000000; stroke-opacity:1;  stroke-linecap:round; stroke-linejoin:round;">
<g>
</g>
<g>
</g>
<g>
</g>
<g>
</g>
</g> 
<svg:g><svg:title>SVG Picture created as kicadBoard-B_Adhesive.svg date 2022/12/03 03:41:31 </svg:title>
  <svg:desc>Picture generated by PCBNEW </svg:desc>
<svg:g style="fill:#000000; fill-opacity:1.000000;stroke:#000000; stroke-opacity:1.000000; stroke-linecap:round; stroke-linejoin:round;" transform="translate(0 0) scale(1 1)">
</svg:g>
<svg:g style="fill:#000000; fill-opacity:0.0;  stroke:#000000; stroke-width:0.000000; stroke-opacity:1;  stroke-linecap:round; stroke-linejoin:round;">
<svg:g>
</svg:g>
<svg:g>
</svg:g>
<svg:g>
</svg:g>
<svg:g>
</svg:g>
</svg:g>
<svg:g style="fill:#000000; fill-opacity:0.0;  stroke:#000000; stroke-width:0.000000; stroke-opacity:1;  stroke-linecap:round; stroke-linejoin:round;">
<svg:g>
</svg:g>
<svg:g>
</svg:g>
<svg:g>
</svg:g>
<svg:g>
</svg:g>
</svg:g> 
</svg:g><svg:g><svg:title>SVG Picture created as kicadBoard-B_Courtyard.svg date 2022/12/03 03:41:31 </svg:title>
  <svg:desc>Picture generated by PCBNEW </svg:desc>
<svg:g style="fill:#000000; fill-opacity:1.000000;stroke:#000000; stroke-opacity:1.000000; stroke-linecap:round; stroke-linejoin:round;" transform="translate(0 0) scale(1 1)">
</svg:g>
<svg:g style="fill:#000000; fill-opacity:0.0;  stroke:#000000; stroke-width:0.000000; stroke-opacity:1;  stroke-linecap:round; stroke-linejoin:round;">
<svg:g>
</svg:g>
<svg:g>
</svg:g>
<svg:g>
</svg:g>
<svg:g>
</svg:g>
</svg:g>
<svg:g style="fill:#000000; fill-opacity:0.0;  stroke:#000000; stroke-width:0.000000; stroke-opacity:1;  stroke-linecap:round; stroke-linejoin:round;">
<svg:g>
</svg:g>
<svg:g>
</svg:g>
<svg:g>
</svg:g>
<svg:g>
</svg:g>
</svg:g> 
</svg:g><svg:g><svg:title>SVG Picture created as kicadBoard-B_Fab.svg date 2022/12/03 03:41:31 </svg:title>
  <svg:desc>Picture generated by PCBNEW </svg:desc>
<svg:g style="fill:#000000; fill-opacity:1.000000;stroke:#000000; stroke-opacity:1.000000; stroke-linecap:round; stroke-linejoin:round;" transform="translate(0 0) scale(1 1)">
</svg:g>
<svg:g style="fill:#000000; fill-opacity:0.0;  stroke:#000000; stroke-width:0.000000; stroke-opacity:1;  stroke-linecap:round; stroke-linejoin:round;">
<svg:g>
</svg:g>
<svg:g>
</svg:g>
<svg:g>
</svg:g>
<svg:g>
</svg:g>
</svg:g>
<svg:g style="fill:#000000; fill-opacity:0.0;  stroke:#000000; stroke-width:0.000000; stroke-opacity:1;  stroke-linecap:round; stroke-linejoin:round;">
<svg:g>
</svg:g>
<svg:g>
</svg:g>
<svg:g>
</svg:g>
<svg:g>
</svg:g>
</svg:g> 
</svg:g><svg:g><svg:title>SVG Picture created as kicadBoard-B_Mask.svg date 2022/12/03 03:41:31 </svg:title>
  <svg:desc>Picture generated by PCBNEW </svg:desc>
<svg:g style="fill:#000000; fill-opacity:1.000000;stroke:#000000; stroke-opacity:1.000000; stroke-linecap:round; stroke-linejoin:round;" transform="translate(0 0) scale(1 1)">
</svg:g>
<svg:g style="fill:#000000; fill-opacity:0.0;  stroke:#000000; stroke-width:0.000000; stroke-opacity:1;  stroke-linecap:round; stroke-linejoin:round;">
<svg:g>
</svg:g>
<svg:g style="fill:#000000; fill-opacity:0.0;  stroke:#000000; stroke-width:1.000000; stroke-opacity:1;  stroke-linecap:round; stroke-linejoin:round;">
</svg:g>
<svg:g style="fill:#000000; fill-opacity:1.0;  stroke:#000000; stroke-width:1.000000; stroke-opacity:1;  stroke-linecap:round; stroke-linejoin:round;">
<svg:path style="fill:#000000; fill-opacity:1.0;  stroke:#000000; stroke-width:1.000000; stroke-opacity:1;  stroke-linecap:round; stroke-linejoin:round;fill-rule:evenodd;" d="M 27834719.000000,53727804.000000 27846842.000000,53738158.000000 28481842.000000,54373158.000000 28510349.000000,54429106.000000 28511600.000000,54445000.000000 28511600.000000,55715000.000000 28492196.000000,55774719.000000 28481842.000000,55786842.000000 27846842.000000,56421842.000000 27790894.000000,56450349.000000 27775000.000000,56451600.000000 26505000.000000,56451600.000000 26445281.000000,56432196.000000 26433158.000000,56421842.000000 25798158.000000,55786842.000000 25769651.000000,55730894.000000 25768400.000000,55715000.000000 25768400.000000,54445000.000000 25787804.000000,54385281.000000 25798158.000000,54373158.000000 26433158.000000,53738158.000000 26489106.000000,53709651.000000 26505000.000000,53708400.000000 27775000.000000,53708400.000000 Z"/> 
<svg:path style="fill:#000000; fill-opacity:1.0;  stroke:#000000; stroke-width:1.000000; stroke-opacity:1;  stroke-linecap:round; stroke-linejoin:round;fill-rule:evenodd;" d="M 27834719.000000,43567804.000000 27846842.000000,43578158.000000 28481842.000000,44213158.000000 28510349.000000,44269106.000000 28511600.000000,44285000.000000 28511600.000000,45555000.000000 28492196.000000,45614719.000000 28481842.000000,45626842.000000 27846842.000000,46261842.000000 27790894.000000,46290349.000000 27775000.000000,46291600.000000 26505000.000000,46291600.000000 26445281.000000,46272196.000000 26433158.000000,46261842.000000 25798158.000000,45626842.000000 25769651.000000,45570894.000000 25768400.000000,45555000.000000 25768400.000000,44285000.000000 25787804.000000,44225281.000000 25798158.000000,44213158.000000 26433158.000000,43578158.000000 26489106.000000,43549651.000000 26505000.000000,43548400.000000 27775000.000000,43548400.000000 Z"/> 
<svg:path style="fill:#000000; fill-opacity:1.0;  stroke:#000000; stroke-width:1.000000; stroke-opacity:1;  stroke-linecap:round; stroke-linejoin:round;fill-rule:evenodd;" d="M 72665719.000000,48647804.000000 72677842.000000,48658158.000000 73312842.000000,49293158.000000 73341349.000000,49349106.000000 73342600.000000,49365000.000000 73342600.000000,50635000.000000 73323196.000000,50694719.000000 73312842.000000,50706842.000000 72677842.000000,51341842.000000 72621894.000000,51370349.000000 72606000.000000,51371600.000000 71336000.000000,51371600.000000 71276281.000000,51352196.000000 71264158.000000,51341842.000000 70629158.000000,50706842.000000 70600651.000000,50650894.000000 70599400.000000,50635000.000000 70599400.000000,49365000.000000 70618804.000000,49305281.000000 70629158.000000,49293158.000000 71264158.000000,48658158.000000 71320106.000000,48629651.000000 71336000.000000,48628400.000000 72606000.000000,48628400.000000 Z"/> 
</svg:g>
<svg:g>
</svg:g>
<svg:g>
</svg:g>
<svg:g>
</svg:g>
</svg:g>
<svg:g style="fill:#000000; fill-opacity:1.0;  stroke:#000000; stroke-width:1.000000; stroke-opacity:1;  stroke-linecap:round; stroke-linejoin:round;">
<svg:g>
</svg:g>
<svg:g>
</svg:g>
<svg:g>
</svg:g>
<svg:g>
</svg:g>
</svg:g> 
</svg:g><svg:g><svg:title>SVG Picture created as kicadBoard-B_Paste.svg date 2022/12/03 03:41:31 </svg:title>
  <svg:desc>Picture generated by PCBNEW </svg:desc>
<svg:g style="fill:#000000; fill-opacity:1.000000;stroke:#000000; stroke-opacity:1.000000; stroke-linecap:round; stroke-linejoin:round;" transform="translate(0 0) scale(1 1)">
</svg:g>
<svg:g style="fill:#000000; fill-opacity:0.0;  stroke:#000000; stroke-width:0.000000; stroke-opacity:1;  stroke-linecap:round; stroke-linejoin:round;">
<svg:g>
</svg:g>
<svg:g>
</svg:g>
<svg:g>
</svg:g>
<svg:g>
</svg:g>
</svg:g>
<svg:g style="fill:#000000; fill-opacity:0.0;  stroke:#000000; stroke-width:0.000000; stroke-opacity:1;  stroke-linecap:round; stroke-linejoin:round;">
<svg:g>
</svg:g>
<svg:g>
</svg:g>
<svg:g>
</svg:g>
<svg:g>
</svg:g>
</svg:g> 
</svg:g><svg:g><svg:title>SVG Picture created as kicadBoard-B_Silkscreen.svg date 2022/12/03 03:41:31 </svg:title>
  <svg:desc>Picture generated by PCBNEW </svg:desc>
<svg:g style="fill:#000000; fill-opacity:1.000000;stroke:#000000; stroke-opacity:1.000000; stroke-linecap:round; stroke-linejoin:round;" transform="translate(0 0) scale(1 1)">
</svg:g>
<svg:g style="fill:#000000; fill-opacity:0.0;  stroke:#000000; stroke-width:0.000000; stroke-opacity:1;  stroke-linecap:round; stroke-linejoin:round;">
<svg:g>
</svg:g>
<svg:g>
</svg:g>
<svg:g>
</svg:g>
<svg:g>
</svg:g>
</svg:g>
<svg:g style="fill:#000000; fill-opacity:0.0;  stroke:#000000; stroke-width:0.000000; stroke-opacity:1;  stroke-linecap:round; stroke-linejoin:round;">
<svg:g>
</svg:g>
<svg:g>
</svg:g>
<svg:g>
</svg:g>
<svg:g>
</svg:g>
</svg:g> 
</svg:g><svg:g><svg:title>SVG Picture created as kicadBoard-Edge_Cuts.svg date 2022/12/03 03:41:31 </svg:title>
  <svg:desc>Picture generated by PCBNEW </svg:desc>
<svg:g style="fill:#000000; fill-opacity:1.000000;stroke:#000000; stroke-opacity:1.000000; stroke-linecap:round; stroke-linejoin:round;" transform="translate(0 0) scale(1 1)">
</svg:g>
<svg:g style="fill:#000000; fill-opacity:0.0;  stroke:#000000; stroke-width:0.000000; stroke-opacity:1;  stroke-linecap:round; stroke-linejoin:round;">
<svg:g>
</svg:g>
<svg:g>
</svg:g>
<svg:g>
</svg:g>
<svg:g>
</svg:g>
</svg:g> 
</svg:g><svg:g><svg:title>SVG Picture created as kicadBoard-F_Adhesive.svg date 2022/12/03 03:41:31 </svg:title>
  <svg:desc>Picture generated by PCBNEW </svg:desc>
<svg:g style="fill:#000000; fill-opacity:1.000000;stroke:#000000; stroke-opacity:1.000000; stroke-linecap:round; stroke-linejoin:round;" transform="translate(0 0) scale(1 1)">
</svg:g>
<svg:g style="fill:#000000; fill-opacity:0.0;  stroke:#000000; stroke-width:0.000000; stroke-opacity:1;  stroke-linecap:round; stroke-linejoin:round;">
<svg:g>
</svg:g>
<svg:g>
</svg:g>
<svg:g>
</svg:g>
<svg:g>
</svg:g>
</svg:g>
<svg:g style="fill:#000000; fill-opacity:0.0;  stroke:#000000; stroke-width:0.000000; stroke-opacity:1;  stroke-linecap:round; stroke-linejoin:round;">
<svg:g>
</svg:g>
<svg:g>
</svg:g>
<svg:g>
</svg:g>
<svg:g>
</svg:g>
</svg:g> 
</svg:g><svg:g><svg:title>SVG Picture created as kicadBoard-F_Courtyard.svg date 2022/12/03 03:41:31 </svg:title>
  <svg:desc>Picture generated by PCBNEW </svg:desc>
<svg:g style="fill:#000000; fill-opacity:1.000000;stroke:#000000; stroke-opacity:1.000000; stroke-linecap:round; stroke-linejoin:round;" transform="translate(0 0) scale(1 1)">
</svg:g>
<svg:g style="fill:#000000; fill-opacity:0.0;  stroke:#000000; stroke-width:0.000000; stroke-opacity:1;  stroke-linecap:round; stroke-linejoin:round;">
<svg:g>
</svg:g>
<svg:g>
</svg:g>
<svg:g>
</svg:g>
<svg:g>
</svg:g>
</svg:g>
<svg:g style="fill:#000000; fill-opacity:0.0;  stroke:#000000; stroke-width:0.000000; stroke-opacity:1;  stroke-linecap:round; stroke-linejoin:round;">
<svg:g>
</svg:g>
<svg:g>
</svg:g>
<svg:g>
</svg:g>
<svg:g>
</svg:g>
</svg:g> 
</svg:g><svg:g><svg:title>SVG Picture created as kicadBoard-F_Cu.svg date 2022/12/03 03:41:31 </svg:title>
  <svg:desc>Picture generated by PCBNEW </svg:desc>
<svg:g style="fill:#000000; fill-opacity:1.000000;stroke:#000000; stroke-opacity:1.000000; stroke-linecap:round; stroke-linejoin:round;" transform="translate(0 0) scale(1 1)">
</svg:g>
<svg:g style="fill:#000000; fill-opacity:0.0;  stroke:#000000; stroke-width:0.000000; stroke-opacity:1;  stroke-linecap:round; stroke-linejoin:round;">
<svg:g>
</svg:g>
<svg:g style="fill:#C83434; fill-opacity:0.0;  stroke:#C83434; stroke-width:0.000000; stroke-opacity:1;  stroke-linecap:round; stroke-linejoin:round;">
</svg:g>
<svg:g style="fill:#C83434; fill-opacity:0.0;  stroke:#C83434; stroke-width:1.000000; stroke-opacity:1;  stroke-linecap:round; stroke-linejoin:round;">
</svg:g>
<svg:g style="fill:#C83434; fill-opacity:1.0;  stroke:#C83434; stroke-width:1.000000; stroke-opacity:1;  stroke-linecap:round; stroke-linejoin:round;">
<svg:path style="fill:#C83434; fill-opacity:1.0;  stroke:#C83434; stroke-width:1.000000; stroke-opacity:1;  stroke-linecap:round; stroke-linejoin:round;fill-rule:evenodd;" d="M 25870000.000000,54445000.000000 26505000.000000,53810000.000000 27775000.000000,53810000.000000 28410000.000000,54445000.000000 28410000.000000,55715000.000000 27775000.000000,56350000.000000 26505000.000000,56350000.000000 25870000.000000,55715000.000000 Z"/> 
<svg:path style="fill:#C83434; fill-opacity:1.0;  stroke:#C83434; stroke-width:1.000000; stroke-opacity:1;  stroke-linecap:round; stroke-linejoin:round;fill-rule:evenodd;" d="M 25870000.000000,44285000.000000 26505000.000000,43650000.000000 27775000.000000,43650000.000000 28410000.000000,44285000.000000 28410000.000000,45555000.000000 27775000.000000,46190000.000000 26505000.000000,46190000.000000 25870000.000000,45555000.000000 Z"/> 
<svg:path style="fill:#C83434; fill-opacity:1.0;  stroke:#C83434; stroke-width:1.000000; stroke-opacity:1;  stroke-linecap:round; stroke-linejoin:round;fill-rule:evenodd;" d="M 70701000.000000,49365000.000000 71336000.000000,48730000.000000 72606000.000000,48730000.000000 73241000.000000,49365000.000000 73241000.000000,50635000.000000 72606000.000000,51270000.000000 71336000.000000,51270000.000000 70701000.000000,50635000.000000 Z"/> 
</svg:g>
<svg:g>
</svg:g>
<svg:g>
</svg:g>
<svg:g>
</svg:g>
</svg:g>
<svg:g style="fill:#FFFFFF; fill-opacity:1.0;  stroke:#FFFFFF; stroke-width:1.000000; stroke-opacity:1;  stroke-linecap:round; stroke-linejoin:round;">
<svg:circle cx="27140000.000000" cy="55080000.000000" r="558800.000000"/> 
</svg:g>
<svg:g style="fill:#FFFFFF; fill-opacity:1.0;  stroke:#FFFFFF; stroke-width:21200.000000; stroke-opacity:1;  stroke-linecap:round; stroke-linejoin:round;">
</svg:g>
<svg:g style="fill:#FFFFFF; fill-opacity:1.0;  stroke:#FFFFFF; stroke-width:1.000000; stroke-opacity:1;  stroke-linecap:round; stroke-linejoin:round;">
<svg:circle cx="27140000.000000" cy="44920000.000000" r="558800.000000"/> 
</svg:g>
<svg:g style="fill:#FFFFFF; fill-opacity:1.0;  stroke:#FFFFFF; stroke-width:21200.000000; stroke-opacity:1;  stroke-linecap:round; stroke-linejoin:round;">
</svg:g>
<svg:g style="fill:#FFFFFF; fill-opacity:1.0;  stroke:#FFFFFF; stroke-width:1.000000; stroke-opacity:1;  stroke-linecap:round; stroke-linejoin:round;">
<svg:circle cx="71971000.000000" cy="50000000.000000" r="558800.000000"/> 
</svg:g>
<svg:g style="fill:#FFFFFF; fill-opacity:1.0;  stroke:#FFFFFF; stroke-width:21200.000000; stroke-opacity:1;  stroke-linecap:round; stroke-linejoin:round;">
</svg:g>
<svg:g style="fill:#000000; fill-opacity:1.0;  stroke:#000000; stroke-width:21200.000000; stroke-opacity:1;  stroke-linecap:round; stroke-linejoin:round;">
<svg:g>
</svg:g>
<svg:g>
</svg:g>
<svg:g>
</svg:g>
<svg:g>
</svg:g>
</svg:g> 
</svg:g><svg:g><svg:title>SVG Picture created as kicadBoard-F_Fab.svg date 2022/12/03 03:41:31 </svg:title>
  <svg:desc>Picture generated by PCBNEW </svg:desc>
<svg:g style="fill:#000000; fill-opacity:1.000000;stroke:#000000; stroke-opacity:1.000000; stroke-linecap:round; stroke-linejoin:round;" transform="translate(0 0) scale(1 1)">
</svg:g>
<svg:g style="fill:#000000; fill-opacity:0.0;  stroke:#000000; stroke-width:0.000000; stroke-opacity:1;  stroke-linecap:round; stroke-linejoin:round;">
</svg:g>
<svg:g style="fill:#AFAFAF; fill-opacity:0.0;  stroke:#AFAFAF; stroke-width:0.000000; stroke-opacity:1;  stroke-linecap:round; stroke-linejoin:round;">
</svg:g>
<svg:g style="fill:#AFAFAF; fill-opacity:0.0;  stroke:#AFAFAF; stroke-width:127000.000000; stroke-opacity:1;  stroke-linecap:round; stroke-linejoin:round;">
<svg:g transform="rotate(-90.000000 37935000.000000 53175000.000000)">
<svg:text x="37935000.000000" y="53175000.000000" textLength="6696529.000000" font-size="1524000.000000" lengthAdjust="spacingAndGlyphs" text-anchor="start" opacity="0">&gt;VALUE</svg:text>
</svg:g>
<svg:g class="stroked-text"><svg:desc>&gt;VALUE</svg:desc>
<svg:path d="M37118571 52820307 L37445142 51949450 L37771714 52820307 "/>
<svg:path d="M36737571 51568450 L37880571 51187450 L36737571 50806450 "/>
<svg:path d="M37554000 50479878 L37554000 49935592 "/>
<svg:path d="M37880571 50588735 L36737571 50207735 L37880571 49826735 "/>
<svg:path d="M37880571 48901450 L37880571 49445735 L36737571 49445735 "/>
<svg:path d="M36737571 48520450 L37662857 48520450 L37771714 48466021 L37826142 48411592 L37880571 48302735 L37880571 48085021 L37826142 47976164 L37771714 47921735 L37662857 47867307 L36737571 47867307 "/>
<svg:path d="M37281857 47323021 L37281857 46942021 "/>
<svg:path d="M37880571 46778735 L37880571 47323021 L36737571 47323021 L36737571 46778735 "/>
</svg:g></svg:g>
<svg:g style="fill:#AFAFAF; fill-opacity:0.0;  stroke:#AFAFAF; stroke-width:152400.000000; stroke-opacity:1;  stroke-linecap:round; stroke-linejoin:round;">
<svg:path d="M26886000 46571000 L26886000 44158000 "/>
<svg:path d="M27394000 44158000 L27394000 43269000 "/>
<svg:path d="M71717000 51778000 L71717000 50762000 "/>
<svg:path d="M71717000 50762000 L71717000 49238000 "/>
<svg:path d="M27394000 44158000 L26886000 44158000 "/>
<svg:path d="M72225000 49238000 L72225000 48222000 "/>
<svg:path d="M71717000 49238000 L71717000 48222000 "/>
<svg:path d="M26886000 55842000 L26886000 53429000 "/>
<svg:path d="M72225000 50762000 L72225000 49238000 "/>
<svg:path d="M72225000 50762000 L71717000 50762000 "/>
<svg:path d="M72225000 51778000 L72225000 50762000 "/>
<svg:path d="M27394000 55842000 L26886000 55842000 "/>
<svg:path d="M27394000 56731000 L27394000 55842000 "/>
<svg:path d="M27394000 55842000 L27394000 53429000 "/>
<svg:path d="M27394000 46571000 L27394000 44158000 "/>
<svg:path d="M72225000 49238000 L71717000 49238000 "/>
<svg:g>
</svg:g>
<svg:g>
</svg:g>
<svg:g>
</svg:g>
<svg:g>
</svg:g>
</svg:g>
<svg:g style="fill:#000000; fill-opacity:0.0;  stroke:#000000; stroke-width:152400.000000; stroke-opacity:1;  stroke-linecap:round; stroke-linejoin:round;">
<svg:g>
</svg:g>
<svg:g>
</svg:g>
<svg:g>
</svg:g>
<svg:g>
</svg:g>
</svg:g> 
</svg:g><svg:g><svg:title>SVG Picture created as kicadBoard-F_Mask.svg date 2022/12/03 03:41:31 </svg:title>
  <svg:desc>Picture generated by PCBNEW </svg:desc>
<svg:g style="fill:#000000; fill-opacity:1.000000;stroke:#000000; stroke-opacity:1.000000; stroke-linecap:round; stroke-linejoin:round;" transform="translate(0 0) scale(1 1)">
</svg:g>
<svg:g style="fill:#000000; fill-opacity:0.0;  stroke:#000000; stroke-width:0.000000; stroke-opacity:1;  stroke-linecap:round; stroke-linejoin:round;">
<svg:g>
</svg:g>
<svg:g style="fill:#000000; fill-opacity:0.0;  stroke:#000000; stroke-width:1.000000; stroke-opacity:1;  stroke-linecap:round; stroke-linejoin:round;">
</svg:g>
<svg:g style="fill:#000000; fill-opacity:1.0;  stroke:#000000; stroke-width:1.000000; stroke-opacity:1;  stroke-linecap:round; stroke-linejoin:round;">
<svg:path style="fill:#000000; fill-opacity:1.0;  stroke:#000000; stroke-width:1.000000; stroke-opacity:1;  stroke-linecap:round; stroke-linejoin:round;fill-rule:evenodd;" d="M 27834719.000000,53727804.000000 27846842.000000,53738158.000000 28481842.000000,54373158.000000 28510349.000000,54429106.000000 28511600.000000,54445000.000000 28511600.000000,55715000.000000 28492196.000000,55774719.000000 28481842.000000,55786842.000000 27846842.000000,56421842.000000 27790894.000000,56450349.000000 27775000.000000,56451600.000000 26505000.000000,56451600.000000 26445281.000000,56432196.000000 26433158.000000,56421842.000000 25798158.000000,55786842.000000 25769651.000000,55730894.000000 25768400.000000,55715000.000000 25768400.000000,54445000.000000 25787804.000000,54385281.000000 25798158.000000,54373158.000000 26433158.000000,53738158.000000 26489106.000000,53709651.000000 26505000.000000,53708400.000000 27775000.000000,53708400.000000 Z"/> 
<svg:path style="fill:#000000; fill-opacity:1.0;  stroke:#000000; stroke-width:1.000000; stroke-opacity:1;  stroke-linecap:round; stroke-linejoin:round;fill-rule:evenodd;" d="M 27834719.000000,43567804.000000 27846842.000000,43578158.000000 28481842.000000,44213158.000000 28510349.000000,44269106.000000 28511600.000000,44285000.000000 28511600.000000,45555000.000000 28492196.000000,45614719.000000 28481842.000000,45626842.000000 27846842.000000,46261842.000000 27790894.000000,46290349.000000 27775000.000000,46291600.000000 26505000.000000,46291600.000000 26445281.000000,46272196.000000 26433158.000000,46261842.000000 25798158.000000,45626842.000000 25769651.000000,45570894.000000 25768400.000000,45555000.000000 25768400.000000,44285000.000000 25787804.000000,44225281.000000 25798158.000000,44213158.000000 26433158.000000,43578158.000000 26489106.000000,43549651.000000 26505000.000000,43548400.000000 27775000.000000,43548400.000000 Z"/> 
<svg:path style="fill:#000000; fill-opacity:1.0;  stroke:#000000; stroke-width:1.000000; stroke-opacity:1;  stroke-linecap:round; stroke-linejoin:round;fill-rule:evenodd;" d="M 72665719.000000,48647804.000000 72677842.000000,48658158.000000 73312842.000000,49293158.000000 73341349.000000,49349106.000000 73342600.000000,49365000.000000 73342600.000000,50635000.000000 73323196.000000,50694719.000000 73312842.000000,50706842.000000 72677842.000000,51341842.000000 72621894.000000,51370349.000000 72606000.000000,51371600.000000 71336000.000000,51371600.000000 71276281.000000,51352196.000000 71264158.000000,51341842.000000 70629158.000000,50706842.000000 70600651.000000,50650894.000000 70599400.000000,50635000.000000 70599400.000000,49365000.000000 70618804.000000,49305281.000000 70629158.000000,49293158.000000 71264158.000000,48658158.000000 71320106.000000,48629651.000000 71336000.000000,48628400.000000 72606000.000000,48628400.000000 Z"/> 
</svg:g>
<svg:g>
</svg:g>
<svg:g>
</svg:g>
<svg:g>
</svg:g>
</svg:g>
<svg:g style="fill:#000000; fill-opacity:1.0;  stroke:#000000; stroke-width:1.000000; stroke-opacity:1;  stroke-linecap:round; stroke-linejoin:round;">
<svg:g>
</svg:g>
<svg:g>
</svg:g>
<svg:g>
</svg:g>
<svg:g>
</svg:g>
</svg:g> 
</svg:g><svg:g><svg:title>SVG Picture created as kicadBoard-F_Paste.svg date 2022/12/03 03:41:31 </svg:title>
  <svg:desc>Picture generated by PCBNEW </svg:desc>
<svg:g style="fill:#000000; fill-opacity:1.000000;stroke:#000000; stroke-opacity:1.000000; stroke-linecap:round; stroke-linejoin:round;" transform="translate(0 0) scale(1 1)">
</svg:g>
<svg:g style="fill:#000000; fill-opacity:0.0;  stroke:#000000; stroke-width:0.000000; stroke-opacity:1;  stroke-linecap:round; stroke-linejoin:round;">
<svg:g>
</svg:g>
<svg:g>
</svg:g>
<svg:g>
</svg:g>
<svg:g>
</svg:g>
</svg:g>
<svg:g style="fill:#000000; fill-opacity:0.0;  stroke:#000000; stroke-width:0.000000; stroke-opacity:1;  stroke-linecap:round; stroke-linejoin:round;">
<svg:g>
</svg:g>
<svg:g>
</svg:g>
<svg:g>
</svg:g>
<svg:g>
</svg:g>
</svg:g> 
</svg:g><svg:g><svg:title>SVG Picture created as kicadBoard-F_Silkscreen.svg date 2022/12/03 03:41:31 </svg:title>
  <svg:desc>Picture generated by PCBNEW </svg:desc>
<svg:g style="fill:#000000; fill-opacity:1.000000;stroke:#000000; stroke-opacity:1.000000; stroke-linecap:round; stroke-linejoin:round;" transform="translate(0 0) scale(1 1)">
</svg:g>
<svg:g style="fill:#000000; fill-opacity:0.0;  stroke:#000000; stroke-width:0.000000; stroke-opacity:1;  stroke-linecap:round; stroke-linejoin:round;">
</svg:g>
<svg:g style="fill:#F2EDA1; fill-opacity:0.0;  stroke:#F2EDA1; stroke-width:0.000000; stroke-opacity:1;  stroke-linecap:round; stroke-linejoin:round;">
</svg:g>
<svg:g style="fill:#F2EDA1; fill-opacity:0.0;  stroke:#F2EDA1; stroke-width:127000.000000; stroke-opacity:1;  stroke-linecap:round; stroke-linejoin:round;">
<svg:g transform="rotate(-90.000000 26378000.000000 52540000.000000)">
<svg:text x="26378000.000000" y="52540000.000000" textLength="11484430.000000" font-size="1524000.000000" lengthAdjust="spacingAndGlyphs" text-anchor="start" opacity="0">FZEBAT5V28R</svg:text>
</svg:g>
<svg:g class="stroked-text"><svg:desc>FZEBAT5V28R</svg:desc>
<svg:path d="M25724857 51804307 L25724857 52185307 "/>
<svg:path d="M26323571 52185307 L25180571 52185307 L25180571 51641021 "/>
<svg:path d="M25180571 51314450 L25180571 50552450 L26323571 51314450 L26323571 50552450 "/>
<svg:path d="M25724857 50117021 L25724857 49736021 "/>
<svg:path d="M26323571 49572735 L26323571 50117021 L25180571 50117021 L25180571 49572735 "/>
<svg:path d="M25724857 48701878 L25779285 48538592 L25833714 48484164 L25942571 48429735 L26105857 48429735 L26214714 48484164 L26269142 48538592 L26323571 48647450 L26323571 49082878 L25180571 49082878 L25180571 48701878 L25235000 48593021 L25289428 48538592 L25398285 48484164 L25507142 48484164 L25616000 48538592 L25670428 48593021 L25724857 48701878 L25724857 49082878 "/>
<svg:path d="M25997000 47994307 L25997000 47450021 "/>
<svg:path d="M26323571 48103164 L25180571 47722164 L26323571 47341164 "/>
<svg:path d="M25180571 47123450 L25180571 46470307 "/>
<svg:path d="M26323571 46796878 L25180571 46796878 "/>
<svg:path d="M25180571 45545021 L25180571 46089307 L25724857 46143735 L25670428 46089307 L25616000 45980450 L25616000 45708307 L25670428 45599450 L25724857 45545021 L25833714 45490592 L26105857 45490592 L26214714 45545021 L26269142 45599450 L26323571 45708307 L26323571 45980450 L26269142 46089307 L26214714 46143735 "/>
<svg:path d="M25180571 45164021 L26323571 44783021 L25180571 44402021 "/>
<svg:path d="M25289428 44075450 L25235000 44021021 L25180571 43912164 L25180571 43640021 L25235000 43531164 L25289428 43476735 L25398285 43422307 L25507142 43422307 L25670428 43476735 L26323571 44129878 L26323571 43422307 "/>
<svg:path d="M25670428 42769164 L25616000 42878021 L25561571 42932450 L25452714 42986878 L25398285 42986878 L25289428 42932450 L25235000 42878021 L25180571 42769164 L25180571 42551450 L25235000 42442592 L25289428 42388164 L25398285 42333735 L25452714 42333735 L25561571 42388164 L25616000 42442592 L25670428 42551450 L25670428 42769164 L25724857 42878021 L25779285 42932450 L25888142 42986878 L26105857 42986878 L26214714 42932450 L26269142 42878021 L26323571 42769164 L26323571 42551450 L26269142 42442592 L26214714 42388164 L26105857 42333735 L25888142 42333735 L25779285 42388164 L25724857 42442592 L25670428 42551450 "/>
<svg:path d="M26323571 41190735 L25779285 41571735 "/>
<svg:path d="M26323571 41843878 L25180571 41843878 L25180571 41408450 L25235000 41299592 L25289428 41245164 L25398285 41190735 L25561571 41190735 L25670428 41245164 L25724857 41299592 L25779285 41408450 L25779285 41843878 "/>
</svg:g><svg:text x="63335000.000000" y="62319000.000000" textLength="7077529.000000" font-size="1524000.000000" lengthAdjust="spacingAndGlyphs" text-anchor="start" opacity="0">NC-6V0</svg:text>
<svg:g class="stroked-text"><svg:desc>NC-6V0</svg:desc>
<svg:path d="M63689692 62264571 L63689692 61121571 L64342835 62264571 L64342835 61121571 "/>
<svg:path d="M65540264 62155714 L65485835 62210142 L65322550 62264571 L65213692 62264571 L65050407 62210142 L64941550 62101285 L64887121 61992428 L64832692 61774714 L64832692 61611428 L64887121 61393714 L64941550 61284857 L65050407 61176000 L65213692 61121571 L65322550 61121571 L65485835 61176000 L65540264 61230428 "/>
<svg:path d="M66030121 61829142 L66900978 61829142 "/>
<svg:path d="M67935121 61121571 L67717407 61121571 L67608550 61176000 L67554121 61230428 L67445264 61393714 L67390835 61611428 L67390835 62046857 L67445264 62155714 L67499692 62210142 L67608550 62264571 L67826264 62264571 L67935121 62210142 L67989550 62155714 L68043978 62046857 L68043978 61774714 L67989550 61665857 L67935121 61611428 L67826264 61557000 L67608550 61557000 L67499692 61611428 L67445264 61665857 L67390835 61774714 "/>
<svg:path d="M68370550 61121571 L68751550 62264571 L69132550 61121571 "/>
<svg:path d="M69731264 61121571 L69840121 61121571 L69948978 61176000 L70003407 61230428 L70057835 61339285 L70112264 61557000 L70112264 61829142 L70057835 62046857 L70003407 62155714 L69948978 62210142 L69840121 62264571 L69731264 62264571 L69622407 62210142 L69567978 62155714 L69513550 62046857 L69459121 61829142 L69459121 61557000 L69513550 61339285 L69567978 61230428 L69622407 61176000 L69731264 61121571 "/>
</svg:g></svg:g>
<svg:g style="fill:#F2EDA1; fill-opacity:0.0;  stroke:#F2EDA1; stroke-width:152400.000000; stroke-opacity:1;  stroke-linecap:round; stroke-linejoin:round;">
<svg:path d="M72225000 52540000 L71717000 52540000 "/>
<svg:path d="M29172000 36919000 L71717000 36919000 "/>
<svg:path d="M27394000 49238000 L27394000 46571000 "/>
</svg:g>
<svg:g style="fill:#F2EDA1; fill-opacity:0.0;  stroke:#F2EDA1; stroke-width:254000.000000; stroke-opacity:1;  stroke-linecap:round; stroke-linejoin:round;">
<svg:path d="M27775000 50000000 L28791000 50000000 "/>
</svg:g>
<svg:g style="fill:#F2EDA1; fill-opacity:0.0;  stroke:#F2EDA1; stroke-width:152400.000000; stroke-opacity:1;  stroke-linecap:round; stroke-linejoin:round;">
<svg:path d="M27394000 43269000 L27394000 38316000 "/>
<svg:path d="M27394000 49238000 L26886000 49238000 "/>
</svg:g>
<svg:g style="fill:#F2EDA1; fill-opacity:0.0;  stroke:#F2EDA1; stroke-width:254000.000000; stroke-opacity:1;  stroke-linecap:round; stroke-linejoin:round;">
<svg:path d="M51143000 50000000 L51143000 47460000 "/>
<svg:path d="M51143000 52540000 L51143000 50000000 "/>
</svg:g>
<svg:g style="fill:#F2EDA1; fill-opacity:0.0;  stroke:#F2EDA1; stroke-width:152400.000000; stroke-opacity:1;  stroke-linecap:round; stroke-linejoin:round;">
<svg:path d="M27394000 61684000 L27394000 56731000 "/>
<svg:path d="M51143000 50000000 L49238000 50000000 "/>
</svg:g>
<svg:g style="fill:#F2EDA1; fill-opacity:0.0;  stroke:#F2EDA1; stroke-width:254000.000000; stroke-opacity:1;  stroke-linecap:round; stroke-linejoin:round;">
<svg:path d="M28283000 49492000 L28283000 50508000 "/>
</svg:g>
<svg:g style="fill:#F2EDA1; fill-opacity:0.0;  stroke:#F2EDA1; stroke-width:152400.000000; stroke-opacity:1;  stroke-linecap:round; stroke-linejoin:round;">
<svg:path d="M26886000 50762000 L26886000 49238000 "/>
<svg:path d="M27394000 53429000 L27394000 50762000 "/>
<svg:path d="M29172000 36919000 L29172000 37681000 "/>
<svg:path d="M29172000 37681000 L28029000 37681000 "/>
<svg:path d="M72225000 48222000 L72225000 47460000 "/>
<svg:path d="M26886000 53429000 L26886000 50762000 "/>
<svg:path d="M28029000 62319000 L29172000 62319000 "/>
<svg:path d="M72225000 47460000 L71717000 47460000 "/>
<svg:path d="M50127000 52032000 L50127000 51016000 "/>
<svg:path d="M27394000 50762000 L27394000 49238000 "/>
<svg:path d="M71717000 52540000 L71717000 51778000 "/>
<svg:path d="M53810000 50000000 L52413000 50000000 "/>
</svg:g>
<svg:g style="fill:#F2EDA1; fill-opacity:0.0;  stroke:#F2EDA1; stroke-width:254000.000000; stroke-opacity:1;  stroke-linecap:round; stroke-linejoin:round;">
<svg:path d="M69812000 49365000 L69812000 50635000 "/>
</svg:g>
<svg:g style="fill:#F2EDA1; fill-opacity:0.0;  stroke:#F2EDA1; stroke-width:152400.000000; stroke-opacity:1;  stroke-linecap:round; stroke-linejoin:round;">
<svg:path d="M71717000 47460000 L71717000 36919000 "/>
<svg:path d="M29172000 63081000 L71717000 63081000 "/>
<svg:path d="M29172000 62319000 L29172000 63081000 "/>
<svg:path d="M71717000 48222000 L71717000 47460000 "/>
<svg:path d="M72225000 51778000 L72225000 52540000 "/>
<svg:path d="M27394000 50762000 L26886000 50762000 "/>
<svg:path d="M26886000 49238000 L26886000 46571000 "/>
<svg:path d="M71717000 63081000 L71717000 52540000 "/>
<svg:path d="M50635000 51524000 L49619000 51524000 "/>
<svg:path d="M29172000 37681000 L29172000 62319000 "/>
<svg:path d="M27394000.000001 61684000.000000 A634999.000000 634999.000000 0.0 0 0 28029000.000000 62318999.999999"/>
<svg:path d="M28029000.000000 37681000.000001 A634999.000000 634999.000000 0.0 0 0 27394000.000001 38316000.000000"/>
</svg:g>
<svg:g style="fill:#F2EDA1; fill-opacity:1.0;  stroke:#F2EDA1; stroke-width:1.000000; stroke-opacity:1;  stroke-linecap:round; stroke-linejoin:round;">
<svg:path style="fill:#F2EDA1; fill-opacity:1.0;  stroke:#F2EDA1; stroke-width:1.000000; stroke-opacity:1;  stroke-linecap:round; stroke-linejoin:round;fill-rule:evenodd;" d="M 52413000.000000,51270000.000000 51778000.000000,51270000.000000 51778000.000000,48730000.000000 52413000.000000,48730000.000000 Z"/> 
<svg:g>
</svg:g>
<svg:g>
</svg:g>
<svg:g>
</svg:g>
<svg:g>
</svg:g>
</svg:g>
<svg:g style="fill:#000000; fill-opacity:1.0;  stroke:#000000; stroke-width:1.000000; stroke-opacity:1;  stroke-linecap:round; stroke-linejoin:round;">
<svg:g>
</svg:g>
<svg:g>
</svg:g>
<svg:g>
</svg:g>
<svg:g>
</svg:g>
</svg:g> 
</svg:g><svg:g><svg:title>SVG Picture created as kicadBoard-Margin.svg date 2022/12/03 03:41:31 </svg:title>
  <svg:desc>Picture generated by PCBNEW </svg:desc>
<svg:g style="fill:#000000; fill-opacity:1.000000;stroke:#000000; stroke-opacity:1.000000; stroke-linecap:round; stroke-linejoin:round;" transform="translate(0 0) scale(1 1)">
</svg:g>
<svg:g style="fill:#000000; fill-opacity:0.0;  stroke:#000000; stroke-width:0.000000; stroke-opacity:1;  stroke-linecap:round; stroke-linejoin:round;">
<svg:g>
</svg:g>
<svg:g>
</svg:g>
<svg:g>
</svg:g>
<svg:g>
</svg:g>
</svg:g>
<svg:g style="fill:#000000; fill-opacity:0.0;  stroke:#000000; stroke-width:0.000000; stroke-opacity:1;  stroke-linecap:round; stroke-linejoin:round;">
<svg:g>
</svg:g>
<svg:g>
</svg:g>
<svg:g>
</svg:g>
<svg:g>
</svg:g>
</svg:g> 
</svg:g><svg:g><svg:title>SVG Picture created as kicadBoard-F_Cu.svg date 2022/12/03 03:41:31 </svg:title>
  <svg:desc>Picture generated by PCBNEW </svg:desc>
<svg:g style="fill:#000000; fill-opacity:1.000000;stroke:#000000; stroke-opacity:1.000000; stroke-linecap:round; stroke-linejoin:round;" transform="translate(0 0) scale(1 1)">
</svg:g>
<svg:g style="fill:#000000; fill-opacity:0.0;  stroke:#000000; stroke-width:0.000000; stroke-opacity:1;  stroke-linecap:round; stroke-linejoin:round;">
<svg:g>
</svg:g>
<svg:g style="fill:#C83434; fill-opacity:0.0;  stroke:#C83434; stroke-width:0.000000; stroke-opacity:1;  stroke-linecap:round; stroke-linejoin:round;">
</svg:g>
<svg:g style="fill:#C83434; fill-opacity:0.0;  stroke:#C83434; stroke-width:1.000000; stroke-opacity:1;  stroke-linecap:round; stroke-linejoin:round;">
</svg:g>
<svg:g style="fill:#C83434; fill-opacity:1.0;  stroke:#C83434; stroke-width:1.000000; stroke-opacity:1;  stroke-linecap:round; stroke-linejoin:round;">
<svg:path style="fill:#C83434; fill-opacity:1.0;  stroke:#C83434; stroke-width:1.000000; stroke-opacity:1;  stroke-linecap:round; stroke-linejoin:round;fill-rule:evenodd;" d="M 25870000.000000,54445000.000000 26505000.000000,53810000.000000 27775000.000000,53810000.000000 28410000.000000,54445000.000000 28410000.000000,55715000.000000 27775000.000000,56350000.000000 26505000.000000,56350000.000000 25870000.000000,55715000.000000 Z"/> 
<svg:path style="fill:#C83434; fill-opacity:1.0;  stroke:#C83434; stroke-width:1.000000; stroke-opacity:1;  stroke-linecap:round; stroke-linejoin:round;fill-rule:evenodd;" d="M 25870000.000000,44285000.000000 26505000.000000,43650000.000000 27775000.000000,43650000.000000 28410000.000000,44285000.000000 28410000.000000,45555000.000000 27775000.000000,46190000.000000 26505000.000000,46190000.000000 25870000.000000,45555000.000000 Z"/> 
<svg:path style="fill:#C83434; fill-opacity:1.0;  stroke:#C83434; stroke-width:1.000000; stroke-opacity:1;  stroke-linecap:round; stroke-linejoin:round;fill-rule:evenodd;" d="M 70701000.000000,49365000.000000 71336000.000000,48730000.000000 72606000.000000,48730000.000000 73241000.000000,49365000.000000 73241000.000000,50635000.000000 72606000.000000,51270000.000000 71336000.000000,51270000.000000 70701000.000000,50635000.000000 Z"/> 
</svg:g>
<svg:g>
</svg:g>
<svg:g>
</svg:g>
<svg:g>
</svg:g>
</svg:g>
<svg:g style="fill:#FFFFFF; fill-opacity:1.0;  stroke:#FFFFFF; stroke-width:1.000000; stroke-opacity:1;  stroke-linecap:round; stroke-linejoin:round;">
<svg:circle cx="27140000.000000" cy="55080000.000000" r="558800.000000"/> 
</svg:g>
<svg:g style="fill:#FFFFFF; fill-opacity:1.0;  stroke:#FFFFFF; stroke-width:21200.000000; stroke-opacity:1;  stroke-linecap:round; stroke-linejoin:round;">
</svg:g>
<svg:g style="fill:#FFFFFF; fill-opacity:1.0;  stroke:#FFFFFF; stroke-width:1.000000; stroke-opacity:1;  stroke-linecap:round; stroke-linejoin:round;">
<svg:circle cx="27140000.000000" cy="44920000.000000" r="558800.000000"/> 
</svg:g>
<svg:g style="fill:#FFFFFF; fill-opacity:1.0;  stroke:#FFFFFF; stroke-width:21200.000000; stroke-opacity:1;  stroke-linecap:round; stroke-linejoin:round;">
</svg:g>
<svg:g style="fill:#FFFFFF; fill-opacity:1.0;  stroke:#FFFFFF; stroke-width:1.000000; stroke-opacity:1;  stroke-linecap:round; stroke-linejoin:round;">
<svg:circle cx="71971000.000000" cy="50000000.000000" r="558800.000000"/> 
</svg:g>
<svg:g style="fill:#FFFFFF; fill-opacity:1.0;  stroke:#FFFFFF; stroke-width:21200.000000; stroke-opacity:1;  stroke-linecap:round; stroke-linejoin:round;">
</svg:g>
<svg:g style="fill:#000000; fill-opacity:1.0;  stroke:#000000; stroke-width:21200.000000; stroke-opacity:1;  stroke-linecap:round; stroke-linejoin:round;">
<svg:g>
</svg:g>
<svg:g>
</svg:g>
<svg:g>
</svg:g>
<svg:g>
</svg:g>
</svg:g> 
</svg:g></svg>
