<?xml version='1.0' encoding='ASCII' standalone='yes'?>
<svg xmlns:svg="http://www.w3.org/2000/svg" xmlns="http://www.w3.org/2000/svg" xmlns:xlink="http://www.w3.org/1999/xlink" version="1.1" width="9.999980cm" height="9.999980cm" viewBox="0 0 99999800 99999800">
<title>SVG Picture created as kicadBoard-B_Cu.svg date 2022/11/18 06:04:37 </title>
  <desc>Picture generated by PCBNEW </desc>
<g style="fill:#000000; fill-opacity:1.000000;stroke:#000000; stroke-opacity:1.000000; stroke-linecap:round; stroke-linejoin:round;" transform="translate(0 0) scale(1 1)">
</g>
<g style="fill:#000000; fill-opacity:0.0;  stroke:#000000; stroke-width:0.000000; stroke-opacity:1;  stroke-linecap:round; stroke-linejoin:round;">
<g>
</g>
<g style="fill:#4D7FC4; fill-opacity:0.0;  stroke:#4D7FC4; stroke-width:0.000000; stroke-opacity:1;  stroke-linecap:round; stroke-linejoin:round;">
</g>
<g style="fill:#4D7FC4; fill-opacity:1.0;  stroke:#4D7FC4; stroke-width:1.000000; stroke-opacity:1;  stroke-linecap:round; stroke-linejoin:round;">
<circle cx="50000000.000000" cy="50000000.000000" r="1200000.000000"/> 
</g>
<g style="fill:#4D7FC4; fill-opacity:1.0;  stroke:#4D7FC4; stroke-width:21200.000000; stroke-opacity:1;  stroke-linecap:round; stroke-linejoin:round;">
</g>
<g style="fill:#4D7FC4; fill-opacity:1.0;  stroke:#4D7FC4; stroke-width:1.000000; stroke-opacity:1;  stroke-linecap:round; stroke-linejoin:round;">
<circle cx="70320000.000000" cy="50000000.000000" r="1200000.000000"/> 
</g>
<g>
</g>
<g>
</g>
<g>
</g>
</g>
<g style="fill:#FFFFFF; fill-opacity:1.0;  stroke:#FFFFFF; stroke-width:1.000000; stroke-opacity:1;  stroke-linecap:round; stroke-linejoin:round;">
<circle cx="50000000.000000" cy="50000000.000000" r="600000.000000"/> 
</g>
<g style="fill:#FFFFFF; fill-opacity:1.0;  stroke:#FFFFFF; stroke-width:21200.000000; stroke-opacity:1;  stroke-linecap:round; stroke-linejoin:round;">
</g>
<g style="fill:#FFFFFF; fill-opacity:1.0;  stroke:#FFFFFF; stroke-width:1.000000; stroke-opacity:1;  stroke-linecap:round; stroke-linejoin:round;">
<circle cx="70320000.000000" cy="50000000.000000" r="600000.000000"/> 
</g>
<g style="fill:#FFFFFF; fill-opacity:1.0;  stroke:#FFFFFF; stroke-width:21200.000000; stroke-opacity:1;  stroke-linecap:round; stroke-linejoin:round;">
</g>
<g style="fill:#000000; fill-opacity:1.0;  stroke:#000000; stroke-width:21200.000000; stroke-opacity:1;  stroke-linecap:round; stroke-linejoin:round;">
<g>
</g>
<g>
</g>
<g>
</g>
<g>
</g>
</g> 
<svg:g><svg:title>SVG Picture created as kicadBoard-B_Adhesive.svg date 2022/11/18 06:04:37 </svg:title>
  <svg:desc>Picture generated by PCBNEW </svg:desc>
<svg:g style="fill:#000000; fill-opacity:1.000000;stroke:#000000; stroke-opacity:1.000000; stroke-linecap:round; stroke-linejoin:round;" transform="translate(0 0) scale(1 1)">
</svg:g>
<svg:g style="fill:#000000; fill-opacity:0.0;  stroke:#000000; stroke-width:0.000000; stroke-opacity:1;  stroke-linecap:round; stroke-linejoin:round;">
<svg:g>
</svg:g>
<svg:g>
</svg:g>
<svg:g>
</svg:g>
<svg:g>
</svg:g>
</svg:g>
<svg:g style="fill:#000000; fill-opacity:0.0;  stroke:#000000; stroke-width:0.000000; stroke-opacity:1;  stroke-linecap:round; stroke-linejoin:round;">
<svg:g>
</svg:g>
<svg:g>
</svg:g>
<svg:g>
</svg:g>
<svg:g>
</svg:g>
</svg:g> 
</svg:g><svg:g><svg:title>SVG Picture created as kicadBoard-B_Courtyard.svg date 2022/11/18 06:04:37 </svg:title>
  <svg:desc>Picture generated by PCBNEW </svg:desc>
<svg:g style="fill:#000000; fill-opacity:1.000000;stroke:#000000; stroke-opacity:1.000000; stroke-linecap:round; stroke-linejoin:round;" transform="translate(0 0) scale(1 1)">
</svg:g>
<svg:g style="fill:#000000; fill-opacity:0.0;  stroke:#000000; stroke-width:0.000000; stroke-opacity:1;  stroke-linecap:round; stroke-linejoin:round;">
<svg:g>
</svg:g>
<svg:g>
</svg:g>
<svg:g>
</svg:g>
<svg:g>
</svg:g>
</svg:g>
<svg:g style="fill:#000000; fill-opacity:0.0;  stroke:#000000; stroke-width:0.000000; stroke-opacity:1;  stroke-linecap:round; stroke-linejoin:round;">
<svg:g>
</svg:g>
<svg:g>
</svg:g>
<svg:g>
</svg:g>
<svg:g>
</svg:g>
</svg:g> 
</svg:g><svg:g><svg:title>SVG Picture created as kicadBoard-B_Fab.svg date 2022/11/18 06:04:37 </svg:title>
  <svg:desc>Picture generated by PCBNEW </svg:desc>
<svg:g style="fill:#000000; fill-opacity:1.000000;stroke:#000000; stroke-opacity:1.000000; stroke-linecap:round; stroke-linejoin:round;" transform="translate(0 0) scale(1 1)">
</svg:g>
<svg:g style="fill:#000000; fill-opacity:0.0;  stroke:#000000; stroke-width:0.000000; stroke-opacity:1;  stroke-linecap:round; stroke-linejoin:round;">
<svg:g>
</svg:g>
<svg:g>
</svg:g>
<svg:g>
</svg:g>
<svg:g>
</svg:g>
</svg:g>
<svg:g style="fill:#000000; fill-opacity:0.0;  stroke:#000000; stroke-width:0.000000; stroke-opacity:1;  stroke-linecap:round; stroke-linejoin:round;">
<svg:g>
</svg:g>
<svg:g>
</svg:g>
<svg:g>
</svg:g>
<svg:g>
</svg:g>
</svg:g> 
</svg:g><svg:g><svg:title>SVG Picture created as kicadBoard-B_Mask.svg date 2022/11/18 06:04:37 </svg:title>
  <svg:desc>Picture generated by PCBNEW </svg:desc>
<svg:g style="fill:#000000; fill-opacity:1.000000;stroke:#000000; stroke-opacity:1.000000; stroke-linecap:round; stroke-linejoin:round;" transform="translate(0 0) scale(1 1)">
</svg:g>
<svg:g style="fill:#000000; fill-opacity:0.0;  stroke:#000000; stroke-width:0.000000; stroke-opacity:1;  stroke-linecap:round; stroke-linejoin:round;">
<svg:g>
</svg:g>
<svg:g style="fill:#000000; fill-opacity:1.0;  stroke:#000000; stroke-width:1.000000; stroke-opacity:1;  stroke-linecap:round; stroke-linejoin:round;">
<svg:circle cx="50000000.000000" cy="50000000.000000" r="1200000.000000"/> 
</svg:g>
<svg:g style="fill:#000000; fill-opacity:1.0;  stroke:#000000; stroke-width:21200.000000; stroke-opacity:1;  stroke-linecap:round; stroke-linejoin:round;">
</svg:g>
<svg:g style="fill:#000000; fill-opacity:1.0;  stroke:#000000; stroke-width:1.000000; stroke-opacity:1;  stroke-linecap:round; stroke-linejoin:round;">
<svg:circle cx="70320000.000000" cy="50000000.000000" r="1200000.000000"/> 
</svg:g>
<svg:g>
</svg:g>
<svg:g>
</svg:g>
<svg:g>
</svg:g>
</svg:g>
<svg:g style="fill:#000000; fill-opacity:1.0;  stroke:#000000; stroke-width:1.000000; stroke-opacity:1;  stroke-linecap:round; stroke-linejoin:round;">
<svg:g>
</svg:g>
<svg:g>
</svg:g>
<svg:g>
</svg:g>
<svg:g>
</svg:g>
</svg:g> 
</svg:g><svg:g><svg:title>SVG Picture created as kicadBoard-B_Paste.svg date 2022/11/18 06:04:37 </svg:title>
  <svg:desc>Picture generated by PCBNEW </svg:desc>
<svg:g style="fill:#000000; fill-opacity:1.000000;stroke:#000000; stroke-opacity:1.000000; stroke-linecap:round; stroke-linejoin:round;" transform="translate(0 0) scale(1 1)">
</svg:g>
<svg:g style="fill:#000000; fill-opacity:0.0;  stroke:#000000; stroke-width:0.000000; stroke-opacity:1;  stroke-linecap:round; stroke-linejoin:round;">
<svg:g>
</svg:g>
<svg:g>
</svg:g>
<svg:g>
</svg:g>
<svg:g>
</svg:g>
</svg:g>
<svg:g style="fill:#000000; fill-opacity:0.0;  stroke:#000000; stroke-width:0.000000; stroke-opacity:1;  stroke-linecap:round; stroke-linejoin:round;">
<svg:g>
</svg:g>
<svg:g>
</svg:g>
<svg:g>
</svg:g>
<svg:g>
</svg:g>
</svg:g> 
</svg:g><svg:g><svg:title>SVG Picture created as kicadBoard-B_Silkscreen.svg date 2022/11/18 06:04:37 </svg:title>
  <svg:desc>Picture generated by PCBNEW </svg:desc>
<svg:g style="fill:#000000; fill-opacity:1.000000;stroke:#000000; stroke-opacity:1.000000; stroke-linecap:round; stroke-linejoin:round;" transform="translate(0 0) scale(1 1)">
</svg:g>
<svg:g style="fill:#000000; fill-opacity:0.0;  stroke:#000000; stroke-width:0.000000; stroke-opacity:1;  stroke-linecap:round; stroke-linejoin:round;">
<svg:g>
</svg:g>
<svg:g>
</svg:g>
<svg:g>
</svg:g>
<svg:g>
</svg:g>
</svg:g>
<svg:g style="fill:#000000; fill-opacity:0.0;  stroke:#000000; stroke-width:0.000000; stroke-opacity:1;  stroke-linecap:round; stroke-linejoin:round;">
<svg:g>
</svg:g>
<svg:g>
</svg:g>
<svg:g>
</svg:g>
<svg:g>
</svg:g>
</svg:g> 
</svg:g><svg:g><svg:title>SVG Picture created as kicadBoard-Edge_Cuts.svg date 2022/11/18 06:04:37 </svg:title>
  <svg:desc>Picture generated by PCBNEW </svg:desc>
<svg:g style="fill:#000000; fill-opacity:1.000000;stroke:#000000; stroke-opacity:1.000000; stroke-linecap:round; stroke-linejoin:round;" transform="translate(0 0) scale(1 1)">
</svg:g>
<svg:g style="fill:#000000; fill-opacity:0.0;  stroke:#000000; stroke-width:0.000000; stroke-opacity:1;  stroke-linecap:round; stroke-linejoin:round;">
<svg:g>
</svg:g>
<svg:g>
</svg:g>
<svg:g>
</svg:g>
<svg:g>
</svg:g>
</svg:g> 
</svg:g><svg:g><svg:title>SVG Picture created as kicadBoard-F_Adhesive.svg date 2022/11/18 06:04:37 </svg:title>
  <svg:desc>Picture generated by PCBNEW </svg:desc>
<svg:g style="fill:#000000; fill-opacity:1.000000;stroke:#000000; stroke-opacity:1.000000; stroke-linecap:round; stroke-linejoin:round;" transform="translate(0 0) scale(1 1)">
</svg:g>
<svg:g style="fill:#000000; fill-opacity:0.0;  stroke:#000000; stroke-width:0.000000; stroke-opacity:1;  stroke-linecap:round; stroke-linejoin:round;">
<svg:g>
</svg:g>
<svg:g>
</svg:g>
<svg:g>
</svg:g>
<svg:g>
</svg:g>
</svg:g>
<svg:g style="fill:#000000; fill-opacity:0.0;  stroke:#000000; stroke-width:0.000000; stroke-opacity:1;  stroke-linecap:round; stroke-linejoin:round;">
<svg:g>
</svg:g>
<svg:g>
</svg:g>
<svg:g>
</svg:g>
<svg:g>
</svg:g>
</svg:g> 
</svg:g><svg:g><svg:title>SVG Picture created as kicadBoard-F_Courtyard.svg date 2022/11/18 06:04:37 </svg:title>
  <svg:desc>Picture generated by PCBNEW </svg:desc>
<svg:g style="fill:#000000; fill-opacity:1.000000;stroke:#000000; stroke-opacity:1.000000; stroke-linecap:round; stroke-linejoin:round;" transform="translate(0 0) scale(1 1)">
</svg:g>
<svg:g style="fill:#000000; fill-opacity:0.0;  stroke:#000000; stroke-width:0.000000; stroke-opacity:1;  stroke-linecap:round; stroke-linejoin:round;">
</svg:g>
<svg:g style="fill:#FF26E2; fill-opacity:0.0;  stroke:#FF26E2; stroke-width:0.000000; stroke-opacity:1;  stroke-linecap:round; stroke-linejoin:round;">
</svg:g>
<svg:g style="fill:#FF26E2; fill-opacity:0.0;  stroke:#FF26E2; stroke-width:50000.000000; stroke-opacity:1;  stroke-linecap:round; stroke-linejoin:round;">
<svg:path d="M71770000 46750000 L48550000 46750000 "/>
<svg:path d="M48550000 53250000 L71770000 53250000 "/>
<svg:path d="M48550000 46750000 L48550000 53250000 "/>
<svg:path d="M71770000 53250000 L71770000 46750000 "/>
<svg:g>
</svg:g>
<svg:g>
</svg:g>
<svg:g>
</svg:g>
<svg:g>
</svg:g>
</svg:g>
<svg:g style="fill:#000000; fill-opacity:0.0;  stroke:#000000; stroke-width:50000.000000; stroke-opacity:1;  stroke-linecap:round; stroke-linejoin:round;">
<svg:g>
</svg:g>
<svg:g>
</svg:g>
<svg:g>
</svg:g>
<svg:g>
</svg:g>
</svg:g> 
</svg:g><svg:g><svg:title>SVG Picture created as kicadBoard-F_Cu.svg date 2022/11/18 06:04:37 </svg:title>
  <svg:desc>Picture generated by PCBNEW </svg:desc>
<svg:g style="fill:#000000; fill-opacity:1.000000;stroke:#000000; stroke-opacity:1.000000; stroke-linecap:round; stroke-linejoin:round;" transform="translate(0 0) scale(1 1)">
</svg:g>
<svg:g style="fill:#000000; fill-opacity:0.0;  stroke:#000000; stroke-width:0.000000; stroke-opacity:1;  stroke-linecap:round; stroke-linejoin:round;">
<svg:g>
</svg:g>
<svg:g style="fill:#C83434; fill-opacity:0.0;  stroke:#C83434; stroke-width:0.000000; stroke-opacity:1;  stroke-linecap:round; stroke-linejoin:round;">
</svg:g>
<svg:g style="fill:#C83434; fill-opacity:1.0;  stroke:#C83434; stroke-width:1.000000; stroke-opacity:1;  stroke-linecap:round; stroke-linejoin:round;">
<svg:circle cx="50000000.000000" cy="50000000.000000" r="1200000.000000"/> 
</svg:g>
<svg:g style="fill:#C83434; fill-opacity:1.0;  stroke:#C83434; stroke-width:21200.000000; stroke-opacity:1;  stroke-linecap:round; stroke-linejoin:round;">
</svg:g>
<svg:g style="fill:#C83434; fill-opacity:1.0;  stroke:#C83434; stroke-width:1.000000; stroke-opacity:1;  stroke-linecap:round; stroke-linejoin:round;">
<svg:circle cx="70320000.000000" cy="50000000.000000" r="1200000.000000"/> 
</svg:g>
<svg:g>
</svg:g>
<svg:g>
</svg:g>
<svg:g>
</svg:g>
</svg:g>
<svg:g style="fill:#FFFFFF; fill-opacity:1.0;  stroke:#FFFFFF; stroke-width:1.000000; stroke-opacity:1;  stroke-linecap:round; stroke-linejoin:round;">
<svg:circle cx="50000000.000000" cy="50000000.000000" r="600000.000000"/> 
</svg:g>
<svg:g style="fill:#FFFFFF; fill-opacity:1.0;  stroke:#FFFFFF; stroke-width:21200.000000; stroke-opacity:1;  stroke-linecap:round; stroke-linejoin:round;">
</svg:g>
<svg:g style="fill:#FFFFFF; fill-opacity:1.0;  stroke:#FFFFFF; stroke-width:1.000000; stroke-opacity:1;  stroke-linecap:round; stroke-linejoin:round;">
<svg:circle cx="70320000.000000" cy="50000000.000000" r="600000.000000"/> 
</svg:g>
<svg:g style="fill:#FFFFFF; fill-opacity:1.0;  stroke:#FFFFFF; stroke-width:21200.000000; stroke-opacity:1;  stroke-linecap:round; stroke-linejoin:round;">
</svg:g>
<svg:g style="fill:#000000; fill-opacity:1.0;  stroke:#000000; stroke-width:21200.000000; stroke-opacity:1;  stroke-linecap:round; stroke-linejoin:round;">
<svg:g>
</svg:g>
<svg:g>
</svg:g>
<svg:g>
</svg:g>
<svg:g>
</svg:g>
</svg:g> 
</svg:g><svg:g><svg:title>SVG Picture created as kicadBoard-F_Fab.svg date 2022/11/18 06:04:37 </svg:title>
  <svg:desc>Picture generated by PCBNEW </svg:desc>
<svg:g style="fill:#000000; fill-opacity:1.000000;stroke:#000000; stroke-opacity:1.000000; stroke-linecap:round; stroke-linejoin:round;" transform="translate(0 0) scale(1 1)">
</svg:g>
<svg:g style="fill:#000000; fill-opacity:0.0;  stroke:#000000; stroke-width:0.000000; stroke-opacity:1;  stroke-linecap:round; stroke-linejoin:round;">
</svg:g>
<svg:g style="fill:#AFAFAF; fill-opacity:0.0;  stroke:#AFAFAF; stroke-width:0.000000; stroke-opacity:1;  stroke-linecap:round; stroke-linejoin:round;">
</svg:g>
<svg:g style="fill:#AFAFAF; fill-opacity:0.0;  stroke:#AFAFAF; stroke-width:150000.000000; stroke-opacity:1;  stroke-linecap:round; stroke-linejoin:round;">
<svg:text x="60160000.000000" y="54620000.000000" textLength="44147381.000000" font-size="1333333.000000" lengthAdjust="spacingAndGlyphs" text-anchor="middle" opacity="0">R_Axial_DIN0617_L17.0mm_D6.0mm_P20.32mm_Horizontal</svg:text>
<svg:g class="stroked-text"><svg:desc>R_Axial_DIN0617_L17.0mm_D6.0mm_P20.32mm_Horizontal</svg:desc>
<svg:path d="M38993333 54572380 L38660000 54096190 "/>
<svg:path d="M38421904 54572380 L38421904 53572380 L38802857 53572380 L38898095 53620000 L38945714 53667619 L38993333 53762857 L38993333 53905714 L38945714 54000952 L38898095 54048571 L38802857 54096190 L38421904 54096190 "/>
<svg:path d="M39183809 54667619 L39945714 54667619 "/>
<svg:path d="M40136190 54286666 L40612380 54286666 "/>
<svg:path d="M40040952 54572380 L40374285 53572380 L40707619 54572380 "/>
<svg:path d="M40945714 54572380 L41469523 53905714 "/>
<svg:path d="M40945714 53905714 L41469523 54572380 "/>
<svg:path d="M41850476 54572380 L41850476 53905714 "/>
<svg:path d="M41850476 53572380 L41802857 53620000 L41850476 53667619 L41898095 53620000 L41850476 53572380 L41850476 53667619 "/>
<svg:path d="M42755238 54572380 L42755238 54048571 L42707619 53953333 L42612380 53905714 L42421904 53905714 L42326666 53953333 "/>
<svg:path d="M42755238 54524761 L42660000 54572380 L42421904 54572380 L42326666 54524761 L42279047 54429523 L42279047 54334285 L42326666 54239047 L42421904 54191428 L42660000 54191428 L42755238 54143809 "/>
<svg:path d="M43374285 54572380 L43279047 54524761 L43231428 54429523 L43231428 53572380 "/>
<svg:path d="M43517142 54667619 L44279047 54667619 "/>
<svg:path d="M44517142 54572380 L44517142 53572380 L44755238 53572380 L44898095 53620000 L44993333 53715238 L45040952 53810476 L45088571 54000952 L45088571 54143809 L45040952 54334285 L44993333 54429523 L44898095 54524761 L44755238 54572380 L44517142 54572380 "/>
<svg:path d="M45517142 54572380 L45517142 53572380 "/>
<svg:path d="M45993333 54572380 L45993333 53572380 L46564761 54572380 L46564761 53572380 "/>
<svg:path d="M47231428 53572380 L47326666 53572380 L47421904 53620000 L47469523 53667619 L47517142 53762857 L47564761 53953333 L47564761 54191428 L47517142 54381904 L47469523 54477142 L47421904 54524761 L47326666 54572380 L47231428 54572380 L47136190 54524761 L47088571 54477142 L47040952 54381904 L46993333 54191428 L46993333 53953333 L47040952 53762857 L47088571 53667619 L47136190 53620000 L47231428 53572380 "/>
<svg:path d="M48421904 53572380 L48231428 53572380 L48136190 53620000 L48088571 53667619 L47993333 53810476 L47945714 54000952 L47945714 54381904 L47993333 54477142 L48040952 54524761 L48136190 54572380 L48326666 54572380 L48421904 54524761 L48469523 54477142 L48517142 54381904 L48517142 54143809 L48469523 54048571 L48421904 54000952 L48326666 53953333 L48136190 53953333 L48040952 54000952 L47993333 54048571 L47945714 54143809 "/>
<svg:path d="M49469523 54572380 L48898095 54572380 "/>
<svg:path d="M49183809 54572380 L49183809 53572380 L49088571 53715238 L48993333 53810476 L48898095 53858095 "/>
<svg:path d="M49802857 53572380 L50469523 53572380 L50040952 54572380 "/>
<svg:path d="M50612380 54667619 L51374285 54667619 "/>
<svg:path d="M52088571 54572380 L51612380 54572380 L51612380 53572380 "/>
<svg:path d="M52945714 54572380 L52374285 54572380 "/>
<svg:path d="M52659999 54572380 L52659999 53572380 L52564761 53715238 L52469523 53810476 L52374285 53858095 "/>
<svg:path d="M53279047 53572380 L53945714 53572380 L53517142 54572380 "/>
<svg:path d="M54326666 54477142 L54374285 54524761 L54326666 54572380 L54279047 54524761 L54326666 54477142 L54326666 54572380 "/>
<svg:path d="M54993333 53572380 L55088571 53572380 L55183809 53620000 L55231428 53667619 L55279047 53762857 L55326666 53953333 L55326666 54191428 L55279047 54381904 L55231428 54477142 L55183809 54524761 L55088571 54572380 L54993333 54572380 L54898095 54524761 L54850476 54477142 L54802857 54381904 L54755238 54191428 L54755238 53953333 L54802857 53762857 L54850476 53667619 L54898095 53620000 L54993333 53572380 "/>
<svg:path d="M55755238 54572380 L55755238 53905714 "/>
<svg:path d="M55755238 54000952 L55802857 53953333 L55898095 53905714 L56040952 53905714 L56136190 53953333 L56183809 54048571 L56183809 54572380 "/>
<svg:path d="M56183809 54048571 L56231428 53953333 L56326666 53905714 L56469523 53905714 L56564761 53953333 L56612380 54048571 L56612380 54572380 "/>
<svg:path d="M57088571 54572380 L57088571 53905714 "/>
<svg:path d="M57088571 54000952 L57136190 53953333 L57231428 53905714 L57374285 53905714 L57469523 53953333 L57517142 54048571 L57517142 54572380 "/>
<svg:path d="M57517142 54048571 L57564761 53953333 L57659999 53905714 L57802857 53905714 L57898095 53953333 L57945714 54048571 L57945714 54572380 "/>
<svg:path d="M58183809 54667619 L58945714 54667619 "/>
<svg:path d="M59183809 54572380 L59183809 53572380 L59421904 53572380 L59564761 53620000 L59659999 53715238 L59707619 53810476 L59755238 54000952 L59755238 54143809 L59707619 54334285 L59659999 54429523 L59564761 54524761 L59421904 54572380 L59183809 54572380 "/>
<svg:path d="M60612380 53572380 L60421904 53572380 L60326666 53620000 L60279047 53667619 L60183809 53810476 L60136190 54000952 L60136190 54381904 L60183809 54477142 L60231428 54524761 L60326666 54572380 L60517142 54572380 L60612380 54524761 L60659999 54477142 L60707619 54381904 L60707619 54143809 L60659999 54048571 L60612380 54000952 L60517142 53953333 L60326666 53953333 L60231428 54000952 L60183809 54048571 L60136190 54143809 "/>
<svg:path d="M61136190 54477142 L61183809 54524761 L61136190 54572380 L61088571 54524761 L61136190 54477142 L61136190 54572380 "/>
<svg:path d="M61802857 53572380 L61898095 53572380 L61993333 53620000 L62040952 53667619 L62088571 53762857 L62136190 53953333 L62136190 54191428 L62088571 54381904 L62040952 54477142 L61993333 54524761 L61898095 54572380 L61802857 54572380 L61707619 54524761 L61659999 54477142 L61612380 54381904 L61564761 54191428 L61564761 53953333 L61612380 53762857 L61659999 53667619 L61707619 53620000 L61802857 53572380 "/>
<svg:path d="M62564761 54572380 L62564761 53905714 "/>
<svg:path d="M62564761 54000952 L62612380 53953333 L62707619 53905714 L62850476 53905714 L62945714 53953333 L62993333 54048571 L62993333 54572380 "/>
<svg:path d="M62993333 54048571 L63040952 53953333 L63136190 53905714 L63279047 53905714 L63374285 53953333 L63421904 54048571 L63421904 54572380 "/>
<svg:path d="M63898095 54572380 L63898095 53905714 "/>
<svg:path d="M63898095 54000952 L63945714 53953333 L64040952 53905714 L64183809 53905714 L64279047 53953333 L64326666 54048571 L64326666 54572380 "/>
<svg:path d="M64326666 54048571 L64374285 53953333 L64469523 53905714 L64612380 53905714 L64707619 53953333 L64755238 54048571 L64755238 54572380 "/>
<svg:path d="M64993333 54667619 L65755238 54667619 "/>
<svg:path d="M65993333 54572380 L65993333 53572380 L66374285 53572380 L66469523 53620000 L66517142 53667619 L66564761 53762857 L66564761 53905714 L66517142 54000952 L66469523 54048571 L66374285 54096190 L65993333 54096190 "/>
<svg:path d="M66945714 53667619 L66993333 53620000 L67088571 53572380 L67326666 53572380 L67421904 53620000 L67469523 53667619 L67517142 53762857 L67517142 53858095 L67469523 54000952 L66898095 54572380 L67517142 54572380 "/>
<svg:path d="M68136190 53572380 L68231428 53572380 L68326666 53620000 L68374285 53667619 L68421904 53762857 L68469523 53953333 L68469523 54191428 L68421904 54381904 L68374285 54477142 L68326666 54524761 L68231428 54572380 L68136190 54572380 L68040952 54524761 L67993333 54477142 L67945714 54381904 L67898095 54191428 L67898095 53953333 L67945714 53762857 L67993333 53667619 L68040952 53620000 L68136190 53572380 "/>
<svg:path d="M68898095 54477142 L68945714 54524761 L68898095 54572380 L68850476 54524761 L68898095 54477142 L68898095 54572380 "/>
<svg:path d="M69279047 53572380 L69898095 53572380 L69564761 53953333 L69707619 53953333 L69802857 54000952 L69850476 54048571 L69898095 54143809 L69898095 54381904 L69850476 54477142 L69802857 54524761 L69707619 54572380 L69421904 54572380 L69326666 54524761 L69279047 54477142 "/>
<svg:path d="M70279047 53667619 L70326666 53620000 L70421904 53572380 L70659999 53572380 L70755238 53620000 L70802857 53667619 L70850476 53762857 L70850476 53858095 L70802857 54000952 L70231428 54572380 L70850476 54572380 "/>
<svg:path d="M71279047 54572380 L71279047 53905714 "/>
<svg:path d="M71279047 54000952 L71326666 53953333 L71421904 53905714 L71564761 53905714 L71659999 53953333 L71707619 54048571 L71707619 54572380 "/>
<svg:path d="M71707619 54048571 L71755238 53953333 L71850476 53905714 L71993333 53905714 L72088571 53953333 L72136190 54048571 L72136190 54572380 "/>
<svg:path d="M72612380 54572380 L72612380 53905714 "/>
<svg:path d="M72612380 54000952 L72659999 53953333 L72755238 53905714 L72898095 53905714 L72993333 53953333 L73040952 54048571 L73040952 54572380 "/>
<svg:path d="M73040952 54048571 L73088571 53953333 L73183809 53905714 L73326666 53905714 L73421904 53953333 L73469523 54048571 L73469523 54572380 "/>
<svg:path d="M73707619 54667619 L74469523 54667619 "/>
<svg:path d="M74707619 54572380 L74707619 53572380 "/>
<svg:path d="M74707619 54048571 L75279047 54048571 "/>
<svg:path d="M75279047 54572380 L75279047 53572380 "/>
<svg:path d="M75898095 54572380 L75802857 54524761 L75755238 54477142 L75707619 54381904 L75707619 54096190 L75755238 54000952 L75802857 53953333 L75898095 53905714 L76040952 53905714 L76136190 53953333 L76183809 54000952 L76231428 54096190 L76231428 54381904 L76183809 54477142 L76136190 54524761 L76040952 54572380 L75898095 54572380 "/>
<svg:path d="M76659999 54572380 L76659999 53905714 "/>
<svg:path d="M76659999 54096190 L76707619 54000952 L76755238 53953333 L76850476 53905714 L76945714 53905714 "/>
<svg:path d="M77279047 54572380 L77279047 53905714 "/>
<svg:path d="M77279047 53572380 L77231428 53620000 L77279047 53667619 L77326666 53620000 L77279047 53572380 L77279047 53667619 "/>
<svg:path d="M77659999 53905714 L78183809 53905714 L77659999 54572380 L78183809 54572380 "/>
<svg:path d="M78707619 54572380 L78612380 54524761 L78564761 54477142 L78517142 54381904 L78517142 54096190 L78564761 54000952 L78612380 53953333 L78707619 53905714 L78850476 53905714 L78945714 53953333 L78993333 54000952 L79040952 54096190 L79040952 54381904 L78993333 54477142 L78945714 54524761 L78850476 54572380 L78707619 54572380 "/>
<svg:path d="M79469523 53905714 L79469523 54572380 "/>
<svg:path d="M79469523 54000952 L79517142 53953333 L79612380 53905714 L79755238 53905714 L79850476 53953333 L79898095 54048571 L79898095 54572380 "/>
<svg:path d="M80231428 53905714 L80612380 53905714 "/>
<svg:path d="M80374285 53572380 L80374285 54429523 L80421904 54524761 L80517142 54572380 L80612380 54572380 "/>
<svg:path d="M81374285 54572380 L81374285 54048571 L81326666 53953333 L81231428 53905714 L81040952 53905714 L80945714 53953333 "/>
<svg:path d="M81374285 54524761 L81279047 54572380 L81040952 54572380 L80945714 54524761 L80898095 54429523 L80898095 54334285 L80945714 54239047 L81040952 54191428 L81279047 54191428 L81374285 54143809 "/>
<svg:path d="M81993333 54572380 L81898095 54524761 L81850476 54429523 L81850476 53572380 "/>
</svg:g><svg:text x="60160000.000000" y="50500000.000000" textLength="23909286.000000" font-size="1333333.000000" lengthAdjust="spacingAndGlyphs" text-anchor="middle" opacity="0">FZKRRAXIALDIN617L17D6P232H</svg:text>
<svg:g class="stroked-text"><svg:desc>FZKRRAXIALDIN617L17D6P232H</svg:desc>
<svg:path d="M48874285 49928571 L48540952 49928571 "/>
<svg:path d="M48540952 50452380 L48540952 49452380 L49017142 49452380 "/>
<svg:path d="M49302857 49452380 L49969523 49452380 L49302857 50452380 L49969523 50452380 "/>
<svg:path d="M50350476 50452380 L50350476 49452380 "/>
<svg:path d="M50921904 50452380 L50493333 49880952 "/>
<svg:path d="M50921904 49452380 L50350476 50023809 "/>
<svg:path d="M51921904 50452380 L51588571 49976190 "/>
<svg:path d="M51350476 50452380 L51350476 49452380 L51731428 49452380 L51826666 49500000 L51874285 49547619 L51921904 49642857 L51921904 49785714 L51874285 49880952 L51826666 49928571 L51731428 49976190 L51350476 49976190 "/>
<svg:path d="M52921904 50452380 L52588571 49976190 "/>
<svg:path d="M52350476 50452380 L52350476 49452380 L52731428 49452380 L52826666 49500000 L52874285 49547619 L52921904 49642857 L52921904 49785714 L52874285 49880952 L52826666 49928571 L52731428 49976190 L52350476 49976190 "/>
<svg:path d="M53302857 50166666 L53779047 50166666 "/>
<svg:path d="M53207619 50452380 L53540952 49452380 L53874285 50452380 "/>
<svg:path d="M54112380 49452380 L54779047 50452380 "/>
<svg:path d="M54779047 49452380 L54112380 50452380 "/>
<svg:path d="M55160000 50452380 L55160000 49452380 "/>
<svg:path d="M55588571 50166666 L56064761 50166666 "/>
<svg:path d="M55493333 50452380 L55826666 49452380 L56160000 50452380 "/>
<svg:path d="M56969523 50452380 L56493333 50452380 L56493333 49452380 "/>
<svg:path d="M57302857 50452380 L57302857 49452380 L57540952 49452380 L57683809 49500000 L57779047 49595238 L57826666 49690476 L57874285 49880952 L57874285 50023809 L57826666 50214285 L57779047 50309523 L57683809 50404761 L57540952 50452380 L57302857 50452380 "/>
<svg:path d="M58302857 50452380 L58302857 49452380 "/>
<svg:path d="M58779047 50452380 L58779047 49452380 L59350476 50452380 L59350476 49452380 "/>
<svg:path d="M60255238 49452380 L60064761 49452380 L59969523 49500000 L59921904 49547619 L59826666 49690476 L59779047 49880952 L59779047 50261904 L59826666 50357142 L59874285 50404761 L59969523 50452380 L60160000 50452380 L60255238 50404761 L60302857 50357142 L60350476 50261904 L60350476 50023809 L60302857 49928571 L60255238 49880952 L60160000 49833333 L59969523 49833333 L59874285 49880952 L59826666 49928571 L59779047 50023809 "/>
<svg:path d="M61302857 50452380 L60731428 50452380 "/>
<svg:path d="M61017142 50452380 L61017142 49452380 L60921904 49595238 L60826666 49690476 L60731428 49738095 "/>
<svg:path d="M61636190 49452380 L62302857 49452380 L61874285 50452380 "/>
<svg:path d="M63159999 50452380 L62683809 50452380 L62683809 49452380 "/>
<svg:path d="M64017142 50452380 L63445714 50452380 "/>
<svg:path d="M63731428 50452380 L63731428 49452380 L63636190 49595238 L63540952 49690476 L63445714 49738095 "/>
<svg:path d="M64350476 49452380 L65017142 49452380 L64588571 50452380 "/>
<svg:path d="M65398095 50452380 L65398095 49452380 L65636190 49452380 L65779047 49500000 L65874285 49595238 L65921904 49690476 L65969523 49880952 L65969523 50023809 L65921904 50214285 L65874285 50309523 L65779047 50404761 L65636190 50452380 L65398095 50452380 "/>
<svg:path d="M66826666 49452380 L66636190 49452380 L66540952 49500000 L66493333 49547619 L66398095 49690476 L66350476 49880952 L66350476 50261904 L66398095 50357142 L66445714 50404761 L66540952 50452380 L66731428 50452380 L66826666 50404761 L66874285 50357142 L66921904 50261904 L66921904 50023809 L66874285 49928571 L66826666 49880952 L66731428 49833333 L66540952 49833333 L66445714 49880952 L66398095 49928571 L66350476 50023809 "/>
<svg:path d="M67350476 50452380 L67350476 49452380 L67731428 49452380 L67826666 49500000 L67874285 49547619 L67921904 49642857 L67921904 49785714 L67874285 49880952 L67826666 49928571 L67731428 49976190 L67350476 49976190 "/>
<svg:path d="M68302857 49547619 L68350476 49500000 L68445714 49452380 L68683809 49452380 L68779047 49500000 L68826666 49547619 L68874285 49642857 L68874285 49738095 L68826666 49880952 L68255238 50452380 L68874285 50452380 "/>
<svg:path d="M69207619 49452380 L69826666 49452380 L69493333 49833333 L69636190 49833333 L69731428 49880952 L69779047 49928571 L69826666 50023809 L69826666 50261904 L69779047 50357142 L69731428 50404761 L69636190 50452380 L69350476 50452380 L69255238 50404761 L69207619 50357142 "/>
<svg:path d="M70207619 49547619 L70255238 49500000 L70350476 49452380 L70588571 49452380 L70683809 49500000 L70731428 49547619 L70779047 49642857 L70779047 49738095 L70731428 49880952 L70159999 50452380 L70779047 50452380 "/>
<svg:path d="M71207619 50452380 L71207619 49452380 "/>
<svg:path d="M71207619 49928571 L71779047 49928571 "/>
<svg:path d="M71779047 50452380 L71779047 49452380 "/>
</svg:g></svg:g>
<svg:g style="fill:#AFAFAF; fill-opacity:0.0;  stroke:#AFAFAF; stroke-width:100000.000000; stroke-opacity:1;  stroke-linecap:round; stroke-linejoin:round;">
<svg:path d="M68660000 53000000 L68660000 47000000 "/>
<svg:path d="M51660000 47000000 L51660000 53000000 "/>
<svg:path d="M70320000 50000000 L68660000 50000000 "/>
<svg:path d="M51660000 53000000 L68660000 53000000 "/>
<svg:path d="M68660000 47000000 L51660000 47000000 "/>
<svg:path d="M50000000 50000000 L51660000 50000000 "/>
<svg:g>
</svg:g>
<svg:g>
</svg:g>
<svg:g>
</svg:g>
<svg:g>
</svg:g>
</svg:g>
<svg:g style="fill:#000000; fill-opacity:0.0;  stroke:#000000; stroke-width:100000.000000; stroke-opacity:1;  stroke-linecap:round; stroke-linejoin:round;">
<svg:g>
</svg:g>
<svg:g>
</svg:g>
<svg:g>
</svg:g>
<svg:g>
</svg:g>
</svg:g> 
</svg:g><svg:g><svg:title>SVG Picture created as kicadBoard-F_Mask.svg date 2022/11/18 06:04:37 </svg:title>
  <svg:desc>Picture generated by PCBNEW </svg:desc>
<svg:g style="fill:#000000; fill-opacity:1.000000;stroke:#000000; stroke-opacity:1.000000; stroke-linecap:round; stroke-linejoin:round;" transform="translate(0 0) scale(1 1)">
</svg:g>
<svg:g style="fill:#000000; fill-opacity:0.0;  stroke:#000000; stroke-width:0.000000; stroke-opacity:1;  stroke-linecap:round; stroke-linejoin:round;">
<svg:g>
</svg:g>
<svg:g style="fill:#000000; fill-opacity:1.0;  stroke:#000000; stroke-width:1.000000; stroke-opacity:1;  stroke-linecap:round; stroke-linejoin:round;">
<svg:circle cx="50000000.000000" cy="50000000.000000" r="1200000.000000"/> 
</svg:g>
<svg:g style="fill:#000000; fill-opacity:1.0;  stroke:#000000; stroke-width:21200.000000; stroke-opacity:1;  stroke-linecap:round; stroke-linejoin:round;">
</svg:g>
<svg:g style="fill:#000000; fill-opacity:1.0;  stroke:#000000; stroke-width:1.000000; stroke-opacity:1;  stroke-linecap:round; stroke-linejoin:round;">
<svg:circle cx="70320000.000000" cy="50000000.000000" r="1200000.000000"/> 
</svg:g>
<svg:g>
</svg:g>
<svg:g>
</svg:g>
<svg:g>
</svg:g>
</svg:g>
<svg:g style="fill:#000000; fill-opacity:1.0;  stroke:#000000; stroke-width:1.000000; stroke-opacity:1;  stroke-linecap:round; stroke-linejoin:round;">
<svg:g>
</svg:g>
<svg:g>
</svg:g>
<svg:g>
</svg:g>
<svg:g>
</svg:g>
</svg:g> 
</svg:g><svg:g><svg:title>SVG Picture created as kicadBoard-F_Paste.svg date 2022/11/18 06:04:37 </svg:title>
  <svg:desc>Picture generated by PCBNEW </svg:desc>
<svg:g style="fill:#000000; fill-opacity:1.000000;stroke:#000000; stroke-opacity:1.000000; stroke-linecap:round; stroke-linejoin:round;" transform="translate(0 0) scale(1 1)">
</svg:g>
<svg:g style="fill:#000000; fill-opacity:0.0;  stroke:#000000; stroke-width:0.000000; stroke-opacity:1;  stroke-linecap:round; stroke-linejoin:round;">
<svg:g>
</svg:g>
<svg:g>
</svg:g>
<svg:g>
</svg:g>
<svg:g>
</svg:g>
</svg:g>
<svg:g style="fill:#000000; fill-opacity:0.0;  stroke:#000000; stroke-width:0.000000; stroke-opacity:1;  stroke-linecap:round; stroke-linejoin:round;">
<svg:g>
</svg:g>
<svg:g>
</svg:g>
<svg:g>
</svg:g>
<svg:g>
</svg:g>
</svg:g> 
</svg:g><svg:g><svg:title>SVG Picture created as kicadBoard-F_Silkscreen.svg date 2022/11/18 06:04:37 </svg:title>
  <svg:desc>Picture generated by PCBNEW </svg:desc>
<svg:g style="fill:#000000; fill-opacity:1.000000;stroke:#000000; stroke-opacity:1.000000; stroke-linecap:round; stroke-linejoin:round;" transform="translate(0 0) scale(1 1)">
</svg:g>
<svg:g style="fill:#000000; fill-opacity:0.0;  stroke:#000000; stroke-width:0.000000; stroke-opacity:1;  stroke-linecap:round; stroke-linejoin:round;">
</svg:g>
<svg:g style="fill:#F2EDA1; fill-opacity:0.0;  stroke:#F2EDA1; stroke-width:0.000000; stroke-opacity:1;  stroke-linecap:round; stroke-linejoin:round;">
</svg:g>
<svg:g style="fill:#F2EDA1; fill-opacity:0.0;  stroke:#F2EDA1; stroke-width:150000.000000; stroke-opacity:1;  stroke-linecap:round; stroke-linejoin:round;">
<svg:text x="60160000.000000" y="46380000.000000" textLength="23714287.000000" font-size="1333333.000000" lengthAdjust="spacingAndGlyphs" text-anchor="middle" opacity="0">FZKRRAXIALDIN617L17D6P232H</svg:text>
<svg:g class="stroked-text"><svg:desc>FZKRRAXIALDIN617L17D6P232H</svg:desc>
<svg:path d="M48874285 45808571 L48540952 45808571 "/>
<svg:path d="M48540952 46332380 L48540952 45332380 L49017142 45332380 "/>
<svg:path d="M49302857 45332380 L49969523 45332380 L49302857 46332380 L49969523 46332380 "/>
<svg:path d="M50350476 46332380 L50350476 45332380 "/>
<svg:path d="M50921904 46332380 L50493333 45760952 "/>
<svg:path d="M50921904 45332380 L50350476 45903809 "/>
<svg:path d="M51921904 46332380 L51588571 45856190 "/>
<svg:path d="M51350476 46332380 L51350476 45332380 L51731428 45332380 L51826666 45380000 L51874285 45427619 L51921904 45522857 L51921904 45665714 L51874285 45760952 L51826666 45808571 L51731428 45856190 L51350476 45856190 "/>
<svg:path d="M52921904 46332380 L52588571 45856190 "/>
<svg:path d="M52350476 46332380 L52350476 45332380 L52731428 45332380 L52826666 45380000 L52874285 45427619 L52921904 45522857 L52921904 45665714 L52874285 45760952 L52826666 45808571 L52731428 45856190 L52350476 45856190 "/>
<svg:path d="M53302857 46046666 L53779047 46046666 "/>
<svg:path d="M53207619 46332380 L53540952 45332380 L53874285 46332380 "/>
<svg:path d="M54112380 45332380 L54779047 46332380 "/>
<svg:path d="M54779047 45332380 L54112380 46332380 "/>
<svg:path d="M55160000 46332380 L55160000 45332380 "/>
<svg:path d="M55588571 46046666 L56064761 46046666 "/>
<svg:path d="M55493333 46332380 L55826666 45332380 L56160000 46332380 "/>
<svg:path d="M56969523 46332380 L56493333 46332380 L56493333 45332380 "/>
<svg:path d="M57302857 46332380 L57302857 45332380 L57540952 45332380 L57683809 45380000 L57779047 45475238 L57826666 45570476 L57874285 45760952 L57874285 45903809 L57826666 46094285 L57779047 46189523 L57683809 46284761 L57540952 46332380 L57302857 46332380 "/>
<svg:path d="M58302857 46332380 L58302857 45332380 "/>
<svg:path d="M58779047 46332380 L58779047 45332380 L59350476 46332380 L59350476 45332380 "/>
<svg:path d="M60255238 45332380 L60064761 45332380 L59969523 45380000 L59921904 45427619 L59826666 45570476 L59779047 45760952 L59779047 46141904 L59826666 46237142 L59874285 46284761 L59969523 46332380 L60160000 46332380 L60255238 46284761 L60302857 46237142 L60350476 46141904 L60350476 45903809 L60302857 45808571 L60255238 45760952 L60160000 45713333 L59969523 45713333 L59874285 45760952 L59826666 45808571 L59779047 45903809 "/>
<svg:path d="M61302857 46332380 L60731428 46332380 "/>
<svg:path d="M61017142 46332380 L61017142 45332380 L60921904 45475238 L60826666 45570476 L60731428 45618095 "/>
<svg:path d="M61636190 45332380 L62302857 45332380 L61874285 46332380 "/>
<svg:path d="M63159999 46332380 L62683809 46332380 L62683809 45332380 "/>
<svg:path d="M64017142 46332380 L63445714 46332380 "/>
<svg:path d="M63731428 46332380 L63731428 45332380 L63636190 45475238 L63540952 45570476 L63445714 45618095 "/>
<svg:path d="M64350476 45332380 L65017142 45332380 L64588571 46332380 "/>
<svg:path d="M65398095 46332380 L65398095 45332380 L65636190 45332380 L65779047 45380000 L65874285 45475238 L65921904 45570476 L65969523 45760952 L65969523 45903809 L65921904 46094285 L65874285 46189523 L65779047 46284761 L65636190 46332380 L65398095 46332380 "/>
<svg:path d="M66826666 45332380 L66636190 45332380 L66540952 45380000 L66493333 45427619 L66398095 45570476 L66350476 45760952 L66350476 46141904 L66398095 46237142 L66445714 46284761 L66540952 46332380 L66731428 46332380 L66826666 46284761 L66874285 46237142 L66921904 46141904 L66921904 45903809 L66874285 45808571 L66826666 45760952 L66731428 45713333 L66540952 45713333 L66445714 45760952 L66398095 45808571 L66350476 45903809 "/>
<svg:path d="M67350476 46332380 L67350476 45332380 L67731428 45332380 L67826666 45380000 L67874285 45427619 L67921904 45522857 L67921904 45665714 L67874285 45760952 L67826666 45808571 L67731428 45856190 L67350476 45856190 "/>
<svg:path d="M68302857 45427619 L68350476 45380000 L68445714 45332380 L68683809 45332380 L68779047 45380000 L68826666 45427619 L68874285 45522857 L68874285 45618095 L68826666 45760952 L68255238 46332380 L68874285 46332380 "/>
<svg:path d="M69207619 45332380 L69826666 45332380 L69493333 45713333 L69636190 45713333 L69731428 45760952 L69779047 45808571 L69826666 45903809 L69826666 46141904 L69779047 46237142 L69731428 46284761 L69636190 46332380 L69350476 46332380 L69255238 46284761 L69207619 46237142 "/>
<svg:path d="M70207619 45427619 L70255238 45380000 L70350476 45332380 L70588571 45332380 L70683809 45380000 L70731428 45427619 L70779047 45522857 L70779047 45618095 L70731428 45760952 L70159999 46332380 L70779047 46332380 "/>
<svg:path d="M71207619 46332380 L71207619 45332380 "/>
<svg:path d="M71207619 45808571 L71779047 45808571 "/>
<svg:path d="M71779047 46332380 L71779047 45332380 "/>
</svg:g></svg:g>
<svg:g style="fill:#F2EDA1; fill-opacity:0.0;  stroke:#F2EDA1; stroke-width:120000.000000; stroke-opacity:1;  stroke-linecap:round; stroke-linejoin:round;">
<svg:path d="M68780000 53120000 L68780000 46880000 "/>
<svg:path d="M51540000 46880000 L51540000 53120000 "/>
<svg:path d="M68780000 46880000 L51540000 46880000 "/>
<svg:path d="M51540000 53120000 L68780000 53120000 "/>
<svg:path d="M51440000 50000000 L51540000 50000000 "/>
<svg:path d="M68880000 50000000 L68780000 50000000 "/>
<svg:g>
</svg:g>
<svg:g>
</svg:g>
<svg:g>
</svg:g>
<svg:g>
</svg:g>
</svg:g>
<svg:g style="fill:#000000; fill-opacity:0.0;  stroke:#000000; stroke-width:120000.000000; stroke-opacity:1;  stroke-linecap:round; stroke-linejoin:round;">
<svg:g>
</svg:g>
<svg:g>
</svg:g>
<svg:g>
</svg:g>
<svg:g>
</svg:g>
</svg:g> 
</svg:g><svg:g><svg:title>SVG Picture created as kicadBoard-Margin.svg date 2022/11/18 06:04:37 </svg:title>
  <svg:desc>Picture generated by PCBNEW </svg:desc>
<svg:g style="fill:#000000; fill-opacity:1.000000;stroke:#000000; stroke-opacity:1.000000; stroke-linecap:round; stroke-linejoin:round;" transform="translate(0 0) scale(1 1)">
</svg:g>
<svg:g style="fill:#000000; fill-opacity:0.0;  stroke:#000000; stroke-width:0.000000; stroke-opacity:1;  stroke-linecap:round; stroke-linejoin:round;">
<svg:g>
</svg:g>
<svg:g>
</svg:g>
<svg:g>
</svg:g>
<svg:g>
</svg:g>
</svg:g>
<svg:g style="fill:#000000; fill-opacity:0.0;  stroke:#000000; stroke-width:0.000000; stroke-opacity:1;  stroke-linecap:round; stroke-linejoin:round;">
<svg:g>
</svg:g>
<svg:g>
</svg:g>
<svg:g>
</svg:g>
<svg:g>
</svg:g>
</svg:g> 
</svg:g><svg:g><svg:title>SVG Picture created as kicadBoard-F_Cu.svg date 2022/11/18 06:04:37 </svg:title>
  <svg:desc>Picture generated by PCBNEW </svg:desc>
<svg:g style="fill:#000000; fill-opacity:1.000000;stroke:#000000; stroke-opacity:1.000000; stroke-linecap:round; stroke-linejoin:round;" transform="translate(0 0) scale(1 1)">
</svg:g>
<svg:g style="fill:#000000; fill-opacity:0.0;  stroke:#000000; stroke-width:0.000000; stroke-opacity:1;  stroke-linecap:round; stroke-linejoin:round;">
<svg:g>
</svg:g>
<svg:g style="fill:#C83434; fill-opacity:0.0;  stroke:#C83434; stroke-width:0.000000; stroke-opacity:1;  stroke-linecap:round; stroke-linejoin:round;">
</svg:g>
<svg:g style="fill:#C83434; fill-opacity:1.0;  stroke:#C83434; stroke-width:1.000000; stroke-opacity:1;  stroke-linecap:round; stroke-linejoin:round;">
<svg:circle cx="50000000.000000" cy="50000000.000000" r="1200000.000000"/> 
</svg:g>
<svg:g style="fill:#C83434; fill-opacity:1.0;  stroke:#C83434; stroke-width:21200.000000; stroke-opacity:1;  stroke-linecap:round; stroke-linejoin:round;">
</svg:g>
<svg:g style="fill:#C83434; fill-opacity:1.0;  stroke:#C83434; stroke-width:1.000000; stroke-opacity:1;  stroke-linecap:round; stroke-linejoin:round;">
<svg:circle cx="70320000.000000" cy="50000000.000000" r="1200000.000000"/> 
</svg:g>
<svg:g>
</svg:g>
<svg:g>
</svg:g>
<svg:g>
</svg:g>
</svg:g>
<svg:g style="fill:#FFFFFF; fill-opacity:1.0;  stroke:#FFFFFF; stroke-width:1.000000; stroke-opacity:1;  stroke-linecap:round; stroke-linejoin:round;">
<svg:circle cx="50000000.000000" cy="50000000.000000" r="600000.000000"/> 
</svg:g>
<svg:g style="fill:#FFFFFF; fill-opacity:1.0;  stroke:#FFFFFF; stroke-width:21200.000000; stroke-opacity:1;  stroke-linecap:round; stroke-linejoin:round;">
</svg:g>
<svg:g style="fill:#FFFFFF; fill-opacity:1.0;  stroke:#FFFFFF; stroke-width:1.000000; stroke-opacity:1;  stroke-linecap:round; stroke-linejoin:round;">
<svg:circle cx="70320000.000000" cy="50000000.000000" r="600000.000000"/> 
</svg:g>
<svg:g style="fill:#FFFFFF; fill-opacity:1.0;  stroke:#FFFFFF; stroke-width:21200.000000; stroke-opacity:1;  stroke-linecap:round; stroke-linejoin:round;">
</svg:g>
<svg:g style="fill:#000000; fill-opacity:1.0;  stroke:#000000; stroke-width:21200.000000; stroke-opacity:1;  stroke-linecap:round; stroke-linejoin:round;">
<svg:g>
</svg:g>
<svg:g>
</svg:g>
<svg:g>
</svg:g>
<svg:g>
</svg:g>
</svg:g> 
</svg:g></svg>
