<?xml version='1.0' encoding='ASCII' standalone='yes'?>
<svg xmlns:svg="http://www.w3.org/2000/svg" xmlns="http://www.w3.org/2000/svg" xmlns:xlink="http://www.w3.org/1999/xlink" version="1.1" width="9.999980cm" height="9.999980cm" viewBox="0 0 99999800 99999800">
<title>SVG Picture created as kicadBoard-B_Cu.svg date 2022/11/17 02:37:01 </title>
  <desc>Picture generated by PCBNEW </desc>
<g style="fill:#000000; fill-opacity:1.000000;stroke:#000000; stroke-opacity:1.000000; stroke-linecap:round; stroke-linejoin:round;" transform="translate(0 0) scale(1 1)">
</g>
<g style="fill:#000000; fill-opacity:0.0;  stroke:#000000; stroke-width:0.000000; stroke-opacity:1;  stroke-linecap:round; stroke-linejoin:round;">
<g>
</g>
<g style="fill:#4D7FC4; fill-opacity:0.0;  stroke:#4D7FC4; stroke-width:0.000000; stroke-opacity:1;  stroke-linecap:round; stroke-linejoin:round;">
</g>
<g style="fill:#4D7FC4; fill-opacity:1.0;  stroke:#4D7FC4; stroke-width:1.000000; stroke-opacity:1;  stroke-linecap:round; stroke-linejoin:round;">
<circle cx="50000000.000000" cy="50000000.000000" r="800000.000000"/> 
</g>
<g style="fill:#4D7FC4; fill-opacity:1.0;  stroke:#4D7FC4; stroke-width:21200.000000; stroke-opacity:1;  stroke-linecap:round; stroke-linejoin:round;">
</g>
<g style="fill:#4D7FC4; fill-opacity:1.0;  stroke:#4D7FC4; stroke-width:1.000000; stroke-opacity:1;  stroke-linecap:round; stroke-linejoin:round;">
<circle cx="55000000.000000" cy="50000000.000000" r="800000.000000"/> 
</g>
<g style="fill:#4D7FC4; fill-opacity:1.0;  stroke:#4D7FC4; stroke-width:21200.000000; stroke-opacity:1;  stroke-linecap:round; stroke-linejoin:round;">
</g>
<g>
</g>
<g>
</g>
<g>
</g>
</g>
<g style="fill:#FFFFFF; fill-opacity:1.0;  stroke:#FFFFFF; stroke-width:21200.000000; stroke-opacity:1;  stroke-linecap:round; stroke-linejoin:round;">
</g>
<g style="fill:#FFFFFF; fill-opacity:1.0;  stroke:#FFFFFF; stroke-width:1.000000; stroke-opacity:1;  stroke-linecap:round; stroke-linejoin:round;">
<circle cx="50000000.000000" cy="50000000.000000" r="400000.000000"/> 
</g>
<g style="fill:#FFFFFF; fill-opacity:1.0;  stroke:#FFFFFF; stroke-width:21200.000000; stroke-opacity:1;  stroke-linecap:round; stroke-linejoin:round;">
</g>
<g style="fill:#FFFFFF; fill-opacity:1.0;  stroke:#FFFFFF; stroke-width:1.000000; stroke-opacity:1;  stroke-linecap:round; stroke-linejoin:round;">
<circle cx="55000000.000000" cy="50000000.000000" r="400000.000000"/> 
</g>
<g style="fill:#FFFFFF; fill-opacity:1.0;  stroke:#FFFFFF; stroke-width:21200.000000; stroke-opacity:1;  stroke-linecap:round; stroke-linejoin:round;">
</g>
<g style="fill:#000000; fill-opacity:1.0;  stroke:#000000; stroke-width:21200.000000; stroke-opacity:1;  stroke-linecap:round; stroke-linejoin:round;">
<g>
</g>
<g>
</g>
<g>
</g>
<g>
</g>
</g> 
<svg:g><svg:title>SVG Picture created as kicadBoard-B_Adhesive.svg date 2022/11/17 02:37:01 </svg:title>
  <svg:desc>Picture generated by PCBNEW </svg:desc>
<svg:g style="fill:#000000; fill-opacity:1.000000;stroke:#000000; stroke-opacity:1.000000; stroke-linecap:round; stroke-linejoin:round;" transform="translate(0 0) scale(1 1)">
</svg:g>
<svg:g style="fill:#000000; fill-opacity:0.0;  stroke:#000000; stroke-width:0.000000; stroke-opacity:1;  stroke-linecap:round; stroke-linejoin:round;">
<svg:g>
</svg:g>
<svg:g>
</svg:g>
<svg:g>
</svg:g>
<svg:g>
</svg:g>
</svg:g>
<svg:g style="fill:#000000; fill-opacity:0.0;  stroke:#000000; stroke-width:0.000000; stroke-opacity:1;  stroke-linecap:round; stroke-linejoin:round;">
<svg:g>
</svg:g>
<svg:g>
</svg:g>
<svg:g>
</svg:g>
<svg:g>
</svg:g>
</svg:g> 
</svg:g><svg:g><svg:title>SVG Picture created as kicadBoard-B_Courtyard.svg date 2022/11/17 02:37:01 </svg:title>
  <svg:desc>Picture generated by PCBNEW </svg:desc>
<svg:g style="fill:#000000; fill-opacity:1.000000;stroke:#000000; stroke-opacity:1.000000; stroke-linecap:round; stroke-linejoin:round;" transform="translate(0 0) scale(1 1)">
</svg:g>
<svg:g style="fill:#000000; fill-opacity:0.0;  stroke:#000000; stroke-width:0.000000; stroke-opacity:1;  stroke-linecap:round; stroke-linejoin:round;">
<svg:g>
</svg:g>
<svg:g>
</svg:g>
<svg:g>
</svg:g>
<svg:g>
</svg:g>
</svg:g>
<svg:g style="fill:#000000; fill-opacity:0.0;  stroke:#000000; stroke-width:0.000000; stroke-opacity:1;  stroke-linecap:round; stroke-linejoin:round;">
<svg:g>
</svg:g>
<svg:g>
</svg:g>
<svg:g>
</svg:g>
<svg:g>
</svg:g>
</svg:g> 
</svg:g><svg:g><svg:title>SVG Picture created as kicadBoard-B_Fab.svg date 2022/11/17 02:37:01 </svg:title>
  <svg:desc>Picture generated by PCBNEW </svg:desc>
<svg:g style="fill:#000000; fill-opacity:1.000000;stroke:#000000; stroke-opacity:1.000000; stroke-linecap:round; stroke-linejoin:round;" transform="translate(0 0) scale(1 1)">
</svg:g>
<svg:g style="fill:#000000; fill-opacity:0.0;  stroke:#000000; stroke-width:0.000000; stroke-opacity:1;  stroke-linecap:round; stroke-linejoin:round;">
<svg:g>
</svg:g>
<svg:g>
</svg:g>
<svg:g>
</svg:g>
<svg:g>
</svg:g>
</svg:g>
<svg:g style="fill:#000000; fill-opacity:0.0;  stroke:#000000; stroke-width:0.000000; stroke-opacity:1;  stroke-linecap:round; stroke-linejoin:round;">
<svg:g>
</svg:g>
<svg:g>
</svg:g>
<svg:g>
</svg:g>
<svg:g>
</svg:g>
</svg:g> 
</svg:g><svg:g><svg:title>SVG Picture created as kicadBoard-B_Mask.svg date 2022/11/17 02:37:01 </svg:title>
  <svg:desc>Picture generated by PCBNEW </svg:desc>
<svg:g style="fill:#000000; fill-opacity:1.000000;stroke:#000000; stroke-opacity:1.000000; stroke-linecap:round; stroke-linejoin:round;" transform="translate(0 0) scale(1 1)">
</svg:g>
<svg:g style="fill:#000000; fill-opacity:0.0;  stroke:#000000; stroke-width:0.000000; stroke-opacity:1;  stroke-linecap:round; stroke-linejoin:round;">
<svg:g>
</svg:g>
<svg:g style="fill:#000000; fill-opacity:1.0;  stroke:#000000; stroke-width:1.000000; stroke-opacity:1;  stroke-linecap:round; stroke-linejoin:round;">
<svg:circle cx="50000000.000000" cy="50000000.000000" r="800000.000000"/> 
</svg:g>
<svg:g style="fill:#000000; fill-opacity:1.0;  stroke:#000000; stroke-width:21200.000000; stroke-opacity:1;  stroke-linecap:round; stroke-linejoin:round;">
</svg:g>
<svg:g style="fill:#000000; fill-opacity:1.0;  stroke:#000000; stroke-width:1.000000; stroke-opacity:1;  stroke-linecap:round; stroke-linejoin:round;">
<svg:circle cx="55000000.000000" cy="50000000.000000" r="800000.000000"/> 
</svg:g>
<svg:g style="fill:#000000; fill-opacity:1.0;  stroke:#000000; stroke-width:21200.000000; stroke-opacity:1;  stroke-linecap:round; stroke-linejoin:round;">
</svg:g>
<svg:g>
</svg:g>
<svg:g>
</svg:g>
<svg:g>
</svg:g>
</svg:g>
<svg:g style="fill:#000000; fill-opacity:1.0;  stroke:#000000; stroke-width:21200.000000; stroke-opacity:1;  stroke-linecap:round; stroke-linejoin:round;">
<svg:g>
</svg:g>
<svg:g>
</svg:g>
<svg:g>
</svg:g>
<svg:g>
</svg:g>
</svg:g> 
</svg:g><svg:g><svg:title>SVG Picture created as kicadBoard-B_Paste.svg date 2022/11/17 02:37:01 </svg:title>
  <svg:desc>Picture generated by PCBNEW </svg:desc>
<svg:g style="fill:#000000; fill-opacity:1.000000;stroke:#000000; stroke-opacity:1.000000; stroke-linecap:round; stroke-linejoin:round;" transform="translate(0 0) scale(1 1)">
</svg:g>
<svg:g style="fill:#000000; fill-opacity:0.0;  stroke:#000000; stroke-width:0.000000; stroke-opacity:1;  stroke-linecap:round; stroke-linejoin:round;">
<svg:g>
</svg:g>
<svg:g>
</svg:g>
<svg:g>
</svg:g>
<svg:g>
</svg:g>
</svg:g>
<svg:g style="fill:#000000; fill-opacity:0.0;  stroke:#000000; stroke-width:0.000000; stroke-opacity:1;  stroke-linecap:round; stroke-linejoin:round;">
<svg:g>
</svg:g>
<svg:g>
</svg:g>
<svg:g>
</svg:g>
<svg:g>
</svg:g>
</svg:g> 
</svg:g><svg:g><svg:title>SVG Picture created as kicadBoard-B_Silkscreen.svg date 2022/11/17 02:37:01 </svg:title>
  <svg:desc>Picture generated by PCBNEW </svg:desc>
<svg:g style="fill:#000000; fill-opacity:1.000000;stroke:#000000; stroke-opacity:1.000000; stroke-linecap:round; stroke-linejoin:round;" transform="translate(0 0) scale(1 1)">
</svg:g>
<svg:g style="fill:#000000; fill-opacity:0.0;  stroke:#000000; stroke-width:0.000000; stroke-opacity:1;  stroke-linecap:round; stroke-linejoin:round;">
<svg:g>
</svg:g>
<svg:g>
</svg:g>
<svg:g>
</svg:g>
<svg:g>
</svg:g>
</svg:g>
<svg:g style="fill:#000000; fill-opacity:0.0;  stroke:#000000; stroke-width:0.000000; stroke-opacity:1;  stroke-linecap:round; stroke-linejoin:round;">
<svg:g>
</svg:g>
<svg:g>
</svg:g>
<svg:g>
</svg:g>
<svg:g>
</svg:g>
</svg:g> 
</svg:g><svg:g><svg:title>SVG Picture created as kicadBoard-Edge_Cuts.svg date 2022/11/17 02:37:01 </svg:title>
  <svg:desc>Picture generated by PCBNEW </svg:desc>
<svg:g style="fill:#000000; fill-opacity:1.000000;stroke:#000000; stroke-opacity:1.000000; stroke-linecap:round; stroke-linejoin:round;" transform="translate(0 0) scale(1 1)">
</svg:g>
<svg:g style="fill:#000000; fill-opacity:0.0;  stroke:#000000; stroke-width:0.000000; stroke-opacity:1;  stroke-linecap:round; stroke-linejoin:round;">
<svg:g>
</svg:g>
<svg:g>
</svg:g>
<svg:g>
</svg:g>
<svg:g>
</svg:g>
</svg:g> 
</svg:g><svg:g><svg:title>SVG Picture created as kicadBoard-F_Adhesive.svg date 2022/11/17 02:37:01 </svg:title>
  <svg:desc>Picture generated by PCBNEW </svg:desc>
<svg:g style="fill:#000000; fill-opacity:1.000000;stroke:#000000; stroke-opacity:1.000000; stroke-linecap:round; stroke-linejoin:round;" transform="translate(0 0) scale(1 1)">
</svg:g>
<svg:g style="fill:#000000; fill-opacity:0.0;  stroke:#000000; stroke-width:0.000000; stroke-opacity:1;  stroke-linecap:round; stroke-linejoin:round;">
<svg:g>
</svg:g>
<svg:g>
</svg:g>
<svg:g>
</svg:g>
<svg:g>
</svg:g>
</svg:g>
<svg:g style="fill:#000000; fill-opacity:0.0;  stroke:#000000; stroke-width:0.000000; stroke-opacity:1;  stroke-linecap:round; stroke-linejoin:round;">
<svg:g>
</svg:g>
<svg:g>
</svg:g>
<svg:g>
</svg:g>
<svg:g>
</svg:g>
</svg:g> 
</svg:g><svg:g><svg:title>SVG Picture created as kicadBoard-F_Courtyard.svg date 2022/11/17 02:37:01 </svg:title>
  <svg:desc>Picture generated by PCBNEW </svg:desc>
<svg:g style="fill:#000000; fill-opacity:1.000000;stroke:#000000; stroke-opacity:1.000000; stroke-linecap:round; stroke-linejoin:round;" transform="translate(0 0) scale(1 1)">
</svg:g>
<svg:g style="fill:#000000; fill-opacity:0.0;  stroke:#000000; stroke-width:0.000000; stroke-opacity:1;  stroke-linecap:round; stroke-linejoin:round;">
</svg:g>
<svg:g style="fill:#FF26E2; fill-opacity:0.0;  stroke:#FF26E2; stroke-width:0.000000; stroke-opacity:1;  stroke-linecap:round; stroke-linejoin:round;">
</svg:g>
<svg:g style="fill:#FF26E2; fill-opacity:0.0;  stroke:#FF26E2; stroke-width:50000.000000; stroke-opacity:1;  stroke-linecap:round; stroke-linejoin:round;">
<svg:path d="M48950000 48150000 L48950000 51850000 "/>
<svg:path d="M48950000 51850000 L56050000 51850000 "/>
<svg:path d="M56050000 51850000 L56050000 48150000 "/>
<svg:path d="M56050000 48150000 L48950000 48150000 "/>
<svg:g>
</svg:g>
<svg:g>
</svg:g>
<svg:g>
</svg:g>
<svg:g>
</svg:g>
</svg:g>
<svg:g style="fill:#000000; fill-opacity:0.0;  stroke:#000000; stroke-width:50000.000000; stroke-opacity:1;  stroke-linecap:round; stroke-linejoin:round;">
<svg:g>
</svg:g>
<svg:g>
</svg:g>
<svg:g>
</svg:g>
<svg:g>
</svg:g>
</svg:g> 
</svg:g><svg:g><svg:title>SVG Picture created as kicadBoard-F_Fab.svg date 2022/11/17 02:37:01 </svg:title>
  <svg:desc>Picture generated by PCBNEW </svg:desc>
<svg:g style="fill:#000000; fill-opacity:1.000000;stroke:#000000; stroke-opacity:1.000000; stroke-linecap:round; stroke-linejoin:round;" transform="translate(0 0) scale(1 1)">
</svg:g>
<svg:g style="fill:#000000; fill-opacity:0.0;  stroke:#000000; stroke-width:0.000000; stroke-opacity:1;  stroke-linecap:round; stroke-linejoin:round;">
</svg:g>
<svg:g style="fill:#AFAFAF; fill-opacity:0.0;  stroke:#AFAFAF; stroke-width:0.000000; stroke-opacity:1;  stroke-linecap:round; stroke-linejoin:round;">
</svg:g>
<svg:g style="fill:#AFAFAF; fill-opacity:0.0;  stroke:#AFAFAF; stroke-width:150000.000000; stroke-opacity:1;  stroke-linecap:round; stroke-linejoin:round;">
<svg:text x="52500000.000000" y="53350000.000000" textLength="26623571.000000" font-size="1333333.000000" lengthAdjust="spacingAndGlyphs" text-anchor="middle" opacity="0">C_Disc_D5.1mm_W3.2mm_P5.00mm</svg:text>
<svg:g class="stroked-text"><svg:desc>C_Disc_D5.1mm_W3.2mm_P5.00mm</svg:desc>
<svg:path d="M40095238 53207142 L40047619 53254761 L39904761 53302380 L39809523 53302380 L39666666 53254761 L39571428 53159523 L39523809 53064285 L39476190 52873809 L39476190 52730952 L39523809 52540476 L39571428 52445238 L39666666 52350000 L39809523 52302380 L39904761 52302380 L40047619 52350000 L40095238 52397619 "/>
<svg:path d="M40285714 53397619 L41047619 53397619 "/>
<svg:path d="M41285714 53302380 L41285714 52302380 L41523809 52302380 L41666666 52350000 L41761904 52445238 L41809523 52540476 L41857142 52730952 L41857142 52873809 L41809523 53064285 L41761904 53159523 L41666666 53254761 L41523809 53302380 L41285714 53302380 "/>
<svg:path d="M42285714 53302380 L42285714 52635714 "/>
<svg:path d="M42285714 52302380 L42238095 52350000 L42285714 52397619 L42333333 52350000 L42285714 52302380 L42285714 52397619 "/>
<svg:path d="M42714285 53254761 L42809523 53302380 L43000000 53302380 L43095238 53254761 L43142857 53159523 L43142857 53111904 L43095238 53016666 L43000000 52969047 L42857142 52969047 L42761904 52921428 L42714285 52826190 L42714285 52778571 L42761904 52683333 L42857142 52635714 L43000000 52635714 L43095238 52683333 "/>
<svg:path d="M44000000 53254761 L43904761 53302380 L43714285 53302380 L43619047 53254761 L43571428 53207142 L43523809 53111904 L43523809 52826190 L43571428 52730952 L43619047 52683333 L43714285 52635714 L43904761 52635714 L44000000 52683333 "/>
<svg:path d="M44190476 53397619 L44952380 53397619 "/>
<svg:path d="M45190476 53302380 L45190476 52302380 L45428571 52302380 L45571428 52350000 L45666666 52445238 L45714285 52540476 L45761904 52730952 L45761904 52873809 L45714285 53064285 L45666666 53159523 L45571428 53254761 L45428571 53302380 L45190476 53302380 "/>
<svg:path d="M46666666 52302380 L46190476 52302380 L46142857 52778571 L46190476 52730952 L46285714 52683333 L46523809 52683333 L46619047 52730952 L46666666 52778571 L46714285 52873809 L46714285 53111904 L46666666 53207142 L46619047 53254761 L46523809 53302380 L46285714 53302380 L46190476 53254761 L46142857 53207142 "/>
<svg:path d="M47142857 53207142 L47190476 53254761 L47142857 53302380 L47095238 53254761 L47142857 53207142 L47142857 53302380 "/>
<svg:path d="M48142857 53302380 L47571428 53302380 "/>
<svg:path d="M47857142 53302380 L47857142 52302380 L47761904 52445238 L47666666 52540476 L47571428 52588095 "/>
<svg:path d="M48571428 53302380 L48571428 52635714 "/>
<svg:path d="M48571428 52730952 L48619047 52683333 L48714285 52635714 L48857142 52635714 L48952380 52683333 L49000000 52778571 L49000000 53302380 "/>
<svg:path d="M49000000 52778571 L49047619 52683333 L49142857 52635714 L49285714 52635714 L49380952 52683333 L49428571 52778571 L49428571 53302380 "/>
<svg:path d="M49904761 53302380 L49904761 52635714 "/>
<svg:path d="M49904761 52730952 L49952380 52683333 L50047619 52635714 L50190476 52635714 L50285714 52683333 L50333333 52778571 L50333333 53302380 "/>
<svg:path d="M50333333 52778571 L50380952 52683333 L50476190 52635714 L50619047 52635714 L50714285 52683333 L50761904 52778571 L50761904 53302380 "/>
<svg:path d="M51000000 53397619 L51761904 53397619 "/>
<svg:path d="M51904761 52302380 L52142857 53302380 L52333333 52588095 L52523809 53302380 L52761904 52302380 "/>
<svg:path d="M53047619 52302380 L53666666 52302380 L53333333 52683333 L53476190 52683333 L53571428 52730952 L53619047 52778571 L53666666 52873809 L53666666 53111904 L53619047 53207142 L53571428 53254761 L53476190 53302380 L53190476 53302380 L53095238 53254761 L53047619 53207142 "/>
<svg:path d="M54095238 53207142 L54142857 53254761 L54095238 53302380 L54047619 53254761 L54095238 53207142 L54095238 53302380 "/>
<svg:path d="M54523809 52397619 L54571428 52350000 L54666666 52302380 L54904761 52302380 L55000000 52350000 L55047619 52397619 L55095238 52492857 L55095238 52588095 L55047619 52730952 L54476190 53302380 L55095238 53302380 "/>
<svg:path d="M55523809 53302380 L55523809 52635714 "/>
<svg:path d="M55523809 52730952 L55571428 52683333 L55666666 52635714 L55809523 52635714 L55904761 52683333 L55952380 52778571 L55952380 53302380 "/>
<svg:path d="M55952380 52778571 L56000000 52683333 L56095238 52635714 L56238095 52635714 L56333333 52683333 L56380952 52778571 L56380952 53302380 "/>
<svg:path d="M56857142 53302380 L56857142 52635714 "/>
<svg:path d="M56857142 52730952 L56904761 52683333 L57000000 52635714 L57142857 52635714 L57238095 52683333 L57285714 52778571 L57285714 53302380 "/>
<svg:path d="M57285714 52778571 L57333333 52683333 L57428571 52635714 L57571428 52635714 L57666666 52683333 L57714285 52778571 L57714285 53302380 "/>
<svg:path d="M57952380 53397619 L58714285 53397619 "/>
<svg:path d="M58952380 53302380 L58952380 52302380 L59333333 52302380 L59428571 52350000 L59476190 52397619 L59523809 52492857 L59523809 52635714 L59476190 52730952 L59428571 52778571 L59333333 52826190 L58952380 52826190 "/>
<svg:path d="M60428571 52302380 L59952380 52302380 L59904761 52778571 L59952380 52730952 L60047619 52683333 L60285714 52683333 L60380952 52730952 L60428571 52778571 L60476190 52873809 L60476190 53111904 L60428571 53207142 L60380952 53254761 L60285714 53302380 L60047619 53302380 L59952380 53254761 L59904761 53207142 "/>
<svg:path d="M60904761 53207142 L60952380 53254761 L60904761 53302380 L60857142 53254761 L60904761 53207142 L60904761 53302380 "/>
<svg:path d="M61571428 52302380 L61666666 52302380 L61761904 52350000 L61809523 52397619 L61857142 52492857 L61904761 52683333 L61904761 52921428 L61857142 53111904 L61809523 53207142 L61761904 53254761 L61666666 53302380 L61571428 53302380 L61476190 53254761 L61428571 53207142 L61380952 53111904 L61333333 52921428 L61333333 52683333 L61380952 52492857 L61428571 52397619 L61476190 52350000 L61571428 52302380 "/>
<svg:path d="M62523809 52302380 L62619047 52302380 L62714285 52350000 L62761904 52397619 L62809523 52492857 L62857142 52683333 L62857142 52921428 L62809523 53111904 L62761904 53207142 L62714285 53254761 L62619047 53302380 L62523809 53302380 L62428571 53254761 L62380952 53207142 L62333333 53111904 L62285714 52921428 L62285714 52683333 L62333333 52492857 L62380952 52397619 L62428571 52350000 L62523809 52302380 "/>
<svg:path d="M63285714 53302380 L63285714 52635714 "/>
<svg:path d="M63285714 52730952 L63333333 52683333 L63428571 52635714 L63571428 52635714 L63666666 52683333 L63714285 52778571 L63714285 53302380 "/>
<svg:path d="M63714285 52778571 L63761904 52683333 L63857142 52635714 L64000000 52635714 L64095238 52683333 L64142857 52778571 L64142857 53302380 "/>
<svg:path d="M64619047 53302380 L64619047 52635714 "/>
<svg:path d="M64619047 52730952 L64666666 52683333 L64761904 52635714 L64904761 52635714 L65000000 52683333 L65047619 52778571 L65047619 53302380 "/>
<svg:path d="M65047619 52778571 L65095238 52683333 L65190476 52635714 L65333333 52635714 L65428571 52683333 L65476190 52778571 L65476190 53302380 "/>
</svg:g><svg:text x="52500000.000000" y="50500000.000000" textLength="16337857.000000" font-size="1333333.000000" lengthAdjust="spacingAndGlyphs" text-anchor="middle" opacity="0">FZKCCDISCD51W32P5</svg:text>
<svg:g class="stroked-text"><svg:desc>FZKCCDISCD51W32P5</svg:desc>
<svg:path d="M45000000 49928571 L44666666 49928571 "/>
<svg:path d="M44666666 50452380 L44666666 49452380 L45142857 49452380 "/>
<svg:path d="M45428571 49452380 L46095238 49452380 L45428571 50452380 L46095238 50452380 "/>
<svg:path d="M46476190 50452380 L46476190 49452380 "/>
<svg:path d="M47047619 50452380 L46619047 49880952 "/>
<svg:path d="M47047619 49452380 L46476190 50023809 "/>
<svg:path d="M48047619 50357142 L48000000 50404761 L47857142 50452380 L47761904 50452380 L47619047 50404761 L47523809 50309523 L47476190 50214285 L47428571 50023809 L47428571 49880952 L47476190 49690476 L47523809 49595238 L47619047 49500000 L47761904 49452380 L47857142 49452380 L48000000 49500000 L48047619 49547619 "/>
<svg:path d="M49047619 50357142 L49000000 50404761 L48857142 50452380 L48761904 50452380 L48619047 50404761 L48523809 50309523 L48476190 50214285 L48428571 50023809 L48428571 49880952 L48476190 49690476 L48523809 49595238 L48619047 49500000 L48761904 49452380 L48857142 49452380 L49000000 49500000 L49047619 49547619 "/>
<svg:path d="M49476190 50452380 L49476190 49452380 L49714285 49452380 L49857142 49500000 L49952380 49595238 L50000000 49690476 L50047619 49880952 L50047619 50023809 L50000000 50214285 L49952380 50309523 L49857142 50404761 L49714285 50452380 L49476190 50452380 "/>
<svg:path d="M50476190 50452380 L50476190 49452380 "/>
<svg:path d="M50904761 50404761 L51047619 50452380 L51285714 50452380 L51380952 50404761 L51428571 50357142 L51476190 50261904 L51476190 50166666 L51428571 50071428 L51380952 50023809 L51285714 49976190 L51095238 49928571 L51000000 49880952 L50952380 49833333 L50904761 49738095 L50904761 49642857 L50952380 49547619 L51000000 49500000 L51095238 49452380 L51333333 49452380 L51476190 49500000 "/>
<svg:path d="M52476190 50357142 L52428571 50404761 L52285714 50452380 L52190476 50452380 L52047619 50404761 L51952380 50309523 L51904761 50214285 L51857142 50023809 L51857142 49880952 L51904761 49690476 L51952380 49595238 L52047619 49500000 L52190476 49452380 L52285714 49452380 L52428571 49500000 L52476190 49547619 "/>
<svg:path d="M52904761 50452380 L52904761 49452380 L53142857 49452380 L53285714 49500000 L53380952 49595238 L53428571 49690476 L53476190 49880952 L53476190 50023809 L53428571 50214285 L53380952 50309523 L53285714 50404761 L53142857 50452380 L52904761 50452380 "/>
<svg:path d="M54380952 49452380 L53904761 49452380 L53857142 49928571 L53904761 49880952 L54000000 49833333 L54238095 49833333 L54333333 49880952 L54380952 49928571 L54428571 50023809 L54428571 50261904 L54380952 50357142 L54333333 50404761 L54238095 50452380 L54000000 50452380 L53904761 50404761 L53857142 50357142 "/>
<svg:path d="M55380952 50452380 L54809523 50452380 "/>
<svg:path d="M55095238 50452380 L55095238 49452380 L55000000 49595238 L54904761 49690476 L54809523 49738095 "/>
<svg:path d="M55714285 49452380 L55952380 50452380 L56142857 49738095 L56333333 50452380 L56571428 49452380 "/>
<svg:path d="M56857142 49452380 L57476190 49452380 L57142857 49833333 L57285714 49833333 L57380952 49880952 L57428571 49928571 L57476190 50023809 L57476190 50261904 L57428571 50357142 L57380952 50404761 L57285714 50452380 L57000000 50452380 L56904761 50404761 L56857142 50357142 "/>
<svg:path d="M57857142 49547619 L57904761 49500000 L58000000 49452380 L58238095 49452380 L58333333 49500000 L58380952 49547619 L58428571 49642857 L58428571 49738095 L58380952 49880952 L57809523 50452380 L58428571 50452380 "/>
<svg:path d="M58857142 50452380 L58857142 49452380 L59238095 49452380 L59333333 49500000 L59380952 49547619 L59428571 49642857 L59428571 49785714 L59380952 49880952 L59333333 49928571 L59238095 49976190 L58857142 49976190 "/>
<svg:path d="M60333333 49452380 L59857142 49452380 L59809523 49928571 L59857142 49880952 L59952380 49833333 L60190476 49833333 L60285714 49880952 L60333333 49928571 L60380952 50023809 L60380952 50261904 L60333333 50357142 L60285714 50404761 L60190476 50452380 L59952380 50452380 L59857142 50404761 L59809523 50357142 "/>
</svg:g></svg:g>
<svg:g style="fill:#AFAFAF; fill-opacity:0.0;  stroke:#AFAFAF; stroke-width:100000.000000; stroke-opacity:1;  stroke-linecap:round; stroke-linejoin:round;">
<svg:path d="M55050000 48400000 L49950000 48400000 "/>
<svg:path d="M49950000 48400000 L49950000 51600000 "/>
<svg:path d="M49950000 51600000 L55050000 51600000 "/>
<svg:path d="M55050000 51600000 L55050000 48400000 "/>
<svg:g>
</svg:g>
<svg:g>
</svg:g>
<svg:g>
</svg:g>
<svg:g>
</svg:g>
</svg:g>
<svg:g style="fill:#000000; fill-opacity:0.0;  stroke:#000000; stroke-width:100000.000000; stroke-opacity:1;  stroke-linecap:round; stroke-linejoin:round;">
<svg:g>
</svg:g>
<svg:g>
</svg:g>
<svg:g>
</svg:g>
<svg:g>
</svg:g>
</svg:g> 
</svg:g><svg:g><svg:title>SVG Picture created as kicadBoard-F_Mask.svg date 2022/11/17 02:37:01 </svg:title>
  <svg:desc>Picture generated by PCBNEW </svg:desc>
<svg:g style="fill:#000000; fill-opacity:1.000000;stroke:#000000; stroke-opacity:1.000000; stroke-linecap:round; stroke-linejoin:round;" transform="translate(0 0) scale(1 1)">
</svg:g>
<svg:g style="fill:#000000; fill-opacity:0.0;  stroke:#000000; stroke-width:0.000000; stroke-opacity:1;  stroke-linecap:round; stroke-linejoin:round;">
<svg:g>
</svg:g>
<svg:g style="fill:#000000; fill-opacity:1.0;  stroke:#000000; stroke-width:1.000000; stroke-opacity:1;  stroke-linecap:round; stroke-linejoin:round;">
<svg:circle cx="50000000.000000" cy="50000000.000000" r="800000.000000"/> 
</svg:g>
<svg:g style="fill:#000000; fill-opacity:1.0;  stroke:#000000; stroke-width:21200.000000; stroke-opacity:1;  stroke-linecap:round; stroke-linejoin:round;">
</svg:g>
<svg:g style="fill:#000000; fill-opacity:1.0;  stroke:#000000; stroke-width:1.000000; stroke-opacity:1;  stroke-linecap:round; stroke-linejoin:round;">
<svg:circle cx="55000000.000000" cy="50000000.000000" r="800000.000000"/> 
</svg:g>
<svg:g style="fill:#000000; fill-opacity:1.0;  stroke:#000000; stroke-width:21200.000000; stroke-opacity:1;  stroke-linecap:round; stroke-linejoin:round;">
</svg:g>
<svg:g>
</svg:g>
<svg:g>
</svg:g>
<svg:g>
</svg:g>
</svg:g>
<svg:g style="fill:#000000; fill-opacity:1.0;  stroke:#000000; stroke-width:21200.000000; stroke-opacity:1;  stroke-linecap:round; stroke-linejoin:round;">
<svg:g>
</svg:g>
<svg:g>
</svg:g>
<svg:g>
</svg:g>
<svg:g>
</svg:g>
</svg:g> 
</svg:g><svg:g><svg:title>SVG Picture created as kicadBoard-F_Paste.svg date 2022/11/17 02:37:01 </svg:title>
  <svg:desc>Picture generated by PCBNEW </svg:desc>
<svg:g style="fill:#000000; fill-opacity:1.000000;stroke:#000000; stroke-opacity:1.000000; stroke-linecap:round; stroke-linejoin:round;" transform="translate(0 0) scale(1 1)">
</svg:g>
<svg:g style="fill:#000000; fill-opacity:0.0;  stroke:#000000; stroke-width:0.000000; stroke-opacity:1;  stroke-linecap:round; stroke-linejoin:round;">
<svg:g>
</svg:g>
<svg:g>
</svg:g>
<svg:g>
</svg:g>
<svg:g>
</svg:g>
</svg:g>
<svg:g style="fill:#000000; fill-opacity:0.0;  stroke:#000000; stroke-width:0.000000; stroke-opacity:1;  stroke-linecap:round; stroke-linejoin:round;">
<svg:g>
</svg:g>
<svg:g>
</svg:g>
<svg:g>
</svg:g>
<svg:g>
</svg:g>
</svg:g> 
</svg:g><svg:g><svg:title>SVG Picture created as kicadBoard-F_Silkscreen.svg date 2022/11/17 02:37:01 </svg:title>
  <svg:desc>Picture generated by PCBNEW </svg:desc>
<svg:g style="fill:#000000; fill-opacity:1.000000;stroke:#000000; stroke-opacity:1.000000; stroke-linecap:round; stroke-linejoin:round;" transform="translate(0 0) scale(1 1)">
</svg:g>
<svg:g style="fill:#000000; fill-opacity:0.0;  stroke:#000000; stroke-width:0.000000; stroke-opacity:1;  stroke-linecap:round; stroke-linejoin:round;">
</svg:g>
<svg:g style="fill:#F2EDA1; fill-opacity:0.0;  stroke:#F2EDA1; stroke-width:0.000000; stroke-opacity:1;  stroke-linecap:round; stroke-linejoin:round;">
</svg:g>
<svg:g style="fill:#F2EDA1; fill-opacity:0.0;  stroke:#F2EDA1; stroke-width:150000.000000; stroke-opacity:1;  stroke-linecap:round; stroke-linejoin:round;">
<svg:text x="52500000.000000" y="47650000.000000" textLength="16142858.000000" font-size="1333333.000000" lengthAdjust="spacingAndGlyphs" text-anchor="middle" opacity="0">FZKCCDISCD51W32P5</svg:text>
<svg:g class="stroked-text"><svg:desc>FZKCCDISCD51W32P5</svg:desc>
<svg:path d="M45000000 47078571 L44666666 47078571 "/>
<svg:path d="M44666666 47602380 L44666666 46602380 L45142857 46602380 "/>
<svg:path d="M45428571 46602380 L46095238 46602380 L45428571 47602380 L46095238 47602380 "/>
<svg:path d="M46476190 47602380 L46476190 46602380 "/>
<svg:path d="M47047619 47602380 L46619047 47030952 "/>
<svg:path d="M47047619 46602380 L46476190 47173809 "/>
<svg:path d="M48047619 47507142 L48000000 47554761 L47857142 47602380 L47761904 47602380 L47619047 47554761 L47523809 47459523 L47476190 47364285 L47428571 47173809 L47428571 47030952 L47476190 46840476 L47523809 46745238 L47619047 46650000 L47761904 46602380 L47857142 46602380 L48000000 46650000 L48047619 46697619 "/>
<svg:path d="M49047619 47507142 L49000000 47554761 L48857142 47602380 L48761904 47602380 L48619047 47554761 L48523809 47459523 L48476190 47364285 L48428571 47173809 L48428571 47030952 L48476190 46840476 L48523809 46745238 L48619047 46650000 L48761904 46602380 L48857142 46602380 L49000000 46650000 L49047619 46697619 "/>
<svg:path d="M49476190 47602380 L49476190 46602380 L49714285 46602380 L49857142 46650000 L49952380 46745238 L50000000 46840476 L50047619 47030952 L50047619 47173809 L50000000 47364285 L49952380 47459523 L49857142 47554761 L49714285 47602380 L49476190 47602380 "/>
<svg:path d="M50476190 47602380 L50476190 46602380 "/>
<svg:path d="M50904761 47554761 L51047619 47602380 L51285714 47602380 L51380952 47554761 L51428571 47507142 L51476190 47411904 L51476190 47316666 L51428571 47221428 L51380952 47173809 L51285714 47126190 L51095238 47078571 L51000000 47030952 L50952380 46983333 L50904761 46888095 L50904761 46792857 L50952380 46697619 L51000000 46650000 L51095238 46602380 L51333333 46602380 L51476190 46650000 "/>
<svg:path d="M52476190 47507142 L52428571 47554761 L52285714 47602380 L52190476 47602380 L52047619 47554761 L51952380 47459523 L51904761 47364285 L51857142 47173809 L51857142 47030952 L51904761 46840476 L51952380 46745238 L52047619 46650000 L52190476 46602380 L52285714 46602380 L52428571 46650000 L52476190 46697619 "/>
<svg:path d="M52904761 47602380 L52904761 46602380 L53142857 46602380 L53285714 46650000 L53380952 46745238 L53428571 46840476 L53476190 47030952 L53476190 47173809 L53428571 47364285 L53380952 47459523 L53285714 47554761 L53142857 47602380 L52904761 47602380 "/>
<svg:path d="M54380952 46602380 L53904761 46602380 L53857142 47078571 L53904761 47030952 L54000000 46983333 L54238095 46983333 L54333333 47030952 L54380952 47078571 L54428571 47173809 L54428571 47411904 L54380952 47507142 L54333333 47554761 L54238095 47602380 L54000000 47602380 L53904761 47554761 L53857142 47507142 "/>
<svg:path d="M55380952 47602380 L54809523 47602380 "/>
<svg:path d="M55095238 47602380 L55095238 46602380 L55000000 46745238 L54904761 46840476 L54809523 46888095 "/>
<svg:path d="M55714285 46602380 L55952380 47602380 L56142857 46888095 L56333333 47602380 L56571428 46602380 "/>
<svg:path d="M56857142 46602380 L57476190 46602380 L57142857 46983333 L57285714 46983333 L57380952 47030952 L57428571 47078571 L57476190 47173809 L57476190 47411904 L57428571 47507142 L57380952 47554761 L57285714 47602380 L57000000 47602380 L56904761 47554761 L56857142 47507142 "/>
<svg:path d="M57857142 46697619 L57904761 46650000 L58000000 46602380 L58238095 46602380 L58333333 46650000 L58380952 46697619 L58428571 46792857 L58428571 46888095 L58380952 47030952 L57809523 47602380 L58428571 47602380 "/>
<svg:path d="M58857142 47602380 L58857142 46602380 L59238095 46602380 L59333333 46650000 L59380952 46697619 L59428571 46792857 L59428571 46935714 L59380952 47030952 L59333333 47078571 L59238095 47126190 L58857142 47126190 "/>
<svg:path d="M60333333 46602380 L59857142 46602380 L59809523 47078571 L59857142 47030952 L59952380 46983333 L60190476 46983333 L60285714 47030952 L60333333 47078571 L60380952 47173809 L60380952 47411904 L60333333 47507142 L60285714 47554761 L60190476 47602380 L59952380 47602380 L59857142 47554761 L59809523 47507142 "/>
</svg:g></svg:g>
<svg:g style="fill:#F2EDA1; fill-opacity:0.0;  stroke:#F2EDA1; stroke-width:120000.000000; stroke-opacity:1;  stroke-linecap:round; stroke-linejoin:round;">
<svg:path d="M49830000 48279000 L49830000 48945000 "/>
<svg:path d="M55170000 48279000 L55170000 48945000 "/>
<svg:path d="M55170000 51055000 L55170000 51721000 "/>
<svg:path d="M49830000 48279000 L55170000 48279000 "/>
<svg:path d="M49830000 51055000 L49830000 51721000 "/>
<svg:path d="M49830000 51721000 L55170000 51721000 "/>
<svg:g>
</svg:g>
<svg:g>
</svg:g>
<svg:g>
</svg:g>
<svg:g>
</svg:g>
</svg:g>
<svg:g style="fill:#000000; fill-opacity:0.0;  stroke:#000000; stroke-width:120000.000000; stroke-opacity:1;  stroke-linecap:round; stroke-linejoin:round;">
<svg:g>
</svg:g>
<svg:g>
</svg:g>
<svg:g>
</svg:g>
<svg:g>
</svg:g>
</svg:g> 
</svg:g><svg:g><svg:title>SVG Picture created as kicadBoard-Margin.svg date 2022/11/17 02:37:01 </svg:title>
  <svg:desc>Picture generated by PCBNEW </svg:desc>
<svg:g style="fill:#000000; fill-opacity:1.000000;stroke:#000000; stroke-opacity:1.000000; stroke-linecap:round; stroke-linejoin:round;" transform="translate(0 0) scale(1 1)">
</svg:g>
<svg:g style="fill:#000000; fill-opacity:0.0;  stroke:#000000; stroke-width:0.000000; stroke-opacity:1;  stroke-linecap:round; stroke-linejoin:round;">
<svg:g>
</svg:g>
<svg:g>
</svg:g>
<svg:g>
</svg:g>
<svg:g>
</svg:g>
</svg:g>
<svg:g style="fill:#000000; fill-opacity:0.0;  stroke:#000000; stroke-width:0.000000; stroke-opacity:1;  stroke-linecap:round; stroke-linejoin:round;">
<svg:g>
</svg:g>
<svg:g>
</svg:g>
<svg:g>
</svg:g>
<svg:g>
</svg:g>
</svg:g> 
</svg:g><svg:g><svg:title>SVG Picture created as kicadBoard-F_Cu.svg date 2022/11/17 02:37:01 </svg:title>
  <svg:desc>Picture generated by PCBNEW </svg:desc>
<svg:g style="fill:#000000; fill-opacity:1.000000;stroke:#000000; stroke-opacity:1.000000; stroke-linecap:round; stroke-linejoin:round;" transform="translate(0 0) scale(1 1)">
</svg:g>
<svg:g style="fill:#000000; fill-opacity:0.0;  stroke:#000000; stroke-width:0.000000; stroke-opacity:1;  stroke-linecap:round; stroke-linejoin:round;">
<svg:g>
</svg:g>
<svg:g style="fill:#C83434; fill-opacity:0.0;  stroke:#C83434; stroke-width:0.000000; stroke-opacity:1;  stroke-linecap:round; stroke-linejoin:round;">
</svg:g>
<svg:g style="fill:#C83434; fill-opacity:1.0;  stroke:#C83434; stroke-width:1.000000; stroke-opacity:1;  stroke-linecap:round; stroke-linejoin:round;">
<svg:circle cx="50000000.000000" cy="50000000.000000" r="800000.000000"/> 
</svg:g>
<svg:g style="fill:#C83434; fill-opacity:1.0;  stroke:#C83434; stroke-width:21200.000000; stroke-opacity:1;  stroke-linecap:round; stroke-linejoin:round;">
</svg:g>
<svg:g style="fill:#C83434; fill-opacity:1.0;  stroke:#C83434; stroke-width:1.000000; stroke-opacity:1;  stroke-linecap:round; stroke-linejoin:round;">
<svg:circle cx="55000000.000000" cy="50000000.000000" r="800000.000000"/> 
</svg:g>
<svg:g style="fill:#C83434; fill-opacity:1.0;  stroke:#C83434; stroke-width:21200.000000; stroke-opacity:1;  stroke-linecap:round; stroke-linejoin:round;">
</svg:g>
<svg:g>
</svg:g>
<svg:g>
</svg:g>
<svg:g>
</svg:g>
</svg:g>
<svg:g style="fill:#FFFFFF; fill-opacity:1.0;  stroke:#FFFFFF; stroke-width:21200.000000; stroke-opacity:1;  stroke-linecap:round; stroke-linejoin:round;">
</svg:g>
<svg:g style="fill:#FFFFFF; fill-opacity:1.0;  stroke:#FFFFFF; stroke-width:1.000000; stroke-opacity:1;  stroke-linecap:round; stroke-linejoin:round;">
<svg:circle cx="50000000.000000" cy="50000000.000000" r="400000.000000"/> 
</svg:g>
<svg:g style="fill:#FFFFFF; fill-opacity:1.0;  stroke:#FFFFFF; stroke-width:21200.000000; stroke-opacity:1;  stroke-linecap:round; stroke-linejoin:round;">
</svg:g>
<svg:g style="fill:#FFFFFF; fill-opacity:1.0;  stroke:#FFFFFF; stroke-width:1.000000; stroke-opacity:1;  stroke-linecap:round; stroke-linejoin:round;">
<svg:circle cx="55000000.000000" cy="50000000.000000" r="400000.000000"/> 
</svg:g>
<svg:g style="fill:#FFFFFF; fill-opacity:1.0;  stroke:#FFFFFF; stroke-width:21200.000000; stroke-opacity:1;  stroke-linecap:round; stroke-linejoin:round;">
</svg:g>
<svg:g style="fill:#000000; fill-opacity:1.0;  stroke:#000000; stroke-width:21200.000000; stroke-opacity:1;  stroke-linecap:round; stroke-linejoin:round;">
<svg:g>
</svg:g>
<svg:g>
</svg:g>
<svg:g>
</svg:g>
<svg:g>
</svg:g>
</svg:g> 
</svg:g></svg>
