<?xml version='1.0' encoding='ASCII' standalone='yes'?>
<svg xmlns:svg="http://www.w3.org/2000/svg" xmlns="http://www.w3.org/2000/svg" xmlns:xlink="http://www.w3.org/1999/xlink" version="1.1" width="9.999980cm" height="9.999980cm" viewBox="0 0 99999800 99999800">
<title>SVG Picture created as kicadBoard-B_Cu.svg date 2022/11/21 16:23:45 </title>
  <desc>Picture generated by PCBNEW </desc>
<g style="fill:#000000; fill-opacity:1.000000;stroke:#000000; stroke-opacity:1.000000; stroke-linecap:round; stroke-linejoin:round;" transform="translate(0 0) scale(1 1)">
</g>
<g style="fill:#000000; fill-opacity:0.0;  stroke:#000000; stroke-width:0.000000; stroke-opacity:1;  stroke-linecap:round; stroke-linejoin:round;">
<g>
</g>
<g>
</g>
<g>
</g>
<g>
</g>
</g>
<g style="fill:#FFFFFF; fill-opacity:0.0;  stroke:#FFFFFF; stroke-width:0.000000; stroke-opacity:1;  stroke-linecap:round; stroke-linejoin:round;">
</g>
<g style="fill:#000000; fill-opacity:0.0;  stroke:#000000; stroke-width:0.000000; stroke-opacity:1;  stroke-linecap:round; stroke-linejoin:round;">
<g>
</g>
<g>
</g>
<g>
</g>
<g>
</g>
</g> 
<svg:g><svg:title>SVG Picture created as kicadBoard-B_Adhesive.svg date 2022/11/21 16:23:45 </svg:title>
  <svg:desc>Picture generated by PCBNEW </svg:desc>
<svg:g style="fill:#000000; fill-opacity:1.000000;stroke:#000000; stroke-opacity:1.000000; stroke-linecap:round; stroke-linejoin:round;" transform="translate(0 0) scale(1 1)">
</svg:g>
<svg:g style="fill:#000000; fill-opacity:0.0;  stroke:#000000; stroke-width:0.000000; stroke-opacity:1;  stroke-linecap:round; stroke-linejoin:round;">
<svg:g>
</svg:g>
<svg:g>
</svg:g>
<svg:g>
</svg:g>
<svg:g>
</svg:g>
</svg:g>
<svg:g style="fill:#000000; fill-opacity:0.0;  stroke:#000000; stroke-width:0.000000; stroke-opacity:1;  stroke-linecap:round; stroke-linejoin:round;">
<svg:g>
</svg:g>
<svg:g>
</svg:g>
<svg:g>
</svg:g>
<svg:g>
</svg:g>
</svg:g> 
</svg:g><svg:g><svg:title>SVG Picture created as kicadBoard-B_Courtyard.svg date 2022/11/21 16:23:45 </svg:title>
  <svg:desc>Picture generated by PCBNEW </svg:desc>
<svg:g style="fill:#000000; fill-opacity:1.000000;stroke:#000000; stroke-opacity:1.000000; stroke-linecap:round; stroke-linejoin:round;" transform="translate(0 0) scale(1 1)">
</svg:g>
<svg:g style="fill:#000000; fill-opacity:0.0;  stroke:#000000; stroke-width:0.000000; stroke-opacity:1;  stroke-linecap:round; stroke-linejoin:round;">
<svg:g>
</svg:g>
<svg:g>
</svg:g>
<svg:g>
</svg:g>
<svg:g>
</svg:g>
</svg:g>
<svg:g style="fill:#000000; fill-opacity:0.0;  stroke:#000000; stroke-width:0.000000; stroke-opacity:1;  stroke-linecap:round; stroke-linejoin:round;">
<svg:g>
</svg:g>
<svg:g>
</svg:g>
<svg:g>
</svg:g>
<svg:g>
</svg:g>
</svg:g> 
</svg:g><svg:g><svg:title>SVG Picture created as kicadBoard-B_Fab.svg date 2022/11/21 16:23:45 </svg:title>
  <svg:desc>Picture generated by PCBNEW </svg:desc>
<svg:g style="fill:#000000; fill-opacity:1.000000;stroke:#000000; stroke-opacity:1.000000; stroke-linecap:round; stroke-linejoin:round;" transform="translate(0 0) scale(1 1)">
</svg:g>
<svg:g style="fill:#000000; fill-opacity:0.0;  stroke:#000000; stroke-width:0.000000; stroke-opacity:1;  stroke-linecap:round; stroke-linejoin:round;">
<svg:g>
</svg:g>
<svg:g>
</svg:g>
<svg:g>
</svg:g>
<svg:g>
</svg:g>
</svg:g>
<svg:g style="fill:#000000; fill-opacity:0.0;  stroke:#000000; stroke-width:0.000000; stroke-opacity:1;  stroke-linecap:round; stroke-linejoin:round;">
<svg:g>
</svg:g>
<svg:g>
</svg:g>
<svg:g>
</svg:g>
<svg:g>
</svg:g>
</svg:g> 
</svg:g><svg:g><svg:title>SVG Picture created as kicadBoard-B_Mask.svg date 2022/11/21 16:23:45 </svg:title>
  <svg:desc>Picture generated by PCBNEW </svg:desc>
<svg:g style="fill:#000000; fill-opacity:1.000000;stroke:#000000; stroke-opacity:1.000000; stroke-linecap:round; stroke-linejoin:round;" transform="translate(0 0) scale(1 1)">
</svg:g>
<svg:g style="fill:#000000; fill-opacity:0.0;  stroke:#000000; stroke-width:0.000000; stroke-opacity:1;  stroke-linecap:round; stroke-linejoin:round;">
<svg:g>
</svg:g>
<svg:g>
</svg:g>
<svg:g>
</svg:g>
<svg:g>
</svg:g>
</svg:g>
<svg:g style="fill:#000000; fill-opacity:0.0;  stroke:#000000; stroke-width:0.000000; stroke-opacity:1;  stroke-linecap:round; stroke-linejoin:round;">
<svg:g>
</svg:g>
<svg:g>
</svg:g>
<svg:g>
</svg:g>
<svg:g>
</svg:g>
</svg:g> 
</svg:g><svg:g><svg:title>SVG Picture created as kicadBoard-B_Paste.svg date 2022/11/21 16:23:45 </svg:title>
  <svg:desc>Picture generated by PCBNEW </svg:desc>
<svg:g style="fill:#000000; fill-opacity:1.000000;stroke:#000000; stroke-opacity:1.000000; stroke-linecap:round; stroke-linejoin:round;" transform="translate(0 0) scale(1 1)">
</svg:g>
<svg:g style="fill:#000000; fill-opacity:0.0;  stroke:#000000; stroke-width:0.000000; stroke-opacity:1;  stroke-linecap:round; stroke-linejoin:round;">
<svg:g>
</svg:g>
<svg:g>
</svg:g>
<svg:g>
</svg:g>
<svg:g>
</svg:g>
</svg:g>
<svg:g style="fill:#000000; fill-opacity:0.0;  stroke:#000000; stroke-width:0.000000; stroke-opacity:1;  stroke-linecap:round; stroke-linejoin:round;">
<svg:g>
</svg:g>
<svg:g>
</svg:g>
<svg:g>
</svg:g>
<svg:g>
</svg:g>
</svg:g> 
</svg:g><svg:g><svg:title>SVG Picture created as kicadBoard-B_Silkscreen.svg date 2022/11/21 16:23:45 </svg:title>
  <svg:desc>Picture generated by PCBNEW </svg:desc>
<svg:g style="fill:#000000; fill-opacity:1.000000;stroke:#000000; stroke-opacity:1.000000; stroke-linecap:round; stroke-linejoin:round;" transform="translate(0 0) scale(1 1)">
</svg:g>
<svg:g style="fill:#000000; fill-opacity:0.0;  stroke:#000000; stroke-width:0.000000; stroke-opacity:1;  stroke-linecap:round; stroke-linejoin:round;">
<svg:g>
</svg:g>
<svg:g>
</svg:g>
<svg:g>
</svg:g>
<svg:g>
</svg:g>
</svg:g>
<svg:g style="fill:#000000; fill-opacity:0.0;  stroke:#000000; stroke-width:0.000000; stroke-opacity:1;  stroke-linecap:round; stroke-linejoin:round;">
<svg:g>
</svg:g>
<svg:g>
</svg:g>
<svg:g>
</svg:g>
<svg:g>
</svg:g>
</svg:g> 
</svg:g><svg:g><svg:title>SVG Picture created as kicadBoard-Edge_Cuts.svg date 2022/11/21 16:23:45 </svg:title>
  <svg:desc>Picture generated by PCBNEW </svg:desc>
<svg:g style="fill:#000000; fill-opacity:1.000000;stroke:#000000; stroke-opacity:1.000000; stroke-linecap:round; stroke-linejoin:round;" transform="translate(0 0) scale(1 1)">
</svg:g>
<svg:g style="fill:#000000; fill-opacity:0.0;  stroke:#000000; stroke-width:0.000000; stroke-opacity:1;  stroke-linecap:round; stroke-linejoin:round;">
<svg:g>
</svg:g>
<svg:g>
</svg:g>
<svg:g>
</svg:g>
<svg:g>
</svg:g>
</svg:g> 
</svg:g><svg:g><svg:title>SVG Picture created as kicadBoard-F_Adhesive.svg date 2022/11/21 16:23:45 </svg:title>
  <svg:desc>Picture generated by PCBNEW </svg:desc>
<svg:g style="fill:#000000; fill-opacity:1.000000;stroke:#000000; stroke-opacity:1.000000; stroke-linecap:round; stroke-linejoin:round;" transform="translate(0 0) scale(1 1)">
</svg:g>
<svg:g style="fill:#000000; fill-opacity:0.0;  stroke:#000000; stroke-width:0.000000; stroke-opacity:1;  stroke-linecap:round; stroke-linejoin:round;">
<svg:g>
</svg:g>
<svg:g>
</svg:g>
<svg:g>
</svg:g>
<svg:g>
</svg:g>
</svg:g>
<svg:g style="fill:#000000; fill-opacity:0.0;  stroke:#000000; stroke-width:0.000000; stroke-opacity:1;  stroke-linecap:round; stroke-linejoin:round;">
<svg:g>
</svg:g>
<svg:g>
</svg:g>
<svg:g>
</svg:g>
<svg:g>
</svg:g>
</svg:g> 
</svg:g><svg:g><svg:title>SVG Picture created as kicadBoard-F_Courtyard.svg date 2022/11/21 16:23:45 </svg:title>
  <svg:desc>Picture generated by PCBNEW </svg:desc>
<svg:g style="fill:#000000; fill-opacity:1.000000;stroke:#000000; stroke-opacity:1.000000; stroke-linecap:round; stroke-linejoin:round;" transform="translate(0 0) scale(1 1)">
</svg:g>
<svg:g style="fill:#000000; fill-opacity:0.0;  stroke:#000000; stroke-width:0.000000; stroke-opacity:1;  stroke-linecap:round; stroke-linejoin:round;">
</svg:g>
<svg:g style="fill:#FF26E2; fill-opacity:0.0;  stroke:#FF26E2; stroke-width:0.000000; stroke-opacity:1;  stroke-linecap:round; stroke-linejoin:round;">
</svg:g>
<svg:g style="fill:#FF26E2; fill-opacity:0.0;  stroke:#FF26E2; stroke-width:50000.000000; stroke-opacity:1;  stroke-linecap:round; stroke-linejoin:round;">
<svg:path d="M40900000 46800000 L40900000 53200000 "/>
<svg:path d="M40900000 53200000 L59100000 53200000 "/>
<svg:path d="M59100000 53200000 L59100000 46800000 "/>
<svg:path d="M59100000 46800000 L40900000 46800000 "/>
<svg:g>
</svg:g>
<svg:g>
</svg:g>
<svg:g>
</svg:g>
<svg:g>
</svg:g>
</svg:g>
<svg:g style="fill:#000000; fill-opacity:0.0;  stroke:#000000; stroke-width:50000.000000; stroke-opacity:1;  stroke-linecap:round; stroke-linejoin:round;">
<svg:g>
</svg:g>
<svg:g>
</svg:g>
<svg:g>
</svg:g>
<svg:g>
</svg:g>
</svg:g> 
</svg:g><svg:g><svg:title>SVG Picture created as kicadBoard-F_Fab.svg date 2022/11/21 16:23:45 </svg:title>
  <svg:desc>Picture generated by PCBNEW </svg:desc>
<svg:g style="fill:#000000; fill-opacity:1.000000;stroke:#000000; stroke-opacity:1.000000; stroke-linecap:round; stroke-linejoin:round;" transform="translate(0 0) scale(1 1)">
</svg:g>
<svg:g style="fill:#000000; fill-opacity:0.0;  stroke:#000000; stroke-width:0.000000; stroke-opacity:1;  stroke-linecap:round; stroke-linejoin:round;">
</svg:g>
<svg:g style="fill:#AFAFAF; fill-opacity:0.0;  stroke:#AFAFAF; stroke-width:0.000000; stroke-opacity:1;  stroke-linecap:round; stroke-linejoin:round;">
</svg:g>
<svg:g style="fill:#AFAFAF; fill-opacity:0.0;  stroke:#AFAFAF; stroke-width:150000.000000; stroke-opacity:1;  stroke-linecap:round; stroke-linejoin:round;">
<svg:text x="50000000.000000" y="54400000.000000" textLength="43433095.000000" font-size="1333333.000000" lengthAdjust="spacingAndGlyphs" text-anchor="middle" opacity="0">JST_GH_SM11B-GHS-TB_1x11-1MP_P1.25mm_Horizontal</svg:text>
<svg:g class="stroked-text"><svg:desc>JST_GH_SM11B-GHS-TB_1x11-1MP_P1.25mm_Horizontal</svg:desc>
<svg:path d="M28904761 53352380 L28904761 54066666 L28857142 54209523 L28761904 54304761 L28619047 54352380 L28523809 54352380 "/>
<svg:path d="M29333333 54304761 L29476190 54352380 L29714285 54352380 L29809523 54304761 L29857142 54257142 L29904761 54161904 L29904761 54066666 L29857142 53971428 L29809523 53923809 L29714285 53876190 L29523809 53828571 L29428571 53780952 L29380952 53733333 L29333333 53638095 L29333333 53542857 L29380952 53447619 L29428571 53400000 L29523809 53352380 L29761904 53352380 L29904761 53400000 "/>
<svg:path d="M30190476 53352380 L30761904 53352380 "/>
<svg:path d="M30476190 54352380 L30476190 53352380 "/>
<svg:path d="M30857142 54447619 L31619047 54447619 "/>
<svg:path d="M32380952 53400000 L32285714 53352380 L32142857 53352380 L32000000 53400000 L31904761 53495238 L31857142 53590476 L31809523 53780952 L31809523 53923809 L31857142 54114285 L31904761 54209523 L32000000 54304761 L32142857 54352380 L32238095 54352380 L32380952 54304761 L32428571 54257142 L32428571 53923809 L32238095 53923809 "/>
<svg:path d="M32857142 54352380 L32857142 53352380 "/>
<svg:path d="M32857142 53828571 L33428571 53828571 "/>
<svg:path d="M33428571 54352380 L33428571 53352380 "/>
<svg:path d="M33666666 54447619 L34428571 54447619 "/>
<svg:path d="M34619047 54304761 L34761904 54352380 L35000000 54352380 L35095238 54304761 L35142857 54257142 L35190476 54161904 L35190476 54066666 L35142857 53971428 L35095238 53923809 L35000000 53876190 L34809523 53828571 L34714285 53780952 L34666666 53733333 L34619047 53638095 L34619047 53542857 L34666666 53447619 L34714285 53400000 L34809523 53352380 L35047619 53352380 L35190476 53400000 "/>
<svg:path d="M35619047 54352380 L35619047 53352380 L35952380 54066666 L36285714 53352380 L36285714 54352380 "/>
<svg:path d="M37285714 54352380 L36714285 54352380 "/>
<svg:path d="M37000000 54352380 L37000000 53352380 L36904761 53495238 L36809523 53590476 L36714285 53638095 "/>
<svg:path d="M38238095 54352380 L37666666 54352380 "/>
<svg:path d="M37952380 54352380 L37952380 53352380 L37857142 53495238 L37761904 53590476 L37666666 53638095 "/>
<svg:path d="M39000000 53828571 L39142857 53876190 L39190476 53923809 L39238095 54019047 L39238095 54161904 L39190476 54257142 L39142857 54304761 L39047619 54352380 L38666666 54352380 L38666666 53352380 L39000000 53352380 L39095238 53400000 L39142857 53447619 L39190476 53542857 L39190476 53638095 L39142857 53733333 L39095238 53780952 L39000000 53828571 L38666666 53828571 "/>
<svg:path d="M39666666 53971428 L40428571 53971428 "/>
<svg:path d="M41428571 53400000 L41333333 53352380 L41190476 53352380 L41047619 53400000 L40952380 53495238 L40904761 53590476 L40857142 53780952 L40857142 53923809 L40904761 54114285 L40952380 54209523 L41047619 54304761 L41190476 54352380 L41285714 54352380 L41428571 54304761 L41476190 54257142 L41476190 53923809 L41285714 53923809 "/>
<svg:path d="M41904761 54352380 L41904761 53352380 "/>
<svg:path d="M41904761 53828571 L42476190 53828571 "/>
<svg:path d="M42476190 54352380 L42476190 53352380 "/>
<svg:path d="M42904761 54304761 L43047619 54352380 L43285714 54352380 L43380952 54304761 L43428571 54257142 L43476190 54161904 L43476190 54066666 L43428571 53971428 L43380952 53923809 L43285714 53876190 L43095238 53828571 L43000000 53780952 L42952380 53733333 L42904761 53638095 L42904761 53542857 L42952380 53447619 L43000000 53400000 L43095238 53352380 L43333333 53352380 L43476190 53400000 "/>
<svg:path d="M43904761 53971428 L44666666 53971428 "/>
<svg:path d="M45000000 53352380 L45571428 53352380 "/>
<svg:path d="M45285714 54352380 L45285714 53352380 "/>
<svg:path d="M46238095 53828571 L46380952 53876190 L46428571 53923809 L46476190 54019047 L46476190 54161904 L46428571 54257142 L46380952 54304761 L46285714 54352380 L45904761 54352380 L45904761 53352380 L46238095 53352380 L46333333 53400000 L46380952 53447619 L46428571 53542857 L46428571 53638095 L46380952 53733333 L46333333 53780952 L46238095 53828571 L45904761 53828571 "/>
<svg:path d="M46666666 54447619 L47428571 54447619 "/>
<svg:path d="M48190476 54352380 L47619047 54352380 "/>
<svg:path d="M47904761 54352380 L47904761 53352380 L47809523 53495238 L47714285 53590476 L47619047 53638095 "/>
<svg:path d="M48523809 54352380 L49047619 53685714 "/>
<svg:path d="M48523809 53685714 L49047619 54352380 "/>
<svg:path d="M49952380 54352380 L49380952 54352380 "/>
<svg:path d="M49666666 54352380 L49666666 53352380 L49571428 53495238 L49476190 53590476 L49380952 53638095 "/>
<svg:path d="M50904761 54352380 L50333333 54352380 "/>
<svg:path d="M50619047 54352380 L50619047 53352380 L50523809 53495238 L50428571 53590476 L50333333 53638095 "/>
<svg:path d="M51333333 53971428 L52095238 53971428 "/>
<svg:path d="M53095238 54352380 L52523809 54352380 "/>
<svg:path d="M52809523 54352380 L52809523 53352380 L52714285 53495238 L52619047 53590476 L52523809 53638095 "/>
<svg:path d="M53523809 54352380 L53523809 53352380 L53857142 54066666 L54190476 53352380 L54190476 54352380 "/>
<svg:path d="M54666666 54352380 L54666666 53352380 L55047619 53352380 L55142857 53400000 L55190476 53447619 L55238095 53542857 L55238095 53685714 L55190476 53780952 L55142857 53828571 L55047619 53876190 L54666666 53876190 "/>
<svg:path d="M55428571 54447619 L56190476 54447619 "/>
<svg:path d="M56428571 54352380 L56428571 53352380 L56809523 53352380 L56904761 53400000 L56952380 53447619 L56999999 53542857 L56999999 53685714 L56952380 53780952 L56904761 53828571 L56809523 53876190 L56428571 53876190 "/>
<svg:path d="M57952380 54352380 L57380952 54352380 "/>
<svg:path d="M57666666 54352380 L57666666 53352380 L57571428 53495238 L57476190 53590476 L57380952 53638095 "/>
<svg:path d="M58380952 54257142 L58428571 54304761 L58380952 54352380 L58333333 54304761 L58380952 54257142 L58380952 54352380 "/>
<svg:path d="M58809523 53447619 L58857142 53400000 L58952380 53352380 L59190476 53352380 L59285714 53400000 L59333333 53447619 L59380952 53542857 L59380952 53638095 L59333333 53780952 L58761904 54352380 L59380952 54352380 "/>
<svg:path d="M60285714 53352380 L59809523 53352380 L59761904 53828571 L59809523 53780952 L59904761 53733333 L60142857 53733333 L60238095 53780952 L60285714 53828571 L60333333 53923809 L60333333 54161904 L60285714 54257142 L60238095 54304761 L60142857 54352380 L59904761 54352380 L59809523 54304761 L59761904 54257142 "/>
<svg:path d="M60761904 54352380 L60761904 53685714 "/>
<svg:path d="M60761904 53780952 L60809523 53733333 L60904761 53685714 L61047619 53685714 L61142857 53733333 L61190476 53828571 L61190476 54352380 "/>
<svg:path d="M61190476 53828571 L61238095 53733333 L61333333 53685714 L61476190 53685714 L61571428 53733333 L61619047 53828571 L61619047 54352380 "/>
<svg:path d="M62095238 54352380 L62095238 53685714 "/>
<svg:path d="M62095238 53780952 L62142857 53733333 L62238095 53685714 L62380952 53685714 L62476190 53733333 L62523809 53828571 L62523809 54352380 "/>
<svg:path d="M62523809 53828571 L62571428 53733333 L62666666 53685714 L62809523 53685714 L62904761 53733333 L62952380 53828571 L62952380 54352380 "/>
<svg:path d="M63190476 54447619 L63952380 54447619 "/>
<svg:path d="M64190476 54352380 L64190476 53352380 "/>
<svg:path d="M64190476 53828571 L64761904 53828571 "/>
<svg:path d="M64761904 54352380 L64761904 53352380 "/>
<svg:path d="M65380952 54352380 L65285714 54304761 L65238095 54257142 L65190476 54161904 L65190476 53876190 L65238095 53780952 L65285714 53733333 L65380952 53685714 L65523809 53685714 L65619047 53733333 L65666666 53780952 L65714285 53876190 L65714285 54161904 L65666666 54257142 L65619047 54304761 L65523809 54352380 L65380952 54352380 "/>
<svg:path d="M66142857 54352380 L66142857 53685714 "/>
<svg:path d="M66142857 53876190 L66190476 53780952 L66238095 53733333 L66333333 53685714 L66428571 53685714 "/>
<svg:path d="M66761904 54352380 L66761904 53685714 "/>
<svg:path d="M66761904 53352380 L66714285 53400000 L66761904 53447619 L66809523 53400000 L66761904 53352380 L66761904 53447619 "/>
<svg:path d="M67142857 53685714 L67666666 53685714 L67142857 54352380 L67666666 54352380 "/>
<svg:path d="M68190476 54352380 L68095238 54304761 L68047619 54257142 L67999999 54161904 L67999999 53876190 L68047619 53780952 L68095238 53733333 L68190476 53685714 L68333333 53685714 L68428571 53733333 L68476190 53780952 L68523809 53876190 L68523809 54161904 L68476190 54257142 L68428571 54304761 L68333333 54352380 L68190476 54352380 "/>
<svg:path d="M68952380 53685714 L68952380 54352380 "/>
<svg:path d="M68952380 53780952 L68999999 53733333 L69095238 53685714 L69238095 53685714 L69333333 53733333 L69380952 53828571 L69380952 54352380 "/>
<svg:path d="M69714285 53685714 L70095238 53685714 "/>
<svg:path d="M69857142 53352380 L69857142 54209523 L69904761 54304761 L69999999 54352380 L70095238 54352380 "/>
<svg:path d="M70857142 54352380 L70857142 53828571 L70809523 53733333 L70714285 53685714 L70523809 53685714 L70428571 53733333 "/>
<svg:path d="M70857142 54304761 L70761904 54352380 L70523809 54352380 L70428571 54304761 L70380952 54209523 L70380952 54114285 L70428571 54019047 L70523809 53971428 L70761904 53971428 L70857142 53923809 "/>
<svg:path d="M71476190 54352380 L71380952 54304761 L71333333 54209523 L71333333 53352380 "/>
</svg:g><svg:text x="50000000.000000" y="50500000.000000" textLength="33623571.000000" font-size="1333333.000000" lengthAdjust="spacingAndGlyphs" text-anchor="middle" opacity="0">FZKCNJSTJSTGHSM11BGHSTB1X111MPP125H</svg:text>
<svg:g class="stroked-text"><svg:desc>FZKCNJSTJSTGHSM11BGHSTB1X111MPP125H</svg:desc>
<svg:path d="M33857142 49928571 L33523809 49928571 "/>
<svg:path d="M33523809 50452380 L33523809 49452380 L34000000 49452380 "/>
<svg:path d="M34285714 49452380 L34952380 49452380 L34285714 50452380 L34952380 50452380 "/>
<svg:path d="M35333333 50452380 L35333333 49452380 "/>
<svg:path d="M35904761 50452380 L35476190 49880952 "/>
<svg:path d="M35904761 49452380 L35333333 50023809 "/>
<svg:path d="M36904761 50357142 L36857142 50404761 L36714285 50452380 L36619047 50452380 L36476190 50404761 L36380952 50309523 L36333333 50214285 L36285714 50023809 L36285714 49880952 L36333333 49690476 L36380952 49595238 L36476190 49500000 L36619047 49452380 L36714285 49452380 L36857142 49500000 L36904761 49547619 "/>
<svg:path d="M37333333 50452380 L37333333 49452380 L37904761 50452380 L37904761 49452380 "/>
<svg:path d="M38666666 49452380 L38666666 50166666 L38619047 50309523 L38523809 50404761 L38380952 50452380 L38285714 50452380 "/>
<svg:path d="M39095238 50404761 L39238095 50452380 L39476190 50452380 L39571428 50404761 L39619047 50357142 L39666666 50261904 L39666666 50166666 L39619047 50071428 L39571428 50023809 L39476190 49976190 L39285714 49928571 L39190476 49880952 L39142857 49833333 L39095238 49738095 L39095238 49642857 L39142857 49547619 L39190476 49500000 L39285714 49452380 L39523809 49452380 L39666666 49500000 "/>
<svg:path d="M39952380 49452380 L40523809 49452380 "/>
<svg:path d="M40238095 50452380 L40238095 49452380 "/>
<svg:path d="M41142857 49452380 L41142857 50166666 L41095238 50309523 L41000000 50404761 L40857142 50452380 L40761904 50452380 "/>
<svg:path d="M41571428 50404761 L41714285 50452380 L41952380 50452380 L42047619 50404761 L42095238 50357142 L42142857 50261904 L42142857 50166666 L42095238 50071428 L42047619 50023809 L41952380 49976190 L41761904 49928571 L41666666 49880952 L41619047 49833333 L41571428 49738095 L41571428 49642857 L41619047 49547619 L41666666 49500000 L41761904 49452380 L42000000 49452380 L42142857 49500000 "/>
<svg:path d="M42428571 49452380 L43000000 49452380 "/>
<svg:path d="M42714285 50452380 L42714285 49452380 "/>
<svg:path d="M43857142 49500000 L43761904 49452380 L43619047 49452380 L43476190 49500000 L43380952 49595238 L43333333 49690476 L43285714 49880952 L43285714 50023809 L43333333 50214285 L43380952 50309523 L43476190 50404761 L43619047 50452380 L43714285 50452380 L43857142 50404761 L43904761 50357142 L43904761 50023809 L43714285 50023809 "/>
<svg:path d="M44333333 50452380 L44333333 49452380 "/>
<svg:path d="M44333333 49928571 L44904761 49928571 "/>
<svg:path d="M44904761 50452380 L44904761 49452380 "/>
<svg:path d="M45333333 50404761 L45476190 50452380 L45714285 50452380 L45809523 50404761 L45857142 50357142 L45904761 50261904 L45904761 50166666 L45857142 50071428 L45809523 50023809 L45714285 49976190 L45523809 49928571 L45428571 49880952 L45380952 49833333 L45333333 49738095 L45333333 49642857 L45380952 49547619 L45428571 49500000 L45523809 49452380 L45761904 49452380 L45904761 49500000 "/>
<svg:path d="M46333333 50452380 L46333333 49452380 L46666666 50166666 L46999999 49452380 L46999999 50452380 "/>
<svg:path d="M47999999 50452380 L47428571 50452380 "/>
<svg:path d="M47714285 50452380 L47714285 49452380 L47619047 49595238 L47523809 49690476 L47428571 49738095 "/>
<svg:path d="M48952380 50452380 L48380952 50452380 "/>
<svg:path d="M48666666 50452380 L48666666 49452380 L48571428 49595238 L48476190 49690476 L48380952 49738095 "/>
<svg:path d="M49714285 49928571 L49857142 49976190 L49904761 50023809 L49952380 50119047 L49952380 50261904 L49904761 50357142 L49857142 50404761 L49761904 50452380 L49380952 50452380 L49380952 49452380 L49714285 49452380 L49809523 49500000 L49857142 49547619 L49904761 49642857 L49904761 49738095 L49857142 49833333 L49809523 49880952 L49714285 49928571 L49380952 49928571 "/>
<svg:path d="M50904761 49500000 L50809523 49452380 L50666666 49452380 L50523809 49500000 L50428571 49595238 L50380952 49690476 L50333333 49880952 L50333333 50023809 L50380952 50214285 L50428571 50309523 L50523809 50404761 L50666666 50452380 L50761904 50452380 L50904761 50404761 L50952380 50357142 L50952380 50023809 L50761904 50023809 "/>
<svg:path d="M51380952 50452380 L51380952 49452380 "/>
<svg:path d="M51380952 49928571 L51952380 49928571 "/>
<svg:path d="M51952380 50452380 L51952380 49452380 "/>
<svg:path d="M52380952 50404761 L52523809 50452380 L52761904 50452380 L52857142 50404761 L52904761 50357142 L52952380 50261904 L52952380 50166666 L52904761 50071428 L52857142 50023809 L52761904 49976190 L52571428 49928571 L52476190 49880952 L52428571 49833333 L52380952 49738095 L52380952 49642857 L52428571 49547619 L52476190 49500000 L52571428 49452380 L52809523 49452380 L52952380 49500000 "/>
<svg:path d="M53238095 49452380 L53809523 49452380 "/>
<svg:path d="M53523809 50452380 L53523809 49452380 "/>
<svg:path d="M54476190 49928571 L54619047 49976190 L54666666 50023809 L54714285 50119047 L54714285 50261904 L54666666 50357142 L54619047 50404761 L54523809 50452380 L54142857 50452380 L54142857 49452380 L54476190 49452380 L54571428 49500000 L54619047 49547619 L54666666 49642857 L54666666 49738095 L54619047 49833333 L54571428 49880952 L54476190 49928571 L54142857 49928571 "/>
<svg:path d="M55666666 50452380 L55095238 50452380 "/>
<svg:path d="M55380952 50452380 L55380952 49452380 L55285714 49595238 L55190476 49690476 L55095238 49738095 "/>
<svg:path d="M55999999 49452380 L56666666 50452380 "/>
<svg:path d="M56666666 49452380 L55999999 50452380 "/>
<svg:path d="M57571428 50452380 L56999999 50452380 "/>
<svg:path d="M57285714 50452380 L57285714 49452380 L57190476 49595238 L57095238 49690476 L56999999 49738095 "/>
<svg:path d="M58523809 50452380 L57952380 50452380 "/>
<svg:path d="M58238095 50452380 L58238095 49452380 L58142857 49595238 L58047619 49690476 L57952380 49738095 "/>
<svg:path d="M59476190 50452380 L58904761 50452380 "/>
<svg:path d="M59190476 50452380 L59190476 49452380 L59095238 49595238 L58999999 49690476 L58904761 49738095 "/>
<svg:path d="M59904761 50452380 L59904761 49452380 L60238095 50166666 L60571428 49452380 L60571428 50452380 "/>
<svg:path d="M61047619 50452380 L61047619 49452380 L61428571 49452380 L61523809 49500000 L61571428 49547619 L61619047 49642857 L61619047 49785714 L61571428 49880952 L61523809 49928571 L61428571 49976190 L61047619 49976190 "/>
<svg:path d="M62047619 50452380 L62047619 49452380 L62428571 49452380 L62523809 49500000 L62571428 49547619 L62619047 49642857 L62619047 49785714 L62571428 49880952 L62523809 49928571 L62428571 49976190 L62047619 49976190 "/>
<svg:path d="M63571428 50452380 L62999999 50452380 "/>
<svg:path d="M63285714 50452380 L63285714 49452380 L63190476 49595238 L63095238 49690476 L62999999 49738095 "/>
<svg:path d="M63952380 49547619 L63999999 49500000 L64095238 49452380 L64333333 49452380 L64428571 49500000 L64476190 49547619 L64523809 49642857 L64523809 49738095 L64476190 49880952 L63904761 50452380 L64523809 50452380 "/>
<svg:path d="M65428571 49452380 L64952380 49452380 L64904761 49928571 L64952380 49880952 L65047619 49833333 L65285714 49833333 L65380952 49880952 L65428571 49928571 L65476190 50023809 L65476190 50261904 L65428571 50357142 L65380952 50404761 L65285714 50452380 L65047619 50452380 L64952380 50404761 L64904761 50357142 "/>
<svg:path d="M65904761 50452380 L65904761 49452380 "/>
<svg:path d="M65904761 49928571 L66476190 49928571 "/>
<svg:path d="M66476190 50452380 L66476190 49452380 "/>
</svg:g></svg:g>
<svg:g style="fill:#AFAFAF; fill-opacity:0.0;  stroke:#AFAFAF; stroke-width:100000.000000; stroke-opacity:1;  stroke-linecap:round; stroke-linejoin:round;">
<svg:path d="M41500000 48400000 L41500000 52450000 "/>
<svg:path d="M41500000 48400000 L58500000 48400000 "/>
<svg:path d="M43250000 48400000 L43750000 49107107 "/>
<svg:path d="M41500000 52450000 L58500000 52450000 "/>
<svg:path d="M43750000 49107107 L44250000 48400000 "/>
<svg:path d="M58500000 48400000 L58500000 52450000 "/>
<svg:g>
</svg:g>
<svg:g>
</svg:g>
<svg:g>
</svg:g>
<svg:g>
</svg:g>
</svg:g>
<svg:g style="fill:#000000; fill-opacity:0.0;  stroke:#000000; stroke-width:100000.000000; stroke-opacity:1;  stroke-linecap:round; stroke-linejoin:round;">
<svg:g>
</svg:g>
<svg:g>
</svg:g>
<svg:g>
</svg:g>
<svg:g>
</svg:g>
</svg:g> 
</svg:g><svg:g><svg:title>SVG Picture created as kicadBoard-F_Mask.svg date 2022/11/21 16:23:45 </svg:title>
  <svg:desc>Picture generated by PCBNEW </svg:desc>
<svg:g style="fill:#000000; fill-opacity:1.000000;stroke:#000000; stroke-opacity:1.000000; stroke-linecap:round; stroke-linejoin:round;" transform="translate(0 0) scale(1 1)">
</svg:g>
<svg:g style="fill:#000000; fill-opacity:0.0;  stroke:#000000; stroke-width:0.000000; stroke-opacity:1;  stroke-linecap:round; stroke-linejoin:round;">
<svg:g>
</svg:g>
<svg:g style="fill:#000000; fill-opacity:0.0;  stroke:#000000; stroke-width:1.000000; stroke-opacity:1;  stroke-linecap:round; stroke-linejoin:round;">
</svg:g>
<svg:g style="fill:#000000; fill-opacity:1.0;  stroke:#000000; stroke-width:1.000000; stroke-opacity:1;  stroke-linecap:round; stroke-linejoin:round;">
<svg:path style="fill:#000000; fill-opacity:1.0;  stroke:#000000; stroke-width:1.000000; stroke-opacity:1;  stroke-linecap:round; stroke-linejoin:round;fill-rule:evenodd;" d="M 43450000.000000,47450000.000000 43461418.000000,47392597.000000 43493934.000000,47343934.000000 43542597.000000,47311418.000000 43600000.000000,47300000.000000 43900000.000000,47300000.000000 43957403.000000,47311418.000000 44006066.000000,47343934.000000 44038582.000000,47392597.000000 44050000.000000,47450000.000000 44050000.000000,48850000.000000 44038582.000000,48907403.000000 44006066.000000,48956066.000000 43957403.000000,48988582.000000 43900000.000000,49000000.000000 43600000.000000,49000000.000000 43542597.000000,48988582.000000 43493934.000000,48956066.000000 43461418.000000,48907403.000000 43450000.000000,48850000.000000 Z"/> 
<svg:path style="fill:#000000; fill-opacity:1.0;  stroke:#000000; stroke-width:1.000000; stroke-opacity:1;  stroke-linecap:round; stroke-linejoin:round;fill-rule:evenodd;" d="M 44700000.000000,47450000.000000 44711418.000000,47392597.000000 44743934.000000,47343934.000000 44792597.000000,47311418.000000 44850000.000000,47300000.000000 45150000.000000,47300000.000000 45207403.000000,47311418.000000 45256066.000000,47343934.000000 45288582.000000,47392597.000000 45300000.000000,47450000.000000 45300000.000000,48850000.000000 45288582.000000,48907403.000000 45256066.000000,48956066.000000 45207403.000000,48988582.000000 45150000.000000,49000000.000000 44850000.000000,49000000.000000 44792597.000000,48988582.000000 44743934.000000,48956066.000000 44711418.000000,48907403.000000 44700000.000000,48850000.000000 Z"/> 
<svg:path style="fill:#000000; fill-opacity:1.0;  stroke:#000000; stroke-width:1.000000; stroke-opacity:1;  stroke-linecap:round; stroke-linejoin:round;fill-rule:evenodd;" d="M 45950000.000000,47450000.000000 45961418.000000,47392597.000000 45993934.000000,47343934.000000 46042597.000000,47311418.000000 46100000.000000,47300000.000000 46400000.000000,47300000.000000 46457403.000000,47311418.000000 46506066.000000,47343934.000000 46538582.000000,47392597.000000 46550000.000000,47450000.000000 46550000.000000,48850000.000000 46538582.000000,48907403.000000 46506066.000000,48956066.000000 46457403.000000,48988582.000000 46400000.000000,49000000.000000 46100000.000000,49000000.000000 46042597.000000,48988582.000000 45993934.000000,48956066.000000 45961418.000000,48907403.000000 45950000.000000,48850000.000000 Z"/> 
<svg:path style="fill:#000000; fill-opacity:1.0;  stroke:#000000; stroke-width:1.000000; stroke-opacity:1;  stroke-linecap:round; stroke-linejoin:round;fill-rule:evenodd;" d="M 47200000.000000,47450000.000000 47211418.000000,47392597.000000 47243934.000000,47343934.000000 47292597.000000,47311418.000000 47350000.000000,47300000.000000 47650000.000000,47300000.000000 47707403.000000,47311418.000000 47756066.000000,47343934.000000 47788582.000000,47392597.000000 47800000.000000,47450000.000000 47800000.000000,48850000.000000 47788582.000000,48907403.000000 47756066.000000,48956066.000000 47707403.000000,48988582.000000 47650000.000000,49000000.000000 47350000.000000,49000000.000000 47292597.000000,48988582.000000 47243934.000000,48956066.000000 47211418.000000,48907403.000000 47200000.000000,48850000.000000 Z"/> 
<svg:path style="fill:#000000; fill-opacity:1.0;  stroke:#000000; stroke-width:1.000000; stroke-opacity:1;  stroke-linecap:round; stroke-linejoin:round;fill-rule:evenodd;" d="M 48450000.000000,47450000.000000 48461418.000000,47392597.000000 48493934.000000,47343934.000000 48542597.000000,47311418.000000 48600000.000000,47300000.000000 48900000.000000,47300000.000000 48957403.000000,47311418.000000 49006066.000000,47343934.000000 49038582.000000,47392597.000000 49050000.000000,47450000.000000 49050000.000000,48850000.000000 49038582.000000,48907403.000000 49006066.000000,48956066.000000 48957403.000000,48988582.000000 48900000.000000,49000000.000000 48600000.000000,49000000.000000 48542597.000000,48988582.000000 48493934.000000,48956066.000000 48461418.000000,48907403.000000 48450000.000000,48850000.000000 Z"/> 
<svg:path style="fill:#000000; fill-opacity:1.0;  stroke:#000000; stroke-width:1.000000; stroke-opacity:1;  stroke-linecap:round; stroke-linejoin:round;fill-rule:evenodd;" d="M 49700000.000000,47450000.000000 49711418.000000,47392597.000000 49743934.000000,47343934.000000 49792597.000000,47311418.000000 49850000.000000,47300000.000000 50150000.000000,47300000.000000 50207403.000000,47311418.000000 50256066.000000,47343934.000000 50288582.000000,47392597.000000 50300000.000000,47450000.000000 50300000.000000,48850000.000000 50288582.000000,48907403.000000 50256066.000000,48956066.000000 50207403.000000,48988582.000000 50150000.000000,49000000.000000 49850000.000000,49000000.000000 49792597.000000,48988582.000000 49743934.000000,48956066.000000 49711418.000000,48907403.000000 49700000.000000,48850000.000000 Z"/> 
<svg:path style="fill:#000000; fill-opacity:1.0;  stroke:#000000; stroke-width:1.000000; stroke-opacity:1;  stroke-linecap:round; stroke-linejoin:round;fill-rule:evenodd;" d="M 50950000.000000,47450000.000000 50961418.000000,47392597.000000 50993934.000000,47343934.000000 51042597.000000,47311418.000000 51100000.000000,47300000.000000 51400000.000000,47300000.000000 51457403.000000,47311418.000000 51506066.000000,47343934.000000 51538582.000000,47392597.000000 51550000.000000,47450000.000000 51550000.000000,48850000.000000 51538582.000000,48907403.000000 51506066.000000,48956066.000000 51457403.000000,48988582.000000 51400000.000000,49000000.000000 51100000.000000,49000000.000000 51042597.000000,48988582.000000 50993934.000000,48956066.000000 50961418.000000,48907403.000000 50950000.000000,48850000.000000 Z"/> 
<svg:path style="fill:#000000; fill-opacity:1.0;  stroke:#000000; stroke-width:1.000000; stroke-opacity:1;  stroke-linecap:round; stroke-linejoin:round;fill-rule:evenodd;" d="M 52200000.000000,47450000.000000 52211418.000000,47392597.000000 52243934.000000,47343934.000000 52292597.000000,47311418.000000 52350000.000000,47300000.000000 52650000.000000,47300000.000000 52707403.000000,47311418.000000 52756066.000000,47343934.000000 52788582.000000,47392597.000000 52800000.000000,47450000.000000 52800000.000000,48850000.000000 52788582.000000,48907403.000000 52756066.000000,48956066.000000 52707403.000000,48988582.000000 52650000.000000,49000000.000000 52350000.000000,49000000.000000 52292597.000000,48988582.000000 52243934.000000,48956066.000000 52211418.000000,48907403.000000 52200000.000000,48850000.000000 Z"/> 
<svg:path style="fill:#000000; fill-opacity:1.0;  stroke:#000000; stroke-width:1.000000; stroke-opacity:1;  stroke-linecap:round; stroke-linejoin:round;fill-rule:evenodd;" d="M 53450000.000000,47450000.000000 53461418.000000,47392597.000000 53493934.000000,47343934.000000 53542597.000000,47311418.000000 53600000.000000,47300000.000000 53900000.000000,47300000.000000 53957403.000000,47311418.000000 54006066.000000,47343934.000000 54038582.000000,47392597.000000 54050000.000000,47450000.000000 54050000.000000,48850000.000000 54038582.000000,48907403.000000 54006066.000000,48956066.000000 53957403.000000,48988582.000000 53900000.000000,49000000.000000 53600000.000000,49000000.000000 53542597.000000,48988582.000000 53493934.000000,48956066.000000 53461418.000000,48907403.000000 53450000.000000,48850000.000000 Z"/> 
<svg:path style="fill:#000000; fill-opacity:1.0;  stroke:#000000; stroke-width:1.000000; stroke-opacity:1;  stroke-linecap:round; stroke-linejoin:round;fill-rule:evenodd;" d="M 54700000.000000,47450000.000000 54711418.000000,47392597.000000 54743934.000000,47343934.000000 54792597.000000,47311418.000000 54850000.000000,47300000.000000 55150000.000000,47300000.000000 55207403.000000,47311418.000000 55256066.000000,47343934.000000 55288582.000000,47392597.000000 55300000.000000,47450000.000000 55300000.000000,48850000.000000 55288582.000000,48907403.000000 55256066.000000,48956066.000000 55207403.000000,48988582.000000 55150000.000000,49000000.000000 54850000.000000,49000000.000000 54792597.000000,48988582.000000 54743934.000000,48956066.000000 54711418.000000,48907403.000000 54700000.000000,48850000.000000 Z"/> 
<svg:path style="fill:#000000; fill-opacity:1.0;  stroke:#000000; stroke-width:1.000000; stroke-opacity:1;  stroke-linecap:round; stroke-linejoin:round;fill-rule:evenodd;" d="M 55950000.000000,47450000.000000 55961418.000000,47392597.000000 55993934.000000,47343934.000000 56042597.000000,47311418.000000 56100000.000000,47300000.000000 56400000.000000,47300000.000000 56457403.000000,47311418.000000 56506066.000000,47343934.000000 56538582.000000,47392597.000000 56550000.000000,47450000.000000 56550000.000000,48850000.000000 56538582.000000,48907403.000000 56506066.000000,48956066.000000 56457403.000000,48988582.000000 56400000.000000,49000000.000000 56100000.000000,49000000.000000 56042597.000000,48988582.000000 55993934.000000,48956066.000000 55961418.000000,48907403.000000 55950000.000000,48850000.000000 Z"/> 
<svg:path style="fill:#000000; fill-opacity:1.0;  stroke:#000000; stroke-width:1.000000; stroke-opacity:1;  stroke-linecap:round; stroke-linejoin:round;fill-rule:evenodd;" d="M 41400000.000000,50250000.000000 41419030.000000,50154329.000000 41473223.000000,50073223.000000 41554329.000000,50019030.000000 41650000.000000,50000000.000000 42150000.000000,50000000.000000 42245671.000000,50019030.000000 42326777.000000,50073223.000000 42380970.000000,50154329.000000 42400000.000000,50250000.000000 42400000.000000,52450000.000000 42380970.000000,52545671.000000 42326777.000000,52626777.000000 42245671.000000,52680970.000000 42150000.000000,52700000.000000 41650000.000000,52700000.000000 41554329.000000,52680970.000000 41473223.000000,52626777.000000 41419030.000000,52545671.000000 41400000.000000,52450000.000000 Z"/> 
<svg:path style="fill:#000000; fill-opacity:1.0;  stroke:#000000; stroke-width:1.000000; stroke-opacity:1;  stroke-linecap:round; stroke-linejoin:round;fill-rule:evenodd;" d="M 57600000.000000,50250000.000000 57619030.000000,50154329.000000 57673223.000000,50073223.000000 57754329.000000,50019030.000000 57850000.000000,50000000.000000 58350000.000000,50000000.000000 58445671.000000,50019030.000000 58526777.000000,50073223.000000 58580970.000000,50154329.000000 58600000.000000,50250000.000000 58600000.000000,52450000.000000 58580970.000000,52545671.000000 58526777.000000,52626777.000000 58445671.000000,52680970.000000 58350000.000000,52700000.000000 57850000.000000,52700000.000000 57754329.000000,52680970.000000 57673223.000000,52626777.000000 57619030.000000,52545671.000000 57600000.000000,52450000.000000 Z"/> 
</svg:g>
<svg:g>
</svg:g>
<svg:g>
</svg:g>
<svg:g>
</svg:g>
</svg:g>
<svg:g style="fill:#000000; fill-opacity:1.0;  stroke:#000000; stroke-width:1.000000; stroke-opacity:1;  stroke-linecap:round; stroke-linejoin:round;">
<svg:g>
</svg:g>
<svg:g>
</svg:g>
<svg:g>
</svg:g>
<svg:g>
</svg:g>
</svg:g> 
</svg:g><svg:g><svg:title>SVG Picture created as kicadBoard-F_Paste.svg date 2022/11/21 16:23:45 </svg:title>
  <svg:desc>Picture generated by PCBNEW </svg:desc>
<svg:g style="fill:#000000; fill-opacity:1.000000;stroke:#000000; stroke-opacity:1.000000; stroke-linecap:round; stroke-linejoin:round;" transform="translate(0 0) scale(1 1)">
</svg:g>
<svg:g style="fill:#000000; fill-opacity:0.0;  stroke:#000000; stroke-width:0.000000; stroke-opacity:1;  stroke-linecap:round; stroke-linejoin:round;">
<svg:g>
</svg:g>
<svg:g style="fill:#000000; fill-opacity:0.0;  stroke:#000000; stroke-width:1.000000; stroke-opacity:1;  stroke-linecap:round; stroke-linejoin:round;">
</svg:g>
<svg:g style="fill:#000000; fill-opacity:1.0;  stroke:#000000; stroke-width:1.000000; stroke-opacity:1;  stroke-linecap:round; stroke-linejoin:round;">
<svg:path style="fill:#000000; fill-opacity:1.0;  stroke:#000000; stroke-width:1.000000; stroke-opacity:1;  stroke-linecap:round; stroke-linejoin:round;fill-rule:evenodd;" d="M 43450000.000000,47450000.000000 43461418.000000,47392597.000000 43493934.000000,47343934.000000 43542597.000000,47311418.000000 43600000.000000,47300000.000000 43900000.000000,47300000.000000 43957403.000000,47311418.000000 44006066.000000,47343934.000000 44038582.000000,47392597.000000 44050000.000000,47450000.000000 44050000.000000,48850000.000000 44038582.000000,48907403.000000 44006066.000000,48956066.000000 43957403.000000,48988582.000000 43900000.000000,49000000.000000 43600000.000000,49000000.000000 43542597.000000,48988582.000000 43493934.000000,48956066.000000 43461418.000000,48907403.000000 43450000.000000,48850000.000000 Z"/> 
<svg:path style="fill:#000000; fill-opacity:1.0;  stroke:#000000; stroke-width:1.000000; stroke-opacity:1;  stroke-linecap:round; stroke-linejoin:round;fill-rule:evenodd;" d="M 44700000.000000,47450000.000000 44711418.000000,47392597.000000 44743934.000000,47343934.000000 44792597.000000,47311418.000000 44850000.000000,47300000.000000 45150000.000000,47300000.000000 45207403.000000,47311418.000000 45256066.000000,47343934.000000 45288582.000000,47392597.000000 45300000.000000,47450000.000000 45300000.000000,48850000.000000 45288582.000000,48907403.000000 45256066.000000,48956066.000000 45207403.000000,48988582.000000 45150000.000000,49000000.000000 44850000.000000,49000000.000000 44792597.000000,48988582.000000 44743934.000000,48956066.000000 44711418.000000,48907403.000000 44700000.000000,48850000.000000 Z"/> 
<svg:path style="fill:#000000; fill-opacity:1.0;  stroke:#000000; stroke-width:1.000000; stroke-opacity:1;  stroke-linecap:round; stroke-linejoin:round;fill-rule:evenodd;" d="M 45950000.000000,47450000.000000 45961418.000000,47392597.000000 45993934.000000,47343934.000000 46042597.000000,47311418.000000 46100000.000000,47300000.000000 46400000.000000,47300000.000000 46457403.000000,47311418.000000 46506066.000000,47343934.000000 46538582.000000,47392597.000000 46550000.000000,47450000.000000 46550000.000000,48850000.000000 46538582.000000,48907403.000000 46506066.000000,48956066.000000 46457403.000000,48988582.000000 46400000.000000,49000000.000000 46100000.000000,49000000.000000 46042597.000000,48988582.000000 45993934.000000,48956066.000000 45961418.000000,48907403.000000 45950000.000000,48850000.000000 Z"/> 
<svg:path style="fill:#000000; fill-opacity:1.0;  stroke:#000000; stroke-width:1.000000; stroke-opacity:1;  stroke-linecap:round; stroke-linejoin:round;fill-rule:evenodd;" d="M 47200000.000000,47450000.000000 47211418.000000,47392597.000000 47243934.000000,47343934.000000 47292597.000000,47311418.000000 47350000.000000,47300000.000000 47650000.000000,47300000.000000 47707403.000000,47311418.000000 47756066.000000,47343934.000000 47788582.000000,47392597.000000 47800000.000000,47450000.000000 47800000.000000,48850000.000000 47788582.000000,48907403.000000 47756066.000000,48956066.000000 47707403.000000,48988582.000000 47650000.000000,49000000.000000 47350000.000000,49000000.000000 47292597.000000,48988582.000000 47243934.000000,48956066.000000 47211418.000000,48907403.000000 47200000.000000,48850000.000000 Z"/> 
<svg:path style="fill:#000000; fill-opacity:1.0;  stroke:#000000; stroke-width:1.000000; stroke-opacity:1;  stroke-linecap:round; stroke-linejoin:round;fill-rule:evenodd;" d="M 48450000.000000,47450000.000000 48461418.000000,47392597.000000 48493934.000000,47343934.000000 48542597.000000,47311418.000000 48600000.000000,47300000.000000 48900000.000000,47300000.000000 48957403.000000,47311418.000000 49006066.000000,47343934.000000 49038582.000000,47392597.000000 49050000.000000,47450000.000000 49050000.000000,48850000.000000 49038582.000000,48907403.000000 49006066.000000,48956066.000000 48957403.000000,48988582.000000 48900000.000000,49000000.000000 48600000.000000,49000000.000000 48542597.000000,48988582.000000 48493934.000000,48956066.000000 48461418.000000,48907403.000000 48450000.000000,48850000.000000 Z"/> 
<svg:path style="fill:#000000; fill-opacity:1.0;  stroke:#000000; stroke-width:1.000000; stroke-opacity:1;  stroke-linecap:round; stroke-linejoin:round;fill-rule:evenodd;" d="M 49700000.000000,47450000.000000 49711418.000000,47392597.000000 49743934.000000,47343934.000000 49792597.000000,47311418.000000 49850000.000000,47300000.000000 50150000.000000,47300000.000000 50207403.000000,47311418.000000 50256066.000000,47343934.000000 50288582.000000,47392597.000000 50300000.000000,47450000.000000 50300000.000000,48850000.000000 50288582.000000,48907403.000000 50256066.000000,48956066.000000 50207403.000000,48988582.000000 50150000.000000,49000000.000000 49850000.000000,49000000.000000 49792597.000000,48988582.000000 49743934.000000,48956066.000000 49711418.000000,48907403.000000 49700000.000000,48850000.000000 Z"/> 
<svg:path style="fill:#000000; fill-opacity:1.0;  stroke:#000000; stroke-width:1.000000; stroke-opacity:1;  stroke-linecap:round; stroke-linejoin:round;fill-rule:evenodd;" d="M 50950000.000000,47450000.000000 50961418.000000,47392597.000000 50993934.000000,47343934.000000 51042597.000000,47311418.000000 51100000.000000,47300000.000000 51400000.000000,47300000.000000 51457403.000000,47311418.000000 51506066.000000,47343934.000000 51538582.000000,47392597.000000 51550000.000000,47450000.000000 51550000.000000,48850000.000000 51538582.000000,48907403.000000 51506066.000000,48956066.000000 51457403.000000,48988582.000000 51400000.000000,49000000.000000 51100000.000000,49000000.000000 51042597.000000,48988582.000000 50993934.000000,48956066.000000 50961418.000000,48907403.000000 50950000.000000,48850000.000000 Z"/> 
<svg:path style="fill:#000000; fill-opacity:1.0;  stroke:#000000; stroke-width:1.000000; stroke-opacity:1;  stroke-linecap:round; stroke-linejoin:round;fill-rule:evenodd;" d="M 52200000.000000,47450000.000000 52211418.000000,47392597.000000 52243934.000000,47343934.000000 52292597.000000,47311418.000000 52350000.000000,47300000.000000 52650000.000000,47300000.000000 52707403.000000,47311418.000000 52756066.000000,47343934.000000 52788582.000000,47392597.000000 52800000.000000,47450000.000000 52800000.000000,48850000.000000 52788582.000000,48907403.000000 52756066.000000,48956066.000000 52707403.000000,48988582.000000 52650000.000000,49000000.000000 52350000.000000,49000000.000000 52292597.000000,48988582.000000 52243934.000000,48956066.000000 52211418.000000,48907403.000000 52200000.000000,48850000.000000 Z"/> 
<svg:path style="fill:#000000; fill-opacity:1.0;  stroke:#000000; stroke-width:1.000000; stroke-opacity:1;  stroke-linecap:round; stroke-linejoin:round;fill-rule:evenodd;" d="M 53450000.000000,47450000.000000 53461418.000000,47392597.000000 53493934.000000,47343934.000000 53542597.000000,47311418.000000 53600000.000000,47300000.000000 53900000.000000,47300000.000000 53957403.000000,47311418.000000 54006066.000000,47343934.000000 54038582.000000,47392597.000000 54050000.000000,47450000.000000 54050000.000000,48850000.000000 54038582.000000,48907403.000000 54006066.000000,48956066.000000 53957403.000000,48988582.000000 53900000.000000,49000000.000000 53600000.000000,49000000.000000 53542597.000000,48988582.000000 53493934.000000,48956066.000000 53461418.000000,48907403.000000 53450000.000000,48850000.000000 Z"/> 
<svg:path style="fill:#000000; fill-opacity:1.0;  stroke:#000000; stroke-width:1.000000; stroke-opacity:1;  stroke-linecap:round; stroke-linejoin:round;fill-rule:evenodd;" d="M 54700000.000000,47450000.000000 54711418.000000,47392597.000000 54743934.000000,47343934.000000 54792597.000000,47311418.000000 54850000.000000,47300000.000000 55150000.000000,47300000.000000 55207403.000000,47311418.000000 55256066.000000,47343934.000000 55288582.000000,47392597.000000 55300000.000000,47450000.000000 55300000.000000,48850000.000000 55288582.000000,48907403.000000 55256066.000000,48956066.000000 55207403.000000,48988582.000000 55150000.000000,49000000.000000 54850000.000000,49000000.000000 54792597.000000,48988582.000000 54743934.000000,48956066.000000 54711418.000000,48907403.000000 54700000.000000,48850000.000000 Z"/> 
<svg:path style="fill:#000000; fill-opacity:1.0;  stroke:#000000; stroke-width:1.000000; stroke-opacity:1;  stroke-linecap:round; stroke-linejoin:round;fill-rule:evenodd;" d="M 55950000.000000,47450000.000000 55961418.000000,47392597.000000 55993934.000000,47343934.000000 56042597.000000,47311418.000000 56100000.000000,47300000.000000 56400000.000000,47300000.000000 56457403.000000,47311418.000000 56506066.000000,47343934.000000 56538582.000000,47392597.000000 56550000.000000,47450000.000000 56550000.000000,48850000.000000 56538582.000000,48907403.000000 56506066.000000,48956066.000000 56457403.000000,48988582.000000 56400000.000000,49000000.000000 56100000.000000,49000000.000000 56042597.000000,48988582.000000 55993934.000000,48956066.000000 55961418.000000,48907403.000000 55950000.000000,48850000.000000 Z"/> 
<svg:path style="fill:#000000; fill-opacity:1.0;  stroke:#000000; stroke-width:1.000000; stroke-opacity:1;  stroke-linecap:round; stroke-linejoin:round;fill-rule:evenodd;" d="M 41400000.000000,50250000.000000 41419030.000000,50154329.000000 41473223.000000,50073223.000000 41554329.000000,50019030.000000 41650000.000000,50000000.000000 42150000.000000,50000000.000000 42245671.000000,50019030.000000 42326777.000000,50073223.000000 42380970.000000,50154329.000000 42400000.000000,50250000.000000 42400000.000000,52450000.000000 42380970.000000,52545671.000000 42326777.000000,52626777.000000 42245671.000000,52680970.000000 42150000.000000,52700000.000000 41650000.000000,52700000.000000 41554329.000000,52680970.000000 41473223.000000,52626777.000000 41419030.000000,52545671.000000 41400000.000000,52450000.000000 Z"/> 
<svg:path style="fill:#000000; fill-opacity:1.0;  stroke:#000000; stroke-width:1.000000; stroke-opacity:1;  stroke-linecap:round; stroke-linejoin:round;fill-rule:evenodd;" d="M 57600000.000000,50250000.000000 57619030.000000,50154329.000000 57673223.000000,50073223.000000 57754329.000000,50019030.000000 57850000.000000,50000000.000000 58350000.000000,50000000.000000 58445671.000000,50019030.000000 58526777.000000,50073223.000000 58580970.000000,50154329.000000 58600000.000000,50250000.000000 58600000.000000,52450000.000000 58580970.000000,52545671.000000 58526777.000000,52626777.000000 58445671.000000,52680970.000000 58350000.000000,52700000.000000 57850000.000000,52700000.000000 57754329.000000,52680970.000000 57673223.000000,52626777.000000 57619030.000000,52545671.000000 57600000.000000,52450000.000000 Z"/> 
</svg:g>
<svg:g>
</svg:g>
<svg:g>
</svg:g>
<svg:g>
</svg:g>
</svg:g>
<svg:g style="fill:#000000; fill-opacity:1.0;  stroke:#000000; stroke-width:1.000000; stroke-opacity:1;  stroke-linecap:round; stroke-linejoin:round;">
<svg:g>
</svg:g>
<svg:g>
</svg:g>
<svg:g>
</svg:g>
<svg:g>
</svg:g>
</svg:g> 
</svg:g><svg:g><svg:title>SVG Picture created as kicadBoard-F_Silkscreen.svg date 2022/11/21 16:23:45 </svg:title>
  <svg:desc>Picture generated by PCBNEW </svg:desc>
<svg:g style="fill:#000000; fill-opacity:1.000000;stroke:#000000; stroke-opacity:1.000000; stroke-linecap:round; stroke-linejoin:round;" transform="translate(0 0) scale(1 1)">
</svg:g>
<svg:g style="fill:#000000; fill-opacity:0.0;  stroke:#000000; stroke-width:0.000000; stroke-opacity:1;  stroke-linecap:round; stroke-linejoin:round;">
</svg:g>
<svg:g style="fill:#F2EDA1; fill-opacity:0.0;  stroke:#F2EDA1; stroke-width:0.000000; stroke-opacity:1;  stroke-linecap:round; stroke-linejoin:round;">
</svg:g>
<svg:g style="fill:#F2EDA1; fill-opacity:0.0;  stroke:#F2EDA1; stroke-width:150000.000000; stroke-opacity:1;  stroke-linecap:round; stroke-linejoin:round;">
<svg:text x="50000000.000000" y="46600000.000000" textLength="33428572.000000" font-size="1333333.000000" lengthAdjust="spacingAndGlyphs" text-anchor="middle" opacity="0">FZKCNJSTJSTGHSM11BGHSTB1X111MPP125H</svg:text>
<svg:g class="stroked-text"><svg:desc>FZKCNJSTJSTGHSM11BGHSTB1X111MPP125H</svg:desc>
<svg:path d="M33857142 46028571 L33523809 46028571 "/>
<svg:path d="M33523809 46552380 L33523809 45552380 L34000000 45552380 "/>
<svg:path d="M34285714 45552380 L34952380 45552380 L34285714 46552380 L34952380 46552380 "/>
<svg:path d="M35333333 46552380 L35333333 45552380 "/>
<svg:path d="M35904761 46552380 L35476190 45980952 "/>
<svg:path d="M35904761 45552380 L35333333 46123809 "/>
<svg:path d="M36904761 46457142 L36857142 46504761 L36714285 46552380 L36619047 46552380 L36476190 46504761 L36380952 46409523 L36333333 46314285 L36285714 46123809 L36285714 45980952 L36333333 45790476 L36380952 45695238 L36476190 45600000 L36619047 45552380 L36714285 45552380 L36857142 45600000 L36904761 45647619 "/>
<svg:path d="M37333333 46552380 L37333333 45552380 L37904761 46552380 L37904761 45552380 "/>
<svg:path d="M38666666 45552380 L38666666 46266666 L38619047 46409523 L38523809 46504761 L38380952 46552380 L38285714 46552380 "/>
<svg:path d="M39095238 46504761 L39238095 46552380 L39476190 46552380 L39571428 46504761 L39619047 46457142 L39666666 46361904 L39666666 46266666 L39619047 46171428 L39571428 46123809 L39476190 46076190 L39285714 46028571 L39190476 45980952 L39142857 45933333 L39095238 45838095 L39095238 45742857 L39142857 45647619 L39190476 45600000 L39285714 45552380 L39523809 45552380 L39666666 45600000 "/>
<svg:path d="M39952380 45552380 L40523809 45552380 "/>
<svg:path d="M40238095 46552380 L40238095 45552380 "/>
<svg:path d="M41142857 45552380 L41142857 46266666 L41095238 46409523 L41000000 46504761 L40857142 46552380 L40761904 46552380 "/>
<svg:path d="M41571428 46504761 L41714285 46552380 L41952380 46552380 L42047619 46504761 L42095238 46457142 L42142857 46361904 L42142857 46266666 L42095238 46171428 L42047619 46123809 L41952380 46076190 L41761904 46028571 L41666666 45980952 L41619047 45933333 L41571428 45838095 L41571428 45742857 L41619047 45647619 L41666666 45600000 L41761904 45552380 L42000000 45552380 L42142857 45600000 "/>
<svg:path d="M42428571 45552380 L43000000 45552380 "/>
<svg:path d="M42714285 46552380 L42714285 45552380 "/>
<svg:path d="M43857142 45600000 L43761904 45552380 L43619047 45552380 L43476190 45600000 L43380952 45695238 L43333333 45790476 L43285714 45980952 L43285714 46123809 L43333333 46314285 L43380952 46409523 L43476190 46504761 L43619047 46552380 L43714285 46552380 L43857142 46504761 L43904761 46457142 L43904761 46123809 L43714285 46123809 "/>
<svg:path d="M44333333 46552380 L44333333 45552380 "/>
<svg:path d="M44333333 46028571 L44904761 46028571 "/>
<svg:path d="M44904761 46552380 L44904761 45552380 "/>
<svg:path d="M45333333 46504761 L45476190 46552380 L45714285 46552380 L45809523 46504761 L45857142 46457142 L45904761 46361904 L45904761 46266666 L45857142 46171428 L45809523 46123809 L45714285 46076190 L45523809 46028571 L45428571 45980952 L45380952 45933333 L45333333 45838095 L45333333 45742857 L45380952 45647619 L45428571 45600000 L45523809 45552380 L45761904 45552380 L45904761 45600000 "/>
<svg:path d="M46333333 46552380 L46333333 45552380 L46666666 46266666 L46999999 45552380 L46999999 46552380 "/>
<svg:path d="M47999999 46552380 L47428571 46552380 "/>
<svg:path d="M47714285 46552380 L47714285 45552380 L47619047 45695238 L47523809 45790476 L47428571 45838095 "/>
<svg:path d="M48952380 46552380 L48380952 46552380 "/>
<svg:path d="M48666666 46552380 L48666666 45552380 L48571428 45695238 L48476190 45790476 L48380952 45838095 "/>
<svg:path d="M49714285 46028571 L49857142 46076190 L49904761 46123809 L49952380 46219047 L49952380 46361904 L49904761 46457142 L49857142 46504761 L49761904 46552380 L49380952 46552380 L49380952 45552380 L49714285 45552380 L49809523 45600000 L49857142 45647619 L49904761 45742857 L49904761 45838095 L49857142 45933333 L49809523 45980952 L49714285 46028571 L49380952 46028571 "/>
<svg:path d="M50904761 45600000 L50809523 45552380 L50666666 45552380 L50523809 45600000 L50428571 45695238 L50380952 45790476 L50333333 45980952 L50333333 46123809 L50380952 46314285 L50428571 46409523 L50523809 46504761 L50666666 46552380 L50761904 46552380 L50904761 46504761 L50952380 46457142 L50952380 46123809 L50761904 46123809 "/>
<svg:path d="M51380952 46552380 L51380952 45552380 "/>
<svg:path d="M51380952 46028571 L51952380 46028571 "/>
<svg:path d="M51952380 46552380 L51952380 45552380 "/>
<svg:path d="M52380952 46504761 L52523809 46552380 L52761904 46552380 L52857142 46504761 L52904761 46457142 L52952380 46361904 L52952380 46266666 L52904761 46171428 L52857142 46123809 L52761904 46076190 L52571428 46028571 L52476190 45980952 L52428571 45933333 L52380952 45838095 L52380952 45742857 L52428571 45647619 L52476190 45600000 L52571428 45552380 L52809523 45552380 L52952380 45600000 "/>
<svg:path d="M53238095 45552380 L53809523 45552380 "/>
<svg:path d="M53523809 46552380 L53523809 45552380 "/>
<svg:path d="M54476190 46028571 L54619047 46076190 L54666666 46123809 L54714285 46219047 L54714285 46361904 L54666666 46457142 L54619047 46504761 L54523809 46552380 L54142857 46552380 L54142857 45552380 L54476190 45552380 L54571428 45600000 L54619047 45647619 L54666666 45742857 L54666666 45838095 L54619047 45933333 L54571428 45980952 L54476190 46028571 L54142857 46028571 "/>
<svg:path d="M55666666 46552380 L55095238 46552380 "/>
<svg:path d="M55380952 46552380 L55380952 45552380 L55285714 45695238 L55190476 45790476 L55095238 45838095 "/>
<svg:path d="M55999999 45552380 L56666666 46552380 "/>
<svg:path d="M56666666 45552380 L55999999 46552380 "/>
<svg:path d="M57571428 46552380 L56999999 46552380 "/>
<svg:path d="M57285714 46552380 L57285714 45552380 L57190476 45695238 L57095238 45790476 L56999999 45838095 "/>
<svg:path d="M58523809 46552380 L57952380 46552380 "/>
<svg:path d="M58238095 46552380 L58238095 45552380 L58142857 45695238 L58047619 45790476 L57952380 45838095 "/>
<svg:path d="M59476190 46552380 L58904761 46552380 "/>
<svg:path d="M59190476 46552380 L59190476 45552380 L59095238 45695238 L58999999 45790476 L58904761 45838095 "/>
<svg:path d="M59904761 46552380 L59904761 45552380 L60238095 46266666 L60571428 45552380 L60571428 46552380 "/>
<svg:path d="M61047619 46552380 L61047619 45552380 L61428571 45552380 L61523809 45600000 L61571428 45647619 L61619047 45742857 L61619047 45885714 L61571428 45980952 L61523809 46028571 L61428571 46076190 L61047619 46076190 "/>
<svg:path d="M62047619 46552380 L62047619 45552380 L62428571 45552380 L62523809 45600000 L62571428 45647619 L62619047 45742857 L62619047 45885714 L62571428 45980952 L62523809 46028571 L62428571 46076190 L62047619 46076190 "/>
<svg:path d="M63571428 46552380 L62999999 46552380 "/>
<svg:path d="M63285714 46552380 L63285714 45552380 L63190476 45695238 L63095238 45790476 L62999999 45838095 "/>
<svg:path d="M63952380 45647619 L63999999 45600000 L64095238 45552380 L64333333 45552380 L64428571 45600000 L64476190 45647619 L64523809 45742857 L64523809 45838095 L64476190 45980952 L63904761 46552380 L64523809 46552380 "/>
<svg:path d="M65428571 45552380 L64952380 45552380 L64904761 46028571 L64952380 45980952 L65047619 45933333 L65285714 45933333 L65380952 45980952 L65428571 46028571 L65476190 46123809 L65476190 46361904 L65428571 46457142 L65380952 46504761 L65285714 46552380 L65047619 46552380 L64952380 46504761 L64904761 46457142 "/>
<svg:path d="M65904761 46552380 L65904761 45552380 "/>
<svg:path d="M65904761 46028571 L66476190 46028571 "/>
<svg:path d="M66476190 46552380 L66476190 45552380 "/>
</svg:g></svg:g>
<svg:g style="fill:#F2EDA1; fill-opacity:0.0;  stroke:#F2EDA1; stroke-width:120000.000000; stroke-opacity:1;  stroke-linecap:round; stroke-linejoin:round;">
<svg:path d="M42660000 52560000 L57340000 52560000 "/>
<svg:path d="M58610000 48290000 L56810000 48290000 "/>
<svg:path d="M41390000 48290000 L43190000 48290000 "/>
<svg:path d="M58610000 49740000 L58610000 48290000 "/>
<svg:path d="M43190000 48290000 L43190000 47300000 "/>
<svg:path d="M41390000 49740000 L41390000 48290000 "/>
<svg:g>
</svg:g>
<svg:g>
</svg:g>
<svg:g>
</svg:g>
<svg:g>
</svg:g>
</svg:g>
<svg:g style="fill:#000000; fill-opacity:0.0;  stroke:#000000; stroke-width:120000.000000; stroke-opacity:1;  stroke-linecap:round; stroke-linejoin:round;">
<svg:g>
</svg:g>
<svg:g>
</svg:g>
<svg:g>
</svg:g>
<svg:g>
</svg:g>
</svg:g> 
</svg:g><svg:g><svg:title>SVG Picture created as kicadBoard-Margin.svg date 2022/11/21 16:23:45 </svg:title>
  <svg:desc>Picture generated by PCBNEW </svg:desc>
<svg:g style="fill:#000000; fill-opacity:1.000000;stroke:#000000; stroke-opacity:1.000000; stroke-linecap:round; stroke-linejoin:round;" transform="translate(0 0) scale(1 1)">
</svg:g>
<svg:g style="fill:#000000; fill-opacity:0.0;  stroke:#000000; stroke-width:0.000000; stroke-opacity:1;  stroke-linecap:round; stroke-linejoin:round;">
<svg:g>
</svg:g>
<svg:g>
</svg:g>
<svg:g>
</svg:g>
<svg:g>
</svg:g>
</svg:g>
<svg:g style="fill:#000000; fill-opacity:0.0;  stroke:#000000; stroke-width:0.000000; stroke-opacity:1;  stroke-linecap:round; stroke-linejoin:round;">
<svg:g>
</svg:g>
<svg:g>
</svg:g>
<svg:g>
</svg:g>
<svg:g>
</svg:g>
</svg:g> 
</svg:g><svg:g><svg:title>SVG Picture created as kicadBoard-F_Cu.svg date 2022/11/21 16:23:45 </svg:title>
  <svg:desc>Picture generated by PCBNEW </svg:desc>
<svg:g style="fill:#000000; fill-opacity:1.000000;stroke:#000000; stroke-opacity:1.000000; stroke-linecap:round; stroke-linejoin:round;" transform="translate(0 0) scale(1 1)">
</svg:g>
<svg:g style="fill:#000000; fill-opacity:0.0;  stroke:#000000; stroke-width:0.000000; stroke-opacity:1;  stroke-linecap:round; stroke-linejoin:round;">
<svg:g>
</svg:g>
<svg:g style="fill:#C83434; fill-opacity:0.0;  stroke:#C83434; stroke-width:0.000000; stroke-opacity:1;  stroke-linecap:round; stroke-linejoin:round;">
</svg:g>
<svg:g style="fill:#C83434; fill-opacity:0.0;  stroke:#C83434; stroke-width:1.000000; stroke-opacity:1;  stroke-linecap:round; stroke-linejoin:round;">
</svg:g>
<svg:g style="fill:#C83434; fill-opacity:1.0;  stroke:#C83434; stroke-width:1.000000; stroke-opacity:1;  stroke-linecap:round; stroke-linejoin:round;">
<svg:path style="fill:#C83434; fill-opacity:1.0;  stroke:#C83434; stroke-width:1.000000; stroke-opacity:1;  stroke-linecap:round; stroke-linejoin:round;fill-rule:evenodd;" d="M 43450000.000000,47450000.000000 43461418.000000,47392597.000000 43493934.000000,47343934.000000 43542597.000000,47311418.000000 43600000.000000,47300000.000000 43900000.000000,47300000.000000 43957403.000000,47311418.000000 44006066.000000,47343934.000000 44038582.000000,47392597.000000 44050000.000000,47450000.000000 44050000.000000,48850000.000000 44038582.000000,48907403.000000 44006066.000000,48956066.000000 43957403.000000,48988582.000000 43900000.000000,49000000.000000 43600000.000000,49000000.000000 43542597.000000,48988582.000000 43493934.000000,48956066.000000 43461418.000000,48907403.000000 43450000.000000,48850000.000000 Z"/> 
<svg:path style="fill:#C83434; fill-opacity:1.0;  stroke:#C83434; stroke-width:1.000000; stroke-opacity:1;  stroke-linecap:round; stroke-linejoin:round;fill-rule:evenodd;" d="M 44700000.000000,47450000.000000 44711418.000000,47392597.000000 44743934.000000,47343934.000000 44792597.000000,47311418.000000 44850000.000000,47300000.000000 45150000.000000,47300000.000000 45207403.000000,47311418.000000 45256066.000000,47343934.000000 45288582.000000,47392597.000000 45300000.000000,47450000.000000 45300000.000000,48850000.000000 45288582.000000,48907403.000000 45256066.000000,48956066.000000 45207403.000000,48988582.000000 45150000.000000,49000000.000000 44850000.000000,49000000.000000 44792597.000000,48988582.000000 44743934.000000,48956066.000000 44711418.000000,48907403.000000 44700000.000000,48850000.000000 Z"/> 
<svg:path style="fill:#C83434; fill-opacity:1.0;  stroke:#C83434; stroke-width:1.000000; stroke-opacity:1;  stroke-linecap:round; stroke-linejoin:round;fill-rule:evenodd;" d="M 45950000.000000,47450000.000000 45961418.000000,47392597.000000 45993934.000000,47343934.000000 46042597.000000,47311418.000000 46100000.000000,47300000.000000 46400000.000000,47300000.000000 46457403.000000,47311418.000000 46506066.000000,47343934.000000 46538582.000000,47392597.000000 46550000.000000,47450000.000000 46550000.000000,48850000.000000 46538582.000000,48907403.000000 46506066.000000,48956066.000000 46457403.000000,48988582.000000 46400000.000000,49000000.000000 46100000.000000,49000000.000000 46042597.000000,48988582.000000 45993934.000000,48956066.000000 45961418.000000,48907403.000000 45950000.000000,48850000.000000 Z"/> 
<svg:path style="fill:#C83434; fill-opacity:1.0;  stroke:#C83434; stroke-width:1.000000; stroke-opacity:1;  stroke-linecap:round; stroke-linejoin:round;fill-rule:evenodd;" d="M 47200000.000000,47450000.000000 47211418.000000,47392597.000000 47243934.000000,47343934.000000 47292597.000000,47311418.000000 47350000.000000,47300000.000000 47650000.000000,47300000.000000 47707403.000000,47311418.000000 47756066.000000,47343934.000000 47788582.000000,47392597.000000 47800000.000000,47450000.000000 47800000.000000,48850000.000000 47788582.000000,48907403.000000 47756066.000000,48956066.000000 47707403.000000,48988582.000000 47650000.000000,49000000.000000 47350000.000000,49000000.000000 47292597.000000,48988582.000000 47243934.000000,48956066.000000 47211418.000000,48907403.000000 47200000.000000,48850000.000000 Z"/> 
<svg:path style="fill:#C83434; fill-opacity:1.0;  stroke:#C83434; stroke-width:1.000000; stroke-opacity:1;  stroke-linecap:round; stroke-linejoin:round;fill-rule:evenodd;" d="M 48450000.000000,47450000.000000 48461418.000000,47392597.000000 48493934.000000,47343934.000000 48542597.000000,47311418.000000 48600000.000000,47300000.000000 48900000.000000,47300000.000000 48957403.000000,47311418.000000 49006066.000000,47343934.000000 49038582.000000,47392597.000000 49050000.000000,47450000.000000 49050000.000000,48850000.000000 49038582.000000,48907403.000000 49006066.000000,48956066.000000 48957403.000000,48988582.000000 48900000.000000,49000000.000000 48600000.000000,49000000.000000 48542597.000000,48988582.000000 48493934.000000,48956066.000000 48461418.000000,48907403.000000 48450000.000000,48850000.000000 Z"/> 
<svg:path style="fill:#C83434; fill-opacity:1.0;  stroke:#C83434; stroke-width:1.000000; stroke-opacity:1;  stroke-linecap:round; stroke-linejoin:round;fill-rule:evenodd;" d="M 49700000.000000,47450000.000000 49711418.000000,47392597.000000 49743934.000000,47343934.000000 49792597.000000,47311418.000000 49850000.000000,47300000.000000 50150000.000000,47300000.000000 50207403.000000,47311418.000000 50256066.000000,47343934.000000 50288582.000000,47392597.000000 50300000.000000,47450000.000000 50300000.000000,48850000.000000 50288582.000000,48907403.000000 50256066.000000,48956066.000000 50207403.000000,48988582.000000 50150000.000000,49000000.000000 49850000.000000,49000000.000000 49792597.000000,48988582.000000 49743934.000000,48956066.000000 49711418.000000,48907403.000000 49700000.000000,48850000.000000 Z"/> 
<svg:path style="fill:#C83434; fill-opacity:1.0;  stroke:#C83434; stroke-width:1.000000; stroke-opacity:1;  stroke-linecap:round; stroke-linejoin:round;fill-rule:evenodd;" d="M 50950000.000000,47450000.000000 50961418.000000,47392597.000000 50993934.000000,47343934.000000 51042597.000000,47311418.000000 51100000.000000,47300000.000000 51400000.000000,47300000.000000 51457403.000000,47311418.000000 51506066.000000,47343934.000000 51538582.000000,47392597.000000 51550000.000000,47450000.000000 51550000.000000,48850000.000000 51538582.000000,48907403.000000 51506066.000000,48956066.000000 51457403.000000,48988582.000000 51400000.000000,49000000.000000 51100000.000000,49000000.000000 51042597.000000,48988582.000000 50993934.000000,48956066.000000 50961418.000000,48907403.000000 50950000.000000,48850000.000000 Z"/> 
<svg:path style="fill:#C83434; fill-opacity:1.0;  stroke:#C83434; stroke-width:1.000000; stroke-opacity:1;  stroke-linecap:round; stroke-linejoin:round;fill-rule:evenodd;" d="M 52200000.000000,47450000.000000 52211418.000000,47392597.000000 52243934.000000,47343934.000000 52292597.000000,47311418.000000 52350000.000000,47300000.000000 52650000.000000,47300000.000000 52707403.000000,47311418.000000 52756066.000000,47343934.000000 52788582.000000,47392597.000000 52800000.000000,47450000.000000 52800000.000000,48850000.000000 52788582.000000,48907403.000000 52756066.000000,48956066.000000 52707403.000000,48988582.000000 52650000.000000,49000000.000000 52350000.000000,49000000.000000 52292597.000000,48988582.000000 52243934.000000,48956066.000000 52211418.000000,48907403.000000 52200000.000000,48850000.000000 Z"/> 
<svg:path style="fill:#C83434; fill-opacity:1.0;  stroke:#C83434; stroke-width:1.000000; stroke-opacity:1;  stroke-linecap:round; stroke-linejoin:round;fill-rule:evenodd;" d="M 53450000.000000,47450000.000000 53461418.000000,47392597.000000 53493934.000000,47343934.000000 53542597.000000,47311418.000000 53600000.000000,47300000.000000 53900000.000000,47300000.000000 53957403.000000,47311418.000000 54006066.000000,47343934.000000 54038582.000000,47392597.000000 54050000.000000,47450000.000000 54050000.000000,48850000.000000 54038582.000000,48907403.000000 54006066.000000,48956066.000000 53957403.000000,48988582.000000 53900000.000000,49000000.000000 53600000.000000,49000000.000000 53542597.000000,48988582.000000 53493934.000000,48956066.000000 53461418.000000,48907403.000000 53450000.000000,48850000.000000 Z"/> 
<svg:path style="fill:#C83434; fill-opacity:1.0;  stroke:#C83434; stroke-width:1.000000; stroke-opacity:1;  stroke-linecap:round; stroke-linejoin:round;fill-rule:evenodd;" d="M 54700000.000000,47450000.000000 54711418.000000,47392597.000000 54743934.000000,47343934.000000 54792597.000000,47311418.000000 54850000.000000,47300000.000000 55150000.000000,47300000.000000 55207403.000000,47311418.000000 55256066.000000,47343934.000000 55288582.000000,47392597.000000 55300000.000000,47450000.000000 55300000.000000,48850000.000000 55288582.000000,48907403.000000 55256066.000000,48956066.000000 55207403.000000,48988582.000000 55150000.000000,49000000.000000 54850000.000000,49000000.000000 54792597.000000,48988582.000000 54743934.000000,48956066.000000 54711418.000000,48907403.000000 54700000.000000,48850000.000000 Z"/> 
<svg:path style="fill:#C83434; fill-opacity:1.0;  stroke:#C83434; stroke-width:1.000000; stroke-opacity:1;  stroke-linecap:round; stroke-linejoin:round;fill-rule:evenodd;" d="M 55950000.000000,47450000.000000 55961418.000000,47392597.000000 55993934.000000,47343934.000000 56042597.000000,47311418.000000 56100000.000000,47300000.000000 56400000.000000,47300000.000000 56457403.000000,47311418.000000 56506066.000000,47343934.000000 56538582.000000,47392597.000000 56550000.000000,47450000.000000 56550000.000000,48850000.000000 56538582.000000,48907403.000000 56506066.000000,48956066.000000 56457403.000000,48988582.000000 56400000.000000,49000000.000000 56100000.000000,49000000.000000 56042597.000000,48988582.000000 55993934.000000,48956066.000000 55961418.000000,48907403.000000 55950000.000000,48850000.000000 Z"/> 
<svg:path style="fill:#C83434; fill-opacity:1.0;  stroke:#C83434; stroke-width:1.000000; stroke-opacity:1;  stroke-linecap:round; stroke-linejoin:round;fill-rule:evenodd;" d="M 41400000.000000,50250000.000000 41419030.000000,50154329.000000 41473223.000000,50073223.000000 41554329.000000,50019030.000000 41650000.000000,50000000.000000 42150000.000000,50000000.000000 42245671.000000,50019030.000000 42326777.000000,50073223.000000 42380970.000000,50154329.000000 42400000.000000,50250000.000000 42400000.000000,52450000.000000 42380970.000000,52545671.000000 42326777.000000,52626777.000000 42245671.000000,52680970.000000 42150000.000000,52700000.000000 41650000.000000,52700000.000000 41554329.000000,52680970.000000 41473223.000000,52626777.000000 41419030.000000,52545671.000000 41400000.000000,52450000.000000 Z"/> 
<svg:path style="fill:#C83434; fill-opacity:1.0;  stroke:#C83434; stroke-width:1.000000; stroke-opacity:1;  stroke-linecap:round; stroke-linejoin:round;fill-rule:evenodd;" d="M 57600000.000000,50250000.000000 57619030.000000,50154329.000000 57673223.000000,50073223.000000 57754329.000000,50019030.000000 57850000.000000,50000000.000000 58350000.000000,50000000.000000 58445671.000000,50019030.000000 58526777.000000,50073223.000000 58580970.000000,50154329.000000 58600000.000000,50250000.000000 58600000.000000,52450000.000000 58580970.000000,52545671.000000 58526777.000000,52626777.000000 58445671.000000,52680970.000000 58350000.000000,52700000.000000 57850000.000000,52700000.000000 57754329.000000,52680970.000000 57673223.000000,52626777.000000 57619030.000000,52545671.000000 57600000.000000,52450000.000000 Z"/> 
</svg:g>
<svg:g>
</svg:g>
<svg:g>
</svg:g>
<svg:g>
</svg:g>
</svg:g>
<svg:g style="fill:#FFFFFF; fill-opacity:1.0;  stroke:#FFFFFF; stroke-width:1.000000; stroke-opacity:1;  stroke-linecap:round; stroke-linejoin:round;">
</svg:g>
<svg:g style="fill:#000000; fill-opacity:1.0;  stroke:#000000; stroke-width:1.000000; stroke-opacity:1;  stroke-linecap:round; stroke-linejoin:round;">
<svg:g>
</svg:g>
<svg:g>
</svg:g>
<svg:g>
</svg:g>
<svg:g>
</svg:g>
</svg:g> 
</svg:g></svg>
