<?xml version='1.0' encoding='ASCII' standalone='yes'?>
<svg xmlns:svg="http://www.w3.org/2000/svg" xmlns="http://www.w3.org/2000/svg" xmlns:xlink="http://www.w3.org/1999/xlink" version="1.1" width="9.999980cm" height="9.999980cm" viewBox="0 0 99999800 99999800">
<title>SVG Picture created as kicadBoard-B_Cu.svg date 2022/12/03 01:30:10 </title>
  <desc>Picture generated by PCBNEW </desc>
<g style="fill:#000000; fill-opacity:1.000000;stroke:#000000; stroke-opacity:1.000000; stroke-linecap:round; stroke-linejoin:round;" transform="translate(0 0) scale(1 1)">
</g>
<g style="fill:#000000; fill-opacity:0.0;  stroke:#000000; stroke-width:0.000000; stroke-opacity:1;  stroke-linecap:round; stroke-linejoin:round;">
<g>
</g>
<g>
</g>
<g>
</g>
<g>
</g>
</g>
<g style="fill:#FFFFFF; fill-opacity:0.0;  stroke:#FFFFFF; stroke-width:0.000000; stroke-opacity:1;  stroke-linecap:round; stroke-linejoin:round;">
</g>
<g style="fill:#000000; fill-opacity:0.0;  stroke:#000000; stroke-width:0.000000; stroke-opacity:1;  stroke-linecap:round; stroke-linejoin:round;">
<g>
</g>
<g>
</g>
<g>
</g>
<g>
</g>
</g> 
<svg:g><svg:title>SVG Picture created as kicadBoard-B_Adhesive.svg date 2022/12/03 01:30:10 </svg:title>
  <svg:desc>Picture generated by PCBNEW </svg:desc>
<svg:g style="fill:#000000; fill-opacity:1.000000;stroke:#000000; stroke-opacity:1.000000; stroke-linecap:round; stroke-linejoin:round;" transform="translate(0 0) scale(1 1)">
</svg:g>
<svg:g style="fill:#000000; fill-opacity:0.0;  stroke:#000000; stroke-width:0.000000; stroke-opacity:1;  stroke-linecap:round; stroke-linejoin:round;">
<svg:g>
</svg:g>
<svg:g>
</svg:g>
<svg:g>
</svg:g>
<svg:g>
</svg:g>
</svg:g>
<svg:g style="fill:#000000; fill-opacity:0.0;  stroke:#000000; stroke-width:0.000000; stroke-opacity:1;  stroke-linecap:round; stroke-linejoin:round;">
<svg:g>
</svg:g>
<svg:g>
</svg:g>
<svg:g>
</svg:g>
<svg:g>
</svg:g>
</svg:g> 
</svg:g><svg:g><svg:title>SVG Picture created as kicadBoard-B_Courtyard.svg date 2022/12/03 01:30:10 </svg:title>
  <svg:desc>Picture generated by PCBNEW </svg:desc>
<svg:g style="fill:#000000; fill-opacity:1.000000;stroke:#000000; stroke-opacity:1.000000; stroke-linecap:round; stroke-linejoin:round;" transform="translate(0 0) scale(1 1)">
</svg:g>
<svg:g style="fill:#000000; fill-opacity:0.0;  stroke:#000000; stroke-width:0.000000; stroke-opacity:1;  stroke-linecap:round; stroke-linejoin:round;">
<svg:g>
</svg:g>
<svg:g>
</svg:g>
<svg:g>
</svg:g>
<svg:g>
</svg:g>
</svg:g>
<svg:g style="fill:#000000; fill-opacity:0.0;  stroke:#000000; stroke-width:0.000000; stroke-opacity:1;  stroke-linecap:round; stroke-linejoin:round;">
<svg:g>
</svg:g>
<svg:g>
</svg:g>
<svg:g>
</svg:g>
<svg:g>
</svg:g>
</svg:g> 
</svg:g><svg:g><svg:title>SVG Picture created as kicadBoard-B_Fab.svg date 2022/12/03 01:30:10 </svg:title>
  <svg:desc>Picture generated by PCBNEW </svg:desc>
<svg:g style="fill:#000000; fill-opacity:1.000000;stroke:#000000; stroke-opacity:1.000000; stroke-linecap:round; stroke-linejoin:round;" transform="translate(0 0) scale(1 1)">
</svg:g>
<svg:g style="fill:#000000; fill-opacity:0.0;  stroke:#000000; stroke-width:0.000000; stroke-opacity:1;  stroke-linecap:round; stroke-linejoin:round;">
<svg:g>
</svg:g>
<svg:g>
</svg:g>
<svg:g>
</svg:g>
<svg:g>
</svg:g>
</svg:g>
<svg:g style="fill:#000000; fill-opacity:0.0;  stroke:#000000; stroke-width:0.000000; stroke-opacity:1;  stroke-linecap:round; stroke-linejoin:round;">
<svg:g>
</svg:g>
<svg:g>
</svg:g>
<svg:g>
</svg:g>
<svg:g>
</svg:g>
</svg:g> 
</svg:g><svg:g><svg:title>SVG Picture created as kicadBoard-B_Mask.svg date 2022/12/03 01:30:10 </svg:title>
  <svg:desc>Picture generated by PCBNEW </svg:desc>
<svg:g style="fill:#000000; fill-opacity:1.000000;stroke:#000000; stroke-opacity:1.000000; stroke-linecap:round; stroke-linejoin:round;" transform="translate(0 0) scale(1 1)">
</svg:g>
<svg:g style="fill:#000000; fill-opacity:0.0;  stroke:#000000; stroke-width:0.000000; stroke-opacity:1;  stroke-linecap:round; stroke-linejoin:round;">
<svg:g>
</svg:g>
<svg:g>
</svg:g>
<svg:g>
</svg:g>
<svg:g>
</svg:g>
</svg:g>
<svg:g style="fill:#000000; fill-opacity:0.0;  stroke:#000000; stroke-width:0.000000; stroke-opacity:1;  stroke-linecap:round; stroke-linejoin:round;">
<svg:g>
</svg:g>
<svg:g>
</svg:g>
<svg:g>
</svg:g>
<svg:g>
</svg:g>
</svg:g> 
</svg:g><svg:g><svg:title>SVG Picture created as kicadBoard-B_Paste.svg date 2022/12/03 01:30:10 </svg:title>
  <svg:desc>Picture generated by PCBNEW </svg:desc>
<svg:g style="fill:#000000; fill-opacity:1.000000;stroke:#000000; stroke-opacity:1.000000; stroke-linecap:round; stroke-linejoin:round;" transform="translate(0 0) scale(1 1)">
</svg:g>
<svg:g style="fill:#000000; fill-opacity:0.0;  stroke:#000000; stroke-width:0.000000; stroke-opacity:1;  stroke-linecap:round; stroke-linejoin:round;">
<svg:g>
</svg:g>
<svg:g>
</svg:g>
<svg:g>
</svg:g>
<svg:g>
</svg:g>
</svg:g>
<svg:g style="fill:#000000; fill-opacity:0.0;  stroke:#000000; stroke-width:0.000000; stroke-opacity:1;  stroke-linecap:round; stroke-linejoin:round;">
<svg:g>
</svg:g>
<svg:g>
</svg:g>
<svg:g>
</svg:g>
<svg:g>
</svg:g>
</svg:g> 
</svg:g><svg:g><svg:title>SVG Picture created as kicadBoard-B_Silkscreen.svg date 2022/12/03 01:30:10 </svg:title>
  <svg:desc>Picture generated by PCBNEW </svg:desc>
<svg:g style="fill:#000000; fill-opacity:1.000000;stroke:#000000; stroke-opacity:1.000000; stroke-linecap:round; stroke-linejoin:round;" transform="translate(0 0) scale(1 1)">
</svg:g>
<svg:g style="fill:#000000; fill-opacity:0.0;  stroke:#000000; stroke-width:0.000000; stroke-opacity:1;  stroke-linecap:round; stroke-linejoin:round;">
<svg:g>
</svg:g>
<svg:g>
</svg:g>
<svg:g>
</svg:g>
<svg:g>
</svg:g>
</svg:g>
<svg:g style="fill:#000000; fill-opacity:0.0;  stroke:#000000; stroke-width:0.000000; stroke-opacity:1;  stroke-linecap:round; stroke-linejoin:round;">
<svg:g>
</svg:g>
<svg:g>
</svg:g>
<svg:g>
</svg:g>
<svg:g>
</svg:g>
</svg:g> 
</svg:g><svg:g><svg:title>SVG Picture created as kicadBoard-Edge_Cuts.svg date 2022/12/03 01:30:10 </svg:title>
  <svg:desc>Picture generated by PCBNEW </svg:desc>
<svg:g style="fill:#000000; fill-opacity:1.000000;stroke:#000000; stroke-opacity:1.000000; stroke-linecap:round; stroke-linejoin:round;" transform="translate(0 0) scale(1 1)">
</svg:g>
<svg:g style="fill:#000000; fill-opacity:0.0;  stroke:#000000; stroke-width:0.000000; stroke-opacity:1;  stroke-linecap:round; stroke-linejoin:round;">
<svg:g>
</svg:g>
<svg:g>
</svg:g>
<svg:g>
</svg:g>
<svg:g>
</svg:g>
</svg:g> 
</svg:g><svg:g><svg:title>SVG Picture created as kicadBoard-F_Adhesive.svg date 2022/12/03 01:30:10 </svg:title>
  <svg:desc>Picture generated by PCBNEW </svg:desc>
<svg:g style="fill:#000000; fill-opacity:1.000000;stroke:#000000; stroke-opacity:1.000000; stroke-linecap:round; stroke-linejoin:round;" transform="translate(0 0) scale(1 1)">
</svg:g>
<svg:g style="fill:#000000; fill-opacity:0.0;  stroke:#000000; stroke-width:0.000000; stroke-opacity:1;  stroke-linecap:round; stroke-linejoin:round;">
<svg:g>
</svg:g>
<svg:g>
</svg:g>
<svg:g>
</svg:g>
<svg:g>
</svg:g>
</svg:g>
<svg:g style="fill:#000000; fill-opacity:0.0;  stroke:#000000; stroke-width:0.000000; stroke-opacity:1;  stroke-linecap:round; stroke-linejoin:round;">
<svg:g>
</svg:g>
<svg:g>
</svg:g>
<svg:g>
</svg:g>
<svg:g>
</svg:g>
</svg:g> 
</svg:g><svg:g><svg:title>SVG Picture created as kicadBoard-F_Courtyard.svg date 2022/12/03 01:30:10 </svg:title>
  <svg:desc>Picture generated by PCBNEW </svg:desc>
<svg:g style="fill:#000000; fill-opacity:1.000000;stroke:#000000; stroke-opacity:1.000000; stroke-linecap:round; stroke-linejoin:round;" transform="translate(0 0) scale(1 1)">
</svg:g>
<svg:g style="fill:#000000; fill-opacity:0.0;  stroke:#000000; stroke-width:0.000000; stroke-opacity:1;  stroke-linecap:round; stroke-linejoin:round;">
<svg:g>
</svg:g>
<svg:g>
</svg:g>
<svg:g>
</svg:g>
<svg:g>
</svg:g>
</svg:g>
<svg:g style="fill:#000000; fill-opacity:0.0;  stroke:#000000; stroke-width:0.000000; stroke-opacity:1;  stroke-linecap:round; stroke-linejoin:round;">
<svg:g>
</svg:g>
<svg:g>
</svg:g>
<svg:g>
</svg:g>
<svg:g>
</svg:g>
</svg:g> 
</svg:g><svg:g><svg:title>SVG Picture created as kicadBoard-F_Cu.svg date 2022/12/03 01:30:10 </svg:title>
  <svg:desc>Picture generated by PCBNEW </svg:desc>
<svg:g style="fill:#000000; fill-opacity:1.000000;stroke:#000000; stroke-opacity:1.000000; stroke-linecap:round; stroke-linejoin:round;" transform="translate(0 0) scale(1 1)">
</svg:g>
<svg:g style="fill:#000000; fill-opacity:0.0;  stroke:#000000; stroke-width:0.000000; stroke-opacity:1;  stroke-linecap:round; stroke-linejoin:round;">
<svg:g>
</svg:g>
<svg:g style="fill:#C83434; fill-opacity:0.0;  stroke:#C83434; stroke-width:0.000000; stroke-opacity:1;  stroke-linecap:round; stroke-linejoin:round;">
</svg:g>
<svg:g style="fill:#C83434; fill-opacity:0.0;  stroke:#C83434; stroke-width:1.000000; stroke-opacity:1;  stroke-linecap:round; stroke-linejoin:round;">
</svg:g>
<svg:g style="fill:#C83434; fill-opacity:1.0;  stroke:#C83434; stroke-width:1.000000; stroke-opacity:1;  stroke-linecap:round; stroke-linejoin:round;">
<svg:path style="fill:#C83434; fill-opacity:1.0;  stroke:#C83434; stroke-width:1.000000; stroke-opacity:1;  stroke-linecap:round; stroke-linejoin:round;fill-rule:evenodd;" d="M 45255001.000000,53699999.000000 45255001.000000,51500001.000000 45854999.000000,51500001.000000 45854999.000000,53699999.000000 Z"/> 
<svg:path style="fill:#C83434; fill-opacity:1.0;  stroke:#C83434; stroke-width:1.000000; stroke-opacity:1;  stroke-linecap:round; stroke-linejoin:round;fill-rule:evenodd;" d="M 46525001.000000,53699999.000000 46525001.000000,51500001.000000 47124999.000000,51500001.000000 47124999.000000,53699999.000000 Z"/> 
<svg:path style="fill:#C83434; fill-opacity:1.0;  stroke:#C83434; stroke-width:1.000000; stroke-opacity:1;  stroke-linecap:round; stroke-linejoin:round;fill-rule:evenodd;" d="M 47795001.000000,53699999.000000 47795001.000000,51500001.000000 48394999.000000,51500001.000000 48394999.000000,53699999.000000 Z"/> 
<svg:path style="fill:#C83434; fill-opacity:1.0;  stroke:#C83434; stroke-width:1.000000; stroke-opacity:1;  stroke-linecap:round; stroke-linejoin:round;fill-rule:evenodd;" d="M 49065001.000000,53699999.000000 49065001.000000,51500001.000000 49664999.000000,51500001.000000 49664999.000000,53699999.000000 Z"/> 
<svg:path style="fill:#C83434; fill-opacity:1.0;  stroke:#C83434; stroke-width:1.000000; stroke-opacity:1;  stroke-linecap:round; stroke-linejoin:round;fill-rule:evenodd;" d="M 50335001.000000,53699999.000000 50335001.000000,51500001.000000 50934999.000000,51500001.000000 50934999.000000,53699999.000000 Z"/> 
<svg:path style="fill:#C83434; fill-opacity:1.0;  stroke:#C83434; stroke-width:1.000000; stroke-opacity:1;  stroke-linecap:round; stroke-linejoin:round;fill-rule:evenodd;" d="M 51605001.000000,53699999.000000 51605001.000000,51500001.000000 52204999.000000,51500001.000000 52204999.000000,53699999.000000 Z"/> 
<svg:path style="fill:#C83434; fill-opacity:1.0;  stroke:#C83434; stroke-width:1.000000; stroke-opacity:1;  stroke-linecap:round; stroke-linejoin:round;fill-rule:evenodd;" d="M 52875001.000000,53699999.000000 52875001.000000,51500001.000000 53474999.000000,51500001.000000 53474999.000000,53699999.000000 Z"/> 
<svg:path style="fill:#C83434; fill-opacity:1.0;  stroke:#C83434; stroke-width:1.000000; stroke-opacity:1;  stroke-linecap:round; stroke-linejoin:round;fill-rule:evenodd;" d="M 54145001.000000,53699999.000000 54145001.000000,51500001.000000 54744999.000000,51500001.000000 54744999.000000,53699999.000000 Z"/> 
<svg:path style="fill:#C83434; fill-opacity:1.0;  stroke:#C83434; stroke-width:1.000000; stroke-opacity:1;  stroke-linecap:round; stroke-linejoin:round;fill-rule:evenodd;" d="M 54145001.000000,48499999.000000 54145001.000000,46300001.000000 54744999.000000,46300001.000000 54744999.000000,48499999.000000 Z"/> 
<svg:path style="fill:#C83434; fill-opacity:1.0;  stroke:#C83434; stroke-width:1.000000; stroke-opacity:1;  stroke-linecap:round; stroke-linejoin:round;fill-rule:evenodd;" d="M 52875001.000000,48499999.000000 52875001.000000,46300001.000000 53474999.000000,46300001.000000 53474999.000000,48499999.000000 Z"/> 
<svg:path style="fill:#C83434; fill-opacity:1.0;  stroke:#C83434; stroke-width:1.000000; stroke-opacity:1;  stroke-linecap:round; stroke-linejoin:round;fill-rule:evenodd;" d="M 51605001.000000,48499999.000000 51605001.000000,46300001.000000 52204999.000000,46300001.000000 52204999.000000,48499999.000000 Z"/> 
<svg:path style="fill:#C83434; fill-opacity:1.0;  stroke:#C83434; stroke-width:1.000000; stroke-opacity:1;  stroke-linecap:round; stroke-linejoin:round;fill-rule:evenodd;" d="M 50335001.000000,48499999.000000 50335001.000000,46300001.000000 50934999.000000,46300001.000000 50934999.000000,48499999.000000 Z"/> 
<svg:path style="fill:#C83434; fill-opacity:1.0;  stroke:#C83434; stroke-width:1.000000; stroke-opacity:1;  stroke-linecap:round; stroke-linejoin:round;fill-rule:evenodd;" d="M 49065001.000000,48499999.000000 49065001.000000,46300001.000000 49664999.000000,46300001.000000 49664999.000000,48499999.000000 Z"/> 
<svg:path style="fill:#C83434; fill-opacity:1.0;  stroke:#C83434; stroke-width:1.000000; stroke-opacity:1;  stroke-linecap:round; stroke-linejoin:round;fill-rule:evenodd;" d="M 47795001.000000,48499999.000000 47795001.000000,46300001.000000 48394999.000000,46300001.000000 48394999.000000,48499999.000000 Z"/> 
<svg:path style="fill:#C83434; fill-opacity:1.0;  stroke:#C83434; stroke-width:1.000000; stroke-opacity:1;  stroke-linecap:round; stroke-linejoin:round;fill-rule:evenodd;" d="M 46525001.000000,48499999.000000 46525001.000000,46300001.000000 47124999.000000,46300001.000000 47124999.000000,48499999.000000 Z"/> 
<svg:path style="fill:#C83434; fill-opacity:1.0;  stroke:#C83434; stroke-width:1.000000; stroke-opacity:1;  stroke-linecap:round; stroke-linejoin:round;fill-rule:evenodd;" d="M 45255001.000000,48499999.000000 45255001.000000,46300001.000000 45854999.000000,46300001.000000 45854999.000000,48499999.000000 Z"/> 
</svg:g>
<svg:g>
</svg:g>
<svg:g>
</svg:g>
<svg:g>
</svg:g>
</svg:g>
<svg:g style="fill:#FFFFFF; fill-opacity:1.0;  stroke:#FFFFFF; stroke-width:1.000000; stroke-opacity:1;  stroke-linecap:round; stroke-linejoin:round;">
</svg:g>
<svg:g style="fill:#000000; fill-opacity:1.0;  stroke:#000000; stroke-width:1.000000; stroke-opacity:1;  stroke-linecap:round; stroke-linejoin:round;">
<svg:g>
</svg:g>
<svg:g>
</svg:g>
<svg:g>
</svg:g>
<svg:g>
</svg:g>
</svg:g> 
</svg:g><svg:g><svg:title>SVG Picture created as kicadBoard-F_Fab.svg date 2022/12/03 01:30:10 </svg:title>
  <svg:desc>Picture generated by PCBNEW </svg:desc>
<svg:g style="fill:#000000; fill-opacity:1.000000;stroke:#000000; stroke-opacity:1.000000; stroke-linecap:round; stroke-linejoin:round;" transform="translate(0 0) scale(1 1)">
</svg:g>
<svg:g style="fill:#000000; fill-opacity:0.0;  stroke:#000000; stroke-width:0.000000; stroke-opacity:1;  stroke-linecap:round; stroke-linejoin:round;">
</svg:g>
<svg:g style="fill:#AFAFAF; fill-opacity:0.0;  stroke:#AFAFAF; stroke-width:0.000000; stroke-opacity:1;  stroke-linecap:round; stroke-linejoin:round;">
</svg:g>
<svg:g style="fill:#AFAFAF; fill-opacity:0.0;  stroke:#AFAFAF; stroke-width:101600.000000; stroke-opacity:1;  stroke-linecap:round; stroke-linejoin:round;">
<svg:text x="45555000.000000" y="50635000.000000" textLength="6808651.000000" font-size="1557866.000000" lengthAdjust="spacingAndGlyphs" text-anchor="start" opacity="0">&gt;VALUE</svg:text>
<svg:g class="stroked-text"><svg:desc>&gt;VALUE</svg:desc>
<svg:path d="M45899230 49800428 L46789440 50134257 L45899230 50468085 "/>
<svg:path d="M47178906 49410961 L47568373 50579361 L47957840 49410961 "/>
<svg:path d="M48291668 50245533 L48848049 50245533 "/>
<svg:path d="M48180392 50579361 L48569859 49410961 L48959325 50579361 "/>
<svg:path d="M49905173 50579361 L49348792 50579361 L49348792 49410961 "/>
<svg:path d="M50294640 49410961 L50294640 50356809 L50350278 50468085 L50405916 50523723 L50517192 50579361 L50739744 50579361 L50851020 50523723 L50906659 50468085 L50962297 50356809 L50962297 49410961 "/>
<svg:path d="M51518678 49967342 L51908144 49967342 "/>
<svg:path d="M52075059 50579361 L51518678 50579361 L51518678 49410961 L52075059 49410961 "/>
</svg:g></svg:g>
<svg:g style="fill:#AFAFAF; fill-opacity:0.0;  stroke:#AFAFAF; stroke-width:203200.000000; stroke-opacity:1;  stroke-linecap:round; stroke-linejoin:round;">
<svg:path d="M54940000 51400000 L45060000 51400000 "/>
<svg:path d="M45060000 51400000 L45060000 48100000 "/>
<svg:path d="M45060000 51900000 L45060000 51400000 "/>
<svg:path d="M45060000 48100000 L54940000 48100000 "/>
<svg:path d="M54940000 48100000 L54940000 51400000 "/>
<svg:path d="M54940000 51900000 L45060000 51900000 "/>
<svg:path d="M54940000 51400000 L54940000 51900000 "/>
</svg:g>
<svg:g style="fill:#AFAFAF; fill-opacity:1.0;  stroke:#AFAFAF; stroke-width:1.000000; stroke-opacity:1;  stroke-linecap:round; stroke-linejoin:round;">
<svg:path style="fill:#AFAFAF; fill-opacity:1.0;  stroke:#AFAFAF; stroke-width:1.000000; stroke-opacity:1;  stroke-linecap:round; stroke-linejoin:round;fill-rule:evenodd;" d="M 50880000.000000,53100000.000000 50390000.000000,53100000.000000 50390000.000000,52000000.000000 50880000.000000,52000000.000000 Z"/> 
<svg:path style="fill:#AFAFAF; fill-opacity:1.0;  stroke:#AFAFAF; stroke-width:1.000000; stroke-opacity:1;  stroke-linecap:round; stroke-linejoin:round;fill-rule:evenodd;" d="M 49610000.000000,48000000.000000 49120000.000000,48000000.000000 49120000.000000,46900000.000000 49610000.000000,46900000.000000 Z"/> 
<svg:path style="fill:#AFAFAF; fill-opacity:1.0;  stroke:#AFAFAF; stroke-width:1.000000; stroke-opacity:1;  stroke-linecap:round; stroke-linejoin:round;fill-rule:evenodd;" d="M 54690000.000000,53100000.000000 54200000.000000,53100000.000000 54200000.000000,52000000.000000 54690000.000000,52000000.000000 Z"/> 
<svg:path style="fill:#AFAFAF; fill-opacity:1.0;  stroke:#AFAFAF; stroke-width:1.000000; stroke-opacity:1;  stroke-linecap:round; stroke-linejoin:round;fill-rule:evenodd;" d="M 47070000.000000,53100000.000000 46580000.000000,53100000.000000 46580000.000000,52000000.000000 47070000.000000,52000000.000000 Z"/> 
<svg:path style="fill:#AFAFAF; fill-opacity:1.0;  stroke:#AFAFAF; stroke-width:1.000000; stroke-opacity:1;  stroke-linecap:round; stroke-linejoin:round;fill-rule:evenodd;" d="M 45800000.000000,48000000.000000 45310000.000000,48000000.000000 45310000.000000,46900000.000000 45800000.000000,46900000.000000 Z"/> 
<svg:path style="fill:#AFAFAF; fill-opacity:1.0;  stroke:#AFAFAF; stroke-width:1.000000; stroke-opacity:1;  stroke-linecap:round; stroke-linejoin:round;fill-rule:evenodd;" d="M 53420000.000000,48000000.000000 52930000.000000,48000000.000000 52930000.000000,46900000.000000 53420000.000000,46900000.000000 Z"/> 
<svg:path style="fill:#AFAFAF; fill-opacity:1.0;  stroke:#AFAFAF; stroke-width:1.000000; stroke-opacity:1;  stroke-linecap:round; stroke-linejoin:round;fill-rule:evenodd;" d="M 45800000.000000,53100000.000000 45310000.000000,53100000.000000 45310000.000000,52000000.000000 45800000.000000,52000000.000000 Z"/> 
<svg:path style="fill:#AFAFAF; fill-opacity:1.0;  stroke:#AFAFAF; stroke-width:1.000000; stroke-opacity:1;  stroke-linecap:round; stroke-linejoin:round;fill-rule:evenodd;" d="M 54690000.000000,48000000.000000 54200000.000000,48000000.000000 54200000.000000,46900000.000000 54690000.000000,46900000.000000 Z"/> 
<svg:path style="fill:#AFAFAF; fill-opacity:1.0;  stroke:#AFAFAF; stroke-width:1.000000; stroke-opacity:1;  stroke-linecap:round; stroke-linejoin:round;fill-rule:evenodd;" d="M 48340000.000000,53100000.000000 47850000.000000,53100000.000000 47850000.000000,52000000.000000 48340000.000000,52000000.000000 Z"/> 
<svg:path style="fill:#AFAFAF; fill-opacity:1.0;  stroke:#AFAFAF; stroke-width:1.000000; stroke-opacity:1;  stroke-linecap:round; stroke-linejoin:round;fill-rule:evenodd;" d="M 49610000.000000,53100000.000000 49120000.000000,53100000.000000 49120000.000000,52000000.000000 49610000.000000,52000000.000000 Z"/> 
<svg:path style="fill:#AFAFAF; fill-opacity:1.0;  stroke:#AFAFAF; stroke-width:1.000000; stroke-opacity:1;  stroke-linecap:round; stroke-linejoin:round;fill-rule:evenodd;" d="M 52150000.000000,48000000.000000 51660000.000000,48000000.000000 51660000.000000,46900000.000000 52150000.000000,46900000.000000 Z"/> 
<svg:path style="fill:#AFAFAF; fill-opacity:1.0;  stroke:#AFAFAF; stroke-width:1.000000; stroke-opacity:1;  stroke-linecap:round; stroke-linejoin:round;fill-rule:evenodd;" d="M 47070000.000000,48000000.000000 46580000.000000,48000000.000000 46580000.000000,46900000.000000 47070000.000000,46900000.000000 Z"/> 
<svg:path style="fill:#AFAFAF; fill-opacity:1.0;  stroke:#AFAFAF; stroke-width:1.000000; stroke-opacity:1;  stroke-linecap:round; stroke-linejoin:round;fill-rule:evenodd;" d="M 53420000.000000,53100000.000000 52930000.000000,53100000.000000 52930000.000000,52000000.000000 53420000.000000,52000000.000000 Z"/> 
<svg:path style="fill:#AFAFAF; fill-opacity:1.0;  stroke:#AFAFAF; stroke-width:1.000000; stroke-opacity:1;  stroke-linecap:round; stroke-linejoin:round;fill-rule:evenodd;" d="M 52150000.000000,53100000.000000 51660000.000000,53100000.000000 51660000.000000,52000000.000000 52150000.000000,52000000.000000 Z"/> 
<svg:path style="fill:#AFAFAF; fill-opacity:1.0;  stroke:#AFAFAF; stroke-width:1.000000; stroke-opacity:1;  stroke-linecap:round; stroke-linejoin:round;fill-rule:evenodd;" d="M 48340000.000000,48000000.000000 47850000.000000,48000000.000000 47850000.000000,46900000.000000 48340000.000000,46900000.000000 Z"/> 
<svg:path style="fill:#AFAFAF; fill-opacity:1.0;  stroke:#AFAFAF; stroke-width:1.000000; stroke-opacity:1;  stroke-linecap:round; stroke-linejoin:round;fill-rule:evenodd;" d="M 50880000.000000,48000000.000000 50390000.000000,48000000.000000 50390000.000000,46900000.000000 50880000.000000,46900000.000000 Z"/> 
<svg:g>
</svg:g>
<svg:g>
</svg:g>
<svg:g>
</svg:g>
<svg:g>
</svg:g>
</svg:g>
<svg:g style="fill:#000000; fill-opacity:1.0;  stroke:#000000; stroke-width:1.000000; stroke-opacity:1;  stroke-linecap:round; stroke-linejoin:round;">
<svg:g>
</svg:g>
<svg:g>
</svg:g>
<svg:g>
</svg:g>
<svg:g>
</svg:g>
</svg:g> 
</svg:g><svg:g><svg:title>SVG Picture created as kicadBoard-F_Mask.svg date 2022/12/03 01:30:10 </svg:title>
  <svg:desc>Picture generated by PCBNEW </svg:desc>
<svg:g style="fill:#000000; fill-opacity:1.000000;stroke:#000000; stroke-opacity:1.000000; stroke-linecap:round; stroke-linejoin:round;" transform="translate(0 0) scale(1 1)">
</svg:g>
<svg:g style="fill:#000000; fill-opacity:0.0;  stroke:#000000; stroke-width:0.000000; stroke-opacity:1;  stroke-linecap:round; stroke-linejoin:round;">
<svg:g>
</svg:g>
<svg:g style="fill:#000000; fill-opacity:0.0;  stroke:#000000; stroke-width:1.000000; stroke-opacity:1;  stroke-linecap:round; stroke-linejoin:round;">
</svg:g>
<svg:g style="fill:#000000; fill-opacity:1.0;  stroke:#000000; stroke-width:1.000000; stroke-opacity:1;  stroke-linecap:round; stroke-linejoin:round;">
<svg:path style="fill:#000000; fill-opacity:1.0;  stroke:#000000; stroke-width:1.000000; stroke-opacity:1;  stroke-linecap:round; stroke-linejoin:round;fill-rule:evenodd;" d="M 45153400.000000,51500000.000000 45161134.000000,51461119.000000 45183158.000000,51428158.000000 45216119.000000,51406134.000000 45255000.000000,51398400.000000 45855000.000000,51398400.000000 45893881.000000,51406134.000000 45926842.000000,51428158.000000 45948866.000000,51461119.000000 45956600.000000,51500000.000000 45956600.000000,53700000.000000 45948866.000000,53738881.000000 45926842.000000,53771842.000000 45893881.000000,53793866.000000 45855000.000000,53801600.000000 45255000.000000,53801600.000000 45216119.000000,53793866.000000 45183158.000000,53771842.000000 45161134.000000,53738881.000000 45153400.000000,53700000.000000 Z"/> 
<svg:path style="fill:#000000; fill-opacity:1.0;  stroke:#000000; stroke-width:1.000000; stroke-opacity:1;  stroke-linecap:round; stroke-linejoin:round;fill-rule:evenodd;" d="M 46423400.000000,51500000.000000 46431134.000000,51461119.000000 46453158.000000,51428158.000000 46486119.000000,51406134.000000 46525000.000000,51398400.000000 47125000.000000,51398400.000000 47163881.000000,51406134.000000 47196842.000000,51428158.000000 47218866.000000,51461119.000000 47226600.000000,51500000.000000 47226600.000000,53700000.000000 47218866.000000,53738881.000000 47196842.000000,53771842.000000 47163881.000000,53793866.000000 47125000.000000,53801600.000000 46525000.000000,53801600.000000 46486119.000000,53793866.000000 46453158.000000,53771842.000000 46431134.000000,53738881.000000 46423400.000000,53700000.000000 Z"/> 
<svg:path style="fill:#000000; fill-opacity:1.0;  stroke:#000000; stroke-width:1.000000; stroke-opacity:1;  stroke-linecap:round; stroke-linejoin:round;fill-rule:evenodd;" d="M 47693400.000000,51500000.000000 47701134.000000,51461119.000000 47723158.000000,51428158.000000 47756119.000000,51406134.000000 47795000.000000,51398400.000000 48395000.000000,51398400.000000 48433881.000000,51406134.000000 48466842.000000,51428158.000000 48488866.000000,51461119.000000 48496600.000000,51500000.000000 48496600.000000,53700000.000000 48488866.000000,53738881.000000 48466842.000000,53771842.000000 48433881.000000,53793866.000000 48395000.000000,53801600.000000 47795000.000000,53801600.000000 47756119.000000,53793866.000000 47723158.000000,53771842.000000 47701134.000000,53738881.000000 47693400.000000,53700000.000000 Z"/> 
<svg:path style="fill:#000000; fill-opacity:1.0;  stroke:#000000; stroke-width:1.000000; stroke-opacity:1;  stroke-linecap:round; stroke-linejoin:round;fill-rule:evenodd;" d="M 48963400.000000,51500000.000000 48971134.000000,51461119.000000 48993158.000000,51428158.000000 49026119.000000,51406134.000000 49065000.000000,51398400.000000 49665000.000000,51398400.000000 49703881.000000,51406134.000000 49736842.000000,51428158.000000 49758866.000000,51461119.000000 49766600.000000,51500000.000000 49766600.000000,53700000.000000 49758866.000000,53738881.000000 49736842.000000,53771842.000000 49703881.000000,53793866.000000 49665000.000000,53801600.000000 49065000.000000,53801600.000000 49026119.000000,53793866.000000 48993158.000000,53771842.000000 48971134.000000,53738881.000000 48963400.000000,53700000.000000 Z"/> 
<svg:path style="fill:#000000; fill-opacity:1.0;  stroke:#000000; stroke-width:1.000000; stroke-opacity:1;  stroke-linecap:round; stroke-linejoin:round;fill-rule:evenodd;" d="M 50233400.000000,51500000.000000 50241134.000000,51461119.000000 50263158.000000,51428158.000000 50296119.000000,51406134.000000 50335000.000000,51398400.000000 50935000.000000,51398400.000000 50973881.000000,51406134.000000 51006842.000000,51428158.000000 51028866.000000,51461119.000000 51036600.000000,51500000.000000 51036600.000000,53700000.000000 51028866.000000,53738881.000000 51006842.000000,53771842.000000 50973881.000000,53793866.000000 50935000.000000,53801600.000000 50335000.000000,53801600.000000 50296119.000000,53793866.000000 50263158.000000,53771842.000000 50241134.000000,53738881.000000 50233400.000000,53700000.000000 Z"/> 
<svg:path style="fill:#000000; fill-opacity:1.0;  stroke:#000000; stroke-width:1.000000; stroke-opacity:1;  stroke-linecap:round; stroke-linejoin:round;fill-rule:evenodd;" d="M 51503400.000000,51500000.000000 51511134.000000,51461119.000000 51533158.000000,51428158.000000 51566119.000000,51406134.000000 51605000.000000,51398400.000000 52205000.000000,51398400.000000 52243881.000000,51406134.000000 52276842.000000,51428158.000000 52298866.000000,51461119.000000 52306600.000000,51500000.000000 52306600.000000,53700000.000000 52298866.000000,53738881.000000 52276842.000000,53771842.000000 52243881.000000,53793866.000000 52205000.000000,53801600.000000 51605000.000000,53801600.000000 51566119.000000,53793866.000000 51533158.000000,53771842.000000 51511134.000000,53738881.000000 51503400.000000,53700000.000000 Z"/> 
<svg:path style="fill:#000000; fill-opacity:1.0;  stroke:#000000; stroke-width:1.000000; stroke-opacity:1;  stroke-linecap:round; stroke-linejoin:round;fill-rule:evenodd;" d="M 52773400.000000,51500000.000000 52781134.000000,51461119.000000 52803158.000000,51428158.000000 52836119.000000,51406134.000000 52875000.000000,51398400.000000 53475000.000000,51398400.000000 53513881.000000,51406134.000000 53546842.000000,51428158.000000 53568866.000000,51461119.000000 53576600.000000,51500000.000000 53576600.000000,53700000.000000 53568866.000000,53738881.000000 53546842.000000,53771842.000000 53513881.000000,53793866.000000 53475000.000000,53801600.000000 52875000.000000,53801600.000000 52836119.000000,53793866.000000 52803158.000000,53771842.000000 52781134.000000,53738881.000000 52773400.000000,53700000.000000 Z"/> 
<svg:path style="fill:#000000; fill-opacity:1.0;  stroke:#000000; stroke-width:1.000000; stroke-opacity:1;  stroke-linecap:round; stroke-linejoin:round;fill-rule:evenodd;" d="M 54043400.000000,51500000.000000 54051134.000000,51461119.000000 54073158.000000,51428158.000000 54106119.000000,51406134.000000 54145000.000000,51398400.000000 54745000.000000,51398400.000000 54783881.000000,51406134.000000 54816842.000000,51428158.000000 54838866.000000,51461119.000000 54846600.000000,51500000.000000 54846600.000000,53700000.000000 54838866.000000,53738881.000000 54816842.000000,53771842.000000 54783881.000000,53793866.000000 54745000.000000,53801600.000000 54145000.000000,53801600.000000 54106119.000000,53793866.000000 54073158.000000,53771842.000000 54051134.000000,53738881.000000 54043400.000000,53700000.000000 Z"/> 
<svg:path style="fill:#000000; fill-opacity:1.0;  stroke:#000000; stroke-width:1.000000; stroke-opacity:1;  stroke-linecap:round; stroke-linejoin:round;fill-rule:evenodd;" d="M 54043400.000000,46300000.000000 54051134.000000,46261119.000000 54073158.000000,46228158.000000 54106119.000000,46206134.000000 54145000.000000,46198400.000000 54745000.000000,46198400.000000 54783881.000000,46206134.000000 54816842.000000,46228158.000000 54838866.000000,46261119.000000 54846600.000000,46300000.000000 54846600.000000,48500000.000000 54838866.000000,48538881.000000 54816842.000000,48571842.000000 54783881.000000,48593866.000000 54745000.000000,48601600.000000 54145000.000000,48601600.000000 54106119.000000,48593866.000000 54073158.000000,48571842.000000 54051134.000000,48538881.000000 54043400.000000,48500000.000000 Z"/> 
<svg:path style="fill:#000000; fill-opacity:1.0;  stroke:#000000; stroke-width:1.000000; stroke-opacity:1;  stroke-linecap:round; stroke-linejoin:round;fill-rule:evenodd;" d="M 52773400.000000,46300000.000000 52781134.000000,46261119.000000 52803158.000000,46228158.000000 52836119.000000,46206134.000000 52875000.000000,46198400.000000 53475000.000000,46198400.000000 53513881.000000,46206134.000000 53546842.000000,46228158.000000 53568866.000000,46261119.000000 53576600.000000,46300000.000000 53576600.000000,48500000.000000 53568866.000000,48538881.000000 53546842.000000,48571842.000000 53513881.000000,48593866.000000 53475000.000000,48601600.000000 52875000.000000,48601600.000000 52836119.000000,48593866.000000 52803158.000000,48571842.000000 52781134.000000,48538881.000000 52773400.000000,48500000.000000 Z"/> 
<svg:path style="fill:#000000; fill-opacity:1.0;  stroke:#000000; stroke-width:1.000000; stroke-opacity:1;  stroke-linecap:round; stroke-linejoin:round;fill-rule:evenodd;" d="M 51503400.000000,46300000.000000 51511134.000000,46261119.000000 51533158.000000,46228158.000000 51566119.000000,46206134.000000 51605000.000000,46198400.000000 52205000.000000,46198400.000000 52243881.000000,46206134.000000 52276842.000000,46228158.000000 52298866.000000,46261119.000000 52306600.000000,46300000.000000 52306600.000000,48500000.000000 52298866.000000,48538881.000000 52276842.000000,48571842.000000 52243881.000000,48593866.000000 52205000.000000,48601600.000000 51605000.000000,48601600.000000 51566119.000000,48593866.000000 51533158.000000,48571842.000000 51511134.000000,48538881.000000 51503400.000000,48500000.000000 Z"/> 
<svg:path style="fill:#000000; fill-opacity:1.0;  stroke:#000000; stroke-width:1.000000; stroke-opacity:1;  stroke-linecap:round; stroke-linejoin:round;fill-rule:evenodd;" d="M 50233400.000000,46300000.000000 50241134.000000,46261119.000000 50263158.000000,46228158.000000 50296119.000000,46206134.000000 50335000.000000,46198400.000000 50935000.000000,46198400.000000 50973881.000000,46206134.000000 51006842.000000,46228158.000000 51028866.000000,46261119.000000 51036600.000000,46300000.000000 51036600.000000,48500000.000000 51028866.000000,48538881.000000 51006842.000000,48571842.000000 50973881.000000,48593866.000000 50935000.000000,48601600.000000 50335000.000000,48601600.000000 50296119.000000,48593866.000000 50263158.000000,48571842.000000 50241134.000000,48538881.000000 50233400.000000,48500000.000000 Z"/> 
<svg:path style="fill:#000000; fill-opacity:1.0;  stroke:#000000; stroke-width:1.000000; stroke-opacity:1;  stroke-linecap:round; stroke-linejoin:round;fill-rule:evenodd;" d="M 48963400.000000,46300000.000000 48971134.000000,46261119.000000 48993158.000000,46228158.000000 49026119.000000,46206134.000000 49065000.000000,46198400.000000 49665000.000000,46198400.000000 49703881.000000,46206134.000000 49736842.000000,46228158.000000 49758866.000000,46261119.000000 49766600.000000,46300000.000000 49766600.000000,48500000.000000 49758866.000000,48538881.000000 49736842.000000,48571842.000000 49703881.000000,48593866.000000 49665000.000000,48601600.000000 49065000.000000,48601600.000000 49026119.000000,48593866.000000 48993158.000000,48571842.000000 48971134.000000,48538881.000000 48963400.000000,48500000.000000 Z"/> 
<svg:path style="fill:#000000; fill-opacity:1.0;  stroke:#000000; stroke-width:1.000000; stroke-opacity:1;  stroke-linecap:round; stroke-linejoin:round;fill-rule:evenodd;" d="M 47693400.000000,46300000.000000 47701134.000000,46261119.000000 47723158.000000,46228158.000000 47756119.000000,46206134.000000 47795000.000000,46198400.000000 48395000.000000,46198400.000000 48433881.000000,46206134.000000 48466842.000000,46228158.000000 48488866.000000,46261119.000000 48496600.000000,46300000.000000 48496600.000000,48500000.000000 48488866.000000,48538881.000000 48466842.000000,48571842.000000 48433881.000000,48593866.000000 48395000.000000,48601600.000000 47795000.000000,48601600.000000 47756119.000000,48593866.000000 47723158.000000,48571842.000000 47701134.000000,48538881.000000 47693400.000000,48500000.000000 Z"/> 
<svg:path style="fill:#000000; fill-opacity:1.0;  stroke:#000000; stroke-width:1.000000; stroke-opacity:1;  stroke-linecap:round; stroke-linejoin:round;fill-rule:evenodd;" d="M 46423400.000000,46300000.000000 46431134.000000,46261119.000000 46453158.000000,46228158.000000 46486119.000000,46206134.000000 46525000.000000,46198400.000000 47125000.000000,46198400.000000 47163881.000000,46206134.000000 47196842.000000,46228158.000000 47218866.000000,46261119.000000 47226600.000000,46300000.000000 47226600.000000,48500000.000000 47218866.000000,48538881.000000 47196842.000000,48571842.000000 47163881.000000,48593866.000000 47125000.000000,48601600.000000 46525000.000000,48601600.000000 46486119.000000,48593866.000000 46453158.000000,48571842.000000 46431134.000000,48538881.000000 46423400.000000,48500000.000000 Z"/> 
<svg:path style="fill:#000000; fill-opacity:1.0;  stroke:#000000; stroke-width:1.000000; stroke-opacity:1;  stroke-linecap:round; stroke-linejoin:round;fill-rule:evenodd;" d="M 45153400.000000,46300000.000000 45161134.000000,46261119.000000 45183158.000000,46228158.000000 45216119.000000,46206134.000000 45255000.000000,46198400.000000 45855000.000000,46198400.000000 45893881.000000,46206134.000000 45926842.000000,46228158.000000 45948866.000000,46261119.000000 45956600.000000,46300000.000000 45956600.000000,48500000.000000 45948866.000000,48538881.000000 45926842.000000,48571842.000000 45893881.000000,48593866.000000 45855000.000000,48601600.000000 45255000.000000,48601600.000000 45216119.000000,48593866.000000 45183158.000000,48571842.000000 45161134.000000,48538881.000000 45153400.000000,48500000.000000 Z"/> 
</svg:g>
<svg:g>
</svg:g>
<svg:g>
</svg:g>
<svg:g>
</svg:g>
</svg:g>
<svg:g style="fill:#000000; fill-opacity:1.0;  stroke:#000000; stroke-width:1.000000; stroke-opacity:1;  stroke-linecap:round; stroke-linejoin:round;">
<svg:g>
</svg:g>
<svg:g>
</svg:g>
<svg:g>
</svg:g>
<svg:g>
</svg:g>
</svg:g> 
</svg:g><svg:g><svg:title>SVG Picture created as kicadBoard-F_Paste.svg date 2022/12/03 01:30:10 </svg:title>
  <svg:desc>Picture generated by PCBNEW </svg:desc>
<svg:g style="fill:#000000; fill-opacity:1.000000;stroke:#000000; stroke-opacity:1.000000; stroke-linecap:round; stroke-linejoin:round;" transform="translate(0 0) scale(1 1)">
</svg:g>
<svg:g style="fill:#000000; fill-opacity:0.0;  stroke:#000000; stroke-width:0.000000; stroke-opacity:1;  stroke-linecap:round; stroke-linejoin:round;">
<svg:g>
</svg:g>
<svg:g style="fill:#000000; fill-opacity:0.0;  stroke:#000000; stroke-width:1.000000; stroke-opacity:1;  stroke-linecap:round; stroke-linejoin:round;">
</svg:g>
<svg:g style="fill:#000000; fill-opacity:1.0;  stroke:#000000; stroke-width:1.000000; stroke-opacity:1;  stroke-linecap:round; stroke-linejoin:round;">
<svg:path style="fill:#000000; fill-opacity:1.0;  stroke:#000000; stroke-width:1.000000; stroke-opacity:1;  stroke-linecap:round; stroke-linejoin:round;fill-rule:evenodd;" d="M 45255001.000000,53699999.000000 45255001.000000,51500001.000000 45854999.000000,51500001.000000 45854999.000000,53699999.000000 Z"/> 
<svg:path style="fill:#000000; fill-opacity:1.0;  stroke:#000000; stroke-width:1.000000; stroke-opacity:1;  stroke-linecap:round; stroke-linejoin:round;fill-rule:evenodd;" d="M 46525001.000000,53699999.000000 46525001.000000,51500001.000000 47124999.000000,51500001.000000 47124999.000000,53699999.000000 Z"/> 
<svg:path style="fill:#000000; fill-opacity:1.0;  stroke:#000000; stroke-width:1.000000; stroke-opacity:1;  stroke-linecap:round; stroke-linejoin:round;fill-rule:evenodd;" d="M 47795001.000000,53699999.000000 47795001.000000,51500001.000000 48394999.000000,51500001.000000 48394999.000000,53699999.000000 Z"/> 
<svg:path style="fill:#000000; fill-opacity:1.0;  stroke:#000000; stroke-width:1.000000; stroke-opacity:1;  stroke-linecap:round; stroke-linejoin:round;fill-rule:evenodd;" d="M 49065001.000000,53699999.000000 49065001.000000,51500001.000000 49664999.000000,51500001.000000 49664999.000000,53699999.000000 Z"/> 
<svg:path style="fill:#000000; fill-opacity:1.0;  stroke:#000000; stroke-width:1.000000; stroke-opacity:1;  stroke-linecap:round; stroke-linejoin:round;fill-rule:evenodd;" d="M 50335001.000000,53699999.000000 50335001.000000,51500001.000000 50934999.000000,51500001.000000 50934999.000000,53699999.000000 Z"/> 
<svg:path style="fill:#000000; fill-opacity:1.0;  stroke:#000000; stroke-width:1.000000; stroke-opacity:1;  stroke-linecap:round; stroke-linejoin:round;fill-rule:evenodd;" d="M 51605001.000000,53699999.000000 51605001.000000,51500001.000000 52204999.000000,51500001.000000 52204999.000000,53699999.000000 Z"/> 
<svg:path style="fill:#000000; fill-opacity:1.0;  stroke:#000000; stroke-width:1.000000; stroke-opacity:1;  stroke-linecap:round; stroke-linejoin:round;fill-rule:evenodd;" d="M 52875001.000000,53699999.000000 52875001.000000,51500001.000000 53474999.000000,51500001.000000 53474999.000000,53699999.000000 Z"/> 
<svg:path style="fill:#000000; fill-opacity:1.0;  stroke:#000000; stroke-width:1.000000; stroke-opacity:1;  stroke-linecap:round; stroke-linejoin:round;fill-rule:evenodd;" d="M 54145001.000000,53699999.000000 54145001.000000,51500001.000000 54744999.000000,51500001.000000 54744999.000000,53699999.000000 Z"/> 
<svg:path style="fill:#000000; fill-opacity:1.0;  stroke:#000000; stroke-width:1.000000; stroke-opacity:1;  stroke-linecap:round; stroke-linejoin:round;fill-rule:evenodd;" d="M 54145001.000000,48499999.000000 54145001.000000,46300001.000000 54744999.000000,46300001.000000 54744999.000000,48499999.000000 Z"/> 
<svg:path style="fill:#000000; fill-opacity:1.0;  stroke:#000000; stroke-width:1.000000; stroke-opacity:1;  stroke-linecap:round; stroke-linejoin:round;fill-rule:evenodd;" d="M 52875001.000000,48499999.000000 52875001.000000,46300001.000000 53474999.000000,46300001.000000 53474999.000000,48499999.000000 Z"/> 
<svg:path style="fill:#000000; fill-opacity:1.0;  stroke:#000000; stroke-width:1.000000; stroke-opacity:1;  stroke-linecap:round; stroke-linejoin:round;fill-rule:evenodd;" d="M 51605001.000000,48499999.000000 51605001.000000,46300001.000000 52204999.000000,46300001.000000 52204999.000000,48499999.000000 Z"/> 
<svg:path style="fill:#000000; fill-opacity:1.0;  stroke:#000000; stroke-width:1.000000; stroke-opacity:1;  stroke-linecap:round; stroke-linejoin:round;fill-rule:evenodd;" d="M 50335001.000000,48499999.000000 50335001.000000,46300001.000000 50934999.000000,46300001.000000 50934999.000000,48499999.000000 Z"/> 
<svg:path style="fill:#000000; fill-opacity:1.0;  stroke:#000000; stroke-width:1.000000; stroke-opacity:1;  stroke-linecap:round; stroke-linejoin:round;fill-rule:evenodd;" d="M 49065001.000000,48499999.000000 49065001.000000,46300001.000000 49664999.000000,46300001.000000 49664999.000000,48499999.000000 Z"/> 
<svg:path style="fill:#000000; fill-opacity:1.0;  stroke:#000000; stroke-width:1.000000; stroke-opacity:1;  stroke-linecap:round; stroke-linejoin:round;fill-rule:evenodd;" d="M 47795001.000000,48499999.000000 47795001.000000,46300001.000000 48394999.000000,46300001.000000 48394999.000000,48499999.000000 Z"/> 
<svg:path style="fill:#000000; fill-opacity:1.0;  stroke:#000000; stroke-width:1.000000; stroke-opacity:1;  stroke-linecap:round; stroke-linejoin:round;fill-rule:evenodd;" d="M 46525001.000000,48499999.000000 46525001.000000,46300001.000000 47124999.000000,46300001.000000 47124999.000000,48499999.000000 Z"/> 
<svg:path style="fill:#000000; fill-opacity:1.0;  stroke:#000000; stroke-width:1.000000; stroke-opacity:1;  stroke-linecap:round; stroke-linejoin:round;fill-rule:evenodd;" d="M 45255001.000000,48499999.000000 45255001.000000,46300001.000000 45854999.000000,46300001.000000 45854999.000000,48499999.000000 Z"/> 
</svg:g>
<svg:g>
</svg:g>
<svg:g>
</svg:g>
<svg:g>
</svg:g>
</svg:g>
<svg:g style="fill:#000000; fill-opacity:1.0;  stroke:#000000; stroke-width:1.000000; stroke-opacity:1;  stroke-linecap:round; stroke-linejoin:round;">
<svg:g>
</svg:g>
<svg:g>
</svg:g>
<svg:g>
</svg:g>
<svg:g>
</svg:g>
</svg:g> 
</svg:g><svg:g><svg:title>SVG Picture created as kicadBoard-F_Silkscreen.svg date 2022/12/03 01:30:10 </svg:title>
  <svg:desc>Picture generated by PCBNEW </svg:desc>
<svg:g style="fill:#000000; fill-opacity:1.000000;stroke:#000000; stroke-opacity:1.000000; stroke-linecap:round; stroke-linejoin:round;" transform="translate(0 0) scale(1 1)">
</svg:g>
<svg:g style="fill:#000000; fill-opacity:0.0;  stroke:#000000; stroke-width:0.000000; stroke-opacity:1;  stroke-linecap:round; stroke-linejoin:round;">
</svg:g>
<svg:g style="fill:#F2EDA1; fill-opacity:0.0;  stroke:#F2EDA1; stroke-width:0.000000; stroke-opacity:1;  stroke-linecap:round; stroke-linejoin:round;">
</svg:g>
<svg:g style="fill:#F2EDA1; fill-opacity:0.0;  stroke:#F2EDA1; stroke-width:101600.000000; stroke-opacity:1;  stroke-linecap:round; stroke-linejoin:round;">
<svg:g transform="rotate(-90.000000 44793000.000000 51905000.000000)">
<svg:text x="44793000.000000" y="51905000.000000" textLength="24369487.000000" font-size="1557866.000000" lengthAdjust="spacingAndGlyphs" text-anchor="start" opacity="0">FZEANALOGDEVICESSOIC16N</svg:text>
</svg:g>
<svg:g class="stroked-text"><svg:desc>FZEANALOGDEVICESSOIC16N</svg:desc>
<svg:path d="M44125342 51171302 L44125342 51560769 "/>
<svg:path d="M44737361 51560769 L43568961 51560769 L43568961 51004388 "/>
<svg:path d="M43568961 50670560 L43568961 49891626 L44737361 50670560 L44737361 49891626 "/>
<svg:path d="M44125342 49446521 L44125342 49057055 "/>
<svg:path d="M44737361 48890140 L44737361 49446521 L43568961 49446521 L43568961 48890140 "/>
<svg:path d="M44403533 48445036 L44403533 47888655 "/>
<svg:path d="M44737361 48556312 L43568961 48166845 L44737361 47777379 "/>
<svg:path d="M44737361 47387912 L43568961 47387912 L44737361 46720255 L43568961 46720255 "/>
<svg:path d="M44403533 46219512 L44403533 45663131 "/>
<svg:path d="M44737361 46330788 L43568961 45941321 L44737361 45551855 "/>
<svg:path d="M44737361 44606007 L44737361 45162388 L43568961 45162388 "/>
<svg:path d="M43568961 43993988 L43568961 43771436 L43624600 43660160 L43735876 43548883 L43958428 43493245 L44347895 43493245 L44570447 43548883 L44681723 43660160 L44737361 43771436 L44737361 43993988 L44681723 44105264 L44570447 44216540 L44347895 44272179 L43958428 44272179 L43735876 44216540 L43624600 44105264 L43568961 43993988 "/>
<svg:path d="M43624600 42380483 L43568961 42491760 L43568961 42658674 L43624600 42825588 L43735876 42936864 L43847152 42992502 L44069704 43048140 L44236619 43048140 L44459171 42992502 L44570447 42936864 L44681723 42825588 L44737361 42658674 L44737361 42547398 L44681723 42380483 L44626085 42324845 L44236619 42324845 L44236619 42547398 "/>
<svg:path d="M44737361 41824102 L43568961 41824102 L43568961 41545912 L43624600 41378998 L43735876 41267721 L43847152 41212083 L44069704 41156445 L44236619 41156445 L44459171 41212083 L44570447 41267721 L44681723 41378998 L44737361 41545912 L44737361 41824102 "/>
<svg:path d="M44125342 40655702 L44125342 40266236 "/>
<svg:path d="M44737361 40099321 L44737361 40655702 L43568961 40655702 L43568961 40099321 "/>
<svg:path d="M43568961 39765493 L44737361 39376026 L43568961 38986560 "/>
<svg:path d="M44737361 38597093 L43568961 38597093 "/>
<svg:path d="M44626085 37373055 L44681723 37428693 L44737361 37595607 L44737361 37706883 L44681723 37873798 L44570447 37985074 L44459171 38040712 L44236619 38096350 L44069704 38096350 L43847152 38040712 L43735876 37985074 L43624600 37873798 L43568961 37706883 L43568961 37595607 L43624600 37428693 L43680238 37373055 "/>
<svg:path d="M44125342 36872312 L44125342 36482845 "/>
<svg:path d="M44737361 36315931 L44737361 36872312 L43568961 36872312 L43568961 36315931 "/>
<svg:path d="M44681723 35870826 L44737361 35703912 L44737361 35425721 L44681723 35314445 L44626085 35258807 L44514809 35203169 L44403533 35203169 L44292257 35258807 L44236619 35314445 L44180980 35425721 L44125342 35648274 L44069704 35759550 L44014066 35815188 L43902790 35870826 L43791514 35870826 L43680238 35815188 L43624600 35759550 L43568961 35648274 L43568961 35370083 L43624600 35203169 "/>
<svg:path d="M44681723 34758064 L44737361 34591150 L44737361 34312960 L44681723 34201683 L44626085 34146045 L44514809 34090407 L44403533 34090407 L44292257 34146045 L44236619 34201683 L44180980 34312960 L44125342 34535512 L44069704 34646788 L44014066 34702426 L43902790 34758064 L43791514 34758064 L43680238 34702426 L43624600 34646788 L43568961 34535512 L43568961 34257321 L43624600 34090407 "/>
<svg:path d="M43568961 33367112 L43568961 33144560 L43624600 33033283 L43735876 32922007 L43958428 32866369 L44347895 32866369 L44570447 32922007 L44681723 33033283 L44737361 33144560 L44737361 33367112 L44681723 33478388 L44570447 33589664 L44347895 33645302 L43958428 33645302 L43735876 33589664 L43624600 33478388 L43568961 33367112 "/>
<svg:path d="M44737361 32365626 L43568961 32365626 "/>
<svg:path d="M44626085 31141588 L44681723 31197226 L44737361 31364140 L44737361 31475417 L44681723 31642331 L44570447 31753607 L44459171 31809245 L44236619 31864883 L44069704 31864883 L43847152 31809245 L43735876 31753607 L43624600 31642331 L43568961 31475417 L43568961 31364140 L43624600 31197226 L43680238 31141588 "/>
<svg:path d="M44737361 30028826 L44737361 30696483 "/>
<svg:path d="M44737361 30362655 L43568961 30362655 L43735876 30473931 L43847152 30585207 L43902790 30696483 "/>
<svg:path d="M43568961 29027340 L43568961 29249893 L43624600 29361169 L43680238 29416807 L43847152 29528083 L44069704 29583721 L44514809 29583721 L44626085 29528083 L44681723 29472445 L44737361 29361169 L44737361 29138617 L44681723 29027340 L44626085 28971702 L44514809 28916064 L44236619 28916064 L44125342 28971702 L44069704 29027340 L44014066 29138617 L44014066 29361169 L44069704 29472445 L44125342 29528083 L44236619 29583721 "/>
<svg:path d="M44737361 28415321 L43568961 28415321 L44737361 27747664 L43568961 27747664 "/>
</svg:g><svg:g>
</svg:g>
<svg:g>
</svg:g>
<svg:g>
</svg:g>
<svg:g>
</svg:g>
</svg:g>
<svg:g style="fill:#000000; fill-opacity:0.0;  stroke:#000000; stroke-width:101600.000000; stroke-opacity:1;  stroke-linecap:round; stroke-linejoin:round;">
<svg:g>
</svg:g>
<svg:g>
</svg:g>
<svg:g>
</svg:g>
<svg:g>
</svg:g>
</svg:g> 
</svg:g><svg:g><svg:title>SVG Picture created as kicadBoard-Margin.svg date 2022/12/03 01:30:10 </svg:title>
  <svg:desc>Picture generated by PCBNEW </svg:desc>
<svg:g style="fill:#000000; fill-opacity:1.000000;stroke:#000000; stroke-opacity:1.000000; stroke-linecap:round; stroke-linejoin:round;" transform="translate(0 0) scale(1 1)">
</svg:g>
<svg:g style="fill:#000000; fill-opacity:0.0;  stroke:#000000; stroke-width:0.000000; stroke-opacity:1;  stroke-linecap:round; stroke-linejoin:round;">
<svg:g>
</svg:g>
<svg:g>
</svg:g>
<svg:g>
</svg:g>
<svg:g>
</svg:g>
</svg:g>
<svg:g style="fill:#000000; fill-opacity:0.0;  stroke:#000000; stroke-width:0.000000; stroke-opacity:1;  stroke-linecap:round; stroke-linejoin:round;">
<svg:g>
</svg:g>
<svg:g>
</svg:g>
<svg:g>
</svg:g>
<svg:g>
</svg:g>
</svg:g> 
</svg:g><svg:g><svg:title>SVG Picture created as kicadBoard-F_Cu.svg date 2022/12/03 01:30:10 </svg:title>
  <svg:desc>Picture generated by PCBNEW </svg:desc>
<svg:g style="fill:#000000; fill-opacity:1.000000;stroke:#000000; stroke-opacity:1.000000; stroke-linecap:round; stroke-linejoin:round;" transform="translate(0 0) scale(1 1)">
</svg:g>
<svg:g style="fill:#000000; fill-opacity:0.0;  stroke:#000000; stroke-width:0.000000; stroke-opacity:1;  stroke-linecap:round; stroke-linejoin:round;">
<svg:g>
</svg:g>
<svg:g style="fill:#C83434; fill-opacity:0.0;  stroke:#C83434; stroke-width:0.000000; stroke-opacity:1;  stroke-linecap:round; stroke-linejoin:round;">
</svg:g>
<svg:g style="fill:#C83434; fill-opacity:0.0;  stroke:#C83434; stroke-width:1.000000; stroke-opacity:1;  stroke-linecap:round; stroke-linejoin:round;">
</svg:g>
<svg:g style="fill:#C83434; fill-opacity:1.0;  stroke:#C83434; stroke-width:1.000000; stroke-opacity:1;  stroke-linecap:round; stroke-linejoin:round;">
<svg:path style="fill:#C83434; fill-opacity:1.0;  stroke:#C83434; stroke-width:1.000000; stroke-opacity:1;  stroke-linecap:round; stroke-linejoin:round;fill-rule:evenodd;" d="M 45255001.000000,53699999.000000 45255001.000000,51500001.000000 45854999.000000,51500001.000000 45854999.000000,53699999.000000 Z"/> 
<svg:path style="fill:#C83434; fill-opacity:1.0;  stroke:#C83434; stroke-width:1.000000; stroke-opacity:1;  stroke-linecap:round; stroke-linejoin:round;fill-rule:evenodd;" d="M 46525001.000000,53699999.000000 46525001.000000,51500001.000000 47124999.000000,51500001.000000 47124999.000000,53699999.000000 Z"/> 
<svg:path style="fill:#C83434; fill-opacity:1.0;  stroke:#C83434; stroke-width:1.000000; stroke-opacity:1;  stroke-linecap:round; stroke-linejoin:round;fill-rule:evenodd;" d="M 47795001.000000,53699999.000000 47795001.000000,51500001.000000 48394999.000000,51500001.000000 48394999.000000,53699999.000000 Z"/> 
<svg:path style="fill:#C83434; fill-opacity:1.0;  stroke:#C83434; stroke-width:1.000000; stroke-opacity:1;  stroke-linecap:round; stroke-linejoin:round;fill-rule:evenodd;" d="M 49065001.000000,53699999.000000 49065001.000000,51500001.000000 49664999.000000,51500001.000000 49664999.000000,53699999.000000 Z"/> 
<svg:path style="fill:#C83434; fill-opacity:1.0;  stroke:#C83434; stroke-width:1.000000; stroke-opacity:1;  stroke-linecap:round; stroke-linejoin:round;fill-rule:evenodd;" d="M 50335001.000000,53699999.000000 50335001.000000,51500001.000000 50934999.000000,51500001.000000 50934999.000000,53699999.000000 Z"/> 
<svg:path style="fill:#C83434; fill-opacity:1.0;  stroke:#C83434; stroke-width:1.000000; stroke-opacity:1;  stroke-linecap:round; stroke-linejoin:round;fill-rule:evenodd;" d="M 51605001.000000,53699999.000000 51605001.000000,51500001.000000 52204999.000000,51500001.000000 52204999.000000,53699999.000000 Z"/> 
<svg:path style="fill:#C83434; fill-opacity:1.0;  stroke:#C83434; stroke-width:1.000000; stroke-opacity:1;  stroke-linecap:round; stroke-linejoin:round;fill-rule:evenodd;" d="M 52875001.000000,53699999.000000 52875001.000000,51500001.000000 53474999.000000,51500001.000000 53474999.000000,53699999.000000 Z"/> 
<svg:path style="fill:#C83434; fill-opacity:1.0;  stroke:#C83434; stroke-width:1.000000; stroke-opacity:1;  stroke-linecap:round; stroke-linejoin:round;fill-rule:evenodd;" d="M 54145001.000000,53699999.000000 54145001.000000,51500001.000000 54744999.000000,51500001.000000 54744999.000000,53699999.000000 Z"/> 
<svg:path style="fill:#C83434; fill-opacity:1.0;  stroke:#C83434; stroke-width:1.000000; stroke-opacity:1;  stroke-linecap:round; stroke-linejoin:round;fill-rule:evenodd;" d="M 54145001.000000,48499999.000000 54145001.000000,46300001.000000 54744999.000000,46300001.000000 54744999.000000,48499999.000000 Z"/> 
<svg:path style="fill:#C83434; fill-opacity:1.0;  stroke:#C83434; stroke-width:1.000000; stroke-opacity:1;  stroke-linecap:round; stroke-linejoin:round;fill-rule:evenodd;" d="M 52875001.000000,48499999.000000 52875001.000000,46300001.000000 53474999.000000,46300001.000000 53474999.000000,48499999.000000 Z"/> 
<svg:path style="fill:#C83434; fill-opacity:1.0;  stroke:#C83434; stroke-width:1.000000; stroke-opacity:1;  stroke-linecap:round; stroke-linejoin:round;fill-rule:evenodd;" d="M 51605001.000000,48499999.000000 51605001.000000,46300001.000000 52204999.000000,46300001.000000 52204999.000000,48499999.000000 Z"/> 
<svg:path style="fill:#C83434; fill-opacity:1.0;  stroke:#C83434; stroke-width:1.000000; stroke-opacity:1;  stroke-linecap:round; stroke-linejoin:round;fill-rule:evenodd;" d="M 50335001.000000,48499999.000000 50335001.000000,46300001.000000 50934999.000000,46300001.000000 50934999.000000,48499999.000000 Z"/> 
<svg:path style="fill:#C83434; fill-opacity:1.0;  stroke:#C83434; stroke-width:1.000000; stroke-opacity:1;  stroke-linecap:round; stroke-linejoin:round;fill-rule:evenodd;" d="M 49065001.000000,48499999.000000 49065001.000000,46300001.000000 49664999.000000,46300001.000000 49664999.000000,48499999.000000 Z"/> 
<svg:path style="fill:#C83434; fill-opacity:1.0;  stroke:#C83434; stroke-width:1.000000; stroke-opacity:1;  stroke-linecap:round; stroke-linejoin:round;fill-rule:evenodd;" d="M 47795001.000000,48499999.000000 47795001.000000,46300001.000000 48394999.000000,46300001.000000 48394999.000000,48499999.000000 Z"/> 
<svg:path style="fill:#C83434; fill-opacity:1.0;  stroke:#C83434; stroke-width:1.000000; stroke-opacity:1;  stroke-linecap:round; stroke-linejoin:round;fill-rule:evenodd;" d="M 46525001.000000,48499999.000000 46525001.000000,46300001.000000 47124999.000000,46300001.000000 47124999.000000,48499999.000000 Z"/> 
<svg:path style="fill:#C83434; fill-opacity:1.0;  stroke:#C83434; stroke-width:1.000000; stroke-opacity:1;  stroke-linecap:round; stroke-linejoin:round;fill-rule:evenodd;" d="M 45255001.000000,48499999.000000 45255001.000000,46300001.000000 45854999.000000,46300001.000000 45854999.000000,48499999.000000 Z"/> 
</svg:g>
<svg:g>
</svg:g>
<svg:g>
</svg:g>
<svg:g>
</svg:g>
</svg:g>
<svg:g style="fill:#FFFFFF; fill-opacity:1.0;  stroke:#FFFFFF; stroke-width:1.000000; stroke-opacity:1;  stroke-linecap:round; stroke-linejoin:round;">
</svg:g>
<svg:g style="fill:#000000; fill-opacity:1.0;  stroke:#000000; stroke-width:1.000000; stroke-opacity:1;  stroke-linecap:round; stroke-linejoin:round;">
<svg:g>
</svg:g>
<svg:g>
</svg:g>
<svg:g>
</svg:g>
<svg:g>
</svg:g>
</svg:g> 
</svg:g></svg>
