<?xml version='1.0' encoding='ASCII' standalone='yes'?>
<svg xmlns:svg="http://www.w3.org/2000/svg" xmlns="http://www.w3.org/2000/svg" xmlns:xlink="http://www.w3.org/1999/xlink" version="1.1" width="9.999980cm" height="9.999980cm" viewBox="0 0 99999800 99999800">
<title>SVG Picture created as kicadBoard-B_Cu.svg date 2022/11/17 01:37:01 </title>
  <desc>Picture generated by PCBNEW </desc>
<g style="fill:#000000; fill-opacity:1.000000;stroke:#000000; stroke-opacity:1.000000; stroke-linecap:round; stroke-linejoin:round;" transform="translate(0 0) scale(1 1)">
</g>
<g style="fill:#000000; fill-opacity:0.0;  stroke:#000000; stroke-width:0.000000; stroke-opacity:1;  stroke-linecap:round; stroke-linejoin:round;">
<g>
</g>
<g style="fill:#4D7FC4; fill-opacity:0.0;  stroke:#4D7FC4; stroke-width:0.000000; stroke-opacity:1;  stroke-linecap:round; stroke-linejoin:round;">
</g>
<g style="fill:#4D7FC4; fill-opacity:1.0;  stroke:#4D7FC4; stroke-width:1.000000; stroke-opacity:1;  stroke-linecap:round; stroke-linejoin:round;">
<circle cx="50000000.000000" cy="50000000.000000" r="800000.000000"/> 
</g>
<g style="fill:#4D7FC4; fill-opacity:1.0;  stroke:#4D7FC4; stroke-width:21200.000000; stroke-opacity:1;  stroke-linecap:round; stroke-linejoin:round;">
</g>
<g style="fill:#4D7FC4; fill-opacity:1.0;  stroke:#4D7FC4; stroke-width:1.000000; stroke-opacity:1;  stroke-linecap:round; stroke-linejoin:round;">
<circle cx="70000000.000000" cy="50000000.000000" r="800000.000000"/> 
</g>
<g>
</g>
<g>
</g>
<g>
</g>
</g>
<g style="fill:#FFFFFF; fill-opacity:1.0;  stroke:#FFFFFF; stroke-width:1.000000; stroke-opacity:1;  stroke-linecap:round; stroke-linejoin:round;">
<circle cx="50000000.000000" cy="50000000.000000" r="400000.000000"/> 
</g>
<g style="fill:#FFFFFF; fill-opacity:1.0;  stroke:#FFFFFF; stroke-width:21200.000000; stroke-opacity:1;  stroke-linecap:round; stroke-linejoin:round;">
</g>
<g style="fill:#FFFFFF; fill-opacity:1.0;  stroke:#FFFFFF; stroke-width:1.000000; stroke-opacity:1;  stroke-linecap:round; stroke-linejoin:round;">
<circle cx="70000000.000000" cy="50000000.000000" r="400000.000000"/> 
</g>
<g style="fill:#FFFFFF; fill-opacity:1.0;  stroke:#FFFFFF; stroke-width:21200.000000; stroke-opacity:1;  stroke-linecap:round; stroke-linejoin:round;">
</g>
<g style="fill:#000000; fill-opacity:1.0;  stroke:#000000; stroke-width:21200.000000; stroke-opacity:1;  stroke-linecap:round; stroke-linejoin:round;">
<g>
</g>
<g>
</g>
<g>
</g>
<g>
</g>
</g> 
<svg:g><svg:title>SVG Picture created as kicadBoard-B_Adhesive.svg date 2022/11/17 01:37:01 </svg:title>
  <svg:desc>Picture generated by PCBNEW </svg:desc>
<svg:g style="fill:#000000; fill-opacity:1.000000;stroke:#000000; stroke-opacity:1.000000; stroke-linecap:round; stroke-linejoin:round;" transform="translate(0 0) scale(1 1)">
</svg:g>
<svg:g style="fill:#000000; fill-opacity:0.0;  stroke:#000000; stroke-width:0.000000; stroke-opacity:1;  stroke-linecap:round; stroke-linejoin:round;">
<svg:g>
</svg:g>
<svg:g>
</svg:g>
<svg:g>
</svg:g>
<svg:g>
</svg:g>
</svg:g>
<svg:g style="fill:#000000; fill-opacity:0.0;  stroke:#000000; stroke-width:0.000000; stroke-opacity:1;  stroke-linecap:round; stroke-linejoin:round;">
<svg:g>
</svg:g>
<svg:g>
</svg:g>
<svg:g>
</svg:g>
<svg:g>
</svg:g>
</svg:g> 
</svg:g><svg:g><svg:title>SVG Picture created as kicadBoard-B_Courtyard.svg date 2022/11/17 01:37:01 </svg:title>
  <svg:desc>Picture generated by PCBNEW </svg:desc>
<svg:g style="fill:#000000; fill-opacity:1.000000;stroke:#000000; stroke-opacity:1.000000; stroke-linecap:round; stroke-linejoin:round;" transform="translate(0 0) scale(1 1)">
</svg:g>
<svg:g style="fill:#000000; fill-opacity:0.0;  stroke:#000000; stroke-width:0.000000; stroke-opacity:1;  stroke-linecap:round; stroke-linejoin:round;">
<svg:g>
</svg:g>
<svg:g>
</svg:g>
<svg:g>
</svg:g>
<svg:g>
</svg:g>
</svg:g>
<svg:g style="fill:#000000; fill-opacity:0.0;  stroke:#000000; stroke-width:0.000000; stroke-opacity:1;  stroke-linecap:round; stroke-linejoin:round;">
<svg:g>
</svg:g>
<svg:g>
</svg:g>
<svg:g>
</svg:g>
<svg:g>
</svg:g>
</svg:g> 
</svg:g><svg:g><svg:title>SVG Picture created as kicadBoard-B_Fab.svg date 2022/11/17 01:37:01 </svg:title>
  <svg:desc>Picture generated by PCBNEW </svg:desc>
<svg:g style="fill:#000000; fill-opacity:1.000000;stroke:#000000; stroke-opacity:1.000000; stroke-linecap:round; stroke-linejoin:round;" transform="translate(0 0) scale(1 1)">
</svg:g>
<svg:g style="fill:#000000; fill-opacity:0.0;  stroke:#000000; stroke-width:0.000000; stroke-opacity:1;  stroke-linecap:round; stroke-linejoin:round;">
<svg:g>
</svg:g>
<svg:g>
</svg:g>
<svg:g>
</svg:g>
<svg:g>
</svg:g>
</svg:g>
<svg:g style="fill:#000000; fill-opacity:0.0;  stroke:#000000; stroke-width:0.000000; stroke-opacity:1;  stroke-linecap:round; stroke-linejoin:round;">
<svg:g>
</svg:g>
<svg:g>
</svg:g>
<svg:g>
</svg:g>
<svg:g>
</svg:g>
</svg:g> 
</svg:g><svg:g><svg:title>SVG Picture created as kicadBoard-B_Mask.svg date 2022/11/17 01:37:01 </svg:title>
  <svg:desc>Picture generated by PCBNEW </svg:desc>
<svg:g style="fill:#000000; fill-opacity:1.000000;stroke:#000000; stroke-opacity:1.000000; stroke-linecap:round; stroke-linejoin:round;" transform="translate(0 0) scale(1 1)">
</svg:g>
<svg:g style="fill:#000000; fill-opacity:0.0;  stroke:#000000; stroke-width:0.000000; stroke-opacity:1;  stroke-linecap:round; stroke-linejoin:round;">
<svg:g>
</svg:g>
<svg:g style="fill:#000000; fill-opacity:1.0;  stroke:#000000; stroke-width:1.000000; stroke-opacity:1;  stroke-linecap:round; stroke-linejoin:round;">
<svg:circle cx="50000000.000000" cy="50000000.000000" r="800000.000000"/> 
</svg:g>
<svg:g style="fill:#000000; fill-opacity:1.0;  stroke:#000000; stroke-width:21200.000000; stroke-opacity:1;  stroke-linecap:round; stroke-linejoin:round;">
</svg:g>
<svg:g style="fill:#000000; fill-opacity:1.0;  stroke:#000000; stroke-width:1.000000; stroke-opacity:1;  stroke-linecap:round; stroke-linejoin:round;">
<svg:circle cx="70000000.000000" cy="50000000.000000" r="800000.000000"/> 
</svg:g>
<svg:g>
</svg:g>
<svg:g>
</svg:g>
<svg:g>
</svg:g>
</svg:g>
<svg:g style="fill:#000000; fill-opacity:1.0;  stroke:#000000; stroke-width:1.000000; stroke-opacity:1;  stroke-linecap:round; stroke-linejoin:round;">
<svg:g>
</svg:g>
<svg:g>
</svg:g>
<svg:g>
</svg:g>
<svg:g>
</svg:g>
</svg:g> 
</svg:g><svg:g><svg:title>SVG Picture created as kicadBoard-B_Paste.svg date 2022/11/17 01:37:01 </svg:title>
  <svg:desc>Picture generated by PCBNEW </svg:desc>
<svg:g style="fill:#000000; fill-opacity:1.000000;stroke:#000000; stroke-opacity:1.000000; stroke-linecap:round; stroke-linejoin:round;" transform="translate(0 0) scale(1 1)">
</svg:g>
<svg:g style="fill:#000000; fill-opacity:0.0;  stroke:#000000; stroke-width:0.000000; stroke-opacity:1;  stroke-linecap:round; stroke-linejoin:round;">
<svg:g>
</svg:g>
<svg:g>
</svg:g>
<svg:g>
</svg:g>
<svg:g>
</svg:g>
</svg:g>
<svg:g style="fill:#000000; fill-opacity:0.0;  stroke:#000000; stroke-width:0.000000; stroke-opacity:1;  stroke-linecap:round; stroke-linejoin:round;">
<svg:g>
</svg:g>
<svg:g>
</svg:g>
<svg:g>
</svg:g>
<svg:g>
</svg:g>
</svg:g> 
</svg:g><svg:g><svg:title>SVG Picture created as kicadBoard-B_Silkscreen.svg date 2022/11/17 01:37:01 </svg:title>
  <svg:desc>Picture generated by PCBNEW </svg:desc>
<svg:g style="fill:#000000; fill-opacity:1.000000;stroke:#000000; stroke-opacity:1.000000; stroke-linecap:round; stroke-linejoin:round;" transform="translate(0 0) scale(1 1)">
</svg:g>
<svg:g style="fill:#000000; fill-opacity:0.0;  stroke:#000000; stroke-width:0.000000; stroke-opacity:1;  stroke-linecap:round; stroke-linejoin:round;">
<svg:g>
</svg:g>
<svg:g>
</svg:g>
<svg:g>
</svg:g>
<svg:g>
</svg:g>
</svg:g>
<svg:g style="fill:#000000; fill-opacity:0.0;  stroke:#000000; stroke-width:0.000000; stroke-opacity:1;  stroke-linecap:round; stroke-linejoin:round;">
<svg:g>
</svg:g>
<svg:g>
</svg:g>
<svg:g>
</svg:g>
<svg:g>
</svg:g>
</svg:g> 
</svg:g><svg:g><svg:title>SVG Picture created as kicadBoard-Edge_Cuts.svg date 2022/11/17 01:37:01 </svg:title>
  <svg:desc>Picture generated by PCBNEW </svg:desc>
<svg:g style="fill:#000000; fill-opacity:1.000000;stroke:#000000; stroke-opacity:1.000000; stroke-linecap:round; stroke-linejoin:round;" transform="translate(0 0) scale(1 1)">
</svg:g>
<svg:g style="fill:#000000; fill-opacity:0.0;  stroke:#000000; stroke-width:0.000000; stroke-opacity:1;  stroke-linecap:round; stroke-linejoin:round;">
<svg:g>
</svg:g>
<svg:g>
</svg:g>
<svg:g>
</svg:g>
<svg:g>
</svg:g>
</svg:g> 
</svg:g><svg:g><svg:title>SVG Picture created as kicadBoard-F_Adhesive.svg date 2022/11/17 01:37:01 </svg:title>
  <svg:desc>Picture generated by PCBNEW </svg:desc>
<svg:g style="fill:#000000; fill-opacity:1.000000;stroke:#000000; stroke-opacity:1.000000; stroke-linecap:round; stroke-linejoin:round;" transform="translate(0 0) scale(1 1)">
</svg:g>
<svg:g style="fill:#000000; fill-opacity:0.0;  stroke:#000000; stroke-width:0.000000; stroke-opacity:1;  stroke-linecap:round; stroke-linejoin:round;">
<svg:g>
</svg:g>
<svg:g>
</svg:g>
<svg:g>
</svg:g>
<svg:g>
</svg:g>
</svg:g>
<svg:g style="fill:#000000; fill-opacity:0.0;  stroke:#000000; stroke-width:0.000000; stroke-opacity:1;  stroke-linecap:round; stroke-linejoin:round;">
<svg:g>
</svg:g>
<svg:g>
</svg:g>
<svg:g>
</svg:g>
<svg:g>
</svg:g>
</svg:g> 
</svg:g><svg:g><svg:title>SVG Picture created as kicadBoard-F_Courtyard.svg date 2022/11/17 01:37:01 </svg:title>
  <svg:desc>Picture generated by PCBNEW </svg:desc>
<svg:g style="fill:#000000; fill-opacity:1.000000;stroke:#000000; stroke-opacity:1.000000; stroke-linecap:round; stroke-linejoin:round;" transform="translate(0 0) scale(1 1)">
</svg:g>
<svg:g style="fill:#000000; fill-opacity:0.0;  stroke:#000000; stroke-width:0.000000; stroke-opacity:1;  stroke-linecap:round; stroke-linejoin:round;">
</svg:g>
<svg:g style="fill:#FF26E2; fill-opacity:0.0;  stroke:#FF26E2; stroke-width:0.000000; stroke-opacity:1;  stroke-linecap:round; stroke-linejoin:round;">
</svg:g>
<svg:g style="fill:#FF26E2; fill-opacity:0.0;  stroke:#FF26E2; stroke-width:50000.000000; stroke-opacity:1;  stroke-linecap:round; stroke-linejoin:round;">
<svg:path d="M48950000 54000000 L71050000 54000000 "/>
<svg:path d="M48950000 46000000 L48950000 54000000 "/>
<svg:path d="M71050000 54000000 L71050000 46000000 "/>
<svg:path d="M71050000 46000000 L48950000 46000000 "/>
<svg:g>
</svg:g>
<svg:g>
</svg:g>
<svg:g>
</svg:g>
<svg:g>
</svg:g>
</svg:g>
<svg:g style="fill:#000000; fill-opacity:0.0;  stroke:#000000; stroke-width:50000.000000; stroke-opacity:1;  stroke-linecap:round; stroke-linejoin:round;">
<svg:g>
</svg:g>
<svg:g>
</svg:g>
<svg:g>
</svg:g>
<svg:g>
</svg:g>
</svg:g> 
</svg:g><svg:g><svg:title>SVG Picture created as kicadBoard-F_Fab.svg date 2022/11/17 01:37:01 </svg:title>
  <svg:desc>Picture generated by PCBNEW </svg:desc>
<svg:g style="fill:#000000; fill-opacity:1.000000;stroke:#000000; stroke-opacity:1.000000; stroke-linecap:round; stroke-linejoin:round;" transform="translate(0 0) scale(1 1)">
</svg:g>
<svg:g style="fill:#000000; fill-opacity:0.0;  stroke:#000000; stroke-width:0.000000; stroke-opacity:1;  stroke-linecap:round; stroke-linejoin:round;">
</svg:g>
<svg:g style="fill:#AFAFAF; fill-opacity:0.0;  stroke:#AFAFAF; stroke-width:0.000000; stroke-opacity:1;  stroke-linecap:round; stroke-linejoin:round;">
</svg:g>
<svg:g style="fill:#AFAFAF; fill-opacity:0.0;  stroke:#AFAFAF; stroke-width:150000.000000; stroke-opacity:1;  stroke-linecap:round; stroke-linejoin:round;">
<svg:text x="60000000.000000" y="55370000.000000" textLength="37052143.000000" font-size="1333333.000000" lengthAdjust="spacingAndGlyphs" text-anchor="middle" opacity="0">C_Axial_L12.0mm_D7.5mm_P20.00mm_Horizontal</svg:text>
<svg:g class="stroked-text"><svg:desc>C_Axial_L12.0mm_D7.5mm_P20.00mm_Horizontal</svg:desc>
<svg:path d="M42380952 55227142 L42333333 55274761 L42190476 55322380 L42095238 55322380 L41952380 55274761 L41857142 55179523 L41809523 55084285 L41761904 54893809 L41761904 54750952 L41809523 54560476 L41857142 54465238 L41952380 54370000 L42095238 54322380 L42190476 54322380 L42333333 54370000 L42380952 54417619 "/>
<svg:path d="M42571428 55417619 L43333333 55417619 "/>
<svg:path d="M43523809 55036666 L44000000 55036666 "/>
<svg:path d="M43428571 55322380 L43761904 54322380 L44095238 55322380 "/>
<svg:path d="M44333333 55322380 L44857142 54655714 "/>
<svg:path d="M44333333 54655714 L44857142 55322380 "/>
<svg:path d="M45238095 55322380 L45238095 54655714 "/>
<svg:path d="M45238095 54322380 L45190476 54370000 L45238095 54417619 L45285714 54370000 L45238095 54322380 L45238095 54417619 "/>
<svg:path d="M46142857 55322380 L46142857 54798571 L46095238 54703333 L46000000 54655714 L45809523 54655714 L45714285 54703333 "/>
<svg:path d="M46142857 55274761 L46047619 55322380 L45809523 55322380 L45714285 55274761 L45666666 55179523 L45666666 55084285 L45714285 54989047 L45809523 54941428 L46047619 54941428 L46142857 54893809 "/>
<svg:path d="M46761904 55322380 L46666666 55274761 L46619047 55179523 L46619047 54322380 "/>
<svg:path d="M46904761 55417619 L47666666 55417619 "/>
<svg:path d="M48380952 55322380 L47904761 55322380 L47904761 54322380 "/>
<svg:path d="M49238095 55322380 L48666666 55322380 "/>
<svg:path d="M48952380 55322380 L48952380 54322380 L48857142 54465238 L48761904 54560476 L48666666 54608095 "/>
<svg:path d="M49619047 54417619 L49666666 54370000 L49761904 54322380 L50000000 54322380 L50095238 54370000 L50142857 54417619 L50190476 54512857 L50190476 54608095 L50142857 54750952 L49571428 55322380 L50190476 55322380 "/>
<svg:path d="M50619047 55227142 L50666666 55274761 L50619047 55322380 L50571428 55274761 L50619047 55227142 L50619047 55322380 "/>
<svg:path d="M51285714 54322380 L51380952 54322380 L51476190 54370000 L51523809 54417619 L51571428 54512857 L51619047 54703333 L51619047 54941428 L51571428 55131904 L51523809 55227142 L51476190 55274761 L51380952 55322380 L51285714 55322380 L51190476 55274761 L51142857 55227142 L51095238 55131904 L51047619 54941428 L51047619 54703333 L51095238 54512857 L51142857 54417619 L51190476 54370000 L51285714 54322380 "/>
<svg:path d="M52047619 55322380 L52047619 54655714 "/>
<svg:path d="M52047619 54750952 L52095238 54703333 L52190476 54655714 L52333333 54655714 L52428571 54703333 L52476190 54798571 L52476190 55322380 "/>
<svg:path d="M52476190 54798571 L52523809 54703333 L52619047 54655714 L52761904 54655714 L52857142 54703333 L52904761 54798571 L52904761 55322380 "/>
<svg:path d="M53380952 55322380 L53380952 54655714 "/>
<svg:path d="M53380952 54750952 L53428571 54703333 L53523809 54655714 L53666666 54655714 L53761904 54703333 L53809523 54798571 L53809523 55322380 "/>
<svg:path d="M53809523 54798571 L53857142 54703333 L53952380 54655714 L54095238 54655714 L54190476 54703333 L54238095 54798571 L54238095 55322380 "/>
<svg:path d="M54476190 55417619 L55238095 55417619 "/>
<svg:path d="M55476190 55322380 L55476190 54322380 L55714285 54322380 L55857142 54370000 L55952380 54465238 L56000000 54560476 L56047619 54750952 L56047619 54893809 L56000000 55084285 L55952380 55179523 L55857142 55274761 L55714285 55322380 L55476190 55322380 "/>
<svg:path d="M56380952 54322380 L57047619 54322380 L56619047 55322380 "/>
<svg:path d="M57428571 55227142 L57476190 55274761 L57428571 55322380 L57380952 55274761 L57428571 55227142 L57428571 55322380 "/>
<svg:path d="M58380952 54322380 L57904761 54322380 L57857142 54798571 L57904761 54750952 L58000000 54703333 L58238095 54703333 L58333333 54750952 L58380952 54798571 L58428571 54893809 L58428571 55131904 L58380952 55227142 L58333333 55274761 L58238095 55322380 L58000000 55322380 L57904761 55274761 L57857142 55227142 "/>
<svg:path d="M58857142 55322380 L58857142 54655714 "/>
<svg:path d="M58857142 54750952 L58904761 54703333 L59000000 54655714 L59142857 54655714 L59238095 54703333 L59285714 54798571 L59285714 55322380 "/>
<svg:path d="M59285714 54798571 L59333333 54703333 L59428571 54655714 L59571428 54655714 L59666666 54703333 L59714285 54798571 L59714285 55322380 "/>
<svg:path d="M60190476 55322380 L60190476 54655714 "/>
<svg:path d="M60190476 54750952 L60238095 54703333 L60333333 54655714 L60476190 54655714 L60571428 54703333 L60619047 54798571 L60619047 55322380 "/>
<svg:path d="M60619047 54798571 L60666666 54703333 L60761904 54655714 L60904761 54655714 L61000000 54703333 L61047619 54798571 L61047619 55322380 "/>
<svg:path d="M61285714 55417619 L62047619 55417619 "/>
<svg:path d="M62285714 55322380 L62285714 54322380 L62666666 54322380 L62761904 54370000 L62809523 54417619 L62857142 54512857 L62857142 54655714 L62809523 54750952 L62761904 54798571 L62666666 54846190 L62285714 54846190 "/>
<svg:path d="M63238095 54417619 L63285714 54370000 L63380952 54322380 L63619047 54322380 L63714285 54370000 L63761904 54417619 L63809523 54512857 L63809523 54608095 L63761904 54750952 L63190476 55322380 L63809523 55322380 "/>
<svg:path d="M64428571 54322380 L64523809 54322380 L64619047 54370000 L64666666 54417619 L64714285 54512857 L64761904 54703333 L64761904 54941428 L64714285 55131904 L64666666 55227142 L64619047 55274761 L64523809 55322380 L64428571 55322380 L64333333 55274761 L64285714 55227142 L64238095 55131904 L64190476 54941428 L64190476 54703333 L64238095 54512857 L64285714 54417619 L64333333 54370000 L64428571 54322380 "/>
<svg:path d="M65190476 55227142 L65238095 55274761 L65190476 55322380 L65142857 55274761 L65190476 55227142 L65190476 55322380 "/>
<svg:path d="M65857142 54322380 L65952380 54322380 L66047619 54370000 L66095238 54417619 L66142857 54512857 L66190476 54703333 L66190476 54941428 L66142857 55131904 L66095238 55227142 L66047619 55274761 L65952380 55322380 L65857142 55322380 L65761904 55274761 L65714285 55227142 L65666666 55131904 L65619047 54941428 L65619047 54703333 L65666666 54512857 L65714285 54417619 L65761904 54370000 L65857142 54322380 "/>
<svg:path d="M66809523 54322380 L66904761 54322380 L67000000 54370000 L67047619 54417619 L67095238 54512857 L67142857 54703333 L67142857 54941428 L67095238 55131904 L67047619 55227142 L67000000 55274761 L66904761 55322380 L66809523 55322380 L66714285 55274761 L66666666 55227142 L66619047 55131904 L66571428 54941428 L66571428 54703333 L66619047 54512857 L66666666 54417619 L66714285 54370000 L66809523 54322380 "/>
<svg:path d="M67571428 55322380 L67571428 54655714 "/>
<svg:path d="M67571428 54750952 L67619047 54703333 L67714285 54655714 L67857142 54655714 L67952380 54703333 L68000000 54798571 L68000000 55322380 "/>
<svg:path d="M68000000 54798571 L68047619 54703333 L68142857 54655714 L68285714 54655714 L68380952 54703333 L68428571 54798571 L68428571 55322380 "/>
<svg:path d="M68904761 55322380 L68904761 54655714 "/>
<svg:path d="M68904761 54750952 L68952380 54703333 L69047619 54655714 L69190476 54655714 L69285714 54703333 L69333333 54798571 L69333333 55322380 "/>
<svg:path d="M69333333 54798571 L69380952 54703333 L69476190 54655714 L69619047 54655714 L69714285 54703333 L69761904 54798571 L69761904 55322380 "/>
<svg:path d="M70000000 55417619 L70761904 55417619 "/>
<svg:path d="M71000000 55322380 L71000000 54322380 "/>
<svg:path d="M71000000 54798571 L71571428 54798571 "/>
<svg:path d="M71571428 55322380 L71571428 54322380 "/>
<svg:path d="M72190476 55322380 L72095238 55274761 L72047619 55227142 L72000000 55131904 L72000000 54846190 L72047619 54750952 L72095238 54703333 L72190476 54655714 L72333333 54655714 L72428571 54703333 L72476190 54750952 L72523809 54846190 L72523809 55131904 L72476190 55227142 L72428571 55274761 L72333333 55322380 L72190476 55322380 "/>
<svg:path d="M72952380 55322380 L72952380 54655714 "/>
<svg:path d="M72952380 54846190 L73000000 54750952 L73047619 54703333 L73142857 54655714 L73238095 54655714 "/>
<svg:path d="M73571428 55322380 L73571428 54655714 "/>
<svg:path d="M73571428 54322380 L73523809 54370000 L73571428 54417619 L73619047 54370000 L73571428 54322380 L73571428 54417619 "/>
<svg:path d="M73952380 54655714 L74476190 54655714 L73952380 55322380 L74476190 55322380 "/>
<svg:path d="M75000000 55322380 L74904761 55274761 L74857142 55227142 L74809523 55131904 L74809523 54846190 L74857142 54750952 L74904761 54703333 L75000000 54655714 L75142857 54655714 L75238095 54703333 L75285714 54750952 L75333333 54846190 L75333333 55131904 L75285714 55227142 L75238095 55274761 L75142857 55322380 L75000000 55322380 "/>
<svg:path d="M75761904 54655714 L75761904 55322380 "/>
<svg:path d="M75761904 54750952 L75809523 54703333 L75904761 54655714 L76047619 54655714 L76142857 54703333 L76190476 54798571 L76190476 55322380 "/>
<svg:path d="M76523809 54655714 L76904761 54655714 "/>
<svg:path d="M76666666 54322380 L76666666 55179523 L76714285 55274761 L76809523 55322380 L76904761 55322380 "/>
<svg:path d="M77666666 55322380 L77666666 54798571 L77619047 54703333 L77523809 54655714 L77333333 54655714 L77238095 54703333 "/>
<svg:path d="M77666666 55274761 L77571428 55322380 L77333333 55322380 L77238095 55274761 L77190476 55179523 L77190476 55084285 L77238095 54989047 L77333333 54941428 L77571428 54941428 L77666666 54893809 "/>
<svg:path d="M78285714 55322380 L78190476 55274761 L78142857 55179523 L78142857 54322380 "/>
</svg:g><svg:text x="60000000.000000" y="50500000.000000" textLength="25575952.000000" font-size="1333333.000000" lengthAdjust="spacingAndGlyphs" text-anchor="middle" opacity="0">FZKCCAXIALL12D75P2HORIZONTAL</svg:text>
<svg:g class="stroked-text"><svg:desc>FZKCCAXIALL12D75P2HORIZONTAL</svg:desc>
<svg:path d="M47880952 49928571 L47547619 49928571 "/>
<svg:path d="M47547619 50452380 L47547619 49452380 L48023809 49452380 "/>
<svg:path d="M48309523 49452380 L48976190 49452380 L48309523 50452380 L48976190 50452380 "/>
<svg:path d="M49357142 50452380 L49357142 49452380 "/>
<svg:path d="M49928571 50452380 L49500000 49880952 "/>
<svg:path d="M49928571 49452380 L49357142 50023809 "/>
<svg:path d="M50928571 50357142 L50880952 50404761 L50738095 50452380 L50642857 50452380 L50500000 50404761 L50404761 50309523 L50357142 50214285 L50309523 50023809 L50309523 49880952 L50357142 49690476 L50404761 49595238 L50500000 49500000 L50642857 49452380 L50738095 49452380 L50880952 49500000 L50928571 49547619 "/>
<svg:path d="M51928571 50357142 L51880952 50404761 L51738095 50452380 L51642857 50452380 L51500000 50404761 L51404761 50309523 L51357142 50214285 L51309523 50023809 L51309523 49880952 L51357142 49690476 L51404761 49595238 L51500000 49500000 L51642857 49452380 L51738095 49452380 L51880952 49500000 L51928571 49547619 "/>
<svg:path d="M52309523 50166666 L52785714 50166666 "/>
<svg:path d="M52214285 50452380 L52547619 49452380 L52880952 50452380 "/>
<svg:path d="M53119047 49452380 L53785714 50452380 "/>
<svg:path d="M53785714 49452380 L53119047 50452380 "/>
<svg:path d="M54166666 50452380 L54166666 49452380 "/>
<svg:path d="M54595238 50166666 L55071428 50166666 "/>
<svg:path d="M54500000 50452380 L54833333 49452380 L55166666 50452380 "/>
<svg:path d="M55976190 50452380 L55500000 50452380 L55500000 49452380 "/>
<svg:path d="M56785714 50452380 L56309523 50452380 L56309523 49452380 "/>
<svg:path d="M57642857 50452380 L57071428 50452380 "/>
<svg:path d="M57357142 50452380 L57357142 49452380 L57261904 49595238 L57166666 49690476 L57071428 49738095 "/>
<svg:path d="M58023809 49547619 L58071428 49500000 L58166666 49452380 L58404761 49452380 L58499999 49500000 L58547619 49547619 L58595238 49642857 L58595238 49738095 L58547619 49880952 L57976190 50452380 L58595238 50452380 "/>
<svg:path d="M59023809 50452380 L59023809 49452380 L59261904 49452380 L59404761 49500000 L59499999 49595238 L59547619 49690476 L59595238 49880952 L59595238 50023809 L59547619 50214285 L59499999 50309523 L59404761 50404761 L59261904 50452380 L59023809 50452380 "/>
<svg:path d="M59928571 49452380 L60595238 49452380 L60166666 50452380 "/>
<svg:path d="M61452380 49452380 L60976190 49452380 L60928571 49928571 L60976190 49880952 L61071428 49833333 L61309523 49833333 L61404761 49880952 L61452380 49928571 L61499999 50023809 L61499999 50261904 L61452380 50357142 L61404761 50404761 L61309523 50452380 L61071428 50452380 L60976190 50404761 L60928571 50357142 "/>
<svg:path d="M61928571 50452380 L61928571 49452380 L62309523 49452380 L62404761 49500000 L62452380 49547619 L62499999 49642857 L62499999 49785714 L62452380 49880952 L62404761 49928571 L62309523 49976190 L61928571 49976190 "/>
<svg:path d="M62880952 49547619 L62928571 49500000 L63023809 49452380 L63261904 49452380 L63357142 49500000 L63404761 49547619 L63452380 49642857 L63452380 49738095 L63404761 49880952 L62833333 50452380 L63452380 50452380 "/>
<svg:path d="M63880952 50452380 L63880952 49452380 "/>
<svg:path d="M63880952 49928571 L64452380 49928571 "/>
<svg:path d="M64452380 50452380 L64452380 49452380 "/>
<svg:path d="M65119047 49452380 L65309523 49452380 L65404761 49500000 L65499999 49595238 L65547619 49785714 L65547619 50119047 L65499999 50309523 L65404761 50404761 L65309523 50452380 L65119047 50452380 L65023809 50404761 L64928571 50309523 L64880952 50119047 L64880952 49785714 L64928571 49595238 L65023809 49500000 L65119047 49452380 "/>
<svg:path d="M66547619 50452380 L66214285 49976190 "/>
<svg:path d="M65976190 50452380 L65976190 49452380 L66357142 49452380 L66452380 49500000 L66499999 49547619 L66547619 49642857 L66547619 49785714 L66499999 49880952 L66452380 49928571 L66357142 49976190 L65976190 49976190 "/>
<svg:path d="M66976190 50452380 L66976190 49452380 "/>
<svg:path d="M67357142 49452380 L68023809 49452380 L67357142 50452380 L68023809 50452380 "/>
<svg:path d="M68595238 49452380 L68785714 49452380 L68880952 49500000 L68976190 49595238 L69023809 49785714 L69023809 50119047 L68976190 50309523 L68880952 50404761 L68785714 50452380 L68595238 50452380 L68500000 50404761 L68404761 50309523 L68357142 50119047 L68357142 49785714 L68404761 49595238 L68500000 49500000 L68595238 49452380 "/>
<svg:path d="M69452380 50452380 L69452380 49452380 L70023809 50452380 L70023809 49452380 "/>
<svg:path d="M70357142 49452380 L70928571 49452380 "/>
<svg:path d="M70642857 50452380 L70642857 49452380 "/>
<svg:path d="M71214285 50166666 L71690476 50166666 "/>
<svg:path d="M71119047 50452380 L71452380 49452380 L71785714 50452380 "/>
<svg:path d="M72595238 50452380 L72119047 50452380 L72119047 49452380 "/>
</svg:g></svg:g>
<svg:g style="fill:#AFAFAF; fill-opacity:0.0;  stroke:#AFAFAF; stroke-width:100000.000000; stroke-opacity:1;  stroke-linecap:round; stroke-linejoin:round;">
<svg:path d="M54000000 53750000 L66000000 53750000 "/>
<svg:path d="M66000000 53750000 L66000000 46250000 "/>
<svg:path d="M54000000 46250000 L54000000 53750000 "/>
<svg:path d="M50000000 50000000 L54000000 50000000 "/>
<svg:path d="M70000000 50000000 L66000000 50000000 "/>
<svg:path d="M66000000 46250000 L54000000 46250000 "/>
<svg:g>
</svg:g>
<svg:g>
</svg:g>
<svg:g>
</svg:g>
<svg:g>
</svg:g>
</svg:g>
<svg:g style="fill:#000000; fill-opacity:0.0;  stroke:#000000; stroke-width:100000.000000; stroke-opacity:1;  stroke-linecap:round; stroke-linejoin:round;">
<svg:g>
</svg:g>
<svg:g>
</svg:g>
<svg:g>
</svg:g>
<svg:g>
</svg:g>
</svg:g> 
</svg:g><svg:g><svg:title>SVG Picture created as kicadBoard-F_Mask.svg date 2022/11/17 01:37:01 </svg:title>
  <svg:desc>Picture generated by PCBNEW </svg:desc>
<svg:g style="fill:#000000; fill-opacity:1.000000;stroke:#000000; stroke-opacity:1.000000; stroke-linecap:round; stroke-linejoin:round;" transform="translate(0 0) scale(1 1)">
</svg:g>
<svg:g style="fill:#000000; fill-opacity:0.0;  stroke:#000000; stroke-width:0.000000; stroke-opacity:1;  stroke-linecap:round; stroke-linejoin:round;">
<svg:g>
</svg:g>
<svg:g style="fill:#000000; fill-opacity:1.0;  stroke:#000000; stroke-width:1.000000; stroke-opacity:1;  stroke-linecap:round; stroke-linejoin:round;">
<svg:circle cx="50000000.000000" cy="50000000.000000" r="800000.000000"/> 
</svg:g>
<svg:g style="fill:#000000; fill-opacity:1.0;  stroke:#000000; stroke-width:21200.000000; stroke-opacity:1;  stroke-linecap:round; stroke-linejoin:round;">
</svg:g>
<svg:g style="fill:#000000; fill-opacity:1.0;  stroke:#000000; stroke-width:1.000000; stroke-opacity:1;  stroke-linecap:round; stroke-linejoin:round;">
<svg:circle cx="70000000.000000" cy="50000000.000000" r="800000.000000"/> 
</svg:g>
<svg:g>
</svg:g>
<svg:g>
</svg:g>
<svg:g>
</svg:g>
</svg:g>
<svg:g style="fill:#000000; fill-opacity:1.0;  stroke:#000000; stroke-width:1.000000; stroke-opacity:1;  stroke-linecap:round; stroke-linejoin:round;">
<svg:g>
</svg:g>
<svg:g>
</svg:g>
<svg:g>
</svg:g>
<svg:g>
</svg:g>
</svg:g> 
</svg:g><svg:g><svg:title>SVG Picture created as kicadBoard-F_Paste.svg date 2022/11/17 01:37:01 </svg:title>
  <svg:desc>Picture generated by PCBNEW </svg:desc>
<svg:g style="fill:#000000; fill-opacity:1.000000;stroke:#000000; stroke-opacity:1.000000; stroke-linecap:round; stroke-linejoin:round;" transform="translate(0 0) scale(1 1)">
</svg:g>
<svg:g style="fill:#000000; fill-opacity:0.0;  stroke:#000000; stroke-width:0.000000; stroke-opacity:1;  stroke-linecap:round; stroke-linejoin:round;">
<svg:g>
</svg:g>
<svg:g>
</svg:g>
<svg:g>
</svg:g>
<svg:g>
</svg:g>
</svg:g>
<svg:g style="fill:#000000; fill-opacity:0.0;  stroke:#000000; stroke-width:0.000000; stroke-opacity:1;  stroke-linecap:round; stroke-linejoin:round;">
<svg:g>
</svg:g>
<svg:g>
</svg:g>
<svg:g>
</svg:g>
<svg:g>
</svg:g>
</svg:g> 
</svg:g><svg:g><svg:title>SVG Picture created as kicadBoard-F_Silkscreen.svg date 2022/11/17 01:37:01 </svg:title>
  <svg:desc>Picture generated by PCBNEW </svg:desc>
<svg:g style="fill:#000000; fill-opacity:1.000000;stroke:#000000; stroke-opacity:1.000000; stroke-linecap:round; stroke-linejoin:round;" transform="translate(0 0) scale(1 1)">
</svg:g>
<svg:g style="fill:#000000; fill-opacity:0.0;  stroke:#000000; stroke-width:0.000000; stroke-opacity:1;  stroke-linecap:round; stroke-linejoin:round;">
</svg:g>
<svg:g style="fill:#F2EDA1; fill-opacity:0.0;  stroke:#F2EDA1; stroke-width:0.000000; stroke-opacity:1;  stroke-linecap:round; stroke-linejoin:round;">
</svg:g>
<svg:g style="fill:#F2EDA1; fill-opacity:0.0;  stroke:#F2EDA1; stroke-width:150000.000000; stroke-opacity:1;  stroke-linecap:round; stroke-linejoin:round;">
<svg:text x="60000000.000000" y="45630000.000000" textLength="25380953.000000" font-size="1333333.000000" lengthAdjust="spacingAndGlyphs" text-anchor="middle" opacity="0">FZKCCAXIALL12D75P2HORIZONTAL</svg:text>
<svg:g class="stroked-text"><svg:desc>FZKCCAXIALL12D75P2HORIZONTAL</svg:desc>
<svg:path d="M47880952 45058571 L47547619 45058571 "/>
<svg:path d="M47547619 45582380 L47547619 44582380 L48023809 44582380 "/>
<svg:path d="M48309523 44582380 L48976190 44582380 L48309523 45582380 L48976190 45582380 "/>
<svg:path d="M49357142 45582380 L49357142 44582380 "/>
<svg:path d="M49928571 45582380 L49500000 45010952 "/>
<svg:path d="M49928571 44582380 L49357142 45153809 "/>
<svg:path d="M50928571 45487142 L50880952 45534761 L50738095 45582380 L50642857 45582380 L50500000 45534761 L50404761 45439523 L50357142 45344285 L50309523 45153809 L50309523 45010952 L50357142 44820476 L50404761 44725238 L50500000 44630000 L50642857 44582380 L50738095 44582380 L50880952 44630000 L50928571 44677619 "/>
<svg:path d="M51928571 45487142 L51880952 45534761 L51738095 45582380 L51642857 45582380 L51500000 45534761 L51404761 45439523 L51357142 45344285 L51309523 45153809 L51309523 45010952 L51357142 44820476 L51404761 44725238 L51500000 44630000 L51642857 44582380 L51738095 44582380 L51880952 44630000 L51928571 44677619 "/>
<svg:path d="M52309523 45296666 L52785714 45296666 "/>
<svg:path d="M52214285 45582380 L52547619 44582380 L52880952 45582380 "/>
<svg:path d="M53119047 44582380 L53785714 45582380 "/>
<svg:path d="M53785714 44582380 L53119047 45582380 "/>
<svg:path d="M54166666 45582380 L54166666 44582380 "/>
<svg:path d="M54595238 45296666 L55071428 45296666 "/>
<svg:path d="M54500000 45582380 L54833333 44582380 L55166666 45582380 "/>
<svg:path d="M55976190 45582380 L55500000 45582380 L55500000 44582380 "/>
<svg:path d="M56785714 45582380 L56309523 45582380 L56309523 44582380 "/>
<svg:path d="M57642857 45582380 L57071428 45582380 "/>
<svg:path d="M57357142 45582380 L57357142 44582380 L57261904 44725238 L57166666 44820476 L57071428 44868095 "/>
<svg:path d="M58023809 44677619 L58071428 44630000 L58166666 44582380 L58404761 44582380 L58499999 44630000 L58547619 44677619 L58595238 44772857 L58595238 44868095 L58547619 45010952 L57976190 45582380 L58595238 45582380 "/>
<svg:path d="M59023809 45582380 L59023809 44582380 L59261904 44582380 L59404761 44630000 L59499999 44725238 L59547619 44820476 L59595238 45010952 L59595238 45153809 L59547619 45344285 L59499999 45439523 L59404761 45534761 L59261904 45582380 L59023809 45582380 "/>
<svg:path d="M59928571 44582380 L60595238 44582380 L60166666 45582380 "/>
<svg:path d="M61452380 44582380 L60976190 44582380 L60928571 45058571 L60976190 45010952 L61071428 44963333 L61309523 44963333 L61404761 45010952 L61452380 45058571 L61499999 45153809 L61499999 45391904 L61452380 45487142 L61404761 45534761 L61309523 45582380 L61071428 45582380 L60976190 45534761 L60928571 45487142 "/>
<svg:path d="M61928571 45582380 L61928571 44582380 L62309523 44582380 L62404761 44630000 L62452380 44677619 L62499999 44772857 L62499999 44915714 L62452380 45010952 L62404761 45058571 L62309523 45106190 L61928571 45106190 "/>
<svg:path d="M62880952 44677619 L62928571 44630000 L63023809 44582380 L63261904 44582380 L63357142 44630000 L63404761 44677619 L63452380 44772857 L63452380 44868095 L63404761 45010952 L62833333 45582380 L63452380 45582380 "/>
<svg:path d="M63880952 45582380 L63880952 44582380 "/>
<svg:path d="M63880952 45058571 L64452380 45058571 "/>
<svg:path d="M64452380 45582380 L64452380 44582380 "/>
<svg:path d="M65119047 44582380 L65309523 44582380 L65404761 44630000 L65499999 44725238 L65547619 44915714 L65547619 45249047 L65499999 45439523 L65404761 45534761 L65309523 45582380 L65119047 45582380 L65023809 45534761 L64928571 45439523 L64880952 45249047 L64880952 44915714 L64928571 44725238 L65023809 44630000 L65119047 44582380 "/>
<svg:path d="M66547619 45582380 L66214285 45106190 "/>
<svg:path d="M65976190 45582380 L65976190 44582380 L66357142 44582380 L66452380 44630000 L66499999 44677619 L66547619 44772857 L66547619 44915714 L66499999 45010952 L66452380 45058571 L66357142 45106190 L65976190 45106190 "/>
<svg:path d="M66976190 45582380 L66976190 44582380 "/>
<svg:path d="M67357142 44582380 L68023809 44582380 L67357142 45582380 L68023809 45582380 "/>
<svg:path d="M68595238 44582380 L68785714 44582380 L68880952 44630000 L68976190 44725238 L69023809 44915714 L69023809 45249047 L68976190 45439523 L68880952 45534761 L68785714 45582380 L68595238 45582380 L68500000 45534761 L68404761 45439523 L68357142 45249047 L68357142 44915714 L68404761 44725238 L68500000 44630000 L68595238 44582380 "/>
<svg:path d="M69452380 45582380 L69452380 44582380 L70023809 45582380 L70023809 44582380 "/>
<svg:path d="M70357142 44582380 L70928571 44582380 "/>
<svg:path d="M70642857 45582380 L70642857 44582380 "/>
<svg:path d="M71214285 45296666 L71690476 45296666 "/>
<svg:path d="M71119047 45582380 L71452380 44582380 L71785714 45582380 "/>
<svg:path d="M72595238 45582380 L72119047 45582380 L72119047 44582380 "/>
</svg:g></svg:g>
<svg:g style="fill:#F2EDA1; fill-opacity:0.0;  stroke:#F2EDA1; stroke-width:120000.000000; stroke-opacity:1;  stroke-linecap:round; stroke-linejoin:round;">
<svg:path d="M53880000 46130000 L53880000 53870000 "/>
<svg:path d="M53880000 53870000 L66120000 53870000 "/>
<svg:path d="M66120000 46130000 L53880000 46130000 "/>
<svg:path d="M51040000 50000000 L53880000 50000000 "/>
<svg:path d="M68960000 50000000 L66120000 50000000 "/>
<svg:path d="M66120000 53870000 L66120000 46130000 "/>
<svg:g>
</svg:g>
<svg:g>
</svg:g>
<svg:g>
</svg:g>
<svg:g>
</svg:g>
</svg:g>
<svg:g style="fill:#000000; fill-opacity:0.0;  stroke:#000000; stroke-width:120000.000000; stroke-opacity:1;  stroke-linecap:round; stroke-linejoin:round;">
<svg:g>
</svg:g>
<svg:g>
</svg:g>
<svg:g>
</svg:g>
<svg:g>
</svg:g>
</svg:g> 
</svg:g><svg:g><svg:title>SVG Picture created as kicadBoard-Margin.svg date 2022/11/17 01:37:01 </svg:title>
  <svg:desc>Picture generated by PCBNEW </svg:desc>
<svg:g style="fill:#000000; fill-opacity:1.000000;stroke:#000000; stroke-opacity:1.000000; stroke-linecap:round; stroke-linejoin:round;" transform="translate(0 0) scale(1 1)">
</svg:g>
<svg:g style="fill:#000000; fill-opacity:0.0;  stroke:#000000; stroke-width:0.000000; stroke-opacity:1;  stroke-linecap:round; stroke-linejoin:round;">
<svg:g>
</svg:g>
<svg:g>
</svg:g>
<svg:g>
</svg:g>
<svg:g>
</svg:g>
</svg:g>
<svg:g style="fill:#000000; fill-opacity:0.0;  stroke:#000000; stroke-width:0.000000; stroke-opacity:1;  stroke-linecap:round; stroke-linejoin:round;">
<svg:g>
</svg:g>
<svg:g>
</svg:g>
<svg:g>
</svg:g>
<svg:g>
</svg:g>
</svg:g> 
</svg:g><svg:g><svg:title>SVG Picture created as kicadBoard-F_Cu.svg date 2022/11/17 01:37:01 </svg:title>
  <svg:desc>Picture generated by PCBNEW </svg:desc>
<svg:g style="fill:#000000; fill-opacity:1.000000;stroke:#000000; stroke-opacity:1.000000; stroke-linecap:round; stroke-linejoin:round;" transform="translate(0 0) scale(1 1)">
</svg:g>
<svg:g style="fill:#000000; fill-opacity:0.0;  stroke:#000000; stroke-width:0.000000; stroke-opacity:1;  stroke-linecap:round; stroke-linejoin:round;">
<svg:g>
</svg:g>
<svg:g style="fill:#C83434; fill-opacity:0.0;  stroke:#C83434; stroke-width:0.000000; stroke-opacity:1;  stroke-linecap:round; stroke-linejoin:round;">
</svg:g>
<svg:g style="fill:#C83434; fill-opacity:1.0;  stroke:#C83434; stroke-width:1.000000; stroke-opacity:1;  stroke-linecap:round; stroke-linejoin:round;">
<svg:circle cx="50000000.000000" cy="50000000.000000" r="800000.000000"/> 
</svg:g>
<svg:g style="fill:#C83434; fill-opacity:1.0;  stroke:#C83434; stroke-width:21200.000000; stroke-opacity:1;  stroke-linecap:round; stroke-linejoin:round;">
</svg:g>
<svg:g style="fill:#C83434; fill-opacity:1.0;  stroke:#C83434; stroke-width:1.000000; stroke-opacity:1;  stroke-linecap:round; stroke-linejoin:round;">
<svg:circle cx="70000000.000000" cy="50000000.000000" r="800000.000000"/> 
</svg:g>
<svg:g>
</svg:g>
<svg:g>
</svg:g>
<svg:g>
</svg:g>
</svg:g>
<svg:g style="fill:#FFFFFF; fill-opacity:1.0;  stroke:#FFFFFF; stroke-width:1.000000; stroke-opacity:1;  stroke-linecap:round; stroke-linejoin:round;">
<svg:circle cx="50000000.000000" cy="50000000.000000" r="400000.000000"/> 
</svg:g>
<svg:g style="fill:#FFFFFF; fill-opacity:1.0;  stroke:#FFFFFF; stroke-width:21200.000000; stroke-opacity:1;  stroke-linecap:round; stroke-linejoin:round;">
</svg:g>
<svg:g style="fill:#FFFFFF; fill-opacity:1.0;  stroke:#FFFFFF; stroke-width:1.000000; stroke-opacity:1;  stroke-linecap:round; stroke-linejoin:round;">
<svg:circle cx="70000000.000000" cy="50000000.000000" r="400000.000000"/> 
</svg:g>
<svg:g style="fill:#FFFFFF; fill-opacity:1.0;  stroke:#FFFFFF; stroke-width:21200.000000; stroke-opacity:1;  stroke-linecap:round; stroke-linejoin:round;">
</svg:g>
<svg:g style="fill:#000000; fill-opacity:1.0;  stroke:#000000; stroke-width:21200.000000; stroke-opacity:1;  stroke-linecap:round; stroke-linejoin:round;">
<svg:g>
</svg:g>
<svg:g>
</svg:g>
<svg:g>
</svg:g>
<svg:g>
</svg:g>
</svg:g> 
</svg:g></svg>
