<?xml version='1.0' encoding='ASCII' standalone='yes'?>
<svg xmlns:svg="http://www.w3.org/2000/svg" xmlns="http://www.w3.org/2000/svg" xmlns:xlink="http://www.w3.org/1999/xlink" version="1.1" width="9.999980cm" height="9.999980cm" viewBox="0 0 99999800 99999800">
<title>SVG Picture created as kicadBoard-B_Cu.svg date 2022/12/04 08:47:38 </title>
  <desc>Picture generated by PCBNEW </desc>
<g style="fill:#000000; fill-opacity:1.000000;stroke:#000000; stroke-opacity:1.000000; stroke-linecap:round; stroke-linejoin:round;" transform="translate(0 0) scale(1 1)">
</g>
<g style="fill:#000000; fill-opacity:0.0;  stroke:#000000; stroke-width:0.000000; stroke-opacity:1;  stroke-linecap:round; stroke-linejoin:round;">
<g>
</g>
<g style="fill:#4D7FC4; fill-opacity:0.0;  stroke:#4D7FC4; stroke-width:0.000000; stroke-opacity:1;  stroke-linecap:round; stroke-linejoin:round;">
</g>
<g style="fill:#4D7FC4; fill-opacity:0.0;  stroke:#4D7FC4; stroke-width:2705100.000000; stroke-opacity:1;  stroke-linecap:round; stroke-linejoin:round;">
<path d="M38112800 51352550 L38112800 48647450 "/>
<path d="M42075200 51352550 L42075200 48647450 "/>
<path d="M46037600 51352550 L46037600 48647450 "/>
<path d="M50000000 51352550 L50000000 48647450 "/>
<path d="M53962400 51352550 L53962400 48647450 "/>
<path d="M57924800 51352550 L57924800 48647450 "/>
<path d="M61887200 51352550 L61887200 48647450 "/>
</g>
<g>
</g>
<g>
</g>
<g>
</g>
</g>
<g style="fill:#FFFFFF; fill-opacity:0.0;  stroke:#FFFFFF; stroke-width:2705100.000000; stroke-opacity:1;  stroke-linecap:round; stroke-linejoin:round;">
</g>
<g style="fill:#FFFFFF; fill-opacity:1.0;  stroke:#FFFFFF; stroke-width:1.000000; stroke-opacity:1;  stroke-linecap:round; stroke-linejoin:round;">
<circle cx="38112800.000000" cy="50000000.000000" r="901700.000000"/> 
</g>
<g style="fill:#FFFFFF; fill-opacity:1.0;  stroke:#FFFFFF; stroke-width:21200.000000; stroke-opacity:1;  stroke-linecap:round; stroke-linejoin:round;">
</g>
<g style="fill:#FFFFFF; fill-opacity:1.0;  stroke:#FFFFFF; stroke-width:1.000000; stroke-opacity:1;  stroke-linecap:round; stroke-linejoin:round;">
<circle cx="42075200.000000" cy="50000000.000000" r="901700.000000"/> 
</g>
<g style="fill:#FFFFFF; fill-opacity:1.0;  stroke:#FFFFFF; stroke-width:21200.000000; stroke-opacity:1;  stroke-linecap:round; stroke-linejoin:round;">
</g>
<g style="fill:#FFFFFF; fill-opacity:1.0;  stroke:#FFFFFF; stroke-width:1.000000; stroke-opacity:1;  stroke-linecap:round; stroke-linejoin:round;">
<circle cx="46037600.000000" cy="50000000.000000" r="901700.000000"/> 
</g>
<g style="fill:#FFFFFF; fill-opacity:1.0;  stroke:#FFFFFF; stroke-width:21200.000000; stroke-opacity:1;  stroke-linecap:round; stroke-linejoin:round;">
</g>
<g style="fill:#FFFFFF; fill-opacity:1.0;  stroke:#FFFFFF; stroke-width:1.000000; stroke-opacity:1;  stroke-linecap:round; stroke-linejoin:round;">
<circle cx="50000000.000000" cy="50000000.000000" r="901700.000000"/> 
</g>
<g style="fill:#FFFFFF; fill-opacity:1.0;  stroke:#FFFFFF; stroke-width:21200.000000; stroke-opacity:1;  stroke-linecap:round; stroke-linejoin:round;">
</g>
<g style="fill:#FFFFFF; fill-opacity:1.0;  stroke:#FFFFFF; stroke-width:1.000000; stroke-opacity:1;  stroke-linecap:round; stroke-linejoin:round;">
<circle cx="53962400.000000" cy="50000000.000000" r="901700.000000"/> 
</g>
<g style="fill:#FFFFFF; fill-opacity:1.0;  stroke:#FFFFFF; stroke-width:21200.000000; stroke-opacity:1;  stroke-linecap:round; stroke-linejoin:round;">
</g>
<g style="fill:#FFFFFF; fill-opacity:1.0;  stroke:#FFFFFF; stroke-width:1.000000; stroke-opacity:1;  stroke-linecap:round; stroke-linejoin:round;">
<circle cx="57924800.000000" cy="50000000.000000" r="901700.000000"/> 
</g>
<g style="fill:#FFFFFF; fill-opacity:1.0;  stroke:#FFFFFF; stroke-width:21200.000000; stroke-opacity:1;  stroke-linecap:round; stroke-linejoin:round;">
</g>
<g style="fill:#FFFFFF; fill-opacity:1.0;  stroke:#FFFFFF; stroke-width:1.000000; stroke-opacity:1;  stroke-linecap:round; stroke-linejoin:round;">
<circle cx="61887200.000000" cy="50000000.000000" r="901700.000000"/> 
</g>
<g style="fill:#FFFFFF; fill-opacity:1.0;  stroke:#FFFFFF; stroke-width:21200.000000; stroke-opacity:1;  stroke-linecap:round; stroke-linejoin:round;">
</g>
<g style="fill:#000000; fill-opacity:1.0;  stroke:#000000; stroke-width:21200.000000; stroke-opacity:1;  stroke-linecap:round; stroke-linejoin:round;">
<g>
</g>
<g>
</g>
<g>
</g>
<g>
</g>
</g> 
<svg:g><svg:title>SVG Picture created as kicadBoard-B_Adhesive.svg date 2022/12/04 08:47:38 </svg:title>
  <svg:desc>Picture generated by PCBNEW </svg:desc>
<svg:g style="fill:#000000; fill-opacity:1.000000;stroke:#000000; stroke-opacity:1.000000; stroke-linecap:round; stroke-linejoin:round;" transform="translate(0 0) scale(1 1)">
</svg:g>
<svg:g style="fill:#000000; fill-opacity:0.0;  stroke:#000000; stroke-width:0.000000; stroke-opacity:1;  stroke-linecap:round; stroke-linejoin:round;">
<svg:g>
</svg:g>
<svg:g>
</svg:g>
<svg:g>
</svg:g>
<svg:g>
</svg:g>
</svg:g>
<svg:g style="fill:#000000; fill-opacity:0.0;  stroke:#000000; stroke-width:0.000000; stroke-opacity:1;  stroke-linecap:round; stroke-linejoin:round;">
<svg:g>
</svg:g>
<svg:g>
</svg:g>
<svg:g>
</svg:g>
<svg:g>
</svg:g>
</svg:g> 
</svg:g><svg:g><svg:title>SVG Picture created as kicadBoard-B_Courtyard.svg date 2022/12/04 08:47:38 </svg:title>
  <svg:desc>Picture generated by PCBNEW </svg:desc>
<svg:g style="fill:#000000; fill-opacity:1.000000;stroke:#000000; stroke-opacity:1.000000; stroke-linecap:round; stroke-linejoin:round;" transform="translate(0 0) scale(1 1)">
</svg:g>
<svg:g style="fill:#000000; fill-opacity:0.0;  stroke:#000000; stroke-width:0.000000; stroke-opacity:1;  stroke-linecap:round; stroke-linejoin:round;">
<svg:g>
</svg:g>
<svg:g>
</svg:g>
<svg:g>
</svg:g>
<svg:g>
</svg:g>
</svg:g>
<svg:g style="fill:#000000; fill-opacity:0.0;  stroke:#000000; stroke-width:0.000000; stroke-opacity:1;  stroke-linecap:round; stroke-linejoin:round;">
<svg:g>
</svg:g>
<svg:g>
</svg:g>
<svg:g>
</svg:g>
<svg:g>
</svg:g>
</svg:g> 
</svg:g><svg:g><svg:title>SVG Picture created as kicadBoard-B_Fab.svg date 2022/12/04 08:47:38 </svg:title>
  <svg:desc>Picture generated by PCBNEW </svg:desc>
<svg:g style="fill:#000000; fill-opacity:1.000000;stroke:#000000; stroke-opacity:1.000000; stroke-linecap:round; stroke-linejoin:round;" transform="translate(0 0) scale(1 1)">
</svg:g>
<svg:g style="fill:#000000; fill-opacity:0.0;  stroke:#000000; stroke-width:0.000000; stroke-opacity:1;  stroke-linecap:round; stroke-linejoin:round;">
<svg:g>
</svg:g>
<svg:g>
</svg:g>
<svg:g>
</svg:g>
<svg:g>
</svg:g>
</svg:g>
<svg:g style="fill:#000000; fill-opacity:0.0;  stroke:#000000; stroke-width:0.000000; stroke-opacity:1;  stroke-linecap:round; stroke-linejoin:round;">
<svg:g>
</svg:g>
<svg:g>
</svg:g>
<svg:g>
</svg:g>
<svg:g>
</svg:g>
</svg:g> 
</svg:g><svg:g><svg:title>SVG Picture created as kicadBoard-B_Mask.svg date 2022/12/04 08:47:38 </svg:title>
  <svg:desc>Picture generated by PCBNEW </svg:desc>
<svg:g style="fill:#000000; fill-opacity:1.000000;stroke:#000000; stroke-opacity:1.000000; stroke-linecap:round; stroke-linejoin:round;" transform="translate(0 0) scale(1 1)">
</svg:g>
<svg:g style="fill:#000000; fill-opacity:0.0;  stroke:#000000; stroke-width:0.000000; stroke-opacity:1;  stroke-linecap:round; stroke-linejoin:round;">
<svg:g>
</svg:g>
<svg:g style="fill:#000000; fill-opacity:0.0;  stroke:#000000; stroke-width:2908300.000000; stroke-opacity:1;  stroke-linecap:round; stroke-linejoin:round;">
<svg:path d="M38112800 51352550 L38112800 48647450 "/>
<svg:path d="M42075200 51352550 L42075200 48647450 "/>
<svg:path d="M46037600 51352550 L46037600 48647450 "/>
<svg:path d="M50000000 51352550 L50000000 48647450 "/>
<svg:path d="M53962400 51352550 L53962400 48647450 "/>
<svg:path d="M57924800 51352550 L57924800 48647450 "/>
<svg:path d="M61887200 51352550 L61887200 48647450 "/>
</svg:g>
<svg:g>
</svg:g>
<svg:g>
</svg:g>
<svg:g>
</svg:g>
</svg:g>
<svg:g style="fill:#000000; fill-opacity:0.0;  stroke:#000000; stroke-width:2908300.000000; stroke-opacity:1;  stroke-linecap:round; stroke-linejoin:round;">
<svg:g>
</svg:g>
<svg:g>
</svg:g>
<svg:g>
</svg:g>
<svg:g>
</svg:g>
</svg:g> 
</svg:g><svg:g><svg:title>SVG Picture created as kicadBoard-B_Paste.svg date 2022/12/04 08:47:38 </svg:title>
  <svg:desc>Picture generated by PCBNEW </svg:desc>
<svg:g style="fill:#000000; fill-opacity:1.000000;stroke:#000000; stroke-opacity:1.000000; stroke-linecap:round; stroke-linejoin:round;" transform="translate(0 0) scale(1 1)">
</svg:g>
<svg:g style="fill:#000000; fill-opacity:0.0;  stroke:#000000; stroke-width:0.000000; stroke-opacity:1;  stroke-linecap:round; stroke-linejoin:round;">
<svg:g>
</svg:g>
<svg:g>
</svg:g>
<svg:g>
</svg:g>
<svg:g>
</svg:g>
</svg:g>
<svg:g style="fill:#000000; fill-opacity:0.0;  stroke:#000000; stroke-width:0.000000; stroke-opacity:1;  stroke-linecap:round; stroke-linejoin:round;">
<svg:g>
</svg:g>
<svg:g>
</svg:g>
<svg:g>
</svg:g>
<svg:g>
</svg:g>
</svg:g> 
</svg:g><svg:g><svg:title>SVG Picture created as kicadBoard-B_Silkscreen.svg date 2022/12/04 08:47:38 </svg:title>
  <svg:desc>Picture generated by PCBNEW </svg:desc>
<svg:g style="fill:#000000; fill-opacity:1.000000;stroke:#000000; stroke-opacity:1.000000; stroke-linecap:round; stroke-linejoin:round;" transform="translate(0 0) scale(1 1)">
</svg:g>
<svg:g style="fill:#000000; fill-opacity:0.0;  stroke:#000000; stroke-width:0.000000; stroke-opacity:1;  stroke-linecap:round; stroke-linejoin:round;">
<svg:g>
</svg:g>
<svg:g>
</svg:g>
<svg:g>
</svg:g>
<svg:g>
</svg:g>
</svg:g>
<svg:g style="fill:#000000; fill-opacity:0.0;  stroke:#000000; stroke-width:0.000000; stroke-opacity:1;  stroke-linecap:round; stroke-linejoin:round;">
<svg:g>
</svg:g>
<svg:g>
</svg:g>
<svg:g>
</svg:g>
<svg:g>
</svg:g>
</svg:g> 
</svg:g><svg:g><svg:title>SVG Picture created as kicadBoard-Edge_Cuts.svg date 2022/12/04 08:47:38 </svg:title>
  <svg:desc>Picture generated by PCBNEW </svg:desc>
<svg:g style="fill:#000000; fill-opacity:1.000000;stroke:#000000; stroke-opacity:1.000000; stroke-linecap:round; stroke-linejoin:round;" transform="translate(0 0) scale(1 1)">
</svg:g>
<svg:g style="fill:#000000; fill-opacity:0.0;  stroke:#000000; stroke-width:0.000000; stroke-opacity:1;  stroke-linecap:round; stroke-linejoin:round;">
<svg:g>
</svg:g>
<svg:g>
</svg:g>
<svg:g>
</svg:g>
<svg:g>
</svg:g>
</svg:g> 
</svg:g><svg:g><svg:title>SVG Picture created as kicadBoard-F_Adhesive.svg date 2022/12/04 08:47:38 </svg:title>
  <svg:desc>Picture generated by PCBNEW </svg:desc>
<svg:g style="fill:#000000; fill-opacity:1.000000;stroke:#000000; stroke-opacity:1.000000; stroke-linecap:round; stroke-linejoin:round;" transform="translate(0 0) scale(1 1)">
</svg:g>
<svg:g style="fill:#000000; fill-opacity:0.0;  stroke:#000000; stroke-width:0.000000; stroke-opacity:1;  stroke-linecap:round; stroke-linejoin:round;">
<svg:g>
</svg:g>
<svg:g>
</svg:g>
<svg:g>
</svg:g>
<svg:g>
</svg:g>
</svg:g>
<svg:g style="fill:#000000; fill-opacity:0.0;  stroke:#000000; stroke-width:0.000000; stroke-opacity:1;  stroke-linecap:round; stroke-linejoin:round;">
<svg:g>
</svg:g>
<svg:g>
</svg:g>
<svg:g>
</svg:g>
<svg:g>
</svg:g>
</svg:g> 
</svg:g><svg:g><svg:title>SVG Picture created as kicadBoard-F_Courtyard.svg date 2022/12/04 08:47:38 </svg:title>
  <svg:desc>Picture generated by PCBNEW </svg:desc>
<svg:g style="fill:#000000; fill-opacity:1.000000;stroke:#000000; stroke-opacity:1.000000; stroke-linecap:round; stroke-linejoin:round;" transform="translate(0 0) scale(1 1)">
</svg:g>
<svg:g style="fill:#000000; fill-opacity:0.0;  stroke:#000000; stroke-width:0.000000; stroke-opacity:1;  stroke-linecap:round; stroke-linejoin:round;">
<svg:g>
</svg:g>
<svg:g>
</svg:g>
<svg:g>
</svg:g>
<svg:g>
</svg:g>
</svg:g>
<svg:g style="fill:#000000; fill-opacity:0.0;  stroke:#000000; stroke-width:0.000000; stroke-opacity:1;  stroke-linecap:round; stroke-linejoin:round;">
<svg:g>
</svg:g>
<svg:g>
</svg:g>
<svg:g>
</svg:g>
<svg:g>
</svg:g>
</svg:g> 
</svg:g><svg:g><svg:title>SVG Picture created as kicadBoard-F_Cu.svg date 2022/12/04 08:47:38 </svg:title>
  <svg:desc>Picture generated by PCBNEW </svg:desc>
<svg:g style="fill:#000000; fill-opacity:1.000000;stroke:#000000; stroke-opacity:1.000000; stroke-linecap:round; stroke-linejoin:round;" transform="translate(0 0) scale(1 1)">
</svg:g>
<svg:g style="fill:#000000; fill-opacity:0.0;  stroke:#000000; stroke-width:0.000000; stroke-opacity:1;  stroke-linecap:round; stroke-linejoin:round;">
<svg:g>
</svg:g>
<svg:g style="fill:#C83434; fill-opacity:0.0;  stroke:#C83434; stroke-width:0.000000; stroke-opacity:1;  stroke-linecap:round; stroke-linejoin:round;">
</svg:g>
<svg:g style="fill:#C83434; fill-opacity:0.0;  stroke:#C83434; stroke-width:2705100.000000; stroke-opacity:1;  stroke-linecap:round; stroke-linejoin:round;">
<svg:path d="M38112800 51352550 L38112800 48647450 "/>
<svg:path d="M42075200 51352550 L42075200 48647450 "/>
<svg:path d="M46037600 51352550 L46037600 48647450 "/>
<svg:path d="M50000000 51352550 L50000000 48647450 "/>
<svg:path d="M53962400 51352550 L53962400 48647450 "/>
<svg:path d="M57924800 51352550 L57924800 48647450 "/>
<svg:path d="M61887200 51352550 L61887200 48647450 "/>
</svg:g>
<svg:g>
</svg:g>
<svg:g>
</svg:g>
<svg:g>
</svg:g>
</svg:g>
<svg:g style="fill:#FFFFFF; fill-opacity:0.0;  stroke:#FFFFFF; stroke-width:2705100.000000; stroke-opacity:1;  stroke-linecap:round; stroke-linejoin:round;">
</svg:g>
<svg:g style="fill:#FFFFFF; fill-opacity:1.0;  stroke:#FFFFFF; stroke-width:1.000000; stroke-opacity:1;  stroke-linecap:round; stroke-linejoin:round;">
<svg:circle cx="38112800.000000" cy="50000000.000000" r="901700.000000"/> 
</svg:g>
<svg:g style="fill:#FFFFFF; fill-opacity:1.0;  stroke:#FFFFFF; stroke-width:21200.000000; stroke-opacity:1;  stroke-linecap:round; stroke-linejoin:round;">
</svg:g>
<svg:g style="fill:#FFFFFF; fill-opacity:1.0;  stroke:#FFFFFF; stroke-width:1.000000; stroke-opacity:1;  stroke-linecap:round; stroke-linejoin:round;">
<svg:circle cx="42075200.000000" cy="50000000.000000" r="901700.000000"/> 
</svg:g>
<svg:g style="fill:#FFFFFF; fill-opacity:1.0;  stroke:#FFFFFF; stroke-width:21200.000000; stroke-opacity:1;  stroke-linecap:round; stroke-linejoin:round;">
</svg:g>
<svg:g style="fill:#FFFFFF; fill-opacity:1.0;  stroke:#FFFFFF; stroke-width:1.000000; stroke-opacity:1;  stroke-linecap:round; stroke-linejoin:round;">
<svg:circle cx="46037600.000000" cy="50000000.000000" r="901700.000000"/> 
</svg:g>
<svg:g style="fill:#FFFFFF; fill-opacity:1.0;  stroke:#FFFFFF; stroke-width:21200.000000; stroke-opacity:1;  stroke-linecap:round; stroke-linejoin:round;">
</svg:g>
<svg:g style="fill:#FFFFFF; fill-opacity:1.0;  stroke:#FFFFFF; stroke-width:1.000000; stroke-opacity:1;  stroke-linecap:round; stroke-linejoin:round;">
<svg:circle cx="50000000.000000" cy="50000000.000000" r="901700.000000"/> 
</svg:g>
<svg:g style="fill:#FFFFFF; fill-opacity:1.0;  stroke:#FFFFFF; stroke-width:21200.000000; stroke-opacity:1;  stroke-linecap:round; stroke-linejoin:round;">
</svg:g>
<svg:g style="fill:#FFFFFF; fill-opacity:1.0;  stroke:#FFFFFF; stroke-width:1.000000; stroke-opacity:1;  stroke-linecap:round; stroke-linejoin:round;">
<svg:circle cx="53962400.000000" cy="50000000.000000" r="901700.000000"/> 
</svg:g>
<svg:g style="fill:#FFFFFF; fill-opacity:1.0;  stroke:#FFFFFF; stroke-width:21200.000000; stroke-opacity:1;  stroke-linecap:round; stroke-linejoin:round;">
</svg:g>
<svg:g style="fill:#FFFFFF; fill-opacity:1.0;  stroke:#FFFFFF; stroke-width:1.000000; stroke-opacity:1;  stroke-linecap:round; stroke-linejoin:round;">
<svg:circle cx="57924800.000000" cy="50000000.000000" r="901700.000000"/> 
</svg:g>
<svg:g style="fill:#FFFFFF; fill-opacity:1.0;  stroke:#FFFFFF; stroke-width:21200.000000; stroke-opacity:1;  stroke-linecap:round; stroke-linejoin:round;">
</svg:g>
<svg:g style="fill:#FFFFFF; fill-opacity:1.0;  stroke:#FFFFFF; stroke-width:1.000000; stroke-opacity:1;  stroke-linecap:round; stroke-linejoin:round;">
<svg:circle cx="61887200.000000" cy="50000000.000000" r="901700.000000"/> 
</svg:g>
<svg:g style="fill:#FFFFFF; fill-opacity:1.0;  stroke:#FFFFFF; stroke-width:21200.000000; stroke-opacity:1;  stroke-linecap:round; stroke-linejoin:round;">
</svg:g>
<svg:g style="fill:#000000; fill-opacity:1.0;  stroke:#000000; stroke-width:21200.000000; stroke-opacity:1;  stroke-linecap:round; stroke-linejoin:round;">
<svg:g>
</svg:g>
<svg:g>
</svg:g>
<svg:g>
</svg:g>
<svg:g>
</svg:g>
</svg:g> 
</svg:g><svg:g><svg:title>SVG Picture created as kicadBoard-F_Fab.svg date 2022/12/04 08:47:38 </svg:title>
  <svg:desc>Picture generated by PCBNEW </svg:desc>
<svg:g style="fill:#000000; fill-opacity:1.000000;stroke:#000000; stroke-opacity:1.000000; stroke-linecap:round; stroke-linejoin:round;" transform="translate(0 0) scale(1 1)">
</svg:g>
<svg:g style="fill:#000000; fill-opacity:0.0;  stroke:#000000; stroke-width:0.000000; stroke-opacity:1;  stroke-linecap:round; stroke-linejoin:round;">
</svg:g>
<svg:g style="fill:#AFAFAF; fill-opacity:0.0;  stroke:#AFAFAF; stroke-width:0.000000; stroke-opacity:1;  stroke-linecap:round; stroke-linejoin:round;">
</svg:g>
<svg:g style="fill:#AFAFAF; fill-opacity:0.0;  stroke:#AFAFAF; stroke-width:127000.000000; stroke-opacity:1;  stroke-linecap:round; stroke-linejoin:round;">
<svg:text x="40652800.000000" y="44539000.000000" textLength="6696529.000000" font-size="1524000.000000" lengthAdjust="spacingAndGlyphs" text-anchor="start" opacity="0">&gt;VALUE</svg:text>
<svg:g class="stroked-text"><svg:desc>&gt;VALUE</svg:desc>
<svg:path d="M41007492 43722571 L41878350 44049142 L41007492 44375714 "/>
<svg:path d="M42259350 43341571 L42640350 44484571 L43021350 43341571 "/>
<svg:path d="M43347921 44158000 L43892207 44158000 "/>
<svg:path d="M43239064 44484571 L43620064 43341571 L44001064 44484571 "/>
<svg:path d="M44926350 44484571 L44382064 44484571 L44382064 43341571 "/>
<svg:path d="M45307350 43341571 L45307350 44266857 L45361778 44375714 L45416207 44430142 L45525064 44484571 L45742778 44484571 L45851635 44430142 L45906064 44375714 L45960492 44266857 L45960492 43341571 "/>
<svg:path d="M46504778 43885857 L46885778 43885857 "/>
<svg:path d="M47049064 44484571 L46504778 44484571 L46504778 43341571 L47049064 43341571 "/>
</svg:g></svg:g>
<svg:g style="fill:#AFAFAF; fill-opacity:0.0;  stroke:#AFAFAF; stroke-width:152400.000000; stroke-opacity:1;  stroke-linecap:round; stroke-linejoin:round;">
<svg:path d="M37477800 50635000 L38747800 50635000 "/>
<svg:path d="M38747800 49365000 L37477800 49365000 "/>
<svg:path d="M58559800 49365000 L57289800 49365000 "/>
<svg:path d="M41440200 50635000 L42710200 50635000 "/>
<svg:path d="M58559800 49365000 L57289800 50635000 "/>
<svg:path d="M62522200 50635000 L62522200 49365000 "/>
<svg:path d="M37477800 49365000 L38747800 50635000 "/>
<svg:path d="M49365000 49365000 L49365000 50635000 "/>
<svg:path d="M42710200 50635000 L42710200 49365000 "/>
<svg:path d="M57289800 50635000 L58559800 50635000 "/>
<svg:path d="M45402600 49365000 L45402600 50635000 "/>
<svg:path d="M38747800 49365000 L37477800 50635000 "/>
<svg:path d="M53327400 49365000 L54597400 50635000 "/>
<svg:path d="M57289800 49365000 L57289800 50635000 "/>
<svg:path d="M46672600 50635000 L46672600 49365000 "/>
<svg:path d="M42710200 49365000 L41440200 49365000 "/>
<svg:path d="M50635000 49365000 L49365000 50635000 "/>
<svg:path d="M61252200 50635000 L62522200 50635000 "/>
<svg:path d="M61252200 49365000 L61252200 50635000 "/>
<svg:path d="M41440200 49365000 L42710200 50635000 "/>
<svg:path d="M62522200 49365000 L61252200 49365000 "/>
<svg:path d="M62522200 49365000 L61252200 50635000 "/>
<svg:path d="M53327400 50635000 L54597400 50635000 "/>
<svg:path d="M45402600 50635000 L46672600 50635000 "/>
<svg:path d="M49365000 50635000 L50635000 50635000 "/>
<svg:path d="M61252200 49365000 L62522200 50635000 "/>
<svg:path d="M53327400 49365000 L53327400 50635000 "/>
<svg:path d="M54597400 49365000 L53327400 49365000 "/>
<svg:path d="M41440200 49365000 L41440200 50635000 "/>
<svg:path d="M38747800 50635000 L38747800 49365000 "/>
<svg:path d="M37477800 49365000 L37477800 50635000 "/>
<svg:path d="M54597400 49365000 L53327400 50635000 "/>
<svg:path d="M50635000 50635000 L50635000 49365000 "/>
<svg:path d="M54597400 50635000 L54597400 49365000 "/>
<svg:path d="M46672600 49365000 L45402600 49365000 "/>
<svg:path d="M57289800 49365000 L58559800 50635000 "/>
<svg:path d="M45402600 49365000 L46672600 50635000 "/>
<svg:path d="M50635000 49365000 L49365000 49365000 "/>
<svg:path d="M42710200 49365000 L41440200 50635000 "/>
<svg:path d="M49365000 49365000 L50635000 50635000 "/>
<svg:path d="M58559800 50635000 L58559800 49365000 "/>
<svg:path d="M46672600 49365000 L45402600 50635000 "/>
<svg:g>
</svg:g>
<svg:g>
</svg:g>
<svg:g>
</svg:g>
<svg:g>
</svg:g>
</svg:g>
<svg:g style="fill:#000000; fill-opacity:0.0;  stroke:#000000; stroke-width:152400.000000; stroke-opacity:1;  stroke-linecap:round; stroke-linejoin:round;">
<svg:g>
</svg:g>
<svg:g>
</svg:g>
<svg:g>
</svg:g>
<svg:g>
</svg:g>
</svg:g> 
</svg:g><svg:g><svg:title>SVG Picture created as kicadBoard-F_Mask.svg date 2022/12/04 08:47:38 </svg:title>
  <svg:desc>Picture generated by PCBNEW </svg:desc>
<svg:g style="fill:#000000; fill-opacity:1.000000;stroke:#000000; stroke-opacity:1.000000; stroke-linecap:round; stroke-linejoin:round;" transform="translate(0 0) scale(1 1)">
</svg:g>
<svg:g style="fill:#000000; fill-opacity:0.0;  stroke:#000000; stroke-width:0.000000; stroke-opacity:1;  stroke-linecap:round; stroke-linejoin:round;">
<svg:g>
</svg:g>
<svg:g style="fill:#000000; fill-opacity:0.0;  stroke:#000000; stroke-width:2908300.000000; stroke-opacity:1;  stroke-linecap:round; stroke-linejoin:round;">
<svg:path d="M38112800 51352550 L38112800 48647450 "/>
<svg:path d="M42075200 51352550 L42075200 48647450 "/>
<svg:path d="M46037600 51352550 L46037600 48647450 "/>
<svg:path d="M50000000 51352550 L50000000 48647450 "/>
<svg:path d="M53962400 51352550 L53962400 48647450 "/>
<svg:path d="M57924800 51352550 L57924800 48647450 "/>
<svg:path d="M61887200 51352550 L61887200 48647450 "/>
</svg:g>
<svg:g>
</svg:g>
<svg:g>
</svg:g>
<svg:g>
</svg:g>
</svg:g>
<svg:g style="fill:#000000; fill-opacity:0.0;  stroke:#000000; stroke-width:2908300.000000; stroke-opacity:1;  stroke-linecap:round; stroke-linejoin:round;">
<svg:g>
</svg:g>
<svg:g>
</svg:g>
<svg:g>
</svg:g>
<svg:g>
</svg:g>
</svg:g> 
</svg:g><svg:g><svg:title>SVG Picture created as kicadBoard-F_Paste.svg date 2022/12/04 08:47:38 </svg:title>
  <svg:desc>Picture generated by PCBNEW </svg:desc>
<svg:g style="fill:#000000; fill-opacity:1.000000;stroke:#000000; stroke-opacity:1.000000; stroke-linecap:round; stroke-linejoin:round;" transform="translate(0 0) scale(1 1)">
</svg:g>
<svg:g style="fill:#000000; fill-opacity:0.0;  stroke:#000000; stroke-width:0.000000; stroke-opacity:1;  stroke-linecap:round; stroke-linejoin:round;">
<svg:g>
</svg:g>
<svg:g>
</svg:g>
<svg:g>
</svg:g>
<svg:g>
</svg:g>
</svg:g>
<svg:g style="fill:#000000; fill-opacity:0.0;  stroke:#000000; stroke-width:0.000000; stroke-opacity:1;  stroke-linecap:round; stroke-linejoin:round;">
<svg:g>
</svg:g>
<svg:g>
</svg:g>
<svg:g>
</svg:g>
<svg:g>
</svg:g>
</svg:g> 
</svg:g><svg:g><svg:title>SVG Picture created as kicadBoard-F_Silkscreen.svg date 2022/12/04 08:47:38 </svg:title>
  <svg:desc>Picture generated by PCBNEW </svg:desc>
<svg:g style="fill:#000000; fill-opacity:1.000000;stroke:#000000; stroke-opacity:1.000000; stroke-linecap:round; stroke-linejoin:round;" transform="translate(0 0) scale(1 1)">
</svg:g>
<svg:g style="fill:#000000; fill-opacity:0.0;  stroke:#000000; stroke-width:0.000000; stroke-opacity:1;  stroke-linecap:round; stroke-linejoin:round;">
</svg:g>
<svg:g style="fill:#F2EDA1; fill-opacity:0.0;  stroke:#F2EDA1; stroke-width:0.000000; stroke-opacity:1;  stroke-linecap:round; stroke-linejoin:round;">
</svg:g>
<svg:g style="fill:#F2EDA1; fill-opacity:0.0;  stroke:#F2EDA1; stroke-width:127000.000000; stroke-opacity:1;  stroke-linecap:round; stroke-linejoin:round;">
<svg:text x="34683800.000000" y="44539000.000000" textLength="17580430.000000" font-size="1524000.000000" lengthAdjust="spacingAndGlyphs" text-anchor="start" opacity="0">FZECONAMPMTMT67Y</svg:text>
<svg:g class="stroked-text"><svg:desc>FZECONAMPMTMT67Y</svg:desc>
<svg:path d="M35419492 43885857 L35038492 43885857 "/>
<svg:path d="M35038492 44484571 L35038492 43341571 L35582778 43341571 "/>
<svg:path d="M35909350 43341571 L36671350 43341571 L35909350 44484571 L36671350 44484571 "/>
<svg:path d="M37106778 43885857 L37487778 43885857 "/>
<svg:path d="M37651064 44484571 L37106778 44484571 L37106778 43341571 L37651064 43341571 "/>
<svg:path d="M38794064 44375714 L38739635 44430142 L38576350 44484571 L38467492 44484571 L38304207 44430142 L38195350 44321285 L38140921 44212428 L38086492 43994714 L38086492 43831428 L38140921 43613714 L38195350 43504857 L38304207 43396000 L38467492 43341571 L38576350 43341571 L38739635 43396000 L38794064 43450428 "/>
<svg:path d="M39501635 43341571 L39719350 43341571 L39828207 43396000 L39937064 43504857 L39991492 43722571 L39991492 44103571 L39937064 44321285 L39828207 44430142 L39719350 44484571 L39501635 44484571 L39392778 44430142 L39283921 44321285 L39229492 44103571 L39229492 43722571 L39283921 43504857 L39392778 43396000 L39501635 43341571 "/>
<svg:path d="M40481350 44484571 L40481350 43341571 L41134492 44484571 L41134492 43341571 "/>
<svg:path d="M41624350 44158000 L42168635 44158000 "/>
<svg:path d="M41515492 44484571 L41896492 43341571 L42277492 44484571 "/>
<svg:path d="M42658492 44484571 L42658492 43341571 L43039492 44158000 L43420492 43341571 L43420492 44484571 "/>
<svg:path d="M43964778 44484571 L43964778 43341571 L44400207 43341571 L44509064 43396000 L44563492 43450428 L44617921 43559285 L44617921 43722571 L44563492 43831428 L44509064 43885857 L44400207 43940285 L43964778 43940285 "/>
<svg:path d="M45107778 44484571 L45107778 43341571 L45488778 44158000 L45869778 43341571 L45869778 44484571 "/>
<svg:path d="M46250778 43341571 L46903921 43341571 "/>
<svg:path d="M46577350 44484571 L46577350 43341571 "/>
<svg:path d="M47284921 44484571 L47284921 43341571 L47665921 44158000 L48046921 43341571 L48046921 44484571 "/>
<svg:path d="M48427921 43341571 L49081064 43341571 "/>
<svg:path d="M48754492 44484571 L48754492 43341571 "/>
<svg:path d="M49951921 43341571 L49734207 43341571 L49625350 43396000 L49570921 43450428 L49462064 43613714 L49407635 43831428 L49407635 44266857 L49462064 44375714 L49516492 44430142 L49625350 44484571 L49843064 44484571 L49951921 44430142 L50006350 44375714 L50060778 44266857 L50060778 43994714 L50006350 43885857 L49951921 43831428 L49843064 43777000 L49625350 43777000 L49516492 43831428 L49462064 43885857 L49407635 43994714 "/>
<svg:path d="M50441778 43341571 L51203778 43341571 L50713921 44484571 "/>
<svg:path d="M51856921 43940285 L51856921 44484571 "/>
<svg:path d="M51475921 43341571 L51856921 43940285 L52237921 43341571 "/>
</svg:g><svg:text x="36715800.000000" y="46952000.000000" textLength="1253671.000000" font-size="1524000.000000" lengthAdjust="spacingAndGlyphs" text-anchor="start" opacity="0">1</svg:text>
<svg:g class="stroked-text"><svg:desc>1</svg:desc>
<svg:path d="M37669207 46897571 L37016064 46897571 "/>
<svg:path d="M37342635 46897571 L37342635 45754571 L37233778 45917857 L37124921 46026714 L37016064 46081142 "/>
</svg:g></svg:g>
<svg:g style="fill:#F2EDA1; fill-opacity:0.0;  stroke:#F2EDA1; stroke-width:152400.000000; stroke-opacity:1;  stroke-linecap:round; stroke-linejoin:round;">
<svg:path d="M50254000 54292600 L53733800 54292600 "/>
<svg:path d="M38366800 54292600 L41846600 54292600 "/>
<svg:path d="M62141200 54292600 L64909800 54292600 "/>
<svg:path d="M59677400 46113800 L59677400 45402600 "/>
<svg:path d="M59677400 46113800 L60160000 46113800 "/>
<svg:path d="M46291600 53581400 L46291600 54292600 "/>
<svg:path d="M38366800 53581400 L38366800 54292600 "/>
<svg:path d="M53733800 53581400 L53733800 54292600 "/>
<svg:path d="M47790200 46113800 L47790200 45402600 "/>
<svg:path d="M43827800 46113800 L43827800 45402600 "/>
<svg:path d="M52235200 45402600 L51752600 45402600 "/>
<svg:path d="M64909800 54292600 L64909800 45402600 "/>
<svg:path d="M62141200 53581400 L62141200 54292600 "/>
<svg:path d="M37884200 54292600 L38366800 54292600 "/>
<svg:path d="M57696200 54292600 L58178800 54292600 "/>
<svg:path d="M43827800 45402600 L40348000 45402600 "/>
<svg:path d="M58178800 54292600 L61658600 54292600 "/>
<svg:path d="M45809000 53581400 L46291600 53581400 "/>
<svg:path d="M39865400 45402600 L39865400 46113800 "/>
<svg:path d="M49771400 53581400 L50254000 53581400 "/>
<svg:path d="M53733800 53581400 L54216400 53581400 "/>
<svg:path d="M55715000 46113800 L55715000 45402600 "/>
<svg:path d="M41846600 53581400 L41846600 54292600 "/>
<svg:path d="M61658600 54292600 L62141200 54292600 "/>
<svg:path d="M42329200 54292600 L45809000 54292600 "/>
<svg:path d="M49771400 53581400 L49771400 54292600 "/>
<svg:path d="M65392400 44894600 L34607600 44894600 "/>
<svg:path d="M56197600 45402600 L55715000 45402600 "/>
<svg:path d="M44310400 45402600 L43827800 45402600 "/>
<svg:path d="M42329200 53581400 L42329200 54292600 "/>
<svg:path d="M40348000 46113800 L40348000 45402600 "/>
<svg:path d="M35090200 54292600 L37884200 54292600 "/>
<svg:path d="M37884200 53581400 L37884200 54292600 "/>
<svg:path d="M48272800 45402600 L47790200 45402600 "/>
<svg:path d="M58178800 53581400 L58178800 54292600 "/>
<svg:path d="M36207800 46190000 L36588800 48095000 "/>
<svg:path d="M36207800 46190000 L35826800 48095000 "/>
<svg:path d="M47790200 45402600 L44310400 45402600 "/>
<svg:path d="M35826800 48095000 L36588800 48095000 "/>
<svg:path d="M61658600 53581400 L61658600 54292600 "/>
<svg:path d="M55715000 45402600 L52235200 45402600 "/>
<svg:path d="M48272800 46113800 L48272800 45402600 "/>
<svg:path d="M60160000 45402600 L59677400 45402600 "/>
<svg:path d="M61658600 53581400 L62141200 53581400 "/>
<svg:path d="M46291600 54292600 L49771400 54292600 "/>
<svg:path d="M52235200 46113800 L52235200 45402600 "/>
<svg:path d="M65392400 54775200 L65392400 44894600 "/>
<svg:path d="M45809000 54292600 L46291600 54292600 "/>
<svg:path d="M45809000 53581400 L45809000 54292600 "/>
<svg:path d="M34607600 54775200 L65392400 54775200 "/>
<svg:path d="M54216400 54292600 L57696200 54292600 "/>
<svg:path d="M57696200 53581400 L57696200 54292600 "/>
<svg:path d="M51752600 46113800 L51752600 45402600 "/>
<svg:path d="M50254000 53581400 L50254000 54292600 "/>
<svg:path d="M41846600 54292600 L42329200 54292600 "/>
<svg:path d="M64909800 45402600 L60160000 45402600 "/>
<svg:path d="M51752600 46113800 L52235200 46113800 "/>
<svg:path d="M35090200 45402600 L35090200 54292600 "/>
<svg:path d="M40348000 45402600 L39865400 45402600 "/>
<svg:path d="M51752600 45402600 L48272800 45402600 "/>
<svg:path d="M44310400 46113800 L44310400 45402600 "/>
<svg:path d="M36207800 52540000 L36207800 46190000 "/>
<svg:path d="M34607600 44894600 L34607600 54775200 "/>
<svg:path d="M57696200 53581400 L58178800 53581400 "/>
<svg:path d="M47790200 46113800 L48272800 46113800 "/>
<svg:path d="M43827800 46113800 L44310400 46113800 "/>
<svg:path d="M56197600 46113800 L56197600 45402600 "/>
<svg:path d="M37884200 53581400 L38366800 53581400 "/>
<svg:path d="M41846600 53581400 L42329200 53581400 "/>
<svg:path d="M39865400 45402600 L35090200 45402600 "/>
<svg:path d="M49771400 54292600 L50254000 54292600 "/>
<svg:path d="M55715000 46113800 L56197600 46113800 "/>
<svg:path d="M53733800 54292600 L54216400 54292600 "/>
<svg:path d="M54216400 53581400 L54216400 54292600 "/>
<svg:path d="M60160000 46113800 L60160000 45402600 "/>
<svg:path d="M39865400 46113800 L40348000 46113800 "/>
<svg:path d="M59677400 45402600 L56197600 45402600 "/>
<svg:circle cx="36207800.000000" cy="53429000.000000" r="381000.000000"/> 
<svg:g>
</svg:g>
<svg:g>
</svg:g>
<svg:g>
</svg:g>
<svg:g>
</svg:g>
</svg:g>
<svg:g style="fill:#000000; fill-opacity:0.0;  stroke:#000000; stroke-width:152400.000000; stroke-opacity:1;  stroke-linecap:round; stroke-linejoin:round;">
<svg:g>
</svg:g>
<svg:g>
</svg:g>
<svg:g>
</svg:g>
<svg:g>
</svg:g>
</svg:g> 
</svg:g><svg:g><svg:title>SVG Picture created as kicadBoard-Margin.svg date 2022/12/04 08:47:38 </svg:title>
  <svg:desc>Picture generated by PCBNEW </svg:desc>
<svg:g style="fill:#000000; fill-opacity:1.000000;stroke:#000000; stroke-opacity:1.000000; stroke-linecap:round; stroke-linejoin:round;" transform="translate(0 0) scale(1 1)">
</svg:g>
<svg:g style="fill:#000000; fill-opacity:0.0;  stroke:#000000; stroke-width:0.000000; stroke-opacity:1;  stroke-linecap:round; stroke-linejoin:round;">
<svg:g>
</svg:g>
<svg:g>
</svg:g>
<svg:g>
</svg:g>
<svg:g>
</svg:g>
</svg:g>
<svg:g style="fill:#000000; fill-opacity:0.0;  stroke:#000000; stroke-width:0.000000; stroke-opacity:1;  stroke-linecap:round; stroke-linejoin:round;">
<svg:g>
</svg:g>
<svg:g>
</svg:g>
<svg:g>
</svg:g>
<svg:g>
</svg:g>
</svg:g> 
</svg:g><svg:g><svg:title>SVG Picture created as kicadBoard-F_Cu.svg date 2022/12/04 08:47:38 </svg:title>
  <svg:desc>Picture generated by PCBNEW </svg:desc>
<svg:g style="fill:#000000; fill-opacity:1.000000;stroke:#000000; stroke-opacity:1.000000; stroke-linecap:round; stroke-linejoin:round;" transform="translate(0 0) scale(1 1)">
</svg:g>
<svg:g style="fill:#000000; fill-opacity:0.0;  stroke:#000000; stroke-width:0.000000; stroke-opacity:1;  stroke-linecap:round; stroke-linejoin:round;">
<svg:g>
</svg:g>
<svg:g style="fill:#C83434; fill-opacity:0.0;  stroke:#C83434; stroke-width:0.000000; stroke-opacity:1;  stroke-linecap:round; stroke-linejoin:round;">
</svg:g>
<svg:g style="fill:#C83434; fill-opacity:0.0;  stroke:#C83434; stroke-width:2705100.000000; stroke-opacity:1;  stroke-linecap:round; stroke-linejoin:round;">
<svg:path d="M38112800 51352550 L38112800 48647450 "/>
<svg:path d="M42075200 51352550 L42075200 48647450 "/>
<svg:path d="M46037600 51352550 L46037600 48647450 "/>
<svg:path d="M50000000 51352550 L50000000 48647450 "/>
<svg:path d="M53962400 51352550 L53962400 48647450 "/>
<svg:path d="M57924800 51352550 L57924800 48647450 "/>
<svg:path d="M61887200 51352550 L61887200 48647450 "/>
</svg:g>
<svg:g>
</svg:g>
<svg:g>
</svg:g>
<svg:g>
</svg:g>
</svg:g>
<svg:g style="fill:#FFFFFF; fill-opacity:0.0;  stroke:#FFFFFF; stroke-width:2705100.000000; stroke-opacity:1;  stroke-linecap:round; stroke-linejoin:round;">
</svg:g>
<svg:g style="fill:#FFFFFF; fill-opacity:1.0;  stroke:#FFFFFF; stroke-width:1.000000; stroke-opacity:1;  stroke-linecap:round; stroke-linejoin:round;">
<svg:circle cx="38112800.000000" cy="50000000.000000" r="901700.000000"/> 
</svg:g>
<svg:g style="fill:#FFFFFF; fill-opacity:1.0;  stroke:#FFFFFF; stroke-width:21200.000000; stroke-opacity:1;  stroke-linecap:round; stroke-linejoin:round;">
</svg:g>
<svg:g style="fill:#FFFFFF; fill-opacity:1.0;  stroke:#FFFFFF; stroke-width:1.000000; stroke-opacity:1;  stroke-linecap:round; stroke-linejoin:round;">
<svg:circle cx="42075200.000000" cy="50000000.000000" r="901700.000000"/> 
</svg:g>
<svg:g style="fill:#FFFFFF; fill-opacity:1.0;  stroke:#FFFFFF; stroke-width:21200.000000; stroke-opacity:1;  stroke-linecap:round; stroke-linejoin:round;">
</svg:g>
<svg:g style="fill:#FFFFFF; fill-opacity:1.0;  stroke:#FFFFFF; stroke-width:1.000000; stroke-opacity:1;  stroke-linecap:round; stroke-linejoin:round;">
<svg:circle cx="46037600.000000" cy="50000000.000000" r="901700.000000"/> 
</svg:g>
<svg:g style="fill:#FFFFFF; fill-opacity:1.0;  stroke:#FFFFFF; stroke-width:21200.000000; stroke-opacity:1;  stroke-linecap:round; stroke-linejoin:round;">
</svg:g>
<svg:g style="fill:#FFFFFF; fill-opacity:1.0;  stroke:#FFFFFF; stroke-width:1.000000; stroke-opacity:1;  stroke-linecap:round; stroke-linejoin:round;">
<svg:circle cx="50000000.000000" cy="50000000.000000" r="901700.000000"/> 
</svg:g>
<svg:g style="fill:#FFFFFF; fill-opacity:1.0;  stroke:#FFFFFF; stroke-width:21200.000000; stroke-opacity:1;  stroke-linecap:round; stroke-linejoin:round;">
</svg:g>
<svg:g style="fill:#FFFFFF; fill-opacity:1.0;  stroke:#FFFFFF; stroke-width:1.000000; stroke-opacity:1;  stroke-linecap:round; stroke-linejoin:round;">
<svg:circle cx="53962400.000000" cy="50000000.000000" r="901700.000000"/> 
</svg:g>
<svg:g style="fill:#FFFFFF; fill-opacity:1.0;  stroke:#FFFFFF; stroke-width:21200.000000; stroke-opacity:1;  stroke-linecap:round; stroke-linejoin:round;">
</svg:g>
<svg:g style="fill:#FFFFFF; fill-opacity:1.0;  stroke:#FFFFFF; stroke-width:1.000000; stroke-opacity:1;  stroke-linecap:round; stroke-linejoin:round;">
<svg:circle cx="57924800.000000" cy="50000000.000000" r="901700.000000"/> 
</svg:g>
<svg:g style="fill:#FFFFFF; fill-opacity:1.0;  stroke:#FFFFFF; stroke-width:21200.000000; stroke-opacity:1;  stroke-linecap:round; stroke-linejoin:round;">
</svg:g>
<svg:g style="fill:#FFFFFF; fill-opacity:1.0;  stroke:#FFFFFF; stroke-width:1.000000; stroke-opacity:1;  stroke-linecap:round; stroke-linejoin:round;">
<svg:circle cx="61887200.000000" cy="50000000.000000" r="901700.000000"/> 
</svg:g>
<svg:g style="fill:#FFFFFF; fill-opacity:1.0;  stroke:#FFFFFF; stroke-width:21200.000000; stroke-opacity:1;  stroke-linecap:round; stroke-linejoin:round;">
</svg:g>
<svg:g style="fill:#000000; fill-opacity:1.0;  stroke:#000000; stroke-width:21200.000000; stroke-opacity:1;  stroke-linecap:round; stroke-linejoin:round;">
<svg:g>
</svg:g>
<svg:g>
</svg:g>
<svg:g>
</svg:g>
<svg:g>
</svg:g>
</svg:g> 
</svg:g></svg>
