<?xml version='1.0' encoding='ASCII' standalone='yes'?>
<svg xmlns:svg="http://www.w3.org/2000/svg" xmlns="http://www.w3.org/2000/svg" xmlns:xlink="http://www.w3.org/1999/xlink" version="1.1" width="9.999980cm" height="9.999980cm" viewBox="0 0 99999800 99999800">
<title>SVG Picture created as kicadBoard-B_Cu.svg date 2022/11/19 00:07:51 </title>
  <desc>Picture generated by PCBNEW </desc>
<g style="fill:#000000; fill-opacity:1.000000;stroke:#000000; stroke-opacity:1.000000; stroke-linecap:round; stroke-linejoin:round;" transform="translate(0 0) scale(1 1)">
</g>
<g style="fill:#000000; fill-opacity:0.0;  stroke:#000000; stroke-width:0.000000; stroke-opacity:1;  stroke-linecap:round; stroke-linejoin:round;">
<g>
</g>
<g>
</g>
<g>
</g>
<g>
</g>
</g>
<g style="fill:#FFFFFF; fill-opacity:0.0;  stroke:#FFFFFF; stroke-width:0.000000; stroke-opacity:1;  stroke-linecap:round; stroke-linejoin:round;">
</g>
<g style="fill:#000000; fill-opacity:0.0;  stroke:#000000; stroke-width:0.000000; stroke-opacity:1;  stroke-linecap:round; stroke-linejoin:round;">
<g>
</g>
<g>
</g>
<g>
</g>
<g>
</g>
</g> 
<svg:g><svg:title>SVG Picture created as kicadBoard-B_Adhesive.svg date 2022/11/19 00:07:51 </svg:title>
  <svg:desc>Picture generated by PCBNEW </svg:desc>
<svg:g style="fill:#000000; fill-opacity:1.000000;stroke:#000000; stroke-opacity:1.000000; stroke-linecap:round; stroke-linejoin:round;" transform="translate(0 0) scale(1 1)">
</svg:g>
<svg:g style="fill:#000000; fill-opacity:0.0;  stroke:#000000; stroke-width:0.000000; stroke-opacity:1;  stroke-linecap:round; stroke-linejoin:round;">
<svg:g>
</svg:g>
<svg:g>
</svg:g>
<svg:g>
</svg:g>
<svg:g>
</svg:g>
</svg:g>
<svg:g style="fill:#000000; fill-opacity:0.0;  stroke:#000000; stroke-width:0.000000; stroke-opacity:1;  stroke-linecap:round; stroke-linejoin:round;">
<svg:g>
</svg:g>
<svg:g>
</svg:g>
<svg:g>
</svg:g>
<svg:g>
</svg:g>
</svg:g> 
</svg:g><svg:g><svg:title>SVG Picture created as kicadBoard-B_Courtyard.svg date 2022/11/19 00:07:51 </svg:title>
  <svg:desc>Picture generated by PCBNEW </svg:desc>
<svg:g style="fill:#000000; fill-opacity:1.000000;stroke:#000000; stroke-opacity:1.000000; stroke-linecap:round; stroke-linejoin:round;" transform="translate(0 0) scale(1 1)">
</svg:g>
<svg:g style="fill:#000000; fill-opacity:0.0;  stroke:#000000; stroke-width:0.000000; stroke-opacity:1;  stroke-linecap:round; stroke-linejoin:round;">
<svg:g>
</svg:g>
<svg:g>
</svg:g>
<svg:g>
</svg:g>
<svg:g>
</svg:g>
</svg:g>
<svg:g style="fill:#000000; fill-opacity:0.0;  stroke:#000000; stroke-width:0.000000; stroke-opacity:1;  stroke-linecap:round; stroke-linejoin:round;">
<svg:g>
</svg:g>
<svg:g>
</svg:g>
<svg:g>
</svg:g>
<svg:g>
</svg:g>
</svg:g> 
</svg:g><svg:g><svg:title>SVG Picture created as kicadBoard-B_Fab.svg date 2022/11/19 00:07:51 </svg:title>
  <svg:desc>Picture generated by PCBNEW </svg:desc>
<svg:g style="fill:#000000; fill-opacity:1.000000;stroke:#000000; stroke-opacity:1.000000; stroke-linecap:round; stroke-linejoin:round;" transform="translate(0 0) scale(1 1)">
</svg:g>
<svg:g style="fill:#000000; fill-opacity:0.0;  stroke:#000000; stroke-width:0.000000; stroke-opacity:1;  stroke-linecap:round; stroke-linejoin:round;">
<svg:g>
</svg:g>
<svg:g>
</svg:g>
<svg:g>
</svg:g>
<svg:g>
</svg:g>
</svg:g>
<svg:g style="fill:#000000; fill-opacity:0.0;  stroke:#000000; stroke-width:0.000000; stroke-opacity:1;  stroke-linecap:round; stroke-linejoin:round;">
<svg:g>
</svg:g>
<svg:g>
</svg:g>
<svg:g>
</svg:g>
<svg:g>
</svg:g>
</svg:g> 
</svg:g><svg:g><svg:title>SVG Picture created as kicadBoard-B_Mask.svg date 2022/11/19 00:07:51 </svg:title>
  <svg:desc>Picture generated by PCBNEW </svg:desc>
<svg:g style="fill:#000000; fill-opacity:1.000000;stroke:#000000; stroke-opacity:1.000000; stroke-linecap:round; stroke-linejoin:round;" transform="translate(0 0) scale(1 1)">
</svg:g>
<svg:g style="fill:#000000; fill-opacity:0.0;  stroke:#000000; stroke-width:0.000000; stroke-opacity:1;  stroke-linecap:round; stroke-linejoin:round;">
<svg:g>
</svg:g>
<svg:g>
</svg:g>
<svg:g>
</svg:g>
<svg:g>
</svg:g>
</svg:g>
<svg:g style="fill:#000000; fill-opacity:0.0;  stroke:#000000; stroke-width:0.000000; stroke-opacity:1;  stroke-linecap:round; stroke-linejoin:round;">
<svg:g>
</svg:g>
<svg:g>
</svg:g>
<svg:g>
</svg:g>
<svg:g>
</svg:g>
</svg:g> 
</svg:g><svg:g><svg:title>SVG Picture created as kicadBoard-B_Paste.svg date 2022/11/19 00:07:51 </svg:title>
  <svg:desc>Picture generated by PCBNEW </svg:desc>
<svg:g style="fill:#000000; fill-opacity:1.000000;stroke:#000000; stroke-opacity:1.000000; stroke-linecap:round; stroke-linejoin:round;" transform="translate(0 0) scale(1 1)">
</svg:g>
<svg:g style="fill:#000000; fill-opacity:0.0;  stroke:#000000; stroke-width:0.000000; stroke-opacity:1;  stroke-linecap:round; stroke-linejoin:round;">
<svg:g>
</svg:g>
<svg:g>
</svg:g>
<svg:g>
</svg:g>
<svg:g>
</svg:g>
</svg:g>
<svg:g style="fill:#000000; fill-opacity:0.0;  stroke:#000000; stroke-width:0.000000; stroke-opacity:1;  stroke-linecap:round; stroke-linejoin:round;">
<svg:g>
</svg:g>
<svg:g>
</svg:g>
<svg:g>
</svg:g>
<svg:g>
</svg:g>
</svg:g> 
</svg:g><svg:g><svg:title>SVG Picture created as kicadBoard-B_Silkscreen.svg date 2022/11/19 00:07:51 </svg:title>
  <svg:desc>Picture generated by PCBNEW </svg:desc>
<svg:g style="fill:#000000; fill-opacity:1.000000;stroke:#000000; stroke-opacity:1.000000; stroke-linecap:round; stroke-linejoin:round;" transform="translate(0 0) scale(1 1)">
</svg:g>
<svg:g style="fill:#000000; fill-opacity:0.0;  stroke:#000000; stroke-width:0.000000; stroke-opacity:1;  stroke-linecap:round; stroke-linejoin:round;">
<svg:g>
</svg:g>
<svg:g>
</svg:g>
<svg:g>
</svg:g>
<svg:g>
</svg:g>
</svg:g>
<svg:g style="fill:#000000; fill-opacity:0.0;  stroke:#000000; stroke-width:0.000000; stroke-opacity:1;  stroke-linecap:round; stroke-linejoin:round;">
<svg:g>
</svg:g>
<svg:g>
</svg:g>
<svg:g>
</svg:g>
<svg:g>
</svg:g>
</svg:g> 
</svg:g><svg:g><svg:title>SVG Picture created as kicadBoard-Edge_Cuts.svg date 2022/11/19 00:07:51 </svg:title>
  <svg:desc>Picture generated by PCBNEW </svg:desc>
<svg:g style="fill:#000000; fill-opacity:1.000000;stroke:#000000; stroke-opacity:1.000000; stroke-linecap:round; stroke-linejoin:round;" transform="translate(0 0) scale(1 1)">
</svg:g>
<svg:g style="fill:#000000; fill-opacity:0.0;  stroke:#000000; stroke-width:0.000000; stroke-opacity:1;  stroke-linecap:round; stroke-linejoin:round;">
<svg:g>
</svg:g>
<svg:g>
</svg:g>
<svg:g>
</svg:g>
<svg:g>
</svg:g>
</svg:g> 
</svg:g><svg:g><svg:title>SVG Picture created as kicadBoard-F_Adhesive.svg date 2022/11/19 00:07:51 </svg:title>
  <svg:desc>Picture generated by PCBNEW </svg:desc>
<svg:g style="fill:#000000; fill-opacity:1.000000;stroke:#000000; stroke-opacity:1.000000; stroke-linecap:round; stroke-linejoin:round;" transform="translate(0 0) scale(1 1)">
</svg:g>
<svg:g style="fill:#000000; fill-opacity:0.0;  stroke:#000000; stroke-width:0.000000; stroke-opacity:1;  stroke-linecap:round; stroke-linejoin:round;">
<svg:g>
</svg:g>
<svg:g>
</svg:g>
<svg:g>
</svg:g>
<svg:g>
</svg:g>
</svg:g>
<svg:g style="fill:#000000; fill-opacity:0.0;  stroke:#000000; stroke-width:0.000000; stroke-opacity:1;  stroke-linecap:round; stroke-linejoin:round;">
<svg:g>
</svg:g>
<svg:g>
</svg:g>
<svg:g>
</svg:g>
<svg:g>
</svg:g>
</svg:g> 
</svg:g><svg:g><svg:title>SVG Picture created as kicadBoard-F_Courtyard.svg date 2022/11/19 00:07:51 </svg:title>
  <svg:desc>Picture generated by PCBNEW </svg:desc>
<svg:g style="fill:#000000; fill-opacity:1.000000;stroke:#000000; stroke-opacity:1.000000; stroke-linecap:round; stroke-linejoin:round;" transform="translate(0 0) scale(1 1)">
</svg:g>
<svg:g style="fill:#000000; fill-opacity:0.0;  stroke:#000000; stroke-width:0.000000; stroke-opacity:1;  stroke-linecap:round; stroke-linejoin:round;">
</svg:g>
<svg:g style="fill:#FF26E2; fill-opacity:0.0;  stroke:#FF26E2; stroke-width:0.000000; stroke-opacity:1;  stroke-linecap:round; stroke-linejoin:round;">
</svg:g>
<svg:g style="fill:#FF26E2; fill-opacity:0.0;  stroke:#FF26E2; stroke-width:50000.000000; stroke-opacity:1;  stroke-linecap:round; stroke-linejoin:round;">
<svg:path d="M48180000 48250000 L48180000 51750000 "/>
<svg:path d="M51820000 48250000 L48180000 48250000 "/>
<svg:path d="M51820000 51750000 L51820000 48250000 "/>
<svg:path d="M48180000 51750000 L51820000 51750000 "/>
<svg:g>
</svg:g>
<svg:g>
</svg:g>
<svg:g>
</svg:g>
<svg:g>
</svg:g>
</svg:g>
<svg:g style="fill:#000000; fill-opacity:0.0;  stroke:#000000; stroke-width:50000.000000; stroke-opacity:1;  stroke-linecap:round; stroke-linejoin:round;">
<svg:g>
</svg:g>
<svg:g>
</svg:g>
<svg:g>
</svg:g>
<svg:g>
</svg:g>
</svg:g> 
</svg:g><svg:g><svg:title>SVG Picture created as kicadBoard-F_Cu.svg date 2022/11/19 00:07:51 </svg:title>
  <svg:desc>Picture generated by PCBNEW </svg:desc>
<svg:g style="fill:#000000; fill-opacity:1.000000;stroke:#000000; stroke-opacity:1.000000; stroke-linecap:round; stroke-linejoin:round;" transform="translate(0 0) scale(1 1)">
</svg:g>
<svg:g style="fill:#000000; fill-opacity:0.0;  stroke:#000000; stroke-width:0.000000; stroke-opacity:1;  stroke-linecap:round; stroke-linejoin:round;">
<svg:g>
</svg:g>
<svg:g style="fill:#C83434; fill-opacity:0.0;  stroke:#C83434; stroke-width:0.000000; stroke-opacity:1;  stroke-linecap:round; stroke-linejoin:round;">
</svg:g>
<svg:g style="fill:#C83434; fill-opacity:0.0;  stroke:#C83434; stroke-width:1.000000; stroke-opacity:1;  stroke-linecap:round; stroke-linejoin:round;">
</svg:g>
<svg:g style="fill:#C83434; fill-opacity:1.0;  stroke:#C83434; stroke-width:1.000000; stroke-opacity:1;  stroke-linecap:round; stroke-linejoin:round;">
<svg:path style="fill:#C83434; fill-opacity:1.0;  stroke:#C83434; stroke-width:1.000000; stroke-opacity:1;  stroke-linecap:round; stroke-linejoin:round;fill-rule:evenodd;" d="M 48425000.000000,49162500.000000 48431661.000000,49129015.000000 48450628.000000,49100628.000000 48479015.000000,49081661.000000 48512500.000000,49075000.000000 48912500.000000,49075000.000000 48945985.000000,49081661.000000 48974372.000000,49100628.000000 48993339.000000,49129015.000000 49000000.000000,49162500.000000 49000000.000000,49337500.000000 48993339.000000,49370985.000000 48974372.000000,49399372.000000 48945985.000000,49418339.000000 48912500.000000,49425000.000000 48512500.000000,49425000.000000 48479015.000000,49418339.000000 48450628.000000,49399372.000000 48431661.000000,49370985.000000 48425000.000000,49337500.000000 Z"/> 
<svg:path style="fill:#C83434; fill-opacity:1.0;  stroke:#C83434; stroke-width:1.000000; stroke-opacity:1;  stroke-linecap:round; stroke-linejoin:round;fill-rule:evenodd;" d="M 48425000.000000,49662500.000000 48431661.000000,49629015.000000 48450628.000000,49600628.000000 48479015.000000,49581661.000000 48512500.000000,49575000.000000 48912500.000000,49575000.000000 48945985.000000,49581661.000000 48974372.000000,49600628.000000 48993339.000000,49629015.000000 49000000.000000,49662500.000000 49000000.000000,49837500.000000 48993339.000000,49870985.000000 48974372.000000,49899372.000000 48945985.000000,49918339.000000 48912500.000000,49925000.000000 48512500.000000,49925000.000000 48479015.000000,49918339.000000 48450628.000000,49899372.000000 48431661.000000,49870985.000000 48425000.000000,49837500.000000 Z"/> 
<svg:path style="fill:#C83434; fill-opacity:1.0;  stroke:#C83434; stroke-width:1.000000; stroke-opacity:1;  stroke-linecap:round; stroke-linejoin:round;fill-rule:evenodd;" d="M 48425000.000000,50162500.000000 48431661.000000,50129015.000000 48450628.000000,50100628.000000 48479015.000000,50081661.000000 48512500.000000,50075000.000000 48912500.000000,50075000.000000 48945985.000000,50081661.000000 48974372.000000,50100628.000000 48993339.000000,50129015.000000 49000000.000000,50162500.000000 49000000.000000,50337500.000000 48993339.000000,50370985.000000 48974372.000000,50399372.000000 48945985.000000,50418339.000000 48912500.000000,50425000.000000 48512500.000000,50425000.000000 48479015.000000,50418339.000000 48450628.000000,50399372.000000 48431661.000000,50370985.000000 48425000.000000,50337500.000000 Z"/> 
<svg:path style="fill:#C83434; fill-opacity:1.0;  stroke:#C83434; stroke-width:1.000000; stroke-opacity:1;  stroke-linecap:round; stroke-linejoin:round;fill-rule:evenodd;" d="M 48425000.000000,50662500.000000 48431661.000000,50629015.000000 48450628.000000,50600628.000000 48479015.000000,50581661.000000 48512500.000000,50575000.000000 48912500.000000,50575000.000000 48945985.000000,50581661.000000 48974372.000000,50600628.000000 48993339.000000,50629015.000000 49000000.000000,50662500.000000 49000000.000000,50837500.000000 48993339.000000,50870985.000000 48974372.000000,50899372.000000 48945985.000000,50918339.000000 48912500.000000,50925000.000000 48512500.000000,50925000.000000 48479015.000000,50918339.000000 48450628.000000,50899372.000000 48431661.000000,50870985.000000 48425000.000000,50837500.000000 Z"/> 
<svg:path style="fill:#C83434; fill-opacity:1.0;  stroke:#C83434; stroke-width:1.000000; stroke-opacity:1;  stroke-linecap:round; stroke-linejoin:round;fill-rule:evenodd;" d="M 51000000.000000,50662500.000000 51006661.000000,50629015.000000 51025628.000000,50600628.000000 51054015.000000,50581661.000000 51087500.000000,50575000.000000 51487500.000000,50575000.000000 51520985.000000,50581661.000000 51549372.000000,50600628.000000 51568339.000000,50629015.000000 51575000.000000,50662500.000000 51575000.000000,50837500.000000 51568339.000000,50870985.000000 51549372.000000,50899372.000000 51520985.000000,50918339.000000 51487500.000000,50925000.000000 51087500.000000,50925000.000000 51054015.000000,50918339.000000 51025628.000000,50899372.000000 51006661.000000,50870985.000000 51000000.000000,50837500.000000 Z"/> 
<svg:path style="fill:#C83434; fill-opacity:1.0;  stroke:#C83434; stroke-width:1.000000; stroke-opacity:1;  stroke-linecap:round; stroke-linejoin:round;fill-rule:evenodd;" d="M 51000000.000000,50162500.000000 51006661.000000,50129015.000000 51025628.000000,50100628.000000 51054015.000000,50081661.000000 51087500.000000,50075000.000000 51487500.000000,50075000.000000 51520985.000000,50081661.000000 51549372.000000,50100628.000000 51568339.000000,50129015.000000 51575000.000000,50162500.000000 51575000.000000,50337500.000000 51568339.000000,50370985.000000 51549372.000000,50399372.000000 51520985.000000,50418339.000000 51487500.000000,50425000.000000 51087500.000000,50425000.000000 51054015.000000,50418339.000000 51025628.000000,50399372.000000 51006661.000000,50370985.000000 51000000.000000,50337500.000000 Z"/> 
<svg:path style="fill:#C83434; fill-opacity:1.0;  stroke:#C83434; stroke-width:1.000000; stroke-opacity:1;  stroke-linecap:round; stroke-linejoin:round;fill-rule:evenodd;" d="M 51000000.000000,49662500.000000 51006661.000000,49629015.000000 51025628.000000,49600628.000000 51054015.000000,49581661.000000 51087500.000000,49575000.000000 51487500.000000,49575000.000000 51520985.000000,49581661.000000 51549372.000000,49600628.000000 51568339.000000,49629015.000000 51575000.000000,49662500.000000 51575000.000000,49837500.000000 51568339.000000,49870985.000000 51549372.000000,49899372.000000 51520985.000000,49918339.000000 51487500.000000,49925000.000000 51087500.000000,49925000.000000 51054015.000000,49918339.000000 51025628.000000,49899372.000000 51006661.000000,49870985.000000 51000000.000000,49837500.000000 Z"/> 
<svg:path style="fill:#C83434; fill-opacity:1.0;  stroke:#C83434; stroke-width:1.000000; stroke-opacity:1;  stroke-linecap:round; stroke-linejoin:round;fill-rule:evenodd;" d="M 51000000.000000,49162500.000000 51006661.000000,49129015.000000 51025628.000000,49100628.000000 51054015.000000,49081661.000000 51087500.000000,49075000.000000 51487500.000000,49075000.000000 51520985.000000,49081661.000000 51549372.000000,49100628.000000 51568339.000000,49129015.000000 51575000.000000,49162500.000000 51575000.000000,49337500.000000 51568339.000000,49370985.000000 51549372.000000,49399372.000000 51520985.000000,49418339.000000 51487500.000000,49425000.000000 51087500.000000,49425000.000000 51054015.000000,49418339.000000 51025628.000000,49399372.000000 51006661.000000,49370985.000000 51000000.000000,49337500.000000 Z"/> 
<svg:path style="fill:#C83434; fill-opacity:1.0;  stroke:#C83434; stroke-width:1.000000; stroke-opacity:1;  stroke-linecap:round; stroke-linejoin:round;fill-rule:evenodd;" d="M 49275000.000000,50870000.000000 49275000.000000,49130000.000000 50725000.000000,49130000.000000 50725000.000000,50870000.000000 Z"/> 
</svg:g>
<svg:g>
</svg:g>
<svg:g>
</svg:g>
<svg:g>
</svg:g>
</svg:g>
<svg:g style="fill:#FFFFFF; fill-opacity:1.0;  stroke:#FFFFFF; stroke-width:1.000000; stroke-opacity:1;  stroke-linecap:round; stroke-linejoin:round;">
</svg:g>
<svg:g style="fill:#000000; fill-opacity:1.0;  stroke:#000000; stroke-width:1.000000; stroke-opacity:1;  stroke-linecap:round; stroke-linejoin:round;">
<svg:g>
</svg:g>
<svg:g>
</svg:g>
<svg:g>
</svg:g>
<svg:g>
</svg:g>
</svg:g> 
</svg:g><svg:g><svg:title>SVG Picture created as kicadBoard-F_Fab.svg date 2022/11/19 00:07:51 </svg:title>
  <svg:desc>Picture generated by PCBNEW </svg:desc>
<svg:g style="fill:#000000; fill-opacity:1.000000;stroke:#000000; stroke-opacity:1.000000; stroke-linecap:round; stroke-linejoin:round;" transform="translate(0 0) scale(1 1)">
</svg:g>
<svg:g style="fill:#000000; fill-opacity:0.0;  stroke:#000000; stroke-width:0.000000; stroke-opacity:1;  stroke-linecap:round; stroke-linejoin:round;">
</svg:g>
<svg:g style="fill:#AFAFAF; fill-opacity:0.0;  stroke:#AFAFAF; stroke-width:0.000000; stroke-opacity:1;  stroke-linecap:round; stroke-linejoin:round;">
</svg:g>
<svg:g style="fill:#AFAFAF; fill-opacity:0.0;  stroke:#AFAFAF; stroke-width:150000.000000; stroke-opacity:1;  stroke-linecap:round; stroke-linejoin:round;">
<svg:text x="50000000.000000" y="52950000.000000" textLength="36861667.000000" font-size="1333333.000000" lengthAdjust="spacingAndGlyphs" text-anchor="middle" opacity="0">LFCSP-8-1EP_3x3mm_P0.5mm_EP1.45x1.74mm</svg:text>
<svg:g class="stroked-text"><svg:desc>LFCSP-8-1EP_3x3mm_P0.5mm_EP1.45x1.74mm</svg:desc>
<svg:path d="M32380952 52902380 L31904761 52902380 L31904761 51902380 "/>
<svg:path d="M33047619 52378571 L32714285 52378571 "/>
<svg:path d="M32714285 52902380 L32714285 51902380 L33190476 51902380 "/>
<svg:path d="M34142857 52807142 L34095238 52854761 L33952380 52902380 L33857142 52902380 L33714285 52854761 L33619047 52759523 L33571428 52664285 L33523809 52473809 L33523809 52330952 L33571428 52140476 L33619047 52045238 L33714285 51950000 L33857142 51902380 L33952380 51902380 L34095238 51950000 L34142857 51997619 "/>
<svg:path d="M34523809 52854761 L34666666 52902380 L34904761 52902380 L35000000 52854761 L35047619 52807142 L35095238 52711904 L35095238 52616666 L35047619 52521428 L35000000 52473809 L34904761 52426190 L34714285 52378571 L34619047 52330952 L34571428 52283333 L34523809 52188095 L34523809 52092857 L34571428 51997619 L34619047 51950000 L34714285 51902380 L34952380 51902380 L35095238 51950000 "/>
<svg:path d="M35523809 52902380 L35523809 51902380 L35904761 51902380 L36000000 51950000 L36047619 51997619 L36095238 52092857 L36095238 52235714 L36047619 52330952 L36000000 52378571 L35904761 52426190 L35523809 52426190 "/>
<svg:path d="M36523809 52521428 L37285714 52521428 "/>
<svg:path d="M37904761 52330952 L37809523 52283333 L37761904 52235714 L37714285 52140476 L37714285 52092857 L37761904 51997619 L37809523 51950000 L37904761 51902380 L38095238 51902380 L38190476 51950000 L38238095 51997619 L38285714 52092857 L38285714 52140476 L38238095 52235714 L38190476 52283333 L38095238 52330952 L37904761 52330952 L37809523 52378571 L37761904 52426190 L37714285 52521428 L37714285 52711904 L37761904 52807142 L37809523 52854761 L37904761 52902380 L38095238 52902380 L38190476 52854761 L38238095 52807142 L38285714 52711904 L38285714 52521428 L38238095 52426190 L38190476 52378571 L38095238 52330952 "/>
<svg:path d="M38714285 52521428 L39476190 52521428 "/>
<svg:path d="M40476190 52902380 L39904761 52902380 "/>
<svg:path d="M40190476 52902380 L40190476 51902380 L40095238 52045238 L40000000 52140476 L39904761 52188095 "/>
<svg:path d="M40904761 52378571 L41238095 52378571 "/>
<svg:path d="M41380952 52902380 L40904761 52902380 L40904761 51902380 L41380952 51902380 "/>
<svg:path d="M41809523 52902380 L41809523 51902380 L42190476 51902380 L42285714 51950000 L42333333 51997619 L42380952 52092857 L42380952 52235714 L42333333 52330952 L42285714 52378571 L42190476 52426190 L41809523 52426190 "/>
<svg:path d="M42571428 52997619 L43333333 52997619 "/>
<svg:path d="M43476190 51902380 L44095238 51902380 L43761904 52283333 L43904761 52283333 L44000000 52330952 L44047619 52378571 L44095238 52473809 L44095238 52711904 L44047619 52807142 L44000000 52854761 L43904761 52902380 L43619047 52902380 L43523809 52854761 L43476190 52807142 "/>
<svg:path d="M44428571 52902380 L44952380 52235714 "/>
<svg:path d="M44428571 52235714 L44952380 52902380 "/>
<svg:path d="M45238095 51902380 L45857142 51902380 L45523809 52283333 L45666666 52283333 L45761904 52330952 L45809523 52378571 L45857142 52473809 L45857142 52711904 L45809523 52807142 L45761904 52854761 L45666666 52902380 L45380952 52902380 L45285714 52854761 L45238095 52807142 "/>
<svg:path d="M46285714 52902380 L46285714 52235714 "/>
<svg:path d="M46285714 52330952 L46333333 52283333 L46428571 52235714 L46571428 52235714 L46666666 52283333 L46714285 52378571 L46714285 52902380 "/>
<svg:path d="M46714285 52378571 L46761904 52283333 L46857142 52235714 L47000000 52235714 L47095238 52283333 L47142857 52378571 L47142857 52902380 "/>
<svg:path d="M47619047 52902380 L47619047 52235714 "/>
<svg:path d="M47619047 52330952 L47666666 52283333 L47761904 52235714 L47904761 52235714 L48000000 52283333 L48047619 52378571 L48047619 52902380 "/>
<svg:path d="M48047619 52378571 L48095238 52283333 L48190476 52235714 L48333333 52235714 L48428571 52283333 L48476190 52378571 L48476190 52902380 "/>
<svg:path d="M48714285 52997619 L49476190 52997619 "/>
<svg:path d="M49714285 52902380 L49714285 51902380 L50095238 51902380 L50190476 51950000 L50238095 51997619 L50285714 52092857 L50285714 52235714 L50238095 52330952 L50190476 52378571 L50095238 52426190 L49714285 52426190 "/>
<svg:path d="M50904761 51902380 L51000000 51902380 L51095238 51950000 L51142857 51997619 L51190476 52092857 L51238095 52283333 L51238095 52521428 L51190476 52711904 L51142857 52807142 L51095238 52854761 L51000000 52902380 L50904761 52902380 L50809523 52854761 L50761904 52807142 L50714285 52711904 L50666666 52521428 L50666666 52283333 L50714285 52092857 L50761904 51997619 L50809523 51950000 L50904761 51902380 "/>
<svg:path d="M51666666 52807142 L51714285 52854761 L51666666 52902380 L51619047 52854761 L51666666 52807142 L51666666 52902380 "/>
<svg:path d="M52619047 51902380 L52142857 51902380 L52095238 52378571 L52142857 52330952 L52238095 52283333 L52476190 52283333 L52571428 52330952 L52619047 52378571 L52666666 52473809 L52666666 52711904 L52619047 52807142 L52571428 52854761 L52476190 52902380 L52238095 52902380 L52142857 52854761 L52095238 52807142 "/>
<svg:path d="M53095238 52902380 L53095238 52235714 "/>
<svg:path d="M53095238 52330952 L53142857 52283333 L53238095 52235714 L53380952 52235714 L53476190 52283333 L53523809 52378571 L53523809 52902380 "/>
<svg:path d="M53523809 52378571 L53571428 52283333 L53666666 52235714 L53809523 52235714 L53904761 52283333 L53952380 52378571 L53952380 52902380 "/>
<svg:path d="M54428571 52902380 L54428571 52235714 "/>
<svg:path d="M54428571 52330952 L54476190 52283333 L54571428 52235714 L54714285 52235714 L54809523 52283333 L54857142 52378571 L54857142 52902380 "/>
<svg:path d="M54857142 52378571 L54904761 52283333 L55000000 52235714 L55142857 52235714 L55238095 52283333 L55285714 52378571 L55285714 52902380 "/>
<svg:path d="M55523809 52997619 L56285714 52997619 "/>
<svg:path d="M56523809 52378571 L56857142 52378571 "/>
<svg:path d="M56999999 52902380 L56523809 52902380 L56523809 51902380 L56999999 51902380 "/>
<svg:path d="M57428571 52902380 L57428571 51902380 L57809523 51902380 L57904761 51950000 L57952380 51997619 L57999999 52092857 L57999999 52235714 L57952380 52330952 L57904761 52378571 L57809523 52426190 L57428571 52426190 "/>
<svg:path d="M58952380 52902380 L58380952 52902380 "/>
<svg:path d="M58666666 52902380 L58666666 51902380 L58571428 52045238 L58476190 52140476 L58380952 52188095 "/>
<svg:path d="M59380952 52807142 L59428571 52854761 L59380952 52902380 L59333333 52854761 L59380952 52807142 L59380952 52902380 "/>
<svg:path d="M60285714 52235714 L60285714 52902380 "/>
<svg:path d="M60047619 51854761 L59809523 52569047 L60428571 52569047 "/>
<svg:path d="M61285714 51902380 L60809523 51902380 L60761904 52378571 L60809523 52330952 L60904761 52283333 L61142857 52283333 L61238095 52330952 L61285714 52378571 L61333333 52473809 L61333333 52711904 L61285714 52807142 L61238095 52854761 L61142857 52902380 L60904761 52902380 L60809523 52854761 L60761904 52807142 "/>
<svg:path d="M61666666 52902380 L62190476 52235714 "/>
<svg:path d="M61666666 52235714 L62190476 52902380 "/>
<svg:path d="M63095238 52902380 L62523809 52902380 "/>
<svg:path d="M62809523 52902380 L62809523 51902380 L62714285 52045238 L62619047 52140476 L62523809 52188095 "/>
<svg:path d="M63523809 52807142 L63571428 52854761 L63523809 52902380 L63476190 52854761 L63523809 52807142 L63523809 52902380 "/>
<svg:path d="M63904761 51902380 L64571428 51902380 L64142857 52902380 "/>
<svg:path d="M65380952 52235714 L65380952 52902380 "/>
<svg:path d="M65142857 51854761 L64904761 52569047 L65523809 52569047 "/>
<svg:path d="M65904761 52902380 L65904761 52235714 "/>
<svg:path d="M65904761 52330952 L65952380 52283333 L66047619 52235714 L66190476 52235714 L66285714 52283333 L66333333 52378571 L66333333 52902380 "/>
<svg:path d="M66333333 52378571 L66380952 52283333 L66476190 52235714 L66619047 52235714 L66714285 52283333 L66761904 52378571 L66761904 52902380 "/>
<svg:path d="M67238095 52902380 L67238095 52235714 "/>
<svg:path d="M67238095 52330952 L67285714 52283333 L67380952 52235714 L67523809 52235714 L67619047 52283333 L67666666 52378571 L67666666 52902380 "/>
<svg:path d="M67666666 52378571 L67714285 52283333 L67809523 52235714 L67952380 52235714 L68047619 52283333 L68095238 52378571 L68095238 52902380 "/>
</svg:g></svg:g>
<svg:g style="fill:#AFAFAF; fill-opacity:0.0;  stroke:#AFAFAF; stroke-width:110000.000000; stroke-opacity:1;  stroke-linecap:round; stroke-linejoin:round;">
<svg:text x="50000000.000000" y="50375000.000000" textLength="20873571.000000" font-size="1000000.000000" lengthAdjust="spacingAndGlyphs" text-anchor="middle" opacity="0">FZKCSPLFCSP81EP3X3P5EP145X174</svg:text>
<svg:g class="stroked-text"><svg:desc>FZKCSPLFCSP81EP3X3P5EP145X174</svg:desc>
<svg:path d="M40089285 49946428 L39839285 49946428 "/>
<svg:path d="M39839285 50339285 L39839285 49589285 L40196428 49589285 "/>
<svg:path d="M40410714 49589285 L40910714 49589285 L40410714 50339285 L40910714 50339285 "/>
<svg:path d="M41196428 50339285 L41196428 49589285 "/>
<svg:path d="M41625000 50339285 L41303571 49910714 "/>
<svg:path d="M41625000 49589285 L41196428 50017857 "/>
<svg:path d="M42375000 50267857 L42339285 50303571 L42232142 50339285 L42160714 50339285 L42053571 50303571 L41982142 50232142 L41946428 50160714 L41910714 50017857 L41910714 49910714 L41946428 49767857 L41982142 49696428 L42053571 49625000 L42160714 49589285 L42232142 49589285 L42339285 49625000 L42375000 49660714 "/>
<svg:path d="M42660714 50303571 L42767857 50339285 L42946428 50339285 L43017857 50303571 L43053571 50267857 L43089285 50196428 L43089285 50125000 L43053571 50053571 L43017857 50017857 L42946428 49982142 L42803571 49946428 L42732142 49910714 L42696428 49875000 L42660714 49803571 L42660714 49732142 L42696428 49660714 L42732142 49625000 L42803571 49589285 L42982142 49589285 L43089285 49625000 "/>
<svg:path d="M43410714 50339285 L43410714 49589285 L43696428 49589285 L43767857 49625000 L43803571 49660714 L43839285 49732142 L43839285 49839285 L43803571 49910714 L43767857 49946428 L43696428 49982142 L43410714 49982142 "/>
<svg:path d="M44517857 50339285 L44160714 50339285 L44160714 49589285 "/>
<svg:path d="M45017857 49946428 L44767857 49946428 "/>
<svg:path d="M44767857 50339285 L44767857 49589285 L45125000 49589285 "/>
<svg:path d="M45839285 50267857 L45803571 50303571 L45696428 50339285 L45625000 50339285 L45517857 50303571 L45446428 50232142 L45410714 50160714 L45375000 50017857 L45375000 49910714 L45410714 49767857 L45446428 49696428 L45517857 49625000 L45625000 49589285 L45696428 49589285 L45803571 49625000 L45839285 49660714 "/>
<svg:path d="M46125000 50303571 L46232142 50339285 L46410714 50339285 L46482142 50303571 L46517857 50267857 L46553571 50196428 L46553571 50125000 L46517857 50053571 L46482142 50017857 L46410714 49982142 L46267857 49946428 L46196428 49910714 L46160714 49875000 L46125000 49803571 L46125000 49732142 L46160714 49660714 L46196428 49625000 L46267857 49589285 L46446428 49589285 L46553571 49625000 "/>
<svg:path d="M46875000 50339285 L46875000 49589285 L47160714 49589285 L47232142 49625000 L47267857 49660714 L47303571 49732142 L47303571 49839285 L47267857 49910714 L47232142 49946428 L47160714 49982142 L46875000 49982142 "/>
<svg:path d="M47732142 49910714 L47660714 49875000 L47625000 49839285 L47589285 49767857 L47589285 49732142 L47625000 49660714 L47660714 49625000 L47732142 49589285 L47875000 49589285 L47946428 49625000 L47982142 49660714 L48017857 49732142 L48017857 49767857 L47982142 49839285 L47946428 49875000 L47875000 49910714 L47732142 49910714 L47660714 49946428 L47625000 49982142 L47589285 50053571 L47589285 50196428 L47625000 50267857 L47660714 50303571 L47732142 50339285 L47875000 50339285 L47946428 50303571 L47982142 50267857 L48017857 50196428 L48017857 50053571 L47982142 49982142 L47946428 49946428 L47875000 49910714 "/>
<svg:path d="M48732142 50339285 L48303571 50339285 "/>
<svg:path d="M48517857 50339285 L48517857 49589285 L48446428 49696428 L48375000 49767857 L48303571 49803571 "/>
<svg:path d="M49053571 49946428 L49303571 49946428 "/>
<svg:path d="M49410714 50339285 L49053571 50339285 L49053571 49589285 L49410714 49589285 "/>
<svg:path d="M49732142 50339285 L49732142 49589285 L50017857 49589285 L50089285 49625000 L50125000 49660714 L50160714 49732142 L50160714 49839285 L50125000 49910714 L50089285 49946428 L50017857 49982142 L49732142 49982142 "/>
<svg:path d="M50410714 49589285 L50875000 49589285 L50625000 49875000 L50732142 49875000 L50803571 49910714 L50839285 49946428 L50875000 50017857 L50875000 50196428 L50839285 50267857 L50803571 50303571 L50732142 50339285 L50517857 50339285 L50446428 50303571 L50410714 50267857 "/>
<svg:path d="M51125000 49589285 L51625000 50339285 "/>
<svg:path d="M51625000 49589285 L51125000 50339285 "/>
<svg:path d="M51839285 49589285 L52303571 49589285 L52053571 49875000 L52160714 49875000 L52232142 49910714 L52267857 49946428 L52303571 50017857 L52303571 50196428 L52267857 50267857 L52232142 50303571 L52160714 50339285 L51946428 50339285 L51875000 50303571 L51839285 50267857 "/>
<svg:path d="M52625000 50339285 L52625000 49589285 L52910714 49589285 L52982142 49625000 L53017857 49660714 L53053571 49732142 L53053571 49839285 L53017857 49910714 L52982142 49946428 L52910714 49982142 L52625000 49982142 "/>
<svg:path d="M53732142 49589285 L53375000 49589285 L53339285 49946428 L53375000 49910714 L53446428 49875000 L53625000 49875000 L53696428 49910714 L53732142 49946428 L53767857 50017857 L53767857 50196428 L53732142 50267857 L53696428 50303571 L53625000 50339285 L53446428 50339285 L53375000 50303571 L53339285 50267857 "/>
<svg:path d="M54089285 49946428 L54339285 49946428 "/>
<svg:path d="M54446428 50339285 L54089285 50339285 L54089285 49589285 L54446428 49589285 "/>
<svg:path d="M54767857 50339285 L54767857 49589285 L55053571 49589285 L55125000 49625000 L55160714 49660714 L55196428 49732142 L55196428 49839285 L55160714 49910714 L55125000 49946428 L55053571 49982142 L54767857 49982142 "/>
<svg:path d="M55910714 50339285 L55482142 50339285 "/>
<svg:path d="M55696428 50339285 L55696428 49589285 L55625000 49696428 L55553571 49767857 L55482142 49803571 "/>
<svg:path d="M56553571 49839285 L56553571 50339285 "/>
<svg:path d="M56375000 49553571 L56196428 50089285 L56660714 50089285 "/>
<svg:path d="M57303571 49589285 L56946428 49589285 L56910714 49946428 L56946428 49910714 L57017857 49875000 L57196428 49875000 L57267857 49910714 L57303571 49946428 L57339285 50017857 L57339285 50196428 L57303571 50267857 L57267857 50303571 L57196428 50339285 L57017857 50339285 L56946428 50303571 L56910714 50267857 "/>
<svg:path d="M57589285 49589285 L58089285 50339285 "/>
<svg:path d="M58089285 49589285 L57589285 50339285 "/>
<svg:path d="M58767857 50339285 L58339285 50339285 "/>
<svg:path d="M58553571 50339285 L58553571 49589285 L58482142 49696428 L58410714 49767857 L58339285 49803571 "/>
<svg:path d="M59017857 49589285 L59517857 49589285 L59196428 50339285 "/>
<svg:path d="M60124999 49839285 L60124999 50339285 "/>
<svg:path d="M59946428 49553571 L59767857 50089285 L60232142 50089285 "/>
</svg:g></svg:g>
<svg:g style="fill:#AFAFAF; fill-opacity:0.0;  stroke:#AFAFAF; stroke-width:100000.000000; stroke-opacity:1;  stroke-linecap:round; stroke-linejoin:round;">
<svg:path d="M51500000 51500000 L48500000 51500000 "/>
<svg:path d="M48500000 51500000 L48500000 49250000 "/>
<svg:path d="M51500000 48500000 L51500000 51500000 "/>
<svg:path d="M49250000 48500000 L51500000 48500000 "/>
<svg:path d="M48500000 49250000 L49250000 48500000 "/>
<svg:g>
</svg:g>
<svg:g>
</svg:g>
<svg:g>
</svg:g>
<svg:g>
</svg:g>
</svg:g>
<svg:g style="fill:#000000; fill-opacity:0.0;  stroke:#000000; stroke-width:100000.000000; stroke-opacity:1;  stroke-linecap:round; stroke-linejoin:round;">
<svg:g>
</svg:g>
<svg:g>
</svg:g>
<svg:g>
</svg:g>
<svg:g>
</svg:g>
</svg:g> 
</svg:g><svg:g><svg:title>SVG Picture created as kicadBoard-F_Mask.svg date 2022/11/19 00:07:51 </svg:title>
  <svg:desc>Picture generated by PCBNEW </svg:desc>
<svg:g style="fill:#000000; fill-opacity:1.000000;stroke:#000000; stroke-opacity:1.000000; stroke-linecap:round; stroke-linejoin:round;" transform="translate(0 0) scale(1 1)">
</svg:g>
<svg:g style="fill:#000000; fill-opacity:0.0;  stroke:#000000; stroke-width:0.000000; stroke-opacity:1;  stroke-linecap:round; stroke-linejoin:round;">
<svg:g>
</svg:g>
<svg:g style="fill:#000000; fill-opacity:0.0;  stroke:#000000; stroke-width:1.000000; stroke-opacity:1;  stroke-linecap:round; stroke-linejoin:round;">
</svg:g>
<svg:g style="fill:#000000; fill-opacity:1.0;  stroke:#000000; stroke-width:1.000000; stroke-opacity:1;  stroke-linecap:round; stroke-linejoin:round;">
<svg:path style="fill:#000000; fill-opacity:1.0;  stroke:#000000; stroke-width:1.000000; stroke-opacity:1;  stroke-linecap:round; stroke-linejoin:round;fill-rule:evenodd;" d="M 48425000.000000,49162500.000000 48431661.000000,49129015.000000 48450628.000000,49100628.000000 48479015.000000,49081661.000000 48512500.000000,49075000.000000 48912500.000000,49075000.000000 48945985.000000,49081661.000000 48974372.000000,49100628.000000 48993339.000000,49129015.000000 49000000.000000,49162500.000000 49000000.000000,49337500.000000 48993339.000000,49370985.000000 48974372.000000,49399372.000000 48945985.000000,49418339.000000 48912500.000000,49425000.000000 48512500.000000,49425000.000000 48479015.000000,49418339.000000 48450628.000000,49399372.000000 48431661.000000,49370985.000000 48425000.000000,49337500.000000 Z"/> 
<svg:path style="fill:#000000; fill-opacity:1.0;  stroke:#000000; stroke-width:1.000000; stroke-opacity:1;  stroke-linecap:round; stroke-linejoin:round;fill-rule:evenodd;" d="M 48425000.000000,49662500.000000 48431661.000000,49629015.000000 48450628.000000,49600628.000000 48479015.000000,49581661.000000 48512500.000000,49575000.000000 48912500.000000,49575000.000000 48945985.000000,49581661.000000 48974372.000000,49600628.000000 48993339.000000,49629015.000000 49000000.000000,49662500.000000 49000000.000000,49837500.000000 48993339.000000,49870985.000000 48974372.000000,49899372.000000 48945985.000000,49918339.000000 48912500.000000,49925000.000000 48512500.000000,49925000.000000 48479015.000000,49918339.000000 48450628.000000,49899372.000000 48431661.000000,49870985.000000 48425000.000000,49837500.000000 Z"/> 
<svg:path style="fill:#000000; fill-opacity:1.0;  stroke:#000000; stroke-width:1.000000; stroke-opacity:1;  stroke-linecap:round; stroke-linejoin:round;fill-rule:evenodd;" d="M 48425000.000000,50162500.000000 48431661.000000,50129015.000000 48450628.000000,50100628.000000 48479015.000000,50081661.000000 48512500.000000,50075000.000000 48912500.000000,50075000.000000 48945985.000000,50081661.000000 48974372.000000,50100628.000000 48993339.000000,50129015.000000 49000000.000000,50162500.000000 49000000.000000,50337500.000000 48993339.000000,50370985.000000 48974372.000000,50399372.000000 48945985.000000,50418339.000000 48912500.000000,50425000.000000 48512500.000000,50425000.000000 48479015.000000,50418339.000000 48450628.000000,50399372.000000 48431661.000000,50370985.000000 48425000.000000,50337500.000000 Z"/> 
<svg:path style="fill:#000000; fill-opacity:1.0;  stroke:#000000; stroke-width:1.000000; stroke-opacity:1;  stroke-linecap:round; stroke-linejoin:round;fill-rule:evenodd;" d="M 48425000.000000,50662500.000000 48431661.000000,50629015.000000 48450628.000000,50600628.000000 48479015.000000,50581661.000000 48512500.000000,50575000.000000 48912500.000000,50575000.000000 48945985.000000,50581661.000000 48974372.000000,50600628.000000 48993339.000000,50629015.000000 49000000.000000,50662500.000000 49000000.000000,50837500.000000 48993339.000000,50870985.000000 48974372.000000,50899372.000000 48945985.000000,50918339.000000 48912500.000000,50925000.000000 48512500.000000,50925000.000000 48479015.000000,50918339.000000 48450628.000000,50899372.000000 48431661.000000,50870985.000000 48425000.000000,50837500.000000 Z"/> 
<svg:path style="fill:#000000; fill-opacity:1.0;  stroke:#000000; stroke-width:1.000000; stroke-opacity:1;  stroke-linecap:round; stroke-linejoin:round;fill-rule:evenodd;" d="M 51000000.000000,50662500.000000 51006661.000000,50629015.000000 51025628.000000,50600628.000000 51054015.000000,50581661.000000 51087500.000000,50575000.000000 51487500.000000,50575000.000000 51520985.000000,50581661.000000 51549372.000000,50600628.000000 51568339.000000,50629015.000000 51575000.000000,50662500.000000 51575000.000000,50837500.000000 51568339.000000,50870985.000000 51549372.000000,50899372.000000 51520985.000000,50918339.000000 51487500.000000,50925000.000000 51087500.000000,50925000.000000 51054015.000000,50918339.000000 51025628.000000,50899372.000000 51006661.000000,50870985.000000 51000000.000000,50837500.000000 Z"/> 
<svg:path style="fill:#000000; fill-opacity:1.0;  stroke:#000000; stroke-width:1.000000; stroke-opacity:1;  stroke-linecap:round; stroke-linejoin:round;fill-rule:evenodd;" d="M 51000000.000000,50162500.000000 51006661.000000,50129015.000000 51025628.000000,50100628.000000 51054015.000000,50081661.000000 51087500.000000,50075000.000000 51487500.000000,50075000.000000 51520985.000000,50081661.000000 51549372.000000,50100628.000000 51568339.000000,50129015.000000 51575000.000000,50162500.000000 51575000.000000,50337500.000000 51568339.000000,50370985.000000 51549372.000000,50399372.000000 51520985.000000,50418339.000000 51487500.000000,50425000.000000 51087500.000000,50425000.000000 51054015.000000,50418339.000000 51025628.000000,50399372.000000 51006661.000000,50370985.000000 51000000.000000,50337500.000000 Z"/> 
<svg:path style="fill:#000000; fill-opacity:1.0;  stroke:#000000; stroke-width:1.000000; stroke-opacity:1;  stroke-linecap:round; stroke-linejoin:round;fill-rule:evenodd;" d="M 51000000.000000,49662500.000000 51006661.000000,49629015.000000 51025628.000000,49600628.000000 51054015.000000,49581661.000000 51087500.000000,49575000.000000 51487500.000000,49575000.000000 51520985.000000,49581661.000000 51549372.000000,49600628.000000 51568339.000000,49629015.000000 51575000.000000,49662500.000000 51575000.000000,49837500.000000 51568339.000000,49870985.000000 51549372.000000,49899372.000000 51520985.000000,49918339.000000 51487500.000000,49925000.000000 51087500.000000,49925000.000000 51054015.000000,49918339.000000 51025628.000000,49899372.000000 51006661.000000,49870985.000000 51000000.000000,49837500.000000 Z"/> 
<svg:path style="fill:#000000; fill-opacity:1.0;  stroke:#000000; stroke-width:1.000000; stroke-opacity:1;  stroke-linecap:round; stroke-linejoin:round;fill-rule:evenodd;" d="M 51000000.000000,49162500.000000 51006661.000000,49129015.000000 51025628.000000,49100628.000000 51054015.000000,49081661.000000 51087500.000000,49075000.000000 51487500.000000,49075000.000000 51520985.000000,49081661.000000 51549372.000000,49100628.000000 51568339.000000,49129015.000000 51575000.000000,49162500.000000 51575000.000000,49337500.000000 51568339.000000,49370985.000000 51549372.000000,49399372.000000 51520985.000000,49418339.000000 51487500.000000,49425000.000000 51087500.000000,49425000.000000 51054015.000000,49418339.000000 51025628.000000,49399372.000000 51006661.000000,49370985.000000 51000000.000000,49337500.000000 Z"/> 
<svg:path style="fill:#000000; fill-opacity:1.0;  stroke:#000000; stroke-width:1.000000; stroke-opacity:1;  stroke-linecap:round; stroke-linejoin:round;fill-rule:evenodd;" d="M 49275000.000000,50870000.000000 49275000.000000,49130000.000000 50725000.000000,49130000.000000 50725000.000000,50870000.000000 Z"/> 
</svg:g>
<svg:g>
</svg:g>
<svg:g>
</svg:g>
<svg:g>
</svg:g>
</svg:g>
<svg:g style="fill:#000000; fill-opacity:1.0;  stroke:#000000; stroke-width:1.000000; stroke-opacity:1;  stroke-linecap:round; stroke-linejoin:round;">
<svg:g>
</svg:g>
<svg:g>
</svg:g>
<svg:g>
</svg:g>
<svg:g>
</svg:g>
</svg:g> 
</svg:g><svg:g><svg:title>SVG Picture created as kicadBoard-F_Paste.svg date 2022/11/19 00:07:51 </svg:title>
  <svg:desc>Picture generated by PCBNEW </svg:desc>
<svg:g style="fill:#000000; fill-opacity:1.000000;stroke:#000000; stroke-opacity:1.000000; stroke-linecap:round; stroke-linejoin:round;" transform="translate(0 0) scale(1 1)">
</svg:g>
<svg:g style="fill:#000000; fill-opacity:0.0;  stroke:#000000; stroke-width:0.000000; stroke-opacity:1;  stroke-linecap:round; stroke-linejoin:round;">
<svg:g>
</svg:g>
<svg:g style="fill:#000000; fill-opacity:0.0;  stroke:#000000; stroke-width:1.000000; stroke-opacity:1;  stroke-linecap:round; stroke-linejoin:round;">
</svg:g>
<svg:g style="fill:#000000; fill-opacity:1.0;  stroke:#000000; stroke-width:1.000000; stroke-opacity:1;  stroke-linecap:round; stroke-linejoin:round;">
<svg:path style="fill:#000000; fill-opacity:1.0;  stroke:#000000; stroke-width:1.000000; stroke-opacity:1;  stroke-linecap:round; stroke-linejoin:round;fill-rule:evenodd;" d="M 50075000.000000,50230000.000000 50086037.000000,50174511.000000 50117470.000000,50127470.000000 50164511.000000,50096037.000000 50220000.000000,50085000.000000 50510000.000000,50085000.000000 50565489.000000,50096037.000000 50612530.000000,50127470.000000 50643963.000000,50174511.000000 50655000.000000,50230000.000000 50655000.000000,50640000.000000 50643963.000000,50695489.000000 50612530.000000,50742530.000000 50565489.000000,50773963.000000 50510000.000000,50785000.000000 50220000.000000,50785000.000000 50164511.000000,50773963.000000 50117470.000000,50742530.000000 50086037.000000,50695489.000000 50075000.000000,50640000.000000 Z"/> 
<svg:path style="fill:#000000; fill-opacity:1.0;  stroke:#000000; stroke-width:1.000000; stroke-opacity:1;  stroke-linecap:round; stroke-linejoin:round;fill-rule:evenodd;" d="M 49345000.000000,50230000.000000 49356037.000000,50174511.000000 49387470.000000,50127470.000000 49434511.000000,50096037.000000 49490000.000000,50085000.000000 49780000.000000,50085000.000000 49835489.000000,50096037.000000 49882530.000000,50127470.000000 49913963.000000,50174511.000000 49925000.000000,50230000.000000 49925000.000000,50640000.000000 49913963.000000,50695489.000000 49882530.000000,50742530.000000 49835489.000000,50773963.000000 49780000.000000,50785000.000000 49490000.000000,50785000.000000 49434511.000000,50773963.000000 49387470.000000,50742530.000000 49356037.000000,50695489.000000 49345000.000000,50640000.000000 Z"/> 
<svg:path style="fill:#000000; fill-opacity:1.0;  stroke:#000000; stroke-width:1.000000; stroke-opacity:1;  stroke-linecap:round; stroke-linejoin:round;fill-rule:evenodd;" d="M 49345000.000000,49360000.000000 49356037.000000,49304511.000000 49387470.000000,49257470.000000 49434511.000000,49226037.000000 49490000.000000,49215000.000000 49780000.000000,49215000.000000 49835489.000000,49226037.000000 49882530.000000,49257470.000000 49913963.000000,49304511.000000 49925000.000000,49360000.000000 49925000.000000,49770000.000000 49913963.000000,49825489.000000 49882530.000000,49872530.000000 49835489.000000,49903963.000000 49780000.000000,49915000.000000 49490000.000000,49915000.000000 49434511.000000,49903963.000000 49387470.000000,49872530.000000 49356037.000000,49825489.000000 49345000.000000,49770000.000000 Z"/> 
<svg:path style="fill:#000000; fill-opacity:1.0;  stroke:#000000; stroke-width:1.000000; stroke-opacity:1;  stroke-linecap:round; stroke-linejoin:round;fill-rule:evenodd;" d="M 50075000.000000,49360000.000000 50086037.000000,49304511.000000 50117470.000000,49257470.000000 50164511.000000,49226037.000000 50220000.000000,49215000.000000 50510000.000000,49215000.000000 50565489.000000,49226037.000000 50612530.000000,49257470.000000 50643963.000000,49304511.000000 50655000.000000,49360000.000000 50655000.000000,49770000.000000 50643963.000000,49825489.000000 50612530.000000,49872530.000000 50565489.000000,49903963.000000 50510000.000000,49915000.000000 50220000.000000,49915000.000000 50164511.000000,49903963.000000 50117470.000000,49872530.000000 50086037.000000,49825489.000000 50075000.000000,49770000.000000 Z"/> 
<svg:path style="fill:#000000; fill-opacity:1.0;  stroke:#000000; stroke-width:1.000000; stroke-opacity:1;  stroke-linecap:round; stroke-linejoin:round;fill-rule:evenodd;" d="M 48425000.000000,49162500.000000 48431661.000000,49129015.000000 48450628.000000,49100628.000000 48479015.000000,49081661.000000 48512500.000000,49075000.000000 48912500.000000,49075000.000000 48945985.000000,49081661.000000 48974372.000000,49100628.000000 48993339.000000,49129015.000000 49000000.000000,49162500.000000 49000000.000000,49337500.000000 48993339.000000,49370985.000000 48974372.000000,49399372.000000 48945985.000000,49418339.000000 48912500.000000,49425000.000000 48512500.000000,49425000.000000 48479015.000000,49418339.000000 48450628.000000,49399372.000000 48431661.000000,49370985.000000 48425000.000000,49337500.000000 Z"/> 
<svg:path style="fill:#000000; fill-opacity:1.0;  stroke:#000000; stroke-width:1.000000; stroke-opacity:1;  stroke-linecap:round; stroke-linejoin:round;fill-rule:evenodd;" d="M 48425000.000000,49662500.000000 48431661.000000,49629015.000000 48450628.000000,49600628.000000 48479015.000000,49581661.000000 48512500.000000,49575000.000000 48912500.000000,49575000.000000 48945985.000000,49581661.000000 48974372.000000,49600628.000000 48993339.000000,49629015.000000 49000000.000000,49662500.000000 49000000.000000,49837500.000000 48993339.000000,49870985.000000 48974372.000000,49899372.000000 48945985.000000,49918339.000000 48912500.000000,49925000.000000 48512500.000000,49925000.000000 48479015.000000,49918339.000000 48450628.000000,49899372.000000 48431661.000000,49870985.000000 48425000.000000,49837500.000000 Z"/> 
<svg:path style="fill:#000000; fill-opacity:1.0;  stroke:#000000; stroke-width:1.000000; stroke-opacity:1;  stroke-linecap:round; stroke-linejoin:round;fill-rule:evenodd;" d="M 48425000.000000,50162500.000000 48431661.000000,50129015.000000 48450628.000000,50100628.000000 48479015.000000,50081661.000000 48512500.000000,50075000.000000 48912500.000000,50075000.000000 48945985.000000,50081661.000000 48974372.000000,50100628.000000 48993339.000000,50129015.000000 49000000.000000,50162500.000000 49000000.000000,50337500.000000 48993339.000000,50370985.000000 48974372.000000,50399372.000000 48945985.000000,50418339.000000 48912500.000000,50425000.000000 48512500.000000,50425000.000000 48479015.000000,50418339.000000 48450628.000000,50399372.000000 48431661.000000,50370985.000000 48425000.000000,50337500.000000 Z"/> 
<svg:path style="fill:#000000; fill-opacity:1.0;  stroke:#000000; stroke-width:1.000000; stroke-opacity:1;  stroke-linecap:round; stroke-linejoin:round;fill-rule:evenodd;" d="M 48425000.000000,50662500.000000 48431661.000000,50629015.000000 48450628.000000,50600628.000000 48479015.000000,50581661.000000 48512500.000000,50575000.000000 48912500.000000,50575000.000000 48945985.000000,50581661.000000 48974372.000000,50600628.000000 48993339.000000,50629015.000000 49000000.000000,50662500.000000 49000000.000000,50837500.000000 48993339.000000,50870985.000000 48974372.000000,50899372.000000 48945985.000000,50918339.000000 48912500.000000,50925000.000000 48512500.000000,50925000.000000 48479015.000000,50918339.000000 48450628.000000,50899372.000000 48431661.000000,50870985.000000 48425000.000000,50837500.000000 Z"/> 
<svg:path style="fill:#000000; fill-opacity:1.0;  stroke:#000000; stroke-width:1.000000; stroke-opacity:1;  stroke-linecap:round; stroke-linejoin:round;fill-rule:evenodd;" d="M 51000000.000000,50662500.000000 51006661.000000,50629015.000000 51025628.000000,50600628.000000 51054015.000000,50581661.000000 51087500.000000,50575000.000000 51487500.000000,50575000.000000 51520985.000000,50581661.000000 51549372.000000,50600628.000000 51568339.000000,50629015.000000 51575000.000000,50662500.000000 51575000.000000,50837500.000000 51568339.000000,50870985.000000 51549372.000000,50899372.000000 51520985.000000,50918339.000000 51487500.000000,50925000.000000 51087500.000000,50925000.000000 51054015.000000,50918339.000000 51025628.000000,50899372.000000 51006661.000000,50870985.000000 51000000.000000,50837500.000000 Z"/> 
<svg:path style="fill:#000000; fill-opacity:1.0;  stroke:#000000; stroke-width:1.000000; stroke-opacity:1;  stroke-linecap:round; stroke-linejoin:round;fill-rule:evenodd;" d="M 51000000.000000,50162500.000000 51006661.000000,50129015.000000 51025628.000000,50100628.000000 51054015.000000,50081661.000000 51087500.000000,50075000.000000 51487500.000000,50075000.000000 51520985.000000,50081661.000000 51549372.000000,50100628.000000 51568339.000000,50129015.000000 51575000.000000,50162500.000000 51575000.000000,50337500.000000 51568339.000000,50370985.000000 51549372.000000,50399372.000000 51520985.000000,50418339.000000 51487500.000000,50425000.000000 51087500.000000,50425000.000000 51054015.000000,50418339.000000 51025628.000000,50399372.000000 51006661.000000,50370985.000000 51000000.000000,50337500.000000 Z"/> 
<svg:path style="fill:#000000; fill-opacity:1.0;  stroke:#000000; stroke-width:1.000000; stroke-opacity:1;  stroke-linecap:round; stroke-linejoin:round;fill-rule:evenodd;" d="M 51000000.000000,49662500.000000 51006661.000000,49629015.000000 51025628.000000,49600628.000000 51054015.000000,49581661.000000 51087500.000000,49575000.000000 51487500.000000,49575000.000000 51520985.000000,49581661.000000 51549372.000000,49600628.000000 51568339.000000,49629015.000000 51575000.000000,49662500.000000 51575000.000000,49837500.000000 51568339.000000,49870985.000000 51549372.000000,49899372.000000 51520985.000000,49918339.000000 51487500.000000,49925000.000000 51087500.000000,49925000.000000 51054015.000000,49918339.000000 51025628.000000,49899372.000000 51006661.000000,49870985.000000 51000000.000000,49837500.000000 Z"/> 
<svg:path style="fill:#000000; fill-opacity:1.0;  stroke:#000000; stroke-width:1.000000; stroke-opacity:1;  stroke-linecap:round; stroke-linejoin:round;fill-rule:evenodd;" d="M 51000000.000000,49162500.000000 51006661.000000,49129015.000000 51025628.000000,49100628.000000 51054015.000000,49081661.000000 51087500.000000,49075000.000000 51487500.000000,49075000.000000 51520985.000000,49081661.000000 51549372.000000,49100628.000000 51568339.000000,49129015.000000 51575000.000000,49162500.000000 51575000.000000,49337500.000000 51568339.000000,49370985.000000 51549372.000000,49399372.000000 51520985.000000,49418339.000000 51487500.000000,49425000.000000 51087500.000000,49425000.000000 51054015.000000,49418339.000000 51025628.000000,49399372.000000 51006661.000000,49370985.000000 51000000.000000,49337500.000000 Z"/> 
</svg:g>
<svg:g>
</svg:g>
<svg:g>
</svg:g>
<svg:g>
</svg:g>
</svg:g>
<svg:g style="fill:#000000; fill-opacity:1.0;  stroke:#000000; stroke-width:1.000000; stroke-opacity:1;  stroke-linecap:round; stroke-linejoin:round;">
<svg:g>
</svg:g>
<svg:g>
</svg:g>
<svg:g>
</svg:g>
<svg:g>
</svg:g>
</svg:g> 
</svg:g><svg:g><svg:title>SVG Picture created as kicadBoard-F_Silkscreen.svg date 2022/11/19 00:07:51 </svg:title>
  <svg:desc>Picture generated by PCBNEW </svg:desc>
<svg:g style="fill:#000000; fill-opacity:1.000000;stroke:#000000; stroke-opacity:1.000000; stroke-linecap:round; stroke-linejoin:round;" transform="translate(0 0) scale(1 1)">
</svg:g>
<svg:g style="fill:#000000; fill-opacity:0.0;  stroke:#000000; stroke-width:0.000000; stroke-opacity:1;  stroke-linecap:round; stroke-linejoin:round;">
</svg:g>
<svg:g style="fill:#F2EDA1; fill-opacity:0.0;  stroke:#F2EDA1; stroke-width:0.000000; stroke-opacity:1;  stroke-linecap:round; stroke-linejoin:round;">
</svg:g>
<svg:g style="fill:#F2EDA1; fill-opacity:0.0;  stroke:#F2EDA1; stroke-width:150000.000000; stroke-opacity:1;  stroke-linecap:round; stroke-linejoin:round;">
<svg:text x="50000000.000000" y="48050000.000000" textLength="27571430.000000" font-size="1333333.000000" lengthAdjust="spacingAndGlyphs" text-anchor="middle" opacity="0">FZKCSPLFCSP81EP3X3P5EP145X174</svg:text>
<svg:g class="stroked-text"><svg:desc>FZKCSPLFCSP81EP3X3P5EP145X174</svg:desc>
<svg:path d="M36785714 47478571 L36452380 47478571 "/>
<svg:path d="M36452380 48002380 L36452380 47002380 L36928571 47002380 "/>
<svg:path d="M37214285 47002380 L37880952 47002380 L37214285 48002380 L37880952 48002380 "/>
<svg:path d="M38261904 48002380 L38261904 47002380 "/>
<svg:path d="M38833333 48002380 L38404761 47430952 "/>
<svg:path d="M38833333 47002380 L38261904 47573809 "/>
<svg:path d="M39833333 47907142 L39785714 47954761 L39642857 48002380 L39547619 48002380 L39404761 47954761 L39309523 47859523 L39261904 47764285 L39214285 47573809 L39214285 47430952 L39261904 47240476 L39309523 47145238 L39404761 47050000 L39547619 47002380 L39642857 47002380 L39785714 47050000 L39833333 47097619 "/>
<svg:path d="M40214285 47954761 L40357142 48002380 L40595238 48002380 L40690476 47954761 L40738095 47907142 L40785714 47811904 L40785714 47716666 L40738095 47621428 L40690476 47573809 L40595238 47526190 L40404761 47478571 L40309523 47430952 L40261904 47383333 L40214285 47288095 L40214285 47192857 L40261904 47097619 L40309523 47050000 L40404761 47002380 L40642857 47002380 L40785714 47050000 "/>
<svg:path d="M41214285 48002380 L41214285 47002380 L41595238 47002380 L41690476 47050000 L41738095 47097619 L41785714 47192857 L41785714 47335714 L41738095 47430952 L41690476 47478571 L41595238 47526190 L41214285 47526190 "/>
<svg:path d="M42690476 48002380 L42214285 48002380 L42214285 47002380 "/>
<svg:path d="M43357142 47478571 L43023809 47478571 "/>
<svg:path d="M43023809 48002380 L43023809 47002380 L43500000 47002380 "/>
<svg:path d="M44452380 47907142 L44404761 47954761 L44261904 48002380 L44166666 48002380 L44023809 47954761 L43928571 47859523 L43880952 47764285 L43833333 47573809 L43833333 47430952 L43880952 47240476 L43928571 47145238 L44023809 47050000 L44166666 47002380 L44261904 47002380 L44404761 47050000 L44452380 47097619 "/>
<svg:path d="M44833333 47954761 L44976190 48002380 L45214285 48002380 L45309523 47954761 L45357142 47907142 L45404761 47811904 L45404761 47716666 L45357142 47621428 L45309523 47573809 L45214285 47526190 L45023809 47478571 L44928571 47430952 L44880952 47383333 L44833333 47288095 L44833333 47192857 L44880952 47097619 L44928571 47050000 L45023809 47002380 L45261904 47002380 L45404761 47050000 "/>
<svg:path d="M45833333 48002380 L45833333 47002380 L46214285 47002380 L46309523 47050000 L46357142 47097619 L46404761 47192857 L46404761 47335714 L46357142 47430952 L46309523 47478571 L46214285 47526190 L45833333 47526190 "/>
<svg:path d="M46976190 47430952 L46880952 47383333 L46833333 47335714 L46785714 47240476 L46785714 47192857 L46833333 47097619 L46880952 47050000 L46976190 47002380 L47166666 47002380 L47261904 47050000 L47309523 47097619 L47357142 47192857 L47357142 47240476 L47309523 47335714 L47261904 47383333 L47166666 47430952 L46976190 47430952 L46880952 47478571 L46833333 47526190 L46785714 47621428 L46785714 47811904 L46833333 47907142 L46880952 47954761 L46976190 48002380 L47166666 48002380 L47261904 47954761 L47309523 47907142 L47357142 47811904 L47357142 47621428 L47309523 47526190 L47261904 47478571 L47166666 47430952 "/>
<svg:path d="M48309523 48002380 L47738095 48002380 "/>
<svg:path d="M48023809 48002380 L48023809 47002380 L47928571 47145238 L47833333 47240476 L47738095 47288095 "/>
<svg:path d="M48738095 47478571 L49071428 47478571 "/>
<svg:path d="M49214285 48002380 L48738095 48002380 L48738095 47002380 L49214285 47002380 "/>
<svg:path d="M49642857 48002380 L49642857 47002380 L50023809 47002380 L50119047 47050000 L50166666 47097619 L50214285 47192857 L50214285 47335714 L50166666 47430952 L50119047 47478571 L50023809 47526190 L49642857 47526190 "/>
<svg:path d="M50547619 47002380 L51166666 47002380 L50833333 47383333 L50976190 47383333 L51071428 47430952 L51119047 47478571 L51166666 47573809 L51166666 47811904 L51119047 47907142 L51071428 47954761 L50976190 48002380 L50690476 48002380 L50595238 47954761 L50547619 47907142 "/>
<svg:path d="M51500000 47002380 L52166666 48002380 "/>
<svg:path d="M52166666 47002380 L51500000 48002380 "/>
<svg:path d="M52452380 47002380 L53071428 47002380 L52738095 47383333 L52880952 47383333 L52976190 47430952 L53023809 47478571 L53071428 47573809 L53071428 47811904 L53023809 47907142 L52976190 47954761 L52880952 48002380 L52595238 48002380 L52500000 47954761 L52452380 47907142 "/>
<svg:path d="M53500000 48002380 L53500000 47002380 L53880952 47002380 L53976190 47050000 L54023809 47097619 L54071428 47192857 L54071428 47335714 L54023809 47430952 L53976190 47478571 L53880952 47526190 L53500000 47526190 "/>
<svg:path d="M54976190 47002380 L54500000 47002380 L54452380 47478571 L54500000 47430952 L54595238 47383333 L54833333 47383333 L54928571 47430952 L54976190 47478571 L55023809 47573809 L55023809 47811904 L54976190 47907142 L54928571 47954761 L54833333 48002380 L54595238 48002380 L54500000 47954761 L54452380 47907142 "/>
<svg:path d="M55452380 47478571 L55785714 47478571 "/>
<svg:path d="M55928571 48002380 L55452380 48002380 L55452380 47002380 L55928571 47002380 "/>
<svg:path d="M56357142 48002380 L56357142 47002380 L56738095 47002380 L56833333 47050000 L56880952 47097619 L56928571 47192857 L56928571 47335714 L56880952 47430952 L56833333 47478571 L56738095 47526190 L56357142 47526190 "/>
<svg:path d="M57880952 48002380 L57309523 48002380 "/>
<svg:path d="M57595238 48002380 L57595238 47002380 L57500000 47145238 L57404761 47240476 L57309523 47288095 "/>
<svg:path d="M58738095 47335714 L58738095 48002380 "/>
<svg:path d="M58500000 46954761 L58261904 47669047 L58880952 47669047 "/>
<svg:path d="M59738095 47002380 L59261904 47002380 L59214285 47478571 L59261904 47430952 L59357142 47383333 L59595238 47383333 L59690476 47430952 L59738095 47478571 L59785714 47573809 L59785714 47811904 L59738095 47907142 L59690476 47954761 L59595238 48002380 L59357142 48002380 L59261904 47954761 L59214285 47907142 "/>
<svg:path d="M60119047 47002380 L60785714 48002380 "/>
<svg:path d="M60785714 47002380 L60119047 48002380 "/>
<svg:path d="M61690476 48002380 L61119047 48002380 "/>
<svg:path d="M61404761 48002380 L61404761 47002380 L61309523 47145238 L61214285 47240476 L61119047 47288095 "/>
<svg:path d="M62023809 47002380 L62690476 47002380 L62261904 48002380 "/>
<svg:path d="M63499999 47335714 L63499999 48002380 "/>
<svg:path d="M63261904 46954761 L63023809 47669047 L63642857 47669047 "/>
</svg:g></svg:g>
<svg:g style="fill:#F2EDA1; fill-opacity:0.0;  stroke:#F2EDA1; stroke-width:120000.000000; stroke-opacity:1;  stroke-linecap:round; stroke-linejoin:round;">
<svg:path d="M48500000 51610000 L51500000 51610000 "/>
<svg:path d="M50000000 48390000 L51500000 48390000 "/>
<svg:g>
</svg:g>
<svg:g>
</svg:g>
<svg:g>
</svg:g>
<svg:g>
</svg:g>
</svg:g>
<svg:g style="fill:#000000; fill-opacity:0.0;  stroke:#000000; stroke-width:120000.000000; stroke-opacity:1;  stroke-linecap:round; stroke-linejoin:round;">
<svg:g>
</svg:g>
<svg:g>
</svg:g>
<svg:g>
</svg:g>
<svg:g>
</svg:g>
</svg:g> 
</svg:g><svg:g><svg:title>SVG Picture created as kicadBoard-Margin.svg date 2022/11/19 00:07:51 </svg:title>
  <svg:desc>Picture generated by PCBNEW </svg:desc>
<svg:g style="fill:#000000; fill-opacity:1.000000;stroke:#000000; stroke-opacity:1.000000; stroke-linecap:round; stroke-linejoin:round;" transform="translate(0 0) scale(1 1)">
</svg:g>
<svg:g style="fill:#000000; fill-opacity:0.0;  stroke:#000000; stroke-width:0.000000; stroke-opacity:1;  stroke-linecap:round; stroke-linejoin:round;">
<svg:g>
</svg:g>
<svg:g>
</svg:g>
<svg:g>
</svg:g>
<svg:g>
</svg:g>
</svg:g>
<svg:g style="fill:#000000; fill-opacity:0.0;  stroke:#000000; stroke-width:0.000000; stroke-opacity:1;  stroke-linecap:round; stroke-linejoin:round;">
<svg:g>
</svg:g>
<svg:g>
</svg:g>
<svg:g>
</svg:g>
<svg:g>
</svg:g>
</svg:g> 
</svg:g><svg:g><svg:title>SVG Picture created as kicadBoard-F_Cu.svg date 2022/11/19 00:07:51 </svg:title>
  <svg:desc>Picture generated by PCBNEW </svg:desc>
<svg:g style="fill:#000000; fill-opacity:1.000000;stroke:#000000; stroke-opacity:1.000000; stroke-linecap:round; stroke-linejoin:round;" transform="translate(0 0) scale(1 1)">
</svg:g>
<svg:g style="fill:#000000; fill-opacity:0.0;  stroke:#000000; stroke-width:0.000000; stroke-opacity:1;  stroke-linecap:round; stroke-linejoin:round;">
<svg:g>
</svg:g>
<svg:g style="fill:#C83434; fill-opacity:0.0;  stroke:#C83434; stroke-width:0.000000; stroke-opacity:1;  stroke-linecap:round; stroke-linejoin:round;">
</svg:g>
<svg:g style="fill:#C83434; fill-opacity:0.0;  stroke:#C83434; stroke-width:1.000000; stroke-opacity:1;  stroke-linecap:round; stroke-linejoin:round;">
</svg:g>
<svg:g style="fill:#C83434; fill-opacity:1.0;  stroke:#C83434; stroke-width:1.000000; stroke-opacity:1;  stroke-linecap:round; stroke-linejoin:round;">
<svg:path style="fill:#C83434; fill-opacity:1.0;  stroke:#C83434; stroke-width:1.000000; stroke-opacity:1;  stroke-linecap:round; stroke-linejoin:round;fill-rule:evenodd;" d="M 48425000.000000,49162500.000000 48431661.000000,49129015.000000 48450628.000000,49100628.000000 48479015.000000,49081661.000000 48512500.000000,49075000.000000 48912500.000000,49075000.000000 48945985.000000,49081661.000000 48974372.000000,49100628.000000 48993339.000000,49129015.000000 49000000.000000,49162500.000000 49000000.000000,49337500.000000 48993339.000000,49370985.000000 48974372.000000,49399372.000000 48945985.000000,49418339.000000 48912500.000000,49425000.000000 48512500.000000,49425000.000000 48479015.000000,49418339.000000 48450628.000000,49399372.000000 48431661.000000,49370985.000000 48425000.000000,49337500.000000 Z"/> 
<svg:path style="fill:#C83434; fill-opacity:1.0;  stroke:#C83434; stroke-width:1.000000; stroke-opacity:1;  stroke-linecap:round; stroke-linejoin:round;fill-rule:evenodd;" d="M 48425000.000000,49662500.000000 48431661.000000,49629015.000000 48450628.000000,49600628.000000 48479015.000000,49581661.000000 48512500.000000,49575000.000000 48912500.000000,49575000.000000 48945985.000000,49581661.000000 48974372.000000,49600628.000000 48993339.000000,49629015.000000 49000000.000000,49662500.000000 49000000.000000,49837500.000000 48993339.000000,49870985.000000 48974372.000000,49899372.000000 48945985.000000,49918339.000000 48912500.000000,49925000.000000 48512500.000000,49925000.000000 48479015.000000,49918339.000000 48450628.000000,49899372.000000 48431661.000000,49870985.000000 48425000.000000,49837500.000000 Z"/> 
<svg:path style="fill:#C83434; fill-opacity:1.0;  stroke:#C83434; stroke-width:1.000000; stroke-opacity:1;  stroke-linecap:round; stroke-linejoin:round;fill-rule:evenodd;" d="M 48425000.000000,50162500.000000 48431661.000000,50129015.000000 48450628.000000,50100628.000000 48479015.000000,50081661.000000 48512500.000000,50075000.000000 48912500.000000,50075000.000000 48945985.000000,50081661.000000 48974372.000000,50100628.000000 48993339.000000,50129015.000000 49000000.000000,50162500.000000 49000000.000000,50337500.000000 48993339.000000,50370985.000000 48974372.000000,50399372.000000 48945985.000000,50418339.000000 48912500.000000,50425000.000000 48512500.000000,50425000.000000 48479015.000000,50418339.000000 48450628.000000,50399372.000000 48431661.000000,50370985.000000 48425000.000000,50337500.000000 Z"/> 
<svg:path style="fill:#C83434; fill-opacity:1.0;  stroke:#C83434; stroke-width:1.000000; stroke-opacity:1;  stroke-linecap:round; stroke-linejoin:round;fill-rule:evenodd;" d="M 48425000.000000,50662500.000000 48431661.000000,50629015.000000 48450628.000000,50600628.000000 48479015.000000,50581661.000000 48512500.000000,50575000.000000 48912500.000000,50575000.000000 48945985.000000,50581661.000000 48974372.000000,50600628.000000 48993339.000000,50629015.000000 49000000.000000,50662500.000000 49000000.000000,50837500.000000 48993339.000000,50870985.000000 48974372.000000,50899372.000000 48945985.000000,50918339.000000 48912500.000000,50925000.000000 48512500.000000,50925000.000000 48479015.000000,50918339.000000 48450628.000000,50899372.000000 48431661.000000,50870985.000000 48425000.000000,50837500.000000 Z"/> 
<svg:path style="fill:#C83434; fill-opacity:1.0;  stroke:#C83434; stroke-width:1.000000; stroke-opacity:1;  stroke-linecap:round; stroke-linejoin:round;fill-rule:evenodd;" d="M 51000000.000000,50662500.000000 51006661.000000,50629015.000000 51025628.000000,50600628.000000 51054015.000000,50581661.000000 51087500.000000,50575000.000000 51487500.000000,50575000.000000 51520985.000000,50581661.000000 51549372.000000,50600628.000000 51568339.000000,50629015.000000 51575000.000000,50662500.000000 51575000.000000,50837500.000000 51568339.000000,50870985.000000 51549372.000000,50899372.000000 51520985.000000,50918339.000000 51487500.000000,50925000.000000 51087500.000000,50925000.000000 51054015.000000,50918339.000000 51025628.000000,50899372.000000 51006661.000000,50870985.000000 51000000.000000,50837500.000000 Z"/> 
<svg:path style="fill:#C83434; fill-opacity:1.0;  stroke:#C83434; stroke-width:1.000000; stroke-opacity:1;  stroke-linecap:round; stroke-linejoin:round;fill-rule:evenodd;" d="M 51000000.000000,50162500.000000 51006661.000000,50129015.000000 51025628.000000,50100628.000000 51054015.000000,50081661.000000 51087500.000000,50075000.000000 51487500.000000,50075000.000000 51520985.000000,50081661.000000 51549372.000000,50100628.000000 51568339.000000,50129015.000000 51575000.000000,50162500.000000 51575000.000000,50337500.000000 51568339.000000,50370985.000000 51549372.000000,50399372.000000 51520985.000000,50418339.000000 51487500.000000,50425000.000000 51087500.000000,50425000.000000 51054015.000000,50418339.000000 51025628.000000,50399372.000000 51006661.000000,50370985.000000 51000000.000000,50337500.000000 Z"/> 
<svg:path style="fill:#C83434; fill-opacity:1.0;  stroke:#C83434; stroke-width:1.000000; stroke-opacity:1;  stroke-linecap:round; stroke-linejoin:round;fill-rule:evenodd;" d="M 51000000.000000,49662500.000000 51006661.000000,49629015.000000 51025628.000000,49600628.000000 51054015.000000,49581661.000000 51087500.000000,49575000.000000 51487500.000000,49575000.000000 51520985.000000,49581661.000000 51549372.000000,49600628.000000 51568339.000000,49629015.000000 51575000.000000,49662500.000000 51575000.000000,49837500.000000 51568339.000000,49870985.000000 51549372.000000,49899372.000000 51520985.000000,49918339.000000 51487500.000000,49925000.000000 51087500.000000,49925000.000000 51054015.000000,49918339.000000 51025628.000000,49899372.000000 51006661.000000,49870985.000000 51000000.000000,49837500.000000 Z"/> 
<svg:path style="fill:#C83434; fill-opacity:1.0;  stroke:#C83434; stroke-width:1.000000; stroke-opacity:1;  stroke-linecap:round; stroke-linejoin:round;fill-rule:evenodd;" d="M 51000000.000000,49162500.000000 51006661.000000,49129015.000000 51025628.000000,49100628.000000 51054015.000000,49081661.000000 51087500.000000,49075000.000000 51487500.000000,49075000.000000 51520985.000000,49081661.000000 51549372.000000,49100628.000000 51568339.000000,49129015.000000 51575000.000000,49162500.000000 51575000.000000,49337500.000000 51568339.000000,49370985.000000 51549372.000000,49399372.000000 51520985.000000,49418339.000000 51487500.000000,49425000.000000 51087500.000000,49425000.000000 51054015.000000,49418339.000000 51025628.000000,49399372.000000 51006661.000000,49370985.000000 51000000.000000,49337500.000000 Z"/> 
<svg:path style="fill:#C83434; fill-opacity:1.0;  stroke:#C83434; stroke-width:1.000000; stroke-opacity:1;  stroke-linecap:round; stroke-linejoin:round;fill-rule:evenodd;" d="M 49275000.000000,50870000.000000 49275000.000000,49130000.000000 50725000.000000,49130000.000000 50725000.000000,50870000.000000 Z"/> 
</svg:g>
<svg:g>
</svg:g>
<svg:g>
</svg:g>
<svg:g>
</svg:g>
</svg:g>
<svg:g style="fill:#FFFFFF; fill-opacity:1.0;  stroke:#FFFFFF; stroke-width:1.000000; stroke-opacity:1;  stroke-linecap:round; stroke-linejoin:round;">
</svg:g>
<svg:g style="fill:#000000; fill-opacity:1.0;  stroke:#000000; stroke-width:1.000000; stroke-opacity:1;  stroke-linecap:round; stroke-linejoin:round;">
<svg:g>
</svg:g>
<svg:g>
</svg:g>
<svg:g>
</svg:g>
<svg:g>
</svg:g>
</svg:g> 
</svg:g></svg>
