<?xml version='1.0' encoding='ASCII' standalone='yes'?>
<svg xmlns:svg="http://www.w3.org/2000/svg" xmlns="http://www.w3.org/2000/svg" xmlns:xlink="http://www.w3.org/1999/xlink" version="1.1" width="9.999980cm" height="9.999980cm" viewBox="0 0 99999800 99999800">
<title>SVG Picture created as kicadBoard-B_Cu.svg date 2022/11/16 16:01:25 </title>
  <desc>Picture generated by PCBNEW </desc>
<g style="fill:#000000; fill-opacity:1.000000;stroke:#000000; stroke-opacity:1.000000; stroke-linecap:round; stroke-linejoin:round;" transform="translate(0 0) scale(1 1)">
</g>
<g style="fill:#000000; fill-opacity:0.0;  stroke:#000000; stroke-width:0.000000; stroke-opacity:1;  stroke-linecap:round; stroke-linejoin:round;">
<g>
</g>
<g>
</g>
<g>
</g>
<g>
</g>
</g>
<g style="fill:#FFFFFF; fill-opacity:0.0;  stroke:#FFFFFF; stroke-width:0.000000; stroke-opacity:1;  stroke-linecap:round; stroke-linejoin:round;">
</g>
<g style="fill:#000000; fill-opacity:0.0;  stroke:#000000; stroke-width:0.000000; stroke-opacity:1;  stroke-linecap:round; stroke-linejoin:round;">
<g>
</g>
<g>
</g>
<g>
</g>
<g>
</g>
</g> 
<svg:g><svg:title>SVG Picture created as kicadBoard-B_Adhesive.svg date 2022/11/16 16:01:25 </svg:title>
  <svg:desc>Picture generated by PCBNEW </svg:desc>
<svg:g style="fill:#000000; fill-opacity:1.000000;stroke:#000000; stroke-opacity:1.000000; stroke-linecap:round; stroke-linejoin:round;" transform="translate(0 0) scale(1 1)">
</svg:g>
<svg:g style="fill:#000000; fill-opacity:0.0;  stroke:#000000; stroke-width:0.000000; stroke-opacity:1;  stroke-linecap:round; stroke-linejoin:round;">
<svg:g>
</svg:g>
<svg:g>
</svg:g>
<svg:g>
</svg:g>
<svg:g>
</svg:g>
</svg:g>
<svg:g style="fill:#000000; fill-opacity:0.0;  stroke:#000000; stroke-width:0.000000; stroke-opacity:1;  stroke-linecap:round; stroke-linejoin:round;">
<svg:g>
</svg:g>
<svg:g>
</svg:g>
<svg:g>
</svg:g>
<svg:g>
</svg:g>
</svg:g> 
</svg:g><svg:g><svg:title>SVG Picture created as kicadBoard-B_Courtyard.svg date 2022/11/16 16:01:25 </svg:title>
  <svg:desc>Picture generated by PCBNEW </svg:desc>
<svg:g style="fill:#000000; fill-opacity:1.000000;stroke:#000000; stroke-opacity:1.000000; stroke-linecap:round; stroke-linejoin:round;" transform="translate(0 0) scale(1 1)">
</svg:g>
<svg:g style="fill:#000000; fill-opacity:0.0;  stroke:#000000; stroke-width:0.000000; stroke-opacity:1;  stroke-linecap:round; stroke-linejoin:round;">
<svg:g>
</svg:g>
<svg:g>
</svg:g>
<svg:g>
</svg:g>
<svg:g>
</svg:g>
</svg:g>
<svg:g style="fill:#000000; fill-opacity:0.0;  stroke:#000000; stroke-width:0.000000; stroke-opacity:1;  stroke-linecap:round; stroke-linejoin:round;">
<svg:g>
</svg:g>
<svg:g>
</svg:g>
<svg:g>
</svg:g>
<svg:g>
</svg:g>
</svg:g> 
</svg:g><svg:g><svg:title>SVG Picture created as kicadBoard-B_Fab.svg date 2022/11/16 16:01:25 </svg:title>
  <svg:desc>Picture generated by PCBNEW </svg:desc>
<svg:g style="fill:#000000; fill-opacity:1.000000;stroke:#000000; stroke-opacity:1.000000; stroke-linecap:round; stroke-linejoin:round;" transform="translate(0 0) scale(1 1)">
</svg:g>
<svg:g style="fill:#000000; fill-opacity:0.0;  stroke:#000000; stroke-width:0.000000; stroke-opacity:1;  stroke-linecap:round; stroke-linejoin:round;">
<svg:g>
</svg:g>
<svg:g>
</svg:g>
<svg:g>
</svg:g>
<svg:g>
</svg:g>
</svg:g>
<svg:g style="fill:#000000; fill-opacity:0.0;  stroke:#000000; stroke-width:0.000000; stroke-opacity:1;  stroke-linecap:round; stroke-linejoin:round;">
<svg:g>
</svg:g>
<svg:g>
</svg:g>
<svg:g>
</svg:g>
<svg:g>
</svg:g>
</svg:g> 
</svg:g><svg:g><svg:title>SVG Picture created as kicadBoard-B_Mask.svg date 2022/11/16 16:01:25 </svg:title>
  <svg:desc>Picture generated by PCBNEW </svg:desc>
<svg:g style="fill:#000000; fill-opacity:1.000000;stroke:#000000; stroke-opacity:1.000000; stroke-linecap:round; stroke-linejoin:round;" transform="translate(0 0) scale(1 1)">
</svg:g>
<svg:g style="fill:#000000; fill-opacity:0.0;  stroke:#000000; stroke-width:0.000000; stroke-opacity:1;  stroke-linecap:round; stroke-linejoin:round;">
<svg:g>
</svg:g>
<svg:g>
</svg:g>
<svg:g>
</svg:g>
<svg:g>
</svg:g>
</svg:g>
<svg:g style="fill:#000000; fill-opacity:0.0;  stroke:#000000; stroke-width:0.000000; stroke-opacity:1;  stroke-linecap:round; stroke-linejoin:round;">
<svg:g>
</svg:g>
<svg:g>
</svg:g>
<svg:g>
</svg:g>
<svg:g>
</svg:g>
</svg:g> 
</svg:g><svg:g><svg:title>SVG Picture created as kicadBoard-B_Paste.svg date 2022/11/16 16:01:25 </svg:title>
  <svg:desc>Picture generated by PCBNEW </svg:desc>
<svg:g style="fill:#000000; fill-opacity:1.000000;stroke:#000000; stroke-opacity:1.000000; stroke-linecap:round; stroke-linejoin:round;" transform="translate(0 0) scale(1 1)">
</svg:g>
<svg:g style="fill:#000000; fill-opacity:0.0;  stroke:#000000; stroke-width:0.000000; stroke-opacity:1;  stroke-linecap:round; stroke-linejoin:round;">
<svg:g>
</svg:g>
<svg:g>
</svg:g>
<svg:g>
</svg:g>
<svg:g>
</svg:g>
</svg:g>
<svg:g style="fill:#000000; fill-opacity:0.0;  stroke:#000000; stroke-width:0.000000; stroke-opacity:1;  stroke-linecap:round; stroke-linejoin:round;">
<svg:g>
</svg:g>
<svg:g>
</svg:g>
<svg:g>
</svg:g>
<svg:g>
</svg:g>
</svg:g> 
</svg:g><svg:g><svg:title>SVG Picture created as kicadBoard-B_Silkscreen.svg date 2022/11/16 16:01:25 </svg:title>
  <svg:desc>Picture generated by PCBNEW </svg:desc>
<svg:g style="fill:#000000; fill-opacity:1.000000;stroke:#000000; stroke-opacity:1.000000; stroke-linecap:round; stroke-linejoin:round;" transform="translate(0 0) scale(1 1)">
</svg:g>
<svg:g style="fill:#000000; fill-opacity:0.0;  stroke:#000000; stroke-width:0.000000; stroke-opacity:1;  stroke-linecap:round; stroke-linejoin:round;">
<svg:g>
</svg:g>
<svg:g>
</svg:g>
<svg:g>
</svg:g>
<svg:g>
</svg:g>
</svg:g>
<svg:g style="fill:#000000; fill-opacity:0.0;  stroke:#000000; stroke-width:0.000000; stroke-opacity:1;  stroke-linecap:round; stroke-linejoin:round;">
<svg:g>
</svg:g>
<svg:g>
</svg:g>
<svg:g>
</svg:g>
<svg:g>
</svg:g>
</svg:g> 
</svg:g><svg:g><svg:title>SVG Picture created as kicadBoard-Edge_Cuts.svg date 2022/11/16 16:01:25 </svg:title>
  <svg:desc>Picture generated by PCBNEW </svg:desc>
<svg:g style="fill:#000000; fill-opacity:1.000000;stroke:#000000; stroke-opacity:1.000000; stroke-linecap:round; stroke-linejoin:round;" transform="translate(0 0) scale(1 1)">
</svg:g>
<svg:g style="fill:#000000; fill-opacity:0.0;  stroke:#000000; stroke-width:0.000000; stroke-opacity:1;  stroke-linecap:round; stroke-linejoin:round;">
<svg:g>
</svg:g>
<svg:g>
</svg:g>
<svg:g>
</svg:g>
<svg:g>
</svg:g>
</svg:g> 
</svg:g><svg:g><svg:title>SVG Picture created as kicadBoard-F_Adhesive.svg date 2022/11/16 16:01:25 </svg:title>
  <svg:desc>Picture generated by PCBNEW </svg:desc>
<svg:g style="fill:#000000; fill-opacity:1.000000;stroke:#000000; stroke-opacity:1.000000; stroke-linecap:round; stroke-linejoin:round;" transform="translate(0 0) scale(1 1)">
</svg:g>
<svg:g style="fill:#000000; fill-opacity:0.0;  stroke:#000000; stroke-width:0.000000; stroke-opacity:1;  stroke-linecap:round; stroke-linejoin:round;">
<svg:g>
</svg:g>
<svg:g>
</svg:g>
<svg:g>
</svg:g>
<svg:g>
</svg:g>
</svg:g>
<svg:g style="fill:#000000; fill-opacity:0.0;  stroke:#000000; stroke-width:0.000000; stroke-opacity:1;  stroke-linecap:round; stroke-linejoin:round;">
<svg:g>
</svg:g>
<svg:g>
</svg:g>
<svg:g>
</svg:g>
<svg:g>
</svg:g>
</svg:g> 
</svg:g><svg:g><svg:title>SVG Picture created as kicadBoard-F_Courtyard.svg date 2022/11/16 16:01:25 </svg:title>
  <svg:desc>Picture generated by PCBNEW </svg:desc>
<svg:g style="fill:#000000; fill-opacity:1.000000;stroke:#000000; stroke-opacity:1.000000; stroke-linecap:round; stroke-linejoin:round;" transform="translate(0 0) scale(1 1)">
</svg:g>
<svg:g style="fill:#000000; fill-opacity:0.0;  stroke:#000000; stroke-width:0.000000; stroke-opacity:1;  stroke-linecap:round; stroke-linejoin:round;">
</svg:g>
<svg:g style="fill:#FF26E2; fill-opacity:0.0;  stroke:#FF26E2; stroke-width:0.000000; stroke-opacity:1;  stroke-linecap:round; stroke-linejoin:round;">
</svg:g>
<svg:g style="fill:#FF26E2; fill-opacity:0.0;  stroke:#FF26E2; stroke-width:50000.000000; stroke-opacity:1;  stroke-linecap:round; stroke-linejoin:round;">
<svg:path d="M47380000 48350000 L52620000 48350000 "/>
<svg:path d="M47380000 51650000 L47380000 48350000 "/>
<svg:path d="M52620000 48350000 L52620000 51650000 "/>
<svg:path d="M52620000 51650000 L47380000 51650000 "/>
<svg:g>
</svg:g>
<svg:g>
</svg:g>
<svg:g>
</svg:g>
<svg:g>
</svg:g>
</svg:g>
<svg:g style="fill:#000000; fill-opacity:0.0;  stroke:#000000; stroke-width:50000.000000; stroke-opacity:1;  stroke-linecap:round; stroke-linejoin:round;">
<svg:g>
</svg:g>
<svg:g>
</svg:g>
<svg:g>
</svg:g>
<svg:g>
</svg:g>
</svg:g> 
</svg:g><svg:g><svg:title>SVG Picture created as kicadBoard-F_Fab.svg date 2022/11/16 16:01:25 </svg:title>
  <svg:desc>Picture generated by PCBNEW </svg:desc>
<svg:g style="fill:#000000; fill-opacity:1.000000;stroke:#000000; stroke-opacity:1.000000; stroke-linecap:round; stroke-linejoin:round;" transform="translate(0 0) scale(1 1)">
</svg:g>
<svg:g style="fill:#000000; fill-opacity:0.0;  stroke:#000000; stroke-width:0.000000; stroke-opacity:1;  stroke-linecap:round; stroke-linejoin:round;">
</svg:g>
<svg:g style="fill:#AFAFAF; fill-opacity:0.0;  stroke:#AFAFAF; stroke-width:0.000000; stroke-opacity:1;  stroke-linecap:round; stroke-linejoin:round;">
</svg:g>
<svg:g style="fill:#AFAFAF; fill-opacity:0.0;  stroke:#AFAFAF; stroke-width:150000.000000; stroke-opacity:1;  stroke-linecap:round; stroke-linejoin:round;">
<svg:text x="50000000.000000" y="52850000.000000" textLength="42099762.000000" font-size="1333333.000000" lengthAdjust="spacingAndGlyphs" text-anchor="middle" opacity="0">CP_EIA-3528-15_AVX-H_Pad1.50x2.35mm_HandSolder</svg:text>
<svg:g class="stroked-text"><svg:desc>CP_EIA-3528-15_AVX-H_Pad1.50x2.35mm_HandSolder</svg:desc>
<svg:path d="M29857142 52707142 L29809523 52754761 L29666666 52802380 L29571428 52802380 L29428571 52754761 L29333333 52659523 L29285714 52564285 L29238095 52373809 L29238095 52230952 L29285714 52040476 L29333333 51945238 L29428571 51850000 L29571428 51802380 L29666666 51802380 L29809523 51850000 L29857142 51897619 "/>
<svg:path d="M30285714 52802380 L30285714 51802380 L30666666 51802380 L30761904 51850000 L30809523 51897619 L30857142 51992857 L30857142 52135714 L30809523 52230952 L30761904 52278571 L30666666 52326190 L30285714 52326190 "/>
<svg:path d="M31047619 52897619 L31809523 52897619 "/>
<svg:path d="M32047619 52278571 L32380952 52278571 "/>
<svg:path d="M32523809 52802380 L32047619 52802380 L32047619 51802380 L32523809 51802380 "/>
<svg:path d="M32952380 52802380 L32952380 51802380 "/>
<svg:path d="M33380952 52516666 L33857142 52516666 "/>
<svg:path d="M33285714 52802380 L33619047 51802380 L33952380 52802380 "/>
<svg:path d="M34285714 52421428 L35047619 52421428 "/>
<svg:path d="M35428571 51802380 L36047619 51802380 L35714285 52183333 L35857142 52183333 L35952380 52230952 L36000000 52278571 L36047619 52373809 L36047619 52611904 L36000000 52707142 L35952380 52754761 L35857142 52802380 L35571428 52802380 L35476190 52754761 L35428571 52707142 "/>
<svg:path d="M36952380 51802380 L36476190 51802380 L36428571 52278571 L36476190 52230952 L36571428 52183333 L36809523 52183333 L36904761 52230952 L36952380 52278571 L37000000 52373809 L37000000 52611904 L36952380 52707142 L36904761 52754761 L36809523 52802380 L36571428 52802380 L36476190 52754761 L36428571 52707142 "/>
<svg:path d="M37380952 51897619 L37428571 51850000 L37523809 51802380 L37761904 51802380 L37857142 51850000 L37904761 51897619 L37952380 51992857 L37952380 52088095 L37904761 52230952 L37333333 52802380 L37952380 52802380 "/>
<svg:path d="M38523809 52230952 L38428571 52183333 L38380952 52135714 L38333333 52040476 L38333333 51992857 L38380952 51897619 L38428571 51850000 L38523809 51802380 L38714285 51802380 L38809523 51850000 L38857142 51897619 L38904761 51992857 L38904761 52040476 L38857142 52135714 L38809523 52183333 L38714285 52230952 L38523809 52230952 L38428571 52278571 L38380952 52326190 L38333333 52421428 L38333333 52611904 L38380952 52707142 L38428571 52754761 L38523809 52802380 L38714285 52802380 L38809523 52754761 L38857142 52707142 L38904761 52611904 L38904761 52421428 L38857142 52326190 L38809523 52278571 L38714285 52230952 "/>
<svg:path d="M39333333 52421428 L40095238 52421428 "/>
<svg:path d="M41095238 52802380 L40523809 52802380 "/>
<svg:path d="M40809523 52802380 L40809523 51802380 L40714285 51945238 L40619047 52040476 L40523809 52088095 "/>
<svg:path d="M42000000 51802380 L41523809 51802380 L41476190 52278571 L41523809 52230952 L41619047 52183333 L41857142 52183333 L41952380 52230952 L42000000 52278571 L42047619 52373809 L42047619 52611904 L42000000 52707142 L41952380 52754761 L41857142 52802380 L41619047 52802380 L41523809 52754761 L41476190 52707142 "/>
<svg:path d="M42238095 52897619 L43000000 52897619 "/>
<svg:path d="M43190476 52516666 L43666666 52516666 "/>
<svg:path d="M43095238 52802380 L43428571 51802380 L43761904 52802380 "/>
<svg:path d="M43952380 51802380 L44285714 52802380 L44619047 51802380 "/>
<svg:path d="M44857142 51802380 L45523809 52802380 "/>
<svg:path d="M45523809 51802380 L44857142 52802380 "/>
<svg:path d="M45904761 52421428 L46666666 52421428 "/>
<svg:path d="M47142857 52802380 L47142857 51802380 "/>
<svg:path d="M47142857 52278571 L47714285 52278571 "/>
<svg:path d="M47714285 52802380 L47714285 51802380 "/>
<svg:path d="M47952380 52897619 L48714285 52897619 "/>
<svg:path d="M48952380 52802380 L48952380 51802380 L49333333 51802380 L49428571 51850000 L49476190 51897619 L49523809 51992857 L49523809 52135714 L49476190 52230952 L49428571 52278571 L49333333 52326190 L48952380 52326190 "/>
<svg:path d="M50380952 52802380 L50380952 52278571 L50333333 52183333 L50238095 52135714 L50047619 52135714 L49952380 52183333 "/>
<svg:path d="M50380952 52754761 L50285714 52802380 L50047619 52802380 L49952380 52754761 L49904761 52659523 L49904761 52564285 L49952380 52469047 L50047619 52421428 L50285714 52421428 L50380952 52373809 "/>
<svg:path d="M51285714 52802380 L51285714 51802380 "/>
<svg:path d="M51285714 52754761 L51190476 52802380 L50999999 52802380 L50904761 52754761 L50857142 52707142 L50809523 52611904 L50809523 52326190 L50857142 52230952 L50904761 52183333 L50999999 52135714 L51190476 52135714 L51285714 52183333 "/>
<svg:path d="M52285714 52802380 L51714285 52802380 "/>
<svg:path d="M51999999 52802380 L51999999 51802380 L51904761 51945238 L51809523 52040476 L51714285 52088095 "/>
<svg:path d="M52714285 52707142 L52761904 52754761 L52714285 52802380 L52666666 52754761 L52714285 52707142 L52714285 52802380 "/>
<svg:path d="M53666666 51802380 L53190476 51802380 L53142857 52278571 L53190476 52230952 L53285714 52183333 L53523809 52183333 L53619047 52230952 L53666666 52278571 L53714285 52373809 L53714285 52611904 L53666666 52707142 L53619047 52754761 L53523809 52802380 L53285714 52802380 L53190476 52754761 L53142857 52707142 "/>
<svg:path d="M54333333 51802380 L54428571 51802380 L54523809 51850000 L54571428 51897619 L54619047 51992857 L54666666 52183333 L54666666 52421428 L54619047 52611904 L54571428 52707142 L54523809 52754761 L54428571 52802380 L54333333 52802380 L54238095 52754761 L54190476 52707142 L54142857 52611904 L54095238 52421428 L54095238 52183333 L54142857 51992857 L54190476 51897619 L54238095 51850000 L54333333 51802380 "/>
<svg:path d="M54999999 52802380 L55523809 52135714 "/>
<svg:path d="M54999999 52135714 L55523809 52802380 "/>
<svg:path d="M55857142 51897619 L55904761 51850000 L55999999 51802380 L56238095 51802380 L56333333 51850000 L56380952 51897619 L56428571 51992857 L56428571 52088095 L56380952 52230952 L55809523 52802380 L56428571 52802380 "/>
<svg:path d="M56857142 52707142 L56904761 52754761 L56857142 52802380 L56809523 52754761 L56857142 52707142 L56857142 52802380 "/>
<svg:path d="M57238095 51802380 L57857142 51802380 L57523809 52183333 L57666666 52183333 L57761904 52230952 L57809523 52278571 L57857142 52373809 L57857142 52611904 L57809523 52707142 L57761904 52754761 L57666666 52802380 L57380952 52802380 L57285714 52754761 L57238095 52707142 "/>
<svg:path d="M58761904 51802380 L58285714 51802380 L58238095 52278571 L58285714 52230952 L58380952 52183333 L58619047 52183333 L58714285 52230952 L58761904 52278571 L58809523 52373809 L58809523 52611904 L58761904 52707142 L58714285 52754761 L58619047 52802380 L58380952 52802380 L58285714 52754761 L58238095 52707142 "/>
<svg:path d="M59238095 52802380 L59238095 52135714 "/>
<svg:path d="M59238095 52230952 L59285714 52183333 L59380952 52135714 L59523809 52135714 L59619047 52183333 L59666666 52278571 L59666666 52802380 "/>
<svg:path d="M59666666 52278571 L59714285 52183333 L59809523 52135714 L59952380 52135714 L60047619 52183333 L60095238 52278571 L60095238 52802380 "/>
<svg:path d="M60571428 52802380 L60571428 52135714 "/>
<svg:path d="M60571428 52230952 L60619047 52183333 L60714285 52135714 L60857142 52135714 L60952380 52183333 L60999999 52278571 L60999999 52802380 "/>
<svg:path d="M60999999 52278571 L61047619 52183333 L61142857 52135714 L61285714 52135714 L61380952 52183333 L61428571 52278571 L61428571 52802380 "/>
<svg:path d="M61666666 52897619 L62428571 52897619 "/>
<svg:path d="M62666666 52802380 L62666666 51802380 "/>
<svg:path d="M62666666 52278571 L63238095 52278571 "/>
<svg:path d="M63238095 52802380 L63238095 51802380 "/>
<svg:path d="M64142857 52802380 L64142857 52278571 L64095238 52183333 L63999999 52135714 L63809523 52135714 L63714285 52183333 "/>
<svg:path d="M64142857 52754761 L64047619 52802380 L63809523 52802380 L63714285 52754761 L63666666 52659523 L63666666 52564285 L63714285 52469047 L63809523 52421428 L64047619 52421428 L64142857 52373809 "/>
<svg:path d="M64619047 52135714 L64619047 52802380 "/>
<svg:path d="M64619047 52230952 L64666666 52183333 L64761904 52135714 L64904761 52135714 L64999999 52183333 L65047619 52278571 L65047619 52802380 "/>
<svg:path d="M65952380 52802380 L65952380 51802380 "/>
<svg:path d="M65952380 52754761 L65857142 52802380 L65666666 52802380 L65571428 52754761 L65523809 52707142 L65476190 52611904 L65476190 52326190 L65523809 52230952 L65571428 52183333 L65666666 52135714 L65857142 52135714 L65952380 52183333 "/>
<svg:path d="M66380952 52754761 L66523809 52802380 L66761904 52802380 L66857142 52754761 L66904761 52707142 L66952380 52611904 L66952380 52516666 L66904761 52421428 L66857142 52373809 L66761904 52326190 L66571428 52278571 L66476190 52230952 L66428571 52183333 L66380952 52088095 L66380952 51992857 L66428571 51897619 L66476190 51850000 L66571428 51802380 L66809523 51802380 L66952380 51850000 "/>
<svg:path d="M67523809 52802380 L67428571 52754761 L67380952 52707142 L67333333 52611904 L67333333 52326190 L67380952 52230952 L67428571 52183333 L67523809 52135714 L67666666 52135714 L67761904 52183333 L67809523 52230952 L67857142 52326190 L67857142 52611904 L67809523 52707142 L67761904 52754761 L67666666 52802380 L67523809 52802380 "/>
<svg:path d="M68428571 52802380 L68333333 52754761 L68285714 52659523 L68285714 51802380 "/>
<svg:path d="M69238095 52802380 L69238095 51802380 "/>
<svg:path d="M69238095 52754761 L69142857 52802380 L68952380 52802380 L68857142 52754761 L68809523 52707142 L68761904 52611904 L68761904 52326190 L68809523 52230952 L68857142 52183333 L68952380 52135714 L69142857 52135714 L69238095 52183333 "/>
<svg:path d="M70095238 52754761 L69999999 52802380 L69809523 52802380 L69714285 52754761 L69666666 52659523 L69666666 52278571 L69714285 52183333 L69809523 52135714 L69999999 52135714 L70095238 52183333 L70142857 52278571 L70142857 52373809 L69666666 52469047 "/>
<svg:path d="M70571428 52802380 L70571428 52135714 "/>
<svg:path d="M70571428 52326190 L70619047 52230952 L70666666 52183333 L70761904 52135714 L70857142 52135714 "/>
</svg:g></svg:g>
<svg:g style="fill:#AFAFAF; fill-opacity:0.0;  stroke:#AFAFAF; stroke-width:130000.000000; stroke-opacity:1;  stroke-linecap:round; stroke-linejoin:round;">
<svg:text x="50000000.000000" y="50440000.000000" textLength="46038810.000000" font-size="1173333.000000" lengthAdjust="spacingAndGlyphs" text-anchor="middle" opacity="0">FZKCAPACITORTANTALUMSMCPEIA352815AVXHPAD15X235HANDSOLDER</svg:text>
<svg:g class="stroked-text"><svg:desc>FZKCAPACITORTANTALUMSMCPEIA352815AVXHPAD15X235HANDSOLDER</svg:desc>
<svg:path d="M27580952 49937142 L27287619 49937142 "/>
<svg:path d="M27287619 50398095 L27287619 49518095 L27706666 49518095 "/>
<svg:path d="M27958095 49518095 L28544761 49518095 L27958095 50398095 L28544761 50398095 "/>
<svg:path d="M28880000 50398095 L28880000 49518095 "/>
<svg:path d="M29382857 50398095 L29005714 49895238 "/>
<svg:path d="M29382857 49518095 L28880000 50020952 "/>
<svg:path d="M30262857 50314285 L30220952 50356190 L30095238 50398095 L30011428 50398095 L29885714 50356190 L29801904 50272380 L29760000 50188571 L29718095 50020952 L29718095 49895238 L29760000 49727619 L29801904 49643809 L29885714 49560000 L30011428 49518095 L30095238 49518095 L30220952 49560000 L30262857 49601904 "/>
<svg:path d="M30598095 50146666 L31017142 50146666 "/>
<svg:path d="M30514285 50398095 L30807619 49518095 L31100952 50398095 "/>
<svg:path d="M31394285 50398095 L31394285 49518095 L31729523 49518095 L31813333 49560000 L31855238 49601904 L31897142 49685714 L31897142 49811428 L31855238 49895238 L31813333 49937142 L31729523 49979047 L31394285 49979047 "/>
<svg:path d="M32232380 50146666 L32651428 50146666 "/>
<svg:path d="M32148571 50398095 L32441904 49518095 L32735238 50398095 "/>
<svg:path d="M33531428 50314285 L33489523 50356190 L33363809 50398095 L33280000 50398095 L33154285 50356190 L33070476 50272380 L33028571 50188571 L32986666 50020952 L32986666 49895238 L33028571 49727619 L33070476 49643809 L33154285 49560000 L33280000 49518095 L33363809 49518095 L33489523 49560000 L33531428 49601904 "/>
<svg:path d="M33908571 50398095 L33908571 49518095 "/>
<svg:path d="M34201904 49518095 L34704761 49518095 "/>
<svg:path d="M34453333 50398095 L34453333 49518095 "/>
<svg:path d="M35165714 49518095 L35333333 49518095 L35417142 49560000 L35500952 49643809 L35542857 49811428 L35542857 50104761 L35500952 50272380 L35417142 50356190 L35333333 50398095 L35165714 50398095 L35081904 50356190 L34998095 50272380 L34956190 50104761 L34956190 49811428 L34998095 49643809 L35081904 49560000 L35165714 49518095 "/>
<svg:path d="M36422857 50398095 L36129523 49979047 "/>
<svg:path d="M35920000 50398095 L35920000 49518095 L36255238 49518095 L36339047 49560000 L36380952 49601904 L36422857 49685714 L36422857 49811428 L36380952 49895238 L36339047 49937142 L36255238 49979047 L35920000 49979047 "/>
<svg:path d="M36674285 49518095 L37177142 49518095 "/>
<svg:path d="M36925714 50398095 L36925714 49518095 "/>
<svg:path d="M37428571 50146666 L37847619 50146666 "/>
<svg:path d="M37344761 50398095 L37638095 49518095 L37931428 50398095 "/>
<svg:path d="M38224761 50398095 L38224761 49518095 L38727619 50398095 L38727619 49518095 "/>
<svg:path d="M39020952 49518095 L39523809 49518095 "/>
<svg:path d="M39272380 50398095 L39272380 49518095 "/>
<svg:path d="M39775238 50146666 L40194285 50146666 "/>
<svg:path d="M39691428 50398095 L39984761 49518095 L40278095 50398095 "/>
<svg:path d="M40990476 50398095 L40571428 50398095 L40571428 49518095 "/>
<svg:path d="M41283809 49518095 L41283809 50230476 L41325714 50314285 L41367619 50356190 L41451428 50398095 L41619047 50398095 L41702857 50356190 L41744761 50314285 L41786666 50230476 L41786666 49518095 "/>
<svg:path d="M42205714 50398095 L42205714 49518095 L42499047 50146666 L42792380 49518095 L42792380 50398095 "/>
<svg:path d="M43169523 50356190 L43295238 50398095 L43504761 50398095 L43588571 50356190 L43630476 50314285 L43672380 50230476 L43672380 50146666 L43630476 50062857 L43588571 50020952 L43504761 49979047 L43337142 49937142 L43253333 49895238 L43211428 49853333 L43169523 49769523 L43169523 49685714 L43211428 49601904 L43253333 49560000 L43337142 49518095 L43546666 49518095 L43672380 49560000 "/>
<svg:path d="M44049523 50398095 L44049523 49518095 L44342857 50146666 L44636190 49518095 L44636190 50398095 "/>
<svg:path d="M45558095 50314285 L45516190 50356190 L45390476 50398095 L45306666 50398095 L45180952 50356190 L45097142 50272380 L45055238 50188571 L45013333 50020952 L45013333 49895238 L45055238 49727619 L45097142 49643809 L45180952 49560000 L45306666 49518095 L45390476 49518095 L45516190 49560000 L45558095 49601904 "/>
<svg:path d="M45935238 50398095 L45935238 49518095 L46270476 49518095 L46354285 49560000 L46396190 49601904 L46438095 49685714 L46438095 49811428 L46396190 49895238 L46354285 49937142 L46270476 49979047 L45935238 49979047 "/>
<svg:path d="M46815238 49937142 L47108571 49937142 "/>
<svg:path d="M47234285 50398095 L46815238 50398095 L46815238 49518095 L47234285 49518095 "/>
<svg:path d="M47611428 50398095 L47611428 49518095 "/>
<svg:path d="M47988571 50146666 L48407619 50146666 "/>
<svg:path d="M47904761 50398095 L48198095 49518095 L48491428 50398095 "/>
<svg:path d="M48700952 49518095 L49245714 49518095 L48952380 49853333 L49078095 49853333 L49161904 49895238 L49203809 49937142 L49245714 50020952 L49245714 50230476 L49203809 50314285 L49161904 50356190 L49078095 50398095 L48826666 50398095 L48742857 50356190 L48700952 50314285 "/>
<svg:path d="M50041904 49518095 L49622857 49518095 L49580952 49937142 L49622857 49895238 L49706666 49853333 L49916190 49853333 L50000000 49895238 L50041904 49937142 L50083809 50020952 L50083809 50230476 L50041904 50314285 L50000000 50356190 L49916190 50398095 L49706666 50398095 L49622857 50356190 L49580952 50314285 "/>
<svg:path d="M50419047 49601904 L50460952 49560000 L50544761 49518095 L50754285 49518095 L50838095 49560000 L50880000 49601904 L50921904 49685714 L50921904 49769523 L50880000 49895238 L50377142 50398095 L50921904 50398095 "/>
<svg:path d="M51424761 49895238 L51340952 49853333 L51299047 49811428 L51257142 49727619 L51257142 49685714 L51299047 49601904 L51340952 49560000 L51424761 49518095 L51592380 49518095 L51676190 49560000 L51718095 49601904 L51760000 49685714 L51760000 49727619 L51718095 49811428 L51676190 49853333 L51592380 49895238 L51424761 49895238 L51340952 49937142 L51299047 49979047 L51257142 50062857 L51257142 50230476 L51299047 50314285 L51340952 50356190 L51424761 50398095 L51592380 50398095 L51676190 50356190 L51718095 50314285 L51760000 50230476 L51760000 50062857 L51718095 49979047 L51676190 49937142 L51592380 49895238 "/>
<svg:path d="M52598095 50398095 L52095238 50398095 "/>
<svg:path d="M52346666 50398095 L52346666 49518095 L52262857 49643809 L52179047 49727619 L52095238 49769523 "/>
<svg:path d="M53394285 49518095 L52975238 49518095 L52933333 49937142 L52975238 49895238 L53059047 49853333 L53268571 49853333 L53352380 49895238 L53394285 49937142 L53436190 50020952 L53436190 50230476 L53394285 50314285 L53352380 50356190 L53268571 50398095 L53059047 50398095 L52975238 50356190 L52933333 50314285 "/>
<svg:path d="M53771428 50146666 L54190476 50146666 "/>
<svg:path d="M53687619 50398095 L53980952 49518095 L54274285 50398095 "/>
<svg:path d="M54441904 49518095 L54735238 50398095 L55028571 49518095 "/>
<svg:path d="M55238095 49518095 L55824761 50398095 "/>
<svg:path d="M55824761 49518095 L55238095 50398095 "/>
<svg:path d="M56160000 50398095 L56160000 49518095 "/>
<svg:path d="M56160000 49937142 L56662857 49937142 "/>
<svg:path d="M56662857 50398095 L56662857 49518095 "/>
<svg:path d="M57081904 50398095 L57081904 49518095 L57417142 49518095 L57500952 49560000 L57542857 49601904 L57584761 49685714 L57584761 49811428 L57542857 49895238 L57500952 49937142 L57417142 49979047 L57081904 49979047 "/>
<svg:path d="M57920000 50146666 L58339047 50146666 "/>
<svg:path d="M57836190 50398095 L58129523 49518095 L58422857 50398095 "/>
<svg:path d="M58716190 50398095 L58716190 49518095 L58925714 49518095 L59051428 49560000 L59135238 49643809 L59177142 49727619 L59219047 49895238 L59219047 50020952 L59177142 50188571 L59135238 50272380 L59051428 50356190 L58925714 50398095 L58716190 50398095 "/>
<svg:path d="M60057142 50398095 L59554285 50398095 "/>
<svg:path d="M59805714 50398095 L59805714 49518095 L59721904 49643809 L59638095 49727619 L59554285 49769523 "/>
<svg:path d="M60853333 49518095 L60434285 49518095 L60392380 49937142 L60434285 49895238 L60518095 49853333 L60727619 49853333 L60811428 49895238 L60853333 49937142 L60895238 50020952 L60895238 50230476 L60853333 50314285 L60811428 50356190 L60727619 50398095 L60518095 50398095 L60434285 50356190 L60392380 50314285 "/>
<svg:path d="M61188571 49518095 L61775238 50398095 "/>
<svg:path d="M61775238 49518095 L61188571 50398095 "/>
<svg:path d="M62068571 49601904 L62110476 49560000 L62194285 49518095 L62403809 49518095 L62487619 49560000 L62529523 49601904 L62571428 49685714 L62571428 49769523 L62529523 49895238 L62026666 50398095 L62571428 50398095 "/>
<svg:path d="M62864761 49518095 L63409523 49518095 L63116190 49853333 L63241904 49853333 L63325714 49895238 L63367619 49937142 L63409523 50020952 L63409523 50230476 L63367619 50314285 L63325714 50356190 L63241904 50398095 L62990476 50398095 L62906666 50356190 L62864761 50314285 "/>
<svg:path d="M64205714 49518095 L63786666 49518095 L63744761 49937142 L63786666 49895238 L63870476 49853333 L64080000 49853333 L64163809 49895238 L64205714 49937142 L64247619 50020952 L64247619 50230476 L64205714 50314285 L64163809 50356190 L64080000 50398095 L63870476 50398095 L63786666 50356190 L63744761 50314285 "/>
<svg:path d="M64624761 50398095 L64624761 49518095 "/>
<svg:path d="M64624761 49937142 L65127619 49937142 "/>
<svg:path d="M65127619 50398095 L65127619 49518095 "/>
<svg:path d="M65504761 50146666 L65923809 50146666 "/>
<svg:path d="M65420952 50398095 L65714285 49518095 L66007619 50398095 "/>
<svg:path d="M66300952 50398095 L66300952 49518095 L66803809 50398095 L66803809 49518095 "/>
<svg:path d="M67222857 50398095 L67222857 49518095 L67432380 49518095 L67558095 49560000 L67641904 49643809 L67683809 49727619 L67725714 49895238 L67725714 50020952 L67683809 50188571 L67641904 50272380 L67558095 50356190 L67432380 50398095 L67222857 50398095 "/>
<svg:path d="M68060952 50356190 L68186666 50398095 L68396190 50398095 L68480000 50356190 L68521904 50314285 L68563809 50230476 L68563809 50146666 L68521904 50062857 L68480000 50020952 L68396190 49979047 L68228571 49937142 L68144761 49895238 L68102857 49853333 L68060952 49769523 L68060952 49685714 L68102857 49601904 L68144761 49560000 L68228571 49518095 L68438095 49518095 L68563809 49560000 "/>
<svg:path d="M69108571 49518095 L69276190 49518095 L69360000 49560000 L69443809 49643809 L69485714 49811428 L69485714 50104761 L69443809 50272380 L69360000 50356190 L69276190 50398095 L69108571 50398095 L69024761 50356190 L68940952 50272380 L68899047 50104761 L68899047 49811428 L68940952 49643809 L69024761 49560000 L69108571 49518095 "/>
<svg:path d="M70281904 50398095 L69862857 50398095 L69862857 49518095 "/>
<svg:path d="M70575238 50398095 L70575238 49518095 L70784761 49518095 L70910476 49560000 L70994285 49643809 L71036190 49727619 L71078095 49895238 L71078095 50020952 L71036190 50188571 L70994285 50272380 L70910476 50356190 L70784761 50398095 L70575238 50398095 "/>
<svg:path d="M71455238 49937142 L71748571 49937142 "/>
<svg:path d="M71874285 50398095 L71455238 50398095 L71455238 49518095 L71874285 49518095 "/>
<svg:path d="M72754285 50398095 L72460952 49979047 "/>
<svg:path d="M72251428 50398095 L72251428 49518095 L72586666 49518095 L72670476 49560000 L72712380 49601904 L72754285 49685714 L72754285 49811428 L72712380 49895238 L72670476 49937142 L72586666 49979047 L72251428 49979047 "/>
</svg:g></svg:g>
<svg:g style="fill:#AFAFAF; fill-opacity:0.0;  stroke:#AFAFAF; stroke-width:100000.000000; stroke-opacity:1;  stroke-linecap:round; stroke-linejoin:round;">
<svg:path d="M51750000 51400000 L51750000 48600000 "/>
<svg:path d="M48950000 48600000 L48250000 49300000 "/>
<svg:path d="M48250000 51400000 L51750000 51400000 "/>
<svg:path d="M48250000 49300000 L48250000 51400000 "/>
<svg:path d="M51750000 48600000 L48950000 48600000 "/>
<svg:g>
</svg:g>
<svg:g>
</svg:g>
<svg:g>
</svg:g>
<svg:g>
</svg:g>
</svg:g>
<svg:g style="fill:#000000; fill-opacity:0.0;  stroke:#000000; stroke-width:100000.000000; stroke-opacity:1;  stroke-linecap:round; stroke-linejoin:round;">
<svg:g>
</svg:g>
<svg:g>
</svg:g>
<svg:g>
</svg:g>
<svg:g>
</svg:g>
</svg:g> 
</svg:g><svg:g><svg:title>SVG Picture created as kicadBoard-F_Mask.svg date 2022/11/16 16:01:25 </svg:title>
  <svg:desc>Picture generated by PCBNEW </svg:desc>
<svg:g style="fill:#000000; fill-opacity:1.000000;stroke:#000000; stroke-opacity:1.000000; stroke-linecap:round; stroke-linejoin:round;" transform="translate(0 0) scale(1 1)">
</svg:g>
<svg:g style="fill:#000000; fill-opacity:0.0;  stroke:#000000; stroke-width:0.000000; stroke-opacity:1;  stroke-linecap:round; stroke-linejoin:round;">
<svg:g>
</svg:g>
<svg:g style="fill:#000000; fill-opacity:0.0;  stroke:#000000; stroke-width:1.000000; stroke-opacity:1;  stroke-linecap:round; stroke-linejoin:round;">
</svg:g>
<svg:g style="fill:#000000; fill-opacity:1.0;  stroke:#000000; stroke-width:1.000000; stroke-opacity:1;  stroke-linecap:round; stroke-linejoin:round;">
<svg:path style="fill:#000000; fill-opacity:1.0;  stroke:#000000; stroke-width:1.000000; stroke-opacity:1;  stroke-linecap:round; stroke-linejoin:round;fill-rule:evenodd;" d="M 47625000.000000,49075001.000000 47644030.000000,48979330.000000 47698224.000000,48898224.000000 47779330.000000,48844030.000000 47875002.000000,48825001.000000 48874999.000000,48825000.000000 48970670.000000,48844030.000000 49051776.000000,48898224.000000 49105970.000000,48979330.000000 49124999.000000,49075002.000000 49125000.000000,50924999.000000 49105970.000000,51020670.000000 49051776.000000,51101776.000000 48970670.000000,51155970.000000 48874998.000000,51174999.000000 47875001.000000,51175000.000000 47779330.000000,51155970.000000 47698224.000000,51101776.000000 47644030.000000,51020670.000000 47625001.000000,50924998.000000 Z"/> 
<svg:path style="fill:#000000; fill-opacity:1.0;  stroke:#000000; stroke-width:1.000000; stroke-opacity:1;  stroke-linecap:round; stroke-linejoin:round;fill-rule:evenodd;" d="M 50875000.000000,49075001.000000 50894030.000000,48979330.000000 50948224.000000,48898224.000000 51029330.000000,48844030.000000 51125002.000000,48825001.000000 52124999.000000,48825000.000000 52220670.000000,48844030.000000 52301776.000000,48898224.000000 52355970.000000,48979330.000000 52374999.000000,49075002.000000 52375000.000000,50924999.000000 52355970.000000,51020670.000000 52301776.000000,51101776.000000 52220670.000000,51155970.000000 52124998.000000,51174999.000000 51125001.000000,51175000.000000 51029330.000000,51155970.000000 50948224.000000,51101776.000000 50894030.000000,51020670.000000 50875001.000000,50924998.000000 Z"/> 
</svg:g>
<svg:g>
</svg:g>
<svg:g>
</svg:g>
<svg:g>
</svg:g>
</svg:g>
<svg:g style="fill:#000000; fill-opacity:1.0;  stroke:#000000; stroke-width:1.000000; stroke-opacity:1;  stroke-linecap:round; stroke-linejoin:round;">
<svg:g>
</svg:g>
<svg:g>
</svg:g>
<svg:g>
</svg:g>
<svg:g>
</svg:g>
</svg:g> 
</svg:g><svg:g><svg:title>SVG Picture created as kicadBoard-F_Paste.svg date 2022/11/16 16:01:25 </svg:title>
  <svg:desc>Picture generated by PCBNEW </svg:desc>
<svg:g style="fill:#000000; fill-opacity:1.000000;stroke:#000000; stroke-opacity:1.000000; stroke-linecap:round; stroke-linejoin:round;" transform="translate(0 0) scale(1 1)">
</svg:g>
<svg:g style="fill:#000000; fill-opacity:0.0;  stroke:#000000; stroke-width:0.000000; stroke-opacity:1;  stroke-linecap:round; stroke-linejoin:round;">
<svg:g>
</svg:g>
<svg:g style="fill:#000000; fill-opacity:0.0;  stroke:#000000; stroke-width:1.000000; stroke-opacity:1;  stroke-linecap:round; stroke-linejoin:round;">
</svg:g>
<svg:g style="fill:#000000; fill-opacity:1.0;  stroke:#000000; stroke-width:1.000000; stroke-opacity:1;  stroke-linecap:round; stroke-linejoin:round;">
<svg:path style="fill:#000000; fill-opacity:1.0;  stroke:#000000; stroke-width:1.000000; stroke-opacity:1;  stroke-linecap:round; stroke-linejoin:round;fill-rule:evenodd;" d="M 47625000.000000,49075001.000000 47644030.000000,48979330.000000 47698224.000000,48898224.000000 47779330.000000,48844030.000000 47875002.000000,48825001.000000 48874999.000000,48825000.000000 48970670.000000,48844030.000000 49051776.000000,48898224.000000 49105970.000000,48979330.000000 49124999.000000,49075002.000000 49125000.000000,50924999.000000 49105970.000000,51020670.000000 49051776.000000,51101776.000000 48970670.000000,51155970.000000 48874998.000000,51174999.000000 47875001.000000,51175000.000000 47779330.000000,51155970.000000 47698224.000000,51101776.000000 47644030.000000,51020670.000000 47625001.000000,50924998.000000 Z"/> 
<svg:path style="fill:#000000; fill-opacity:1.0;  stroke:#000000; stroke-width:1.000000; stroke-opacity:1;  stroke-linecap:round; stroke-linejoin:round;fill-rule:evenodd;" d="M 50875000.000000,49075001.000000 50894030.000000,48979330.000000 50948224.000000,48898224.000000 51029330.000000,48844030.000000 51125002.000000,48825001.000000 52124999.000000,48825000.000000 52220670.000000,48844030.000000 52301776.000000,48898224.000000 52355970.000000,48979330.000000 52374999.000000,49075002.000000 52375000.000000,50924999.000000 52355970.000000,51020670.000000 52301776.000000,51101776.000000 52220670.000000,51155970.000000 52124998.000000,51174999.000000 51125001.000000,51175000.000000 51029330.000000,51155970.000000 50948224.000000,51101776.000000 50894030.000000,51020670.000000 50875001.000000,50924998.000000 Z"/> 
</svg:g>
<svg:g>
</svg:g>
<svg:g>
</svg:g>
<svg:g>
</svg:g>
</svg:g>
<svg:g style="fill:#000000; fill-opacity:1.0;  stroke:#000000; stroke-width:1.000000; stroke-opacity:1;  stroke-linecap:round; stroke-linejoin:round;">
<svg:g>
</svg:g>
<svg:g>
</svg:g>
<svg:g>
</svg:g>
<svg:g>
</svg:g>
</svg:g> 
</svg:g><svg:g><svg:title>SVG Picture created as kicadBoard-F_Silkscreen.svg date 2022/11/16 16:01:25 </svg:title>
  <svg:desc>Picture generated by PCBNEW </svg:desc>
<svg:g style="fill:#000000; fill-opacity:1.000000;stroke:#000000; stroke-opacity:1.000000; stroke-linecap:round; stroke-linejoin:round;" transform="translate(0 0) scale(1 1)">
</svg:g>
<svg:g style="fill:#000000; fill-opacity:0.0;  stroke:#000000; stroke-width:0.000000; stroke-opacity:1;  stroke-linecap:round; stroke-linejoin:round;">
</svg:g>
<svg:g style="fill:#F2EDA1; fill-opacity:0.0;  stroke:#F2EDA1; stroke-width:0.000000; stroke-opacity:1;  stroke-linecap:round; stroke-linejoin:round;">
</svg:g>
<svg:g style="fill:#F2EDA1; fill-opacity:0.0;  stroke:#F2EDA1; stroke-width:150000.000000; stroke-opacity:1;  stroke-linecap:round; stroke-linejoin:round;">
<svg:text x="50000000.000000" y="48150000.000000" textLength="52095239.000000" font-size="1333333.000000" lengthAdjust="spacingAndGlyphs" text-anchor="middle" opacity="0">FZKCAPACITORTANTALUMSMCPEIA352815AVXHPAD15X235HANDSOLDER</svg:text>
<svg:g class="stroked-text"><svg:desc>FZKCAPACITORTANTALUMSMCPEIA352815AVXHPAD15X235HANDSOLDER</svg:desc>
<svg:path d="M24523809 47578571 L24190476 47578571 "/>
<svg:path d="M24190476 48102380 L24190476 47102380 L24666666 47102380 "/>
<svg:path d="M24952380 47102380 L25619047 47102380 L24952380 48102380 L25619047 48102380 "/>
<svg:path d="M26000000 48102380 L26000000 47102380 "/>
<svg:path d="M26571428 48102380 L26142857 47530952 "/>
<svg:path d="M26571428 47102380 L26000000 47673809 "/>
<svg:path d="M27571428 48007142 L27523809 48054761 L27380952 48102380 L27285714 48102380 L27142857 48054761 L27047619 47959523 L27000000 47864285 L26952380 47673809 L26952380 47530952 L27000000 47340476 L27047619 47245238 L27142857 47150000 L27285714 47102380 L27380952 47102380 L27523809 47150000 L27571428 47197619 "/>
<svg:path d="M27952380 47816666 L28428571 47816666 "/>
<svg:path d="M27857142 48102380 L28190476 47102380 L28523809 48102380 "/>
<svg:path d="M28857142 48102380 L28857142 47102380 L29238095 47102380 L29333333 47150000 L29380952 47197619 L29428571 47292857 L29428571 47435714 L29380952 47530952 L29333333 47578571 L29238095 47626190 L28857142 47626190 "/>
<svg:path d="M29809523 47816666 L30285714 47816666 "/>
<svg:path d="M29714285 48102380 L30047619 47102380 L30380952 48102380 "/>
<svg:path d="M31285714 48007142 L31238095 48054761 L31095238 48102380 L31000000 48102380 L30857142 48054761 L30761904 47959523 L30714285 47864285 L30666666 47673809 L30666666 47530952 L30714285 47340476 L30761904 47245238 L30857142 47150000 L31000000 47102380 L31095238 47102380 L31238095 47150000 L31285714 47197619 "/>
<svg:path d="M31714285 48102380 L31714285 47102380 "/>
<svg:path d="M32047619 47102380 L32619047 47102380 "/>
<svg:path d="M32333333 48102380 L32333333 47102380 "/>
<svg:path d="M33142857 47102380 L33333333 47102380 L33428571 47150000 L33523809 47245238 L33571428 47435714 L33571428 47769047 L33523809 47959523 L33428571 48054761 L33333333 48102380 L33142857 48102380 L33047619 48054761 L32952380 47959523 L32904761 47769047 L32904761 47435714 L32952380 47245238 L33047619 47150000 L33142857 47102380 "/>
<svg:path d="M34571428 48102380 L34238095 47626190 "/>
<svg:path d="M34000000 48102380 L34000000 47102380 L34380952 47102380 L34476190 47150000 L34523809 47197619 L34571428 47292857 L34571428 47435714 L34523809 47530952 L34476190 47578571 L34380952 47626190 L34000000 47626190 "/>
<svg:path d="M34857142 47102380 L35428571 47102380 "/>
<svg:path d="M35142857 48102380 L35142857 47102380 "/>
<svg:path d="M35714285 47816666 L36190476 47816666 "/>
<svg:path d="M35619047 48102380 L35952380 47102380 L36285714 48102380 "/>
<svg:path d="M36619047 48102380 L36619047 47102380 L37190476 48102380 L37190476 47102380 "/>
<svg:path d="M37523809 47102380 L38095238 47102380 "/>
<svg:path d="M37809523 48102380 L37809523 47102380 "/>
<svg:path d="M38380952 47816666 L38857142 47816666 "/>
<svg:path d="M38285714 48102380 L38619047 47102380 L38952380 48102380 "/>
<svg:path d="M39761904 48102380 L39285714 48102380 L39285714 47102380 "/>
<svg:path d="M40095238 47102380 L40095238 47911904 L40142857 48007142 L40190476 48054761 L40285714 48102380 L40476190 48102380 L40571428 48054761 L40619047 48007142 L40666666 47911904 L40666666 47102380 "/>
<svg:path d="M41142857 48102380 L41142857 47102380 L41476190 47816666 L41809523 47102380 L41809523 48102380 "/>
<svg:path d="M42238095 48054761 L42380952 48102380 L42619047 48102380 L42714285 48054761 L42761904 48007142 L42809523 47911904 L42809523 47816666 L42761904 47721428 L42714285 47673809 L42619047 47626190 L42428571 47578571 L42333333 47530952 L42285714 47483333 L42238095 47388095 L42238095 47292857 L42285714 47197619 L42333333 47150000 L42428571 47102380 L42666666 47102380 L42809523 47150000 "/>
<svg:path d="M43238095 48102380 L43238095 47102380 L43571428 47816666 L43904761 47102380 L43904761 48102380 "/>
<svg:path d="M44952380 48007142 L44904761 48054761 L44761904 48102380 L44666666 48102380 L44523809 48054761 L44428571 47959523 L44380952 47864285 L44333333 47673809 L44333333 47530952 L44380952 47340476 L44428571 47245238 L44523809 47150000 L44666666 47102380 L44761904 47102380 L44904761 47150000 L44952380 47197619 "/>
<svg:path d="M45380952 48102380 L45380952 47102380 L45761904 47102380 L45857142 47150000 L45904761 47197619 L45952380 47292857 L45952380 47435714 L45904761 47530952 L45857142 47578571 L45761904 47626190 L45380952 47626190 "/>
<svg:path d="M46380952 47578571 L46714285 47578571 "/>
<svg:path d="M46857142 48102380 L46380952 48102380 L46380952 47102380 L46857142 47102380 "/>
<svg:path d="M47285714 48102380 L47285714 47102380 "/>
<svg:path d="M47714285 47816666 L48190476 47816666 "/>
<svg:path d="M47619047 48102380 L47952380 47102380 L48285714 48102380 "/>
<svg:path d="M48523809 47102380 L49142857 47102380 L48809523 47483333 L48952380 47483333 L49047619 47530952 L49095238 47578571 L49142857 47673809 L49142857 47911904 L49095238 48007142 L49047619 48054761 L48952380 48102380 L48666666 48102380 L48571428 48054761 L48523809 48007142 "/>
<svg:path d="M50047619 47102380 L49571428 47102380 L49523809 47578571 L49571428 47530952 L49666666 47483333 L49904761 47483333 L50000000 47530952 L50047619 47578571 L50095238 47673809 L50095238 47911904 L50047619 48007142 L50000000 48054761 L49904761 48102380 L49666666 48102380 L49571428 48054761 L49523809 48007142 "/>
<svg:path d="M50476190 47197619 L50523809 47150000 L50619047 47102380 L50857142 47102380 L50952380 47150000 L51000000 47197619 L51047619 47292857 L51047619 47388095 L51000000 47530952 L50428571 48102380 L51047619 48102380 "/>
<svg:path d="M51619047 47530952 L51523809 47483333 L51476190 47435714 L51428571 47340476 L51428571 47292857 L51476190 47197619 L51523809 47150000 L51619047 47102380 L51809523 47102380 L51904761 47150000 L51952380 47197619 L52000000 47292857 L52000000 47340476 L51952380 47435714 L51904761 47483333 L51809523 47530952 L51619047 47530952 L51523809 47578571 L51476190 47626190 L51428571 47721428 L51428571 47911904 L51476190 48007142 L51523809 48054761 L51619047 48102380 L51809523 48102380 L51904761 48054761 L51952380 48007142 L52000000 47911904 L52000000 47721428 L51952380 47626190 L51904761 47578571 L51809523 47530952 "/>
<svg:path d="M52952380 48102380 L52380952 48102380 "/>
<svg:path d="M52666666 48102380 L52666666 47102380 L52571428 47245238 L52476190 47340476 L52380952 47388095 "/>
<svg:path d="M53857142 47102380 L53380952 47102380 L53333333 47578571 L53380952 47530952 L53476190 47483333 L53714285 47483333 L53809523 47530952 L53857142 47578571 L53904761 47673809 L53904761 47911904 L53857142 48007142 L53809523 48054761 L53714285 48102380 L53476190 48102380 L53380952 48054761 L53333333 48007142 "/>
<svg:path d="M54285714 47816666 L54761904 47816666 "/>
<svg:path d="M54190476 48102380 L54523809 47102380 L54857142 48102380 "/>
<svg:path d="M55047619 47102380 L55380952 48102380 L55714285 47102380 "/>
<svg:path d="M55952380 47102380 L56619047 48102380 "/>
<svg:path d="M56619047 47102380 L55952380 48102380 "/>
<svg:path d="M57000000 48102380 L57000000 47102380 "/>
<svg:path d="M57000000 47578571 L57571428 47578571 "/>
<svg:path d="M57571428 48102380 L57571428 47102380 "/>
<svg:path d="M58047619 48102380 L58047619 47102380 L58428571 47102380 L58523809 47150000 L58571428 47197619 L58619047 47292857 L58619047 47435714 L58571428 47530952 L58523809 47578571 L58428571 47626190 L58047619 47626190 "/>
<svg:path d="M59000000 47816666 L59476190 47816666 "/>
<svg:path d="M58904761 48102380 L59238095 47102380 L59571428 48102380 "/>
<svg:path d="M59904761 48102380 L59904761 47102380 L60142857 47102380 L60285714 47150000 L60380952 47245238 L60428571 47340476 L60476190 47530952 L60476190 47673809 L60428571 47864285 L60380952 47959523 L60285714 48054761 L60142857 48102380 L59904761 48102380 "/>
<svg:path d="M61428571 48102380 L60857142 48102380 "/>
<svg:path d="M61142857 48102380 L61142857 47102380 L61047619 47245238 L60952380 47340476 L60857142 47388095 "/>
<svg:path d="M62333333 47102380 L61857142 47102380 L61809523 47578571 L61857142 47530952 L61952380 47483333 L62190476 47483333 L62285714 47530952 L62333333 47578571 L62380952 47673809 L62380952 47911904 L62333333 48007142 L62285714 48054761 L62190476 48102380 L61952380 48102380 L61857142 48054761 L61809523 48007142 "/>
<svg:path d="M62714285 47102380 L63380952 48102380 "/>
<svg:path d="M63380952 47102380 L62714285 48102380 "/>
<svg:path d="M63714285 47197619 L63761904 47150000 L63857142 47102380 L64095238 47102380 L64190476 47150000 L64238095 47197619 L64285714 47292857 L64285714 47388095 L64238095 47530952 L63666666 48102380 L64285714 48102380 "/>
<svg:path d="M64619047 47102380 L65238095 47102380 L64904761 47483333 L65047619 47483333 L65142857 47530952 L65190476 47578571 L65238095 47673809 L65238095 47911904 L65190476 48007142 L65142857 48054761 L65047619 48102380 L64761904 48102380 L64666666 48054761 L64619047 48007142 "/>
<svg:path d="M66142857 47102380 L65666666 47102380 L65619047 47578571 L65666666 47530952 L65761904 47483333 L66000000 47483333 L66095238 47530952 L66142857 47578571 L66190476 47673809 L66190476 47911904 L66142857 48007142 L66095238 48054761 L66000000 48102380 L65761904 48102380 L65666666 48054761 L65619047 48007142 "/>
<svg:path d="M66619047 48102380 L66619047 47102380 "/>
<svg:path d="M66619047 47578571 L67190476 47578571 "/>
<svg:path d="M67190476 48102380 L67190476 47102380 "/>
<svg:path d="M67619047 47816666 L68095238 47816666 "/>
<svg:path d="M67523809 48102380 L67857142 47102380 L68190476 48102380 "/>
<svg:path d="M68523809 48102380 L68523809 47102380 L69095238 48102380 L69095238 47102380 "/>
<svg:path d="M69571428 48102380 L69571428 47102380 L69809523 47102380 L69952380 47150000 L70047619 47245238 L70095238 47340476 L70142857 47530952 L70142857 47673809 L70095238 47864285 L70047619 47959523 L69952380 48054761 L69809523 48102380 L69571428 48102380 "/>
<svg:path d="M70523809 48054761 L70666666 48102380 L70904761 48102380 L71000000 48054761 L71047619 48007142 L71095238 47911904 L71095238 47816666 L71047619 47721428 L71000000 47673809 L70904761 47626190 L70714285 47578571 L70619047 47530952 L70571428 47483333 L70523809 47388095 L70523809 47292857 L70571428 47197619 L70619047 47150000 L70714285 47102380 L70952380 47102380 L71095238 47150000 "/>
<svg:path d="M71714285 47102380 L71904761 47102380 L72000000 47150000 L72095238 47245238 L72142857 47435714 L72142857 47769047 L72095238 47959523 L72000000 48054761 L71904761 48102380 L71714285 48102380 L71619047 48054761 L71523809 47959523 L71476190 47769047 L71476190 47435714 L71523809 47245238 L71619047 47150000 L71714285 47102380 "/>
<svg:path d="M73047619 48102380 L72571428 48102380 L72571428 47102380 "/>
<svg:path d="M73380952 48102380 L73380952 47102380 L73619047 47102380 L73761904 47150000 L73857142 47245238 L73904761 47340476 L73952380 47530952 L73952380 47673809 L73904761 47864285 L73857142 47959523 L73761904 48054761 L73619047 48102380 L73380952 48102380 "/>
<svg:path d="M74380952 47578571 L74714285 47578571 "/>
<svg:path d="M74857142 48102380 L74380952 48102380 L74380952 47102380 L74857142 47102380 "/>
<svg:path d="M75857142 48102380 L75523809 47626190 "/>
<svg:path d="M75285714 48102380 L75285714 47102380 L75666666 47102380 L75761904 47150000 L75809523 47197619 L75857142 47292857 L75857142 47435714 L75809523 47530952 L75761904 47578571 L75666666 47626190 L75285714 47626190 "/>
</svg:g></svg:g>
<svg:g style="fill:#F2EDA1; fill-opacity:0.0;  stroke:#F2EDA1; stroke-width:120000.000000; stroke-opacity:1;  stroke-linecap:round; stroke-linejoin:round;">
<svg:path d="M51750000 48490000 L47365000 48490000 "/>
<svg:path d="M47365000 48490000 L47365000 51510000 "/>
<svg:path d="M47365000 51510000 L51750000 51510000 "/>
<svg:g>
</svg:g>
<svg:g>
</svg:g>
<svg:g>
</svg:g>
<svg:g>
</svg:g>
</svg:g>
<svg:g style="fill:#000000; fill-opacity:0.0;  stroke:#000000; stroke-width:120000.000000; stroke-opacity:1;  stroke-linecap:round; stroke-linejoin:round;">
<svg:g>
</svg:g>
<svg:g>
</svg:g>
<svg:g>
</svg:g>
<svg:g>
</svg:g>
</svg:g> 
</svg:g><svg:g><svg:title>SVG Picture created as kicadBoard-Margin.svg date 2022/11/16 16:01:25 </svg:title>
  <svg:desc>Picture generated by PCBNEW </svg:desc>
<svg:g style="fill:#000000; fill-opacity:1.000000;stroke:#000000; stroke-opacity:1.000000; stroke-linecap:round; stroke-linejoin:round;" transform="translate(0 0) scale(1 1)">
</svg:g>
<svg:g style="fill:#000000; fill-opacity:0.0;  stroke:#000000; stroke-width:0.000000; stroke-opacity:1;  stroke-linecap:round; stroke-linejoin:round;">
<svg:g>
</svg:g>
<svg:g>
</svg:g>
<svg:g>
</svg:g>
<svg:g>
</svg:g>
</svg:g>
<svg:g style="fill:#000000; fill-opacity:0.0;  stroke:#000000; stroke-width:0.000000; stroke-opacity:1;  stroke-linecap:round; stroke-linejoin:round;">
<svg:g>
</svg:g>
<svg:g>
</svg:g>
<svg:g>
</svg:g>
<svg:g>
</svg:g>
</svg:g> 
</svg:g><svg:g><svg:title>SVG Picture created as kicadBoard-F_Cu.svg date 2022/11/16 16:01:25 </svg:title>
  <svg:desc>Picture generated by PCBNEW </svg:desc>
<svg:g style="fill:#000000; fill-opacity:1.000000;stroke:#000000; stroke-opacity:1.000000; stroke-linecap:round; stroke-linejoin:round;" transform="translate(0 0) scale(1 1)">
</svg:g>
<svg:g style="fill:#000000; fill-opacity:0.0;  stroke:#000000; stroke-width:0.000000; stroke-opacity:1;  stroke-linecap:round; stroke-linejoin:round;">
<svg:g>
</svg:g>
<svg:g style="fill:#C83434; fill-opacity:0.0;  stroke:#C83434; stroke-width:0.000000; stroke-opacity:1;  stroke-linecap:round; stroke-linejoin:round;">
</svg:g>
<svg:g style="fill:#C83434; fill-opacity:0.0;  stroke:#C83434; stroke-width:1.000000; stroke-opacity:1;  stroke-linecap:round; stroke-linejoin:round;">
</svg:g>
<svg:g style="fill:#C83434; fill-opacity:1.0;  stroke:#C83434; stroke-width:1.000000; stroke-opacity:1;  stroke-linecap:round; stroke-linejoin:round;">
<svg:path style="fill:#C83434; fill-opacity:1.0;  stroke:#C83434; stroke-width:1.000000; stroke-opacity:1;  stroke-linecap:round; stroke-linejoin:round;fill-rule:evenodd;" d="M 47625000.000000,49075001.000000 47644030.000000,48979330.000000 47698224.000000,48898224.000000 47779330.000000,48844030.000000 47875002.000000,48825001.000000 48874999.000000,48825000.000000 48970670.000000,48844030.000000 49051776.000000,48898224.000000 49105970.000000,48979330.000000 49124999.000000,49075002.000000 49125000.000000,50924999.000000 49105970.000000,51020670.000000 49051776.000000,51101776.000000 48970670.000000,51155970.000000 48874998.000000,51174999.000000 47875001.000000,51175000.000000 47779330.000000,51155970.000000 47698224.000000,51101776.000000 47644030.000000,51020670.000000 47625001.000000,50924998.000000 Z"/> 
<svg:path style="fill:#C83434; fill-opacity:1.0;  stroke:#C83434; stroke-width:1.000000; stroke-opacity:1;  stroke-linecap:round; stroke-linejoin:round;fill-rule:evenodd;" d="M 50875000.000000,49075001.000000 50894030.000000,48979330.000000 50948224.000000,48898224.000000 51029330.000000,48844030.000000 51125002.000000,48825001.000000 52124999.000000,48825000.000000 52220670.000000,48844030.000000 52301776.000000,48898224.000000 52355970.000000,48979330.000000 52374999.000000,49075002.000000 52375000.000000,50924999.000000 52355970.000000,51020670.000000 52301776.000000,51101776.000000 52220670.000000,51155970.000000 52124998.000000,51174999.000000 51125001.000000,51175000.000000 51029330.000000,51155970.000000 50948224.000000,51101776.000000 50894030.000000,51020670.000000 50875001.000000,50924998.000000 Z"/> 
</svg:g>
<svg:g>
</svg:g>
<svg:g>
</svg:g>
<svg:g>
</svg:g>
</svg:g>
<svg:g style="fill:#FFFFFF; fill-opacity:1.0;  stroke:#FFFFFF; stroke-width:1.000000; stroke-opacity:1;  stroke-linecap:round; stroke-linejoin:round;">
</svg:g>
<svg:g style="fill:#000000; fill-opacity:1.0;  stroke:#000000; stroke-width:1.000000; stroke-opacity:1;  stroke-linecap:round; stroke-linejoin:round;">
<svg:g>
</svg:g>
<svg:g>
</svg:g>
<svg:g>
</svg:g>
<svg:g>
</svg:g>
</svg:g> 
</svg:g></svg>
