<?xml version='1.0' encoding='ASCII' standalone='yes'?>
<svg xmlns:svg="http://www.w3.org/2000/svg" xmlns="http://www.w3.org/2000/svg" xmlns:xlink="http://www.w3.org/1999/xlink" version="1.1" width="9.999980cm" height="9.999980cm" viewBox="0 0 99999800 99999800">
<title>SVG Picture created as kicadBoard-B_Cu.svg date 2022/12/02 00:05:18 </title>
  <desc>Picture generated by PCBNEW </desc>
<g style="fill:#000000; fill-opacity:1.000000;stroke:#000000; stroke-opacity:1.000000; stroke-linecap:round; stroke-linejoin:round;" transform="translate(0 0) scale(1 1)">
</g>
<g style="fill:#000000; fill-opacity:0.0;  stroke:#000000; stroke-width:0.000000; stroke-opacity:1;  stroke-linecap:round; stroke-linejoin:round;">
<g>
</g>
<g>
</g>
<g>
</g>
<g>
</g>
</g>
<g style="fill:#FFFFFF; fill-opacity:0.0;  stroke:#FFFFFF; stroke-width:0.000000; stroke-opacity:1;  stroke-linecap:round; stroke-linejoin:round;">
</g>
<g style="fill:#000000; fill-opacity:0.0;  stroke:#000000; stroke-width:0.000000; stroke-opacity:1;  stroke-linecap:round; stroke-linejoin:round;">
<g>
</g>
<g>
</g>
<g>
</g>
<g>
</g>
</g> 
<svg:g><svg:title>SVG Picture created as kicadBoard-B_Adhesive.svg date 2022/12/02 00:05:18 </svg:title>
  <svg:desc>Picture generated by PCBNEW </svg:desc>
<svg:g style="fill:#000000; fill-opacity:1.000000;stroke:#000000; stroke-opacity:1.000000; stroke-linecap:round; stroke-linejoin:round;" transform="translate(0 0) scale(1 1)">
</svg:g>
<svg:g style="fill:#000000; fill-opacity:0.0;  stroke:#000000; stroke-width:0.000000; stroke-opacity:1;  stroke-linecap:round; stroke-linejoin:round;">
<svg:g>
</svg:g>
<svg:g>
</svg:g>
<svg:g>
</svg:g>
<svg:g>
</svg:g>
</svg:g>
<svg:g style="fill:#000000; fill-opacity:0.0;  stroke:#000000; stroke-width:0.000000; stroke-opacity:1;  stroke-linecap:round; stroke-linejoin:round;">
<svg:g>
</svg:g>
<svg:g>
</svg:g>
<svg:g>
</svg:g>
<svg:g>
</svg:g>
</svg:g> 
</svg:g><svg:g><svg:title>SVG Picture created as kicadBoard-B_Courtyard.svg date 2022/12/02 00:05:18 </svg:title>
  <svg:desc>Picture generated by PCBNEW </svg:desc>
<svg:g style="fill:#000000; fill-opacity:1.000000;stroke:#000000; stroke-opacity:1.000000; stroke-linecap:round; stroke-linejoin:round;" transform="translate(0 0) scale(1 1)">
</svg:g>
<svg:g style="fill:#000000; fill-opacity:0.0;  stroke:#000000; stroke-width:0.000000; stroke-opacity:1;  stroke-linecap:round; stroke-linejoin:round;">
<svg:g>
</svg:g>
<svg:g>
</svg:g>
<svg:g>
</svg:g>
<svg:g>
</svg:g>
</svg:g>
<svg:g style="fill:#000000; fill-opacity:0.0;  stroke:#000000; stroke-width:0.000000; stroke-opacity:1;  stroke-linecap:round; stroke-linejoin:round;">
<svg:g>
</svg:g>
<svg:g>
</svg:g>
<svg:g>
</svg:g>
<svg:g>
</svg:g>
</svg:g> 
</svg:g><svg:g><svg:title>SVG Picture created as kicadBoard-B_Fab.svg date 2022/12/02 00:05:18 </svg:title>
  <svg:desc>Picture generated by PCBNEW </svg:desc>
<svg:g style="fill:#000000; fill-opacity:1.000000;stroke:#000000; stroke-opacity:1.000000; stroke-linecap:round; stroke-linejoin:round;" transform="translate(0 0) scale(1 1)">
</svg:g>
<svg:g style="fill:#000000; fill-opacity:0.0;  stroke:#000000; stroke-width:0.000000; stroke-opacity:1;  stroke-linecap:round; stroke-linejoin:round;">
<svg:g>
</svg:g>
<svg:g>
</svg:g>
<svg:g>
</svg:g>
<svg:g>
</svg:g>
</svg:g>
<svg:g style="fill:#000000; fill-opacity:0.0;  stroke:#000000; stroke-width:0.000000; stroke-opacity:1;  stroke-linecap:round; stroke-linejoin:round;">
<svg:g>
</svg:g>
<svg:g>
</svg:g>
<svg:g>
</svg:g>
<svg:g>
</svg:g>
</svg:g> 
</svg:g><svg:g><svg:title>SVG Picture created as kicadBoard-B_Mask.svg date 2022/12/02 00:05:18 </svg:title>
  <svg:desc>Picture generated by PCBNEW </svg:desc>
<svg:g style="fill:#000000; fill-opacity:1.000000;stroke:#000000; stroke-opacity:1.000000; stroke-linecap:round; stroke-linejoin:round;" transform="translate(0 0) scale(1 1)">
</svg:g>
<svg:g style="fill:#000000; fill-opacity:0.0;  stroke:#000000; stroke-width:0.000000; stroke-opacity:1;  stroke-linecap:round; stroke-linejoin:round;">
<svg:g>
</svg:g>
<svg:g>
</svg:g>
<svg:g>
</svg:g>
<svg:g>
</svg:g>
</svg:g>
<svg:g style="fill:#000000; fill-opacity:0.0;  stroke:#000000; stroke-width:0.000000; stroke-opacity:1;  stroke-linecap:round; stroke-linejoin:round;">
<svg:g>
</svg:g>
<svg:g>
</svg:g>
<svg:g>
</svg:g>
<svg:g>
</svg:g>
</svg:g> 
</svg:g><svg:g><svg:title>SVG Picture created as kicadBoard-B_Paste.svg date 2022/12/02 00:05:18 </svg:title>
  <svg:desc>Picture generated by PCBNEW </svg:desc>
<svg:g style="fill:#000000; fill-opacity:1.000000;stroke:#000000; stroke-opacity:1.000000; stroke-linecap:round; stroke-linejoin:round;" transform="translate(0 0) scale(1 1)">
</svg:g>
<svg:g style="fill:#000000; fill-opacity:0.0;  stroke:#000000; stroke-width:0.000000; stroke-opacity:1;  stroke-linecap:round; stroke-linejoin:round;">
<svg:g>
</svg:g>
<svg:g>
</svg:g>
<svg:g>
</svg:g>
<svg:g>
</svg:g>
</svg:g>
<svg:g style="fill:#000000; fill-opacity:0.0;  stroke:#000000; stroke-width:0.000000; stroke-opacity:1;  stroke-linecap:round; stroke-linejoin:round;">
<svg:g>
</svg:g>
<svg:g>
</svg:g>
<svg:g>
</svg:g>
<svg:g>
</svg:g>
</svg:g> 
</svg:g><svg:g><svg:title>SVG Picture created as kicadBoard-B_Silkscreen.svg date 2022/12/02 00:05:18 </svg:title>
  <svg:desc>Picture generated by PCBNEW </svg:desc>
<svg:g style="fill:#000000; fill-opacity:1.000000;stroke:#000000; stroke-opacity:1.000000; stroke-linecap:round; stroke-linejoin:round;" transform="translate(0 0) scale(1 1)">
</svg:g>
<svg:g style="fill:#000000; fill-opacity:0.0;  stroke:#000000; stroke-width:0.000000; stroke-opacity:1;  stroke-linecap:round; stroke-linejoin:round;">
<svg:g>
</svg:g>
<svg:g>
</svg:g>
<svg:g>
</svg:g>
<svg:g>
</svg:g>
</svg:g>
<svg:g style="fill:#000000; fill-opacity:0.0;  stroke:#000000; stroke-width:0.000000; stroke-opacity:1;  stroke-linecap:round; stroke-linejoin:round;">
<svg:g>
</svg:g>
<svg:g>
</svg:g>
<svg:g>
</svg:g>
<svg:g>
</svg:g>
</svg:g> 
</svg:g><svg:g><svg:title>SVG Picture created as kicadBoard-Edge_Cuts.svg date 2022/12/02 00:05:18 </svg:title>
  <svg:desc>Picture generated by PCBNEW </svg:desc>
<svg:g style="fill:#000000; fill-opacity:1.000000;stroke:#000000; stroke-opacity:1.000000; stroke-linecap:round; stroke-linejoin:round;" transform="translate(0 0) scale(1 1)">
</svg:g>
<svg:g style="fill:#000000; fill-opacity:0.0;  stroke:#000000; stroke-width:0.000000; stroke-opacity:1;  stroke-linecap:round; stroke-linejoin:round;">
<svg:g>
</svg:g>
<svg:g>
</svg:g>
<svg:g>
</svg:g>
<svg:g>
</svg:g>
</svg:g> 
</svg:g><svg:g><svg:title>SVG Picture created as kicadBoard-F_Adhesive.svg date 2022/12/02 00:05:18 </svg:title>
  <svg:desc>Picture generated by PCBNEW </svg:desc>
<svg:g style="fill:#000000; fill-opacity:1.000000;stroke:#000000; stroke-opacity:1.000000; stroke-linecap:round; stroke-linejoin:round;" transform="translate(0 0) scale(1 1)">
</svg:g>
<svg:g style="fill:#000000; fill-opacity:0.0;  stroke:#000000; stroke-width:0.000000; stroke-opacity:1;  stroke-linecap:round; stroke-linejoin:round;">
<svg:g>
</svg:g>
<svg:g>
</svg:g>
<svg:g>
</svg:g>
<svg:g>
</svg:g>
</svg:g>
<svg:g style="fill:#000000; fill-opacity:0.0;  stroke:#000000; stroke-width:0.000000; stroke-opacity:1;  stroke-linecap:round; stroke-linejoin:round;">
<svg:g>
</svg:g>
<svg:g>
</svg:g>
<svg:g>
</svg:g>
<svg:g>
</svg:g>
</svg:g> 
</svg:g><svg:g><svg:title>SVG Picture created as kicadBoard-F_Courtyard.svg date 2022/12/02 00:05:18 </svg:title>
  <svg:desc>Picture generated by PCBNEW </svg:desc>
<svg:g style="fill:#000000; fill-opacity:1.000000;stroke:#000000; stroke-opacity:1.000000; stroke-linecap:round; stroke-linejoin:round;" transform="translate(0 0) scale(1 1)">
</svg:g>
<svg:g style="fill:#000000; fill-opacity:0.0;  stroke:#000000; stroke-width:0.000000; stroke-opacity:1;  stroke-linecap:round; stroke-linejoin:round;">
</svg:g>
<svg:g style="fill:#FF26E2; fill-opacity:0.0;  stroke:#FF26E2; stroke-width:0.000000; stroke-opacity:1;  stroke-linecap:round; stroke-linejoin:round;">
</svg:g>
<svg:g style="fill:#FF26E2; fill-opacity:0.0;  stroke:#FF26E2; stroke-width:50000.000000; stroke-opacity:1;  stroke-linecap:round; stroke-linejoin:round;">
<svg:path d="M46000000 47300000 L54000000 47300000 "/>
<svg:path d="M46000000 52700000 L54000000 52700000 "/>
<svg:path d="M46000000 47300000 L46000000 52700000 "/>
<svg:path d="M54000000 47300000 L54000000 52700000 "/>
<svg:g>
</svg:g>
<svg:g>
</svg:g>
<svg:g>
</svg:g>
<svg:g>
</svg:g>
</svg:g>
<svg:g style="fill:#000000; fill-opacity:0.0;  stroke:#000000; stroke-width:50000.000000; stroke-opacity:1;  stroke-linecap:round; stroke-linejoin:round;">
<svg:g>
</svg:g>
<svg:g>
</svg:g>
<svg:g>
</svg:g>
<svg:g>
</svg:g>
</svg:g> 
</svg:g><svg:g><svg:title>SVG Picture created as kicadBoard-F_Cu.svg date 2022/12/02 00:05:18 </svg:title>
  <svg:desc>Picture generated by PCBNEW </svg:desc>
<svg:g style="fill:#000000; fill-opacity:1.000000;stroke:#000000; stroke-opacity:1.000000; stroke-linecap:round; stroke-linejoin:round;" transform="translate(0 0) scale(1 1)">
</svg:g>
<svg:g style="fill:#000000; fill-opacity:0.0;  stroke:#000000; stroke-width:0.000000; stroke-opacity:1;  stroke-linecap:round; stroke-linejoin:round;">
<svg:g>
</svg:g>
<svg:g style="fill:#C83434; fill-opacity:0.0;  stroke:#C83434; stroke-width:0.000000; stroke-opacity:1;  stroke-linecap:round; stroke-linejoin:round;">
</svg:g>
<svg:g style="fill:#C83434; fill-opacity:0.0;  stroke:#C83434; stroke-width:1.000000; stroke-opacity:1;  stroke-linecap:round; stroke-linejoin:round;">
</svg:g>
<svg:g style="fill:#C83434; fill-opacity:1.0;  stroke:#C83434; stroke-width:1.000000; stroke-opacity:1;  stroke-linecap:round; stroke-linejoin:round;">
<svg:path style="fill:#C83434; fill-opacity:1.0;  stroke:#C83434; stroke-width:1.000000; stroke-opacity:1;  stroke-linecap:round; stroke-linejoin:round;fill-rule:evenodd;" d="M 46265001.000000,48399999.000000 46265001.000000,47790001.000000 48174999.000000,47790001.000000 48174999.000000,48399999.000000 Z"/> 
<svg:path style="fill:#C83434; fill-opacity:1.0;  stroke:#C83434; stroke-width:1.000000; stroke-opacity:1;  stroke-linecap:round; stroke-linejoin:round;fill-rule:evenodd;" d="M 46265001.000000,49669999.000000 46265001.000000,49060001.000000 48174999.000000,49060001.000000 48174999.000000,49669999.000000 Z"/> 
<svg:path style="fill:#C83434; fill-opacity:1.0;  stroke:#C83434; stroke-width:1.000000; stroke-opacity:1;  stroke-linecap:round; stroke-linejoin:round;fill-rule:evenodd;" d="M 46265001.000000,50939999.000000 46265001.000000,50330001.000000 48174999.000000,50330001.000000 48174999.000000,50939999.000000 Z"/> 
<svg:path style="fill:#C83434; fill-opacity:1.0;  stroke:#C83434; stroke-width:1.000000; stroke-opacity:1;  stroke-linecap:round; stroke-linejoin:round;fill-rule:evenodd;" d="M 46265001.000000,52209999.000000 46265001.000000,51600001.000000 48174999.000000,51600001.000000 48174999.000000,52209999.000000 Z"/> 
<svg:path style="fill:#C83434; fill-opacity:1.0;  stroke:#C83434; stroke-width:1.000000; stroke-opacity:1;  stroke-linecap:round; stroke-linejoin:round;fill-rule:evenodd;" d="M 51825001.000000,52209999.000000 51825001.000000,51600001.000000 53734999.000000,51600001.000000 53734999.000000,52209999.000000 Z"/> 
<svg:path style="fill:#C83434; fill-opacity:1.0;  stroke:#C83434; stroke-width:1.000000; stroke-opacity:1;  stroke-linecap:round; stroke-linejoin:round;fill-rule:evenodd;" d="M 51825001.000000,50939999.000000 51825001.000000,50330001.000000 53734999.000000,50330001.000000 53734999.000000,50939999.000000 Z"/> 
<svg:path style="fill:#C83434; fill-opacity:1.0;  stroke:#C83434; stroke-width:1.000000; stroke-opacity:1;  stroke-linecap:round; stroke-linejoin:round;fill-rule:evenodd;" d="M 51825001.000000,49669999.000000 51825001.000000,49060001.000000 53734999.000000,49060001.000000 53734999.000000,49669999.000000 Z"/> 
<svg:path style="fill:#C83434; fill-opacity:1.0;  stroke:#C83434; stroke-width:1.000000; stroke-opacity:1;  stroke-linecap:round; stroke-linejoin:round;fill-rule:evenodd;" d="M 51825001.000000,48399999.000000 51825001.000000,47790001.000000 53734999.000000,47790001.000000 53734999.000000,48399999.000000 Z"/> 
<svg:path style="fill:#C83434; fill-opacity:1.0;  stroke:#C83434; stroke-width:1.000000; stroke-opacity:1;  stroke-linecap:round; stroke-linejoin:round;fill-rule:evenodd;" d="M 48795001.000000,49999999.000000 48795001.000000,48450001.000000 49999999.000000,48450001.000000 49999999.000000,49999999.000000 Z"/> 
<svg:path style="fill:#C83434; fill-opacity:1.0;  stroke:#C83434; stroke-width:1.000000; stroke-opacity:1;  stroke-linecap:round; stroke-linejoin:round;fill-rule:evenodd;" d="M 50000001.000000,49999999.000000 50000001.000000,48450001.000000 51204999.000000,48450001.000000 51204999.000000,49999999.000000 Z"/> 
<svg:path style="fill:#C83434; fill-opacity:1.0;  stroke:#C83434; stroke-width:1.000000; stroke-opacity:1;  stroke-linecap:round; stroke-linejoin:round;fill-rule:evenodd;" d="M 48795001.000000,51549999.000000 48795001.000000,50000001.000000 49999999.000000,50000001.000000 49999999.000000,51549999.000000 Z"/> 
<svg:path style="fill:#C83434; fill-opacity:1.0;  stroke:#C83434; stroke-width:1.000000; stroke-opacity:1;  stroke-linecap:round; stroke-linejoin:round;fill-rule:evenodd;" d="M 50000001.000000,51549999.000000 50000001.000000,50000001.000000 51204999.000000,50000001.000000 51204999.000000,51549999.000000 Z"/> 
</svg:g>
<svg:g>
</svg:g>
<svg:g>
</svg:g>
<svg:g>
</svg:g>
</svg:g>
<svg:g style="fill:#FFFFFF; fill-opacity:1.0;  stroke:#FFFFFF; stroke-width:1.000000; stroke-opacity:1;  stroke-linecap:round; stroke-linejoin:round;">
</svg:g>
<svg:g style="fill:#000000; fill-opacity:1.0;  stroke:#000000; stroke-width:1.000000; stroke-opacity:1;  stroke-linecap:round; stroke-linejoin:round;">
<svg:g>
</svg:g>
<svg:g>
</svg:g>
<svg:g>
</svg:g>
<svg:g>
</svg:g>
</svg:g> 
</svg:g><svg:g><svg:title>SVG Picture created as kicadBoard-F_Fab.svg date 2022/12/02 00:05:18 </svg:title>
  <svg:desc>Picture generated by PCBNEW </svg:desc>
<svg:g style="fill:#000000; fill-opacity:1.000000;stroke:#000000; stroke-opacity:1.000000; stroke-linecap:round; stroke-linejoin:round;" transform="translate(0 0) scale(1 1)">
</svg:g>
<svg:g style="fill:#000000; fill-opacity:0.0;  stroke:#000000; stroke-width:0.000000; stroke-opacity:1;  stroke-linecap:round; stroke-linejoin:round;">
</svg:g>
<svg:g style="fill:#AFAFAF; fill-opacity:0.0;  stroke:#AFAFAF; stroke-width:0.000000; stroke-opacity:1;  stroke-linecap:round; stroke-linejoin:round;">
</svg:g>
<svg:g style="fill:#AFAFAF; fill-opacity:0.0;  stroke:#AFAFAF; stroke-width:150000.000000; stroke-opacity:1;  stroke-linecap:round; stroke-linejoin:round;">
<svg:text x="50000000.000000" y="53900000.000000" textLength="14909286.000000" font-size="1333333.000000" lengthAdjust="spacingAndGlyphs" text-anchor="middle" opacity="0">TI_SO-PowerPAD-8</svg:text>
<svg:g class="stroked-text"><svg:desc>TI_SO-PowerPAD-8</svg:desc>
<svg:path d="M42738095 52852380 L43309523 52852380 "/>
<svg:path d="M43023809 53852380 L43023809 52852380 "/>
<svg:path d="M43642857 53852380 L43642857 52852380 "/>
<svg:path d="M43880952 53947619 L44642857 53947619 "/>
<svg:path d="M44833333 53804761 L44976190 53852380 L45214285 53852380 L45309523 53804761 L45357142 53757142 L45404761 53661904 L45404761 53566666 L45357142 53471428 L45309523 53423809 L45214285 53376190 L45023809 53328571 L44928571 53280952 L44880952 53233333 L44833333 53138095 L44833333 53042857 L44880952 52947619 L44928571 52900000 L45023809 52852380 L45261904 52852380 L45404761 52900000 "/>
<svg:path d="M46023809 52852380 L46214285 52852380 L46309523 52900000 L46404761 52995238 L46452380 53185714 L46452380 53519047 L46404761 53709523 L46309523 53804761 L46214285 53852380 L46023809 53852380 L45928571 53804761 L45833333 53709523 L45785714 53519047 L45785714 53185714 L45833333 52995238 L45928571 52900000 L46023809 52852380 "/>
<svg:path d="M46880952 53471428 L47642857 53471428 "/>
<svg:path d="M48119047 53852380 L48119047 52852380 L48500000 52852380 L48595238 52900000 L48642857 52947619 L48690476 53042857 L48690476 53185714 L48642857 53280952 L48595238 53328571 L48500000 53376190 L48119047 53376190 "/>
<svg:path d="M49261904 53852380 L49166666 53804761 L49119047 53757142 L49071428 53661904 L49071428 53376190 L49119047 53280952 L49166666 53233333 L49261904 53185714 L49404761 53185714 L49500000 53233333 L49547619 53280952 L49595238 53376190 L49595238 53661904 L49547619 53757142 L49500000 53804761 L49404761 53852380 L49261904 53852380 "/>
<svg:path d="M49928571 53185714 L50119047 53852380 L50309523 53376190 L50500000 53852380 L50690476 53185714 "/>
<svg:path d="M51452380 53804761 L51357142 53852380 L51166666 53852380 L51071428 53804761 L51023809 53709523 L51023809 53328571 L51071428 53233333 L51166666 53185714 L51357142 53185714 L51452380 53233333 L51500000 53328571 L51500000 53423809 L51023809 53519047 "/>
<svg:path d="M51928571 53852380 L51928571 53185714 "/>
<svg:path d="M51928571 53376190 L51976190 53280952 L52023809 53233333 L52119047 53185714 L52214285 53185714 "/>
<svg:path d="M52547619 53852380 L52547619 52852380 L52928571 52852380 L53023809 52900000 L53071428 52947619 L53119047 53042857 L53119047 53185714 L53071428 53280952 L53023809 53328571 L52928571 53376190 L52547619 53376190 "/>
<svg:path d="M53500000 53566666 L53976190 53566666 "/>
<svg:path d="M53404761 53852380 L53738095 52852380 L54071428 53852380 "/>
<svg:path d="M54404761 53852380 L54404761 52852380 L54642857 52852380 L54785714 52900000 L54880952 52995238 L54928571 53090476 L54976190 53280952 L54976190 53423809 L54928571 53614285 L54880952 53709523 L54785714 53804761 L54642857 53852380 L54404761 53852380 "/>
<svg:path d="M55404761 53471428 L56166666 53471428 "/>
<svg:path d="M56785714 53280952 L56690476 53233333 L56642857 53185714 L56595238 53090476 L56595238 53042857 L56642857 52947619 L56690476 52900000 L56785714 52852380 L56976190 52852380 L57071428 52900000 L57119047 52947619 L57166666 53042857 L57166666 53090476 L57119047 53185714 L57071428 53233333 L56976190 53280952 L56785714 53280952 L56690476 53328571 L56642857 53376190 L56595238 53471428 L56595238 53661904 L56642857 53757142 L56690476 53804761 L56785714 53852380 L56976190 53852380 L57071428 53804761 L57119047 53757142 L57166666 53661904 L57166666 53471428 L57119047 53376190 L57071428 53328571 L56976190 53280952 "/>
</svg:g><svg:text x="50000000.000000" y="50500000.000000" textLength="15290238.000000" font-size="1333333.000000" lengthAdjust="spacingAndGlyphs" text-anchor="middle" opacity="0">FZKSOTISOPOWERP8</svg:text>
<svg:g class="stroked-text"><svg:desc>FZKSOTISOPOWERP8</svg:desc>
<svg:path d="M43023809 49928571 L42690476 49928571 "/>
<svg:path d="M42690476 50452380 L42690476 49452380 L43166666 49452380 "/>
<svg:path d="M43452380 49452380 L44119047 49452380 L43452380 50452380 L44119047 50452380 "/>
<svg:path d="M44500000 50452380 L44500000 49452380 "/>
<svg:path d="M45071428 50452380 L44642857 49880952 "/>
<svg:path d="M45071428 49452380 L44500000 50023809 "/>
<svg:path d="M45452380 50404761 L45595238 50452380 L45833333 50452380 L45928571 50404761 L45976190 50357142 L46023809 50261904 L46023809 50166666 L45976190 50071428 L45928571 50023809 L45833333 49976190 L45642857 49928571 L45547619 49880952 L45500000 49833333 L45452380 49738095 L45452380 49642857 L45500000 49547619 L45547619 49500000 L45642857 49452380 L45880952 49452380 L46023809 49500000 "/>
<svg:path d="M46642857 49452380 L46833333 49452380 L46928571 49500000 L47023809 49595238 L47071428 49785714 L47071428 50119047 L47023809 50309523 L46928571 50404761 L46833333 50452380 L46642857 50452380 L46547619 50404761 L46452380 50309523 L46404761 50119047 L46404761 49785714 L46452380 49595238 L46547619 49500000 L46642857 49452380 "/>
<svg:path d="M47357142 49452380 L47928571 49452380 "/>
<svg:path d="M47642857 50452380 L47642857 49452380 "/>
<svg:path d="M48261904 50452380 L48261904 49452380 "/>
<svg:path d="M48690476 50404761 L48833333 50452380 L49071428 50452380 L49166666 50404761 L49214285 50357142 L49261904 50261904 L49261904 50166666 L49214285 50071428 L49166666 50023809 L49071428 49976190 L48880952 49928571 L48785714 49880952 L48738095 49833333 L48690476 49738095 L48690476 49642857 L48738095 49547619 L48785714 49500000 L48880952 49452380 L49119047 49452380 L49261904 49500000 "/>
<svg:path d="M49880952 49452380 L50071428 49452380 L50166666 49500000 L50261904 49595238 L50309523 49785714 L50309523 50119047 L50261904 50309523 L50166666 50404761 L50071428 50452380 L49880952 50452380 L49785714 50404761 L49690476 50309523 L49642857 50119047 L49642857 49785714 L49690476 49595238 L49785714 49500000 L49880952 49452380 "/>
<svg:path d="M50738095 50452380 L50738095 49452380 L51119047 49452380 L51214285 49500000 L51261904 49547619 L51309523 49642857 L51309523 49785714 L51261904 49880952 L51214285 49928571 L51119047 49976190 L50738095 49976190 "/>
<svg:path d="M51928571 49452380 L52119047 49452380 L52214285 49500000 L52309523 49595238 L52357142 49785714 L52357142 50119047 L52309523 50309523 L52214285 50404761 L52119047 50452380 L51928571 50452380 L51833333 50404761 L51738095 50309523 L51690476 50119047 L51690476 49785714 L51738095 49595238 L51833333 49500000 L51928571 49452380 "/>
<svg:path d="M52690476 49452380 L52928571 50452380 L53119047 49738095 L53309523 50452380 L53547619 49452380 "/>
<svg:path d="M53928571 49928571 L54261904 49928571 "/>
<svg:path d="M54404761 50452380 L53928571 50452380 L53928571 49452380 L54404761 49452380 "/>
<svg:path d="M55404761 50452380 L55071428 49976190 "/>
<svg:path d="M54833333 50452380 L54833333 49452380 L55214285 49452380 L55309523 49500000 L55357142 49547619 L55404761 49642857 L55404761 49785714 L55357142 49880952 L55309523 49928571 L55214285 49976190 L54833333 49976190 "/>
<svg:path d="M55833333 50452380 L55833333 49452380 L56214285 49452380 L56309523 49500000 L56357142 49547619 L56404761 49642857 L56404761 49785714 L56357142 49880952 L56309523 49928571 L56214285 49976190 L55833333 49976190 "/>
<svg:path d="M56976190 49880952 L56880952 49833333 L56833333 49785714 L56785714 49690476 L56785714 49642857 L56833333 49547619 L56880952 49500000 L56976190 49452380 L57166666 49452380 L57261904 49500000 L57309523 49547619 L57357142 49642857 L57357142 49690476 L57309523 49785714 L57261904 49833333 L57166666 49880952 L56976190 49880952 L56880952 49928571 L56833333 49976190 L56785714 50071428 L56785714 50261904 L56833333 50357142 L56880952 50404761 L56976190 50452380 L57166666 50452380 L57261904 50404761 L57309523 50357142 L57357142 50261904 L57357142 50071428 L57309523 49976190 L57261904 49928571 L57166666 49880952 "/>
</svg:g><svg:path d="M48050000 52450000 L48050000 48550000 "/>
<svg:path d="M48050000 48550000 L49050000 47550000 "/>
<svg:path d="M51950000 47550000 L51950000 52450000 "/>
<svg:path d="M51950000 52450000 L48050000 52450000 "/>
<svg:path d="M49050000 47550000 L51950000 47550000 "/>
<svg:g>
</svg:g>
<svg:g>
</svg:g>
<svg:g>
</svg:g>
<svg:g>
</svg:g>
</svg:g>
<svg:g style="fill:#000000; fill-opacity:0.0;  stroke:#000000; stroke-width:150000.000000; stroke-opacity:1;  stroke-linecap:round; stroke-linejoin:round;">
<svg:g>
</svg:g>
<svg:g>
</svg:g>
<svg:g>
</svg:g>
<svg:g>
</svg:g>
</svg:g> 
</svg:g><svg:g><svg:title>SVG Picture created as kicadBoard-F_Mask.svg date 2022/12/02 00:05:18 </svg:title>
  <svg:desc>Picture generated by PCBNEW </svg:desc>
<svg:g style="fill:#000000; fill-opacity:1.000000;stroke:#000000; stroke-opacity:1.000000; stroke-linecap:round; stroke-linejoin:round;" transform="translate(0 0) scale(1 1)">
</svg:g>
<svg:g style="fill:#000000; fill-opacity:0.0;  stroke:#000000; stroke-width:0.000000; stroke-opacity:1;  stroke-linecap:round; stroke-linejoin:round;">
<svg:g>
</svg:g>
<svg:g style="fill:#000000; fill-opacity:0.0;  stroke:#000000; stroke-width:1.000000; stroke-opacity:1;  stroke-linecap:round; stroke-linejoin:round;">
</svg:g>
<svg:g style="fill:#000000; fill-opacity:1.0;  stroke:#000000; stroke-width:1.000000; stroke-opacity:1;  stroke-linecap:round; stroke-linejoin:round;">
<svg:path style="fill:#000000; fill-opacity:1.0;  stroke:#000000; stroke-width:1.000000; stroke-opacity:1;  stroke-linecap:round; stroke-linejoin:round;fill-rule:evenodd;" d="M 46265001.000000,48399999.000000 46265001.000000,47790001.000000 48174999.000000,47790001.000000 48174999.000000,48399999.000000 Z"/> 
<svg:path style="fill:#000000; fill-opacity:1.0;  stroke:#000000; stroke-width:1.000000; stroke-opacity:1;  stroke-linecap:round; stroke-linejoin:round;fill-rule:evenodd;" d="M 46265001.000000,49669999.000000 46265001.000000,49060001.000000 48174999.000000,49060001.000000 48174999.000000,49669999.000000 Z"/> 
<svg:path style="fill:#000000; fill-opacity:1.0;  stroke:#000000; stroke-width:1.000000; stroke-opacity:1;  stroke-linecap:round; stroke-linejoin:round;fill-rule:evenodd;" d="M 46265001.000000,50939999.000000 46265001.000000,50330001.000000 48174999.000000,50330001.000000 48174999.000000,50939999.000000 Z"/> 
<svg:path style="fill:#000000; fill-opacity:1.0;  stroke:#000000; stroke-width:1.000000; stroke-opacity:1;  stroke-linecap:round; stroke-linejoin:round;fill-rule:evenodd;" d="M 46265001.000000,52209999.000000 46265001.000000,51600001.000000 48174999.000000,51600001.000000 48174999.000000,52209999.000000 Z"/> 
<svg:path style="fill:#000000; fill-opacity:1.0;  stroke:#000000; stroke-width:1.000000; stroke-opacity:1;  stroke-linecap:round; stroke-linejoin:round;fill-rule:evenodd;" d="M 51825001.000000,52209999.000000 51825001.000000,51600001.000000 53734999.000000,51600001.000000 53734999.000000,52209999.000000 Z"/> 
<svg:path style="fill:#000000; fill-opacity:1.0;  stroke:#000000; stroke-width:1.000000; stroke-opacity:1;  stroke-linecap:round; stroke-linejoin:round;fill-rule:evenodd;" d="M 51825001.000000,50939999.000000 51825001.000000,50330001.000000 53734999.000000,50330001.000000 53734999.000000,50939999.000000 Z"/> 
<svg:path style="fill:#000000; fill-opacity:1.0;  stroke:#000000; stroke-width:1.000000; stroke-opacity:1;  stroke-linecap:round; stroke-linejoin:round;fill-rule:evenodd;" d="M 51825001.000000,49669999.000000 51825001.000000,49060001.000000 53734999.000000,49060001.000000 53734999.000000,49669999.000000 Z"/> 
<svg:path style="fill:#000000; fill-opacity:1.0;  stroke:#000000; stroke-width:1.000000; stroke-opacity:1;  stroke-linecap:round; stroke-linejoin:round;fill-rule:evenodd;" d="M 51825001.000000,48399999.000000 51825001.000000,47790001.000000 53734999.000000,47790001.000000 53734999.000000,48399999.000000 Z"/> 
<svg:path style="fill:#000000; fill-opacity:1.0;  stroke:#000000; stroke-width:1.000000; stroke-opacity:1;  stroke-linecap:round; stroke-linejoin:round;fill-rule:evenodd;" d="M 48795001.000000,49999999.000000 48795001.000000,48450001.000000 49999999.000000,48450001.000000 49999999.000000,49999999.000000 Z"/> 
<svg:path style="fill:#000000; fill-opacity:1.0;  stroke:#000000; stroke-width:1.000000; stroke-opacity:1;  stroke-linecap:round; stroke-linejoin:round;fill-rule:evenodd;" d="M 50000001.000000,49999999.000000 50000001.000000,48450001.000000 51204999.000000,48450001.000000 51204999.000000,49999999.000000 Z"/> 
<svg:path style="fill:#000000; fill-opacity:1.0;  stroke:#000000; stroke-width:1.000000; stroke-opacity:1;  stroke-linecap:round; stroke-linejoin:round;fill-rule:evenodd;" d="M 48795001.000000,51549999.000000 48795001.000000,50000001.000000 49999999.000000,50000001.000000 49999999.000000,51549999.000000 Z"/> 
<svg:path style="fill:#000000; fill-opacity:1.0;  stroke:#000000; stroke-width:1.000000; stroke-opacity:1;  stroke-linecap:round; stroke-linejoin:round;fill-rule:evenodd;" d="M 50000001.000000,51549999.000000 50000001.000000,50000001.000000 51204999.000000,50000001.000000 51204999.000000,51549999.000000 Z"/> 
</svg:g>
<svg:g>
</svg:g>
<svg:g>
</svg:g>
<svg:g>
</svg:g>
</svg:g>
<svg:g style="fill:#000000; fill-opacity:1.0;  stroke:#000000; stroke-width:1.000000; stroke-opacity:1;  stroke-linecap:round; stroke-linejoin:round;">
<svg:g>
</svg:g>
<svg:g>
</svg:g>
<svg:g>
</svg:g>
<svg:g>
</svg:g>
</svg:g> 
</svg:g><svg:g><svg:title>SVG Picture created as kicadBoard-F_Paste.svg date 2022/12/02 00:05:18 </svg:title>
  <svg:desc>Picture generated by PCBNEW </svg:desc>
<svg:g style="fill:#000000; fill-opacity:1.000000;stroke:#000000; stroke-opacity:1.000000; stroke-linecap:round; stroke-linejoin:round;" transform="translate(0 0) scale(1 1)">
</svg:g>
<svg:g style="fill:#000000; fill-opacity:0.0;  stroke:#000000; stroke-width:0.000000; stroke-opacity:1;  stroke-linecap:round; stroke-linejoin:round;">
<svg:g>
</svg:g>
<svg:g style="fill:#000000; fill-opacity:0.0;  stroke:#000000; stroke-width:1.000000; stroke-opacity:1;  stroke-linecap:round; stroke-linejoin:round;">
</svg:g>
<svg:g style="fill:#000000; fill-opacity:1.0;  stroke:#000000; stroke-width:1.000000; stroke-opacity:1;  stroke-linecap:round; stroke-linejoin:round;">
<svg:path style="fill:#000000; fill-opacity:1.0;  stroke:#000000; stroke-width:1.000000; stroke-opacity:1;  stroke-linecap:round; stroke-linejoin:round;fill-rule:evenodd;" d="M 46265001.000000,48399999.000000 46265001.000000,47790001.000000 48174999.000000,47790001.000000 48174999.000000,48399999.000000 Z"/> 
<svg:path style="fill:#000000; fill-opacity:1.0;  stroke:#000000; stroke-width:1.000000; stroke-opacity:1;  stroke-linecap:round; stroke-linejoin:round;fill-rule:evenodd;" d="M 46265001.000000,49669999.000000 46265001.000000,49060001.000000 48174999.000000,49060001.000000 48174999.000000,49669999.000000 Z"/> 
<svg:path style="fill:#000000; fill-opacity:1.0;  stroke:#000000; stroke-width:1.000000; stroke-opacity:1;  stroke-linecap:round; stroke-linejoin:round;fill-rule:evenodd;" d="M 46265001.000000,50939999.000000 46265001.000000,50330001.000000 48174999.000000,50330001.000000 48174999.000000,50939999.000000 Z"/> 
<svg:path style="fill:#000000; fill-opacity:1.0;  stroke:#000000; stroke-width:1.000000; stroke-opacity:1;  stroke-linecap:round; stroke-linejoin:round;fill-rule:evenodd;" d="M 46265001.000000,52209999.000000 46265001.000000,51600001.000000 48174999.000000,51600001.000000 48174999.000000,52209999.000000 Z"/> 
<svg:path style="fill:#000000; fill-opacity:1.0;  stroke:#000000; stroke-width:1.000000; stroke-opacity:1;  stroke-linecap:round; stroke-linejoin:round;fill-rule:evenodd;" d="M 51825001.000000,52209999.000000 51825001.000000,51600001.000000 53734999.000000,51600001.000000 53734999.000000,52209999.000000 Z"/> 
<svg:path style="fill:#000000; fill-opacity:1.0;  stroke:#000000; stroke-width:1.000000; stroke-opacity:1;  stroke-linecap:round; stroke-linejoin:round;fill-rule:evenodd;" d="M 51825001.000000,50939999.000000 51825001.000000,50330001.000000 53734999.000000,50330001.000000 53734999.000000,50939999.000000 Z"/> 
<svg:path style="fill:#000000; fill-opacity:1.0;  stroke:#000000; stroke-width:1.000000; stroke-opacity:1;  stroke-linecap:round; stroke-linejoin:round;fill-rule:evenodd;" d="M 51825001.000000,49669999.000000 51825001.000000,49060001.000000 53734999.000000,49060001.000000 53734999.000000,49669999.000000 Z"/> 
<svg:path style="fill:#000000; fill-opacity:1.0;  stroke:#000000; stroke-width:1.000000; stroke-opacity:1;  stroke-linecap:round; stroke-linejoin:round;fill-rule:evenodd;" d="M 51825001.000000,48399999.000000 51825001.000000,47790001.000000 53734999.000000,47790001.000000 53734999.000000,48399999.000000 Z"/> 
<svg:path style="fill:#000000; fill-opacity:1.0;  stroke:#000000; stroke-width:1.000000; stroke-opacity:1;  stroke-linecap:round; stroke-linejoin:round;fill-rule:evenodd;" d="M 49036001.000000,49689999.000000 49036001.000000,48760001.000000 49758999.000000,48760001.000000 49758999.000000,49689999.000000 Z"/> 
<svg:path style="fill:#000000; fill-opacity:1.0;  stroke:#000000; stroke-width:1.000000; stroke-opacity:1;  stroke-linecap:round; stroke-linejoin:round;fill-rule:evenodd;" d="M 50241001.000000,49689999.000000 50241001.000000,48760001.000000 50963999.000000,48760001.000000 50963999.000000,49689999.000000 Z"/> 
<svg:path style="fill:#000000; fill-opacity:1.0;  stroke:#000000; stroke-width:1.000000; stroke-opacity:1;  stroke-linecap:round; stroke-linejoin:round;fill-rule:evenodd;" d="M 49036001.000000,51239999.000000 49036001.000000,50310001.000000 49758999.000000,50310001.000000 49758999.000000,51239999.000000 Z"/> 
<svg:path style="fill:#000000; fill-opacity:1.0;  stroke:#000000; stroke-width:1.000000; stroke-opacity:1;  stroke-linecap:round; stroke-linejoin:round;fill-rule:evenodd;" d="M 50241001.000000,51239999.000000 50241001.000000,50310001.000000 50963999.000000,50310001.000000 50963999.000000,51239999.000000 Z"/> 
</svg:g>
<svg:g>
</svg:g>
<svg:g>
</svg:g>
<svg:g>
</svg:g>
</svg:g>
<svg:g style="fill:#000000; fill-opacity:1.0;  stroke:#000000; stroke-width:1.000000; stroke-opacity:1;  stroke-linecap:round; stroke-linejoin:round;">
<svg:g>
</svg:g>
<svg:g>
</svg:g>
<svg:g>
</svg:g>
<svg:g>
</svg:g>
</svg:g> 
</svg:g><svg:g><svg:title>SVG Picture created as kicadBoard-F_Silkscreen.svg date 2022/12/02 00:05:18 </svg:title>
  <svg:desc>Picture generated by PCBNEW </svg:desc>
<svg:g style="fill:#000000; fill-opacity:1.000000;stroke:#000000; stroke-opacity:1.000000; stroke-linecap:round; stroke-linejoin:round;" transform="translate(0 0) scale(1 1)">
</svg:g>
<svg:g style="fill:#000000; fill-opacity:0.0;  stroke:#000000; stroke-width:0.000000; stroke-opacity:1;  stroke-linecap:round; stroke-linejoin:round;">
</svg:g>
<svg:g style="fill:#F2EDA1; fill-opacity:0.0;  stroke:#F2EDA1; stroke-width:0.000000; stroke-opacity:1;  stroke-linecap:round; stroke-linejoin:round;">
</svg:g>
<svg:g style="fill:#F2EDA1; fill-opacity:0.0;  stroke:#F2EDA1; stroke-width:150000.000000; stroke-opacity:1;  stroke-linecap:round; stroke-linejoin:round;">
<svg:text x="50000000.000000" y="47200000.000000" textLength="15095239.000000" font-size="1333333.000000" lengthAdjust="spacingAndGlyphs" text-anchor="middle" opacity="0">FZKSOTISOPOWERP8</svg:text>
<svg:g class="stroked-text"><svg:desc>FZKSOTISOPOWERP8</svg:desc>
<svg:path d="M43023809 46628571 L42690476 46628571 "/>
<svg:path d="M42690476 47152380 L42690476 46152380 L43166666 46152380 "/>
<svg:path d="M43452380 46152380 L44119047 46152380 L43452380 47152380 L44119047 47152380 "/>
<svg:path d="M44500000 47152380 L44500000 46152380 "/>
<svg:path d="M45071428 47152380 L44642857 46580952 "/>
<svg:path d="M45071428 46152380 L44500000 46723809 "/>
<svg:path d="M45452380 47104761 L45595238 47152380 L45833333 47152380 L45928571 47104761 L45976190 47057142 L46023809 46961904 L46023809 46866666 L45976190 46771428 L45928571 46723809 L45833333 46676190 L45642857 46628571 L45547619 46580952 L45500000 46533333 L45452380 46438095 L45452380 46342857 L45500000 46247619 L45547619 46200000 L45642857 46152380 L45880952 46152380 L46023809 46200000 "/>
<svg:path d="M46642857 46152380 L46833333 46152380 L46928571 46200000 L47023809 46295238 L47071428 46485714 L47071428 46819047 L47023809 47009523 L46928571 47104761 L46833333 47152380 L46642857 47152380 L46547619 47104761 L46452380 47009523 L46404761 46819047 L46404761 46485714 L46452380 46295238 L46547619 46200000 L46642857 46152380 "/>
<svg:path d="M47357142 46152380 L47928571 46152380 "/>
<svg:path d="M47642857 47152380 L47642857 46152380 "/>
<svg:path d="M48261904 47152380 L48261904 46152380 "/>
<svg:path d="M48690476 47104761 L48833333 47152380 L49071428 47152380 L49166666 47104761 L49214285 47057142 L49261904 46961904 L49261904 46866666 L49214285 46771428 L49166666 46723809 L49071428 46676190 L48880952 46628571 L48785714 46580952 L48738095 46533333 L48690476 46438095 L48690476 46342857 L48738095 46247619 L48785714 46200000 L48880952 46152380 L49119047 46152380 L49261904 46200000 "/>
<svg:path d="M49880952 46152380 L50071428 46152380 L50166666 46200000 L50261904 46295238 L50309523 46485714 L50309523 46819047 L50261904 47009523 L50166666 47104761 L50071428 47152380 L49880952 47152380 L49785714 47104761 L49690476 47009523 L49642857 46819047 L49642857 46485714 L49690476 46295238 L49785714 46200000 L49880952 46152380 "/>
<svg:path d="M50738095 47152380 L50738095 46152380 L51119047 46152380 L51214285 46200000 L51261904 46247619 L51309523 46342857 L51309523 46485714 L51261904 46580952 L51214285 46628571 L51119047 46676190 L50738095 46676190 "/>
<svg:path d="M51928571 46152380 L52119047 46152380 L52214285 46200000 L52309523 46295238 L52357142 46485714 L52357142 46819047 L52309523 47009523 L52214285 47104761 L52119047 47152380 L51928571 47152380 L51833333 47104761 L51738095 47009523 L51690476 46819047 L51690476 46485714 L51738095 46295238 L51833333 46200000 L51928571 46152380 "/>
<svg:path d="M52690476 46152380 L52928571 47152380 L53119047 46438095 L53309523 47152380 L53547619 46152380 "/>
<svg:path d="M53928571 46628571 L54261904 46628571 "/>
<svg:path d="M54404761 47152380 L53928571 47152380 L53928571 46152380 L54404761 46152380 "/>
<svg:path d="M55404761 47152380 L55071428 46676190 "/>
<svg:path d="M54833333 47152380 L54833333 46152380 L55214285 46152380 L55309523 46200000 L55357142 46247619 L55404761 46342857 L55404761 46485714 L55357142 46580952 L55309523 46628571 L55214285 46676190 L54833333 46676190 "/>
<svg:path d="M55833333 47152380 L55833333 46152380 L56214285 46152380 L56309523 46200000 L56357142 46247619 L56404761 46342857 L56404761 46485714 L56357142 46580952 L56309523 46628571 L56214285 46676190 L55833333 46676190 "/>
<svg:path d="M56976190 46580952 L56880952 46533333 L56833333 46485714 L56785714 46390476 L56785714 46342857 L56833333 46247619 L56880952 46200000 L56976190 46152380 L57166666 46152380 L57261904 46200000 L57309523 46247619 L57357142 46342857 L57357142 46390476 L57309523 46485714 L57261904 46533333 L57166666 46580952 L56976190 46580952 L56880952 46628571 L56833333 46676190 L56785714 46771428 L56785714 46961904 L56833333 47057142 L56880952 47104761 L56976190 47152380 L57166666 47152380 L57261904 47104761 L57309523 47057142 L57357142 46961904 L57357142 46771428 L57309523 46676190 L57261904 46628571 L57166666 46580952 "/>
</svg:g><svg:path d="M47925000 52575000 L47925000 52375000 "/>
<svg:path d="M52075000 47425000 L52075000 47625000 "/>
<svg:path d="M47925000 52575000 L52075000 52575000 "/>
<svg:path d="M47925000 47425000 L52075000 47425000 "/>
<svg:path d="M52075000 52575000 L52075000 52375000 "/>
<svg:path d="M47925000 47425000 L47925000 47625000 "/>
<svg:path d="M47925000 47625000 L46625000 47625000 "/>
<svg:g>
</svg:g>
<svg:g>
</svg:g>
<svg:g>
</svg:g>
<svg:g>
</svg:g>
</svg:g>
<svg:g style="fill:#000000; fill-opacity:0.0;  stroke:#000000; stroke-width:150000.000000; stroke-opacity:1;  stroke-linecap:round; stroke-linejoin:round;">
<svg:g>
</svg:g>
<svg:g>
</svg:g>
<svg:g>
</svg:g>
<svg:g>
</svg:g>
</svg:g> 
</svg:g><svg:g><svg:title>SVG Picture created as kicadBoard-Margin.svg date 2022/12/02 00:05:18 </svg:title>
  <svg:desc>Picture generated by PCBNEW </svg:desc>
<svg:g style="fill:#000000; fill-opacity:1.000000;stroke:#000000; stroke-opacity:1.000000; stroke-linecap:round; stroke-linejoin:round;" transform="translate(0 0) scale(1 1)">
</svg:g>
<svg:g style="fill:#000000; fill-opacity:0.0;  stroke:#000000; stroke-width:0.000000; stroke-opacity:1;  stroke-linecap:round; stroke-linejoin:round;">
<svg:g>
</svg:g>
<svg:g>
</svg:g>
<svg:g>
</svg:g>
<svg:g>
</svg:g>
</svg:g>
<svg:g style="fill:#000000; fill-opacity:0.0;  stroke:#000000; stroke-width:0.000000; stroke-opacity:1;  stroke-linecap:round; stroke-linejoin:round;">
<svg:g>
</svg:g>
<svg:g>
</svg:g>
<svg:g>
</svg:g>
<svg:g>
</svg:g>
</svg:g> 
</svg:g><svg:g><svg:title>SVG Picture created as kicadBoard-F_Cu.svg date 2022/12/02 00:05:18 </svg:title>
  <svg:desc>Picture generated by PCBNEW </svg:desc>
<svg:g style="fill:#000000; fill-opacity:1.000000;stroke:#000000; stroke-opacity:1.000000; stroke-linecap:round; stroke-linejoin:round;" transform="translate(0 0) scale(1 1)">
</svg:g>
<svg:g style="fill:#000000; fill-opacity:0.0;  stroke:#000000; stroke-width:0.000000; stroke-opacity:1;  stroke-linecap:round; stroke-linejoin:round;">
<svg:g>
</svg:g>
<svg:g style="fill:#C83434; fill-opacity:0.0;  stroke:#C83434; stroke-width:0.000000; stroke-opacity:1;  stroke-linecap:round; stroke-linejoin:round;">
</svg:g>
<svg:g style="fill:#C83434; fill-opacity:0.0;  stroke:#C83434; stroke-width:1.000000; stroke-opacity:1;  stroke-linecap:round; stroke-linejoin:round;">
</svg:g>
<svg:g style="fill:#C83434; fill-opacity:1.0;  stroke:#C83434; stroke-width:1.000000; stroke-opacity:1;  stroke-linecap:round; stroke-linejoin:round;">
<svg:path style="fill:#C83434; fill-opacity:1.0;  stroke:#C83434; stroke-width:1.000000; stroke-opacity:1;  stroke-linecap:round; stroke-linejoin:round;fill-rule:evenodd;" d="M 46265001.000000,48399999.000000 46265001.000000,47790001.000000 48174999.000000,47790001.000000 48174999.000000,48399999.000000 Z"/> 
<svg:path style="fill:#C83434; fill-opacity:1.0;  stroke:#C83434; stroke-width:1.000000; stroke-opacity:1;  stroke-linecap:round; stroke-linejoin:round;fill-rule:evenodd;" d="M 46265001.000000,49669999.000000 46265001.000000,49060001.000000 48174999.000000,49060001.000000 48174999.000000,49669999.000000 Z"/> 
<svg:path style="fill:#C83434; fill-opacity:1.0;  stroke:#C83434; stroke-width:1.000000; stroke-opacity:1;  stroke-linecap:round; stroke-linejoin:round;fill-rule:evenodd;" d="M 46265001.000000,50939999.000000 46265001.000000,50330001.000000 48174999.000000,50330001.000000 48174999.000000,50939999.000000 Z"/> 
<svg:path style="fill:#C83434; fill-opacity:1.0;  stroke:#C83434; stroke-width:1.000000; stroke-opacity:1;  stroke-linecap:round; stroke-linejoin:round;fill-rule:evenodd;" d="M 46265001.000000,52209999.000000 46265001.000000,51600001.000000 48174999.000000,51600001.000000 48174999.000000,52209999.000000 Z"/> 
<svg:path style="fill:#C83434; fill-opacity:1.0;  stroke:#C83434; stroke-width:1.000000; stroke-opacity:1;  stroke-linecap:round; stroke-linejoin:round;fill-rule:evenodd;" d="M 51825001.000000,52209999.000000 51825001.000000,51600001.000000 53734999.000000,51600001.000000 53734999.000000,52209999.000000 Z"/> 
<svg:path style="fill:#C83434; fill-opacity:1.0;  stroke:#C83434; stroke-width:1.000000; stroke-opacity:1;  stroke-linecap:round; stroke-linejoin:round;fill-rule:evenodd;" d="M 51825001.000000,50939999.000000 51825001.000000,50330001.000000 53734999.000000,50330001.000000 53734999.000000,50939999.000000 Z"/> 
<svg:path style="fill:#C83434; fill-opacity:1.0;  stroke:#C83434; stroke-width:1.000000; stroke-opacity:1;  stroke-linecap:round; stroke-linejoin:round;fill-rule:evenodd;" d="M 51825001.000000,49669999.000000 51825001.000000,49060001.000000 53734999.000000,49060001.000000 53734999.000000,49669999.000000 Z"/> 
<svg:path style="fill:#C83434; fill-opacity:1.0;  stroke:#C83434; stroke-width:1.000000; stroke-opacity:1;  stroke-linecap:round; stroke-linejoin:round;fill-rule:evenodd;" d="M 51825001.000000,48399999.000000 51825001.000000,47790001.000000 53734999.000000,47790001.000000 53734999.000000,48399999.000000 Z"/> 
<svg:path style="fill:#C83434; fill-opacity:1.0;  stroke:#C83434; stroke-width:1.000000; stroke-opacity:1;  stroke-linecap:round; stroke-linejoin:round;fill-rule:evenodd;" d="M 48795001.000000,49999999.000000 48795001.000000,48450001.000000 49999999.000000,48450001.000000 49999999.000000,49999999.000000 Z"/> 
<svg:path style="fill:#C83434; fill-opacity:1.0;  stroke:#C83434; stroke-width:1.000000; stroke-opacity:1;  stroke-linecap:round; stroke-linejoin:round;fill-rule:evenodd;" d="M 50000001.000000,49999999.000000 50000001.000000,48450001.000000 51204999.000000,48450001.000000 51204999.000000,49999999.000000 Z"/> 
<svg:path style="fill:#C83434; fill-opacity:1.0;  stroke:#C83434; stroke-width:1.000000; stroke-opacity:1;  stroke-linecap:round; stroke-linejoin:round;fill-rule:evenodd;" d="M 48795001.000000,51549999.000000 48795001.000000,50000001.000000 49999999.000000,50000001.000000 49999999.000000,51549999.000000 Z"/> 
<svg:path style="fill:#C83434; fill-opacity:1.0;  stroke:#C83434; stroke-width:1.000000; stroke-opacity:1;  stroke-linecap:round; stroke-linejoin:round;fill-rule:evenodd;" d="M 50000001.000000,51549999.000000 50000001.000000,50000001.000000 51204999.000000,50000001.000000 51204999.000000,51549999.000000 Z"/> 
</svg:g>
<svg:g>
</svg:g>
<svg:g>
</svg:g>
<svg:g>
</svg:g>
</svg:g>
<svg:g style="fill:#FFFFFF; fill-opacity:1.0;  stroke:#FFFFFF; stroke-width:1.000000; stroke-opacity:1;  stroke-linecap:round; stroke-linejoin:round;">
</svg:g>
<svg:g style="fill:#000000; fill-opacity:1.0;  stroke:#000000; stroke-width:1.000000; stroke-opacity:1;  stroke-linecap:round; stroke-linejoin:round;">
<svg:g>
</svg:g>
<svg:g>
</svg:g>
<svg:g>
</svg:g>
<svg:g>
</svg:g>
</svg:g> 
</svg:g></svg>
