<?xml version='1.0' encoding='ASCII' standalone='yes'?>
<svg xmlns:svg="http://www.w3.org/2000/svg" xmlns="http://www.w3.org/2000/svg" xmlns:xlink="http://www.w3.org/1999/xlink" version="1.1" width="9.999980cm" height="9.999980cm" viewBox="0 0 99999800 99999800">
<title>SVG Picture created as kicadBoard-B_Cu.svg date 2022/12/03 02:58:41 </title>
  <desc>Picture generated by PCBNEW </desc>
<g style="fill:#000000; fill-opacity:1.000000;stroke:#000000; stroke-opacity:1.000000; stroke-linecap:round; stroke-linejoin:round;" transform="translate(0 0) scale(1 1)">
</g>
<g style="fill:#000000; fill-opacity:0.0;  stroke:#000000; stroke-width:0.000000; stroke-opacity:1;  stroke-linecap:round; stroke-linejoin:round;">
<g>
</g>
<g>
</g>
<g>
</g>
<g>
</g>
</g>
<g style="fill:#FFFFFF; fill-opacity:0.0;  stroke:#FFFFFF; stroke-width:0.000000; stroke-opacity:1;  stroke-linecap:round; stroke-linejoin:round;">
</g>
<g style="fill:#000000; fill-opacity:0.0;  stroke:#000000; stroke-width:0.000000; stroke-opacity:1;  stroke-linecap:round; stroke-linejoin:round;">
<g>
</g>
<g>
</g>
<g>
</g>
<g>
</g>
</g> 
<svg:g><svg:title>SVG Picture created as kicadBoard-B_Adhesive.svg date 2022/12/03 02:58:41 </svg:title>
  <svg:desc>Picture generated by PCBNEW </svg:desc>
<svg:g style="fill:#000000; fill-opacity:1.000000;stroke:#000000; stroke-opacity:1.000000; stroke-linecap:round; stroke-linejoin:round;" transform="translate(0 0) scale(1 1)">
</svg:g>
<svg:g style="fill:#000000; fill-opacity:0.0;  stroke:#000000; stroke-width:0.000000; stroke-opacity:1;  stroke-linecap:round; stroke-linejoin:round;">
<svg:g>
</svg:g>
<svg:g>
</svg:g>
<svg:g>
</svg:g>
<svg:g>
</svg:g>
</svg:g>
<svg:g style="fill:#000000; fill-opacity:0.0;  stroke:#000000; stroke-width:0.000000; stroke-opacity:1;  stroke-linecap:round; stroke-linejoin:round;">
<svg:g>
</svg:g>
<svg:g>
</svg:g>
<svg:g>
</svg:g>
<svg:g>
</svg:g>
</svg:g> 
</svg:g><svg:g><svg:title>SVG Picture created as kicadBoard-B_Courtyard.svg date 2022/12/03 02:58:41 </svg:title>
  <svg:desc>Picture generated by PCBNEW </svg:desc>
<svg:g style="fill:#000000; fill-opacity:1.000000;stroke:#000000; stroke-opacity:1.000000; stroke-linecap:round; stroke-linejoin:round;" transform="translate(0 0) scale(1 1)">
</svg:g>
<svg:g style="fill:#000000; fill-opacity:0.0;  stroke:#000000; stroke-width:0.000000; stroke-opacity:1;  stroke-linecap:round; stroke-linejoin:round;">
<svg:g>
</svg:g>
<svg:g>
</svg:g>
<svg:g>
</svg:g>
<svg:g>
</svg:g>
</svg:g>
<svg:g style="fill:#000000; fill-opacity:0.0;  stroke:#000000; stroke-width:0.000000; stroke-opacity:1;  stroke-linecap:round; stroke-linejoin:round;">
<svg:g>
</svg:g>
<svg:g>
</svg:g>
<svg:g>
</svg:g>
<svg:g>
</svg:g>
</svg:g> 
</svg:g><svg:g><svg:title>SVG Picture created as kicadBoard-B_Fab.svg date 2022/12/03 02:58:41 </svg:title>
  <svg:desc>Picture generated by PCBNEW </svg:desc>
<svg:g style="fill:#000000; fill-opacity:1.000000;stroke:#000000; stroke-opacity:1.000000; stroke-linecap:round; stroke-linejoin:round;" transform="translate(0 0) scale(1 1)">
</svg:g>
<svg:g style="fill:#000000; fill-opacity:0.0;  stroke:#000000; stroke-width:0.000000; stroke-opacity:1;  stroke-linecap:round; stroke-linejoin:round;">
<svg:g>
</svg:g>
<svg:g>
</svg:g>
<svg:g>
</svg:g>
<svg:g>
</svg:g>
</svg:g>
<svg:g style="fill:#000000; fill-opacity:0.0;  stroke:#000000; stroke-width:0.000000; stroke-opacity:1;  stroke-linecap:round; stroke-linejoin:round;">
<svg:g>
</svg:g>
<svg:g>
</svg:g>
<svg:g>
</svg:g>
<svg:g>
</svg:g>
</svg:g> 
</svg:g><svg:g><svg:title>SVG Picture created as kicadBoard-B_Mask.svg date 2022/12/03 02:58:41 </svg:title>
  <svg:desc>Picture generated by PCBNEW </svg:desc>
<svg:g style="fill:#000000; fill-opacity:1.000000;stroke:#000000; stroke-opacity:1.000000; stroke-linecap:round; stroke-linejoin:round;" transform="translate(0 0) scale(1 1)">
</svg:g>
<svg:g style="fill:#000000; fill-opacity:0.0;  stroke:#000000; stroke-width:0.000000; stroke-opacity:1;  stroke-linecap:round; stroke-linejoin:round;">
<svg:g>
</svg:g>
<svg:g>
</svg:g>
<svg:g>
</svg:g>
<svg:g>
</svg:g>
</svg:g>
<svg:g style="fill:#000000; fill-opacity:0.0;  stroke:#000000; stroke-width:0.000000; stroke-opacity:1;  stroke-linecap:round; stroke-linejoin:round;">
<svg:g>
</svg:g>
<svg:g>
</svg:g>
<svg:g>
</svg:g>
<svg:g>
</svg:g>
</svg:g> 
</svg:g><svg:g><svg:title>SVG Picture created as kicadBoard-B_Paste.svg date 2022/12/03 02:58:41 </svg:title>
  <svg:desc>Picture generated by PCBNEW </svg:desc>
<svg:g style="fill:#000000; fill-opacity:1.000000;stroke:#000000; stroke-opacity:1.000000; stroke-linecap:round; stroke-linejoin:round;" transform="translate(0 0) scale(1 1)">
</svg:g>
<svg:g style="fill:#000000; fill-opacity:0.0;  stroke:#000000; stroke-width:0.000000; stroke-opacity:1;  stroke-linecap:round; stroke-linejoin:round;">
<svg:g>
</svg:g>
<svg:g>
</svg:g>
<svg:g>
</svg:g>
<svg:g>
</svg:g>
</svg:g>
<svg:g style="fill:#000000; fill-opacity:0.0;  stroke:#000000; stroke-width:0.000000; stroke-opacity:1;  stroke-linecap:round; stroke-linejoin:round;">
<svg:g>
</svg:g>
<svg:g>
</svg:g>
<svg:g>
</svg:g>
<svg:g>
</svg:g>
</svg:g> 
</svg:g><svg:g><svg:title>SVG Picture created as kicadBoard-B_Silkscreen.svg date 2022/12/03 02:58:41 </svg:title>
  <svg:desc>Picture generated by PCBNEW </svg:desc>
<svg:g style="fill:#000000; fill-opacity:1.000000;stroke:#000000; stroke-opacity:1.000000; stroke-linecap:round; stroke-linejoin:round;" transform="translate(0 0) scale(1 1)">
</svg:g>
<svg:g style="fill:#000000; fill-opacity:0.0;  stroke:#000000; stroke-width:0.000000; stroke-opacity:1;  stroke-linecap:round; stroke-linejoin:round;">
<svg:g>
</svg:g>
<svg:g>
</svg:g>
<svg:g>
</svg:g>
<svg:g>
</svg:g>
</svg:g>
<svg:g style="fill:#000000; fill-opacity:0.0;  stroke:#000000; stroke-width:0.000000; stroke-opacity:1;  stroke-linecap:round; stroke-linejoin:round;">
<svg:g>
</svg:g>
<svg:g>
</svg:g>
<svg:g>
</svg:g>
<svg:g>
</svg:g>
</svg:g> 
</svg:g><svg:g><svg:title>SVG Picture created as kicadBoard-Edge_Cuts.svg date 2022/12/03 02:58:41 </svg:title>
  <svg:desc>Picture generated by PCBNEW </svg:desc>
<svg:g style="fill:#000000; fill-opacity:1.000000;stroke:#000000; stroke-opacity:1.000000; stroke-linecap:round; stroke-linejoin:round;" transform="translate(0 0) scale(1 1)">
</svg:g>
<svg:g style="fill:#000000; fill-opacity:0.0;  stroke:#000000; stroke-width:0.000000; stroke-opacity:1;  stroke-linecap:round; stroke-linejoin:round;">
<svg:g>
</svg:g>
<svg:g>
</svg:g>
<svg:g>
</svg:g>
<svg:g>
</svg:g>
</svg:g> 
</svg:g><svg:g><svg:title>SVG Picture created as kicadBoard-F_Adhesive.svg date 2022/12/03 02:58:41 </svg:title>
  <svg:desc>Picture generated by PCBNEW </svg:desc>
<svg:g style="fill:#000000; fill-opacity:1.000000;stroke:#000000; stroke-opacity:1.000000; stroke-linecap:round; stroke-linejoin:round;" transform="translate(0 0) scale(1 1)">
</svg:g>
<svg:g style="fill:#000000; fill-opacity:0.0;  stroke:#000000; stroke-width:0.000000; stroke-opacity:1;  stroke-linecap:round; stroke-linejoin:round;">
<svg:g>
</svg:g>
<svg:g>
</svg:g>
<svg:g>
</svg:g>
<svg:g>
</svg:g>
</svg:g>
<svg:g style="fill:#000000; fill-opacity:0.0;  stroke:#000000; stroke-width:0.000000; stroke-opacity:1;  stroke-linecap:round; stroke-linejoin:round;">
<svg:g>
</svg:g>
<svg:g>
</svg:g>
<svg:g>
</svg:g>
<svg:g>
</svg:g>
</svg:g> 
</svg:g><svg:g><svg:title>SVG Picture created as kicadBoard-F_Courtyard.svg date 2022/12/03 02:58:41 </svg:title>
  <svg:desc>Picture generated by PCBNEW </svg:desc>
<svg:g style="fill:#000000; fill-opacity:1.000000;stroke:#000000; stroke-opacity:1.000000; stroke-linecap:round; stroke-linejoin:round;" transform="translate(0 0) scale(1 1)">
</svg:g>
<svg:g style="fill:#000000; fill-opacity:0.0;  stroke:#000000; stroke-width:0.000000; stroke-opacity:1;  stroke-linecap:round; stroke-linejoin:round;">
<svg:g>
</svg:g>
<svg:g>
</svg:g>
<svg:g>
</svg:g>
<svg:g>
</svg:g>
</svg:g>
<svg:g style="fill:#000000; fill-opacity:0.0;  stroke:#000000; stroke-width:0.000000; stroke-opacity:1;  stroke-linecap:round; stroke-linejoin:round;">
<svg:g>
</svg:g>
<svg:g>
</svg:g>
<svg:g>
</svg:g>
<svg:g>
</svg:g>
</svg:g> 
</svg:g><svg:g><svg:title>SVG Picture created as kicadBoard-F_Cu.svg date 2022/12/03 02:58:41 </svg:title>
  <svg:desc>Picture generated by PCBNEW </svg:desc>
<svg:g style="fill:#000000; fill-opacity:1.000000;stroke:#000000; stroke-opacity:1.000000; stroke-linecap:round; stroke-linejoin:round;" transform="translate(0 0) scale(1 1)">
</svg:g>
<svg:g style="fill:#000000; fill-opacity:0.0;  stroke:#000000; stroke-width:0.000000; stroke-opacity:1;  stroke-linecap:round; stroke-linejoin:round;">
<svg:g>
</svg:g>
<svg:g style="fill:#C83434; fill-opacity:0.0;  stroke:#C83434; stroke-width:0.000000; stroke-opacity:1;  stroke-linecap:round; stroke-linejoin:round;">
</svg:g>
<svg:g style="fill:#C83434; fill-opacity:0.0;  stroke:#C83434; stroke-width:1.000000; stroke-opacity:1;  stroke-linecap:round; stroke-linejoin:round;">
</svg:g>
<svg:g style="fill:#C83434; fill-opacity:1.0;  stroke:#C83434; stroke-width:1.000000; stroke-opacity:1;  stroke-linecap:round; stroke-linejoin:round;">
<svg:path style="fill:#C83434; fill-opacity:1.0;  stroke:#C83434; stroke-width:1.000000; stroke-opacity:1;  stroke-linecap:round; stroke-linejoin:round;fill-rule:evenodd;" d="M 45072401.000000,47479399.000000 45072401.000000,46920601.000000 46342399.000000,46920601.000000 46342399.000000,47479399.000000 Z"/> 
<svg:path style="fill:#C83434; fill-opacity:1.0;  stroke:#C83434; stroke-width:1.000000; stroke-opacity:1;  stroke-linecap:round; stroke-linejoin:round;fill-rule:evenodd;" d="M 45072401.000000,48279399.000000 45072401.000000,47720601.000000 46342399.000000,47720601.000000 46342399.000000,48279399.000000 Z"/> 
<svg:path style="fill:#C83434; fill-opacity:1.0;  stroke:#C83434; stroke-width:1.000000; stroke-opacity:1;  stroke-linecap:round; stroke-linejoin:round;fill-rule:evenodd;" d="M 45072401.000000,49079399.000000 45072401.000000,48520601.000000 46342399.000000,48520601.000000 46342399.000000,49079399.000000 Z"/> 
<svg:path style="fill:#C83434; fill-opacity:1.0;  stroke:#C83434; stroke-width:1.000000; stroke-opacity:1;  stroke-linecap:round; stroke-linejoin:round;fill-rule:evenodd;" d="M 45072401.000000,49879399.000000 45072401.000000,49320601.000000 46342399.000000,49320601.000000 46342399.000000,49879399.000000 Z"/> 
<svg:path style="fill:#C83434; fill-opacity:1.0;  stroke:#C83434; stroke-width:1.000000; stroke-opacity:1;  stroke-linecap:round; stroke-linejoin:round;fill-rule:evenodd;" d="M 45072401.000000,50679399.000000 45072401.000000,50120601.000000 46342399.000000,50120601.000000 46342399.000000,50679399.000000 Z"/> 
<svg:path style="fill:#C83434; fill-opacity:1.0;  stroke:#C83434; stroke-width:1.000000; stroke-opacity:1;  stroke-linecap:round; stroke-linejoin:round;fill-rule:evenodd;" d="M 45072401.000000,51479399.000000 45072401.000000,50920601.000000 46342399.000000,50920601.000000 46342399.000000,51479399.000000 Z"/> 
<svg:path style="fill:#C83434; fill-opacity:1.0;  stroke:#C83434; stroke-width:1.000000; stroke-opacity:1;  stroke-linecap:round; stroke-linejoin:round;fill-rule:evenodd;" d="M 45072401.000000,52279399.000000 45072401.000000,51720601.000000 46342399.000000,51720601.000000 46342399.000000,52279399.000000 Z"/> 
<svg:path style="fill:#C83434; fill-opacity:1.0;  stroke:#C83434; stroke-width:1.000000; stroke-opacity:1;  stroke-linecap:round; stroke-linejoin:round;fill-rule:evenodd;" d="M 45072401.000000,53079399.000000 45072401.000000,52520601.000000 46342399.000000,52520601.000000 46342399.000000,53079399.000000 Z"/> 
<svg:path style="fill:#C83434; fill-opacity:1.0;  stroke:#C83434; stroke-width:1.000000; stroke-opacity:1;  stroke-linecap:round; stroke-linejoin:round;fill-rule:evenodd;" d="M 46920601.000000,54927599.000000 46920601.000000,53657601.000000 47479399.000000,53657601.000000 47479399.000000,54927599.000000 Z"/> 
<svg:path style="fill:#C83434; fill-opacity:1.0;  stroke:#C83434; stroke-width:1.000000; stroke-opacity:1;  stroke-linecap:round; stroke-linejoin:round;fill-rule:evenodd;" d="M 47720601.000000,54927599.000000 47720601.000000,53657601.000000 48279399.000000,53657601.000000 48279399.000000,54927599.000000 Z"/> 
<svg:path style="fill:#C83434; fill-opacity:1.0;  stroke:#C83434; stroke-width:1.000000; stroke-opacity:1;  stroke-linecap:round; stroke-linejoin:round;fill-rule:evenodd;" d="M 48520601.000000,54927599.000000 48520601.000000,53657601.000000 49079399.000000,53657601.000000 49079399.000000,54927599.000000 Z"/> 
<svg:path style="fill:#C83434; fill-opacity:1.0;  stroke:#C83434; stroke-width:1.000000; stroke-opacity:1;  stroke-linecap:round; stroke-linejoin:round;fill-rule:evenodd;" d="M 49320601.000000,54927599.000000 49320601.000000,53657601.000000 49879399.000000,53657601.000000 49879399.000000,54927599.000000 Z"/> 
<svg:path style="fill:#C83434; fill-opacity:1.0;  stroke:#C83434; stroke-width:1.000000; stroke-opacity:1;  stroke-linecap:round; stroke-linejoin:round;fill-rule:evenodd;" d="M 50120601.000000,54927599.000000 50120601.000000,53657601.000000 50679399.000000,53657601.000000 50679399.000000,54927599.000000 Z"/> 
<svg:path style="fill:#C83434; fill-opacity:1.0;  stroke:#C83434; stroke-width:1.000000; stroke-opacity:1;  stroke-linecap:round; stroke-linejoin:round;fill-rule:evenodd;" d="M 50920601.000000,54927599.000000 50920601.000000,53657601.000000 51479399.000000,53657601.000000 51479399.000000,54927599.000000 Z"/> 
<svg:path style="fill:#C83434; fill-opacity:1.0;  stroke:#C83434; stroke-width:1.000000; stroke-opacity:1;  stroke-linecap:round; stroke-linejoin:round;fill-rule:evenodd;" d="M 51720601.000000,54927599.000000 51720601.000000,53657601.000000 52279399.000000,53657601.000000 52279399.000000,54927599.000000 Z"/> 
<svg:path style="fill:#C83434; fill-opacity:1.0;  stroke:#C83434; stroke-width:1.000000; stroke-opacity:1;  stroke-linecap:round; stroke-linejoin:round;fill-rule:evenodd;" d="M 52520601.000000,54927599.000000 52520601.000000,53657601.000000 53079399.000000,53657601.000000 53079399.000000,54927599.000000 Z"/> 
<svg:path style="fill:#C83434; fill-opacity:1.0;  stroke:#C83434; stroke-width:1.000000; stroke-opacity:1;  stroke-linecap:round; stroke-linejoin:round;fill-rule:evenodd;" d="M 53657601.000000,53079399.000000 53657601.000000,52520601.000000 54927599.000000,52520601.000000 54927599.000000,53079399.000000 Z"/> 
<svg:path style="fill:#C83434; fill-opacity:1.0;  stroke:#C83434; stroke-width:1.000000; stroke-opacity:1;  stroke-linecap:round; stroke-linejoin:round;fill-rule:evenodd;" d="M 53657601.000000,52279399.000000 53657601.000000,51720601.000000 54927599.000000,51720601.000000 54927599.000000,52279399.000000 Z"/> 
<svg:path style="fill:#C83434; fill-opacity:1.0;  stroke:#C83434; stroke-width:1.000000; stroke-opacity:1;  stroke-linecap:round; stroke-linejoin:round;fill-rule:evenodd;" d="M 53657601.000000,51479399.000000 53657601.000000,50920601.000000 54927599.000000,50920601.000000 54927599.000000,51479399.000000 Z"/> 
<svg:path style="fill:#C83434; fill-opacity:1.0;  stroke:#C83434; stroke-width:1.000000; stroke-opacity:1;  stroke-linecap:round; stroke-linejoin:round;fill-rule:evenodd;" d="M 53657601.000000,50679399.000000 53657601.000000,50120601.000000 54927599.000000,50120601.000000 54927599.000000,50679399.000000 Z"/> 
<svg:path style="fill:#C83434; fill-opacity:1.0;  stroke:#C83434; stroke-width:1.000000; stroke-opacity:1;  stroke-linecap:round; stroke-linejoin:round;fill-rule:evenodd;" d="M 53657601.000000,49879399.000000 53657601.000000,49320601.000000 54927599.000000,49320601.000000 54927599.000000,49879399.000000 Z"/> 
<svg:path style="fill:#C83434; fill-opacity:1.0;  stroke:#C83434; stroke-width:1.000000; stroke-opacity:1;  stroke-linecap:round; stroke-linejoin:round;fill-rule:evenodd;" d="M 53657601.000000,49079399.000000 53657601.000000,48520601.000000 54927599.000000,48520601.000000 54927599.000000,49079399.000000 Z"/> 
<svg:path style="fill:#C83434; fill-opacity:1.0;  stroke:#C83434; stroke-width:1.000000; stroke-opacity:1;  stroke-linecap:round; stroke-linejoin:round;fill-rule:evenodd;" d="M 53657601.000000,48279399.000000 53657601.000000,47720601.000000 54927599.000000,47720601.000000 54927599.000000,48279399.000000 Z"/> 
<svg:path style="fill:#C83434; fill-opacity:1.0;  stroke:#C83434; stroke-width:1.000000; stroke-opacity:1;  stroke-linecap:round; stroke-linejoin:round;fill-rule:evenodd;" d="M 53657601.000000,47479399.000000 53657601.000000,46920601.000000 54927599.000000,46920601.000000 54927599.000000,47479399.000000 Z"/> 
<svg:path style="fill:#C83434; fill-opacity:1.0;  stroke:#C83434; stroke-width:1.000000; stroke-opacity:1;  stroke-linecap:round; stroke-linejoin:round;fill-rule:evenodd;" d="M 52520601.000000,46342399.000000 52520601.000000,45072401.000000 53079399.000000,45072401.000000 53079399.000000,46342399.000000 Z"/> 
<svg:path style="fill:#C83434; fill-opacity:1.0;  stroke:#C83434; stroke-width:1.000000; stroke-opacity:1;  stroke-linecap:round; stroke-linejoin:round;fill-rule:evenodd;" d="M 51720601.000000,46342399.000000 51720601.000000,45072401.000000 52279399.000000,45072401.000000 52279399.000000,46342399.000000 Z"/> 
<svg:path style="fill:#C83434; fill-opacity:1.0;  stroke:#C83434; stroke-width:1.000000; stroke-opacity:1;  stroke-linecap:round; stroke-linejoin:round;fill-rule:evenodd;" d="M 50920601.000000,46342399.000000 50920601.000000,45072401.000000 51479399.000000,45072401.000000 51479399.000000,46342399.000000 Z"/> 
<svg:path style="fill:#C83434; fill-opacity:1.0;  stroke:#C83434; stroke-width:1.000000; stroke-opacity:1;  stroke-linecap:round; stroke-linejoin:round;fill-rule:evenodd;" d="M 50120601.000000,46342399.000000 50120601.000000,45072401.000000 50679399.000000,45072401.000000 50679399.000000,46342399.000000 Z"/> 
<svg:path style="fill:#C83434; fill-opacity:1.0;  stroke:#C83434; stroke-width:1.000000; stroke-opacity:1;  stroke-linecap:round; stroke-linejoin:round;fill-rule:evenodd;" d="M 49320601.000000,46342399.000000 49320601.000000,45072401.000000 49879399.000000,45072401.000000 49879399.000000,46342399.000000 Z"/> 
<svg:path style="fill:#C83434; fill-opacity:1.0;  stroke:#C83434; stroke-width:1.000000; stroke-opacity:1;  stroke-linecap:round; stroke-linejoin:round;fill-rule:evenodd;" d="M 48520601.000000,46342399.000000 48520601.000000,45072401.000000 49079399.000000,45072401.000000 49079399.000000,46342399.000000 Z"/> 
<svg:path style="fill:#C83434; fill-opacity:1.0;  stroke:#C83434; stroke-width:1.000000; stroke-opacity:1;  stroke-linecap:round; stroke-linejoin:round;fill-rule:evenodd;" d="M 47720601.000000,46342399.000000 47720601.000000,45072401.000000 48279399.000000,45072401.000000 48279399.000000,46342399.000000 Z"/> 
<svg:path style="fill:#C83434; fill-opacity:1.0;  stroke:#C83434; stroke-width:1.000000; stroke-opacity:1;  stroke-linecap:round; stroke-linejoin:round;fill-rule:evenodd;" d="M 46920601.000000,46342399.000000 46920601.000000,45072401.000000 47479399.000000,45072401.000000 47479399.000000,46342399.000000 Z"/> 
</svg:g>
<svg:g>
</svg:g>
<svg:g>
</svg:g>
<svg:g>
</svg:g>
</svg:g>
<svg:g style="fill:#FFFFFF; fill-opacity:1.0;  stroke:#FFFFFF; stroke-width:1.000000; stroke-opacity:1;  stroke-linecap:round; stroke-linejoin:round;">
</svg:g>
<svg:g style="fill:#000000; fill-opacity:1.0;  stroke:#000000; stroke-width:1.000000; stroke-opacity:1;  stroke-linecap:round; stroke-linejoin:round;">
<svg:g>
</svg:g>
<svg:g>
</svg:g>
<svg:g>
</svg:g>
<svg:g>
</svg:g>
</svg:g> 
</svg:g><svg:g><svg:title>SVG Picture created as kicadBoard-F_Fab.svg date 2022/12/03 02:58:41 </svg:title>
  <svg:desc>Picture generated by PCBNEW </svg:desc>
<svg:g style="fill:#000000; fill-opacity:1.000000;stroke:#000000; stroke-opacity:1.000000; stroke-linecap:round; stroke-linejoin:round;" transform="translate(0 0) scale(1 1)">
</svg:g>
<svg:g style="fill:#000000; fill-opacity:0.0;  stroke:#000000; stroke-width:0.000000; stroke-opacity:1;  stroke-linecap:round; stroke-linejoin:round;">
</svg:g>
<svg:g style="fill:#AFAFAF; fill-opacity:0.0;  stroke:#AFAFAF; stroke-width:0.000000; stroke-opacity:1;  stroke-linecap:round; stroke-linejoin:round;">
</svg:g>
<svg:g style="fill:#AFAFAF; fill-opacity:0.0;  stroke:#AFAFAF; stroke-width:65024.000000; stroke-opacity:1;  stroke-linecap:round; stroke-linejoin:round;">
<svg:text x="46977400.000000" y="51270000.000000" textLength="4357537.000000" font-size="997034.000000" lengthAdjust="spacingAndGlyphs" text-anchor="start" opacity="0">&gt;VALUE</svg:text>
<svg:g class="stroked-text"><svg:desc>&gt;VALUE</svg:desc>
<svg:path d="M47197707 50735874 L47767441 50949524 L47197707 51163174 "/>
<svg:path d="M48016700 50486615 L48265958 51234391 L48515217 50486615 "/>
<svg:path d="M48728867 51020741 L49084951 51020741 "/>
<svg:path d="M48657651 51234391 L48906909 50486615 L49156168 51234391 "/>
<svg:path d="M49761510 51234391 L49405427 51234391 L49405427 50486615 "/>
<svg:path d="M50010769 50486615 L50010769 51091958 L50046377 51163174 L50081986 51198783 L50153203 51234391 L50295636 51234391 L50366853 51198783 L50402461 51163174 L50438070 51091958 L50438070 50486615 "/>
<svg:path d="M50794153 50842699 L51043412 50842699 "/>
<svg:path d="M51150237 51234391 L50794153 51234391 L50794153 50486615 L51150237 50486615 "/>
</svg:g></svg:g>
<svg:g style="fill:#AFAFAF; fill-opacity:1.0;  stroke:#AFAFAF; stroke-width:1.000000; stroke-opacity:1;  stroke-linecap:round; stroke-linejoin:round;">
<svg:path style="fill:#AFAFAF; fill-opacity:1.0;  stroke:#AFAFAF; stroke-width:1.000000; stroke-opacity:1;  stroke-linecap:round; stroke-linejoin:round;fill-rule:evenodd;" d="M 53028600.000000,46444000.000000 52571400.000000,46444000.000000 52571400.000000,45453400.000000 53028600.000000,45453400.000000 Z"/> 
<svg:path style="fill:#AFAFAF; fill-opacity:1.0;  stroke:#AFAFAF; stroke-width:1.000000; stroke-opacity:1;  stroke-linecap:round; stroke-linejoin:round;fill-rule:evenodd;" d="M 46444000.000000,53028600.000000 45453400.000000,53028600.000000 45453400.000000,52571400.000000 46444000.000000,52571400.000000 Z"/> 
<svg:path style="fill:#AFAFAF; fill-opacity:1.0;  stroke:#AFAFAF; stroke-width:1.000000; stroke-opacity:1;  stroke-linecap:round; stroke-linejoin:round;fill-rule:evenodd;" d="M 54546600.000000,48228600.000000 53556000.000000,48228600.000000 53556000.000000,47771400.000000 54546600.000000,47771400.000000 Z"/> 
<svg:path style="fill:#AFAFAF; fill-opacity:1.0;  stroke:#AFAFAF; stroke-width:1.000000; stroke-opacity:1;  stroke-linecap:round; stroke-linejoin:round;fill-rule:evenodd;" d="M 46444000.000000,47428600.000000 45453400.000000,47428600.000000 45453400.000000,46971400.000000 46444000.000000,46971400.000000 Z"/> 
<svg:path style="fill:#AFAFAF; fill-opacity:1.0;  stroke:#AFAFAF; stroke-width:1.000000; stroke-opacity:1;  stroke-linecap:round; stroke-linejoin:round;fill-rule:evenodd;" d="M 54546600.000000,47428600.000000 53556000.000000,47428600.000000 53556000.000000,46971400.000000 54546600.000000,46971400.000000 Z"/> 
<svg:path style="fill:#AFAFAF; fill-opacity:1.0;  stroke:#AFAFAF; stroke-width:1.000000; stroke-opacity:1;  stroke-linecap:round; stroke-linejoin:round;fill-rule:evenodd;" d="M 54546600.000000,51428600.000000 53556000.000000,51428600.000000 53556000.000000,50971400.000000 54546600.000000,50971400.000000 Z"/> 
<svg:path style="fill:#AFAFAF; fill-opacity:1.0;  stroke:#AFAFAF; stroke-width:1.000000; stroke-opacity:1;  stroke-linecap:round; stroke-linejoin:round;fill-rule:evenodd;" d="M 48228600.000000,54546600.000000 47771400.000000,54546600.000000 47771400.000000,53556000.000000 48228600.000000,53556000.000000 Z"/> 
<svg:path style="fill:#AFAFAF; fill-opacity:1.0;  stroke:#AFAFAF; stroke-width:1.000000; stroke-opacity:1;  stroke-linecap:round; stroke-linejoin:round;fill-rule:evenodd;" d="M 53028600.000000,54546600.000000 52571400.000000,54546600.000000 52571400.000000,53556000.000000 53028600.000000,53556000.000000 Z"/> 
<svg:path style="fill:#AFAFAF; fill-opacity:1.0;  stroke:#AFAFAF; stroke-width:1.000000; stroke-opacity:1;  stroke-linecap:round; stroke-linejoin:round;fill-rule:evenodd;" d="M 54546600.000000,49828600.000000 53556000.000000,49828600.000000 53556000.000000,49371400.000000 54546600.000000,49371400.000000 Z"/> 
<svg:path style="fill:#AFAFAF; fill-opacity:1.0;  stroke:#AFAFAF; stroke-width:1.000000; stroke-opacity:1;  stroke-linecap:round; stroke-linejoin:round;fill-rule:evenodd;" d="M 49028600.000000,54546600.000000 48571400.000000,54546600.000000 48571400.000000,53556000.000000 49028600.000000,53556000.000000 Z"/> 
<svg:path style="fill:#AFAFAF; fill-opacity:1.0;  stroke:#AFAFAF; stroke-width:1.000000; stroke-opacity:1;  stroke-linecap:round; stroke-linejoin:round;fill-rule:evenodd;" d="M 49828600.000000,54546600.000000 49371400.000000,54546600.000000 49371400.000000,53556000.000000 49828600.000000,53556000.000000 Z"/> 
<svg:path style="fill:#AFAFAF; fill-opacity:1.0;  stroke:#AFAFAF; stroke-width:1.000000; stroke-opacity:1;  stroke-linecap:round; stroke-linejoin:round;fill-rule:evenodd;" d="M 54546600.000000,53028600.000000 53556000.000000,53028600.000000 53556000.000000,52571400.000000 54546600.000000,52571400.000000 Z"/> 
<svg:path style="fill:#AFAFAF; fill-opacity:1.0;  stroke:#AFAFAF; stroke-width:1.000000; stroke-opacity:1;  stroke-linecap:round; stroke-linejoin:round;fill-rule:evenodd;" d="M 54546600.000000,52228600.000000 53556000.000000,52228600.000000 53556000.000000,51771400.000000 54546600.000000,51771400.000000 Z"/> 
<svg:path style="fill:#AFAFAF; fill-opacity:1.0;  stroke:#AFAFAF; stroke-width:1.000000; stroke-opacity:1;  stroke-linecap:round; stroke-linejoin:round;fill-rule:evenodd;" d="M 46444000.000000,48228600.000000 45453400.000000,48228600.000000 45453400.000000,47771400.000000 46444000.000000,47771400.000000 Z"/> 
<svg:path style="fill:#AFAFAF; fill-opacity:1.0;  stroke:#AFAFAF; stroke-width:1.000000; stroke-opacity:1;  stroke-linecap:round; stroke-linejoin:round;fill-rule:evenodd;" d="M 47428600.000000,46444000.000000 46971400.000000,46444000.000000 46971400.000000,45453400.000000 47428600.000000,45453400.000000 Z"/> 
<svg:path style="fill:#AFAFAF; fill-opacity:1.0;  stroke:#AFAFAF; stroke-width:1.000000; stroke-opacity:1;  stroke-linecap:round; stroke-linejoin:round;fill-rule:evenodd;" d="M 46444000.000000,52228600.000000 45453400.000000,52228600.000000 45453400.000000,51771400.000000 46444000.000000,51771400.000000 Z"/> 
<svg:path style="fill:#AFAFAF; fill-opacity:1.0;  stroke:#AFAFAF; stroke-width:1.000000; stroke-opacity:1;  stroke-linecap:round; stroke-linejoin:round;fill-rule:evenodd;" d="M 48228600.000000,46444000.000000 47771400.000000,46444000.000000 47771400.000000,45453400.000000 48228600.000000,45453400.000000 Z"/> 
<svg:path style="fill:#AFAFAF; fill-opacity:1.0;  stroke:#AFAFAF; stroke-width:1.000000; stroke-opacity:1;  stroke-linecap:round; stroke-linejoin:round;fill-rule:evenodd;" d="M 52228600.000000,46444000.000000 51771400.000000,46444000.000000 51771400.000000,45453400.000000 52228600.000000,45453400.000000 Z"/> 
<svg:path style="fill:#AFAFAF; fill-opacity:1.0;  stroke:#AFAFAF; stroke-width:1.000000; stroke-opacity:1;  stroke-linecap:round; stroke-linejoin:round;fill-rule:evenodd;" d="M 49828600.000000,46444000.000000 49371400.000000,46444000.000000 49371400.000000,45453400.000000 49828600.000000,45453400.000000 Z"/> 
<svg:path style="fill:#AFAFAF; fill-opacity:1.0;  stroke:#AFAFAF; stroke-width:1.000000; stroke-opacity:1;  stroke-linecap:round; stroke-linejoin:round;fill-rule:evenodd;" d="M 46444000.000000,50628600.000000 45453400.000000,50628600.000000 45453400.000000,50171400.000000 46444000.000000,50171400.000000 Z"/> 
<svg:path style="fill:#AFAFAF; fill-opacity:1.0;  stroke:#AFAFAF; stroke-width:1.000000; stroke-opacity:1;  stroke-linecap:round; stroke-linejoin:round;fill-rule:evenodd;" d="M 46444000.000000,49828600.000000 45453400.000000,49828600.000000 45453400.000000,49371400.000000 46444000.000000,49371400.000000 Z"/> 
<svg:path style="fill:#AFAFAF; fill-opacity:1.0;  stroke:#AFAFAF; stroke-width:1.000000; stroke-opacity:1;  stroke-linecap:round; stroke-linejoin:round;fill-rule:evenodd;" d="M 49028600.000000,46444000.000000 48571400.000000,46444000.000000 48571400.000000,45453400.000000 49028600.000000,45453400.000000 Z"/> 
<svg:path style="fill:#AFAFAF; fill-opacity:1.0;  stroke:#AFAFAF; stroke-width:1.000000; stroke-opacity:1;  stroke-linecap:round; stroke-linejoin:round;fill-rule:evenodd;" d="M 54546600.000000,49028600.000000 53556000.000000,49028600.000000 53556000.000000,48571400.000000 54546600.000000,48571400.000000 Z"/> 
<svg:path style="fill:#AFAFAF; fill-opacity:1.0;  stroke:#AFAFAF; stroke-width:1.000000; stroke-opacity:1;  stroke-linecap:round; stroke-linejoin:round;fill-rule:evenodd;" d="M 51428600.000000,46444000.000000 50971400.000000,46444000.000000 50971400.000000,45453400.000000 51428600.000000,45453400.000000 Z"/> 
<svg:path style="fill:#AFAFAF; fill-opacity:1.0;  stroke:#AFAFAF; stroke-width:1.000000; stroke-opacity:1;  stroke-linecap:round; stroke-linejoin:round;fill-rule:evenodd;" d="M 54546600.000000,50628600.000000 53556000.000000,50628600.000000 53556000.000000,50171400.000000 54546600.000000,50171400.000000 Z"/> 
<svg:path style="fill:#AFAFAF; fill-opacity:1.0;  stroke:#AFAFAF; stroke-width:1.000000; stroke-opacity:1;  stroke-linecap:round; stroke-linejoin:round;fill-rule:evenodd;" d="M 46444000.000000,49028600.000000 45453400.000000,49028600.000000 45453400.000000,48571400.000000 46444000.000000,48571400.000000 Z"/> 
<svg:path style="fill:#AFAFAF; fill-opacity:1.0;  stroke:#AFAFAF; stroke-width:1.000000; stroke-opacity:1;  stroke-linecap:round; stroke-linejoin:round;fill-rule:evenodd;" d="M 50628600.000000,46444000.000000 50171400.000000,46444000.000000 50171400.000000,45453400.000000 50628600.000000,45453400.000000 Z"/> 
<svg:path style="fill:#AFAFAF; fill-opacity:1.0;  stroke:#AFAFAF; stroke-width:1.000000; stroke-opacity:1;  stroke-linecap:round; stroke-linejoin:round;fill-rule:evenodd;" d="M 52228600.000000,54546600.000000 51771400.000000,54546600.000000 51771400.000000,53556000.000000 52228600.000000,53556000.000000 Z"/> 
<svg:path style="fill:#AFAFAF; fill-opacity:1.0;  stroke:#AFAFAF; stroke-width:1.000000; stroke-opacity:1;  stroke-linecap:round; stroke-linejoin:round;fill-rule:evenodd;" d="M 50628600.000000,54546600.000000 50171400.000000,54546600.000000 50171400.000000,53556000.000000 50628600.000000,53556000.000000 Z"/> 
<svg:path style="fill:#AFAFAF; fill-opacity:1.0;  stroke:#AFAFAF; stroke-width:1.000000; stroke-opacity:1;  stroke-linecap:round; stroke-linejoin:round;fill-rule:evenodd;" d="M 47428600.000000,54546600.000000 46971400.000000,54546600.000000 46971400.000000,53556000.000000 47428600.000000,53556000.000000 Z"/> 
<svg:path style="fill:#AFAFAF; fill-opacity:1.0;  stroke:#AFAFAF; stroke-width:1.000000; stroke-opacity:1;  stroke-linecap:round; stroke-linejoin:round;fill-rule:evenodd;" d="M 51428600.000000,54546600.000000 50971400.000000,54546600.000000 50971400.000000,53556000.000000 51428600.000000,53556000.000000 Z"/> 
<svg:path style="fill:#AFAFAF; fill-opacity:1.0;  stroke:#AFAFAF; stroke-width:1.000000; stroke-opacity:1;  stroke-linecap:round; stroke-linejoin:round;fill-rule:evenodd;" d="M 46444000.000000,51428600.000000 45453400.000000,51428600.000000 45453400.000000,50971400.000000 46444000.000000,50971400.000000 Z"/> 
<svg:g>
</svg:g>
<svg:g>
</svg:g>
<svg:g>
</svg:g>
<svg:g>
</svg:g>
</svg:g>
<svg:g style="fill:#000000; fill-opacity:1.0;  stroke:#000000; stroke-width:1.000000; stroke-opacity:1;  stroke-linecap:round; stroke-linejoin:round;">
<svg:g>
</svg:g>
<svg:g>
</svg:g>
<svg:g>
</svg:g>
<svg:g>
</svg:g>
</svg:g> 
</svg:g><svg:g><svg:title>SVG Picture created as kicadBoard-F_Mask.svg date 2022/12/03 02:58:41 </svg:title>
  <svg:desc>Picture generated by PCBNEW </svg:desc>
<svg:g style="fill:#000000; fill-opacity:1.000000;stroke:#000000; stroke-opacity:1.000000; stroke-linecap:round; stroke-linejoin:round;" transform="translate(0 0) scale(1 1)">
</svg:g>
<svg:g style="fill:#000000; fill-opacity:0.0;  stroke:#000000; stroke-width:0.000000; stroke-opacity:1;  stroke-linecap:round; stroke-linejoin:round;">
<svg:g>
</svg:g>
<svg:g style="fill:#000000; fill-opacity:0.0;  stroke:#000000; stroke-width:1.000000; stroke-opacity:1;  stroke-linecap:round; stroke-linejoin:round;">
</svg:g>
<svg:g style="fill:#000000; fill-opacity:1.0;  stroke:#000000; stroke-width:1.000000; stroke-opacity:1;  stroke-linecap:round; stroke-linejoin:round;">
<svg:path style="fill:#000000; fill-opacity:1.0;  stroke:#000000; stroke-width:1.000000; stroke-opacity:1;  stroke-linecap:round; stroke-linejoin:round;fill-rule:evenodd;" d="M 44970800.000000,46920600.000000 44978534.000000,46881719.000000 45000558.000000,46848758.000000 45033519.000000,46826734.000000 45072400.000000,46819000.000000 46342400.000000,46819000.000000 46381281.000000,46826734.000000 46414242.000000,46848758.000000 46436266.000000,46881719.000000 46444000.000000,46920600.000000 46444000.000000,47479400.000000 46436266.000000,47518281.000000 46414242.000000,47551242.000000 46381281.000000,47573266.000000 46342400.000000,47581000.000000 45072400.000000,47581000.000000 45033519.000000,47573266.000000 45000558.000000,47551242.000000 44978534.000000,47518281.000000 44970800.000000,47479400.000000 Z"/> 
<svg:path style="fill:#000000; fill-opacity:1.0;  stroke:#000000; stroke-width:1.000000; stroke-opacity:1;  stroke-linecap:round; stroke-linejoin:round;fill-rule:evenodd;" d="M 44970800.000000,47720600.000000 44978534.000000,47681719.000000 45000558.000000,47648758.000000 45033519.000000,47626734.000000 45072400.000000,47619000.000000 46342400.000000,47619000.000000 46381281.000000,47626734.000000 46414242.000000,47648758.000000 46436266.000000,47681719.000000 46444000.000000,47720600.000000 46444000.000000,48279400.000000 46436266.000000,48318281.000000 46414242.000000,48351242.000000 46381281.000000,48373266.000000 46342400.000000,48381000.000000 45072400.000000,48381000.000000 45033519.000000,48373266.000000 45000558.000000,48351242.000000 44978534.000000,48318281.000000 44970800.000000,48279400.000000 Z"/> 
<svg:path style="fill:#000000; fill-opacity:1.0;  stroke:#000000; stroke-width:1.000000; stroke-opacity:1;  stroke-linecap:round; stroke-linejoin:round;fill-rule:evenodd;" d="M 44970800.000000,48520600.000000 44978534.000000,48481719.000000 45000558.000000,48448758.000000 45033519.000000,48426734.000000 45072400.000000,48419000.000000 46342400.000000,48419000.000000 46381281.000000,48426734.000000 46414242.000000,48448758.000000 46436266.000000,48481719.000000 46444000.000000,48520600.000000 46444000.000000,49079400.000000 46436266.000000,49118281.000000 46414242.000000,49151242.000000 46381281.000000,49173266.000000 46342400.000000,49181000.000000 45072400.000000,49181000.000000 45033519.000000,49173266.000000 45000558.000000,49151242.000000 44978534.000000,49118281.000000 44970800.000000,49079400.000000 Z"/> 
<svg:path style="fill:#000000; fill-opacity:1.0;  stroke:#000000; stroke-width:1.000000; stroke-opacity:1;  stroke-linecap:round; stroke-linejoin:round;fill-rule:evenodd;" d="M 44970800.000000,49320600.000000 44978534.000000,49281719.000000 45000558.000000,49248758.000000 45033519.000000,49226734.000000 45072400.000000,49219000.000000 46342400.000000,49219000.000000 46381281.000000,49226734.000000 46414242.000000,49248758.000000 46436266.000000,49281719.000000 46444000.000000,49320600.000000 46444000.000000,49879400.000000 46436266.000000,49918281.000000 46414242.000000,49951242.000000 46381281.000000,49973266.000000 46342400.000000,49981000.000000 45072400.000000,49981000.000000 45033519.000000,49973266.000000 45000558.000000,49951242.000000 44978534.000000,49918281.000000 44970800.000000,49879400.000000 Z"/> 
<svg:path style="fill:#000000; fill-opacity:1.0;  stroke:#000000; stroke-width:1.000000; stroke-opacity:1;  stroke-linecap:round; stroke-linejoin:round;fill-rule:evenodd;" d="M 44970800.000000,50120600.000000 44978534.000000,50081719.000000 45000558.000000,50048758.000000 45033519.000000,50026734.000000 45072400.000000,50019000.000000 46342400.000000,50019000.000000 46381281.000000,50026734.000000 46414242.000000,50048758.000000 46436266.000000,50081719.000000 46444000.000000,50120600.000000 46444000.000000,50679400.000000 46436266.000000,50718281.000000 46414242.000000,50751242.000000 46381281.000000,50773266.000000 46342400.000000,50781000.000000 45072400.000000,50781000.000000 45033519.000000,50773266.000000 45000558.000000,50751242.000000 44978534.000000,50718281.000000 44970800.000000,50679400.000000 Z"/> 
<svg:path style="fill:#000000; fill-opacity:1.0;  stroke:#000000; stroke-width:1.000000; stroke-opacity:1;  stroke-linecap:round; stroke-linejoin:round;fill-rule:evenodd;" d="M 44970800.000000,50920600.000000 44978534.000000,50881719.000000 45000558.000000,50848758.000000 45033519.000000,50826734.000000 45072400.000000,50819000.000000 46342400.000000,50819000.000000 46381281.000000,50826734.000000 46414242.000000,50848758.000000 46436266.000000,50881719.000000 46444000.000000,50920600.000000 46444000.000000,51479400.000000 46436266.000000,51518281.000000 46414242.000000,51551242.000000 46381281.000000,51573266.000000 46342400.000000,51581000.000000 45072400.000000,51581000.000000 45033519.000000,51573266.000000 45000558.000000,51551242.000000 44978534.000000,51518281.000000 44970800.000000,51479400.000000 Z"/> 
<svg:path style="fill:#000000; fill-opacity:1.0;  stroke:#000000; stroke-width:1.000000; stroke-opacity:1;  stroke-linecap:round; stroke-linejoin:round;fill-rule:evenodd;" d="M 44970800.000000,51720600.000000 44978534.000000,51681719.000000 45000558.000000,51648758.000000 45033519.000000,51626734.000000 45072400.000000,51619000.000000 46342400.000000,51619000.000000 46381281.000000,51626734.000000 46414242.000000,51648758.000000 46436266.000000,51681719.000000 46444000.000000,51720600.000000 46444000.000000,52279400.000000 46436266.000000,52318281.000000 46414242.000000,52351242.000000 46381281.000000,52373266.000000 46342400.000000,52381000.000000 45072400.000000,52381000.000000 45033519.000000,52373266.000000 45000558.000000,52351242.000000 44978534.000000,52318281.000000 44970800.000000,52279400.000000 Z"/> 
<svg:path style="fill:#000000; fill-opacity:1.0;  stroke:#000000; stroke-width:1.000000; stroke-opacity:1;  stroke-linecap:round; stroke-linejoin:round;fill-rule:evenodd;" d="M 44970800.000000,52520600.000000 44978534.000000,52481719.000000 45000558.000000,52448758.000000 45033519.000000,52426734.000000 45072400.000000,52419000.000000 46342400.000000,52419000.000000 46381281.000000,52426734.000000 46414242.000000,52448758.000000 46436266.000000,52481719.000000 46444000.000000,52520600.000000 46444000.000000,53079400.000000 46436266.000000,53118281.000000 46414242.000000,53151242.000000 46381281.000000,53173266.000000 46342400.000000,53181000.000000 45072400.000000,53181000.000000 45033519.000000,53173266.000000 45000558.000000,53151242.000000 44978534.000000,53118281.000000 44970800.000000,53079400.000000 Z"/> 
<svg:path style="fill:#000000; fill-opacity:1.0;  stroke:#000000; stroke-width:1.000000; stroke-opacity:1;  stroke-linecap:round; stroke-linejoin:round;fill-rule:evenodd;" d="M 46819000.000000,53657600.000000 46826734.000000,53618719.000000 46848758.000000,53585758.000000 46881719.000000,53563734.000000 46920600.000000,53556000.000000 47479400.000000,53556000.000000 47518281.000000,53563734.000000 47551242.000000,53585758.000000 47573266.000000,53618719.000000 47581000.000000,53657600.000000 47581000.000000,54927600.000000 47573266.000000,54966481.000000 47551242.000000,54999442.000000 47518281.000000,55021466.000000 47479400.000000,55029200.000000 46920600.000000,55029200.000000 46881719.000000,55021466.000000 46848758.000000,54999442.000000 46826734.000000,54966481.000000 46819000.000000,54927600.000000 Z"/> 
<svg:path style="fill:#000000; fill-opacity:1.0;  stroke:#000000; stroke-width:1.000000; stroke-opacity:1;  stroke-linecap:round; stroke-linejoin:round;fill-rule:evenodd;" d="M 47619000.000000,53657600.000000 47626734.000000,53618719.000000 47648758.000000,53585758.000000 47681719.000000,53563734.000000 47720600.000000,53556000.000000 48279400.000000,53556000.000000 48318281.000000,53563734.000000 48351242.000000,53585758.000000 48373266.000000,53618719.000000 48381000.000000,53657600.000000 48381000.000000,54927600.000000 48373266.000000,54966481.000000 48351242.000000,54999442.000000 48318281.000000,55021466.000000 48279400.000000,55029200.000000 47720600.000000,55029200.000000 47681719.000000,55021466.000000 47648758.000000,54999442.000000 47626734.000000,54966481.000000 47619000.000000,54927600.000000 Z"/> 
<svg:path style="fill:#000000; fill-opacity:1.0;  stroke:#000000; stroke-width:1.000000; stroke-opacity:1;  stroke-linecap:round; stroke-linejoin:round;fill-rule:evenodd;" d="M 48419000.000000,53657600.000000 48426734.000000,53618719.000000 48448758.000000,53585758.000000 48481719.000000,53563734.000000 48520600.000000,53556000.000000 49079400.000000,53556000.000000 49118281.000000,53563734.000000 49151242.000000,53585758.000000 49173266.000000,53618719.000000 49181000.000000,53657600.000000 49181000.000000,54927600.000000 49173266.000000,54966481.000000 49151242.000000,54999442.000000 49118281.000000,55021466.000000 49079400.000000,55029200.000000 48520600.000000,55029200.000000 48481719.000000,55021466.000000 48448758.000000,54999442.000000 48426734.000000,54966481.000000 48419000.000000,54927600.000000 Z"/> 
<svg:path style="fill:#000000; fill-opacity:1.0;  stroke:#000000; stroke-width:1.000000; stroke-opacity:1;  stroke-linecap:round; stroke-linejoin:round;fill-rule:evenodd;" d="M 49219000.000000,53657600.000000 49226734.000000,53618719.000000 49248758.000000,53585758.000000 49281719.000000,53563734.000000 49320600.000000,53556000.000000 49879400.000000,53556000.000000 49918281.000000,53563734.000000 49951242.000000,53585758.000000 49973266.000000,53618719.000000 49981000.000000,53657600.000000 49981000.000000,54927600.000000 49973266.000000,54966481.000000 49951242.000000,54999442.000000 49918281.000000,55021466.000000 49879400.000000,55029200.000000 49320600.000000,55029200.000000 49281719.000000,55021466.000000 49248758.000000,54999442.000000 49226734.000000,54966481.000000 49219000.000000,54927600.000000 Z"/> 
<svg:path style="fill:#000000; fill-opacity:1.0;  stroke:#000000; stroke-width:1.000000; stroke-opacity:1;  stroke-linecap:round; stroke-linejoin:round;fill-rule:evenodd;" d="M 50019000.000000,53657600.000000 50026734.000000,53618719.000000 50048758.000000,53585758.000000 50081719.000000,53563734.000000 50120600.000000,53556000.000000 50679400.000000,53556000.000000 50718281.000000,53563734.000000 50751242.000000,53585758.000000 50773266.000000,53618719.000000 50781000.000000,53657600.000000 50781000.000000,54927600.000000 50773266.000000,54966481.000000 50751242.000000,54999442.000000 50718281.000000,55021466.000000 50679400.000000,55029200.000000 50120600.000000,55029200.000000 50081719.000000,55021466.000000 50048758.000000,54999442.000000 50026734.000000,54966481.000000 50019000.000000,54927600.000000 Z"/> 
<svg:path style="fill:#000000; fill-opacity:1.0;  stroke:#000000; stroke-width:1.000000; stroke-opacity:1;  stroke-linecap:round; stroke-linejoin:round;fill-rule:evenodd;" d="M 50819000.000000,53657600.000000 50826734.000000,53618719.000000 50848758.000000,53585758.000000 50881719.000000,53563734.000000 50920600.000000,53556000.000000 51479400.000000,53556000.000000 51518281.000000,53563734.000000 51551242.000000,53585758.000000 51573266.000000,53618719.000000 51581000.000000,53657600.000000 51581000.000000,54927600.000000 51573266.000000,54966481.000000 51551242.000000,54999442.000000 51518281.000000,55021466.000000 51479400.000000,55029200.000000 50920600.000000,55029200.000000 50881719.000000,55021466.000000 50848758.000000,54999442.000000 50826734.000000,54966481.000000 50819000.000000,54927600.000000 Z"/> 
<svg:path style="fill:#000000; fill-opacity:1.0;  stroke:#000000; stroke-width:1.000000; stroke-opacity:1;  stroke-linecap:round; stroke-linejoin:round;fill-rule:evenodd;" d="M 51619000.000000,53657600.000000 51626734.000000,53618719.000000 51648758.000000,53585758.000000 51681719.000000,53563734.000000 51720600.000000,53556000.000000 52279400.000000,53556000.000000 52318281.000000,53563734.000000 52351242.000000,53585758.000000 52373266.000000,53618719.000000 52381000.000000,53657600.000000 52381000.000000,54927600.000000 52373266.000000,54966481.000000 52351242.000000,54999442.000000 52318281.000000,55021466.000000 52279400.000000,55029200.000000 51720600.000000,55029200.000000 51681719.000000,55021466.000000 51648758.000000,54999442.000000 51626734.000000,54966481.000000 51619000.000000,54927600.000000 Z"/> 
<svg:path style="fill:#000000; fill-opacity:1.0;  stroke:#000000; stroke-width:1.000000; stroke-opacity:1;  stroke-linecap:round; stroke-linejoin:round;fill-rule:evenodd;" d="M 52419000.000000,53657600.000000 52426734.000000,53618719.000000 52448758.000000,53585758.000000 52481719.000000,53563734.000000 52520600.000000,53556000.000000 53079400.000000,53556000.000000 53118281.000000,53563734.000000 53151242.000000,53585758.000000 53173266.000000,53618719.000000 53181000.000000,53657600.000000 53181000.000000,54927600.000000 53173266.000000,54966481.000000 53151242.000000,54999442.000000 53118281.000000,55021466.000000 53079400.000000,55029200.000000 52520600.000000,55029200.000000 52481719.000000,55021466.000000 52448758.000000,54999442.000000 52426734.000000,54966481.000000 52419000.000000,54927600.000000 Z"/> 
<svg:path style="fill:#000000; fill-opacity:1.0;  stroke:#000000; stroke-width:1.000000; stroke-opacity:1;  stroke-linecap:round; stroke-linejoin:round;fill-rule:evenodd;" d="M 53556000.000000,52520600.000000 53563734.000000,52481719.000000 53585758.000000,52448758.000000 53618719.000000,52426734.000000 53657600.000000,52419000.000000 54927600.000000,52419000.000000 54966481.000000,52426734.000000 54999442.000000,52448758.000000 55021466.000000,52481719.000000 55029200.000000,52520600.000000 55029200.000000,53079400.000000 55021466.000000,53118281.000000 54999442.000000,53151242.000000 54966481.000000,53173266.000000 54927600.000000,53181000.000000 53657600.000000,53181000.000000 53618719.000000,53173266.000000 53585758.000000,53151242.000000 53563734.000000,53118281.000000 53556000.000000,53079400.000000 Z"/> 
<svg:path style="fill:#000000; fill-opacity:1.0;  stroke:#000000; stroke-width:1.000000; stroke-opacity:1;  stroke-linecap:round; stroke-linejoin:round;fill-rule:evenodd;" d="M 53556000.000000,51720600.000000 53563734.000000,51681719.000000 53585758.000000,51648758.000000 53618719.000000,51626734.000000 53657600.000000,51619000.000000 54927600.000000,51619000.000000 54966481.000000,51626734.000000 54999442.000000,51648758.000000 55021466.000000,51681719.000000 55029200.000000,51720600.000000 55029200.000000,52279400.000000 55021466.000000,52318281.000000 54999442.000000,52351242.000000 54966481.000000,52373266.000000 54927600.000000,52381000.000000 53657600.000000,52381000.000000 53618719.000000,52373266.000000 53585758.000000,52351242.000000 53563734.000000,52318281.000000 53556000.000000,52279400.000000 Z"/> 
<svg:path style="fill:#000000; fill-opacity:1.0;  stroke:#000000; stroke-width:1.000000; stroke-opacity:1;  stroke-linecap:round; stroke-linejoin:round;fill-rule:evenodd;" d="M 53556000.000000,50920600.000000 53563734.000000,50881719.000000 53585758.000000,50848758.000000 53618719.000000,50826734.000000 53657600.000000,50819000.000000 54927600.000000,50819000.000000 54966481.000000,50826734.000000 54999442.000000,50848758.000000 55021466.000000,50881719.000000 55029200.000000,50920600.000000 55029200.000000,51479400.000000 55021466.000000,51518281.000000 54999442.000000,51551242.000000 54966481.000000,51573266.000000 54927600.000000,51581000.000000 53657600.000000,51581000.000000 53618719.000000,51573266.000000 53585758.000000,51551242.000000 53563734.000000,51518281.000000 53556000.000000,51479400.000000 Z"/> 
<svg:path style="fill:#000000; fill-opacity:1.0;  stroke:#000000; stroke-width:1.000000; stroke-opacity:1;  stroke-linecap:round; stroke-linejoin:round;fill-rule:evenodd;" d="M 53556000.000000,50120600.000000 53563734.000000,50081719.000000 53585758.000000,50048758.000000 53618719.000000,50026734.000000 53657600.000000,50019000.000000 54927600.000000,50019000.000000 54966481.000000,50026734.000000 54999442.000000,50048758.000000 55021466.000000,50081719.000000 55029200.000000,50120600.000000 55029200.000000,50679400.000000 55021466.000000,50718281.000000 54999442.000000,50751242.000000 54966481.000000,50773266.000000 54927600.000000,50781000.000000 53657600.000000,50781000.000000 53618719.000000,50773266.000000 53585758.000000,50751242.000000 53563734.000000,50718281.000000 53556000.000000,50679400.000000 Z"/> 
<svg:path style="fill:#000000; fill-opacity:1.0;  stroke:#000000; stroke-width:1.000000; stroke-opacity:1;  stroke-linecap:round; stroke-linejoin:round;fill-rule:evenodd;" d="M 53556000.000000,49320600.000000 53563734.000000,49281719.000000 53585758.000000,49248758.000000 53618719.000000,49226734.000000 53657600.000000,49219000.000000 54927600.000000,49219000.000000 54966481.000000,49226734.000000 54999442.000000,49248758.000000 55021466.000000,49281719.000000 55029200.000000,49320600.000000 55029200.000000,49879400.000000 55021466.000000,49918281.000000 54999442.000000,49951242.000000 54966481.000000,49973266.000000 54927600.000000,49981000.000000 53657600.000000,49981000.000000 53618719.000000,49973266.000000 53585758.000000,49951242.000000 53563734.000000,49918281.000000 53556000.000000,49879400.000000 Z"/> 
<svg:path style="fill:#000000; fill-opacity:1.0;  stroke:#000000; stroke-width:1.000000; stroke-opacity:1;  stroke-linecap:round; stroke-linejoin:round;fill-rule:evenodd;" d="M 53556000.000000,48520600.000000 53563734.000000,48481719.000000 53585758.000000,48448758.000000 53618719.000000,48426734.000000 53657600.000000,48419000.000000 54927600.000000,48419000.000000 54966481.000000,48426734.000000 54999442.000000,48448758.000000 55021466.000000,48481719.000000 55029200.000000,48520600.000000 55029200.000000,49079400.000000 55021466.000000,49118281.000000 54999442.000000,49151242.000000 54966481.000000,49173266.000000 54927600.000000,49181000.000000 53657600.000000,49181000.000000 53618719.000000,49173266.000000 53585758.000000,49151242.000000 53563734.000000,49118281.000000 53556000.000000,49079400.000000 Z"/> 
<svg:path style="fill:#000000; fill-opacity:1.0;  stroke:#000000; stroke-width:1.000000; stroke-opacity:1;  stroke-linecap:round; stroke-linejoin:round;fill-rule:evenodd;" d="M 53556000.000000,47720600.000000 53563734.000000,47681719.000000 53585758.000000,47648758.000000 53618719.000000,47626734.000000 53657600.000000,47619000.000000 54927600.000000,47619000.000000 54966481.000000,47626734.000000 54999442.000000,47648758.000000 55021466.000000,47681719.000000 55029200.000000,47720600.000000 55029200.000000,48279400.000000 55021466.000000,48318281.000000 54999442.000000,48351242.000000 54966481.000000,48373266.000000 54927600.000000,48381000.000000 53657600.000000,48381000.000000 53618719.000000,48373266.000000 53585758.000000,48351242.000000 53563734.000000,48318281.000000 53556000.000000,48279400.000000 Z"/> 
<svg:path style="fill:#000000; fill-opacity:1.0;  stroke:#000000; stroke-width:1.000000; stroke-opacity:1;  stroke-linecap:round; stroke-linejoin:round;fill-rule:evenodd;" d="M 53556000.000000,46920600.000000 53563734.000000,46881719.000000 53585758.000000,46848758.000000 53618719.000000,46826734.000000 53657600.000000,46819000.000000 54927600.000000,46819000.000000 54966481.000000,46826734.000000 54999442.000000,46848758.000000 55021466.000000,46881719.000000 55029200.000000,46920600.000000 55029200.000000,47479400.000000 55021466.000000,47518281.000000 54999442.000000,47551242.000000 54966481.000000,47573266.000000 54927600.000000,47581000.000000 53657600.000000,47581000.000000 53618719.000000,47573266.000000 53585758.000000,47551242.000000 53563734.000000,47518281.000000 53556000.000000,47479400.000000 Z"/> 
<svg:path style="fill:#000000; fill-opacity:1.0;  stroke:#000000; stroke-width:1.000000; stroke-opacity:1;  stroke-linecap:round; stroke-linejoin:round;fill-rule:evenodd;" d="M 52419000.000000,45072400.000000 52426734.000000,45033519.000000 52448758.000000,45000558.000000 52481719.000000,44978534.000000 52520600.000000,44970800.000000 53079400.000000,44970800.000000 53118281.000000,44978534.000000 53151242.000000,45000558.000000 53173266.000000,45033519.000000 53181000.000000,45072400.000000 53181000.000000,46342400.000000 53173266.000000,46381281.000000 53151242.000000,46414242.000000 53118281.000000,46436266.000000 53079400.000000,46444000.000000 52520600.000000,46444000.000000 52481719.000000,46436266.000000 52448758.000000,46414242.000000 52426734.000000,46381281.000000 52419000.000000,46342400.000000 Z"/> 
<svg:path style="fill:#000000; fill-opacity:1.0;  stroke:#000000; stroke-width:1.000000; stroke-opacity:1;  stroke-linecap:round; stroke-linejoin:round;fill-rule:evenodd;" d="M 51619000.000000,45072400.000000 51626734.000000,45033519.000000 51648758.000000,45000558.000000 51681719.000000,44978534.000000 51720600.000000,44970800.000000 52279400.000000,44970800.000000 52318281.000000,44978534.000000 52351242.000000,45000558.000000 52373266.000000,45033519.000000 52381000.000000,45072400.000000 52381000.000000,46342400.000000 52373266.000000,46381281.000000 52351242.000000,46414242.000000 52318281.000000,46436266.000000 52279400.000000,46444000.000000 51720600.000000,46444000.000000 51681719.000000,46436266.000000 51648758.000000,46414242.000000 51626734.000000,46381281.000000 51619000.000000,46342400.000000 Z"/> 
<svg:path style="fill:#000000; fill-opacity:1.0;  stroke:#000000; stroke-width:1.000000; stroke-opacity:1;  stroke-linecap:round; stroke-linejoin:round;fill-rule:evenodd;" d="M 50819000.000000,45072400.000000 50826734.000000,45033519.000000 50848758.000000,45000558.000000 50881719.000000,44978534.000000 50920600.000000,44970800.000000 51479400.000000,44970800.000000 51518281.000000,44978534.000000 51551242.000000,45000558.000000 51573266.000000,45033519.000000 51581000.000000,45072400.000000 51581000.000000,46342400.000000 51573266.000000,46381281.000000 51551242.000000,46414242.000000 51518281.000000,46436266.000000 51479400.000000,46444000.000000 50920600.000000,46444000.000000 50881719.000000,46436266.000000 50848758.000000,46414242.000000 50826734.000000,46381281.000000 50819000.000000,46342400.000000 Z"/> 
<svg:path style="fill:#000000; fill-opacity:1.0;  stroke:#000000; stroke-width:1.000000; stroke-opacity:1;  stroke-linecap:round; stroke-linejoin:round;fill-rule:evenodd;" d="M 50019000.000000,45072400.000000 50026734.000000,45033519.000000 50048758.000000,45000558.000000 50081719.000000,44978534.000000 50120600.000000,44970800.000000 50679400.000000,44970800.000000 50718281.000000,44978534.000000 50751242.000000,45000558.000000 50773266.000000,45033519.000000 50781000.000000,45072400.000000 50781000.000000,46342400.000000 50773266.000000,46381281.000000 50751242.000000,46414242.000000 50718281.000000,46436266.000000 50679400.000000,46444000.000000 50120600.000000,46444000.000000 50081719.000000,46436266.000000 50048758.000000,46414242.000000 50026734.000000,46381281.000000 50019000.000000,46342400.000000 Z"/> 
<svg:path style="fill:#000000; fill-opacity:1.0;  stroke:#000000; stroke-width:1.000000; stroke-opacity:1;  stroke-linecap:round; stroke-linejoin:round;fill-rule:evenodd;" d="M 49219000.000000,45072400.000000 49226734.000000,45033519.000000 49248758.000000,45000558.000000 49281719.000000,44978534.000000 49320600.000000,44970800.000000 49879400.000000,44970800.000000 49918281.000000,44978534.000000 49951242.000000,45000558.000000 49973266.000000,45033519.000000 49981000.000000,45072400.000000 49981000.000000,46342400.000000 49973266.000000,46381281.000000 49951242.000000,46414242.000000 49918281.000000,46436266.000000 49879400.000000,46444000.000000 49320600.000000,46444000.000000 49281719.000000,46436266.000000 49248758.000000,46414242.000000 49226734.000000,46381281.000000 49219000.000000,46342400.000000 Z"/> 
<svg:path style="fill:#000000; fill-opacity:1.0;  stroke:#000000; stroke-width:1.000000; stroke-opacity:1;  stroke-linecap:round; stroke-linejoin:round;fill-rule:evenodd;" d="M 48419000.000000,45072400.000000 48426734.000000,45033519.000000 48448758.000000,45000558.000000 48481719.000000,44978534.000000 48520600.000000,44970800.000000 49079400.000000,44970800.000000 49118281.000000,44978534.000000 49151242.000000,45000558.000000 49173266.000000,45033519.000000 49181000.000000,45072400.000000 49181000.000000,46342400.000000 49173266.000000,46381281.000000 49151242.000000,46414242.000000 49118281.000000,46436266.000000 49079400.000000,46444000.000000 48520600.000000,46444000.000000 48481719.000000,46436266.000000 48448758.000000,46414242.000000 48426734.000000,46381281.000000 48419000.000000,46342400.000000 Z"/> 
<svg:path style="fill:#000000; fill-opacity:1.0;  stroke:#000000; stroke-width:1.000000; stroke-opacity:1;  stroke-linecap:round; stroke-linejoin:round;fill-rule:evenodd;" d="M 47619000.000000,45072400.000000 47626734.000000,45033519.000000 47648758.000000,45000558.000000 47681719.000000,44978534.000000 47720600.000000,44970800.000000 48279400.000000,44970800.000000 48318281.000000,44978534.000000 48351242.000000,45000558.000000 48373266.000000,45033519.000000 48381000.000000,45072400.000000 48381000.000000,46342400.000000 48373266.000000,46381281.000000 48351242.000000,46414242.000000 48318281.000000,46436266.000000 48279400.000000,46444000.000000 47720600.000000,46444000.000000 47681719.000000,46436266.000000 47648758.000000,46414242.000000 47626734.000000,46381281.000000 47619000.000000,46342400.000000 Z"/> 
<svg:path style="fill:#000000; fill-opacity:1.0;  stroke:#000000; stroke-width:1.000000; stroke-opacity:1;  stroke-linecap:round; stroke-linejoin:round;fill-rule:evenodd;" d="M 46819000.000000,45072400.000000 46826734.000000,45033519.000000 46848758.000000,45000558.000000 46881719.000000,44978534.000000 46920600.000000,44970800.000000 47479400.000000,44970800.000000 47518281.000000,44978534.000000 47551242.000000,45000558.000000 47573266.000000,45033519.000000 47581000.000000,45072400.000000 47581000.000000,46342400.000000 47573266.000000,46381281.000000 47551242.000000,46414242.000000 47518281.000000,46436266.000000 47479400.000000,46444000.000000 46920600.000000,46444000.000000 46881719.000000,46436266.000000 46848758.000000,46414242.000000 46826734.000000,46381281.000000 46819000.000000,46342400.000000 Z"/> 
</svg:g>
<svg:g>
</svg:g>
<svg:g>
</svg:g>
<svg:g>
</svg:g>
</svg:g>
<svg:g style="fill:#000000; fill-opacity:1.0;  stroke:#000000; stroke-width:1.000000; stroke-opacity:1;  stroke-linecap:round; stroke-linejoin:round;">
<svg:g>
</svg:g>
<svg:g>
</svg:g>
<svg:g>
</svg:g>
<svg:g>
</svg:g>
</svg:g> 
</svg:g><svg:g><svg:title>SVG Picture created as kicadBoard-F_Paste.svg date 2022/12/03 02:58:41 </svg:title>
  <svg:desc>Picture generated by PCBNEW </svg:desc>
<svg:g style="fill:#000000; fill-opacity:1.000000;stroke:#000000; stroke-opacity:1.000000; stroke-linecap:round; stroke-linejoin:round;" transform="translate(0 0) scale(1 1)">
</svg:g>
<svg:g style="fill:#000000; fill-opacity:0.0;  stroke:#000000; stroke-width:0.000000; stroke-opacity:1;  stroke-linecap:round; stroke-linejoin:round;">
<svg:g>
</svg:g>
<svg:g style="fill:#000000; fill-opacity:0.0;  stroke:#000000; stroke-width:1.000000; stroke-opacity:1;  stroke-linecap:round; stroke-linejoin:round;">
</svg:g>
<svg:g style="fill:#000000; fill-opacity:1.0;  stroke:#000000; stroke-width:1.000000; stroke-opacity:1;  stroke-linecap:round; stroke-linejoin:round;">
<svg:path style="fill:#000000; fill-opacity:1.0;  stroke:#000000; stroke-width:1.000000; stroke-opacity:1;  stroke-linecap:round; stroke-linejoin:round;fill-rule:evenodd;" d="M 45072401.000000,47479399.000000 45072401.000000,46920601.000000 46342399.000000,46920601.000000 46342399.000000,47479399.000000 Z"/> 
<svg:path style="fill:#000000; fill-opacity:1.0;  stroke:#000000; stroke-width:1.000000; stroke-opacity:1;  stroke-linecap:round; stroke-linejoin:round;fill-rule:evenodd;" d="M 45072401.000000,48279399.000000 45072401.000000,47720601.000000 46342399.000000,47720601.000000 46342399.000000,48279399.000000 Z"/> 
<svg:path style="fill:#000000; fill-opacity:1.0;  stroke:#000000; stroke-width:1.000000; stroke-opacity:1;  stroke-linecap:round; stroke-linejoin:round;fill-rule:evenodd;" d="M 45072401.000000,49079399.000000 45072401.000000,48520601.000000 46342399.000000,48520601.000000 46342399.000000,49079399.000000 Z"/> 
<svg:path style="fill:#000000; fill-opacity:1.0;  stroke:#000000; stroke-width:1.000000; stroke-opacity:1;  stroke-linecap:round; stroke-linejoin:round;fill-rule:evenodd;" d="M 45072401.000000,49879399.000000 45072401.000000,49320601.000000 46342399.000000,49320601.000000 46342399.000000,49879399.000000 Z"/> 
<svg:path style="fill:#000000; fill-opacity:1.0;  stroke:#000000; stroke-width:1.000000; stroke-opacity:1;  stroke-linecap:round; stroke-linejoin:round;fill-rule:evenodd;" d="M 45072401.000000,50679399.000000 45072401.000000,50120601.000000 46342399.000000,50120601.000000 46342399.000000,50679399.000000 Z"/> 
<svg:path style="fill:#000000; fill-opacity:1.0;  stroke:#000000; stroke-width:1.000000; stroke-opacity:1;  stroke-linecap:round; stroke-linejoin:round;fill-rule:evenodd;" d="M 45072401.000000,51479399.000000 45072401.000000,50920601.000000 46342399.000000,50920601.000000 46342399.000000,51479399.000000 Z"/> 
<svg:path style="fill:#000000; fill-opacity:1.0;  stroke:#000000; stroke-width:1.000000; stroke-opacity:1;  stroke-linecap:round; stroke-linejoin:round;fill-rule:evenodd;" d="M 45072401.000000,52279399.000000 45072401.000000,51720601.000000 46342399.000000,51720601.000000 46342399.000000,52279399.000000 Z"/> 
<svg:path style="fill:#000000; fill-opacity:1.0;  stroke:#000000; stroke-width:1.000000; stroke-opacity:1;  stroke-linecap:round; stroke-linejoin:round;fill-rule:evenodd;" d="M 45072401.000000,53079399.000000 45072401.000000,52520601.000000 46342399.000000,52520601.000000 46342399.000000,53079399.000000 Z"/> 
<svg:path style="fill:#000000; fill-opacity:1.0;  stroke:#000000; stroke-width:1.000000; stroke-opacity:1;  stroke-linecap:round; stroke-linejoin:round;fill-rule:evenodd;" d="M 46920601.000000,54927599.000000 46920601.000000,53657601.000000 47479399.000000,53657601.000000 47479399.000000,54927599.000000 Z"/> 
<svg:path style="fill:#000000; fill-opacity:1.0;  stroke:#000000; stroke-width:1.000000; stroke-opacity:1;  stroke-linecap:round; stroke-linejoin:round;fill-rule:evenodd;" d="M 47720601.000000,54927599.000000 47720601.000000,53657601.000000 48279399.000000,53657601.000000 48279399.000000,54927599.000000 Z"/> 
<svg:path style="fill:#000000; fill-opacity:1.0;  stroke:#000000; stroke-width:1.000000; stroke-opacity:1;  stroke-linecap:round; stroke-linejoin:round;fill-rule:evenodd;" d="M 48520601.000000,54927599.000000 48520601.000000,53657601.000000 49079399.000000,53657601.000000 49079399.000000,54927599.000000 Z"/> 
<svg:path style="fill:#000000; fill-opacity:1.0;  stroke:#000000; stroke-width:1.000000; stroke-opacity:1;  stroke-linecap:round; stroke-linejoin:round;fill-rule:evenodd;" d="M 49320601.000000,54927599.000000 49320601.000000,53657601.000000 49879399.000000,53657601.000000 49879399.000000,54927599.000000 Z"/> 
<svg:path style="fill:#000000; fill-opacity:1.0;  stroke:#000000; stroke-width:1.000000; stroke-opacity:1;  stroke-linecap:round; stroke-linejoin:round;fill-rule:evenodd;" d="M 50120601.000000,54927599.000000 50120601.000000,53657601.000000 50679399.000000,53657601.000000 50679399.000000,54927599.000000 Z"/> 
<svg:path style="fill:#000000; fill-opacity:1.0;  stroke:#000000; stroke-width:1.000000; stroke-opacity:1;  stroke-linecap:round; stroke-linejoin:round;fill-rule:evenodd;" d="M 50920601.000000,54927599.000000 50920601.000000,53657601.000000 51479399.000000,53657601.000000 51479399.000000,54927599.000000 Z"/> 
<svg:path style="fill:#000000; fill-opacity:1.0;  stroke:#000000; stroke-width:1.000000; stroke-opacity:1;  stroke-linecap:round; stroke-linejoin:round;fill-rule:evenodd;" d="M 51720601.000000,54927599.000000 51720601.000000,53657601.000000 52279399.000000,53657601.000000 52279399.000000,54927599.000000 Z"/> 
<svg:path style="fill:#000000; fill-opacity:1.0;  stroke:#000000; stroke-width:1.000000; stroke-opacity:1;  stroke-linecap:round; stroke-linejoin:round;fill-rule:evenodd;" d="M 52520601.000000,54927599.000000 52520601.000000,53657601.000000 53079399.000000,53657601.000000 53079399.000000,54927599.000000 Z"/> 
<svg:path style="fill:#000000; fill-opacity:1.0;  stroke:#000000; stroke-width:1.000000; stroke-opacity:1;  stroke-linecap:round; stroke-linejoin:round;fill-rule:evenodd;" d="M 53657601.000000,53079399.000000 53657601.000000,52520601.000000 54927599.000000,52520601.000000 54927599.000000,53079399.000000 Z"/> 
<svg:path style="fill:#000000; fill-opacity:1.0;  stroke:#000000; stroke-width:1.000000; stroke-opacity:1;  stroke-linecap:round; stroke-linejoin:round;fill-rule:evenodd;" d="M 53657601.000000,52279399.000000 53657601.000000,51720601.000000 54927599.000000,51720601.000000 54927599.000000,52279399.000000 Z"/> 
<svg:path style="fill:#000000; fill-opacity:1.0;  stroke:#000000; stroke-width:1.000000; stroke-opacity:1;  stroke-linecap:round; stroke-linejoin:round;fill-rule:evenodd;" d="M 53657601.000000,51479399.000000 53657601.000000,50920601.000000 54927599.000000,50920601.000000 54927599.000000,51479399.000000 Z"/> 
<svg:path style="fill:#000000; fill-opacity:1.0;  stroke:#000000; stroke-width:1.000000; stroke-opacity:1;  stroke-linecap:round; stroke-linejoin:round;fill-rule:evenodd;" d="M 53657601.000000,50679399.000000 53657601.000000,50120601.000000 54927599.000000,50120601.000000 54927599.000000,50679399.000000 Z"/> 
<svg:path style="fill:#000000; fill-opacity:1.0;  stroke:#000000; stroke-width:1.000000; stroke-opacity:1;  stroke-linecap:round; stroke-linejoin:round;fill-rule:evenodd;" d="M 53657601.000000,49879399.000000 53657601.000000,49320601.000000 54927599.000000,49320601.000000 54927599.000000,49879399.000000 Z"/> 
<svg:path style="fill:#000000; fill-opacity:1.0;  stroke:#000000; stroke-width:1.000000; stroke-opacity:1;  stroke-linecap:round; stroke-linejoin:round;fill-rule:evenodd;" d="M 53657601.000000,49079399.000000 53657601.000000,48520601.000000 54927599.000000,48520601.000000 54927599.000000,49079399.000000 Z"/> 
<svg:path style="fill:#000000; fill-opacity:1.0;  stroke:#000000; stroke-width:1.000000; stroke-opacity:1;  stroke-linecap:round; stroke-linejoin:round;fill-rule:evenodd;" d="M 53657601.000000,48279399.000000 53657601.000000,47720601.000000 54927599.000000,47720601.000000 54927599.000000,48279399.000000 Z"/> 
<svg:path style="fill:#000000; fill-opacity:1.0;  stroke:#000000; stroke-width:1.000000; stroke-opacity:1;  stroke-linecap:round; stroke-linejoin:round;fill-rule:evenodd;" d="M 53657601.000000,47479399.000000 53657601.000000,46920601.000000 54927599.000000,46920601.000000 54927599.000000,47479399.000000 Z"/> 
<svg:path style="fill:#000000; fill-opacity:1.0;  stroke:#000000; stroke-width:1.000000; stroke-opacity:1;  stroke-linecap:round; stroke-linejoin:round;fill-rule:evenodd;" d="M 52520601.000000,46342399.000000 52520601.000000,45072401.000000 53079399.000000,45072401.000000 53079399.000000,46342399.000000 Z"/> 
<svg:path style="fill:#000000; fill-opacity:1.0;  stroke:#000000; stroke-width:1.000000; stroke-opacity:1;  stroke-linecap:round; stroke-linejoin:round;fill-rule:evenodd;" d="M 51720601.000000,46342399.000000 51720601.000000,45072401.000000 52279399.000000,45072401.000000 52279399.000000,46342399.000000 Z"/> 
<svg:path style="fill:#000000; fill-opacity:1.0;  stroke:#000000; stroke-width:1.000000; stroke-opacity:1;  stroke-linecap:round; stroke-linejoin:round;fill-rule:evenodd;" d="M 50920601.000000,46342399.000000 50920601.000000,45072401.000000 51479399.000000,45072401.000000 51479399.000000,46342399.000000 Z"/> 
<svg:path style="fill:#000000; fill-opacity:1.0;  stroke:#000000; stroke-width:1.000000; stroke-opacity:1;  stroke-linecap:round; stroke-linejoin:round;fill-rule:evenodd;" d="M 50120601.000000,46342399.000000 50120601.000000,45072401.000000 50679399.000000,45072401.000000 50679399.000000,46342399.000000 Z"/> 
<svg:path style="fill:#000000; fill-opacity:1.0;  stroke:#000000; stroke-width:1.000000; stroke-opacity:1;  stroke-linecap:round; stroke-linejoin:round;fill-rule:evenodd;" d="M 49320601.000000,46342399.000000 49320601.000000,45072401.000000 49879399.000000,45072401.000000 49879399.000000,46342399.000000 Z"/> 
<svg:path style="fill:#000000; fill-opacity:1.0;  stroke:#000000; stroke-width:1.000000; stroke-opacity:1;  stroke-linecap:round; stroke-linejoin:round;fill-rule:evenodd;" d="M 48520601.000000,46342399.000000 48520601.000000,45072401.000000 49079399.000000,45072401.000000 49079399.000000,46342399.000000 Z"/> 
<svg:path style="fill:#000000; fill-opacity:1.0;  stroke:#000000; stroke-width:1.000000; stroke-opacity:1;  stroke-linecap:round; stroke-linejoin:round;fill-rule:evenodd;" d="M 47720601.000000,46342399.000000 47720601.000000,45072401.000000 48279399.000000,45072401.000000 48279399.000000,46342399.000000 Z"/> 
<svg:path style="fill:#000000; fill-opacity:1.0;  stroke:#000000; stroke-width:1.000000; stroke-opacity:1;  stroke-linecap:round; stroke-linejoin:round;fill-rule:evenodd;" d="M 46920601.000000,46342399.000000 46920601.000000,45072401.000000 47479399.000000,45072401.000000 47479399.000000,46342399.000000 Z"/> 
</svg:g>
<svg:g>
</svg:g>
<svg:g>
</svg:g>
<svg:g>
</svg:g>
</svg:g>
<svg:g style="fill:#000000; fill-opacity:1.0;  stroke:#000000; stroke-width:1.000000; stroke-opacity:1;  stroke-linecap:round; stroke-linejoin:round;">
<svg:g>
</svg:g>
<svg:g>
</svg:g>
<svg:g>
</svg:g>
<svg:g>
</svg:g>
</svg:g> 
</svg:g><svg:g><svg:title>SVG Picture created as kicadBoard-F_Silkscreen.svg date 2022/12/03 02:58:41 </svg:title>
  <svg:desc>Picture generated by PCBNEW </svg:desc>
<svg:g style="fill:#000000; fill-opacity:1.000000;stroke:#000000; stroke-opacity:1.000000; stroke-linecap:round; stroke-linejoin:round;" transform="translate(0 0) scale(1 1)">
</svg:g>
<svg:g style="fill:#000000; fill-opacity:0.0;  stroke:#000000; stroke-width:0.000000; stroke-opacity:1;  stroke-linecap:round; stroke-linejoin:round;">
</svg:g>
<svg:g style="fill:#F2EDA1; fill-opacity:0.0;  stroke:#F2EDA1; stroke-width:0.000000; stroke-opacity:1;  stroke-linecap:round; stroke-linejoin:round;">
</svg:g>
<svg:g style="fill:#F2EDA1; fill-opacity:0.0;  stroke:#F2EDA1; stroke-width:65024.000000; stroke-opacity:1;  stroke-linecap:round; stroke-linejoin:round;">
<svg:text x="47231400.000000" y="44920000.000000" textLength="10255215.000000" font-size="997034.000000" lengthAdjust="spacingAndGlyphs" text-anchor="start" opacity="0">FZEATMELTQFP328</svg:text>
<svg:g class="stroked-text"><svg:desc>FZEATMELTQFP328</svg:desc>
<svg:path d="M47700966 44492699 L47451707 44492699 "/>
<svg:path d="M47451707 44884391 L47451707 44136615 L47807791 44136615 "/>
<svg:path d="M48021441 44136615 L48519958 44136615 L48021441 44884391 L48519958 44884391 "/>
<svg:path d="M48804825 44492699 L49054084 44492699 "/>
<svg:path d="M49160909 44884391 L48804825 44884391 L48804825 44136615 L49160909 44136615 "/>
<svg:path d="M49445776 44670741 L49801860 44670741 "/>
<svg:path d="M49374560 44884391 L49623818 44136615 L49873077 44884391 "/>
<svg:path d="M50015510 44136615 L50442811 44136615 "/>
<svg:path d="M50229161 44884391 L50229161 44136615 "/>
<svg:path d="M50692070 44884391 L50692070 44136615 L50941328 44670741 L51190587 44136615 L51190587 44884391 "/>
<svg:path d="M51546671 44492699 L51795929 44492699 "/>
<svg:path d="M51902755 44884391 L51546671 44884391 L51546671 44136615 L51902755 44136615 "/>
<svg:path d="M52579314 44884391 L52223230 44884391 L52223230 44136615 "/>
<svg:path d="M52721747 44136615 L53149048 44136615 "/>
<svg:path d="M52935398 44884391 L52935398 44136615 "/>
<svg:path d="M53896824 44955608 L53825607 44920000 L53754390 44848783 L53647565 44741958 L53576349 44706349 L53505132 44706349 "/>
<svg:path d="M53540740 44884391 L53469523 44848783 L53398307 44777566 L53362698 44635132 L53362698 44385874 L53398307 44243440 L53469523 44172224 L53540740 44136615 L53683174 44136615 L53754390 44172224 L53825607 44243440 L53861216 44385874 L53861216 44635132 L53825607 44777566 L53754390 44848783 L53683174 44884391 L53540740 44884391 "/>
<svg:path d="M54430950 44492699 L54181691 44492699 "/>
<svg:path d="M54181691 44884391 L54181691 44136615 L54537775 44136615 "/>
<svg:path d="M54822642 44884391 L54822642 44136615 L55107509 44136615 L55178726 44172224 L55214334 44207832 L55249942 44279049 L55249942 44385874 L55214334 44457091 L55178726 44492699 L55107509 44528307 L54822642 44528307 "/>
<svg:path d="M55499201 44136615 L55962110 44136615 L55712851 44421482 L55819677 44421482 L55890893 44457091 L55926502 44492699 L55962110 44563916 L55962110 44741958 L55926502 44813174 L55890893 44848783 L55819677 44884391 L55606026 44884391 L55534809 44848783 L55499201 44813174 "/>
<svg:path d="M56246977 44207832 L56282585 44172224 L56353802 44136615 L56531844 44136615 L56603061 44172224 L56638669 44207832 L56674278 44279049 L56674278 44350265 L56638669 44457091 L56211369 44884391 L56674278 44884391 "/>
<svg:path d="M57101578 44457091 L57030361 44421482 L56994753 44385874 L56959145 44314657 L56959145 44279049 L56994753 44207832 L57030361 44172224 L57101578 44136615 L57244012 44136615 L57315229 44172224 L57350837 44207832 L57386445 44279049 L57386445 44314657 L57350837 44385874 L57315229 44421482 L57244012 44457091 L57101578 44457091 L57030361 44492699 L56994753 44528307 L56959145 44599524 L56959145 44741958 L56994753 44813174 L57030361 44848783 L57101578 44884391 L57244012 44884391 L57315229 44848783 L57350837 44813174 L57386445 44741958 L57386445 44599524 L57350837 44528307 L57315229 44492699 L57244012 44457091 "/>
</svg:g></svg:g>
<svg:g style="fill:#F2EDA1; fill-opacity:0.0;  stroke:#F2EDA1; stroke-width:152400.000000; stroke-opacity:1;  stroke-linecap:round; stroke-linejoin:round;">
<svg:path d="M46495000 53505000 L46495000 46850000 "/>
<svg:path d="M46850000 46495000 L53505000 46495000 "/>
<svg:path d="M46850000 46495000 L46495000 46850000 "/>
<svg:path d="M53505000 46495000 L53505000 53505000 "/>
<svg:path d="M53505000 53505000 L46495000 53505000 "/>
<svg:circle cx="47256800.000000" cy="47256800.000000" r="359200.000000"/> 
<svg:g>
</svg:g>
<svg:g>
</svg:g>
<svg:g>
</svg:g>
<svg:g>
</svg:g>
</svg:g>
<svg:g style="fill:#000000; fill-opacity:0.0;  stroke:#000000; stroke-width:152400.000000; stroke-opacity:1;  stroke-linecap:round; stroke-linejoin:round;">
<svg:g>
</svg:g>
<svg:g>
</svg:g>
<svg:g>
</svg:g>
<svg:g>
</svg:g>
</svg:g> 
</svg:g><svg:g><svg:title>SVG Picture created as kicadBoard-Margin.svg date 2022/12/03 02:58:41 </svg:title>
  <svg:desc>Picture generated by PCBNEW </svg:desc>
<svg:g style="fill:#000000; fill-opacity:1.000000;stroke:#000000; stroke-opacity:1.000000; stroke-linecap:round; stroke-linejoin:round;" transform="translate(0 0) scale(1 1)">
</svg:g>
<svg:g style="fill:#000000; fill-opacity:0.0;  stroke:#000000; stroke-width:0.000000; stroke-opacity:1;  stroke-linecap:round; stroke-linejoin:round;">
<svg:g>
</svg:g>
<svg:g>
</svg:g>
<svg:g>
</svg:g>
<svg:g>
</svg:g>
</svg:g>
<svg:g style="fill:#000000; fill-opacity:0.0;  stroke:#000000; stroke-width:0.000000; stroke-opacity:1;  stroke-linecap:round; stroke-linejoin:round;">
<svg:g>
</svg:g>
<svg:g>
</svg:g>
<svg:g>
</svg:g>
<svg:g>
</svg:g>
</svg:g> 
</svg:g><svg:g><svg:title>SVG Picture created as kicadBoard-F_Cu.svg date 2022/12/03 02:58:41 </svg:title>
  <svg:desc>Picture generated by PCBNEW </svg:desc>
<svg:g style="fill:#000000; fill-opacity:1.000000;stroke:#000000; stroke-opacity:1.000000; stroke-linecap:round; stroke-linejoin:round;" transform="translate(0 0) scale(1 1)">
</svg:g>
<svg:g style="fill:#000000; fill-opacity:0.0;  stroke:#000000; stroke-width:0.000000; stroke-opacity:1;  stroke-linecap:round; stroke-linejoin:round;">
<svg:g>
</svg:g>
<svg:g style="fill:#C83434; fill-opacity:0.0;  stroke:#C83434; stroke-width:0.000000; stroke-opacity:1;  stroke-linecap:round; stroke-linejoin:round;">
</svg:g>
<svg:g style="fill:#C83434; fill-opacity:0.0;  stroke:#C83434; stroke-width:1.000000; stroke-opacity:1;  stroke-linecap:round; stroke-linejoin:round;">
</svg:g>
<svg:g style="fill:#C83434; fill-opacity:1.0;  stroke:#C83434; stroke-width:1.000000; stroke-opacity:1;  stroke-linecap:round; stroke-linejoin:round;">
<svg:path style="fill:#C83434; fill-opacity:1.0;  stroke:#C83434; stroke-width:1.000000; stroke-opacity:1;  stroke-linecap:round; stroke-linejoin:round;fill-rule:evenodd;" d="M 45072401.000000,47479399.000000 45072401.000000,46920601.000000 46342399.000000,46920601.000000 46342399.000000,47479399.000000 Z"/> 
<svg:path style="fill:#C83434; fill-opacity:1.0;  stroke:#C83434; stroke-width:1.000000; stroke-opacity:1;  stroke-linecap:round; stroke-linejoin:round;fill-rule:evenodd;" d="M 45072401.000000,48279399.000000 45072401.000000,47720601.000000 46342399.000000,47720601.000000 46342399.000000,48279399.000000 Z"/> 
<svg:path style="fill:#C83434; fill-opacity:1.0;  stroke:#C83434; stroke-width:1.000000; stroke-opacity:1;  stroke-linecap:round; stroke-linejoin:round;fill-rule:evenodd;" d="M 45072401.000000,49079399.000000 45072401.000000,48520601.000000 46342399.000000,48520601.000000 46342399.000000,49079399.000000 Z"/> 
<svg:path style="fill:#C83434; fill-opacity:1.0;  stroke:#C83434; stroke-width:1.000000; stroke-opacity:1;  stroke-linecap:round; stroke-linejoin:round;fill-rule:evenodd;" d="M 45072401.000000,49879399.000000 45072401.000000,49320601.000000 46342399.000000,49320601.000000 46342399.000000,49879399.000000 Z"/> 
<svg:path style="fill:#C83434; fill-opacity:1.0;  stroke:#C83434; stroke-width:1.000000; stroke-opacity:1;  stroke-linecap:round; stroke-linejoin:round;fill-rule:evenodd;" d="M 45072401.000000,50679399.000000 45072401.000000,50120601.000000 46342399.000000,50120601.000000 46342399.000000,50679399.000000 Z"/> 
<svg:path style="fill:#C83434; fill-opacity:1.0;  stroke:#C83434; stroke-width:1.000000; stroke-opacity:1;  stroke-linecap:round; stroke-linejoin:round;fill-rule:evenodd;" d="M 45072401.000000,51479399.000000 45072401.000000,50920601.000000 46342399.000000,50920601.000000 46342399.000000,51479399.000000 Z"/> 
<svg:path style="fill:#C83434; fill-opacity:1.0;  stroke:#C83434; stroke-width:1.000000; stroke-opacity:1;  stroke-linecap:round; stroke-linejoin:round;fill-rule:evenodd;" d="M 45072401.000000,52279399.000000 45072401.000000,51720601.000000 46342399.000000,51720601.000000 46342399.000000,52279399.000000 Z"/> 
<svg:path style="fill:#C83434; fill-opacity:1.0;  stroke:#C83434; stroke-width:1.000000; stroke-opacity:1;  stroke-linecap:round; stroke-linejoin:round;fill-rule:evenodd;" d="M 45072401.000000,53079399.000000 45072401.000000,52520601.000000 46342399.000000,52520601.000000 46342399.000000,53079399.000000 Z"/> 
<svg:path style="fill:#C83434; fill-opacity:1.0;  stroke:#C83434; stroke-width:1.000000; stroke-opacity:1;  stroke-linecap:round; stroke-linejoin:round;fill-rule:evenodd;" d="M 46920601.000000,54927599.000000 46920601.000000,53657601.000000 47479399.000000,53657601.000000 47479399.000000,54927599.000000 Z"/> 
<svg:path style="fill:#C83434; fill-opacity:1.0;  stroke:#C83434; stroke-width:1.000000; stroke-opacity:1;  stroke-linecap:round; stroke-linejoin:round;fill-rule:evenodd;" d="M 47720601.000000,54927599.000000 47720601.000000,53657601.000000 48279399.000000,53657601.000000 48279399.000000,54927599.000000 Z"/> 
<svg:path style="fill:#C83434; fill-opacity:1.0;  stroke:#C83434; stroke-width:1.000000; stroke-opacity:1;  stroke-linecap:round; stroke-linejoin:round;fill-rule:evenodd;" d="M 48520601.000000,54927599.000000 48520601.000000,53657601.000000 49079399.000000,53657601.000000 49079399.000000,54927599.000000 Z"/> 
<svg:path style="fill:#C83434; fill-opacity:1.0;  stroke:#C83434; stroke-width:1.000000; stroke-opacity:1;  stroke-linecap:round; stroke-linejoin:round;fill-rule:evenodd;" d="M 49320601.000000,54927599.000000 49320601.000000,53657601.000000 49879399.000000,53657601.000000 49879399.000000,54927599.000000 Z"/> 
<svg:path style="fill:#C83434; fill-opacity:1.0;  stroke:#C83434; stroke-width:1.000000; stroke-opacity:1;  stroke-linecap:round; stroke-linejoin:round;fill-rule:evenodd;" d="M 50120601.000000,54927599.000000 50120601.000000,53657601.000000 50679399.000000,53657601.000000 50679399.000000,54927599.000000 Z"/> 
<svg:path style="fill:#C83434; fill-opacity:1.0;  stroke:#C83434; stroke-width:1.000000; stroke-opacity:1;  stroke-linecap:round; stroke-linejoin:round;fill-rule:evenodd;" d="M 50920601.000000,54927599.000000 50920601.000000,53657601.000000 51479399.000000,53657601.000000 51479399.000000,54927599.000000 Z"/> 
<svg:path style="fill:#C83434; fill-opacity:1.0;  stroke:#C83434; stroke-width:1.000000; stroke-opacity:1;  stroke-linecap:round; stroke-linejoin:round;fill-rule:evenodd;" d="M 51720601.000000,54927599.000000 51720601.000000,53657601.000000 52279399.000000,53657601.000000 52279399.000000,54927599.000000 Z"/> 
<svg:path style="fill:#C83434; fill-opacity:1.0;  stroke:#C83434; stroke-width:1.000000; stroke-opacity:1;  stroke-linecap:round; stroke-linejoin:round;fill-rule:evenodd;" d="M 52520601.000000,54927599.000000 52520601.000000,53657601.000000 53079399.000000,53657601.000000 53079399.000000,54927599.000000 Z"/> 
<svg:path style="fill:#C83434; fill-opacity:1.0;  stroke:#C83434; stroke-width:1.000000; stroke-opacity:1;  stroke-linecap:round; stroke-linejoin:round;fill-rule:evenodd;" d="M 53657601.000000,53079399.000000 53657601.000000,52520601.000000 54927599.000000,52520601.000000 54927599.000000,53079399.000000 Z"/> 
<svg:path style="fill:#C83434; fill-opacity:1.0;  stroke:#C83434; stroke-width:1.000000; stroke-opacity:1;  stroke-linecap:round; stroke-linejoin:round;fill-rule:evenodd;" d="M 53657601.000000,52279399.000000 53657601.000000,51720601.000000 54927599.000000,51720601.000000 54927599.000000,52279399.000000 Z"/> 
<svg:path style="fill:#C83434; fill-opacity:1.0;  stroke:#C83434; stroke-width:1.000000; stroke-opacity:1;  stroke-linecap:round; stroke-linejoin:round;fill-rule:evenodd;" d="M 53657601.000000,51479399.000000 53657601.000000,50920601.000000 54927599.000000,50920601.000000 54927599.000000,51479399.000000 Z"/> 
<svg:path style="fill:#C83434; fill-opacity:1.0;  stroke:#C83434; stroke-width:1.000000; stroke-opacity:1;  stroke-linecap:round; stroke-linejoin:round;fill-rule:evenodd;" d="M 53657601.000000,50679399.000000 53657601.000000,50120601.000000 54927599.000000,50120601.000000 54927599.000000,50679399.000000 Z"/> 
<svg:path style="fill:#C83434; fill-opacity:1.0;  stroke:#C83434; stroke-width:1.000000; stroke-opacity:1;  stroke-linecap:round; stroke-linejoin:round;fill-rule:evenodd;" d="M 53657601.000000,49879399.000000 53657601.000000,49320601.000000 54927599.000000,49320601.000000 54927599.000000,49879399.000000 Z"/> 
<svg:path style="fill:#C83434; fill-opacity:1.0;  stroke:#C83434; stroke-width:1.000000; stroke-opacity:1;  stroke-linecap:round; stroke-linejoin:round;fill-rule:evenodd;" d="M 53657601.000000,49079399.000000 53657601.000000,48520601.000000 54927599.000000,48520601.000000 54927599.000000,49079399.000000 Z"/> 
<svg:path style="fill:#C83434; fill-opacity:1.0;  stroke:#C83434; stroke-width:1.000000; stroke-opacity:1;  stroke-linecap:round; stroke-linejoin:round;fill-rule:evenodd;" d="M 53657601.000000,48279399.000000 53657601.000000,47720601.000000 54927599.000000,47720601.000000 54927599.000000,48279399.000000 Z"/> 
<svg:path style="fill:#C83434; fill-opacity:1.0;  stroke:#C83434; stroke-width:1.000000; stroke-opacity:1;  stroke-linecap:round; stroke-linejoin:round;fill-rule:evenodd;" d="M 53657601.000000,47479399.000000 53657601.000000,46920601.000000 54927599.000000,46920601.000000 54927599.000000,47479399.000000 Z"/> 
<svg:path style="fill:#C83434; fill-opacity:1.0;  stroke:#C83434; stroke-width:1.000000; stroke-opacity:1;  stroke-linecap:round; stroke-linejoin:round;fill-rule:evenodd;" d="M 52520601.000000,46342399.000000 52520601.000000,45072401.000000 53079399.000000,45072401.000000 53079399.000000,46342399.000000 Z"/> 
<svg:path style="fill:#C83434; fill-opacity:1.0;  stroke:#C83434; stroke-width:1.000000; stroke-opacity:1;  stroke-linecap:round; stroke-linejoin:round;fill-rule:evenodd;" d="M 51720601.000000,46342399.000000 51720601.000000,45072401.000000 52279399.000000,45072401.000000 52279399.000000,46342399.000000 Z"/> 
<svg:path style="fill:#C83434; fill-opacity:1.0;  stroke:#C83434; stroke-width:1.000000; stroke-opacity:1;  stroke-linecap:round; stroke-linejoin:round;fill-rule:evenodd;" d="M 50920601.000000,46342399.000000 50920601.000000,45072401.000000 51479399.000000,45072401.000000 51479399.000000,46342399.000000 Z"/> 
<svg:path style="fill:#C83434; fill-opacity:1.0;  stroke:#C83434; stroke-width:1.000000; stroke-opacity:1;  stroke-linecap:round; stroke-linejoin:round;fill-rule:evenodd;" d="M 50120601.000000,46342399.000000 50120601.000000,45072401.000000 50679399.000000,45072401.000000 50679399.000000,46342399.000000 Z"/> 
<svg:path style="fill:#C83434; fill-opacity:1.0;  stroke:#C83434; stroke-width:1.000000; stroke-opacity:1;  stroke-linecap:round; stroke-linejoin:round;fill-rule:evenodd;" d="M 49320601.000000,46342399.000000 49320601.000000,45072401.000000 49879399.000000,45072401.000000 49879399.000000,46342399.000000 Z"/> 
<svg:path style="fill:#C83434; fill-opacity:1.0;  stroke:#C83434; stroke-width:1.000000; stroke-opacity:1;  stroke-linecap:round; stroke-linejoin:round;fill-rule:evenodd;" d="M 48520601.000000,46342399.000000 48520601.000000,45072401.000000 49079399.000000,45072401.000000 49079399.000000,46342399.000000 Z"/> 
<svg:path style="fill:#C83434; fill-opacity:1.0;  stroke:#C83434; stroke-width:1.000000; stroke-opacity:1;  stroke-linecap:round; stroke-linejoin:round;fill-rule:evenodd;" d="M 47720601.000000,46342399.000000 47720601.000000,45072401.000000 48279399.000000,45072401.000000 48279399.000000,46342399.000000 Z"/> 
<svg:path style="fill:#C83434; fill-opacity:1.0;  stroke:#C83434; stroke-width:1.000000; stroke-opacity:1;  stroke-linecap:round; stroke-linejoin:round;fill-rule:evenodd;" d="M 46920601.000000,46342399.000000 46920601.000000,45072401.000000 47479399.000000,45072401.000000 47479399.000000,46342399.000000 Z"/> 
</svg:g>
<svg:g>
</svg:g>
<svg:g>
</svg:g>
<svg:g>
</svg:g>
</svg:g>
<svg:g style="fill:#FFFFFF; fill-opacity:1.0;  stroke:#FFFFFF; stroke-width:1.000000; stroke-opacity:1;  stroke-linecap:round; stroke-linejoin:round;">
</svg:g>
<svg:g style="fill:#000000; fill-opacity:1.0;  stroke:#000000; stroke-width:1.000000; stroke-opacity:1;  stroke-linecap:round; stroke-linejoin:round;">
<svg:g>
</svg:g>
<svg:g>
</svg:g>
<svg:g>
</svg:g>
<svg:g>
</svg:g>
</svg:g> 
</svg:g></svg>
