<?xml version='1.0' encoding='ASCII' standalone='yes'?>
<svg xmlns:svg="http://www.w3.org/2000/svg" xmlns="http://www.w3.org/2000/svg" xmlns:xlink="http://www.w3.org/1999/xlink" version="1.1" width="9.999980cm" height="9.999980cm" viewBox="0 0 99999800 99999800">
<title>SVG Picture created as kicadBoard-B_Cu.svg date 2022/11/17 09:30:27 </title>
  <desc>Picture generated by PCBNEW </desc>
<g style="fill:#000000; fill-opacity:1.000000;stroke:#000000; stroke-opacity:1.000000; stroke-linecap:round; stroke-linejoin:round;" transform="translate(0 0) scale(1 1)">
</g>
<g style="fill:#000000; fill-opacity:0.0;  stroke:#000000; stroke-width:0.000000; stroke-opacity:1;  stroke-linecap:round; stroke-linejoin:round;">
<g>
</g>
<g style="fill:#4D7FC4; fill-opacity:0.0;  stroke:#4D7FC4; stroke-width:0.000000; stroke-opacity:1;  stroke-linecap:round; stroke-linejoin:round;">
</g>
<g style="fill:#4D7FC4; fill-opacity:0.0;  stroke:#4D7FC4; stroke-width:1.000000; stroke-opacity:1;  stroke-linecap:round; stroke-linejoin:round;">
</g>
<g style="fill:#4D7FC4; fill-opacity:1.0;  stroke:#4D7FC4; stroke-width:1.000000; stroke-opacity:1;  stroke-linecap:round; stroke-linejoin:round;">
<path style="fill:#4D7FC4; fill-opacity:1.0;  stroke:#4D7FC4; stroke-width:1.000000; stroke-opacity:1;  stroke-linecap:round; stroke-linejoin:round;fill-rule:evenodd;" d="M 49150000.000000,50850000.000000 49150000.000000,49150000.000000 50850000.000000,49150000.000000 50850000.000000,50850000.000000 Z"/> 
<circle cx="50000000.000000" cy="52540000.000000" r="850000.000000"/> 
<circle cx="50000000.000000" cy="55080000.000000" r="850000.000000"/> 
<circle cx="50000000.000000" cy="57620000.000000" r="850000.000000"/> 
<circle cx="50000000.000000" cy="60160000.000000" r="850000.000000"/> 
<circle cx="50000000.000000" cy="62700000.000000" r="850000.000000"/> 
<circle cx="50000000.000000" cy="65240000.000000" r="850000.000000"/> 
<circle cx="50000000.000000" cy="67780000.000000" r="850000.000000"/> 
<circle cx="50000000.000000" cy="70320000.000000" r="850000.000000"/> 
<circle cx="50000000.000000" cy="72860000.000000" r="850000.000000"/> 
<circle cx="50000000.000000" cy="75400000.000000" r="850000.000000"/> 
<circle cx="50000000.000000" cy="77940000.000000" r="850000.000000"/> 
<circle cx="50000000.000000" cy="80480000.000000" r="850000.000000"/> 
<circle cx="50000000.000000" cy="83020000.000000" r="850000.000000"/> 
<circle cx="50000000.000000" cy="85560000.000000" r="850000.000000"/> 
<circle cx="50000000.000000" cy="88100000.000000" r="850000.000000"/> 
<circle cx="50000000.000000" cy="90640000.000000" r="850000.000000"/> 
<circle cx="50000000.000000" cy="93180000.000000" r="850000.000000"/> 
<circle cx="50000000.000000" cy="95720000.000000" r="850000.000000"/> 
<circle cx="50000000.000000" cy="98260000.000000" r="850000.000000"/> 
<circle cx="50000000.000000" cy="100800000.000000" r="850000.000000"/> 
<circle cx="50000000.000000" cy="103340000.000000" r="850000.000000"/> 
<circle cx="50000000.000000" cy="105880000.000000" r="850000.000000"/> 
<circle cx="50000000.000000" cy="108420000.000000" r="850000.000000"/> 
<circle cx="50000000.000000" cy="110960000.000000" r="850000.000000"/> 
</g>
<g>
</g>
<g>
</g>
<g>
</g>
</g>
<g style="fill:#FFFFFF; fill-opacity:1.0;  stroke:#FFFFFF; stroke-width:1.000000; stroke-opacity:1;  stroke-linecap:round; stroke-linejoin:round;">
<circle cx="50000000.000000" cy="50000000.000000" r="500000.000000"/> 
</g>
<g style="fill:#FFFFFF; fill-opacity:1.0;  stroke:#FFFFFF; stroke-width:21200.000000; stroke-opacity:1;  stroke-linecap:round; stroke-linejoin:round;">
</g>
<g style="fill:#FFFFFF; fill-opacity:1.0;  stroke:#FFFFFF; stroke-width:1.000000; stroke-opacity:1;  stroke-linecap:round; stroke-linejoin:round;">
<circle cx="50000000.000000" cy="52540000.000000" r="500000.000000"/> 
</g>
<g style="fill:#FFFFFF; fill-opacity:1.0;  stroke:#FFFFFF; stroke-width:21200.000000; stroke-opacity:1;  stroke-linecap:round; stroke-linejoin:round;">
</g>
<g style="fill:#FFFFFF; fill-opacity:1.0;  stroke:#FFFFFF; stroke-width:1.000000; stroke-opacity:1;  stroke-linecap:round; stroke-linejoin:round;">
<circle cx="50000000.000000" cy="55080000.000000" r="500000.000000"/> 
</g>
<g style="fill:#FFFFFF; fill-opacity:1.0;  stroke:#FFFFFF; stroke-width:21200.000000; stroke-opacity:1;  stroke-linecap:round; stroke-linejoin:round;">
</g>
<g style="fill:#FFFFFF; fill-opacity:1.0;  stroke:#FFFFFF; stroke-width:1.000000; stroke-opacity:1;  stroke-linecap:round; stroke-linejoin:round;">
<circle cx="50000000.000000" cy="57620000.000000" r="500000.000000"/> 
</g>
<g style="fill:#FFFFFF; fill-opacity:1.0;  stroke:#FFFFFF; stroke-width:21200.000000; stroke-opacity:1;  stroke-linecap:round; stroke-linejoin:round;">
</g>
<g style="fill:#FFFFFF; fill-opacity:1.0;  stroke:#FFFFFF; stroke-width:1.000000; stroke-opacity:1;  stroke-linecap:round; stroke-linejoin:round;">
<circle cx="50000000.000000" cy="60160000.000000" r="500000.000000"/> 
</g>
<g style="fill:#FFFFFF; fill-opacity:1.0;  stroke:#FFFFFF; stroke-width:21200.000000; stroke-opacity:1;  stroke-linecap:round; stroke-linejoin:round;">
</g>
<g style="fill:#FFFFFF; fill-opacity:1.0;  stroke:#FFFFFF; stroke-width:1.000000; stroke-opacity:1;  stroke-linecap:round; stroke-linejoin:round;">
<circle cx="50000000.000000" cy="62700000.000000" r="500000.000000"/> 
</g>
<g style="fill:#FFFFFF; fill-opacity:1.0;  stroke:#FFFFFF; stroke-width:21200.000000; stroke-opacity:1;  stroke-linecap:round; stroke-linejoin:round;">
</g>
<g style="fill:#FFFFFF; fill-opacity:1.0;  stroke:#FFFFFF; stroke-width:1.000000; stroke-opacity:1;  stroke-linecap:round; stroke-linejoin:round;">
<circle cx="50000000.000000" cy="65240000.000000" r="500000.000000"/> 
</g>
<g style="fill:#FFFFFF; fill-opacity:1.0;  stroke:#FFFFFF; stroke-width:21200.000000; stroke-opacity:1;  stroke-linecap:round; stroke-linejoin:round;">
</g>
<g style="fill:#FFFFFF; fill-opacity:1.0;  stroke:#FFFFFF; stroke-width:1.000000; stroke-opacity:1;  stroke-linecap:round; stroke-linejoin:round;">
<circle cx="50000000.000000" cy="67780000.000000" r="500000.000000"/> 
</g>
<g style="fill:#FFFFFF; fill-opacity:1.0;  stroke:#FFFFFF; stroke-width:21200.000000; stroke-opacity:1;  stroke-linecap:round; stroke-linejoin:round;">
</g>
<g style="fill:#FFFFFF; fill-opacity:1.0;  stroke:#FFFFFF; stroke-width:1.000000; stroke-opacity:1;  stroke-linecap:round; stroke-linejoin:round;">
<circle cx="50000000.000000" cy="70320000.000000" r="500000.000000"/> 
</g>
<g style="fill:#FFFFFF; fill-opacity:1.0;  stroke:#FFFFFF; stroke-width:21200.000000; stroke-opacity:1;  stroke-linecap:round; stroke-linejoin:round;">
</g>
<g style="fill:#FFFFFF; fill-opacity:1.0;  stroke:#FFFFFF; stroke-width:1.000000; stroke-opacity:1;  stroke-linecap:round; stroke-linejoin:round;">
<circle cx="50000000.000000" cy="72860000.000000" r="500000.000000"/> 
</g>
<g style="fill:#FFFFFF; fill-opacity:1.0;  stroke:#FFFFFF; stroke-width:21200.000000; stroke-opacity:1;  stroke-linecap:round; stroke-linejoin:round;">
</g>
<g style="fill:#FFFFFF; fill-opacity:1.0;  stroke:#FFFFFF; stroke-width:1.000000; stroke-opacity:1;  stroke-linecap:round; stroke-linejoin:round;">
<circle cx="50000000.000000" cy="75400000.000000" r="500000.000000"/> 
</g>
<g style="fill:#FFFFFF; fill-opacity:1.0;  stroke:#FFFFFF; stroke-width:21200.000000; stroke-opacity:1;  stroke-linecap:round; stroke-linejoin:round;">
</g>
<g style="fill:#FFFFFF; fill-opacity:1.0;  stroke:#FFFFFF; stroke-width:1.000000; stroke-opacity:1;  stroke-linecap:round; stroke-linejoin:round;">
<circle cx="50000000.000000" cy="77940000.000000" r="500000.000000"/> 
</g>
<g style="fill:#FFFFFF; fill-opacity:1.0;  stroke:#FFFFFF; stroke-width:21200.000000; stroke-opacity:1;  stroke-linecap:round; stroke-linejoin:round;">
</g>
<g style="fill:#FFFFFF; fill-opacity:1.0;  stroke:#FFFFFF; stroke-width:1.000000; stroke-opacity:1;  stroke-linecap:round; stroke-linejoin:round;">
<circle cx="50000000.000000" cy="80480000.000000" r="500000.000000"/> 
</g>
<g style="fill:#FFFFFF; fill-opacity:1.0;  stroke:#FFFFFF; stroke-width:21200.000000; stroke-opacity:1;  stroke-linecap:round; stroke-linejoin:round;">
</g>
<g style="fill:#FFFFFF; fill-opacity:1.0;  stroke:#FFFFFF; stroke-width:1.000000; stroke-opacity:1;  stroke-linecap:round; stroke-linejoin:round;">
<circle cx="50000000.000000" cy="83020000.000000" r="500000.000000"/> 
</g>
<g style="fill:#FFFFFF; fill-opacity:1.0;  stroke:#FFFFFF; stroke-width:21200.000000; stroke-opacity:1;  stroke-linecap:round; stroke-linejoin:round;">
</g>
<g style="fill:#FFFFFF; fill-opacity:1.0;  stroke:#FFFFFF; stroke-width:1.000000; stroke-opacity:1;  stroke-linecap:round; stroke-linejoin:round;">
<circle cx="50000000.000000" cy="85560000.000000" r="500000.000000"/> 
</g>
<g style="fill:#FFFFFF; fill-opacity:1.0;  stroke:#FFFFFF; stroke-width:21200.000000; stroke-opacity:1;  stroke-linecap:round; stroke-linejoin:round;">
</g>
<g style="fill:#FFFFFF; fill-opacity:1.0;  stroke:#FFFFFF; stroke-width:1.000000; stroke-opacity:1;  stroke-linecap:round; stroke-linejoin:round;">
<circle cx="50000000.000000" cy="88100000.000000" r="500000.000000"/> 
</g>
<g style="fill:#FFFFFF; fill-opacity:1.0;  stroke:#FFFFFF; stroke-width:21200.000000; stroke-opacity:1;  stroke-linecap:round; stroke-linejoin:round;">
</g>
<g style="fill:#FFFFFF; fill-opacity:1.0;  stroke:#FFFFFF; stroke-width:1.000000; stroke-opacity:1;  stroke-linecap:round; stroke-linejoin:round;">
<circle cx="50000000.000000" cy="90640000.000000" r="500000.000000"/> 
</g>
<g style="fill:#FFFFFF; fill-opacity:1.0;  stroke:#FFFFFF; stroke-width:21200.000000; stroke-opacity:1;  stroke-linecap:round; stroke-linejoin:round;">
</g>
<g style="fill:#FFFFFF; fill-opacity:1.0;  stroke:#FFFFFF; stroke-width:1.000000; stroke-opacity:1;  stroke-linecap:round; stroke-linejoin:round;">
<circle cx="50000000.000000" cy="93180000.000000" r="500000.000000"/> 
</g>
<g style="fill:#FFFFFF; fill-opacity:1.0;  stroke:#FFFFFF; stroke-width:21200.000000; stroke-opacity:1;  stroke-linecap:round; stroke-linejoin:round;">
</g>
<g style="fill:#FFFFFF; fill-opacity:1.0;  stroke:#FFFFFF; stroke-width:1.000000; stroke-opacity:1;  stroke-linecap:round; stroke-linejoin:round;">
<circle cx="50000000.000000" cy="95720000.000000" r="500000.000000"/> 
</g>
<g style="fill:#FFFFFF; fill-opacity:1.0;  stroke:#FFFFFF; stroke-width:21200.000000; stroke-opacity:1;  stroke-linecap:round; stroke-linejoin:round;">
</g>
<g style="fill:#FFFFFF; fill-opacity:1.0;  stroke:#FFFFFF; stroke-width:1.000000; stroke-opacity:1;  stroke-linecap:round; stroke-linejoin:round;">
<circle cx="50000000.000000" cy="98260000.000000" r="500000.000000"/> 
</g>
<g style="fill:#FFFFFF; fill-opacity:1.0;  stroke:#FFFFFF; stroke-width:21200.000000; stroke-opacity:1;  stroke-linecap:round; stroke-linejoin:round;">
</g>
<g style="fill:#FFFFFF; fill-opacity:1.0;  stroke:#FFFFFF; stroke-width:1.000000; stroke-opacity:1;  stroke-linecap:round; stroke-linejoin:round;">
<circle cx="50000000.000000" cy="100800000.000000" r="500000.000000"/> 
</g>
<g style="fill:#FFFFFF; fill-opacity:1.0;  stroke:#FFFFFF; stroke-width:21200.000000; stroke-opacity:1;  stroke-linecap:round; stroke-linejoin:round;">
</g>
<g style="fill:#FFFFFF; fill-opacity:1.0;  stroke:#FFFFFF; stroke-width:1.000000; stroke-opacity:1;  stroke-linecap:round; stroke-linejoin:round;">
<circle cx="50000000.000000" cy="103340000.000000" r="500000.000000"/> 
</g>
<g style="fill:#FFFFFF; fill-opacity:1.0;  stroke:#FFFFFF; stroke-width:21200.000000; stroke-opacity:1;  stroke-linecap:round; stroke-linejoin:round;">
</g>
<g style="fill:#FFFFFF; fill-opacity:1.0;  stroke:#FFFFFF; stroke-width:1.000000; stroke-opacity:1;  stroke-linecap:round; stroke-linejoin:round;">
<circle cx="50000000.000000" cy="105880000.000000" r="500000.000000"/> 
</g>
<g style="fill:#FFFFFF; fill-opacity:1.0;  stroke:#FFFFFF; stroke-width:21200.000000; stroke-opacity:1;  stroke-linecap:round; stroke-linejoin:round;">
</g>
<g style="fill:#FFFFFF; fill-opacity:1.0;  stroke:#FFFFFF; stroke-width:1.000000; stroke-opacity:1;  stroke-linecap:round; stroke-linejoin:round;">
<circle cx="50000000.000000" cy="108420000.000000" r="500000.000000"/> 
</g>
<g style="fill:#FFFFFF; fill-opacity:1.0;  stroke:#FFFFFF; stroke-width:21200.000000; stroke-opacity:1;  stroke-linecap:round; stroke-linejoin:round;">
</g>
<g style="fill:#FFFFFF; fill-opacity:1.0;  stroke:#FFFFFF; stroke-width:1.000000; stroke-opacity:1;  stroke-linecap:round; stroke-linejoin:round;">
<circle cx="50000000.000000" cy="110960000.000000" r="500000.000000"/> 
</g>
<g style="fill:#FFFFFF; fill-opacity:1.0;  stroke:#FFFFFF; stroke-width:21200.000000; stroke-opacity:1;  stroke-linecap:round; stroke-linejoin:round;">
</g>
<g style="fill:#000000; fill-opacity:1.0;  stroke:#000000; stroke-width:21200.000000; stroke-opacity:1;  stroke-linecap:round; stroke-linejoin:round;">
<g>
</g>
<g>
</g>
<g>
</g>
<g>
</g>
</g> 
<svg:g><svg:title>SVG Picture created as kicadBoard-B_Adhesive.svg date 2022/11/17 09:30:27 </svg:title>
  <svg:desc>Picture generated by PCBNEW </svg:desc>
<svg:g style="fill:#000000; fill-opacity:1.000000;stroke:#000000; stroke-opacity:1.000000; stroke-linecap:round; stroke-linejoin:round;" transform="translate(0 0) scale(1 1)">
</svg:g>
<svg:g style="fill:#000000; fill-opacity:0.0;  stroke:#000000; stroke-width:0.000000; stroke-opacity:1;  stroke-linecap:round; stroke-linejoin:round;">
<svg:g>
</svg:g>
<svg:g>
</svg:g>
<svg:g>
</svg:g>
<svg:g>
</svg:g>
</svg:g>
<svg:g style="fill:#000000; fill-opacity:0.0;  stroke:#000000; stroke-width:0.000000; stroke-opacity:1;  stroke-linecap:round; stroke-linejoin:round;">
<svg:g>
</svg:g>
<svg:g>
</svg:g>
<svg:g>
</svg:g>
<svg:g>
</svg:g>
</svg:g> 
</svg:g><svg:g><svg:title>SVG Picture created as kicadBoard-B_Courtyard.svg date 2022/11/17 09:30:27 </svg:title>
  <svg:desc>Picture generated by PCBNEW </svg:desc>
<svg:g style="fill:#000000; fill-opacity:1.000000;stroke:#000000; stroke-opacity:1.000000; stroke-linecap:round; stroke-linejoin:round;" transform="translate(0 0) scale(1 1)">
</svg:g>
<svg:g style="fill:#000000; fill-opacity:0.0;  stroke:#000000; stroke-width:0.000000; stroke-opacity:1;  stroke-linecap:round; stroke-linejoin:round;">
<svg:g>
</svg:g>
<svg:g>
</svg:g>
<svg:g>
</svg:g>
<svg:g>
</svg:g>
</svg:g>
<svg:g style="fill:#000000; fill-opacity:0.0;  stroke:#000000; stroke-width:0.000000; stroke-opacity:1;  stroke-linecap:round; stroke-linejoin:round;">
<svg:g>
</svg:g>
<svg:g>
</svg:g>
<svg:g>
</svg:g>
<svg:g>
</svg:g>
</svg:g> 
</svg:g><svg:g><svg:title>SVG Picture created as kicadBoard-B_Fab.svg date 2022/11/17 09:30:27 </svg:title>
  <svg:desc>Picture generated by PCBNEW </svg:desc>
<svg:g style="fill:#000000; fill-opacity:1.000000;stroke:#000000; stroke-opacity:1.000000; stroke-linecap:round; stroke-linejoin:round;" transform="translate(0 0) scale(1 1)">
</svg:g>
<svg:g style="fill:#000000; fill-opacity:0.0;  stroke:#000000; stroke-width:0.000000; stroke-opacity:1;  stroke-linecap:round; stroke-linejoin:round;">
<svg:g>
</svg:g>
<svg:g>
</svg:g>
<svg:g>
</svg:g>
<svg:g>
</svg:g>
</svg:g>
<svg:g style="fill:#000000; fill-opacity:0.0;  stroke:#000000; stroke-width:0.000000; stroke-opacity:1;  stroke-linecap:round; stroke-linejoin:round;">
<svg:g>
</svg:g>
<svg:g>
</svg:g>
<svg:g>
</svg:g>
<svg:g>
</svg:g>
</svg:g> 
</svg:g><svg:g><svg:title>SVG Picture created as kicadBoard-B_Mask.svg date 2022/11/17 09:30:27 </svg:title>
  <svg:desc>Picture generated by PCBNEW </svg:desc>
<svg:g style="fill:#000000; fill-opacity:1.000000;stroke:#000000; stroke-opacity:1.000000; stroke-linecap:round; stroke-linejoin:round;" transform="translate(0 0) scale(1 1)">
</svg:g>
<svg:g style="fill:#000000; fill-opacity:0.0;  stroke:#000000; stroke-width:0.000000; stroke-opacity:1;  stroke-linecap:round; stroke-linejoin:round;">
<svg:g>
</svg:g>
<svg:g style="fill:#000000; fill-opacity:0.0;  stroke:#000000; stroke-width:1.000000; stroke-opacity:1;  stroke-linecap:round; stroke-linejoin:round;">
</svg:g>
<svg:g style="fill:#000000; fill-opacity:1.0;  stroke:#000000; stroke-width:1.000000; stroke-opacity:1;  stroke-linecap:round; stroke-linejoin:round;">
<svg:path style="fill:#000000; fill-opacity:1.0;  stroke:#000000; stroke-width:1.000000; stroke-opacity:1;  stroke-linecap:round; stroke-linejoin:round;fill-rule:evenodd;" d="M 49150000.000000,50850000.000000 49150000.000000,49150000.000000 50850000.000000,49150000.000000 50850000.000000,50850000.000000 Z"/> 
<svg:circle cx="50000000.000000" cy="52540000.000000" r="850000.000000"/> 
<svg:circle cx="50000000.000000" cy="55080000.000000" r="850000.000000"/> 
<svg:circle cx="50000000.000000" cy="57620000.000000" r="850000.000000"/> 
<svg:circle cx="50000000.000000" cy="60160000.000000" r="850000.000000"/> 
<svg:circle cx="50000000.000000" cy="62700000.000000" r="850000.000000"/> 
<svg:circle cx="50000000.000000" cy="65240000.000000" r="850000.000000"/> 
<svg:circle cx="50000000.000000" cy="67780000.000000" r="850000.000000"/> 
<svg:circle cx="50000000.000000" cy="70320000.000000" r="850000.000000"/> 
<svg:circle cx="50000000.000000" cy="72860000.000000" r="850000.000000"/> 
<svg:circle cx="50000000.000000" cy="75400000.000000" r="850000.000000"/> 
<svg:circle cx="50000000.000000" cy="77940000.000000" r="850000.000000"/> 
<svg:circle cx="50000000.000000" cy="80480000.000000" r="850000.000000"/> 
<svg:circle cx="50000000.000000" cy="83020000.000000" r="850000.000000"/> 
<svg:circle cx="50000000.000000" cy="85560000.000000" r="850000.000000"/> 
<svg:circle cx="50000000.000000" cy="88100000.000000" r="850000.000000"/> 
<svg:circle cx="50000000.000000" cy="90640000.000000" r="850000.000000"/> 
<svg:circle cx="50000000.000000" cy="93180000.000000" r="850000.000000"/> 
<svg:circle cx="50000000.000000" cy="95720000.000000" r="850000.000000"/> 
<svg:circle cx="50000000.000000" cy="98260000.000000" r="850000.000000"/> 
<svg:circle cx="50000000.000000" cy="100800000.000000" r="850000.000000"/> 
<svg:circle cx="50000000.000000" cy="103340000.000000" r="850000.000000"/> 
<svg:circle cx="50000000.000000" cy="105880000.000000" r="850000.000000"/> 
<svg:circle cx="50000000.000000" cy="108420000.000000" r="850000.000000"/> 
<svg:circle cx="50000000.000000" cy="110960000.000000" r="850000.000000"/> 
</svg:g>
<svg:g>
</svg:g>
<svg:g>
</svg:g>
<svg:g>
</svg:g>
</svg:g>
<svg:g style="fill:#000000; fill-opacity:1.0;  stroke:#000000; stroke-width:1.000000; stroke-opacity:1;  stroke-linecap:round; stroke-linejoin:round;">
<svg:g>
</svg:g>
<svg:g>
</svg:g>
<svg:g>
</svg:g>
<svg:g>
</svg:g>
</svg:g> 
</svg:g><svg:g><svg:title>SVG Picture created as kicadBoard-B_Paste.svg date 2022/11/17 09:30:27 </svg:title>
  <svg:desc>Picture generated by PCBNEW </svg:desc>
<svg:g style="fill:#000000; fill-opacity:1.000000;stroke:#000000; stroke-opacity:1.000000; stroke-linecap:round; stroke-linejoin:round;" transform="translate(0 0) scale(1 1)">
</svg:g>
<svg:g style="fill:#000000; fill-opacity:0.0;  stroke:#000000; stroke-width:0.000000; stroke-opacity:1;  stroke-linecap:round; stroke-linejoin:round;">
<svg:g>
</svg:g>
<svg:g>
</svg:g>
<svg:g>
</svg:g>
<svg:g>
</svg:g>
</svg:g>
<svg:g style="fill:#000000; fill-opacity:0.0;  stroke:#000000; stroke-width:0.000000; stroke-opacity:1;  stroke-linecap:round; stroke-linejoin:round;">
<svg:g>
</svg:g>
<svg:g>
</svg:g>
<svg:g>
</svg:g>
<svg:g>
</svg:g>
</svg:g> 
</svg:g><svg:g><svg:title>SVG Picture created as kicadBoard-B_Silkscreen.svg date 2022/11/17 09:30:27 </svg:title>
  <svg:desc>Picture generated by PCBNEW </svg:desc>
<svg:g style="fill:#000000; fill-opacity:1.000000;stroke:#000000; stroke-opacity:1.000000; stroke-linecap:round; stroke-linejoin:round;" transform="translate(0 0) scale(1 1)">
</svg:g>
<svg:g style="fill:#000000; fill-opacity:0.0;  stroke:#000000; stroke-width:0.000000; stroke-opacity:1;  stroke-linecap:round; stroke-linejoin:round;">
<svg:g>
</svg:g>
<svg:g>
</svg:g>
<svg:g>
</svg:g>
<svg:g>
</svg:g>
</svg:g>
<svg:g style="fill:#000000; fill-opacity:0.0;  stroke:#000000; stroke-width:0.000000; stroke-opacity:1;  stroke-linecap:round; stroke-linejoin:round;">
<svg:g>
</svg:g>
<svg:g>
</svg:g>
<svg:g>
</svg:g>
<svg:g>
</svg:g>
</svg:g> 
</svg:g><svg:g><svg:title>SVG Picture created as kicadBoard-Edge_Cuts.svg date 2022/11/17 09:30:27 </svg:title>
  <svg:desc>Picture generated by PCBNEW </svg:desc>
<svg:g style="fill:#000000; fill-opacity:1.000000;stroke:#000000; stroke-opacity:1.000000; stroke-linecap:round; stroke-linejoin:round;" transform="translate(0 0) scale(1 1)">
</svg:g>
<svg:g style="fill:#000000; fill-opacity:0.0;  stroke:#000000; stroke-width:0.000000; stroke-opacity:1;  stroke-linecap:round; stroke-linejoin:round;">
<svg:g>
</svg:g>
<svg:g>
</svg:g>
<svg:g>
</svg:g>
<svg:g>
</svg:g>
</svg:g> 
</svg:g><svg:g><svg:title>SVG Picture created as kicadBoard-F_Adhesive.svg date 2022/11/17 09:30:27 </svg:title>
  <svg:desc>Picture generated by PCBNEW </svg:desc>
<svg:g style="fill:#000000; fill-opacity:1.000000;stroke:#000000; stroke-opacity:1.000000; stroke-linecap:round; stroke-linejoin:round;" transform="translate(0 0) scale(1 1)">
</svg:g>
<svg:g style="fill:#000000; fill-opacity:0.0;  stroke:#000000; stroke-width:0.000000; stroke-opacity:1;  stroke-linecap:round; stroke-linejoin:round;">
<svg:g>
</svg:g>
<svg:g>
</svg:g>
<svg:g>
</svg:g>
<svg:g>
</svg:g>
</svg:g>
<svg:g style="fill:#000000; fill-opacity:0.0;  stroke:#000000; stroke-width:0.000000; stroke-opacity:1;  stroke-linecap:round; stroke-linejoin:round;">
<svg:g>
</svg:g>
<svg:g>
</svg:g>
<svg:g>
</svg:g>
<svg:g>
</svg:g>
</svg:g> 
</svg:g><svg:g><svg:title>SVG Picture created as kicadBoard-F_Courtyard.svg date 2022/11/17 09:30:27 </svg:title>
  <svg:desc>Picture generated by PCBNEW </svg:desc>
<svg:g style="fill:#000000; fill-opacity:1.000000;stroke:#000000; stroke-opacity:1.000000; stroke-linecap:round; stroke-linejoin:round;" transform="translate(0 0) scale(1 1)">
</svg:g>
<svg:g style="fill:#000000; fill-opacity:0.0;  stroke:#000000; stroke-width:0.000000; stroke-opacity:1;  stroke-linecap:round; stroke-linejoin:round;">
</svg:g>
<svg:g style="fill:#FF26E2; fill-opacity:0.0;  stroke:#FF26E2; stroke-width:0.000000; stroke-opacity:1;  stroke-linecap:round; stroke-linejoin:round;">
</svg:g>
<svg:g style="fill:#FF26E2; fill-opacity:0.0;  stroke:#FF26E2; stroke-width:50000.000000; stroke-opacity:1;  stroke-linecap:round; stroke-linejoin:round;">
<svg:path d="M51800000 112750000 L51800000 48200000 "/>
<svg:path d="M48200000 112750000 L51800000 112750000 "/>
<svg:path d="M51800000 48200000 L48200000 48200000 "/>
<svg:path d="M48200000 48200000 L48200000 112750000 "/>
<svg:g>
</svg:g>
<svg:g>
</svg:g>
<svg:g>
</svg:g>
<svg:g>
</svg:g>
</svg:g>
<svg:g style="fill:#000000; fill-opacity:0.0;  stroke:#000000; stroke-width:50000.000000; stroke-opacity:1;  stroke-linecap:round; stroke-linejoin:round;">
<svg:g>
</svg:g>
<svg:g>
</svg:g>
<svg:g>
</svg:g>
<svg:g>
</svg:g>
</svg:g> 
</svg:g><svg:g><svg:title>SVG Picture created as kicadBoard-F_Fab.svg date 2022/11/17 09:30:27 </svg:title>
  <svg:desc>Picture generated by PCBNEW </svg:desc>
<svg:g style="fill:#000000; fill-opacity:1.000000;stroke:#000000; stroke-opacity:1.000000; stroke-linecap:round; stroke-linejoin:round;" transform="translate(0 0) scale(1 1)">
</svg:g>
<svg:g style="fill:#000000; fill-opacity:0.0;  stroke:#000000; stroke-width:0.000000; stroke-opacity:1;  stroke-linecap:round; stroke-linejoin:round;">
</svg:g>
<svg:g style="fill:#AFAFAF; fill-opacity:0.0;  stroke:#AFAFAF; stroke-width:0.000000; stroke-opacity:1;  stroke-linecap:round; stroke-linejoin:round;">
</svg:g>
<svg:g style="fill:#AFAFAF; fill-opacity:0.0;  stroke:#AFAFAF; stroke-width:150000.000000; stroke-opacity:1;  stroke-linecap:round; stroke-linejoin:round;">
<svg:text x="50000000.000000" y="113790000.000000" textLength="26385476.000000" font-size="1333333.000000" lengthAdjust="spacingAndGlyphs" text-anchor="middle" opacity="0">PinHeader_1x25_P2.54mm_Vertical</svg:text>
<svg:g class="stroked-text"><svg:desc>PinHeader_1x25_P2.54mm_Vertical</svg:desc>
<svg:path d="M37142857 113742380 L37142857 112742380 L37523809 112742380 L37619047 112790000 L37666666 112837619 L37714285 112932857 L37714285 113075714 L37666666 113170952 L37619047 113218571 L37523809 113266190 L37142857 113266190 "/>
<svg:path d="M38142857 113742380 L38142857 113075714 "/>
<svg:path d="M38142857 112742380 L38095238 112790000 L38142857 112837619 L38190476 112790000 L38142857 112742380 L38142857 112837619 "/>
<svg:path d="M38619047 113075714 L38619047 113742380 "/>
<svg:path d="M38619047 113170952 L38666666 113123333 L38761904 113075714 L38904761 113075714 L39000000 113123333 L39047619 113218571 L39047619 113742380 "/>
<svg:path d="M39523809 113742380 L39523809 112742380 "/>
<svg:path d="M39523809 113218571 L40095238 113218571 "/>
<svg:path d="M40095238 113742380 L40095238 112742380 "/>
<svg:path d="M40952380 113694761 L40857142 113742380 L40666666 113742380 L40571428 113694761 L40523809 113599523 L40523809 113218571 L40571428 113123333 L40666666 113075714 L40857142 113075714 L40952380 113123333 L41000000 113218571 L41000000 113313809 L40523809 113409047 "/>
<svg:path d="M41857142 113742380 L41857142 113218571 L41809523 113123333 L41714285 113075714 L41523809 113075714 L41428571 113123333 "/>
<svg:path d="M41857142 113694761 L41761904 113742380 L41523809 113742380 L41428571 113694761 L41380952 113599523 L41380952 113504285 L41428571 113409047 L41523809 113361428 L41761904 113361428 L41857142 113313809 "/>
<svg:path d="M42761904 113742380 L42761904 112742380 "/>
<svg:path d="M42761904 113694761 L42666666 113742380 L42476190 113742380 L42380952 113694761 L42333333 113647142 L42285714 113551904 L42285714 113266190 L42333333 113170952 L42380952 113123333 L42476190 113075714 L42666666 113075714 L42761904 113123333 "/>
<svg:path d="M43619047 113694761 L43523809 113742380 L43333333 113742380 L43238095 113694761 L43190476 113599523 L43190476 113218571 L43238095 113123333 L43333333 113075714 L43523809 113075714 L43619047 113123333 L43666666 113218571 L43666666 113313809 L43190476 113409047 "/>
<svg:path d="M44095238 113742380 L44095238 113075714 "/>
<svg:path d="M44095238 113266190 L44142857 113170952 L44190476 113123333 L44285714 113075714 L44380952 113075714 "/>
<svg:path d="M44476190 113837619 L45238095 113837619 "/>
<svg:path d="M46000000 113742380 L45428571 113742380 "/>
<svg:path d="M45714285 113742380 L45714285 112742380 L45619047 112885238 L45523809 112980476 L45428571 113028095 "/>
<svg:path d="M46333333 113742380 L46857142 113075714 "/>
<svg:path d="M46333333 113075714 L46857142 113742380 "/>
<svg:path d="M47190476 112837619 L47238095 112790000 L47333333 112742380 L47571428 112742380 L47666666 112790000 L47714285 112837619 L47761904 112932857 L47761904 113028095 L47714285 113170952 L47142857 113742380 L47761904 113742380 "/>
<svg:path d="M48666666 112742380 L48190476 112742380 L48142857 113218571 L48190476 113170952 L48285714 113123333 L48523809 113123333 L48619047 113170952 L48666666 113218571 L48714285 113313809 L48714285 113551904 L48666666 113647142 L48619047 113694761 L48523809 113742380 L48285714 113742380 L48190476 113694761 L48142857 113647142 "/>
<svg:path d="M48904761 113837619 L49666666 113837619 "/>
<svg:path d="M49904761 113742380 L49904761 112742380 L50285714 112742380 L50380952 112790000 L50428571 112837619 L50476190 112932857 L50476190 113075714 L50428571 113170952 L50380952 113218571 L50285714 113266190 L49904761 113266190 "/>
<svg:path d="M50857142 112837619 L50904761 112790000 L51000000 112742380 L51238095 112742380 L51333333 112790000 L51380952 112837619 L51428571 112932857 L51428571 113028095 L51380952 113170952 L50809523 113742380 L51428571 113742380 "/>
<svg:path d="M51857142 113647142 L51904761 113694761 L51857142 113742380 L51809523 113694761 L51857142 113647142 L51857142 113742380 "/>
<svg:path d="M52809523 112742380 L52333333 112742380 L52285714 113218571 L52333333 113170952 L52428571 113123333 L52666666 113123333 L52761904 113170952 L52809523 113218571 L52857142 113313809 L52857142 113551904 L52809523 113647142 L52761904 113694761 L52666666 113742380 L52428571 113742380 L52333333 113694761 L52285714 113647142 "/>
<svg:path d="M53714285 113075714 L53714285 113742380 "/>
<svg:path d="M53476190 112694761 L53238095 113409047 L53857142 113409047 "/>
<svg:path d="M54238095 113742380 L54238095 113075714 "/>
<svg:path d="M54238095 113170952 L54285714 113123333 L54380952 113075714 L54523809 113075714 L54619047 113123333 L54666666 113218571 L54666666 113742380 "/>
<svg:path d="M54666666 113218571 L54714285 113123333 L54809523 113075714 L54952380 113075714 L55047619 113123333 L55095238 113218571 L55095238 113742380 "/>
<svg:path d="M55571428 113742380 L55571428 113075714 "/>
<svg:path d="M55571428 113170952 L55619047 113123333 L55714285 113075714 L55857142 113075714 L55952380 113123333 L55999999 113218571 L55999999 113742380 "/>
<svg:path d="M55999999 113218571 L56047619 113123333 L56142857 113075714 L56285714 113075714 L56380952 113123333 L56428571 113218571 L56428571 113742380 "/>
<svg:path d="M56666666 113837619 L57428571 113837619 "/>
<svg:path d="M57523809 112742380 L57857142 113742380 L58190476 112742380 "/>
<svg:path d="M58904761 113694761 L58809523 113742380 L58619047 113742380 L58523809 113694761 L58476190 113599523 L58476190 113218571 L58523809 113123333 L58619047 113075714 L58809523 113075714 L58904761 113123333 L58952380 113218571 L58952380 113313809 L58476190 113409047 "/>
<svg:path d="M59380952 113742380 L59380952 113075714 "/>
<svg:path d="M59380952 113266190 L59428571 113170952 L59476190 113123333 L59571428 113075714 L59666666 113075714 "/>
<svg:path d="M59857142 113075714 L60238095 113075714 "/>
<svg:path d="M59999999 112742380 L59999999 113599523 L60047619 113694761 L60142857 113742380 L60238095 113742380 "/>
<svg:path d="M60571428 113742380 L60571428 113075714 "/>
<svg:path d="M60571428 112742380 L60523809 112790000 L60571428 112837619 L60619047 112790000 L60571428 112742380 L60571428 112837619 "/>
<svg:path d="M61476190 113694761 L61380952 113742380 L61190476 113742380 L61095238 113694761 L61047619 113647142 L60999999 113551904 L60999999 113266190 L61047619 113170952 L61095238 113123333 L61190476 113075714 L61380952 113075714 L61476190 113123333 "/>
<svg:path d="M62333333 113742380 L62333333 113218571 L62285714 113123333 L62190476 113075714 L61999999 113075714 L61904761 113123333 "/>
<svg:path d="M62333333 113694761 L62238095 113742380 L61999999 113742380 L61904761 113694761 L61857142 113599523 L61857142 113504285 L61904761 113409047 L61999999 113361428 L62238095 113361428 L62333333 113313809 "/>
<svg:path d="M62952380 113742380 L62857142 113694761 L62809523 113599523 L62809523 112742380 "/>
</svg:g><svg:g transform="rotate(-90.000000 50000000.000000 80480000.000000)">
<svg:text x="50000000.000000" y="80980000.000000" textLength="38718810.000000" font-size="1333333.000000" lengthAdjust="spacingAndGlyphs" text-anchor="middle" opacity="0">FZKCNPINHEADER254PINHEADER1X25P254VERTICAL</svg:text>
</svg:g>
<svg:g class="stroked-text"><svg:desc>FZKCNPINHEADER254PINHEADER1X25P254VERTICAL</svg:desc>
<svg:path d="M49928571 99170476 L49928571 99503809 "/>
<svg:path d="M50452380 99503809 L49452380 99503809 L49452380 99027619 "/>
<svg:path d="M49452380 98741904 L49452380 98075238 L50452380 98741904 L50452380 98075238 "/>
<svg:path d="M50452380 97694285 L49452380 97694285 "/>
<svg:path d="M50452380 97122857 L49880952 97551428 "/>
<svg:path d="M49452380 97122857 L50023809 97694285 "/>
<svg:path d="M50357142 96122857 L50404761 96170476 L50452380 96313333 L50452380 96408571 L50404761 96551428 L50309523 96646666 L50214285 96694285 L50023809 96741904 L49880952 96741904 L49690476 96694285 L49595238 96646666 L49500000 96551428 L49452380 96408571 L49452380 96313333 L49500000 96170476 L49547619 96122857 "/>
<svg:path d="M50452380 95694285 L49452380 95694285 L50452380 95122857 L49452380 95122857 "/>
<svg:path d="M50452380 94646666 L49452380 94646666 L49452380 94265714 L49500000 94170476 L49547619 94122857 L49642857 94075238 L49785714 94075238 L49880952 94122857 L49928571 94170476 L49976190 94265714 L49976190 94646666 "/>
<svg:path d="M50452380 93646666 L49452380 93646666 "/>
<svg:path d="M50452380 93170476 L49452380 93170476 L50452380 92599047 L49452380 92599047 "/>
<svg:path d="M50452380 92122857 L49452380 92122857 "/>
<svg:path d="M49928571 92122857 L49928571 91551428 "/>
<svg:path d="M50452380 91551428 L49452380 91551428 "/>
<svg:path d="M49928571 91075238 L49928571 90741904 "/>
<svg:path d="M50452380 90599047 L50452380 91075238 L49452380 91075238 L49452380 90599047 "/>
<svg:path d="M50166666 90218095 L50166666 89741904 "/>
<svg:path d="M50452380 90313333 L49452380 89980000 L50452380 89646666 "/>
<svg:path d="M50452380 89313333 L49452380 89313333 L49452380 89075238 L49500000 88932380 L49595238 88837142 L49690476 88789523 L49880952 88741904 L50023809 88741904 L50214285 88789523 L50309523 88837142 L50404761 88932380 L50452380 89075238 L50452380 89313333 "/>
<svg:path d="M49928571 88313333 L49928571 87980000 "/>
<svg:path d="M50452380 87837142 L50452380 88313333 L49452380 88313333 L49452380 87837142 "/>
<svg:path d="M50452380 86837142 L49976190 87170476 "/>
<svg:path d="M50452380 87408571 L49452380 87408571 L49452380 87027619 L49500000 86932380 L49547619 86884761 L49642857 86837142 L49785714 86837142 L49880952 86884761 L49928571 86932380 L49976190 87027619 L49976190 87408571 "/>
<svg:path d="M49547619 86456190 L49500000 86408571 L49452380 86313333 L49452380 86075238 L49500000 85980000 L49547619 85932380 L49642857 85884761 L49738095 85884761 L49880952 85932380 L50452380 86503809 L50452380 85884761 "/>
<svg:path d="M49452380 84980000 L49452380 85456190 L49928571 85503809 L49880952 85456190 L49833333 85360952 L49833333 85122857 L49880952 85027619 L49928571 84980000 L50023809 84932380 L50261904 84932380 L50357142 84980000 L50404761 85027619 L50452380 85122857 L50452380 85360952 L50404761 85456190 L50357142 85503809 "/>
<svg:path d="M49785714 84075238 L50452380 84075238 "/>
<svg:path d="M49404761 84313333 L50119047 84551428 L50119047 83932380 "/>
<svg:path d="M50452380 83551428 L49452380 83551428 L49452380 83170476 L49500000 83075238 L49547619 83027619 L49642857 82980000 L49785714 82980000 L49880952 83027619 L49928571 83075238 L49976190 83170476 L49976190 83551428 "/>
<svg:path d="M50452380 82551428 L49452380 82551428 "/>
<svg:path d="M50452380 82075238 L49452380 82075238 L50452380 81503809 L49452380 81503809 "/>
<svg:path d="M50452380 81027619 L49452380 81027619 "/>
<svg:path d="M49928571 81027619 L49928571 80456190 "/>
<svg:path d="M50452380 80456190 L49452380 80456190 "/>
<svg:path d="M49928571 79980000 L49928571 79646666 "/>
<svg:path d="M50452380 79503809 L50452380 79980000 L49452380 79980000 L49452380 79503809 "/>
<svg:path d="M50166666 79122857 L50166666 78646666 "/>
<svg:path d="M50452380 79218095 L49452380 78884761 L50452380 78551428 "/>
<svg:path d="M50452380 78218095 L49452380 78218095 L49452380 77980000 L49500000 77837142 L49595238 77741904 L49690476 77694285 L49880952 77646666 L50023809 77646666 L50214285 77694285 L50309523 77741904 L50404761 77837142 L50452380 77980000 L50452380 78218095 "/>
<svg:path d="M49928571 77218095 L49928571 76884761 "/>
<svg:path d="M50452380 76741904 L50452380 77218095 L49452380 77218095 L49452380 76741904 "/>
<svg:path d="M50452380 75741904 L49976190 76075238 "/>
<svg:path d="M50452380 76313333 L49452380 76313333 L49452380 75932380 L49500000 75837142 L49547619 75789523 L49642857 75741904 L49785714 75741904 L49880952 75789523 L49928571 75837142 L49976190 75932380 L49976190 76313333 "/>
<svg:path d="M50452380 74789523 L50452380 75360952 "/>
<svg:path d="M50452380 75075238 L49452380 75075238 L49595238 75170476 L49690476 75265714 L49738095 75360952 "/>
<svg:path d="M49452380 74456190 L50452380 73789523 "/>
<svg:path d="M49452380 73789523 L50452380 74456190 "/>
<svg:path d="M49547619 73456190 L49500000 73408571 L49452380 73313333 L49452380 73075238 L49500000 72980000 L49547619 72932380 L49642857 72884761 L49738095 72884761 L49880952 72932380 L50452380 73503809 L50452380 72884761 "/>
<svg:path d="M49452380 71980000 L49452380 72456190 L49928571 72503809 L49880952 72456190 L49833333 72360952 L49833333 72122857 L49880952 72027619 L49928571 71980000 L50023809 71932380 L50261904 71932380 L50357142 71980000 L50404761 72027619 L50452380 72122857 L50452380 72360952 L50404761 72456190 L50357142 72503809 "/>
<svg:path d="M50452380 71503809 L49452380 71503809 L49452380 71122857 L49500000 71027619 L49547619 70980000 L49642857 70932380 L49785714 70932380 L49880952 70980000 L49928571 71027619 L49976190 71122857 L49976190 71503809 "/>
<svg:path d="M49547619 70551428 L49500000 70503809 L49452380 70408571 L49452380 70170476 L49500000 70075238 L49547619 70027619 L49642857 69980000 L49738095 69980000 L49880952 70027619 L50452380 70599047 L50452380 69980000 "/>
<svg:path d="M49452380 69075238 L49452380 69551428 L49928571 69599047 L49880952 69551428 L49833333 69456190 L49833333 69218095 L49880952 69122857 L49928571 69075238 L50023809 69027619 L50261904 69027619 L50357142 69075238 L50404761 69122857 L50452380 69218095 L50452380 69456190 L50404761 69551428 L50357142 69599047 "/>
<svg:path d="M49785714 68170476 L50452380 68170476 "/>
<svg:path d="M49404761 68408571 L50119047 68646666 L50119047 68027619 "/>
<svg:path d="M49452380 67789523 L50452380 67456190 L49452380 67122857 "/>
<svg:path d="M49928571 66789523 L49928571 66456190 "/>
<svg:path d="M50452380 66313333 L50452380 66789523 L49452380 66789523 L49452380 66313333 "/>
<svg:path d="M50452380 65313333 L49976190 65646666 "/>
<svg:path d="M50452380 65884761 L49452380 65884761 L49452380 65503809 L49500000 65408571 L49547619 65360952 L49642857 65313333 L49785714 65313333 L49880952 65360952 L49928571 65408571 L49976190 65503809 L49976190 65884761 "/>
<svg:path d="M49452380 65027619 L49452380 64456190 "/>
<svg:path d="M50452380 64741904 L49452380 64741904 "/>
<svg:path d="M50452380 64122857 L49452380 64122857 "/>
<svg:path d="M50357142 63075238 L50404761 63122857 L50452380 63265714 L50452380 63360952 L50404761 63503809 L50309523 63599047 L50214285 63646666 L50023809 63694285 L49880952 63694285 L49690476 63646666 L49595238 63599047 L49500000 63503809 L49452380 63360952 L49452380 63265714 L49500000 63122857 L49547619 63075238 "/>
<svg:path d="M50166666 62694285 L50166666 62218095 "/>
<svg:path d="M50452380 62789523 L49452380 62456190 L50452380 62122857 "/>
<svg:path d="M50452380 61313333 L50452380 61789523 L49452380 61789523 "/>
</svg:g></svg:g>
<svg:g style="fill:#AFAFAF; fill-opacity:0.0;  stroke:#AFAFAF; stroke-width:100000.000000; stroke-opacity:1;  stroke-linecap:round; stroke-linejoin:round;">
<svg:path d="M51270000 112230000 L48730000 112230000 "/>
<svg:path d="M48730000 112230000 L48730000 49365000 "/>
<svg:path d="M51270000 48730000 L51270000 112230000 "/>
<svg:path d="M48730000 49365000 L49365000 48730000 "/>
<svg:path d="M49365000 48730000 L51270000 48730000 "/>
<svg:g>
</svg:g>
<svg:g>
</svg:g>
<svg:g>
</svg:g>
<svg:g>
</svg:g>
</svg:g>
<svg:g style="fill:#000000; fill-opacity:0.0;  stroke:#000000; stroke-width:100000.000000; stroke-opacity:1;  stroke-linecap:round; stroke-linejoin:round;">
<svg:g>
</svg:g>
<svg:g>
</svg:g>
<svg:g>
</svg:g>
<svg:g>
</svg:g>
</svg:g> 
</svg:g><svg:g><svg:title>SVG Picture created as kicadBoard-F_Mask.svg date 2022/11/17 09:30:27 </svg:title>
  <svg:desc>Picture generated by PCBNEW </svg:desc>
<svg:g style="fill:#000000; fill-opacity:1.000000;stroke:#000000; stroke-opacity:1.000000; stroke-linecap:round; stroke-linejoin:round;" transform="translate(0 0) scale(1 1)">
</svg:g>
<svg:g style="fill:#000000; fill-opacity:0.0;  stroke:#000000; stroke-width:0.000000; stroke-opacity:1;  stroke-linecap:round; stroke-linejoin:round;">
<svg:g>
</svg:g>
<svg:g style="fill:#000000; fill-opacity:0.0;  stroke:#000000; stroke-width:1.000000; stroke-opacity:1;  stroke-linecap:round; stroke-linejoin:round;">
</svg:g>
<svg:g style="fill:#000000; fill-opacity:1.0;  stroke:#000000; stroke-width:1.000000; stroke-opacity:1;  stroke-linecap:round; stroke-linejoin:round;">
<svg:path style="fill:#000000; fill-opacity:1.0;  stroke:#000000; stroke-width:1.000000; stroke-opacity:1;  stroke-linecap:round; stroke-linejoin:round;fill-rule:evenodd;" d="M 49150000.000000,50850000.000000 49150000.000000,49150000.000000 50850000.000000,49150000.000000 50850000.000000,50850000.000000 Z"/> 
<svg:circle cx="50000000.000000" cy="52540000.000000" r="850000.000000"/> 
<svg:circle cx="50000000.000000" cy="55080000.000000" r="850000.000000"/> 
<svg:circle cx="50000000.000000" cy="57620000.000000" r="850000.000000"/> 
<svg:circle cx="50000000.000000" cy="60160000.000000" r="850000.000000"/> 
<svg:circle cx="50000000.000000" cy="62700000.000000" r="850000.000000"/> 
<svg:circle cx="50000000.000000" cy="65240000.000000" r="850000.000000"/> 
<svg:circle cx="50000000.000000" cy="67780000.000000" r="850000.000000"/> 
<svg:circle cx="50000000.000000" cy="70320000.000000" r="850000.000000"/> 
<svg:circle cx="50000000.000000" cy="72860000.000000" r="850000.000000"/> 
<svg:circle cx="50000000.000000" cy="75400000.000000" r="850000.000000"/> 
<svg:circle cx="50000000.000000" cy="77940000.000000" r="850000.000000"/> 
<svg:circle cx="50000000.000000" cy="80480000.000000" r="850000.000000"/> 
<svg:circle cx="50000000.000000" cy="83020000.000000" r="850000.000000"/> 
<svg:circle cx="50000000.000000" cy="85560000.000000" r="850000.000000"/> 
<svg:circle cx="50000000.000000" cy="88100000.000000" r="850000.000000"/> 
<svg:circle cx="50000000.000000" cy="90640000.000000" r="850000.000000"/> 
<svg:circle cx="50000000.000000" cy="93180000.000000" r="850000.000000"/> 
<svg:circle cx="50000000.000000" cy="95720000.000000" r="850000.000000"/> 
<svg:circle cx="50000000.000000" cy="98260000.000000" r="850000.000000"/> 
<svg:circle cx="50000000.000000" cy="100800000.000000" r="850000.000000"/> 
<svg:circle cx="50000000.000000" cy="103340000.000000" r="850000.000000"/> 
<svg:circle cx="50000000.000000" cy="105880000.000000" r="850000.000000"/> 
<svg:circle cx="50000000.000000" cy="108420000.000000" r="850000.000000"/> 
<svg:circle cx="50000000.000000" cy="110960000.000000" r="850000.000000"/> 
</svg:g>
<svg:g>
</svg:g>
<svg:g>
</svg:g>
<svg:g>
</svg:g>
</svg:g>
<svg:g style="fill:#000000; fill-opacity:1.0;  stroke:#000000; stroke-width:1.000000; stroke-opacity:1;  stroke-linecap:round; stroke-linejoin:round;">
<svg:g>
</svg:g>
<svg:g>
</svg:g>
<svg:g>
</svg:g>
<svg:g>
</svg:g>
</svg:g> 
</svg:g><svg:g><svg:title>SVG Picture created as kicadBoard-F_Paste.svg date 2022/11/17 09:30:27 </svg:title>
  <svg:desc>Picture generated by PCBNEW </svg:desc>
<svg:g style="fill:#000000; fill-opacity:1.000000;stroke:#000000; stroke-opacity:1.000000; stroke-linecap:round; stroke-linejoin:round;" transform="translate(0 0) scale(1 1)">
</svg:g>
<svg:g style="fill:#000000; fill-opacity:0.0;  stroke:#000000; stroke-width:0.000000; stroke-opacity:1;  stroke-linecap:round; stroke-linejoin:round;">
<svg:g>
</svg:g>
<svg:g>
</svg:g>
<svg:g>
</svg:g>
<svg:g>
</svg:g>
</svg:g>
<svg:g style="fill:#000000; fill-opacity:0.0;  stroke:#000000; stroke-width:0.000000; stroke-opacity:1;  stroke-linecap:round; stroke-linejoin:round;">
<svg:g>
</svg:g>
<svg:g>
</svg:g>
<svg:g>
</svg:g>
<svg:g>
</svg:g>
</svg:g> 
</svg:g><svg:g><svg:title>SVG Picture created as kicadBoard-F_Silkscreen.svg date 2022/11/17 09:30:27 </svg:title>
  <svg:desc>Picture generated by PCBNEW </svg:desc>
<svg:g style="fill:#000000; fill-opacity:1.000000;stroke:#000000; stroke-opacity:1.000000; stroke-linecap:round; stroke-linejoin:round;" transform="translate(0 0) scale(1 1)">
</svg:g>
<svg:g style="fill:#000000; fill-opacity:0.0;  stroke:#000000; stroke-width:0.000000; stroke-opacity:1;  stroke-linecap:round; stroke-linejoin:round;">
</svg:g>
<svg:g style="fill:#F2EDA1; fill-opacity:0.0;  stroke:#F2EDA1; stroke-width:0.000000; stroke-opacity:1;  stroke-linecap:round; stroke-linejoin:round;">
</svg:g>
<svg:g style="fill:#F2EDA1; fill-opacity:0.0;  stroke:#F2EDA1; stroke-width:150000.000000; stroke-opacity:1;  stroke-linecap:round; stroke-linejoin:round;">
<svg:text x="50000000.000000" y="48170000.000000" textLength="38523811.000000" font-size="1333333.000000" lengthAdjust="spacingAndGlyphs" text-anchor="middle" opacity="0">FZKCNPINHEADER254PINHEADER1X25P254VERTICAL</svg:text>
<svg:g class="stroked-text"><svg:desc>FZKCNPINHEADER254PINHEADER1X25P254VERTICAL</svg:desc>
<svg:path d="M31309523 47598571 L30976190 47598571 "/>
<svg:path d="M30976190 48122380 L30976190 47122380 L31452380 47122380 "/>
<svg:path d="M31738095 47122380 L32404761 47122380 L31738095 48122380 L32404761 48122380 "/>
<svg:path d="M32785714 48122380 L32785714 47122380 "/>
<svg:path d="M33357142 48122380 L32928571 47550952 "/>
<svg:path d="M33357142 47122380 L32785714 47693809 "/>
<svg:path d="M34357142 48027142 L34309523 48074761 L34166666 48122380 L34071428 48122380 L33928571 48074761 L33833333 47979523 L33785714 47884285 L33738095 47693809 L33738095 47550952 L33785714 47360476 L33833333 47265238 L33928571 47170000 L34071428 47122380 L34166666 47122380 L34309523 47170000 L34357142 47217619 "/>
<svg:path d="M34785714 48122380 L34785714 47122380 L35357142 48122380 L35357142 47122380 "/>
<svg:path d="M35833333 48122380 L35833333 47122380 L36214285 47122380 L36309523 47170000 L36357142 47217619 L36404761 47312857 L36404761 47455714 L36357142 47550952 L36309523 47598571 L36214285 47646190 L35833333 47646190 "/>
<svg:path d="M36833333 48122380 L36833333 47122380 "/>
<svg:path d="M37309523 48122380 L37309523 47122380 L37880952 48122380 L37880952 47122380 "/>
<svg:path d="M38357142 48122380 L38357142 47122380 "/>
<svg:path d="M38357142 47598571 L38928571 47598571 "/>
<svg:path d="M38928571 48122380 L38928571 47122380 "/>
<svg:path d="M39404761 47598571 L39738095 47598571 "/>
<svg:path d="M39880952 48122380 L39404761 48122380 L39404761 47122380 L39880952 47122380 "/>
<svg:path d="M40261904 47836666 L40738095 47836666 "/>
<svg:path d="M40166666 48122380 L40500000 47122380 L40833333 48122380 "/>
<svg:path d="M41166666 48122380 L41166666 47122380 L41404761 47122380 L41547619 47170000 L41642857 47265238 L41690476 47360476 L41738095 47550952 L41738095 47693809 L41690476 47884285 L41642857 47979523 L41547619 48074761 L41404761 48122380 L41166666 48122380 "/>
<svg:path d="M42166666 47598571 L42500000 47598571 "/>
<svg:path d="M42642857 48122380 L42166666 48122380 L42166666 47122380 L42642857 47122380 "/>
<svg:path d="M43642857 48122380 L43309523 47646190 "/>
<svg:path d="M43071428 48122380 L43071428 47122380 L43452380 47122380 L43547619 47170000 L43595238 47217619 L43642857 47312857 L43642857 47455714 L43595238 47550952 L43547619 47598571 L43452380 47646190 L43071428 47646190 "/>
<svg:path d="M44023809 47217619 L44071428 47170000 L44166666 47122380 L44404761 47122380 L44500000 47170000 L44547619 47217619 L44595238 47312857 L44595238 47408095 L44547619 47550952 L43976190 48122380 L44595238 48122380 "/>
<svg:path d="M45500000 47122380 L45023809 47122380 L44976190 47598571 L45023809 47550952 L45119047 47503333 L45357142 47503333 L45452380 47550952 L45500000 47598571 L45547619 47693809 L45547619 47931904 L45500000 48027142 L45452380 48074761 L45357142 48122380 L45119047 48122380 L45023809 48074761 L44976190 48027142 "/>
<svg:path d="M46404761 47455714 L46404761 48122380 "/>
<svg:path d="M46166666 47074761 L45928571 47789047 L46547619 47789047 "/>
<svg:path d="M46928571 48122380 L46928571 47122380 L47309523 47122380 L47404761 47170000 L47452380 47217619 L47500000 47312857 L47500000 47455714 L47452380 47550952 L47404761 47598571 L47309523 47646190 L46928571 47646190 "/>
<svg:path d="M47928571 48122380 L47928571 47122380 "/>
<svg:path d="M48404761 48122380 L48404761 47122380 L48976190 48122380 L48976190 47122380 "/>
<svg:path d="M49452380 48122380 L49452380 47122380 "/>
<svg:path d="M49452380 47598571 L50023809 47598571 "/>
<svg:path d="M50023809 48122380 L50023809 47122380 "/>
<svg:path d="M50500000 47598571 L50833333 47598571 "/>
<svg:path d="M50976190 48122380 L50500000 48122380 L50500000 47122380 L50976190 47122380 "/>
<svg:path d="M51357142 47836666 L51833333 47836666 "/>
<svg:path d="M51261904 48122380 L51595238 47122380 L51928571 48122380 "/>
<svg:path d="M52261904 48122380 L52261904 47122380 L52500000 47122380 L52642857 47170000 L52738095 47265238 L52785714 47360476 L52833333 47550952 L52833333 47693809 L52785714 47884285 L52738095 47979523 L52642857 48074761 L52500000 48122380 L52261904 48122380 "/>
<svg:path d="M53261904 47598571 L53595238 47598571 "/>
<svg:path d="M53738095 48122380 L53261904 48122380 L53261904 47122380 L53738095 47122380 "/>
<svg:path d="M54738095 48122380 L54404761 47646190 "/>
<svg:path d="M54166666 48122380 L54166666 47122380 L54547619 47122380 L54642857 47170000 L54690476 47217619 L54738095 47312857 L54738095 47455714 L54690476 47550952 L54642857 47598571 L54547619 47646190 L54166666 47646190 "/>
<svg:path d="M55690476 48122380 L55119047 48122380 "/>
<svg:path d="M55404761 48122380 L55404761 47122380 L55309523 47265238 L55214285 47360476 L55119047 47408095 "/>
<svg:path d="M56023809 47122380 L56690476 48122380 "/>
<svg:path d="M56690476 47122380 L56023809 48122380 "/>
<svg:path d="M57023809 47217619 L57071428 47170000 L57166666 47122380 L57404761 47122380 L57500000 47170000 L57547619 47217619 L57595238 47312857 L57595238 47408095 L57547619 47550952 L56976190 48122380 L57595238 48122380 "/>
<svg:path d="M58500000 47122380 L58023809 47122380 L57976190 47598571 L58023809 47550952 L58119047 47503333 L58357142 47503333 L58452380 47550952 L58500000 47598571 L58547619 47693809 L58547619 47931904 L58500000 48027142 L58452380 48074761 L58357142 48122380 L58119047 48122380 L58023809 48074761 L57976190 48027142 "/>
<svg:path d="M58976190 48122380 L58976190 47122380 L59357142 47122380 L59452380 47170000 L59500000 47217619 L59547619 47312857 L59547619 47455714 L59500000 47550952 L59452380 47598571 L59357142 47646190 L58976190 47646190 "/>
<svg:path d="M59928571 47217619 L59976190 47170000 L60071428 47122380 L60309523 47122380 L60404761 47170000 L60452380 47217619 L60500000 47312857 L60500000 47408095 L60452380 47550952 L59880952 48122380 L60500000 48122380 "/>
<svg:path d="M61404761 47122380 L60928571 47122380 L60880952 47598571 L60928571 47550952 L61023809 47503333 L61261904 47503333 L61357142 47550952 L61404761 47598571 L61452380 47693809 L61452380 47931904 L61404761 48027142 L61357142 48074761 L61261904 48122380 L61023809 48122380 L60928571 48074761 L60880952 48027142 "/>
<svg:path d="M62309523 47455714 L62309523 48122380 "/>
<svg:path d="M62071428 47074761 L61833333 47789047 L62452380 47789047 "/>
<svg:path d="M62690476 47122380 L63023809 48122380 L63357142 47122380 "/>
<svg:path d="M63690476 47598571 L64023809 47598571 "/>
<svg:path d="M64166666 48122380 L63690476 48122380 L63690476 47122380 L64166666 47122380 "/>
<svg:path d="M65166666 48122380 L64833333 47646190 "/>
<svg:path d="M64595238 48122380 L64595238 47122380 L64976190 47122380 L65071428 47170000 L65119047 47217619 L65166666 47312857 L65166666 47455714 L65119047 47550952 L65071428 47598571 L64976190 47646190 L64595238 47646190 "/>
<svg:path d="M65452380 47122380 L66023809 47122380 "/>
<svg:path d="M65738095 48122380 L65738095 47122380 "/>
<svg:path d="M66357142 48122380 L66357142 47122380 "/>
<svg:path d="M67404761 48027142 L67357142 48074761 L67214285 48122380 L67119047 48122380 L66976190 48074761 L66880952 47979523 L66833333 47884285 L66785714 47693809 L66785714 47550952 L66833333 47360476 L66880952 47265238 L66976190 47170000 L67119047 47122380 L67214285 47122380 L67357142 47170000 L67404761 47217619 "/>
<svg:path d="M67785714 47836666 L68261904 47836666 "/>
<svg:path d="M67690476 48122380 L68023809 47122380 L68357142 48122380 "/>
<svg:path d="M69166666 48122380 L68690476 48122380 L68690476 47122380 "/>
</svg:g></svg:g>
<svg:g style="fill:#F2EDA1; fill-opacity:0.0;  stroke:#F2EDA1; stroke-width:120000.000000; stroke-opacity:1;  stroke-linecap:round; stroke-linejoin:round;">
<svg:path d="M48670000 112290000 L51330000 112290000 "/>
<svg:path d="M48670000 51270000 L48670000 112290000 "/>
<svg:path d="M48670000 50000000 L48670000 48670000 "/>
<svg:path d="M48670000 48670000 L50000000 48670000 "/>
<svg:path d="M48670000 51270000 L51330000 51270000 "/>
<svg:path d="M51330000 51270000 L51330000 112290000 "/>
<svg:g>
</svg:g>
<svg:g>
</svg:g>
<svg:g>
</svg:g>
<svg:g>
</svg:g>
</svg:g>
<svg:g style="fill:#000000; fill-opacity:0.0;  stroke:#000000; stroke-width:120000.000000; stroke-opacity:1;  stroke-linecap:round; stroke-linejoin:round;">
<svg:g>
</svg:g>
<svg:g>
</svg:g>
<svg:g>
</svg:g>
<svg:g>
</svg:g>
</svg:g> 
</svg:g><svg:g><svg:title>SVG Picture created as kicadBoard-Margin.svg date 2022/11/17 09:30:27 </svg:title>
  <svg:desc>Picture generated by PCBNEW </svg:desc>
<svg:g style="fill:#000000; fill-opacity:1.000000;stroke:#000000; stroke-opacity:1.000000; stroke-linecap:round; stroke-linejoin:round;" transform="translate(0 0) scale(1 1)">
</svg:g>
<svg:g style="fill:#000000; fill-opacity:0.0;  stroke:#000000; stroke-width:0.000000; stroke-opacity:1;  stroke-linecap:round; stroke-linejoin:round;">
<svg:g>
</svg:g>
<svg:g>
</svg:g>
<svg:g>
</svg:g>
<svg:g>
</svg:g>
</svg:g>
<svg:g style="fill:#000000; fill-opacity:0.0;  stroke:#000000; stroke-width:0.000000; stroke-opacity:1;  stroke-linecap:round; stroke-linejoin:round;">
<svg:g>
</svg:g>
<svg:g>
</svg:g>
<svg:g>
</svg:g>
<svg:g>
</svg:g>
</svg:g> 
</svg:g><svg:g><svg:title>SVG Picture created as kicadBoard-F_Cu.svg date 2022/11/17 09:30:27 </svg:title>
  <svg:desc>Picture generated by PCBNEW </svg:desc>
<svg:g style="fill:#000000; fill-opacity:1.000000;stroke:#000000; stroke-opacity:1.000000; stroke-linecap:round; stroke-linejoin:round;" transform="translate(0 0) scale(1 1)">
</svg:g>
<svg:g style="fill:#000000; fill-opacity:0.0;  stroke:#000000; stroke-width:0.000000; stroke-opacity:1;  stroke-linecap:round; stroke-linejoin:round;">
<svg:g>
</svg:g>
<svg:g style="fill:#C83434; fill-opacity:0.0;  stroke:#C83434; stroke-width:0.000000; stroke-opacity:1;  stroke-linecap:round; stroke-linejoin:round;">
</svg:g>
<svg:g style="fill:#C83434; fill-opacity:0.0;  stroke:#C83434; stroke-width:1.000000; stroke-opacity:1;  stroke-linecap:round; stroke-linejoin:round;">
</svg:g>
<svg:g style="fill:#C83434; fill-opacity:1.0;  stroke:#C83434; stroke-width:1.000000; stroke-opacity:1;  stroke-linecap:round; stroke-linejoin:round;">
<svg:path style="fill:#C83434; fill-opacity:1.0;  stroke:#C83434; stroke-width:1.000000; stroke-opacity:1;  stroke-linecap:round; stroke-linejoin:round;fill-rule:evenodd;" d="M 49150000.000000,50850000.000000 49150000.000000,49150000.000000 50850000.000000,49150000.000000 50850000.000000,50850000.000000 Z"/> 
<svg:circle cx="50000000.000000" cy="52540000.000000" r="850000.000000"/> 
<svg:circle cx="50000000.000000" cy="55080000.000000" r="850000.000000"/> 
<svg:circle cx="50000000.000000" cy="57620000.000000" r="850000.000000"/> 
<svg:circle cx="50000000.000000" cy="60160000.000000" r="850000.000000"/> 
<svg:circle cx="50000000.000000" cy="62700000.000000" r="850000.000000"/> 
<svg:circle cx="50000000.000000" cy="65240000.000000" r="850000.000000"/> 
<svg:circle cx="50000000.000000" cy="67780000.000000" r="850000.000000"/> 
<svg:circle cx="50000000.000000" cy="70320000.000000" r="850000.000000"/> 
<svg:circle cx="50000000.000000" cy="72860000.000000" r="850000.000000"/> 
<svg:circle cx="50000000.000000" cy="75400000.000000" r="850000.000000"/> 
<svg:circle cx="50000000.000000" cy="77940000.000000" r="850000.000000"/> 
<svg:circle cx="50000000.000000" cy="80480000.000000" r="850000.000000"/> 
<svg:circle cx="50000000.000000" cy="83020000.000000" r="850000.000000"/> 
<svg:circle cx="50000000.000000" cy="85560000.000000" r="850000.000000"/> 
<svg:circle cx="50000000.000000" cy="88100000.000000" r="850000.000000"/> 
<svg:circle cx="50000000.000000" cy="90640000.000000" r="850000.000000"/> 
<svg:circle cx="50000000.000000" cy="93180000.000000" r="850000.000000"/> 
<svg:circle cx="50000000.000000" cy="95720000.000000" r="850000.000000"/> 
<svg:circle cx="50000000.000000" cy="98260000.000000" r="850000.000000"/> 
<svg:circle cx="50000000.000000" cy="100800000.000000" r="850000.000000"/> 
<svg:circle cx="50000000.000000" cy="103340000.000000" r="850000.000000"/> 
<svg:circle cx="50000000.000000" cy="105880000.000000" r="850000.000000"/> 
<svg:circle cx="50000000.000000" cy="108420000.000000" r="850000.000000"/> 
<svg:circle cx="50000000.000000" cy="110960000.000000" r="850000.000000"/> 
</svg:g>
<svg:g>
</svg:g>
<svg:g>
</svg:g>
<svg:g>
</svg:g>
</svg:g>
<svg:g style="fill:#FFFFFF; fill-opacity:1.0;  stroke:#FFFFFF; stroke-width:1.000000; stroke-opacity:1;  stroke-linecap:round; stroke-linejoin:round;">
<svg:circle cx="50000000.000000" cy="50000000.000000" r="500000.000000"/> 
</svg:g>
<svg:g style="fill:#FFFFFF; fill-opacity:1.0;  stroke:#FFFFFF; stroke-width:21200.000000; stroke-opacity:1;  stroke-linecap:round; stroke-linejoin:round;">
</svg:g>
<svg:g style="fill:#FFFFFF; fill-opacity:1.0;  stroke:#FFFFFF; stroke-width:1.000000; stroke-opacity:1;  stroke-linecap:round; stroke-linejoin:round;">
<svg:circle cx="50000000.000000" cy="52540000.000000" r="500000.000000"/> 
</svg:g>
<svg:g style="fill:#FFFFFF; fill-opacity:1.0;  stroke:#FFFFFF; stroke-width:21200.000000; stroke-opacity:1;  stroke-linecap:round; stroke-linejoin:round;">
</svg:g>
<svg:g style="fill:#FFFFFF; fill-opacity:1.0;  stroke:#FFFFFF; stroke-width:1.000000; stroke-opacity:1;  stroke-linecap:round; stroke-linejoin:round;">
<svg:circle cx="50000000.000000" cy="55080000.000000" r="500000.000000"/> 
</svg:g>
<svg:g style="fill:#FFFFFF; fill-opacity:1.0;  stroke:#FFFFFF; stroke-width:21200.000000; stroke-opacity:1;  stroke-linecap:round; stroke-linejoin:round;">
</svg:g>
<svg:g style="fill:#FFFFFF; fill-opacity:1.0;  stroke:#FFFFFF; stroke-width:1.000000; stroke-opacity:1;  stroke-linecap:round; stroke-linejoin:round;">
<svg:circle cx="50000000.000000" cy="57620000.000000" r="500000.000000"/> 
</svg:g>
<svg:g style="fill:#FFFFFF; fill-opacity:1.0;  stroke:#FFFFFF; stroke-width:21200.000000; stroke-opacity:1;  stroke-linecap:round; stroke-linejoin:round;">
</svg:g>
<svg:g style="fill:#FFFFFF; fill-opacity:1.0;  stroke:#FFFFFF; stroke-width:1.000000; stroke-opacity:1;  stroke-linecap:round; stroke-linejoin:round;">
<svg:circle cx="50000000.000000" cy="60160000.000000" r="500000.000000"/> 
</svg:g>
<svg:g style="fill:#FFFFFF; fill-opacity:1.0;  stroke:#FFFFFF; stroke-width:21200.000000; stroke-opacity:1;  stroke-linecap:round; stroke-linejoin:round;">
</svg:g>
<svg:g style="fill:#FFFFFF; fill-opacity:1.0;  stroke:#FFFFFF; stroke-width:1.000000; stroke-opacity:1;  stroke-linecap:round; stroke-linejoin:round;">
<svg:circle cx="50000000.000000" cy="62700000.000000" r="500000.000000"/> 
</svg:g>
<svg:g style="fill:#FFFFFF; fill-opacity:1.0;  stroke:#FFFFFF; stroke-width:21200.000000; stroke-opacity:1;  stroke-linecap:round; stroke-linejoin:round;">
</svg:g>
<svg:g style="fill:#FFFFFF; fill-opacity:1.0;  stroke:#FFFFFF; stroke-width:1.000000; stroke-opacity:1;  stroke-linecap:round; stroke-linejoin:round;">
<svg:circle cx="50000000.000000" cy="65240000.000000" r="500000.000000"/> 
</svg:g>
<svg:g style="fill:#FFFFFF; fill-opacity:1.0;  stroke:#FFFFFF; stroke-width:21200.000000; stroke-opacity:1;  stroke-linecap:round; stroke-linejoin:round;">
</svg:g>
<svg:g style="fill:#FFFFFF; fill-opacity:1.0;  stroke:#FFFFFF; stroke-width:1.000000; stroke-opacity:1;  stroke-linecap:round; stroke-linejoin:round;">
<svg:circle cx="50000000.000000" cy="67780000.000000" r="500000.000000"/> 
</svg:g>
<svg:g style="fill:#FFFFFF; fill-opacity:1.0;  stroke:#FFFFFF; stroke-width:21200.000000; stroke-opacity:1;  stroke-linecap:round; stroke-linejoin:round;">
</svg:g>
<svg:g style="fill:#FFFFFF; fill-opacity:1.0;  stroke:#FFFFFF; stroke-width:1.000000; stroke-opacity:1;  stroke-linecap:round; stroke-linejoin:round;">
<svg:circle cx="50000000.000000" cy="70320000.000000" r="500000.000000"/> 
</svg:g>
<svg:g style="fill:#FFFFFF; fill-opacity:1.0;  stroke:#FFFFFF; stroke-width:21200.000000; stroke-opacity:1;  stroke-linecap:round; stroke-linejoin:round;">
</svg:g>
<svg:g style="fill:#FFFFFF; fill-opacity:1.0;  stroke:#FFFFFF; stroke-width:1.000000; stroke-opacity:1;  stroke-linecap:round; stroke-linejoin:round;">
<svg:circle cx="50000000.000000" cy="72860000.000000" r="500000.000000"/> 
</svg:g>
<svg:g style="fill:#FFFFFF; fill-opacity:1.0;  stroke:#FFFFFF; stroke-width:21200.000000; stroke-opacity:1;  stroke-linecap:round; stroke-linejoin:round;">
</svg:g>
<svg:g style="fill:#FFFFFF; fill-opacity:1.0;  stroke:#FFFFFF; stroke-width:1.000000; stroke-opacity:1;  stroke-linecap:round; stroke-linejoin:round;">
<svg:circle cx="50000000.000000" cy="75400000.000000" r="500000.000000"/> 
</svg:g>
<svg:g style="fill:#FFFFFF; fill-opacity:1.0;  stroke:#FFFFFF; stroke-width:21200.000000; stroke-opacity:1;  stroke-linecap:round; stroke-linejoin:round;">
</svg:g>
<svg:g style="fill:#FFFFFF; fill-opacity:1.0;  stroke:#FFFFFF; stroke-width:1.000000; stroke-opacity:1;  stroke-linecap:round; stroke-linejoin:round;">
<svg:circle cx="50000000.000000" cy="77940000.000000" r="500000.000000"/> 
</svg:g>
<svg:g style="fill:#FFFFFF; fill-opacity:1.0;  stroke:#FFFFFF; stroke-width:21200.000000; stroke-opacity:1;  stroke-linecap:round; stroke-linejoin:round;">
</svg:g>
<svg:g style="fill:#FFFFFF; fill-opacity:1.0;  stroke:#FFFFFF; stroke-width:1.000000; stroke-opacity:1;  stroke-linecap:round; stroke-linejoin:round;">
<svg:circle cx="50000000.000000" cy="80480000.000000" r="500000.000000"/> 
</svg:g>
<svg:g style="fill:#FFFFFF; fill-opacity:1.0;  stroke:#FFFFFF; stroke-width:21200.000000; stroke-opacity:1;  stroke-linecap:round; stroke-linejoin:round;">
</svg:g>
<svg:g style="fill:#FFFFFF; fill-opacity:1.0;  stroke:#FFFFFF; stroke-width:1.000000; stroke-opacity:1;  stroke-linecap:round; stroke-linejoin:round;">
<svg:circle cx="50000000.000000" cy="83020000.000000" r="500000.000000"/> 
</svg:g>
<svg:g style="fill:#FFFFFF; fill-opacity:1.0;  stroke:#FFFFFF; stroke-width:21200.000000; stroke-opacity:1;  stroke-linecap:round; stroke-linejoin:round;">
</svg:g>
<svg:g style="fill:#FFFFFF; fill-opacity:1.0;  stroke:#FFFFFF; stroke-width:1.000000; stroke-opacity:1;  stroke-linecap:round; stroke-linejoin:round;">
<svg:circle cx="50000000.000000" cy="85560000.000000" r="500000.000000"/> 
</svg:g>
<svg:g style="fill:#FFFFFF; fill-opacity:1.0;  stroke:#FFFFFF; stroke-width:21200.000000; stroke-opacity:1;  stroke-linecap:round; stroke-linejoin:round;">
</svg:g>
<svg:g style="fill:#FFFFFF; fill-opacity:1.0;  stroke:#FFFFFF; stroke-width:1.000000; stroke-opacity:1;  stroke-linecap:round; stroke-linejoin:round;">
<svg:circle cx="50000000.000000" cy="88100000.000000" r="500000.000000"/> 
</svg:g>
<svg:g style="fill:#FFFFFF; fill-opacity:1.0;  stroke:#FFFFFF; stroke-width:21200.000000; stroke-opacity:1;  stroke-linecap:round; stroke-linejoin:round;">
</svg:g>
<svg:g style="fill:#FFFFFF; fill-opacity:1.0;  stroke:#FFFFFF; stroke-width:1.000000; stroke-opacity:1;  stroke-linecap:round; stroke-linejoin:round;">
<svg:circle cx="50000000.000000" cy="90640000.000000" r="500000.000000"/> 
</svg:g>
<svg:g style="fill:#FFFFFF; fill-opacity:1.0;  stroke:#FFFFFF; stroke-width:21200.000000; stroke-opacity:1;  stroke-linecap:round; stroke-linejoin:round;">
</svg:g>
<svg:g style="fill:#FFFFFF; fill-opacity:1.0;  stroke:#FFFFFF; stroke-width:1.000000; stroke-opacity:1;  stroke-linecap:round; stroke-linejoin:round;">
<svg:circle cx="50000000.000000" cy="93180000.000000" r="500000.000000"/> 
</svg:g>
<svg:g style="fill:#FFFFFF; fill-opacity:1.0;  stroke:#FFFFFF; stroke-width:21200.000000; stroke-opacity:1;  stroke-linecap:round; stroke-linejoin:round;">
</svg:g>
<svg:g style="fill:#FFFFFF; fill-opacity:1.0;  stroke:#FFFFFF; stroke-width:1.000000; stroke-opacity:1;  stroke-linecap:round; stroke-linejoin:round;">
<svg:circle cx="50000000.000000" cy="95720000.000000" r="500000.000000"/> 
</svg:g>
<svg:g style="fill:#FFFFFF; fill-opacity:1.0;  stroke:#FFFFFF; stroke-width:21200.000000; stroke-opacity:1;  stroke-linecap:round; stroke-linejoin:round;">
</svg:g>
<svg:g style="fill:#FFFFFF; fill-opacity:1.0;  stroke:#FFFFFF; stroke-width:1.000000; stroke-opacity:1;  stroke-linecap:round; stroke-linejoin:round;">
<svg:circle cx="50000000.000000" cy="98260000.000000" r="500000.000000"/> 
</svg:g>
<svg:g style="fill:#FFFFFF; fill-opacity:1.0;  stroke:#FFFFFF; stroke-width:21200.000000; stroke-opacity:1;  stroke-linecap:round; stroke-linejoin:round;">
</svg:g>
<svg:g style="fill:#FFFFFF; fill-opacity:1.0;  stroke:#FFFFFF; stroke-width:1.000000; stroke-opacity:1;  stroke-linecap:round; stroke-linejoin:round;">
<svg:circle cx="50000000.000000" cy="100800000.000000" r="500000.000000"/> 
</svg:g>
<svg:g style="fill:#FFFFFF; fill-opacity:1.0;  stroke:#FFFFFF; stroke-width:21200.000000; stroke-opacity:1;  stroke-linecap:round; stroke-linejoin:round;">
</svg:g>
<svg:g style="fill:#FFFFFF; fill-opacity:1.0;  stroke:#FFFFFF; stroke-width:1.000000; stroke-opacity:1;  stroke-linecap:round; stroke-linejoin:round;">
<svg:circle cx="50000000.000000" cy="103340000.000000" r="500000.000000"/> 
</svg:g>
<svg:g style="fill:#FFFFFF; fill-opacity:1.0;  stroke:#FFFFFF; stroke-width:21200.000000; stroke-opacity:1;  stroke-linecap:round; stroke-linejoin:round;">
</svg:g>
<svg:g style="fill:#FFFFFF; fill-opacity:1.0;  stroke:#FFFFFF; stroke-width:1.000000; stroke-opacity:1;  stroke-linecap:round; stroke-linejoin:round;">
<svg:circle cx="50000000.000000" cy="105880000.000000" r="500000.000000"/> 
</svg:g>
<svg:g style="fill:#FFFFFF; fill-opacity:1.0;  stroke:#FFFFFF; stroke-width:21200.000000; stroke-opacity:1;  stroke-linecap:round; stroke-linejoin:round;">
</svg:g>
<svg:g style="fill:#FFFFFF; fill-opacity:1.0;  stroke:#FFFFFF; stroke-width:1.000000; stroke-opacity:1;  stroke-linecap:round; stroke-linejoin:round;">
<svg:circle cx="50000000.000000" cy="108420000.000000" r="500000.000000"/> 
</svg:g>
<svg:g style="fill:#FFFFFF; fill-opacity:1.0;  stroke:#FFFFFF; stroke-width:21200.000000; stroke-opacity:1;  stroke-linecap:round; stroke-linejoin:round;">
</svg:g>
<svg:g style="fill:#FFFFFF; fill-opacity:1.0;  stroke:#FFFFFF; stroke-width:1.000000; stroke-opacity:1;  stroke-linecap:round; stroke-linejoin:round;">
<svg:circle cx="50000000.000000" cy="110960000.000000" r="500000.000000"/> 
</svg:g>
<svg:g style="fill:#FFFFFF; fill-opacity:1.0;  stroke:#FFFFFF; stroke-width:21200.000000; stroke-opacity:1;  stroke-linecap:round; stroke-linejoin:round;">
</svg:g>
<svg:g style="fill:#000000; fill-opacity:1.0;  stroke:#000000; stroke-width:21200.000000; stroke-opacity:1;  stroke-linecap:round; stroke-linejoin:round;">
<svg:g>
</svg:g>
<svg:g>
</svg:g>
<svg:g>
</svg:g>
<svg:g>
</svg:g>
</svg:g> 
</svg:g></svg>
