<?xml version='1.0' encoding='ASCII' standalone='yes'?>
<svg xmlns:svg="http://www.w3.org/2000/svg" xmlns="http://www.w3.org/2000/svg" xmlns:xlink="http://www.w3.org/1999/xlink" version="1.1" width="9.999980cm" height="9.999980cm" viewBox="0 0 99999800 99999800">
<title>SVG Picture created as kicadBoard-B_Cu.svg date 2022/12/03 00:24:29 </title>
  <desc>Picture generated by PCBNEW </desc>
<g style="fill:#000000; fill-opacity:1.000000;stroke:#000000; stroke-opacity:1.000000; stroke-linecap:round; stroke-linejoin:round;" transform="translate(0 0) scale(1 1)">
</g>
<g style="fill:#000000; fill-opacity:0.0;  stroke:#000000; stroke-width:0.000000; stroke-opacity:1;  stroke-linecap:round; stroke-linejoin:round;">
<g>
</g>
<g>
</g>
<g>
</g>
<g>
</g>
</g>
<g style="fill:#FFFFFF; fill-opacity:0.0;  stroke:#FFFFFF; stroke-width:0.000000; stroke-opacity:1;  stroke-linecap:round; stroke-linejoin:round;">
</g>
<g style="fill:#000000; fill-opacity:0.0;  stroke:#000000; stroke-width:0.000000; stroke-opacity:1;  stroke-linecap:round; stroke-linejoin:round;">
<g>
</g>
<g>
</g>
<g>
</g>
<g>
</g>
</g> 
<svg:g><svg:title>SVG Picture created as kicadBoard-B_Adhesive.svg date 2022/12/03 00:24:29 </svg:title>
  <svg:desc>Picture generated by PCBNEW </svg:desc>
<svg:g style="fill:#000000; fill-opacity:1.000000;stroke:#000000; stroke-opacity:1.000000; stroke-linecap:round; stroke-linejoin:round;" transform="translate(0 0) scale(1 1)">
</svg:g>
<svg:g style="fill:#000000; fill-opacity:0.0;  stroke:#000000; stroke-width:0.000000; stroke-opacity:1;  stroke-linecap:round; stroke-linejoin:round;">
<svg:g>
</svg:g>
<svg:g>
</svg:g>
<svg:g>
</svg:g>
<svg:g>
</svg:g>
</svg:g>
<svg:g style="fill:#000000; fill-opacity:0.0;  stroke:#000000; stroke-width:0.000000; stroke-opacity:1;  stroke-linecap:round; stroke-linejoin:round;">
<svg:g>
</svg:g>
<svg:g>
</svg:g>
<svg:g>
</svg:g>
<svg:g>
</svg:g>
</svg:g> 
</svg:g><svg:g><svg:title>SVG Picture created as kicadBoard-B_Courtyard.svg date 2022/12/03 00:24:29 </svg:title>
  <svg:desc>Picture generated by PCBNEW </svg:desc>
<svg:g style="fill:#000000; fill-opacity:1.000000;stroke:#000000; stroke-opacity:1.000000; stroke-linecap:round; stroke-linejoin:round;" transform="translate(0 0) scale(1 1)">
</svg:g>
<svg:g style="fill:#000000; fill-opacity:0.0;  stroke:#000000; stroke-width:0.000000; stroke-opacity:1;  stroke-linecap:round; stroke-linejoin:round;">
<svg:g>
</svg:g>
<svg:g>
</svg:g>
<svg:g>
</svg:g>
<svg:g>
</svg:g>
</svg:g>
<svg:g style="fill:#000000; fill-opacity:0.0;  stroke:#000000; stroke-width:0.000000; stroke-opacity:1;  stroke-linecap:round; stroke-linejoin:round;">
<svg:g>
</svg:g>
<svg:g>
</svg:g>
<svg:g>
</svg:g>
<svg:g>
</svg:g>
</svg:g> 
</svg:g><svg:g><svg:title>SVG Picture created as kicadBoard-B_Fab.svg date 2022/12/03 00:24:29 </svg:title>
  <svg:desc>Picture generated by PCBNEW </svg:desc>
<svg:g style="fill:#000000; fill-opacity:1.000000;stroke:#000000; stroke-opacity:1.000000; stroke-linecap:round; stroke-linejoin:round;" transform="translate(0 0) scale(1 1)">
</svg:g>
<svg:g style="fill:#000000; fill-opacity:0.0;  stroke:#000000; stroke-width:0.000000; stroke-opacity:1;  stroke-linecap:round; stroke-linejoin:round;">
<svg:g>
</svg:g>
<svg:g>
</svg:g>
<svg:g>
</svg:g>
<svg:g>
</svg:g>
</svg:g>
<svg:g style="fill:#000000; fill-opacity:0.0;  stroke:#000000; stroke-width:0.000000; stroke-opacity:1;  stroke-linecap:round; stroke-linejoin:round;">
<svg:g>
</svg:g>
<svg:g>
</svg:g>
<svg:g>
</svg:g>
<svg:g>
</svg:g>
</svg:g> 
</svg:g><svg:g><svg:title>SVG Picture created as kicadBoard-B_Mask.svg date 2022/12/03 00:24:29 </svg:title>
  <svg:desc>Picture generated by PCBNEW </svg:desc>
<svg:g style="fill:#000000; fill-opacity:1.000000;stroke:#000000; stroke-opacity:1.000000; stroke-linecap:round; stroke-linejoin:round;" transform="translate(0 0) scale(1 1)">
</svg:g>
<svg:g style="fill:#000000; fill-opacity:0.0;  stroke:#000000; stroke-width:0.000000; stroke-opacity:1;  stroke-linecap:round; stroke-linejoin:round;">
<svg:g>
</svg:g>
<svg:g>
</svg:g>
<svg:g>
</svg:g>
<svg:g>
</svg:g>
</svg:g>
<svg:g style="fill:#000000; fill-opacity:0.0;  stroke:#000000; stroke-width:0.000000; stroke-opacity:1;  stroke-linecap:round; stroke-linejoin:round;">
<svg:g>
</svg:g>
<svg:g>
</svg:g>
<svg:g>
</svg:g>
<svg:g>
</svg:g>
</svg:g> 
</svg:g><svg:g><svg:title>SVG Picture created as kicadBoard-B_Paste.svg date 2022/12/03 00:24:29 </svg:title>
  <svg:desc>Picture generated by PCBNEW </svg:desc>
<svg:g style="fill:#000000; fill-opacity:1.000000;stroke:#000000; stroke-opacity:1.000000; stroke-linecap:round; stroke-linejoin:round;" transform="translate(0 0) scale(1 1)">
</svg:g>
<svg:g style="fill:#000000; fill-opacity:0.0;  stroke:#000000; stroke-width:0.000000; stroke-opacity:1;  stroke-linecap:round; stroke-linejoin:round;">
<svg:g>
</svg:g>
<svg:g>
</svg:g>
<svg:g>
</svg:g>
<svg:g>
</svg:g>
</svg:g>
<svg:g style="fill:#000000; fill-opacity:0.0;  stroke:#000000; stroke-width:0.000000; stroke-opacity:1;  stroke-linecap:round; stroke-linejoin:round;">
<svg:g>
</svg:g>
<svg:g>
</svg:g>
<svg:g>
</svg:g>
<svg:g>
</svg:g>
</svg:g> 
</svg:g><svg:g><svg:title>SVG Picture created as kicadBoard-B_Silkscreen.svg date 2022/12/03 00:24:29 </svg:title>
  <svg:desc>Picture generated by PCBNEW </svg:desc>
<svg:g style="fill:#000000; fill-opacity:1.000000;stroke:#000000; stroke-opacity:1.000000; stroke-linecap:round; stroke-linejoin:round;" transform="translate(0 0) scale(1 1)">
</svg:g>
<svg:g style="fill:#000000; fill-opacity:0.0;  stroke:#000000; stroke-width:0.000000; stroke-opacity:1;  stroke-linecap:round; stroke-linejoin:round;">
<svg:g>
</svg:g>
<svg:g>
</svg:g>
<svg:g>
</svg:g>
<svg:g>
</svg:g>
</svg:g>
<svg:g style="fill:#000000; fill-opacity:0.0;  stroke:#000000; stroke-width:0.000000; stroke-opacity:1;  stroke-linecap:round; stroke-linejoin:round;">
<svg:g>
</svg:g>
<svg:g>
</svg:g>
<svg:g>
</svg:g>
<svg:g>
</svg:g>
</svg:g> 
</svg:g><svg:g><svg:title>SVG Picture created as kicadBoard-Edge_Cuts.svg date 2022/12/03 00:24:29 </svg:title>
  <svg:desc>Picture generated by PCBNEW </svg:desc>
<svg:g style="fill:#000000; fill-opacity:1.000000;stroke:#000000; stroke-opacity:1.000000; stroke-linecap:round; stroke-linejoin:round;" transform="translate(0 0) scale(1 1)">
</svg:g>
<svg:g style="fill:#000000; fill-opacity:0.0;  stroke:#000000; stroke-width:0.000000; stroke-opacity:1;  stroke-linecap:round; stroke-linejoin:round;">
<svg:g>
</svg:g>
<svg:g>
</svg:g>
<svg:g>
</svg:g>
<svg:g>
</svg:g>
</svg:g> 
</svg:g><svg:g><svg:title>SVG Picture created as kicadBoard-F_Adhesive.svg date 2022/12/03 00:24:29 </svg:title>
  <svg:desc>Picture generated by PCBNEW </svg:desc>
<svg:g style="fill:#000000; fill-opacity:1.000000;stroke:#000000; stroke-opacity:1.000000; stroke-linecap:round; stroke-linejoin:round;" transform="translate(0 0) scale(1 1)">
</svg:g>
<svg:g style="fill:#000000; fill-opacity:0.0;  stroke:#000000; stroke-width:0.000000; stroke-opacity:1;  stroke-linecap:round; stroke-linejoin:round;">
<svg:g>
</svg:g>
<svg:g>
</svg:g>
<svg:g>
</svg:g>
<svg:g>
</svg:g>
</svg:g>
<svg:g style="fill:#000000; fill-opacity:0.0;  stroke:#000000; stroke-width:0.000000; stroke-opacity:1;  stroke-linecap:round; stroke-linejoin:round;">
<svg:g>
</svg:g>
<svg:g>
</svg:g>
<svg:g>
</svg:g>
<svg:g>
</svg:g>
</svg:g> 
</svg:g><svg:g><svg:title>SVG Picture created as kicadBoard-F_Courtyard.svg date 2022/12/03 00:24:29 </svg:title>
  <svg:desc>Picture generated by PCBNEW </svg:desc>
<svg:g style="fill:#000000; fill-opacity:1.000000;stroke:#000000; stroke-opacity:1.000000; stroke-linecap:round; stroke-linejoin:round;" transform="translate(0 0) scale(1 1)">
</svg:g>
<svg:g style="fill:#000000; fill-opacity:0.0;  stroke:#000000; stroke-width:0.000000; stroke-opacity:1;  stroke-linecap:round; stroke-linejoin:round;">
<svg:g>
</svg:g>
<svg:g>
</svg:g>
<svg:g>
</svg:g>
<svg:g>
</svg:g>
</svg:g>
<svg:g style="fill:#000000; fill-opacity:0.0;  stroke:#000000; stroke-width:0.000000; stroke-opacity:1;  stroke-linecap:round; stroke-linejoin:round;">
<svg:g>
</svg:g>
<svg:g>
</svg:g>
<svg:g>
</svg:g>
<svg:g>
</svg:g>
</svg:g> 
</svg:g><svg:g><svg:title>SVG Picture created as kicadBoard-F_Cu.svg date 2022/12/03 00:24:29 </svg:title>
  <svg:desc>Picture generated by PCBNEW </svg:desc>
<svg:g style="fill:#000000; fill-opacity:1.000000;stroke:#000000; stroke-opacity:1.000000; stroke-linecap:round; stroke-linejoin:round;" transform="translate(0 0) scale(1 1)">
</svg:g>
<svg:g style="fill:#000000; fill-opacity:0.0;  stroke:#000000; stroke-width:0.000000; stroke-opacity:1;  stroke-linecap:round; stroke-linejoin:round;">
<svg:g>
</svg:g>
<svg:g style="fill:#C83434; fill-opacity:0.0;  stroke:#C83434; stroke-width:0.000000; stroke-opacity:1;  stroke-linecap:round; stroke-linejoin:round;">
</svg:g>
<svg:g style="fill:#C83434; fill-opacity:0.0;  stroke:#C83434; stroke-width:1.000000; stroke-opacity:1;  stroke-linecap:round; stroke-linejoin:round;">
</svg:g>
<svg:g style="fill:#C83434; fill-opacity:1.0;  stroke:#C83434; stroke-width:1.000000; stroke-opacity:1;  stroke-linecap:round; stroke-linejoin:round;">
<svg:path style="fill:#C83434; fill-opacity:1.0;  stroke:#C83434; stroke-width:1.000000; stroke-opacity:1;  stroke-linecap:round; stroke-linejoin:round;fill-rule:evenodd;" d="M 47975000.000000,48885000.000000 47977664.000000,48871606.000000 47985251.000000,48860251.000000 47996606.000000,48852664.000000 48010000.000000,48850000.000000 48640000.000000,48850000.000000 48653394.000000,48852664.000000 48664749.000000,48860251.000000 48672336.000000,48871606.000000 48675000.000000,48885000.000000 48675000.000000,49165000.000000 48672336.000000,49178394.000000 48664749.000000,49189749.000000 48653394.000000,49197336.000000 48640000.000000,49200000.000000 48010000.000000,49200000.000000 47996606.000000,49197336.000000 47985251.000000,49189749.000000 47977664.000000,49178394.000000 47975000.000000,49165000.000000 Z"/> 
<svg:path style="fill:#C83434; fill-opacity:1.0;  stroke:#C83434; stroke-width:1.000000; stroke-opacity:1;  stroke-linecap:round; stroke-linejoin:round;fill-rule:evenodd;" d="M 47975000.000000,49535000.000000 47977664.000000,49521606.000000 47985251.000000,49510251.000000 47996606.000000,49502664.000000 48010000.000000,49500000.000000 48640000.000000,49500000.000000 48653394.000000,49502664.000000 48664749.000000,49510251.000000 48672336.000000,49521606.000000 48675000.000000,49535000.000000 48675000.000000,49815000.000000 48672336.000000,49828394.000000 48664749.000000,49839749.000000 48653394.000000,49847336.000000 48640000.000000,49850000.000000 48010000.000000,49850000.000000 47996606.000000,49847336.000000 47985251.000000,49839749.000000 47977664.000000,49828394.000000 47975000.000000,49815000.000000 Z"/> 
<svg:path style="fill:#C83434; fill-opacity:1.0;  stroke:#C83434; stroke-width:1.000000; stroke-opacity:1;  stroke-linecap:round; stroke-linejoin:round;fill-rule:evenodd;" d="M 47975000.000000,50185000.000000 47977664.000000,50171606.000000 47985251.000000,50160251.000000 47996606.000000,50152664.000000 48010000.000000,50150000.000000 48640000.000000,50150000.000000 48653394.000000,50152664.000000 48664749.000000,50160251.000000 48672336.000000,50171606.000000 48675000.000000,50185000.000000 48675000.000000,50465000.000000 48672336.000000,50478394.000000 48664749.000000,50489749.000000 48653394.000000,50497336.000000 48640000.000000,50500000.000000 48010000.000000,50500000.000000 47996606.000000,50497336.000000 47985251.000000,50489749.000000 47977664.000000,50478394.000000 47975000.000000,50465000.000000 Z"/> 
<svg:path style="fill:#C83434; fill-opacity:1.0;  stroke:#C83434; stroke-width:1.000000; stroke-opacity:1;  stroke-linecap:round; stroke-linejoin:round;fill-rule:evenodd;" d="M 47975000.000000,50835000.000000 47977664.000000,50821606.000000 47985251.000000,50810251.000000 47996606.000000,50802664.000000 48010000.000000,50800000.000000 48640000.000000,50800000.000000 48653394.000000,50802664.000000 48664749.000000,50810251.000000 48672336.000000,50821606.000000 48675000.000000,50835000.000000 48675000.000000,51115000.000000 48672336.000000,51128394.000000 48664749.000000,51139749.000000 48653394.000000,51147336.000000 48640000.000000,51150000.000000 48010000.000000,51150000.000000 47996606.000000,51147336.000000 47985251.000000,51139749.000000 47977664.000000,51128394.000000 47975000.000000,51115000.000000 Z"/> 
<svg:path style="fill:#C83434; fill-opacity:1.0;  stroke:#C83434; stroke-width:1.000000; stroke-opacity:1;  stroke-linecap:round; stroke-linejoin:round;fill-rule:evenodd;" d="M 48850000.000000,51360000.000000 48852664.000000,51346606.000000 48860251.000000,51335251.000000 48871606.000000,51327664.000000 48885000.000000,51325000.000000 49165000.000000,51325000.000000 49178394.000000,51327664.000000 49189749.000000,51335251.000000 49197336.000000,51346606.000000 49200000.000000,51360000.000000 49200000.000000,51990000.000000 49197336.000000,52003394.000000 49189749.000000,52014749.000000 49178394.000000,52022336.000000 49165000.000000,52025000.000000 48885000.000000,52025000.000000 48871606.000000,52022336.000000 48860251.000000,52014749.000000 48852664.000000,52003394.000000 48850000.000000,51990000.000000 Z"/> 
<svg:path style="fill:#C83434; fill-opacity:1.0;  stroke:#C83434; stroke-width:1.000000; stroke-opacity:1;  stroke-linecap:round; stroke-linejoin:round;fill-rule:evenodd;" d="M 49500000.000000,51360000.000000 49502664.000000,51346606.000000 49510251.000000,51335251.000000 49521606.000000,51327664.000000 49535000.000000,51325000.000000 49815000.000000,51325000.000000 49828394.000000,51327664.000000 49839749.000000,51335251.000000 49847336.000000,51346606.000000 49850000.000000,51360000.000000 49850000.000000,51990000.000000 49847336.000000,52003394.000000 49839749.000000,52014749.000000 49828394.000000,52022336.000000 49815000.000000,52025000.000000 49535000.000000,52025000.000000 49521606.000000,52022336.000000 49510251.000000,52014749.000000 49502664.000000,52003394.000000 49500000.000000,51990000.000000 Z"/> 
<svg:path style="fill:#C83434; fill-opacity:1.0;  stroke:#C83434; stroke-width:1.000000; stroke-opacity:1;  stroke-linecap:round; stroke-linejoin:round;fill-rule:evenodd;" d="M 50150000.000000,51360000.000000 50152664.000000,51346606.000000 50160251.000000,51335251.000000 50171606.000000,51327664.000000 50185000.000000,51325000.000000 50465000.000000,51325000.000000 50478394.000000,51327664.000000 50489749.000000,51335251.000000 50497336.000000,51346606.000000 50500000.000000,51360000.000000 50500000.000000,51990000.000000 50497336.000000,52003394.000000 50489749.000000,52014749.000000 50478394.000000,52022336.000000 50465000.000000,52025000.000000 50185000.000000,52025000.000000 50171606.000000,52022336.000000 50160251.000000,52014749.000000 50152664.000000,52003394.000000 50150000.000000,51990000.000000 Z"/> 
<svg:path style="fill:#C83434; fill-opacity:1.0;  stroke:#C83434; stroke-width:1.000000; stroke-opacity:1;  stroke-linecap:round; stroke-linejoin:round;fill-rule:evenodd;" d="M 50800000.000000,51360000.000000 50802664.000000,51346606.000000 50810251.000000,51335251.000000 50821606.000000,51327664.000000 50835000.000000,51325000.000000 51115000.000000,51325000.000000 51128394.000000,51327664.000000 51139749.000000,51335251.000000 51147336.000000,51346606.000000 51150000.000000,51360000.000000 51150000.000000,51990000.000000 51147336.000000,52003394.000000 51139749.000000,52014749.000000 51128394.000000,52022336.000000 51115000.000000,52025000.000000 50835000.000000,52025000.000000 50821606.000000,52022336.000000 50810251.000000,52014749.000000 50802664.000000,52003394.000000 50800000.000000,51990000.000000 Z"/> 
<svg:path style="fill:#C83434; fill-opacity:1.0;  stroke:#C83434; stroke-width:1.000000; stroke-opacity:1;  stroke-linecap:round; stroke-linejoin:round;fill-rule:evenodd;" d="M 51325000.000000,50835000.000000 51327664.000000,50821606.000000 51335251.000000,50810251.000000 51346606.000000,50802664.000000 51360000.000000,50800000.000000 51990000.000000,50800000.000000 52003394.000000,50802664.000000 52014749.000000,50810251.000000 52022336.000000,50821606.000000 52025000.000000,50835000.000000 52025000.000000,51115000.000000 52022336.000000,51128394.000000 52014749.000000,51139749.000000 52003394.000000,51147336.000000 51990000.000000,51150000.000000 51360000.000000,51150000.000000 51346606.000000,51147336.000000 51335251.000000,51139749.000000 51327664.000000,51128394.000000 51325000.000000,51115000.000000 Z"/> 
<svg:path style="fill:#C83434; fill-opacity:1.0;  stroke:#C83434; stroke-width:1.000000; stroke-opacity:1;  stroke-linecap:round; stroke-linejoin:round;fill-rule:evenodd;" d="M 51325000.000000,50185000.000000 51327664.000000,50171606.000000 51335251.000000,50160251.000000 51346606.000000,50152664.000000 51360000.000000,50150000.000000 51990000.000000,50150000.000000 52003394.000000,50152664.000000 52014749.000000,50160251.000000 52022336.000000,50171606.000000 52025000.000000,50185000.000000 52025000.000000,50465000.000000 52022336.000000,50478394.000000 52014749.000000,50489749.000000 52003394.000000,50497336.000000 51990000.000000,50500000.000000 51360000.000000,50500000.000000 51346606.000000,50497336.000000 51335251.000000,50489749.000000 51327664.000000,50478394.000000 51325000.000000,50465000.000000 Z"/> 
<svg:path style="fill:#C83434; fill-opacity:1.0;  stroke:#C83434; stroke-width:1.000000; stroke-opacity:1;  stroke-linecap:round; stroke-linejoin:round;fill-rule:evenodd;" d="M 51325000.000000,49535000.000000 51327664.000000,49521606.000000 51335251.000000,49510251.000000 51346606.000000,49502664.000000 51360000.000000,49500000.000000 51990000.000000,49500000.000000 52003394.000000,49502664.000000 52014749.000000,49510251.000000 52022336.000000,49521606.000000 52025000.000000,49535000.000000 52025000.000000,49815000.000000 52022336.000000,49828394.000000 52014749.000000,49839749.000000 52003394.000000,49847336.000000 51990000.000000,49850000.000000 51360000.000000,49850000.000000 51346606.000000,49847336.000000 51335251.000000,49839749.000000 51327664.000000,49828394.000000 51325000.000000,49815000.000000 Z"/> 
<svg:path style="fill:#C83434; fill-opacity:1.0;  stroke:#C83434; stroke-width:1.000000; stroke-opacity:1;  stroke-linecap:round; stroke-linejoin:round;fill-rule:evenodd;" d="M 51325000.000000,48885000.000000 51327664.000000,48871606.000000 51335251.000000,48860251.000000 51346606.000000,48852664.000000 51360000.000000,48850000.000000 51990000.000000,48850000.000000 52003394.000000,48852664.000000 52014749.000000,48860251.000000 52022336.000000,48871606.000000 52025000.000000,48885000.000000 52025000.000000,49165000.000000 52022336.000000,49178394.000000 52014749.000000,49189749.000000 52003394.000000,49197336.000000 51990000.000000,49200000.000000 51360000.000000,49200000.000000 51346606.000000,49197336.000000 51335251.000000,49189749.000000 51327664.000000,49178394.000000 51325000.000000,49165000.000000 Z"/> 
<svg:path style="fill:#C83434; fill-opacity:1.0;  stroke:#C83434; stroke-width:1.000000; stroke-opacity:1;  stroke-linecap:round; stroke-linejoin:round;fill-rule:evenodd;" d="M 50800000.000000,48010000.000000 50802664.000000,47996606.000000 50810251.000000,47985251.000000 50821606.000000,47977664.000000 50835000.000000,47975000.000000 51115000.000000,47975000.000000 51128394.000000,47977664.000000 51139749.000000,47985251.000000 51147336.000000,47996606.000000 51150000.000000,48010000.000000 51150000.000000,48640000.000000 51147336.000000,48653394.000000 51139749.000000,48664749.000000 51128394.000000,48672336.000000 51115000.000000,48675000.000000 50835000.000000,48675000.000000 50821606.000000,48672336.000000 50810251.000000,48664749.000000 50802664.000000,48653394.000000 50800000.000000,48640000.000000 Z"/> 
<svg:path style="fill:#C83434; fill-opacity:1.0;  stroke:#C83434; stroke-width:1.000000; stroke-opacity:1;  stroke-linecap:round; stroke-linejoin:round;fill-rule:evenodd;" d="M 50150000.000000,48010000.000000 50152664.000000,47996606.000000 50160251.000000,47985251.000000 50171606.000000,47977664.000000 50185000.000000,47975000.000000 50465000.000000,47975000.000000 50478394.000000,47977664.000000 50489749.000000,47985251.000000 50497336.000000,47996606.000000 50500000.000000,48010000.000000 50500000.000000,48640000.000000 50497336.000000,48653394.000000 50489749.000000,48664749.000000 50478394.000000,48672336.000000 50465000.000000,48675000.000000 50185000.000000,48675000.000000 50171606.000000,48672336.000000 50160251.000000,48664749.000000 50152664.000000,48653394.000000 50150000.000000,48640000.000000 Z"/> 
<svg:path style="fill:#C83434; fill-opacity:1.0;  stroke:#C83434; stroke-width:1.000000; stroke-opacity:1;  stroke-linecap:round; stroke-linejoin:round;fill-rule:evenodd;" d="M 49500000.000000,48010000.000000 49502664.000000,47996606.000000 49510251.000000,47985251.000000 49521606.000000,47977664.000000 49535000.000000,47975000.000000 49815000.000000,47975000.000000 49828394.000000,47977664.000000 49839749.000000,47985251.000000 49847336.000000,47996606.000000 49850000.000000,48010000.000000 49850000.000000,48640000.000000 49847336.000000,48653394.000000 49839749.000000,48664749.000000 49828394.000000,48672336.000000 49815000.000000,48675000.000000 49535000.000000,48675000.000000 49521606.000000,48672336.000000 49510251.000000,48664749.000000 49502664.000000,48653394.000000 49500000.000000,48640000.000000 Z"/> 
<svg:path style="fill:#C83434; fill-opacity:1.0;  stroke:#C83434; stroke-width:1.000000; stroke-opacity:1;  stroke-linecap:round; stroke-linejoin:round;fill-rule:evenodd;" d="M 48850000.000000,48010000.000000 48852664.000000,47996606.000000 48860251.000000,47985251.000000 48871606.000000,47977664.000000 48885000.000000,47975000.000000 49165000.000000,47975000.000000 49178394.000000,47977664.000000 49189749.000000,47985251.000000 49197336.000000,47996606.000000 49200000.000000,48010000.000000 49200000.000000,48640000.000000 49197336.000000,48653394.000000 49189749.000000,48664749.000000 49178394.000000,48672336.000000 49165000.000000,48675000.000000 48885000.000000,48675000.000000 48871606.000000,48672336.000000 48860251.000000,48664749.000000 48852664.000000,48653394.000000 48850000.000000,48640000.000000 Z"/> 
<svg:path style="fill:#C83434; fill-opacity:1.0;  stroke:#C83434; stroke-width:1.000000; stroke-opacity:1;  stroke-linecap:round; stroke-linejoin:round;fill-rule:evenodd;" d="M 48950000.000000,49160000.000000 48965985.000000,49079636.000000 49011508.000000,49011508.000000 49079636.000000,48965985.000000 49160000.000000,48950000.000000 50840000.000000,48950000.000000 50920364.000000,48965985.000000 50988492.000000,49011508.000000 51034015.000000,49079636.000000 51050000.000000,49160000.000000 51050000.000000,50840000.000000 51034015.000000,50920364.000000 50988492.000000,50988492.000000 50920364.000000,51034015.000000 50840000.000000,51050000.000000 49160000.000000,51050000.000000 49079636.000000,51034015.000000 49011508.000000,50988492.000000 48965985.000000,50920364.000000 48950000.000000,50840000.000000 Z"/> 
</svg:g>
<svg:g>
</svg:g>
<svg:g>
</svg:g>
<svg:g>
</svg:g>
</svg:g>
<svg:g style="fill:#FFFFFF; fill-opacity:1.0;  stroke:#FFFFFF; stroke-width:1.000000; stroke-opacity:1;  stroke-linecap:round; stroke-linejoin:round;">
</svg:g>
<svg:g style="fill:#000000; fill-opacity:1.0;  stroke:#000000; stroke-width:1.000000; stroke-opacity:1;  stroke-linecap:round; stroke-linejoin:round;">
<svg:g>
</svg:g>
<svg:g>
</svg:g>
<svg:g>
</svg:g>
<svg:g>
</svg:g>
</svg:g> 
</svg:g><svg:g><svg:title>SVG Picture created as kicadBoard-F_Fab.svg date 2022/12/03 00:24:29 </svg:title>
  <svg:desc>Picture generated by PCBNEW </svg:desc>
<svg:g style="fill:#000000; fill-opacity:1.000000;stroke:#000000; stroke-opacity:1.000000; stroke-linecap:round; stroke-linejoin:round;" transform="translate(0 0) scale(1 1)">
</svg:g>
<svg:g style="fill:#000000; fill-opacity:0.0;  stroke:#000000; stroke-width:0.000000; stroke-opacity:1;  stroke-linecap:round; stroke-linejoin:round;">
</svg:g>
<svg:g style="fill:#AFAFAF; fill-opacity:0.0;  stroke:#AFAFAF; stroke-width:0.000000; stroke-opacity:1;  stroke-linecap:round; stroke-linejoin:round;">
</svg:g>
<svg:g style="fill:#AFAFAF; fill-opacity:0.0;  stroke:#AFAFAF; stroke-width:101600.000000; stroke-opacity:1;  stroke-linecap:round; stroke-linejoin:round;">
<svg:text x="48000000.000000" y="53905000.000000" textLength="6808651.000000" font-size="1557866.000000" lengthAdjust="spacingAndGlyphs" text-anchor="start" opacity="0">&gt;VALUE</svg:text>
<svg:g class="stroked-text"><svg:desc>&gt;VALUE</svg:desc>
<svg:path d="M48344230 53070428 L49234440 53404257 L48344230 53738085 "/>
<svg:path d="M49623906 52680961 L50013373 53849361 L50402840 52680961 "/>
<svg:path d="M50736668 53515533 L51293049 53515533 "/>
<svg:path d="M50625392 53849361 L51014859 52680961 L51404325 53849361 "/>
<svg:path d="M52350173 53849361 L51793792 53849361 L51793792 52680961 "/>
<svg:path d="M52739640 52680961 L52739640 53626809 L52795278 53738085 L52850916 53793723 L52962192 53849361 L53184744 53849361 L53296020 53793723 L53351659 53738085 L53407297 53626809 L53407297 52680961 "/>
<svg:path d="M53963678 53237342 L54353144 53237342 "/>
<svg:path d="M54520059 53849361 L53963678 53849361 L53963678 52680961 L54520059 52680961 "/>
</svg:g></svg:g>
<svg:g style="fill:#AFAFAF; fill-opacity:0.0;  stroke:#AFAFAF; stroke-width:203200.000000; stroke-opacity:1;  stroke-linecap:round; stroke-linejoin:round;">
<svg:path d="M48101600 48600000 L48101600 51400000 "/>
<svg:path d="M51898400 51400000 L51898400 48600000 "/>
<svg:path d="M48600000 51898400 L51400000 51898400 "/>
<svg:path d="M51400000 48101600 L48600000 48101600 "/>
</svg:g>
<svg:g style="fill:#AFAFAF; fill-opacity:1.0;  stroke:#AFAFAF; stroke-width:1.000000; stroke-opacity:1;  stroke-linecap:round; stroke-linejoin:round;">
<svg:circle cx="49000000.000000" cy="49000000.000000" r="275000.000000"/> 
<svg:g>
</svg:g>
<svg:g>
</svg:g>
<svg:g>
</svg:g>
<svg:g>
</svg:g>
</svg:g>
<svg:g style="fill:#000000; fill-opacity:1.0;  stroke:#000000; stroke-width:1.000000; stroke-opacity:1;  stroke-linecap:round; stroke-linejoin:round;">
<svg:g>
</svg:g>
<svg:g>
</svg:g>
<svg:g>
</svg:g>
<svg:g>
</svg:g>
</svg:g> 
</svg:g><svg:g><svg:title>SVG Picture created as kicadBoard-F_Mask.svg date 2022/12/03 00:24:29 </svg:title>
  <svg:desc>Picture generated by PCBNEW </svg:desc>
<svg:g style="fill:#000000; fill-opacity:1.000000;stroke:#000000; stroke-opacity:1.000000; stroke-linecap:round; stroke-linejoin:round;" transform="translate(0 0) scale(1 1)">
</svg:g>
<svg:g style="fill:#000000; fill-opacity:0.0;  stroke:#000000; stroke-width:0.000000; stroke-opacity:1;  stroke-linecap:round; stroke-linejoin:round;">
</svg:g>
<svg:g style="fill:#D864FF; fill-opacity:0.0;  stroke:#D864FF; stroke-width:0.000000; stroke-opacity:1;  stroke-linecap:round; stroke-linejoin:round;">
</svg:g>
<svg:g style="fill:#D864FF; fill-opacity:1.0;  stroke:#D864FF; stroke-width:1.000000; stroke-opacity:1;  stroke-linecap:round; stroke-linejoin:round;">
<svg:path style="fill:#D864FF; fill-opacity:1.0;  stroke:#D864FF; stroke-width:1.000000; stroke-opacity:1;  stroke-linecap:round; stroke-linejoin:round;fill-rule:evenodd;" d="M 51050000.000000,51050000.000000 48950000.000000,51050000.000000 48950000.000000,48950000.000000 51050000.000000,48950000.000000 Z"/> 
<svg:path style="fill:#D864FF; fill-opacity:1.0;  stroke:#D864FF; stroke-width:1.000000; stroke-opacity:1;  stroke-linecap:round; stroke-linejoin:round;fill-rule:evenodd;" d="M 49875000.000000,52050000.000000 49475000.000000,52050000.000000 49475000.000000,51300000.000000 49875000.000000,51300000.000000 Z"/> 
<svg:path style="fill:#D864FF; fill-opacity:1.0;  stroke:#D864FF; stroke-width:1.000000; stroke-opacity:1;  stroke-linecap:round; stroke-linejoin:round;fill-rule:evenodd;" d="M 49875000.000000,48700000.000000 49475000.000000,48700000.000000 49475000.000000,47950000.000000 49875000.000000,47950000.000000 Z"/> 
<svg:path style="fill:#D864FF; fill-opacity:1.0;  stroke:#D864FF; stroke-width:1.000000; stroke-opacity:1;  stroke-linecap:round; stroke-linejoin:round;fill-rule:evenodd;" d="M 49225000.000000,48700000.000000 48825000.000000,48700000.000000 48825000.000000,47950000.000000 49225000.000000,47950000.000000 Z"/> 
<svg:path style="fill:#D864FF; fill-opacity:1.0;  stroke:#D864FF; stroke-width:1.000000; stroke-opacity:1;  stroke-linecap:round; stroke-linejoin:round;fill-rule:evenodd;" d="M 48700000.000000,49875000.000000 47950000.000000,49875000.000000 47950000.000000,49475000.000000 48700000.000000,49475000.000000 Z"/> 
<svg:path style="fill:#D864FF; fill-opacity:1.0;  stroke:#D864FF; stroke-width:1.000000; stroke-opacity:1;  stroke-linecap:round; stroke-linejoin:round;fill-rule:evenodd;" d="M 52050000.000000,49225000.000000 51300000.000000,49225000.000000 51300000.000000,48825000.000000 52050000.000000,48825000.000000 Z"/> 
<svg:path style="fill:#D864FF; fill-opacity:1.0;  stroke:#D864FF; stroke-width:1.000000; stroke-opacity:1;  stroke-linecap:round; stroke-linejoin:round;fill-rule:evenodd;" d="M 52050000.000000,49875000.000000 51300000.000000,49875000.000000 51300000.000000,49475000.000000 52050000.000000,49475000.000000 Z"/> 
<svg:path style="fill:#D864FF; fill-opacity:1.0;  stroke:#D864FF; stroke-width:1.000000; stroke-opacity:1;  stroke-linecap:round; stroke-linejoin:round;fill-rule:evenodd;" d="M 50525000.000000,52050000.000000 50125000.000000,52050000.000000 50125000.000000,51300000.000000 50525000.000000,51300000.000000 Z"/> 
<svg:path style="fill:#D864FF; fill-opacity:1.0;  stroke:#D864FF; stroke-width:1.000000; stroke-opacity:1;  stroke-linecap:round; stroke-linejoin:round;fill-rule:evenodd;" d="M 50525000.000000,48700000.000000 50125000.000000,48700000.000000 50125000.000000,47950000.000000 50525000.000000,47950000.000000 Z"/> 
<svg:path style="fill:#D864FF; fill-opacity:1.0;  stroke:#D864FF; stroke-width:1.000000; stroke-opacity:1;  stroke-linecap:round; stroke-linejoin:round;fill-rule:evenodd;" d="M 48700000.000000,49225000.000000 47950000.000000,49225000.000000 47950000.000000,48825000.000000 48700000.000000,48825000.000000 Z"/> 
<svg:path style="fill:#D864FF; fill-opacity:1.0;  stroke:#D864FF; stroke-width:1.000000; stroke-opacity:1;  stroke-linecap:round; stroke-linejoin:round;fill-rule:evenodd;" d="M 52050000.000000,50525000.000000 51300000.000000,50525000.000000 51300000.000000,50125000.000000 52050000.000000,50125000.000000 Z"/> 
<svg:path style="fill:#D864FF; fill-opacity:1.0;  stroke:#D864FF; stroke-width:1.000000; stroke-opacity:1;  stroke-linecap:round; stroke-linejoin:round;fill-rule:evenodd;" d="M 51175000.000000,52050000.000000 50775000.000000,52050000.000000 50775000.000000,51300000.000000 51175000.000000,51300000.000000 Z"/> 
<svg:path style="fill:#D864FF; fill-opacity:1.0;  stroke:#D864FF; stroke-width:1.000000; stroke-opacity:1;  stroke-linecap:round; stroke-linejoin:round;fill-rule:evenodd;" d="M 52050000.000000,51175000.000000 51300000.000000,51175000.000000 51300000.000000,50775000.000000 52050000.000000,50775000.000000 Z"/> 
<svg:path style="fill:#D864FF; fill-opacity:1.0;  stroke:#D864FF; stroke-width:1.000000; stroke-opacity:1;  stroke-linecap:round; stroke-linejoin:round;fill-rule:evenodd;" d="M 48700000.000000,50525000.000000 47950000.000000,50525000.000000 47950000.000000,50125000.000000 48700000.000000,50125000.000000 Z"/> 
<svg:path style="fill:#D864FF; fill-opacity:1.0;  stroke:#D864FF; stroke-width:1.000000; stroke-opacity:1;  stroke-linecap:round; stroke-linejoin:round;fill-rule:evenodd;" d="M 51175000.000000,48700000.000000 50775000.000000,48700000.000000 50775000.000000,47950000.000000 51175000.000000,47950000.000000 Z"/> 
<svg:path style="fill:#D864FF; fill-opacity:1.0;  stroke:#D864FF; stroke-width:1.000000; stroke-opacity:1;  stroke-linecap:round; stroke-linejoin:round;fill-rule:evenodd;" d="M 48700000.000000,51175000.000000 47950000.000000,51175000.000000 47950000.000000,50775000.000000 48700000.000000,50775000.000000 Z"/> 
<svg:path style="fill:#D864FF; fill-opacity:1.0;  stroke:#D864FF; stroke-width:1.000000; stroke-opacity:1;  stroke-linecap:round; stroke-linejoin:round;fill-rule:evenodd;" d="M 49225000.000000,52050000.000000 48825000.000000,52050000.000000 48825000.000000,51300000.000000 49225000.000000,51300000.000000 Z"/> 
<svg:g>
</svg:g>
<svg:g>
</svg:g>
<svg:g>
</svg:g>
<svg:g>
</svg:g>
</svg:g>
<svg:g style="fill:#000000; fill-opacity:1.0;  stroke:#000000; stroke-width:1.000000; stroke-opacity:1;  stroke-linecap:round; stroke-linejoin:round;">
<svg:g>
</svg:g>
<svg:g>
</svg:g>
<svg:g>
</svg:g>
<svg:g>
</svg:g>
</svg:g> 
</svg:g><svg:g><svg:title>SVG Picture created as kicadBoard-F_Paste.svg date 2022/12/03 00:24:29 </svg:title>
  <svg:desc>Picture generated by PCBNEW </svg:desc>
<svg:g style="fill:#000000; fill-opacity:1.000000;stroke:#000000; stroke-opacity:1.000000; stroke-linecap:round; stroke-linejoin:round;" transform="translate(0 0) scale(1 1)">
</svg:g>
<svg:g style="fill:#000000; fill-opacity:0.0;  stroke:#000000; stroke-width:0.000000; stroke-opacity:1;  stroke-linecap:round; stroke-linejoin:round;">
</svg:g>
<svg:g style="fill:#B4A09A; fill-opacity:0.0;  stroke:#B4A09A; stroke-width:0.000000; stroke-opacity:1;  stroke-linecap:round; stroke-linejoin:round;">
</svg:g>
<svg:g style="fill:#B4A09A; fill-opacity:1.0;  stroke:#B4A09A; stroke-width:1.000000; stroke-opacity:1;  stroke-linecap:round; stroke-linejoin:round;">
<svg:path style="fill:#B4A09A; fill-opacity:1.0;  stroke:#B4A09A; stroke-width:1.000000; stroke-opacity:1;  stroke-linecap:round; stroke-linejoin:round;fill-rule:evenodd;" d="M 50975000.000000,50975000.000000 49025000.000000,50975000.000000 49025000.000000,49025000.000000 50975000.000000,49025000.000000 Z"/> 
<svg:g>
</svg:g>
<svg:g style="fill:#000000; fill-opacity:1.0;  stroke:#000000; stroke-width:1.000000; stroke-opacity:1;  stroke-linecap:round; stroke-linejoin:round;">
<svg:path style="fill:#000000; fill-opacity:1.0;  stroke:#000000; stroke-width:1.000000; stroke-opacity:1;  stroke-linecap:round; stroke-linejoin:round;fill-rule:evenodd;" d="M 47975000.000000,48885000.000000 47977664.000000,48871606.000000 47985251.000000,48860251.000000 47996606.000000,48852664.000000 48010000.000000,48850000.000000 48640000.000000,48850000.000000 48653394.000000,48852664.000000 48664749.000000,48860251.000000 48672336.000000,48871606.000000 48675000.000000,48885000.000000 48675000.000000,49165000.000000 48672336.000000,49178394.000000 48664749.000000,49189749.000000 48653394.000000,49197336.000000 48640000.000000,49200000.000000 48010000.000000,49200000.000000 47996606.000000,49197336.000000 47985251.000000,49189749.000000 47977664.000000,49178394.000000 47975000.000000,49165000.000000 Z"/> 
<svg:path style="fill:#000000; fill-opacity:1.0;  stroke:#000000; stroke-width:1.000000; stroke-opacity:1;  stroke-linecap:round; stroke-linejoin:round;fill-rule:evenodd;" d="M 47975000.000000,49535000.000000 47977664.000000,49521606.000000 47985251.000000,49510251.000000 47996606.000000,49502664.000000 48010000.000000,49500000.000000 48640000.000000,49500000.000000 48653394.000000,49502664.000000 48664749.000000,49510251.000000 48672336.000000,49521606.000000 48675000.000000,49535000.000000 48675000.000000,49815000.000000 48672336.000000,49828394.000000 48664749.000000,49839749.000000 48653394.000000,49847336.000000 48640000.000000,49850000.000000 48010000.000000,49850000.000000 47996606.000000,49847336.000000 47985251.000000,49839749.000000 47977664.000000,49828394.000000 47975000.000000,49815000.000000 Z"/> 
<svg:path style="fill:#000000; fill-opacity:1.0;  stroke:#000000; stroke-width:1.000000; stroke-opacity:1;  stroke-linecap:round; stroke-linejoin:round;fill-rule:evenodd;" d="M 47975000.000000,50185000.000000 47977664.000000,50171606.000000 47985251.000000,50160251.000000 47996606.000000,50152664.000000 48010000.000000,50150000.000000 48640000.000000,50150000.000000 48653394.000000,50152664.000000 48664749.000000,50160251.000000 48672336.000000,50171606.000000 48675000.000000,50185000.000000 48675000.000000,50465000.000000 48672336.000000,50478394.000000 48664749.000000,50489749.000000 48653394.000000,50497336.000000 48640000.000000,50500000.000000 48010000.000000,50500000.000000 47996606.000000,50497336.000000 47985251.000000,50489749.000000 47977664.000000,50478394.000000 47975000.000000,50465000.000000 Z"/> 
<svg:path style="fill:#000000; fill-opacity:1.0;  stroke:#000000; stroke-width:1.000000; stroke-opacity:1;  stroke-linecap:round; stroke-linejoin:round;fill-rule:evenodd;" d="M 47975000.000000,50835000.000000 47977664.000000,50821606.000000 47985251.000000,50810251.000000 47996606.000000,50802664.000000 48010000.000000,50800000.000000 48640000.000000,50800000.000000 48653394.000000,50802664.000000 48664749.000000,50810251.000000 48672336.000000,50821606.000000 48675000.000000,50835000.000000 48675000.000000,51115000.000000 48672336.000000,51128394.000000 48664749.000000,51139749.000000 48653394.000000,51147336.000000 48640000.000000,51150000.000000 48010000.000000,51150000.000000 47996606.000000,51147336.000000 47985251.000000,51139749.000000 47977664.000000,51128394.000000 47975000.000000,51115000.000000 Z"/> 
<svg:path style="fill:#000000; fill-opacity:1.0;  stroke:#000000; stroke-width:1.000000; stroke-opacity:1;  stroke-linecap:round; stroke-linejoin:round;fill-rule:evenodd;" d="M 48850000.000000,51360000.000000 48852664.000000,51346606.000000 48860251.000000,51335251.000000 48871606.000000,51327664.000000 48885000.000000,51325000.000000 49165000.000000,51325000.000000 49178394.000000,51327664.000000 49189749.000000,51335251.000000 49197336.000000,51346606.000000 49200000.000000,51360000.000000 49200000.000000,51990000.000000 49197336.000000,52003394.000000 49189749.000000,52014749.000000 49178394.000000,52022336.000000 49165000.000000,52025000.000000 48885000.000000,52025000.000000 48871606.000000,52022336.000000 48860251.000000,52014749.000000 48852664.000000,52003394.000000 48850000.000000,51990000.000000 Z"/> 
<svg:path style="fill:#000000; fill-opacity:1.0;  stroke:#000000; stroke-width:1.000000; stroke-opacity:1;  stroke-linecap:round; stroke-linejoin:round;fill-rule:evenodd;" d="M 49500000.000000,51360000.000000 49502664.000000,51346606.000000 49510251.000000,51335251.000000 49521606.000000,51327664.000000 49535000.000000,51325000.000000 49815000.000000,51325000.000000 49828394.000000,51327664.000000 49839749.000000,51335251.000000 49847336.000000,51346606.000000 49850000.000000,51360000.000000 49850000.000000,51990000.000000 49847336.000000,52003394.000000 49839749.000000,52014749.000000 49828394.000000,52022336.000000 49815000.000000,52025000.000000 49535000.000000,52025000.000000 49521606.000000,52022336.000000 49510251.000000,52014749.000000 49502664.000000,52003394.000000 49500000.000000,51990000.000000 Z"/> 
<svg:path style="fill:#000000; fill-opacity:1.0;  stroke:#000000; stroke-width:1.000000; stroke-opacity:1;  stroke-linecap:round; stroke-linejoin:round;fill-rule:evenodd;" d="M 50150000.000000,51360000.000000 50152664.000000,51346606.000000 50160251.000000,51335251.000000 50171606.000000,51327664.000000 50185000.000000,51325000.000000 50465000.000000,51325000.000000 50478394.000000,51327664.000000 50489749.000000,51335251.000000 50497336.000000,51346606.000000 50500000.000000,51360000.000000 50500000.000000,51990000.000000 50497336.000000,52003394.000000 50489749.000000,52014749.000000 50478394.000000,52022336.000000 50465000.000000,52025000.000000 50185000.000000,52025000.000000 50171606.000000,52022336.000000 50160251.000000,52014749.000000 50152664.000000,52003394.000000 50150000.000000,51990000.000000 Z"/> 
<svg:path style="fill:#000000; fill-opacity:1.0;  stroke:#000000; stroke-width:1.000000; stroke-opacity:1;  stroke-linecap:round; stroke-linejoin:round;fill-rule:evenodd;" d="M 50800000.000000,51360000.000000 50802664.000000,51346606.000000 50810251.000000,51335251.000000 50821606.000000,51327664.000000 50835000.000000,51325000.000000 51115000.000000,51325000.000000 51128394.000000,51327664.000000 51139749.000000,51335251.000000 51147336.000000,51346606.000000 51150000.000000,51360000.000000 51150000.000000,51990000.000000 51147336.000000,52003394.000000 51139749.000000,52014749.000000 51128394.000000,52022336.000000 51115000.000000,52025000.000000 50835000.000000,52025000.000000 50821606.000000,52022336.000000 50810251.000000,52014749.000000 50802664.000000,52003394.000000 50800000.000000,51990000.000000 Z"/> 
<svg:path style="fill:#000000; fill-opacity:1.0;  stroke:#000000; stroke-width:1.000000; stroke-opacity:1;  stroke-linecap:round; stroke-linejoin:round;fill-rule:evenodd;" d="M 51325000.000000,50835000.000000 51327664.000000,50821606.000000 51335251.000000,50810251.000000 51346606.000000,50802664.000000 51360000.000000,50800000.000000 51990000.000000,50800000.000000 52003394.000000,50802664.000000 52014749.000000,50810251.000000 52022336.000000,50821606.000000 52025000.000000,50835000.000000 52025000.000000,51115000.000000 52022336.000000,51128394.000000 52014749.000000,51139749.000000 52003394.000000,51147336.000000 51990000.000000,51150000.000000 51360000.000000,51150000.000000 51346606.000000,51147336.000000 51335251.000000,51139749.000000 51327664.000000,51128394.000000 51325000.000000,51115000.000000 Z"/> 
<svg:path style="fill:#000000; fill-opacity:1.0;  stroke:#000000; stroke-width:1.000000; stroke-opacity:1;  stroke-linecap:round; stroke-linejoin:round;fill-rule:evenodd;" d="M 51325000.000000,50185000.000000 51327664.000000,50171606.000000 51335251.000000,50160251.000000 51346606.000000,50152664.000000 51360000.000000,50150000.000000 51990000.000000,50150000.000000 52003394.000000,50152664.000000 52014749.000000,50160251.000000 52022336.000000,50171606.000000 52025000.000000,50185000.000000 52025000.000000,50465000.000000 52022336.000000,50478394.000000 52014749.000000,50489749.000000 52003394.000000,50497336.000000 51990000.000000,50500000.000000 51360000.000000,50500000.000000 51346606.000000,50497336.000000 51335251.000000,50489749.000000 51327664.000000,50478394.000000 51325000.000000,50465000.000000 Z"/> 
<svg:path style="fill:#000000; fill-opacity:1.0;  stroke:#000000; stroke-width:1.000000; stroke-opacity:1;  stroke-linecap:round; stroke-linejoin:round;fill-rule:evenodd;" d="M 51325000.000000,49535000.000000 51327664.000000,49521606.000000 51335251.000000,49510251.000000 51346606.000000,49502664.000000 51360000.000000,49500000.000000 51990000.000000,49500000.000000 52003394.000000,49502664.000000 52014749.000000,49510251.000000 52022336.000000,49521606.000000 52025000.000000,49535000.000000 52025000.000000,49815000.000000 52022336.000000,49828394.000000 52014749.000000,49839749.000000 52003394.000000,49847336.000000 51990000.000000,49850000.000000 51360000.000000,49850000.000000 51346606.000000,49847336.000000 51335251.000000,49839749.000000 51327664.000000,49828394.000000 51325000.000000,49815000.000000 Z"/> 
<svg:path style="fill:#000000; fill-opacity:1.0;  stroke:#000000; stroke-width:1.000000; stroke-opacity:1;  stroke-linecap:round; stroke-linejoin:round;fill-rule:evenodd;" d="M 51325000.000000,48885000.000000 51327664.000000,48871606.000000 51335251.000000,48860251.000000 51346606.000000,48852664.000000 51360000.000000,48850000.000000 51990000.000000,48850000.000000 52003394.000000,48852664.000000 52014749.000000,48860251.000000 52022336.000000,48871606.000000 52025000.000000,48885000.000000 52025000.000000,49165000.000000 52022336.000000,49178394.000000 52014749.000000,49189749.000000 52003394.000000,49197336.000000 51990000.000000,49200000.000000 51360000.000000,49200000.000000 51346606.000000,49197336.000000 51335251.000000,49189749.000000 51327664.000000,49178394.000000 51325000.000000,49165000.000000 Z"/> 
<svg:path style="fill:#000000; fill-opacity:1.0;  stroke:#000000; stroke-width:1.000000; stroke-opacity:1;  stroke-linecap:round; stroke-linejoin:round;fill-rule:evenodd;" d="M 50800000.000000,48010000.000000 50802664.000000,47996606.000000 50810251.000000,47985251.000000 50821606.000000,47977664.000000 50835000.000000,47975000.000000 51115000.000000,47975000.000000 51128394.000000,47977664.000000 51139749.000000,47985251.000000 51147336.000000,47996606.000000 51150000.000000,48010000.000000 51150000.000000,48640000.000000 51147336.000000,48653394.000000 51139749.000000,48664749.000000 51128394.000000,48672336.000000 51115000.000000,48675000.000000 50835000.000000,48675000.000000 50821606.000000,48672336.000000 50810251.000000,48664749.000000 50802664.000000,48653394.000000 50800000.000000,48640000.000000 Z"/> 
<svg:path style="fill:#000000; fill-opacity:1.0;  stroke:#000000; stroke-width:1.000000; stroke-opacity:1;  stroke-linecap:round; stroke-linejoin:round;fill-rule:evenodd;" d="M 50150000.000000,48010000.000000 50152664.000000,47996606.000000 50160251.000000,47985251.000000 50171606.000000,47977664.000000 50185000.000000,47975000.000000 50465000.000000,47975000.000000 50478394.000000,47977664.000000 50489749.000000,47985251.000000 50497336.000000,47996606.000000 50500000.000000,48010000.000000 50500000.000000,48640000.000000 50497336.000000,48653394.000000 50489749.000000,48664749.000000 50478394.000000,48672336.000000 50465000.000000,48675000.000000 50185000.000000,48675000.000000 50171606.000000,48672336.000000 50160251.000000,48664749.000000 50152664.000000,48653394.000000 50150000.000000,48640000.000000 Z"/> 
<svg:path style="fill:#000000; fill-opacity:1.0;  stroke:#000000; stroke-width:1.000000; stroke-opacity:1;  stroke-linecap:round; stroke-linejoin:round;fill-rule:evenodd;" d="M 49500000.000000,48010000.000000 49502664.000000,47996606.000000 49510251.000000,47985251.000000 49521606.000000,47977664.000000 49535000.000000,47975000.000000 49815000.000000,47975000.000000 49828394.000000,47977664.000000 49839749.000000,47985251.000000 49847336.000000,47996606.000000 49850000.000000,48010000.000000 49850000.000000,48640000.000000 49847336.000000,48653394.000000 49839749.000000,48664749.000000 49828394.000000,48672336.000000 49815000.000000,48675000.000000 49535000.000000,48675000.000000 49521606.000000,48672336.000000 49510251.000000,48664749.000000 49502664.000000,48653394.000000 49500000.000000,48640000.000000 Z"/> 
<svg:path style="fill:#000000; fill-opacity:1.0;  stroke:#000000; stroke-width:1.000000; stroke-opacity:1;  stroke-linecap:round; stroke-linejoin:round;fill-rule:evenodd;" d="M 48850000.000000,48010000.000000 48852664.000000,47996606.000000 48860251.000000,47985251.000000 48871606.000000,47977664.000000 48885000.000000,47975000.000000 49165000.000000,47975000.000000 49178394.000000,47977664.000000 49189749.000000,47985251.000000 49197336.000000,47996606.000000 49200000.000000,48010000.000000 49200000.000000,48640000.000000 49197336.000000,48653394.000000 49189749.000000,48664749.000000 49178394.000000,48672336.000000 49165000.000000,48675000.000000 48885000.000000,48675000.000000 48871606.000000,48672336.000000 48860251.000000,48664749.000000 48852664.000000,48653394.000000 48850000.000000,48640000.000000 Z"/> 
</svg:g>
<svg:g>
</svg:g>
<svg:g>
</svg:g>
<svg:g>
</svg:g>
</svg:g>
<svg:g style="fill:#000000; fill-opacity:1.0;  stroke:#000000; stroke-width:1.000000; stroke-opacity:1;  stroke-linecap:round; stroke-linejoin:round;">
<svg:g>
</svg:g>
<svg:g>
</svg:g>
<svg:g>
</svg:g>
<svg:g>
</svg:g>
</svg:g> 
</svg:g><svg:g><svg:title>SVG Picture created as kicadBoard-F_Silkscreen.svg date 2022/12/03 00:24:29 </svg:title>
  <svg:desc>Picture generated by PCBNEW </svg:desc>
<svg:g style="fill:#000000; fill-opacity:1.000000;stroke:#000000; stroke-opacity:1.000000; stroke-linecap:round; stroke-linejoin:round;" transform="translate(0 0) scale(1 1)">
</svg:g>
<svg:g style="fill:#000000; fill-opacity:0.0;  stroke:#000000; stroke-width:0.000000; stroke-opacity:1;  stroke-linecap:round; stroke-linejoin:round;">
</svg:g>
<svg:g style="fill:#F2EDA1; fill-opacity:0.0;  stroke:#F2EDA1; stroke-width:0.000000; stroke-opacity:1;  stroke-linecap:round; stroke-linejoin:round;">
</svg:g>
<svg:g style="fill:#F2EDA1; fill-opacity:0.0;  stroke:#F2EDA1; stroke-width:101600.000000; stroke-opacity:1;  stroke-linecap:round; stroke-linejoin:round;">
<svg:text x="48000000.000000" y="47365000.000000" textLength="24480763.000000" font-size="1557866.000000" lengthAdjust="spacingAndGlyphs" text-anchor="start" opacity="0">FZEANALOGDEVICESLFCSP16</svg:text>
<svg:g class="stroked-text"><svg:desc>FZEANALOGDEVICESLFCSP16</svg:desc>
<svg:path d="M48733697 46697342 L48344230 46697342 "/>
<svg:path d="M48344230 47309361 L48344230 46140961 L48900611 46140961 "/>
<svg:path d="M49234440 46140961 L50013373 46140961 L49234440 47309361 L50013373 47309361 "/>
<svg:path d="M50458478 46697342 L50847944 46697342 "/>
<svg:path d="M51014859 47309361 L50458478 47309361 L50458478 46140961 L51014859 46140961 "/>
<svg:path d="M51459963 46975533 L52016344 46975533 "/>
<svg:path d="M51348687 47309361 L51738154 46140961 L52127620 47309361 "/>
<svg:path d="M52517087 47309361 L52517087 46140961 L53184744 47309361 L53184744 46140961 "/>
<svg:path d="M53685487 46975533 L54241868 46975533 "/>
<svg:path d="M53574211 47309361 L53963678 46140961 L54353144 47309361 "/>
<svg:path d="M55298992 47309361 L54742611 47309361 L54742611 46140961 "/>
<svg:path d="M55911011 46140961 L56133563 46140961 L56244840 46196600 L56356116 46307876 L56411754 46530428 L56411754 46919895 L56356116 47142447 L56244840 47253723 L56133563 47309361 L55911011 47309361 L55799735 47253723 L55688459 47142447 L55632820 46919895 L55632820 46530428 L55688459 46307876 L55799735 46196600 L55911011 46140961 "/>
<svg:path d="M57524516 46196600 L57413240 46140961 L57246325 46140961 L57079411 46196600 L56968135 46307876 L56912497 46419152 L56856859 46641704 L56856859 46808619 L56912497 47031171 L56968135 47142447 L57079411 47253723 L57246325 47309361 L57357601 47309361 L57524516 47253723 L57580154 47198085 L57580154 46808619 L57357601 46808619 "/>
<svg:path d="M58080897 47309361 L58080897 46140961 L58359087 46140961 L58526001 46196600 L58637278 46307876 L58692916 46419152 L58748554 46641704 L58748554 46808619 L58692916 47031171 L58637278 47142447 L58526001 47253723 L58359087 47309361 L58080897 47309361 "/>
<svg:path d="M59249297 46697342 L59638763 46697342 "/>
<svg:path d="M59805678 47309361 L59249297 47309361 L59249297 46140961 L59805678 46140961 "/>
<svg:path d="M60139506 46140961 L60528973 47309361 L60918440 46140961 "/>
<svg:path d="M61307906 47309361 L61307906 46140961 "/>
<svg:path d="M62531944 47198085 L62476306 47253723 L62309392 47309361 L62198116 47309361 L62031201 47253723 L61919925 47142447 L61864287 47031171 L61808649 46808619 L61808649 46641704 L61864287 46419152 L61919925 46307876 L62031201 46196600 L62198116 46140961 L62309392 46140961 L62476306 46196600 L62531944 46252238 "/>
<svg:path d="M63032687 46697342 L63422154 46697342 "/>
<svg:path d="M63589068 47309361 L63032687 47309361 L63032687 46140961 L63589068 46140961 "/>
<svg:path d="M64034173 47253723 L64201087 47309361 L64479278 47309361 L64590554 47253723 L64646192 47198085 L64701830 47086809 L64701830 46975533 L64646192 46864257 L64590554 46808619 L64479278 46752980 L64256725 46697342 L64145449 46641704 L64089811 46586066 L64034173 46474790 L64034173 46363514 L64089811 46252238 L64145449 46196600 L64256725 46140961 L64534916 46140961 L64701830 46196600 "/>
<svg:path d="M65758954 47309361 L65202573 47309361 L65202573 46140961 "/>
<svg:path d="M66537887 46697342 L66148420 46697342 "/>
<svg:path d="M66148420 47309361 L66148420 46140961 L66704801 46140961 "/>
<svg:path d="M67817563 47198085 L67761925 47253723 L67595011 47309361 L67483735 47309361 L67316820 47253723 L67205544 47142447 L67149906 47031171 L67094268 46808619 L67094268 46641704 L67149906 46419152 L67205544 46307876 L67316820 46196600 L67483735 46140961 L67595011 46140961 L67761925 46196600 L67817563 46252238 "/>
<svg:path d="M68262668 47253723 L68429582 47309361 L68707773 47309361 L68819049 47253723 L68874687 47198085 L68930325 47086809 L68930325 46975533 L68874687 46864257 L68819049 46808619 L68707773 46752980 L68485220 46697342 L68373944 46641704 L68318306 46586066 L68262668 46474790 L68262668 46363514 L68318306 46252238 L68373944 46196600 L68485220 46140961 L68763411 46140961 L68930325 46196600 "/>
<svg:path d="M69431068 47309361 L69431068 46140961 L69876173 46140961 L69987449 46196600 L70043087 46252238 L70098725 46363514 L70098725 46530428 L70043087 46641704 L69987449 46697342 L69876173 46752980 L69431068 46752980 "/>
<svg:path d="M71211487 47309361 L70543830 47309361 "/>
<svg:path d="M70877659 47309361 L70877659 46140961 L70766382 46307876 L70655106 46419152 L70543830 46474790 "/>
<svg:path d="M72212973 46140961 L71990420 46140961 L71879144 46196600 L71823506 46252238 L71712230 46419152 L71656592 46641704 L71656592 47086809 L71712230 47198085 L71767868 47253723 L71879144 47309361 L72101697 47309361 L72212973 47253723 L72268611 47198085 L72324249 47086809 L72324249 46808619 L72268611 46697342 L72212973 46641704 L72101697 46586066 L71879144 46586066 L71767868 46641704 L71712230 46697342 L71656592 46808619 "/>
</svg:g></svg:g>
<svg:g style="fill:#F2EDA1; fill-opacity:0.0;  stroke:#F2EDA1; stroke-width:203200.000000; stroke-opacity:1;  stroke-linecap:round; stroke-linejoin:round;">
<svg:path d="M51400000 48101600 L51898400 48600000 "/>
<svg:path d="M48101600 48600000 L48600000 48101600 "/>
<svg:path d="M51898400 51400000 L51400000 51898400 "/>
<svg:path d="M48600000 51898400 L48101600 51400000 "/>
<svg:g>
</svg:g>
<svg:g>
</svg:g>
<svg:g>
</svg:g>
<svg:g>
</svg:g>
</svg:g>
<svg:g style="fill:#000000; fill-opacity:0.0;  stroke:#000000; stroke-width:203200.000000; stroke-opacity:1;  stroke-linecap:round; stroke-linejoin:round;">
<svg:g>
</svg:g>
<svg:g>
</svg:g>
<svg:g>
</svg:g>
<svg:g>
</svg:g>
</svg:g> 
</svg:g><svg:g><svg:title>SVG Picture created as kicadBoard-Margin.svg date 2022/12/03 00:24:29 </svg:title>
  <svg:desc>Picture generated by PCBNEW </svg:desc>
<svg:g style="fill:#000000; fill-opacity:1.000000;stroke:#000000; stroke-opacity:1.000000; stroke-linecap:round; stroke-linejoin:round;" transform="translate(0 0) scale(1 1)">
</svg:g>
<svg:g style="fill:#000000; fill-opacity:0.0;  stroke:#000000; stroke-width:0.000000; stroke-opacity:1;  stroke-linecap:round; stroke-linejoin:round;">
<svg:g>
</svg:g>
<svg:g>
</svg:g>
<svg:g>
</svg:g>
<svg:g>
</svg:g>
</svg:g>
<svg:g style="fill:#000000; fill-opacity:0.0;  stroke:#000000; stroke-width:0.000000; stroke-opacity:1;  stroke-linecap:round; stroke-linejoin:round;">
<svg:g>
</svg:g>
<svg:g>
</svg:g>
<svg:g>
</svg:g>
<svg:g>
</svg:g>
</svg:g> 
</svg:g><svg:g><svg:title>SVG Picture created as kicadBoard-F_Cu.svg date 2022/12/03 00:24:29 </svg:title>
  <svg:desc>Picture generated by PCBNEW </svg:desc>
<svg:g style="fill:#000000; fill-opacity:1.000000;stroke:#000000; stroke-opacity:1.000000; stroke-linecap:round; stroke-linejoin:round;" transform="translate(0 0) scale(1 1)">
</svg:g>
<svg:g style="fill:#000000; fill-opacity:0.0;  stroke:#000000; stroke-width:0.000000; stroke-opacity:1;  stroke-linecap:round; stroke-linejoin:round;">
<svg:g>
</svg:g>
<svg:g style="fill:#C83434; fill-opacity:0.0;  stroke:#C83434; stroke-width:0.000000; stroke-opacity:1;  stroke-linecap:round; stroke-linejoin:round;">
</svg:g>
<svg:g style="fill:#C83434; fill-opacity:0.0;  stroke:#C83434; stroke-width:1.000000; stroke-opacity:1;  stroke-linecap:round; stroke-linejoin:round;">
</svg:g>
<svg:g style="fill:#C83434; fill-opacity:1.0;  stroke:#C83434; stroke-width:1.000000; stroke-opacity:1;  stroke-linecap:round; stroke-linejoin:round;">
<svg:path style="fill:#C83434; fill-opacity:1.0;  stroke:#C83434; stroke-width:1.000000; stroke-opacity:1;  stroke-linecap:round; stroke-linejoin:round;fill-rule:evenodd;" d="M 47975000.000000,48885000.000000 47977664.000000,48871606.000000 47985251.000000,48860251.000000 47996606.000000,48852664.000000 48010000.000000,48850000.000000 48640000.000000,48850000.000000 48653394.000000,48852664.000000 48664749.000000,48860251.000000 48672336.000000,48871606.000000 48675000.000000,48885000.000000 48675000.000000,49165000.000000 48672336.000000,49178394.000000 48664749.000000,49189749.000000 48653394.000000,49197336.000000 48640000.000000,49200000.000000 48010000.000000,49200000.000000 47996606.000000,49197336.000000 47985251.000000,49189749.000000 47977664.000000,49178394.000000 47975000.000000,49165000.000000 Z"/> 
<svg:path style="fill:#C83434; fill-opacity:1.0;  stroke:#C83434; stroke-width:1.000000; stroke-opacity:1;  stroke-linecap:round; stroke-linejoin:round;fill-rule:evenodd;" d="M 47975000.000000,49535000.000000 47977664.000000,49521606.000000 47985251.000000,49510251.000000 47996606.000000,49502664.000000 48010000.000000,49500000.000000 48640000.000000,49500000.000000 48653394.000000,49502664.000000 48664749.000000,49510251.000000 48672336.000000,49521606.000000 48675000.000000,49535000.000000 48675000.000000,49815000.000000 48672336.000000,49828394.000000 48664749.000000,49839749.000000 48653394.000000,49847336.000000 48640000.000000,49850000.000000 48010000.000000,49850000.000000 47996606.000000,49847336.000000 47985251.000000,49839749.000000 47977664.000000,49828394.000000 47975000.000000,49815000.000000 Z"/> 
<svg:path style="fill:#C83434; fill-opacity:1.0;  stroke:#C83434; stroke-width:1.000000; stroke-opacity:1;  stroke-linecap:round; stroke-linejoin:round;fill-rule:evenodd;" d="M 47975000.000000,50185000.000000 47977664.000000,50171606.000000 47985251.000000,50160251.000000 47996606.000000,50152664.000000 48010000.000000,50150000.000000 48640000.000000,50150000.000000 48653394.000000,50152664.000000 48664749.000000,50160251.000000 48672336.000000,50171606.000000 48675000.000000,50185000.000000 48675000.000000,50465000.000000 48672336.000000,50478394.000000 48664749.000000,50489749.000000 48653394.000000,50497336.000000 48640000.000000,50500000.000000 48010000.000000,50500000.000000 47996606.000000,50497336.000000 47985251.000000,50489749.000000 47977664.000000,50478394.000000 47975000.000000,50465000.000000 Z"/> 
<svg:path style="fill:#C83434; fill-opacity:1.0;  stroke:#C83434; stroke-width:1.000000; stroke-opacity:1;  stroke-linecap:round; stroke-linejoin:round;fill-rule:evenodd;" d="M 47975000.000000,50835000.000000 47977664.000000,50821606.000000 47985251.000000,50810251.000000 47996606.000000,50802664.000000 48010000.000000,50800000.000000 48640000.000000,50800000.000000 48653394.000000,50802664.000000 48664749.000000,50810251.000000 48672336.000000,50821606.000000 48675000.000000,50835000.000000 48675000.000000,51115000.000000 48672336.000000,51128394.000000 48664749.000000,51139749.000000 48653394.000000,51147336.000000 48640000.000000,51150000.000000 48010000.000000,51150000.000000 47996606.000000,51147336.000000 47985251.000000,51139749.000000 47977664.000000,51128394.000000 47975000.000000,51115000.000000 Z"/> 
<svg:path style="fill:#C83434; fill-opacity:1.0;  stroke:#C83434; stroke-width:1.000000; stroke-opacity:1;  stroke-linecap:round; stroke-linejoin:round;fill-rule:evenodd;" d="M 48850000.000000,51360000.000000 48852664.000000,51346606.000000 48860251.000000,51335251.000000 48871606.000000,51327664.000000 48885000.000000,51325000.000000 49165000.000000,51325000.000000 49178394.000000,51327664.000000 49189749.000000,51335251.000000 49197336.000000,51346606.000000 49200000.000000,51360000.000000 49200000.000000,51990000.000000 49197336.000000,52003394.000000 49189749.000000,52014749.000000 49178394.000000,52022336.000000 49165000.000000,52025000.000000 48885000.000000,52025000.000000 48871606.000000,52022336.000000 48860251.000000,52014749.000000 48852664.000000,52003394.000000 48850000.000000,51990000.000000 Z"/> 
<svg:path style="fill:#C83434; fill-opacity:1.0;  stroke:#C83434; stroke-width:1.000000; stroke-opacity:1;  stroke-linecap:round; stroke-linejoin:round;fill-rule:evenodd;" d="M 49500000.000000,51360000.000000 49502664.000000,51346606.000000 49510251.000000,51335251.000000 49521606.000000,51327664.000000 49535000.000000,51325000.000000 49815000.000000,51325000.000000 49828394.000000,51327664.000000 49839749.000000,51335251.000000 49847336.000000,51346606.000000 49850000.000000,51360000.000000 49850000.000000,51990000.000000 49847336.000000,52003394.000000 49839749.000000,52014749.000000 49828394.000000,52022336.000000 49815000.000000,52025000.000000 49535000.000000,52025000.000000 49521606.000000,52022336.000000 49510251.000000,52014749.000000 49502664.000000,52003394.000000 49500000.000000,51990000.000000 Z"/> 
<svg:path style="fill:#C83434; fill-opacity:1.0;  stroke:#C83434; stroke-width:1.000000; stroke-opacity:1;  stroke-linecap:round; stroke-linejoin:round;fill-rule:evenodd;" d="M 50150000.000000,51360000.000000 50152664.000000,51346606.000000 50160251.000000,51335251.000000 50171606.000000,51327664.000000 50185000.000000,51325000.000000 50465000.000000,51325000.000000 50478394.000000,51327664.000000 50489749.000000,51335251.000000 50497336.000000,51346606.000000 50500000.000000,51360000.000000 50500000.000000,51990000.000000 50497336.000000,52003394.000000 50489749.000000,52014749.000000 50478394.000000,52022336.000000 50465000.000000,52025000.000000 50185000.000000,52025000.000000 50171606.000000,52022336.000000 50160251.000000,52014749.000000 50152664.000000,52003394.000000 50150000.000000,51990000.000000 Z"/> 
<svg:path style="fill:#C83434; fill-opacity:1.0;  stroke:#C83434; stroke-width:1.000000; stroke-opacity:1;  stroke-linecap:round; stroke-linejoin:round;fill-rule:evenodd;" d="M 50800000.000000,51360000.000000 50802664.000000,51346606.000000 50810251.000000,51335251.000000 50821606.000000,51327664.000000 50835000.000000,51325000.000000 51115000.000000,51325000.000000 51128394.000000,51327664.000000 51139749.000000,51335251.000000 51147336.000000,51346606.000000 51150000.000000,51360000.000000 51150000.000000,51990000.000000 51147336.000000,52003394.000000 51139749.000000,52014749.000000 51128394.000000,52022336.000000 51115000.000000,52025000.000000 50835000.000000,52025000.000000 50821606.000000,52022336.000000 50810251.000000,52014749.000000 50802664.000000,52003394.000000 50800000.000000,51990000.000000 Z"/> 
<svg:path style="fill:#C83434; fill-opacity:1.0;  stroke:#C83434; stroke-width:1.000000; stroke-opacity:1;  stroke-linecap:round; stroke-linejoin:round;fill-rule:evenodd;" d="M 51325000.000000,50835000.000000 51327664.000000,50821606.000000 51335251.000000,50810251.000000 51346606.000000,50802664.000000 51360000.000000,50800000.000000 51990000.000000,50800000.000000 52003394.000000,50802664.000000 52014749.000000,50810251.000000 52022336.000000,50821606.000000 52025000.000000,50835000.000000 52025000.000000,51115000.000000 52022336.000000,51128394.000000 52014749.000000,51139749.000000 52003394.000000,51147336.000000 51990000.000000,51150000.000000 51360000.000000,51150000.000000 51346606.000000,51147336.000000 51335251.000000,51139749.000000 51327664.000000,51128394.000000 51325000.000000,51115000.000000 Z"/> 
<svg:path style="fill:#C83434; fill-opacity:1.0;  stroke:#C83434; stroke-width:1.000000; stroke-opacity:1;  stroke-linecap:round; stroke-linejoin:round;fill-rule:evenodd;" d="M 51325000.000000,50185000.000000 51327664.000000,50171606.000000 51335251.000000,50160251.000000 51346606.000000,50152664.000000 51360000.000000,50150000.000000 51990000.000000,50150000.000000 52003394.000000,50152664.000000 52014749.000000,50160251.000000 52022336.000000,50171606.000000 52025000.000000,50185000.000000 52025000.000000,50465000.000000 52022336.000000,50478394.000000 52014749.000000,50489749.000000 52003394.000000,50497336.000000 51990000.000000,50500000.000000 51360000.000000,50500000.000000 51346606.000000,50497336.000000 51335251.000000,50489749.000000 51327664.000000,50478394.000000 51325000.000000,50465000.000000 Z"/> 
<svg:path style="fill:#C83434; fill-opacity:1.0;  stroke:#C83434; stroke-width:1.000000; stroke-opacity:1;  stroke-linecap:round; stroke-linejoin:round;fill-rule:evenodd;" d="M 51325000.000000,49535000.000000 51327664.000000,49521606.000000 51335251.000000,49510251.000000 51346606.000000,49502664.000000 51360000.000000,49500000.000000 51990000.000000,49500000.000000 52003394.000000,49502664.000000 52014749.000000,49510251.000000 52022336.000000,49521606.000000 52025000.000000,49535000.000000 52025000.000000,49815000.000000 52022336.000000,49828394.000000 52014749.000000,49839749.000000 52003394.000000,49847336.000000 51990000.000000,49850000.000000 51360000.000000,49850000.000000 51346606.000000,49847336.000000 51335251.000000,49839749.000000 51327664.000000,49828394.000000 51325000.000000,49815000.000000 Z"/> 
<svg:path style="fill:#C83434; fill-opacity:1.0;  stroke:#C83434; stroke-width:1.000000; stroke-opacity:1;  stroke-linecap:round; stroke-linejoin:round;fill-rule:evenodd;" d="M 51325000.000000,48885000.000000 51327664.000000,48871606.000000 51335251.000000,48860251.000000 51346606.000000,48852664.000000 51360000.000000,48850000.000000 51990000.000000,48850000.000000 52003394.000000,48852664.000000 52014749.000000,48860251.000000 52022336.000000,48871606.000000 52025000.000000,48885000.000000 52025000.000000,49165000.000000 52022336.000000,49178394.000000 52014749.000000,49189749.000000 52003394.000000,49197336.000000 51990000.000000,49200000.000000 51360000.000000,49200000.000000 51346606.000000,49197336.000000 51335251.000000,49189749.000000 51327664.000000,49178394.000000 51325000.000000,49165000.000000 Z"/> 
<svg:path style="fill:#C83434; fill-opacity:1.0;  stroke:#C83434; stroke-width:1.000000; stroke-opacity:1;  stroke-linecap:round; stroke-linejoin:round;fill-rule:evenodd;" d="M 50800000.000000,48010000.000000 50802664.000000,47996606.000000 50810251.000000,47985251.000000 50821606.000000,47977664.000000 50835000.000000,47975000.000000 51115000.000000,47975000.000000 51128394.000000,47977664.000000 51139749.000000,47985251.000000 51147336.000000,47996606.000000 51150000.000000,48010000.000000 51150000.000000,48640000.000000 51147336.000000,48653394.000000 51139749.000000,48664749.000000 51128394.000000,48672336.000000 51115000.000000,48675000.000000 50835000.000000,48675000.000000 50821606.000000,48672336.000000 50810251.000000,48664749.000000 50802664.000000,48653394.000000 50800000.000000,48640000.000000 Z"/> 
<svg:path style="fill:#C83434; fill-opacity:1.0;  stroke:#C83434; stroke-width:1.000000; stroke-opacity:1;  stroke-linecap:round; stroke-linejoin:round;fill-rule:evenodd;" d="M 50150000.000000,48010000.000000 50152664.000000,47996606.000000 50160251.000000,47985251.000000 50171606.000000,47977664.000000 50185000.000000,47975000.000000 50465000.000000,47975000.000000 50478394.000000,47977664.000000 50489749.000000,47985251.000000 50497336.000000,47996606.000000 50500000.000000,48010000.000000 50500000.000000,48640000.000000 50497336.000000,48653394.000000 50489749.000000,48664749.000000 50478394.000000,48672336.000000 50465000.000000,48675000.000000 50185000.000000,48675000.000000 50171606.000000,48672336.000000 50160251.000000,48664749.000000 50152664.000000,48653394.000000 50150000.000000,48640000.000000 Z"/> 
<svg:path style="fill:#C83434; fill-opacity:1.0;  stroke:#C83434; stroke-width:1.000000; stroke-opacity:1;  stroke-linecap:round; stroke-linejoin:round;fill-rule:evenodd;" d="M 49500000.000000,48010000.000000 49502664.000000,47996606.000000 49510251.000000,47985251.000000 49521606.000000,47977664.000000 49535000.000000,47975000.000000 49815000.000000,47975000.000000 49828394.000000,47977664.000000 49839749.000000,47985251.000000 49847336.000000,47996606.000000 49850000.000000,48010000.000000 49850000.000000,48640000.000000 49847336.000000,48653394.000000 49839749.000000,48664749.000000 49828394.000000,48672336.000000 49815000.000000,48675000.000000 49535000.000000,48675000.000000 49521606.000000,48672336.000000 49510251.000000,48664749.000000 49502664.000000,48653394.000000 49500000.000000,48640000.000000 Z"/> 
<svg:path style="fill:#C83434; fill-opacity:1.0;  stroke:#C83434; stroke-width:1.000000; stroke-opacity:1;  stroke-linecap:round; stroke-linejoin:round;fill-rule:evenodd;" d="M 48850000.000000,48010000.000000 48852664.000000,47996606.000000 48860251.000000,47985251.000000 48871606.000000,47977664.000000 48885000.000000,47975000.000000 49165000.000000,47975000.000000 49178394.000000,47977664.000000 49189749.000000,47985251.000000 49197336.000000,47996606.000000 49200000.000000,48010000.000000 49200000.000000,48640000.000000 49197336.000000,48653394.000000 49189749.000000,48664749.000000 49178394.000000,48672336.000000 49165000.000000,48675000.000000 48885000.000000,48675000.000000 48871606.000000,48672336.000000 48860251.000000,48664749.000000 48852664.000000,48653394.000000 48850000.000000,48640000.000000 Z"/> 
<svg:path style="fill:#C83434; fill-opacity:1.0;  stroke:#C83434; stroke-width:1.000000; stroke-opacity:1;  stroke-linecap:round; stroke-linejoin:round;fill-rule:evenodd;" d="M 48950000.000000,49160000.000000 48965985.000000,49079636.000000 49011508.000000,49011508.000000 49079636.000000,48965985.000000 49160000.000000,48950000.000000 50840000.000000,48950000.000000 50920364.000000,48965985.000000 50988492.000000,49011508.000000 51034015.000000,49079636.000000 51050000.000000,49160000.000000 51050000.000000,50840000.000000 51034015.000000,50920364.000000 50988492.000000,50988492.000000 50920364.000000,51034015.000000 50840000.000000,51050000.000000 49160000.000000,51050000.000000 49079636.000000,51034015.000000 49011508.000000,50988492.000000 48965985.000000,50920364.000000 48950000.000000,50840000.000000 Z"/> 
</svg:g>
<svg:g>
</svg:g>
<svg:g>
</svg:g>
<svg:g>
</svg:g>
</svg:g>
<svg:g style="fill:#FFFFFF; fill-opacity:1.0;  stroke:#FFFFFF; stroke-width:1.000000; stroke-opacity:1;  stroke-linecap:round; stroke-linejoin:round;">
</svg:g>
<svg:g style="fill:#000000; fill-opacity:1.0;  stroke:#000000; stroke-width:1.000000; stroke-opacity:1;  stroke-linecap:round; stroke-linejoin:round;">
<svg:g>
</svg:g>
<svg:g>
</svg:g>
<svg:g>
</svg:g>
<svg:g>
</svg:g>
</svg:g> 
</svg:g></svg>
