<?xml version='1.0' encoding='ASCII' standalone='yes'?>
<svg xmlns:svg="http://www.w3.org/2000/svg" xmlns="http://www.w3.org/2000/svg" xmlns:xlink="http://www.w3.org/1999/xlink" version="1.1" width="9.999980cm" height="9.999980cm" viewBox="0 0 99999800 99999800">
<title>SVG Picture created as kicadBoard-B_Cu.svg date 2022/11/18 04:46:55 </title>
  <desc>Picture generated by PCBNEW </desc>
<g style="fill:#000000; fill-opacity:1.000000;stroke:#000000; stroke-opacity:1.000000; stroke-linecap:round; stroke-linejoin:round;" transform="translate(0 0) scale(1 1)">
</g>
<g style="fill:#000000; fill-opacity:0.0;  stroke:#000000; stroke-width:0.000000; stroke-opacity:1;  stroke-linecap:round; stroke-linejoin:round;">
<g>
</g>
<g>
</g>
<g>
</g>
<g>
</g>
</g>
<g style="fill:#FFFFFF; fill-opacity:0.0;  stroke:#FFFFFF; stroke-width:0.000000; stroke-opacity:1;  stroke-linecap:round; stroke-linejoin:round;">
</g>
<g style="fill:#000000; fill-opacity:0.0;  stroke:#000000; stroke-width:0.000000; stroke-opacity:1;  stroke-linecap:round; stroke-linejoin:round;">
<g>
</g>
<g>
</g>
<g>
</g>
<g>
</g>
</g> 
<svg:g><svg:title>SVG Picture created as kicadBoard-B_Adhesive.svg date 2022/11/18 04:46:55 </svg:title>
  <svg:desc>Picture generated by PCBNEW </svg:desc>
<svg:g style="fill:#000000; fill-opacity:1.000000;stroke:#000000; stroke-opacity:1.000000; stroke-linecap:round; stroke-linejoin:round;" transform="translate(0 0) scale(1 1)">
</svg:g>
<svg:g style="fill:#000000; fill-opacity:0.0;  stroke:#000000; stroke-width:0.000000; stroke-opacity:1;  stroke-linecap:round; stroke-linejoin:round;">
<svg:g>
</svg:g>
<svg:g>
</svg:g>
<svg:g>
</svg:g>
<svg:g>
</svg:g>
</svg:g>
<svg:g style="fill:#000000; fill-opacity:0.0;  stroke:#000000; stroke-width:0.000000; stroke-opacity:1;  stroke-linecap:round; stroke-linejoin:round;">
<svg:g>
</svg:g>
<svg:g>
</svg:g>
<svg:g>
</svg:g>
<svg:g>
</svg:g>
</svg:g> 
</svg:g><svg:g><svg:title>SVG Picture created as kicadBoard-B_Courtyard.svg date 2022/11/18 04:46:55 </svg:title>
  <svg:desc>Picture generated by PCBNEW </svg:desc>
<svg:g style="fill:#000000; fill-opacity:1.000000;stroke:#000000; stroke-opacity:1.000000; stroke-linecap:round; stroke-linejoin:round;" transform="translate(0 0) scale(1 1)">
</svg:g>
<svg:g style="fill:#000000; fill-opacity:0.0;  stroke:#000000; stroke-width:0.000000; stroke-opacity:1;  stroke-linecap:round; stroke-linejoin:round;">
<svg:g>
</svg:g>
<svg:g>
</svg:g>
<svg:g>
</svg:g>
<svg:g>
</svg:g>
</svg:g>
<svg:g style="fill:#000000; fill-opacity:0.0;  stroke:#000000; stroke-width:0.000000; stroke-opacity:1;  stroke-linecap:round; stroke-linejoin:round;">
<svg:g>
</svg:g>
<svg:g>
</svg:g>
<svg:g>
</svg:g>
<svg:g>
</svg:g>
</svg:g> 
</svg:g><svg:g><svg:title>SVG Picture created as kicadBoard-B_Fab.svg date 2022/11/18 04:46:55 </svg:title>
  <svg:desc>Picture generated by PCBNEW </svg:desc>
<svg:g style="fill:#000000; fill-opacity:1.000000;stroke:#000000; stroke-opacity:1.000000; stroke-linecap:round; stroke-linejoin:round;" transform="translate(0 0) scale(1 1)">
</svg:g>
<svg:g style="fill:#000000; fill-opacity:0.0;  stroke:#000000; stroke-width:0.000000; stroke-opacity:1;  stroke-linecap:round; stroke-linejoin:round;">
<svg:g>
</svg:g>
<svg:g>
</svg:g>
<svg:g>
</svg:g>
<svg:g>
</svg:g>
</svg:g>
<svg:g style="fill:#000000; fill-opacity:0.0;  stroke:#000000; stroke-width:0.000000; stroke-opacity:1;  stroke-linecap:round; stroke-linejoin:round;">
<svg:g>
</svg:g>
<svg:g>
</svg:g>
<svg:g>
</svg:g>
<svg:g>
</svg:g>
</svg:g> 
</svg:g><svg:g><svg:title>SVG Picture created as kicadBoard-B_Mask.svg date 2022/11/18 04:46:55 </svg:title>
  <svg:desc>Picture generated by PCBNEW </svg:desc>
<svg:g style="fill:#000000; fill-opacity:1.000000;stroke:#000000; stroke-opacity:1.000000; stroke-linecap:round; stroke-linejoin:round;" transform="translate(0 0) scale(1 1)">
</svg:g>
<svg:g style="fill:#000000; fill-opacity:0.0;  stroke:#000000; stroke-width:0.000000; stroke-opacity:1;  stroke-linecap:round; stroke-linejoin:round;">
<svg:g>
</svg:g>
<svg:g>
</svg:g>
<svg:g>
</svg:g>
<svg:g>
</svg:g>
</svg:g>
<svg:g style="fill:#000000; fill-opacity:0.0;  stroke:#000000; stroke-width:0.000000; stroke-opacity:1;  stroke-linecap:round; stroke-linejoin:round;">
<svg:g>
</svg:g>
<svg:g>
</svg:g>
<svg:g>
</svg:g>
<svg:g>
</svg:g>
</svg:g> 
</svg:g><svg:g><svg:title>SVG Picture created as kicadBoard-B_Paste.svg date 2022/11/18 04:46:55 </svg:title>
  <svg:desc>Picture generated by PCBNEW </svg:desc>
<svg:g style="fill:#000000; fill-opacity:1.000000;stroke:#000000; stroke-opacity:1.000000; stroke-linecap:round; stroke-linejoin:round;" transform="translate(0 0) scale(1 1)">
</svg:g>
<svg:g style="fill:#000000; fill-opacity:0.0;  stroke:#000000; stroke-width:0.000000; stroke-opacity:1;  stroke-linecap:round; stroke-linejoin:round;">
<svg:g>
</svg:g>
<svg:g>
</svg:g>
<svg:g>
</svg:g>
<svg:g>
</svg:g>
</svg:g>
<svg:g style="fill:#000000; fill-opacity:0.0;  stroke:#000000; stroke-width:0.000000; stroke-opacity:1;  stroke-linecap:round; stroke-linejoin:round;">
<svg:g>
</svg:g>
<svg:g>
</svg:g>
<svg:g>
</svg:g>
<svg:g>
</svg:g>
</svg:g> 
</svg:g><svg:g><svg:title>SVG Picture created as kicadBoard-B_Silkscreen.svg date 2022/11/18 04:46:55 </svg:title>
  <svg:desc>Picture generated by PCBNEW </svg:desc>
<svg:g style="fill:#000000; fill-opacity:1.000000;stroke:#000000; stroke-opacity:1.000000; stroke-linecap:round; stroke-linejoin:round;" transform="translate(0 0) scale(1 1)">
</svg:g>
<svg:g style="fill:#000000; fill-opacity:0.0;  stroke:#000000; stroke-width:0.000000; stroke-opacity:1;  stroke-linecap:round; stroke-linejoin:round;">
<svg:g>
</svg:g>
<svg:g>
</svg:g>
<svg:g>
</svg:g>
<svg:g>
</svg:g>
</svg:g>
<svg:g style="fill:#000000; fill-opacity:0.0;  stroke:#000000; stroke-width:0.000000; stroke-opacity:1;  stroke-linecap:round; stroke-linejoin:round;">
<svg:g>
</svg:g>
<svg:g>
</svg:g>
<svg:g>
</svg:g>
<svg:g>
</svg:g>
</svg:g> 
</svg:g><svg:g><svg:title>SVG Picture created as kicadBoard-Edge_Cuts.svg date 2022/11/18 04:46:55 </svg:title>
  <svg:desc>Picture generated by PCBNEW </svg:desc>
<svg:g style="fill:#000000; fill-opacity:1.000000;stroke:#000000; stroke-opacity:1.000000; stroke-linecap:round; stroke-linejoin:round;" transform="translate(0 0) scale(1 1)">
</svg:g>
<svg:g style="fill:#000000; fill-opacity:0.0;  stroke:#000000; stroke-width:0.000000; stroke-opacity:1;  stroke-linecap:round; stroke-linejoin:round;">
<svg:g>
</svg:g>
<svg:g>
</svg:g>
<svg:g>
</svg:g>
<svg:g>
</svg:g>
</svg:g> 
</svg:g><svg:g><svg:title>SVG Picture created as kicadBoard-F_Adhesive.svg date 2022/11/18 04:46:55 </svg:title>
  <svg:desc>Picture generated by PCBNEW </svg:desc>
<svg:g style="fill:#000000; fill-opacity:1.000000;stroke:#000000; stroke-opacity:1.000000; stroke-linecap:round; stroke-linejoin:round;" transform="translate(0 0) scale(1 1)">
</svg:g>
<svg:g style="fill:#000000; fill-opacity:0.0;  stroke:#000000; stroke-width:0.000000; stroke-opacity:1;  stroke-linecap:round; stroke-linejoin:round;">
<svg:g>
</svg:g>
<svg:g>
</svg:g>
<svg:g>
</svg:g>
<svg:g>
</svg:g>
</svg:g>
<svg:g style="fill:#000000; fill-opacity:0.0;  stroke:#000000; stroke-width:0.000000; stroke-opacity:1;  stroke-linecap:round; stroke-linejoin:round;">
<svg:g>
</svg:g>
<svg:g>
</svg:g>
<svg:g>
</svg:g>
<svg:g>
</svg:g>
</svg:g> 
</svg:g><svg:g><svg:title>SVG Picture created as kicadBoard-F_Courtyard.svg date 2022/11/18 04:46:55 </svg:title>
  <svg:desc>Picture generated by PCBNEW </svg:desc>
<svg:g style="fill:#000000; fill-opacity:1.000000;stroke:#000000; stroke-opacity:1.000000; stroke-linecap:round; stroke-linejoin:round;" transform="translate(0 0) scale(1 1)">
</svg:g>
<svg:g style="fill:#000000; fill-opacity:0.0;  stroke:#000000; stroke-width:0.000000; stroke-opacity:1;  stroke-linecap:round; stroke-linejoin:round;">
</svg:g>
<svg:g style="fill:#FF26E2; fill-opacity:0.0;  stroke:#FF26E2; stroke-width:0.000000; stroke-opacity:1;  stroke-linecap:round; stroke-linejoin:round;">
</svg:g>
<svg:g style="fill:#FF26E2; fill-opacity:0.0;  stroke:#FF26E2; stroke-width:50000.000000; stroke-opacity:1;  stroke-linecap:round; stroke-linejoin:round;">
<svg:path d="M48500000 47500000 L51500000 47500000 "/>
<svg:path d="M51500000 47500000 L51500000 52500000 "/>
<svg:path d="M51500000 52500000 L48500000 52500000 "/>
<svg:path d="M48500000 52500000 L48500000 47500000 "/>
<svg:g>
</svg:g>
<svg:g>
</svg:g>
<svg:g>
</svg:g>
<svg:g>
</svg:g>
</svg:g>
<svg:g style="fill:#000000; fill-opacity:0.0;  stroke:#000000; stroke-width:50000.000000; stroke-opacity:1;  stroke-linecap:round; stroke-linejoin:round;">
<svg:g>
</svg:g>
<svg:g>
</svg:g>
<svg:g>
</svg:g>
<svg:g>
</svg:g>
</svg:g> 
</svg:g><svg:g><svg:title>SVG Picture created as kicadBoard-F_Fab.svg date 2022/11/18 04:46:55 </svg:title>
  <svg:desc>Picture generated by PCBNEW </svg:desc>
<svg:g style="fill:#000000; fill-opacity:1.000000;stroke:#000000; stroke-opacity:1.000000; stroke-linecap:round; stroke-linejoin:round;" transform="translate(0 0) scale(1 1)">
</svg:g>
<svg:g style="fill:#000000; fill-opacity:0.0;  stroke:#000000; stroke-width:0.000000; stroke-opacity:1;  stroke-linecap:round; stroke-linejoin:round;">
</svg:g>
<svg:g style="fill:#AFAFAF; fill-opacity:0.0;  stroke:#AFAFAF; stroke-width:0.000000; stroke-opacity:1;  stroke-linecap:round; stroke-linejoin:round;">
</svg:g>
<svg:g style="fill:#AFAFAF; fill-opacity:0.0;  stroke:#AFAFAF; stroke-width:150000.000000; stroke-opacity:1;  stroke-linecap:round; stroke-linejoin:round;">
<svg:text x="50000000.000000" y="53900000.000000" textLength="17480714.000000" font-size="1333333.000000" lengthAdjust="spacingAndGlyphs" text-anchor="middle" opacity="0">R_Shunt_Ohmite_LVK12</svg:text>
<svg:g class="stroked-text"><svg:desc>R_Shunt_Ohmite_LVK12</svg:desc>
<svg:path d="M42166666 53852380 L41833333 53376190 "/>
<svg:path d="M41595238 53852380 L41595238 52852380 L41976190 52852380 L42071428 52900000 L42119047 52947619 L42166666 53042857 L42166666 53185714 L42119047 53280952 L42071428 53328571 L41976190 53376190 L41595238 53376190 "/>
<svg:path d="M42357142 53947619 L43119047 53947619 "/>
<svg:path d="M43309523 53804761 L43452380 53852380 L43690476 53852380 L43785714 53804761 L43833333 53757142 L43880952 53661904 L43880952 53566666 L43833333 53471428 L43785714 53423809 L43690476 53376190 L43500000 53328571 L43404761 53280952 L43357142 53233333 L43309523 53138095 L43309523 53042857 L43357142 52947619 L43404761 52900000 L43500000 52852380 L43738095 52852380 L43880952 52900000 "/>
<svg:path d="M44309523 53852380 L44309523 52852380 "/>
<svg:path d="M44738095 53852380 L44738095 53328571 L44690476 53233333 L44595238 53185714 L44452380 53185714 L44357142 53233333 L44309523 53280952 "/>
<svg:path d="M45642857 53185714 L45642857 53852380 "/>
<svg:path d="M45214285 53185714 L45214285 53709523 L45261904 53804761 L45357142 53852380 L45500000 53852380 L45595238 53804761 L45642857 53757142 "/>
<svg:path d="M46119047 53185714 L46119047 53852380 "/>
<svg:path d="M46119047 53280952 L46166666 53233333 L46261904 53185714 L46404761 53185714 L46500000 53233333 L46547619 53328571 L46547619 53852380 "/>
<svg:path d="M46880952 53185714 L47261904 53185714 "/>
<svg:path d="M47023809 52852380 L47023809 53709523 L47071428 53804761 L47166666 53852380 L47261904 53852380 "/>
<svg:path d="M47357142 53947619 L48119047 53947619 "/>
<svg:path d="M48547619 52852380 L48738095 52852380 L48833333 52900000 L48928571 52995238 L48976190 53185714 L48976190 53519047 L48928571 53709523 L48833333 53804761 L48738095 53852380 L48547619 53852380 L48452380 53804761 L48357142 53709523 L48309523 53519047 L48309523 53185714 L48357142 52995238 L48452380 52900000 L48547619 52852380 "/>
<svg:path d="M49404761 53852380 L49404761 52852380 "/>
<svg:path d="M49833333 53852380 L49833333 53328571 L49785714 53233333 L49690476 53185714 L49547619 53185714 L49452380 53233333 L49404761 53280952 "/>
<svg:path d="M50309523 53852380 L50309523 53185714 "/>
<svg:path d="M50309523 53280952 L50357142 53233333 L50452380 53185714 L50595238 53185714 L50690476 53233333 L50738095 53328571 L50738095 53852380 "/>
<svg:path d="M50738095 53328571 L50785714 53233333 L50880952 53185714 L51023809 53185714 L51119047 53233333 L51166666 53328571 L51166666 53852380 "/>
<svg:path d="M51642857 53852380 L51642857 53185714 "/>
<svg:path d="M51642857 52852380 L51595238 52900000 L51642857 52947619 L51690476 52900000 L51642857 52852380 L51642857 52947619 "/>
<svg:path d="M51976190 53185714 L52357142 53185714 "/>
<svg:path d="M52119047 52852380 L52119047 53709523 L52166666 53804761 L52261904 53852380 L52357142 53852380 "/>
<svg:path d="M53071428 53804761 L52976190 53852380 L52785714 53852380 L52690476 53804761 L52642857 53709523 L52642857 53328571 L52690476 53233333 L52785714 53185714 L52976190 53185714 L53071428 53233333 L53119047 53328571 L53119047 53423809 L52642857 53519047 "/>
<svg:path d="M53309523 53947619 L54071428 53947619 "/>
<svg:path d="M54785714 53852380 L54309523 53852380 L54309523 52852380 "/>
<svg:path d="M54976190 52852380 L55309523 53852380 L55642857 52852380 "/>
<svg:path d="M55976190 53852380 L55976190 52852380 "/>
<svg:path d="M56547619 53852380 L56119047 53280952 "/>
<svg:path d="M56547619 52852380 L55976190 53423809 "/>
<svg:path d="M57500000 53852380 L56928571 53852380 "/>
<svg:path d="M57214285 53852380 L57214285 52852380 L57119047 52995238 L57023809 53090476 L56928571 53138095 "/>
<svg:path d="M57880952 52947619 L57928571 52900000 L58023809 52852380 L58261904 52852380 L58357142 52900000 L58404761 52947619 L58452380 53042857 L58452380 53138095 L58404761 53280952 L57833333 53852380 L58452380 53852380 "/>
</svg:g></svg:g>
<svg:g style="fill:#AFAFAF; fill-opacity:0.0;  stroke:#AFAFAF; stroke-width:100000.000000; stroke-opacity:1;  stroke-linecap:round; stroke-linejoin:round;">
<svg:g transform="rotate(-90.000000 50100000.000000 50000000.000000)">
<svg:text x="50100000.000000" y="50300000.000000" textLength="11966429.000000" font-size="800000.000000" lengthAdjust="spacingAndGlyphs" text-anchor="middle" opacity="0">FZKRRSHUNTOHMITELVK12</svg:text>
</svg:g>
<svg:g class="stroked-text"><svg:desc>FZKRRSHUNTOHMITELVK12</svg:desc>
<svg:path d="M50057142 55542857 L50057142 55742857 "/>
<svg:path d="M50371428 55742857 L49771428 55742857 L49771428 55457142 "/>
<svg:path d="M49771428 55285714 L49771428 54885714 L50371428 55285714 L50371428 54885714 "/>
<svg:path d="M50371428 54657142 L49771428 54657142 "/>
<svg:path d="M50371428 54314285 L50028571 54571428 "/>
<svg:path d="M49771428 54314285 L50114285 54657142 "/>
<svg:path d="M50371428 53714285 L50085714 53914285 "/>
<svg:path d="M50371428 54057142 L49771428 54057142 L49771428 53828571 L49800000 53771428 L49828571 53742857 L49885714 53714285 L49971428 53714285 L50028571 53742857 L50057142 53771428 L50085714 53828571 L50085714 54057142 "/>
<svg:path d="M50371428 53114285 L50085714 53314285 "/>
<svg:path d="M50371428 53457142 L49771428 53457142 L49771428 53228571 L49800000 53171428 L49828571 53142857 L49885714 53114285 L49971428 53114285 L50028571 53142857 L50057142 53171428 L50085714 53228571 L50085714 53457142 "/>
<svg:path d="M50342857 52885714 L50371428 52800000 L50371428 52657142 L50342857 52600000 L50314285 52571428 L50257142 52542857 L50200000 52542857 L50142857 52571428 L50114285 52600000 L50085714 52657142 L50057142 52771428 L50028571 52828571 L50000000 52857142 L49942857 52885714 L49885714 52885714 L49828571 52857142 L49800000 52828571 L49771428 52771428 L49771428 52628571 L49800000 52542857 "/>
<svg:path d="M50371428 52285714 L49771428 52285714 "/>
<svg:path d="M50057142 52285714 L50057142 51942857 "/>
<svg:path d="M50371428 51942857 L49771428 51942857 "/>
<svg:path d="M49771428 51657142 L50257142 51657142 L50314285 51628571 L50342857 51600000 L50371428 51542857 L50371428 51428571 L50342857 51371428 L50314285 51342857 L50257142 51314285 L49771428 51314285 "/>
<svg:path d="M50371428 51028571 L49771428 51028571 L50371428 50685714 L49771428 50685714 "/>
<svg:path d="M49771428 50485714 L49771428 50142857 "/>
<svg:path d="M50371428 50314285 L49771428 50314285 "/>
<svg:path d="M49771428 49828571 L49771428 49714285 L49800000 49657142 L49857142 49600000 L49971428 49571428 L50171428 49571428 L50285714 49600000 L50342857 49657142 L50371428 49714285 L50371428 49828571 L50342857 49885714 L50285714 49942857 L50171428 49971428 L49971428 49971428 L49857142 49942857 L49800000 49885714 L49771428 49828571 "/>
<svg:path d="M50371428 49314285 L49771428 49314285 "/>
<svg:path d="M50057142 49314285 L50057142 48971428 "/>
<svg:path d="M50371428 48971428 L49771428 48971428 "/>
<svg:path d="M50371428 48685714 L49771428 48685714 L50200000 48485714 L49771428 48285714 L50371428 48285714 "/>
<svg:path d="M50371428 48000000 L49771428 48000000 "/>
<svg:path d="M49771428 47800000 L49771428 47457142 "/>
<svg:path d="M50371428 47628571 L49771428 47628571 "/>
<svg:path d="M50057142 47257142 L50057142 47057142 "/>
<svg:path d="M50371428 46971428 L50371428 47257142 L49771428 47257142 L49771428 46971428 "/>
<svg:path d="M50371428 46428571 L50371428 46714285 L49771428 46714285 "/>
<svg:path d="M49771428 46314285 L50371428 46114285 L49771428 45914285 "/>
<svg:path d="M50371428 45714285 L49771428 45714285 "/>
<svg:path d="M50371428 45371428 L50028571 45628571 "/>
<svg:path d="M49771428 45371428 L50114285 45714285 "/>
<svg:path d="M50371428 44800000 L50371428 45142857 "/>
<svg:path d="M50371428 44971428 L49771428 44971428 L49857142 45028571 L49914285 45085714 L49942857 45142857 "/>
<svg:path d="M49828571 44571428 L49800000 44542857 L49771428 44485714 L49771428 44342857 L49800000 44285714 L49828571 44257142 L49885714 44228571 L49942857 44228571 L50028571 44257142 L50371428 44600000 L50371428 44228571 "/>
</svg:g><svg:path d="M49200000 51600000 L50800000 51600000 "/>
<svg:path d="M49200000 48400000 L49200000 51600000 "/>
<svg:path d="M50800000 48400000 L49200000 48400000 "/>
<svg:path d="M50800000 51600000 L50800000 48400000 "/>
<svg:g>
</svg:g>
<svg:g>
</svg:g>
<svg:g>
</svg:g>
<svg:g>
</svg:g>
</svg:g>
<svg:g style="fill:#000000; fill-opacity:0.0;  stroke:#000000; stroke-width:100000.000000; stroke-opacity:1;  stroke-linecap:round; stroke-linejoin:round;">
<svg:g>
</svg:g>
<svg:g>
</svg:g>
<svg:g>
</svg:g>
<svg:g>
</svg:g>
</svg:g> 
</svg:g><svg:g><svg:title>SVG Picture created as kicadBoard-F_Mask.svg date 2022/11/18 04:46:55 </svg:title>
  <svg:desc>Picture generated by PCBNEW </svg:desc>
<svg:g style="fill:#000000; fill-opacity:1.000000;stroke:#000000; stroke-opacity:1.000000; stroke-linecap:round; stroke-linejoin:round;" transform="translate(0 0) scale(1 1)">
</svg:g>
<svg:g style="fill:#000000; fill-opacity:0.0;  stroke:#000000; stroke-width:0.000000; stroke-opacity:1;  stroke-linecap:round; stroke-linejoin:round;">
<svg:g>
</svg:g>
<svg:g style="fill:#000000; fill-opacity:0.0;  stroke:#000000; stroke-width:1.000000; stroke-opacity:1;  stroke-linecap:round; stroke-linejoin:round;">
</svg:g>
<svg:g style="fill:#000000; fill-opacity:1.0;  stroke:#000000; stroke-width:1.000000; stroke-opacity:1;  stroke-linecap:round; stroke-linejoin:round;">
<svg:path style="fill:#000000; fill-opacity:1.0;  stroke:#000000; stroke-width:1.000000; stroke-opacity:1;  stroke-linecap:round; stroke-linejoin:round;fill-rule:evenodd;" d="M 48750000.000000,49500000.000000 48750000.000000,47750000.000000 49850000.000000,47750000.000000 49850000.000000,49500000.000000 Z"/> 
<svg:path style="fill:#000000; fill-opacity:1.0;  stroke:#000000; stroke-width:1.000000; stroke-opacity:1;  stroke-linecap:round; stroke-linejoin:round;fill-rule:evenodd;" d="M 50150000.000000,49500000.000000 50150000.000000,47750000.000000 51250000.000000,47750000.000000 51250000.000000,49500000.000000 Z"/> 
<svg:path style="fill:#000000; fill-opacity:1.0;  stroke:#000000; stroke-width:1.000000; stroke-opacity:1;  stroke-linecap:round; stroke-linejoin:round;fill-rule:evenodd;" d="M 48750000.000000,52250000.000000 48750000.000000,50500000.000000 49850000.000000,50500000.000000 49850000.000000,52250000.000000 Z"/> 
<svg:path style="fill:#000000; fill-opacity:1.0;  stroke:#000000; stroke-width:1.000000; stroke-opacity:1;  stroke-linecap:round; stroke-linejoin:round;fill-rule:evenodd;" d="M 50150000.000000,52250000.000000 50150000.000000,50500000.000000 51250000.000000,50500000.000000 51250000.000000,52250000.000000 Z"/> 
</svg:g>
<svg:g>
</svg:g>
<svg:g>
</svg:g>
<svg:g>
</svg:g>
</svg:g>
<svg:g style="fill:#000000; fill-opacity:1.0;  stroke:#000000; stroke-width:1.000000; stroke-opacity:1;  stroke-linecap:round; stroke-linejoin:round;">
<svg:g>
</svg:g>
<svg:g>
</svg:g>
<svg:g>
</svg:g>
<svg:g>
</svg:g>
</svg:g> 
</svg:g><svg:g><svg:title>SVG Picture created as kicadBoard-F_Paste.svg date 2022/11/18 04:46:55 </svg:title>
  <svg:desc>Picture generated by PCBNEW </svg:desc>
<svg:g style="fill:#000000; fill-opacity:1.000000;stroke:#000000; stroke-opacity:1.000000; stroke-linecap:round; stroke-linejoin:round;" transform="translate(0 0) scale(1 1)">
</svg:g>
<svg:g style="fill:#000000; fill-opacity:0.0;  stroke:#000000; stroke-width:0.000000; stroke-opacity:1;  stroke-linecap:round; stroke-linejoin:round;">
<svg:g>
</svg:g>
<svg:g style="fill:#000000; fill-opacity:0.0;  stroke:#000000; stroke-width:1.000000; stroke-opacity:1;  stroke-linecap:round; stroke-linejoin:round;">
</svg:g>
<svg:g style="fill:#000000; fill-opacity:1.0;  stroke:#000000; stroke-width:1.000000; stroke-opacity:1;  stroke-linecap:round; stroke-linejoin:round;">
<svg:path style="fill:#000000; fill-opacity:1.0;  stroke:#000000; stroke-width:1.000000; stroke-opacity:1;  stroke-linecap:round; stroke-linejoin:round;fill-rule:evenodd;" d="M 48750000.000000,49500000.000000 48750000.000000,47750000.000000 49850000.000000,47750000.000000 49850000.000000,49500000.000000 Z"/> 
<svg:path style="fill:#000000; fill-opacity:1.0;  stroke:#000000; stroke-width:1.000000; stroke-opacity:1;  stroke-linecap:round; stroke-linejoin:round;fill-rule:evenodd;" d="M 50150000.000000,49500000.000000 50150000.000000,47750000.000000 51250000.000000,47750000.000000 51250000.000000,49500000.000000 Z"/> 
<svg:path style="fill:#000000; fill-opacity:1.0;  stroke:#000000; stroke-width:1.000000; stroke-opacity:1;  stroke-linecap:round; stroke-linejoin:round;fill-rule:evenodd;" d="M 48750000.000000,52250000.000000 48750000.000000,50500000.000000 49850000.000000,50500000.000000 49850000.000000,52250000.000000 Z"/> 
<svg:path style="fill:#000000; fill-opacity:1.0;  stroke:#000000; stroke-width:1.000000; stroke-opacity:1;  stroke-linecap:round; stroke-linejoin:round;fill-rule:evenodd;" d="M 50150000.000000,52250000.000000 50150000.000000,50500000.000000 51250000.000000,50500000.000000 51250000.000000,52250000.000000 Z"/> 
</svg:g>
<svg:g>
</svg:g>
<svg:g>
</svg:g>
<svg:g>
</svg:g>
</svg:g>
<svg:g style="fill:#000000; fill-opacity:1.0;  stroke:#000000; stroke-width:1.000000; stroke-opacity:1;  stroke-linecap:round; stroke-linejoin:round;">
<svg:g>
</svg:g>
<svg:g>
</svg:g>
<svg:g>
</svg:g>
<svg:g>
</svg:g>
</svg:g> 
</svg:g><svg:g><svg:title>SVG Picture created as kicadBoard-F_Silkscreen.svg date 2022/11/18 04:46:55 </svg:title>
  <svg:desc>Picture generated by PCBNEW </svg:desc>
<svg:g style="fill:#000000; fill-opacity:1.000000;stroke:#000000; stroke-opacity:1.000000; stroke-linecap:round; stroke-linejoin:round;" transform="translate(0 0) scale(1 1)">
</svg:g>
<svg:g style="fill:#000000; fill-opacity:0.0;  stroke:#000000; stroke-width:0.000000; stroke-opacity:1;  stroke-linecap:round; stroke-linejoin:round;">
</svg:g>
<svg:g style="fill:#F2EDA1; fill-opacity:0.0;  stroke:#F2EDA1; stroke-width:0.000000; stroke-opacity:1;  stroke-linecap:round; stroke-linejoin:round;">
</svg:g>
<svg:g style="fill:#F2EDA1; fill-opacity:0.0;  stroke:#F2EDA1; stroke-width:150000.000000; stroke-opacity:1;  stroke-linecap:round; stroke-linejoin:round;">
<svg:text x="50000000.000000" y="47300000.000000" textLength="19619049.000000" font-size="1333333.000000" lengthAdjust="spacingAndGlyphs" text-anchor="middle" opacity="0">FZKRRSHUNTOHMITELVK12</svg:text>
<svg:g class="stroked-text"><svg:desc>FZKRRSHUNTOHMITELVK12</svg:desc>
<svg:path d="M40761904 46728571 L40428571 46728571 "/>
<svg:path d="M40428571 47252380 L40428571 46252380 L40904761 46252380 "/>
<svg:path d="M41190476 46252380 L41857142 46252380 L41190476 47252380 L41857142 47252380 "/>
<svg:path d="M42238095 47252380 L42238095 46252380 "/>
<svg:path d="M42809523 47252380 L42380952 46680952 "/>
<svg:path d="M42809523 46252380 L42238095 46823809 "/>
<svg:path d="M43809523 47252380 L43476190 46776190 "/>
<svg:path d="M43238095 47252380 L43238095 46252380 L43619047 46252380 L43714285 46300000 L43761904 46347619 L43809523 46442857 L43809523 46585714 L43761904 46680952 L43714285 46728571 L43619047 46776190 L43238095 46776190 "/>
<svg:path d="M44809523 47252380 L44476190 46776190 "/>
<svg:path d="M44238095 47252380 L44238095 46252380 L44619047 46252380 L44714285 46300000 L44761904 46347619 L44809523 46442857 L44809523 46585714 L44761904 46680952 L44714285 46728571 L44619047 46776190 L44238095 46776190 "/>
<svg:path d="M45190476 47204761 L45333333 47252380 L45571428 47252380 L45666666 47204761 L45714285 47157142 L45761904 47061904 L45761904 46966666 L45714285 46871428 L45666666 46823809 L45571428 46776190 L45380952 46728571 L45285714 46680952 L45238095 46633333 L45190476 46538095 L45190476 46442857 L45238095 46347619 L45285714 46300000 L45380952 46252380 L45619047 46252380 L45761904 46300000 "/>
<svg:path d="M46190476 47252380 L46190476 46252380 "/>
<svg:path d="M46190476 46728571 L46761904 46728571 "/>
<svg:path d="M46761904 47252380 L46761904 46252380 "/>
<svg:path d="M47238095 46252380 L47238095 47061904 L47285714 47157142 L47333333 47204761 L47428571 47252380 L47619047 47252380 L47714285 47204761 L47761904 47157142 L47809523 47061904 L47809523 46252380 "/>
<svg:path d="M48285714 47252380 L48285714 46252380 L48857142 47252380 L48857142 46252380 "/>
<svg:path d="M49190476 46252380 L49761904 46252380 "/>
<svg:path d="M49476190 47252380 L49476190 46252380 "/>
<svg:path d="M50285714 46252380 L50476190 46252380 L50571428 46300000 L50666666 46395238 L50714285 46585714 L50714285 46919047 L50666666 47109523 L50571428 47204761 L50476190 47252380 L50285714 47252380 L50190476 47204761 L50095238 47109523 L50047619 46919047 L50047619 46585714 L50095238 46395238 L50190476 46300000 L50285714 46252380 "/>
<svg:path d="M51142857 47252380 L51142857 46252380 "/>
<svg:path d="M51142857 46728571 L51714285 46728571 "/>
<svg:path d="M51714285 47252380 L51714285 46252380 "/>
<svg:path d="M52190476 47252380 L52190476 46252380 L52523809 46966666 L52857142 46252380 L52857142 47252380 "/>
<svg:path d="M53333333 47252380 L53333333 46252380 "/>
<svg:path d="M53666666 46252380 L54238095 46252380 "/>
<svg:path d="M53952380 47252380 L53952380 46252380 "/>
<svg:path d="M54571428 46728571 L54904761 46728571 "/>
<svg:path d="M55047619 47252380 L54571428 47252380 L54571428 46252380 L55047619 46252380 "/>
<svg:path d="M55952380 47252380 L55476190 47252380 L55476190 46252380 "/>
<svg:path d="M56142857 46252380 L56476190 47252380 L56809523 46252380 "/>
<svg:path d="M57142857 47252380 L57142857 46252380 "/>
<svg:path d="M57714285 47252380 L57285714 46680952 "/>
<svg:path d="M57714285 46252380 L57142857 46823809 "/>
<svg:path d="M58666666 47252380 L58095238 47252380 "/>
<svg:path d="M58380952 47252380 L58380952 46252380 L58285714 46395238 L58190476 46490476 L58095238 46538095 "/>
<svg:path d="M59047619 46347619 L59095238 46300000 L59190476 46252380 L59428571 46252380 L59523809 46300000 L59571428 46347619 L59619047 46442857 L59619047 46538095 L59571428 46680952 L58999999 47252380 L59619047 47252380 "/>
</svg:g></svg:g>
<svg:g style="fill:#F2EDA1; fill-opacity:0.0;  stroke:#F2EDA1; stroke-width:120000.000000; stroke-opacity:1;  stroke-linecap:round; stroke-linejoin:round;">
<svg:path d="M49000000 50400000 L49000000 49600000 "/>
<svg:path d="M51000000 49600000 L51000000 50400000 "/>
<svg:g>
</svg:g>
<svg:g>
</svg:g>
<svg:g>
</svg:g>
<svg:g>
</svg:g>
</svg:g>
<svg:g style="fill:#000000; fill-opacity:0.0;  stroke:#000000; stroke-width:120000.000000; stroke-opacity:1;  stroke-linecap:round; stroke-linejoin:round;">
<svg:g>
</svg:g>
<svg:g>
</svg:g>
<svg:g>
</svg:g>
<svg:g>
</svg:g>
</svg:g> 
</svg:g><svg:g><svg:title>SVG Picture created as kicadBoard-Margin.svg date 2022/11/18 04:46:55 </svg:title>
  <svg:desc>Picture generated by PCBNEW </svg:desc>
<svg:g style="fill:#000000; fill-opacity:1.000000;stroke:#000000; stroke-opacity:1.000000; stroke-linecap:round; stroke-linejoin:round;" transform="translate(0 0) scale(1 1)">
</svg:g>
<svg:g style="fill:#000000; fill-opacity:0.0;  stroke:#000000; stroke-width:0.000000; stroke-opacity:1;  stroke-linecap:round; stroke-linejoin:round;">
<svg:g>
</svg:g>
<svg:g>
</svg:g>
<svg:g>
</svg:g>
<svg:g>
</svg:g>
</svg:g>
<svg:g style="fill:#000000; fill-opacity:0.0;  stroke:#000000; stroke-width:0.000000; stroke-opacity:1;  stroke-linecap:round; stroke-linejoin:round;">
<svg:g>
</svg:g>
<svg:g>
</svg:g>
<svg:g>
</svg:g>
<svg:g>
</svg:g>
</svg:g> 
</svg:g><svg:g><svg:title>SVG Picture created as kicadBoard-F_Cu.svg date 2022/11/18 04:46:55 </svg:title>
  <svg:desc>Picture generated by PCBNEW </svg:desc>
<svg:g style="fill:#000000; fill-opacity:1.000000;stroke:#000000; stroke-opacity:1.000000; stroke-linecap:round; stroke-linejoin:round;" transform="translate(0 0) scale(1 1)">
</svg:g>
<svg:g style="fill:#000000; fill-opacity:0.0;  stroke:#000000; stroke-width:0.000000; stroke-opacity:1;  stroke-linecap:round; stroke-linejoin:round;">
<svg:g>
</svg:g>
<svg:g style="fill:#C83434; fill-opacity:0.0;  stroke:#C83434; stroke-width:0.000000; stroke-opacity:1;  stroke-linecap:round; stroke-linejoin:round;">
</svg:g>
<svg:g style="fill:#C83434; fill-opacity:0.0;  stroke:#C83434; stroke-width:1.000000; stroke-opacity:1;  stroke-linecap:round; stroke-linejoin:round;">
</svg:g>
<svg:g style="fill:#C83434; fill-opacity:1.0;  stroke:#C83434; stroke-width:1.000000; stroke-opacity:1;  stroke-linecap:round; stroke-linejoin:round;">
<svg:path style="fill:#C83434; fill-opacity:1.0;  stroke:#C83434; stroke-width:1.000000; stroke-opacity:1;  stroke-linecap:round; stroke-linejoin:round;fill-rule:evenodd;" d="M 48750000.000000,49500000.000000 48750000.000000,47750000.000000 49850000.000000,47750000.000000 49850000.000000,49500000.000000 Z"/> 
<svg:path style="fill:#C83434; fill-opacity:1.0;  stroke:#C83434; stroke-width:1.000000; stroke-opacity:1;  stroke-linecap:round; stroke-linejoin:round;fill-rule:evenodd;" d="M 50150000.000000,49500000.000000 50150000.000000,47750000.000000 51250000.000000,47750000.000000 51250000.000000,49500000.000000 Z"/> 
<svg:path style="fill:#C83434; fill-opacity:1.0;  stroke:#C83434; stroke-width:1.000000; stroke-opacity:1;  stroke-linecap:round; stroke-linejoin:round;fill-rule:evenodd;" d="M 48750000.000000,52250000.000000 48750000.000000,50500000.000000 49850000.000000,50500000.000000 49850000.000000,52250000.000000 Z"/> 
<svg:path style="fill:#C83434; fill-opacity:1.0;  stroke:#C83434; stroke-width:1.000000; stroke-opacity:1;  stroke-linecap:round; stroke-linejoin:round;fill-rule:evenodd;" d="M 50150000.000000,52250000.000000 50150000.000000,50500000.000000 51250000.000000,50500000.000000 51250000.000000,52250000.000000 Z"/> 
</svg:g>
<svg:g>
</svg:g>
<svg:g>
</svg:g>
<svg:g>
</svg:g>
</svg:g>
<svg:g style="fill:#FFFFFF; fill-opacity:1.0;  stroke:#FFFFFF; stroke-width:1.000000; stroke-opacity:1;  stroke-linecap:round; stroke-linejoin:round;">
</svg:g>
<svg:g style="fill:#000000; fill-opacity:1.0;  stroke:#000000; stroke-width:1.000000; stroke-opacity:1;  stroke-linecap:round; stroke-linejoin:round;">
<svg:g>
</svg:g>
<svg:g>
</svg:g>
<svg:g>
</svg:g>
<svg:g>
</svg:g>
</svg:g> 
</svg:g></svg>
