<?xml version='1.0' encoding='ASCII' standalone='yes'?>
<svg xmlns:svg="http://www.w3.org/2000/svg" xmlns="http://www.w3.org/2000/svg" xmlns:xlink="http://www.w3.org/1999/xlink" version="1.1" width="9.999980cm" height="9.999980cm" viewBox="0 0 99999800 99999800">
<title>SVG Picture created as kicadBoard-B_Cu.svg date 2022/12/02 22:03:08 </title>
  <desc>Picture generated by PCBNEW </desc>
<g style="fill:#000000; fill-opacity:1.000000;stroke:#000000; stroke-opacity:1.000000; stroke-linecap:round; stroke-linejoin:round;" transform="translate(0 0) scale(1 1)">
</g>
<g style="fill:#000000; fill-opacity:0.0;  stroke:#000000; stroke-width:0.000000; stroke-opacity:1;  stroke-linecap:round; stroke-linejoin:round;">
<g>
</g>
<g>
</g>
<g>
</g>
<g>
</g>
</g>
<g style="fill:#FFFFFF; fill-opacity:0.0;  stroke:#FFFFFF; stroke-width:0.000000; stroke-opacity:1;  stroke-linecap:round; stroke-linejoin:round;">
</g>
<g style="fill:#000000; fill-opacity:0.0;  stroke:#000000; stroke-width:0.000000; stroke-opacity:1;  stroke-linecap:round; stroke-linejoin:round;">
<g>
</g>
<g>
</g>
<g>
</g>
<g>
</g>
</g> 
<svg:g><svg:title>SVG Picture created as kicadBoard-B_Adhesive.svg date 2022/12/02 22:03:08 </svg:title>
  <svg:desc>Picture generated by PCBNEW </svg:desc>
<svg:g style="fill:#000000; fill-opacity:1.000000;stroke:#000000; stroke-opacity:1.000000; stroke-linecap:round; stroke-linejoin:round;" transform="translate(0 0) scale(1 1)">
</svg:g>
<svg:g style="fill:#000000; fill-opacity:0.0;  stroke:#000000; stroke-width:0.000000; stroke-opacity:1;  stroke-linecap:round; stroke-linejoin:round;">
<svg:g>
</svg:g>
<svg:g>
</svg:g>
<svg:g>
</svg:g>
<svg:g>
</svg:g>
</svg:g>
<svg:g style="fill:#000000; fill-opacity:0.0;  stroke:#000000; stroke-width:0.000000; stroke-opacity:1;  stroke-linecap:round; stroke-linejoin:round;">
<svg:g>
</svg:g>
<svg:g>
</svg:g>
<svg:g>
</svg:g>
<svg:g>
</svg:g>
</svg:g> 
</svg:g><svg:g><svg:title>SVG Picture created as kicadBoard-B_Courtyard.svg date 2022/12/02 22:03:08 </svg:title>
  <svg:desc>Picture generated by PCBNEW </svg:desc>
<svg:g style="fill:#000000; fill-opacity:1.000000;stroke:#000000; stroke-opacity:1.000000; stroke-linecap:round; stroke-linejoin:round;" transform="translate(0 0) scale(1 1)">
</svg:g>
<svg:g style="fill:#000000; fill-opacity:0.0;  stroke:#000000; stroke-width:0.000000; stroke-opacity:1;  stroke-linecap:round; stroke-linejoin:round;">
<svg:g>
</svg:g>
<svg:g>
</svg:g>
<svg:g>
</svg:g>
<svg:g>
</svg:g>
</svg:g>
<svg:g style="fill:#000000; fill-opacity:0.0;  stroke:#000000; stroke-width:0.000000; stroke-opacity:1;  stroke-linecap:round; stroke-linejoin:round;">
<svg:g>
</svg:g>
<svg:g>
</svg:g>
<svg:g>
</svg:g>
<svg:g>
</svg:g>
</svg:g> 
</svg:g><svg:g><svg:title>SVG Picture created as kicadBoard-B_Fab.svg date 2022/12/02 22:03:08 </svg:title>
  <svg:desc>Picture generated by PCBNEW </svg:desc>
<svg:g style="fill:#000000; fill-opacity:1.000000;stroke:#000000; stroke-opacity:1.000000; stroke-linecap:round; stroke-linejoin:round;" transform="translate(0 0) scale(1 1)">
</svg:g>
<svg:g style="fill:#000000; fill-opacity:0.0;  stroke:#000000; stroke-width:0.000000; stroke-opacity:1;  stroke-linecap:round; stroke-linejoin:round;">
<svg:g>
</svg:g>
<svg:g>
</svg:g>
<svg:g>
</svg:g>
<svg:g>
</svg:g>
</svg:g>
<svg:g style="fill:#000000; fill-opacity:0.0;  stroke:#000000; stroke-width:0.000000; stroke-opacity:1;  stroke-linecap:round; stroke-linejoin:round;">
<svg:g>
</svg:g>
<svg:g>
</svg:g>
<svg:g>
</svg:g>
<svg:g>
</svg:g>
</svg:g> 
</svg:g><svg:g><svg:title>SVG Picture created as kicadBoard-B_Mask.svg date 2022/12/02 22:03:08 </svg:title>
  <svg:desc>Picture generated by PCBNEW </svg:desc>
<svg:g style="fill:#000000; fill-opacity:1.000000;stroke:#000000; stroke-opacity:1.000000; stroke-linecap:round; stroke-linejoin:round;" transform="translate(0 0) scale(1 1)">
</svg:g>
<svg:g style="fill:#000000; fill-opacity:0.0;  stroke:#000000; stroke-width:0.000000; stroke-opacity:1;  stroke-linecap:round; stroke-linejoin:round;">
<svg:g>
</svg:g>
<svg:g>
</svg:g>
<svg:g>
</svg:g>
<svg:g>
</svg:g>
</svg:g>
<svg:g style="fill:#000000; fill-opacity:0.0;  stroke:#000000; stroke-width:0.000000; stroke-opacity:1;  stroke-linecap:round; stroke-linejoin:round;">
<svg:g>
</svg:g>
<svg:g>
</svg:g>
<svg:g>
</svg:g>
<svg:g>
</svg:g>
</svg:g> 
</svg:g><svg:g><svg:title>SVG Picture created as kicadBoard-B_Paste.svg date 2022/12/02 22:03:08 </svg:title>
  <svg:desc>Picture generated by PCBNEW </svg:desc>
<svg:g style="fill:#000000; fill-opacity:1.000000;stroke:#000000; stroke-opacity:1.000000; stroke-linecap:round; stroke-linejoin:round;" transform="translate(0 0) scale(1 1)">
</svg:g>
<svg:g style="fill:#000000; fill-opacity:0.0;  stroke:#000000; stroke-width:0.000000; stroke-opacity:1;  stroke-linecap:round; stroke-linejoin:round;">
<svg:g>
</svg:g>
<svg:g>
</svg:g>
<svg:g>
</svg:g>
<svg:g>
</svg:g>
</svg:g>
<svg:g style="fill:#000000; fill-opacity:0.0;  stroke:#000000; stroke-width:0.000000; stroke-opacity:1;  stroke-linecap:round; stroke-linejoin:round;">
<svg:g>
</svg:g>
<svg:g>
</svg:g>
<svg:g>
</svg:g>
<svg:g>
</svg:g>
</svg:g> 
</svg:g><svg:g><svg:title>SVG Picture created as kicadBoard-B_Silkscreen.svg date 2022/12/02 22:03:08 </svg:title>
  <svg:desc>Picture generated by PCBNEW </svg:desc>
<svg:g style="fill:#000000; fill-opacity:1.000000;stroke:#000000; stroke-opacity:1.000000; stroke-linecap:round; stroke-linejoin:round;" transform="translate(0 0) scale(1 1)">
</svg:g>
<svg:g style="fill:#000000; fill-opacity:0.0;  stroke:#000000; stroke-width:0.000000; stroke-opacity:1;  stroke-linecap:round; stroke-linejoin:round;">
<svg:g>
</svg:g>
<svg:g>
</svg:g>
<svg:g>
</svg:g>
<svg:g>
</svg:g>
</svg:g>
<svg:g style="fill:#000000; fill-opacity:0.0;  stroke:#000000; stroke-width:0.000000; stroke-opacity:1;  stroke-linecap:round; stroke-linejoin:round;">
<svg:g>
</svg:g>
<svg:g>
</svg:g>
<svg:g>
</svg:g>
<svg:g>
</svg:g>
</svg:g> 
</svg:g><svg:g><svg:title>SVG Picture created as kicadBoard-Edge_Cuts.svg date 2022/12/02 22:03:08 </svg:title>
  <svg:desc>Picture generated by PCBNEW </svg:desc>
<svg:g style="fill:#000000; fill-opacity:1.000000;stroke:#000000; stroke-opacity:1.000000; stroke-linecap:round; stroke-linejoin:round;" transform="translate(0 0) scale(1 1)">
</svg:g>
<svg:g style="fill:#000000; fill-opacity:0.0;  stroke:#000000; stroke-width:0.000000; stroke-opacity:1;  stroke-linecap:round; stroke-linejoin:round;">
<svg:g>
</svg:g>
<svg:g>
</svg:g>
<svg:g>
</svg:g>
<svg:g>
</svg:g>
</svg:g> 
</svg:g><svg:g><svg:title>SVG Picture created as kicadBoard-F_Adhesive.svg date 2022/12/02 22:03:08 </svg:title>
  <svg:desc>Picture generated by PCBNEW </svg:desc>
<svg:g style="fill:#000000; fill-opacity:1.000000;stroke:#000000; stroke-opacity:1.000000; stroke-linecap:round; stroke-linejoin:round;" transform="translate(0 0) scale(1 1)">
</svg:g>
<svg:g style="fill:#000000; fill-opacity:0.0;  stroke:#000000; stroke-width:0.000000; stroke-opacity:1;  stroke-linecap:round; stroke-linejoin:round;">
<svg:g>
</svg:g>
<svg:g>
</svg:g>
<svg:g>
</svg:g>
<svg:g>
</svg:g>
</svg:g>
<svg:g style="fill:#000000; fill-opacity:0.0;  stroke:#000000; stroke-width:0.000000; stroke-opacity:1;  stroke-linecap:round; stroke-linejoin:round;">
<svg:g>
</svg:g>
<svg:g>
</svg:g>
<svg:g>
</svg:g>
<svg:g>
</svg:g>
</svg:g> 
</svg:g><svg:g><svg:title>SVG Picture created as kicadBoard-F_Courtyard.svg date 2022/12/02 22:03:08 </svg:title>
  <svg:desc>Picture generated by PCBNEW </svg:desc>
<svg:g style="fill:#000000; fill-opacity:1.000000;stroke:#000000; stroke-opacity:1.000000; stroke-linecap:round; stroke-linejoin:round;" transform="translate(0 0) scale(1 1)">
</svg:g>
<svg:g style="fill:#000000; fill-opacity:0.0;  stroke:#000000; stroke-width:0.000000; stroke-opacity:1;  stroke-linecap:round; stroke-linejoin:round;">
<svg:g>
</svg:g>
<svg:g>
</svg:g>
<svg:g>
</svg:g>
<svg:g>
</svg:g>
</svg:g>
<svg:g style="fill:#000000; fill-opacity:0.0;  stroke:#000000; stroke-width:0.000000; stroke-opacity:1;  stroke-linecap:round; stroke-linejoin:round;">
<svg:g>
</svg:g>
<svg:g>
</svg:g>
<svg:g>
</svg:g>
<svg:g>
</svg:g>
</svg:g> 
</svg:g><svg:g><svg:title>SVG Picture created as kicadBoard-F_Cu.svg date 2022/12/02 22:03:08 </svg:title>
  <svg:desc>Picture generated by PCBNEW </svg:desc>
<svg:g style="fill:#000000; fill-opacity:1.000000;stroke:#000000; stroke-opacity:1.000000; stroke-linecap:round; stroke-linejoin:round;" transform="translate(0 0) scale(1 1)">
</svg:g>
<svg:g style="fill:#000000; fill-opacity:0.0;  stroke:#000000; stroke-width:0.000000; stroke-opacity:1;  stroke-linecap:round; stroke-linejoin:round;">
<svg:g>
</svg:g>
<svg:g style="fill:#C83434; fill-opacity:0.0;  stroke:#C83434; stroke-width:0.000000; stroke-opacity:1;  stroke-linecap:round; stroke-linejoin:round;">
</svg:g>
<svg:g style="fill:#C83434; fill-opacity:0.0;  stroke:#C83434; stroke-width:1.000000; stroke-opacity:1;  stroke-linecap:round; stroke-linejoin:round;">
</svg:g>
<svg:g style="fill:#C83434; fill-opacity:1.0;  stroke:#C83434; stroke-width:1.000000; stroke-opacity:1;  stroke-linecap:round; stroke-linejoin:round;">
<svg:path style="fill:#C83434; fill-opacity:1.0;  stroke:#C83434; stroke-width:1.000000; stroke-opacity:1;  stroke-linecap:round; stroke-linejoin:round;fill-rule:evenodd;" d="M 47025001.000000,48649999.000000 47025001.000000,48350001.000000 48174999.000000,48350001.000000 48174999.000000,48649999.000000 Z"/> 
<svg:path style="fill:#C83434; fill-opacity:1.0;  stroke:#C83434; stroke-width:1.000000; stroke-opacity:1;  stroke-linecap:round; stroke-linejoin:round;fill-rule:evenodd;" d="M 47025001.000000,49149999.000000 47025001.000000,48850001.000000 48174999.000000,48850001.000000 48174999.000000,49149999.000000 Z"/> 
<svg:path style="fill:#C83434; fill-opacity:1.0;  stroke:#C83434; stroke-width:1.000000; stroke-opacity:1;  stroke-linecap:round; stroke-linejoin:round;fill-rule:evenodd;" d="M 47025001.000000,49649999.000000 47025001.000000,49350001.000000 48174999.000000,49350001.000000 48174999.000000,49649999.000000 Z"/> 
<svg:path style="fill:#C83434; fill-opacity:1.0;  stroke:#C83434; stroke-width:1.000000; stroke-opacity:1;  stroke-linecap:round; stroke-linejoin:round;fill-rule:evenodd;" d="M 47025001.000000,50149999.000000 47025001.000000,49850001.000000 48174999.000000,49850001.000000 48174999.000000,50149999.000000 Z"/> 
<svg:path style="fill:#C83434; fill-opacity:1.0;  stroke:#C83434; stroke-width:1.000000; stroke-opacity:1;  stroke-linecap:round; stroke-linejoin:round;fill-rule:evenodd;" d="M 47025001.000000,50649999.000000 47025001.000000,50350001.000000 48174999.000000,50350001.000000 48174999.000000,50649999.000000 Z"/> 
<svg:path style="fill:#C83434; fill-opacity:1.0;  stroke:#C83434; stroke-width:1.000000; stroke-opacity:1;  stroke-linecap:round; stroke-linejoin:round;fill-rule:evenodd;" d="M 47025001.000000,51149999.000000 47025001.000000,50850001.000000 48174999.000000,50850001.000000 48174999.000000,51149999.000000 Z"/> 
<svg:path style="fill:#C83434; fill-opacity:1.0;  stroke:#C83434; stroke-width:1.000000; stroke-opacity:1;  stroke-linecap:round; stroke-linejoin:round;fill-rule:evenodd;" d="M 47025001.000000,51649999.000000 47025001.000000,51350001.000000 48174999.000000,51350001.000000 48174999.000000,51649999.000000 Z"/> 
<svg:path style="fill:#C83434; fill-opacity:1.0;  stroke:#C83434; stroke-width:1.000000; stroke-opacity:1;  stroke-linecap:round; stroke-linejoin:round;fill-rule:evenodd;" d="M 48350001.000000,52974999.000000 48350001.000000,51825001.000000 48649999.000000,51825001.000000 48649999.000000,52974999.000000 Z"/> 
<svg:path style="fill:#C83434; fill-opacity:1.0;  stroke:#C83434; stroke-width:1.000000; stroke-opacity:1;  stroke-linecap:round; stroke-linejoin:round;fill-rule:evenodd;" d="M 48850001.000000,52974999.000000 48850001.000000,51825001.000000 49149999.000000,51825001.000000 49149999.000000,52974999.000000 Z"/> 
<svg:path style="fill:#C83434; fill-opacity:1.0;  stroke:#C83434; stroke-width:1.000000; stroke-opacity:1;  stroke-linecap:round; stroke-linejoin:round;fill-rule:evenodd;" d="M 49350001.000000,52974999.000000 49350001.000000,51825001.000000 49649999.000000,51825001.000000 49649999.000000,52974999.000000 Z"/> 
<svg:path style="fill:#C83434; fill-opacity:1.0;  stroke:#C83434; stroke-width:1.000000; stroke-opacity:1;  stroke-linecap:round; stroke-linejoin:round;fill-rule:evenodd;" d="M 49850001.000000,52974999.000000 49850001.000000,51825001.000000 50149999.000000,51825001.000000 50149999.000000,52974999.000000 Z"/> 
<svg:path style="fill:#C83434; fill-opacity:1.0;  stroke:#C83434; stroke-width:1.000000; stroke-opacity:1;  stroke-linecap:round; stroke-linejoin:round;fill-rule:evenodd;" d="M 50350001.000000,52974999.000000 50350001.000000,51825001.000000 50649999.000000,51825001.000000 50649999.000000,52974999.000000 Z"/> 
<svg:path style="fill:#C83434; fill-opacity:1.0;  stroke:#C83434; stroke-width:1.000000; stroke-opacity:1;  stroke-linecap:round; stroke-linejoin:round;fill-rule:evenodd;" d="M 50850001.000000,52974999.000000 50850001.000000,51825001.000000 51149999.000000,51825001.000000 51149999.000000,52974999.000000 Z"/> 
<svg:path style="fill:#C83434; fill-opacity:1.0;  stroke:#C83434; stroke-width:1.000000; stroke-opacity:1;  stroke-linecap:round; stroke-linejoin:round;fill-rule:evenodd;" d="M 51350001.000000,52974999.000000 51350001.000000,51825001.000000 51649999.000000,51825001.000000 51649999.000000,52974999.000000 Z"/> 
<svg:path style="fill:#C83434; fill-opacity:1.0;  stroke:#C83434; stroke-width:1.000000; stroke-opacity:1;  stroke-linecap:round; stroke-linejoin:round;fill-rule:evenodd;" d="M 51825001.000000,51649999.000000 51825001.000000,51350001.000000 52974999.000000,51350001.000000 52974999.000000,51649999.000000 Z"/> 
<svg:path style="fill:#C83434; fill-opacity:1.0;  stroke:#C83434; stroke-width:1.000000; stroke-opacity:1;  stroke-linecap:round; stroke-linejoin:round;fill-rule:evenodd;" d="M 51825001.000000,51149999.000000 51825001.000000,50850001.000000 52974999.000000,50850001.000000 52974999.000000,51149999.000000 Z"/> 
<svg:path style="fill:#C83434; fill-opacity:1.0;  stroke:#C83434; stroke-width:1.000000; stroke-opacity:1;  stroke-linecap:round; stroke-linejoin:round;fill-rule:evenodd;" d="M 51825001.000000,50649999.000000 51825001.000000,50350001.000000 52974999.000000,50350001.000000 52974999.000000,50649999.000000 Z"/> 
<svg:path style="fill:#C83434; fill-opacity:1.0;  stroke:#C83434; stroke-width:1.000000; stroke-opacity:1;  stroke-linecap:round; stroke-linejoin:round;fill-rule:evenodd;" d="M 51825001.000000,50149999.000000 51825001.000000,49850001.000000 52974999.000000,49850001.000000 52974999.000000,50149999.000000 Z"/> 
<svg:path style="fill:#C83434; fill-opacity:1.0;  stroke:#C83434; stroke-width:1.000000; stroke-opacity:1;  stroke-linecap:round; stroke-linejoin:round;fill-rule:evenodd;" d="M 51825001.000000,49649999.000000 51825001.000000,49350001.000000 52974999.000000,49350001.000000 52974999.000000,49649999.000000 Z"/> 
<svg:path style="fill:#C83434; fill-opacity:1.0;  stroke:#C83434; stroke-width:1.000000; stroke-opacity:1;  stroke-linecap:round; stroke-linejoin:round;fill-rule:evenodd;" d="M 51825001.000000,49149999.000000 51825001.000000,48850001.000000 52974999.000000,48850001.000000 52974999.000000,49149999.000000 Z"/> 
<svg:path style="fill:#C83434; fill-opacity:1.0;  stroke:#C83434; stroke-width:1.000000; stroke-opacity:1;  stroke-linecap:round; stroke-linejoin:round;fill-rule:evenodd;" d="M 51825001.000000,48649999.000000 51825001.000000,48350001.000000 52974999.000000,48350001.000000 52974999.000000,48649999.000000 Z"/> 
<svg:path style="fill:#C83434; fill-opacity:1.0;  stroke:#C83434; stroke-width:1.000000; stroke-opacity:1;  stroke-linecap:round; stroke-linejoin:round;fill-rule:evenodd;" d="M 51350001.000000,48174999.000000 51350001.000000,47025001.000000 51649999.000000,47025001.000000 51649999.000000,48174999.000000 Z"/> 
<svg:path style="fill:#C83434; fill-opacity:1.0;  stroke:#C83434; stroke-width:1.000000; stroke-opacity:1;  stroke-linecap:round; stroke-linejoin:round;fill-rule:evenodd;" d="M 50850001.000000,48174999.000000 50850001.000000,47025001.000000 51149999.000000,47025001.000000 51149999.000000,48174999.000000 Z"/> 
<svg:path style="fill:#C83434; fill-opacity:1.0;  stroke:#C83434; stroke-width:1.000000; stroke-opacity:1;  stroke-linecap:round; stroke-linejoin:round;fill-rule:evenodd;" d="M 50350001.000000,48174999.000000 50350001.000000,47025001.000000 50649999.000000,47025001.000000 50649999.000000,48174999.000000 Z"/> 
<svg:path style="fill:#C83434; fill-opacity:1.0;  stroke:#C83434; stroke-width:1.000000; stroke-opacity:1;  stroke-linecap:round; stroke-linejoin:round;fill-rule:evenodd;" d="M 49850001.000000,48174999.000000 49850001.000000,47025001.000000 50149999.000000,47025001.000000 50149999.000000,48174999.000000 Z"/> 
<svg:path style="fill:#C83434; fill-opacity:1.0;  stroke:#C83434; stroke-width:1.000000; stroke-opacity:1;  stroke-linecap:round; stroke-linejoin:round;fill-rule:evenodd;" d="M 49350001.000000,48174999.000000 49350001.000000,47025001.000000 49649999.000000,47025001.000000 49649999.000000,48174999.000000 Z"/> 
<svg:path style="fill:#C83434; fill-opacity:1.0;  stroke:#C83434; stroke-width:1.000000; stroke-opacity:1;  stroke-linecap:round; stroke-linejoin:round;fill-rule:evenodd;" d="M 48850001.000000,48174999.000000 48850001.000000,47025001.000000 49149999.000000,47025001.000000 49149999.000000,48174999.000000 Z"/> 
<svg:path style="fill:#C83434; fill-opacity:1.0;  stroke:#C83434; stroke-width:1.000000; stroke-opacity:1;  stroke-linecap:round; stroke-linejoin:round;fill-rule:evenodd;" d="M 48350001.000000,48174999.000000 48350001.000000,47025001.000000 48649999.000000,47025001.000000 48649999.000000,48174999.000000 Z"/> 
<svg:path style="fill:#C83434; fill-opacity:1.0;  stroke:#C83434; stroke-width:1.000000; stroke-opacity:1;  stroke-linecap:round; stroke-linejoin:round;fill-rule:evenodd;" d="M 48425001.000000,51574999.000000 48425001.000000,48425001.000000 51574999.000000,48425001.000000 51574999.000000,51574999.000000 Z"/> 
</svg:g>
<svg:g>
</svg:g>
<svg:g>
</svg:g>
<svg:g>
</svg:g>
</svg:g>
<svg:g style="fill:#FFFFFF; fill-opacity:1.0;  stroke:#FFFFFF; stroke-width:1.000000; stroke-opacity:1;  stroke-linecap:round; stroke-linejoin:round;">
</svg:g>
<svg:g style="fill:#000000; fill-opacity:1.0;  stroke:#000000; stroke-width:1.000000; stroke-opacity:1;  stroke-linecap:round; stroke-linejoin:round;">
<svg:g>
</svg:g>
<svg:g>
</svg:g>
<svg:g>
</svg:g>
<svg:g>
</svg:g>
</svg:g> 
</svg:g><svg:g><svg:title>SVG Picture created as kicadBoard-F_Fab.svg date 2022/12/02 22:03:08 </svg:title>
  <svg:desc>Picture generated by PCBNEW </svg:desc>
<svg:g style="fill:#000000; fill-opacity:1.000000;stroke:#000000; stroke-opacity:1.000000; stroke-linecap:round; stroke-linejoin:round;" transform="translate(0 0) scale(1 1)">
</svg:g>
<svg:g style="fill:#000000; fill-opacity:0.0;  stroke:#000000; stroke-width:0.000000; stroke-opacity:1;  stroke-linecap:round; stroke-linejoin:round;">
</svg:g>
<svg:g style="fill:#AFAFAF; fill-opacity:0.0;  stroke:#AFAFAF; stroke-width:0.000000; stroke-opacity:1;  stroke-linecap:round; stroke-linejoin:round;">
</svg:g>
<svg:g style="fill:#AFAFAF; fill-opacity:0.0;  stroke:#AFAFAF; stroke-width:101600.000000; stroke-opacity:1;  stroke-linecap:round; stroke-linejoin:round;">
<svg:text x="47025000.000000" y="54480000.000000" textLength="6808651.000000" font-size="1557866.000000" lengthAdjust="spacingAndGlyphs" text-anchor="start" opacity="0">&gt;VALUE</svg:text>
<svg:g class="stroked-text"><svg:desc>&gt;VALUE</svg:desc>
<svg:path d="M47369230 53645428 L48259440 53979257 L47369230 54313085 "/>
<svg:path d="M48648906 53255961 L49038373 54424361 L49427840 53255961 "/>
<svg:path d="M49761668 54090533 L50318049 54090533 "/>
<svg:path d="M49650392 54424361 L50039859 53255961 L50429325 54424361 "/>
<svg:path d="M51375173 54424361 L50818792 54424361 L50818792 53255961 "/>
<svg:path d="M51764640 53255961 L51764640 54201809 L51820278 54313085 L51875916 54368723 L51987192 54424361 L52209744 54424361 L52321020 54368723 L52376659 54313085 L52432297 54201809 L52432297 53255961 "/>
<svg:path d="M52988678 53812342 L53378144 53812342 "/>
<svg:path d="M53545059 54424361 L52988678 54424361 L52988678 53255961 L53545059 53255961 "/>
</svg:g></svg:g>
<svg:g style="fill:#AFAFAF; fill-opacity:0.0;  stroke:#AFAFAF; stroke-width:203200.000000; stroke-opacity:1;  stroke-linecap:round; stroke-linejoin:round;">
<svg:path d="M52398400 52398400 L52398400 47601600 "/>
<svg:path d="M47601600 52398400 L52398400 52398400 "/>
<svg:path d="M47601600 47601600 L47601600 52398400 "/>
<svg:path d="M52398400 47601600 L47601600 47601600 "/>
<svg:g>
</svg:g>
<svg:g>
</svg:g>
<svg:g>
</svg:g>
<svg:g>
</svg:g>
</svg:g>
<svg:g style="fill:#000000; fill-opacity:0.0;  stroke:#000000; stroke-width:203200.000000; stroke-opacity:1;  stroke-linecap:round; stroke-linejoin:round;">
<svg:g>
</svg:g>
<svg:g>
</svg:g>
<svg:g>
</svg:g>
<svg:g>
</svg:g>
</svg:g> 
</svg:g><svg:g><svg:title>SVG Picture created as kicadBoard-F_Mask.svg date 2022/12/02 22:03:08 </svg:title>
  <svg:desc>Picture generated by PCBNEW </svg:desc>
<svg:g style="fill:#000000; fill-opacity:1.000000;stroke:#000000; stroke-opacity:1.000000; stroke-linecap:round; stroke-linejoin:round;" transform="translate(0 0) scale(1 1)">
</svg:g>
<svg:g style="fill:#000000; fill-opacity:0.0;  stroke:#000000; stroke-width:0.000000; stroke-opacity:1;  stroke-linecap:round; stroke-linejoin:round;">
</svg:g>
<svg:g style="fill:#D864FF; fill-opacity:0.0;  stroke:#D864FF; stroke-width:0.000000; stroke-opacity:1;  stroke-linecap:round; stroke-linejoin:round;">
</svg:g>
<svg:g style="fill:#D864FF; fill-opacity:1.0;  stroke:#D864FF; stroke-width:1.000000; stroke-opacity:1;  stroke-linecap:round; stroke-linejoin:round;">
<svg:path style="fill:#D864FF; fill-opacity:1.0;  stroke:#D864FF; stroke-width:1.000000; stroke-opacity:1;  stroke-linecap:round; stroke-linejoin:round;fill-rule:evenodd;" d="M 51575000.000000,51575000.000000 48425000.000000,51575000.000000 48425000.000000,48689615.000000 48564594.000000,48659121.000000 48620953.000000,48620953.000000 48659121.000000,48564594.000000 48689615.000000,48425000.000000 51575000.000000,48425000.000000 Z"/> 
<svg:g>
</svg:g>
<svg:g style="fill:#000000; fill-opacity:1.0;  stroke:#000000; stroke-width:1.000000; stroke-opacity:1;  stroke-linecap:round; stroke-linejoin:round;">
<svg:path style="fill:#000000; fill-opacity:1.0;  stroke:#000000; stroke-width:1.000000; stroke-opacity:1;  stroke-linecap:round; stroke-linejoin:round;fill-rule:evenodd;" d="M 46923400.000000,48350000.000000 46931134.000000,48311119.000000 46953158.000000,48278158.000000 46986119.000000,48256134.000000 47025000.000000,48248400.000000 48175000.000000,48248400.000000 48213881.000000,48256134.000000 48246842.000000,48278158.000000 48268866.000000,48311119.000000 48276600.000000,48350000.000000 48276600.000000,48650000.000000 48268866.000000,48688881.000000 48246842.000000,48721842.000000 48213881.000000,48743866.000000 48175000.000000,48751600.000000 47025000.000000,48751600.000000 46986119.000000,48743866.000000 46953158.000000,48721842.000000 46931134.000000,48688881.000000 46923400.000000,48650000.000000 Z"/> 
<svg:path style="fill:#000000; fill-opacity:1.0;  stroke:#000000; stroke-width:1.000000; stroke-opacity:1;  stroke-linecap:round; stroke-linejoin:round;fill-rule:evenodd;" d="M 46923400.000000,48850000.000000 46931134.000000,48811119.000000 46953158.000000,48778158.000000 46986119.000000,48756134.000000 47025000.000000,48748400.000000 48175000.000000,48748400.000000 48213881.000000,48756134.000000 48246842.000000,48778158.000000 48268866.000000,48811119.000000 48276600.000000,48850000.000000 48276600.000000,49150000.000000 48268866.000000,49188881.000000 48246842.000000,49221842.000000 48213881.000000,49243866.000000 48175000.000000,49251600.000000 47025000.000000,49251600.000000 46986119.000000,49243866.000000 46953158.000000,49221842.000000 46931134.000000,49188881.000000 46923400.000000,49150000.000000 Z"/> 
<svg:path style="fill:#000000; fill-opacity:1.0;  stroke:#000000; stroke-width:1.000000; stroke-opacity:1;  stroke-linecap:round; stroke-linejoin:round;fill-rule:evenodd;" d="M 46923400.000000,49350000.000000 46931134.000000,49311119.000000 46953158.000000,49278158.000000 46986119.000000,49256134.000000 47025000.000000,49248400.000000 48175000.000000,49248400.000000 48213881.000000,49256134.000000 48246842.000000,49278158.000000 48268866.000000,49311119.000000 48276600.000000,49350000.000000 48276600.000000,49650000.000000 48268866.000000,49688881.000000 48246842.000000,49721842.000000 48213881.000000,49743866.000000 48175000.000000,49751600.000000 47025000.000000,49751600.000000 46986119.000000,49743866.000000 46953158.000000,49721842.000000 46931134.000000,49688881.000000 46923400.000000,49650000.000000 Z"/> 
<svg:path style="fill:#000000; fill-opacity:1.0;  stroke:#000000; stroke-width:1.000000; stroke-opacity:1;  stroke-linecap:round; stroke-linejoin:round;fill-rule:evenodd;" d="M 46923400.000000,49850000.000000 46931134.000000,49811119.000000 46953158.000000,49778158.000000 46986119.000000,49756134.000000 47025000.000000,49748400.000000 48175000.000000,49748400.000000 48213881.000000,49756134.000000 48246842.000000,49778158.000000 48268866.000000,49811119.000000 48276600.000000,49850000.000000 48276600.000000,50150000.000000 48268866.000000,50188881.000000 48246842.000000,50221842.000000 48213881.000000,50243866.000000 48175000.000000,50251600.000000 47025000.000000,50251600.000000 46986119.000000,50243866.000000 46953158.000000,50221842.000000 46931134.000000,50188881.000000 46923400.000000,50150000.000000 Z"/> 
<svg:path style="fill:#000000; fill-opacity:1.0;  stroke:#000000; stroke-width:1.000000; stroke-opacity:1;  stroke-linecap:round; stroke-linejoin:round;fill-rule:evenodd;" d="M 46923400.000000,50350000.000000 46931134.000000,50311119.000000 46953158.000000,50278158.000000 46986119.000000,50256134.000000 47025000.000000,50248400.000000 48175000.000000,50248400.000000 48213881.000000,50256134.000000 48246842.000000,50278158.000000 48268866.000000,50311119.000000 48276600.000000,50350000.000000 48276600.000000,50650000.000000 48268866.000000,50688881.000000 48246842.000000,50721842.000000 48213881.000000,50743866.000000 48175000.000000,50751600.000000 47025000.000000,50751600.000000 46986119.000000,50743866.000000 46953158.000000,50721842.000000 46931134.000000,50688881.000000 46923400.000000,50650000.000000 Z"/> 
<svg:path style="fill:#000000; fill-opacity:1.0;  stroke:#000000; stroke-width:1.000000; stroke-opacity:1;  stroke-linecap:round; stroke-linejoin:round;fill-rule:evenodd;" d="M 46923400.000000,50850000.000000 46931134.000000,50811119.000000 46953158.000000,50778158.000000 46986119.000000,50756134.000000 47025000.000000,50748400.000000 48175000.000000,50748400.000000 48213881.000000,50756134.000000 48246842.000000,50778158.000000 48268866.000000,50811119.000000 48276600.000000,50850000.000000 48276600.000000,51150000.000000 48268866.000000,51188881.000000 48246842.000000,51221842.000000 48213881.000000,51243866.000000 48175000.000000,51251600.000000 47025000.000000,51251600.000000 46986119.000000,51243866.000000 46953158.000000,51221842.000000 46931134.000000,51188881.000000 46923400.000000,51150000.000000 Z"/> 
<svg:path style="fill:#000000; fill-opacity:1.0;  stroke:#000000; stroke-width:1.000000; stroke-opacity:1;  stroke-linecap:round; stroke-linejoin:round;fill-rule:evenodd;" d="M 46923400.000000,51350000.000000 46931134.000000,51311119.000000 46953158.000000,51278158.000000 46986119.000000,51256134.000000 47025000.000000,51248400.000000 48175000.000000,51248400.000000 48213881.000000,51256134.000000 48246842.000000,51278158.000000 48268866.000000,51311119.000000 48276600.000000,51350000.000000 48276600.000000,51650000.000000 48268866.000000,51688881.000000 48246842.000000,51721842.000000 48213881.000000,51743866.000000 48175000.000000,51751600.000000 47025000.000000,51751600.000000 46986119.000000,51743866.000000 46953158.000000,51721842.000000 46931134.000000,51688881.000000 46923400.000000,51650000.000000 Z"/> 
<svg:path style="fill:#000000; fill-opacity:1.0;  stroke:#000000; stroke-width:1.000000; stroke-opacity:1;  stroke-linecap:round; stroke-linejoin:round;fill-rule:evenodd;" d="M 48248400.000000,51825000.000000 48256134.000000,51786119.000000 48278158.000000,51753158.000000 48311119.000000,51731134.000000 48350000.000000,51723400.000000 48650000.000000,51723400.000000 48688881.000000,51731134.000000 48721842.000000,51753158.000000 48743866.000000,51786119.000000 48751600.000000,51825000.000000 48751600.000000,52975000.000000 48743866.000000,53013881.000000 48721842.000000,53046842.000000 48688881.000000,53068866.000000 48650000.000000,53076600.000000 48350000.000000,53076600.000000 48311119.000000,53068866.000000 48278158.000000,53046842.000000 48256134.000000,53013881.000000 48248400.000000,52975000.000000 Z"/> 
<svg:path style="fill:#000000; fill-opacity:1.0;  stroke:#000000; stroke-width:1.000000; stroke-opacity:1;  stroke-linecap:round; stroke-linejoin:round;fill-rule:evenodd;" d="M 48748400.000000,51825000.000000 48756134.000000,51786119.000000 48778158.000000,51753158.000000 48811119.000000,51731134.000000 48850000.000000,51723400.000000 49150000.000000,51723400.000000 49188881.000000,51731134.000000 49221842.000000,51753158.000000 49243866.000000,51786119.000000 49251600.000000,51825000.000000 49251600.000000,52975000.000000 49243866.000000,53013881.000000 49221842.000000,53046842.000000 49188881.000000,53068866.000000 49150000.000000,53076600.000000 48850000.000000,53076600.000000 48811119.000000,53068866.000000 48778158.000000,53046842.000000 48756134.000000,53013881.000000 48748400.000000,52975000.000000 Z"/> 
<svg:path style="fill:#000000; fill-opacity:1.0;  stroke:#000000; stroke-width:1.000000; stroke-opacity:1;  stroke-linecap:round; stroke-linejoin:round;fill-rule:evenodd;" d="M 49248400.000000,51825000.000000 49256134.000000,51786119.000000 49278158.000000,51753158.000000 49311119.000000,51731134.000000 49350000.000000,51723400.000000 49650000.000000,51723400.000000 49688881.000000,51731134.000000 49721842.000000,51753158.000000 49743866.000000,51786119.000000 49751600.000000,51825000.000000 49751600.000000,52975000.000000 49743866.000000,53013881.000000 49721842.000000,53046842.000000 49688881.000000,53068866.000000 49650000.000000,53076600.000000 49350000.000000,53076600.000000 49311119.000000,53068866.000000 49278158.000000,53046842.000000 49256134.000000,53013881.000000 49248400.000000,52975000.000000 Z"/> 
<svg:path style="fill:#000000; fill-opacity:1.0;  stroke:#000000; stroke-width:1.000000; stroke-opacity:1;  stroke-linecap:round; stroke-linejoin:round;fill-rule:evenodd;" d="M 49748400.000000,51825000.000000 49756134.000000,51786119.000000 49778158.000000,51753158.000000 49811119.000000,51731134.000000 49850000.000000,51723400.000000 50150000.000000,51723400.000000 50188881.000000,51731134.000000 50221842.000000,51753158.000000 50243866.000000,51786119.000000 50251600.000000,51825000.000000 50251600.000000,52975000.000000 50243866.000000,53013881.000000 50221842.000000,53046842.000000 50188881.000000,53068866.000000 50150000.000000,53076600.000000 49850000.000000,53076600.000000 49811119.000000,53068866.000000 49778158.000000,53046842.000000 49756134.000000,53013881.000000 49748400.000000,52975000.000000 Z"/> 
<svg:path style="fill:#000000; fill-opacity:1.0;  stroke:#000000; stroke-width:1.000000; stroke-opacity:1;  stroke-linecap:round; stroke-linejoin:round;fill-rule:evenodd;" d="M 50248400.000000,51825000.000000 50256134.000000,51786119.000000 50278158.000000,51753158.000000 50311119.000000,51731134.000000 50350000.000000,51723400.000000 50650000.000000,51723400.000000 50688881.000000,51731134.000000 50721842.000000,51753158.000000 50743866.000000,51786119.000000 50751600.000000,51825000.000000 50751600.000000,52975000.000000 50743866.000000,53013881.000000 50721842.000000,53046842.000000 50688881.000000,53068866.000000 50650000.000000,53076600.000000 50350000.000000,53076600.000000 50311119.000000,53068866.000000 50278158.000000,53046842.000000 50256134.000000,53013881.000000 50248400.000000,52975000.000000 Z"/> 
<svg:path style="fill:#000000; fill-opacity:1.0;  stroke:#000000; stroke-width:1.000000; stroke-opacity:1;  stroke-linecap:round; stroke-linejoin:round;fill-rule:evenodd;" d="M 50748400.000000,51825000.000000 50756134.000000,51786119.000000 50778158.000000,51753158.000000 50811119.000000,51731134.000000 50850000.000000,51723400.000000 51150000.000000,51723400.000000 51188881.000000,51731134.000000 51221842.000000,51753158.000000 51243866.000000,51786119.000000 51251600.000000,51825000.000000 51251600.000000,52975000.000000 51243866.000000,53013881.000000 51221842.000000,53046842.000000 51188881.000000,53068866.000000 51150000.000000,53076600.000000 50850000.000000,53076600.000000 50811119.000000,53068866.000000 50778158.000000,53046842.000000 50756134.000000,53013881.000000 50748400.000000,52975000.000000 Z"/> 
<svg:path style="fill:#000000; fill-opacity:1.0;  stroke:#000000; stroke-width:1.000000; stroke-opacity:1;  stroke-linecap:round; stroke-linejoin:round;fill-rule:evenodd;" d="M 51248400.000000,51825000.000000 51256134.000000,51786119.000000 51278158.000000,51753158.000000 51311119.000000,51731134.000000 51350000.000000,51723400.000000 51650000.000000,51723400.000000 51688881.000000,51731134.000000 51721842.000000,51753158.000000 51743866.000000,51786119.000000 51751600.000000,51825000.000000 51751600.000000,52975000.000000 51743866.000000,53013881.000000 51721842.000000,53046842.000000 51688881.000000,53068866.000000 51650000.000000,53076600.000000 51350000.000000,53076600.000000 51311119.000000,53068866.000000 51278158.000000,53046842.000000 51256134.000000,53013881.000000 51248400.000000,52975000.000000 Z"/> 
<svg:path style="fill:#000000; fill-opacity:1.0;  stroke:#000000; stroke-width:1.000000; stroke-opacity:1;  stroke-linecap:round; stroke-linejoin:round;fill-rule:evenodd;" d="M 51723400.000000,51350000.000000 51731134.000000,51311119.000000 51753158.000000,51278158.000000 51786119.000000,51256134.000000 51825000.000000,51248400.000000 52975000.000000,51248400.000000 53013881.000000,51256134.000000 53046842.000000,51278158.000000 53068866.000000,51311119.000000 53076600.000000,51350000.000000 53076600.000000,51650000.000000 53068866.000000,51688881.000000 53046842.000000,51721842.000000 53013881.000000,51743866.000000 52975000.000000,51751600.000000 51825000.000000,51751600.000000 51786119.000000,51743866.000000 51753158.000000,51721842.000000 51731134.000000,51688881.000000 51723400.000000,51650000.000000 Z"/> 
<svg:path style="fill:#000000; fill-opacity:1.0;  stroke:#000000; stroke-width:1.000000; stroke-opacity:1;  stroke-linecap:round; stroke-linejoin:round;fill-rule:evenodd;" d="M 51723400.000000,50850000.000000 51731134.000000,50811119.000000 51753158.000000,50778158.000000 51786119.000000,50756134.000000 51825000.000000,50748400.000000 52975000.000000,50748400.000000 53013881.000000,50756134.000000 53046842.000000,50778158.000000 53068866.000000,50811119.000000 53076600.000000,50850000.000000 53076600.000000,51150000.000000 53068866.000000,51188881.000000 53046842.000000,51221842.000000 53013881.000000,51243866.000000 52975000.000000,51251600.000000 51825000.000000,51251600.000000 51786119.000000,51243866.000000 51753158.000000,51221842.000000 51731134.000000,51188881.000000 51723400.000000,51150000.000000 Z"/> 
<svg:path style="fill:#000000; fill-opacity:1.0;  stroke:#000000; stroke-width:1.000000; stroke-opacity:1;  stroke-linecap:round; stroke-linejoin:round;fill-rule:evenodd;" d="M 51723400.000000,50350000.000000 51731134.000000,50311119.000000 51753158.000000,50278158.000000 51786119.000000,50256134.000000 51825000.000000,50248400.000000 52975000.000000,50248400.000000 53013881.000000,50256134.000000 53046842.000000,50278158.000000 53068866.000000,50311119.000000 53076600.000000,50350000.000000 53076600.000000,50650000.000000 53068866.000000,50688881.000000 53046842.000000,50721842.000000 53013881.000000,50743866.000000 52975000.000000,50751600.000000 51825000.000000,50751600.000000 51786119.000000,50743866.000000 51753158.000000,50721842.000000 51731134.000000,50688881.000000 51723400.000000,50650000.000000 Z"/> 
<svg:path style="fill:#000000; fill-opacity:1.0;  stroke:#000000; stroke-width:1.000000; stroke-opacity:1;  stroke-linecap:round; stroke-linejoin:round;fill-rule:evenodd;" d="M 51723400.000000,49850000.000000 51731134.000000,49811119.000000 51753158.000000,49778158.000000 51786119.000000,49756134.000000 51825000.000000,49748400.000000 52975000.000000,49748400.000000 53013881.000000,49756134.000000 53046842.000000,49778158.000000 53068866.000000,49811119.000000 53076600.000000,49850000.000000 53076600.000000,50150000.000000 53068866.000000,50188881.000000 53046842.000000,50221842.000000 53013881.000000,50243866.000000 52975000.000000,50251600.000000 51825000.000000,50251600.000000 51786119.000000,50243866.000000 51753158.000000,50221842.000000 51731134.000000,50188881.000000 51723400.000000,50150000.000000 Z"/> 
<svg:path style="fill:#000000; fill-opacity:1.0;  stroke:#000000; stroke-width:1.000000; stroke-opacity:1;  stroke-linecap:round; stroke-linejoin:round;fill-rule:evenodd;" d="M 51723400.000000,49350000.000000 51731134.000000,49311119.000000 51753158.000000,49278158.000000 51786119.000000,49256134.000000 51825000.000000,49248400.000000 52975000.000000,49248400.000000 53013881.000000,49256134.000000 53046842.000000,49278158.000000 53068866.000000,49311119.000000 53076600.000000,49350000.000000 53076600.000000,49650000.000000 53068866.000000,49688881.000000 53046842.000000,49721842.000000 53013881.000000,49743866.000000 52975000.000000,49751600.000000 51825000.000000,49751600.000000 51786119.000000,49743866.000000 51753158.000000,49721842.000000 51731134.000000,49688881.000000 51723400.000000,49650000.000000 Z"/> 
<svg:path style="fill:#000000; fill-opacity:1.0;  stroke:#000000; stroke-width:1.000000; stroke-opacity:1;  stroke-linecap:round; stroke-linejoin:round;fill-rule:evenodd;" d="M 51723400.000000,48850000.000000 51731134.000000,48811119.000000 51753158.000000,48778158.000000 51786119.000000,48756134.000000 51825000.000000,48748400.000000 52975000.000000,48748400.000000 53013881.000000,48756134.000000 53046842.000000,48778158.000000 53068866.000000,48811119.000000 53076600.000000,48850000.000000 53076600.000000,49150000.000000 53068866.000000,49188881.000000 53046842.000000,49221842.000000 53013881.000000,49243866.000000 52975000.000000,49251600.000000 51825000.000000,49251600.000000 51786119.000000,49243866.000000 51753158.000000,49221842.000000 51731134.000000,49188881.000000 51723400.000000,49150000.000000 Z"/> 
<svg:path style="fill:#000000; fill-opacity:1.0;  stroke:#000000; stroke-width:1.000000; stroke-opacity:1;  stroke-linecap:round; stroke-linejoin:round;fill-rule:evenodd;" d="M 51723400.000000,48350000.000000 51731134.000000,48311119.000000 51753158.000000,48278158.000000 51786119.000000,48256134.000000 51825000.000000,48248400.000000 52975000.000000,48248400.000000 53013881.000000,48256134.000000 53046842.000000,48278158.000000 53068866.000000,48311119.000000 53076600.000000,48350000.000000 53076600.000000,48650000.000000 53068866.000000,48688881.000000 53046842.000000,48721842.000000 53013881.000000,48743866.000000 52975000.000000,48751600.000000 51825000.000000,48751600.000000 51786119.000000,48743866.000000 51753158.000000,48721842.000000 51731134.000000,48688881.000000 51723400.000000,48650000.000000 Z"/> 
<svg:path style="fill:#000000; fill-opacity:1.0;  stroke:#000000; stroke-width:1.000000; stroke-opacity:1;  stroke-linecap:round; stroke-linejoin:round;fill-rule:evenodd;" d="M 51248400.000000,47025000.000000 51256134.000000,46986119.000000 51278158.000000,46953158.000000 51311119.000000,46931134.000000 51350000.000000,46923400.000000 51650000.000000,46923400.000000 51688881.000000,46931134.000000 51721842.000000,46953158.000000 51743866.000000,46986119.000000 51751600.000000,47025000.000000 51751600.000000,48175000.000000 51743866.000000,48213881.000000 51721842.000000,48246842.000000 51688881.000000,48268866.000000 51650000.000000,48276600.000000 51350000.000000,48276600.000000 51311119.000000,48268866.000000 51278158.000000,48246842.000000 51256134.000000,48213881.000000 51248400.000000,48175000.000000 Z"/> 
<svg:path style="fill:#000000; fill-opacity:1.0;  stroke:#000000; stroke-width:1.000000; stroke-opacity:1;  stroke-linecap:round; stroke-linejoin:round;fill-rule:evenodd;" d="M 50748400.000000,47025000.000000 50756134.000000,46986119.000000 50778158.000000,46953158.000000 50811119.000000,46931134.000000 50850000.000000,46923400.000000 51150000.000000,46923400.000000 51188881.000000,46931134.000000 51221842.000000,46953158.000000 51243866.000000,46986119.000000 51251600.000000,47025000.000000 51251600.000000,48175000.000000 51243866.000000,48213881.000000 51221842.000000,48246842.000000 51188881.000000,48268866.000000 51150000.000000,48276600.000000 50850000.000000,48276600.000000 50811119.000000,48268866.000000 50778158.000000,48246842.000000 50756134.000000,48213881.000000 50748400.000000,48175000.000000 Z"/> 
<svg:path style="fill:#000000; fill-opacity:1.0;  stroke:#000000; stroke-width:1.000000; stroke-opacity:1;  stroke-linecap:round; stroke-linejoin:round;fill-rule:evenodd;" d="M 50248400.000000,47025000.000000 50256134.000000,46986119.000000 50278158.000000,46953158.000000 50311119.000000,46931134.000000 50350000.000000,46923400.000000 50650000.000000,46923400.000000 50688881.000000,46931134.000000 50721842.000000,46953158.000000 50743866.000000,46986119.000000 50751600.000000,47025000.000000 50751600.000000,48175000.000000 50743866.000000,48213881.000000 50721842.000000,48246842.000000 50688881.000000,48268866.000000 50650000.000000,48276600.000000 50350000.000000,48276600.000000 50311119.000000,48268866.000000 50278158.000000,48246842.000000 50256134.000000,48213881.000000 50248400.000000,48175000.000000 Z"/> 
<svg:path style="fill:#000000; fill-opacity:1.0;  stroke:#000000; stroke-width:1.000000; stroke-opacity:1;  stroke-linecap:round; stroke-linejoin:round;fill-rule:evenodd;" d="M 49748400.000000,47025000.000000 49756134.000000,46986119.000000 49778158.000000,46953158.000000 49811119.000000,46931134.000000 49850000.000000,46923400.000000 50150000.000000,46923400.000000 50188881.000000,46931134.000000 50221842.000000,46953158.000000 50243866.000000,46986119.000000 50251600.000000,47025000.000000 50251600.000000,48175000.000000 50243866.000000,48213881.000000 50221842.000000,48246842.000000 50188881.000000,48268866.000000 50150000.000000,48276600.000000 49850000.000000,48276600.000000 49811119.000000,48268866.000000 49778158.000000,48246842.000000 49756134.000000,48213881.000000 49748400.000000,48175000.000000 Z"/> 
<svg:path style="fill:#000000; fill-opacity:1.0;  stroke:#000000; stroke-width:1.000000; stroke-opacity:1;  stroke-linecap:round; stroke-linejoin:round;fill-rule:evenodd;" d="M 49248400.000000,47025000.000000 49256134.000000,46986119.000000 49278158.000000,46953158.000000 49311119.000000,46931134.000000 49350000.000000,46923400.000000 49650000.000000,46923400.000000 49688881.000000,46931134.000000 49721842.000000,46953158.000000 49743866.000000,46986119.000000 49751600.000000,47025000.000000 49751600.000000,48175000.000000 49743866.000000,48213881.000000 49721842.000000,48246842.000000 49688881.000000,48268866.000000 49650000.000000,48276600.000000 49350000.000000,48276600.000000 49311119.000000,48268866.000000 49278158.000000,48246842.000000 49256134.000000,48213881.000000 49248400.000000,48175000.000000 Z"/> 
<svg:path style="fill:#000000; fill-opacity:1.0;  stroke:#000000; stroke-width:1.000000; stroke-opacity:1;  stroke-linecap:round; stroke-linejoin:round;fill-rule:evenodd;" d="M 48748400.000000,47025000.000000 48756134.000000,46986119.000000 48778158.000000,46953158.000000 48811119.000000,46931134.000000 48850000.000000,46923400.000000 49150000.000000,46923400.000000 49188881.000000,46931134.000000 49221842.000000,46953158.000000 49243866.000000,46986119.000000 49251600.000000,47025000.000000 49251600.000000,48175000.000000 49243866.000000,48213881.000000 49221842.000000,48246842.000000 49188881.000000,48268866.000000 49150000.000000,48276600.000000 48850000.000000,48276600.000000 48811119.000000,48268866.000000 48778158.000000,48246842.000000 48756134.000000,48213881.000000 48748400.000000,48175000.000000 Z"/> 
<svg:path style="fill:#000000; fill-opacity:1.0;  stroke:#000000; stroke-width:1.000000; stroke-opacity:1;  stroke-linecap:round; stroke-linejoin:round;fill-rule:evenodd;" d="M 48248400.000000,47025000.000000 48256134.000000,46986119.000000 48278158.000000,46953158.000000 48311119.000000,46931134.000000 48350000.000000,46923400.000000 48650000.000000,46923400.000000 48688881.000000,46931134.000000 48721842.000000,46953158.000000 48743866.000000,46986119.000000 48751600.000000,47025000.000000 48751600.000000,48175000.000000 48743866.000000,48213881.000000 48721842.000000,48246842.000000 48688881.000000,48268866.000000 48650000.000000,48276600.000000 48350000.000000,48276600.000000 48311119.000000,48268866.000000 48278158.000000,48246842.000000 48256134.000000,48213881.000000 48248400.000000,48175000.000000 Z"/> 
</svg:g>
<svg:g>
</svg:g>
<svg:g>
</svg:g>
<svg:g>
</svg:g>
</svg:g>
<svg:g style="fill:#000000; fill-opacity:1.0;  stroke:#000000; stroke-width:1.000000; stroke-opacity:1;  stroke-linecap:round; stroke-linejoin:round;">
<svg:g>
</svg:g>
<svg:g>
</svg:g>
<svg:g>
</svg:g>
<svg:g>
</svg:g>
</svg:g> 
</svg:g><svg:g><svg:title>SVG Picture created as kicadBoard-F_Paste.svg date 2022/12/02 22:03:08 </svg:title>
  <svg:desc>Picture generated by PCBNEW </svg:desc>
<svg:g style="fill:#000000; fill-opacity:1.000000;stroke:#000000; stroke-opacity:1.000000; stroke-linecap:round; stroke-linejoin:round;" transform="translate(0 0) scale(1 1)">
</svg:g>
<svg:g style="fill:#000000; fill-opacity:0.0;  stroke:#000000; stroke-width:0.000000; stroke-opacity:1;  stroke-linecap:round; stroke-linejoin:round;">
</svg:g>
<svg:g style="fill:#B4A09A; fill-opacity:0.0;  stroke:#B4A09A; stroke-width:0.000000; stroke-opacity:1;  stroke-linecap:round; stroke-linejoin:round;">
</svg:g>
<svg:g style="fill:#B4A09A; fill-opacity:1.0;  stroke:#B4A09A; stroke-width:1.000000; stroke-opacity:1;  stroke-linecap:round; stroke-linejoin:round;">
<svg:path style="fill:#B4A09A; fill-opacity:1.0;  stroke:#B4A09A; stroke-width:1.000000; stroke-opacity:1;  stroke-linecap:round; stroke-linejoin:round;fill-rule:evenodd;" d="M 51475000.000000,51475000.000000 48525000.000000,51475000.000000 48525000.000000,48725000.000000 48582489.000000,48725000.000000 48637598.000000,48697781.000000 48761490.000000,48525000.000000 51475000.000000,48525000.000000 Z"/> 
<svg:g>
</svg:g>
<svg:g style="fill:#000000; fill-opacity:1.0;  stroke:#000000; stroke-width:1.000000; stroke-opacity:1;  stroke-linecap:round; stroke-linejoin:round;">
<svg:path style="fill:#000000; fill-opacity:1.0;  stroke:#000000; stroke-width:1.000000; stroke-opacity:1;  stroke-linecap:round; stroke-linejoin:round;fill-rule:evenodd;" d="M 47025001.000000,48649999.000000 47025001.000000,48350001.000000 48174999.000000,48350001.000000 48174999.000000,48649999.000000 Z"/> 
<svg:path style="fill:#000000; fill-opacity:1.0;  stroke:#000000; stroke-width:1.000000; stroke-opacity:1;  stroke-linecap:round; stroke-linejoin:round;fill-rule:evenodd;" d="M 47025001.000000,49149999.000000 47025001.000000,48850001.000000 48174999.000000,48850001.000000 48174999.000000,49149999.000000 Z"/> 
<svg:path style="fill:#000000; fill-opacity:1.0;  stroke:#000000; stroke-width:1.000000; stroke-opacity:1;  stroke-linecap:round; stroke-linejoin:round;fill-rule:evenodd;" d="M 47025001.000000,49649999.000000 47025001.000000,49350001.000000 48174999.000000,49350001.000000 48174999.000000,49649999.000000 Z"/> 
<svg:path style="fill:#000000; fill-opacity:1.0;  stroke:#000000; stroke-width:1.000000; stroke-opacity:1;  stroke-linecap:round; stroke-linejoin:round;fill-rule:evenodd;" d="M 47025001.000000,50149999.000000 47025001.000000,49850001.000000 48174999.000000,49850001.000000 48174999.000000,50149999.000000 Z"/> 
<svg:path style="fill:#000000; fill-opacity:1.0;  stroke:#000000; stroke-width:1.000000; stroke-opacity:1;  stroke-linecap:round; stroke-linejoin:round;fill-rule:evenodd;" d="M 47025001.000000,50649999.000000 47025001.000000,50350001.000000 48174999.000000,50350001.000000 48174999.000000,50649999.000000 Z"/> 
<svg:path style="fill:#000000; fill-opacity:1.0;  stroke:#000000; stroke-width:1.000000; stroke-opacity:1;  stroke-linecap:round; stroke-linejoin:round;fill-rule:evenodd;" d="M 47025001.000000,51149999.000000 47025001.000000,50850001.000000 48174999.000000,50850001.000000 48174999.000000,51149999.000000 Z"/> 
<svg:path style="fill:#000000; fill-opacity:1.0;  stroke:#000000; stroke-width:1.000000; stroke-opacity:1;  stroke-linecap:round; stroke-linejoin:round;fill-rule:evenodd;" d="M 47025001.000000,51649999.000000 47025001.000000,51350001.000000 48174999.000000,51350001.000000 48174999.000000,51649999.000000 Z"/> 
<svg:path style="fill:#000000; fill-opacity:1.0;  stroke:#000000; stroke-width:1.000000; stroke-opacity:1;  stroke-linecap:round; stroke-linejoin:round;fill-rule:evenodd;" d="M 48350001.000000,52974999.000000 48350001.000000,51825001.000000 48649999.000000,51825001.000000 48649999.000000,52974999.000000 Z"/> 
<svg:path style="fill:#000000; fill-opacity:1.0;  stroke:#000000; stroke-width:1.000000; stroke-opacity:1;  stroke-linecap:round; stroke-linejoin:round;fill-rule:evenodd;" d="M 48850001.000000,52974999.000000 48850001.000000,51825001.000000 49149999.000000,51825001.000000 49149999.000000,52974999.000000 Z"/> 
<svg:path style="fill:#000000; fill-opacity:1.0;  stroke:#000000; stroke-width:1.000000; stroke-opacity:1;  stroke-linecap:round; stroke-linejoin:round;fill-rule:evenodd;" d="M 49350001.000000,52974999.000000 49350001.000000,51825001.000000 49649999.000000,51825001.000000 49649999.000000,52974999.000000 Z"/> 
<svg:path style="fill:#000000; fill-opacity:1.0;  stroke:#000000; stroke-width:1.000000; stroke-opacity:1;  stroke-linecap:round; stroke-linejoin:round;fill-rule:evenodd;" d="M 49850001.000000,52974999.000000 49850001.000000,51825001.000000 50149999.000000,51825001.000000 50149999.000000,52974999.000000 Z"/> 
<svg:path style="fill:#000000; fill-opacity:1.0;  stroke:#000000; stroke-width:1.000000; stroke-opacity:1;  stroke-linecap:round; stroke-linejoin:round;fill-rule:evenodd;" d="M 50350001.000000,52974999.000000 50350001.000000,51825001.000000 50649999.000000,51825001.000000 50649999.000000,52974999.000000 Z"/> 
<svg:path style="fill:#000000; fill-opacity:1.0;  stroke:#000000; stroke-width:1.000000; stroke-opacity:1;  stroke-linecap:round; stroke-linejoin:round;fill-rule:evenodd;" d="M 50850001.000000,52974999.000000 50850001.000000,51825001.000000 51149999.000000,51825001.000000 51149999.000000,52974999.000000 Z"/> 
<svg:path style="fill:#000000; fill-opacity:1.0;  stroke:#000000; stroke-width:1.000000; stroke-opacity:1;  stroke-linecap:round; stroke-linejoin:round;fill-rule:evenodd;" d="M 51350001.000000,52974999.000000 51350001.000000,51825001.000000 51649999.000000,51825001.000000 51649999.000000,52974999.000000 Z"/> 
<svg:path style="fill:#000000; fill-opacity:1.0;  stroke:#000000; stroke-width:1.000000; stroke-opacity:1;  stroke-linecap:round; stroke-linejoin:round;fill-rule:evenodd;" d="M 51825001.000000,51649999.000000 51825001.000000,51350001.000000 52974999.000000,51350001.000000 52974999.000000,51649999.000000 Z"/> 
<svg:path style="fill:#000000; fill-opacity:1.0;  stroke:#000000; stroke-width:1.000000; stroke-opacity:1;  stroke-linecap:round; stroke-linejoin:round;fill-rule:evenodd;" d="M 51825001.000000,51149999.000000 51825001.000000,50850001.000000 52974999.000000,50850001.000000 52974999.000000,51149999.000000 Z"/> 
<svg:path style="fill:#000000; fill-opacity:1.0;  stroke:#000000; stroke-width:1.000000; stroke-opacity:1;  stroke-linecap:round; stroke-linejoin:round;fill-rule:evenodd;" d="M 51825001.000000,50649999.000000 51825001.000000,50350001.000000 52974999.000000,50350001.000000 52974999.000000,50649999.000000 Z"/> 
<svg:path style="fill:#000000; fill-opacity:1.0;  stroke:#000000; stroke-width:1.000000; stroke-opacity:1;  stroke-linecap:round; stroke-linejoin:round;fill-rule:evenodd;" d="M 51825001.000000,50149999.000000 51825001.000000,49850001.000000 52974999.000000,49850001.000000 52974999.000000,50149999.000000 Z"/> 
<svg:path style="fill:#000000; fill-opacity:1.0;  stroke:#000000; stroke-width:1.000000; stroke-opacity:1;  stroke-linecap:round; stroke-linejoin:round;fill-rule:evenodd;" d="M 51825001.000000,49649999.000000 51825001.000000,49350001.000000 52974999.000000,49350001.000000 52974999.000000,49649999.000000 Z"/> 
<svg:path style="fill:#000000; fill-opacity:1.0;  stroke:#000000; stroke-width:1.000000; stroke-opacity:1;  stroke-linecap:round; stroke-linejoin:round;fill-rule:evenodd;" d="M 51825001.000000,49149999.000000 51825001.000000,48850001.000000 52974999.000000,48850001.000000 52974999.000000,49149999.000000 Z"/> 
<svg:path style="fill:#000000; fill-opacity:1.0;  stroke:#000000; stroke-width:1.000000; stroke-opacity:1;  stroke-linecap:round; stroke-linejoin:round;fill-rule:evenodd;" d="M 51825001.000000,48649999.000000 51825001.000000,48350001.000000 52974999.000000,48350001.000000 52974999.000000,48649999.000000 Z"/> 
<svg:path style="fill:#000000; fill-opacity:1.0;  stroke:#000000; stroke-width:1.000000; stroke-opacity:1;  stroke-linecap:round; stroke-linejoin:round;fill-rule:evenodd;" d="M 51350001.000000,48174999.000000 51350001.000000,47025001.000000 51649999.000000,47025001.000000 51649999.000000,48174999.000000 Z"/> 
<svg:path style="fill:#000000; fill-opacity:1.0;  stroke:#000000; stroke-width:1.000000; stroke-opacity:1;  stroke-linecap:round; stroke-linejoin:round;fill-rule:evenodd;" d="M 50850001.000000,48174999.000000 50850001.000000,47025001.000000 51149999.000000,47025001.000000 51149999.000000,48174999.000000 Z"/> 
<svg:path style="fill:#000000; fill-opacity:1.0;  stroke:#000000; stroke-width:1.000000; stroke-opacity:1;  stroke-linecap:round; stroke-linejoin:round;fill-rule:evenodd;" d="M 50350001.000000,48174999.000000 50350001.000000,47025001.000000 50649999.000000,47025001.000000 50649999.000000,48174999.000000 Z"/> 
<svg:path style="fill:#000000; fill-opacity:1.0;  stroke:#000000; stroke-width:1.000000; stroke-opacity:1;  stroke-linecap:round; stroke-linejoin:round;fill-rule:evenodd;" d="M 49850001.000000,48174999.000000 49850001.000000,47025001.000000 50149999.000000,47025001.000000 50149999.000000,48174999.000000 Z"/> 
<svg:path style="fill:#000000; fill-opacity:1.0;  stroke:#000000; stroke-width:1.000000; stroke-opacity:1;  stroke-linecap:round; stroke-linejoin:round;fill-rule:evenodd;" d="M 49350001.000000,48174999.000000 49350001.000000,47025001.000000 49649999.000000,47025001.000000 49649999.000000,48174999.000000 Z"/> 
<svg:path style="fill:#000000; fill-opacity:1.0;  stroke:#000000; stroke-width:1.000000; stroke-opacity:1;  stroke-linecap:round; stroke-linejoin:round;fill-rule:evenodd;" d="M 48850001.000000,48174999.000000 48850001.000000,47025001.000000 49149999.000000,47025001.000000 49149999.000000,48174999.000000 Z"/> 
<svg:path style="fill:#000000; fill-opacity:1.0;  stroke:#000000; stroke-width:1.000000; stroke-opacity:1;  stroke-linecap:round; stroke-linejoin:round;fill-rule:evenodd;" d="M 48350001.000000,48174999.000000 48350001.000000,47025001.000000 48649999.000000,47025001.000000 48649999.000000,48174999.000000 Z"/> 
</svg:g>
<svg:g>
</svg:g>
<svg:g>
</svg:g>
<svg:g>
</svg:g>
</svg:g>
<svg:g style="fill:#000000; fill-opacity:1.0;  stroke:#000000; stroke-width:1.000000; stroke-opacity:1;  stroke-linecap:round; stroke-linejoin:round;">
<svg:g>
</svg:g>
<svg:g>
</svg:g>
<svg:g>
</svg:g>
<svg:g>
</svg:g>
</svg:g> 
</svg:g><svg:g><svg:title>SVG Picture created as kicadBoard-F_Silkscreen.svg date 2022/12/02 22:03:08 </svg:title>
  <svg:desc>Picture generated by PCBNEW </svg:desc>
<svg:g style="fill:#000000; fill-opacity:1.000000;stroke:#000000; stroke-opacity:1.000000; stroke-linecap:round; stroke-linejoin:round;" transform="translate(0 0) scale(1 1)">
</svg:g>
<svg:g style="fill:#000000; fill-opacity:0.0;  stroke:#000000; stroke-width:0.000000; stroke-opacity:1;  stroke-linecap:round; stroke-linejoin:round;">
</svg:g>
<svg:g style="fill:#F2EDA1; fill-opacity:0.0;  stroke:#F2EDA1; stroke-width:0.000000; stroke-opacity:1;  stroke-linecap:round; stroke-linejoin:round;">
</svg:g>
<svg:g style="fill:#F2EDA1; fill-opacity:0.0;  stroke:#F2EDA1; stroke-width:101600.000000; stroke-opacity:1;  stroke-linecap:round; stroke-linejoin:round;">
<svg:text x="47025000.000000" y="46790000.000000" textLength="18304934.000000" font-size="1557866.000000" lengthAdjust="spacingAndGlyphs" text-anchor="start" opacity="0">FZEALLEGROQFN28ET</svg:text>
<svg:g class="stroked-text"><svg:desc>FZEALLEGROQFN28ET</svg:desc>
<svg:path d="M47758697 46122342 L47369230 46122342 "/>
<svg:path d="M47369230 46734361 L47369230 45565961 L47925611 45565961 "/>
<svg:path d="M48259440 45565961 L49038373 45565961 L48259440 46734361 L49038373 46734361 "/>
<svg:path d="M49483478 46122342 L49872944 46122342 "/>
<svg:path d="M50039859 46734361 L49483478 46734361 L49483478 45565961 L50039859 45565961 "/>
<svg:path d="M50484963 46400533 L51041344 46400533 "/>
<svg:path d="M50373687 46734361 L50763154 45565961 L51152620 46734361 "/>
<svg:path d="M52098468 46734361 L51542087 46734361 L51542087 45565961 "/>
<svg:path d="M53044316 46734361 L52487935 46734361 L52487935 45565961 "/>
<svg:path d="M53433782 46122342 L53823249 46122342 "/>
<svg:path d="M53990163 46734361 L53433782 46734361 L53433782 45565961 L53990163 45565961 "/>
<svg:path d="M55102925 45621600 L54991649 45565961 L54824735 45565961 L54657820 45621600 L54546544 45732876 L54490906 45844152 L54435268 46066704 L54435268 46233619 L54490906 46456171 L54546544 46567447 L54657820 46678723 L54824735 46734361 L54936011 46734361 L55102925 46678723 L55158563 46623085 L55158563 46233619 L54936011 46233619 "/>
<svg:path d="M56326963 46734361 L55937497 46177980 "/>
<svg:path d="M55659306 46734361 L55659306 45565961 L56104411 45565961 L56215687 45621600 L56271325 45677238 L56326963 45788514 L56326963 45955428 L56271325 46066704 L56215687 46122342 L56104411 46177980 L55659306 46177980 "/>
<svg:path d="M57050259 45565961 L57272811 45565961 L57384087 45621600 L57495363 45732876 L57551001 45955428 L57551001 46344895 L57495363 46567447 L57384087 46678723 L57272811 46734361 L57050259 46734361 L56938982 46678723 L56827706 46567447 L56772068 46344895 L56772068 45955428 L56827706 45732876 L56938982 45621600 L57050259 45565961 "/>
<svg:path d="M58830678 46845638 L58719401 46790000 L58608125 46678723 L58441211 46511809 L58329935 46456171 L58218659 46456171 "/>
<svg:path d="M58274297 46734361 L58163020 46678723 L58051744 46567447 L57996106 46344895 L57996106 45955428 L58051744 45732876 L58163020 45621600 L58274297 45565961 L58496849 45565961 L58608125 45621600 L58719401 45732876 L58775040 45955428 L58775040 46344895 L58719401 46567447 L58608125 46678723 L58496849 46734361 L58274297 46734361 "/>
<svg:path d="M59665249 46122342 L59275782 46122342 "/>
<svg:path d="M59275782 46734361 L59275782 45565961 L59832163 45565961 "/>
<svg:path d="M60277268 46734361 L60277268 45565961 L60944925 46734361 L60944925 45565961 "/>
<svg:path d="M61445668 45677238 L61501306 45621600 L61612582 45565961 L61890773 45565961 L62002049 45621600 L62057687 45677238 L62113325 45788514 L62113325 45899790 L62057687 46066704 L61390030 46734361 L62113325 46734361 "/>
<svg:path d="M62780982 46066704 L62669706 46011066 L62614068 45955428 L62558430 45844152 L62558430 45788514 L62614068 45677238 L62669706 45621600 L62780982 45565961 L63003535 45565961 L63114811 45621600 L63170449 45677238 L63226087 45788514 L63226087 45844152 L63170449 45955428 L63114811 46011066 L63003535 46066704 L62780982 46066704 L62669706 46122342 L62614068 46177980 L62558430 46289257 L62558430 46511809 L62614068 46623085 L62669706 46678723 L62780982 46734361 L63003535 46734361 L63114811 46678723 L63170449 46623085 L63226087 46511809 L63226087 46289257 L63170449 46177980 L63114811 46122342 L63003535 46066704 "/>
<svg:path d="M63726830 46122342 L64116297 46122342 "/>
<svg:path d="M64283211 46734361 L63726830 46734361 L63726830 45565961 L64283211 45565961 "/>
<svg:path d="M64617040 45565961 L65284697 45565961 "/>
<svg:path d="M64950868 46734361 L64950868 45565961 "/>
</svg:g></svg:g>
<svg:g style="fill:#F2EDA1; fill-opacity:0.0;  stroke:#F2EDA1; stroke-width:203200.000000; stroke-opacity:1;  stroke-linecap:round; stroke-linejoin:round;">
<svg:path d="M52398400 48198400 L52398400 47601600 "/>
<svg:path d="M47601600 51801600 L47601600 52398400 "/>
<svg:path d="M47601600 47601600 L47601600 48198400 "/>
<svg:path d="M52398400 52398400 L52398400 51801600 "/>
<svg:path d="M48198400 47601600 L47601600 47601600 "/>
<svg:path d="M47601600 52398400 L48198400 52398400 "/>
<svg:path d="M51801600 52398400 L52398400 52398400 "/>
<svg:path d="M52398400 47601600 L51801600 47601600 "/>
<svg:g>
</svg:g>
<svg:g>
</svg:g>
<svg:g>
</svg:g>
<svg:g>
</svg:g>
</svg:g>
<svg:g style="fill:#000000; fill-opacity:0.0;  stroke:#000000; stroke-width:203200.000000; stroke-opacity:1;  stroke-linecap:round; stroke-linejoin:round;">
<svg:g>
</svg:g>
<svg:g>
</svg:g>
<svg:g>
</svg:g>
<svg:g>
</svg:g>
</svg:g> 
</svg:g><svg:g><svg:title>SVG Picture created as kicadBoard-Margin.svg date 2022/12/02 22:03:08 </svg:title>
  <svg:desc>Picture generated by PCBNEW </svg:desc>
<svg:g style="fill:#000000; fill-opacity:1.000000;stroke:#000000; stroke-opacity:1.000000; stroke-linecap:round; stroke-linejoin:round;" transform="translate(0 0) scale(1 1)">
</svg:g>
<svg:g style="fill:#000000; fill-opacity:0.0;  stroke:#000000; stroke-width:0.000000; stroke-opacity:1;  stroke-linecap:round; stroke-linejoin:round;">
<svg:g>
</svg:g>
<svg:g>
</svg:g>
<svg:g>
</svg:g>
<svg:g>
</svg:g>
</svg:g>
<svg:g style="fill:#000000; fill-opacity:0.0;  stroke:#000000; stroke-width:0.000000; stroke-opacity:1;  stroke-linecap:round; stroke-linejoin:round;">
<svg:g>
</svg:g>
<svg:g>
</svg:g>
<svg:g>
</svg:g>
<svg:g>
</svg:g>
</svg:g> 
</svg:g><svg:g><svg:title>SVG Picture created as kicadBoard-F_Cu.svg date 2022/12/02 22:03:08 </svg:title>
  <svg:desc>Picture generated by PCBNEW </svg:desc>
<svg:g style="fill:#000000; fill-opacity:1.000000;stroke:#000000; stroke-opacity:1.000000; stroke-linecap:round; stroke-linejoin:round;" transform="translate(0 0) scale(1 1)">
</svg:g>
<svg:g style="fill:#000000; fill-opacity:0.0;  stroke:#000000; stroke-width:0.000000; stroke-opacity:1;  stroke-linecap:round; stroke-linejoin:round;">
<svg:g>
</svg:g>
<svg:g style="fill:#C83434; fill-opacity:0.0;  stroke:#C83434; stroke-width:0.000000; stroke-opacity:1;  stroke-linecap:round; stroke-linejoin:round;">
</svg:g>
<svg:g style="fill:#C83434; fill-opacity:0.0;  stroke:#C83434; stroke-width:1.000000; stroke-opacity:1;  stroke-linecap:round; stroke-linejoin:round;">
</svg:g>
<svg:g style="fill:#C83434; fill-opacity:1.0;  stroke:#C83434; stroke-width:1.000000; stroke-opacity:1;  stroke-linecap:round; stroke-linejoin:round;">
<svg:path style="fill:#C83434; fill-opacity:1.0;  stroke:#C83434; stroke-width:1.000000; stroke-opacity:1;  stroke-linecap:round; stroke-linejoin:round;fill-rule:evenodd;" d="M 47025001.000000,48649999.000000 47025001.000000,48350001.000000 48174999.000000,48350001.000000 48174999.000000,48649999.000000 Z"/> 
<svg:path style="fill:#C83434; fill-opacity:1.0;  stroke:#C83434; stroke-width:1.000000; stroke-opacity:1;  stroke-linecap:round; stroke-linejoin:round;fill-rule:evenodd;" d="M 47025001.000000,49149999.000000 47025001.000000,48850001.000000 48174999.000000,48850001.000000 48174999.000000,49149999.000000 Z"/> 
<svg:path style="fill:#C83434; fill-opacity:1.0;  stroke:#C83434; stroke-width:1.000000; stroke-opacity:1;  stroke-linecap:round; stroke-linejoin:round;fill-rule:evenodd;" d="M 47025001.000000,49649999.000000 47025001.000000,49350001.000000 48174999.000000,49350001.000000 48174999.000000,49649999.000000 Z"/> 
<svg:path style="fill:#C83434; fill-opacity:1.0;  stroke:#C83434; stroke-width:1.000000; stroke-opacity:1;  stroke-linecap:round; stroke-linejoin:round;fill-rule:evenodd;" d="M 47025001.000000,50149999.000000 47025001.000000,49850001.000000 48174999.000000,49850001.000000 48174999.000000,50149999.000000 Z"/> 
<svg:path style="fill:#C83434; fill-opacity:1.0;  stroke:#C83434; stroke-width:1.000000; stroke-opacity:1;  stroke-linecap:round; stroke-linejoin:round;fill-rule:evenodd;" d="M 47025001.000000,50649999.000000 47025001.000000,50350001.000000 48174999.000000,50350001.000000 48174999.000000,50649999.000000 Z"/> 
<svg:path style="fill:#C83434; fill-opacity:1.0;  stroke:#C83434; stroke-width:1.000000; stroke-opacity:1;  stroke-linecap:round; stroke-linejoin:round;fill-rule:evenodd;" d="M 47025001.000000,51149999.000000 47025001.000000,50850001.000000 48174999.000000,50850001.000000 48174999.000000,51149999.000000 Z"/> 
<svg:path style="fill:#C83434; fill-opacity:1.0;  stroke:#C83434; stroke-width:1.000000; stroke-opacity:1;  stroke-linecap:round; stroke-linejoin:round;fill-rule:evenodd;" d="M 47025001.000000,51649999.000000 47025001.000000,51350001.000000 48174999.000000,51350001.000000 48174999.000000,51649999.000000 Z"/> 
<svg:path style="fill:#C83434; fill-opacity:1.0;  stroke:#C83434; stroke-width:1.000000; stroke-opacity:1;  stroke-linecap:round; stroke-linejoin:round;fill-rule:evenodd;" d="M 48350001.000000,52974999.000000 48350001.000000,51825001.000000 48649999.000000,51825001.000000 48649999.000000,52974999.000000 Z"/> 
<svg:path style="fill:#C83434; fill-opacity:1.0;  stroke:#C83434; stroke-width:1.000000; stroke-opacity:1;  stroke-linecap:round; stroke-linejoin:round;fill-rule:evenodd;" d="M 48850001.000000,52974999.000000 48850001.000000,51825001.000000 49149999.000000,51825001.000000 49149999.000000,52974999.000000 Z"/> 
<svg:path style="fill:#C83434; fill-opacity:1.0;  stroke:#C83434; stroke-width:1.000000; stroke-opacity:1;  stroke-linecap:round; stroke-linejoin:round;fill-rule:evenodd;" d="M 49350001.000000,52974999.000000 49350001.000000,51825001.000000 49649999.000000,51825001.000000 49649999.000000,52974999.000000 Z"/> 
<svg:path style="fill:#C83434; fill-opacity:1.0;  stroke:#C83434; stroke-width:1.000000; stroke-opacity:1;  stroke-linecap:round; stroke-linejoin:round;fill-rule:evenodd;" d="M 49850001.000000,52974999.000000 49850001.000000,51825001.000000 50149999.000000,51825001.000000 50149999.000000,52974999.000000 Z"/> 
<svg:path style="fill:#C83434; fill-opacity:1.0;  stroke:#C83434; stroke-width:1.000000; stroke-opacity:1;  stroke-linecap:round; stroke-linejoin:round;fill-rule:evenodd;" d="M 50350001.000000,52974999.000000 50350001.000000,51825001.000000 50649999.000000,51825001.000000 50649999.000000,52974999.000000 Z"/> 
<svg:path style="fill:#C83434; fill-opacity:1.0;  stroke:#C83434; stroke-width:1.000000; stroke-opacity:1;  stroke-linecap:round; stroke-linejoin:round;fill-rule:evenodd;" d="M 50850001.000000,52974999.000000 50850001.000000,51825001.000000 51149999.000000,51825001.000000 51149999.000000,52974999.000000 Z"/> 
<svg:path style="fill:#C83434; fill-opacity:1.0;  stroke:#C83434; stroke-width:1.000000; stroke-opacity:1;  stroke-linecap:round; stroke-linejoin:round;fill-rule:evenodd;" d="M 51350001.000000,52974999.000000 51350001.000000,51825001.000000 51649999.000000,51825001.000000 51649999.000000,52974999.000000 Z"/> 
<svg:path style="fill:#C83434; fill-opacity:1.0;  stroke:#C83434; stroke-width:1.000000; stroke-opacity:1;  stroke-linecap:round; stroke-linejoin:round;fill-rule:evenodd;" d="M 51825001.000000,51649999.000000 51825001.000000,51350001.000000 52974999.000000,51350001.000000 52974999.000000,51649999.000000 Z"/> 
<svg:path style="fill:#C83434; fill-opacity:1.0;  stroke:#C83434; stroke-width:1.000000; stroke-opacity:1;  stroke-linecap:round; stroke-linejoin:round;fill-rule:evenodd;" d="M 51825001.000000,51149999.000000 51825001.000000,50850001.000000 52974999.000000,50850001.000000 52974999.000000,51149999.000000 Z"/> 
<svg:path style="fill:#C83434; fill-opacity:1.0;  stroke:#C83434; stroke-width:1.000000; stroke-opacity:1;  stroke-linecap:round; stroke-linejoin:round;fill-rule:evenodd;" d="M 51825001.000000,50649999.000000 51825001.000000,50350001.000000 52974999.000000,50350001.000000 52974999.000000,50649999.000000 Z"/> 
<svg:path style="fill:#C83434; fill-opacity:1.0;  stroke:#C83434; stroke-width:1.000000; stroke-opacity:1;  stroke-linecap:round; stroke-linejoin:round;fill-rule:evenodd;" d="M 51825001.000000,50149999.000000 51825001.000000,49850001.000000 52974999.000000,49850001.000000 52974999.000000,50149999.000000 Z"/> 
<svg:path style="fill:#C83434; fill-opacity:1.0;  stroke:#C83434; stroke-width:1.000000; stroke-opacity:1;  stroke-linecap:round; stroke-linejoin:round;fill-rule:evenodd;" d="M 51825001.000000,49649999.000000 51825001.000000,49350001.000000 52974999.000000,49350001.000000 52974999.000000,49649999.000000 Z"/> 
<svg:path style="fill:#C83434; fill-opacity:1.0;  stroke:#C83434; stroke-width:1.000000; stroke-opacity:1;  stroke-linecap:round; stroke-linejoin:round;fill-rule:evenodd;" d="M 51825001.000000,49149999.000000 51825001.000000,48850001.000000 52974999.000000,48850001.000000 52974999.000000,49149999.000000 Z"/> 
<svg:path style="fill:#C83434; fill-opacity:1.0;  stroke:#C83434; stroke-width:1.000000; stroke-opacity:1;  stroke-linecap:round; stroke-linejoin:round;fill-rule:evenodd;" d="M 51825001.000000,48649999.000000 51825001.000000,48350001.000000 52974999.000000,48350001.000000 52974999.000000,48649999.000000 Z"/> 
<svg:path style="fill:#C83434; fill-opacity:1.0;  stroke:#C83434; stroke-width:1.000000; stroke-opacity:1;  stroke-linecap:round; stroke-linejoin:round;fill-rule:evenodd;" d="M 51350001.000000,48174999.000000 51350001.000000,47025001.000000 51649999.000000,47025001.000000 51649999.000000,48174999.000000 Z"/> 
<svg:path style="fill:#C83434; fill-opacity:1.0;  stroke:#C83434; stroke-width:1.000000; stroke-opacity:1;  stroke-linecap:round; stroke-linejoin:round;fill-rule:evenodd;" d="M 50850001.000000,48174999.000000 50850001.000000,47025001.000000 51149999.000000,47025001.000000 51149999.000000,48174999.000000 Z"/> 
<svg:path style="fill:#C83434; fill-opacity:1.0;  stroke:#C83434; stroke-width:1.000000; stroke-opacity:1;  stroke-linecap:round; stroke-linejoin:round;fill-rule:evenodd;" d="M 50350001.000000,48174999.000000 50350001.000000,47025001.000000 50649999.000000,47025001.000000 50649999.000000,48174999.000000 Z"/> 
<svg:path style="fill:#C83434; fill-opacity:1.0;  stroke:#C83434; stroke-width:1.000000; stroke-opacity:1;  stroke-linecap:round; stroke-linejoin:round;fill-rule:evenodd;" d="M 49850001.000000,48174999.000000 49850001.000000,47025001.000000 50149999.000000,47025001.000000 50149999.000000,48174999.000000 Z"/> 
<svg:path style="fill:#C83434; fill-opacity:1.0;  stroke:#C83434; stroke-width:1.000000; stroke-opacity:1;  stroke-linecap:round; stroke-linejoin:round;fill-rule:evenodd;" d="M 49350001.000000,48174999.000000 49350001.000000,47025001.000000 49649999.000000,47025001.000000 49649999.000000,48174999.000000 Z"/> 
<svg:path style="fill:#C83434; fill-opacity:1.0;  stroke:#C83434; stroke-width:1.000000; stroke-opacity:1;  stroke-linecap:round; stroke-linejoin:round;fill-rule:evenodd;" d="M 48850001.000000,48174999.000000 48850001.000000,47025001.000000 49149999.000000,47025001.000000 49149999.000000,48174999.000000 Z"/> 
<svg:path style="fill:#C83434; fill-opacity:1.0;  stroke:#C83434; stroke-width:1.000000; stroke-opacity:1;  stroke-linecap:round; stroke-linejoin:round;fill-rule:evenodd;" d="M 48350001.000000,48174999.000000 48350001.000000,47025001.000000 48649999.000000,47025001.000000 48649999.000000,48174999.000000 Z"/> 
<svg:path style="fill:#C83434; fill-opacity:1.0;  stroke:#C83434; stroke-width:1.000000; stroke-opacity:1;  stroke-linecap:round; stroke-linejoin:round;fill-rule:evenodd;" d="M 48425001.000000,51574999.000000 48425001.000000,48425001.000000 51574999.000000,48425001.000000 51574999.000000,51574999.000000 Z"/> 
</svg:g>
<svg:g>
</svg:g>
<svg:g>
</svg:g>
<svg:g>
</svg:g>
</svg:g>
<svg:g style="fill:#FFFFFF; fill-opacity:1.0;  stroke:#FFFFFF; stroke-width:1.000000; stroke-opacity:1;  stroke-linecap:round; stroke-linejoin:round;">
</svg:g>
<svg:g style="fill:#000000; fill-opacity:1.0;  stroke:#000000; stroke-width:1.000000; stroke-opacity:1;  stroke-linecap:round; stroke-linejoin:round;">
<svg:g>
</svg:g>
<svg:g>
</svg:g>
<svg:g>
</svg:g>
<svg:g>
</svg:g>
</svg:g> 
</svg:g></svg>
