<?xml version='1.0' encoding='ASCII' standalone='yes'?>
<svg xmlns:svg="http://www.w3.org/2000/svg" xmlns="http://www.w3.org/2000/svg" xmlns:xlink="http://www.w3.org/1999/xlink" version="1.1" width="9.999980cm" height="9.999980cm" viewBox="0 0 99999800 99999800">
<title>SVG Picture created as kicadBoard-B_Cu.svg date 2022/11/17 09:25:07 </title>
  <desc>Picture generated by PCBNEW </desc>
<g style="fill:#000000; fill-opacity:1.000000;stroke:#000000; stroke-opacity:1.000000; stroke-linecap:round; stroke-linejoin:round;" transform="translate(0 0) scale(1 1)">
</g>
<g style="fill:#000000; fill-opacity:0.0;  stroke:#000000; stroke-width:0.000000; stroke-opacity:1;  stroke-linecap:round; stroke-linejoin:round;">
<g>
</g>
<g style="fill:#4D7FC4; fill-opacity:0.0;  stroke:#4D7FC4; stroke-width:0.000000; stroke-opacity:1;  stroke-linecap:round; stroke-linejoin:round;">
</g>
<g style="fill:#4D7FC4; fill-opacity:0.0;  stroke:#4D7FC4; stroke-width:1.000000; stroke-opacity:1;  stroke-linecap:round; stroke-linejoin:round;">
</g>
<g style="fill:#4D7FC4; fill-opacity:1.0;  stroke:#4D7FC4; stroke-width:1.000000; stroke-opacity:1;  stroke-linecap:round; stroke-linejoin:round;">
<path style="fill:#4D7FC4; fill-opacity:1.0;  stroke:#4D7FC4; stroke-width:1.000000; stroke-opacity:1;  stroke-linecap:round; stroke-linejoin:round;fill-rule:evenodd;" d="M 49150000.000000,50850000.000000 49150000.000000,49150000.000000 50850000.000000,49150000.000000 50850000.000000,50850000.000000 Z"/> 
<circle cx="50000000.000000" cy="52540000.000000" r="850000.000000"/> 
<circle cx="50000000.000000" cy="55080000.000000" r="850000.000000"/> 
<circle cx="50000000.000000" cy="57620000.000000" r="850000.000000"/> 
<circle cx="50000000.000000" cy="60160000.000000" r="850000.000000"/> 
<circle cx="50000000.000000" cy="62700000.000000" r="850000.000000"/> 
<circle cx="50000000.000000" cy="65240000.000000" r="850000.000000"/> 
<circle cx="50000000.000000" cy="67780000.000000" r="850000.000000"/> 
<circle cx="50000000.000000" cy="70320000.000000" r="850000.000000"/> 
<circle cx="50000000.000000" cy="72860000.000000" r="850000.000000"/> 
<circle cx="50000000.000000" cy="75400000.000000" r="850000.000000"/> 
<circle cx="50000000.000000" cy="77940000.000000" r="850000.000000"/> 
<circle cx="50000000.000000" cy="80480000.000000" r="850000.000000"/> 
<circle cx="50000000.000000" cy="83020000.000000" r="850000.000000"/> 
<circle cx="50000000.000000" cy="85560000.000000" r="850000.000000"/> 
<circle cx="50000000.000000" cy="88100000.000000" r="850000.000000"/> 
<circle cx="50000000.000000" cy="90640000.000000" r="850000.000000"/> 
<circle cx="50000000.000000" cy="93180000.000000" r="850000.000000"/> 
<circle cx="50000000.000000" cy="95720000.000000" r="850000.000000"/> 
<circle cx="50000000.000000" cy="98260000.000000" r="850000.000000"/> 
<circle cx="50000000.000000" cy="100800000.000000" r="850000.000000"/> 
<circle cx="50000000.000000" cy="103340000.000000" r="850000.000000"/> 
<circle cx="50000000.000000" cy="105880000.000000" r="850000.000000"/> 
<circle cx="50000000.000000" cy="108420000.000000" r="850000.000000"/> 
</g>
<g>
</g>
<g>
</g>
<g>
</g>
</g>
<g style="fill:#FFFFFF; fill-opacity:1.0;  stroke:#FFFFFF; stroke-width:1.000000; stroke-opacity:1;  stroke-linecap:round; stroke-linejoin:round;">
<circle cx="50000000.000000" cy="50000000.000000" r="500000.000000"/> 
</g>
<g style="fill:#FFFFFF; fill-opacity:1.0;  stroke:#FFFFFF; stroke-width:21200.000000; stroke-opacity:1;  stroke-linecap:round; stroke-linejoin:round;">
</g>
<g style="fill:#FFFFFF; fill-opacity:1.0;  stroke:#FFFFFF; stroke-width:1.000000; stroke-opacity:1;  stroke-linecap:round; stroke-linejoin:round;">
<circle cx="50000000.000000" cy="52540000.000000" r="500000.000000"/> 
</g>
<g style="fill:#FFFFFF; fill-opacity:1.0;  stroke:#FFFFFF; stroke-width:21200.000000; stroke-opacity:1;  stroke-linecap:round; stroke-linejoin:round;">
</g>
<g style="fill:#FFFFFF; fill-opacity:1.0;  stroke:#FFFFFF; stroke-width:1.000000; stroke-opacity:1;  stroke-linecap:round; stroke-linejoin:round;">
<circle cx="50000000.000000" cy="55080000.000000" r="500000.000000"/> 
</g>
<g style="fill:#FFFFFF; fill-opacity:1.0;  stroke:#FFFFFF; stroke-width:21200.000000; stroke-opacity:1;  stroke-linecap:round; stroke-linejoin:round;">
</g>
<g style="fill:#FFFFFF; fill-opacity:1.0;  stroke:#FFFFFF; stroke-width:1.000000; stroke-opacity:1;  stroke-linecap:round; stroke-linejoin:round;">
<circle cx="50000000.000000" cy="57620000.000000" r="500000.000000"/> 
</g>
<g style="fill:#FFFFFF; fill-opacity:1.0;  stroke:#FFFFFF; stroke-width:21200.000000; stroke-opacity:1;  stroke-linecap:round; stroke-linejoin:round;">
</g>
<g style="fill:#FFFFFF; fill-opacity:1.0;  stroke:#FFFFFF; stroke-width:1.000000; stroke-opacity:1;  stroke-linecap:round; stroke-linejoin:round;">
<circle cx="50000000.000000" cy="60160000.000000" r="500000.000000"/> 
</g>
<g style="fill:#FFFFFF; fill-opacity:1.0;  stroke:#FFFFFF; stroke-width:21200.000000; stroke-opacity:1;  stroke-linecap:round; stroke-linejoin:round;">
</g>
<g style="fill:#FFFFFF; fill-opacity:1.0;  stroke:#FFFFFF; stroke-width:1.000000; stroke-opacity:1;  stroke-linecap:round; stroke-linejoin:round;">
<circle cx="50000000.000000" cy="62700000.000000" r="500000.000000"/> 
</g>
<g style="fill:#FFFFFF; fill-opacity:1.0;  stroke:#FFFFFF; stroke-width:21200.000000; stroke-opacity:1;  stroke-linecap:round; stroke-linejoin:round;">
</g>
<g style="fill:#FFFFFF; fill-opacity:1.0;  stroke:#FFFFFF; stroke-width:1.000000; stroke-opacity:1;  stroke-linecap:round; stroke-linejoin:round;">
<circle cx="50000000.000000" cy="65240000.000000" r="500000.000000"/> 
</g>
<g style="fill:#FFFFFF; fill-opacity:1.0;  stroke:#FFFFFF; stroke-width:21200.000000; stroke-opacity:1;  stroke-linecap:round; stroke-linejoin:round;">
</g>
<g style="fill:#FFFFFF; fill-opacity:1.0;  stroke:#FFFFFF; stroke-width:1.000000; stroke-opacity:1;  stroke-linecap:round; stroke-linejoin:round;">
<circle cx="50000000.000000" cy="67780000.000000" r="500000.000000"/> 
</g>
<g style="fill:#FFFFFF; fill-opacity:1.0;  stroke:#FFFFFF; stroke-width:21200.000000; stroke-opacity:1;  stroke-linecap:round; stroke-linejoin:round;">
</g>
<g style="fill:#FFFFFF; fill-opacity:1.0;  stroke:#FFFFFF; stroke-width:1.000000; stroke-opacity:1;  stroke-linecap:round; stroke-linejoin:round;">
<circle cx="50000000.000000" cy="70320000.000000" r="500000.000000"/> 
</g>
<g style="fill:#FFFFFF; fill-opacity:1.0;  stroke:#FFFFFF; stroke-width:21200.000000; stroke-opacity:1;  stroke-linecap:round; stroke-linejoin:round;">
</g>
<g style="fill:#FFFFFF; fill-opacity:1.0;  stroke:#FFFFFF; stroke-width:1.000000; stroke-opacity:1;  stroke-linecap:round; stroke-linejoin:round;">
<circle cx="50000000.000000" cy="72860000.000000" r="500000.000000"/> 
</g>
<g style="fill:#FFFFFF; fill-opacity:1.0;  stroke:#FFFFFF; stroke-width:21200.000000; stroke-opacity:1;  stroke-linecap:round; stroke-linejoin:round;">
</g>
<g style="fill:#FFFFFF; fill-opacity:1.0;  stroke:#FFFFFF; stroke-width:1.000000; stroke-opacity:1;  stroke-linecap:round; stroke-linejoin:round;">
<circle cx="50000000.000000" cy="75400000.000000" r="500000.000000"/> 
</g>
<g style="fill:#FFFFFF; fill-opacity:1.0;  stroke:#FFFFFF; stroke-width:21200.000000; stroke-opacity:1;  stroke-linecap:round; stroke-linejoin:round;">
</g>
<g style="fill:#FFFFFF; fill-opacity:1.0;  stroke:#FFFFFF; stroke-width:1.000000; stroke-opacity:1;  stroke-linecap:round; stroke-linejoin:round;">
<circle cx="50000000.000000" cy="77940000.000000" r="500000.000000"/> 
</g>
<g style="fill:#FFFFFF; fill-opacity:1.0;  stroke:#FFFFFF; stroke-width:21200.000000; stroke-opacity:1;  stroke-linecap:round; stroke-linejoin:round;">
</g>
<g style="fill:#FFFFFF; fill-opacity:1.0;  stroke:#FFFFFF; stroke-width:1.000000; stroke-opacity:1;  stroke-linecap:round; stroke-linejoin:round;">
<circle cx="50000000.000000" cy="80480000.000000" r="500000.000000"/> 
</g>
<g style="fill:#FFFFFF; fill-opacity:1.0;  stroke:#FFFFFF; stroke-width:21200.000000; stroke-opacity:1;  stroke-linecap:round; stroke-linejoin:round;">
</g>
<g style="fill:#FFFFFF; fill-opacity:1.0;  stroke:#FFFFFF; stroke-width:1.000000; stroke-opacity:1;  stroke-linecap:round; stroke-linejoin:round;">
<circle cx="50000000.000000" cy="83020000.000000" r="500000.000000"/> 
</g>
<g style="fill:#FFFFFF; fill-opacity:1.0;  stroke:#FFFFFF; stroke-width:21200.000000; stroke-opacity:1;  stroke-linecap:round; stroke-linejoin:round;">
</g>
<g style="fill:#FFFFFF; fill-opacity:1.0;  stroke:#FFFFFF; stroke-width:1.000000; stroke-opacity:1;  stroke-linecap:round; stroke-linejoin:round;">
<circle cx="50000000.000000" cy="85560000.000000" r="500000.000000"/> 
</g>
<g style="fill:#FFFFFF; fill-opacity:1.0;  stroke:#FFFFFF; stroke-width:21200.000000; stroke-opacity:1;  stroke-linecap:round; stroke-linejoin:round;">
</g>
<g style="fill:#FFFFFF; fill-opacity:1.0;  stroke:#FFFFFF; stroke-width:1.000000; stroke-opacity:1;  stroke-linecap:round; stroke-linejoin:round;">
<circle cx="50000000.000000" cy="88100000.000000" r="500000.000000"/> 
</g>
<g style="fill:#FFFFFF; fill-opacity:1.0;  stroke:#FFFFFF; stroke-width:21200.000000; stroke-opacity:1;  stroke-linecap:round; stroke-linejoin:round;">
</g>
<g style="fill:#FFFFFF; fill-opacity:1.0;  stroke:#FFFFFF; stroke-width:1.000000; stroke-opacity:1;  stroke-linecap:round; stroke-linejoin:round;">
<circle cx="50000000.000000" cy="90640000.000000" r="500000.000000"/> 
</g>
<g style="fill:#FFFFFF; fill-opacity:1.0;  stroke:#FFFFFF; stroke-width:21200.000000; stroke-opacity:1;  stroke-linecap:round; stroke-linejoin:round;">
</g>
<g style="fill:#FFFFFF; fill-opacity:1.0;  stroke:#FFFFFF; stroke-width:1.000000; stroke-opacity:1;  stroke-linecap:round; stroke-linejoin:round;">
<circle cx="50000000.000000" cy="93180000.000000" r="500000.000000"/> 
</g>
<g style="fill:#FFFFFF; fill-opacity:1.0;  stroke:#FFFFFF; stroke-width:21200.000000; stroke-opacity:1;  stroke-linecap:round; stroke-linejoin:round;">
</g>
<g style="fill:#FFFFFF; fill-opacity:1.0;  stroke:#FFFFFF; stroke-width:1.000000; stroke-opacity:1;  stroke-linecap:round; stroke-linejoin:round;">
<circle cx="50000000.000000" cy="95720000.000000" r="500000.000000"/> 
</g>
<g style="fill:#FFFFFF; fill-opacity:1.0;  stroke:#FFFFFF; stroke-width:21200.000000; stroke-opacity:1;  stroke-linecap:round; stroke-linejoin:round;">
</g>
<g style="fill:#FFFFFF; fill-opacity:1.0;  stroke:#FFFFFF; stroke-width:1.000000; stroke-opacity:1;  stroke-linecap:round; stroke-linejoin:round;">
<circle cx="50000000.000000" cy="98260000.000000" r="500000.000000"/> 
</g>
<g style="fill:#FFFFFF; fill-opacity:1.0;  stroke:#FFFFFF; stroke-width:21200.000000; stroke-opacity:1;  stroke-linecap:round; stroke-linejoin:round;">
</g>
<g style="fill:#FFFFFF; fill-opacity:1.0;  stroke:#FFFFFF; stroke-width:1.000000; stroke-opacity:1;  stroke-linecap:round; stroke-linejoin:round;">
<circle cx="50000000.000000" cy="100800000.000000" r="500000.000000"/> 
</g>
<g style="fill:#FFFFFF; fill-opacity:1.0;  stroke:#FFFFFF; stroke-width:21200.000000; stroke-opacity:1;  stroke-linecap:round; stroke-linejoin:round;">
</g>
<g style="fill:#FFFFFF; fill-opacity:1.0;  stroke:#FFFFFF; stroke-width:1.000000; stroke-opacity:1;  stroke-linecap:round; stroke-linejoin:round;">
<circle cx="50000000.000000" cy="103340000.000000" r="500000.000000"/> 
</g>
<g style="fill:#FFFFFF; fill-opacity:1.0;  stroke:#FFFFFF; stroke-width:21200.000000; stroke-opacity:1;  stroke-linecap:round; stroke-linejoin:round;">
</g>
<g style="fill:#FFFFFF; fill-opacity:1.0;  stroke:#FFFFFF; stroke-width:1.000000; stroke-opacity:1;  stroke-linecap:round; stroke-linejoin:round;">
<circle cx="50000000.000000" cy="105880000.000000" r="500000.000000"/> 
</g>
<g style="fill:#FFFFFF; fill-opacity:1.0;  stroke:#FFFFFF; stroke-width:21200.000000; stroke-opacity:1;  stroke-linecap:round; stroke-linejoin:round;">
</g>
<g style="fill:#FFFFFF; fill-opacity:1.0;  stroke:#FFFFFF; stroke-width:1.000000; stroke-opacity:1;  stroke-linecap:round; stroke-linejoin:round;">
<circle cx="50000000.000000" cy="108420000.000000" r="500000.000000"/> 
</g>
<g style="fill:#FFFFFF; fill-opacity:1.0;  stroke:#FFFFFF; stroke-width:21200.000000; stroke-opacity:1;  stroke-linecap:round; stroke-linejoin:round;">
</g>
<g style="fill:#000000; fill-opacity:1.0;  stroke:#000000; stroke-width:21200.000000; stroke-opacity:1;  stroke-linecap:round; stroke-linejoin:round;">
<g>
</g>
<g>
</g>
<g>
</g>
<g>
</g>
</g> 
<svg:g><svg:title>SVG Picture created as kicadBoard-B_Adhesive.svg date 2022/11/17 09:25:07 </svg:title>
  <svg:desc>Picture generated by PCBNEW </svg:desc>
<svg:g style="fill:#000000; fill-opacity:1.000000;stroke:#000000; stroke-opacity:1.000000; stroke-linecap:round; stroke-linejoin:round;" transform="translate(0 0) scale(1 1)">
</svg:g>
<svg:g style="fill:#000000; fill-opacity:0.0;  stroke:#000000; stroke-width:0.000000; stroke-opacity:1;  stroke-linecap:round; stroke-linejoin:round;">
<svg:g>
</svg:g>
<svg:g>
</svg:g>
<svg:g>
</svg:g>
<svg:g>
</svg:g>
</svg:g>
<svg:g style="fill:#000000; fill-opacity:0.0;  stroke:#000000; stroke-width:0.000000; stroke-opacity:1;  stroke-linecap:round; stroke-linejoin:round;">
<svg:g>
</svg:g>
<svg:g>
</svg:g>
<svg:g>
</svg:g>
<svg:g>
</svg:g>
</svg:g> 
</svg:g><svg:g><svg:title>SVG Picture created as kicadBoard-B_Courtyard.svg date 2022/11/17 09:25:07 </svg:title>
  <svg:desc>Picture generated by PCBNEW </svg:desc>
<svg:g style="fill:#000000; fill-opacity:1.000000;stroke:#000000; stroke-opacity:1.000000; stroke-linecap:round; stroke-linejoin:round;" transform="translate(0 0) scale(1 1)">
</svg:g>
<svg:g style="fill:#000000; fill-opacity:0.0;  stroke:#000000; stroke-width:0.000000; stroke-opacity:1;  stroke-linecap:round; stroke-linejoin:round;">
<svg:g>
</svg:g>
<svg:g>
</svg:g>
<svg:g>
</svg:g>
<svg:g>
</svg:g>
</svg:g>
<svg:g style="fill:#000000; fill-opacity:0.0;  stroke:#000000; stroke-width:0.000000; stroke-opacity:1;  stroke-linecap:round; stroke-linejoin:round;">
<svg:g>
</svg:g>
<svg:g>
</svg:g>
<svg:g>
</svg:g>
<svg:g>
</svg:g>
</svg:g> 
</svg:g><svg:g><svg:title>SVG Picture created as kicadBoard-B_Fab.svg date 2022/11/17 09:25:07 </svg:title>
  <svg:desc>Picture generated by PCBNEW </svg:desc>
<svg:g style="fill:#000000; fill-opacity:1.000000;stroke:#000000; stroke-opacity:1.000000; stroke-linecap:round; stroke-linejoin:round;" transform="translate(0 0) scale(1 1)">
</svg:g>
<svg:g style="fill:#000000; fill-opacity:0.0;  stroke:#000000; stroke-width:0.000000; stroke-opacity:1;  stroke-linecap:round; stroke-linejoin:round;">
<svg:g>
</svg:g>
<svg:g>
</svg:g>
<svg:g>
</svg:g>
<svg:g>
</svg:g>
</svg:g>
<svg:g style="fill:#000000; fill-opacity:0.0;  stroke:#000000; stroke-width:0.000000; stroke-opacity:1;  stroke-linecap:round; stroke-linejoin:round;">
<svg:g>
</svg:g>
<svg:g>
</svg:g>
<svg:g>
</svg:g>
<svg:g>
</svg:g>
</svg:g> 
</svg:g><svg:g><svg:title>SVG Picture created as kicadBoard-B_Mask.svg date 2022/11/17 09:25:07 </svg:title>
  <svg:desc>Picture generated by PCBNEW </svg:desc>
<svg:g style="fill:#000000; fill-opacity:1.000000;stroke:#000000; stroke-opacity:1.000000; stroke-linecap:round; stroke-linejoin:round;" transform="translate(0 0) scale(1 1)">
</svg:g>
<svg:g style="fill:#000000; fill-opacity:0.0;  stroke:#000000; stroke-width:0.000000; stroke-opacity:1;  stroke-linecap:round; stroke-linejoin:round;">
<svg:g>
</svg:g>
<svg:g style="fill:#000000; fill-opacity:0.0;  stroke:#000000; stroke-width:1.000000; stroke-opacity:1;  stroke-linecap:round; stroke-linejoin:round;">
</svg:g>
<svg:g style="fill:#000000; fill-opacity:1.0;  stroke:#000000; stroke-width:1.000000; stroke-opacity:1;  stroke-linecap:round; stroke-linejoin:round;">
<svg:path style="fill:#000000; fill-opacity:1.0;  stroke:#000000; stroke-width:1.000000; stroke-opacity:1;  stroke-linecap:round; stroke-linejoin:round;fill-rule:evenodd;" d="M 49150000.000000,50850000.000000 49150000.000000,49150000.000000 50850000.000000,49150000.000000 50850000.000000,50850000.000000 Z"/> 
<svg:circle cx="50000000.000000" cy="52540000.000000" r="850000.000000"/> 
<svg:circle cx="50000000.000000" cy="55080000.000000" r="850000.000000"/> 
<svg:circle cx="50000000.000000" cy="57620000.000000" r="850000.000000"/> 
<svg:circle cx="50000000.000000" cy="60160000.000000" r="850000.000000"/> 
<svg:circle cx="50000000.000000" cy="62700000.000000" r="850000.000000"/> 
<svg:circle cx="50000000.000000" cy="65240000.000000" r="850000.000000"/> 
<svg:circle cx="50000000.000000" cy="67780000.000000" r="850000.000000"/> 
<svg:circle cx="50000000.000000" cy="70320000.000000" r="850000.000000"/> 
<svg:circle cx="50000000.000000" cy="72860000.000000" r="850000.000000"/> 
<svg:circle cx="50000000.000000" cy="75400000.000000" r="850000.000000"/> 
<svg:circle cx="50000000.000000" cy="77940000.000000" r="850000.000000"/> 
<svg:circle cx="50000000.000000" cy="80480000.000000" r="850000.000000"/> 
<svg:circle cx="50000000.000000" cy="83020000.000000" r="850000.000000"/> 
<svg:circle cx="50000000.000000" cy="85560000.000000" r="850000.000000"/> 
<svg:circle cx="50000000.000000" cy="88100000.000000" r="850000.000000"/> 
<svg:circle cx="50000000.000000" cy="90640000.000000" r="850000.000000"/> 
<svg:circle cx="50000000.000000" cy="93180000.000000" r="850000.000000"/> 
<svg:circle cx="50000000.000000" cy="95720000.000000" r="850000.000000"/> 
<svg:circle cx="50000000.000000" cy="98260000.000000" r="850000.000000"/> 
<svg:circle cx="50000000.000000" cy="100800000.000000" r="850000.000000"/> 
<svg:circle cx="50000000.000000" cy="103340000.000000" r="850000.000000"/> 
<svg:circle cx="50000000.000000" cy="105880000.000000" r="850000.000000"/> 
<svg:circle cx="50000000.000000" cy="108420000.000000" r="850000.000000"/> 
</svg:g>
<svg:g>
</svg:g>
<svg:g>
</svg:g>
<svg:g>
</svg:g>
</svg:g>
<svg:g style="fill:#000000; fill-opacity:1.0;  stroke:#000000; stroke-width:1.000000; stroke-opacity:1;  stroke-linecap:round; stroke-linejoin:round;">
<svg:g>
</svg:g>
<svg:g>
</svg:g>
<svg:g>
</svg:g>
<svg:g>
</svg:g>
</svg:g> 
</svg:g><svg:g><svg:title>SVG Picture created as kicadBoard-B_Paste.svg date 2022/11/17 09:25:07 </svg:title>
  <svg:desc>Picture generated by PCBNEW </svg:desc>
<svg:g style="fill:#000000; fill-opacity:1.000000;stroke:#000000; stroke-opacity:1.000000; stroke-linecap:round; stroke-linejoin:round;" transform="translate(0 0) scale(1 1)">
</svg:g>
<svg:g style="fill:#000000; fill-opacity:0.0;  stroke:#000000; stroke-width:0.000000; stroke-opacity:1;  stroke-linecap:round; stroke-linejoin:round;">
<svg:g>
</svg:g>
<svg:g>
</svg:g>
<svg:g>
</svg:g>
<svg:g>
</svg:g>
</svg:g>
<svg:g style="fill:#000000; fill-opacity:0.0;  stroke:#000000; stroke-width:0.000000; stroke-opacity:1;  stroke-linecap:round; stroke-linejoin:round;">
<svg:g>
</svg:g>
<svg:g>
</svg:g>
<svg:g>
</svg:g>
<svg:g>
</svg:g>
</svg:g> 
</svg:g><svg:g><svg:title>SVG Picture created as kicadBoard-B_Silkscreen.svg date 2022/11/17 09:25:07 </svg:title>
  <svg:desc>Picture generated by PCBNEW </svg:desc>
<svg:g style="fill:#000000; fill-opacity:1.000000;stroke:#000000; stroke-opacity:1.000000; stroke-linecap:round; stroke-linejoin:round;" transform="translate(0 0) scale(1 1)">
</svg:g>
<svg:g style="fill:#000000; fill-opacity:0.0;  stroke:#000000; stroke-width:0.000000; stroke-opacity:1;  stroke-linecap:round; stroke-linejoin:round;">
<svg:g>
</svg:g>
<svg:g>
</svg:g>
<svg:g>
</svg:g>
<svg:g>
</svg:g>
</svg:g>
<svg:g style="fill:#000000; fill-opacity:0.0;  stroke:#000000; stroke-width:0.000000; stroke-opacity:1;  stroke-linecap:round; stroke-linejoin:round;">
<svg:g>
</svg:g>
<svg:g>
</svg:g>
<svg:g>
</svg:g>
<svg:g>
</svg:g>
</svg:g> 
</svg:g><svg:g><svg:title>SVG Picture created as kicadBoard-Edge_Cuts.svg date 2022/11/17 09:25:07 </svg:title>
  <svg:desc>Picture generated by PCBNEW </svg:desc>
<svg:g style="fill:#000000; fill-opacity:1.000000;stroke:#000000; stroke-opacity:1.000000; stroke-linecap:round; stroke-linejoin:round;" transform="translate(0 0) scale(1 1)">
</svg:g>
<svg:g style="fill:#000000; fill-opacity:0.0;  stroke:#000000; stroke-width:0.000000; stroke-opacity:1;  stroke-linecap:round; stroke-linejoin:round;">
<svg:g>
</svg:g>
<svg:g>
</svg:g>
<svg:g>
</svg:g>
<svg:g>
</svg:g>
</svg:g> 
</svg:g><svg:g><svg:title>SVG Picture created as kicadBoard-F_Adhesive.svg date 2022/11/17 09:25:07 </svg:title>
  <svg:desc>Picture generated by PCBNEW </svg:desc>
<svg:g style="fill:#000000; fill-opacity:1.000000;stroke:#000000; stroke-opacity:1.000000; stroke-linecap:round; stroke-linejoin:round;" transform="translate(0 0) scale(1 1)">
</svg:g>
<svg:g style="fill:#000000; fill-opacity:0.0;  stroke:#000000; stroke-width:0.000000; stroke-opacity:1;  stroke-linecap:round; stroke-linejoin:round;">
<svg:g>
</svg:g>
<svg:g>
</svg:g>
<svg:g>
</svg:g>
<svg:g>
</svg:g>
</svg:g>
<svg:g style="fill:#000000; fill-opacity:0.0;  stroke:#000000; stroke-width:0.000000; stroke-opacity:1;  stroke-linecap:round; stroke-linejoin:round;">
<svg:g>
</svg:g>
<svg:g>
</svg:g>
<svg:g>
</svg:g>
<svg:g>
</svg:g>
</svg:g> 
</svg:g><svg:g><svg:title>SVG Picture created as kicadBoard-F_Courtyard.svg date 2022/11/17 09:25:07 </svg:title>
  <svg:desc>Picture generated by PCBNEW </svg:desc>
<svg:g style="fill:#000000; fill-opacity:1.000000;stroke:#000000; stroke-opacity:1.000000; stroke-linecap:round; stroke-linejoin:round;" transform="translate(0 0) scale(1 1)">
</svg:g>
<svg:g style="fill:#000000; fill-opacity:0.0;  stroke:#000000; stroke-width:0.000000; stroke-opacity:1;  stroke-linecap:round; stroke-linejoin:round;">
</svg:g>
<svg:g style="fill:#FF26E2; fill-opacity:0.0;  stroke:#FF26E2; stroke-width:0.000000; stroke-opacity:1;  stroke-linecap:round; stroke-linejoin:round;">
</svg:g>
<svg:g style="fill:#FF26E2; fill-opacity:0.0;  stroke:#FF26E2; stroke-width:50000.000000; stroke-opacity:1;  stroke-linecap:round; stroke-linejoin:round;">
<svg:path d="M48200000 110200000 L51800000 110200000 "/>
<svg:path d="M51800000 48200000 L48200000 48200000 "/>
<svg:path d="M51800000 110200000 L51800000 48200000 "/>
<svg:path d="M48200000 48200000 L48200000 110200000 "/>
<svg:g>
</svg:g>
<svg:g>
</svg:g>
<svg:g>
</svg:g>
<svg:g>
</svg:g>
</svg:g>
<svg:g style="fill:#000000; fill-opacity:0.0;  stroke:#000000; stroke-width:50000.000000; stroke-opacity:1;  stroke-linecap:round; stroke-linejoin:round;">
<svg:g>
</svg:g>
<svg:g>
</svg:g>
<svg:g>
</svg:g>
<svg:g>
</svg:g>
</svg:g> 
</svg:g><svg:g><svg:title>SVG Picture created as kicadBoard-F_Fab.svg date 2022/11/17 09:25:07 </svg:title>
  <svg:desc>Picture generated by PCBNEW </svg:desc>
<svg:g style="fill:#000000; fill-opacity:1.000000;stroke:#000000; stroke-opacity:1.000000; stroke-linecap:round; stroke-linejoin:round;" transform="translate(0 0) scale(1 1)">
</svg:g>
<svg:g style="fill:#000000; fill-opacity:0.0;  stroke:#000000; stroke-width:0.000000; stroke-opacity:1;  stroke-linecap:round; stroke-linejoin:round;">
</svg:g>
<svg:g style="fill:#AFAFAF; fill-opacity:0.0;  stroke:#AFAFAF; stroke-width:0.000000; stroke-opacity:1;  stroke-linecap:round; stroke-linejoin:round;">
</svg:g>
<svg:g style="fill:#AFAFAF; fill-opacity:0.0;  stroke:#AFAFAF; stroke-width:150000.000000; stroke-opacity:1;  stroke-linecap:round; stroke-linejoin:round;">
<svg:text x="50000000.000000" y="111250000.000000" textLength="26385476.000000" font-size="1333333.000000" lengthAdjust="spacingAndGlyphs" text-anchor="middle" opacity="0">PinHeader_1x24_P2.54mm_Vertical</svg:text>
<svg:g class="stroked-text"><svg:desc>PinHeader_1x24_P2.54mm_Vertical</svg:desc>
<svg:path d="M37142857 111202380 L37142857 110202380 L37523809 110202380 L37619047 110250000 L37666666 110297619 L37714285 110392857 L37714285 110535714 L37666666 110630952 L37619047 110678571 L37523809 110726190 L37142857 110726190 "/>
<svg:path d="M38142857 111202380 L38142857 110535714 "/>
<svg:path d="M38142857 110202380 L38095238 110250000 L38142857 110297619 L38190476 110250000 L38142857 110202380 L38142857 110297619 "/>
<svg:path d="M38619047 110535714 L38619047 111202380 "/>
<svg:path d="M38619047 110630952 L38666666 110583333 L38761904 110535714 L38904761 110535714 L39000000 110583333 L39047619 110678571 L39047619 111202380 "/>
<svg:path d="M39523809 111202380 L39523809 110202380 "/>
<svg:path d="M39523809 110678571 L40095238 110678571 "/>
<svg:path d="M40095238 111202380 L40095238 110202380 "/>
<svg:path d="M40952380 111154761 L40857142 111202380 L40666666 111202380 L40571428 111154761 L40523809 111059523 L40523809 110678571 L40571428 110583333 L40666666 110535714 L40857142 110535714 L40952380 110583333 L41000000 110678571 L41000000 110773809 L40523809 110869047 "/>
<svg:path d="M41857142 111202380 L41857142 110678571 L41809523 110583333 L41714285 110535714 L41523809 110535714 L41428571 110583333 "/>
<svg:path d="M41857142 111154761 L41761904 111202380 L41523809 111202380 L41428571 111154761 L41380952 111059523 L41380952 110964285 L41428571 110869047 L41523809 110821428 L41761904 110821428 L41857142 110773809 "/>
<svg:path d="M42761904 111202380 L42761904 110202380 "/>
<svg:path d="M42761904 111154761 L42666666 111202380 L42476190 111202380 L42380952 111154761 L42333333 111107142 L42285714 111011904 L42285714 110726190 L42333333 110630952 L42380952 110583333 L42476190 110535714 L42666666 110535714 L42761904 110583333 "/>
<svg:path d="M43619047 111154761 L43523809 111202380 L43333333 111202380 L43238095 111154761 L43190476 111059523 L43190476 110678571 L43238095 110583333 L43333333 110535714 L43523809 110535714 L43619047 110583333 L43666666 110678571 L43666666 110773809 L43190476 110869047 "/>
<svg:path d="M44095238 111202380 L44095238 110535714 "/>
<svg:path d="M44095238 110726190 L44142857 110630952 L44190476 110583333 L44285714 110535714 L44380952 110535714 "/>
<svg:path d="M44476190 111297619 L45238095 111297619 "/>
<svg:path d="M46000000 111202380 L45428571 111202380 "/>
<svg:path d="M45714285 111202380 L45714285 110202380 L45619047 110345238 L45523809 110440476 L45428571 110488095 "/>
<svg:path d="M46333333 111202380 L46857142 110535714 "/>
<svg:path d="M46333333 110535714 L46857142 111202380 "/>
<svg:path d="M47190476 110297619 L47238095 110250000 L47333333 110202380 L47571428 110202380 L47666666 110250000 L47714285 110297619 L47761904 110392857 L47761904 110488095 L47714285 110630952 L47142857 111202380 L47761904 111202380 "/>
<svg:path d="M48619047 110535714 L48619047 111202380 "/>
<svg:path d="M48380952 110154761 L48142857 110869047 L48761904 110869047 "/>
<svg:path d="M48904761 111297619 L49666666 111297619 "/>
<svg:path d="M49904761 111202380 L49904761 110202380 L50285714 110202380 L50380952 110250000 L50428571 110297619 L50476190 110392857 L50476190 110535714 L50428571 110630952 L50380952 110678571 L50285714 110726190 L49904761 110726190 "/>
<svg:path d="M50857142 110297619 L50904761 110250000 L51000000 110202380 L51238095 110202380 L51333333 110250000 L51380952 110297619 L51428571 110392857 L51428571 110488095 L51380952 110630952 L50809523 111202380 L51428571 111202380 "/>
<svg:path d="M51857142 111107142 L51904761 111154761 L51857142 111202380 L51809523 111154761 L51857142 111107142 L51857142 111202380 "/>
<svg:path d="M52809523 110202380 L52333333 110202380 L52285714 110678571 L52333333 110630952 L52428571 110583333 L52666666 110583333 L52761904 110630952 L52809523 110678571 L52857142 110773809 L52857142 111011904 L52809523 111107142 L52761904 111154761 L52666666 111202380 L52428571 111202380 L52333333 111154761 L52285714 111107142 "/>
<svg:path d="M53714285 110535714 L53714285 111202380 "/>
<svg:path d="M53476190 110154761 L53238095 110869047 L53857142 110869047 "/>
<svg:path d="M54238095 111202380 L54238095 110535714 "/>
<svg:path d="M54238095 110630952 L54285714 110583333 L54380952 110535714 L54523809 110535714 L54619047 110583333 L54666666 110678571 L54666666 111202380 "/>
<svg:path d="M54666666 110678571 L54714285 110583333 L54809523 110535714 L54952380 110535714 L55047619 110583333 L55095238 110678571 L55095238 111202380 "/>
<svg:path d="M55571428 111202380 L55571428 110535714 "/>
<svg:path d="M55571428 110630952 L55619047 110583333 L55714285 110535714 L55857142 110535714 L55952380 110583333 L55999999 110678571 L55999999 111202380 "/>
<svg:path d="M55999999 110678571 L56047619 110583333 L56142857 110535714 L56285714 110535714 L56380952 110583333 L56428571 110678571 L56428571 111202380 "/>
<svg:path d="M56666666 111297619 L57428571 111297619 "/>
<svg:path d="M57523809 110202380 L57857142 111202380 L58190476 110202380 "/>
<svg:path d="M58904761 111154761 L58809523 111202380 L58619047 111202380 L58523809 111154761 L58476190 111059523 L58476190 110678571 L58523809 110583333 L58619047 110535714 L58809523 110535714 L58904761 110583333 L58952380 110678571 L58952380 110773809 L58476190 110869047 "/>
<svg:path d="M59380952 111202380 L59380952 110535714 "/>
<svg:path d="M59380952 110726190 L59428571 110630952 L59476190 110583333 L59571428 110535714 L59666666 110535714 "/>
<svg:path d="M59857142 110535714 L60238095 110535714 "/>
<svg:path d="M59999999 110202380 L59999999 111059523 L60047619 111154761 L60142857 111202380 L60238095 111202380 "/>
<svg:path d="M60571428 111202380 L60571428 110535714 "/>
<svg:path d="M60571428 110202380 L60523809 110250000 L60571428 110297619 L60619047 110250000 L60571428 110202380 L60571428 110297619 "/>
<svg:path d="M61476190 111154761 L61380952 111202380 L61190476 111202380 L61095238 111154761 L61047619 111107142 L60999999 111011904 L60999999 110726190 L61047619 110630952 L61095238 110583333 L61190476 110535714 L61380952 110535714 L61476190 110583333 "/>
<svg:path d="M62333333 111202380 L62333333 110678571 L62285714 110583333 L62190476 110535714 L61999999 110535714 L61904761 110583333 "/>
<svg:path d="M62333333 111154761 L62238095 111202380 L61999999 111202380 L61904761 111154761 L61857142 111059523 L61857142 110964285 L61904761 110869047 L61999999 110821428 L62238095 110821428 L62333333 110773809 "/>
<svg:path d="M62952380 111202380 L62857142 111154761 L62809523 111059523 L62809523 110202380 "/>
</svg:g><svg:g transform="rotate(-90.000000 50000000.000000 79210000.000000)">
<svg:text x="50000000.000000" y="79710000.000000" textLength="38718810.000000" font-size="1333333.000000" lengthAdjust="spacingAndGlyphs" text-anchor="middle" opacity="0">FZKCNPINHEADER254PINHEADER1X24P254VERTICAL</svg:text>
</svg:g>
<svg:g class="stroked-text"><svg:desc>FZKCNPINHEADER254PINHEADER1X24P254VERTICAL</svg:desc>
<svg:path d="M49928571 97900476 L49928571 98233809 "/>
<svg:path d="M50452380 98233809 L49452380 98233809 L49452380 97757619 "/>
<svg:path d="M49452380 97471904 L49452380 96805238 L50452380 97471904 L50452380 96805238 "/>
<svg:path d="M50452380 96424285 L49452380 96424285 "/>
<svg:path d="M50452380 95852857 L49880952 96281428 "/>
<svg:path d="M49452380 95852857 L50023809 96424285 "/>
<svg:path d="M50357142 94852857 L50404761 94900476 L50452380 95043333 L50452380 95138571 L50404761 95281428 L50309523 95376666 L50214285 95424285 L50023809 95471904 L49880952 95471904 L49690476 95424285 L49595238 95376666 L49500000 95281428 L49452380 95138571 L49452380 95043333 L49500000 94900476 L49547619 94852857 "/>
<svg:path d="M50452380 94424285 L49452380 94424285 L50452380 93852857 L49452380 93852857 "/>
<svg:path d="M50452380 93376666 L49452380 93376666 L49452380 92995714 L49500000 92900476 L49547619 92852857 L49642857 92805238 L49785714 92805238 L49880952 92852857 L49928571 92900476 L49976190 92995714 L49976190 93376666 "/>
<svg:path d="M50452380 92376666 L49452380 92376666 "/>
<svg:path d="M50452380 91900476 L49452380 91900476 L50452380 91329047 L49452380 91329047 "/>
<svg:path d="M50452380 90852857 L49452380 90852857 "/>
<svg:path d="M49928571 90852857 L49928571 90281428 "/>
<svg:path d="M50452380 90281428 L49452380 90281428 "/>
<svg:path d="M49928571 89805238 L49928571 89471904 "/>
<svg:path d="M50452380 89329047 L50452380 89805238 L49452380 89805238 L49452380 89329047 "/>
<svg:path d="M50166666 88948095 L50166666 88471904 "/>
<svg:path d="M50452380 89043333 L49452380 88710000 L50452380 88376666 "/>
<svg:path d="M50452380 88043333 L49452380 88043333 L49452380 87805238 L49500000 87662380 L49595238 87567142 L49690476 87519523 L49880952 87471904 L50023809 87471904 L50214285 87519523 L50309523 87567142 L50404761 87662380 L50452380 87805238 L50452380 88043333 "/>
<svg:path d="M49928571 87043333 L49928571 86710000 "/>
<svg:path d="M50452380 86567142 L50452380 87043333 L49452380 87043333 L49452380 86567142 "/>
<svg:path d="M50452380 85567142 L49976190 85900476 "/>
<svg:path d="M50452380 86138571 L49452380 86138571 L49452380 85757619 L49500000 85662380 L49547619 85614761 L49642857 85567142 L49785714 85567142 L49880952 85614761 L49928571 85662380 L49976190 85757619 L49976190 86138571 "/>
<svg:path d="M49547619 85186190 L49500000 85138571 L49452380 85043333 L49452380 84805238 L49500000 84710000 L49547619 84662380 L49642857 84614761 L49738095 84614761 L49880952 84662380 L50452380 85233809 L50452380 84614761 "/>
<svg:path d="M49452380 83710000 L49452380 84186190 L49928571 84233809 L49880952 84186190 L49833333 84090952 L49833333 83852857 L49880952 83757619 L49928571 83710000 L50023809 83662380 L50261904 83662380 L50357142 83710000 L50404761 83757619 L50452380 83852857 L50452380 84090952 L50404761 84186190 L50357142 84233809 "/>
<svg:path d="M49785714 82805238 L50452380 82805238 "/>
<svg:path d="M49404761 83043333 L50119047 83281428 L50119047 82662380 "/>
<svg:path d="M50452380 82281428 L49452380 82281428 L49452380 81900476 L49500000 81805238 L49547619 81757619 L49642857 81710000 L49785714 81710000 L49880952 81757619 L49928571 81805238 L49976190 81900476 L49976190 82281428 "/>
<svg:path d="M50452380 81281428 L49452380 81281428 "/>
<svg:path d="M50452380 80805238 L49452380 80805238 L50452380 80233809 L49452380 80233809 "/>
<svg:path d="M50452380 79757619 L49452380 79757619 "/>
<svg:path d="M49928571 79757619 L49928571 79186190 "/>
<svg:path d="M50452380 79186190 L49452380 79186190 "/>
<svg:path d="M49928571 78710000 L49928571 78376666 "/>
<svg:path d="M50452380 78233809 L50452380 78710000 L49452380 78710000 L49452380 78233809 "/>
<svg:path d="M50166666 77852857 L50166666 77376666 "/>
<svg:path d="M50452380 77948095 L49452380 77614761 L50452380 77281428 "/>
<svg:path d="M50452380 76948095 L49452380 76948095 L49452380 76710000 L49500000 76567142 L49595238 76471904 L49690476 76424285 L49880952 76376666 L50023809 76376666 L50214285 76424285 L50309523 76471904 L50404761 76567142 L50452380 76710000 L50452380 76948095 "/>
<svg:path d="M49928571 75948095 L49928571 75614761 "/>
<svg:path d="M50452380 75471904 L50452380 75948095 L49452380 75948095 L49452380 75471904 "/>
<svg:path d="M50452380 74471904 L49976190 74805238 "/>
<svg:path d="M50452380 75043333 L49452380 75043333 L49452380 74662380 L49500000 74567142 L49547619 74519523 L49642857 74471904 L49785714 74471904 L49880952 74519523 L49928571 74567142 L49976190 74662380 L49976190 75043333 "/>
<svg:path d="M50452380 73519523 L50452380 74090952 "/>
<svg:path d="M50452380 73805238 L49452380 73805238 L49595238 73900476 L49690476 73995714 L49738095 74090952 "/>
<svg:path d="M49452380 73186190 L50452380 72519523 "/>
<svg:path d="M49452380 72519523 L50452380 73186190 "/>
<svg:path d="M49547619 72186190 L49500000 72138571 L49452380 72043333 L49452380 71805238 L49500000 71710000 L49547619 71662380 L49642857 71614761 L49738095 71614761 L49880952 71662380 L50452380 72233809 L50452380 71614761 "/>
<svg:path d="M49785714 70757619 L50452380 70757619 "/>
<svg:path d="M49404761 70995714 L50119047 71233809 L50119047 70614761 "/>
<svg:path d="M50452380 70233809 L49452380 70233809 L49452380 69852857 L49500000 69757619 L49547619 69710000 L49642857 69662380 L49785714 69662380 L49880952 69710000 L49928571 69757619 L49976190 69852857 L49976190 70233809 "/>
<svg:path d="M49547619 69281428 L49500000 69233809 L49452380 69138571 L49452380 68900476 L49500000 68805238 L49547619 68757619 L49642857 68710000 L49738095 68710000 L49880952 68757619 L50452380 69329047 L50452380 68710000 "/>
<svg:path d="M49452380 67805238 L49452380 68281428 L49928571 68329047 L49880952 68281428 L49833333 68186190 L49833333 67948095 L49880952 67852857 L49928571 67805238 L50023809 67757619 L50261904 67757619 L50357142 67805238 L50404761 67852857 L50452380 67948095 L50452380 68186190 L50404761 68281428 L50357142 68329047 "/>
<svg:path d="M49785714 66900476 L50452380 66900476 "/>
<svg:path d="M49404761 67138571 L50119047 67376666 L50119047 66757619 "/>
<svg:path d="M49452380 66519523 L50452380 66186190 L49452380 65852857 "/>
<svg:path d="M49928571 65519523 L49928571 65186190 "/>
<svg:path d="M50452380 65043333 L50452380 65519523 L49452380 65519523 L49452380 65043333 "/>
<svg:path d="M50452380 64043333 L49976190 64376666 "/>
<svg:path d="M50452380 64614761 L49452380 64614761 L49452380 64233809 L49500000 64138571 L49547619 64090952 L49642857 64043333 L49785714 64043333 L49880952 64090952 L49928571 64138571 L49976190 64233809 L49976190 64614761 "/>
<svg:path d="M49452380 63757619 L49452380 63186190 "/>
<svg:path d="M50452380 63471904 L49452380 63471904 "/>
<svg:path d="M50452380 62852857 L49452380 62852857 "/>
<svg:path d="M50357142 61805238 L50404761 61852857 L50452380 61995714 L50452380 62090952 L50404761 62233809 L50309523 62329047 L50214285 62376666 L50023809 62424285 L49880952 62424285 L49690476 62376666 L49595238 62329047 L49500000 62233809 L49452380 62090952 L49452380 61995714 L49500000 61852857 L49547619 61805238 "/>
<svg:path d="M50166666 61424285 L50166666 60948095 "/>
<svg:path d="M50452380 61519523 L49452380 61186190 L50452380 60852857 "/>
<svg:path d="M50452380 60043333 L50452380 60519523 L49452380 60519523 "/>
</svg:g></svg:g>
<svg:g style="fill:#AFAFAF; fill-opacity:0.0;  stroke:#AFAFAF; stroke-width:100000.000000; stroke-opacity:1;  stroke-linecap:round; stroke-linejoin:round;">
<svg:path d="M49365000 48730000 L51270000 48730000 "/>
<svg:path d="M51270000 109690000 L48730000 109690000 "/>
<svg:path d="M48730000 49365000 L49365000 48730000 "/>
<svg:path d="M48730000 109690000 L48730000 49365000 "/>
<svg:path d="M51270000 48730000 L51270000 109690000 "/>
<svg:g>
</svg:g>
<svg:g>
</svg:g>
<svg:g>
</svg:g>
<svg:g>
</svg:g>
</svg:g>
<svg:g style="fill:#000000; fill-opacity:0.0;  stroke:#000000; stroke-width:100000.000000; stroke-opacity:1;  stroke-linecap:round; stroke-linejoin:round;">
<svg:g>
</svg:g>
<svg:g>
</svg:g>
<svg:g>
</svg:g>
<svg:g>
</svg:g>
</svg:g> 
</svg:g><svg:g><svg:title>SVG Picture created as kicadBoard-F_Mask.svg date 2022/11/17 09:25:07 </svg:title>
  <svg:desc>Picture generated by PCBNEW </svg:desc>
<svg:g style="fill:#000000; fill-opacity:1.000000;stroke:#000000; stroke-opacity:1.000000; stroke-linecap:round; stroke-linejoin:round;" transform="translate(0 0) scale(1 1)">
</svg:g>
<svg:g style="fill:#000000; fill-opacity:0.0;  stroke:#000000; stroke-width:0.000000; stroke-opacity:1;  stroke-linecap:round; stroke-linejoin:round;">
<svg:g>
</svg:g>
<svg:g style="fill:#000000; fill-opacity:0.0;  stroke:#000000; stroke-width:1.000000; stroke-opacity:1;  stroke-linecap:round; stroke-linejoin:round;">
</svg:g>
<svg:g style="fill:#000000; fill-opacity:1.0;  stroke:#000000; stroke-width:1.000000; stroke-opacity:1;  stroke-linecap:round; stroke-linejoin:round;">
<svg:path style="fill:#000000; fill-opacity:1.0;  stroke:#000000; stroke-width:1.000000; stroke-opacity:1;  stroke-linecap:round; stroke-linejoin:round;fill-rule:evenodd;" d="M 49150000.000000,50850000.000000 49150000.000000,49150000.000000 50850000.000000,49150000.000000 50850000.000000,50850000.000000 Z"/> 
<svg:circle cx="50000000.000000" cy="52540000.000000" r="850000.000000"/> 
<svg:circle cx="50000000.000000" cy="55080000.000000" r="850000.000000"/> 
<svg:circle cx="50000000.000000" cy="57620000.000000" r="850000.000000"/> 
<svg:circle cx="50000000.000000" cy="60160000.000000" r="850000.000000"/> 
<svg:circle cx="50000000.000000" cy="62700000.000000" r="850000.000000"/> 
<svg:circle cx="50000000.000000" cy="65240000.000000" r="850000.000000"/> 
<svg:circle cx="50000000.000000" cy="67780000.000000" r="850000.000000"/> 
<svg:circle cx="50000000.000000" cy="70320000.000000" r="850000.000000"/> 
<svg:circle cx="50000000.000000" cy="72860000.000000" r="850000.000000"/> 
<svg:circle cx="50000000.000000" cy="75400000.000000" r="850000.000000"/> 
<svg:circle cx="50000000.000000" cy="77940000.000000" r="850000.000000"/> 
<svg:circle cx="50000000.000000" cy="80480000.000000" r="850000.000000"/> 
<svg:circle cx="50000000.000000" cy="83020000.000000" r="850000.000000"/> 
<svg:circle cx="50000000.000000" cy="85560000.000000" r="850000.000000"/> 
<svg:circle cx="50000000.000000" cy="88100000.000000" r="850000.000000"/> 
<svg:circle cx="50000000.000000" cy="90640000.000000" r="850000.000000"/> 
<svg:circle cx="50000000.000000" cy="93180000.000000" r="850000.000000"/> 
<svg:circle cx="50000000.000000" cy="95720000.000000" r="850000.000000"/> 
<svg:circle cx="50000000.000000" cy="98260000.000000" r="850000.000000"/> 
<svg:circle cx="50000000.000000" cy="100800000.000000" r="850000.000000"/> 
<svg:circle cx="50000000.000000" cy="103340000.000000" r="850000.000000"/> 
<svg:circle cx="50000000.000000" cy="105880000.000000" r="850000.000000"/> 
<svg:circle cx="50000000.000000" cy="108420000.000000" r="850000.000000"/> 
</svg:g>
<svg:g>
</svg:g>
<svg:g>
</svg:g>
<svg:g>
</svg:g>
</svg:g>
<svg:g style="fill:#000000; fill-opacity:1.0;  stroke:#000000; stroke-width:1.000000; stroke-opacity:1;  stroke-linecap:round; stroke-linejoin:round;">
<svg:g>
</svg:g>
<svg:g>
</svg:g>
<svg:g>
</svg:g>
<svg:g>
</svg:g>
</svg:g> 
</svg:g><svg:g><svg:title>SVG Picture created as kicadBoard-F_Paste.svg date 2022/11/17 09:25:07 </svg:title>
  <svg:desc>Picture generated by PCBNEW </svg:desc>
<svg:g style="fill:#000000; fill-opacity:1.000000;stroke:#000000; stroke-opacity:1.000000; stroke-linecap:round; stroke-linejoin:round;" transform="translate(0 0) scale(1 1)">
</svg:g>
<svg:g style="fill:#000000; fill-opacity:0.0;  stroke:#000000; stroke-width:0.000000; stroke-opacity:1;  stroke-linecap:round; stroke-linejoin:round;">
<svg:g>
</svg:g>
<svg:g>
</svg:g>
<svg:g>
</svg:g>
<svg:g>
</svg:g>
</svg:g>
<svg:g style="fill:#000000; fill-opacity:0.0;  stroke:#000000; stroke-width:0.000000; stroke-opacity:1;  stroke-linecap:round; stroke-linejoin:round;">
<svg:g>
</svg:g>
<svg:g>
</svg:g>
<svg:g>
</svg:g>
<svg:g>
</svg:g>
</svg:g> 
</svg:g><svg:g><svg:title>SVG Picture created as kicadBoard-F_Silkscreen.svg date 2022/11/17 09:25:07 </svg:title>
  <svg:desc>Picture generated by PCBNEW </svg:desc>
<svg:g style="fill:#000000; fill-opacity:1.000000;stroke:#000000; stroke-opacity:1.000000; stroke-linecap:round; stroke-linejoin:round;" transform="translate(0 0) scale(1 1)">
</svg:g>
<svg:g style="fill:#000000; fill-opacity:0.0;  stroke:#000000; stroke-width:0.000000; stroke-opacity:1;  stroke-linecap:round; stroke-linejoin:round;">
</svg:g>
<svg:g style="fill:#F2EDA1; fill-opacity:0.0;  stroke:#F2EDA1; stroke-width:0.000000; stroke-opacity:1;  stroke-linecap:round; stroke-linejoin:round;">
</svg:g>
<svg:g style="fill:#F2EDA1; fill-opacity:0.0;  stroke:#F2EDA1; stroke-width:150000.000000; stroke-opacity:1;  stroke-linecap:round; stroke-linejoin:round;">
<svg:text x="50000000.000000" y="48170000.000000" textLength="38523811.000000" font-size="1333333.000000" lengthAdjust="spacingAndGlyphs" text-anchor="middle" opacity="0">FZKCNPINHEADER254PINHEADER1X24P254VERTICAL</svg:text>
<svg:g class="stroked-text"><svg:desc>FZKCNPINHEADER254PINHEADER1X24P254VERTICAL</svg:desc>
<svg:path d="M31309523 47598571 L30976190 47598571 "/>
<svg:path d="M30976190 48122380 L30976190 47122380 L31452380 47122380 "/>
<svg:path d="M31738095 47122380 L32404761 47122380 L31738095 48122380 L32404761 48122380 "/>
<svg:path d="M32785714 48122380 L32785714 47122380 "/>
<svg:path d="M33357142 48122380 L32928571 47550952 "/>
<svg:path d="M33357142 47122380 L32785714 47693809 "/>
<svg:path d="M34357142 48027142 L34309523 48074761 L34166666 48122380 L34071428 48122380 L33928571 48074761 L33833333 47979523 L33785714 47884285 L33738095 47693809 L33738095 47550952 L33785714 47360476 L33833333 47265238 L33928571 47170000 L34071428 47122380 L34166666 47122380 L34309523 47170000 L34357142 47217619 "/>
<svg:path d="M34785714 48122380 L34785714 47122380 L35357142 48122380 L35357142 47122380 "/>
<svg:path d="M35833333 48122380 L35833333 47122380 L36214285 47122380 L36309523 47170000 L36357142 47217619 L36404761 47312857 L36404761 47455714 L36357142 47550952 L36309523 47598571 L36214285 47646190 L35833333 47646190 "/>
<svg:path d="M36833333 48122380 L36833333 47122380 "/>
<svg:path d="M37309523 48122380 L37309523 47122380 L37880952 48122380 L37880952 47122380 "/>
<svg:path d="M38357142 48122380 L38357142 47122380 "/>
<svg:path d="M38357142 47598571 L38928571 47598571 "/>
<svg:path d="M38928571 48122380 L38928571 47122380 "/>
<svg:path d="M39404761 47598571 L39738095 47598571 "/>
<svg:path d="M39880952 48122380 L39404761 48122380 L39404761 47122380 L39880952 47122380 "/>
<svg:path d="M40261904 47836666 L40738095 47836666 "/>
<svg:path d="M40166666 48122380 L40500000 47122380 L40833333 48122380 "/>
<svg:path d="M41166666 48122380 L41166666 47122380 L41404761 47122380 L41547619 47170000 L41642857 47265238 L41690476 47360476 L41738095 47550952 L41738095 47693809 L41690476 47884285 L41642857 47979523 L41547619 48074761 L41404761 48122380 L41166666 48122380 "/>
<svg:path d="M42166666 47598571 L42500000 47598571 "/>
<svg:path d="M42642857 48122380 L42166666 48122380 L42166666 47122380 L42642857 47122380 "/>
<svg:path d="M43642857 48122380 L43309523 47646190 "/>
<svg:path d="M43071428 48122380 L43071428 47122380 L43452380 47122380 L43547619 47170000 L43595238 47217619 L43642857 47312857 L43642857 47455714 L43595238 47550952 L43547619 47598571 L43452380 47646190 L43071428 47646190 "/>
<svg:path d="M44023809 47217619 L44071428 47170000 L44166666 47122380 L44404761 47122380 L44500000 47170000 L44547619 47217619 L44595238 47312857 L44595238 47408095 L44547619 47550952 L43976190 48122380 L44595238 48122380 "/>
<svg:path d="M45500000 47122380 L45023809 47122380 L44976190 47598571 L45023809 47550952 L45119047 47503333 L45357142 47503333 L45452380 47550952 L45500000 47598571 L45547619 47693809 L45547619 47931904 L45500000 48027142 L45452380 48074761 L45357142 48122380 L45119047 48122380 L45023809 48074761 L44976190 48027142 "/>
<svg:path d="M46404761 47455714 L46404761 48122380 "/>
<svg:path d="M46166666 47074761 L45928571 47789047 L46547619 47789047 "/>
<svg:path d="M46928571 48122380 L46928571 47122380 L47309523 47122380 L47404761 47170000 L47452380 47217619 L47500000 47312857 L47500000 47455714 L47452380 47550952 L47404761 47598571 L47309523 47646190 L46928571 47646190 "/>
<svg:path d="M47928571 48122380 L47928571 47122380 "/>
<svg:path d="M48404761 48122380 L48404761 47122380 L48976190 48122380 L48976190 47122380 "/>
<svg:path d="M49452380 48122380 L49452380 47122380 "/>
<svg:path d="M49452380 47598571 L50023809 47598571 "/>
<svg:path d="M50023809 48122380 L50023809 47122380 "/>
<svg:path d="M50500000 47598571 L50833333 47598571 "/>
<svg:path d="M50976190 48122380 L50500000 48122380 L50500000 47122380 L50976190 47122380 "/>
<svg:path d="M51357142 47836666 L51833333 47836666 "/>
<svg:path d="M51261904 48122380 L51595238 47122380 L51928571 48122380 "/>
<svg:path d="M52261904 48122380 L52261904 47122380 L52500000 47122380 L52642857 47170000 L52738095 47265238 L52785714 47360476 L52833333 47550952 L52833333 47693809 L52785714 47884285 L52738095 47979523 L52642857 48074761 L52500000 48122380 L52261904 48122380 "/>
<svg:path d="M53261904 47598571 L53595238 47598571 "/>
<svg:path d="M53738095 48122380 L53261904 48122380 L53261904 47122380 L53738095 47122380 "/>
<svg:path d="M54738095 48122380 L54404761 47646190 "/>
<svg:path d="M54166666 48122380 L54166666 47122380 L54547619 47122380 L54642857 47170000 L54690476 47217619 L54738095 47312857 L54738095 47455714 L54690476 47550952 L54642857 47598571 L54547619 47646190 L54166666 47646190 "/>
<svg:path d="M55690476 48122380 L55119047 48122380 "/>
<svg:path d="M55404761 48122380 L55404761 47122380 L55309523 47265238 L55214285 47360476 L55119047 47408095 "/>
<svg:path d="M56023809 47122380 L56690476 48122380 "/>
<svg:path d="M56690476 47122380 L56023809 48122380 "/>
<svg:path d="M57023809 47217619 L57071428 47170000 L57166666 47122380 L57404761 47122380 L57500000 47170000 L57547619 47217619 L57595238 47312857 L57595238 47408095 L57547619 47550952 L56976190 48122380 L57595238 48122380 "/>
<svg:path d="M58452380 47455714 L58452380 48122380 "/>
<svg:path d="M58214285 47074761 L57976190 47789047 L58595238 47789047 "/>
<svg:path d="M58976190 48122380 L58976190 47122380 L59357142 47122380 L59452380 47170000 L59500000 47217619 L59547619 47312857 L59547619 47455714 L59500000 47550952 L59452380 47598571 L59357142 47646190 L58976190 47646190 "/>
<svg:path d="M59928571 47217619 L59976190 47170000 L60071428 47122380 L60309523 47122380 L60404761 47170000 L60452380 47217619 L60500000 47312857 L60500000 47408095 L60452380 47550952 L59880952 48122380 L60500000 48122380 "/>
<svg:path d="M61404761 47122380 L60928571 47122380 L60880952 47598571 L60928571 47550952 L61023809 47503333 L61261904 47503333 L61357142 47550952 L61404761 47598571 L61452380 47693809 L61452380 47931904 L61404761 48027142 L61357142 48074761 L61261904 48122380 L61023809 48122380 L60928571 48074761 L60880952 48027142 "/>
<svg:path d="M62309523 47455714 L62309523 48122380 "/>
<svg:path d="M62071428 47074761 L61833333 47789047 L62452380 47789047 "/>
<svg:path d="M62690476 47122380 L63023809 48122380 L63357142 47122380 "/>
<svg:path d="M63690476 47598571 L64023809 47598571 "/>
<svg:path d="M64166666 48122380 L63690476 48122380 L63690476 47122380 L64166666 47122380 "/>
<svg:path d="M65166666 48122380 L64833333 47646190 "/>
<svg:path d="M64595238 48122380 L64595238 47122380 L64976190 47122380 L65071428 47170000 L65119047 47217619 L65166666 47312857 L65166666 47455714 L65119047 47550952 L65071428 47598571 L64976190 47646190 L64595238 47646190 "/>
<svg:path d="M65452380 47122380 L66023809 47122380 "/>
<svg:path d="M65738095 48122380 L65738095 47122380 "/>
<svg:path d="M66357142 48122380 L66357142 47122380 "/>
<svg:path d="M67404761 48027142 L67357142 48074761 L67214285 48122380 L67119047 48122380 L66976190 48074761 L66880952 47979523 L66833333 47884285 L66785714 47693809 L66785714 47550952 L66833333 47360476 L66880952 47265238 L66976190 47170000 L67119047 47122380 L67214285 47122380 L67357142 47170000 L67404761 47217619 "/>
<svg:path d="M67785714 47836666 L68261904 47836666 "/>
<svg:path d="M67690476 48122380 L68023809 47122380 L68357142 48122380 "/>
<svg:path d="M69166666 48122380 L68690476 48122380 L68690476 47122380 "/>
</svg:g></svg:g>
<svg:g style="fill:#F2EDA1; fill-opacity:0.0;  stroke:#F2EDA1; stroke-width:120000.000000; stroke-opacity:1;  stroke-linecap:round; stroke-linejoin:round;">
<svg:path d="M48670000 51270000 L48670000 109750000 "/>
<svg:path d="M48670000 48670000 L50000000 48670000 "/>
<svg:path d="M48670000 109750000 L51330000 109750000 "/>
<svg:path d="M48670000 51270000 L51330000 51270000 "/>
<svg:path d="M51330000 51270000 L51330000 109750000 "/>
<svg:path d="M48670000 50000000 L48670000 48670000 "/>
<svg:g>
</svg:g>
<svg:g>
</svg:g>
<svg:g>
</svg:g>
<svg:g>
</svg:g>
</svg:g>
<svg:g style="fill:#000000; fill-opacity:0.0;  stroke:#000000; stroke-width:120000.000000; stroke-opacity:1;  stroke-linecap:round; stroke-linejoin:round;">
<svg:g>
</svg:g>
<svg:g>
</svg:g>
<svg:g>
</svg:g>
<svg:g>
</svg:g>
</svg:g> 
</svg:g><svg:g><svg:title>SVG Picture created as kicadBoard-Margin.svg date 2022/11/17 09:25:07 </svg:title>
  <svg:desc>Picture generated by PCBNEW </svg:desc>
<svg:g style="fill:#000000; fill-opacity:1.000000;stroke:#000000; stroke-opacity:1.000000; stroke-linecap:round; stroke-linejoin:round;" transform="translate(0 0) scale(1 1)">
</svg:g>
<svg:g style="fill:#000000; fill-opacity:0.0;  stroke:#000000; stroke-width:0.000000; stroke-opacity:1;  stroke-linecap:round; stroke-linejoin:round;">
<svg:g>
</svg:g>
<svg:g>
</svg:g>
<svg:g>
</svg:g>
<svg:g>
</svg:g>
</svg:g>
<svg:g style="fill:#000000; fill-opacity:0.0;  stroke:#000000; stroke-width:0.000000; stroke-opacity:1;  stroke-linecap:round; stroke-linejoin:round;">
<svg:g>
</svg:g>
<svg:g>
</svg:g>
<svg:g>
</svg:g>
<svg:g>
</svg:g>
</svg:g> 
</svg:g><svg:g><svg:title>SVG Picture created as kicadBoard-F_Cu.svg date 2022/11/17 09:25:07 </svg:title>
  <svg:desc>Picture generated by PCBNEW </svg:desc>
<svg:g style="fill:#000000; fill-opacity:1.000000;stroke:#000000; stroke-opacity:1.000000; stroke-linecap:round; stroke-linejoin:round;" transform="translate(0 0) scale(1 1)">
</svg:g>
<svg:g style="fill:#000000; fill-opacity:0.0;  stroke:#000000; stroke-width:0.000000; stroke-opacity:1;  stroke-linecap:round; stroke-linejoin:round;">
<svg:g>
</svg:g>
<svg:g style="fill:#C83434; fill-opacity:0.0;  stroke:#C83434; stroke-width:0.000000; stroke-opacity:1;  stroke-linecap:round; stroke-linejoin:round;">
</svg:g>
<svg:g style="fill:#C83434; fill-opacity:0.0;  stroke:#C83434; stroke-width:1.000000; stroke-opacity:1;  stroke-linecap:round; stroke-linejoin:round;">
</svg:g>
<svg:g style="fill:#C83434; fill-opacity:1.0;  stroke:#C83434; stroke-width:1.000000; stroke-opacity:1;  stroke-linecap:round; stroke-linejoin:round;">
<svg:path style="fill:#C83434; fill-opacity:1.0;  stroke:#C83434; stroke-width:1.000000; stroke-opacity:1;  stroke-linecap:round; stroke-linejoin:round;fill-rule:evenodd;" d="M 49150000.000000,50850000.000000 49150000.000000,49150000.000000 50850000.000000,49150000.000000 50850000.000000,50850000.000000 Z"/> 
<svg:circle cx="50000000.000000" cy="52540000.000000" r="850000.000000"/> 
<svg:circle cx="50000000.000000" cy="55080000.000000" r="850000.000000"/> 
<svg:circle cx="50000000.000000" cy="57620000.000000" r="850000.000000"/> 
<svg:circle cx="50000000.000000" cy="60160000.000000" r="850000.000000"/> 
<svg:circle cx="50000000.000000" cy="62700000.000000" r="850000.000000"/> 
<svg:circle cx="50000000.000000" cy="65240000.000000" r="850000.000000"/> 
<svg:circle cx="50000000.000000" cy="67780000.000000" r="850000.000000"/> 
<svg:circle cx="50000000.000000" cy="70320000.000000" r="850000.000000"/> 
<svg:circle cx="50000000.000000" cy="72860000.000000" r="850000.000000"/> 
<svg:circle cx="50000000.000000" cy="75400000.000000" r="850000.000000"/> 
<svg:circle cx="50000000.000000" cy="77940000.000000" r="850000.000000"/> 
<svg:circle cx="50000000.000000" cy="80480000.000000" r="850000.000000"/> 
<svg:circle cx="50000000.000000" cy="83020000.000000" r="850000.000000"/> 
<svg:circle cx="50000000.000000" cy="85560000.000000" r="850000.000000"/> 
<svg:circle cx="50000000.000000" cy="88100000.000000" r="850000.000000"/> 
<svg:circle cx="50000000.000000" cy="90640000.000000" r="850000.000000"/> 
<svg:circle cx="50000000.000000" cy="93180000.000000" r="850000.000000"/> 
<svg:circle cx="50000000.000000" cy="95720000.000000" r="850000.000000"/> 
<svg:circle cx="50000000.000000" cy="98260000.000000" r="850000.000000"/> 
<svg:circle cx="50000000.000000" cy="100800000.000000" r="850000.000000"/> 
<svg:circle cx="50000000.000000" cy="103340000.000000" r="850000.000000"/> 
<svg:circle cx="50000000.000000" cy="105880000.000000" r="850000.000000"/> 
<svg:circle cx="50000000.000000" cy="108420000.000000" r="850000.000000"/> 
</svg:g>
<svg:g>
</svg:g>
<svg:g>
</svg:g>
<svg:g>
</svg:g>
</svg:g>
<svg:g style="fill:#FFFFFF; fill-opacity:1.0;  stroke:#FFFFFF; stroke-width:1.000000; stroke-opacity:1;  stroke-linecap:round; stroke-linejoin:round;">
<svg:circle cx="50000000.000000" cy="50000000.000000" r="500000.000000"/> 
</svg:g>
<svg:g style="fill:#FFFFFF; fill-opacity:1.0;  stroke:#FFFFFF; stroke-width:21200.000000; stroke-opacity:1;  stroke-linecap:round; stroke-linejoin:round;">
</svg:g>
<svg:g style="fill:#FFFFFF; fill-opacity:1.0;  stroke:#FFFFFF; stroke-width:1.000000; stroke-opacity:1;  stroke-linecap:round; stroke-linejoin:round;">
<svg:circle cx="50000000.000000" cy="52540000.000000" r="500000.000000"/> 
</svg:g>
<svg:g style="fill:#FFFFFF; fill-opacity:1.0;  stroke:#FFFFFF; stroke-width:21200.000000; stroke-opacity:1;  stroke-linecap:round; stroke-linejoin:round;">
</svg:g>
<svg:g style="fill:#FFFFFF; fill-opacity:1.0;  stroke:#FFFFFF; stroke-width:1.000000; stroke-opacity:1;  stroke-linecap:round; stroke-linejoin:round;">
<svg:circle cx="50000000.000000" cy="55080000.000000" r="500000.000000"/> 
</svg:g>
<svg:g style="fill:#FFFFFF; fill-opacity:1.0;  stroke:#FFFFFF; stroke-width:21200.000000; stroke-opacity:1;  stroke-linecap:round; stroke-linejoin:round;">
</svg:g>
<svg:g style="fill:#FFFFFF; fill-opacity:1.0;  stroke:#FFFFFF; stroke-width:1.000000; stroke-opacity:1;  stroke-linecap:round; stroke-linejoin:round;">
<svg:circle cx="50000000.000000" cy="57620000.000000" r="500000.000000"/> 
</svg:g>
<svg:g style="fill:#FFFFFF; fill-opacity:1.0;  stroke:#FFFFFF; stroke-width:21200.000000; stroke-opacity:1;  stroke-linecap:round; stroke-linejoin:round;">
</svg:g>
<svg:g style="fill:#FFFFFF; fill-opacity:1.0;  stroke:#FFFFFF; stroke-width:1.000000; stroke-opacity:1;  stroke-linecap:round; stroke-linejoin:round;">
<svg:circle cx="50000000.000000" cy="60160000.000000" r="500000.000000"/> 
</svg:g>
<svg:g style="fill:#FFFFFF; fill-opacity:1.0;  stroke:#FFFFFF; stroke-width:21200.000000; stroke-opacity:1;  stroke-linecap:round; stroke-linejoin:round;">
</svg:g>
<svg:g style="fill:#FFFFFF; fill-opacity:1.0;  stroke:#FFFFFF; stroke-width:1.000000; stroke-opacity:1;  stroke-linecap:round; stroke-linejoin:round;">
<svg:circle cx="50000000.000000" cy="62700000.000000" r="500000.000000"/> 
</svg:g>
<svg:g style="fill:#FFFFFF; fill-opacity:1.0;  stroke:#FFFFFF; stroke-width:21200.000000; stroke-opacity:1;  stroke-linecap:round; stroke-linejoin:round;">
</svg:g>
<svg:g style="fill:#FFFFFF; fill-opacity:1.0;  stroke:#FFFFFF; stroke-width:1.000000; stroke-opacity:1;  stroke-linecap:round; stroke-linejoin:round;">
<svg:circle cx="50000000.000000" cy="65240000.000000" r="500000.000000"/> 
</svg:g>
<svg:g style="fill:#FFFFFF; fill-opacity:1.0;  stroke:#FFFFFF; stroke-width:21200.000000; stroke-opacity:1;  stroke-linecap:round; stroke-linejoin:round;">
</svg:g>
<svg:g style="fill:#FFFFFF; fill-opacity:1.0;  stroke:#FFFFFF; stroke-width:1.000000; stroke-opacity:1;  stroke-linecap:round; stroke-linejoin:round;">
<svg:circle cx="50000000.000000" cy="67780000.000000" r="500000.000000"/> 
</svg:g>
<svg:g style="fill:#FFFFFF; fill-opacity:1.0;  stroke:#FFFFFF; stroke-width:21200.000000; stroke-opacity:1;  stroke-linecap:round; stroke-linejoin:round;">
</svg:g>
<svg:g style="fill:#FFFFFF; fill-opacity:1.0;  stroke:#FFFFFF; stroke-width:1.000000; stroke-opacity:1;  stroke-linecap:round; stroke-linejoin:round;">
<svg:circle cx="50000000.000000" cy="70320000.000000" r="500000.000000"/> 
</svg:g>
<svg:g style="fill:#FFFFFF; fill-opacity:1.0;  stroke:#FFFFFF; stroke-width:21200.000000; stroke-opacity:1;  stroke-linecap:round; stroke-linejoin:round;">
</svg:g>
<svg:g style="fill:#FFFFFF; fill-opacity:1.0;  stroke:#FFFFFF; stroke-width:1.000000; stroke-opacity:1;  stroke-linecap:round; stroke-linejoin:round;">
<svg:circle cx="50000000.000000" cy="72860000.000000" r="500000.000000"/> 
</svg:g>
<svg:g style="fill:#FFFFFF; fill-opacity:1.0;  stroke:#FFFFFF; stroke-width:21200.000000; stroke-opacity:1;  stroke-linecap:round; stroke-linejoin:round;">
</svg:g>
<svg:g style="fill:#FFFFFF; fill-opacity:1.0;  stroke:#FFFFFF; stroke-width:1.000000; stroke-opacity:1;  stroke-linecap:round; stroke-linejoin:round;">
<svg:circle cx="50000000.000000" cy="75400000.000000" r="500000.000000"/> 
</svg:g>
<svg:g style="fill:#FFFFFF; fill-opacity:1.0;  stroke:#FFFFFF; stroke-width:21200.000000; stroke-opacity:1;  stroke-linecap:round; stroke-linejoin:round;">
</svg:g>
<svg:g style="fill:#FFFFFF; fill-opacity:1.0;  stroke:#FFFFFF; stroke-width:1.000000; stroke-opacity:1;  stroke-linecap:round; stroke-linejoin:round;">
<svg:circle cx="50000000.000000" cy="77940000.000000" r="500000.000000"/> 
</svg:g>
<svg:g style="fill:#FFFFFF; fill-opacity:1.0;  stroke:#FFFFFF; stroke-width:21200.000000; stroke-opacity:1;  stroke-linecap:round; stroke-linejoin:round;">
</svg:g>
<svg:g style="fill:#FFFFFF; fill-opacity:1.0;  stroke:#FFFFFF; stroke-width:1.000000; stroke-opacity:1;  stroke-linecap:round; stroke-linejoin:round;">
<svg:circle cx="50000000.000000" cy="80480000.000000" r="500000.000000"/> 
</svg:g>
<svg:g style="fill:#FFFFFF; fill-opacity:1.0;  stroke:#FFFFFF; stroke-width:21200.000000; stroke-opacity:1;  stroke-linecap:round; stroke-linejoin:round;">
</svg:g>
<svg:g style="fill:#FFFFFF; fill-opacity:1.0;  stroke:#FFFFFF; stroke-width:1.000000; stroke-opacity:1;  stroke-linecap:round; stroke-linejoin:round;">
<svg:circle cx="50000000.000000" cy="83020000.000000" r="500000.000000"/> 
</svg:g>
<svg:g style="fill:#FFFFFF; fill-opacity:1.0;  stroke:#FFFFFF; stroke-width:21200.000000; stroke-opacity:1;  stroke-linecap:round; stroke-linejoin:round;">
</svg:g>
<svg:g style="fill:#FFFFFF; fill-opacity:1.0;  stroke:#FFFFFF; stroke-width:1.000000; stroke-opacity:1;  stroke-linecap:round; stroke-linejoin:round;">
<svg:circle cx="50000000.000000" cy="85560000.000000" r="500000.000000"/> 
</svg:g>
<svg:g style="fill:#FFFFFF; fill-opacity:1.0;  stroke:#FFFFFF; stroke-width:21200.000000; stroke-opacity:1;  stroke-linecap:round; stroke-linejoin:round;">
</svg:g>
<svg:g style="fill:#FFFFFF; fill-opacity:1.0;  stroke:#FFFFFF; stroke-width:1.000000; stroke-opacity:1;  stroke-linecap:round; stroke-linejoin:round;">
<svg:circle cx="50000000.000000" cy="88100000.000000" r="500000.000000"/> 
</svg:g>
<svg:g style="fill:#FFFFFF; fill-opacity:1.0;  stroke:#FFFFFF; stroke-width:21200.000000; stroke-opacity:1;  stroke-linecap:round; stroke-linejoin:round;">
</svg:g>
<svg:g style="fill:#FFFFFF; fill-opacity:1.0;  stroke:#FFFFFF; stroke-width:1.000000; stroke-opacity:1;  stroke-linecap:round; stroke-linejoin:round;">
<svg:circle cx="50000000.000000" cy="90640000.000000" r="500000.000000"/> 
</svg:g>
<svg:g style="fill:#FFFFFF; fill-opacity:1.0;  stroke:#FFFFFF; stroke-width:21200.000000; stroke-opacity:1;  stroke-linecap:round; stroke-linejoin:round;">
</svg:g>
<svg:g style="fill:#FFFFFF; fill-opacity:1.0;  stroke:#FFFFFF; stroke-width:1.000000; stroke-opacity:1;  stroke-linecap:round; stroke-linejoin:round;">
<svg:circle cx="50000000.000000" cy="93180000.000000" r="500000.000000"/> 
</svg:g>
<svg:g style="fill:#FFFFFF; fill-opacity:1.0;  stroke:#FFFFFF; stroke-width:21200.000000; stroke-opacity:1;  stroke-linecap:round; stroke-linejoin:round;">
</svg:g>
<svg:g style="fill:#FFFFFF; fill-opacity:1.0;  stroke:#FFFFFF; stroke-width:1.000000; stroke-opacity:1;  stroke-linecap:round; stroke-linejoin:round;">
<svg:circle cx="50000000.000000" cy="95720000.000000" r="500000.000000"/> 
</svg:g>
<svg:g style="fill:#FFFFFF; fill-opacity:1.0;  stroke:#FFFFFF; stroke-width:21200.000000; stroke-opacity:1;  stroke-linecap:round; stroke-linejoin:round;">
</svg:g>
<svg:g style="fill:#FFFFFF; fill-opacity:1.0;  stroke:#FFFFFF; stroke-width:1.000000; stroke-opacity:1;  stroke-linecap:round; stroke-linejoin:round;">
<svg:circle cx="50000000.000000" cy="98260000.000000" r="500000.000000"/> 
</svg:g>
<svg:g style="fill:#FFFFFF; fill-opacity:1.0;  stroke:#FFFFFF; stroke-width:21200.000000; stroke-opacity:1;  stroke-linecap:round; stroke-linejoin:round;">
</svg:g>
<svg:g style="fill:#FFFFFF; fill-opacity:1.0;  stroke:#FFFFFF; stroke-width:1.000000; stroke-opacity:1;  stroke-linecap:round; stroke-linejoin:round;">
<svg:circle cx="50000000.000000" cy="100800000.000000" r="500000.000000"/> 
</svg:g>
<svg:g style="fill:#FFFFFF; fill-opacity:1.0;  stroke:#FFFFFF; stroke-width:21200.000000; stroke-opacity:1;  stroke-linecap:round; stroke-linejoin:round;">
</svg:g>
<svg:g style="fill:#FFFFFF; fill-opacity:1.0;  stroke:#FFFFFF; stroke-width:1.000000; stroke-opacity:1;  stroke-linecap:round; stroke-linejoin:round;">
<svg:circle cx="50000000.000000" cy="103340000.000000" r="500000.000000"/> 
</svg:g>
<svg:g style="fill:#FFFFFF; fill-opacity:1.0;  stroke:#FFFFFF; stroke-width:21200.000000; stroke-opacity:1;  stroke-linecap:round; stroke-linejoin:round;">
</svg:g>
<svg:g style="fill:#FFFFFF; fill-opacity:1.0;  stroke:#FFFFFF; stroke-width:1.000000; stroke-opacity:1;  stroke-linecap:round; stroke-linejoin:round;">
<svg:circle cx="50000000.000000" cy="105880000.000000" r="500000.000000"/> 
</svg:g>
<svg:g style="fill:#FFFFFF; fill-opacity:1.0;  stroke:#FFFFFF; stroke-width:21200.000000; stroke-opacity:1;  stroke-linecap:round; stroke-linejoin:round;">
</svg:g>
<svg:g style="fill:#FFFFFF; fill-opacity:1.0;  stroke:#FFFFFF; stroke-width:1.000000; stroke-opacity:1;  stroke-linecap:round; stroke-linejoin:round;">
<svg:circle cx="50000000.000000" cy="108420000.000000" r="500000.000000"/> 
</svg:g>
<svg:g style="fill:#FFFFFF; fill-opacity:1.0;  stroke:#FFFFFF; stroke-width:21200.000000; stroke-opacity:1;  stroke-linecap:round; stroke-linejoin:round;">
</svg:g>
<svg:g style="fill:#000000; fill-opacity:1.0;  stroke:#000000; stroke-width:21200.000000; stroke-opacity:1;  stroke-linecap:round; stroke-linejoin:round;">
<svg:g>
</svg:g>
<svg:g>
</svg:g>
<svg:g>
</svg:g>
<svg:g>
</svg:g>
</svg:g> 
</svg:g></svg>
