<?xml version='1.0' encoding='ASCII' standalone='yes'?>
<svg xmlns:svg="http://www.w3.org/2000/svg" xmlns="http://www.w3.org/2000/svg" xmlns:xlink="http://www.w3.org/1999/xlink" version="1.1" width="9.999980cm" height="9.999980cm" viewBox="0 0 99999800 99999800">
<title>SVG Picture created as kicadBoard-B_Cu.svg date 2022/11/18 22:14:44 </title>
  <desc>Picture generated by PCBNEW </desc>
<g style="fill:#000000; fill-opacity:1.000000;stroke:#000000; stroke-opacity:1.000000; stroke-linecap:round; stroke-linejoin:round;" transform="translate(0 0) scale(1 1)">
</g>
<g style="fill:#000000; fill-opacity:0.0;  stroke:#000000; stroke-width:0.000000; stroke-opacity:1;  stroke-linecap:round; stroke-linejoin:round;">
<g>
</g>
<g>
</g>
<g>
</g>
<g>
</g>
</g>
<g style="fill:#FFFFFF; fill-opacity:0.0;  stroke:#FFFFFF; stroke-width:0.000000; stroke-opacity:1;  stroke-linecap:round; stroke-linejoin:round;">
</g>
<g style="fill:#000000; fill-opacity:0.0;  stroke:#000000; stroke-width:0.000000; stroke-opacity:1;  stroke-linecap:round; stroke-linejoin:round;">
<g>
</g>
<g>
</g>
<g>
</g>
<g>
</g>
</g> 
<svg:g><svg:title>SVG Picture created as kicadBoard-B_Adhesive.svg date 2022/11/18 22:14:44 </svg:title>
  <svg:desc>Picture generated by PCBNEW </svg:desc>
<svg:g style="fill:#000000; fill-opacity:1.000000;stroke:#000000; stroke-opacity:1.000000; stroke-linecap:round; stroke-linejoin:round;" transform="translate(0 0) scale(1 1)">
</svg:g>
<svg:g style="fill:#000000; fill-opacity:0.0;  stroke:#000000; stroke-width:0.000000; stroke-opacity:1;  stroke-linecap:round; stroke-linejoin:round;">
<svg:g>
</svg:g>
<svg:g>
</svg:g>
<svg:g>
</svg:g>
<svg:g>
</svg:g>
</svg:g>
<svg:g style="fill:#000000; fill-opacity:0.0;  stroke:#000000; stroke-width:0.000000; stroke-opacity:1;  stroke-linecap:round; stroke-linejoin:round;">
<svg:g>
</svg:g>
<svg:g>
</svg:g>
<svg:g>
</svg:g>
<svg:g>
</svg:g>
</svg:g> 
</svg:g><svg:g><svg:title>SVG Picture created as kicadBoard-B_Courtyard.svg date 2022/11/18 22:14:44 </svg:title>
  <svg:desc>Picture generated by PCBNEW </svg:desc>
<svg:g style="fill:#000000; fill-opacity:1.000000;stroke:#000000; stroke-opacity:1.000000; stroke-linecap:round; stroke-linejoin:round;" transform="translate(0 0) scale(1 1)">
</svg:g>
<svg:g style="fill:#000000; fill-opacity:0.0;  stroke:#000000; stroke-width:0.000000; stroke-opacity:1;  stroke-linecap:round; stroke-linejoin:round;">
<svg:g>
</svg:g>
<svg:g>
</svg:g>
<svg:g>
</svg:g>
<svg:g>
</svg:g>
</svg:g>
<svg:g style="fill:#000000; fill-opacity:0.0;  stroke:#000000; stroke-width:0.000000; stroke-opacity:1;  stroke-linecap:round; stroke-linejoin:round;">
<svg:g>
</svg:g>
<svg:g>
</svg:g>
<svg:g>
</svg:g>
<svg:g>
</svg:g>
</svg:g> 
</svg:g><svg:g><svg:title>SVG Picture created as kicadBoard-B_Fab.svg date 2022/11/18 22:14:44 </svg:title>
  <svg:desc>Picture generated by PCBNEW </svg:desc>
<svg:g style="fill:#000000; fill-opacity:1.000000;stroke:#000000; stroke-opacity:1.000000; stroke-linecap:round; stroke-linejoin:round;" transform="translate(0 0) scale(1 1)">
</svg:g>
<svg:g style="fill:#000000; fill-opacity:0.0;  stroke:#000000; stroke-width:0.000000; stroke-opacity:1;  stroke-linecap:round; stroke-linejoin:round;">
<svg:g>
</svg:g>
<svg:g>
</svg:g>
<svg:g>
</svg:g>
<svg:g>
</svg:g>
</svg:g>
<svg:g style="fill:#000000; fill-opacity:0.0;  stroke:#000000; stroke-width:0.000000; stroke-opacity:1;  stroke-linecap:round; stroke-linejoin:round;">
<svg:g>
</svg:g>
<svg:g>
</svg:g>
<svg:g>
</svg:g>
<svg:g>
</svg:g>
</svg:g> 
</svg:g><svg:g><svg:title>SVG Picture created as kicadBoard-B_Mask.svg date 2022/11/18 22:14:44 </svg:title>
  <svg:desc>Picture generated by PCBNEW </svg:desc>
<svg:g style="fill:#000000; fill-opacity:1.000000;stroke:#000000; stroke-opacity:1.000000; stroke-linecap:round; stroke-linejoin:round;" transform="translate(0 0) scale(1 1)">
</svg:g>
<svg:g style="fill:#000000; fill-opacity:0.0;  stroke:#000000; stroke-width:0.000000; stroke-opacity:1;  stroke-linecap:round; stroke-linejoin:round;">
<svg:g>
</svg:g>
<svg:g>
</svg:g>
<svg:g>
</svg:g>
<svg:g>
</svg:g>
</svg:g>
<svg:g style="fill:#000000; fill-opacity:0.0;  stroke:#000000; stroke-width:0.000000; stroke-opacity:1;  stroke-linecap:round; stroke-linejoin:round;">
<svg:g>
</svg:g>
<svg:g>
</svg:g>
<svg:g>
</svg:g>
<svg:g>
</svg:g>
</svg:g> 
</svg:g><svg:g><svg:title>SVG Picture created as kicadBoard-B_Paste.svg date 2022/11/18 22:14:44 </svg:title>
  <svg:desc>Picture generated by PCBNEW </svg:desc>
<svg:g style="fill:#000000; fill-opacity:1.000000;stroke:#000000; stroke-opacity:1.000000; stroke-linecap:round; stroke-linejoin:round;" transform="translate(0 0) scale(1 1)">
</svg:g>
<svg:g style="fill:#000000; fill-opacity:0.0;  stroke:#000000; stroke-width:0.000000; stroke-opacity:1;  stroke-linecap:round; stroke-linejoin:round;">
<svg:g>
</svg:g>
<svg:g>
</svg:g>
<svg:g>
</svg:g>
<svg:g>
</svg:g>
</svg:g>
<svg:g style="fill:#000000; fill-opacity:0.0;  stroke:#000000; stroke-width:0.000000; stroke-opacity:1;  stroke-linecap:round; stroke-linejoin:round;">
<svg:g>
</svg:g>
<svg:g>
</svg:g>
<svg:g>
</svg:g>
<svg:g>
</svg:g>
</svg:g> 
</svg:g><svg:g><svg:title>SVG Picture created as kicadBoard-B_Silkscreen.svg date 2022/11/18 22:14:44 </svg:title>
  <svg:desc>Picture generated by PCBNEW </svg:desc>
<svg:g style="fill:#000000; fill-opacity:1.000000;stroke:#000000; stroke-opacity:1.000000; stroke-linecap:round; stroke-linejoin:round;" transform="translate(0 0) scale(1 1)">
</svg:g>
<svg:g style="fill:#000000; fill-opacity:0.0;  stroke:#000000; stroke-width:0.000000; stroke-opacity:1;  stroke-linecap:round; stroke-linejoin:round;">
<svg:g>
</svg:g>
<svg:g>
</svg:g>
<svg:g>
</svg:g>
<svg:g>
</svg:g>
</svg:g>
<svg:g style="fill:#000000; fill-opacity:0.0;  stroke:#000000; stroke-width:0.000000; stroke-opacity:1;  stroke-linecap:round; stroke-linejoin:round;">
<svg:g>
</svg:g>
<svg:g>
</svg:g>
<svg:g>
</svg:g>
<svg:g>
</svg:g>
</svg:g> 
</svg:g><svg:g><svg:title>SVG Picture created as kicadBoard-Edge_Cuts.svg date 2022/11/18 22:14:44 </svg:title>
  <svg:desc>Picture generated by PCBNEW </svg:desc>
<svg:g style="fill:#000000; fill-opacity:1.000000;stroke:#000000; stroke-opacity:1.000000; stroke-linecap:round; stroke-linejoin:round;" transform="translate(0 0) scale(1 1)">
</svg:g>
<svg:g style="fill:#000000; fill-opacity:0.0;  stroke:#000000; stroke-width:0.000000; stroke-opacity:1;  stroke-linecap:round; stroke-linejoin:round;">
<svg:g>
</svg:g>
<svg:g>
</svg:g>
<svg:g>
</svg:g>
<svg:g>
</svg:g>
</svg:g> 
</svg:g><svg:g><svg:title>SVG Picture created as kicadBoard-F_Adhesive.svg date 2022/11/18 22:14:44 </svg:title>
  <svg:desc>Picture generated by PCBNEW </svg:desc>
<svg:g style="fill:#000000; fill-opacity:1.000000;stroke:#000000; stroke-opacity:1.000000; stroke-linecap:round; stroke-linejoin:round;" transform="translate(0 0) scale(1 1)">
</svg:g>
<svg:g style="fill:#000000; fill-opacity:0.0;  stroke:#000000; stroke-width:0.000000; stroke-opacity:1;  stroke-linecap:round; stroke-linejoin:round;">
<svg:g>
</svg:g>
<svg:g>
</svg:g>
<svg:g>
</svg:g>
<svg:g>
</svg:g>
</svg:g>
<svg:g style="fill:#000000; fill-opacity:0.0;  stroke:#000000; stroke-width:0.000000; stroke-opacity:1;  stroke-linecap:round; stroke-linejoin:round;">
<svg:g>
</svg:g>
<svg:g>
</svg:g>
<svg:g>
</svg:g>
<svg:g>
</svg:g>
</svg:g> 
</svg:g><svg:g><svg:title>SVG Picture created as kicadBoard-F_Courtyard.svg date 2022/11/18 22:14:44 </svg:title>
  <svg:desc>Picture generated by PCBNEW </svg:desc>
<svg:g style="fill:#000000; fill-opacity:1.000000;stroke:#000000; stroke-opacity:1.000000; stroke-linecap:round; stroke-linejoin:round;" transform="translate(0 0) scale(1 1)">
</svg:g>
<svg:g style="fill:#000000; fill-opacity:0.0;  stroke:#000000; stroke-width:0.000000; stroke-opacity:1;  stroke-linecap:round; stroke-linejoin:round;">
</svg:g>
<svg:g style="fill:#FF26E2; fill-opacity:0.0;  stroke:#FF26E2; stroke-width:0.000000; stroke-opacity:1;  stroke-linecap:round; stroke-linejoin:round;">
</svg:g>
<svg:g style="fill:#FF26E2; fill-opacity:0.0;  stroke:#FF26E2; stroke-width:50000.000000; stroke-opacity:1;  stroke-linecap:round; stroke-linejoin:round;">
<svg:path d="M51420000 51420000 L48580000 51420000 "/>
<svg:path d="M51420000 48580000 L51420000 51420000 "/>
<svg:path d="M48580000 48580000 L51420000 48580000 "/>
<svg:path d="M48580000 51420000 L48580000 48580000 "/>
<svg:g>
</svg:g>
<svg:g>
</svg:g>
<svg:g>
</svg:g>
<svg:g>
</svg:g>
</svg:g>
<svg:g style="fill:#000000; fill-opacity:0.0;  stroke:#000000; stroke-width:50000.000000; stroke-opacity:1;  stroke-linecap:round; stroke-linejoin:round;">
<svg:g>
</svg:g>
<svg:g>
</svg:g>
<svg:g>
</svg:g>
<svg:g>
</svg:g>
</svg:g> 
</svg:g><svg:g><svg:title>SVG Picture created as kicadBoard-F_Fab.svg date 2022/11/18 22:14:44 </svg:title>
  <svg:desc>Picture generated by PCBNEW </svg:desc>
<svg:g style="fill:#000000; fill-opacity:1.000000;stroke:#000000; stroke-opacity:1.000000; stroke-linecap:round; stroke-linejoin:round;" transform="translate(0 0) scale(1 1)">
</svg:g>
<svg:g style="fill:#000000; fill-opacity:0.0;  stroke:#000000; stroke-width:0.000000; stroke-opacity:1;  stroke-linecap:round; stroke-linejoin:round;">
</svg:g>
<svg:g style="fill:#AFAFAF; fill-opacity:0.0;  stroke:#AFAFAF; stroke-width:0.000000; stroke-opacity:1;  stroke-linecap:round; stroke-linejoin:round;">
</svg:g>
<svg:g style="fill:#AFAFAF; fill-opacity:0.0;  stroke:#AFAFAF; stroke-width:150000.000000; stroke-opacity:1;  stroke-linecap:round; stroke-linejoin:round;">
<svg:text x="50000000.000000" y="52750000.000000" textLength="23052143.000000" font-size="1333333.000000" lengthAdjust="spacingAndGlyphs" text-anchor="middle" opacity="0">WLP-4_0.83x0.83mm_P0.4mm</svg:text>
<svg:g class="stroked-text"><svg:desc>WLP-4_0.83x0.83mm_P0.4mm</svg:desc>
<svg:path d="M38714285 51702380 L38952380 52702380 L39142857 51988095 L39333333 52702380 L39571428 51702380 "/>
<svg:path d="M40428571 52702380 L39952380 52702380 L39952380 51702380 "/>
<svg:path d="M40761904 52702380 L40761904 51702380 L41142857 51702380 L41238095 51750000 L41285714 51797619 L41333333 51892857 L41333333 52035714 L41285714 52130952 L41238095 52178571 L41142857 52226190 L40761904 52226190 "/>
<svg:path d="M41761904 52321428 L42523809 52321428 "/>
<svg:path d="M43428571 52035714 L43428571 52702380 "/>
<svg:path d="M43190476 51654761 L42952380 52369047 L43571428 52369047 "/>
<svg:path d="M43714285 52797619 L44476190 52797619 "/>
<svg:path d="M44904761 51702380 L45000000 51702380 L45095238 51750000 L45142857 51797619 L45190476 51892857 L45238095 52083333 L45238095 52321428 L45190476 52511904 L45142857 52607142 L45095238 52654761 L45000000 52702380 L44904761 52702380 L44809523 52654761 L44761904 52607142 L44714285 52511904 L44666666 52321428 L44666666 52083333 L44714285 51892857 L44761904 51797619 L44809523 51750000 L44904761 51702380 "/>
<svg:path d="M45666666 52607142 L45714285 52654761 L45666666 52702380 L45619047 52654761 L45666666 52607142 L45666666 52702380 "/>
<svg:path d="M46285714 52130952 L46190476 52083333 L46142857 52035714 L46095238 51940476 L46095238 51892857 L46142857 51797619 L46190476 51750000 L46285714 51702380 L46476190 51702380 L46571428 51750000 L46619047 51797619 L46666666 51892857 L46666666 51940476 L46619047 52035714 L46571428 52083333 L46476190 52130952 L46285714 52130952 L46190476 52178571 L46142857 52226190 L46095238 52321428 L46095238 52511904 L46142857 52607142 L46190476 52654761 L46285714 52702380 L46476190 52702380 L46571428 52654761 L46619047 52607142 L46666666 52511904 L46666666 52321428 L46619047 52226190 L46571428 52178571 L46476190 52130952 "/>
<svg:path d="M47000000 51702380 L47619047 51702380 L47285714 52083333 L47428571 52083333 L47523809 52130952 L47571428 52178571 L47619047 52273809 L47619047 52511904 L47571428 52607142 L47523809 52654761 L47428571 52702380 L47142857 52702380 L47047619 52654761 L47000000 52607142 "/>
<svg:path d="M47952380 52702380 L48476190 52035714 "/>
<svg:path d="M47952380 52035714 L48476190 52702380 "/>
<svg:path d="M49047619 51702380 L49142857 51702380 L49238095 51750000 L49285714 51797619 L49333333 51892857 L49380952 52083333 L49380952 52321428 L49333333 52511904 L49285714 52607142 L49238095 52654761 L49142857 52702380 L49047619 52702380 L48952380 52654761 L48904761 52607142 L48857142 52511904 L48809523 52321428 L48809523 52083333 L48857142 51892857 L48904761 51797619 L48952380 51750000 L49047619 51702380 "/>
<svg:path d="M49809523 52607142 L49857142 52654761 L49809523 52702380 L49761904 52654761 L49809523 52607142 L49809523 52702380 "/>
<svg:path d="M50428571 52130952 L50333333 52083333 L50285714 52035714 L50238095 51940476 L50238095 51892857 L50285714 51797619 L50333333 51750000 L50428571 51702380 L50619047 51702380 L50714285 51750000 L50761904 51797619 L50809523 51892857 L50809523 51940476 L50761904 52035714 L50714285 52083333 L50619047 52130952 L50428571 52130952 L50333333 52178571 L50285714 52226190 L50238095 52321428 L50238095 52511904 L50285714 52607142 L50333333 52654761 L50428571 52702380 L50619047 52702380 L50714285 52654761 L50761904 52607142 L50809523 52511904 L50809523 52321428 L50761904 52226190 L50714285 52178571 L50619047 52130952 "/>
<svg:path d="M51142857 51702380 L51761904 51702380 L51428571 52083333 L51571428 52083333 L51666666 52130952 L51714285 52178571 L51761904 52273809 L51761904 52511904 L51714285 52607142 L51666666 52654761 L51571428 52702380 L51285714 52702380 L51190476 52654761 L51142857 52607142 "/>
<svg:path d="M52190476 52702380 L52190476 52035714 "/>
<svg:path d="M52190476 52130952 L52238095 52083333 L52333333 52035714 L52476190 52035714 L52571428 52083333 L52619047 52178571 L52619047 52702380 "/>
<svg:path d="M52619047 52178571 L52666666 52083333 L52761904 52035714 L52904761 52035714 L53000000 52083333 L53047619 52178571 L53047619 52702380 "/>
<svg:path d="M53523809 52702380 L53523809 52035714 "/>
<svg:path d="M53523809 52130952 L53571428 52083333 L53666666 52035714 L53809523 52035714 L53904761 52083333 L53952380 52178571 L53952380 52702380 "/>
<svg:path d="M53952380 52178571 L54000000 52083333 L54095238 52035714 L54238095 52035714 L54333333 52083333 L54380952 52178571 L54380952 52702380 "/>
<svg:path d="M54619047 52797619 L55380952 52797619 "/>
<svg:path d="M55619047 52702380 L55619047 51702380 L56000000 51702380 L56095238 51750000 L56142857 51797619 L56190476 51892857 L56190476 52035714 L56142857 52130952 L56095238 52178571 L56000000 52226190 L55619047 52226190 "/>
<svg:path d="M56809523 51702380 L56904761 51702380 L57000000 51750000 L57047619 51797619 L57095238 51892857 L57142857 52083333 L57142857 52321428 L57095238 52511904 L57047619 52607142 L57000000 52654761 L56904761 52702380 L56809523 52702380 L56714285 52654761 L56666666 52607142 L56619047 52511904 L56571428 52321428 L56571428 52083333 L56619047 51892857 L56666666 51797619 L56714285 51750000 L56809523 51702380 "/>
<svg:path d="M57571428 52607142 L57619047 52654761 L57571428 52702380 L57523809 52654761 L57571428 52607142 L57571428 52702380 "/>
<svg:path d="M58476190 52035714 L58476190 52702380 "/>
<svg:path d="M58238095 51654761 L58000000 52369047 L58619047 52369047 "/>
<svg:path d="M59000000 52702380 L59000000 52035714 "/>
<svg:path d="M59000000 52130952 L59047619 52083333 L59142857 52035714 L59285714 52035714 L59380952 52083333 L59428571 52178571 L59428571 52702380 "/>
<svg:path d="M59428571 52178571 L59476190 52083333 L59571428 52035714 L59714285 52035714 L59809523 52083333 L59857142 52178571 L59857142 52702380 "/>
<svg:path d="M60333333 52702380 L60333333 52035714 "/>
<svg:path d="M60333333 52130952 L60380952 52083333 L60476190 52035714 L60619047 52035714 L60714285 52083333 L60761904 52178571 L60761904 52702380 "/>
<svg:path d="M60761904 52178571 L60809523 52083333 L60904761 52035714 L61047619 52035714 L61142857 52083333 L61190476 52178571 L61190476 52702380 "/>
</svg:g></svg:g>
<svg:g style="fill:#AFAFAF; fill-opacity:0.0;  stroke:#AFAFAF; stroke-width:45000.000000; stroke-opacity:1;  stroke-linecap:round; stroke-linejoin:round;">
<svg:text x="50000000.000000" y="50090000.000000" textLength="3126429.000000" font-size="240000.000000" lengthAdjust="spacingAndGlyphs" text-anchor="middle" opacity="0">FZKBGAWLP483X83P4</svg:text>
<svg:g class="stroked-text"><svg:desc>FZKBGAWLP483X83P4</svg:desc>
<svg:path d="M48637142 49987142 L48577142 49987142 "/>
<svg:path d="M48577142 50081428 L48577142 49901428 L48662857 49901428 "/>
<svg:path d="M48714285 49901428 L48834285 49901428 L48714285 50081428 L48834285 50081428 "/>
<svg:path d="M48902857 50081428 L48902857 49901428 "/>
<svg:path d="M49005714 50081428 L48928571 49978571 "/>
<svg:path d="M49005714 49901428 L48902857 50004285 "/>
<svg:path d="M49142857 49987142 L49168571 49995714 L49177142 50004285 L49185714 50021428 L49185714 50047142 L49177142 50064285 L49168571 50072857 L49151428 50081428 L49082857 50081428 L49082857 49901428 L49142857 49901428 L49160000 49910000 L49168571 49918571 L49177142 49935714 L49177142 49952857 L49168571 49970000 L49160000 49978571 L49142857 49987142 L49082857 49987142 "/>
<svg:path d="M49357142 49910000 L49340000 49901428 L49314285 49901428 L49288571 49910000 L49271428 49927142 L49262857 49944285 L49254285 49978571 L49254285 50004285 L49262857 50038571 L49271428 50055714 L49288571 50072857 L49314285 50081428 L49331428 50081428 L49357142 50072857 L49365714 50064285 L49365714 50004285 L49331428 50004285 "/>
<svg:path d="M49434285 50030000 L49520000 50030000 "/>
<svg:path d="M49417142 50081428 L49477142 49901428 L49537142 50081428 "/>
<svg:path d="M49580000 49901428 L49622857 50081428 L49657142 49952857 L49691428 50081428 L49734285 49901428 "/>
<svg:path d="M49888571 50081428 L49802857 50081428 L49802857 49901428 "/>
<svg:path d="M49948571 50081428 L49948571 49901428 L50017142 49901428 L50034285 49910000 L50042857 49918571 L50051428 49935714 L50051428 49961428 L50042857 49978571 L50034285 49987142 L50017142 49995714 L49948571 49995714 "/>
<svg:path d="M50205714 49961428 L50205714 50081428 "/>
<svg:path d="M50162857 49892857 L50120000 50021428 L50231428 50021428 "/>
<svg:path d="M50325714 49978571 L50308571 49970000 L50300000 49961428 L50291428 49944285 L50291428 49935714 L50300000 49918571 L50308571 49910000 L50325714 49901428 L50360000 49901428 L50377142 49910000 L50385714 49918571 L50394285 49935714 L50394285 49944285 L50385714 49961428 L50377142 49970000 L50360000 49978571 L50325714 49978571 L50308571 49987142 L50300000 49995714 L50291428 50012857 L50291428 50047142 L50300000 50064285 L50308571 50072857 L50325714 50081428 L50360000 50081428 L50377142 50072857 L50385714 50064285 L50394285 50047142 L50394285 50012857 L50385714 49995714 L50377142 49987142 L50360000 49978571 "/>
<svg:path d="M50454285 49901428 L50565714 49901428 L50505714 49970000 L50531428 49970000 L50548571 49978571 L50557142 49987142 L50565714 50004285 L50565714 50047142 L50557142 50064285 L50548571 50072857 L50531428 50081428 L50480000 50081428 L50462857 50072857 L50454285 50064285 "/>
<svg:path d="M50625714 49901428 L50745714 50081428 "/>
<svg:path d="M50745714 49901428 L50625714 50081428 "/>
<svg:path d="M50840000 49978571 L50822857 49970000 L50814285 49961428 L50805714 49944285 L50805714 49935714 L50814285 49918571 L50822857 49910000 L50840000 49901428 L50874285 49901428 L50891428 49910000 L50900000 49918571 L50908571 49935714 L50908571 49944285 L50900000 49961428 L50891428 49970000 L50874285 49978571 L50840000 49978571 L50822857 49987142 L50814285 49995714 L50805714 50012857 L50805714 50047142 L50814285 50064285 L50822857 50072857 L50840000 50081428 L50874285 50081428 L50891428 50072857 L50900000 50064285 L50908571 50047142 L50908571 50012857 L50900000 49995714 L50891428 49987142 L50874285 49978571 "/>
<svg:path d="M50968571 49901428 L51080000 49901428 L51020000 49970000 L51045714 49970000 L51062857 49978571 L51071428 49987142 L51080000 50004285 L51080000 50047142 L51071428 50064285 L51062857 50072857 L51045714 50081428 L50994285 50081428 L50977142 50072857 L50968571 50064285 "/>
<svg:path d="M51157142 50081428 L51157142 49901428 L51225714 49901428 L51242857 49910000 L51251428 49918571 L51260000 49935714 L51260000 49961428 L51251428 49978571 L51242857 49987142 L51225714 49995714 L51157142 49995714 "/>
<svg:path d="M51414285 49961428 L51414285 50081428 "/>
<svg:path d="M51371428 49892857 L51328571 50021428 L51440000 50021428 "/>
</svg:g></svg:g>
<svg:g style="fill:#AFAFAF; fill-opacity:0.0;  stroke:#AFAFAF; stroke-width:100000.000000; stroke-opacity:1;  stroke-linecap:round; stroke-linejoin:round;">
<svg:path d="M50415000 50415000 L49585000 50415000 "/>
<svg:path d="M50415000 49585000 L49800000 49585000 "/>
<svg:path d="M49585000 49800000 L49585000 50415000 "/>
<svg:path d="M49800000 49585000 L49585000 49800000 "/>
<svg:path d="M50415000 49585000 L50415000 50415000 "/>
<svg:g>
</svg:g>
<svg:g>
</svg:g>
<svg:g>
</svg:g>
<svg:g>
</svg:g>
</svg:g>
<svg:g style="fill:#000000; fill-opacity:0.0;  stroke:#000000; stroke-width:100000.000000; stroke-opacity:1;  stroke-linecap:round; stroke-linejoin:round;">
<svg:g>
</svg:g>
<svg:g>
</svg:g>
<svg:g>
</svg:g>
<svg:g>
</svg:g>
</svg:g> 
</svg:g><svg:g><svg:title>SVG Picture created as kicadBoard-F_Mask.svg date 2022/11/18 22:14:44 </svg:title>
  <svg:desc>Picture generated by PCBNEW </svg:desc>
<svg:g style="fill:#000000; fill-opacity:1.000000;stroke:#000000; stroke-opacity:1.000000; stroke-linecap:round; stroke-linejoin:round;" transform="translate(0 0) scale(1 1)">
</svg:g>
<svg:g style="fill:#000000; fill-opacity:0.0;  stroke:#000000; stroke-width:0.000000; stroke-opacity:1;  stroke-linecap:round; stroke-linejoin:round;">
<svg:g>
</svg:g>
<svg:g style="fill:#000000; fill-opacity:1.0;  stroke:#000000; stroke-width:1.000000; stroke-opacity:1;  stroke-linecap:round; stroke-linejoin:round;">
<svg:circle cx="49800000.000000" cy="49800000.000000" r="125000.000000"/> 
</svg:g>
<svg:g style="fill:#000000; fill-opacity:1.0;  stroke:#000000; stroke-width:21200.000000; stroke-opacity:1;  stroke-linecap:round; stroke-linejoin:round;">
</svg:g>
<svg:g style="fill:#000000; fill-opacity:1.0;  stroke:#000000; stroke-width:1.000000; stroke-opacity:1;  stroke-linecap:round; stroke-linejoin:round;">
<svg:circle cx="50200000.000000" cy="49800000.000000" r="125000.000000"/> 
</svg:g>
<svg:g style="fill:#000000; fill-opacity:1.0;  stroke:#000000; stroke-width:21200.000000; stroke-opacity:1;  stroke-linecap:round; stroke-linejoin:round;">
</svg:g>
<svg:g style="fill:#000000; fill-opacity:1.0;  stroke:#000000; stroke-width:1.000000; stroke-opacity:1;  stroke-linecap:round; stroke-linejoin:round;">
<svg:circle cx="49800000.000000" cy="50200000.000000" r="125000.000000"/> 
</svg:g>
<svg:g style="fill:#000000; fill-opacity:1.0;  stroke:#000000; stroke-width:21200.000000; stroke-opacity:1;  stroke-linecap:round; stroke-linejoin:round;">
</svg:g>
<svg:g style="fill:#000000; fill-opacity:1.0;  stroke:#000000; stroke-width:1.000000; stroke-opacity:1;  stroke-linecap:round; stroke-linejoin:round;">
<svg:circle cx="50200000.000000" cy="50200000.000000" r="125000.000000"/> 
</svg:g>
<svg:g style="fill:#000000; fill-opacity:1.0;  stroke:#000000; stroke-width:21200.000000; stroke-opacity:1;  stroke-linecap:round; stroke-linejoin:round;">
</svg:g>
<svg:g>
</svg:g>
<svg:g>
</svg:g>
<svg:g>
</svg:g>
</svg:g>
<svg:g style="fill:#000000; fill-opacity:1.0;  stroke:#000000; stroke-width:21200.000000; stroke-opacity:1;  stroke-linecap:round; stroke-linejoin:round;">
<svg:g>
</svg:g>
<svg:g>
</svg:g>
<svg:g>
</svg:g>
<svg:g>
</svg:g>
</svg:g> 
</svg:g><svg:g><svg:title>SVG Picture created as kicadBoard-F_Paste.svg date 2022/11/18 22:14:44 </svg:title>
  <svg:desc>Picture generated by PCBNEW </svg:desc>
<svg:g style="fill:#000000; fill-opacity:1.000000;stroke:#000000; stroke-opacity:1.000000; stroke-linecap:round; stroke-linejoin:round;" transform="translate(0 0) scale(1 1)">
</svg:g>
<svg:g style="fill:#000000; fill-opacity:0.0;  stroke:#000000; stroke-width:0.000000; stroke-opacity:1;  stroke-linecap:round; stroke-linejoin:round;">
<svg:g>
</svg:g>
<svg:g style="fill:#000000; fill-opacity:1.0;  stroke:#000000; stroke-width:1.000000; stroke-opacity:1;  stroke-linecap:round; stroke-linejoin:round;">
<svg:circle cx="49800000.000000" cy="49800000.000000" r="125000.000000"/> 
</svg:g>
<svg:g style="fill:#000000; fill-opacity:1.0;  stroke:#000000; stroke-width:21200.000000; stroke-opacity:1;  stroke-linecap:round; stroke-linejoin:round;">
</svg:g>
<svg:g style="fill:#000000; fill-opacity:1.0;  stroke:#000000; stroke-width:1.000000; stroke-opacity:1;  stroke-linecap:round; stroke-linejoin:round;">
<svg:circle cx="50200000.000000" cy="49800000.000000" r="125000.000000"/> 
</svg:g>
<svg:g style="fill:#000000; fill-opacity:1.0;  stroke:#000000; stroke-width:21200.000000; stroke-opacity:1;  stroke-linecap:round; stroke-linejoin:round;">
</svg:g>
<svg:g style="fill:#000000; fill-opacity:1.0;  stroke:#000000; stroke-width:1.000000; stroke-opacity:1;  stroke-linecap:round; stroke-linejoin:round;">
<svg:circle cx="49800000.000000" cy="50200000.000000" r="125000.000000"/> 
</svg:g>
<svg:g style="fill:#000000; fill-opacity:1.0;  stroke:#000000; stroke-width:21200.000000; stroke-opacity:1;  stroke-linecap:round; stroke-linejoin:round;">
</svg:g>
<svg:g style="fill:#000000; fill-opacity:1.0;  stroke:#000000; stroke-width:1.000000; stroke-opacity:1;  stroke-linecap:round; stroke-linejoin:round;">
<svg:circle cx="50200000.000000" cy="50200000.000000" r="125000.000000"/> 
</svg:g>
<svg:g style="fill:#000000; fill-opacity:1.0;  stroke:#000000; stroke-width:21200.000000; stroke-opacity:1;  stroke-linecap:round; stroke-linejoin:round;">
</svg:g>
<svg:g>
</svg:g>
<svg:g>
</svg:g>
<svg:g>
</svg:g>
</svg:g>
<svg:g style="fill:#000000; fill-opacity:1.0;  stroke:#000000; stroke-width:21200.000000; stroke-opacity:1;  stroke-linecap:round; stroke-linejoin:round;">
<svg:g>
</svg:g>
<svg:g>
</svg:g>
<svg:g>
</svg:g>
<svg:g>
</svg:g>
</svg:g> 
</svg:g><svg:g><svg:title>SVG Picture created as kicadBoard-F_Silkscreen.svg date 2022/11/18 22:14:44 </svg:title>
  <svg:desc>Picture generated by PCBNEW </svg:desc>
<svg:g style="fill:#000000; fill-opacity:1.000000;stroke:#000000; stroke-opacity:1.000000; stroke-linecap:round; stroke-linejoin:round;" transform="translate(0 0) scale(1 1)">
</svg:g>
<svg:g style="fill:#000000; fill-opacity:0.0;  stroke:#000000; stroke-width:0.000000; stroke-opacity:1;  stroke-linecap:round; stroke-linejoin:round;">
</svg:g>
<svg:g style="fill:#F2EDA1; fill-opacity:0.0;  stroke:#F2EDA1; stroke-width:0.000000; stroke-opacity:1;  stroke-linecap:round; stroke-linejoin:round;">
</svg:g>
<svg:g style="fill:#F2EDA1; fill-opacity:0.0;  stroke:#F2EDA1; stroke-width:150000.000000; stroke-opacity:1;  stroke-linecap:round; stroke-linejoin:round;">
<svg:text x="50000000.000000" y="48250000.000000" textLength="16285715.000000" font-size="1333333.000000" lengthAdjust="spacingAndGlyphs" text-anchor="middle" opacity="0">FZKBGAWLP483X83P4</svg:text>
<svg:g class="stroked-text"><svg:desc>FZKBGAWLP483X83P4</svg:desc>
<svg:path d="M42428571 47678571 L42095238 47678571 "/>
<svg:path d="M42095238 48202380 L42095238 47202380 L42571428 47202380 "/>
<svg:path d="M42857142 47202380 L43523809 47202380 L42857142 48202380 L43523809 48202380 "/>
<svg:path d="M43904761 48202380 L43904761 47202380 "/>
<svg:path d="M44476190 48202380 L44047619 47630952 "/>
<svg:path d="M44476190 47202380 L43904761 47773809 "/>
<svg:path d="M45238095 47678571 L45380952 47726190 L45428571 47773809 L45476190 47869047 L45476190 48011904 L45428571 48107142 L45380952 48154761 L45285714 48202380 L44904761 48202380 L44904761 47202380 L45238095 47202380 L45333333 47250000 L45380952 47297619 L45428571 47392857 L45428571 47488095 L45380952 47583333 L45333333 47630952 L45238095 47678571 L44904761 47678571 "/>
<svg:path d="M46428571 47250000 L46333333 47202380 L46190476 47202380 L46047619 47250000 L45952380 47345238 L45904761 47440476 L45857142 47630952 L45857142 47773809 L45904761 47964285 L45952380 48059523 L46047619 48154761 L46190476 48202380 L46285714 48202380 L46428571 48154761 L46476190 48107142 L46476190 47773809 L46285714 47773809 "/>
<svg:path d="M46857142 47916666 L47333333 47916666 "/>
<svg:path d="M46761904 48202380 L47095238 47202380 L47428571 48202380 "/>
<svg:path d="M47666666 47202380 L47904761 48202380 L48095238 47488095 L48285714 48202380 L48523809 47202380 "/>
<svg:path d="M49380952 48202380 L48904761 48202380 L48904761 47202380 "/>
<svg:path d="M49714285 48202380 L49714285 47202380 L50095238 47202380 L50190476 47250000 L50238095 47297619 L50285714 47392857 L50285714 47535714 L50238095 47630952 L50190476 47678571 L50095238 47726190 L49714285 47726190 "/>
<svg:path d="M51142857 47535714 L51142857 48202380 "/>
<svg:path d="M50904761 47154761 L50666666 47869047 L51285714 47869047 "/>
<svg:path d="M51809523 47630952 L51714285 47583333 L51666666 47535714 L51619047 47440476 L51619047 47392857 L51666666 47297619 L51714285 47250000 L51809523 47202380 L52000000 47202380 L52095238 47250000 L52142857 47297619 L52190476 47392857 L52190476 47440476 L52142857 47535714 L52095238 47583333 L52000000 47630952 L51809523 47630952 L51714285 47678571 L51666666 47726190 L51619047 47821428 L51619047 48011904 L51666666 48107142 L51714285 48154761 L51809523 48202380 L52000000 48202380 L52095238 48154761 L52142857 48107142 L52190476 48011904 L52190476 47821428 L52142857 47726190 L52095238 47678571 L52000000 47630952 "/>
<svg:path d="M52523809 47202380 L53142857 47202380 L52809523 47583333 L52952380 47583333 L53047619 47630952 L53095238 47678571 L53142857 47773809 L53142857 48011904 L53095238 48107142 L53047619 48154761 L52952380 48202380 L52666666 48202380 L52571428 48154761 L52523809 48107142 "/>
<svg:path d="M53476190 47202380 L54142857 48202380 "/>
<svg:path d="M54142857 47202380 L53476190 48202380 "/>
<svg:path d="M54666666 47630952 L54571428 47583333 L54523809 47535714 L54476190 47440476 L54476190 47392857 L54523809 47297619 L54571428 47250000 L54666666 47202380 L54857142 47202380 L54952380 47250000 L55000000 47297619 L55047619 47392857 L55047619 47440476 L55000000 47535714 L54952380 47583333 L54857142 47630952 L54666666 47630952 L54571428 47678571 L54523809 47726190 L54476190 47821428 L54476190 48011904 L54523809 48107142 L54571428 48154761 L54666666 48202380 L54857142 48202380 L54952380 48154761 L55000000 48107142 L55047619 48011904 L55047619 47821428 L55000000 47726190 L54952380 47678571 L54857142 47630952 "/>
<svg:path d="M55380952 47202380 L56000000 47202380 L55666666 47583333 L55809523 47583333 L55904761 47630952 L55952380 47678571 L56000000 47773809 L56000000 48011904 L55952380 48107142 L55904761 48154761 L55809523 48202380 L55523809 48202380 L55428571 48154761 L55380952 48107142 "/>
<svg:path d="M56428571 48202380 L56428571 47202380 L56809523 47202380 L56904761 47250000 L56952380 47297619 L57000000 47392857 L57000000 47535714 L56952380 47630952 L56904761 47678571 L56809523 47726190 L56428571 47726190 "/>
<svg:path d="M57857142 47535714 L57857142 48202380 "/>
<svg:path d="M57619047 47154761 L57380952 47869047 L58000000 47869047 "/>
</svg:g></svg:g>
<svg:g style="fill:#F2EDA1; fill-opacity:0.0;  stroke:#F2EDA1; stroke-width:120000.000000; stroke-opacity:1;  stroke-linecap:round; stroke-linejoin:round;">
<svg:path d="M50525000 49475000 L50000000 49475000 "/>
<svg:path d="M50525000 50525000 L50525000 49475000 "/>
<svg:path d="M49475000 50000000 L49475000 50525000 "/>
<svg:path d="M49475000 50525000 L50525000 50525000 "/>
<svg:g>
</svg:g>
<svg:g>
</svg:g>
<svg:g>
</svg:g>
<svg:g>
</svg:g>
</svg:g>
<svg:g style="fill:#000000; fill-opacity:0.0;  stroke:#000000; stroke-width:120000.000000; stroke-opacity:1;  stroke-linecap:round; stroke-linejoin:round;">
<svg:g>
</svg:g>
<svg:g>
</svg:g>
<svg:g>
</svg:g>
<svg:g>
</svg:g>
</svg:g> 
</svg:g><svg:g><svg:title>SVG Picture created as kicadBoard-Margin.svg date 2022/11/18 22:14:44 </svg:title>
  <svg:desc>Picture generated by PCBNEW </svg:desc>
<svg:g style="fill:#000000; fill-opacity:1.000000;stroke:#000000; stroke-opacity:1.000000; stroke-linecap:round; stroke-linejoin:round;" transform="translate(0 0) scale(1 1)">
</svg:g>
<svg:g style="fill:#000000; fill-opacity:0.0;  stroke:#000000; stroke-width:0.000000; stroke-opacity:1;  stroke-linecap:round; stroke-linejoin:round;">
<svg:g>
</svg:g>
<svg:g>
</svg:g>
<svg:g>
</svg:g>
<svg:g>
</svg:g>
</svg:g>
<svg:g style="fill:#000000; fill-opacity:0.0;  stroke:#000000; stroke-width:0.000000; stroke-opacity:1;  stroke-linecap:round; stroke-linejoin:round;">
<svg:g>
</svg:g>
<svg:g>
</svg:g>
<svg:g>
</svg:g>
<svg:g>
</svg:g>
</svg:g> 
</svg:g><svg:g><svg:title>SVG Picture created as kicadBoard-F_Cu.svg date 2022/11/18 22:14:44 </svg:title>
  <svg:desc>Picture generated by PCBNEW </svg:desc>
<svg:g style="fill:#000000; fill-opacity:1.000000;stroke:#000000; stroke-opacity:1.000000; stroke-linecap:round; stroke-linejoin:round;" transform="translate(0 0) scale(1 1)">
</svg:g>
<svg:g style="fill:#000000; fill-opacity:0.0;  stroke:#000000; stroke-width:0.000000; stroke-opacity:1;  stroke-linecap:round; stroke-linejoin:round;">
<svg:g>
</svg:g>
<svg:g style="fill:#C83434; fill-opacity:0.0;  stroke:#C83434; stroke-width:0.000000; stroke-opacity:1;  stroke-linecap:round; stroke-linejoin:round;">
</svg:g>
<svg:g style="fill:#C83434; fill-opacity:1.0;  stroke:#C83434; stroke-width:1.000000; stroke-opacity:1;  stroke-linecap:round; stroke-linejoin:round;">
<svg:circle cx="49800000.000000" cy="49800000.000000" r="125000.000000"/> 
</svg:g>
<svg:g style="fill:#C83434; fill-opacity:1.0;  stroke:#C83434; stroke-width:21200.000000; stroke-opacity:1;  stroke-linecap:round; stroke-linejoin:round;">
</svg:g>
<svg:g style="fill:#C83434; fill-opacity:1.0;  stroke:#C83434; stroke-width:1.000000; stroke-opacity:1;  stroke-linecap:round; stroke-linejoin:round;">
<svg:circle cx="50200000.000000" cy="49800000.000000" r="125000.000000"/> 
</svg:g>
<svg:g style="fill:#C83434; fill-opacity:1.0;  stroke:#C83434; stroke-width:21200.000000; stroke-opacity:1;  stroke-linecap:round; stroke-linejoin:round;">
</svg:g>
<svg:g style="fill:#C83434; fill-opacity:1.0;  stroke:#C83434; stroke-width:1.000000; stroke-opacity:1;  stroke-linecap:round; stroke-linejoin:round;">
<svg:circle cx="49800000.000000" cy="50200000.000000" r="125000.000000"/> 
</svg:g>
<svg:g style="fill:#C83434; fill-opacity:1.0;  stroke:#C83434; stroke-width:21200.000000; stroke-opacity:1;  stroke-linecap:round; stroke-linejoin:round;">
</svg:g>
<svg:g style="fill:#C83434; fill-opacity:1.0;  stroke:#C83434; stroke-width:1.000000; stroke-opacity:1;  stroke-linecap:round; stroke-linejoin:round;">
<svg:circle cx="50200000.000000" cy="50200000.000000" r="125000.000000"/> 
</svg:g>
<svg:g style="fill:#C83434; fill-opacity:1.0;  stroke:#C83434; stroke-width:21200.000000; stroke-opacity:1;  stroke-linecap:round; stroke-linejoin:round;">
</svg:g>
<svg:g>
</svg:g>
<svg:g>
</svg:g>
<svg:g>
</svg:g>
</svg:g>
<svg:g style="fill:#FFFFFF; fill-opacity:1.0;  stroke:#FFFFFF; stroke-width:21200.000000; stroke-opacity:1;  stroke-linecap:round; stroke-linejoin:round;">
</svg:g>
<svg:g style="fill:#000000; fill-opacity:1.0;  stroke:#000000; stroke-width:21200.000000; stroke-opacity:1;  stroke-linecap:round; stroke-linejoin:round;">
<svg:g>
</svg:g>
<svg:g>
</svg:g>
<svg:g>
</svg:g>
<svg:g>
</svg:g>
</svg:g> 
</svg:g></svg>
