<?xml version='1.0' encoding='ASCII' standalone='yes'?>
<svg xmlns:svg="http://www.w3.org/2000/svg" xmlns="http://www.w3.org/2000/svg" xmlns:xlink="http://www.w3.org/1999/xlink" version="1.1" width="9.999980cm" height="9.999980cm" viewBox="0 0 99999800 99999800">
<title>SVG Picture created as kicadBoard-B_Cu.svg date 2022/12/02 21:31:43 </title>
  <desc>Picture generated by PCBNEW </desc>
<g style="fill:#000000; fill-opacity:1.000000;stroke:#000000; stroke-opacity:1.000000; stroke-linecap:round; stroke-linejoin:round;" transform="translate(0 0) scale(1 1)">
</g>
<g style="fill:#000000; fill-opacity:0.0;  stroke:#000000; stroke-width:0.000000; stroke-opacity:1;  stroke-linecap:round; stroke-linejoin:round;">
<g>
</g>
<g>
</g>
<g>
</g>
<g>
</g>
</g>
<g style="fill:#FFFFFF; fill-opacity:0.0;  stroke:#FFFFFF; stroke-width:0.000000; stroke-opacity:1;  stroke-linecap:round; stroke-linejoin:round;">
</g>
<g style="fill:#000000; fill-opacity:0.0;  stroke:#000000; stroke-width:0.000000; stroke-opacity:1;  stroke-linecap:round; stroke-linejoin:round;">
<g>
</g>
<g>
</g>
<g>
</g>
<g>
</g>
</g> 
<svg:g><svg:title>SVG Picture created as kicadBoard-B_Adhesive.svg date 2022/12/02 21:31:43 </svg:title>
  <svg:desc>Picture generated by PCBNEW </svg:desc>
<svg:g style="fill:#000000; fill-opacity:1.000000;stroke:#000000; stroke-opacity:1.000000; stroke-linecap:round; stroke-linejoin:round;" transform="translate(0 0) scale(1 1)">
</svg:g>
<svg:g style="fill:#000000; fill-opacity:0.0;  stroke:#000000; stroke-width:0.000000; stroke-opacity:1;  stroke-linecap:round; stroke-linejoin:round;">
<svg:g>
</svg:g>
<svg:g>
</svg:g>
<svg:g>
</svg:g>
<svg:g>
</svg:g>
</svg:g>
<svg:g style="fill:#000000; fill-opacity:0.0;  stroke:#000000; stroke-width:0.000000; stroke-opacity:1;  stroke-linecap:round; stroke-linejoin:round;">
<svg:g>
</svg:g>
<svg:g>
</svg:g>
<svg:g>
</svg:g>
<svg:g>
</svg:g>
</svg:g> 
</svg:g><svg:g><svg:title>SVG Picture created as kicadBoard-B_Courtyard.svg date 2022/12/02 21:31:43 </svg:title>
  <svg:desc>Picture generated by PCBNEW </svg:desc>
<svg:g style="fill:#000000; fill-opacity:1.000000;stroke:#000000; stroke-opacity:1.000000; stroke-linecap:round; stroke-linejoin:round;" transform="translate(0 0) scale(1 1)">
</svg:g>
<svg:g style="fill:#000000; fill-opacity:0.0;  stroke:#000000; stroke-width:0.000000; stroke-opacity:1;  stroke-linecap:round; stroke-linejoin:round;">
<svg:g>
</svg:g>
<svg:g>
</svg:g>
<svg:g>
</svg:g>
<svg:g>
</svg:g>
</svg:g>
<svg:g style="fill:#000000; fill-opacity:0.0;  stroke:#000000; stroke-width:0.000000; stroke-opacity:1;  stroke-linecap:round; stroke-linejoin:round;">
<svg:g>
</svg:g>
<svg:g>
</svg:g>
<svg:g>
</svg:g>
<svg:g>
</svg:g>
</svg:g> 
</svg:g><svg:g><svg:title>SVG Picture created as kicadBoard-B_Fab.svg date 2022/12/02 21:31:43 </svg:title>
  <svg:desc>Picture generated by PCBNEW </svg:desc>
<svg:g style="fill:#000000; fill-opacity:1.000000;stroke:#000000; stroke-opacity:1.000000; stroke-linecap:round; stroke-linejoin:round;" transform="translate(0 0) scale(1 1)">
</svg:g>
<svg:g style="fill:#000000; fill-opacity:0.0;  stroke:#000000; stroke-width:0.000000; stroke-opacity:1;  stroke-linecap:round; stroke-linejoin:round;">
<svg:g>
</svg:g>
<svg:g>
</svg:g>
<svg:g>
</svg:g>
<svg:g>
</svg:g>
</svg:g>
<svg:g style="fill:#000000; fill-opacity:0.0;  stroke:#000000; stroke-width:0.000000; stroke-opacity:1;  stroke-linecap:round; stroke-linejoin:round;">
<svg:g>
</svg:g>
<svg:g>
</svg:g>
<svg:g>
</svg:g>
<svg:g>
</svg:g>
</svg:g> 
</svg:g><svg:g><svg:title>SVG Picture created as kicadBoard-B_Mask.svg date 2022/12/02 21:31:43 </svg:title>
  <svg:desc>Picture generated by PCBNEW </svg:desc>
<svg:g style="fill:#000000; fill-opacity:1.000000;stroke:#000000; stroke-opacity:1.000000; stroke-linecap:round; stroke-linejoin:round;" transform="translate(0 0) scale(1 1)">
</svg:g>
<svg:g style="fill:#000000; fill-opacity:0.0;  stroke:#000000; stroke-width:0.000000; stroke-opacity:1;  stroke-linecap:round; stroke-linejoin:round;">
<svg:g>
</svg:g>
<svg:g>
</svg:g>
<svg:g>
</svg:g>
<svg:g>
</svg:g>
</svg:g>
<svg:g style="fill:#000000; fill-opacity:0.0;  stroke:#000000; stroke-width:0.000000; stroke-opacity:1;  stroke-linecap:round; stroke-linejoin:round;">
<svg:g>
</svg:g>
<svg:g>
</svg:g>
<svg:g>
</svg:g>
<svg:g>
</svg:g>
</svg:g> 
</svg:g><svg:g><svg:title>SVG Picture created as kicadBoard-B_Paste.svg date 2022/12/02 21:31:43 </svg:title>
  <svg:desc>Picture generated by PCBNEW </svg:desc>
<svg:g style="fill:#000000; fill-opacity:1.000000;stroke:#000000; stroke-opacity:1.000000; stroke-linecap:round; stroke-linejoin:round;" transform="translate(0 0) scale(1 1)">
</svg:g>
<svg:g style="fill:#000000; fill-opacity:0.0;  stroke:#000000; stroke-width:0.000000; stroke-opacity:1;  stroke-linecap:round; stroke-linejoin:round;">
<svg:g>
</svg:g>
<svg:g>
</svg:g>
<svg:g>
</svg:g>
<svg:g>
</svg:g>
</svg:g>
<svg:g style="fill:#000000; fill-opacity:0.0;  stroke:#000000; stroke-width:0.000000; stroke-opacity:1;  stroke-linecap:round; stroke-linejoin:round;">
<svg:g>
</svg:g>
<svg:g>
</svg:g>
<svg:g>
</svg:g>
<svg:g>
</svg:g>
</svg:g> 
</svg:g><svg:g><svg:title>SVG Picture created as kicadBoard-B_Silkscreen.svg date 2022/12/02 21:31:43 </svg:title>
  <svg:desc>Picture generated by PCBNEW </svg:desc>
<svg:g style="fill:#000000; fill-opacity:1.000000;stroke:#000000; stroke-opacity:1.000000; stroke-linecap:round; stroke-linejoin:round;" transform="translate(0 0) scale(1 1)">
</svg:g>
<svg:g style="fill:#000000; fill-opacity:0.0;  stroke:#000000; stroke-width:0.000000; stroke-opacity:1;  stroke-linecap:round; stroke-linejoin:round;">
<svg:g>
</svg:g>
<svg:g>
</svg:g>
<svg:g>
</svg:g>
<svg:g>
</svg:g>
</svg:g>
<svg:g style="fill:#000000; fill-opacity:0.0;  stroke:#000000; stroke-width:0.000000; stroke-opacity:1;  stroke-linecap:round; stroke-linejoin:round;">
<svg:g>
</svg:g>
<svg:g>
</svg:g>
<svg:g>
</svg:g>
<svg:g>
</svg:g>
</svg:g> 
</svg:g><svg:g><svg:title>SVG Picture created as kicadBoard-Edge_Cuts.svg date 2022/12/02 21:31:43 </svg:title>
  <svg:desc>Picture generated by PCBNEW </svg:desc>
<svg:g style="fill:#000000; fill-opacity:1.000000;stroke:#000000; stroke-opacity:1.000000; stroke-linecap:round; stroke-linejoin:round;" transform="translate(0 0) scale(1 1)">
</svg:g>
<svg:g style="fill:#000000; fill-opacity:0.0;  stroke:#000000; stroke-width:0.000000; stroke-opacity:1;  stroke-linecap:round; stroke-linejoin:round;">
<svg:g>
</svg:g>
<svg:g>
</svg:g>
<svg:g>
</svg:g>
<svg:g>
</svg:g>
</svg:g> 
</svg:g><svg:g><svg:title>SVG Picture created as kicadBoard-F_Adhesive.svg date 2022/12/02 21:31:43 </svg:title>
  <svg:desc>Picture generated by PCBNEW </svg:desc>
<svg:g style="fill:#000000; fill-opacity:1.000000;stroke:#000000; stroke-opacity:1.000000; stroke-linecap:round; stroke-linejoin:round;" transform="translate(0 0) scale(1 1)">
</svg:g>
<svg:g style="fill:#000000; fill-opacity:0.0;  stroke:#000000; stroke-width:0.000000; stroke-opacity:1;  stroke-linecap:round; stroke-linejoin:round;">
<svg:g>
</svg:g>
<svg:g>
</svg:g>
<svg:g>
</svg:g>
<svg:g>
</svg:g>
</svg:g>
<svg:g style="fill:#000000; fill-opacity:0.0;  stroke:#000000; stroke-width:0.000000; stroke-opacity:1;  stroke-linecap:round; stroke-linejoin:round;">
<svg:g>
</svg:g>
<svg:g>
</svg:g>
<svg:g>
</svg:g>
<svg:g>
</svg:g>
</svg:g> 
</svg:g><svg:g><svg:title>SVG Picture created as kicadBoard-F_Courtyard.svg date 2022/12/02 21:31:43 </svg:title>
  <svg:desc>Picture generated by PCBNEW </svg:desc>
<svg:g style="fill:#000000; fill-opacity:1.000000;stroke:#000000; stroke-opacity:1.000000; stroke-linecap:round; stroke-linejoin:round;" transform="translate(0 0) scale(1 1)">
</svg:g>
<svg:g style="fill:#000000; fill-opacity:0.0;  stroke:#000000; stroke-width:0.000000; stroke-opacity:1;  stroke-linecap:round; stroke-linejoin:round;">
<svg:g>
</svg:g>
<svg:g>
</svg:g>
<svg:g>
</svg:g>
<svg:g>
</svg:g>
</svg:g>
<svg:g style="fill:#000000; fill-opacity:0.0;  stroke:#000000; stroke-width:0.000000; stroke-opacity:1;  stroke-linecap:round; stroke-linejoin:round;">
<svg:g>
</svg:g>
<svg:g>
</svg:g>
<svg:g>
</svg:g>
<svg:g>
</svg:g>
</svg:g> 
</svg:g><svg:g><svg:title>SVG Picture created as kicadBoard-F_Cu.svg date 2022/12/02 21:31:43 </svg:title>
  <svg:desc>Picture generated by PCBNEW </svg:desc>
<svg:g style="fill:#000000; fill-opacity:1.000000;stroke:#000000; stroke-opacity:1.000000; stroke-linecap:round; stroke-linejoin:round;" transform="translate(0 0) scale(1 1)">
</svg:g>
<svg:g style="fill:#000000; fill-opacity:0.0;  stroke:#000000; stroke-width:0.000000; stroke-opacity:1;  stroke-linecap:round; stroke-linejoin:round;">
<svg:g>
</svg:g>
<svg:g style="fill:#C83434; fill-opacity:0.0;  stroke:#C83434; stroke-width:0.000000; stroke-opacity:1;  stroke-linecap:round; stroke-linejoin:round;">
</svg:g>
<svg:g style="fill:#C83434; fill-opacity:0.0;  stroke:#C83434; stroke-width:1.000000; stroke-opacity:1;  stroke-linecap:round; stroke-linejoin:round;">
</svg:g>
<svg:g style="fill:#C83434; fill-opacity:1.0;  stroke:#C83434; stroke-width:1.000000; stroke-opacity:1;  stroke-linecap:round; stroke-linejoin:round;">
<svg:path style="fill:#C83434; fill-opacity:1.0;  stroke:#C83434; stroke-width:1.000000; stroke-opacity:1;  stroke-linecap:round; stroke-linejoin:round;fill-rule:evenodd;" d="M 47550001.000000,53424999.000000 47550001.000000,52225001.000000 47899999.000000,52225001.000000 47899999.000000,53424999.000000 Z"/> 
<svg:path style="fill:#C83434; fill-opacity:1.0;  stroke:#C83434; stroke-width:1.000000; stroke-opacity:1;  stroke-linecap:round; stroke-linejoin:round;fill-rule:evenodd;" d="M 48200001.000000,53424999.000000 48200001.000000,52225001.000000 48549999.000000,52225001.000000 48549999.000000,53424999.000000 Z"/> 
<svg:path style="fill:#C83434; fill-opacity:1.0;  stroke:#C83434; stroke-width:1.000000; stroke-opacity:1;  stroke-linecap:round; stroke-linejoin:round;fill-rule:evenodd;" d="M 48850001.000000,53424999.000000 48850001.000000,52225001.000000 49199999.000000,52225001.000000 49199999.000000,53424999.000000 Z"/> 
<svg:path style="fill:#C83434; fill-opacity:1.0;  stroke:#C83434; stroke-width:1.000000; stroke-opacity:1;  stroke-linecap:round; stroke-linejoin:round;fill-rule:evenodd;" d="M 49500001.000000,53424999.000000 49500001.000000,52225001.000000 49849999.000000,52225001.000000 49849999.000000,53424999.000000 Z"/> 
<svg:path style="fill:#C83434; fill-opacity:1.0;  stroke:#C83434; stroke-width:1.000000; stroke-opacity:1;  stroke-linecap:round; stroke-linejoin:round;fill-rule:evenodd;" d="M 50150001.000000,53424999.000000 50150001.000000,52225001.000000 50499999.000000,52225001.000000 50499999.000000,53424999.000000 Z"/> 
<svg:path style="fill:#C83434; fill-opacity:1.0;  stroke:#C83434; stroke-width:1.000000; stroke-opacity:1;  stroke-linecap:round; stroke-linejoin:round;fill-rule:evenodd;" d="M 50800001.000000,53424999.000000 50800001.000000,52225001.000000 51149999.000000,52225001.000000 51149999.000000,53424999.000000 Z"/> 
<svg:path style="fill:#C83434; fill-opacity:1.0;  stroke:#C83434; stroke-width:1.000000; stroke-opacity:1;  stroke-linecap:round; stroke-linejoin:round;fill-rule:evenodd;" d="M 51450001.000000,53424999.000000 51450001.000000,52225001.000000 51799999.000000,52225001.000000 51799999.000000,53424999.000000 Z"/> 
<svg:path style="fill:#C83434; fill-opacity:1.0;  stroke:#C83434; stroke-width:1.000000; stroke-opacity:1;  stroke-linecap:round; stroke-linejoin:round;fill-rule:evenodd;" d="M 52100001.000000,53424999.000000 52100001.000000,52225001.000000 52449999.000000,52225001.000000 52449999.000000,53424999.000000 Z"/> 
<svg:path style="fill:#C83434; fill-opacity:1.0;  stroke:#C83434; stroke-width:1.000000; stroke-opacity:1;  stroke-linecap:round; stroke-linejoin:round;fill-rule:evenodd;" d="M 52449999.000000,46575001.000000 52449999.000000,47774999.000000 52100001.000000,47774999.000000 52100001.000000,46575001.000000 Z"/> 
<svg:path style="fill:#C83434; fill-opacity:1.0;  stroke:#C83434; stroke-width:1.000000; stroke-opacity:1;  stroke-linecap:round; stroke-linejoin:round;fill-rule:evenodd;" d="M 51799999.000000,46575001.000000 51799999.000000,47774999.000000 51450001.000000,47774999.000000 51450001.000000,46575001.000000 Z"/> 
<svg:path style="fill:#C83434; fill-opacity:1.0;  stroke:#C83434; stroke-width:1.000000; stroke-opacity:1;  stroke-linecap:round; stroke-linejoin:round;fill-rule:evenodd;" d="M 51149999.000000,46575001.000000 51149999.000000,47774999.000000 50800001.000000,47774999.000000 50800001.000000,46575001.000000 Z"/> 
<svg:path style="fill:#C83434; fill-opacity:1.0;  stroke:#C83434; stroke-width:1.000000; stroke-opacity:1;  stroke-linecap:round; stroke-linejoin:round;fill-rule:evenodd;" d="M 50499999.000000,46575001.000000 50499999.000000,47774999.000000 50150001.000000,47774999.000000 50150001.000000,46575001.000000 Z"/> 
<svg:path style="fill:#C83434; fill-opacity:1.0;  stroke:#C83434; stroke-width:1.000000; stroke-opacity:1;  stroke-linecap:round; stroke-linejoin:round;fill-rule:evenodd;" d="M 49849999.000000,46575001.000000 49849999.000000,47774999.000000 49500001.000000,47774999.000000 49500001.000000,46575001.000000 Z"/> 
<svg:path style="fill:#C83434; fill-opacity:1.0;  stroke:#C83434; stroke-width:1.000000; stroke-opacity:1;  stroke-linecap:round; stroke-linejoin:round;fill-rule:evenodd;" d="M 49199999.000000,46575001.000000 49199999.000000,47774999.000000 48850001.000000,47774999.000000 48850001.000000,46575001.000000 Z"/> 
<svg:path style="fill:#C83434; fill-opacity:1.0;  stroke:#C83434; stroke-width:1.000000; stroke-opacity:1;  stroke-linecap:round; stroke-linejoin:round;fill-rule:evenodd;" d="M 48549999.000000,46575001.000000 48549999.000000,47774999.000000 48200001.000000,47774999.000000 48200001.000000,46575001.000000 Z"/> 
<svg:path style="fill:#C83434; fill-opacity:1.0;  stroke:#C83434; stroke-width:1.000000; stroke-opacity:1;  stroke-linecap:round; stroke-linejoin:round;fill-rule:evenodd;" d="M 47899999.000000,46575001.000000 47899999.000000,47774999.000000 47550001.000000,47774999.000000 47550001.000000,46575001.000000 Z"/> 
</svg:g>
<svg:g>
</svg:g>
<svg:g>
</svg:g>
<svg:g>
</svg:g>
</svg:g>
<svg:g style="fill:#FFFFFF; fill-opacity:1.0;  stroke:#FFFFFF; stroke-width:1.000000; stroke-opacity:1;  stroke-linecap:round; stroke-linejoin:round;">
</svg:g>
<svg:g style="fill:#000000; fill-opacity:1.0;  stroke:#000000; stroke-width:1.000000; stroke-opacity:1;  stroke-linecap:round; stroke-linejoin:round;">
<svg:g>
</svg:g>
<svg:g>
</svg:g>
<svg:g>
</svg:g>
<svg:g>
</svg:g>
</svg:g> 
</svg:g><svg:g><svg:title>SVG Picture created as kicadBoard-F_Fab.svg date 2022/12/02 21:31:43 </svg:title>
  <svg:desc>Picture generated by PCBNEW </svg:desc>
<svg:g style="fill:#000000; fill-opacity:1.000000;stroke:#000000; stroke-opacity:1.000000; stroke-linecap:round; stroke-linejoin:round;" transform="translate(0 0) scale(1 1)">
</svg:g>
<svg:g style="fill:#000000; fill-opacity:0.0;  stroke:#000000; stroke-width:0.000000; stroke-opacity:1;  stroke-linecap:round; stroke-linejoin:round;">
</svg:g>
<svg:g style="fill:#AFAFAF; fill-opacity:0.0;  stroke:#AFAFAF; stroke-width:0.000000; stroke-opacity:1;  stroke-linecap:round; stroke-linejoin:round;">
</svg:g>
<svg:g style="fill:#AFAFAF; fill-opacity:0.0;  stroke:#AFAFAF; stroke-width:101600.000000; stroke-opacity:1;  stroke-linecap:round; stroke-linejoin:round;">
<svg:g transform="rotate(-90.000000 54550000.000000 52600000.000000)">
<svg:text x="54550000.000000" y="52600000.000000" textLength="6808651.000000" font-size="1557866.000000" lengthAdjust="spacingAndGlyphs" text-anchor="start" opacity="0">&gt;VALUE</svg:text>
</svg:g>
<svg:g class="stroked-text"><svg:desc>&gt;VALUE</svg:desc>
<svg:path d="M53715428 52255769 L54049257 51365560 L54383085 52255769 "/>
<svg:path d="M53325961 50976093 L54494361 50586626 L53325961 50197160 "/>
<svg:path d="M54160533 49863331 L54160533 49306950 "/>
<svg:path d="M54494361 49974607 L53325961 49585140 L54494361 49195674 "/>
<svg:path d="M54494361 48249826 L54494361 48806207 L53325961 48806207 "/>
<svg:path d="M53325961 47860360 L54271809 47860360 L54383085 47804721 L54438723 47749083 L54494361 47637807 L54494361 47415255 L54438723 47303979 L54383085 47248340 L54271809 47192702 L53325961 47192702 "/>
<svg:path d="M53882342 46636321 L53882342 46246855 "/>
<svg:path d="M54494361 46079940 L54494361 46636321 L53325961 46636321 L53325961 46079940 "/>
</svg:g></svg:g>
<svg:g style="fill:#AFAFAF; fill-opacity:0.0;  stroke:#AFAFAF; stroke-width:203200.000000; stroke-opacity:1;  stroke-linecap:round; stroke-linejoin:round;">
<svg:path d="M52440000 47850000 L52440000 52125000 "/>
<svg:path d="M52440000 52125000 L47560000 52125000 "/>
<svg:path d="M47560000 52125000 L47560000 47850000 "/>
<svg:path d="M47560000 47850000 L52440000 47850000 "/>
</svg:g>
<svg:g style="fill:#AFAFAF; fill-opacity:1.0;  stroke:#AFAFAF; stroke-width:1.000000; stroke-opacity:1;  stroke-linecap:round; stroke-linejoin:round;">
<svg:path style="fill:#AFAFAF; fill-opacity:1.0;  stroke:#AFAFAF; stroke-width:1.000000; stroke-opacity:1;  stroke-linecap:round; stroke-linejoin:round;fill-rule:evenodd;" d="M 50475000.000000,53300000.000000 50175000.000000,53300000.000000 50175000.000000,52100000.000000 50475000.000000,52100000.000000 Z"/> 
<svg:path style="fill:#AFAFAF; fill-opacity:1.0;  stroke:#AFAFAF; stroke-width:1.000000; stroke-opacity:1;  stroke-linecap:round; stroke-linejoin:round;fill-rule:evenodd;" d="M 49825000.000000,47900000.000000 49525000.000000,47900000.000000 49525000.000000,46700000.000000 49825000.000000,46700000.000000 Z"/> 
<svg:path style="fill:#AFAFAF; fill-opacity:1.0;  stroke:#AFAFAF; stroke-width:1.000000; stroke-opacity:1;  stroke-linecap:round; stroke-linejoin:round;fill-rule:evenodd;" d="M 51775000.000000,53300000.000000 51475000.000000,53300000.000000 51475000.000000,52100000.000000 51775000.000000,52100000.000000 Z"/> 
<svg:path style="fill:#AFAFAF; fill-opacity:1.0;  stroke:#AFAFAF; stroke-width:1.000000; stroke-opacity:1;  stroke-linecap:round; stroke-linejoin:round;fill-rule:evenodd;" d="M 48525000.000000,47900000.000000 48225000.000000,47900000.000000 48225000.000000,46700000.000000 48525000.000000,46700000.000000 Z"/> 
<svg:path style="fill:#AFAFAF; fill-opacity:1.0;  stroke:#AFAFAF; stroke-width:1.000000; stroke-opacity:1;  stroke-linecap:round; stroke-linejoin:round;fill-rule:evenodd;" d="M 49175000.000000,47900000.000000 48875000.000000,47900000.000000 48875000.000000,46700000.000000 49175000.000000,46700000.000000 Z"/> 
<svg:path style="fill:#AFAFAF; fill-opacity:1.0;  stroke:#AFAFAF; stroke-width:1.000000; stroke-opacity:1;  stroke-linecap:round; stroke-linejoin:round;fill-rule:evenodd;" d="M 51125000.000000,47900000.000000 50825000.000000,47900000.000000 50825000.000000,46700000.000000 51125000.000000,46700000.000000 Z"/> 
<svg:path style="fill:#AFAFAF; fill-opacity:1.0;  stroke:#AFAFAF; stroke-width:1.000000; stroke-opacity:1;  stroke-linecap:round; stroke-linejoin:round;fill-rule:evenodd;" d="M 49825000.000000,53300000.000000 49525000.000000,53300000.000000 49525000.000000,52100000.000000 49825000.000000,52100000.000000 Z"/> 
<svg:path style="fill:#AFAFAF; fill-opacity:1.0;  stroke:#AFAFAF; stroke-width:1.000000; stroke-opacity:1;  stroke-linecap:round; stroke-linejoin:round;fill-rule:evenodd;" d="M 47875000.000000,47900000.000000 47575000.000000,47900000.000000 47575000.000000,46700000.000000 47875000.000000,46700000.000000 Z"/> 
<svg:path style="fill:#AFAFAF; fill-opacity:1.0;  stroke:#AFAFAF; stroke-width:1.000000; stroke-opacity:1;  stroke-linecap:round; stroke-linejoin:round;fill-rule:evenodd;" d="M 48525000.000000,53300000.000000 48225000.000000,53300000.000000 48225000.000000,52100000.000000 48525000.000000,52100000.000000 Z"/> 
<svg:path style="fill:#AFAFAF; fill-opacity:1.0;  stroke:#AFAFAF; stroke-width:1.000000; stroke-opacity:1;  stroke-linecap:round; stroke-linejoin:round;fill-rule:evenodd;" d="M 52425000.000000,53300000.000000 52125000.000000,53300000.000000 52125000.000000,52100000.000000 52425000.000000,52100000.000000 Z"/> 
<svg:path style="fill:#AFAFAF; fill-opacity:1.0;  stroke:#AFAFAF; stroke-width:1.000000; stroke-opacity:1;  stroke-linecap:round; stroke-linejoin:round;fill-rule:evenodd;" d="M 52425000.000000,47900000.000000 52125000.000000,47900000.000000 52125000.000000,46700000.000000 52425000.000000,46700000.000000 Z"/> 
<svg:path style="fill:#AFAFAF; fill-opacity:1.0;  stroke:#AFAFAF; stroke-width:1.000000; stroke-opacity:1;  stroke-linecap:round; stroke-linejoin:round;fill-rule:evenodd;" d="M 51775000.000000,47900000.000000 51475000.000000,47900000.000000 51475000.000000,46700000.000000 51775000.000000,46700000.000000 Z"/> 
<svg:path style="fill:#AFAFAF; fill-opacity:1.0;  stroke:#AFAFAF; stroke-width:1.000000; stroke-opacity:1;  stroke-linecap:round; stroke-linejoin:round;fill-rule:evenodd;" d="M 49175000.000000,53300000.000000 48875000.000000,53300000.000000 48875000.000000,52100000.000000 49175000.000000,52100000.000000 Z"/> 
<svg:path style="fill:#AFAFAF; fill-opacity:1.0;  stroke:#AFAFAF; stroke-width:1.000000; stroke-opacity:1;  stroke-linecap:round; stroke-linejoin:round;fill-rule:evenodd;" d="M 50475000.000000,47900000.000000 50175000.000000,47900000.000000 50175000.000000,46700000.000000 50475000.000000,46700000.000000 Z"/> 
<svg:path style="fill:#AFAFAF; fill-opacity:1.0;  stroke:#AFAFAF; stroke-width:1.000000; stroke-opacity:1;  stroke-linecap:round; stroke-linejoin:round;fill-rule:evenodd;" d="M 51125000.000000,53300000.000000 50825000.000000,53300000.000000 50825000.000000,52100000.000000 51125000.000000,52100000.000000 Z"/> 
<svg:path style="fill:#AFAFAF; fill-opacity:1.0;  stroke:#AFAFAF; stroke-width:1.000000; stroke-opacity:1;  stroke-linecap:round; stroke-linejoin:round;fill-rule:evenodd;" d="M 47875000.000000,53300000.000000 47575000.000000,53300000.000000 47575000.000000,52100000.000000 47875000.000000,52100000.000000 Z"/> 
<svg:g>
</svg:g>
<svg:g>
</svg:g>
<svg:g>
</svg:g>
<svg:g>
</svg:g>
</svg:g>
<svg:g style="fill:#000000; fill-opacity:1.0;  stroke:#000000; stroke-width:1.000000; stroke-opacity:1;  stroke-linecap:round; stroke-linejoin:round;">
<svg:g>
</svg:g>
<svg:g>
</svg:g>
<svg:g>
</svg:g>
<svg:g>
</svg:g>
</svg:g> 
</svg:g><svg:g><svg:title>SVG Picture created as kicadBoard-F_Mask.svg date 2022/12/02 21:31:43 </svg:title>
  <svg:desc>Picture generated by PCBNEW </svg:desc>
<svg:g style="fill:#000000; fill-opacity:1.000000;stroke:#000000; stroke-opacity:1.000000; stroke-linecap:round; stroke-linejoin:round;" transform="translate(0 0) scale(1 1)">
</svg:g>
<svg:g style="fill:#000000; fill-opacity:0.0;  stroke:#000000; stroke-width:0.000000; stroke-opacity:1;  stroke-linecap:round; stroke-linejoin:round;">
<svg:g>
</svg:g>
<svg:g style="fill:#000000; fill-opacity:0.0;  stroke:#000000; stroke-width:1.000000; stroke-opacity:1;  stroke-linecap:round; stroke-linejoin:round;">
</svg:g>
<svg:g style="fill:#000000; fill-opacity:1.0;  stroke:#000000; stroke-width:1.000000; stroke-opacity:1;  stroke-linecap:round; stroke-linejoin:round;">
<svg:path style="fill:#000000; fill-opacity:1.0;  stroke:#000000; stroke-width:1.000000; stroke-opacity:1;  stroke-linecap:round; stroke-linejoin:round;fill-rule:evenodd;" d="M 47448400.000000,52225000.000000 47456134.000000,52186119.000000 47478158.000000,52153158.000000 47511119.000000,52131134.000000 47550000.000000,52123400.000000 47900000.000000,52123400.000000 47938881.000000,52131134.000000 47971842.000000,52153158.000000 47993866.000000,52186119.000000 48001600.000000,52225000.000000 48001600.000000,53425000.000000 47993866.000000,53463881.000000 47971842.000000,53496842.000000 47938881.000000,53518866.000000 47900000.000000,53526600.000000 47550000.000000,53526600.000000 47511119.000000,53518866.000000 47478158.000000,53496842.000000 47456134.000000,53463881.000000 47448400.000000,53425000.000000 Z"/> 
<svg:path style="fill:#000000; fill-opacity:1.0;  stroke:#000000; stroke-width:1.000000; stroke-opacity:1;  stroke-linecap:round; stroke-linejoin:round;fill-rule:evenodd;" d="M 48098400.000000,52225000.000000 48106134.000000,52186119.000000 48128158.000000,52153158.000000 48161119.000000,52131134.000000 48200000.000000,52123400.000000 48550000.000000,52123400.000000 48588881.000000,52131134.000000 48621842.000000,52153158.000000 48643866.000000,52186119.000000 48651600.000000,52225000.000000 48651600.000000,53425000.000000 48643866.000000,53463881.000000 48621842.000000,53496842.000000 48588881.000000,53518866.000000 48550000.000000,53526600.000000 48200000.000000,53526600.000000 48161119.000000,53518866.000000 48128158.000000,53496842.000000 48106134.000000,53463881.000000 48098400.000000,53425000.000000 Z"/> 
<svg:path style="fill:#000000; fill-opacity:1.0;  stroke:#000000; stroke-width:1.000000; stroke-opacity:1;  stroke-linecap:round; stroke-linejoin:round;fill-rule:evenodd;" d="M 48748400.000000,52225000.000000 48756134.000000,52186119.000000 48778158.000000,52153158.000000 48811119.000000,52131134.000000 48850000.000000,52123400.000000 49200000.000000,52123400.000000 49238881.000000,52131134.000000 49271842.000000,52153158.000000 49293866.000000,52186119.000000 49301600.000000,52225000.000000 49301600.000000,53425000.000000 49293866.000000,53463881.000000 49271842.000000,53496842.000000 49238881.000000,53518866.000000 49200000.000000,53526600.000000 48850000.000000,53526600.000000 48811119.000000,53518866.000000 48778158.000000,53496842.000000 48756134.000000,53463881.000000 48748400.000000,53425000.000000 Z"/> 
<svg:path style="fill:#000000; fill-opacity:1.0;  stroke:#000000; stroke-width:1.000000; stroke-opacity:1;  stroke-linecap:round; stroke-linejoin:round;fill-rule:evenodd;" d="M 49398400.000000,52225000.000000 49406134.000000,52186119.000000 49428158.000000,52153158.000000 49461119.000000,52131134.000000 49500000.000000,52123400.000000 49850000.000000,52123400.000000 49888881.000000,52131134.000000 49921842.000000,52153158.000000 49943866.000000,52186119.000000 49951600.000000,52225000.000000 49951600.000000,53425000.000000 49943866.000000,53463881.000000 49921842.000000,53496842.000000 49888881.000000,53518866.000000 49850000.000000,53526600.000000 49500000.000000,53526600.000000 49461119.000000,53518866.000000 49428158.000000,53496842.000000 49406134.000000,53463881.000000 49398400.000000,53425000.000000 Z"/> 
<svg:path style="fill:#000000; fill-opacity:1.0;  stroke:#000000; stroke-width:1.000000; stroke-opacity:1;  stroke-linecap:round; stroke-linejoin:round;fill-rule:evenodd;" d="M 50048400.000000,52225000.000000 50056134.000000,52186119.000000 50078158.000000,52153158.000000 50111119.000000,52131134.000000 50150000.000000,52123400.000000 50500000.000000,52123400.000000 50538881.000000,52131134.000000 50571842.000000,52153158.000000 50593866.000000,52186119.000000 50601600.000000,52225000.000000 50601600.000000,53425000.000000 50593866.000000,53463881.000000 50571842.000000,53496842.000000 50538881.000000,53518866.000000 50500000.000000,53526600.000000 50150000.000000,53526600.000000 50111119.000000,53518866.000000 50078158.000000,53496842.000000 50056134.000000,53463881.000000 50048400.000000,53425000.000000 Z"/> 
<svg:path style="fill:#000000; fill-opacity:1.0;  stroke:#000000; stroke-width:1.000000; stroke-opacity:1;  stroke-linecap:round; stroke-linejoin:round;fill-rule:evenodd;" d="M 50698400.000000,52225000.000000 50706134.000000,52186119.000000 50728158.000000,52153158.000000 50761119.000000,52131134.000000 50800000.000000,52123400.000000 51150000.000000,52123400.000000 51188881.000000,52131134.000000 51221842.000000,52153158.000000 51243866.000000,52186119.000000 51251600.000000,52225000.000000 51251600.000000,53425000.000000 51243866.000000,53463881.000000 51221842.000000,53496842.000000 51188881.000000,53518866.000000 51150000.000000,53526600.000000 50800000.000000,53526600.000000 50761119.000000,53518866.000000 50728158.000000,53496842.000000 50706134.000000,53463881.000000 50698400.000000,53425000.000000 Z"/> 
<svg:path style="fill:#000000; fill-opacity:1.0;  stroke:#000000; stroke-width:1.000000; stroke-opacity:1;  stroke-linecap:round; stroke-linejoin:round;fill-rule:evenodd;" d="M 51348400.000000,52225000.000000 51356134.000000,52186119.000000 51378158.000000,52153158.000000 51411119.000000,52131134.000000 51450000.000000,52123400.000000 51800000.000000,52123400.000000 51838881.000000,52131134.000000 51871842.000000,52153158.000000 51893866.000000,52186119.000000 51901600.000000,52225000.000000 51901600.000000,53425000.000000 51893866.000000,53463881.000000 51871842.000000,53496842.000000 51838881.000000,53518866.000000 51800000.000000,53526600.000000 51450000.000000,53526600.000000 51411119.000000,53518866.000000 51378158.000000,53496842.000000 51356134.000000,53463881.000000 51348400.000000,53425000.000000 Z"/> 
<svg:path style="fill:#000000; fill-opacity:1.0;  stroke:#000000; stroke-width:1.000000; stroke-opacity:1;  stroke-linecap:round; stroke-linejoin:round;fill-rule:evenodd;" d="M 51998400.000000,52225000.000000 52006134.000000,52186119.000000 52028158.000000,52153158.000000 52061119.000000,52131134.000000 52100000.000000,52123400.000000 52450000.000000,52123400.000000 52488881.000000,52131134.000000 52521842.000000,52153158.000000 52543866.000000,52186119.000000 52551600.000000,52225000.000000 52551600.000000,53425000.000000 52543866.000000,53463881.000000 52521842.000000,53496842.000000 52488881.000000,53518866.000000 52450000.000000,53526600.000000 52100000.000000,53526600.000000 52061119.000000,53518866.000000 52028158.000000,53496842.000000 52006134.000000,53463881.000000 51998400.000000,53425000.000000 Z"/> 
<svg:path style="fill:#000000; fill-opacity:1.0;  stroke:#000000; stroke-width:1.000000; stroke-opacity:1;  stroke-linecap:round; stroke-linejoin:round;fill-rule:evenodd;" d="M 52551600.000000,47775000.000000 52543866.000000,47813881.000000 52521842.000000,47846842.000000 52488881.000000,47868866.000000 52450000.000000,47876600.000000 52100000.000000,47876600.000000 52061119.000000,47868866.000000 52028158.000000,47846842.000000 52006134.000000,47813881.000000 51998400.000000,47775000.000000 51998400.000000,46575000.000000 52006134.000000,46536119.000000 52028158.000000,46503158.000000 52061119.000000,46481134.000000 52100000.000000,46473400.000000 52450000.000000,46473400.000000 52488881.000000,46481134.000000 52521842.000000,46503158.000000 52543866.000000,46536119.000000 52551600.000000,46575000.000000 Z"/> 
<svg:path style="fill:#000000; fill-opacity:1.0;  stroke:#000000; stroke-width:1.000000; stroke-opacity:1;  stroke-linecap:round; stroke-linejoin:round;fill-rule:evenodd;" d="M 51901600.000000,47775000.000000 51893866.000000,47813881.000000 51871842.000000,47846842.000000 51838881.000000,47868866.000000 51800000.000000,47876600.000000 51450000.000000,47876600.000000 51411119.000000,47868866.000000 51378158.000000,47846842.000000 51356134.000000,47813881.000000 51348400.000000,47775000.000000 51348400.000000,46575000.000000 51356134.000000,46536119.000000 51378158.000000,46503158.000000 51411119.000000,46481134.000000 51450000.000000,46473400.000000 51800000.000000,46473400.000000 51838881.000000,46481134.000000 51871842.000000,46503158.000000 51893866.000000,46536119.000000 51901600.000000,46575000.000000 Z"/> 
<svg:path style="fill:#000000; fill-opacity:1.0;  stroke:#000000; stroke-width:1.000000; stroke-opacity:1;  stroke-linecap:round; stroke-linejoin:round;fill-rule:evenodd;" d="M 51251600.000000,47775000.000000 51243866.000000,47813881.000000 51221842.000000,47846842.000000 51188881.000000,47868866.000000 51150000.000000,47876600.000000 50800000.000000,47876600.000000 50761119.000000,47868866.000000 50728158.000000,47846842.000000 50706134.000000,47813881.000000 50698400.000000,47775000.000000 50698400.000000,46575000.000000 50706134.000000,46536119.000000 50728158.000000,46503158.000000 50761119.000000,46481134.000000 50800000.000000,46473400.000000 51150000.000000,46473400.000000 51188881.000000,46481134.000000 51221842.000000,46503158.000000 51243866.000000,46536119.000000 51251600.000000,46575000.000000 Z"/> 
<svg:path style="fill:#000000; fill-opacity:1.0;  stroke:#000000; stroke-width:1.000000; stroke-opacity:1;  stroke-linecap:round; stroke-linejoin:round;fill-rule:evenodd;" d="M 50601600.000000,47775000.000000 50593866.000000,47813881.000000 50571842.000000,47846842.000000 50538881.000000,47868866.000000 50500000.000000,47876600.000000 50150000.000000,47876600.000000 50111119.000000,47868866.000000 50078158.000000,47846842.000000 50056134.000000,47813881.000000 50048400.000000,47775000.000000 50048400.000000,46575000.000000 50056134.000000,46536119.000000 50078158.000000,46503158.000000 50111119.000000,46481134.000000 50150000.000000,46473400.000000 50500000.000000,46473400.000000 50538881.000000,46481134.000000 50571842.000000,46503158.000000 50593866.000000,46536119.000000 50601600.000000,46575000.000000 Z"/> 
<svg:path style="fill:#000000; fill-opacity:1.0;  stroke:#000000; stroke-width:1.000000; stroke-opacity:1;  stroke-linecap:round; stroke-linejoin:round;fill-rule:evenodd;" d="M 49951600.000000,47775000.000000 49943866.000000,47813881.000000 49921842.000000,47846842.000000 49888881.000000,47868866.000000 49850000.000000,47876600.000000 49500000.000000,47876600.000000 49461119.000000,47868866.000000 49428158.000000,47846842.000000 49406134.000000,47813881.000000 49398400.000000,47775000.000000 49398400.000000,46575000.000000 49406134.000000,46536119.000000 49428158.000000,46503158.000000 49461119.000000,46481134.000000 49500000.000000,46473400.000000 49850000.000000,46473400.000000 49888881.000000,46481134.000000 49921842.000000,46503158.000000 49943866.000000,46536119.000000 49951600.000000,46575000.000000 Z"/> 
<svg:path style="fill:#000000; fill-opacity:1.0;  stroke:#000000; stroke-width:1.000000; stroke-opacity:1;  stroke-linecap:round; stroke-linejoin:round;fill-rule:evenodd;" d="M 49301600.000000,47775000.000000 49293866.000000,47813881.000000 49271842.000000,47846842.000000 49238881.000000,47868866.000000 49200000.000000,47876600.000000 48850000.000000,47876600.000000 48811119.000000,47868866.000000 48778158.000000,47846842.000000 48756134.000000,47813881.000000 48748400.000000,47775000.000000 48748400.000000,46575000.000000 48756134.000000,46536119.000000 48778158.000000,46503158.000000 48811119.000000,46481134.000000 48850000.000000,46473400.000000 49200000.000000,46473400.000000 49238881.000000,46481134.000000 49271842.000000,46503158.000000 49293866.000000,46536119.000000 49301600.000000,46575000.000000 Z"/> 
<svg:path style="fill:#000000; fill-opacity:1.0;  stroke:#000000; stroke-width:1.000000; stroke-opacity:1;  stroke-linecap:round; stroke-linejoin:round;fill-rule:evenodd;" d="M 48651600.000000,47775000.000000 48643866.000000,47813881.000000 48621842.000000,47846842.000000 48588881.000000,47868866.000000 48550000.000000,47876600.000000 48200000.000000,47876600.000000 48161119.000000,47868866.000000 48128158.000000,47846842.000000 48106134.000000,47813881.000000 48098400.000000,47775000.000000 48098400.000000,46575000.000000 48106134.000000,46536119.000000 48128158.000000,46503158.000000 48161119.000000,46481134.000000 48200000.000000,46473400.000000 48550000.000000,46473400.000000 48588881.000000,46481134.000000 48621842.000000,46503158.000000 48643866.000000,46536119.000000 48651600.000000,46575000.000000 Z"/> 
<svg:path style="fill:#000000; fill-opacity:1.0;  stroke:#000000; stroke-width:1.000000; stroke-opacity:1;  stroke-linecap:round; stroke-linejoin:round;fill-rule:evenodd;" d="M 48001600.000000,47775000.000000 47993866.000000,47813881.000000 47971842.000000,47846842.000000 47938881.000000,47868866.000000 47900000.000000,47876600.000000 47550000.000000,47876600.000000 47511119.000000,47868866.000000 47478158.000000,47846842.000000 47456134.000000,47813881.000000 47448400.000000,47775000.000000 47448400.000000,46575000.000000 47456134.000000,46536119.000000 47478158.000000,46503158.000000 47511119.000000,46481134.000000 47550000.000000,46473400.000000 47900000.000000,46473400.000000 47938881.000000,46481134.000000 47971842.000000,46503158.000000 47993866.000000,46536119.000000 48001600.000000,46575000.000000 Z"/> 
</svg:g>
<svg:g>
</svg:g>
<svg:g>
</svg:g>
<svg:g>
</svg:g>
</svg:g>
<svg:g style="fill:#000000; fill-opacity:1.0;  stroke:#000000; stroke-width:1.000000; stroke-opacity:1;  stroke-linecap:round; stroke-linejoin:round;">
<svg:g>
</svg:g>
<svg:g>
</svg:g>
<svg:g>
</svg:g>
<svg:g>
</svg:g>
</svg:g> 
</svg:g><svg:g><svg:title>SVG Picture created as kicadBoard-F_Paste.svg date 2022/12/02 21:31:43 </svg:title>
  <svg:desc>Picture generated by PCBNEW </svg:desc>
<svg:g style="fill:#000000; fill-opacity:1.000000;stroke:#000000; stroke-opacity:1.000000; stroke-linecap:round; stroke-linejoin:round;" transform="translate(0 0) scale(1 1)">
</svg:g>
<svg:g style="fill:#000000; fill-opacity:0.0;  stroke:#000000; stroke-width:0.000000; stroke-opacity:1;  stroke-linecap:round; stroke-linejoin:round;">
<svg:g>
</svg:g>
<svg:g style="fill:#000000; fill-opacity:0.0;  stroke:#000000; stroke-width:1.000000; stroke-opacity:1;  stroke-linecap:round; stroke-linejoin:round;">
</svg:g>
<svg:g style="fill:#000000; fill-opacity:1.0;  stroke:#000000; stroke-width:1.000000; stroke-opacity:1;  stroke-linecap:round; stroke-linejoin:round;">
<svg:path style="fill:#000000; fill-opacity:1.0;  stroke:#000000; stroke-width:1.000000; stroke-opacity:1;  stroke-linecap:round; stroke-linejoin:round;fill-rule:evenodd;" d="M 47550001.000000,53424999.000000 47550001.000000,52225001.000000 47899999.000000,52225001.000000 47899999.000000,53424999.000000 Z"/> 
<svg:path style="fill:#000000; fill-opacity:1.0;  stroke:#000000; stroke-width:1.000000; stroke-opacity:1;  stroke-linecap:round; stroke-linejoin:round;fill-rule:evenodd;" d="M 48200001.000000,53424999.000000 48200001.000000,52225001.000000 48549999.000000,52225001.000000 48549999.000000,53424999.000000 Z"/> 
<svg:path style="fill:#000000; fill-opacity:1.0;  stroke:#000000; stroke-width:1.000000; stroke-opacity:1;  stroke-linecap:round; stroke-linejoin:round;fill-rule:evenodd;" d="M 48850001.000000,53424999.000000 48850001.000000,52225001.000000 49199999.000000,52225001.000000 49199999.000000,53424999.000000 Z"/> 
<svg:path style="fill:#000000; fill-opacity:1.0;  stroke:#000000; stroke-width:1.000000; stroke-opacity:1;  stroke-linecap:round; stroke-linejoin:round;fill-rule:evenodd;" d="M 49500001.000000,53424999.000000 49500001.000000,52225001.000000 49849999.000000,52225001.000000 49849999.000000,53424999.000000 Z"/> 
<svg:path style="fill:#000000; fill-opacity:1.0;  stroke:#000000; stroke-width:1.000000; stroke-opacity:1;  stroke-linecap:round; stroke-linejoin:round;fill-rule:evenodd;" d="M 50150001.000000,53424999.000000 50150001.000000,52225001.000000 50499999.000000,52225001.000000 50499999.000000,53424999.000000 Z"/> 
<svg:path style="fill:#000000; fill-opacity:1.0;  stroke:#000000; stroke-width:1.000000; stroke-opacity:1;  stroke-linecap:round; stroke-linejoin:round;fill-rule:evenodd;" d="M 50800001.000000,53424999.000000 50800001.000000,52225001.000000 51149999.000000,52225001.000000 51149999.000000,53424999.000000 Z"/> 
<svg:path style="fill:#000000; fill-opacity:1.0;  stroke:#000000; stroke-width:1.000000; stroke-opacity:1;  stroke-linecap:round; stroke-linejoin:round;fill-rule:evenodd;" d="M 51450001.000000,53424999.000000 51450001.000000,52225001.000000 51799999.000000,52225001.000000 51799999.000000,53424999.000000 Z"/> 
<svg:path style="fill:#000000; fill-opacity:1.0;  stroke:#000000; stroke-width:1.000000; stroke-opacity:1;  stroke-linecap:round; stroke-linejoin:round;fill-rule:evenodd;" d="M 52100001.000000,53424999.000000 52100001.000000,52225001.000000 52449999.000000,52225001.000000 52449999.000000,53424999.000000 Z"/> 
<svg:path style="fill:#000000; fill-opacity:1.0;  stroke:#000000; stroke-width:1.000000; stroke-opacity:1;  stroke-linecap:round; stroke-linejoin:round;fill-rule:evenodd;" d="M 52449999.000000,46575001.000000 52449999.000000,47774999.000000 52100001.000000,47774999.000000 52100001.000000,46575001.000000 Z"/> 
<svg:path style="fill:#000000; fill-opacity:1.0;  stroke:#000000; stroke-width:1.000000; stroke-opacity:1;  stroke-linecap:round; stroke-linejoin:round;fill-rule:evenodd;" d="M 51799999.000000,46575001.000000 51799999.000000,47774999.000000 51450001.000000,47774999.000000 51450001.000000,46575001.000000 Z"/> 
<svg:path style="fill:#000000; fill-opacity:1.0;  stroke:#000000; stroke-width:1.000000; stroke-opacity:1;  stroke-linecap:round; stroke-linejoin:round;fill-rule:evenodd;" d="M 51149999.000000,46575001.000000 51149999.000000,47774999.000000 50800001.000000,47774999.000000 50800001.000000,46575001.000000 Z"/> 
<svg:path style="fill:#000000; fill-opacity:1.0;  stroke:#000000; stroke-width:1.000000; stroke-opacity:1;  stroke-linecap:round; stroke-linejoin:round;fill-rule:evenodd;" d="M 50499999.000000,46575001.000000 50499999.000000,47774999.000000 50150001.000000,47774999.000000 50150001.000000,46575001.000000 Z"/> 
<svg:path style="fill:#000000; fill-opacity:1.0;  stroke:#000000; stroke-width:1.000000; stroke-opacity:1;  stroke-linecap:round; stroke-linejoin:round;fill-rule:evenodd;" d="M 49849999.000000,46575001.000000 49849999.000000,47774999.000000 49500001.000000,47774999.000000 49500001.000000,46575001.000000 Z"/> 
<svg:path style="fill:#000000; fill-opacity:1.0;  stroke:#000000; stroke-width:1.000000; stroke-opacity:1;  stroke-linecap:round; stroke-linejoin:round;fill-rule:evenodd;" d="M 49199999.000000,46575001.000000 49199999.000000,47774999.000000 48850001.000000,47774999.000000 48850001.000000,46575001.000000 Z"/> 
<svg:path style="fill:#000000; fill-opacity:1.0;  stroke:#000000; stroke-width:1.000000; stroke-opacity:1;  stroke-linecap:round; stroke-linejoin:round;fill-rule:evenodd;" d="M 48549999.000000,46575001.000000 48549999.000000,47774999.000000 48200001.000000,47774999.000000 48200001.000000,46575001.000000 Z"/> 
<svg:path style="fill:#000000; fill-opacity:1.0;  stroke:#000000; stroke-width:1.000000; stroke-opacity:1;  stroke-linecap:round; stroke-linejoin:round;fill-rule:evenodd;" d="M 47899999.000000,46575001.000000 47899999.000000,47774999.000000 47550001.000000,47774999.000000 47550001.000000,46575001.000000 Z"/> 
</svg:g>
<svg:g>
</svg:g>
<svg:g>
</svg:g>
<svg:g>
</svg:g>
</svg:g>
<svg:g style="fill:#000000; fill-opacity:1.0;  stroke:#000000; stroke-width:1.000000; stroke-opacity:1;  stroke-linecap:round; stroke-linejoin:round;">
<svg:g>
</svg:g>
<svg:g>
</svg:g>
<svg:g>
</svg:g>
<svg:g>
</svg:g>
</svg:g> 
</svg:g><svg:g><svg:title>SVG Picture created as kicadBoard-F_Silkscreen.svg date 2022/12/02 21:31:43 </svg:title>
  <svg:desc>Picture generated by PCBNEW </svg:desc>
<svg:g style="fill:#000000; fill-opacity:1.000000;stroke:#000000; stroke-opacity:1.000000; stroke-linecap:round; stroke-linejoin:round;" transform="translate(0 0) scale(1 1)">
</svg:g>
<svg:g style="fill:#000000; fill-opacity:0.0;  stroke:#000000; stroke-width:0.000000; stroke-opacity:1;  stroke-linecap:round; stroke-linejoin:round;">
</svg:g>
<svg:g style="fill:#F2EDA1; fill-opacity:0.0;  stroke:#F2EDA1; stroke-width:0.000000; stroke-opacity:1;  stroke-linecap:round; stroke-linejoin:round;">
</svg:g>
<svg:g style="fill:#F2EDA1; fill-opacity:0.0;  stroke:#F2EDA1; stroke-width:101600.000000; stroke-opacity:1;  stroke-linecap:round; stroke-linejoin:round;">
<svg:g transform="rotate(-90.000000 46750000.000000 52600000.000000)">
<svg:text x="46750000.000000" y="52600000.000000" textLength="17025258.000000" font-size="1557866.000000" lengthAdjust="spacingAndGlyphs" text-anchor="start" opacity="0">FZE74XXUSSO16PW</svg:text>
</svg:g>
<svg:g class="stroked-text"><svg:desc>FZE74XXUSSO16PW</svg:desc>
<svg:path d="M46082342 51866302 L46082342 52255769 "/>
<svg:path d="M46694361 52255769 L45525961 52255769 L45525961 51699388 "/>
<svg:path d="M45525961 51365560 L45525961 50586626 L46694361 51365560 L46694361 50586626 "/>
<svg:path d="M46082342 50141521 L46082342 49752055 "/>
<svg:path d="M46694361 49585140 L46694361 50141521 L45525961 50141521 L45525961 49585140 "/>
<svg:path d="M45525961 49195674 L45525961 48416740 L46694361 48917483 "/>
<svg:path d="M45915428 47470893 L46694361 47470893 "/>
<svg:path d="M45470323 47749083 L46304895 48027274 L46304895 47303979 "/>
<svg:path d="M45525961 46970150 L46694361 46191217 "/>
<svg:path d="M45525961 46191217 L46694361 46970150 "/>
<svg:path d="M45525961 45857388 L46694361 45078455 "/>
<svg:path d="M45525961 45078455 L46694361 45857388 "/>
<svg:path d="M45525961 44633350 L46471809 44633350 L46583085 44577712 L46638723 44522074 L46694361 44410798 L46694361 44188245 L46638723 44076969 L46583085 44021331 L46471809 43965693 L45525961 43965693 "/>
<svg:path d="M46638723 43464950 L46694361 43298036 L46694361 43019845 L46638723 42908569 L46583085 42852931 L46471809 42797293 L46360533 42797293 L46249257 42852931 L46193619 42908569 L46137980 43019845 L46082342 43242398 L46026704 43353674 L45971066 43409312 L45859790 43464950 L45748514 43464950 L45637238 43409312 L45581600 43353674 L45525961 43242398 L45525961 42964207 L45581600 42797293 "/>
<svg:path d="M46638723 42352188 L46694361 42185274 L46694361 41907083 L46638723 41795807 L46583085 41740169 L46471809 41684531 L46360533 41684531 L46249257 41740169 L46193619 41795807 L46137980 41907083 L46082342 42129636 L46026704 42240912 L45971066 42296550 L45859790 42352188 L45748514 42352188 L45637238 42296550 L45581600 42240912 L45525961 42129636 L45525961 41851445 L45581600 41684531 "/>
<svg:path d="M45525961 40961236 L45525961 40738683 L45581600 40627407 L45692876 40516131 L45915428 40460493 L46304895 40460493 L46527447 40516131 L46638723 40627407 L46694361 40738683 L46694361 40961236 L46638723 41072512 L46527447 41183788 L46304895 41239426 L45915428 41239426 L45692876 41183788 L45581600 41072512 L45525961 40961236 "/>
<svg:path d="M46694361 39347731 L46694361 40015388 "/>
<svg:path d="M46694361 39681560 L45525961 39681560 L45692876 39792836 L45804152 39904112 L45859790 40015388 "/>
<svg:path d="M45525961 38346245 L45525961 38568798 L45581600 38680074 L45637238 38735712 L45804152 38846988 L46026704 38902626 L46471809 38902626 L46583085 38846988 L46638723 38791350 L46694361 38680074 L46694361 38457521 L46638723 38346245 L46583085 38290607 L46471809 38234969 L46193619 38234969 L46082342 38290607 L46026704 38346245 L45971066 38457521 L45971066 38680074 L46026704 38791350 L46082342 38846988 L46193619 38902626 "/>
<svg:path d="M46694361 37734226 L45525961 37734226 L45525961 37289121 L45581600 37177845 L45637238 37122207 L45748514 37066569 L45915428 37066569 L46026704 37122207 L46082342 37177845 L46137980 37289121 L46137980 37734226 "/>
<svg:path d="M45525961 36677102 L46694361 36398912 L45859790 36176360 L46694361 35953807 L45525961 35675617 "/>
</svg:g></svg:g>
<svg:g style="fill:#F2EDA1; fill-opacity:0.0;  stroke:#F2EDA1; stroke-width:203200.000000; stroke-opacity:1;  stroke-linecap:round; stroke-linejoin:round;">
<svg:path d="M52440000 51675000 L47560000 51675000 "/>
<svg:g>
</svg:g>
<svg:g>
</svg:g>
<svg:g>
</svg:g>
<svg:g>
</svg:g>
</svg:g>
<svg:g style="fill:#000000; fill-opacity:0.0;  stroke:#000000; stroke-width:203200.000000; stroke-opacity:1;  stroke-linecap:round; stroke-linejoin:round;">
<svg:g>
</svg:g>
<svg:g>
</svg:g>
<svg:g>
</svg:g>
<svg:g>
</svg:g>
</svg:g> 
</svg:g><svg:g><svg:title>SVG Picture created as kicadBoard-Margin.svg date 2022/12/02 21:31:43 </svg:title>
  <svg:desc>Picture generated by PCBNEW </svg:desc>
<svg:g style="fill:#000000; fill-opacity:1.000000;stroke:#000000; stroke-opacity:1.000000; stroke-linecap:round; stroke-linejoin:round;" transform="translate(0 0) scale(1 1)">
</svg:g>
<svg:g style="fill:#000000; fill-opacity:0.0;  stroke:#000000; stroke-width:0.000000; stroke-opacity:1;  stroke-linecap:round; stroke-linejoin:round;">
<svg:g>
</svg:g>
<svg:g>
</svg:g>
<svg:g>
</svg:g>
<svg:g>
</svg:g>
</svg:g>
<svg:g style="fill:#000000; fill-opacity:0.0;  stroke:#000000; stroke-width:0.000000; stroke-opacity:1;  stroke-linecap:round; stroke-linejoin:round;">
<svg:g>
</svg:g>
<svg:g>
</svg:g>
<svg:g>
</svg:g>
<svg:g>
</svg:g>
</svg:g> 
</svg:g><svg:g><svg:title>SVG Picture created as kicadBoard-F_Cu.svg date 2022/12/02 21:31:43 </svg:title>
  <svg:desc>Picture generated by PCBNEW </svg:desc>
<svg:g style="fill:#000000; fill-opacity:1.000000;stroke:#000000; stroke-opacity:1.000000; stroke-linecap:round; stroke-linejoin:round;" transform="translate(0 0) scale(1 1)">
</svg:g>
<svg:g style="fill:#000000; fill-opacity:0.0;  stroke:#000000; stroke-width:0.000000; stroke-opacity:1;  stroke-linecap:round; stroke-linejoin:round;">
<svg:g>
</svg:g>
<svg:g style="fill:#C83434; fill-opacity:0.0;  stroke:#C83434; stroke-width:0.000000; stroke-opacity:1;  stroke-linecap:round; stroke-linejoin:round;">
</svg:g>
<svg:g style="fill:#C83434; fill-opacity:0.0;  stroke:#C83434; stroke-width:1.000000; stroke-opacity:1;  stroke-linecap:round; stroke-linejoin:round;">
</svg:g>
<svg:g style="fill:#C83434; fill-opacity:1.0;  stroke:#C83434; stroke-width:1.000000; stroke-opacity:1;  stroke-linecap:round; stroke-linejoin:round;">
<svg:path style="fill:#C83434; fill-opacity:1.0;  stroke:#C83434; stroke-width:1.000000; stroke-opacity:1;  stroke-linecap:round; stroke-linejoin:round;fill-rule:evenodd;" d="M 47550001.000000,53424999.000000 47550001.000000,52225001.000000 47899999.000000,52225001.000000 47899999.000000,53424999.000000 Z"/> 
<svg:path style="fill:#C83434; fill-opacity:1.0;  stroke:#C83434; stroke-width:1.000000; stroke-opacity:1;  stroke-linecap:round; stroke-linejoin:round;fill-rule:evenodd;" d="M 48200001.000000,53424999.000000 48200001.000000,52225001.000000 48549999.000000,52225001.000000 48549999.000000,53424999.000000 Z"/> 
<svg:path style="fill:#C83434; fill-opacity:1.0;  stroke:#C83434; stroke-width:1.000000; stroke-opacity:1;  stroke-linecap:round; stroke-linejoin:round;fill-rule:evenodd;" d="M 48850001.000000,53424999.000000 48850001.000000,52225001.000000 49199999.000000,52225001.000000 49199999.000000,53424999.000000 Z"/> 
<svg:path style="fill:#C83434; fill-opacity:1.0;  stroke:#C83434; stroke-width:1.000000; stroke-opacity:1;  stroke-linecap:round; stroke-linejoin:round;fill-rule:evenodd;" d="M 49500001.000000,53424999.000000 49500001.000000,52225001.000000 49849999.000000,52225001.000000 49849999.000000,53424999.000000 Z"/> 
<svg:path style="fill:#C83434; fill-opacity:1.0;  stroke:#C83434; stroke-width:1.000000; stroke-opacity:1;  stroke-linecap:round; stroke-linejoin:round;fill-rule:evenodd;" d="M 50150001.000000,53424999.000000 50150001.000000,52225001.000000 50499999.000000,52225001.000000 50499999.000000,53424999.000000 Z"/> 
<svg:path style="fill:#C83434; fill-opacity:1.0;  stroke:#C83434; stroke-width:1.000000; stroke-opacity:1;  stroke-linecap:round; stroke-linejoin:round;fill-rule:evenodd;" d="M 50800001.000000,53424999.000000 50800001.000000,52225001.000000 51149999.000000,52225001.000000 51149999.000000,53424999.000000 Z"/> 
<svg:path style="fill:#C83434; fill-opacity:1.0;  stroke:#C83434; stroke-width:1.000000; stroke-opacity:1;  stroke-linecap:round; stroke-linejoin:round;fill-rule:evenodd;" d="M 51450001.000000,53424999.000000 51450001.000000,52225001.000000 51799999.000000,52225001.000000 51799999.000000,53424999.000000 Z"/> 
<svg:path style="fill:#C83434; fill-opacity:1.0;  stroke:#C83434; stroke-width:1.000000; stroke-opacity:1;  stroke-linecap:round; stroke-linejoin:round;fill-rule:evenodd;" d="M 52100001.000000,53424999.000000 52100001.000000,52225001.000000 52449999.000000,52225001.000000 52449999.000000,53424999.000000 Z"/> 
<svg:path style="fill:#C83434; fill-opacity:1.0;  stroke:#C83434; stroke-width:1.000000; stroke-opacity:1;  stroke-linecap:round; stroke-linejoin:round;fill-rule:evenodd;" d="M 52449999.000000,46575001.000000 52449999.000000,47774999.000000 52100001.000000,47774999.000000 52100001.000000,46575001.000000 Z"/> 
<svg:path style="fill:#C83434; fill-opacity:1.0;  stroke:#C83434; stroke-width:1.000000; stroke-opacity:1;  stroke-linecap:round; stroke-linejoin:round;fill-rule:evenodd;" d="M 51799999.000000,46575001.000000 51799999.000000,47774999.000000 51450001.000000,47774999.000000 51450001.000000,46575001.000000 Z"/> 
<svg:path style="fill:#C83434; fill-opacity:1.0;  stroke:#C83434; stroke-width:1.000000; stroke-opacity:1;  stroke-linecap:round; stroke-linejoin:round;fill-rule:evenodd;" d="M 51149999.000000,46575001.000000 51149999.000000,47774999.000000 50800001.000000,47774999.000000 50800001.000000,46575001.000000 Z"/> 
<svg:path style="fill:#C83434; fill-opacity:1.0;  stroke:#C83434; stroke-width:1.000000; stroke-opacity:1;  stroke-linecap:round; stroke-linejoin:round;fill-rule:evenodd;" d="M 50499999.000000,46575001.000000 50499999.000000,47774999.000000 50150001.000000,47774999.000000 50150001.000000,46575001.000000 Z"/> 
<svg:path style="fill:#C83434; fill-opacity:1.0;  stroke:#C83434; stroke-width:1.000000; stroke-opacity:1;  stroke-linecap:round; stroke-linejoin:round;fill-rule:evenodd;" d="M 49849999.000000,46575001.000000 49849999.000000,47774999.000000 49500001.000000,47774999.000000 49500001.000000,46575001.000000 Z"/> 
<svg:path style="fill:#C83434; fill-opacity:1.0;  stroke:#C83434; stroke-width:1.000000; stroke-opacity:1;  stroke-linecap:round; stroke-linejoin:round;fill-rule:evenodd;" d="M 49199999.000000,46575001.000000 49199999.000000,47774999.000000 48850001.000000,47774999.000000 48850001.000000,46575001.000000 Z"/> 
<svg:path style="fill:#C83434; fill-opacity:1.0;  stroke:#C83434; stroke-width:1.000000; stroke-opacity:1;  stroke-linecap:round; stroke-linejoin:round;fill-rule:evenodd;" d="M 48549999.000000,46575001.000000 48549999.000000,47774999.000000 48200001.000000,47774999.000000 48200001.000000,46575001.000000 Z"/> 
<svg:path style="fill:#C83434; fill-opacity:1.0;  stroke:#C83434; stroke-width:1.000000; stroke-opacity:1;  stroke-linecap:round; stroke-linejoin:round;fill-rule:evenodd;" d="M 47899999.000000,46575001.000000 47899999.000000,47774999.000000 47550001.000000,47774999.000000 47550001.000000,46575001.000000 Z"/> 
</svg:g>
<svg:g>
</svg:g>
<svg:g>
</svg:g>
<svg:g>
</svg:g>
</svg:g>
<svg:g style="fill:#FFFFFF; fill-opacity:1.0;  stroke:#FFFFFF; stroke-width:1.000000; stroke-opacity:1;  stroke-linecap:round; stroke-linejoin:round;">
</svg:g>
<svg:g style="fill:#000000; fill-opacity:1.0;  stroke:#000000; stroke-width:1.000000; stroke-opacity:1;  stroke-linecap:round; stroke-linejoin:round;">
<svg:g>
</svg:g>
<svg:g>
</svg:g>
<svg:g>
</svg:g>
<svg:g>
</svg:g>
</svg:g> 
</svg:g></svg>
