<?xml version='1.0' encoding='ASCII' standalone='yes'?>
<svg xmlns:svg="http://www.w3.org/2000/svg" xmlns="http://www.w3.org/2000/svg" xmlns:xlink="http://www.w3.org/1999/xlink" version="1.1" width="9.999980cm" height="9.999980cm" viewBox="0 0 99999800 99999800">
<title>SVG Picture created as kicadBoard-B_Cu.svg date 2022/11/17 01:55:42 </title>
  <desc>Picture generated by PCBNEW </desc>
<g style="fill:#000000; fill-opacity:1.000000;stroke:#000000; stroke-opacity:1.000000; stroke-linecap:round; stroke-linejoin:round;" transform="translate(0 0) scale(1 1)">
</g>
<g style="fill:#000000; fill-opacity:0.0;  stroke:#000000; stroke-width:0.000000; stroke-opacity:1;  stroke-linecap:round; stroke-linejoin:round;">
<g>
</g>
<g style="fill:#4D7FC4; fill-opacity:0.0;  stroke:#4D7FC4; stroke-width:0.000000; stroke-opacity:1;  stroke-linecap:round; stroke-linejoin:round;">
</g>
<g style="fill:#4D7FC4; fill-opacity:1.0;  stroke:#4D7FC4; stroke-width:1.000000; stroke-opacity:1;  stroke-linecap:round; stroke-linejoin:round;">
<circle cx="50000000.000000" cy="50000000.000000" r="800000.000000"/> 
</g>
<g style="fill:#4D7FC4; fill-opacity:1.0;  stroke:#4D7FC4; stroke-width:21200.000000; stroke-opacity:1;  stroke-linecap:round; stroke-linejoin:round;">
</g>
<g style="fill:#4D7FC4; fill-opacity:1.0;  stroke:#4D7FC4; stroke-width:1.000000; stroke-opacity:1;  stroke-linecap:round; stroke-linejoin:round;">
<circle cx="77500000.000000" cy="50000000.000000" r="800000.000000"/> 
</g>
<g>
</g>
<g>
</g>
<g>
</g>
</g>
<g style="fill:#FFFFFF; fill-opacity:1.0;  stroke:#FFFFFF; stroke-width:1.000000; stroke-opacity:1;  stroke-linecap:round; stroke-linejoin:round;">
<circle cx="50000000.000000" cy="50000000.000000" r="400000.000000"/> 
</g>
<g style="fill:#FFFFFF; fill-opacity:1.0;  stroke:#FFFFFF; stroke-width:21200.000000; stroke-opacity:1;  stroke-linecap:round; stroke-linejoin:round;">
</g>
<g style="fill:#FFFFFF; fill-opacity:1.0;  stroke:#FFFFFF; stroke-width:1.000000; stroke-opacity:1;  stroke-linecap:round; stroke-linejoin:round;">
<circle cx="77500000.000000" cy="50000000.000000" r="400000.000000"/> 
</g>
<g style="fill:#FFFFFF; fill-opacity:1.0;  stroke:#FFFFFF; stroke-width:21200.000000; stroke-opacity:1;  stroke-linecap:round; stroke-linejoin:round;">
</g>
<g style="fill:#000000; fill-opacity:1.0;  stroke:#000000; stroke-width:21200.000000; stroke-opacity:1;  stroke-linecap:round; stroke-linejoin:round;">
<g>
</g>
<g>
</g>
<g>
</g>
<g>
</g>
</g> 
<svg:g><svg:title>SVG Picture created as kicadBoard-B_Adhesive.svg date 2022/11/17 01:55:42 </svg:title>
  <svg:desc>Picture generated by PCBNEW </svg:desc>
<svg:g style="fill:#000000; fill-opacity:1.000000;stroke:#000000; stroke-opacity:1.000000; stroke-linecap:round; stroke-linejoin:round;" transform="translate(0 0) scale(1 1)">
</svg:g>
<svg:g style="fill:#000000; fill-opacity:0.0;  stroke:#000000; stroke-width:0.000000; stroke-opacity:1;  stroke-linecap:round; stroke-linejoin:round;">
<svg:g>
</svg:g>
<svg:g>
</svg:g>
<svg:g>
</svg:g>
<svg:g>
</svg:g>
</svg:g>
<svg:g style="fill:#000000; fill-opacity:0.0;  stroke:#000000; stroke-width:0.000000; stroke-opacity:1;  stroke-linecap:round; stroke-linejoin:round;">
<svg:g>
</svg:g>
<svg:g>
</svg:g>
<svg:g>
</svg:g>
<svg:g>
</svg:g>
</svg:g> 
</svg:g><svg:g><svg:title>SVG Picture created as kicadBoard-B_Courtyard.svg date 2022/11/17 01:55:42 </svg:title>
  <svg:desc>Picture generated by PCBNEW </svg:desc>
<svg:g style="fill:#000000; fill-opacity:1.000000;stroke:#000000; stroke-opacity:1.000000; stroke-linecap:round; stroke-linejoin:round;" transform="translate(0 0) scale(1 1)">
</svg:g>
<svg:g style="fill:#000000; fill-opacity:0.0;  stroke:#000000; stroke-width:0.000000; stroke-opacity:1;  stroke-linecap:round; stroke-linejoin:round;">
<svg:g>
</svg:g>
<svg:g>
</svg:g>
<svg:g>
</svg:g>
<svg:g>
</svg:g>
</svg:g>
<svg:g style="fill:#000000; fill-opacity:0.0;  stroke:#000000; stroke-width:0.000000; stroke-opacity:1;  stroke-linecap:round; stroke-linejoin:round;">
<svg:g>
</svg:g>
<svg:g>
</svg:g>
<svg:g>
</svg:g>
<svg:g>
</svg:g>
</svg:g> 
</svg:g><svg:g><svg:title>SVG Picture created as kicadBoard-B_Fab.svg date 2022/11/17 01:55:42 </svg:title>
  <svg:desc>Picture generated by PCBNEW </svg:desc>
<svg:g style="fill:#000000; fill-opacity:1.000000;stroke:#000000; stroke-opacity:1.000000; stroke-linecap:round; stroke-linejoin:round;" transform="translate(0 0) scale(1 1)">
</svg:g>
<svg:g style="fill:#000000; fill-opacity:0.0;  stroke:#000000; stroke-width:0.000000; stroke-opacity:1;  stroke-linecap:round; stroke-linejoin:round;">
<svg:g>
</svg:g>
<svg:g>
</svg:g>
<svg:g>
</svg:g>
<svg:g>
</svg:g>
</svg:g>
<svg:g style="fill:#000000; fill-opacity:0.0;  stroke:#000000; stroke-width:0.000000; stroke-opacity:1;  stroke-linecap:round; stroke-linejoin:round;">
<svg:g>
</svg:g>
<svg:g>
</svg:g>
<svg:g>
</svg:g>
<svg:g>
</svg:g>
</svg:g> 
</svg:g><svg:g><svg:title>SVG Picture created as kicadBoard-B_Mask.svg date 2022/11/17 01:55:42 </svg:title>
  <svg:desc>Picture generated by PCBNEW </svg:desc>
<svg:g style="fill:#000000; fill-opacity:1.000000;stroke:#000000; stroke-opacity:1.000000; stroke-linecap:round; stroke-linejoin:round;" transform="translate(0 0) scale(1 1)">
</svg:g>
<svg:g style="fill:#000000; fill-opacity:0.0;  stroke:#000000; stroke-width:0.000000; stroke-opacity:1;  stroke-linecap:round; stroke-linejoin:round;">
<svg:g>
</svg:g>
<svg:g style="fill:#000000; fill-opacity:1.0;  stroke:#000000; stroke-width:1.000000; stroke-opacity:1;  stroke-linecap:round; stroke-linejoin:round;">
<svg:circle cx="50000000.000000" cy="50000000.000000" r="800000.000000"/> 
</svg:g>
<svg:g style="fill:#000000; fill-opacity:1.0;  stroke:#000000; stroke-width:21200.000000; stroke-opacity:1;  stroke-linecap:round; stroke-linejoin:round;">
</svg:g>
<svg:g style="fill:#000000; fill-opacity:1.0;  stroke:#000000; stroke-width:1.000000; stroke-opacity:1;  stroke-linecap:round; stroke-linejoin:round;">
<svg:circle cx="77500000.000000" cy="50000000.000000" r="800000.000000"/> 
</svg:g>
<svg:g>
</svg:g>
<svg:g>
</svg:g>
<svg:g>
</svg:g>
</svg:g>
<svg:g style="fill:#000000; fill-opacity:1.0;  stroke:#000000; stroke-width:1.000000; stroke-opacity:1;  stroke-linecap:round; stroke-linejoin:round;">
<svg:g>
</svg:g>
<svg:g>
</svg:g>
<svg:g>
</svg:g>
<svg:g>
</svg:g>
</svg:g> 
</svg:g><svg:g><svg:title>SVG Picture created as kicadBoard-B_Paste.svg date 2022/11/17 01:55:42 </svg:title>
  <svg:desc>Picture generated by PCBNEW </svg:desc>
<svg:g style="fill:#000000; fill-opacity:1.000000;stroke:#000000; stroke-opacity:1.000000; stroke-linecap:round; stroke-linejoin:round;" transform="translate(0 0) scale(1 1)">
</svg:g>
<svg:g style="fill:#000000; fill-opacity:0.0;  stroke:#000000; stroke-width:0.000000; stroke-opacity:1;  stroke-linecap:round; stroke-linejoin:round;">
<svg:g>
</svg:g>
<svg:g>
</svg:g>
<svg:g>
</svg:g>
<svg:g>
</svg:g>
</svg:g>
<svg:g style="fill:#000000; fill-opacity:0.0;  stroke:#000000; stroke-width:0.000000; stroke-opacity:1;  stroke-linecap:round; stroke-linejoin:round;">
<svg:g>
</svg:g>
<svg:g>
</svg:g>
<svg:g>
</svg:g>
<svg:g>
</svg:g>
</svg:g> 
</svg:g><svg:g><svg:title>SVG Picture created as kicadBoard-B_Silkscreen.svg date 2022/11/17 01:55:42 </svg:title>
  <svg:desc>Picture generated by PCBNEW </svg:desc>
<svg:g style="fill:#000000; fill-opacity:1.000000;stroke:#000000; stroke-opacity:1.000000; stroke-linecap:round; stroke-linejoin:round;" transform="translate(0 0) scale(1 1)">
</svg:g>
<svg:g style="fill:#000000; fill-opacity:0.0;  stroke:#000000; stroke-width:0.000000; stroke-opacity:1;  stroke-linecap:round; stroke-linejoin:round;">
<svg:g>
</svg:g>
<svg:g>
</svg:g>
<svg:g>
</svg:g>
<svg:g>
</svg:g>
</svg:g>
<svg:g style="fill:#000000; fill-opacity:0.0;  stroke:#000000; stroke-width:0.000000; stroke-opacity:1;  stroke-linecap:round; stroke-linejoin:round;">
<svg:g>
</svg:g>
<svg:g>
</svg:g>
<svg:g>
</svg:g>
<svg:g>
</svg:g>
</svg:g> 
</svg:g><svg:g><svg:title>SVG Picture created as kicadBoard-Edge_Cuts.svg date 2022/11/17 01:55:42 </svg:title>
  <svg:desc>Picture generated by PCBNEW </svg:desc>
<svg:g style="fill:#000000; fill-opacity:1.000000;stroke:#000000; stroke-opacity:1.000000; stroke-linecap:round; stroke-linejoin:round;" transform="translate(0 0) scale(1 1)">
</svg:g>
<svg:g style="fill:#000000; fill-opacity:0.0;  stroke:#000000; stroke-width:0.000000; stroke-opacity:1;  stroke-linecap:round; stroke-linejoin:round;">
<svg:g>
</svg:g>
<svg:g>
</svg:g>
<svg:g>
</svg:g>
<svg:g>
</svg:g>
</svg:g> 
</svg:g><svg:g><svg:title>SVG Picture created as kicadBoard-F_Adhesive.svg date 2022/11/17 01:55:42 </svg:title>
  <svg:desc>Picture generated by PCBNEW </svg:desc>
<svg:g style="fill:#000000; fill-opacity:1.000000;stroke:#000000; stroke-opacity:1.000000; stroke-linecap:round; stroke-linejoin:round;" transform="translate(0 0) scale(1 1)">
</svg:g>
<svg:g style="fill:#000000; fill-opacity:0.0;  stroke:#000000; stroke-width:0.000000; stroke-opacity:1;  stroke-linecap:round; stroke-linejoin:round;">
<svg:g>
</svg:g>
<svg:g>
</svg:g>
<svg:g>
</svg:g>
<svg:g>
</svg:g>
</svg:g>
<svg:g style="fill:#000000; fill-opacity:0.0;  stroke:#000000; stroke-width:0.000000; stroke-opacity:1;  stroke-linecap:round; stroke-linejoin:round;">
<svg:g>
</svg:g>
<svg:g>
</svg:g>
<svg:g>
</svg:g>
<svg:g>
</svg:g>
</svg:g> 
</svg:g><svg:g><svg:title>SVG Picture created as kicadBoard-F_Courtyard.svg date 2022/11/17 01:55:42 </svg:title>
  <svg:desc>Picture generated by PCBNEW </svg:desc>
<svg:g style="fill:#000000; fill-opacity:1.000000;stroke:#000000; stroke-opacity:1.000000; stroke-linecap:round; stroke-linejoin:round;" transform="translate(0 0) scale(1 1)">
</svg:g>
<svg:g style="fill:#000000; fill-opacity:0.0;  stroke:#000000; stroke-width:0.000000; stroke-opacity:1;  stroke-linecap:round; stroke-linejoin:round;">
</svg:g>
<svg:g style="fill:#FF26E2; fill-opacity:0.0;  stroke:#FF26E2; stroke-width:0.000000; stroke-opacity:1;  stroke-linecap:round; stroke-linejoin:round;">
</svg:g>
<svg:g style="fill:#FF26E2; fill-opacity:0.0;  stroke:#FF26E2; stroke-width:50000.000000; stroke-opacity:1;  stroke-linecap:round; stroke-linejoin:round;">
<svg:path d="M78550000 55000000 L78550000 45000000 "/>
<svg:path d="M48950000 55000000 L78550000 55000000 "/>
<svg:path d="M78550000 45000000 L48950000 45000000 "/>
<svg:path d="M48950000 45000000 L48950000 55000000 "/>
<svg:g>
</svg:g>
<svg:g>
</svg:g>
<svg:g>
</svg:g>
<svg:g>
</svg:g>
</svg:g>
<svg:g style="fill:#000000; fill-opacity:0.0;  stroke:#000000; stroke-width:50000.000000; stroke-opacity:1;  stroke-linecap:round; stroke-linejoin:round;">
<svg:g>
</svg:g>
<svg:g>
</svg:g>
<svg:g>
</svg:g>
<svg:g>
</svg:g>
</svg:g> 
</svg:g><svg:g><svg:title>SVG Picture created as kicadBoard-F_Cu.svg date 2022/11/17 01:55:42 </svg:title>
  <svg:desc>Picture generated by PCBNEW </svg:desc>
<svg:g style="fill:#000000; fill-opacity:1.000000;stroke:#000000; stroke-opacity:1.000000; stroke-linecap:round; stroke-linejoin:round;" transform="translate(0 0) scale(1 1)">
</svg:g>
<svg:g style="fill:#000000; fill-opacity:0.0;  stroke:#000000; stroke-width:0.000000; stroke-opacity:1;  stroke-linecap:round; stroke-linejoin:round;">
<svg:g>
</svg:g>
<svg:g style="fill:#C83434; fill-opacity:0.0;  stroke:#C83434; stroke-width:0.000000; stroke-opacity:1;  stroke-linecap:round; stroke-linejoin:round;">
</svg:g>
<svg:g style="fill:#C83434; fill-opacity:1.0;  stroke:#C83434; stroke-width:1.000000; stroke-opacity:1;  stroke-linecap:round; stroke-linejoin:round;">
<svg:circle cx="50000000.000000" cy="50000000.000000" r="800000.000000"/> 
</svg:g>
<svg:g style="fill:#C83434; fill-opacity:1.0;  stroke:#C83434; stroke-width:21200.000000; stroke-opacity:1;  stroke-linecap:round; stroke-linejoin:round;">
</svg:g>
<svg:g style="fill:#C83434; fill-opacity:1.0;  stroke:#C83434; stroke-width:1.000000; stroke-opacity:1;  stroke-linecap:round; stroke-linejoin:round;">
<svg:circle cx="77500000.000000" cy="50000000.000000" r="800000.000000"/> 
</svg:g>
<svg:g>
</svg:g>
<svg:g>
</svg:g>
<svg:g>
</svg:g>
</svg:g>
<svg:g style="fill:#FFFFFF; fill-opacity:1.0;  stroke:#FFFFFF; stroke-width:1.000000; stroke-opacity:1;  stroke-linecap:round; stroke-linejoin:round;">
<svg:circle cx="50000000.000000" cy="50000000.000000" r="400000.000000"/> 
</svg:g>
<svg:g style="fill:#FFFFFF; fill-opacity:1.0;  stroke:#FFFFFF; stroke-width:21200.000000; stroke-opacity:1;  stroke-linecap:round; stroke-linejoin:round;">
</svg:g>
<svg:g style="fill:#FFFFFF; fill-opacity:1.0;  stroke:#FFFFFF; stroke-width:1.000000; stroke-opacity:1;  stroke-linecap:round; stroke-linejoin:round;">
<svg:circle cx="77500000.000000" cy="50000000.000000" r="400000.000000"/> 
</svg:g>
<svg:g style="fill:#FFFFFF; fill-opacity:1.0;  stroke:#FFFFFF; stroke-width:21200.000000; stroke-opacity:1;  stroke-linecap:round; stroke-linejoin:round;">
</svg:g>
<svg:g style="fill:#000000; fill-opacity:1.0;  stroke:#000000; stroke-width:21200.000000; stroke-opacity:1;  stroke-linecap:round; stroke-linejoin:round;">
<svg:g>
</svg:g>
<svg:g>
</svg:g>
<svg:g>
</svg:g>
<svg:g>
</svg:g>
</svg:g> 
</svg:g><svg:g><svg:title>SVG Picture created as kicadBoard-F_Fab.svg date 2022/11/17 01:55:42 </svg:title>
  <svg:desc>Picture generated by PCBNEW </svg:desc>
<svg:g style="fill:#000000; fill-opacity:1.000000;stroke:#000000; stroke-opacity:1.000000; stroke-linecap:round; stroke-linejoin:round;" transform="translate(0 0) scale(1 1)">
</svg:g>
<svg:g style="fill:#000000; fill-opacity:0.0;  stroke:#000000; stroke-width:0.000000; stroke-opacity:1;  stroke-linecap:round; stroke-linejoin:round;">
</svg:g>
<svg:g style="fill:#AFAFAF; fill-opacity:0.0;  stroke:#AFAFAF; stroke-width:0.000000; stroke-opacity:1;  stroke-linecap:round; stroke-linejoin:round;">
</svg:g>
<svg:g style="fill:#AFAFAF; fill-opacity:0.0;  stroke:#AFAFAF; stroke-width:150000.000000; stroke-opacity:1;  stroke-linecap:round; stroke-linejoin:round;">
<svg:text x="63750000.000000" y="56370000.000000" textLength="37052143.000000" font-size="1333333.000000" lengthAdjust="spacingAndGlyphs" text-anchor="middle" opacity="0">C_Axial_L22.0mm_D9.5mm_P27.50mm_Horizontal</svg:text>
<svg:g class="stroked-text"><svg:desc>C_Axial_L22.0mm_D9.5mm_P27.50mm_Horizontal</svg:desc>
<svg:path d="M46130952 56227142 L46083333 56274761 L45940476 56322380 L45845238 56322380 L45702380 56274761 L45607142 56179523 L45559523 56084285 L45511904 55893809 L45511904 55750952 L45559523 55560476 L45607142 55465238 L45702380 55370000 L45845238 55322380 L45940476 55322380 L46083333 55370000 L46130952 55417619 "/>
<svg:path d="M46321428 56417619 L47083333 56417619 "/>
<svg:path d="M47273809 56036666 L47750000 56036666 "/>
<svg:path d="M47178571 56322380 L47511904 55322380 L47845238 56322380 "/>
<svg:path d="M48083333 56322380 L48607142 55655714 "/>
<svg:path d="M48083333 55655714 L48607142 56322380 "/>
<svg:path d="M48988095 56322380 L48988095 55655714 "/>
<svg:path d="M48988095 55322380 L48940476 55370000 L48988095 55417619 L49035714 55370000 L48988095 55322380 L48988095 55417619 "/>
<svg:path d="M49892857 56322380 L49892857 55798571 L49845238 55703333 L49750000 55655714 L49559523 55655714 L49464285 55703333 "/>
<svg:path d="M49892857 56274761 L49797619 56322380 L49559523 56322380 L49464285 56274761 L49416666 56179523 L49416666 56084285 L49464285 55989047 L49559523 55941428 L49797619 55941428 L49892857 55893809 "/>
<svg:path d="M50511904 56322380 L50416666 56274761 L50369047 56179523 L50369047 55322380 "/>
<svg:path d="M50654761 56417619 L51416666 56417619 "/>
<svg:path d="M52130952 56322380 L51654761 56322380 L51654761 55322380 "/>
<svg:path d="M52416666 55417619 L52464285 55370000 L52559523 55322380 L52797619 55322380 L52892857 55370000 L52940476 55417619 L52988095 55512857 L52988095 55608095 L52940476 55750952 L52369047 56322380 L52988095 56322380 "/>
<svg:path d="M53369047 55417619 L53416666 55370000 L53511904 55322380 L53750000 55322380 L53845238 55370000 L53892857 55417619 L53940476 55512857 L53940476 55608095 L53892857 55750952 L53321428 56322380 L53940476 56322380 "/>
<svg:path d="M54369047 56227142 L54416666 56274761 L54369047 56322380 L54321428 56274761 L54369047 56227142 L54369047 56322380 "/>
<svg:path d="M55035714 55322380 L55130952 55322380 L55226190 55370000 L55273809 55417619 L55321428 55512857 L55369047 55703333 L55369047 55941428 L55321428 56131904 L55273809 56227142 L55226190 56274761 L55130952 56322380 L55035714 56322380 L54940476 56274761 L54892857 56227142 L54845238 56131904 L54797619 55941428 L54797619 55703333 L54845238 55512857 L54892857 55417619 L54940476 55370000 L55035714 55322380 "/>
<svg:path d="M55797619 56322380 L55797619 55655714 "/>
<svg:path d="M55797619 55750952 L55845238 55703333 L55940476 55655714 L56083333 55655714 L56178571 55703333 L56226190 55798571 L56226190 56322380 "/>
<svg:path d="M56226190 55798571 L56273809 55703333 L56369047 55655714 L56511904 55655714 L56607142 55703333 L56654761 55798571 L56654761 56322380 "/>
<svg:path d="M57130952 56322380 L57130952 55655714 "/>
<svg:path d="M57130952 55750952 L57178571 55703333 L57273809 55655714 L57416666 55655714 L57511904 55703333 L57559523 55798571 L57559523 56322380 "/>
<svg:path d="M57559523 55798571 L57607142 55703333 L57702380 55655714 L57845238 55655714 L57940476 55703333 L57988095 55798571 L57988095 56322380 "/>
<svg:path d="M58226190 56417619 L58988095 56417619 "/>
<svg:path d="M59226190 56322380 L59226190 55322380 L59464285 55322380 L59607142 55370000 L59702380 55465238 L59750000 55560476 L59797619 55750952 L59797619 55893809 L59750000 56084285 L59702380 56179523 L59607142 56274761 L59464285 56322380 L59226190 56322380 "/>
<svg:path d="M60273809 56322380 L60464285 56322380 L60559523 56274761 L60607142 56227142 L60702380 56084285 L60750000 55893809 L60750000 55512857 L60702380 55417619 L60654761 55370000 L60559523 55322380 L60369047 55322380 L60273809 55370000 L60226190 55417619 L60178571 55512857 L60178571 55750952 L60226190 55846190 L60273809 55893809 L60369047 55941428 L60559523 55941428 L60654761 55893809 L60702380 55846190 L60750000 55750952 "/>
<svg:path d="M61178571 56227142 L61226190 56274761 L61178571 56322380 L61130952 56274761 L61178571 56227142 L61178571 56322380 "/>
<svg:path d="M62130952 55322380 L61654761 55322380 L61607142 55798571 L61654761 55750952 L61750000 55703333 L61988095 55703333 L62083333 55750952 L62130952 55798571 L62178571 55893809 L62178571 56131904 L62130952 56227142 L62083333 56274761 L61988095 56322380 L61750000 56322380 L61654761 56274761 L61607142 56227142 "/>
<svg:path d="M62607142 56322380 L62607142 55655714 "/>
<svg:path d="M62607142 55750952 L62654761 55703333 L62750000 55655714 L62892857 55655714 L62988095 55703333 L63035714 55798571 L63035714 56322380 "/>
<svg:path d="M63035714 55798571 L63083333 55703333 L63178571 55655714 L63321428 55655714 L63416666 55703333 L63464285 55798571 L63464285 56322380 "/>
<svg:path d="M63940476 56322380 L63940476 55655714 "/>
<svg:path d="M63940476 55750952 L63988095 55703333 L64083333 55655714 L64226190 55655714 L64321428 55703333 L64369047 55798571 L64369047 56322380 "/>
<svg:path d="M64369047 55798571 L64416666 55703333 L64511904 55655714 L64654761 55655714 L64750000 55703333 L64797619 55798571 L64797619 56322380 "/>
<svg:path d="M65035714 56417619 L65797619 56417619 "/>
<svg:path d="M66035714 56322380 L66035714 55322380 L66416666 55322380 L66511904 55370000 L66559523 55417619 L66607142 55512857 L66607142 55655714 L66559523 55750952 L66511904 55798571 L66416666 55846190 L66035714 55846190 "/>
<svg:path d="M66988095 55417619 L67035714 55370000 L67130952 55322380 L67369047 55322380 L67464285 55370000 L67511904 55417619 L67559523 55512857 L67559523 55608095 L67511904 55750952 L66940476 56322380 L67559523 56322380 "/>
<svg:path d="M67892857 55322380 L68559523 55322380 L68130952 56322380 "/>
<svg:path d="M68940476 56227142 L68988095 56274761 L68940476 56322380 L68892857 56274761 L68940476 56227142 L68940476 56322380 "/>
<svg:path d="M69892857 55322380 L69416666 55322380 L69369047 55798571 L69416666 55750952 L69511904 55703333 L69750000 55703333 L69845238 55750952 L69892857 55798571 L69940476 55893809 L69940476 56131904 L69892857 56227142 L69845238 56274761 L69750000 56322380 L69511904 56322380 L69416666 56274761 L69369047 56227142 "/>
<svg:path d="M70559523 55322380 L70654761 55322380 L70750000 55370000 L70797619 55417619 L70845238 55512857 L70892857 55703333 L70892857 55941428 L70845238 56131904 L70797619 56227142 L70750000 56274761 L70654761 56322380 L70559523 56322380 L70464285 56274761 L70416666 56227142 L70369047 56131904 L70321428 55941428 L70321428 55703333 L70369047 55512857 L70416666 55417619 L70464285 55370000 L70559523 55322380 "/>
<svg:path d="M71321428 56322380 L71321428 55655714 "/>
<svg:path d="M71321428 55750952 L71369047 55703333 L71464285 55655714 L71607142 55655714 L71702380 55703333 L71750000 55798571 L71750000 56322380 "/>
<svg:path d="M71750000 55798571 L71797619 55703333 L71892857 55655714 L72035714 55655714 L72130952 55703333 L72178571 55798571 L72178571 56322380 "/>
<svg:path d="M72654761 56322380 L72654761 55655714 "/>
<svg:path d="M72654761 55750952 L72702380 55703333 L72797619 55655714 L72940476 55655714 L73035714 55703333 L73083333 55798571 L73083333 56322380 "/>
<svg:path d="M73083333 55798571 L73130952 55703333 L73226190 55655714 L73369047 55655714 L73464285 55703333 L73511904 55798571 L73511904 56322380 "/>
<svg:path d="M73750000 56417619 L74511904 56417619 "/>
<svg:path d="M74750000 56322380 L74750000 55322380 "/>
<svg:path d="M74750000 55798571 L75321428 55798571 "/>
<svg:path d="M75321428 56322380 L75321428 55322380 "/>
<svg:path d="M75940476 56322380 L75845238 56274761 L75797619 56227142 L75750000 56131904 L75750000 55846190 L75797619 55750952 L75845238 55703333 L75940476 55655714 L76083333 55655714 L76178571 55703333 L76226190 55750952 L76273809 55846190 L76273809 56131904 L76226190 56227142 L76178571 56274761 L76083333 56322380 L75940476 56322380 "/>
<svg:path d="M76702380 56322380 L76702380 55655714 "/>
<svg:path d="M76702380 55846190 L76750000 55750952 L76797619 55703333 L76892857 55655714 L76988095 55655714 "/>
<svg:path d="M77321428 56322380 L77321428 55655714 "/>
<svg:path d="M77321428 55322380 L77273809 55370000 L77321428 55417619 L77369047 55370000 L77321428 55322380 L77321428 55417619 "/>
<svg:path d="M77702380 55655714 L78226190 55655714 L77702380 56322380 L78226190 56322380 "/>
<svg:path d="M78750000 56322380 L78654761 56274761 L78607142 56227142 L78559523 56131904 L78559523 55846190 L78607142 55750952 L78654761 55703333 L78750000 55655714 L78892857 55655714 L78988095 55703333 L79035714 55750952 L79083333 55846190 L79083333 56131904 L79035714 56227142 L78988095 56274761 L78892857 56322380 L78750000 56322380 "/>
<svg:path d="M79511904 55655714 L79511904 56322380 "/>
<svg:path d="M79511904 55750952 L79559523 55703333 L79654761 55655714 L79797619 55655714 L79892857 55703333 L79940476 55798571 L79940476 56322380 "/>
<svg:path d="M80273809 55655714 L80654761 55655714 "/>
<svg:path d="M80416666 55322380 L80416666 56179523 L80464285 56274761 L80559523 56322380 L80654761 56322380 "/>
<svg:path d="M81416666 56322380 L81416666 55798571 L81369047 55703333 L81273809 55655714 L81083333 55655714 L80988095 55703333 "/>
<svg:path d="M81416666 56274761 L81321428 56322380 L81083333 56322380 L80988095 56274761 L80940476 56179523 L80940476 56084285 L80988095 55989047 L81083333 55941428 L81321428 55941428 L81416666 55893809 "/>
<svg:path d="M82035714 56322380 L81940476 56274761 L81892857 56179523 L81892857 55322380 "/>
</svg:g><svg:text x="63750000.000000" y="50500000.000000" textLength="27480714.000000" font-size="1333333.000000" lengthAdjust="spacingAndGlyphs" text-anchor="middle" opacity="0">FZKCCAXIALL22D95P275HORIZONTAL</svg:text>
<svg:g class="stroked-text"><svg:desc>FZKCCAXIALL22D95P275HORIZONTAL</svg:desc>
<svg:path d="M50678571 49928571 L50345238 49928571 "/>
<svg:path d="M50345238 50452380 L50345238 49452380 L50821428 49452380 "/>
<svg:path d="M51107142 49452380 L51773809 49452380 L51107142 50452380 L51773809 50452380 "/>
<svg:path d="M52154761 50452380 L52154761 49452380 "/>
<svg:path d="M52726190 50452380 L52297619 49880952 "/>
<svg:path d="M52726190 49452380 L52154761 50023809 "/>
<svg:path d="M53726190 50357142 L53678571 50404761 L53535714 50452380 L53440476 50452380 L53297619 50404761 L53202380 50309523 L53154761 50214285 L53107142 50023809 L53107142 49880952 L53154761 49690476 L53202380 49595238 L53297619 49500000 L53440476 49452380 L53535714 49452380 L53678571 49500000 L53726190 49547619 "/>
<svg:path d="M54726190 50357142 L54678571 50404761 L54535714 50452380 L54440476 50452380 L54297619 50404761 L54202380 50309523 L54154761 50214285 L54107142 50023809 L54107142 49880952 L54154761 49690476 L54202380 49595238 L54297619 49500000 L54440476 49452380 L54535714 49452380 L54678571 49500000 L54726190 49547619 "/>
<svg:path d="M55107142 50166666 L55583333 50166666 "/>
<svg:path d="M55011904 50452380 L55345238 49452380 L55678571 50452380 "/>
<svg:path d="M55916666 49452380 L56583333 50452380 "/>
<svg:path d="M56583333 49452380 L55916666 50452380 "/>
<svg:path d="M56964285 50452380 L56964285 49452380 "/>
<svg:path d="M57392857 50166666 L57869047 50166666 "/>
<svg:path d="M57297619 50452380 L57630952 49452380 L57964285 50452380 "/>
<svg:path d="M58773809 50452380 L58297619 50452380 L58297619 49452380 "/>
<svg:path d="M59583333 50452380 L59107142 50452380 L59107142 49452380 "/>
<svg:path d="M59869047 49547619 L59916666 49500000 L60011904 49452380 L60250000 49452380 L60345238 49500000 L60392857 49547619 L60440476 49642857 L60440476 49738095 L60392857 49880952 L59821428 50452380 L60440476 50452380 "/>
<svg:path d="M60821428 49547619 L60869047 49500000 L60964285 49452380 L61202380 49452380 L61297619 49500000 L61345238 49547619 L61392857 49642857 L61392857 49738095 L61345238 49880952 L60773809 50452380 L61392857 50452380 "/>
<svg:path d="M61821428 50452380 L61821428 49452380 L62059523 49452380 L62202380 49500000 L62297619 49595238 L62345238 49690476 L62392857 49880952 L62392857 50023809 L62345238 50214285 L62297619 50309523 L62202380 50404761 L62059523 50452380 L61821428 50452380 "/>
<svg:path d="M62869047 50452380 L63059523 50452380 L63154761 50404761 L63202380 50357142 L63297619 50214285 L63345238 50023809 L63345238 49642857 L63297619 49547619 L63250000 49500000 L63154761 49452380 L62964285 49452380 L62869047 49500000 L62821428 49547619 L62773809 49642857 L62773809 49880952 L62821428 49976190 L62869047 50023809 L62964285 50071428 L63154761 50071428 L63250000 50023809 L63297619 49976190 L63345238 49880952 "/>
<svg:path d="M64250000 49452380 L63773809 49452380 L63726190 49928571 L63773809 49880952 L63869047 49833333 L64107142 49833333 L64202380 49880952 L64250000 49928571 L64297619 50023809 L64297619 50261904 L64250000 50357142 L64202380 50404761 L64107142 50452380 L63869047 50452380 L63773809 50404761 L63726190 50357142 "/>
<svg:path d="M64726190 50452380 L64726190 49452380 L65107142 49452380 L65202380 49500000 L65250000 49547619 L65297619 49642857 L65297619 49785714 L65250000 49880952 L65202380 49928571 L65107142 49976190 L64726190 49976190 "/>
<svg:path d="M65678571 49547619 L65726190 49500000 L65821428 49452380 L66059523 49452380 L66154761 49500000 L66202380 49547619 L66250000 49642857 L66250000 49738095 L66202380 49880952 L65630952 50452380 L66250000 50452380 "/>
<svg:path d="M66583333 49452380 L67250000 49452380 L66821428 50452380 "/>
<svg:path d="M68107142 49452380 L67630952 49452380 L67583333 49928571 L67630952 49880952 L67726190 49833333 L67964285 49833333 L68059523 49880952 L68107142 49928571 L68154761 50023809 L68154761 50261904 L68107142 50357142 L68059523 50404761 L67964285 50452380 L67726190 50452380 L67630952 50404761 L67583333 50357142 "/>
<svg:path d="M68583333 50452380 L68583333 49452380 "/>
<svg:path d="M68583333 49928571 L69154761 49928571 "/>
<svg:path d="M69154761 50452380 L69154761 49452380 "/>
<svg:path d="M69821428 49452380 L70011904 49452380 L70107142 49500000 L70202380 49595238 L70250000 49785714 L70250000 50119047 L70202380 50309523 L70107142 50404761 L70011904 50452380 L69821428 50452380 L69726190 50404761 L69630952 50309523 L69583333 50119047 L69583333 49785714 L69630952 49595238 L69726190 49500000 L69821428 49452380 "/>
<svg:path d="M71250000 50452380 L70916666 49976190 "/>
<svg:path d="M70678571 50452380 L70678571 49452380 L71059523 49452380 L71154761 49500000 L71202380 49547619 L71250000 49642857 L71250000 49785714 L71202380 49880952 L71154761 49928571 L71059523 49976190 L70678571 49976190 "/>
<svg:path d="M71678571 50452380 L71678571 49452380 "/>
<svg:path d="M72059523 49452380 L72726190 49452380 L72059523 50452380 L72726190 50452380 "/>
<svg:path d="M73297619 49452380 L73488095 49452380 L73583333 49500000 L73678571 49595238 L73726190 49785714 L73726190 50119047 L73678571 50309523 L73583333 50404761 L73488095 50452380 L73297619 50452380 L73202380 50404761 L73107142 50309523 L73059523 50119047 L73059523 49785714 L73107142 49595238 L73202380 49500000 L73297619 49452380 "/>
<svg:path d="M74154761 50452380 L74154761 49452380 L74726190 50452380 L74726190 49452380 "/>
<svg:path d="M75059523 49452380 L75630952 49452380 "/>
<svg:path d="M75345238 50452380 L75345238 49452380 "/>
<svg:path d="M75916666 50166666 L76392857 50166666 "/>
<svg:path d="M75821428 50452380 L76154761 49452380 L76488095 50452380 "/>
<svg:path d="M77297619 50452380 L76821428 50452380 L76821428 49452380 "/>
</svg:g></svg:g>
<svg:g style="fill:#AFAFAF; fill-opacity:0.0;  stroke:#AFAFAF; stroke-width:100000.000000; stroke-opacity:1;  stroke-linecap:round; stroke-linejoin:round;">
<svg:path d="M74750000 45250000 L52750000 45250000 "/>
<svg:path d="M74750000 54750000 L74750000 45250000 "/>
<svg:path d="M50000000 50000000 L52750000 50000000 "/>
<svg:path d="M77500000 50000000 L74750000 50000000 "/>
<svg:path d="M52750000 54750000 L74750000 54750000 "/>
<svg:path d="M52750000 45250000 L52750000 54750000 "/>
<svg:g>
</svg:g>
<svg:g>
</svg:g>
<svg:g>
</svg:g>
<svg:g>
</svg:g>
</svg:g>
<svg:g style="fill:#000000; fill-opacity:0.0;  stroke:#000000; stroke-width:100000.000000; stroke-opacity:1;  stroke-linecap:round; stroke-linejoin:round;">
<svg:g>
</svg:g>
<svg:g>
</svg:g>
<svg:g>
</svg:g>
<svg:g>
</svg:g>
</svg:g> 
</svg:g><svg:g><svg:title>SVG Picture created as kicadBoard-F_Mask.svg date 2022/11/17 01:55:42 </svg:title>
  <svg:desc>Picture generated by PCBNEW </svg:desc>
<svg:g style="fill:#000000; fill-opacity:1.000000;stroke:#000000; stroke-opacity:1.000000; stroke-linecap:round; stroke-linejoin:round;" transform="translate(0 0) scale(1 1)">
</svg:g>
<svg:g style="fill:#000000; fill-opacity:0.0;  stroke:#000000; stroke-width:0.000000; stroke-opacity:1;  stroke-linecap:round; stroke-linejoin:round;">
<svg:g>
</svg:g>
<svg:g style="fill:#000000; fill-opacity:1.0;  stroke:#000000; stroke-width:1.000000; stroke-opacity:1;  stroke-linecap:round; stroke-linejoin:round;">
<svg:circle cx="50000000.000000" cy="50000000.000000" r="800000.000000"/> 
</svg:g>
<svg:g style="fill:#000000; fill-opacity:1.0;  stroke:#000000; stroke-width:21200.000000; stroke-opacity:1;  stroke-linecap:round; stroke-linejoin:round;">
</svg:g>
<svg:g style="fill:#000000; fill-opacity:1.0;  stroke:#000000; stroke-width:1.000000; stroke-opacity:1;  stroke-linecap:round; stroke-linejoin:round;">
<svg:circle cx="77500000.000000" cy="50000000.000000" r="800000.000000"/> 
</svg:g>
<svg:g>
</svg:g>
<svg:g>
</svg:g>
<svg:g>
</svg:g>
</svg:g>
<svg:g style="fill:#000000; fill-opacity:1.0;  stroke:#000000; stroke-width:1.000000; stroke-opacity:1;  stroke-linecap:round; stroke-linejoin:round;">
<svg:g>
</svg:g>
<svg:g>
</svg:g>
<svg:g>
</svg:g>
<svg:g>
</svg:g>
</svg:g> 
</svg:g><svg:g><svg:title>SVG Picture created as kicadBoard-F_Paste.svg date 2022/11/17 01:55:42 </svg:title>
  <svg:desc>Picture generated by PCBNEW </svg:desc>
<svg:g style="fill:#000000; fill-opacity:1.000000;stroke:#000000; stroke-opacity:1.000000; stroke-linecap:round; stroke-linejoin:round;" transform="translate(0 0) scale(1 1)">
</svg:g>
<svg:g style="fill:#000000; fill-opacity:0.0;  stroke:#000000; stroke-width:0.000000; stroke-opacity:1;  stroke-linecap:round; stroke-linejoin:round;">
<svg:g>
</svg:g>
<svg:g>
</svg:g>
<svg:g>
</svg:g>
<svg:g>
</svg:g>
</svg:g>
<svg:g style="fill:#000000; fill-opacity:0.0;  stroke:#000000; stroke-width:0.000000; stroke-opacity:1;  stroke-linecap:round; stroke-linejoin:round;">
<svg:g>
</svg:g>
<svg:g>
</svg:g>
<svg:g>
</svg:g>
<svg:g>
</svg:g>
</svg:g> 
</svg:g><svg:g><svg:title>SVG Picture created as kicadBoard-F_Silkscreen.svg date 2022/11/17 01:55:42 </svg:title>
  <svg:desc>Picture generated by PCBNEW </svg:desc>
<svg:g style="fill:#000000; fill-opacity:1.000000;stroke:#000000; stroke-opacity:1.000000; stroke-linecap:round; stroke-linejoin:round;" transform="translate(0 0) scale(1 1)">
</svg:g>
<svg:g style="fill:#000000; fill-opacity:0.0;  stroke:#000000; stroke-width:0.000000; stroke-opacity:1;  stroke-linecap:round; stroke-linejoin:round;">
</svg:g>
<svg:g style="fill:#F2EDA1; fill-opacity:0.0;  stroke:#F2EDA1; stroke-width:0.000000; stroke-opacity:1;  stroke-linecap:round; stroke-linejoin:round;">
</svg:g>
<svg:g style="fill:#F2EDA1; fill-opacity:0.0;  stroke:#F2EDA1; stroke-width:150000.000000; stroke-opacity:1;  stroke-linecap:round; stroke-linejoin:round;">
<svg:text x="63750000.000000" y="44630000.000000" textLength="27285715.000000" font-size="1333333.000000" lengthAdjust="spacingAndGlyphs" text-anchor="middle" opacity="0">FZKCCAXIALL22D95P275HORIZONTAL</svg:text>
<svg:g class="stroked-text"><svg:desc>FZKCCAXIALL22D95P275HORIZONTAL</svg:desc>
<svg:path d="M50678571 44058571 L50345238 44058571 "/>
<svg:path d="M50345238 44582380 L50345238 43582380 L50821428 43582380 "/>
<svg:path d="M51107142 43582380 L51773809 43582380 L51107142 44582380 L51773809 44582380 "/>
<svg:path d="M52154761 44582380 L52154761 43582380 "/>
<svg:path d="M52726190 44582380 L52297619 44010952 "/>
<svg:path d="M52726190 43582380 L52154761 44153809 "/>
<svg:path d="M53726190 44487142 L53678571 44534761 L53535714 44582380 L53440476 44582380 L53297619 44534761 L53202380 44439523 L53154761 44344285 L53107142 44153809 L53107142 44010952 L53154761 43820476 L53202380 43725238 L53297619 43630000 L53440476 43582380 L53535714 43582380 L53678571 43630000 L53726190 43677619 "/>
<svg:path d="M54726190 44487142 L54678571 44534761 L54535714 44582380 L54440476 44582380 L54297619 44534761 L54202380 44439523 L54154761 44344285 L54107142 44153809 L54107142 44010952 L54154761 43820476 L54202380 43725238 L54297619 43630000 L54440476 43582380 L54535714 43582380 L54678571 43630000 L54726190 43677619 "/>
<svg:path d="M55107142 44296666 L55583333 44296666 "/>
<svg:path d="M55011904 44582380 L55345238 43582380 L55678571 44582380 "/>
<svg:path d="M55916666 43582380 L56583333 44582380 "/>
<svg:path d="M56583333 43582380 L55916666 44582380 "/>
<svg:path d="M56964285 44582380 L56964285 43582380 "/>
<svg:path d="M57392857 44296666 L57869047 44296666 "/>
<svg:path d="M57297619 44582380 L57630952 43582380 L57964285 44582380 "/>
<svg:path d="M58773809 44582380 L58297619 44582380 L58297619 43582380 "/>
<svg:path d="M59583333 44582380 L59107142 44582380 L59107142 43582380 "/>
<svg:path d="M59869047 43677619 L59916666 43630000 L60011904 43582380 L60250000 43582380 L60345238 43630000 L60392857 43677619 L60440476 43772857 L60440476 43868095 L60392857 44010952 L59821428 44582380 L60440476 44582380 "/>
<svg:path d="M60821428 43677619 L60869047 43630000 L60964285 43582380 L61202380 43582380 L61297619 43630000 L61345238 43677619 L61392857 43772857 L61392857 43868095 L61345238 44010952 L60773809 44582380 L61392857 44582380 "/>
<svg:path d="M61821428 44582380 L61821428 43582380 L62059523 43582380 L62202380 43630000 L62297619 43725238 L62345238 43820476 L62392857 44010952 L62392857 44153809 L62345238 44344285 L62297619 44439523 L62202380 44534761 L62059523 44582380 L61821428 44582380 "/>
<svg:path d="M62869047 44582380 L63059523 44582380 L63154761 44534761 L63202380 44487142 L63297619 44344285 L63345238 44153809 L63345238 43772857 L63297619 43677619 L63250000 43630000 L63154761 43582380 L62964285 43582380 L62869047 43630000 L62821428 43677619 L62773809 43772857 L62773809 44010952 L62821428 44106190 L62869047 44153809 L62964285 44201428 L63154761 44201428 L63250000 44153809 L63297619 44106190 L63345238 44010952 "/>
<svg:path d="M64250000 43582380 L63773809 43582380 L63726190 44058571 L63773809 44010952 L63869047 43963333 L64107142 43963333 L64202380 44010952 L64250000 44058571 L64297619 44153809 L64297619 44391904 L64250000 44487142 L64202380 44534761 L64107142 44582380 L63869047 44582380 L63773809 44534761 L63726190 44487142 "/>
<svg:path d="M64726190 44582380 L64726190 43582380 L65107142 43582380 L65202380 43630000 L65250000 43677619 L65297619 43772857 L65297619 43915714 L65250000 44010952 L65202380 44058571 L65107142 44106190 L64726190 44106190 "/>
<svg:path d="M65678571 43677619 L65726190 43630000 L65821428 43582380 L66059523 43582380 L66154761 43630000 L66202380 43677619 L66250000 43772857 L66250000 43868095 L66202380 44010952 L65630952 44582380 L66250000 44582380 "/>
<svg:path d="M66583333 43582380 L67250000 43582380 L66821428 44582380 "/>
<svg:path d="M68107142 43582380 L67630952 43582380 L67583333 44058571 L67630952 44010952 L67726190 43963333 L67964285 43963333 L68059523 44010952 L68107142 44058571 L68154761 44153809 L68154761 44391904 L68107142 44487142 L68059523 44534761 L67964285 44582380 L67726190 44582380 L67630952 44534761 L67583333 44487142 "/>
<svg:path d="M68583333 44582380 L68583333 43582380 "/>
<svg:path d="M68583333 44058571 L69154761 44058571 "/>
<svg:path d="M69154761 44582380 L69154761 43582380 "/>
<svg:path d="M69821428 43582380 L70011904 43582380 L70107142 43630000 L70202380 43725238 L70250000 43915714 L70250000 44249047 L70202380 44439523 L70107142 44534761 L70011904 44582380 L69821428 44582380 L69726190 44534761 L69630952 44439523 L69583333 44249047 L69583333 43915714 L69630952 43725238 L69726190 43630000 L69821428 43582380 "/>
<svg:path d="M71250000 44582380 L70916666 44106190 "/>
<svg:path d="M70678571 44582380 L70678571 43582380 L71059523 43582380 L71154761 43630000 L71202380 43677619 L71250000 43772857 L71250000 43915714 L71202380 44010952 L71154761 44058571 L71059523 44106190 L70678571 44106190 "/>
<svg:path d="M71678571 44582380 L71678571 43582380 "/>
<svg:path d="M72059523 43582380 L72726190 43582380 L72059523 44582380 L72726190 44582380 "/>
<svg:path d="M73297619 43582380 L73488095 43582380 L73583333 43630000 L73678571 43725238 L73726190 43915714 L73726190 44249047 L73678571 44439523 L73583333 44534761 L73488095 44582380 L73297619 44582380 L73202380 44534761 L73107142 44439523 L73059523 44249047 L73059523 43915714 L73107142 43725238 L73202380 43630000 L73297619 43582380 "/>
<svg:path d="M74154761 44582380 L74154761 43582380 L74726190 44582380 L74726190 43582380 "/>
<svg:path d="M75059523 43582380 L75630952 43582380 "/>
<svg:path d="M75345238 44582380 L75345238 43582380 "/>
<svg:path d="M75916666 44296666 L76392857 44296666 "/>
<svg:path d="M75821428 44582380 L76154761 43582380 L76488095 44582380 "/>
<svg:path d="M77297619 44582380 L76821428 44582380 L76821428 43582380 "/>
</svg:g></svg:g>
<svg:g style="fill:#F2EDA1; fill-opacity:0.0;  stroke:#F2EDA1; stroke-width:120000.000000; stroke-opacity:1;  stroke-linecap:round; stroke-linejoin:round;">
<svg:path d="M74870000 45130000 L52630000 45130000 "/>
<svg:path d="M52630000 45130000 L52630000 54870000 "/>
<svg:path d="M52630000 54870000 L74870000 54870000 "/>
<svg:path d="M51040000 50000000 L52630000 50000000 "/>
<svg:path d="M76460000 50000000 L74870000 50000000 "/>
<svg:path d="M74870000 54870000 L74870000 45130000 "/>
<svg:g>
</svg:g>
<svg:g>
</svg:g>
<svg:g>
</svg:g>
<svg:g>
</svg:g>
</svg:g>
<svg:g style="fill:#000000; fill-opacity:0.0;  stroke:#000000; stroke-width:120000.000000; stroke-opacity:1;  stroke-linecap:round; stroke-linejoin:round;">
<svg:g>
</svg:g>
<svg:g>
</svg:g>
<svg:g>
</svg:g>
<svg:g>
</svg:g>
</svg:g> 
</svg:g><svg:g><svg:title>SVG Picture created as kicadBoard-Margin.svg date 2022/11/17 01:55:42 </svg:title>
  <svg:desc>Picture generated by PCBNEW </svg:desc>
<svg:g style="fill:#000000; fill-opacity:1.000000;stroke:#000000; stroke-opacity:1.000000; stroke-linecap:round; stroke-linejoin:round;" transform="translate(0 0) scale(1 1)">
</svg:g>
<svg:g style="fill:#000000; fill-opacity:0.0;  stroke:#000000; stroke-width:0.000000; stroke-opacity:1;  stroke-linecap:round; stroke-linejoin:round;">
<svg:g>
</svg:g>
<svg:g>
</svg:g>
<svg:g>
</svg:g>
<svg:g>
</svg:g>
</svg:g>
<svg:g style="fill:#000000; fill-opacity:0.0;  stroke:#000000; stroke-width:0.000000; stroke-opacity:1;  stroke-linecap:round; stroke-linejoin:round;">
<svg:g>
</svg:g>
<svg:g>
</svg:g>
<svg:g>
</svg:g>
<svg:g>
</svg:g>
</svg:g> 
</svg:g><svg:g><svg:title>SVG Picture created as kicadBoard-F_Cu.svg date 2022/11/17 01:55:42 </svg:title>
  <svg:desc>Picture generated by PCBNEW </svg:desc>
<svg:g style="fill:#000000; fill-opacity:1.000000;stroke:#000000; stroke-opacity:1.000000; stroke-linecap:round; stroke-linejoin:round;" transform="translate(0 0) scale(1 1)">
</svg:g>
<svg:g style="fill:#000000; fill-opacity:0.0;  stroke:#000000; stroke-width:0.000000; stroke-opacity:1;  stroke-linecap:round; stroke-linejoin:round;">
<svg:g>
</svg:g>
<svg:g style="fill:#C83434; fill-opacity:0.0;  stroke:#C83434; stroke-width:0.000000; stroke-opacity:1;  stroke-linecap:round; stroke-linejoin:round;">
</svg:g>
<svg:g style="fill:#C83434; fill-opacity:1.0;  stroke:#C83434; stroke-width:1.000000; stroke-opacity:1;  stroke-linecap:round; stroke-linejoin:round;">
<svg:circle cx="50000000.000000" cy="50000000.000000" r="800000.000000"/> 
</svg:g>
<svg:g style="fill:#C83434; fill-opacity:1.0;  stroke:#C83434; stroke-width:21200.000000; stroke-opacity:1;  stroke-linecap:round; stroke-linejoin:round;">
</svg:g>
<svg:g style="fill:#C83434; fill-opacity:1.0;  stroke:#C83434; stroke-width:1.000000; stroke-opacity:1;  stroke-linecap:round; stroke-linejoin:round;">
<svg:circle cx="77500000.000000" cy="50000000.000000" r="800000.000000"/> 
</svg:g>
<svg:g>
</svg:g>
<svg:g>
</svg:g>
<svg:g>
</svg:g>
</svg:g>
<svg:g style="fill:#FFFFFF; fill-opacity:1.0;  stroke:#FFFFFF; stroke-width:1.000000; stroke-opacity:1;  stroke-linecap:round; stroke-linejoin:round;">
<svg:circle cx="50000000.000000" cy="50000000.000000" r="400000.000000"/> 
</svg:g>
<svg:g style="fill:#FFFFFF; fill-opacity:1.0;  stroke:#FFFFFF; stroke-width:21200.000000; stroke-opacity:1;  stroke-linecap:round; stroke-linejoin:round;">
</svg:g>
<svg:g style="fill:#FFFFFF; fill-opacity:1.0;  stroke:#FFFFFF; stroke-width:1.000000; stroke-opacity:1;  stroke-linecap:round; stroke-linejoin:round;">
<svg:circle cx="77500000.000000" cy="50000000.000000" r="400000.000000"/> 
</svg:g>
<svg:g style="fill:#FFFFFF; fill-opacity:1.0;  stroke:#FFFFFF; stroke-width:21200.000000; stroke-opacity:1;  stroke-linecap:round; stroke-linejoin:round;">
</svg:g>
<svg:g style="fill:#000000; fill-opacity:1.0;  stroke:#000000; stroke-width:21200.000000; stroke-opacity:1;  stroke-linecap:round; stroke-linejoin:round;">
<svg:g>
</svg:g>
<svg:g>
</svg:g>
<svg:g>
</svg:g>
<svg:g>
</svg:g>
</svg:g> 
</svg:g></svg>
