<?xml version='1.0' encoding='ASCII' standalone='yes'?>
<svg xmlns:svg="http://www.w3.org/2000/svg" xmlns="http://www.w3.org/2000/svg" xmlns:xlink="http://www.w3.org/1999/xlink" version="1.1" width="9.999980cm" height="9.999980cm" viewBox="0 0 99999800 99999800">
<title>SVG Picture created as kicadBoard-B_Cu.svg date 2022/12/01 20:29:11 </title>
  <desc>Picture generated by PCBNEW </desc>
<g style="fill:#000000; fill-opacity:1.000000;stroke:#000000; stroke-opacity:1.000000; stroke-linecap:round; stroke-linejoin:round;" transform="translate(0 0) scale(1 1)">
</g>
<g style="fill:#000000; fill-opacity:0.0;  stroke:#000000; stroke-width:0.000000; stroke-opacity:1;  stroke-linecap:round; stroke-linejoin:round;">
<g>
</g>
<g>
</g>
<g>
</g>
<g>
</g>
</g>
<g style="fill:#FFFFFF; fill-opacity:0.0;  stroke:#FFFFFF; stroke-width:0.000000; stroke-opacity:1;  stroke-linecap:round; stroke-linejoin:round;">
</g>
<g style="fill:#000000; fill-opacity:0.0;  stroke:#000000; stroke-width:0.000000; stroke-opacity:1;  stroke-linecap:round; stroke-linejoin:round;">
<g>
</g>
<g>
</g>
<g>
</g>
<g>
</g>
</g> 
<svg:g><svg:title>SVG Picture created as kicadBoard-B_Adhesive.svg date 2022/12/01 20:29:11 </svg:title>
  <svg:desc>Picture generated by PCBNEW </svg:desc>
<svg:g style="fill:#000000; fill-opacity:1.000000;stroke:#000000; stroke-opacity:1.000000; stroke-linecap:round; stroke-linejoin:round;" transform="translate(0 0) scale(1 1)">
</svg:g>
<svg:g style="fill:#000000; fill-opacity:0.0;  stroke:#000000; stroke-width:0.000000; stroke-opacity:1;  stroke-linecap:round; stroke-linejoin:round;">
<svg:g>
</svg:g>
<svg:g>
</svg:g>
<svg:g>
</svg:g>
<svg:g>
</svg:g>
</svg:g>
<svg:g style="fill:#000000; fill-opacity:0.0;  stroke:#000000; stroke-width:0.000000; stroke-opacity:1;  stroke-linecap:round; stroke-linejoin:round;">
<svg:g>
</svg:g>
<svg:g>
</svg:g>
<svg:g>
</svg:g>
<svg:g>
</svg:g>
</svg:g> 
</svg:g><svg:g><svg:title>SVG Picture created as kicadBoard-B_Courtyard.svg date 2022/12/01 20:29:11 </svg:title>
  <svg:desc>Picture generated by PCBNEW </svg:desc>
<svg:g style="fill:#000000; fill-opacity:1.000000;stroke:#000000; stroke-opacity:1.000000; stroke-linecap:round; stroke-linejoin:round;" transform="translate(0 0) scale(1 1)">
</svg:g>
<svg:g style="fill:#000000; fill-opacity:0.0;  stroke:#000000; stroke-width:0.000000; stroke-opacity:1;  stroke-linecap:round; stroke-linejoin:round;">
<svg:g>
</svg:g>
<svg:g>
</svg:g>
<svg:g>
</svg:g>
<svg:g>
</svg:g>
</svg:g>
<svg:g style="fill:#000000; fill-opacity:0.0;  stroke:#000000; stroke-width:0.000000; stroke-opacity:1;  stroke-linecap:round; stroke-linejoin:round;">
<svg:g>
</svg:g>
<svg:g>
</svg:g>
<svg:g>
</svg:g>
<svg:g>
</svg:g>
</svg:g> 
</svg:g><svg:g><svg:title>SVG Picture created as kicadBoard-B_Fab.svg date 2022/12/01 20:29:11 </svg:title>
  <svg:desc>Picture generated by PCBNEW </svg:desc>
<svg:g style="fill:#000000; fill-opacity:1.000000;stroke:#000000; stroke-opacity:1.000000; stroke-linecap:round; stroke-linejoin:round;" transform="translate(0 0) scale(1 1)">
</svg:g>
<svg:g style="fill:#000000; fill-opacity:0.0;  stroke:#000000; stroke-width:0.000000; stroke-opacity:1;  stroke-linecap:round; stroke-linejoin:round;">
<svg:g>
</svg:g>
<svg:g>
</svg:g>
<svg:g>
</svg:g>
<svg:g>
</svg:g>
</svg:g>
<svg:g style="fill:#000000; fill-opacity:0.0;  stroke:#000000; stroke-width:0.000000; stroke-opacity:1;  stroke-linecap:round; stroke-linejoin:round;">
<svg:g>
</svg:g>
<svg:g>
</svg:g>
<svg:g>
</svg:g>
<svg:g>
</svg:g>
</svg:g> 
</svg:g><svg:g><svg:title>SVG Picture created as kicadBoard-B_Mask.svg date 2022/12/01 20:29:11 </svg:title>
  <svg:desc>Picture generated by PCBNEW </svg:desc>
<svg:g style="fill:#000000; fill-opacity:1.000000;stroke:#000000; stroke-opacity:1.000000; stroke-linecap:round; stroke-linejoin:round;" transform="translate(0 0) scale(1 1)">
</svg:g>
<svg:g style="fill:#000000; fill-opacity:0.0;  stroke:#000000; stroke-width:0.000000; stroke-opacity:1;  stroke-linecap:round; stroke-linejoin:round;">
<svg:g>
</svg:g>
<svg:g>
</svg:g>
<svg:g>
</svg:g>
<svg:g>
</svg:g>
</svg:g>
<svg:g style="fill:#000000; fill-opacity:0.0;  stroke:#000000; stroke-width:0.000000; stroke-opacity:1;  stroke-linecap:round; stroke-linejoin:round;">
<svg:g>
</svg:g>
<svg:g>
</svg:g>
<svg:g>
</svg:g>
<svg:g>
</svg:g>
</svg:g> 
</svg:g><svg:g><svg:title>SVG Picture created as kicadBoard-B_Paste.svg date 2022/12/01 20:29:11 </svg:title>
  <svg:desc>Picture generated by PCBNEW </svg:desc>
<svg:g style="fill:#000000; fill-opacity:1.000000;stroke:#000000; stroke-opacity:1.000000; stroke-linecap:round; stroke-linejoin:round;" transform="translate(0 0) scale(1 1)">
</svg:g>
<svg:g style="fill:#000000; fill-opacity:0.0;  stroke:#000000; stroke-width:0.000000; stroke-opacity:1;  stroke-linecap:round; stroke-linejoin:round;">
<svg:g>
</svg:g>
<svg:g>
</svg:g>
<svg:g>
</svg:g>
<svg:g>
</svg:g>
</svg:g>
<svg:g style="fill:#000000; fill-opacity:0.0;  stroke:#000000; stroke-width:0.000000; stroke-opacity:1;  stroke-linecap:round; stroke-linejoin:round;">
<svg:g>
</svg:g>
<svg:g>
</svg:g>
<svg:g>
</svg:g>
<svg:g>
</svg:g>
</svg:g> 
</svg:g><svg:g><svg:title>SVG Picture created as kicadBoard-B_Silkscreen.svg date 2022/12/01 20:29:11 </svg:title>
  <svg:desc>Picture generated by PCBNEW </svg:desc>
<svg:g style="fill:#000000; fill-opacity:1.000000;stroke:#000000; stroke-opacity:1.000000; stroke-linecap:round; stroke-linejoin:round;" transform="translate(0 0) scale(1 1)">
</svg:g>
<svg:g style="fill:#000000; fill-opacity:0.0;  stroke:#000000; stroke-width:0.000000; stroke-opacity:1;  stroke-linecap:round; stroke-linejoin:round;">
<svg:g>
</svg:g>
<svg:g>
</svg:g>
<svg:g>
</svg:g>
<svg:g>
</svg:g>
</svg:g>
<svg:g style="fill:#000000; fill-opacity:0.0;  stroke:#000000; stroke-width:0.000000; stroke-opacity:1;  stroke-linecap:round; stroke-linejoin:round;">
<svg:g>
</svg:g>
<svg:g>
</svg:g>
<svg:g>
</svg:g>
<svg:g>
</svg:g>
</svg:g> 
</svg:g><svg:g><svg:title>SVG Picture created as kicadBoard-Edge_Cuts.svg date 2022/12/01 20:29:11 </svg:title>
  <svg:desc>Picture generated by PCBNEW </svg:desc>
<svg:g style="fill:#000000; fill-opacity:1.000000;stroke:#000000; stroke-opacity:1.000000; stroke-linecap:round; stroke-linejoin:round;" transform="translate(0 0) scale(1 1)">
</svg:g>
<svg:g style="fill:#000000; fill-opacity:0.0;  stroke:#000000; stroke-width:0.000000; stroke-opacity:1;  stroke-linecap:round; stroke-linejoin:round;">
<svg:g>
</svg:g>
<svg:g>
</svg:g>
<svg:g>
</svg:g>
<svg:g>
</svg:g>
</svg:g> 
</svg:g><svg:g><svg:title>SVG Picture created as kicadBoard-F_Adhesive.svg date 2022/12/01 20:29:11 </svg:title>
  <svg:desc>Picture generated by PCBNEW </svg:desc>
<svg:g style="fill:#000000; fill-opacity:1.000000;stroke:#000000; stroke-opacity:1.000000; stroke-linecap:round; stroke-linejoin:round;" transform="translate(0 0) scale(1 1)">
</svg:g>
<svg:g style="fill:#000000; fill-opacity:0.0;  stroke:#000000; stroke-width:0.000000; stroke-opacity:1;  stroke-linecap:round; stroke-linejoin:round;">
<svg:g>
</svg:g>
<svg:g>
</svg:g>
<svg:g>
</svg:g>
<svg:g>
</svg:g>
</svg:g>
<svg:g style="fill:#000000; fill-opacity:0.0;  stroke:#000000; stroke-width:0.000000; stroke-opacity:1;  stroke-linecap:round; stroke-linejoin:round;">
<svg:g>
</svg:g>
<svg:g>
</svg:g>
<svg:g>
</svg:g>
<svg:g>
</svg:g>
</svg:g> 
</svg:g><svg:g><svg:title>SVG Picture created as kicadBoard-F_Courtyard.svg date 2022/12/01 20:29:11 </svg:title>
  <svg:desc>Picture generated by PCBNEW </svg:desc>
<svg:g style="fill:#000000; fill-opacity:1.000000;stroke:#000000; stroke-opacity:1.000000; stroke-linecap:round; stroke-linejoin:round;" transform="translate(0 0) scale(1 1)">
</svg:g>
<svg:g style="fill:#000000; fill-opacity:0.0;  stroke:#000000; stroke-width:0.000000; stroke-opacity:1;  stroke-linecap:round; stroke-linejoin:round;">
</svg:g>
<svg:g style="fill:#FF26E2; fill-opacity:0.0;  stroke:#FF26E2; stroke-width:0.000000; stroke-opacity:1;  stroke-linecap:round; stroke-linejoin:round;">
</svg:g>
<svg:g style="fill:#FF26E2; fill-opacity:0.0;  stroke:#FF26E2; stroke-width:50000.000000; stroke-opacity:1;  stroke-linecap:round; stroke-linejoin:round;">
<svg:path d="M53700000 52700000 L53700000 47300000 "/>
<svg:path d="M53700000 47300000 L46300000 47300000 "/>
<svg:path d="M46300000 47300000 L46300000 52700000 "/>
<svg:path d="M46300000 52700000 L53700000 52700000 "/>
<svg:g>
</svg:g>
<svg:g>
</svg:g>
<svg:g>
</svg:g>
<svg:g>
</svg:g>
</svg:g>
<svg:g style="fill:#000000; fill-opacity:0.0;  stroke:#000000; stroke-width:50000.000000; stroke-opacity:1;  stroke-linecap:round; stroke-linejoin:round;">
<svg:g>
</svg:g>
<svg:g>
</svg:g>
<svg:g>
</svg:g>
<svg:g>
</svg:g>
</svg:g> 
</svg:g><svg:g><svg:title>SVG Picture created as kicadBoard-F_Cu.svg date 2022/12/01 20:29:11 </svg:title>
  <svg:desc>Picture generated by PCBNEW </svg:desc>
<svg:g style="fill:#000000; fill-opacity:1.000000;stroke:#000000; stroke-opacity:1.000000; stroke-linecap:round; stroke-linejoin:round;" transform="translate(0 0) scale(1 1)">
</svg:g>
<svg:g style="fill:#000000; fill-opacity:0.0;  stroke:#000000; stroke-width:0.000000; stroke-opacity:1;  stroke-linecap:round; stroke-linejoin:round;">
<svg:g>
</svg:g>
<svg:g style="fill:#C83434; fill-opacity:0.0;  stroke:#C83434; stroke-width:0.000000; stroke-opacity:1;  stroke-linecap:round; stroke-linejoin:round;">
</svg:g>
<svg:g style="fill:#C83434; fill-opacity:0.0;  stroke:#C83434; stroke-width:1.000000; stroke-opacity:1;  stroke-linecap:round; stroke-linejoin:round;">
</svg:g>
<svg:g style="fill:#C83434; fill-opacity:1.0;  stroke:#C83434; stroke-width:1.000000; stroke-opacity:1;  stroke-linecap:round; stroke-linejoin:round;">
<svg:path style="fill:#C83434; fill-opacity:1.0;  stroke:#C83434; stroke-width:1.000000; stroke-opacity:1;  stroke-linecap:round; stroke-linejoin:round;fill-rule:evenodd;" d="M 46550000.000000,47945000.000000 46561418.000000,47887597.000000 46593934.000000,47838934.000000 46642597.000000,47806418.000000 46700000.000000,47795000.000000 48050000.000000,47795000.000000 48107403.000000,47806418.000000 48156066.000000,47838934.000000 48188582.000000,47887597.000000 48200000.000000,47945000.000000 48200000.000000,48245000.000000 48188582.000000,48302403.000000 48156066.000000,48351066.000000 48107403.000000,48383582.000000 48050000.000000,48395000.000000 46700000.000000,48395000.000000 46642597.000000,48383582.000000 46593934.000000,48351066.000000 46561418.000000,48302403.000000 46550000.000000,48245000.000000 Z"/> 
<svg:path style="fill:#C83434; fill-opacity:1.0;  stroke:#C83434; stroke-width:1.000000; stroke-opacity:1;  stroke-linecap:round; stroke-linejoin:round;fill-rule:evenodd;" d="M 46550000.000000,49215000.000000 46561418.000000,49157597.000000 46593934.000000,49108934.000000 46642597.000000,49076418.000000 46700000.000000,49065000.000000 48050000.000000,49065000.000000 48107403.000000,49076418.000000 48156066.000000,49108934.000000 48188582.000000,49157597.000000 48200000.000000,49215000.000000 48200000.000000,49515000.000000 48188582.000000,49572403.000000 48156066.000000,49621066.000000 48107403.000000,49653582.000000 48050000.000000,49665000.000000 46700000.000000,49665000.000000 46642597.000000,49653582.000000 46593934.000000,49621066.000000 46561418.000000,49572403.000000 46550000.000000,49515000.000000 Z"/> 
<svg:path style="fill:#C83434; fill-opacity:1.0;  stroke:#C83434; stroke-width:1.000000; stroke-opacity:1;  stroke-linecap:round; stroke-linejoin:round;fill-rule:evenodd;" d="M 46550000.000000,50485000.000000 46561418.000000,50427597.000000 46593934.000000,50378934.000000 46642597.000000,50346418.000000 46700000.000000,50335000.000000 48050000.000000,50335000.000000 48107403.000000,50346418.000000 48156066.000000,50378934.000000 48188582.000000,50427597.000000 48200000.000000,50485000.000000 48200000.000000,50785000.000000 48188582.000000,50842403.000000 48156066.000000,50891066.000000 48107403.000000,50923582.000000 48050000.000000,50935000.000000 46700000.000000,50935000.000000 46642597.000000,50923582.000000 46593934.000000,50891066.000000 46561418.000000,50842403.000000 46550000.000000,50785000.000000 Z"/> 
<svg:path style="fill:#C83434; fill-opacity:1.0;  stroke:#C83434; stroke-width:1.000000; stroke-opacity:1;  stroke-linecap:round; stroke-linejoin:round;fill-rule:evenodd;" d="M 46550000.000000,51755000.000000 46561418.000000,51697597.000000 46593934.000000,51648934.000000 46642597.000000,51616418.000000 46700000.000000,51605000.000000 48050000.000000,51605000.000000 48107403.000000,51616418.000000 48156066.000000,51648934.000000 48188582.000000,51697597.000000 48200000.000000,51755000.000000 48200000.000000,52055000.000000 48188582.000000,52112403.000000 48156066.000000,52161066.000000 48107403.000000,52193582.000000 48050000.000000,52205000.000000 46700000.000000,52205000.000000 46642597.000000,52193582.000000 46593934.000000,52161066.000000 46561418.000000,52112403.000000 46550000.000000,52055000.000000 Z"/> 
<svg:path style="fill:#C83434; fill-opacity:1.0;  stroke:#C83434; stroke-width:1.000000; stroke-opacity:1;  stroke-linecap:round; stroke-linejoin:round;fill-rule:evenodd;" d="M 51800000.000000,51755000.000000 51811418.000000,51697597.000000 51843934.000000,51648934.000000 51892597.000000,51616418.000000 51950000.000000,51605000.000000 53300000.000000,51605000.000000 53357403.000000,51616418.000000 53406066.000000,51648934.000000 53438582.000000,51697597.000000 53450000.000000,51755000.000000 53450000.000000,52055000.000000 53438582.000000,52112403.000000 53406066.000000,52161066.000000 53357403.000000,52193582.000000 53300000.000000,52205000.000000 51950000.000000,52205000.000000 51892597.000000,52193582.000000 51843934.000000,52161066.000000 51811418.000000,52112403.000000 51800000.000000,52055000.000000 Z"/> 
<svg:path style="fill:#C83434; fill-opacity:1.0;  stroke:#C83434; stroke-width:1.000000; stroke-opacity:1;  stroke-linecap:round; stroke-linejoin:round;fill-rule:evenodd;" d="M 51800000.000000,50485000.000000 51811418.000000,50427597.000000 51843934.000000,50378934.000000 51892597.000000,50346418.000000 51950000.000000,50335000.000000 53300000.000000,50335000.000000 53357403.000000,50346418.000000 53406066.000000,50378934.000000 53438582.000000,50427597.000000 53450000.000000,50485000.000000 53450000.000000,50785000.000000 53438582.000000,50842403.000000 53406066.000000,50891066.000000 53357403.000000,50923582.000000 53300000.000000,50935000.000000 51950000.000000,50935000.000000 51892597.000000,50923582.000000 51843934.000000,50891066.000000 51811418.000000,50842403.000000 51800000.000000,50785000.000000 Z"/> 
<svg:path style="fill:#C83434; fill-opacity:1.0;  stroke:#C83434; stroke-width:1.000000; stroke-opacity:1;  stroke-linecap:round; stroke-linejoin:round;fill-rule:evenodd;" d="M 51800000.000000,49215000.000000 51811418.000000,49157597.000000 51843934.000000,49108934.000000 51892597.000000,49076418.000000 51950000.000000,49065000.000000 53300000.000000,49065000.000000 53357403.000000,49076418.000000 53406066.000000,49108934.000000 53438582.000000,49157597.000000 53450000.000000,49215000.000000 53450000.000000,49515000.000000 53438582.000000,49572403.000000 53406066.000000,49621066.000000 53357403.000000,49653582.000000 53300000.000000,49665000.000000 51950000.000000,49665000.000000 51892597.000000,49653582.000000 51843934.000000,49621066.000000 51811418.000000,49572403.000000 51800000.000000,49515000.000000 Z"/> 
<svg:path style="fill:#C83434; fill-opacity:1.0;  stroke:#C83434; stroke-width:1.000000; stroke-opacity:1;  stroke-linecap:round; stroke-linejoin:round;fill-rule:evenodd;" d="M 51800000.000000,47945000.000000 51811418.000000,47887597.000000 51843934.000000,47838934.000000 51892597.000000,47806418.000000 51950000.000000,47795000.000000 53300000.000000,47795000.000000 53357403.000000,47806418.000000 53406066.000000,47838934.000000 53438582.000000,47887597.000000 53450000.000000,47945000.000000 53450000.000000,48245000.000000 53438582.000000,48302403.000000 53406066.000000,48351066.000000 53357403.000000,48383582.000000 53300000.000000,48395000.000000 51950000.000000,48395000.000000 51892597.000000,48383582.000000 51843934.000000,48351066.000000 51811418.000000,48302403.000000 51800000.000000,48245000.000000 Z"/> 
<svg:path style="fill:#C83434; fill-opacity:1.0;  stroke:#C83434; stroke-width:1.000000; stroke-opacity:1;  stroke-linecap:round; stroke-linejoin:round;fill-rule:evenodd;" d="M 48675001.000000,51499999.000000 48675001.000000,48500001.000000 51324999.000000,48500001.000000 51324999.000000,51499999.000000 Z"/> 
</svg:g>
<svg:g>
</svg:g>
<svg:g>
</svg:g>
<svg:g>
</svg:g>
</svg:g>
<svg:g style="fill:#FFFFFF; fill-opacity:1.0;  stroke:#FFFFFF; stroke-width:1.000000; stroke-opacity:1;  stroke-linecap:round; stroke-linejoin:round;">
</svg:g>
<svg:g style="fill:#000000; fill-opacity:1.0;  stroke:#000000; stroke-width:1.000000; stroke-opacity:1;  stroke-linecap:round; stroke-linejoin:round;">
<svg:g>
</svg:g>
<svg:g>
</svg:g>
<svg:g>
</svg:g>
<svg:g>
</svg:g>
</svg:g> 
</svg:g><svg:g><svg:title>SVG Picture created as kicadBoard-F_Fab.svg date 2022/12/01 20:29:11 </svg:title>
  <svg:desc>Picture generated by PCBNEW </svg:desc>
<svg:g style="fill:#000000; fill-opacity:1.000000;stroke:#000000; stroke-opacity:1.000000; stroke-linecap:round; stroke-linejoin:round;" transform="translate(0 0) scale(1 1)">
</svg:g>
<svg:g style="fill:#000000; fill-opacity:0.0;  stroke:#000000; stroke-width:0.000000; stroke-opacity:1;  stroke-linecap:round; stroke-linejoin:round;">
</svg:g>
<svg:g style="fill:#AFAFAF; fill-opacity:0.0;  stroke:#AFAFAF; stroke-width:0.000000; stroke-opacity:1;  stroke-linecap:round; stroke-linejoin:round;">
</svg:g>
<svg:g style="fill:#AFAFAF; fill-opacity:0.0;  stroke:#AFAFAF; stroke-width:150000.000000; stroke-opacity:1;  stroke-linecap:round; stroke-linejoin:round;">
<svg:text x="50000000.000000" y="53900000.000000" textLength="37956905.000000" font-size="1333333.000000" lengthAdjust="spacingAndGlyphs" text-anchor="middle" opacity="0">Infineon_PG-DSO-8-27_3.9x4.9mm_EP2.65x3mm</svg:text>
<svg:g class="stroked-text"><svg:desc>Infineon_PG-DSO-8-27_3.9x4.9mm_EP2.65x3mm</svg:desc>
<svg:path d="M31357142 53852380 L31357142 52852380 "/>
<svg:path d="M31833333 53185714 L31833333 53852380 "/>
<svg:path d="M31833333 53280952 L31880952 53233333 L31976190 53185714 L32119047 53185714 L32214285 53233333 L32261904 53328571 L32261904 53852380 "/>
<svg:path d="M32595238 53185714 L32976190 53185714 "/>
<svg:path d="M32738095 53852380 L32738095 52995238 L32785714 52900000 L32880952 52852380 L32976190 52852380 "/>
<svg:path d="M33309523 53852380 L33309523 53185714 "/>
<svg:path d="M33309523 52852380 L33261904 52900000 L33309523 52947619 L33357142 52900000 L33309523 52852380 L33309523 52947619 "/>
<svg:path d="M33785714 53185714 L33785714 53852380 "/>
<svg:path d="M33785714 53280952 L33833333 53233333 L33928571 53185714 L34071428 53185714 L34166666 53233333 L34214285 53328571 L34214285 53852380 "/>
<svg:path d="M35071428 53804761 L34976190 53852380 L34785714 53852380 L34690476 53804761 L34642857 53709523 L34642857 53328571 L34690476 53233333 L34785714 53185714 L34976190 53185714 L35071428 53233333 L35119047 53328571 L35119047 53423809 L34642857 53519047 "/>
<svg:path d="M35690476 53852380 L35595238 53804761 L35547619 53757142 L35500000 53661904 L35500000 53376190 L35547619 53280952 L35595238 53233333 L35690476 53185714 L35833333 53185714 L35928571 53233333 L35976190 53280952 L36023809 53376190 L36023809 53661904 L35976190 53757142 L35928571 53804761 L35833333 53852380 L35690476 53852380 "/>
<svg:path d="M36452380 53185714 L36452380 53852380 "/>
<svg:path d="M36452380 53280952 L36500000 53233333 L36595238 53185714 L36738095 53185714 L36833333 53233333 L36880952 53328571 L36880952 53852380 "/>
<svg:path d="M37119047 53947619 L37880952 53947619 "/>
<svg:path d="M38119047 53852380 L38119047 52852380 L38500000 52852380 L38595238 52900000 L38642857 52947619 L38690476 53042857 L38690476 53185714 L38642857 53280952 L38595238 53328571 L38500000 53376190 L38119047 53376190 "/>
<svg:path d="M39642857 52900000 L39547619 52852380 L39404761 52852380 L39261904 52900000 L39166666 52995238 L39119047 53090476 L39071428 53280952 L39071428 53423809 L39119047 53614285 L39166666 53709523 L39261904 53804761 L39404761 53852380 L39500000 53852380 L39642857 53804761 L39690476 53757142 L39690476 53423809 L39500000 53423809 "/>
<svg:path d="M40119047 53471428 L40880952 53471428 "/>
<svg:path d="M41357142 53852380 L41357142 52852380 L41595238 52852380 L41738095 52900000 L41833333 52995238 L41880952 53090476 L41928571 53280952 L41928571 53423809 L41880952 53614285 L41833333 53709523 L41738095 53804761 L41595238 53852380 L41357142 53852380 "/>
<svg:path d="M42309523 53804761 L42452380 53852380 L42690476 53852380 L42785714 53804761 L42833333 53757142 L42880952 53661904 L42880952 53566666 L42833333 53471428 L42785714 53423809 L42690476 53376190 L42500000 53328571 L42404761 53280952 L42357142 53233333 L42309523 53138095 L42309523 53042857 L42357142 52947619 L42404761 52900000 L42500000 52852380 L42738095 52852380 L42880952 52900000 "/>
<svg:path d="M43500000 52852380 L43690476 52852380 L43785714 52900000 L43880952 52995238 L43928571 53185714 L43928571 53519047 L43880952 53709523 L43785714 53804761 L43690476 53852380 L43500000 53852380 L43404761 53804761 L43309523 53709523 L43261904 53519047 L43261904 53185714 L43309523 52995238 L43404761 52900000 L43500000 52852380 "/>
<svg:path d="M44357142 53471428 L45119047 53471428 "/>
<svg:path d="M45738095 53280952 L45642857 53233333 L45595238 53185714 L45547619 53090476 L45547619 53042857 L45595238 52947619 L45642857 52900000 L45738095 52852380 L45928571 52852380 L46023809 52900000 L46071428 52947619 L46119047 53042857 L46119047 53090476 L46071428 53185714 L46023809 53233333 L45928571 53280952 L45738095 53280952 L45642857 53328571 L45595238 53376190 L45547619 53471428 L45547619 53661904 L45595238 53757142 L45642857 53804761 L45738095 53852380 L45928571 53852380 L46023809 53804761 L46071428 53757142 L46119047 53661904 L46119047 53471428 L46071428 53376190 L46023809 53328571 L45928571 53280952 "/>
<svg:path d="M46547619 53471428 L47309523 53471428 "/>
<svg:path d="M47738095 52947619 L47785714 52900000 L47880952 52852380 L48119047 52852380 L48214285 52900000 L48261904 52947619 L48309523 53042857 L48309523 53138095 L48261904 53280952 L47690476 53852380 L48309523 53852380 "/>
<svg:path d="M48642857 52852380 L49309523 52852380 L48880952 53852380 "/>
<svg:path d="M49452380 53947619 L50214285 53947619 "/>
<svg:path d="M50357142 52852380 L50976190 52852380 L50642857 53233333 L50785714 53233333 L50880952 53280952 L50928571 53328571 L50976190 53423809 L50976190 53661904 L50928571 53757142 L50880952 53804761 L50785714 53852380 L50500000 53852380 L50404761 53804761 L50357142 53757142 "/>
<svg:path d="M51404761 53757142 L51452380 53804761 L51404761 53852380 L51357142 53804761 L51404761 53757142 L51404761 53852380 "/>
<svg:path d="M51928571 53852380 L52119047 53852380 L52214285 53804761 L52261904 53757142 L52357142 53614285 L52404761 53423809 L52404761 53042857 L52357142 52947619 L52309523 52900000 L52214285 52852380 L52023809 52852380 L51928571 52900000 L51880952 52947619 L51833333 53042857 L51833333 53280952 L51880952 53376190 L51928571 53423809 L52023809 53471428 L52214285 53471428 L52309523 53423809 L52357142 53376190 L52404761 53280952 "/>
<svg:path d="M52738095 53852380 L53261904 53185714 "/>
<svg:path d="M52738095 53185714 L53261904 53852380 "/>
<svg:path d="M54071428 53185714 L54071428 53852380 "/>
<svg:path d="M53833333 52804761 L53595238 53519047 L54214285 53519047 "/>
<svg:path d="M54595238 53757142 L54642857 53804761 L54595238 53852380 L54547619 53804761 L54595238 53757142 L54595238 53852380 "/>
<svg:path d="M55119047 53852380 L55309523 53852380 L55404761 53804761 L55452380 53757142 L55547619 53614285 L55595238 53423809 L55595238 53042857 L55547619 52947619 L55500000 52900000 L55404761 52852380 L55214285 52852380 L55119047 52900000 L55071428 52947619 L55023809 53042857 L55023809 53280952 L55071428 53376190 L55119047 53423809 L55214285 53471428 L55404761 53471428 L55500000 53423809 L55547619 53376190 L55595238 53280952 "/>
<svg:path d="M56023809 53852380 L56023809 53185714 "/>
<svg:path d="M56023809 53280952 L56071428 53233333 L56166666 53185714 L56309523 53185714 L56404761 53233333 L56452380 53328571 L56452380 53852380 "/>
<svg:path d="M56452380 53328571 L56500000 53233333 L56595238 53185714 L56738095 53185714 L56833333 53233333 L56880952 53328571 L56880952 53852380 "/>
<svg:path d="M57357142 53852380 L57357142 53185714 "/>
<svg:path d="M57357142 53280952 L57404761 53233333 L57500000 53185714 L57642857 53185714 L57738095 53233333 L57785714 53328571 L57785714 53852380 "/>
<svg:path d="M57785714 53328571 L57833333 53233333 L57928571 53185714 L58071428 53185714 L58166666 53233333 L58214285 53328571 L58214285 53852380 "/>
<svg:path d="M58452380 53947619 L59214285 53947619 "/>
<svg:path d="M59452380 53328571 L59785714 53328571 "/>
<svg:path d="M59928571 53852380 L59452380 53852380 L59452380 52852380 L59928571 52852380 "/>
<svg:path d="M60357142 53852380 L60357142 52852380 L60738095 52852380 L60833333 52900000 L60880952 52947619 L60928571 53042857 L60928571 53185714 L60880952 53280952 L60833333 53328571 L60738095 53376190 L60357142 53376190 "/>
<svg:path d="M61309523 52947619 L61357142 52900000 L61452380 52852380 L61690476 52852380 L61785714 52900000 L61833333 52947619 L61880952 53042857 L61880952 53138095 L61833333 53280952 L61261904 53852380 L61880952 53852380 "/>
<svg:path d="M62309523 53757142 L62357142 53804761 L62309523 53852380 L62261904 53804761 L62309523 53757142 L62309523 53852380 "/>
<svg:path d="M63214285 52852380 L63023809 52852380 L62928571 52900000 L62880952 52947619 L62785714 53090476 L62738095 53280952 L62738095 53661904 L62785714 53757142 L62833333 53804761 L62928571 53852380 L63119047 53852380 L63214285 53804761 L63261904 53757142 L63309523 53661904 L63309523 53423809 L63261904 53328571 L63214285 53280952 L63119047 53233333 L62928571 53233333 L62833333 53280952 L62785714 53328571 L62738095 53423809 "/>
<svg:path d="M64214285 52852380 L63738095 52852380 L63690476 53328571 L63738095 53280952 L63833333 53233333 L64071428 53233333 L64166666 53280952 L64214285 53328571 L64261904 53423809 L64261904 53661904 L64214285 53757142 L64166666 53804761 L64071428 53852380 L63833333 53852380 L63738095 53804761 L63690476 53757142 "/>
<svg:path d="M64595238 53852380 L65119047 53185714 "/>
<svg:path d="M64595238 53185714 L65119047 53852380 "/>
<svg:path d="M65404761 52852380 L66023809 52852380 L65690476 53233333 L65833333 53233333 L65928571 53280952 L65976190 53328571 L66023809 53423809 L66023809 53661904 L65976190 53757142 L65928571 53804761 L65833333 53852380 L65547619 53852380 L65452380 53804761 L65404761 53757142 "/>
<svg:path d="M66452380 53852380 L66452380 53185714 "/>
<svg:path d="M66452380 53280952 L66500000 53233333 L66595238 53185714 L66738095 53185714 L66833333 53233333 L66880952 53328571 L66880952 53852380 "/>
<svg:path d="M66880952 53328571 L66928571 53233333 L67023809 53185714 L67166666 53185714 L67261904 53233333 L67309523 53328571 L67309523 53852380 "/>
<svg:path d="M67785714 53852380 L67785714 53185714 "/>
<svg:path d="M67785714 53280952 L67833333 53233333 L67928571 53185714 L68071428 53185714 L68166666 53233333 L68214285 53328571 L68214285 53852380 "/>
<svg:path d="M68214285 53328571 L68261904 53233333 L68357142 53185714 L68500000 53185714 L68595238 53233333 L68642857 53328571 L68642857 53852380 "/>
</svg:g><svg:text x="50000000.000000" y="50490000.000000" textLength="30575000.000000" font-size="1306666.000000" lengthAdjust="spacingAndGlyphs" text-anchor="middle" opacity="0">FZKSOINFINEONPGDSO82739X49EP265X3</svg:text>
<svg:g class="stroked-text"><svg:desc>FZKSOINFINEONPGDSO82739X49EP265X3</svg:desc>
<svg:path d="M35370000 49930000 L35043333 49930000 "/>
<svg:path d="M35043333 50443333 L35043333 49463333 L35510000 49463333 "/>
<svg:path d="M35790000 49463333 L36443333 49463333 L35790000 50443333 L36443333 50443333 "/>
<svg:path d="M36816666 50443333 L36816666 49463333 "/>
<svg:path d="M37376666 50443333 L36956666 49883333 "/>
<svg:path d="M37376666 49463333 L36816666 50023333 "/>
<svg:path d="M37750000 50396666 L37890000 50443333 L38123333 50443333 L38216666 50396666 L38263333 50350000 L38310000 50256666 L38310000 50163333 L38263333 50070000 L38216666 50023333 L38123333 49976666 L37936666 49930000 L37843333 49883333 L37796666 49836666 L37750000 49743333 L37750000 49650000 L37796666 49556666 L37843333 49510000 L37936666 49463333 L38170000 49463333 L38310000 49510000 "/>
<svg:path d="M38916666 49463333 L39103333 49463333 L39196666 49510000 L39290000 49603333 L39336666 49790000 L39336666 50116666 L39290000 50303333 L39196666 50396666 L39103333 50443333 L38916666 50443333 L38823333 50396666 L38730000 50303333 L38683333 50116666 L38683333 49790000 L38730000 49603333 L38823333 49510000 L38916666 49463333 "/>
<svg:path d="M39756666 50443333 L39756666 49463333 "/>
<svg:path d="M40223333 50443333 L40223333 49463333 L40783333 50443333 L40783333 49463333 "/>
<svg:path d="M41576666 49930000 L41250000 49930000 "/>
<svg:path d="M41250000 50443333 L41250000 49463333 L41716666 49463333 "/>
<svg:path d="M42090000 50443333 L42090000 49463333 "/>
<svg:path d="M42556666 50443333 L42556666 49463333 L43116666 50443333 L43116666 49463333 "/>
<svg:path d="M43583333 49930000 L43910000 49930000 "/>
<svg:path d="M44050000 50443333 L43583333 50443333 L43583333 49463333 L44050000 49463333 "/>
<svg:path d="M44656666 49463333 L44843333 49463333 L44936666 49510000 L45030000 49603333 L45076666 49790000 L45076666 50116666 L45030000 50303333 L44936666 50396666 L44843333 50443333 L44656666 50443333 L44563333 50396666 L44470000 50303333 L44423333 50116666 L44423333 49790000 L44470000 49603333 L44563333 49510000 L44656666 49463333 "/>
<svg:path d="M45496666 50443333 L45496666 49463333 L46056666 50443333 L46056666 49463333 "/>
<svg:path d="M46523333 50443333 L46523333 49463333 L46896666 49463333 L46990000 49510000 L47036666 49556666 L47083333 49650000 L47083333 49790000 L47036666 49883333 L46990000 49930000 L46896666 49976666 L46523333 49976666 "/>
<svg:path d="M48016666 49510000 L47923333 49463333 L47783333 49463333 L47643333 49510000 L47550000 49603333 L47503333 49696666 L47456666 49883333 L47456666 50023333 L47503333 50210000 L47550000 50303333 L47643333 50396666 L47783333 50443333 L47876666 50443333 L48016666 50396666 L48063333 50350000 L48063333 50023333 L47876666 50023333 "/>
<svg:path d="M48483333 50443333 L48483333 49463333 L48716666 49463333 L48856666 49510000 L48950000 49603333 L48996666 49696666 L49043333 49883333 L49043333 50023333 L48996666 50210000 L48950000 50303333 L48856666 50396666 L48716666 50443333 L48483333 50443333 "/>
<svg:path d="M49416666 50396666 L49556666 50443333 L49790000 50443333 L49883333 50396666 L49930000 50350000 L49976666 50256666 L49976666 50163333 L49930000 50070000 L49883333 50023333 L49790000 49976666 L49603333 49930000 L49510000 49883333 L49463333 49836666 L49416666 49743333 L49416666 49650000 L49463333 49556666 L49510000 49510000 L49603333 49463333 L49836666 49463333 L49976666 49510000 "/>
<svg:path d="M50583333 49463333 L50770000 49463333 L50863333 49510000 L50956666 49603333 L51003333 49790000 L51003333 50116666 L50956666 50303333 L50863333 50396666 L50770000 50443333 L50583333 50443333 L50490000 50396666 L50396666 50303333 L50350000 50116666 L50350000 49790000 L50396666 49603333 L50490000 49510000 L50583333 49463333 "/>
<svg:path d="M51563333 49883333 L51470000 49836666 L51423333 49790000 L51376666 49696666 L51376666 49650000 L51423333 49556666 L51470000 49510000 L51563333 49463333 L51750000 49463333 L51843333 49510000 L51890000 49556666 L51936666 49650000 L51936666 49696666 L51890000 49790000 L51843333 49836666 L51750000 49883333 L51563333 49883333 L51470000 49930000 L51423333 49976666 L51376666 50070000 L51376666 50256666 L51423333 50350000 L51470000 50396666 L51563333 50443333 L51750000 50443333 L51843333 50396666 L51890000 50350000 L51936666 50256666 L51936666 50070000 L51890000 49976666 L51843333 49930000 L51750000 49883333 "/>
<svg:path d="M52310000 49556666 L52356666 49510000 L52450000 49463333 L52683333 49463333 L52776666 49510000 L52823333 49556666 L52870000 49650000 L52870000 49743333 L52823333 49883333 L52263333 50443333 L52870000 50443333 "/>
<svg:path d="M53196666 49463333 L53850000 49463333 L53430000 50443333 "/>
<svg:path d="M54130000 49463333 L54736666 49463333 L54410000 49836666 L54550000 49836666 L54643333 49883333 L54690000 49930000 L54736666 50023333 L54736666 50256666 L54690000 50350000 L54643333 50396666 L54550000 50443333 L54270000 50443333 L54176666 50396666 L54130000 50350000 "/>
<svg:path d="M55203333 50443333 L55390000 50443333 L55483333 50396666 L55530000 50350000 L55623333 50210000 L55670000 50023333 L55670000 49650000 L55623333 49556666 L55576666 49510000 L55483333 49463333 L55296666 49463333 L55203333 49510000 L55156666 49556666 L55110000 49650000 L55110000 49883333 L55156666 49976666 L55203333 50023333 L55296666 50070000 L55483333 50070000 L55576666 50023333 L55623333 49976666 L55670000 49883333 "/>
<svg:path d="M55996666 49463333 L56649999 50443333 "/>
<svg:path d="M56649999 49463333 L55996666 50443333 "/>
<svg:path d="M57443333 49790000 L57443333 50443333 "/>
<svg:path d="M57209999 49416666 L56976666 50116666 L57583333 50116666 "/>
<svg:path d="M58003333 50443333 L58189999 50443333 L58283333 50396666 L58329999 50350000 L58423333 50210000 L58469999 50023333 L58469999 49650000 L58423333 49556666 L58376666 49510000 L58283333 49463333 L58096666 49463333 L58003333 49510000 L57956666 49556666 L57909999 49650000 L57909999 49883333 L57956666 49976666 L58003333 50023333 L58096666 50070000 L58283333 50070000 L58376666 50023333 L58423333 49976666 L58469999 49883333 "/>
<svg:path d="M58889999 49930000 L59216666 49930000 "/>
<svg:path d="M59356666 50443333 L58889999 50443333 L58889999 49463333 L59356666 49463333 "/>
<svg:path d="M59776666 50443333 L59776666 49463333 L60149999 49463333 L60243333 49510000 L60289999 49556666 L60336666 49650000 L60336666 49790000 L60289999 49883333 L60243333 49930000 L60149999 49976666 L59776666 49976666 "/>
<svg:path d="M60709999 49556666 L60756666 49510000 L60849999 49463333 L61083333 49463333 L61176666 49510000 L61223333 49556666 L61269999 49650000 L61269999 49743333 L61223333 49883333 L60663333 50443333 L61269999 50443333 "/>
<svg:path d="M62109999 49463333 L61923333 49463333 L61829999 49510000 L61783333 49556666 L61689999 49696666 L61643333 49883333 L61643333 50256666 L61689999 50350000 L61736666 50396666 L61829999 50443333 L62016666 50443333 L62109999 50396666 L62156666 50350000 L62203333 50256666 L62203333 50023333 L62156666 49930000 L62109999 49883333 L62016666 49836666 L61829999 49836666 L61736666 49883333 L61689999 49930000 L61643333 50023333 "/>
<svg:path d="M63089999 49463333 L62623333 49463333 L62576666 49930000 L62623333 49883333 L62716666 49836666 L62949999 49836666 L63043333 49883333 L63089999 49930000 L63136666 50023333 L63136666 50256666 L63089999 50350000 L63043333 50396666 L62949999 50443333 L62716666 50443333 L62623333 50396666 L62576666 50350000 "/>
<svg:path d="M63463333 49463333 L64116666 50443333 "/>
<svg:path d="M64116666 49463333 L63463333 50443333 "/>
<svg:path d="M64396666 49463333 L65003333 49463333 L64676666 49836666 L64816666 49836666 L64909999 49883333 L64956666 49930000 L65003333 50023333 L65003333 50256666 L64956666 50350000 L64909999 50396666 L64816666 50443333 L64536666 50443333 L64443333 50396666 L64396666 50350000 "/>
</svg:g></svg:g>
<svg:g style="fill:#AFAFAF; fill-opacity:0.0;  stroke:#AFAFAF; stroke-width:100000.000000; stroke-opacity:1;  stroke-linecap:round; stroke-linejoin:round;">
<svg:path d="M48050000 52450000 L48050000 48525000 "/>
<svg:path d="M49025000 47550000 L51950000 47550000 "/>
<svg:path d="M51950000 47550000 L51950000 52450000 "/>
<svg:path d="M51950000 52450000 L48050000 52450000 "/>
<svg:path d="M48050000 48525000 L49025000 47550000 "/>
<svg:g>
</svg:g>
<svg:g>
</svg:g>
<svg:g>
</svg:g>
<svg:g>
</svg:g>
</svg:g>
<svg:g style="fill:#000000; fill-opacity:0.0;  stroke:#000000; stroke-width:100000.000000; stroke-opacity:1;  stroke-linecap:round; stroke-linejoin:round;">
<svg:g>
</svg:g>
<svg:g>
</svg:g>
<svg:g>
</svg:g>
<svg:g>
</svg:g>
</svg:g> 
</svg:g><svg:g><svg:title>SVG Picture created as kicadBoard-F_Mask.svg date 2022/12/01 20:29:11 </svg:title>
  <svg:desc>Picture generated by PCBNEW </svg:desc>
<svg:g style="fill:#000000; fill-opacity:1.000000;stroke:#000000; stroke-opacity:1.000000; stroke-linecap:round; stroke-linejoin:round;" transform="translate(0 0) scale(1 1)">
</svg:g>
<svg:g style="fill:#000000; fill-opacity:0.0;  stroke:#000000; stroke-width:0.000000; stroke-opacity:1;  stroke-linecap:round; stroke-linejoin:round;">
<svg:g>
</svg:g>
<svg:g style="fill:#000000; fill-opacity:0.0;  stroke:#000000; stroke-width:1.000000; stroke-opacity:1;  stroke-linecap:round; stroke-linejoin:round;">
</svg:g>
<svg:g style="fill:#000000; fill-opacity:1.0;  stroke:#000000; stroke-width:1.000000; stroke-opacity:1;  stroke-linecap:round; stroke-linejoin:round;">
<svg:path style="fill:#000000; fill-opacity:1.0;  stroke:#000000; stroke-width:1.000000; stroke-opacity:1;  stroke-linecap:round; stroke-linejoin:round;fill-rule:evenodd;" d="M 46550000.000000,47945000.000000 46561418.000000,47887597.000000 46593934.000000,47838934.000000 46642597.000000,47806418.000000 46700000.000000,47795000.000000 48050000.000000,47795000.000000 48107403.000000,47806418.000000 48156066.000000,47838934.000000 48188582.000000,47887597.000000 48200000.000000,47945000.000000 48200000.000000,48245000.000000 48188582.000000,48302403.000000 48156066.000000,48351066.000000 48107403.000000,48383582.000000 48050000.000000,48395000.000000 46700000.000000,48395000.000000 46642597.000000,48383582.000000 46593934.000000,48351066.000000 46561418.000000,48302403.000000 46550000.000000,48245000.000000 Z"/> 
<svg:path style="fill:#000000; fill-opacity:1.0;  stroke:#000000; stroke-width:1.000000; stroke-opacity:1;  stroke-linecap:round; stroke-linejoin:round;fill-rule:evenodd;" d="M 46550000.000000,49215000.000000 46561418.000000,49157597.000000 46593934.000000,49108934.000000 46642597.000000,49076418.000000 46700000.000000,49065000.000000 48050000.000000,49065000.000000 48107403.000000,49076418.000000 48156066.000000,49108934.000000 48188582.000000,49157597.000000 48200000.000000,49215000.000000 48200000.000000,49515000.000000 48188582.000000,49572403.000000 48156066.000000,49621066.000000 48107403.000000,49653582.000000 48050000.000000,49665000.000000 46700000.000000,49665000.000000 46642597.000000,49653582.000000 46593934.000000,49621066.000000 46561418.000000,49572403.000000 46550000.000000,49515000.000000 Z"/> 
<svg:path style="fill:#000000; fill-opacity:1.0;  stroke:#000000; stroke-width:1.000000; stroke-opacity:1;  stroke-linecap:round; stroke-linejoin:round;fill-rule:evenodd;" d="M 46550000.000000,50485000.000000 46561418.000000,50427597.000000 46593934.000000,50378934.000000 46642597.000000,50346418.000000 46700000.000000,50335000.000000 48050000.000000,50335000.000000 48107403.000000,50346418.000000 48156066.000000,50378934.000000 48188582.000000,50427597.000000 48200000.000000,50485000.000000 48200000.000000,50785000.000000 48188582.000000,50842403.000000 48156066.000000,50891066.000000 48107403.000000,50923582.000000 48050000.000000,50935000.000000 46700000.000000,50935000.000000 46642597.000000,50923582.000000 46593934.000000,50891066.000000 46561418.000000,50842403.000000 46550000.000000,50785000.000000 Z"/> 
<svg:path style="fill:#000000; fill-opacity:1.0;  stroke:#000000; stroke-width:1.000000; stroke-opacity:1;  stroke-linecap:round; stroke-linejoin:round;fill-rule:evenodd;" d="M 46550000.000000,51755000.000000 46561418.000000,51697597.000000 46593934.000000,51648934.000000 46642597.000000,51616418.000000 46700000.000000,51605000.000000 48050000.000000,51605000.000000 48107403.000000,51616418.000000 48156066.000000,51648934.000000 48188582.000000,51697597.000000 48200000.000000,51755000.000000 48200000.000000,52055000.000000 48188582.000000,52112403.000000 48156066.000000,52161066.000000 48107403.000000,52193582.000000 48050000.000000,52205000.000000 46700000.000000,52205000.000000 46642597.000000,52193582.000000 46593934.000000,52161066.000000 46561418.000000,52112403.000000 46550000.000000,52055000.000000 Z"/> 
<svg:path style="fill:#000000; fill-opacity:1.0;  stroke:#000000; stroke-width:1.000000; stroke-opacity:1;  stroke-linecap:round; stroke-linejoin:round;fill-rule:evenodd;" d="M 51800000.000000,51755000.000000 51811418.000000,51697597.000000 51843934.000000,51648934.000000 51892597.000000,51616418.000000 51950000.000000,51605000.000000 53300000.000000,51605000.000000 53357403.000000,51616418.000000 53406066.000000,51648934.000000 53438582.000000,51697597.000000 53450000.000000,51755000.000000 53450000.000000,52055000.000000 53438582.000000,52112403.000000 53406066.000000,52161066.000000 53357403.000000,52193582.000000 53300000.000000,52205000.000000 51950000.000000,52205000.000000 51892597.000000,52193582.000000 51843934.000000,52161066.000000 51811418.000000,52112403.000000 51800000.000000,52055000.000000 Z"/> 
<svg:path style="fill:#000000; fill-opacity:1.0;  stroke:#000000; stroke-width:1.000000; stroke-opacity:1;  stroke-linecap:round; stroke-linejoin:round;fill-rule:evenodd;" d="M 51800000.000000,50485000.000000 51811418.000000,50427597.000000 51843934.000000,50378934.000000 51892597.000000,50346418.000000 51950000.000000,50335000.000000 53300000.000000,50335000.000000 53357403.000000,50346418.000000 53406066.000000,50378934.000000 53438582.000000,50427597.000000 53450000.000000,50485000.000000 53450000.000000,50785000.000000 53438582.000000,50842403.000000 53406066.000000,50891066.000000 53357403.000000,50923582.000000 53300000.000000,50935000.000000 51950000.000000,50935000.000000 51892597.000000,50923582.000000 51843934.000000,50891066.000000 51811418.000000,50842403.000000 51800000.000000,50785000.000000 Z"/> 
<svg:path style="fill:#000000; fill-opacity:1.0;  stroke:#000000; stroke-width:1.000000; stroke-opacity:1;  stroke-linecap:round; stroke-linejoin:round;fill-rule:evenodd;" d="M 51800000.000000,49215000.000000 51811418.000000,49157597.000000 51843934.000000,49108934.000000 51892597.000000,49076418.000000 51950000.000000,49065000.000000 53300000.000000,49065000.000000 53357403.000000,49076418.000000 53406066.000000,49108934.000000 53438582.000000,49157597.000000 53450000.000000,49215000.000000 53450000.000000,49515000.000000 53438582.000000,49572403.000000 53406066.000000,49621066.000000 53357403.000000,49653582.000000 53300000.000000,49665000.000000 51950000.000000,49665000.000000 51892597.000000,49653582.000000 51843934.000000,49621066.000000 51811418.000000,49572403.000000 51800000.000000,49515000.000000 Z"/> 
<svg:path style="fill:#000000; fill-opacity:1.0;  stroke:#000000; stroke-width:1.000000; stroke-opacity:1;  stroke-linecap:round; stroke-linejoin:round;fill-rule:evenodd;" d="M 51800000.000000,47945000.000000 51811418.000000,47887597.000000 51843934.000000,47838934.000000 51892597.000000,47806418.000000 51950000.000000,47795000.000000 53300000.000000,47795000.000000 53357403.000000,47806418.000000 53406066.000000,47838934.000000 53438582.000000,47887597.000000 53450000.000000,47945000.000000 53450000.000000,48245000.000000 53438582.000000,48302403.000000 53406066.000000,48351066.000000 53357403.000000,48383582.000000 53300000.000000,48395000.000000 51950000.000000,48395000.000000 51892597.000000,48383582.000000 51843934.000000,48351066.000000 51811418.000000,48302403.000000 51800000.000000,48245000.000000 Z"/> 
<svg:path style="fill:#000000; fill-opacity:1.0;  stroke:#000000; stroke-width:1.000000; stroke-opacity:1;  stroke-linecap:round; stroke-linejoin:round;fill-rule:evenodd;" d="M 48675001.000000,51499999.000000 48675001.000000,48500001.000000 51324999.000000,48500001.000000 51324999.000000,51499999.000000 Z"/> 
</svg:g>
<svg:g>
</svg:g>
<svg:g>
</svg:g>
<svg:g>
</svg:g>
</svg:g>
<svg:g style="fill:#000000; fill-opacity:1.0;  stroke:#000000; stroke-width:1.000000; stroke-opacity:1;  stroke-linecap:round; stroke-linejoin:round;">
<svg:g>
</svg:g>
<svg:g>
</svg:g>
<svg:g>
</svg:g>
<svg:g>
</svg:g>
</svg:g> 
</svg:g><svg:g><svg:title>SVG Picture created as kicadBoard-F_Paste.svg date 2022/12/01 20:29:11 </svg:title>
  <svg:desc>Picture generated by PCBNEW </svg:desc>
<svg:g style="fill:#000000; fill-opacity:1.000000;stroke:#000000; stroke-opacity:1.000000; stroke-linecap:round; stroke-linejoin:round;" transform="translate(0 0) scale(1 1)">
</svg:g>
<svg:g style="fill:#000000; fill-opacity:0.0;  stroke:#000000; stroke-width:0.000000; stroke-opacity:1;  stroke-linecap:round; stroke-linejoin:round;">
<svg:g>
</svg:g>
<svg:g style="fill:#000000; fill-opacity:0.0;  stroke:#000000; stroke-width:1.000000; stroke-opacity:1;  stroke-linecap:round; stroke-linejoin:round;">
</svg:g>
<svg:g style="fill:#000000; fill-opacity:1.0;  stroke:#000000; stroke-width:1.000000; stroke-opacity:1;  stroke-linecap:round; stroke-linejoin:round;">
<svg:path style="fill:#000000; fill-opacity:1.0;  stroke:#000000; stroke-width:1.000000; stroke-opacity:1;  stroke-linecap:round; stroke-linejoin:round;fill-rule:evenodd;" d="M 50125000.000000,48895000.000000 50144030.000000,48799329.000000 50198223.000000,48718223.000000 50279329.000000,48664030.000000 50375000.000000,48645000.000000 50945000.000000,48645000.000000 51040671.000000,48664030.000000 51121777.000000,48718223.000000 51175970.000000,48799329.000000 51195000.000000,48895000.000000 51195000.000000,49605000.000000 51175970.000000,49700671.000000 51121777.000000,49781777.000000 51040671.000000,49835970.000000 50945000.000000,49855000.000000 50375000.000000,49855000.000000 50279329.000000,49835970.000000 50198223.000000,49781777.000000 50144030.000000,49700671.000000 50125000.000000,49605000.000000 Z"/> 
<svg:path style="fill:#000000; fill-opacity:1.0;  stroke:#000000; stroke-width:1.000000; stroke-opacity:1;  stroke-linecap:round; stroke-linejoin:round;fill-rule:evenodd;" d="M 48805000.000000,50395000.000000 48824030.000000,50299329.000000 48878223.000000,50218223.000000 48959329.000000,50164030.000000 49055000.000000,50145000.000000 49625000.000000,50145000.000000 49720671.000000,50164030.000000 49801777.000000,50218223.000000 49855970.000000,50299329.000000 49875000.000000,50395000.000000 49875000.000000,51105000.000000 49855970.000000,51200671.000000 49801777.000000,51281777.000000 49720671.000000,51335970.000000 49625000.000000,51355000.000000 49055000.000000,51355000.000000 48959329.000000,51335970.000000 48878223.000000,51281777.000000 48824030.000000,51200671.000000 48805000.000000,51105000.000000 Z"/> 
<svg:path style="fill:#000000; fill-opacity:1.0;  stroke:#000000; stroke-width:1.000000; stroke-opacity:1;  stroke-linecap:round; stroke-linejoin:round;fill-rule:evenodd;" d="M 50125000.000000,50395000.000000 50144030.000000,50299329.000000 50198223.000000,50218223.000000 50279329.000000,50164030.000000 50375000.000000,50145000.000000 50945000.000000,50145000.000000 51040671.000000,50164030.000000 51121777.000000,50218223.000000 51175970.000000,50299329.000000 51195000.000000,50395000.000000 51195000.000000,51105000.000000 51175970.000000,51200671.000000 51121777.000000,51281777.000000 51040671.000000,51335970.000000 50945000.000000,51355000.000000 50375000.000000,51355000.000000 50279329.000000,51335970.000000 50198223.000000,51281777.000000 50144030.000000,51200671.000000 50125000.000000,51105000.000000 Z"/> 
<svg:path style="fill:#000000; fill-opacity:1.0;  stroke:#000000; stroke-width:1.000000; stroke-opacity:1;  stroke-linecap:round; stroke-linejoin:round;fill-rule:evenodd;" d="M 48805000.000000,48895000.000000 48824030.000000,48799329.000000 48878223.000000,48718223.000000 48959329.000000,48664030.000000 49055000.000000,48645000.000000 49625000.000000,48645000.000000 49720671.000000,48664030.000000 49801777.000000,48718223.000000 49855970.000000,48799329.000000 49875000.000000,48895000.000000 49875000.000000,49605000.000000 49855970.000000,49700671.000000 49801777.000000,49781777.000000 49720671.000000,49835970.000000 49625000.000000,49855000.000000 49055000.000000,49855000.000000 48959329.000000,49835970.000000 48878223.000000,49781777.000000 48824030.000000,49700671.000000 48805000.000000,49605000.000000 Z"/> 
<svg:path style="fill:#000000; fill-opacity:1.0;  stroke:#000000; stroke-width:1.000000; stroke-opacity:1;  stroke-linecap:round; stroke-linejoin:round;fill-rule:evenodd;" d="M 46550000.000000,47945000.000000 46561418.000000,47887597.000000 46593934.000000,47838934.000000 46642597.000000,47806418.000000 46700000.000000,47795000.000000 48050000.000000,47795000.000000 48107403.000000,47806418.000000 48156066.000000,47838934.000000 48188582.000000,47887597.000000 48200000.000000,47945000.000000 48200000.000000,48245000.000000 48188582.000000,48302403.000000 48156066.000000,48351066.000000 48107403.000000,48383582.000000 48050000.000000,48395000.000000 46700000.000000,48395000.000000 46642597.000000,48383582.000000 46593934.000000,48351066.000000 46561418.000000,48302403.000000 46550000.000000,48245000.000000 Z"/> 
<svg:path style="fill:#000000; fill-opacity:1.0;  stroke:#000000; stroke-width:1.000000; stroke-opacity:1;  stroke-linecap:round; stroke-linejoin:round;fill-rule:evenodd;" d="M 46550000.000000,49215000.000000 46561418.000000,49157597.000000 46593934.000000,49108934.000000 46642597.000000,49076418.000000 46700000.000000,49065000.000000 48050000.000000,49065000.000000 48107403.000000,49076418.000000 48156066.000000,49108934.000000 48188582.000000,49157597.000000 48200000.000000,49215000.000000 48200000.000000,49515000.000000 48188582.000000,49572403.000000 48156066.000000,49621066.000000 48107403.000000,49653582.000000 48050000.000000,49665000.000000 46700000.000000,49665000.000000 46642597.000000,49653582.000000 46593934.000000,49621066.000000 46561418.000000,49572403.000000 46550000.000000,49515000.000000 Z"/> 
<svg:path style="fill:#000000; fill-opacity:1.0;  stroke:#000000; stroke-width:1.000000; stroke-opacity:1;  stroke-linecap:round; stroke-linejoin:round;fill-rule:evenodd;" d="M 46550000.000000,50485000.000000 46561418.000000,50427597.000000 46593934.000000,50378934.000000 46642597.000000,50346418.000000 46700000.000000,50335000.000000 48050000.000000,50335000.000000 48107403.000000,50346418.000000 48156066.000000,50378934.000000 48188582.000000,50427597.000000 48200000.000000,50485000.000000 48200000.000000,50785000.000000 48188582.000000,50842403.000000 48156066.000000,50891066.000000 48107403.000000,50923582.000000 48050000.000000,50935000.000000 46700000.000000,50935000.000000 46642597.000000,50923582.000000 46593934.000000,50891066.000000 46561418.000000,50842403.000000 46550000.000000,50785000.000000 Z"/> 
<svg:path style="fill:#000000; fill-opacity:1.0;  stroke:#000000; stroke-width:1.000000; stroke-opacity:1;  stroke-linecap:round; stroke-linejoin:round;fill-rule:evenodd;" d="M 46550000.000000,51755000.000000 46561418.000000,51697597.000000 46593934.000000,51648934.000000 46642597.000000,51616418.000000 46700000.000000,51605000.000000 48050000.000000,51605000.000000 48107403.000000,51616418.000000 48156066.000000,51648934.000000 48188582.000000,51697597.000000 48200000.000000,51755000.000000 48200000.000000,52055000.000000 48188582.000000,52112403.000000 48156066.000000,52161066.000000 48107403.000000,52193582.000000 48050000.000000,52205000.000000 46700000.000000,52205000.000000 46642597.000000,52193582.000000 46593934.000000,52161066.000000 46561418.000000,52112403.000000 46550000.000000,52055000.000000 Z"/> 
<svg:path style="fill:#000000; fill-opacity:1.0;  stroke:#000000; stroke-width:1.000000; stroke-opacity:1;  stroke-linecap:round; stroke-linejoin:round;fill-rule:evenodd;" d="M 51800000.000000,51755000.000000 51811418.000000,51697597.000000 51843934.000000,51648934.000000 51892597.000000,51616418.000000 51950000.000000,51605000.000000 53300000.000000,51605000.000000 53357403.000000,51616418.000000 53406066.000000,51648934.000000 53438582.000000,51697597.000000 53450000.000000,51755000.000000 53450000.000000,52055000.000000 53438582.000000,52112403.000000 53406066.000000,52161066.000000 53357403.000000,52193582.000000 53300000.000000,52205000.000000 51950000.000000,52205000.000000 51892597.000000,52193582.000000 51843934.000000,52161066.000000 51811418.000000,52112403.000000 51800000.000000,52055000.000000 Z"/> 
<svg:path style="fill:#000000; fill-opacity:1.0;  stroke:#000000; stroke-width:1.000000; stroke-opacity:1;  stroke-linecap:round; stroke-linejoin:round;fill-rule:evenodd;" d="M 51800000.000000,50485000.000000 51811418.000000,50427597.000000 51843934.000000,50378934.000000 51892597.000000,50346418.000000 51950000.000000,50335000.000000 53300000.000000,50335000.000000 53357403.000000,50346418.000000 53406066.000000,50378934.000000 53438582.000000,50427597.000000 53450000.000000,50485000.000000 53450000.000000,50785000.000000 53438582.000000,50842403.000000 53406066.000000,50891066.000000 53357403.000000,50923582.000000 53300000.000000,50935000.000000 51950000.000000,50935000.000000 51892597.000000,50923582.000000 51843934.000000,50891066.000000 51811418.000000,50842403.000000 51800000.000000,50785000.000000 Z"/> 
<svg:path style="fill:#000000; fill-opacity:1.0;  stroke:#000000; stroke-width:1.000000; stroke-opacity:1;  stroke-linecap:round; stroke-linejoin:round;fill-rule:evenodd;" d="M 51800000.000000,49215000.000000 51811418.000000,49157597.000000 51843934.000000,49108934.000000 51892597.000000,49076418.000000 51950000.000000,49065000.000000 53300000.000000,49065000.000000 53357403.000000,49076418.000000 53406066.000000,49108934.000000 53438582.000000,49157597.000000 53450000.000000,49215000.000000 53450000.000000,49515000.000000 53438582.000000,49572403.000000 53406066.000000,49621066.000000 53357403.000000,49653582.000000 53300000.000000,49665000.000000 51950000.000000,49665000.000000 51892597.000000,49653582.000000 51843934.000000,49621066.000000 51811418.000000,49572403.000000 51800000.000000,49515000.000000 Z"/> 
<svg:path style="fill:#000000; fill-opacity:1.0;  stroke:#000000; stroke-width:1.000000; stroke-opacity:1;  stroke-linecap:round; stroke-linejoin:round;fill-rule:evenodd;" d="M 51800000.000000,47945000.000000 51811418.000000,47887597.000000 51843934.000000,47838934.000000 51892597.000000,47806418.000000 51950000.000000,47795000.000000 53300000.000000,47795000.000000 53357403.000000,47806418.000000 53406066.000000,47838934.000000 53438582.000000,47887597.000000 53450000.000000,47945000.000000 53450000.000000,48245000.000000 53438582.000000,48302403.000000 53406066.000000,48351066.000000 53357403.000000,48383582.000000 53300000.000000,48395000.000000 51950000.000000,48395000.000000 51892597.000000,48383582.000000 51843934.000000,48351066.000000 51811418.000000,48302403.000000 51800000.000000,48245000.000000 Z"/> 
</svg:g>
<svg:g>
</svg:g>
<svg:g>
</svg:g>
<svg:g>
</svg:g>
</svg:g>
<svg:g style="fill:#000000; fill-opacity:1.0;  stroke:#000000; stroke-width:1.000000; stroke-opacity:1;  stroke-linecap:round; stroke-linejoin:round;">
<svg:g>
</svg:g>
<svg:g>
</svg:g>
<svg:g>
</svg:g>
<svg:g>
</svg:g>
</svg:g> 
</svg:g><svg:g><svg:title>SVG Picture created as kicadBoard-F_Silkscreen.svg date 2022/12/01 20:29:11 </svg:title>
  <svg:desc>Picture generated by PCBNEW </svg:desc>
<svg:g style="fill:#000000; fill-opacity:1.000000;stroke:#000000; stroke-opacity:1.000000; stroke-linecap:round; stroke-linejoin:round;" transform="translate(0 0) scale(1 1)">
</svg:g>
<svg:g style="fill:#000000; fill-opacity:0.0;  stroke:#000000; stroke-width:0.000000; stroke-opacity:1;  stroke-linecap:round; stroke-linejoin:round;">
</svg:g>
<svg:g style="fill:#F2EDA1; fill-opacity:0.0;  stroke:#F2EDA1; stroke-width:0.000000; stroke-opacity:1;  stroke-linecap:round; stroke-linejoin:round;">
</svg:g>
<svg:g style="fill:#F2EDA1; fill-opacity:0.0;  stroke:#F2EDA1; stroke-width:150000.000000; stroke-opacity:1;  stroke-linecap:round; stroke-linejoin:round;">
<svg:text x="50000000.000000" y="47100000.000000" textLength="31000001.000000" font-size="1333333.000000" lengthAdjust="spacingAndGlyphs" text-anchor="middle" opacity="0">FZKSOINFINEONPGDSO82739X49EP265X3</svg:text>
<svg:g class="stroked-text"><svg:desc>FZKSOINFINEONPGDSO82739X49EP265X3</svg:desc>
<svg:path d="M35071428 46528571 L34738095 46528571 "/>
<svg:path d="M34738095 47052380 L34738095 46052380 L35214285 46052380 "/>
<svg:path d="M35500000 46052380 L36166666 46052380 L35500000 47052380 L36166666 47052380 "/>
<svg:path d="M36547619 47052380 L36547619 46052380 "/>
<svg:path d="M37119047 47052380 L36690476 46480952 "/>
<svg:path d="M37119047 46052380 L36547619 46623809 "/>
<svg:path d="M37500000 47004761 L37642857 47052380 L37880952 47052380 L37976190 47004761 L38023809 46957142 L38071428 46861904 L38071428 46766666 L38023809 46671428 L37976190 46623809 L37880952 46576190 L37690476 46528571 L37595238 46480952 L37547619 46433333 L37500000 46338095 L37500000 46242857 L37547619 46147619 L37595238 46100000 L37690476 46052380 L37928571 46052380 L38071428 46100000 "/>
<svg:path d="M38690476 46052380 L38880952 46052380 L38976190 46100000 L39071428 46195238 L39119047 46385714 L39119047 46719047 L39071428 46909523 L38976190 47004761 L38880952 47052380 L38690476 47052380 L38595238 47004761 L38500000 46909523 L38452380 46719047 L38452380 46385714 L38500000 46195238 L38595238 46100000 L38690476 46052380 "/>
<svg:path d="M39547619 47052380 L39547619 46052380 "/>
<svg:path d="M40023809 47052380 L40023809 46052380 L40595238 47052380 L40595238 46052380 "/>
<svg:path d="M41404761 46528571 L41071428 46528571 "/>
<svg:path d="M41071428 47052380 L41071428 46052380 L41547619 46052380 "/>
<svg:path d="M41928571 47052380 L41928571 46052380 "/>
<svg:path d="M42404761 47052380 L42404761 46052380 L42976190 47052380 L42976190 46052380 "/>
<svg:path d="M43452380 46528571 L43785714 46528571 "/>
<svg:path d="M43928571 47052380 L43452380 47052380 L43452380 46052380 L43928571 46052380 "/>
<svg:path d="M44547619 46052380 L44738095 46052380 L44833333 46100000 L44928571 46195238 L44976190 46385714 L44976190 46719047 L44928571 46909523 L44833333 47004761 L44738095 47052380 L44547619 47052380 L44452380 47004761 L44357142 46909523 L44309523 46719047 L44309523 46385714 L44357142 46195238 L44452380 46100000 L44547619 46052380 "/>
<svg:path d="M45404761 47052380 L45404761 46052380 L45976190 47052380 L45976190 46052380 "/>
<svg:path d="M46452380 47052380 L46452380 46052380 L46833333 46052380 L46928571 46100000 L46976190 46147619 L47023809 46242857 L47023809 46385714 L46976190 46480952 L46928571 46528571 L46833333 46576190 L46452380 46576190 "/>
<svg:path d="M47976190 46100000 L47880952 46052380 L47738095 46052380 L47595238 46100000 L47500000 46195238 L47452380 46290476 L47404761 46480952 L47404761 46623809 L47452380 46814285 L47500000 46909523 L47595238 47004761 L47738095 47052380 L47833333 47052380 L47976190 47004761 L48023809 46957142 L48023809 46623809 L47833333 46623809 "/>
<svg:path d="M48452380 47052380 L48452380 46052380 L48690476 46052380 L48833333 46100000 L48928571 46195238 L48976190 46290476 L49023809 46480952 L49023809 46623809 L48976190 46814285 L48928571 46909523 L48833333 47004761 L48690476 47052380 L48452380 47052380 "/>
<svg:path d="M49404761 47004761 L49547619 47052380 L49785714 47052380 L49880952 47004761 L49928571 46957142 L49976190 46861904 L49976190 46766666 L49928571 46671428 L49880952 46623809 L49785714 46576190 L49595238 46528571 L49500000 46480952 L49452380 46433333 L49404761 46338095 L49404761 46242857 L49452380 46147619 L49500000 46100000 L49595238 46052380 L49833333 46052380 L49976190 46100000 "/>
<svg:path d="M50595238 46052380 L50785714 46052380 L50880952 46100000 L50976190 46195238 L51023809 46385714 L51023809 46719047 L50976190 46909523 L50880952 47004761 L50785714 47052380 L50595238 47052380 L50500000 47004761 L50404761 46909523 L50357142 46719047 L50357142 46385714 L50404761 46195238 L50500000 46100000 L50595238 46052380 "/>
<svg:path d="M51595238 46480952 L51500000 46433333 L51452380 46385714 L51404761 46290476 L51404761 46242857 L51452380 46147619 L51500000 46100000 L51595238 46052380 L51785714 46052380 L51880952 46100000 L51928571 46147619 L51976190 46242857 L51976190 46290476 L51928571 46385714 L51880952 46433333 L51785714 46480952 L51595238 46480952 L51500000 46528571 L51452380 46576190 L51404761 46671428 L51404761 46861904 L51452380 46957142 L51500000 47004761 L51595238 47052380 L51785714 47052380 L51880952 47004761 L51928571 46957142 L51976190 46861904 L51976190 46671428 L51928571 46576190 L51880952 46528571 L51785714 46480952 "/>
<svg:path d="M52357142 46147619 L52404761 46100000 L52499999 46052380 L52738095 46052380 L52833333 46100000 L52880952 46147619 L52928571 46242857 L52928571 46338095 L52880952 46480952 L52309523 47052380 L52928571 47052380 "/>
<svg:path d="M53261904 46052380 L53928571 46052380 L53499999 47052380 "/>
<svg:path d="M54214285 46052380 L54833333 46052380 L54499999 46433333 L54642857 46433333 L54738095 46480952 L54785714 46528571 L54833333 46623809 L54833333 46861904 L54785714 46957142 L54738095 47004761 L54642857 47052380 L54357142 47052380 L54261904 47004761 L54214285 46957142 "/>
<svg:path d="M55309523 47052380 L55499999 47052380 L55595238 47004761 L55642857 46957142 L55738095 46814285 L55785714 46623809 L55785714 46242857 L55738095 46147619 L55690476 46100000 L55595238 46052380 L55404761 46052380 L55309523 46100000 L55261904 46147619 L55214285 46242857 L55214285 46480952 L55261904 46576190 L55309523 46623809 L55404761 46671428 L55595238 46671428 L55690476 46623809 L55738095 46576190 L55785714 46480952 "/>
<svg:path d="M56119047 46052380 L56785714 47052380 "/>
<svg:path d="M56785714 46052380 L56119047 47052380 "/>
<svg:path d="M57595238 46385714 L57595238 47052380 "/>
<svg:path d="M57357142 46004761 L57119047 46719047 L57738095 46719047 "/>
<svg:path d="M58166666 47052380 L58357142 47052380 L58452380 47004761 L58499999 46957142 L58595238 46814285 L58642857 46623809 L58642857 46242857 L58595238 46147619 L58547619 46100000 L58452380 46052380 L58261904 46052380 L58166666 46100000 L58119047 46147619 L58071428 46242857 L58071428 46480952 L58119047 46576190 L58166666 46623809 L58261904 46671428 L58452380 46671428 L58547619 46623809 L58595238 46576190 L58642857 46480952 "/>
<svg:path d="M59071428 46528571 L59404761 46528571 "/>
<svg:path d="M59547619 47052380 L59071428 47052380 L59071428 46052380 L59547619 46052380 "/>
<svg:path d="M59976190 47052380 L59976190 46052380 L60357142 46052380 L60452380 46100000 L60499999 46147619 L60547619 46242857 L60547619 46385714 L60499999 46480952 L60452380 46528571 L60357142 46576190 L59976190 46576190 "/>
<svg:path d="M60928571 46147619 L60976190 46100000 L61071428 46052380 L61309523 46052380 L61404761 46100000 L61452380 46147619 L61499999 46242857 L61499999 46338095 L61452380 46480952 L60880952 47052380 L61499999 47052380 "/>
<svg:path d="M62357142 46052380 L62166666 46052380 L62071428 46100000 L62023809 46147619 L61928571 46290476 L61880952 46480952 L61880952 46861904 L61928571 46957142 L61976190 47004761 L62071428 47052380 L62261904 47052380 L62357142 47004761 L62404761 46957142 L62452380 46861904 L62452380 46623809 L62404761 46528571 L62357142 46480952 L62261904 46433333 L62071428 46433333 L61976190 46480952 L61928571 46528571 L61880952 46623809 "/>
<svg:path d="M63357142 46052380 L62880952 46052380 L62833333 46528571 L62880952 46480952 L62976190 46433333 L63214285 46433333 L63309523 46480952 L63357142 46528571 L63404761 46623809 L63404761 46861904 L63357142 46957142 L63309523 47004761 L63214285 47052380 L62976190 47052380 L62880952 47004761 L62833333 46957142 "/>
<svg:path d="M63738095 46052380 L64404761 47052380 "/>
<svg:path d="M64404761 46052380 L63738095 47052380 "/>
<svg:path d="M64690476 46052380 L65309523 46052380 L64976190 46433333 L65119047 46433333 L65214285 46480952 L65261904 46528571 L65309523 46623809 L65309523 46861904 L65261904 46957142 L65214285 47004761 L65119047 47052380 L64833333 47052380 L64738095 47004761 L64690476 46957142 "/>
</svg:g></svg:g>
<svg:g style="fill:#F2EDA1; fill-opacity:0.0;  stroke:#F2EDA1; stroke-width:120000.000000; stroke-opacity:1;  stroke-linecap:round; stroke-linejoin:round;">
<svg:path d="M50000000 52560000 L48050000 52560000 "/>
<svg:path d="M50000000 52560000 L51950000 52560000 "/>
<svg:path d="M50000000 47440000 L46550000 47440000 "/>
<svg:path d="M50000000 47440000 L51950000 47440000 "/>
<svg:g>
</svg:g>
<svg:g>
</svg:g>
<svg:g>
</svg:g>
<svg:g>
</svg:g>
</svg:g>
<svg:g style="fill:#000000; fill-opacity:0.0;  stroke:#000000; stroke-width:120000.000000; stroke-opacity:1;  stroke-linecap:round; stroke-linejoin:round;">
<svg:g>
</svg:g>
<svg:g>
</svg:g>
<svg:g>
</svg:g>
<svg:g>
</svg:g>
</svg:g> 
</svg:g><svg:g><svg:title>SVG Picture created as kicadBoard-Margin.svg date 2022/12/01 20:29:11 </svg:title>
  <svg:desc>Picture generated by PCBNEW </svg:desc>
<svg:g style="fill:#000000; fill-opacity:1.000000;stroke:#000000; stroke-opacity:1.000000; stroke-linecap:round; stroke-linejoin:round;" transform="translate(0 0) scale(1 1)">
</svg:g>
<svg:g style="fill:#000000; fill-opacity:0.0;  stroke:#000000; stroke-width:0.000000; stroke-opacity:1;  stroke-linecap:round; stroke-linejoin:round;">
<svg:g>
</svg:g>
<svg:g>
</svg:g>
<svg:g>
</svg:g>
<svg:g>
</svg:g>
</svg:g>
<svg:g style="fill:#000000; fill-opacity:0.0;  stroke:#000000; stroke-width:0.000000; stroke-opacity:1;  stroke-linecap:round; stroke-linejoin:round;">
<svg:g>
</svg:g>
<svg:g>
</svg:g>
<svg:g>
</svg:g>
<svg:g>
</svg:g>
</svg:g> 
</svg:g><svg:g><svg:title>SVG Picture created as kicadBoard-F_Cu.svg date 2022/12/01 20:29:11 </svg:title>
  <svg:desc>Picture generated by PCBNEW </svg:desc>
<svg:g style="fill:#000000; fill-opacity:1.000000;stroke:#000000; stroke-opacity:1.000000; stroke-linecap:round; stroke-linejoin:round;" transform="translate(0 0) scale(1 1)">
</svg:g>
<svg:g style="fill:#000000; fill-opacity:0.0;  stroke:#000000; stroke-width:0.000000; stroke-opacity:1;  stroke-linecap:round; stroke-linejoin:round;">
<svg:g>
</svg:g>
<svg:g style="fill:#C83434; fill-opacity:0.0;  stroke:#C83434; stroke-width:0.000000; stroke-opacity:1;  stroke-linecap:round; stroke-linejoin:round;">
</svg:g>
<svg:g style="fill:#C83434; fill-opacity:0.0;  stroke:#C83434; stroke-width:1.000000; stroke-opacity:1;  stroke-linecap:round; stroke-linejoin:round;">
</svg:g>
<svg:g style="fill:#C83434; fill-opacity:1.0;  stroke:#C83434; stroke-width:1.000000; stroke-opacity:1;  stroke-linecap:round; stroke-linejoin:round;">
<svg:path style="fill:#C83434; fill-opacity:1.0;  stroke:#C83434; stroke-width:1.000000; stroke-opacity:1;  stroke-linecap:round; stroke-linejoin:round;fill-rule:evenodd;" d="M 46550000.000000,47945000.000000 46561418.000000,47887597.000000 46593934.000000,47838934.000000 46642597.000000,47806418.000000 46700000.000000,47795000.000000 48050000.000000,47795000.000000 48107403.000000,47806418.000000 48156066.000000,47838934.000000 48188582.000000,47887597.000000 48200000.000000,47945000.000000 48200000.000000,48245000.000000 48188582.000000,48302403.000000 48156066.000000,48351066.000000 48107403.000000,48383582.000000 48050000.000000,48395000.000000 46700000.000000,48395000.000000 46642597.000000,48383582.000000 46593934.000000,48351066.000000 46561418.000000,48302403.000000 46550000.000000,48245000.000000 Z"/> 
<svg:path style="fill:#C83434; fill-opacity:1.0;  stroke:#C83434; stroke-width:1.000000; stroke-opacity:1;  stroke-linecap:round; stroke-linejoin:round;fill-rule:evenodd;" d="M 46550000.000000,49215000.000000 46561418.000000,49157597.000000 46593934.000000,49108934.000000 46642597.000000,49076418.000000 46700000.000000,49065000.000000 48050000.000000,49065000.000000 48107403.000000,49076418.000000 48156066.000000,49108934.000000 48188582.000000,49157597.000000 48200000.000000,49215000.000000 48200000.000000,49515000.000000 48188582.000000,49572403.000000 48156066.000000,49621066.000000 48107403.000000,49653582.000000 48050000.000000,49665000.000000 46700000.000000,49665000.000000 46642597.000000,49653582.000000 46593934.000000,49621066.000000 46561418.000000,49572403.000000 46550000.000000,49515000.000000 Z"/> 
<svg:path style="fill:#C83434; fill-opacity:1.0;  stroke:#C83434; stroke-width:1.000000; stroke-opacity:1;  stroke-linecap:round; stroke-linejoin:round;fill-rule:evenodd;" d="M 46550000.000000,50485000.000000 46561418.000000,50427597.000000 46593934.000000,50378934.000000 46642597.000000,50346418.000000 46700000.000000,50335000.000000 48050000.000000,50335000.000000 48107403.000000,50346418.000000 48156066.000000,50378934.000000 48188582.000000,50427597.000000 48200000.000000,50485000.000000 48200000.000000,50785000.000000 48188582.000000,50842403.000000 48156066.000000,50891066.000000 48107403.000000,50923582.000000 48050000.000000,50935000.000000 46700000.000000,50935000.000000 46642597.000000,50923582.000000 46593934.000000,50891066.000000 46561418.000000,50842403.000000 46550000.000000,50785000.000000 Z"/> 
<svg:path style="fill:#C83434; fill-opacity:1.0;  stroke:#C83434; stroke-width:1.000000; stroke-opacity:1;  stroke-linecap:round; stroke-linejoin:round;fill-rule:evenodd;" d="M 46550000.000000,51755000.000000 46561418.000000,51697597.000000 46593934.000000,51648934.000000 46642597.000000,51616418.000000 46700000.000000,51605000.000000 48050000.000000,51605000.000000 48107403.000000,51616418.000000 48156066.000000,51648934.000000 48188582.000000,51697597.000000 48200000.000000,51755000.000000 48200000.000000,52055000.000000 48188582.000000,52112403.000000 48156066.000000,52161066.000000 48107403.000000,52193582.000000 48050000.000000,52205000.000000 46700000.000000,52205000.000000 46642597.000000,52193582.000000 46593934.000000,52161066.000000 46561418.000000,52112403.000000 46550000.000000,52055000.000000 Z"/> 
<svg:path style="fill:#C83434; fill-opacity:1.0;  stroke:#C83434; stroke-width:1.000000; stroke-opacity:1;  stroke-linecap:round; stroke-linejoin:round;fill-rule:evenodd;" d="M 51800000.000000,51755000.000000 51811418.000000,51697597.000000 51843934.000000,51648934.000000 51892597.000000,51616418.000000 51950000.000000,51605000.000000 53300000.000000,51605000.000000 53357403.000000,51616418.000000 53406066.000000,51648934.000000 53438582.000000,51697597.000000 53450000.000000,51755000.000000 53450000.000000,52055000.000000 53438582.000000,52112403.000000 53406066.000000,52161066.000000 53357403.000000,52193582.000000 53300000.000000,52205000.000000 51950000.000000,52205000.000000 51892597.000000,52193582.000000 51843934.000000,52161066.000000 51811418.000000,52112403.000000 51800000.000000,52055000.000000 Z"/> 
<svg:path style="fill:#C83434; fill-opacity:1.0;  stroke:#C83434; stroke-width:1.000000; stroke-opacity:1;  stroke-linecap:round; stroke-linejoin:round;fill-rule:evenodd;" d="M 51800000.000000,50485000.000000 51811418.000000,50427597.000000 51843934.000000,50378934.000000 51892597.000000,50346418.000000 51950000.000000,50335000.000000 53300000.000000,50335000.000000 53357403.000000,50346418.000000 53406066.000000,50378934.000000 53438582.000000,50427597.000000 53450000.000000,50485000.000000 53450000.000000,50785000.000000 53438582.000000,50842403.000000 53406066.000000,50891066.000000 53357403.000000,50923582.000000 53300000.000000,50935000.000000 51950000.000000,50935000.000000 51892597.000000,50923582.000000 51843934.000000,50891066.000000 51811418.000000,50842403.000000 51800000.000000,50785000.000000 Z"/> 
<svg:path style="fill:#C83434; fill-opacity:1.0;  stroke:#C83434; stroke-width:1.000000; stroke-opacity:1;  stroke-linecap:round; stroke-linejoin:round;fill-rule:evenodd;" d="M 51800000.000000,49215000.000000 51811418.000000,49157597.000000 51843934.000000,49108934.000000 51892597.000000,49076418.000000 51950000.000000,49065000.000000 53300000.000000,49065000.000000 53357403.000000,49076418.000000 53406066.000000,49108934.000000 53438582.000000,49157597.000000 53450000.000000,49215000.000000 53450000.000000,49515000.000000 53438582.000000,49572403.000000 53406066.000000,49621066.000000 53357403.000000,49653582.000000 53300000.000000,49665000.000000 51950000.000000,49665000.000000 51892597.000000,49653582.000000 51843934.000000,49621066.000000 51811418.000000,49572403.000000 51800000.000000,49515000.000000 Z"/> 
<svg:path style="fill:#C83434; fill-opacity:1.0;  stroke:#C83434; stroke-width:1.000000; stroke-opacity:1;  stroke-linecap:round; stroke-linejoin:round;fill-rule:evenodd;" d="M 51800000.000000,47945000.000000 51811418.000000,47887597.000000 51843934.000000,47838934.000000 51892597.000000,47806418.000000 51950000.000000,47795000.000000 53300000.000000,47795000.000000 53357403.000000,47806418.000000 53406066.000000,47838934.000000 53438582.000000,47887597.000000 53450000.000000,47945000.000000 53450000.000000,48245000.000000 53438582.000000,48302403.000000 53406066.000000,48351066.000000 53357403.000000,48383582.000000 53300000.000000,48395000.000000 51950000.000000,48395000.000000 51892597.000000,48383582.000000 51843934.000000,48351066.000000 51811418.000000,48302403.000000 51800000.000000,48245000.000000 Z"/> 
<svg:path style="fill:#C83434; fill-opacity:1.0;  stroke:#C83434; stroke-width:1.000000; stroke-opacity:1;  stroke-linecap:round; stroke-linejoin:round;fill-rule:evenodd;" d="M 48675001.000000,51499999.000000 48675001.000000,48500001.000000 51324999.000000,48500001.000000 51324999.000000,51499999.000000 Z"/> 
</svg:g>
<svg:g>
</svg:g>
<svg:g>
</svg:g>
<svg:g>
</svg:g>
</svg:g>
<svg:g style="fill:#FFFFFF; fill-opacity:1.0;  stroke:#FFFFFF; stroke-width:1.000000; stroke-opacity:1;  stroke-linecap:round; stroke-linejoin:round;">
</svg:g>
<svg:g style="fill:#000000; fill-opacity:1.0;  stroke:#000000; stroke-width:1.000000; stroke-opacity:1;  stroke-linecap:round; stroke-linejoin:round;">
<svg:g>
</svg:g>
<svg:g>
</svg:g>
<svg:g>
</svg:g>
<svg:g>
</svg:g>
</svg:g> 
</svg:g></svg>
