<?xml version='1.0' encoding='ASCII' standalone='yes'?>
<svg xmlns:svg="http://www.w3.org/2000/svg" xmlns="http://www.w3.org/2000/svg" xmlns:xlink="http://www.w3.org/1999/xlink" version="1.1" width="9.999980cm" height="9.999980cm" viewBox="0 0 99999800 99999800">
<title>SVG Picture created as kicadBoard-B_Cu.svg date 2022/12/03 01:08:45 </title>
  <desc>Picture generated by PCBNEW </desc>
<g style="fill:#000000; fill-opacity:1.000000;stroke:#000000; stroke-opacity:1.000000; stroke-linecap:round; stroke-linejoin:round;" transform="translate(0 0) scale(1 1)">
</g>
<g style="fill:#000000; fill-opacity:0.0;  stroke:#000000; stroke-width:0.000000; stroke-opacity:1;  stroke-linecap:round; stroke-linejoin:round;">
<g>
</g>
<g>
</g>
<g>
</g>
<g>
</g>
</g>
<g style="fill:#FFFFFF; fill-opacity:0.0;  stroke:#FFFFFF; stroke-width:0.000000; stroke-opacity:1;  stroke-linecap:round; stroke-linejoin:round;">
</g>
<g style="fill:#000000; fill-opacity:0.0;  stroke:#000000; stroke-width:0.000000; stroke-opacity:1;  stroke-linecap:round; stroke-linejoin:round;">
<g>
</g>
<g>
</g>
<g>
</g>
<g>
</g>
</g> 
<svg:g><svg:title>SVG Picture created as kicadBoard-B_Courtyard.svg date 2022/12/03 01:08:46 </svg:title>
  <svg:desc>Picture generated by PCBNEW </svg:desc>
<svg:g style="fill:#000000; fill-opacity:1.000000;stroke:#000000; stroke-opacity:1.000000; stroke-linecap:round; stroke-linejoin:round;" transform="translate(0 0) scale(1 1)">
</svg:g>
<svg:g style="fill:#000000; fill-opacity:0.0;  stroke:#000000; stroke-width:0.000000; stroke-opacity:1;  stroke-linecap:round; stroke-linejoin:round;">
<svg:g>
</svg:g>
<svg:g>
</svg:g>
<svg:g>
</svg:g>
<svg:g>
</svg:g>
</svg:g>
<svg:g style="fill:#000000; fill-opacity:0.0;  stroke:#000000; stroke-width:0.000000; stroke-opacity:1;  stroke-linecap:round; stroke-linejoin:round;">
<svg:g>
</svg:g>
<svg:g>
</svg:g>
<svg:g>
</svg:g>
<svg:g>
</svg:g>
</svg:g> 
</svg:g><svg:g><svg:title>SVG Picture created as kicadBoard-F_Courtyard.svg date 2022/12/03 01:08:46 </svg:title>
  <svg:desc>Picture generated by PCBNEW </svg:desc>
<svg:g style="fill:#000000; fill-opacity:1.000000;stroke:#000000; stroke-opacity:1.000000; stroke-linecap:round; stroke-linejoin:round;" transform="translate(0 0) scale(1 1)">
</svg:g>
<svg:g style="fill:#000000; fill-opacity:0.0;  stroke:#000000; stroke-width:0.000000; stroke-opacity:1;  stroke-linecap:round; stroke-linejoin:round;">
<svg:g>
</svg:g>
<svg:g>
</svg:g>
<svg:g>
</svg:g>
<svg:g>
</svg:g>
</svg:g>
<svg:g style="fill:#000000; fill-opacity:0.0;  stroke:#000000; stroke-width:0.000000; stroke-opacity:1;  stroke-linecap:round; stroke-linejoin:round;">
<svg:g>
</svg:g>
<svg:g>
</svg:g>
<svg:g>
</svg:g>
<svg:g>
</svg:g>
</svg:g> 
</svg:g><svg:g><svg:title>SVG Picture created as kicadBoard-F_Cu.svg date 2022/12/03 01:08:45 </svg:title>
  <svg:desc>Picture generated by PCBNEW </svg:desc>
<svg:g style="fill:#000000; fill-opacity:1.000000;stroke:#000000; stroke-opacity:1.000000; stroke-linecap:round; stroke-linejoin:round;" transform="translate(0 0) scale(1 1)">
</svg:g>
<svg:g style="fill:#000000; fill-opacity:0.0;  stroke:#000000; stroke-width:0.000000; stroke-opacity:1;  stroke-linecap:round; stroke-linejoin:round;">
<svg:g>
</svg:g>
<svg:g style="fill:#C83434; fill-opacity:0.0;  stroke:#C83434; stroke-width:0.000000; stroke-opacity:1;  stroke-linecap:round; stroke-linejoin:round;">
</svg:g>
<svg:g style="fill:#C83434; fill-opacity:0.0;  stroke:#C83434; stroke-width:1.000000; stroke-opacity:1;  stroke-linecap:round; stroke-linejoin:round;">
</svg:g>
<svg:g style="fill:#C83434; fill-opacity:1.0;  stroke:#C83434; stroke-width:1.000000; stroke-opacity:1;  stroke-linecap:round; stroke-linejoin:round;">
<svg:path style="fill:#C83434; fill-opacity:1.0;  stroke:#C83434; stroke-width:1.000000; stroke-opacity:1;  stroke-linecap:round; stroke-linejoin:round;fill-rule:evenodd;" d="M 32400001.000000,35409999.000000 32400001.000000,35090001.000000 33599999.000000,35090001.000000 33599999.000000,35409999.000000 Z"/> 
<svg:path style="fill:#C83434; fill-opacity:1.0;  stroke:#C83434; stroke-width:1.000000; stroke-opacity:1;  stroke-linecap:round; stroke-linejoin:round;fill-rule:evenodd;" d="M 32400001.000000,35909999.000000 32400001.000000,35590001.000000 33599999.000000,35590001.000000 33599999.000000,35909999.000000 Z"/> 
<svg:path style="fill:#C83434; fill-opacity:1.0;  stroke:#C83434; stroke-width:1.000000; stroke-opacity:1;  stroke-linecap:round; stroke-linejoin:round;fill-rule:evenodd;" d="M 32400001.000000,36409999.000000 32400001.000000,36090001.000000 33599999.000000,36090001.000000 33599999.000000,36409999.000000 Z"/> 
<svg:path style="fill:#C83434; fill-opacity:1.0;  stroke:#C83434; stroke-width:1.000000; stroke-opacity:1;  stroke-linecap:round; stroke-linejoin:round;fill-rule:evenodd;" d="M 32400001.000000,36909999.000000 32400001.000000,36590001.000000 33599999.000000,36590001.000000 33599999.000000,36909999.000000 Z"/> 
<svg:path style="fill:#C83434; fill-opacity:1.0;  stroke:#C83434; stroke-width:1.000000; stroke-opacity:1;  stroke-linecap:round; stroke-linejoin:round;fill-rule:evenodd;" d="M 32400001.000000,37409999.000000 32400001.000000,37090001.000000 33599999.000000,37090001.000000 33599999.000000,37409999.000000 Z"/> 
<svg:path style="fill:#C83434; fill-opacity:1.0;  stroke:#C83434; stroke-width:1.000000; stroke-opacity:1;  stroke-linecap:round; stroke-linejoin:round;fill-rule:evenodd;" d="M 32400001.000000,37909999.000000 32400001.000000,37590001.000000 33599999.000000,37590001.000000 33599999.000000,37909999.000000 Z"/> 
<svg:path style="fill:#C83434; fill-opacity:1.0;  stroke:#C83434; stroke-width:1.000000; stroke-opacity:1;  stroke-linecap:round; stroke-linejoin:round;fill-rule:evenodd;" d="M 32400001.000000,38409999.000000 32400001.000000,38090001.000000 33599999.000000,38090001.000000 33599999.000000,38409999.000000 Z"/> 
<svg:path style="fill:#C83434; fill-opacity:1.0;  stroke:#C83434; stroke-width:1.000000; stroke-opacity:1;  stroke-linecap:round; stroke-linejoin:round;fill-rule:evenodd;" d="M 32400001.000000,38909999.000000 32400001.000000,38590001.000000 33599999.000000,38590001.000000 33599999.000000,38909999.000000 Z"/> 
<svg:path style="fill:#C83434; fill-opacity:1.0;  stroke:#C83434; stroke-width:1.000000; stroke-opacity:1;  stroke-linecap:round; stroke-linejoin:round;fill-rule:evenodd;" d="M 32400001.000000,39409999.000000 32400001.000000,39090001.000000 33599999.000000,39090001.000000 33599999.000000,39409999.000000 Z"/> 
<svg:path style="fill:#C83434; fill-opacity:1.0;  stroke:#C83434; stroke-width:1.000000; stroke-opacity:1;  stroke-linecap:round; stroke-linejoin:round;fill-rule:evenodd;" d="M 32400001.000000,39909999.000000 32400001.000000,39590001.000000 33599999.000000,39590001.000000 33599999.000000,39909999.000000 Z"/> 
<svg:path style="fill:#C83434; fill-opacity:1.0;  stroke:#C83434; stroke-width:1.000000; stroke-opacity:1;  stroke-linecap:round; stroke-linejoin:round;fill-rule:evenodd;" d="M 32400001.000000,40409999.000000 32400001.000000,40090001.000000 33599999.000000,40090001.000000 33599999.000000,40409999.000000 Z"/> 
<svg:path style="fill:#C83434; fill-opacity:1.0;  stroke:#C83434; stroke-width:1.000000; stroke-opacity:1;  stroke-linecap:round; stroke-linejoin:round;fill-rule:evenodd;" d="M 32400001.000000,40909999.000000 32400001.000000,40590001.000000 33599999.000000,40590001.000000 33599999.000000,40909999.000000 Z"/> 
<svg:path style="fill:#C83434; fill-opacity:1.0;  stroke:#C83434; stroke-width:1.000000; stroke-opacity:1;  stroke-linecap:round; stroke-linejoin:round;fill-rule:evenodd;" d="M 32400001.000000,41409999.000000 32400001.000000,41090001.000000 33599999.000000,41090001.000000 33599999.000000,41409999.000000 Z"/> 
<svg:path style="fill:#C83434; fill-opacity:1.0;  stroke:#C83434; stroke-width:1.000000; stroke-opacity:1;  stroke-linecap:round; stroke-linejoin:round;fill-rule:evenodd;" d="M 32400001.000000,41909999.000000 32400001.000000,41590001.000000 33599999.000000,41590001.000000 33599999.000000,41909999.000000 Z"/> 
<svg:path style="fill:#C83434; fill-opacity:1.0;  stroke:#C83434; stroke-width:1.000000; stroke-opacity:1;  stroke-linecap:round; stroke-linejoin:round;fill-rule:evenodd;" d="M 32400001.000000,42409999.000000 32400001.000000,42090001.000000 33599999.000000,42090001.000000 33599999.000000,42409999.000000 Z"/> 
<svg:path style="fill:#C83434; fill-opacity:1.0;  stroke:#C83434; stroke-width:1.000000; stroke-opacity:1;  stroke-linecap:round; stroke-linejoin:round;fill-rule:evenodd;" d="M 32400001.000000,42909999.000000 32400001.000000,42590001.000000 33599999.000000,42590001.000000 33599999.000000,42909999.000000 Z"/> 
<svg:path style="fill:#C83434; fill-opacity:1.0;  stroke:#C83434; stroke-width:1.000000; stroke-opacity:1;  stroke-linecap:round; stroke-linejoin:round;fill-rule:evenodd;" d="M 32400001.000000,43409999.000000 32400001.000000,43090001.000000 33599999.000000,43090001.000000 33599999.000000,43409999.000000 Z"/> 
<svg:path style="fill:#C83434; fill-opacity:1.0;  stroke:#C83434; stroke-width:1.000000; stroke-opacity:1;  stroke-linecap:round; stroke-linejoin:round;fill-rule:evenodd;" d="M 32400001.000000,43909999.000000 32400001.000000,43590001.000000 33599999.000000,43590001.000000 33599999.000000,43909999.000000 Z"/> 
<svg:path style="fill:#C83434; fill-opacity:1.0;  stroke:#C83434; stroke-width:1.000000; stroke-opacity:1;  stroke-linecap:round; stroke-linejoin:round;fill-rule:evenodd;" d="M 32400001.000000,44409999.000000 32400001.000000,44090001.000000 33599999.000000,44090001.000000 33599999.000000,44409999.000000 Z"/> 
<svg:path style="fill:#C83434; fill-opacity:1.0;  stroke:#C83434; stroke-width:1.000000; stroke-opacity:1;  stroke-linecap:round; stroke-linejoin:round;fill-rule:evenodd;" d="M 32400001.000000,44909999.000000 32400001.000000,44590001.000000 33599999.000000,44590001.000000 33599999.000000,44909999.000000 Z"/> 
<svg:path style="fill:#C83434; fill-opacity:1.0;  stroke:#C83434; stroke-width:1.000000; stroke-opacity:1;  stroke-linecap:round; stroke-linejoin:round;fill-rule:evenodd;" d="M 32400001.000000,45409999.000000 32400001.000000,45090001.000000 33599999.000000,45090001.000000 33599999.000000,45409999.000000 Z"/> 
<svg:path style="fill:#C83434; fill-opacity:1.0;  stroke:#C83434; stroke-width:1.000000; stroke-opacity:1;  stroke-linecap:round; stroke-linejoin:round;fill-rule:evenodd;" d="M 32400001.000000,45909999.000000 32400001.000000,45590001.000000 33599999.000000,45590001.000000 33599999.000000,45909999.000000 Z"/> 
<svg:path style="fill:#C83434; fill-opacity:1.0;  stroke:#C83434; stroke-width:1.000000; stroke-opacity:1;  stroke-linecap:round; stroke-linejoin:round;fill-rule:evenodd;" d="M 32400001.000000,46409999.000000 32400001.000000,46090001.000000 33599999.000000,46090001.000000 33599999.000000,46409999.000000 Z"/> 
<svg:path style="fill:#C83434; fill-opacity:1.0;  stroke:#C83434; stroke-width:1.000000; stroke-opacity:1;  stroke-linecap:round; stroke-linejoin:round;fill-rule:evenodd;" d="M 32400001.000000,46909999.000000 32400001.000000,46590001.000000 33599999.000000,46590001.000000 33599999.000000,46909999.000000 Z"/> 
<svg:path style="fill:#C83434; fill-opacity:1.0;  stroke:#C83434; stroke-width:1.000000; stroke-opacity:1;  stroke-linecap:round; stroke-linejoin:round;fill-rule:evenodd;" d="M 32400001.000000,47409999.000000 32400001.000000,47090001.000000 33599999.000000,47090001.000000 33599999.000000,47409999.000000 Z"/> 
<svg:path style="fill:#C83434; fill-opacity:1.0;  stroke:#C83434; stroke-width:1.000000; stroke-opacity:1;  stroke-linecap:round; stroke-linejoin:round;fill-rule:evenodd;" d="M 32400001.000000,47909999.000000 32400001.000000,47590001.000000 33599999.000000,47590001.000000 33599999.000000,47909999.000000 Z"/> 
<svg:path style="fill:#C83434; fill-opacity:1.0;  stroke:#C83434; stroke-width:1.000000; stroke-opacity:1;  stroke-linecap:round; stroke-linejoin:round;fill-rule:evenodd;" d="M 32400001.000000,48409999.000000 32400001.000000,48090001.000000 33599999.000000,48090001.000000 33599999.000000,48409999.000000 Z"/> 
<svg:path style="fill:#C83434; fill-opacity:1.0;  stroke:#C83434; stroke-width:1.000000; stroke-opacity:1;  stroke-linecap:round; stroke-linejoin:round;fill-rule:evenodd;" d="M 32400001.000000,48909999.000000 32400001.000000,48590001.000000 33599999.000000,48590001.000000 33599999.000000,48909999.000000 Z"/> 
<svg:path style="fill:#C83434; fill-opacity:1.0;  stroke:#C83434; stroke-width:1.000000; stroke-opacity:1;  stroke-linecap:round; stroke-linejoin:round;fill-rule:evenodd;" d="M 32400001.000000,49409999.000000 32400001.000000,49090001.000000 33599999.000000,49090001.000000 33599999.000000,49409999.000000 Z"/> 
<svg:path style="fill:#C83434; fill-opacity:1.0;  stroke:#C83434; stroke-width:1.000000; stroke-opacity:1;  stroke-linecap:round; stroke-linejoin:round;fill-rule:evenodd;" d="M 32400001.000000,49909999.000000 32400001.000000,49590001.000000 33599999.000000,49590001.000000 33599999.000000,49909999.000000 Z"/> 
<svg:path style="fill:#C83434; fill-opacity:1.0;  stroke:#C83434; stroke-width:1.000000; stroke-opacity:1;  stroke-linecap:round; stroke-linejoin:round;fill-rule:evenodd;" d="M 32400001.000000,50409999.000000 32400001.000000,50090001.000000 33599999.000000,50090001.000000 33599999.000000,50409999.000000 Z"/> 
<svg:path style="fill:#C83434; fill-opacity:1.0;  stroke:#C83434; stroke-width:1.000000; stroke-opacity:1;  stroke-linecap:round; stroke-linejoin:round;fill-rule:evenodd;" d="M 32400001.000000,50909999.000000 32400001.000000,50590001.000000 33599999.000000,50590001.000000 33599999.000000,50909999.000000 Z"/> 
<svg:path style="fill:#C83434; fill-opacity:1.0;  stroke:#C83434; stroke-width:1.000000; stroke-opacity:1;  stroke-linecap:round; stroke-linejoin:round;fill-rule:evenodd;" d="M 32400001.000000,51409999.000000 32400001.000000,51090001.000000 33599999.000000,51090001.000000 33599999.000000,51409999.000000 Z"/> 
<svg:path style="fill:#C83434; fill-opacity:1.0;  stroke:#C83434; stroke-width:1.000000; stroke-opacity:1;  stroke-linecap:round; stroke-linejoin:round;fill-rule:evenodd;" d="M 32400001.000000,51909999.000000 32400001.000000,51590001.000000 33599999.000000,51590001.000000 33599999.000000,51909999.000000 Z"/> 
<svg:path style="fill:#C83434; fill-opacity:1.0;  stroke:#C83434; stroke-width:1.000000; stroke-opacity:1;  stroke-linecap:round; stroke-linejoin:round;fill-rule:evenodd;" d="M 32400001.000000,52409999.000000 32400001.000000,52090001.000000 33599999.000000,52090001.000000 33599999.000000,52409999.000000 Z"/> 
<svg:path style="fill:#C83434; fill-opacity:1.0;  stroke:#C83434; stroke-width:1.000000; stroke-opacity:1;  stroke-linecap:round; stroke-linejoin:round;fill-rule:evenodd;" d="M 32400001.000000,52909999.000000 32400001.000000,52590001.000000 33599999.000000,52590001.000000 33599999.000000,52909999.000000 Z"/> 
<svg:path style="fill:#C83434; fill-opacity:1.0;  stroke:#C83434; stroke-width:1.000000; stroke-opacity:1;  stroke-linecap:round; stroke-linejoin:round;fill-rule:evenodd;" d="M 32400001.000000,53409999.000000 32400001.000000,53090001.000000 33599999.000000,53090001.000000 33599999.000000,53409999.000000 Z"/> 
<svg:path style="fill:#C83434; fill-opacity:1.0;  stroke:#C83434; stroke-width:1.000000; stroke-opacity:1;  stroke-linecap:round; stroke-linejoin:round;fill-rule:evenodd;" d="M 32400001.000000,53909999.000000 32400001.000000,53590001.000000 33599999.000000,53590001.000000 33599999.000000,53909999.000000 Z"/> 
<svg:path style="fill:#C83434; fill-opacity:1.0;  stroke:#C83434; stroke-width:1.000000; stroke-opacity:1;  stroke-linecap:round; stroke-linejoin:round;fill-rule:evenodd;" d="M 32400001.000000,54409999.000000 32400001.000000,54090001.000000 33599999.000000,54090001.000000 33599999.000000,54409999.000000 Z"/> 
<svg:path style="fill:#C83434; fill-opacity:1.0;  stroke:#C83434; stroke-width:1.000000; stroke-opacity:1;  stroke-linecap:round; stroke-linejoin:round;fill-rule:evenodd;" d="M 32400001.000000,54909999.000000 32400001.000000,54590001.000000 33599999.000000,54590001.000000 33599999.000000,54909999.000000 Z"/> 
<svg:path style="fill:#C83434; fill-opacity:1.0;  stroke:#C83434; stroke-width:1.000000; stroke-opacity:1;  stroke-linecap:round; stroke-linejoin:round;fill-rule:evenodd;" d="M 32400001.000000,55409999.000000 32400001.000000,55090001.000000 33599999.000000,55090001.000000 33599999.000000,55409999.000000 Z"/> 
<svg:path style="fill:#C83434; fill-opacity:1.0;  stroke:#C83434; stroke-width:1.000000; stroke-opacity:1;  stroke-linecap:round; stroke-linejoin:round;fill-rule:evenodd;" d="M 32400001.000000,55909999.000000 32400001.000000,55590001.000000 33599999.000000,55590001.000000 33599999.000000,55909999.000000 Z"/> 
<svg:path style="fill:#C83434; fill-opacity:1.0;  stroke:#C83434; stroke-width:1.000000; stroke-opacity:1;  stroke-linecap:round; stroke-linejoin:round;fill-rule:evenodd;" d="M 32400001.000000,56409999.000000 32400001.000000,56090001.000000 33599999.000000,56090001.000000 33599999.000000,56409999.000000 Z"/> 
<svg:path style="fill:#C83434; fill-opacity:1.0;  stroke:#C83434; stroke-width:1.000000; stroke-opacity:1;  stroke-linecap:round; stroke-linejoin:round;fill-rule:evenodd;" d="M 32400001.000000,56909999.000000 32400001.000000,56590001.000000 33599999.000000,56590001.000000 33599999.000000,56909999.000000 Z"/> 
<svg:path style="fill:#C83434; fill-opacity:1.0;  stroke:#C83434; stroke-width:1.000000; stroke-opacity:1;  stroke-linecap:round; stroke-linejoin:round;fill-rule:evenodd;" d="M 32400001.000000,57409999.000000 32400001.000000,57090001.000000 33599999.000000,57090001.000000 33599999.000000,57409999.000000 Z"/> 
<svg:path style="fill:#C83434; fill-opacity:1.0;  stroke:#C83434; stroke-width:1.000000; stroke-opacity:1;  stroke-linecap:round; stroke-linejoin:round;fill-rule:evenodd;" d="M 32400001.000000,57909999.000000 32400001.000000,57590001.000000 33599999.000000,57590001.000000 33599999.000000,57909999.000000 Z"/> 
<svg:path style="fill:#C83434; fill-opacity:1.0;  stroke:#C83434; stroke-width:1.000000; stroke-opacity:1;  stroke-linecap:round; stroke-linejoin:round;fill-rule:evenodd;" d="M 32400001.000000,58409999.000000 32400001.000000,58090001.000000 33599999.000000,58090001.000000 33599999.000000,58409999.000000 Z"/> 
<svg:path style="fill:#C83434; fill-opacity:1.0;  stroke:#C83434; stroke-width:1.000000; stroke-opacity:1;  stroke-linecap:round; stroke-linejoin:round;fill-rule:evenodd;" d="M 32400001.000000,58909999.000000 32400001.000000,58590001.000000 33599999.000000,58590001.000000 33599999.000000,58909999.000000 Z"/> 
<svg:path style="fill:#C83434; fill-opacity:1.0;  stroke:#C83434; stroke-width:1.000000; stroke-opacity:1;  stroke-linecap:round; stroke-linejoin:round;fill-rule:evenodd;" d="M 32400001.000000,59409999.000000 32400001.000000,59090001.000000 33599999.000000,59090001.000000 33599999.000000,59409999.000000 Z"/> 
<svg:path style="fill:#C83434; fill-opacity:1.0;  stroke:#C83434; stroke-width:1.000000; stroke-opacity:1;  stroke-linecap:round; stroke-linejoin:round;fill-rule:evenodd;" d="M 32400001.000000,59909999.000000 32400001.000000,59590001.000000 33599999.000000,59590001.000000 33599999.000000,59909999.000000 Z"/> 
<svg:path style="fill:#C83434; fill-opacity:1.0;  stroke:#C83434; stroke-width:1.000000; stroke-opacity:1;  stroke-linecap:round; stroke-linejoin:round;fill-rule:evenodd;" d="M 32400001.000000,60409999.000000 32400001.000000,60090001.000000 33599999.000000,60090001.000000 33599999.000000,60409999.000000 Z"/> 
<svg:path style="fill:#C83434; fill-opacity:1.0;  stroke:#C83434; stroke-width:1.000000; stroke-opacity:1;  stroke-linecap:round; stroke-linejoin:round;fill-rule:evenodd;" d="M 32400001.000000,60909999.000000 32400001.000000,60590001.000000 33599999.000000,60590001.000000 33599999.000000,60909999.000000 Z"/> 
<svg:path style="fill:#C83434; fill-opacity:1.0;  stroke:#C83434; stroke-width:1.000000; stroke-opacity:1;  stroke-linecap:round; stroke-linejoin:round;fill-rule:evenodd;" d="M 32400001.000000,61409999.000000 32400001.000000,61090001.000000 33599999.000000,61090001.000000 33599999.000000,61409999.000000 Z"/> 
<svg:path style="fill:#C83434; fill-opacity:1.0;  stroke:#C83434; stroke-width:1.000000; stroke-opacity:1;  stroke-linecap:round; stroke-linejoin:round;fill-rule:evenodd;" d="M 32400001.000000,61909999.000000 32400001.000000,61590001.000000 33599999.000000,61590001.000000 33599999.000000,61909999.000000 Z"/> 
<svg:path style="fill:#C83434; fill-opacity:1.0;  stroke:#C83434; stroke-width:1.000000; stroke-opacity:1;  stroke-linecap:round; stroke-linejoin:round;fill-rule:evenodd;" d="M 32400001.000000,62409999.000000 32400001.000000,62090001.000000 33599999.000000,62090001.000000 33599999.000000,62409999.000000 Z"/> 
<svg:path style="fill:#C83434; fill-opacity:1.0;  stroke:#C83434; stroke-width:1.000000; stroke-opacity:1;  stroke-linecap:round; stroke-linejoin:round;fill-rule:evenodd;" d="M 32400001.000000,62909999.000000 32400001.000000,62590001.000000 33599999.000000,62590001.000000 33599999.000000,62909999.000000 Z"/> 
<svg:path style="fill:#C83434; fill-opacity:1.0;  stroke:#C83434; stroke-width:1.000000; stroke-opacity:1;  stroke-linecap:round; stroke-linejoin:round;fill-rule:evenodd;" d="M 32400001.000000,63409999.000000 32400001.000000,63090001.000000 33599999.000000,63090001.000000 33599999.000000,63409999.000000 Z"/> 
<svg:path style="fill:#C83434; fill-opacity:1.0;  stroke:#C83434; stroke-width:1.000000; stroke-opacity:1;  stroke-linecap:round; stroke-linejoin:round;fill-rule:evenodd;" d="M 32400001.000000,63909999.000000 32400001.000000,63590001.000000 33599999.000000,63590001.000000 33599999.000000,63909999.000000 Z"/> 
<svg:path style="fill:#C83434; fill-opacity:1.0;  stroke:#C83434; stroke-width:1.000000; stroke-opacity:1;  stroke-linecap:round; stroke-linejoin:round;fill-rule:evenodd;" d="M 32400001.000000,64409999.000000 32400001.000000,64090001.000000 33599999.000000,64090001.000000 33599999.000000,64409999.000000 Z"/> 
<svg:path style="fill:#C83434; fill-opacity:1.0;  stroke:#C83434; stroke-width:1.000000; stroke-opacity:1;  stroke-linecap:round; stroke-linejoin:round;fill-rule:evenodd;" d="M 32400001.000000,64909999.000000 32400001.000000,64590001.000000 33599999.000000,64590001.000000 33599999.000000,64909999.000000 Z"/> 
<svg:path style="fill:#C83434; fill-opacity:1.0;  stroke:#C83434; stroke-width:1.000000; stroke-opacity:1;  stroke-linecap:round; stroke-linejoin:round;fill-rule:evenodd;" d="M 35090001.000000,67599999.000000 35090001.000000,66400001.000000 35409999.000000,66400001.000000 35409999.000000,67599999.000000 Z"/> 
<svg:path style="fill:#C83434; fill-opacity:1.0;  stroke:#C83434; stroke-width:1.000000; stroke-opacity:1;  stroke-linecap:round; stroke-linejoin:round;fill-rule:evenodd;" d="M 35590001.000000,67599999.000000 35590001.000000,66400001.000000 35909999.000000,66400001.000000 35909999.000000,67599999.000000 Z"/> 
<svg:path style="fill:#C83434; fill-opacity:1.0;  stroke:#C83434; stroke-width:1.000000; stroke-opacity:1;  stroke-linecap:round; stroke-linejoin:round;fill-rule:evenodd;" d="M 36090001.000000,67599999.000000 36090001.000000,66400001.000000 36409999.000000,66400001.000000 36409999.000000,67599999.000000 Z"/> 
<svg:path style="fill:#C83434; fill-opacity:1.0;  stroke:#C83434; stroke-width:1.000000; stroke-opacity:1;  stroke-linecap:round; stroke-linejoin:round;fill-rule:evenodd;" d="M 36590001.000000,67599999.000000 36590001.000000,66400001.000000 36909999.000000,66400001.000000 36909999.000000,67599999.000000 Z"/> 
<svg:path style="fill:#C83434; fill-opacity:1.0;  stroke:#C83434; stroke-width:1.000000; stroke-opacity:1;  stroke-linecap:round; stroke-linejoin:round;fill-rule:evenodd;" d="M 37090001.000000,67599999.000000 37090001.000000,66400001.000000 37409999.000000,66400001.000000 37409999.000000,67599999.000000 Z"/> 
<svg:path style="fill:#C83434; fill-opacity:1.0;  stroke:#C83434; stroke-width:1.000000; stroke-opacity:1;  stroke-linecap:round; stroke-linejoin:round;fill-rule:evenodd;" d="M 37590001.000000,67599999.000000 37590001.000000,66400001.000000 37909999.000000,66400001.000000 37909999.000000,67599999.000000 Z"/> 
<svg:path style="fill:#C83434; fill-opacity:1.0;  stroke:#C83434; stroke-width:1.000000; stroke-opacity:1;  stroke-linecap:round; stroke-linejoin:round;fill-rule:evenodd;" d="M 38090001.000000,67599999.000000 38090001.000000,66400001.000000 38409999.000000,66400001.000000 38409999.000000,67599999.000000 Z"/> 
<svg:path style="fill:#C83434; fill-opacity:1.0;  stroke:#C83434; stroke-width:1.000000; stroke-opacity:1;  stroke-linecap:round; stroke-linejoin:round;fill-rule:evenodd;" d="M 38590001.000000,67599999.000000 38590001.000000,66400001.000000 38909999.000000,66400001.000000 38909999.000000,67599999.000000 Z"/> 
<svg:path style="fill:#C83434; fill-opacity:1.0;  stroke:#C83434; stroke-width:1.000000; stroke-opacity:1;  stroke-linecap:round; stroke-linejoin:round;fill-rule:evenodd;" d="M 39090001.000000,67599999.000000 39090001.000000,66400001.000000 39409999.000000,66400001.000000 39409999.000000,67599999.000000 Z"/> 
<svg:path style="fill:#C83434; fill-opacity:1.0;  stroke:#C83434; stroke-width:1.000000; stroke-opacity:1;  stroke-linecap:round; stroke-linejoin:round;fill-rule:evenodd;" d="M 39590001.000000,67599999.000000 39590001.000000,66400001.000000 39909999.000000,66400001.000000 39909999.000000,67599999.000000 Z"/> 
<svg:path style="fill:#C83434; fill-opacity:1.0;  stroke:#C83434; stroke-width:1.000000; stroke-opacity:1;  stroke-linecap:round; stroke-linejoin:round;fill-rule:evenodd;" d="M 40090001.000000,67599999.000000 40090001.000000,66400001.000000 40409999.000000,66400001.000000 40409999.000000,67599999.000000 Z"/> 
<svg:path style="fill:#C83434; fill-opacity:1.0;  stroke:#C83434; stroke-width:1.000000; stroke-opacity:1;  stroke-linecap:round; stroke-linejoin:round;fill-rule:evenodd;" d="M 40590001.000000,67599999.000000 40590001.000000,66400001.000000 40909999.000000,66400001.000000 40909999.000000,67599999.000000 Z"/> 
<svg:path style="fill:#C83434; fill-opacity:1.0;  stroke:#C83434; stroke-width:1.000000; stroke-opacity:1;  stroke-linecap:round; stroke-linejoin:round;fill-rule:evenodd;" d="M 41090001.000000,67599999.000000 41090001.000000,66400001.000000 41409999.000000,66400001.000000 41409999.000000,67599999.000000 Z"/> 
<svg:path style="fill:#C83434; fill-opacity:1.0;  stroke:#C83434; stroke-width:1.000000; stroke-opacity:1;  stroke-linecap:round; stroke-linejoin:round;fill-rule:evenodd;" d="M 41590001.000000,67599999.000000 41590001.000000,66400001.000000 41909999.000000,66400001.000000 41909999.000000,67599999.000000 Z"/> 
<svg:path style="fill:#C83434; fill-opacity:1.0;  stroke:#C83434; stroke-width:1.000000; stroke-opacity:1;  stroke-linecap:round; stroke-linejoin:round;fill-rule:evenodd;" d="M 42090001.000000,67599999.000000 42090001.000000,66400001.000000 42409999.000000,66400001.000000 42409999.000000,67599999.000000 Z"/> 
<svg:path style="fill:#C83434; fill-opacity:1.0;  stroke:#C83434; stroke-width:1.000000; stroke-opacity:1;  stroke-linecap:round; stroke-linejoin:round;fill-rule:evenodd;" d="M 42590001.000000,67599999.000000 42590001.000000,66400001.000000 42909999.000000,66400001.000000 42909999.000000,67599999.000000 Z"/> 
<svg:path style="fill:#C83434; fill-opacity:1.0;  stroke:#C83434; stroke-width:1.000000; stroke-opacity:1;  stroke-linecap:round; stroke-linejoin:round;fill-rule:evenodd;" d="M 43090001.000000,67599999.000000 43090001.000000,66400001.000000 43409999.000000,66400001.000000 43409999.000000,67599999.000000 Z"/> 
<svg:path style="fill:#C83434; fill-opacity:1.0;  stroke:#C83434; stroke-width:1.000000; stroke-opacity:1;  stroke-linecap:round; stroke-linejoin:round;fill-rule:evenodd;" d="M 43590001.000000,67599999.000000 43590001.000000,66400001.000000 43909999.000000,66400001.000000 43909999.000000,67599999.000000 Z"/> 
<svg:path style="fill:#C83434; fill-opacity:1.0;  stroke:#C83434; stroke-width:1.000000; stroke-opacity:1;  stroke-linecap:round; stroke-linejoin:round;fill-rule:evenodd;" d="M 44090001.000000,67599999.000000 44090001.000000,66400001.000000 44409999.000000,66400001.000000 44409999.000000,67599999.000000 Z"/> 
<svg:path style="fill:#C83434; fill-opacity:1.0;  stroke:#C83434; stroke-width:1.000000; stroke-opacity:1;  stroke-linecap:round; stroke-linejoin:round;fill-rule:evenodd;" d="M 44590001.000000,67599999.000000 44590001.000000,66400001.000000 44909999.000000,66400001.000000 44909999.000000,67599999.000000 Z"/> 
<svg:path style="fill:#C83434; fill-opacity:1.0;  stroke:#C83434; stroke-width:1.000000; stroke-opacity:1;  stroke-linecap:round; stroke-linejoin:round;fill-rule:evenodd;" d="M 45090001.000000,67599999.000000 45090001.000000,66400001.000000 45409999.000000,66400001.000000 45409999.000000,67599999.000000 Z"/> 
<svg:path style="fill:#C83434; fill-opacity:1.0;  stroke:#C83434; stroke-width:1.000000; stroke-opacity:1;  stroke-linecap:round; stroke-linejoin:round;fill-rule:evenodd;" d="M 45590001.000000,67599999.000000 45590001.000000,66400001.000000 45909999.000000,66400001.000000 45909999.000000,67599999.000000 Z"/> 
<svg:path style="fill:#C83434; fill-opacity:1.0;  stroke:#C83434; stroke-width:1.000000; stroke-opacity:1;  stroke-linecap:round; stroke-linejoin:round;fill-rule:evenodd;" d="M 46090001.000000,67599999.000000 46090001.000000,66400001.000000 46409999.000000,66400001.000000 46409999.000000,67599999.000000 Z"/> 
<svg:path style="fill:#C83434; fill-opacity:1.0;  stroke:#C83434; stroke-width:1.000000; stroke-opacity:1;  stroke-linecap:round; stroke-linejoin:round;fill-rule:evenodd;" d="M 46590001.000000,67599999.000000 46590001.000000,66400001.000000 46909999.000000,66400001.000000 46909999.000000,67599999.000000 Z"/> 
<svg:path style="fill:#C83434; fill-opacity:1.0;  stroke:#C83434; stroke-width:1.000000; stroke-opacity:1;  stroke-linecap:round; stroke-linejoin:round;fill-rule:evenodd;" d="M 47090001.000000,67599999.000000 47090001.000000,66400001.000000 47409999.000000,66400001.000000 47409999.000000,67599999.000000 Z"/> 
<svg:path style="fill:#C83434; fill-opacity:1.0;  stroke:#C83434; stroke-width:1.000000; stroke-opacity:1;  stroke-linecap:round; stroke-linejoin:round;fill-rule:evenodd;" d="M 47590001.000000,67599999.000000 47590001.000000,66400001.000000 47909999.000000,66400001.000000 47909999.000000,67599999.000000 Z"/> 
<svg:path style="fill:#C83434; fill-opacity:1.0;  stroke:#C83434; stroke-width:1.000000; stroke-opacity:1;  stroke-linecap:round; stroke-linejoin:round;fill-rule:evenodd;" d="M 48090001.000000,67599999.000000 48090001.000000,66400001.000000 48409999.000000,66400001.000000 48409999.000000,67599999.000000 Z"/> 
<svg:path style="fill:#C83434; fill-opacity:1.0;  stroke:#C83434; stroke-width:1.000000; stroke-opacity:1;  stroke-linecap:round; stroke-linejoin:round;fill-rule:evenodd;" d="M 48590001.000000,67599999.000000 48590001.000000,66400001.000000 48909999.000000,66400001.000000 48909999.000000,67599999.000000 Z"/> 
<svg:path style="fill:#C83434; fill-opacity:1.0;  stroke:#C83434; stroke-width:1.000000; stroke-opacity:1;  stroke-linecap:round; stroke-linejoin:round;fill-rule:evenodd;" d="M 49090001.000000,67599999.000000 49090001.000000,66400001.000000 49409999.000000,66400001.000000 49409999.000000,67599999.000000 Z"/> 
<svg:path style="fill:#C83434; fill-opacity:1.0;  stroke:#C83434; stroke-width:1.000000; stroke-opacity:1;  stroke-linecap:round; stroke-linejoin:round;fill-rule:evenodd;" d="M 49590001.000000,67599999.000000 49590001.000000,66400001.000000 49909999.000000,66400001.000000 49909999.000000,67599999.000000 Z"/> 
<svg:path style="fill:#C83434; fill-opacity:1.0;  stroke:#C83434; stroke-width:1.000000; stroke-opacity:1;  stroke-linecap:round; stroke-linejoin:round;fill-rule:evenodd;" d="M 50090001.000000,67599999.000000 50090001.000000,66400001.000000 50409999.000000,66400001.000000 50409999.000000,67599999.000000 Z"/> 
<svg:path style="fill:#C83434; fill-opacity:1.0;  stroke:#C83434; stroke-width:1.000000; stroke-opacity:1;  stroke-linecap:round; stroke-linejoin:round;fill-rule:evenodd;" d="M 50590001.000000,67599999.000000 50590001.000000,66400001.000000 50909999.000000,66400001.000000 50909999.000000,67599999.000000 Z"/> 
<svg:path style="fill:#C83434; fill-opacity:1.0;  stroke:#C83434; stroke-width:1.000000; stroke-opacity:1;  stroke-linecap:round; stroke-linejoin:round;fill-rule:evenodd;" d="M 51090001.000000,67599999.000000 51090001.000000,66400001.000000 51409999.000000,66400001.000000 51409999.000000,67599999.000000 Z"/> 
<svg:path style="fill:#C83434; fill-opacity:1.0;  stroke:#C83434; stroke-width:1.000000; stroke-opacity:1;  stroke-linecap:round; stroke-linejoin:round;fill-rule:evenodd;" d="M 51590001.000000,67599999.000000 51590001.000000,66400001.000000 51909999.000000,66400001.000000 51909999.000000,67599999.000000 Z"/> 
<svg:path style="fill:#C83434; fill-opacity:1.0;  stroke:#C83434; stroke-width:1.000000; stroke-opacity:1;  stroke-linecap:round; stroke-linejoin:round;fill-rule:evenodd;" d="M 52090001.000000,67599999.000000 52090001.000000,66400001.000000 52409999.000000,66400001.000000 52409999.000000,67599999.000000 Z"/> 
<svg:path style="fill:#C83434; fill-opacity:1.0;  stroke:#C83434; stroke-width:1.000000; stroke-opacity:1;  stroke-linecap:round; stroke-linejoin:round;fill-rule:evenodd;" d="M 52590001.000000,67599999.000000 52590001.000000,66400001.000000 52909999.000000,66400001.000000 52909999.000000,67599999.000000 Z"/> 
<svg:path style="fill:#C83434; fill-opacity:1.0;  stroke:#C83434; stroke-width:1.000000; stroke-opacity:1;  stroke-linecap:round; stroke-linejoin:round;fill-rule:evenodd;" d="M 53090001.000000,67599999.000000 53090001.000000,66400001.000000 53409999.000000,66400001.000000 53409999.000000,67599999.000000 Z"/> 
<svg:path style="fill:#C83434; fill-opacity:1.0;  stroke:#C83434; stroke-width:1.000000; stroke-opacity:1;  stroke-linecap:round; stroke-linejoin:round;fill-rule:evenodd;" d="M 53590001.000000,67599999.000000 53590001.000000,66400001.000000 53909999.000000,66400001.000000 53909999.000000,67599999.000000 Z"/> 
<svg:path style="fill:#C83434; fill-opacity:1.0;  stroke:#C83434; stroke-width:1.000000; stroke-opacity:1;  stroke-linecap:round; stroke-linejoin:round;fill-rule:evenodd;" d="M 54090001.000000,67599999.000000 54090001.000000,66400001.000000 54409999.000000,66400001.000000 54409999.000000,67599999.000000 Z"/> 
<svg:path style="fill:#C83434; fill-opacity:1.0;  stroke:#C83434; stroke-width:1.000000; stroke-opacity:1;  stroke-linecap:round; stroke-linejoin:round;fill-rule:evenodd;" d="M 54590001.000000,67599999.000000 54590001.000000,66400001.000000 54909999.000000,66400001.000000 54909999.000000,67599999.000000 Z"/> 
<svg:path style="fill:#C83434; fill-opacity:1.0;  stroke:#C83434; stroke-width:1.000000; stroke-opacity:1;  stroke-linecap:round; stroke-linejoin:round;fill-rule:evenodd;" d="M 55090001.000000,67599999.000000 55090001.000000,66400001.000000 55409999.000000,66400001.000000 55409999.000000,67599999.000000 Z"/> 
<svg:path style="fill:#C83434; fill-opacity:1.0;  stroke:#C83434; stroke-width:1.000000; stroke-opacity:1;  stroke-linecap:round; stroke-linejoin:round;fill-rule:evenodd;" d="M 55590001.000000,67599999.000000 55590001.000000,66400001.000000 55909999.000000,66400001.000000 55909999.000000,67599999.000000 Z"/> 
<svg:path style="fill:#C83434; fill-opacity:1.0;  stroke:#C83434; stroke-width:1.000000; stroke-opacity:1;  stroke-linecap:round; stroke-linejoin:round;fill-rule:evenodd;" d="M 56090001.000000,67599999.000000 56090001.000000,66400001.000000 56409999.000000,66400001.000000 56409999.000000,67599999.000000 Z"/> 
<svg:path style="fill:#C83434; fill-opacity:1.0;  stroke:#C83434; stroke-width:1.000000; stroke-opacity:1;  stroke-linecap:round; stroke-linejoin:round;fill-rule:evenodd;" d="M 56590001.000000,67599999.000000 56590001.000000,66400001.000000 56909999.000000,66400001.000000 56909999.000000,67599999.000000 Z"/> 
<svg:path style="fill:#C83434; fill-opacity:1.0;  stroke:#C83434; stroke-width:1.000000; stroke-opacity:1;  stroke-linecap:round; stroke-linejoin:round;fill-rule:evenodd;" d="M 57090001.000000,67599999.000000 57090001.000000,66400001.000000 57409999.000000,66400001.000000 57409999.000000,67599999.000000 Z"/> 
<svg:path style="fill:#C83434; fill-opacity:1.0;  stroke:#C83434; stroke-width:1.000000; stroke-opacity:1;  stroke-linecap:round; stroke-linejoin:round;fill-rule:evenodd;" d="M 57590001.000000,67599999.000000 57590001.000000,66400001.000000 57909999.000000,66400001.000000 57909999.000000,67599999.000000 Z"/> 
<svg:path style="fill:#C83434; fill-opacity:1.0;  stroke:#C83434; stroke-width:1.000000; stroke-opacity:1;  stroke-linecap:round; stroke-linejoin:round;fill-rule:evenodd;" d="M 58090001.000000,67599999.000000 58090001.000000,66400001.000000 58409999.000000,66400001.000000 58409999.000000,67599999.000000 Z"/> 
<svg:path style="fill:#C83434; fill-opacity:1.0;  stroke:#C83434; stroke-width:1.000000; stroke-opacity:1;  stroke-linecap:round; stroke-linejoin:round;fill-rule:evenodd;" d="M 58590001.000000,67599999.000000 58590001.000000,66400001.000000 58909999.000000,66400001.000000 58909999.000000,67599999.000000 Z"/> 
<svg:path style="fill:#C83434; fill-opacity:1.0;  stroke:#C83434; stroke-width:1.000000; stroke-opacity:1;  stroke-linecap:round; stroke-linejoin:round;fill-rule:evenodd;" d="M 59090001.000000,67599999.000000 59090001.000000,66400001.000000 59409999.000000,66400001.000000 59409999.000000,67599999.000000 Z"/> 
<svg:path style="fill:#C83434; fill-opacity:1.0;  stroke:#C83434; stroke-width:1.000000; stroke-opacity:1;  stroke-linecap:round; stroke-linejoin:round;fill-rule:evenodd;" d="M 59590001.000000,67599999.000000 59590001.000000,66400001.000000 59909999.000000,66400001.000000 59909999.000000,67599999.000000 Z"/> 
<svg:path style="fill:#C83434; fill-opacity:1.0;  stroke:#C83434; stroke-width:1.000000; stroke-opacity:1;  stroke-linecap:round; stroke-linejoin:round;fill-rule:evenodd;" d="M 60090001.000000,67599999.000000 60090001.000000,66400001.000000 60409999.000000,66400001.000000 60409999.000000,67599999.000000 Z"/> 
<svg:path style="fill:#C83434; fill-opacity:1.0;  stroke:#C83434; stroke-width:1.000000; stroke-opacity:1;  stroke-linecap:round; stroke-linejoin:round;fill-rule:evenodd;" d="M 60590001.000000,67599999.000000 60590001.000000,66400001.000000 60909999.000000,66400001.000000 60909999.000000,67599999.000000 Z"/> 
<svg:path style="fill:#C83434; fill-opacity:1.0;  stroke:#C83434; stroke-width:1.000000; stroke-opacity:1;  stroke-linecap:round; stroke-linejoin:round;fill-rule:evenodd;" d="M 61090001.000000,67599999.000000 61090001.000000,66400001.000000 61409999.000000,66400001.000000 61409999.000000,67599999.000000 Z"/> 
<svg:path style="fill:#C83434; fill-opacity:1.0;  stroke:#C83434; stroke-width:1.000000; stroke-opacity:1;  stroke-linecap:round; stroke-linejoin:round;fill-rule:evenodd;" d="M 61590001.000000,67599999.000000 61590001.000000,66400001.000000 61909999.000000,66400001.000000 61909999.000000,67599999.000000 Z"/> 
<svg:path style="fill:#C83434; fill-opacity:1.0;  stroke:#C83434; stroke-width:1.000000; stroke-opacity:1;  stroke-linecap:round; stroke-linejoin:round;fill-rule:evenodd;" d="M 62090001.000000,67599999.000000 62090001.000000,66400001.000000 62409999.000000,66400001.000000 62409999.000000,67599999.000000 Z"/> 
<svg:path style="fill:#C83434; fill-opacity:1.0;  stroke:#C83434; stroke-width:1.000000; stroke-opacity:1;  stroke-linecap:round; stroke-linejoin:round;fill-rule:evenodd;" d="M 62590001.000000,67599999.000000 62590001.000000,66400001.000000 62909999.000000,66400001.000000 62909999.000000,67599999.000000 Z"/> 
<svg:path style="fill:#C83434; fill-opacity:1.0;  stroke:#C83434; stroke-width:1.000000; stroke-opacity:1;  stroke-linecap:round; stroke-linejoin:round;fill-rule:evenodd;" d="M 63090001.000000,67599999.000000 63090001.000000,66400001.000000 63409999.000000,66400001.000000 63409999.000000,67599999.000000 Z"/> 
<svg:path style="fill:#C83434; fill-opacity:1.0;  stroke:#C83434; stroke-width:1.000000; stroke-opacity:1;  stroke-linecap:round; stroke-linejoin:round;fill-rule:evenodd;" d="M 63590001.000000,67599999.000000 63590001.000000,66400001.000000 63909999.000000,66400001.000000 63909999.000000,67599999.000000 Z"/> 
<svg:path style="fill:#C83434; fill-opacity:1.0;  stroke:#C83434; stroke-width:1.000000; stroke-opacity:1;  stroke-linecap:round; stroke-linejoin:round;fill-rule:evenodd;" d="M 64090001.000000,67599999.000000 64090001.000000,66400001.000000 64409999.000000,66400001.000000 64409999.000000,67599999.000000 Z"/> 
<svg:path style="fill:#C83434; fill-opacity:1.0;  stroke:#C83434; stroke-width:1.000000; stroke-opacity:1;  stroke-linecap:round; stroke-linejoin:round;fill-rule:evenodd;" d="M 64590001.000000,67599999.000000 64590001.000000,66400001.000000 64909999.000000,66400001.000000 64909999.000000,67599999.000000 Z"/> 
<svg:path style="fill:#C83434; fill-opacity:1.0;  stroke:#C83434; stroke-width:1.000000; stroke-opacity:1;  stroke-linecap:round; stroke-linejoin:round;fill-rule:evenodd;" d="M 66400001.000000,64909999.000000 66400001.000000,64590001.000000 67599999.000000,64590001.000000 67599999.000000,64909999.000000 Z"/> 
<svg:path style="fill:#C83434; fill-opacity:1.0;  stroke:#C83434; stroke-width:1.000000; stroke-opacity:1;  stroke-linecap:round; stroke-linejoin:round;fill-rule:evenodd;" d="M 66400001.000000,64409999.000000 66400001.000000,64090001.000000 67599999.000000,64090001.000000 67599999.000000,64409999.000000 Z"/> 
<svg:path style="fill:#C83434; fill-opacity:1.0;  stroke:#C83434; stroke-width:1.000000; stroke-opacity:1;  stroke-linecap:round; stroke-linejoin:round;fill-rule:evenodd;" d="M 66400001.000000,63909999.000000 66400001.000000,63590001.000000 67599999.000000,63590001.000000 67599999.000000,63909999.000000 Z"/> 
<svg:path style="fill:#C83434; fill-opacity:1.0;  stroke:#C83434; stroke-width:1.000000; stroke-opacity:1;  stroke-linecap:round; stroke-linejoin:round;fill-rule:evenodd;" d="M 66400001.000000,63409999.000000 66400001.000000,63090001.000000 67599999.000000,63090001.000000 67599999.000000,63409999.000000 Z"/> 
<svg:path style="fill:#C83434; fill-opacity:1.0;  stroke:#C83434; stroke-width:1.000000; stroke-opacity:1;  stroke-linecap:round; stroke-linejoin:round;fill-rule:evenodd;" d="M 66400001.000000,62909999.000000 66400001.000000,62590001.000000 67599999.000000,62590001.000000 67599999.000000,62909999.000000 Z"/> 
<svg:path style="fill:#C83434; fill-opacity:1.0;  stroke:#C83434; stroke-width:1.000000; stroke-opacity:1;  stroke-linecap:round; stroke-linejoin:round;fill-rule:evenodd;" d="M 66400001.000000,62409999.000000 66400001.000000,62090001.000000 67599999.000000,62090001.000000 67599999.000000,62409999.000000 Z"/> 
<svg:path style="fill:#C83434; fill-opacity:1.0;  stroke:#C83434; stroke-width:1.000000; stroke-opacity:1;  stroke-linecap:round; stroke-linejoin:round;fill-rule:evenodd;" d="M 66400001.000000,61909999.000000 66400001.000000,61590001.000000 67599999.000000,61590001.000000 67599999.000000,61909999.000000 Z"/> 
<svg:path style="fill:#C83434; fill-opacity:1.0;  stroke:#C83434; stroke-width:1.000000; stroke-opacity:1;  stroke-linecap:round; stroke-linejoin:round;fill-rule:evenodd;" d="M 66400001.000000,61409999.000000 66400001.000000,61090001.000000 67599999.000000,61090001.000000 67599999.000000,61409999.000000 Z"/> 
<svg:path style="fill:#C83434; fill-opacity:1.0;  stroke:#C83434; stroke-width:1.000000; stroke-opacity:1;  stroke-linecap:round; stroke-linejoin:round;fill-rule:evenodd;" d="M 66400001.000000,60909999.000000 66400001.000000,60590001.000000 67599999.000000,60590001.000000 67599999.000000,60909999.000000 Z"/> 
<svg:path style="fill:#C83434; fill-opacity:1.0;  stroke:#C83434; stroke-width:1.000000; stroke-opacity:1;  stroke-linecap:round; stroke-linejoin:round;fill-rule:evenodd;" d="M 66400001.000000,60409999.000000 66400001.000000,60090001.000000 67599999.000000,60090001.000000 67599999.000000,60409999.000000 Z"/> 
<svg:path style="fill:#C83434; fill-opacity:1.0;  stroke:#C83434; stroke-width:1.000000; stroke-opacity:1;  stroke-linecap:round; stroke-linejoin:round;fill-rule:evenodd;" d="M 66400001.000000,59909999.000000 66400001.000000,59590001.000000 67599999.000000,59590001.000000 67599999.000000,59909999.000000 Z"/> 
<svg:path style="fill:#C83434; fill-opacity:1.0;  stroke:#C83434; stroke-width:1.000000; stroke-opacity:1;  stroke-linecap:round; stroke-linejoin:round;fill-rule:evenodd;" d="M 66400001.000000,59409999.000000 66400001.000000,59090001.000000 67599999.000000,59090001.000000 67599999.000000,59409999.000000 Z"/> 
<svg:path style="fill:#C83434; fill-opacity:1.0;  stroke:#C83434; stroke-width:1.000000; stroke-opacity:1;  stroke-linecap:round; stroke-linejoin:round;fill-rule:evenodd;" d="M 66400001.000000,58909999.000000 66400001.000000,58590001.000000 67599999.000000,58590001.000000 67599999.000000,58909999.000000 Z"/> 
<svg:path style="fill:#C83434; fill-opacity:1.0;  stroke:#C83434; stroke-width:1.000000; stroke-opacity:1;  stroke-linecap:round; stroke-linejoin:round;fill-rule:evenodd;" d="M 66400001.000000,58409999.000000 66400001.000000,58090001.000000 67599999.000000,58090001.000000 67599999.000000,58409999.000000 Z"/> 
<svg:path style="fill:#C83434; fill-opacity:1.0;  stroke:#C83434; stroke-width:1.000000; stroke-opacity:1;  stroke-linecap:round; stroke-linejoin:round;fill-rule:evenodd;" d="M 66400001.000000,57909999.000000 66400001.000000,57590001.000000 67599999.000000,57590001.000000 67599999.000000,57909999.000000 Z"/> 
<svg:path style="fill:#C83434; fill-opacity:1.0;  stroke:#C83434; stroke-width:1.000000; stroke-opacity:1;  stroke-linecap:round; stroke-linejoin:round;fill-rule:evenodd;" d="M 66400001.000000,57409999.000000 66400001.000000,57090001.000000 67599999.000000,57090001.000000 67599999.000000,57409999.000000 Z"/> 
<svg:path style="fill:#C83434; fill-opacity:1.0;  stroke:#C83434; stroke-width:1.000000; stroke-opacity:1;  stroke-linecap:round; stroke-linejoin:round;fill-rule:evenodd;" d="M 66400001.000000,56909999.000000 66400001.000000,56590001.000000 67599999.000000,56590001.000000 67599999.000000,56909999.000000 Z"/> 
<svg:path style="fill:#C83434; fill-opacity:1.0;  stroke:#C83434; stroke-width:1.000000; stroke-opacity:1;  stroke-linecap:round; stroke-linejoin:round;fill-rule:evenodd;" d="M 66400001.000000,56409999.000000 66400001.000000,56090001.000000 67599999.000000,56090001.000000 67599999.000000,56409999.000000 Z"/> 
<svg:path style="fill:#C83434; fill-opacity:1.0;  stroke:#C83434; stroke-width:1.000000; stroke-opacity:1;  stroke-linecap:round; stroke-linejoin:round;fill-rule:evenodd;" d="M 66400001.000000,55909999.000000 66400001.000000,55590001.000000 67599999.000000,55590001.000000 67599999.000000,55909999.000000 Z"/> 
<svg:path style="fill:#C83434; fill-opacity:1.0;  stroke:#C83434; stroke-width:1.000000; stroke-opacity:1;  stroke-linecap:round; stroke-linejoin:round;fill-rule:evenodd;" d="M 66400001.000000,55409999.000000 66400001.000000,55090001.000000 67599999.000000,55090001.000000 67599999.000000,55409999.000000 Z"/> 
<svg:path style="fill:#C83434; fill-opacity:1.0;  stroke:#C83434; stroke-width:1.000000; stroke-opacity:1;  stroke-linecap:round; stroke-linejoin:round;fill-rule:evenodd;" d="M 66400001.000000,54909999.000000 66400001.000000,54590001.000000 67599999.000000,54590001.000000 67599999.000000,54909999.000000 Z"/> 
<svg:path style="fill:#C83434; fill-opacity:1.0;  stroke:#C83434; stroke-width:1.000000; stroke-opacity:1;  stroke-linecap:round; stroke-linejoin:round;fill-rule:evenodd;" d="M 66400001.000000,54409999.000000 66400001.000000,54090001.000000 67599999.000000,54090001.000000 67599999.000000,54409999.000000 Z"/> 
<svg:path style="fill:#C83434; fill-opacity:1.0;  stroke:#C83434; stroke-width:1.000000; stroke-opacity:1;  stroke-linecap:round; stroke-linejoin:round;fill-rule:evenodd;" d="M 66400001.000000,53909999.000000 66400001.000000,53590001.000000 67599999.000000,53590001.000000 67599999.000000,53909999.000000 Z"/> 
<svg:path style="fill:#C83434; fill-opacity:1.0;  stroke:#C83434; stroke-width:1.000000; stroke-opacity:1;  stroke-linecap:round; stroke-linejoin:round;fill-rule:evenodd;" d="M 66400001.000000,53409999.000000 66400001.000000,53090001.000000 67599999.000000,53090001.000000 67599999.000000,53409999.000000 Z"/> 
<svg:path style="fill:#C83434; fill-opacity:1.0;  stroke:#C83434; stroke-width:1.000000; stroke-opacity:1;  stroke-linecap:round; stroke-linejoin:round;fill-rule:evenodd;" d="M 66400001.000000,52909999.000000 66400001.000000,52590001.000000 67599999.000000,52590001.000000 67599999.000000,52909999.000000 Z"/> 
<svg:path style="fill:#C83434; fill-opacity:1.0;  stroke:#C83434; stroke-width:1.000000; stroke-opacity:1;  stroke-linecap:round; stroke-linejoin:round;fill-rule:evenodd;" d="M 66400001.000000,52409999.000000 66400001.000000,52090001.000000 67599999.000000,52090001.000000 67599999.000000,52409999.000000 Z"/> 
<svg:path style="fill:#C83434; fill-opacity:1.0;  stroke:#C83434; stroke-width:1.000000; stroke-opacity:1;  stroke-linecap:round; stroke-linejoin:round;fill-rule:evenodd;" d="M 66400001.000000,51909999.000000 66400001.000000,51590001.000000 67599999.000000,51590001.000000 67599999.000000,51909999.000000 Z"/> 
<svg:path style="fill:#C83434; fill-opacity:1.0;  stroke:#C83434; stroke-width:1.000000; stroke-opacity:1;  stroke-linecap:round; stroke-linejoin:round;fill-rule:evenodd;" d="M 66400001.000000,51409999.000000 66400001.000000,51090001.000000 67599999.000000,51090001.000000 67599999.000000,51409999.000000 Z"/> 
<svg:path style="fill:#C83434; fill-opacity:1.0;  stroke:#C83434; stroke-width:1.000000; stroke-opacity:1;  stroke-linecap:round; stroke-linejoin:round;fill-rule:evenodd;" d="M 66400001.000000,50909999.000000 66400001.000000,50590001.000000 67599999.000000,50590001.000000 67599999.000000,50909999.000000 Z"/> 
<svg:path style="fill:#C83434; fill-opacity:1.0;  stroke:#C83434; stroke-width:1.000000; stroke-opacity:1;  stroke-linecap:round; stroke-linejoin:round;fill-rule:evenodd;" d="M 66400001.000000,50409999.000000 66400001.000000,50090001.000000 67599999.000000,50090001.000000 67599999.000000,50409999.000000 Z"/> 
<svg:path style="fill:#C83434; fill-opacity:1.0;  stroke:#C83434; stroke-width:1.000000; stroke-opacity:1;  stroke-linecap:round; stroke-linejoin:round;fill-rule:evenodd;" d="M 66400001.000000,49909999.000000 66400001.000000,49590001.000000 67599999.000000,49590001.000000 67599999.000000,49909999.000000 Z"/> 
<svg:path style="fill:#C83434; fill-opacity:1.0;  stroke:#C83434; stroke-width:1.000000; stroke-opacity:1;  stroke-linecap:round; stroke-linejoin:round;fill-rule:evenodd;" d="M 66400001.000000,49409999.000000 66400001.000000,49090001.000000 67599999.000000,49090001.000000 67599999.000000,49409999.000000 Z"/> 
<svg:path style="fill:#C83434; fill-opacity:1.0;  stroke:#C83434; stroke-width:1.000000; stroke-opacity:1;  stroke-linecap:round; stroke-linejoin:round;fill-rule:evenodd;" d="M 66400001.000000,48909999.000000 66400001.000000,48590001.000000 67599999.000000,48590001.000000 67599999.000000,48909999.000000 Z"/> 
<svg:path style="fill:#C83434; fill-opacity:1.0;  stroke:#C83434; stroke-width:1.000000; stroke-opacity:1;  stroke-linecap:round; stroke-linejoin:round;fill-rule:evenodd;" d="M 66400001.000000,48409999.000000 66400001.000000,48090001.000000 67599999.000000,48090001.000000 67599999.000000,48409999.000000 Z"/> 
<svg:path style="fill:#C83434; fill-opacity:1.0;  stroke:#C83434; stroke-width:1.000000; stroke-opacity:1;  stroke-linecap:round; stroke-linejoin:round;fill-rule:evenodd;" d="M 66400001.000000,47909999.000000 66400001.000000,47590001.000000 67599999.000000,47590001.000000 67599999.000000,47909999.000000 Z"/> 
<svg:path style="fill:#C83434; fill-opacity:1.0;  stroke:#C83434; stroke-width:1.000000; stroke-opacity:1;  stroke-linecap:round; stroke-linejoin:round;fill-rule:evenodd;" d="M 66400001.000000,47409999.000000 66400001.000000,47090001.000000 67599999.000000,47090001.000000 67599999.000000,47409999.000000 Z"/> 
<svg:path style="fill:#C83434; fill-opacity:1.0;  stroke:#C83434; stroke-width:1.000000; stroke-opacity:1;  stroke-linecap:round; stroke-linejoin:round;fill-rule:evenodd;" d="M 66400001.000000,46909999.000000 66400001.000000,46590001.000000 67599999.000000,46590001.000000 67599999.000000,46909999.000000 Z"/> 
<svg:path style="fill:#C83434; fill-opacity:1.0;  stroke:#C83434; stroke-width:1.000000; stroke-opacity:1;  stroke-linecap:round; stroke-linejoin:round;fill-rule:evenodd;" d="M 66400001.000000,46409999.000000 66400001.000000,46090001.000000 67599999.000000,46090001.000000 67599999.000000,46409999.000000 Z"/> 
<svg:path style="fill:#C83434; fill-opacity:1.0;  stroke:#C83434; stroke-width:1.000000; stroke-opacity:1;  stroke-linecap:round; stroke-linejoin:round;fill-rule:evenodd;" d="M 66400001.000000,45909999.000000 66400001.000000,45590001.000000 67599999.000000,45590001.000000 67599999.000000,45909999.000000 Z"/> 
<svg:path style="fill:#C83434; fill-opacity:1.0;  stroke:#C83434; stroke-width:1.000000; stroke-opacity:1;  stroke-linecap:round; stroke-linejoin:round;fill-rule:evenodd;" d="M 66400001.000000,45409999.000000 66400001.000000,45090001.000000 67599999.000000,45090001.000000 67599999.000000,45409999.000000 Z"/> 
<svg:path style="fill:#C83434; fill-opacity:1.0;  stroke:#C83434; stroke-width:1.000000; stroke-opacity:1;  stroke-linecap:round; stroke-linejoin:round;fill-rule:evenodd;" d="M 66400001.000000,44909999.000000 66400001.000000,44590001.000000 67599999.000000,44590001.000000 67599999.000000,44909999.000000 Z"/> 
<svg:path style="fill:#C83434; fill-opacity:1.0;  stroke:#C83434; stroke-width:1.000000; stroke-opacity:1;  stroke-linecap:round; stroke-linejoin:round;fill-rule:evenodd;" d="M 66400001.000000,44409999.000000 66400001.000000,44090001.000000 67599999.000000,44090001.000000 67599999.000000,44409999.000000 Z"/> 
<svg:path style="fill:#C83434; fill-opacity:1.0;  stroke:#C83434; stroke-width:1.000000; stroke-opacity:1;  stroke-linecap:round; stroke-linejoin:round;fill-rule:evenodd;" d="M 66400001.000000,43909999.000000 66400001.000000,43590001.000000 67599999.000000,43590001.000000 67599999.000000,43909999.000000 Z"/> 
<svg:path style="fill:#C83434; fill-opacity:1.0;  stroke:#C83434; stroke-width:1.000000; stroke-opacity:1;  stroke-linecap:round; stroke-linejoin:round;fill-rule:evenodd;" d="M 66400001.000000,43409999.000000 66400001.000000,43090001.000000 67599999.000000,43090001.000000 67599999.000000,43409999.000000 Z"/> 
<svg:path style="fill:#C83434; fill-opacity:1.0;  stroke:#C83434; stroke-width:1.000000; stroke-opacity:1;  stroke-linecap:round; stroke-linejoin:round;fill-rule:evenodd;" d="M 66400001.000000,42909999.000000 66400001.000000,42590001.000000 67599999.000000,42590001.000000 67599999.000000,42909999.000000 Z"/> 
<svg:path style="fill:#C83434; fill-opacity:1.0;  stroke:#C83434; stroke-width:1.000000; stroke-opacity:1;  stroke-linecap:round; stroke-linejoin:round;fill-rule:evenodd;" d="M 66400001.000000,42409999.000000 66400001.000000,42090001.000000 67599999.000000,42090001.000000 67599999.000000,42409999.000000 Z"/> 
<svg:path style="fill:#C83434; fill-opacity:1.0;  stroke:#C83434; stroke-width:1.000000; stroke-opacity:1;  stroke-linecap:round; stroke-linejoin:round;fill-rule:evenodd;" d="M 66400001.000000,41909999.000000 66400001.000000,41590001.000000 67599999.000000,41590001.000000 67599999.000000,41909999.000000 Z"/> 
<svg:path style="fill:#C83434; fill-opacity:1.0;  stroke:#C83434; stroke-width:1.000000; stroke-opacity:1;  stroke-linecap:round; stroke-linejoin:round;fill-rule:evenodd;" d="M 66400001.000000,41409999.000000 66400001.000000,41090001.000000 67599999.000000,41090001.000000 67599999.000000,41409999.000000 Z"/> 
<svg:path style="fill:#C83434; fill-opacity:1.0;  stroke:#C83434; stroke-width:1.000000; stroke-opacity:1;  stroke-linecap:round; stroke-linejoin:round;fill-rule:evenodd;" d="M 66400001.000000,40909999.000000 66400001.000000,40590001.000000 67599999.000000,40590001.000000 67599999.000000,40909999.000000 Z"/> 
<svg:path style="fill:#C83434; fill-opacity:1.0;  stroke:#C83434; stroke-width:1.000000; stroke-opacity:1;  stroke-linecap:round; stroke-linejoin:round;fill-rule:evenodd;" d="M 66400001.000000,40409999.000000 66400001.000000,40090001.000000 67599999.000000,40090001.000000 67599999.000000,40409999.000000 Z"/> 
<svg:path style="fill:#C83434; fill-opacity:1.0;  stroke:#C83434; stroke-width:1.000000; stroke-opacity:1;  stroke-linecap:round; stroke-linejoin:round;fill-rule:evenodd;" d="M 66400001.000000,39909999.000000 66400001.000000,39590001.000000 67599999.000000,39590001.000000 67599999.000000,39909999.000000 Z"/> 
<svg:path style="fill:#C83434; fill-opacity:1.0;  stroke:#C83434; stroke-width:1.000000; stroke-opacity:1;  stroke-linecap:round; stroke-linejoin:round;fill-rule:evenodd;" d="M 66400001.000000,39409999.000000 66400001.000000,39090001.000000 67599999.000000,39090001.000000 67599999.000000,39409999.000000 Z"/> 
<svg:path style="fill:#C83434; fill-opacity:1.0;  stroke:#C83434; stroke-width:1.000000; stroke-opacity:1;  stroke-linecap:round; stroke-linejoin:round;fill-rule:evenodd;" d="M 66400001.000000,38909999.000000 66400001.000000,38590001.000000 67599999.000000,38590001.000000 67599999.000000,38909999.000000 Z"/> 
<svg:path style="fill:#C83434; fill-opacity:1.0;  stroke:#C83434; stroke-width:1.000000; stroke-opacity:1;  stroke-linecap:round; stroke-linejoin:round;fill-rule:evenodd;" d="M 66400001.000000,38409999.000000 66400001.000000,38090001.000000 67599999.000000,38090001.000000 67599999.000000,38409999.000000 Z"/> 
<svg:path style="fill:#C83434; fill-opacity:1.0;  stroke:#C83434; stroke-width:1.000000; stroke-opacity:1;  stroke-linecap:round; stroke-linejoin:round;fill-rule:evenodd;" d="M 66400001.000000,37909999.000000 66400001.000000,37590001.000000 67599999.000000,37590001.000000 67599999.000000,37909999.000000 Z"/> 
<svg:path style="fill:#C83434; fill-opacity:1.0;  stroke:#C83434; stroke-width:1.000000; stroke-opacity:1;  stroke-linecap:round; stroke-linejoin:round;fill-rule:evenodd;" d="M 66400001.000000,37409999.000000 66400001.000000,37090001.000000 67599999.000000,37090001.000000 67599999.000000,37409999.000000 Z"/> 
<svg:path style="fill:#C83434; fill-opacity:1.0;  stroke:#C83434; stroke-width:1.000000; stroke-opacity:1;  stroke-linecap:round; stroke-linejoin:round;fill-rule:evenodd;" d="M 66400001.000000,36909999.000000 66400001.000000,36590001.000000 67599999.000000,36590001.000000 67599999.000000,36909999.000000 Z"/> 
<svg:path style="fill:#C83434; fill-opacity:1.0;  stroke:#C83434; stroke-width:1.000000; stroke-opacity:1;  stroke-linecap:round; stroke-linejoin:round;fill-rule:evenodd;" d="M 66400001.000000,36409999.000000 66400001.000000,36090001.000000 67599999.000000,36090001.000000 67599999.000000,36409999.000000 Z"/> 
<svg:path style="fill:#C83434; fill-opacity:1.0;  stroke:#C83434; stroke-width:1.000000; stroke-opacity:1;  stroke-linecap:round; stroke-linejoin:round;fill-rule:evenodd;" d="M 66400001.000000,35909999.000000 66400001.000000,35590001.000000 67599999.000000,35590001.000000 67599999.000000,35909999.000000 Z"/> 
<svg:path style="fill:#C83434; fill-opacity:1.0;  stroke:#C83434; stroke-width:1.000000; stroke-opacity:1;  stroke-linecap:round; stroke-linejoin:round;fill-rule:evenodd;" d="M 66400001.000000,35409999.000000 66400001.000000,35090001.000000 67599999.000000,35090001.000000 67599999.000000,35409999.000000 Z"/> 
<svg:path style="fill:#C83434; fill-opacity:1.0;  stroke:#C83434; stroke-width:1.000000; stroke-opacity:1;  stroke-linecap:round; stroke-linejoin:round;fill-rule:evenodd;" d="M 64590001.000000,33599999.000000 64590001.000000,32400001.000000 64909999.000000,32400001.000000 64909999.000000,33599999.000000 Z"/> 
<svg:path style="fill:#C83434; fill-opacity:1.0;  stroke:#C83434; stroke-width:1.000000; stroke-opacity:1;  stroke-linecap:round; stroke-linejoin:round;fill-rule:evenodd;" d="M 64090001.000000,33599999.000000 64090001.000000,32400001.000000 64409999.000000,32400001.000000 64409999.000000,33599999.000000 Z"/> 
<svg:path style="fill:#C83434; fill-opacity:1.0;  stroke:#C83434; stroke-width:1.000000; stroke-opacity:1;  stroke-linecap:round; stroke-linejoin:round;fill-rule:evenodd;" d="M 63590001.000000,33599999.000000 63590001.000000,32400001.000000 63909999.000000,32400001.000000 63909999.000000,33599999.000000 Z"/> 
<svg:path style="fill:#C83434; fill-opacity:1.0;  stroke:#C83434; stroke-width:1.000000; stroke-opacity:1;  stroke-linecap:round; stroke-linejoin:round;fill-rule:evenodd;" d="M 63090001.000000,33599999.000000 63090001.000000,32400001.000000 63409999.000000,32400001.000000 63409999.000000,33599999.000000 Z"/> 
<svg:path style="fill:#C83434; fill-opacity:1.0;  stroke:#C83434; stroke-width:1.000000; stroke-opacity:1;  stroke-linecap:round; stroke-linejoin:round;fill-rule:evenodd;" d="M 62590001.000000,33599999.000000 62590001.000000,32400001.000000 62909999.000000,32400001.000000 62909999.000000,33599999.000000 Z"/> 
<svg:path style="fill:#C83434; fill-opacity:1.0;  stroke:#C83434; stroke-width:1.000000; stroke-opacity:1;  stroke-linecap:round; stroke-linejoin:round;fill-rule:evenodd;" d="M 62090001.000000,33599999.000000 62090001.000000,32400001.000000 62409999.000000,32400001.000000 62409999.000000,33599999.000000 Z"/> 
<svg:path style="fill:#C83434; fill-opacity:1.0;  stroke:#C83434; stroke-width:1.000000; stroke-opacity:1;  stroke-linecap:round; stroke-linejoin:round;fill-rule:evenodd;" d="M 61590001.000000,33599999.000000 61590001.000000,32400001.000000 61909999.000000,32400001.000000 61909999.000000,33599999.000000 Z"/> 
<svg:path style="fill:#C83434; fill-opacity:1.0;  stroke:#C83434; stroke-width:1.000000; stroke-opacity:1;  stroke-linecap:round; stroke-linejoin:round;fill-rule:evenodd;" d="M 61090001.000000,33599999.000000 61090001.000000,32400001.000000 61409999.000000,32400001.000000 61409999.000000,33599999.000000 Z"/> 
<svg:path style="fill:#C83434; fill-opacity:1.0;  stroke:#C83434; stroke-width:1.000000; stroke-opacity:1;  stroke-linecap:round; stroke-linejoin:round;fill-rule:evenodd;" d="M 60590001.000000,33599999.000000 60590001.000000,32400001.000000 60909999.000000,32400001.000000 60909999.000000,33599999.000000 Z"/> 
<svg:path style="fill:#C83434; fill-opacity:1.0;  stroke:#C83434; stroke-width:1.000000; stroke-opacity:1;  stroke-linecap:round; stroke-linejoin:round;fill-rule:evenodd;" d="M 60090001.000000,33599999.000000 60090001.000000,32400001.000000 60409999.000000,32400001.000000 60409999.000000,33599999.000000 Z"/> 
<svg:path style="fill:#C83434; fill-opacity:1.0;  stroke:#C83434; stroke-width:1.000000; stroke-opacity:1;  stroke-linecap:round; stroke-linejoin:round;fill-rule:evenodd;" d="M 59590001.000000,33599999.000000 59590001.000000,32400001.000000 59909999.000000,32400001.000000 59909999.000000,33599999.000000 Z"/> 
<svg:path style="fill:#C83434; fill-opacity:1.0;  stroke:#C83434; stroke-width:1.000000; stroke-opacity:1;  stroke-linecap:round; stroke-linejoin:round;fill-rule:evenodd;" d="M 59090001.000000,33599999.000000 59090001.000000,32400001.000000 59409999.000000,32400001.000000 59409999.000000,33599999.000000 Z"/> 
<svg:path style="fill:#C83434; fill-opacity:1.0;  stroke:#C83434; stroke-width:1.000000; stroke-opacity:1;  stroke-linecap:round; stroke-linejoin:round;fill-rule:evenodd;" d="M 58590001.000000,33599999.000000 58590001.000000,32400001.000000 58909999.000000,32400001.000000 58909999.000000,33599999.000000 Z"/> 
<svg:path style="fill:#C83434; fill-opacity:1.0;  stroke:#C83434; stroke-width:1.000000; stroke-opacity:1;  stroke-linecap:round; stroke-linejoin:round;fill-rule:evenodd;" d="M 58090001.000000,33599999.000000 58090001.000000,32400001.000000 58409999.000000,32400001.000000 58409999.000000,33599999.000000 Z"/> 
<svg:path style="fill:#C83434; fill-opacity:1.0;  stroke:#C83434; stroke-width:1.000000; stroke-opacity:1;  stroke-linecap:round; stroke-linejoin:round;fill-rule:evenodd;" d="M 57590001.000000,33599999.000000 57590001.000000,32400001.000000 57909999.000000,32400001.000000 57909999.000000,33599999.000000 Z"/> 
<svg:path style="fill:#C83434; fill-opacity:1.0;  stroke:#C83434; stroke-width:1.000000; stroke-opacity:1;  stroke-linecap:round; stroke-linejoin:round;fill-rule:evenodd;" d="M 57090001.000000,33599999.000000 57090001.000000,32400001.000000 57409999.000000,32400001.000000 57409999.000000,33599999.000000 Z"/> 
<svg:path style="fill:#C83434; fill-opacity:1.0;  stroke:#C83434; stroke-width:1.000000; stroke-opacity:1;  stroke-linecap:round; stroke-linejoin:round;fill-rule:evenodd;" d="M 56590001.000000,33599999.000000 56590001.000000,32400001.000000 56909999.000000,32400001.000000 56909999.000000,33599999.000000 Z"/> 
<svg:path style="fill:#C83434; fill-opacity:1.0;  stroke:#C83434; stroke-width:1.000000; stroke-opacity:1;  stroke-linecap:round; stroke-linejoin:round;fill-rule:evenodd;" d="M 56090001.000000,33599999.000000 56090001.000000,32400001.000000 56409999.000000,32400001.000000 56409999.000000,33599999.000000 Z"/> 
<svg:path style="fill:#C83434; fill-opacity:1.0;  stroke:#C83434; stroke-width:1.000000; stroke-opacity:1;  stroke-linecap:round; stroke-linejoin:round;fill-rule:evenodd;" d="M 55590001.000000,33599999.000000 55590001.000000,32400001.000000 55909999.000000,32400001.000000 55909999.000000,33599999.000000 Z"/> 
<svg:path style="fill:#C83434; fill-opacity:1.0;  stroke:#C83434; stroke-width:1.000000; stroke-opacity:1;  stroke-linecap:round; stroke-linejoin:round;fill-rule:evenodd;" d="M 55090001.000000,33599999.000000 55090001.000000,32400001.000000 55409999.000000,32400001.000000 55409999.000000,33599999.000000 Z"/> 
<svg:path style="fill:#C83434; fill-opacity:1.0;  stroke:#C83434; stroke-width:1.000000; stroke-opacity:1;  stroke-linecap:round; stroke-linejoin:round;fill-rule:evenodd;" d="M 54590001.000000,33599999.000000 54590001.000000,32400001.000000 54909999.000000,32400001.000000 54909999.000000,33599999.000000 Z"/> 
<svg:path style="fill:#C83434; fill-opacity:1.0;  stroke:#C83434; stroke-width:1.000000; stroke-opacity:1;  stroke-linecap:round; stroke-linejoin:round;fill-rule:evenodd;" d="M 54090001.000000,33599999.000000 54090001.000000,32400001.000000 54409999.000000,32400001.000000 54409999.000000,33599999.000000 Z"/> 
<svg:path style="fill:#C83434; fill-opacity:1.0;  stroke:#C83434; stroke-width:1.000000; stroke-opacity:1;  stroke-linecap:round; stroke-linejoin:round;fill-rule:evenodd;" d="M 53590001.000000,33599999.000000 53590001.000000,32400001.000000 53909999.000000,32400001.000000 53909999.000000,33599999.000000 Z"/> 
<svg:path style="fill:#C83434; fill-opacity:1.0;  stroke:#C83434; stroke-width:1.000000; stroke-opacity:1;  stroke-linecap:round; stroke-linejoin:round;fill-rule:evenodd;" d="M 53090001.000000,33599999.000000 53090001.000000,32400001.000000 53409999.000000,32400001.000000 53409999.000000,33599999.000000 Z"/> 
<svg:path style="fill:#C83434; fill-opacity:1.0;  stroke:#C83434; stroke-width:1.000000; stroke-opacity:1;  stroke-linecap:round; stroke-linejoin:round;fill-rule:evenodd;" d="M 52590001.000000,33599999.000000 52590001.000000,32400001.000000 52909999.000000,32400001.000000 52909999.000000,33599999.000000 Z"/> 
<svg:path style="fill:#C83434; fill-opacity:1.0;  stroke:#C83434; stroke-width:1.000000; stroke-opacity:1;  stroke-linecap:round; stroke-linejoin:round;fill-rule:evenodd;" d="M 52090001.000000,33599999.000000 52090001.000000,32400001.000000 52409999.000000,32400001.000000 52409999.000000,33599999.000000 Z"/> 
<svg:path style="fill:#C83434; fill-opacity:1.0;  stroke:#C83434; stroke-width:1.000000; stroke-opacity:1;  stroke-linecap:round; stroke-linejoin:round;fill-rule:evenodd;" d="M 51590001.000000,33599999.000000 51590001.000000,32400001.000000 51909999.000000,32400001.000000 51909999.000000,33599999.000000 Z"/> 
<svg:path style="fill:#C83434; fill-opacity:1.0;  stroke:#C83434; stroke-width:1.000000; stroke-opacity:1;  stroke-linecap:round; stroke-linejoin:round;fill-rule:evenodd;" d="M 51090001.000000,33599999.000000 51090001.000000,32400001.000000 51409999.000000,32400001.000000 51409999.000000,33599999.000000 Z"/> 
<svg:path style="fill:#C83434; fill-opacity:1.0;  stroke:#C83434; stroke-width:1.000000; stroke-opacity:1;  stroke-linecap:round; stroke-linejoin:round;fill-rule:evenodd;" d="M 50590001.000000,33599999.000000 50590001.000000,32400001.000000 50909999.000000,32400001.000000 50909999.000000,33599999.000000 Z"/> 
<svg:path style="fill:#C83434; fill-opacity:1.0;  stroke:#C83434; stroke-width:1.000000; stroke-opacity:1;  stroke-linecap:round; stroke-linejoin:round;fill-rule:evenodd;" d="M 50090001.000000,33599999.000000 50090001.000000,32400001.000000 50409999.000000,32400001.000000 50409999.000000,33599999.000000 Z"/> 
<svg:path style="fill:#C83434; fill-opacity:1.0;  stroke:#C83434; stroke-width:1.000000; stroke-opacity:1;  stroke-linecap:round; stroke-linejoin:round;fill-rule:evenodd;" d="M 49590001.000000,33599999.000000 49590001.000000,32400001.000000 49909999.000000,32400001.000000 49909999.000000,33599999.000000 Z"/> 
<svg:path style="fill:#C83434; fill-opacity:1.0;  stroke:#C83434; stroke-width:1.000000; stroke-opacity:1;  stroke-linecap:round; stroke-linejoin:round;fill-rule:evenodd;" d="M 49090001.000000,33599999.000000 49090001.000000,32400001.000000 49409999.000000,32400001.000000 49409999.000000,33599999.000000 Z"/> 
<svg:path style="fill:#C83434; fill-opacity:1.0;  stroke:#C83434; stroke-width:1.000000; stroke-opacity:1;  stroke-linecap:round; stroke-linejoin:round;fill-rule:evenodd;" d="M 48590001.000000,33599999.000000 48590001.000000,32400001.000000 48909999.000000,32400001.000000 48909999.000000,33599999.000000 Z"/> 
<svg:path style="fill:#C83434; fill-opacity:1.0;  stroke:#C83434; stroke-width:1.000000; stroke-opacity:1;  stroke-linecap:round; stroke-linejoin:round;fill-rule:evenodd;" d="M 48090001.000000,33599999.000000 48090001.000000,32400001.000000 48409999.000000,32400001.000000 48409999.000000,33599999.000000 Z"/> 
<svg:path style="fill:#C83434; fill-opacity:1.0;  stroke:#C83434; stroke-width:1.000000; stroke-opacity:1;  stroke-linecap:round; stroke-linejoin:round;fill-rule:evenodd;" d="M 47590001.000000,33599999.000000 47590001.000000,32400001.000000 47909999.000000,32400001.000000 47909999.000000,33599999.000000 Z"/> 
<svg:path style="fill:#C83434; fill-opacity:1.0;  stroke:#C83434; stroke-width:1.000000; stroke-opacity:1;  stroke-linecap:round; stroke-linejoin:round;fill-rule:evenodd;" d="M 47090001.000000,33599999.000000 47090001.000000,32400001.000000 47409999.000000,32400001.000000 47409999.000000,33599999.000000 Z"/> 
<svg:path style="fill:#C83434; fill-opacity:1.0;  stroke:#C83434; stroke-width:1.000000; stroke-opacity:1;  stroke-linecap:round; stroke-linejoin:round;fill-rule:evenodd;" d="M 46590001.000000,33599999.000000 46590001.000000,32400001.000000 46909999.000000,32400001.000000 46909999.000000,33599999.000000 Z"/> 
<svg:path style="fill:#C83434; fill-opacity:1.0;  stroke:#C83434; stroke-width:1.000000; stroke-opacity:1;  stroke-linecap:round; stroke-linejoin:round;fill-rule:evenodd;" d="M 46090001.000000,33599999.000000 46090001.000000,32400001.000000 46409999.000000,32400001.000000 46409999.000000,33599999.000000 Z"/> 
<svg:path style="fill:#C83434; fill-opacity:1.0;  stroke:#C83434; stroke-width:1.000000; stroke-opacity:1;  stroke-linecap:round; stroke-linejoin:round;fill-rule:evenodd;" d="M 45590001.000000,33599999.000000 45590001.000000,32400001.000000 45909999.000000,32400001.000000 45909999.000000,33599999.000000 Z"/> 
<svg:path style="fill:#C83434; fill-opacity:1.0;  stroke:#C83434; stroke-width:1.000000; stroke-opacity:1;  stroke-linecap:round; stroke-linejoin:round;fill-rule:evenodd;" d="M 45090001.000000,33599999.000000 45090001.000000,32400001.000000 45409999.000000,32400001.000000 45409999.000000,33599999.000000 Z"/> 
<svg:path style="fill:#C83434; fill-opacity:1.0;  stroke:#C83434; stroke-width:1.000000; stroke-opacity:1;  stroke-linecap:round; stroke-linejoin:round;fill-rule:evenodd;" d="M 44590001.000000,33599999.000000 44590001.000000,32400001.000000 44909999.000000,32400001.000000 44909999.000000,33599999.000000 Z"/> 
<svg:path style="fill:#C83434; fill-opacity:1.0;  stroke:#C83434; stroke-width:1.000000; stroke-opacity:1;  stroke-linecap:round; stroke-linejoin:round;fill-rule:evenodd;" d="M 44090001.000000,33599999.000000 44090001.000000,32400001.000000 44409999.000000,32400001.000000 44409999.000000,33599999.000000 Z"/> 
<svg:path style="fill:#C83434; fill-opacity:1.0;  stroke:#C83434; stroke-width:1.000000; stroke-opacity:1;  stroke-linecap:round; stroke-linejoin:round;fill-rule:evenodd;" d="M 43590001.000000,33599999.000000 43590001.000000,32400001.000000 43909999.000000,32400001.000000 43909999.000000,33599999.000000 Z"/> 
<svg:path style="fill:#C83434; fill-opacity:1.0;  stroke:#C83434; stroke-width:1.000000; stroke-opacity:1;  stroke-linecap:round; stroke-linejoin:round;fill-rule:evenodd;" d="M 43090001.000000,33599999.000000 43090001.000000,32400001.000000 43409999.000000,32400001.000000 43409999.000000,33599999.000000 Z"/> 
<svg:path style="fill:#C83434; fill-opacity:1.0;  stroke:#C83434; stroke-width:1.000000; stroke-opacity:1;  stroke-linecap:round; stroke-linejoin:round;fill-rule:evenodd;" d="M 42590001.000000,33599999.000000 42590001.000000,32400001.000000 42909999.000000,32400001.000000 42909999.000000,33599999.000000 Z"/> 
<svg:path style="fill:#C83434; fill-opacity:1.0;  stroke:#C83434; stroke-width:1.000000; stroke-opacity:1;  stroke-linecap:round; stroke-linejoin:round;fill-rule:evenodd;" d="M 42090001.000000,33599999.000000 42090001.000000,32400001.000000 42409999.000000,32400001.000000 42409999.000000,33599999.000000 Z"/> 
<svg:path style="fill:#C83434; fill-opacity:1.0;  stroke:#C83434; stroke-width:1.000000; stroke-opacity:1;  stroke-linecap:round; stroke-linejoin:round;fill-rule:evenodd;" d="M 41590001.000000,33599999.000000 41590001.000000,32400001.000000 41909999.000000,32400001.000000 41909999.000000,33599999.000000 Z"/> 
<svg:path style="fill:#C83434; fill-opacity:1.0;  stroke:#C83434; stroke-width:1.000000; stroke-opacity:1;  stroke-linecap:round; stroke-linejoin:round;fill-rule:evenodd;" d="M 41090001.000000,33599999.000000 41090001.000000,32400001.000000 41409999.000000,32400001.000000 41409999.000000,33599999.000000 Z"/> 
<svg:path style="fill:#C83434; fill-opacity:1.0;  stroke:#C83434; stroke-width:1.000000; stroke-opacity:1;  stroke-linecap:round; stroke-linejoin:round;fill-rule:evenodd;" d="M 40590001.000000,33599999.000000 40590001.000000,32400001.000000 40909999.000000,32400001.000000 40909999.000000,33599999.000000 Z"/> 
<svg:path style="fill:#C83434; fill-opacity:1.0;  stroke:#C83434; stroke-width:1.000000; stroke-opacity:1;  stroke-linecap:round; stroke-linejoin:round;fill-rule:evenodd;" d="M 40090001.000000,33599999.000000 40090001.000000,32400001.000000 40409999.000000,32400001.000000 40409999.000000,33599999.000000 Z"/> 
<svg:path style="fill:#C83434; fill-opacity:1.0;  stroke:#C83434; stroke-width:1.000000; stroke-opacity:1;  stroke-linecap:round; stroke-linejoin:round;fill-rule:evenodd;" d="M 39590001.000000,33599999.000000 39590001.000000,32400001.000000 39909999.000000,32400001.000000 39909999.000000,33599999.000000 Z"/> 
<svg:path style="fill:#C83434; fill-opacity:1.0;  stroke:#C83434; stroke-width:1.000000; stroke-opacity:1;  stroke-linecap:round; stroke-linejoin:round;fill-rule:evenodd;" d="M 39090001.000000,33599999.000000 39090001.000000,32400001.000000 39409999.000000,32400001.000000 39409999.000000,33599999.000000 Z"/> 
<svg:path style="fill:#C83434; fill-opacity:1.0;  stroke:#C83434; stroke-width:1.000000; stroke-opacity:1;  stroke-linecap:round; stroke-linejoin:round;fill-rule:evenodd;" d="M 38590001.000000,33599999.000000 38590001.000000,32400001.000000 38909999.000000,32400001.000000 38909999.000000,33599999.000000 Z"/> 
<svg:path style="fill:#C83434; fill-opacity:1.0;  stroke:#C83434; stroke-width:1.000000; stroke-opacity:1;  stroke-linecap:round; stroke-linejoin:round;fill-rule:evenodd;" d="M 38090001.000000,33599999.000000 38090001.000000,32400001.000000 38409999.000000,32400001.000000 38409999.000000,33599999.000000 Z"/> 
<svg:path style="fill:#C83434; fill-opacity:1.0;  stroke:#C83434; stroke-width:1.000000; stroke-opacity:1;  stroke-linecap:round; stroke-linejoin:round;fill-rule:evenodd;" d="M 37590001.000000,33599999.000000 37590001.000000,32400001.000000 37909999.000000,32400001.000000 37909999.000000,33599999.000000 Z"/> 
<svg:path style="fill:#C83434; fill-opacity:1.0;  stroke:#C83434; stroke-width:1.000000; stroke-opacity:1;  stroke-linecap:round; stroke-linejoin:round;fill-rule:evenodd;" d="M 37090001.000000,33599999.000000 37090001.000000,32400001.000000 37409999.000000,32400001.000000 37409999.000000,33599999.000000 Z"/> 
<svg:path style="fill:#C83434; fill-opacity:1.0;  stroke:#C83434; stroke-width:1.000000; stroke-opacity:1;  stroke-linecap:round; stroke-linejoin:round;fill-rule:evenodd;" d="M 36590001.000000,33599999.000000 36590001.000000,32400001.000000 36909999.000000,32400001.000000 36909999.000000,33599999.000000 Z"/> 
<svg:path style="fill:#C83434; fill-opacity:1.0;  stroke:#C83434; stroke-width:1.000000; stroke-opacity:1;  stroke-linecap:round; stroke-linejoin:round;fill-rule:evenodd;" d="M 36090001.000000,33599999.000000 36090001.000000,32400001.000000 36409999.000000,32400001.000000 36409999.000000,33599999.000000 Z"/> 
<svg:path style="fill:#C83434; fill-opacity:1.0;  stroke:#C83434; stroke-width:1.000000; stroke-opacity:1;  stroke-linecap:round; stroke-linejoin:round;fill-rule:evenodd;" d="M 35590001.000000,33599999.000000 35590001.000000,32400001.000000 35909999.000000,32400001.000000 35909999.000000,33599999.000000 Z"/> 
<svg:path style="fill:#C83434; fill-opacity:1.0;  stroke:#C83434; stroke-width:1.000000; stroke-opacity:1;  stroke-linecap:round; stroke-linejoin:round;fill-rule:evenodd;" d="M 35090001.000000,33599999.000000 35090001.000000,32400001.000000 35409999.000000,32400001.000000 35409999.000000,33599999.000000 Z"/> 
</svg:g>
<svg:g>
</svg:g>
<svg:g>
</svg:g>
<svg:g>
</svg:g>
</svg:g>
<svg:g style="fill:#FFFFFF; fill-opacity:1.0;  stroke:#FFFFFF; stroke-width:1.000000; stroke-opacity:1;  stroke-linecap:round; stroke-linejoin:round;">
</svg:g>
<svg:g style="fill:#000000; fill-opacity:1.0;  stroke:#000000; stroke-width:1.000000; stroke-opacity:1;  stroke-linecap:round; stroke-linejoin:round;">
<svg:g>
</svg:g>
<svg:g>
</svg:g>
<svg:g>
</svg:g>
<svg:g>
</svg:g>
</svg:g> 
</svg:g></svg>
