<?xml version='1.0' encoding='ASCII' standalone='yes'?>
<svg xmlns:svg="http://www.w3.org/2000/svg" xmlns="http://www.w3.org/2000/svg" xmlns:xlink="http://www.w3.org/1999/xlink" version="1.1" width="9.999980cm" height="9.999980cm" viewBox="0 0 99999800 99999800">
<title>SVG Picture created as kicadBoard-B_Cu.svg date 2022/11/17 06:29:01 </title>
  <desc>Picture generated by PCBNEW </desc>
<g style="fill:#000000; fill-opacity:1.000000;stroke:#000000; stroke-opacity:1.000000; stroke-linecap:round; stroke-linejoin:round;" transform="translate(0 0) scale(1 1)">
</g>
<g style="fill:#000000; fill-opacity:0.0;  stroke:#000000; stroke-width:0.000000; stroke-opacity:1;  stroke-linecap:round; stroke-linejoin:round;">
<g>
</g>
<g style="fill:#4D7FC4; fill-opacity:0.0;  stroke:#4D7FC4; stroke-width:0.000000; stroke-opacity:1;  stroke-linecap:round; stroke-linejoin:round;">
</g>
<g style="fill:#4D7FC4; fill-opacity:1.0;  stroke:#4D7FC4; stroke-width:1.000000; stroke-opacity:1;  stroke-linecap:round; stroke-linejoin:round;">
<circle cx="50000000.000000" cy="50000000.000000" r="1400000.000000"/> 
</g>
<g style="fill:#4D7FC4; fill-opacity:1.0;  stroke:#4D7FC4; stroke-width:21200.000000; stroke-opacity:1;  stroke-linecap:round; stroke-linejoin:round;">
</g>
<g style="fill:#4D7FC4; fill-opacity:1.0;  stroke:#4D7FC4; stroke-width:1.000000; stroke-opacity:1;  stroke-linecap:round; stroke-linejoin:round;">
<circle cx="87500000.000000" cy="50000000.000000" r="1400000.000000"/> 
</g>
<g style="fill:#4D7FC4; fill-opacity:1.0;  stroke:#4D7FC4; stroke-width:21200.000000; stroke-opacity:1;  stroke-linecap:round; stroke-linejoin:round;">
</g>
<g>
</g>
<g>
</g>
<g>
</g>
</g>
<g style="fill:#FFFFFF; fill-opacity:1.0;  stroke:#FFFFFF; stroke-width:21200.000000; stroke-opacity:1;  stroke-linecap:round; stroke-linejoin:round;">
</g>
<g style="fill:#FFFFFF; fill-opacity:1.0;  stroke:#FFFFFF; stroke-width:1.000000; stroke-opacity:1;  stroke-linecap:round; stroke-linejoin:round;">
<circle cx="50000000.000000" cy="50000000.000000" r="700000.000000"/> 
</g>
<g style="fill:#FFFFFF; fill-opacity:1.0;  stroke:#FFFFFF; stroke-width:21200.000000; stroke-opacity:1;  stroke-linecap:round; stroke-linejoin:round;">
</g>
<g style="fill:#FFFFFF; fill-opacity:1.0;  stroke:#FFFFFF; stroke-width:1.000000; stroke-opacity:1;  stroke-linecap:round; stroke-linejoin:round;">
<circle cx="87500000.000000" cy="50000000.000000" r="700000.000000"/> 
</g>
<g style="fill:#FFFFFF; fill-opacity:1.0;  stroke:#FFFFFF; stroke-width:21200.000000; stroke-opacity:1;  stroke-linecap:round; stroke-linejoin:round;">
</g>
<g style="fill:#000000; fill-opacity:1.0;  stroke:#000000; stroke-width:21200.000000; stroke-opacity:1;  stroke-linecap:round; stroke-linejoin:round;">
<g>
</g>
<g>
</g>
<g>
</g>
<g>
</g>
</g> 
<svg:g><svg:title>SVG Picture created as kicadBoard-B_Adhesive.svg date 2022/11/17 06:29:01 </svg:title>
  <svg:desc>Picture generated by PCBNEW </svg:desc>
<svg:g style="fill:#000000; fill-opacity:1.000000;stroke:#000000; stroke-opacity:1.000000; stroke-linecap:round; stroke-linejoin:round;" transform="translate(0 0) scale(1 1)">
</svg:g>
<svg:g style="fill:#000000; fill-opacity:0.0;  stroke:#000000; stroke-width:0.000000; stroke-opacity:1;  stroke-linecap:round; stroke-linejoin:round;">
<svg:g>
</svg:g>
<svg:g>
</svg:g>
<svg:g>
</svg:g>
<svg:g>
</svg:g>
</svg:g>
<svg:g style="fill:#000000; fill-opacity:0.0;  stroke:#000000; stroke-width:0.000000; stroke-opacity:1;  stroke-linecap:round; stroke-linejoin:round;">
<svg:g>
</svg:g>
<svg:g>
</svg:g>
<svg:g>
</svg:g>
<svg:g>
</svg:g>
</svg:g> 
</svg:g><svg:g><svg:title>SVG Picture created as kicadBoard-B_Courtyard.svg date 2022/11/17 06:29:01 </svg:title>
  <svg:desc>Picture generated by PCBNEW </svg:desc>
<svg:g style="fill:#000000; fill-opacity:1.000000;stroke:#000000; stroke-opacity:1.000000; stroke-linecap:round; stroke-linejoin:round;" transform="translate(0 0) scale(1 1)">
</svg:g>
<svg:g style="fill:#000000; fill-opacity:0.0;  stroke:#000000; stroke-width:0.000000; stroke-opacity:1;  stroke-linecap:round; stroke-linejoin:round;">
<svg:g>
</svg:g>
<svg:g>
</svg:g>
<svg:g>
</svg:g>
<svg:g>
</svg:g>
</svg:g>
<svg:g style="fill:#000000; fill-opacity:0.0;  stroke:#000000; stroke-width:0.000000; stroke-opacity:1;  stroke-linecap:round; stroke-linejoin:round;">
<svg:g>
</svg:g>
<svg:g>
</svg:g>
<svg:g>
</svg:g>
<svg:g>
</svg:g>
</svg:g> 
</svg:g><svg:g><svg:title>SVG Picture created as kicadBoard-B_Fab.svg date 2022/11/17 06:29:01 </svg:title>
  <svg:desc>Picture generated by PCBNEW </svg:desc>
<svg:g style="fill:#000000; fill-opacity:1.000000;stroke:#000000; stroke-opacity:1.000000; stroke-linecap:round; stroke-linejoin:round;" transform="translate(0 0) scale(1 1)">
</svg:g>
<svg:g style="fill:#000000; fill-opacity:0.0;  stroke:#000000; stroke-width:0.000000; stroke-opacity:1;  stroke-linecap:round; stroke-linejoin:round;">
<svg:g>
</svg:g>
<svg:g>
</svg:g>
<svg:g>
</svg:g>
<svg:g>
</svg:g>
</svg:g>
<svg:g style="fill:#000000; fill-opacity:0.0;  stroke:#000000; stroke-width:0.000000; stroke-opacity:1;  stroke-linecap:round; stroke-linejoin:round;">
<svg:g>
</svg:g>
<svg:g>
</svg:g>
<svg:g>
</svg:g>
<svg:g>
</svg:g>
</svg:g> 
</svg:g><svg:g><svg:title>SVG Picture created as kicadBoard-B_Mask.svg date 2022/11/17 06:29:01 </svg:title>
  <svg:desc>Picture generated by PCBNEW </svg:desc>
<svg:g style="fill:#000000; fill-opacity:1.000000;stroke:#000000; stroke-opacity:1.000000; stroke-linecap:round; stroke-linejoin:round;" transform="translate(0 0) scale(1 1)">
</svg:g>
<svg:g style="fill:#000000; fill-opacity:0.0;  stroke:#000000; stroke-width:0.000000; stroke-opacity:1;  stroke-linecap:round; stroke-linejoin:round;">
<svg:g>
</svg:g>
<svg:g style="fill:#000000; fill-opacity:1.0;  stroke:#000000; stroke-width:1.000000; stroke-opacity:1;  stroke-linecap:round; stroke-linejoin:round;">
<svg:circle cx="50000000.000000" cy="50000000.000000" r="1400000.000000"/> 
</svg:g>
<svg:g style="fill:#000000; fill-opacity:1.0;  stroke:#000000; stroke-width:21200.000000; stroke-opacity:1;  stroke-linecap:round; stroke-linejoin:round;">
</svg:g>
<svg:g style="fill:#000000; fill-opacity:1.0;  stroke:#000000; stroke-width:1.000000; stroke-opacity:1;  stroke-linecap:round; stroke-linejoin:round;">
<svg:circle cx="87500000.000000" cy="50000000.000000" r="1400000.000000"/> 
</svg:g>
<svg:g style="fill:#000000; fill-opacity:1.0;  stroke:#000000; stroke-width:21200.000000; stroke-opacity:1;  stroke-linecap:round; stroke-linejoin:round;">
</svg:g>
<svg:g>
</svg:g>
<svg:g>
</svg:g>
<svg:g>
</svg:g>
</svg:g>
<svg:g style="fill:#000000; fill-opacity:1.0;  stroke:#000000; stroke-width:21200.000000; stroke-opacity:1;  stroke-linecap:round; stroke-linejoin:round;">
<svg:g>
</svg:g>
<svg:g>
</svg:g>
<svg:g>
</svg:g>
<svg:g>
</svg:g>
</svg:g> 
</svg:g><svg:g><svg:title>SVG Picture created as kicadBoard-B_Paste.svg date 2022/11/17 06:29:01 </svg:title>
  <svg:desc>Picture generated by PCBNEW </svg:desc>
<svg:g style="fill:#000000; fill-opacity:1.000000;stroke:#000000; stroke-opacity:1.000000; stroke-linecap:round; stroke-linejoin:round;" transform="translate(0 0) scale(1 1)">
</svg:g>
<svg:g style="fill:#000000; fill-opacity:0.0;  stroke:#000000; stroke-width:0.000000; stroke-opacity:1;  stroke-linecap:round; stroke-linejoin:round;">
<svg:g>
</svg:g>
<svg:g>
</svg:g>
<svg:g>
</svg:g>
<svg:g>
</svg:g>
</svg:g>
<svg:g style="fill:#000000; fill-opacity:0.0;  stroke:#000000; stroke-width:0.000000; stroke-opacity:1;  stroke-linecap:round; stroke-linejoin:round;">
<svg:g>
</svg:g>
<svg:g>
</svg:g>
<svg:g>
</svg:g>
<svg:g>
</svg:g>
</svg:g> 
</svg:g><svg:g><svg:title>SVG Picture created as kicadBoard-B_Silkscreen.svg date 2022/11/17 06:29:01 </svg:title>
  <svg:desc>Picture generated by PCBNEW </svg:desc>
<svg:g style="fill:#000000; fill-opacity:1.000000;stroke:#000000; stroke-opacity:1.000000; stroke-linecap:round; stroke-linejoin:round;" transform="translate(0 0) scale(1 1)">
</svg:g>
<svg:g style="fill:#000000; fill-opacity:0.0;  stroke:#000000; stroke-width:0.000000; stroke-opacity:1;  stroke-linecap:round; stroke-linejoin:round;">
<svg:g>
</svg:g>
<svg:g>
</svg:g>
<svg:g>
</svg:g>
<svg:g>
</svg:g>
</svg:g>
<svg:g style="fill:#000000; fill-opacity:0.0;  stroke:#000000; stroke-width:0.000000; stroke-opacity:1;  stroke-linecap:round; stroke-linejoin:round;">
<svg:g>
</svg:g>
<svg:g>
</svg:g>
<svg:g>
</svg:g>
<svg:g>
</svg:g>
</svg:g> 
</svg:g><svg:g><svg:title>SVG Picture created as kicadBoard-Edge_Cuts.svg date 2022/11/17 06:29:01 </svg:title>
  <svg:desc>Picture generated by PCBNEW </svg:desc>
<svg:g style="fill:#000000; fill-opacity:1.000000;stroke:#000000; stroke-opacity:1.000000; stroke-linecap:round; stroke-linejoin:round;" transform="translate(0 0) scale(1 1)">
</svg:g>
<svg:g style="fill:#000000; fill-opacity:0.0;  stroke:#000000; stroke-width:0.000000; stroke-opacity:1;  stroke-linecap:round; stroke-linejoin:round;">
<svg:g>
</svg:g>
<svg:g>
</svg:g>
<svg:g>
</svg:g>
<svg:g>
</svg:g>
</svg:g> 
</svg:g><svg:g><svg:title>SVG Picture created as kicadBoard-F_Adhesive.svg date 2022/11/17 06:29:01 </svg:title>
  <svg:desc>Picture generated by PCBNEW </svg:desc>
<svg:g style="fill:#000000; fill-opacity:1.000000;stroke:#000000; stroke-opacity:1.000000; stroke-linecap:round; stroke-linejoin:round;" transform="translate(0 0) scale(1 1)">
</svg:g>
<svg:g style="fill:#000000; fill-opacity:0.0;  stroke:#000000; stroke-width:0.000000; stroke-opacity:1;  stroke-linecap:round; stroke-linejoin:round;">
<svg:g>
</svg:g>
<svg:g>
</svg:g>
<svg:g>
</svg:g>
<svg:g>
</svg:g>
</svg:g>
<svg:g style="fill:#000000; fill-opacity:0.0;  stroke:#000000; stroke-width:0.000000; stroke-opacity:1;  stroke-linecap:round; stroke-linejoin:round;">
<svg:g>
</svg:g>
<svg:g>
</svg:g>
<svg:g>
</svg:g>
<svg:g>
</svg:g>
</svg:g> 
</svg:g><svg:g><svg:title>SVG Picture created as kicadBoard-F_Courtyard.svg date 2022/11/17 06:29:01 </svg:title>
  <svg:desc>Picture generated by PCBNEW </svg:desc>
<svg:g style="fill:#000000; fill-opacity:1.000000;stroke:#000000; stroke-opacity:1.000000; stroke-linecap:round; stroke-linejoin:round;" transform="translate(0 0) scale(1 1)">
</svg:g>
<svg:g style="fill:#000000; fill-opacity:0.0;  stroke:#000000; stroke-width:0.000000; stroke-opacity:1;  stroke-linecap:round; stroke-linejoin:round;">
</svg:g>
<svg:g style="fill:#FF26E2; fill-opacity:0.0;  stroke:#FF26E2; stroke-width:0.000000; stroke-opacity:1;  stroke-linecap:round; stroke-linejoin:round;">
</svg:g>
<svg:g style="fill:#FF26E2; fill-opacity:0.0;  stroke:#FF26E2; stroke-width:50000.000000; stroke-opacity:1;  stroke-linecap:round; stroke-linejoin:round;">
<svg:path d="M47750000 70250000 L89750000 70250000 "/>
<svg:path d="M89750000 70250000 L89750000 29750000 "/>
<svg:path d="M89750000 29750000 L47750000 29750000 "/>
<svg:path d="M47750000 29750000 L47750000 70250000 "/>
<svg:g>
</svg:g>
<svg:g>
</svg:g>
<svg:g>
</svg:g>
<svg:g>
</svg:g>
</svg:g>
<svg:g style="fill:#000000; fill-opacity:0.0;  stroke:#000000; stroke-width:50000.000000; stroke-opacity:1;  stroke-linecap:round; stroke-linejoin:round;">
<svg:g>
</svg:g>
<svg:g>
</svg:g>
<svg:g>
</svg:g>
<svg:g>
</svg:g>
</svg:g> 
</svg:g><svg:g><svg:title>SVG Picture created as kicadBoard-F_Fab.svg date 2022/11/17 06:29:01 </svg:title>
  <svg:desc>Picture generated by PCBNEW </svg:desc>
<svg:g style="fill:#000000; fill-opacity:1.000000;stroke:#000000; stroke-opacity:1.000000; stroke-linecap:round; stroke-linejoin:round;" transform="translate(0 0) scale(1 1)">
</svg:g>
<svg:g style="fill:#000000; fill-opacity:0.0;  stroke:#000000; stroke-width:0.000000; stroke-opacity:1;  stroke-linecap:round; stroke-linejoin:round;">
</svg:g>
<svg:g style="fill:#AFAFAF; fill-opacity:0.0;  stroke:#AFAFAF; stroke-width:0.000000; stroke-opacity:1;  stroke-linecap:round; stroke-linejoin:round;">
</svg:g>
<svg:g style="fill:#AFAFAF; fill-opacity:0.0;  stroke:#AFAFAF; stroke-width:150000.000000; stroke-opacity:1;  stroke-linecap:round; stroke-linejoin:round;">
<svg:text x="68750000.000000" y="71750000.000000" textLength="34242619.000000" font-size="1333333.000000" lengthAdjust="spacingAndGlyphs" text-anchor="middle" opacity="0">C_Rect_L41.5mm_W40.0mm_P37.50mm_MKS4</svg:text>
<svg:g class="stroked-text"><svg:desc>C_Rect_L41.5mm_W40.0mm_P37.50mm_MKS4</svg:desc>
<svg:path d="M52535714 71607142 L52488095 71654761 L52345238 71702380 L52250000 71702380 L52107142 71654761 L52011904 71559523 L51964285 71464285 L51916666 71273809 L51916666 71130952 L51964285 70940476 L52011904 70845238 L52107142 70750000 L52250000 70702380 L52345238 70702380 L52488095 70750000 L52535714 70797619 "/>
<svg:path d="M52726190 71797619 L53488095 71797619 "/>
<svg:path d="M54297619 71702380 L53964285 71226190 "/>
<svg:path d="M53726190 71702380 L53726190 70702380 L54107142 70702380 L54202380 70750000 L54250000 70797619 L54297619 70892857 L54297619 71035714 L54250000 71130952 L54202380 71178571 L54107142 71226190 L53726190 71226190 "/>
<svg:path d="M55107142 71654761 L55011904 71702380 L54821428 71702380 L54726190 71654761 L54678571 71559523 L54678571 71178571 L54726190 71083333 L54821428 71035714 L55011904 71035714 L55107142 71083333 L55154761 71178571 L55154761 71273809 L54678571 71369047 "/>
<svg:path d="M56011904 71654761 L55916666 71702380 L55726190 71702380 L55630952 71654761 L55583333 71607142 L55535714 71511904 L55535714 71226190 L55583333 71130952 L55630952 71083333 L55726190 71035714 L55916666 71035714 L56011904 71083333 "/>
<svg:path d="M56297619 71035714 L56678571 71035714 "/>
<svg:path d="M56440476 70702380 L56440476 71559523 L56488095 71654761 L56583333 71702380 L56678571 71702380 "/>
<svg:path d="M56773809 71797619 L57535714 71797619 "/>
<svg:path d="M58250000 71702380 L57773809 71702380 L57773809 70702380 "/>
<svg:path d="M59011904 71035714 L59011904 71702380 "/>
<svg:path d="M58773809 70654761 L58535714 71369047 L59154761 71369047 "/>
<svg:path d="M60059523 71702380 L59488095 71702380 "/>
<svg:path d="M59773809 71702380 L59773809 70702380 L59678571 70845238 L59583333 70940476 L59488095 70988095 "/>
<svg:path d="M60488095 71607142 L60535714 71654761 L60488095 71702380 L60440476 71654761 L60488095 71607142 L60488095 71702380 "/>
<svg:path d="M61440476 70702380 L60964285 70702380 L60916666 71178571 L60964285 71130952 L61059523 71083333 L61297619 71083333 L61392857 71130952 L61440476 71178571 L61488095 71273809 L61488095 71511904 L61440476 71607142 L61392857 71654761 L61297619 71702380 L61059523 71702380 L60964285 71654761 L60916666 71607142 "/>
<svg:path d="M61916666 71702380 L61916666 71035714 "/>
<svg:path d="M61916666 71130952 L61964285 71083333 L62059523 71035714 L62202380 71035714 L62297619 71083333 L62345238 71178571 L62345238 71702380 "/>
<svg:path d="M62345238 71178571 L62392857 71083333 L62488095 71035714 L62630952 71035714 L62726190 71083333 L62773809 71178571 L62773809 71702380 "/>
<svg:path d="M63250000 71702380 L63250000 71035714 "/>
<svg:path d="M63250000 71130952 L63297619 71083333 L63392857 71035714 L63535714 71035714 L63630952 71083333 L63678571 71178571 L63678571 71702380 "/>
<svg:path d="M63678571 71178571 L63726190 71083333 L63821428 71035714 L63964285 71035714 L64059523 71083333 L64107142 71178571 L64107142 71702380 "/>
<svg:path d="M64345238 71797619 L65107142 71797619 "/>
<svg:path d="M65250000 70702380 L65488095 71702380 L65678571 70988095 L65869047 71702380 L66107142 70702380 "/>
<svg:path d="M66916666 71035714 L66916666 71702380 "/>
<svg:path d="M66678571 70654761 L66440476 71369047 L67059523 71369047 "/>
<svg:path d="M67630952 70702380 L67726190 70702380 L67821428 70750000 L67869047 70797619 L67916666 70892857 L67964285 71083333 L67964285 71321428 L67916666 71511904 L67869047 71607142 L67821428 71654761 L67726190 71702380 L67630952 71702380 L67535714 71654761 L67488095 71607142 L67440476 71511904 L67392857 71321428 L67392857 71083333 L67440476 70892857 L67488095 70797619 L67535714 70750000 L67630952 70702380 "/>
<svg:path d="M68392857 71607142 L68440476 71654761 L68392857 71702380 L68345238 71654761 L68392857 71607142 L68392857 71702380 "/>
<svg:path d="M69059523 70702380 L69154761 70702380 L69250000 70750000 L69297619 70797619 L69345238 70892857 L69392857 71083333 L69392857 71321428 L69345238 71511904 L69297619 71607142 L69250000 71654761 L69154761 71702380 L69059523 71702380 L68964285 71654761 L68916666 71607142 L68869047 71511904 L68821428 71321428 L68821428 71083333 L68869047 70892857 L68916666 70797619 L68964285 70750000 L69059523 70702380 "/>
<svg:path d="M69821428 71702380 L69821428 71035714 "/>
<svg:path d="M69821428 71130952 L69869047 71083333 L69964285 71035714 L70107142 71035714 L70202380 71083333 L70250000 71178571 L70250000 71702380 "/>
<svg:path d="M70250000 71178571 L70297619 71083333 L70392857 71035714 L70535714 71035714 L70630952 71083333 L70678571 71178571 L70678571 71702380 "/>
<svg:path d="M71154761 71702380 L71154761 71035714 "/>
<svg:path d="M71154761 71130952 L71202380 71083333 L71297619 71035714 L71440476 71035714 L71535714 71083333 L71583333 71178571 L71583333 71702380 "/>
<svg:path d="M71583333 71178571 L71630952 71083333 L71726190 71035714 L71869047 71035714 L71964285 71083333 L72011904 71178571 L72011904 71702380 "/>
<svg:path d="M72250000 71797619 L73011904 71797619 "/>
<svg:path d="M73250000 71702380 L73250000 70702380 L73630952 70702380 L73726190 70750000 L73773809 70797619 L73821428 70892857 L73821428 71035714 L73773809 71130952 L73726190 71178571 L73630952 71226190 L73250000 71226190 "/>
<svg:path d="M74154761 70702380 L74773809 70702380 L74440476 71083333 L74583333 71083333 L74678571 71130952 L74726190 71178571 L74773809 71273809 L74773809 71511904 L74726190 71607142 L74678571 71654761 L74583333 71702380 L74297619 71702380 L74202380 71654761 L74154761 71607142 "/>
<svg:path d="M75107142 70702380 L75773809 70702380 L75345238 71702380 "/>
<svg:path d="M76154761 71607142 L76202380 71654761 L76154761 71702380 L76107142 71654761 L76154761 71607142 L76154761 71702380 "/>
<svg:path d="M77107142 70702380 L76630952 70702380 L76583333 71178571 L76630952 71130952 L76726190 71083333 L76964285 71083333 L77059523 71130952 L77107142 71178571 L77154761 71273809 L77154761 71511904 L77107142 71607142 L77059523 71654761 L76964285 71702380 L76726190 71702380 L76630952 71654761 L76583333 71607142 "/>
<svg:path d="M77773809 70702380 L77869047 70702380 L77964285 70750000 L78011904 70797619 L78059523 70892857 L78107142 71083333 L78107142 71321428 L78059523 71511904 L78011904 71607142 L77964285 71654761 L77869047 71702380 L77773809 71702380 L77678571 71654761 L77630952 71607142 L77583333 71511904 L77535714 71321428 L77535714 71083333 L77583333 70892857 L77630952 70797619 L77678571 70750000 L77773809 70702380 "/>
<svg:path d="M78535714 71702380 L78535714 71035714 "/>
<svg:path d="M78535714 71130952 L78583333 71083333 L78678571 71035714 L78821428 71035714 L78916666 71083333 L78964285 71178571 L78964285 71702380 "/>
<svg:path d="M78964285 71178571 L79011904 71083333 L79107142 71035714 L79250000 71035714 L79345238 71083333 L79392857 71178571 L79392857 71702380 "/>
<svg:path d="M79869047 71702380 L79869047 71035714 "/>
<svg:path d="M79869047 71130952 L79916666 71083333 L80011904 71035714 L80154761 71035714 L80250000 71083333 L80297619 71178571 L80297619 71702380 "/>
<svg:path d="M80297619 71178571 L80345238 71083333 L80440476 71035714 L80583333 71035714 L80678571 71083333 L80726190 71178571 L80726190 71702380 "/>
<svg:path d="M80964285 71797619 L81726190 71797619 "/>
<svg:path d="M81964285 71702380 L81964285 70702380 L82297619 71416666 L82630952 70702380 L82630952 71702380 "/>
<svg:path d="M83107142 71702380 L83107142 70702380 "/>
<svg:path d="M83678571 71702380 L83249999 71130952 "/>
<svg:path d="M83678571 70702380 L83107142 71273809 "/>
<svg:path d="M84059523 71654761 L84202380 71702380 L84440476 71702380 L84535714 71654761 L84583333 71607142 L84630952 71511904 L84630952 71416666 L84583333 71321428 L84535714 71273809 L84440476 71226190 L84249999 71178571 L84154761 71130952 L84107142 71083333 L84059523 70988095 L84059523 70892857 L84107142 70797619 L84154761 70750000 L84249999 70702380 L84488095 70702380 L84630952 70750000 "/>
<svg:path d="M85488095 71035714 L85488095 71702380 "/>
<svg:path d="M85249999 70654761 L85011904 71369047 L85630952 71369047 "/>
</svg:g><svg:text x="68750000.000000" y="50500000.000000" textLength="22337857.000000" font-size="1333333.000000" lengthAdjust="spacingAndGlyphs" text-anchor="middle" opacity="0">FZKCCRECTL415W4P375MKS4</svg:text>
<svg:g class="stroked-text"><svg:desc>FZKCCRECTL415W4P375MKS4</svg:desc>
<svg:path d="M58250000 49928571 L57916666 49928571 "/>
<svg:path d="M57916666 50452380 L57916666 49452380 L58392857 49452380 "/>
<svg:path d="M58678571 49452380 L59345238 49452380 L58678571 50452380 L59345238 50452380 "/>
<svg:path d="M59726190 50452380 L59726190 49452380 "/>
<svg:path d="M60297619 50452380 L59869047 49880952 "/>
<svg:path d="M60297619 49452380 L59726190 50023809 "/>
<svg:path d="M61297619 50357142 L61250000 50404761 L61107142 50452380 L61011904 50452380 L60869047 50404761 L60773809 50309523 L60726190 50214285 L60678571 50023809 L60678571 49880952 L60726190 49690476 L60773809 49595238 L60869047 49500000 L61011904 49452380 L61107142 49452380 L61250000 49500000 L61297619 49547619 "/>
<svg:path d="M62297619 50357142 L62250000 50404761 L62107142 50452380 L62011904 50452380 L61869047 50404761 L61773809 50309523 L61726190 50214285 L61678571 50023809 L61678571 49880952 L61726190 49690476 L61773809 49595238 L61869047 49500000 L62011904 49452380 L62107142 49452380 L62250000 49500000 L62297619 49547619 "/>
<svg:path d="M63297619 50452380 L62964285 49976190 "/>
<svg:path d="M62726190 50452380 L62726190 49452380 L63107142 49452380 L63202380 49500000 L63250000 49547619 L63297619 49642857 L63297619 49785714 L63250000 49880952 L63202380 49928571 L63107142 49976190 L62726190 49976190 "/>
<svg:path d="M63726190 49928571 L64059523 49928571 "/>
<svg:path d="M64202380 50452380 L63726190 50452380 L63726190 49452380 L64202380 49452380 "/>
<svg:path d="M65202380 50357142 L65154761 50404761 L65011904 50452380 L64916666 50452380 L64773809 50404761 L64678571 50309523 L64630952 50214285 L64583333 50023809 L64583333 49880952 L64630952 49690476 L64678571 49595238 L64773809 49500000 L64916666 49452380 L65011904 49452380 L65154761 49500000 L65202380 49547619 "/>
<svg:path d="M65488095 49452380 L66059523 49452380 "/>
<svg:path d="M65773809 50452380 L65773809 49452380 "/>
<svg:path d="M66869047 50452380 L66392857 50452380 L66392857 49452380 "/>
<svg:path d="M67630952 49785714 L67630952 50452380 "/>
<svg:path d="M67392857 49404761 L67154761 50119047 L67773809 50119047 "/>
<svg:path d="M68678571 50452380 L68107142 50452380 "/>
<svg:path d="M68392857 50452380 L68392857 49452380 L68297619 49595238 L68202380 49690476 L68107142 49738095 "/>
<svg:path d="M69583333 49452380 L69107142 49452380 L69059523 49928571 L69107142 49880952 L69202380 49833333 L69440476 49833333 L69535714 49880952 L69583333 49928571 L69630952 50023809 L69630952 50261904 L69583333 50357142 L69535714 50404761 L69440476 50452380 L69202380 50452380 L69107142 50404761 L69059523 50357142 "/>
<svg:path d="M69964285 49452380 L70202380 50452380 L70392857 49738095 L70583333 50452380 L70821428 49452380 "/>
<svg:path d="M71630952 49785714 L71630952 50452380 "/>
<svg:path d="M71392857 49404761 L71154761 50119047 L71773809 50119047 "/>
<svg:path d="M72154761 50452380 L72154761 49452380 L72535714 49452380 L72630952 49500000 L72678571 49547619 L72726190 49642857 L72726190 49785714 L72678571 49880952 L72630952 49928571 L72535714 49976190 L72154761 49976190 "/>
<svg:path d="M73059523 49452380 L73678571 49452380 L73345238 49833333 L73488095 49833333 L73583333 49880952 L73630952 49928571 L73678571 50023809 L73678571 50261904 L73630952 50357142 L73583333 50404761 L73488095 50452380 L73202380 50452380 L73107142 50404761 L73059523 50357142 "/>
<svg:path d="M74011904 49452380 L74678571 49452380 L74250000 50452380 "/>
<svg:path d="M75535714 49452380 L75059523 49452380 L75011904 49928571 L75059523 49880952 L75154761 49833333 L75392857 49833333 L75488095 49880952 L75535714 49928571 L75583333 50023809 L75583333 50261904 L75535714 50357142 L75488095 50404761 L75392857 50452380 L75154761 50452380 L75059523 50404761 L75011904 50357142 "/>
<svg:path d="M76011904 50452380 L76011904 49452380 L76345238 50166666 L76678571 49452380 L76678571 50452380 "/>
<svg:path d="M77154761 50452380 L77154761 49452380 "/>
<svg:path d="M77726190 50452380 L77297619 49880952 "/>
<svg:path d="M77726190 49452380 L77154761 50023809 "/>
<svg:path d="M78107142 50404761 L78250000 50452380 L78488095 50452380 L78583333 50404761 L78630952 50357142 L78678571 50261904 L78678571 50166666 L78630952 50071428 L78583333 50023809 L78488095 49976190 L78297619 49928571 L78202380 49880952 L78154761 49833333 L78107142 49738095 L78107142 49642857 L78154761 49547619 L78202380 49500000 L78297619 49452380 L78535714 49452380 L78678571 49500000 "/>
<svg:path d="M79535714 49785714 L79535714 50452380 "/>
<svg:path d="M79297619 49404761 L79059523 50119047 L79678571 50119047 "/>
</svg:g></svg:g>
<svg:g style="fill:#AFAFAF; fill-opacity:0.0;  stroke:#AFAFAF; stroke-width:100000.000000; stroke-opacity:1;  stroke-linecap:round; stroke-linejoin:round;">
<svg:path d="M48000000 70000000 L89500000 70000000 "/>
<svg:path d="M89500000 70000000 L89500000 30000000 "/>
<svg:path d="M48000000 30000000 L48000000 70000000 "/>
<svg:path d="M89500000 30000000 L48000000 30000000 "/>
<svg:g>
</svg:g>
<svg:g>
</svg:g>
<svg:g>
</svg:g>
<svg:g>
</svg:g>
</svg:g>
<svg:g style="fill:#000000; fill-opacity:0.0;  stroke:#000000; stroke-width:100000.000000; stroke-opacity:1;  stroke-linecap:round; stroke-linejoin:round;">
<svg:g>
</svg:g>
<svg:g>
</svg:g>
<svg:g>
</svg:g>
<svg:g>
</svg:g>
</svg:g> 
</svg:g><svg:g><svg:title>SVG Picture created as kicadBoard-F_Mask.svg date 2022/11/17 06:29:01 </svg:title>
  <svg:desc>Picture generated by PCBNEW </svg:desc>
<svg:g style="fill:#000000; fill-opacity:1.000000;stroke:#000000; stroke-opacity:1.000000; stroke-linecap:round; stroke-linejoin:round;" transform="translate(0 0) scale(1 1)">
</svg:g>
<svg:g style="fill:#000000; fill-opacity:0.0;  stroke:#000000; stroke-width:0.000000; stroke-opacity:1;  stroke-linecap:round; stroke-linejoin:round;">
<svg:g>
</svg:g>
<svg:g style="fill:#000000; fill-opacity:1.0;  stroke:#000000; stroke-width:1.000000; stroke-opacity:1;  stroke-linecap:round; stroke-linejoin:round;">
<svg:circle cx="50000000.000000" cy="50000000.000000" r="1400000.000000"/> 
</svg:g>
<svg:g style="fill:#000000; fill-opacity:1.0;  stroke:#000000; stroke-width:21200.000000; stroke-opacity:1;  stroke-linecap:round; stroke-linejoin:round;">
</svg:g>
<svg:g style="fill:#000000; fill-opacity:1.0;  stroke:#000000; stroke-width:1.000000; stroke-opacity:1;  stroke-linecap:round; stroke-linejoin:round;">
<svg:circle cx="87500000.000000" cy="50000000.000000" r="1400000.000000"/> 
</svg:g>
<svg:g style="fill:#000000; fill-opacity:1.0;  stroke:#000000; stroke-width:21200.000000; stroke-opacity:1;  stroke-linecap:round; stroke-linejoin:round;">
</svg:g>
<svg:g>
</svg:g>
<svg:g>
</svg:g>
<svg:g>
</svg:g>
</svg:g>
<svg:g style="fill:#000000; fill-opacity:1.0;  stroke:#000000; stroke-width:21200.000000; stroke-opacity:1;  stroke-linecap:round; stroke-linejoin:round;">
<svg:g>
</svg:g>
<svg:g>
</svg:g>
<svg:g>
</svg:g>
<svg:g>
</svg:g>
</svg:g> 
</svg:g><svg:g><svg:title>SVG Picture created as kicadBoard-F_Paste.svg date 2022/11/17 06:29:01 </svg:title>
  <svg:desc>Picture generated by PCBNEW </svg:desc>
<svg:g style="fill:#000000; fill-opacity:1.000000;stroke:#000000; stroke-opacity:1.000000; stroke-linecap:round; stroke-linejoin:round;" transform="translate(0 0) scale(1 1)">
</svg:g>
<svg:g style="fill:#000000; fill-opacity:0.0;  stroke:#000000; stroke-width:0.000000; stroke-opacity:1;  stroke-linecap:round; stroke-linejoin:round;">
<svg:g>
</svg:g>
<svg:g>
</svg:g>
<svg:g>
</svg:g>
<svg:g>
</svg:g>
</svg:g>
<svg:g style="fill:#000000; fill-opacity:0.0;  stroke:#000000; stroke-width:0.000000; stroke-opacity:1;  stroke-linecap:round; stroke-linejoin:round;">
<svg:g>
</svg:g>
<svg:g>
</svg:g>
<svg:g>
</svg:g>
<svg:g>
</svg:g>
</svg:g> 
</svg:g><svg:g><svg:title>SVG Picture created as kicadBoard-F_Silkscreen.svg date 2022/11/17 06:29:01 </svg:title>
  <svg:desc>Picture generated by PCBNEW </svg:desc>
<svg:g style="fill:#000000; fill-opacity:1.000000;stroke:#000000; stroke-opacity:1.000000; stroke-linecap:round; stroke-linejoin:round;" transform="translate(0 0) scale(1 1)">
</svg:g>
<svg:g style="fill:#000000; fill-opacity:0.0;  stroke:#000000; stroke-width:0.000000; stroke-opacity:1;  stroke-linecap:round; stroke-linejoin:round;">
</svg:g>
<svg:g style="fill:#F2EDA1; fill-opacity:0.0;  stroke:#F2EDA1; stroke-width:0.000000; stroke-opacity:1;  stroke-linecap:round; stroke-linejoin:round;">
</svg:g>
<svg:g style="fill:#F2EDA1; fill-opacity:0.0;  stroke:#F2EDA1; stroke-width:150000.000000; stroke-opacity:1;  stroke-linecap:round; stroke-linejoin:round;">
<svg:text x="68750000.000000" y="29250000.000000" textLength="22142858.000000" font-size="1333333.000000" lengthAdjust="spacingAndGlyphs" text-anchor="middle" opacity="0">FZKCCRECTL415W4P375MKS4</svg:text>
<svg:g class="stroked-text"><svg:desc>FZKCCRECTL415W4P375MKS4</svg:desc>
<svg:path d="M58250000 28678571 L57916666 28678571 "/>
<svg:path d="M57916666 29202380 L57916666 28202380 L58392857 28202380 "/>
<svg:path d="M58678571 28202380 L59345238 28202380 L58678571 29202380 L59345238 29202380 "/>
<svg:path d="M59726190 29202380 L59726190 28202380 "/>
<svg:path d="M60297619 29202380 L59869047 28630952 "/>
<svg:path d="M60297619 28202380 L59726190 28773809 "/>
<svg:path d="M61297619 29107142 L61250000 29154761 L61107142 29202380 L61011904 29202380 L60869047 29154761 L60773809 29059523 L60726190 28964285 L60678571 28773809 L60678571 28630952 L60726190 28440476 L60773809 28345238 L60869047 28250000 L61011904 28202380 L61107142 28202380 L61250000 28250000 L61297619 28297619 "/>
<svg:path d="M62297619 29107142 L62250000 29154761 L62107142 29202380 L62011904 29202380 L61869047 29154761 L61773809 29059523 L61726190 28964285 L61678571 28773809 L61678571 28630952 L61726190 28440476 L61773809 28345238 L61869047 28250000 L62011904 28202380 L62107142 28202380 L62250000 28250000 L62297619 28297619 "/>
<svg:path d="M63297619 29202380 L62964285 28726190 "/>
<svg:path d="M62726190 29202380 L62726190 28202380 L63107142 28202380 L63202380 28250000 L63250000 28297619 L63297619 28392857 L63297619 28535714 L63250000 28630952 L63202380 28678571 L63107142 28726190 L62726190 28726190 "/>
<svg:path d="M63726190 28678571 L64059523 28678571 "/>
<svg:path d="M64202380 29202380 L63726190 29202380 L63726190 28202380 L64202380 28202380 "/>
<svg:path d="M65202380 29107142 L65154761 29154761 L65011904 29202380 L64916666 29202380 L64773809 29154761 L64678571 29059523 L64630952 28964285 L64583333 28773809 L64583333 28630952 L64630952 28440476 L64678571 28345238 L64773809 28250000 L64916666 28202380 L65011904 28202380 L65154761 28250000 L65202380 28297619 "/>
<svg:path d="M65488095 28202380 L66059523 28202380 "/>
<svg:path d="M65773809 29202380 L65773809 28202380 "/>
<svg:path d="M66869047 29202380 L66392857 29202380 L66392857 28202380 "/>
<svg:path d="M67630952 28535714 L67630952 29202380 "/>
<svg:path d="M67392857 28154761 L67154761 28869047 L67773809 28869047 "/>
<svg:path d="M68678571 29202380 L68107142 29202380 "/>
<svg:path d="M68392857 29202380 L68392857 28202380 L68297619 28345238 L68202380 28440476 L68107142 28488095 "/>
<svg:path d="M69583333 28202380 L69107142 28202380 L69059523 28678571 L69107142 28630952 L69202380 28583333 L69440476 28583333 L69535714 28630952 L69583333 28678571 L69630952 28773809 L69630952 29011904 L69583333 29107142 L69535714 29154761 L69440476 29202380 L69202380 29202380 L69107142 29154761 L69059523 29107142 "/>
<svg:path d="M69964285 28202380 L70202380 29202380 L70392857 28488095 L70583333 29202380 L70821428 28202380 "/>
<svg:path d="M71630952 28535714 L71630952 29202380 "/>
<svg:path d="M71392857 28154761 L71154761 28869047 L71773809 28869047 "/>
<svg:path d="M72154761 29202380 L72154761 28202380 L72535714 28202380 L72630952 28250000 L72678571 28297619 L72726190 28392857 L72726190 28535714 L72678571 28630952 L72630952 28678571 L72535714 28726190 L72154761 28726190 "/>
<svg:path d="M73059523 28202380 L73678571 28202380 L73345238 28583333 L73488095 28583333 L73583333 28630952 L73630952 28678571 L73678571 28773809 L73678571 29011904 L73630952 29107142 L73583333 29154761 L73488095 29202380 L73202380 29202380 L73107142 29154761 L73059523 29107142 "/>
<svg:path d="M74011904 28202380 L74678571 28202380 L74250000 29202380 "/>
<svg:path d="M75535714 28202380 L75059523 28202380 L75011904 28678571 L75059523 28630952 L75154761 28583333 L75392857 28583333 L75488095 28630952 L75535714 28678571 L75583333 28773809 L75583333 29011904 L75535714 29107142 L75488095 29154761 L75392857 29202380 L75154761 29202380 L75059523 29154761 L75011904 29107142 "/>
<svg:path d="M76011904 29202380 L76011904 28202380 L76345238 28916666 L76678571 28202380 L76678571 29202380 "/>
<svg:path d="M77154761 29202380 L77154761 28202380 "/>
<svg:path d="M77726190 29202380 L77297619 28630952 "/>
<svg:path d="M77726190 28202380 L77154761 28773809 "/>
<svg:path d="M78107142 29154761 L78250000 29202380 L78488095 29202380 L78583333 29154761 L78630952 29107142 L78678571 29011904 L78678571 28916666 L78630952 28821428 L78583333 28773809 L78488095 28726190 L78297619 28678571 L78202380 28630952 L78154761 28583333 L78107142 28488095 L78107142 28392857 L78154761 28297619 L78202380 28250000 L78297619 28202380 L78535714 28202380 L78678571 28250000 "/>
<svg:path d="M79535714 28535714 L79535714 29202380 "/>
<svg:path d="M79297619 28154761 L79059523 28869047 L79678571 28869047 "/>
</svg:g></svg:g>
<svg:g style="fill:#F2EDA1; fill-opacity:0.0;  stroke:#F2EDA1; stroke-width:120000.000000; stroke-opacity:1;  stroke-linecap:round; stroke-linejoin:round;">
<svg:path d="M89620000 29880000 L89620000 70120000 "/>
<svg:path d="M47880000 29880000 L89620000 29880000 "/>
<svg:path d="M47880000 70120000 L89620000 70120000 "/>
<svg:path d="M47880000 29880000 L47880000 70120000 "/>
<svg:g>
</svg:g>
<svg:g>
</svg:g>
<svg:g>
</svg:g>
<svg:g>
</svg:g>
</svg:g>
<svg:g style="fill:#000000; fill-opacity:0.0;  stroke:#000000; stroke-width:120000.000000; stroke-opacity:1;  stroke-linecap:round; stroke-linejoin:round;">
<svg:g>
</svg:g>
<svg:g>
</svg:g>
<svg:g>
</svg:g>
<svg:g>
</svg:g>
</svg:g> 
</svg:g><svg:g><svg:title>SVG Picture created as kicadBoard-Margin.svg date 2022/11/17 06:29:01 </svg:title>
  <svg:desc>Picture generated by PCBNEW </svg:desc>
<svg:g style="fill:#000000; fill-opacity:1.000000;stroke:#000000; stroke-opacity:1.000000; stroke-linecap:round; stroke-linejoin:round;" transform="translate(0 0) scale(1 1)">
</svg:g>
<svg:g style="fill:#000000; fill-opacity:0.0;  stroke:#000000; stroke-width:0.000000; stroke-opacity:1;  stroke-linecap:round; stroke-linejoin:round;">
<svg:g>
</svg:g>
<svg:g>
</svg:g>
<svg:g>
</svg:g>
<svg:g>
</svg:g>
</svg:g>
<svg:g style="fill:#000000; fill-opacity:0.0;  stroke:#000000; stroke-width:0.000000; stroke-opacity:1;  stroke-linecap:round; stroke-linejoin:round;">
<svg:g>
</svg:g>
<svg:g>
</svg:g>
<svg:g>
</svg:g>
<svg:g>
</svg:g>
</svg:g> 
</svg:g><svg:g><svg:title>SVG Picture created as kicadBoard-F_Cu.svg date 2022/11/17 06:29:01 </svg:title>
  <svg:desc>Picture generated by PCBNEW </svg:desc>
<svg:g style="fill:#000000; fill-opacity:1.000000;stroke:#000000; stroke-opacity:1.000000; stroke-linecap:round; stroke-linejoin:round;" transform="translate(0 0) scale(1 1)">
</svg:g>
<svg:g style="fill:#000000; fill-opacity:0.0;  stroke:#000000; stroke-width:0.000000; stroke-opacity:1;  stroke-linecap:round; stroke-linejoin:round;">
<svg:g>
</svg:g>
<svg:g style="fill:#C83434; fill-opacity:0.0;  stroke:#C83434; stroke-width:0.000000; stroke-opacity:1;  stroke-linecap:round; stroke-linejoin:round;">
</svg:g>
<svg:g style="fill:#C83434; fill-opacity:1.0;  stroke:#C83434; stroke-width:1.000000; stroke-opacity:1;  stroke-linecap:round; stroke-linejoin:round;">
<svg:circle cx="50000000.000000" cy="50000000.000000" r="1400000.000000"/> 
</svg:g>
<svg:g style="fill:#C83434; fill-opacity:1.0;  stroke:#C83434; stroke-width:21200.000000; stroke-opacity:1;  stroke-linecap:round; stroke-linejoin:round;">
</svg:g>
<svg:g style="fill:#C83434; fill-opacity:1.0;  stroke:#C83434; stroke-width:1.000000; stroke-opacity:1;  stroke-linecap:round; stroke-linejoin:round;">
<svg:circle cx="87500000.000000" cy="50000000.000000" r="1400000.000000"/> 
</svg:g>
<svg:g style="fill:#C83434; fill-opacity:1.0;  stroke:#C83434; stroke-width:21200.000000; stroke-opacity:1;  stroke-linecap:round; stroke-linejoin:round;">
</svg:g>
<svg:g>
</svg:g>
<svg:g>
</svg:g>
<svg:g>
</svg:g>
</svg:g>
<svg:g style="fill:#FFFFFF; fill-opacity:1.0;  stroke:#FFFFFF; stroke-width:21200.000000; stroke-opacity:1;  stroke-linecap:round; stroke-linejoin:round;">
</svg:g>
<svg:g style="fill:#FFFFFF; fill-opacity:1.0;  stroke:#FFFFFF; stroke-width:1.000000; stroke-opacity:1;  stroke-linecap:round; stroke-linejoin:round;">
<svg:circle cx="50000000.000000" cy="50000000.000000" r="700000.000000"/> 
</svg:g>
<svg:g style="fill:#FFFFFF; fill-opacity:1.0;  stroke:#FFFFFF; stroke-width:21200.000000; stroke-opacity:1;  stroke-linecap:round; stroke-linejoin:round;">
</svg:g>
<svg:g style="fill:#FFFFFF; fill-opacity:1.0;  stroke:#FFFFFF; stroke-width:1.000000; stroke-opacity:1;  stroke-linecap:round; stroke-linejoin:round;">
<svg:circle cx="87500000.000000" cy="50000000.000000" r="700000.000000"/> 
</svg:g>
<svg:g style="fill:#FFFFFF; fill-opacity:1.0;  stroke:#FFFFFF; stroke-width:21200.000000; stroke-opacity:1;  stroke-linecap:round; stroke-linejoin:round;">
</svg:g>
<svg:g style="fill:#000000; fill-opacity:1.0;  stroke:#000000; stroke-width:21200.000000; stroke-opacity:1;  stroke-linecap:round; stroke-linejoin:round;">
<svg:g>
</svg:g>
<svg:g>
</svg:g>
<svg:g>
</svg:g>
<svg:g>
</svg:g>
</svg:g> 
</svg:g></svg>
