<?xml version='1.0' encoding='ASCII' standalone='yes'?>
<svg xmlns:svg="http://www.w3.org/2000/svg" xmlns="http://www.w3.org/2000/svg" xmlns:xlink="http://www.w3.org/1999/xlink" version="1.1" width="9.999980cm" height="9.999980cm" viewBox="0 0 99999800 99999800">
<title>SVG Picture created as kicadBoard-B_Cu.svg date 2022/12/01 21:16:11 </title>
  <desc>Picture generated by PCBNEW </desc>
<g style="fill:#000000; fill-opacity:1.000000;stroke:#000000; stroke-opacity:1.000000; stroke-linecap:round; stroke-linejoin:round;" transform="translate(0 0) scale(1 1)">
</g>
<g style="fill:#000000; fill-opacity:0.0;  stroke:#000000; stroke-width:0.000000; stroke-opacity:1;  stroke-linecap:round; stroke-linejoin:round;">
<g>
</g>
<g>
</g>
<g>
</g>
<g>
</g>
</g>
<g style="fill:#FFFFFF; fill-opacity:0.0;  stroke:#FFFFFF; stroke-width:0.000000; stroke-opacity:1;  stroke-linecap:round; stroke-linejoin:round;">
</g>
<g style="fill:#000000; fill-opacity:0.0;  stroke:#000000; stroke-width:0.000000; stroke-opacity:1;  stroke-linecap:round; stroke-linejoin:round;">
<g>
</g>
<g>
</g>
<g>
</g>
<g>
</g>
</g> 
<svg:g><svg:title>SVG Picture created as kicadBoard-B_Adhesive.svg date 2022/12/01 21:16:11 </svg:title>
  <svg:desc>Picture generated by PCBNEW </svg:desc>
<svg:g style="fill:#000000; fill-opacity:1.000000;stroke:#000000; stroke-opacity:1.000000; stroke-linecap:round; stroke-linejoin:round;" transform="translate(0 0) scale(1 1)">
</svg:g>
<svg:g style="fill:#000000; fill-opacity:0.0;  stroke:#000000; stroke-width:0.000000; stroke-opacity:1;  stroke-linecap:round; stroke-linejoin:round;">
<svg:g>
</svg:g>
<svg:g>
</svg:g>
<svg:g>
</svg:g>
<svg:g>
</svg:g>
</svg:g>
<svg:g style="fill:#000000; fill-opacity:0.0;  stroke:#000000; stroke-width:0.000000; stroke-opacity:1;  stroke-linecap:round; stroke-linejoin:round;">
<svg:g>
</svg:g>
<svg:g>
</svg:g>
<svg:g>
</svg:g>
<svg:g>
</svg:g>
</svg:g> 
</svg:g><svg:g><svg:title>SVG Picture created as kicadBoard-B_Courtyard.svg date 2022/12/01 21:16:11 </svg:title>
  <svg:desc>Picture generated by PCBNEW </svg:desc>
<svg:g style="fill:#000000; fill-opacity:1.000000;stroke:#000000; stroke-opacity:1.000000; stroke-linecap:round; stroke-linejoin:round;" transform="translate(0 0) scale(1 1)">
</svg:g>
<svg:g style="fill:#000000; fill-opacity:0.0;  stroke:#000000; stroke-width:0.000000; stroke-opacity:1;  stroke-linecap:round; stroke-linejoin:round;">
<svg:g>
</svg:g>
<svg:g>
</svg:g>
<svg:g>
</svg:g>
<svg:g>
</svg:g>
</svg:g>
<svg:g style="fill:#000000; fill-opacity:0.0;  stroke:#000000; stroke-width:0.000000; stroke-opacity:1;  stroke-linecap:round; stroke-linejoin:round;">
<svg:g>
</svg:g>
<svg:g>
</svg:g>
<svg:g>
</svg:g>
<svg:g>
</svg:g>
</svg:g> 
</svg:g><svg:g><svg:title>SVG Picture created as kicadBoard-B_Fab.svg date 2022/12/01 21:16:11 </svg:title>
  <svg:desc>Picture generated by PCBNEW </svg:desc>
<svg:g style="fill:#000000; fill-opacity:1.000000;stroke:#000000; stroke-opacity:1.000000; stroke-linecap:round; stroke-linejoin:round;" transform="translate(0 0) scale(1 1)">
</svg:g>
<svg:g style="fill:#000000; fill-opacity:0.0;  stroke:#000000; stroke-width:0.000000; stroke-opacity:1;  stroke-linecap:round; stroke-linejoin:round;">
<svg:g>
</svg:g>
<svg:g>
</svg:g>
<svg:g>
</svg:g>
<svg:g>
</svg:g>
</svg:g>
<svg:g style="fill:#000000; fill-opacity:0.0;  stroke:#000000; stroke-width:0.000000; stroke-opacity:1;  stroke-linecap:round; stroke-linejoin:round;">
<svg:g>
</svg:g>
<svg:g>
</svg:g>
<svg:g>
</svg:g>
<svg:g>
</svg:g>
</svg:g> 
</svg:g><svg:g><svg:title>SVG Picture created as kicadBoard-B_Mask.svg date 2022/12/01 21:16:11 </svg:title>
  <svg:desc>Picture generated by PCBNEW </svg:desc>
<svg:g style="fill:#000000; fill-opacity:1.000000;stroke:#000000; stroke-opacity:1.000000; stroke-linecap:round; stroke-linejoin:round;" transform="translate(0 0) scale(1 1)">
</svg:g>
<svg:g style="fill:#000000; fill-opacity:0.0;  stroke:#000000; stroke-width:0.000000; stroke-opacity:1;  stroke-linecap:round; stroke-linejoin:round;">
<svg:g>
</svg:g>
<svg:g>
</svg:g>
<svg:g>
</svg:g>
<svg:g>
</svg:g>
</svg:g>
<svg:g style="fill:#000000; fill-opacity:0.0;  stroke:#000000; stroke-width:0.000000; stroke-opacity:1;  stroke-linecap:round; stroke-linejoin:round;">
<svg:g>
</svg:g>
<svg:g>
</svg:g>
<svg:g>
</svg:g>
<svg:g>
</svg:g>
</svg:g> 
</svg:g><svg:g><svg:title>SVG Picture created as kicadBoard-B_Paste.svg date 2022/12/01 21:16:11 </svg:title>
  <svg:desc>Picture generated by PCBNEW </svg:desc>
<svg:g style="fill:#000000; fill-opacity:1.000000;stroke:#000000; stroke-opacity:1.000000; stroke-linecap:round; stroke-linejoin:round;" transform="translate(0 0) scale(1 1)">
</svg:g>
<svg:g style="fill:#000000; fill-opacity:0.0;  stroke:#000000; stroke-width:0.000000; stroke-opacity:1;  stroke-linecap:round; stroke-linejoin:round;">
<svg:g>
</svg:g>
<svg:g>
</svg:g>
<svg:g>
</svg:g>
<svg:g>
</svg:g>
</svg:g>
<svg:g style="fill:#000000; fill-opacity:0.0;  stroke:#000000; stroke-width:0.000000; stroke-opacity:1;  stroke-linecap:round; stroke-linejoin:round;">
<svg:g>
</svg:g>
<svg:g>
</svg:g>
<svg:g>
</svg:g>
<svg:g>
</svg:g>
</svg:g> 
</svg:g><svg:g><svg:title>SVG Picture created as kicadBoard-B_Silkscreen.svg date 2022/12/01 21:16:11 </svg:title>
  <svg:desc>Picture generated by PCBNEW </svg:desc>
<svg:g style="fill:#000000; fill-opacity:1.000000;stroke:#000000; stroke-opacity:1.000000; stroke-linecap:round; stroke-linejoin:round;" transform="translate(0 0) scale(1 1)">
</svg:g>
<svg:g style="fill:#000000; fill-opacity:0.0;  stroke:#000000; stroke-width:0.000000; stroke-opacity:1;  stroke-linecap:round; stroke-linejoin:round;">
<svg:g>
</svg:g>
<svg:g>
</svg:g>
<svg:g>
</svg:g>
<svg:g>
</svg:g>
</svg:g>
<svg:g style="fill:#000000; fill-opacity:0.0;  stroke:#000000; stroke-width:0.000000; stroke-opacity:1;  stroke-linecap:round; stroke-linejoin:round;">
<svg:g>
</svg:g>
<svg:g>
</svg:g>
<svg:g>
</svg:g>
<svg:g>
</svg:g>
</svg:g> 
</svg:g><svg:g><svg:title>SVG Picture created as kicadBoard-Edge_Cuts.svg date 2022/12/01 21:16:11 </svg:title>
  <svg:desc>Picture generated by PCBNEW </svg:desc>
<svg:g style="fill:#000000; fill-opacity:1.000000;stroke:#000000; stroke-opacity:1.000000; stroke-linecap:round; stroke-linejoin:round;" transform="translate(0 0) scale(1 1)">
</svg:g>
<svg:g style="fill:#000000; fill-opacity:0.0;  stroke:#000000; stroke-width:0.000000; stroke-opacity:1;  stroke-linecap:round; stroke-linejoin:round;">
<svg:g>
</svg:g>
<svg:g>
</svg:g>
<svg:g>
</svg:g>
<svg:g>
</svg:g>
</svg:g> 
</svg:g><svg:g><svg:title>SVG Picture created as kicadBoard-F_Adhesive.svg date 2022/12/01 21:16:11 </svg:title>
  <svg:desc>Picture generated by PCBNEW </svg:desc>
<svg:g style="fill:#000000; fill-opacity:1.000000;stroke:#000000; stroke-opacity:1.000000; stroke-linecap:round; stroke-linejoin:round;" transform="translate(0 0) scale(1 1)">
</svg:g>
<svg:g style="fill:#000000; fill-opacity:0.0;  stroke:#000000; stroke-width:0.000000; stroke-opacity:1;  stroke-linecap:round; stroke-linejoin:round;">
<svg:g>
</svg:g>
<svg:g>
</svg:g>
<svg:g>
</svg:g>
<svg:g>
</svg:g>
</svg:g>
<svg:g style="fill:#000000; fill-opacity:0.0;  stroke:#000000; stroke-width:0.000000; stroke-opacity:1;  stroke-linecap:round; stroke-linejoin:round;">
<svg:g>
</svg:g>
<svg:g>
</svg:g>
<svg:g>
</svg:g>
<svg:g>
</svg:g>
</svg:g> 
</svg:g><svg:g><svg:title>SVG Picture created as kicadBoard-F_Courtyard.svg date 2022/12/01 21:16:11 </svg:title>
  <svg:desc>Picture generated by PCBNEW </svg:desc>
<svg:g style="fill:#000000; fill-opacity:1.000000;stroke:#000000; stroke-opacity:1.000000; stroke-linecap:round; stroke-linejoin:round;" transform="translate(0 0) scale(1 1)">
</svg:g>
<svg:g style="fill:#000000; fill-opacity:0.0;  stroke:#000000; stroke-width:0.000000; stroke-opacity:1;  stroke-linecap:round; stroke-linejoin:round;">
</svg:g>
<svg:g style="fill:#FF26E2; fill-opacity:0.0;  stroke:#FF26E2; stroke-width:0.000000; stroke-opacity:1;  stroke-linecap:round; stroke-linejoin:round;">
</svg:g>
<svg:g style="fill:#FF26E2; fill-opacity:0.0;  stroke:#FF26E2; stroke-width:50000.000000; stroke-opacity:1;  stroke-linecap:round; stroke-linejoin:round;">
<svg:path d="M53180000 51750000 L53180000 48250000 "/>
<svg:path d="M46820000 48250000 L46820000 51750000 "/>
<svg:path d="M46820000 51750000 L53180000 51750000 "/>
<svg:path d="M53180000 48250000 L46820000 48250000 "/>
<svg:g>
</svg:g>
<svg:g>
</svg:g>
<svg:g>
</svg:g>
<svg:g>
</svg:g>
</svg:g>
<svg:g style="fill:#000000; fill-opacity:0.0;  stroke:#000000; stroke-width:50000.000000; stroke-opacity:1;  stroke-linecap:round; stroke-linejoin:round;">
<svg:g>
</svg:g>
<svg:g>
</svg:g>
<svg:g>
</svg:g>
<svg:g>
</svg:g>
</svg:g> 
</svg:g><svg:g><svg:title>SVG Picture created as kicadBoard-F_Cu.svg date 2022/12/01 21:16:11 </svg:title>
  <svg:desc>Picture generated by PCBNEW </svg:desc>
<svg:g style="fill:#000000; fill-opacity:1.000000;stroke:#000000; stroke-opacity:1.000000; stroke-linecap:round; stroke-linejoin:round;" transform="translate(0 0) scale(1 1)">
</svg:g>
<svg:g style="fill:#000000; fill-opacity:0.0;  stroke:#000000; stroke-width:0.000000; stroke-opacity:1;  stroke-linecap:round; stroke-linejoin:round;">
<svg:g>
</svg:g>
<svg:g style="fill:#C83434; fill-opacity:0.0;  stroke:#C83434; stroke-width:0.000000; stroke-opacity:1;  stroke-linecap:round; stroke-linejoin:round;">
</svg:g>
<svg:g style="fill:#C83434; fill-opacity:0.0;  stroke:#C83434; stroke-width:1.000000; stroke-opacity:1;  stroke-linecap:round; stroke-linejoin:round;">
</svg:g>
<svg:g style="fill:#C83434; fill-opacity:1.0;  stroke:#C83434; stroke-width:1.000000; stroke-opacity:1;  stroke-linecap:round; stroke-linejoin:round;">
<svg:path style="fill:#C83434; fill-opacity:1.0;  stroke:#C83434; stroke-width:1.000000; stroke-opacity:1;  stroke-linecap:round; stroke-linejoin:round;fill-rule:evenodd;" d="M 47075000.000000,48925000.000000 47082612.000000,48886732.000000 47104289.000000,48854289.000000 47136732.000000,48832612.000000 47175000.000000,48825000.000000 48600000.000000,48825000.000000 48638268.000000,48832612.000000 48670711.000000,48854289.000000 48692388.000000,48886732.000000 48700000.000000,48925000.000000 48700000.000000,49125000.000000 48692388.000000,49163268.000000 48670711.000000,49195711.000000 48638268.000000,49217388.000000 48600000.000000,49225000.000000 47175000.000000,49225000.000000 47136732.000000,49217388.000000 47104289.000000,49195711.000000 47082612.000000,49163268.000000 47075000.000000,49125000.000000 Z"/> 
<svg:path style="fill:#C83434; fill-opacity:1.0;  stroke:#C83434; stroke-width:1.000000; stroke-opacity:1;  stroke-linecap:round; stroke-linejoin:round;fill-rule:evenodd;" d="M 47075000.000000,49575000.000000 47082612.000000,49536732.000000 47104289.000000,49504289.000000 47136732.000000,49482612.000000 47175000.000000,49475000.000000 48600000.000000,49475000.000000 48638268.000000,49482612.000000 48670711.000000,49504289.000000 48692388.000000,49536732.000000 48700000.000000,49575000.000000 48700000.000000,49775000.000000 48692388.000000,49813268.000000 48670711.000000,49845711.000000 48638268.000000,49867388.000000 48600000.000000,49875000.000000 47175000.000000,49875000.000000 47136732.000000,49867388.000000 47104289.000000,49845711.000000 47082612.000000,49813268.000000 47075000.000000,49775000.000000 Z"/> 
<svg:path style="fill:#C83434; fill-opacity:1.0;  stroke:#C83434; stroke-width:1.000000; stroke-opacity:1;  stroke-linecap:round; stroke-linejoin:round;fill-rule:evenodd;" d="M 47075000.000000,50225000.000000 47082612.000000,50186732.000000 47104289.000000,50154289.000000 47136732.000000,50132612.000000 47175000.000000,50125000.000000 48600000.000000,50125000.000000 48638268.000000,50132612.000000 48670711.000000,50154289.000000 48692388.000000,50186732.000000 48700000.000000,50225000.000000 48700000.000000,50425000.000000 48692388.000000,50463268.000000 48670711.000000,50495711.000000 48638268.000000,50517388.000000 48600000.000000,50525000.000000 47175000.000000,50525000.000000 47136732.000000,50517388.000000 47104289.000000,50495711.000000 47082612.000000,50463268.000000 47075000.000000,50425000.000000 Z"/> 
<svg:path style="fill:#C83434; fill-opacity:1.0;  stroke:#C83434; stroke-width:1.000000; stroke-opacity:1;  stroke-linecap:round; stroke-linejoin:round;fill-rule:evenodd;" d="M 47075000.000000,50875000.000000 47082612.000000,50836732.000000 47104289.000000,50804289.000000 47136732.000000,50782612.000000 47175000.000000,50775000.000000 48600000.000000,50775000.000000 48638268.000000,50782612.000000 48670711.000000,50804289.000000 48692388.000000,50836732.000000 48700000.000000,50875000.000000 48700000.000000,51075000.000000 48692388.000000,51113268.000000 48670711.000000,51145711.000000 48638268.000000,51167388.000000 48600000.000000,51175000.000000 47175000.000000,51175000.000000 47136732.000000,51167388.000000 47104289.000000,51145711.000000 47082612.000000,51113268.000000 47075000.000000,51075000.000000 Z"/> 
<svg:path style="fill:#C83434; fill-opacity:1.0;  stroke:#C83434; stroke-width:1.000000; stroke-opacity:1;  stroke-linecap:round; stroke-linejoin:round;fill-rule:evenodd;" d="M 51300000.000000,50875000.000000 51307612.000000,50836732.000000 51329289.000000,50804289.000000 51361732.000000,50782612.000000 51400000.000000,50775000.000000 52825000.000000,50775000.000000 52863268.000000,50782612.000000 52895711.000000,50804289.000000 52917388.000000,50836732.000000 52925000.000000,50875000.000000 52925000.000000,51075000.000000 52917388.000000,51113268.000000 52895711.000000,51145711.000000 52863268.000000,51167388.000000 52825000.000000,51175000.000000 51400000.000000,51175000.000000 51361732.000000,51167388.000000 51329289.000000,51145711.000000 51307612.000000,51113268.000000 51300000.000000,51075000.000000 Z"/> 
<svg:path style="fill:#C83434; fill-opacity:1.0;  stroke:#C83434; stroke-width:1.000000; stroke-opacity:1;  stroke-linecap:round; stroke-linejoin:round;fill-rule:evenodd;" d="M 51300000.000000,50225000.000000 51307612.000000,50186732.000000 51329289.000000,50154289.000000 51361732.000000,50132612.000000 51400000.000000,50125000.000000 52825000.000000,50125000.000000 52863268.000000,50132612.000000 52895711.000000,50154289.000000 52917388.000000,50186732.000000 52925000.000000,50225000.000000 52925000.000000,50425000.000000 52917388.000000,50463268.000000 52895711.000000,50495711.000000 52863268.000000,50517388.000000 52825000.000000,50525000.000000 51400000.000000,50525000.000000 51361732.000000,50517388.000000 51329289.000000,50495711.000000 51307612.000000,50463268.000000 51300000.000000,50425000.000000 Z"/> 
<svg:path style="fill:#C83434; fill-opacity:1.0;  stroke:#C83434; stroke-width:1.000000; stroke-opacity:1;  stroke-linecap:round; stroke-linejoin:round;fill-rule:evenodd;" d="M 51300000.000000,49575000.000000 51307612.000000,49536732.000000 51329289.000000,49504289.000000 51361732.000000,49482612.000000 51400000.000000,49475000.000000 52825000.000000,49475000.000000 52863268.000000,49482612.000000 52895711.000000,49504289.000000 52917388.000000,49536732.000000 52925000.000000,49575000.000000 52925000.000000,49775000.000000 52917388.000000,49813268.000000 52895711.000000,49845711.000000 52863268.000000,49867388.000000 52825000.000000,49875000.000000 51400000.000000,49875000.000000 51361732.000000,49867388.000000 51329289.000000,49845711.000000 51307612.000000,49813268.000000 51300000.000000,49775000.000000 Z"/> 
<svg:path style="fill:#C83434; fill-opacity:1.0;  stroke:#C83434; stroke-width:1.000000; stroke-opacity:1;  stroke-linecap:round; stroke-linejoin:round;fill-rule:evenodd;" d="M 51300000.000000,48925000.000000 51307612.000000,48886732.000000 51329289.000000,48854289.000000 51361732.000000,48832612.000000 51400000.000000,48825000.000000 52825000.000000,48825000.000000 52863268.000000,48832612.000000 52895711.000000,48854289.000000 52917388.000000,48886732.000000 52925000.000000,48925000.000000 52925000.000000,49125000.000000 52917388.000000,49163268.000000 52895711.000000,49195711.000000 52863268.000000,49217388.000000 52825000.000000,49225000.000000 51400000.000000,49225000.000000 51361732.000000,49217388.000000 51329289.000000,49195711.000000 51307612.000000,49163268.000000 51300000.000000,49125000.000000 Z"/> 
</svg:g>
<svg:g>
</svg:g>
<svg:g>
</svg:g>
<svg:g>
</svg:g>
</svg:g>
<svg:g style="fill:#FFFFFF; fill-opacity:1.0;  stroke:#FFFFFF; stroke-width:1.000000; stroke-opacity:1;  stroke-linecap:round; stroke-linejoin:round;">
</svg:g>
<svg:g style="fill:#000000; fill-opacity:1.0;  stroke:#000000; stroke-width:1.000000; stroke-opacity:1;  stroke-linecap:round; stroke-linejoin:round;">
<svg:g>
</svg:g>
<svg:g>
</svg:g>
<svg:g>
</svg:g>
<svg:g>
</svg:g>
</svg:g> 
</svg:g><svg:g><svg:title>SVG Picture created as kicadBoard-F_Fab.svg date 2022/12/01 21:16:11 </svg:title>
  <svg:desc>Picture generated by PCBNEW </svg:desc>
<svg:g style="fill:#000000; fill-opacity:1.000000;stroke:#000000; stroke-opacity:1.000000; stroke-linecap:round; stroke-linejoin:round;" transform="translate(0 0) scale(1 1)">
</svg:g>
<svg:g style="fill:#000000; fill-opacity:0.0;  stroke:#000000; stroke-width:0.000000; stroke-opacity:1;  stroke-linecap:round; stroke-linejoin:round;">
</svg:g>
<svg:g style="fill:#AFAFAF; fill-opacity:0.0;  stroke:#AFAFAF; stroke-width:0.000000; stroke-opacity:1;  stroke-linecap:round; stroke-linejoin:round;">
</svg:g>
<svg:g style="fill:#AFAFAF; fill-opacity:0.0;  stroke:#AFAFAF; stroke-width:150000.000000; stroke-opacity:1;  stroke-linecap:round; stroke-linejoin:round;">
<svg:text x="50000000.000000" y="52950000.000000" textLength="20433095.000000" font-size="1333333.000000" lengthAdjust="spacingAndGlyphs" text-anchor="middle" opacity="0">MSOP-8_3x3mm_P0.65mm</svg:text>
<svg:g class="stroked-text"><svg:desc>MSOP-8_3x3mm_P0.65mm</svg:desc>
<svg:path d="M40119047 52902380 L40119047 51902380 L40452380 52616666 L40785714 51902380 L40785714 52902380 "/>
<svg:path d="M41214285 52854761 L41357142 52902380 L41595238 52902380 L41690476 52854761 L41738095 52807142 L41785714 52711904 L41785714 52616666 L41738095 52521428 L41690476 52473809 L41595238 52426190 L41404761 52378571 L41309523 52330952 L41261904 52283333 L41214285 52188095 L41214285 52092857 L41261904 51997619 L41309523 51950000 L41404761 51902380 L41642857 51902380 L41785714 51950000 "/>
<svg:path d="M42404761 51902380 L42595238 51902380 L42690476 51950000 L42785714 52045238 L42833333 52235714 L42833333 52569047 L42785714 52759523 L42690476 52854761 L42595238 52902380 L42404761 52902380 L42309523 52854761 L42214285 52759523 L42166666 52569047 L42166666 52235714 L42214285 52045238 L42309523 51950000 L42404761 51902380 "/>
<svg:path d="M43261904 52902380 L43261904 51902380 L43642857 51902380 L43738095 51950000 L43785714 51997619 L43833333 52092857 L43833333 52235714 L43785714 52330952 L43738095 52378571 L43642857 52426190 L43261904 52426190 "/>
<svg:path d="M44261904 52521428 L45023809 52521428 "/>
<svg:path d="M45642857 52330952 L45547619 52283333 L45500000 52235714 L45452380 52140476 L45452380 52092857 L45500000 51997619 L45547619 51950000 L45642857 51902380 L45833333 51902380 L45928571 51950000 L45976190 51997619 L46023809 52092857 L46023809 52140476 L45976190 52235714 L45928571 52283333 L45833333 52330952 L45642857 52330952 L45547619 52378571 L45500000 52426190 L45452380 52521428 L45452380 52711904 L45500000 52807142 L45547619 52854761 L45642857 52902380 L45833333 52902380 L45928571 52854761 L45976190 52807142 L46023809 52711904 L46023809 52521428 L45976190 52426190 L45928571 52378571 L45833333 52330952 "/>
<svg:path d="M46214285 52997619 L46976190 52997619 "/>
<svg:path d="M47119047 51902380 L47738095 51902380 L47404761 52283333 L47547619 52283333 L47642857 52330952 L47690476 52378571 L47738095 52473809 L47738095 52711904 L47690476 52807142 L47642857 52854761 L47547619 52902380 L47261904 52902380 L47166666 52854761 L47119047 52807142 "/>
<svg:path d="M48071428 52902380 L48595238 52235714 "/>
<svg:path d="M48071428 52235714 L48595238 52902380 "/>
<svg:path d="M48880952 51902380 L49500000 51902380 L49166666 52283333 L49309523 52283333 L49404761 52330952 L49452380 52378571 L49500000 52473809 L49500000 52711904 L49452380 52807142 L49404761 52854761 L49309523 52902380 L49023809 52902380 L48928571 52854761 L48880952 52807142 "/>
<svg:path d="M49928571 52902380 L49928571 52235714 "/>
<svg:path d="M49928571 52330952 L49976190 52283333 L50071428 52235714 L50214285 52235714 L50309523 52283333 L50357142 52378571 L50357142 52902380 "/>
<svg:path d="M50357142 52378571 L50404761 52283333 L50500000 52235714 L50642857 52235714 L50738095 52283333 L50785714 52378571 L50785714 52902380 "/>
<svg:path d="M51261904 52902380 L51261904 52235714 "/>
<svg:path d="M51261904 52330952 L51309523 52283333 L51404761 52235714 L51547619 52235714 L51642857 52283333 L51690476 52378571 L51690476 52902380 "/>
<svg:path d="M51690476 52378571 L51738095 52283333 L51833333 52235714 L51976190 52235714 L52071428 52283333 L52119047 52378571 L52119047 52902380 "/>
<svg:path d="M52357142 52997619 L53119047 52997619 "/>
<svg:path d="M53357142 52902380 L53357142 51902380 L53738095 51902380 L53833333 51950000 L53880952 51997619 L53928571 52092857 L53928571 52235714 L53880952 52330952 L53833333 52378571 L53738095 52426190 L53357142 52426190 "/>
<svg:path d="M54547619 51902380 L54642857 51902380 L54738095 51950000 L54785714 51997619 L54833333 52092857 L54880952 52283333 L54880952 52521428 L54833333 52711904 L54785714 52807142 L54738095 52854761 L54642857 52902380 L54547619 52902380 L54452380 52854761 L54404761 52807142 L54357142 52711904 L54309523 52521428 L54309523 52283333 L54357142 52092857 L54404761 51997619 L54452380 51950000 L54547619 51902380 "/>
<svg:path d="M55309523 52807142 L55357142 52854761 L55309523 52902380 L55261904 52854761 L55309523 52807142 L55309523 52902380 "/>
<svg:path d="M56214285 51902380 L56023809 51902380 L55928571 51950000 L55880952 51997619 L55785714 52140476 L55738095 52330952 L55738095 52711904 L55785714 52807142 L55833333 52854761 L55928571 52902380 L56119047 52902380 L56214285 52854761 L56261904 52807142 L56309523 52711904 L56309523 52473809 L56261904 52378571 L56214285 52330952 L56119047 52283333 L55928571 52283333 L55833333 52330952 L55785714 52378571 L55738095 52473809 "/>
<svg:path d="M57214285 51902380 L56738095 51902380 L56690476 52378571 L56738095 52330952 L56833333 52283333 L57071428 52283333 L57166666 52330952 L57214285 52378571 L57261904 52473809 L57261904 52711904 L57214285 52807142 L57166666 52854761 L57071428 52902380 L56833333 52902380 L56738095 52854761 L56690476 52807142 "/>
<svg:path d="M57690476 52902380 L57690476 52235714 "/>
<svg:path d="M57690476 52330952 L57738095 52283333 L57833333 52235714 L57976190 52235714 L58071428 52283333 L58119047 52378571 L58119047 52902380 "/>
<svg:path d="M58119047 52378571 L58166666 52283333 L58261904 52235714 L58404761 52235714 L58500000 52283333 L58547619 52378571 L58547619 52902380 "/>
<svg:path d="M59023809 52902380 L59023809 52235714 "/>
<svg:path d="M59023809 52330952 L59071428 52283333 L59166666 52235714 L59309523 52235714 L59404761 52283333 L59452380 52378571 L59452380 52902380 "/>
<svg:path d="M59452380 52378571 L59499999 52283333 L59595238 52235714 L59738095 52235714 L59833333 52283333 L59880952 52378571 L59880952 52902380 "/>
</svg:g></svg:g>
<svg:g style="fill:#AFAFAF; fill-opacity:0.0;  stroke:#AFAFAF; stroke-width:110000.000000; stroke-opacity:1;  stroke-linecap:round; stroke-linejoin:round;">
<svg:text x="50000000.000000" y="50375000.000000" textLength="10409286.000000" font-size="1000000.000000" lengthAdjust="spacingAndGlyphs" text-anchor="middle" opacity="0">FZKSOMS83X3P65</svg:text>
<svg:g class="stroked-text"><svg:desc>FZKSOMS83X3P65</svg:desc>
<svg:path d="M45321428 49946428 L45071428 49946428 "/>
<svg:path d="M45071428 50339285 L45071428 49589285 L45428571 49589285 "/>
<svg:path d="M45642857 49589285 L46142857 49589285 L45642857 50339285 L46142857 50339285 "/>
<svg:path d="M46428571 50339285 L46428571 49589285 "/>
<svg:path d="M46857142 50339285 L46535714 49910714 "/>
<svg:path d="M46857142 49589285 L46428571 50017857 "/>
<svg:path d="M47142857 50303571 L47250000 50339285 L47428571 50339285 L47500000 50303571 L47535714 50267857 L47571428 50196428 L47571428 50125000 L47535714 50053571 L47500000 50017857 L47428571 49982142 L47285714 49946428 L47214285 49910714 L47178571 49875000 L47142857 49803571 L47142857 49732142 L47178571 49660714 L47214285 49625000 L47285714 49589285 L47464285 49589285 L47571428 49625000 "/>
<svg:path d="M48035714 49589285 L48178571 49589285 L48250000 49625000 L48321428 49696428 L48357142 49839285 L48357142 50089285 L48321428 50232142 L48250000 50303571 L48178571 50339285 L48035714 50339285 L47964285 50303571 L47892857 50232142 L47857142 50089285 L47857142 49839285 L47892857 49696428 L47964285 49625000 L48035714 49589285 "/>
<svg:path d="M48678571 50339285 L48678571 49589285 L48928571 50125000 L49178571 49589285 L49178571 50339285 "/>
<svg:path d="M49500000 50303571 L49607142 50339285 L49785714 50339285 L49857142 50303571 L49892857 50267857 L49928571 50196428 L49928571 50125000 L49892857 50053571 L49857142 50017857 L49785714 49982142 L49642857 49946428 L49571428 49910714 L49535714 49875000 L49500000 49803571 L49500000 49732142 L49535714 49660714 L49571428 49625000 L49642857 49589285 L49821428 49589285 L49928571 49625000 "/>
<svg:path d="M50357142 49910714 L50285714 49875000 L50250000 49839285 L50214285 49767857 L50214285 49732142 L50250000 49660714 L50285714 49625000 L50357142 49589285 L50500000 49589285 L50571428 49625000 L50607142 49660714 L50642857 49732142 L50642857 49767857 L50607142 49839285 L50571428 49875000 L50500000 49910714 L50357142 49910714 L50285714 49946428 L50250000 49982142 L50214285 50053571 L50214285 50196428 L50250000 50267857 L50285714 50303571 L50357142 50339285 L50500000 50339285 L50571428 50303571 L50607142 50267857 L50642857 50196428 L50642857 50053571 L50607142 49982142 L50571428 49946428 L50500000 49910714 "/>
<svg:path d="M50892857 49589285 L51357142 49589285 L51107142 49875000 L51214285 49875000 L51285714 49910714 L51321428 49946428 L51357142 50017857 L51357142 50196428 L51321428 50267857 L51285714 50303571 L51214285 50339285 L51000000 50339285 L50928571 50303571 L50892857 50267857 "/>
<svg:path d="M51607142 49589285 L52107142 50339285 "/>
<svg:path d="M52107142 49589285 L51607142 50339285 "/>
<svg:path d="M52321428 49589285 L52785714 49589285 L52535714 49875000 L52642857 49875000 L52714285 49910714 L52750000 49946428 L52785714 50017857 L52785714 50196428 L52750000 50267857 L52714285 50303571 L52642857 50339285 L52428571 50339285 L52357142 50303571 L52321428 50267857 "/>
<svg:path d="M53107142 50339285 L53107142 49589285 L53392857 49589285 L53464285 49625000 L53500000 49660714 L53535714 49732142 L53535714 49839285 L53500000 49910714 L53464285 49946428 L53392857 49982142 L53107142 49982142 "/>
<svg:path d="M54178571 49589285 L54035714 49589285 L53964285 49625000 L53928571 49660714 L53857142 49767857 L53821428 49910714 L53821428 50196428 L53857142 50267857 L53892857 50303571 L53964285 50339285 L54107142 50339285 L54178571 50303571 L54214285 50267857 L54250000 50196428 L54250000 50017857 L54214285 49946428 L54178571 49910714 L54107142 49875000 L53964285 49875000 L53892857 49910714 L53857142 49946428 L53821428 50017857 "/>
<svg:path d="M54928571 49589285 L54571428 49589285 L54535714 49946428 L54571428 49910714 L54642857 49875000 L54821428 49875000 L54892857 49910714 L54928571 49946428 L54964285 50017857 L54964285 50196428 L54928571 50267857 L54892857 50303571 L54821428 50339285 L54642857 50339285 L54571428 50303571 L54535714 50267857 "/>
</svg:g></svg:g>
<svg:g style="fill:#AFAFAF; fill-opacity:0.0;  stroke:#AFAFAF; stroke-width:100000.000000; stroke-opacity:1;  stroke-linecap:round; stroke-linejoin:round;">
<svg:path d="M48500000 49250000 L49250000 48500000 "/>
<svg:path d="M48500000 51500000 L48500000 49250000 "/>
<svg:path d="M49250000 48500000 L51500000 48500000 "/>
<svg:path d="M51500000 51500000 L48500000 51500000 "/>
<svg:path d="M51500000 48500000 L51500000 51500000 "/>
<svg:g>
</svg:g>
<svg:g>
</svg:g>
<svg:g>
</svg:g>
<svg:g>
</svg:g>
</svg:g>
<svg:g style="fill:#000000; fill-opacity:0.0;  stroke:#000000; stroke-width:100000.000000; stroke-opacity:1;  stroke-linecap:round; stroke-linejoin:round;">
<svg:g>
</svg:g>
<svg:g>
</svg:g>
<svg:g>
</svg:g>
<svg:g>
</svg:g>
</svg:g> 
</svg:g><svg:g><svg:title>SVG Picture created as kicadBoard-F_Mask.svg date 2022/12/01 21:16:11 </svg:title>
  <svg:desc>Picture generated by PCBNEW </svg:desc>
<svg:g style="fill:#000000; fill-opacity:1.000000;stroke:#000000; stroke-opacity:1.000000; stroke-linecap:round; stroke-linejoin:round;" transform="translate(0 0) scale(1 1)">
</svg:g>
<svg:g style="fill:#000000; fill-opacity:0.0;  stroke:#000000; stroke-width:0.000000; stroke-opacity:1;  stroke-linecap:round; stroke-linejoin:round;">
<svg:g>
</svg:g>
<svg:g style="fill:#000000; fill-opacity:0.0;  stroke:#000000; stroke-width:1.000000; stroke-opacity:1;  stroke-linecap:round; stroke-linejoin:round;">
</svg:g>
<svg:g style="fill:#000000; fill-opacity:1.0;  stroke:#000000; stroke-width:1.000000; stroke-opacity:1;  stroke-linecap:round; stroke-linejoin:round;">
<svg:path style="fill:#000000; fill-opacity:1.0;  stroke:#000000; stroke-width:1.000000; stroke-opacity:1;  stroke-linecap:round; stroke-linejoin:round;fill-rule:evenodd;" d="M 47075000.000000,48925000.000000 47082612.000000,48886732.000000 47104289.000000,48854289.000000 47136732.000000,48832612.000000 47175000.000000,48825000.000000 48600000.000000,48825000.000000 48638268.000000,48832612.000000 48670711.000000,48854289.000000 48692388.000000,48886732.000000 48700000.000000,48925000.000000 48700000.000000,49125000.000000 48692388.000000,49163268.000000 48670711.000000,49195711.000000 48638268.000000,49217388.000000 48600000.000000,49225000.000000 47175000.000000,49225000.000000 47136732.000000,49217388.000000 47104289.000000,49195711.000000 47082612.000000,49163268.000000 47075000.000000,49125000.000000 Z"/> 
<svg:path style="fill:#000000; fill-opacity:1.0;  stroke:#000000; stroke-width:1.000000; stroke-opacity:1;  stroke-linecap:round; stroke-linejoin:round;fill-rule:evenodd;" d="M 47075000.000000,49575000.000000 47082612.000000,49536732.000000 47104289.000000,49504289.000000 47136732.000000,49482612.000000 47175000.000000,49475000.000000 48600000.000000,49475000.000000 48638268.000000,49482612.000000 48670711.000000,49504289.000000 48692388.000000,49536732.000000 48700000.000000,49575000.000000 48700000.000000,49775000.000000 48692388.000000,49813268.000000 48670711.000000,49845711.000000 48638268.000000,49867388.000000 48600000.000000,49875000.000000 47175000.000000,49875000.000000 47136732.000000,49867388.000000 47104289.000000,49845711.000000 47082612.000000,49813268.000000 47075000.000000,49775000.000000 Z"/> 
<svg:path style="fill:#000000; fill-opacity:1.0;  stroke:#000000; stroke-width:1.000000; stroke-opacity:1;  stroke-linecap:round; stroke-linejoin:round;fill-rule:evenodd;" d="M 47075000.000000,50225000.000000 47082612.000000,50186732.000000 47104289.000000,50154289.000000 47136732.000000,50132612.000000 47175000.000000,50125000.000000 48600000.000000,50125000.000000 48638268.000000,50132612.000000 48670711.000000,50154289.000000 48692388.000000,50186732.000000 48700000.000000,50225000.000000 48700000.000000,50425000.000000 48692388.000000,50463268.000000 48670711.000000,50495711.000000 48638268.000000,50517388.000000 48600000.000000,50525000.000000 47175000.000000,50525000.000000 47136732.000000,50517388.000000 47104289.000000,50495711.000000 47082612.000000,50463268.000000 47075000.000000,50425000.000000 Z"/> 
<svg:path style="fill:#000000; fill-opacity:1.0;  stroke:#000000; stroke-width:1.000000; stroke-opacity:1;  stroke-linecap:round; stroke-linejoin:round;fill-rule:evenodd;" d="M 47075000.000000,50875000.000000 47082612.000000,50836732.000000 47104289.000000,50804289.000000 47136732.000000,50782612.000000 47175000.000000,50775000.000000 48600000.000000,50775000.000000 48638268.000000,50782612.000000 48670711.000000,50804289.000000 48692388.000000,50836732.000000 48700000.000000,50875000.000000 48700000.000000,51075000.000000 48692388.000000,51113268.000000 48670711.000000,51145711.000000 48638268.000000,51167388.000000 48600000.000000,51175000.000000 47175000.000000,51175000.000000 47136732.000000,51167388.000000 47104289.000000,51145711.000000 47082612.000000,51113268.000000 47075000.000000,51075000.000000 Z"/> 
<svg:path style="fill:#000000; fill-opacity:1.0;  stroke:#000000; stroke-width:1.000000; stroke-opacity:1;  stroke-linecap:round; stroke-linejoin:round;fill-rule:evenodd;" d="M 51300000.000000,50875000.000000 51307612.000000,50836732.000000 51329289.000000,50804289.000000 51361732.000000,50782612.000000 51400000.000000,50775000.000000 52825000.000000,50775000.000000 52863268.000000,50782612.000000 52895711.000000,50804289.000000 52917388.000000,50836732.000000 52925000.000000,50875000.000000 52925000.000000,51075000.000000 52917388.000000,51113268.000000 52895711.000000,51145711.000000 52863268.000000,51167388.000000 52825000.000000,51175000.000000 51400000.000000,51175000.000000 51361732.000000,51167388.000000 51329289.000000,51145711.000000 51307612.000000,51113268.000000 51300000.000000,51075000.000000 Z"/> 
<svg:path style="fill:#000000; fill-opacity:1.0;  stroke:#000000; stroke-width:1.000000; stroke-opacity:1;  stroke-linecap:round; stroke-linejoin:round;fill-rule:evenodd;" d="M 51300000.000000,50225000.000000 51307612.000000,50186732.000000 51329289.000000,50154289.000000 51361732.000000,50132612.000000 51400000.000000,50125000.000000 52825000.000000,50125000.000000 52863268.000000,50132612.000000 52895711.000000,50154289.000000 52917388.000000,50186732.000000 52925000.000000,50225000.000000 52925000.000000,50425000.000000 52917388.000000,50463268.000000 52895711.000000,50495711.000000 52863268.000000,50517388.000000 52825000.000000,50525000.000000 51400000.000000,50525000.000000 51361732.000000,50517388.000000 51329289.000000,50495711.000000 51307612.000000,50463268.000000 51300000.000000,50425000.000000 Z"/> 
<svg:path style="fill:#000000; fill-opacity:1.0;  stroke:#000000; stroke-width:1.000000; stroke-opacity:1;  stroke-linecap:round; stroke-linejoin:round;fill-rule:evenodd;" d="M 51300000.000000,49575000.000000 51307612.000000,49536732.000000 51329289.000000,49504289.000000 51361732.000000,49482612.000000 51400000.000000,49475000.000000 52825000.000000,49475000.000000 52863268.000000,49482612.000000 52895711.000000,49504289.000000 52917388.000000,49536732.000000 52925000.000000,49575000.000000 52925000.000000,49775000.000000 52917388.000000,49813268.000000 52895711.000000,49845711.000000 52863268.000000,49867388.000000 52825000.000000,49875000.000000 51400000.000000,49875000.000000 51361732.000000,49867388.000000 51329289.000000,49845711.000000 51307612.000000,49813268.000000 51300000.000000,49775000.000000 Z"/> 
<svg:path style="fill:#000000; fill-opacity:1.0;  stroke:#000000; stroke-width:1.000000; stroke-opacity:1;  stroke-linecap:round; stroke-linejoin:round;fill-rule:evenodd;" d="M 51300000.000000,48925000.000000 51307612.000000,48886732.000000 51329289.000000,48854289.000000 51361732.000000,48832612.000000 51400000.000000,48825000.000000 52825000.000000,48825000.000000 52863268.000000,48832612.000000 52895711.000000,48854289.000000 52917388.000000,48886732.000000 52925000.000000,48925000.000000 52925000.000000,49125000.000000 52917388.000000,49163268.000000 52895711.000000,49195711.000000 52863268.000000,49217388.000000 52825000.000000,49225000.000000 51400000.000000,49225000.000000 51361732.000000,49217388.000000 51329289.000000,49195711.000000 51307612.000000,49163268.000000 51300000.000000,49125000.000000 Z"/> 
</svg:g>
<svg:g>
</svg:g>
<svg:g>
</svg:g>
<svg:g>
</svg:g>
</svg:g>
<svg:g style="fill:#000000; fill-opacity:1.0;  stroke:#000000; stroke-width:1.000000; stroke-opacity:1;  stroke-linecap:round; stroke-linejoin:round;">
<svg:g>
</svg:g>
<svg:g>
</svg:g>
<svg:g>
</svg:g>
<svg:g>
</svg:g>
</svg:g> 
</svg:g><svg:g><svg:title>SVG Picture created as kicadBoard-F_Paste.svg date 2022/12/01 21:16:11 </svg:title>
  <svg:desc>Picture generated by PCBNEW </svg:desc>
<svg:g style="fill:#000000; fill-opacity:1.000000;stroke:#000000; stroke-opacity:1.000000; stroke-linecap:round; stroke-linejoin:round;" transform="translate(0 0) scale(1 1)">
</svg:g>
<svg:g style="fill:#000000; fill-opacity:0.0;  stroke:#000000; stroke-width:0.000000; stroke-opacity:1;  stroke-linecap:round; stroke-linejoin:round;">
<svg:g>
</svg:g>
<svg:g style="fill:#000000; fill-opacity:0.0;  stroke:#000000; stroke-width:1.000000; stroke-opacity:1;  stroke-linecap:round; stroke-linejoin:round;">
</svg:g>
<svg:g style="fill:#000000; fill-opacity:1.0;  stroke:#000000; stroke-width:1.000000; stroke-opacity:1;  stroke-linecap:round; stroke-linejoin:round;">
<svg:path style="fill:#000000; fill-opacity:1.0;  stroke:#000000; stroke-width:1.000000; stroke-opacity:1;  stroke-linecap:round; stroke-linejoin:round;fill-rule:evenodd;" d="M 47075000.000000,48925000.000000 47082612.000000,48886732.000000 47104289.000000,48854289.000000 47136732.000000,48832612.000000 47175000.000000,48825000.000000 48600000.000000,48825000.000000 48638268.000000,48832612.000000 48670711.000000,48854289.000000 48692388.000000,48886732.000000 48700000.000000,48925000.000000 48700000.000000,49125000.000000 48692388.000000,49163268.000000 48670711.000000,49195711.000000 48638268.000000,49217388.000000 48600000.000000,49225000.000000 47175000.000000,49225000.000000 47136732.000000,49217388.000000 47104289.000000,49195711.000000 47082612.000000,49163268.000000 47075000.000000,49125000.000000 Z"/> 
<svg:path style="fill:#000000; fill-opacity:1.0;  stroke:#000000; stroke-width:1.000000; stroke-opacity:1;  stroke-linecap:round; stroke-linejoin:round;fill-rule:evenodd;" d="M 47075000.000000,49575000.000000 47082612.000000,49536732.000000 47104289.000000,49504289.000000 47136732.000000,49482612.000000 47175000.000000,49475000.000000 48600000.000000,49475000.000000 48638268.000000,49482612.000000 48670711.000000,49504289.000000 48692388.000000,49536732.000000 48700000.000000,49575000.000000 48700000.000000,49775000.000000 48692388.000000,49813268.000000 48670711.000000,49845711.000000 48638268.000000,49867388.000000 48600000.000000,49875000.000000 47175000.000000,49875000.000000 47136732.000000,49867388.000000 47104289.000000,49845711.000000 47082612.000000,49813268.000000 47075000.000000,49775000.000000 Z"/> 
<svg:path style="fill:#000000; fill-opacity:1.0;  stroke:#000000; stroke-width:1.000000; stroke-opacity:1;  stroke-linecap:round; stroke-linejoin:round;fill-rule:evenodd;" d="M 47075000.000000,50225000.000000 47082612.000000,50186732.000000 47104289.000000,50154289.000000 47136732.000000,50132612.000000 47175000.000000,50125000.000000 48600000.000000,50125000.000000 48638268.000000,50132612.000000 48670711.000000,50154289.000000 48692388.000000,50186732.000000 48700000.000000,50225000.000000 48700000.000000,50425000.000000 48692388.000000,50463268.000000 48670711.000000,50495711.000000 48638268.000000,50517388.000000 48600000.000000,50525000.000000 47175000.000000,50525000.000000 47136732.000000,50517388.000000 47104289.000000,50495711.000000 47082612.000000,50463268.000000 47075000.000000,50425000.000000 Z"/> 
<svg:path style="fill:#000000; fill-opacity:1.0;  stroke:#000000; stroke-width:1.000000; stroke-opacity:1;  stroke-linecap:round; stroke-linejoin:round;fill-rule:evenodd;" d="M 47075000.000000,50875000.000000 47082612.000000,50836732.000000 47104289.000000,50804289.000000 47136732.000000,50782612.000000 47175000.000000,50775000.000000 48600000.000000,50775000.000000 48638268.000000,50782612.000000 48670711.000000,50804289.000000 48692388.000000,50836732.000000 48700000.000000,50875000.000000 48700000.000000,51075000.000000 48692388.000000,51113268.000000 48670711.000000,51145711.000000 48638268.000000,51167388.000000 48600000.000000,51175000.000000 47175000.000000,51175000.000000 47136732.000000,51167388.000000 47104289.000000,51145711.000000 47082612.000000,51113268.000000 47075000.000000,51075000.000000 Z"/> 
<svg:path style="fill:#000000; fill-opacity:1.0;  stroke:#000000; stroke-width:1.000000; stroke-opacity:1;  stroke-linecap:round; stroke-linejoin:round;fill-rule:evenodd;" d="M 51300000.000000,50875000.000000 51307612.000000,50836732.000000 51329289.000000,50804289.000000 51361732.000000,50782612.000000 51400000.000000,50775000.000000 52825000.000000,50775000.000000 52863268.000000,50782612.000000 52895711.000000,50804289.000000 52917388.000000,50836732.000000 52925000.000000,50875000.000000 52925000.000000,51075000.000000 52917388.000000,51113268.000000 52895711.000000,51145711.000000 52863268.000000,51167388.000000 52825000.000000,51175000.000000 51400000.000000,51175000.000000 51361732.000000,51167388.000000 51329289.000000,51145711.000000 51307612.000000,51113268.000000 51300000.000000,51075000.000000 Z"/> 
<svg:path style="fill:#000000; fill-opacity:1.0;  stroke:#000000; stroke-width:1.000000; stroke-opacity:1;  stroke-linecap:round; stroke-linejoin:round;fill-rule:evenodd;" d="M 51300000.000000,50225000.000000 51307612.000000,50186732.000000 51329289.000000,50154289.000000 51361732.000000,50132612.000000 51400000.000000,50125000.000000 52825000.000000,50125000.000000 52863268.000000,50132612.000000 52895711.000000,50154289.000000 52917388.000000,50186732.000000 52925000.000000,50225000.000000 52925000.000000,50425000.000000 52917388.000000,50463268.000000 52895711.000000,50495711.000000 52863268.000000,50517388.000000 52825000.000000,50525000.000000 51400000.000000,50525000.000000 51361732.000000,50517388.000000 51329289.000000,50495711.000000 51307612.000000,50463268.000000 51300000.000000,50425000.000000 Z"/> 
<svg:path style="fill:#000000; fill-opacity:1.0;  stroke:#000000; stroke-width:1.000000; stroke-opacity:1;  stroke-linecap:round; stroke-linejoin:round;fill-rule:evenodd;" d="M 51300000.000000,49575000.000000 51307612.000000,49536732.000000 51329289.000000,49504289.000000 51361732.000000,49482612.000000 51400000.000000,49475000.000000 52825000.000000,49475000.000000 52863268.000000,49482612.000000 52895711.000000,49504289.000000 52917388.000000,49536732.000000 52925000.000000,49575000.000000 52925000.000000,49775000.000000 52917388.000000,49813268.000000 52895711.000000,49845711.000000 52863268.000000,49867388.000000 52825000.000000,49875000.000000 51400000.000000,49875000.000000 51361732.000000,49867388.000000 51329289.000000,49845711.000000 51307612.000000,49813268.000000 51300000.000000,49775000.000000 Z"/> 
<svg:path style="fill:#000000; fill-opacity:1.0;  stroke:#000000; stroke-width:1.000000; stroke-opacity:1;  stroke-linecap:round; stroke-linejoin:round;fill-rule:evenodd;" d="M 51300000.000000,48925000.000000 51307612.000000,48886732.000000 51329289.000000,48854289.000000 51361732.000000,48832612.000000 51400000.000000,48825000.000000 52825000.000000,48825000.000000 52863268.000000,48832612.000000 52895711.000000,48854289.000000 52917388.000000,48886732.000000 52925000.000000,48925000.000000 52925000.000000,49125000.000000 52917388.000000,49163268.000000 52895711.000000,49195711.000000 52863268.000000,49217388.000000 52825000.000000,49225000.000000 51400000.000000,49225000.000000 51361732.000000,49217388.000000 51329289.000000,49195711.000000 51307612.000000,49163268.000000 51300000.000000,49125000.000000 Z"/> 
</svg:g>
<svg:g>
</svg:g>
<svg:g>
</svg:g>
<svg:g>
</svg:g>
</svg:g>
<svg:g style="fill:#000000; fill-opacity:1.0;  stroke:#000000; stroke-width:1.000000; stroke-opacity:1;  stroke-linecap:round; stroke-linejoin:round;">
<svg:g>
</svg:g>
<svg:g>
</svg:g>
<svg:g>
</svg:g>
<svg:g>
</svg:g>
</svg:g> 
</svg:g><svg:g><svg:title>SVG Picture created as kicadBoard-F_Silkscreen.svg date 2022/12/01 21:16:11 </svg:title>
  <svg:desc>Picture generated by PCBNEW </svg:desc>
<svg:g style="fill:#000000; fill-opacity:1.000000;stroke:#000000; stroke-opacity:1.000000; stroke-linecap:round; stroke-linejoin:round;" transform="translate(0 0) scale(1 1)">
</svg:g>
<svg:g style="fill:#000000; fill-opacity:0.0;  stroke:#000000; stroke-width:0.000000; stroke-opacity:1;  stroke-linecap:round; stroke-linejoin:round;">
</svg:g>
<svg:g style="fill:#F2EDA1; fill-opacity:0.0;  stroke:#F2EDA1; stroke-width:0.000000; stroke-opacity:1;  stroke-linecap:round; stroke-linejoin:round;">
</svg:g>
<svg:g style="fill:#F2EDA1; fill-opacity:0.0;  stroke:#F2EDA1; stroke-width:150000.000000; stroke-opacity:1;  stroke-linecap:round; stroke-linejoin:round;">
<svg:text x="50000000.000000" y="48050000.000000" textLength="13619049.000000" font-size="1333333.000000" lengthAdjust="spacingAndGlyphs" text-anchor="middle" opacity="0">FZKSOMS83X3P65</svg:text>
<svg:g class="stroked-text"><svg:desc>FZKSOMS83X3P65</svg:desc>
<svg:path d="M43761904 47478571 L43428571 47478571 "/>
<svg:path d="M43428571 48002380 L43428571 47002380 L43904761 47002380 "/>
<svg:path d="M44190476 47002380 L44857142 47002380 L44190476 48002380 L44857142 48002380 "/>
<svg:path d="M45238095 48002380 L45238095 47002380 "/>
<svg:path d="M45809523 48002380 L45380952 47430952 "/>
<svg:path d="M45809523 47002380 L45238095 47573809 "/>
<svg:path d="M46190476 47954761 L46333333 48002380 L46571428 48002380 L46666666 47954761 L46714285 47907142 L46761904 47811904 L46761904 47716666 L46714285 47621428 L46666666 47573809 L46571428 47526190 L46380952 47478571 L46285714 47430952 L46238095 47383333 L46190476 47288095 L46190476 47192857 L46238095 47097619 L46285714 47050000 L46380952 47002380 L46619047 47002380 L46761904 47050000 "/>
<svg:path d="M47380952 47002380 L47571428 47002380 L47666666 47050000 L47761904 47145238 L47809523 47335714 L47809523 47669047 L47761904 47859523 L47666666 47954761 L47571428 48002380 L47380952 48002380 L47285714 47954761 L47190476 47859523 L47142857 47669047 L47142857 47335714 L47190476 47145238 L47285714 47050000 L47380952 47002380 "/>
<svg:path d="M48238095 48002380 L48238095 47002380 L48571428 47716666 L48904761 47002380 L48904761 48002380 "/>
<svg:path d="M49333333 47954761 L49476190 48002380 L49714285 48002380 L49809523 47954761 L49857142 47907142 L49904761 47811904 L49904761 47716666 L49857142 47621428 L49809523 47573809 L49714285 47526190 L49523809 47478571 L49428571 47430952 L49380952 47383333 L49333333 47288095 L49333333 47192857 L49380952 47097619 L49428571 47050000 L49523809 47002380 L49761904 47002380 L49904761 47050000 "/>
<svg:path d="M50476190 47430952 L50380952 47383333 L50333333 47335714 L50285714 47240476 L50285714 47192857 L50333333 47097619 L50380952 47050000 L50476190 47002380 L50666666 47002380 L50761904 47050000 L50809523 47097619 L50857142 47192857 L50857142 47240476 L50809523 47335714 L50761904 47383333 L50666666 47430952 L50476190 47430952 L50380952 47478571 L50333333 47526190 L50285714 47621428 L50285714 47811904 L50333333 47907142 L50380952 47954761 L50476190 48002380 L50666666 48002380 L50761904 47954761 L50809523 47907142 L50857142 47811904 L50857142 47621428 L50809523 47526190 L50761904 47478571 L50666666 47430952 "/>
<svg:path d="M51190476 47002380 L51809523 47002380 L51476190 47383333 L51619047 47383333 L51714285 47430952 L51761904 47478571 L51809523 47573809 L51809523 47811904 L51761904 47907142 L51714285 47954761 L51619047 48002380 L51333333 48002380 L51238095 47954761 L51190476 47907142 "/>
<svg:path d="M52142857 47002380 L52809523 48002380 "/>
<svg:path d="M52809523 47002380 L52142857 48002380 "/>
<svg:path d="M53095238 47002380 L53714285 47002380 L53380952 47383333 L53523809 47383333 L53619047 47430952 L53666666 47478571 L53714285 47573809 L53714285 47811904 L53666666 47907142 L53619047 47954761 L53523809 48002380 L53238095 48002380 L53142857 47954761 L53095238 47907142 "/>
<svg:path d="M54142857 48002380 L54142857 47002380 L54523809 47002380 L54619047 47050000 L54666666 47097619 L54714285 47192857 L54714285 47335714 L54666666 47430952 L54619047 47478571 L54523809 47526190 L54142857 47526190 "/>
<svg:path d="M55571428 47002380 L55380952 47002380 L55285714 47050000 L55238095 47097619 L55142857 47240476 L55095238 47430952 L55095238 47811904 L55142857 47907142 L55190476 47954761 L55285714 48002380 L55476190 48002380 L55571428 47954761 L55619047 47907142 L55666666 47811904 L55666666 47573809 L55619047 47478571 L55571428 47430952 L55476190 47383333 L55285714 47383333 L55190476 47430952 L55142857 47478571 L55095238 47573809 "/>
<svg:path d="M56571428 47002380 L56095238 47002380 L56047619 47478571 L56095238 47430952 L56190476 47383333 L56428571 47383333 L56523809 47430952 L56571428 47478571 L56619047 47573809 L56619047 47811904 L56571428 47907142 L56523809 47954761 L56428571 48002380 L56190476 48002380 L56095238 47954761 L56047619 47907142 "/>
</svg:g></svg:g>
<svg:g style="fill:#F2EDA1; fill-opacity:0.0;  stroke:#F2EDA1; stroke-width:120000.000000; stroke-opacity:1;  stroke-linecap:round; stroke-linejoin:round;">
<svg:path d="M50000000 51610000 L48500000 51610000 "/>
<svg:path d="M50000000 48390000 L47075000 48390000 "/>
<svg:path d="M50000000 51610000 L51500000 51610000 "/>
<svg:path d="M50000000 48390000 L51500000 48390000 "/>
<svg:g>
</svg:g>
<svg:g>
</svg:g>
<svg:g>
</svg:g>
<svg:g>
</svg:g>
</svg:g>
<svg:g style="fill:#000000; fill-opacity:0.0;  stroke:#000000; stroke-width:120000.000000; stroke-opacity:1;  stroke-linecap:round; stroke-linejoin:round;">
<svg:g>
</svg:g>
<svg:g>
</svg:g>
<svg:g>
</svg:g>
<svg:g>
</svg:g>
</svg:g> 
</svg:g><svg:g><svg:title>SVG Picture created as kicadBoard-Margin.svg date 2022/12/01 21:16:11 </svg:title>
  <svg:desc>Picture generated by PCBNEW </svg:desc>
<svg:g style="fill:#000000; fill-opacity:1.000000;stroke:#000000; stroke-opacity:1.000000; stroke-linecap:round; stroke-linejoin:round;" transform="translate(0 0) scale(1 1)">
</svg:g>
<svg:g style="fill:#000000; fill-opacity:0.0;  stroke:#000000; stroke-width:0.000000; stroke-opacity:1;  stroke-linecap:round; stroke-linejoin:round;">
<svg:g>
</svg:g>
<svg:g>
</svg:g>
<svg:g>
</svg:g>
<svg:g>
</svg:g>
</svg:g>
<svg:g style="fill:#000000; fill-opacity:0.0;  stroke:#000000; stroke-width:0.000000; stroke-opacity:1;  stroke-linecap:round; stroke-linejoin:round;">
<svg:g>
</svg:g>
<svg:g>
</svg:g>
<svg:g>
</svg:g>
<svg:g>
</svg:g>
</svg:g> 
</svg:g><svg:g><svg:title>SVG Picture created as kicadBoard-F_Cu.svg date 2022/12/01 21:16:11 </svg:title>
  <svg:desc>Picture generated by PCBNEW </svg:desc>
<svg:g style="fill:#000000; fill-opacity:1.000000;stroke:#000000; stroke-opacity:1.000000; stroke-linecap:round; stroke-linejoin:round;" transform="translate(0 0) scale(1 1)">
</svg:g>
<svg:g style="fill:#000000; fill-opacity:0.0;  stroke:#000000; stroke-width:0.000000; stroke-opacity:1;  stroke-linecap:round; stroke-linejoin:round;">
<svg:g>
</svg:g>
<svg:g style="fill:#C83434; fill-opacity:0.0;  stroke:#C83434; stroke-width:0.000000; stroke-opacity:1;  stroke-linecap:round; stroke-linejoin:round;">
</svg:g>
<svg:g style="fill:#C83434; fill-opacity:0.0;  stroke:#C83434; stroke-width:1.000000; stroke-opacity:1;  stroke-linecap:round; stroke-linejoin:round;">
</svg:g>
<svg:g style="fill:#C83434; fill-opacity:1.0;  stroke:#C83434; stroke-width:1.000000; stroke-opacity:1;  stroke-linecap:round; stroke-linejoin:round;">
<svg:path style="fill:#C83434; fill-opacity:1.0;  stroke:#C83434; stroke-width:1.000000; stroke-opacity:1;  stroke-linecap:round; stroke-linejoin:round;fill-rule:evenodd;" d="M 47075000.000000,48925000.000000 47082612.000000,48886732.000000 47104289.000000,48854289.000000 47136732.000000,48832612.000000 47175000.000000,48825000.000000 48600000.000000,48825000.000000 48638268.000000,48832612.000000 48670711.000000,48854289.000000 48692388.000000,48886732.000000 48700000.000000,48925000.000000 48700000.000000,49125000.000000 48692388.000000,49163268.000000 48670711.000000,49195711.000000 48638268.000000,49217388.000000 48600000.000000,49225000.000000 47175000.000000,49225000.000000 47136732.000000,49217388.000000 47104289.000000,49195711.000000 47082612.000000,49163268.000000 47075000.000000,49125000.000000 Z"/> 
<svg:path style="fill:#C83434; fill-opacity:1.0;  stroke:#C83434; stroke-width:1.000000; stroke-opacity:1;  stroke-linecap:round; stroke-linejoin:round;fill-rule:evenodd;" d="M 47075000.000000,49575000.000000 47082612.000000,49536732.000000 47104289.000000,49504289.000000 47136732.000000,49482612.000000 47175000.000000,49475000.000000 48600000.000000,49475000.000000 48638268.000000,49482612.000000 48670711.000000,49504289.000000 48692388.000000,49536732.000000 48700000.000000,49575000.000000 48700000.000000,49775000.000000 48692388.000000,49813268.000000 48670711.000000,49845711.000000 48638268.000000,49867388.000000 48600000.000000,49875000.000000 47175000.000000,49875000.000000 47136732.000000,49867388.000000 47104289.000000,49845711.000000 47082612.000000,49813268.000000 47075000.000000,49775000.000000 Z"/> 
<svg:path style="fill:#C83434; fill-opacity:1.0;  stroke:#C83434; stroke-width:1.000000; stroke-opacity:1;  stroke-linecap:round; stroke-linejoin:round;fill-rule:evenodd;" d="M 47075000.000000,50225000.000000 47082612.000000,50186732.000000 47104289.000000,50154289.000000 47136732.000000,50132612.000000 47175000.000000,50125000.000000 48600000.000000,50125000.000000 48638268.000000,50132612.000000 48670711.000000,50154289.000000 48692388.000000,50186732.000000 48700000.000000,50225000.000000 48700000.000000,50425000.000000 48692388.000000,50463268.000000 48670711.000000,50495711.000000 48638268.000000,50517388.000000 48600000.000000,50525000.000000 47175000.000000,50525000.000000 47136732.000000,50517388.000000 47104289.000000,50495711.000000 47082612.000000,50463268.000000 47075000.000000,50425000.000000 Z"/> 
<svg:path style="fill:#C83434; fill-opacity:1.0;  stroke:#C83434; stroke-width:1.000000; stroke-opacity:1;  stroke-linecap:round; stroke-linejoin:round;fill-rule:evenodd;" d="M 47075000.000000,50875000.000000 47082612.000000,50836732.000000 47104289.000000,50804289.000000 47136732.000000,50782612.000000 47175000.000000,50775000.000000 48600000.000000,50775000.000000 48638268.000000,50782612.000000 48670711.000000,50804289.000000 48692388.000000,50836732.000000 48700000.000000,50875000.000000 48700000.000000,51075000.000000 48692388.000000,51113268.000000 48670711.000000,51145711.000000 48638268.000000,51167388.000000 48600000.000000,51175000.000000 47175000.000000,51175000.000000 47136732.000000,51167388.000000 47104289.000000,51145711.000000 47082612.000000,51113268.000000 47075000.000000,51075000.000000 Z"/> 
<svg:path style="fill:#C83434; fill-opacity:1.0;  stroke:#C83434; stroke-width:1.000000; stroke-opacity:1;  stroke-linecap:round; stroke-linejoin:round;fill-rule:evenodd;" d="M 51300000.000000,50875000.000000 51307612.000000,50836732.000000 51329289.000000,50804289.000000 51361732.000000,50782612.000000 51400000.000000,50775000.000000 52825000.000000,50775000.000000 52863268.000000,50782612.000000 52895711.000000,50804289.000000 52917388.000000,50836732.000000 52925000.000000,50875000.000000 52925000.000000,51075000.000000 52917388.000000,51113268.000000 52895711.000000,51145711.000000 52863268.000000,51167388.000000 52825000.000000,51175000.000000 51400000.000000,51175000.000000 51361732.000000,51167388.000000 51329289.000000,51145711.000000 51307612.000000,51113268.000000 51300000.000000,51075000.000000 Z"/> 
<svg:path style="fill:#C83434; fill-opacity:1.0;  stroke:#C83434; stroke-width:1.000000; stroke-opacity:1;  stroke-linecap:round; stroke-linejoin:round;fill-rule:evenodd;" d="M 51300000.000000,50225000.000000 51307612.000000,50186732.000000 51329289.000000,50154289.000000 51361732.000000,50132612.000000 51400000.000000,50125000.000000 52825000.000000,50125000.000000 52863268.000000,50132612.000000 52895711.000000,50154289.000000 52917388.000000,50186732.000000 52925000.000000,50225000.000000 52925000.000000,50425000.000000 52917388.000000,50463268.000000 52895711.000000,50495711.000000 52863268.000000,50517388.000000 52825000.000000,50525000.000000 51400000.000000,50525000.000000 51361732.000000,50517388.000000 51329289.000000,50495711.000000 51307612.000000,50463268.000000 51300000.000000,50425000.000000 Z"/> 
<svg:path style="fill:#C83434; fill-opacity:1.0;  stroke:#C83434; stroke-width:1.000000; stroke-opacity:1;  stroke-linecap:round; stroke-linejoin:round;fill-rule:evenodd;" d="M 51300000.000000,49575000.000000 51307612.000000,49536732.000000 51329289.000000,49504289.000000 51361732.000000,49482612.000000 51400000.000000,49475000.000000 52825000.000000,49475000.000000 52863268.000000,49482612.000000 52895711.000000,49504289.000000 52917388.000000,49536732.000000 52925000.000000,49575000.000000 52925000.000000,49775000.000000 52917388.000000,49813268.000000 52895711.000000,49845711.000000 52863268.000000,49867388.000000 52825000.000000,49875000.000000 51400000.000000,49875000.000000 51361732.000000,49867388.000000 51329289.000000,49845711.000000 51307612.000000,49813268.000000 51300000.000000,49775000.000000 Z"/> 
<svg:path style="fill:#C83434; fill-opacity:1.0;  stroke:#C83434; stroke-width:1.000000; stroke-opacity:1;  stroke-linecap:round; stroke-linejoin:round;fill-rule:evenodd;" d="M 51300000.000000,48925000.000000 51307612.000000,48886732.000000 51329289.000000,48854289.000000 51361732.000000,48832612.000000 51400000.000000,48825000.000000 52825000.000000,48825000.000000 52863268.000000,48832612.000000 52895711.000000,48854289.000000 52917388.000000,48886732.000000 52925000.000000,48925000.000000 52925000.000000,49125000.000000 52917388.000000,49163268.000000 52895711.000000,49195711.000000 52863268.000000,49217388.000000 52825000.000000,49225000.000000 51400000.000000,49225000.000000 51361732.000000,49217388.000000 51329289.000000,49195711.000000 51307612.000000,49163268.000000 51300000.000000,49125000.000000 Z"/> 
</svg:g>
<svg:g>
</svg:g>
<svg:g>
</svg:g>
<svg:g>
</svg:g>
</svg:g>
<svg:g style="fill:#FFFFFF; fill-opacity:1.0;  stroke:#FFFFFF; stroke-width:1.000000; stroke-opacity:1;  stroke-linecap:round; stroke-linejoin:round;">
</svg:g>
<svg:g style="fill:#000000; fill-opacity:1.0;  stroke:#000000; stroke-width:1.000000; stroke-opacity:1;  stroke-linecap:round; stroke-linejoin:round;">
<svg:g>
</svg:g>
<svg:g>
</svg:g>
<svg:g>
</svg:g>
<svg:g>
</svg:g>
</svg:g> 
</svg:g></svg>
