<?xml version='1.0' encoding='ASCII' standalone='yes'?>
<svg xmlns:svg="http://www.w3.org/2000/svg" xmlns="http://www.w3.org/2000/svg" xmlns:xlink="http://www.w3.org/1999/xlink" version="1.1" width="9.999980cm" height="9.999980cm" viewBox="0 0 99999800 99999800">
<title>SVG Picture created as kicadBoard-B_Cu.svg date 2022/12/01 20:18:27 </title>
  <desc>Picture generated by PCBNEW </desc>
<g style="fill:#000000; fill-opacity:1.000000;stroke:#000000; stroke-opacity:1.000000; stroke-linecap:round; stroke-linejoin:round;" transform="translate(0 0) scale(1 1)">
</g>
<g style="fill:#000000; fill-opacity:0.0;  stroke:#000000; stroke-width:0.000000; stroke-opacity:1;  stroke-linecap:round; stroke-linejoin:round;">
<g>
</g>
<g>
</g>
<g>
</g>
<g>
</g>
</g>
<g style="fill:#FFFFFF; fill-opacity:0.0;  stroke:#FFFFFF; stroke-width:0.000000; stroke-opacity:1;  stroke-linecap:round; stroke-linejoin:round;">
</g>
<g style="fill:#000000; fill-opacity:0.0;  stroke:#000000; stroke-width:0.000000; stroke-opacity:1;  stroke-linecap:round; stroke-linejoin:round;">
<g>
</g>
<g>
</g>
<g>
</g>
<g>
</g>
</g> 
<svg:g><svg:title>SVG Picture created as kicadBoard-B_Adhesive.svg date 2022/12/01 20:18:27 </svg:title>
  <svg:desc>Picture generated by PCBNEW </svg:desc>
<svg:g style="fill:#000000; fill-opacity:1.000000;stroke:#000000; stroke-opacity:1.000000; stroke-linecap:round; stroke-linejoin:round;" transform="translate(0 0) scale(1 1)">
</svg:g>
<svg:g style="fill:#000000; fill-opacity:0.0;  stroke:#000000; stroke-width:0.000000; stroke-opacity:1;  stroke-linecap:round; stroke-linejoin:round;">
<svg:g>
</svg:g>
<svg:g>
</svg:g>
<svg:g>
</svg:g>
<svg:g>
</svg:g>
</svg:g>
<svg:g style="fill:#000000; fill-opacity:0.0;  stroke:#000000; stroke-width:0.000000; stroke-opacity:1;  stroke-linecap:round; stroke-linejoin:round;">
<svg:g>
</svg:g>
<svg:g>
</svg:g>
<svg:g>
</svg:g>
<svg:g>
</svg:g>
</svg:g> 
</svg:g><svg:g><svg:title>SVG Picture created as kicadBoard-B_Courtyard.svg date 2022/12/01 20:18:27 </svg:title>
  <svg:desc>Picture generated by PCBNEW </svg:desc>
<svg:g style="fill:#000000; fill-opacity:1.000000;stroke:#000000; stroke-opacity:1.000000; stroke-linecap:round; stroke-linejoin:round;" transform="translate(0 0) scale(1 1)">
</svg:g>
<svg:g style="fill:#000000; fill-opacity:0.0;  stroke:#000000; stroke-width:0.000000; stroke-opacity:1;  stroke-linecap:round; stroke-linejoin:round;">
<svg:g>
</svg:g>
<svg:g>
</svg:g>
<svg:g>
</svg:g>
<svg:g>
</svg:g>
</svg:g>
<svg:g style="fill:#000000; fill-opacity:0.0;  stroke:#000000; stroke-width:0.000000; stroke-opacity:1;  stroke-linecap:round; stroke-linejoin:round;">
<svg:g>
</svg:g>
<svg:g>
</svg:g>
<svg:g>
</svg:g>
<svg:g>
</svg:g>
</svg:g> 
</svg:g><svg:g><svg:title>SVG Picture created as kicadBoard-B_Fab.svg date 2022/12/01 20:18:27 </svg:title>
  <svg:desc>Picture generated by PCBNEW </svg:desc>
<svg:g style="fill:#000000; fill-opacity:1.000000;stroke:#000000; stroke-opacity:1.000000; stroke-linecap:round; stroke-linejoin:round;" transform="translate(0 0) scale(1 1)">
</svg:g>
<svg:g style="fill:#000000; fill-opacity:0.0;  stroke:#000000; stroke-width:0.000000; stroke-opacity:1;  stroke-linecap:round; stroke-linejoin:round;">
<svg:g>
</svg:g>
<svg:g>
</svg:g>
<svg:g>
</svg:g>
<svg:g>
</svg:g>
</svg:g>
<svg:g style="fill:#000000; fill-opacity:0.0;  stroke:#000000; stroke-width:0.000000; stroke-opacity:1;  stroke-linecap:round; stroke-linejoin:round;">
<svg:g>
</svg:g>
<svg:g>
</svg:g>
<svg:g>
</svg:g>
<svg:g>
</svg:g>
</svg:g> 
</svg:g><svg:g><svg:title>SVG Picture created as kicadBoard-B_Mask.svg date 2022/12/01 20:18:27 </svg:title>
  <svg:desc>Picture generated by PCBNEW </svg:desc>
<svg:g style="fill:#000000; fill-opacity:1.000000;stroke:#000000; stroke-opacity:1.000000; stroke-linecap:round; stroke-linejoin:round;" transform="translate(0 0) scale(1 1)">
</svg:g>
<svg:g style="fill:#000000; fill-opacity:0.0;  stroke:#000000; stroke-width:0.000000; stroke-opacity:1;  stroke-linecap:round; stroke-linejoin:round;">
<svg:g>
</svg:g>
<svg:g>
</svg:g>
<svg:g>
</svg:g>
<svg:g>
</svg:g>
</svg:g>
<svg:g style="fill:#000000; fill-opacity:0.0;  stroke:#000000; stroke-width:0.000000; stroke-opacity:1;  stroke-linecap:round; stroke-linejoin:round;">
<svg:g>
</svg:g>
<svg:g>
</svg:g>
<svg:g>
</svg:g>
<svg:g>
</svg:g>
</svg:g> 
</svg:g><svg:g><svg:title>SVG Picture created as kicadBoard-B_Paste.svg date 2022/12/01 20:18:27 </svg:title>
  <svg:desc>Picture generated by PCBNEW </svg:desc>
<svg:g style="fill:#000000; fill-opacity:1.000000;stroke:#000000; stroke-opacity:1.000000; stroke-linecap:round; stroke-linejoin:round;" transform="translate(0 0) scale(1 1)">
</svg:g>
<svg:g style="fill:#000000; fill-opacity:0.0;  stroke:#000000; stroke-width:0.000000; stroke-opacity:1;  stroke-linecap:round; stroke-linejoin:round;">
<svg:g>
</svg:g>
<svg:g>
</svg:g>
<svg:g>
</svg:g>
<svg:g>
</svg:g>
</svg:g>
<svg:g style="fill:#000000; fill-opacity:0.0;  stroke:#000000; stroke-width:0.000000; stroke-opacity:1;  stroke-linecap:round; stroke-linejoin:round;">
<svg:g>
</svg:g>
<svg:g>
</svg:g>
<svg:g>
</svg:g>
<svg:g>
</svg:g>
</svg:g> 
</svg:g><svg:g><svg:title>SVG Picture created as kicadBoard-B_Silkscreen.svg date 2022/12/01 20:18:27 </svg:title>
  <svg:desc>Picture generated by PCBNEW </svg:desc>
<svg:g style="fill:#000000; fill-opacity:1.000000;stroke:#000000; stroke-opacity:1.000000; stroke-linecap:round; stroke-linejoin:round;" transform="translate(0 0) scale(1 1)">
</svg:g>
<svg:g style="fill:#000000; fill-opacity:0.0;  stroke:#000000; stroke-width:0.000000; stroke-opacity:1;  stroke-linecap:round; stroke-linejoin:round;">
<svg:g>
</svg:g>
<svg:g>
</svg:g>
<svg:g>
</svg:g>
<svg:g>
</svg:g>
</svg:g>
<svg:g style="fill:#000000; fill-opacity:0.0;  stroke:#000000; stroke-width:0.000000; stroke-opacity:1;  stroke-linecap:round; stroke-linejoin:round;">
<svg:g>
</svg:g>
<svg:g>
</svg:g>
<svg:g>
</svg:g>
<svg:g>
</svg:g>
</svg:g> 
</svg:g><svg:g><svg:title>SVG Picture created as kicadBoard-Edge_Cuts.svg date 2022/12/01 20:18:27 </svg:title>
  <svg:desc>Picture generated by PCBNEW </svg:desc>
<svg:g style="fill:#000000; fill-opacity:1.000000;stroke:#000000; stroke-opacity:1.000000; stroke-linecap:round; stroke-linejoin:round;" transform="translate(0 0) scale(1 1)">
</svg:g>
<svg:g style="fill:#000000; fill-opacity:0.0;  stroke:#000000; stroke-width:0.000000; stroke-opacity:1;  stroke-linecap:round; stroke-linejoin:round;">
<svg:g>
</svg:g>
<svg:g>
</svg:g>
<svg:g>
</svg:g>
<svg:g>
</svg:g>
</svg:g> 
</svg:g><svg:g><svg:title>SVG Picture created as kicadBoard-F_Adhesive.svg date 2022/12/01 20:18:27 </svg:title>
  <svg:desc>Picture generated by PCBNEW </svg:desc>
<svg:g style="fill:#000000; fill-opacity:1.000000;stroke:#000000; stroke-opacity:1.000000; stroke-linecap:round; stroke-linejoin:round;" transform="translate(0 0) scale(1 1)">
</svg:g>
<svg:g style="fill:#000000; fill-opacity:0.0;  stroke:#000000; stroke-width:0.000000; stroke-opacity:1;  stroke-linecap:round; stroke-linejoin:round;">
<svg:g>
</svg:g>
<svg:g>
</svg:g>
<svg:g>
</svg:g>
<svg:g>
</svg:g>
</svg:g>
<svg:g style="fill:#000000; fill-opacity:0.0;  stroke:#000000; stroke-width:0.000000; stroke-opacity:1;  stroke-linecap:round; stroke-linejoin:round;">
<svg:g>
</svg:g>
<svg:g>
</svg:g>
<svg:g>
</svg:g>
<svg:g>
</svg:g>
</svg:g> 
</svg:g><svg:g><svg:title>SVG Picture created as kicadBoard-F_Courtyard.svg date 2022/12/01 20:18:27 </svg:title>
  <svg:desc>Picture generated by PCBNEW </svg:desc>
<svg:g style="fill:#000000; fill-opacity:1.000000;stroke:#000000; stroke-opacity:1.000000; stroke-linecap:round; stroke-linejoin:round;" transform="translate(0 0) scale(1 1)">
</svg:g>
<svg:g style="fill:#000000; fill-opacity:0.0;  stroke:#000000; stroke-width:0.000000; stroke-opacity:1;  stroke-linecap:round; stroke-linejoin:round;">
</svg:g>
<svg:g style="fill:#FF26E2; fill-opacity:0.0;  stroke:#FF26E2; stroke-width:0.000000; stroke-opacity:1;  stroke-linecap:round; stroke-linejoin:round;">
</svg:g>
<svg:g style="fill:#FF26E2; fill-opacity:0.0;  stroke:#FF26E2; stroke-width:50000.000000; stroke-opacity:1;  stroke-linecap:round; stroke-linejoin:round;">
<svg:path d="M43950000 54300000 L43950000 45700000 "/>
<svg:path d="M43950000 45700000 L56050000 45700000 "/>
<svg:path d="M56050000 54300000 L43950000 54300000 "/>
<svg:path d="M56050000 45700000 L56050000 54300000 "/>
<svg:g>
</svg:g>
<svg:g>
</svg:g>
<svg:g>
</svg:g>
<svg:g>
</svg:g>
</svg:g>
<svg:g style="fill:#000000; fill-opacity:0.0;  stroke:#000000; stroke-width:50000.000000; stroke-opacity:1;  stroke-linecap:round; stroke-linejoin:round;">
<svg:g>
</svg:g>
<svg:g>
</svg:g>
<svg:g>
</svg:g>
<svg:g>
</svg:g>
</svg:g> 
</svg:g><svg:g><svg:title>SVG Picture created as kicadBoard-F_Cu.svg date 2022/12/01 20:18:27 </svg:title>
  <svg:desc>Picture generated by PCBNEW </svg:desc>
<svg:g style="fill:#000000; fill-opacity:1.000000;stroke:#000000; stroke-opacity:1.000000; stroke-linecap:round; stroke-linejoin:round;" transform="translate(0 0) scale(1 1)">
</svg:g>
<svg:g style="fill:#000000; fill-opacity:0.0;  stroke:#000000; stroke-width:0.000000; stroke-opacity:1;  stroke-linecap:round; stroke-linejoin:round;">
<svg:g>
</svg:g>
<svg:g style="fill:#C83434; fill-opacity:0.0;  stroke:#C83434; stroke-width:0.000000; stroke-opacity:1;  stroke-linecap:round; stroke-linejoin:round;">
</svg:g>
<svg:g style="fill:#C83434; fill-opacity:0.0;  stroke:#C83434; stroke-width:1.000000; stroke-opacity:1;  stroke-linecap:round; stroke-linejoin:round;">
</svg:g>
<svg:g style="fill:#C83434; fill-opacity:1.0;  stroke:#C83434; stroke-width:1.000000; stroke-opacity:1;  stroke-linecap:round; stroke-linejoin:round;">
<svg:path style="fill:#C83434; fill-opacity:1.0;  stroke:#C83434; stroke-width:1.000000; stroke-opacity:1;  stroke-linecap:round; stroke-linejoin:round;fill-rule:evenodd;" d="M 44200001.000000,47824999.000000 44200001.000000,47175001.000000 46199999.000000,47175001.000000 46199999.000000,47824999.000000 Z"/> 
<svg:path style="fill:#C83434; fill-opacity:1.0;  stroke:#C83434; stroke-width:1.000000; stroke-opacity:1;  stroke-linecap:round; stroke-linejoin:round;fill-rule:evenodd;" d="M 44200001.000000,48824999.000000 44200001.000000,48175001.000000 46199999.000000,48175001.000000 46199999.000000,48824999.000000 Z"/> 
<svg:path style="fill:#C83434; fill-opacity:1.0;  stroke:#C83434; stroke-width:1.000000; stroke-opacity:1;  stroke-linecap:round; stroke-linejoin:round;fill-rule:evenodd;" d="M 44200001.000000,49824999.000000 44200001.000000,49175001.000000 46199999.000000,49175001.000000 46199999.000000,49824999.000000 Z"/> 
<svg:path style="fill:#C83434; fill-opacity:1.0;  stroke:#C83434; stroke-width:1.000000; stroke-opacity:1;  stroke-linecap:round; stroke-linejoin:round;fill-rule:evenodd;" d="M 44200001.000000,50824999.000000 44200001.000000,50175001.000000 46199999.000000,50175001.000000 46199999.000000,50824999.000000 Z"/> 
<svg:path style="fill:#C83434; fill-opacity:1.0;  stroke:#C83434; stroke-width:1.000000; stroke-opacity:1;  stroke-linecap:round; stroke-linejoin:round;fill-rule:evenodd;" d="M 44200001.000000,51824999.000000 44200001.000000,51175001.000000 46199999.000000,51175001.000000 46199999.000000,51824999.000000 Z"/> 
<svg:path style="fill:#C83434; fill-opacity:1.0;  stroke:#C83434; stroke-width:1.000000; stroke-opacity:1;  stroke-linecap:round; stroke-linejoin:round;fill-rule:evenodd;" d="M 44200001.000000,52824999.000000 44200001.000000,52175001.000000 46199999.000000,52175001.000000 46199999.000000,52824999.000000 Z"/> 
<svg:path style="fill:#C83434; fill-opacity:1.0;  stroke:#C83434; stroke-width:1.000000; stroke-opacity:1;  stroke-linecap:round; stroke-linejoin:round;fill-rule:evenodd;" d="M 53800001.000000,52824999.000000 53800001.000000,52175001.000000 55799999.000000,52175001.000000 55799999.000000,52824999.000000 Z"/> 
<svg:path style="fill:#C83434; fill-opacity:1.0;  stroke:#C83434; stroke-width:1.000000; stroke-opacity:1;  stroke-linecap:round; stroke-linejoin:round;fill-rule:evenodd;" d="M 53800001.000000,51824999.000000 53800001.000000,51175001.000000 55799999.000000,51175001.000000 55799999.000000,51824999.000000 Z"/> 
<svg:path style="fill:#C83434; fill-opacity:1.0;  stroke:#C83434; stroke-width:1.000000; stroke-opacity:1;  stroke-linecap:round; stroke-linejoin:round;fill-rule:evenodd;" d="M 53800001.000000,50824999.000000 53800001.000000,50175001.000000 55799999.000000,50175001.000000 55799999.000000,50824999.000000 Z"/> 
<svg:path style="fill:#C83434; fill-opacity:1.0;  stroke:#C83434; stroke-width:1.000000; stroke-opacity:1;  stroke-linecap:round; stroke-linejoin:round;fill-rule:evenodd;" d="M 53800001.000000,49824999.000000 53800001.000000,49175001.000000 55799999.000000,49175001.000000 55799999.000000,49824999.000000 Z"/> 
<svg:path style="fill:#C83434; fill-opacity:1.0;  stroke:#C83434; stroke-width:1.000000; stroke-opacity:1;  stroke-linecap:round; stroke-linejoin:round;fill-rule:evenodd;" d="M 53800001.000000,48824999.000000 53800001.000000,48175001.000000 55799999.000000,48175001.000000 55799999.000000,48824999.000000 Z"/> 
<svg:path style="fill:#C83434; fill-opacity:1.0;  stroke:#C83434; stroke-width:1.000000; stroke-opacity:1;  stroke-linecap:round; stroke-linejoin:round;fill-rule:evenodd;" d="M 53800001.000000,47824999.000000 53800001.000000,47175001.000000 55799999.000000,47175001.000000 55799999.000000,47824999.000000 Z"/> 
<svg:path style="fill:#C83434; fill-opacity:1.0;  stroke:#C83434; stroke-width:1.000000; stroke-opacity:1;  stroke-linecap:round; stroke-linejoin:round;fill-rule:evenodd;" d="M 47750001.000000,54049999.000000 47750001.000000,45950001.000000 52249999.000000,45950001.000000 52249999.000000,54049999.000000 Z"/> 
</svg:g>
<svg:g>
</svg:g>
<svg:g>
</svg:g>
<svg:g>
</svg:g>
</svg:g>
<svg:g style="fill:#FFFFFF; fill-opacity:1.0;  stroke:#FFFFFF; stroke-width:1.000000; stroke-opacity:1;  stroke-linecap:round; stroke-linejoin:round;">
</svg:g>
<svg:g style="fill:#000000; fill-opacity:1.0;  stroke:#000000; stroke-width:1.000000; stroke-opacity:1;  stroke-linecap:round; stroke-linejoin:round;">
<svg:g>
</svg:g>
<svg:g>
</svg:g>
<svg:g>
</svg:g>
<svg:g>
</svg:g>
</svg:g> 
</svg:g><svg:g><svg:title>SVG Picture created as kicadBoard-F_Fab.svg date 2022/12/01 20:18:27 </svg:title>
  <svg:desc>Picture generated by PCBNEW </svg:desc>
<svg:g style="fill:#000000; fill-opacity:1.000000;stroke:#000000; stroke-opacity:1.000000; stroke-linecap:round; stroke-linejoin:round;" transform="translate(0 0) scale(1 1)">
</svg:g>
<svg:g style="fill:#000000; fill-opacity:0.0;  stroke:#000000; stroke-width:0.000000; stroke-opacity:1;  stroke-linecap:round; stroke-linejoin:round;">
</svg:g>
<svg:g style="fill:#AFAFAF; fill-opacity:0.0;  stroke:#AFAFAF; stroke-width:0.000000; stroke-opacity:1;  stroke-linecap:round; stroke-linejoin:round;">
</svg:g>
<svg:g style="fill:#AFAFAF; fill-opacity:0.0;  stroke:#AFAFAF; stroke-width:150000.000000; stroke-opacity:1;  stroke-linecap:round; stroke-linejoin:round;">
<svg:text x="50000000.000000" y="56500000.000000" textLength="18528333.000000" font-size="1333333.000000" lengthAdjust="spacingAndGlyphs" text-anchor="middle" opacity="0">Infineon_PG-DSO-12-9</svg:text>
<svg:g class="stroked-text"><svg:desc>Infineon_PG-DSO-12-9</svg:desc>
<svg:path d="M41071428 56452380 L41071428 55452380 "/>
<svg:path d="M41547619 55785714 L41547619 56452380 "/>
<svg:path d="M41547619 55880952 L41595238 55833333 L41690476 55785714 L41833333 55785714 L41928571 55833333 L41976190 55928571 L41976190 56452380 "/>
<svg:path d="M42309523 55785714 L42690476 55785714 "/>
<svg:path d="M42452380 56452380 L42452380 55595238 L42500000 55500000 L42595238 55452380 L42690476 55452380 "/>
<svg:path d="M43023809 56452380 L43023809 55785714 "/>
<svg:path d="M43023809 55452380 L42976190 55500000 L43023809 55547619 L43071428 55500000 L43023809 55452380 L43023809 55547619 "/>
<svg:path d="M43500000 55785714 L43500000 56452380 "/>
<svg:path d="M43500000 55880952 L43547619 55833333 L43642857 55785714 L43785714 55785714 L43880952 55833333 L43928571 55928571 L43928571 56452380 "/>
<svg:path d="M44785714 56404761 L44690476 56452380 L44500000 56452380 L44404761 56404761 L44357142 56309523 L44357142 55928571 L44404761 55833333 L44500000 55785714 L44690476 55785714 L44785714 55833333 L44833333 55928571 L44833333 56023809 L44357142 56119047 "/>
<svg:path d="M45404761 56452380 L45309523 56404761 L45261904 56357142 L45214285 56261904 L45214285 55976190 L45261904 55880952 L45309523 55833333 L45404761 55785714 L45547619 55785714 L45642857 55833333 L45690476 55880952 L45738095 55976190 L45738095 56261904 L45690476 56357142 L45642857 56404761 L45547619 56452380 L45404761 56452380 "/>
<svg:path d="M46166666 55785714 L46166666 56452380 "/>
<svg:path d="M46166666 55880952 L46214285 55833333 L46309523 55785714 L46452380 55785714 L46547619 55833333 L46595238 55928571 L46595238 56452380 "/>
<svg:path d="M46833333 56547619 L47595238 56547619 "/>
<svg:path d="M47833333 56452380 L47833333 55452380 L48214285 55452380 L48309523 55500000 L48357142 55547619 L48404761 55642857 L48404761 55785714 L48357142 55880952 L48309523 55928571 L48214285 55976190 L47833333 55976190 "/>
<svg:path d="M49357142 55500000 L49261904 55452380 L49119047 55452380 L48976190 55500000 L48880952 55595238 L48833333 55690476 L48785714 55880952 L48785714 56023809 L48833333 56214285 L48880952 56309523 L48976190 56404761 L49119047 56452380 L49214285 56452380 L49357142 56404761 L49404761 56357142 L49404761 56023809 L49214285 56023809 "/>
<svg:path d="M49833333 56071428 L50595238 56071428 "/>
<svg:path d="M51071428 56452380 L51071428 55452380 L51309523 55452380 L51452380 55500000 L51547619 55595238 L51595238 55690476 L51642857 55880952 L51642857 56023809 L51595238 56214285 L51547619 56309523 L51452380 56404761 L51309523 56452380 L51071428 56452380 "/>
<svg:path d="M52023809 56404761 L52166666 56452380 L52404761 56452380 L52500000 56404761 L52547619 56357142 L52595238 56261904 L52595238 56166666 L52547619 56071428 L52500000 56023809 L52404761 55976190 L52214285 55928571 L52119047 55880952 L52071428 55833333 L52023809 55738095 L52023809 55642857 L52071428 55547619 L52119047 55500000 L52214285 55452380 L52452380 55452380 L52595238 55500000 "/>
<svg:path d="M53214285 55452380 L53404761 55452380 L53500000 55500000 L53595238 55595238 L53642857 55785714 L53642857 56119047 L53595238 56309523 L53500000 56404761 L53404761 56452380 L53214285 56452380 L53119047 56404761 L53023809 56309523 L52976190 56119047 L52976190 55785714 L53023809 55595238 L53119047 55500000 L53214285 55452380 "/>
<svg:path d="M54071428 56071428 L54833333 56071428 "/>
<svg:path d="M55833333 56452380 L55261904 56452380 "/>
<svg:path d="M55547619 56452380 L55547619 55452380 L55452380 55595238 L55357142 55690476 L55261904 55738095 "/>
<svg:path d="M56214285 55547619 L56261904 55500000 L56357142 55452380 L56595238 55452380 L56690476 55500000 L56738095 55547619 L56785714 55642857 L56785714 55738095 L56738095 55880952 L56166666 56452380 L56785714 56452380 "/>
<svg:path d="M57214285 56071428 L57976190 56071428 "/>
<svg:path d="M58500000 56452380 L58690476 56452380 L58785714 56404761 L58833333 56357142 L58928571 56214285 L58976190 56023809 L58976190 55642857 L58928571 55547619 L58880952 55500000 L58785714 55452380 L58595238 55452380 L58500000 55500000 L58452380 55547619 L58404761 55642857 L58404761 55880952 L58452380 55976190 L58500000 56023809 L58595238 56071428 L58785714 56071428 L58880952 56023809 L58928571 55976190 L58976190 55880952 "/>
</svg:g><svg:text x="50000000.000000" y="50500000.000000" textLength="19766429.000000" font-size="1333333.000000" lengthAdjust="spacingAndGlyphs" text-anchor="middle" opacity="0">FZKSOINFINEONPGDSO129</svg:text>
<svg:g class="stroked-text"><svg:desc>FZKSOINFINEONPGDSO129</svg:desc>
<svg:path d="M40785714 49928571 L40452380 49928571 "/>
<svg:path d="M40452380 50452380 L40452380 49452380 L40928571 49452380 "/>
<svg:path d="M41214285 49452380 L41880952 49452380 L41214285 50452380 L41880952 50452380 "/>
<svg:path d="M42261904 50452380 L42261904 49452380 "/>
<svg:path d="M42833333 50452380 L42404761 49880952 "/>
<svg:path d="M42833333 49452380 L42261904 50023809 "/>
<svg:path d="M43214285 50404761 L43357142 50452380 L43595238 50452380 L43690476 50404761 L43738095 50357142 L43785714 50261904 L43785714 50166666 L43738095 50071428 L43690476 50023809 L43595238 49976190 L43404761 49928571 L43309523 49880952 L43261904 49833333 L43214285 49738095 L43214285 49642857 L43261904 49547619 L43309523 49500000 L43404761 49452380 L43642857 49452380 L43785714 49500000 "/>
<svg:path d="M44404761 49452380 L44595238 49452380 L44690476 49500000 L44785714 49595238 L44833333 49785714 L44833333 50119047 L44785714 50309523 L44690476 50404761 L44595238 50452380 L44404761 50452380 L44309523 50404761 L44214285 50309523 L44166666 50119047 L44166666 49785714 L44214285 49595238 L44309523 49500000 L44404761 49452380 "/>
<svg:path d="M45261904 50452380 L45261904 49452380 "/>
<svg:path d="M45738095 50452380 L45738095 49452380 L46309523 50452380 L46309523 49452380 "/>
<svg:path d="M47119047 49928571 L46785714 49928571 "/>
<svg:path d="M46785714 50452380 L46785714 49452380 L47261904 49452380 "/>
<svg:path d="M47642857 50452380 L47642857 49452380 "/>
<svg:path d="M48119047 50452380 L48119047 49452380 L48690476 50452380 L48690476 49452380 "/>
<svg:path d="M49166666 49928571 L49500000 49928571 "/>
<svg:path d="M49642857 50452380 L49166666 50452380 L49166666 49452380 L49642857 49452380 "/>
<svg:path d="M50261904 49452380 L50452380 49452380 L50547619 49500000 L50642857 49595238 L50690476 49785714 L50690476 50119047 L50642857 50309523 L50547619 50404761 L50452380 50452380 L50261904 50452380 L50166666 50404761 L50071428 50309523 L50023809 50119047 L50023809 49785714 L50071428 49595238 L50166666 49500000 L50261904 49452380 "/>
<svg:path d="M51119047 50452380 L51119047 49452380 L51690476 50452380 L51690476 49452380 "/>
<svg:path d="M52166666 50452380 L52166666 49452380 L52547619 49452380 L52642857 49500000 L52690476 49547619 L52738095 49642857 L52738095 49785714 L52690476 49880952 L52642857 49928571 L52547619 49976190 L52166666 49976190 "/>
<svg:path d="M53690476 49500000 L53595238 49452380 L53452380 49452380 L53309523 49500000 L53214285 49595238 L53166666 49690476 L53119047 49880952 L53119047 50023809 L53166666 50214285 L53214285 50309523 L53309523 50404761 L53452380 50452380 L53547619 50452380 L53690476 50404761 L53738095 50357142 L53738095 50023809 L53547619 50023809 "/>
<svg:path d="M54166666 50452380 L54166666 49452380 L54404761 49452380 L54547619 49500000 L54642857 49595238 L54690476 49690476 L54738095 49880952 L54738095 50023809 L54690476 50214285 L54642857 50309523 L54547619 50404761 L54404761 50452380 L54166666 50452380 "/>
<svg:path d="M55119047 50404761 L55261904 50452380 L55500000 50452380 L55595238 50404761 L55642857 50357142 L55690476 50261904 L55690476 50166666 L55642857 50071428 L55595238 50023809 L55500000 49976190 L55309523 49928571 L55214285 49880952 L55166666 49833333 L55119047 49738095 L55119047 49642857 L55166666 49547619 L55214285 49500000 L55309523 49452380 L55547619 49452380 L55690476 49500000 "/>
<svg:path d="M56309523 49452380 L56500000 49452380 L56595238 49500000 L56690476 49595238 L56738095 49785714 L56738095 50119047 L56690476 50309523 L56595238 50404761 L56500000 50452380 L56309523 50452380 L56214285 50404761 L56119047 50309523 L56071428 50119047 L56071428 49785714 L56119047 49595238 L56214285 49500000 L56309523 49452380 "/>
<svg:path d="M57690476 50452380 L57119047 50452380 "/>
<svg:path d="M57404761 50452380 L57404761 49452380 L57309523 49595238 L57214285 49690476 L57119047 49738095 "/>
<svg:path d="M58071428 49547619 L58119047 49500000 L58214285 49452380 L58452380 49452380 L58547619 49500000 L58595238 49547619 L58642857 49642857 L58642857 49738095 L58595238 49880952 L58023809 50452380 L58642857 50452380 "/>
<svg:path d="M59119047 50452380 L59309523 50452380 L59404761 50404761 L59452380 50357142 L59547619 50214285 L59595238 50023809 L59595238 49642857 L59547619 49547619 L59500000 49500000 L59404761 49452380 L59214285 49452380 L59119047 49500000 L59071428 49547619 L59023809 49642857 L59023809 49880952 L59071428 49976190 L59119047 50023809 L59214285 50071428 L59404761 50071428 L59500000 50023809 L59547619 49976190 L59595238 49880952 "/>
</svg:g></svg:g>
<svg:g style="fill:#AFAFAF; fill-opacity:0.0;  stroke:#AFAFAF; stroke-width:100000.000000; stroke-opacity:1;  stroke-linecap:round; stroke-linejoin:round;">
<svg:path d="M50900000 53900000 L49100000 53900000 "/>
<svg:path d="M53750000 53200000 L50900000 53200000 "/>
<svg:path d="M46250000 53200000 L46250000 47800000 "/>
<svg:path d="M49100000 46800000 L49100000 46100000 "/>
<svg:path d="M49100000 46100000 L50900000 46100000 "/>
<svg:path d="M47250000 46800000 L46250000 47800000 "/>
<svg:path d="M49100000 53900000 L49100000 53200000 "/>
<svg:path d="M47250000 46800000 L49100000 46800000 "/>
<svg:path d="M49100000 53200000 L46250000 53200000 "/>
<svg:path d="M50900000 53200000 L50900000 53900000 "/>
<svg:path d="M50900000 46100000 L50900000 46800000 "/>
<svg:path d="M50900000 46800000 L53750000 46800000 "/>
<svg:path d="M53750000 46800000 L53750000 53200000 "/>
<svg:g>
</svg:g>
<svg:g>
</svg:g>
<svg:g>
</svg:g>
<svg:g>
</svg:g>
</svg:g>
<svg:g style="fill:#000000; fill-opacity:0.0;  stroke:#000000; stroke-width:100000.000000; stroke-opacity:1;  stroke-linecap:round; stroke-linejoin:round;">
<svg:g>
</svg:g>
<svg:g>
</svg:g>
<svg:g>
</svg:g>
<svg:g>
</svg:g>
</svg:g> 
</svg:g><svg:g><svg:title>SVG Picture created as kicadBoard-F_Mask.svg date 2022/12/01 20:18:27 </svg:title>
  <svg:desc>Picture generated by PCBNEW </svg:desc>
<svg:g style="fill:#000000; fill-opacity:1.000000;stroke:#000000; stroke-opacity:1.000000; stroke-linecap:round; stroke-linejoin:round;" transform="translate(0 0) scale(1 1)">
</svg:g>
<svg:g style="fill:#000000; fill-opacity:0.0;  stroke:#000000; stroke-width:0.000000; stroke-opacity:1;  stroke-linecap:round; stroke-linejoin:round;">
<svg:g>
</svg:g>
<svg:g style="fill:#000000; fill-opacity:0.0;  stroke:#000000; stroke-width:1.000000; stroke-opacity:1;  stroke-linecap:round; stroke-linejoin:round;">
</svg:g>
<svg:g style="fill:#000000; fill-opacity:1.0;  stroke:#000000; stroke-width:1.000000; stroke-opacity:1;  stroke-linecap:round; stroke-linejoin:round;">
<svg:path style="fill:#000000; fill-opacity:1.0;  stroke:#000000; stroke-width:1.000000; stroke-opacity:1;  stroke-linecap:round; stroke-linejoin:round;fill-rule:evenodd;" d="M 44200001.000000,47824999.000000 44200001.000000,47175001.000000 46199999.000000,47175001.000000 46199999.000000,47824999.000000 Z"/> 
<svg:path style="fill:#000000; fill-opacity:1.0;  stroke:#000000; stroke-width:1.000000; stroke-opacity:1;  stroke-linecap:round; stroke-linejoin:round;fill-rule:evenodd;" d="M 44200001.000000,48824999.000000 44200001.000000,48175001.000000 46199999.000000,48175001.000000 46199999.000000,48824999.000000 Z"/> 
<svg:path style="fill:#000000; fill-opacity:1.0;  stroke:#000000; stroke-width:1.000000; stroke-opacity:1;  stroke-linecap:round; stroke-linejoin:round;fill-rule:evenodd;" d="M 44200001.000000,49824999.000000 44200001.000000,49175001.000000 46199999.000000,49175001.000000 46199999.000000,49824999.000000 Z"/> 
<svg:path style="fill:#000000; fill-opacity:1.0;  stroke:#000000; stroke-width:1.000000; stroke-opacity:1;  stroke-linecap:round; stroke-linejoin:round;fill-rule:evenodd;" d="M 44200001.000000,50824999.000000 44200001.000000,50175001.000000 46199999.000000,50175001.000000 46199999.000000,50824999.000000 Z"/> 
<svg:path style="fill:#000000; fill-opacity:1.0;  stroke:#000000; stroke-width:1.000000; stroke-opacity:1;  stroke-linecap:round; stroke-linejoin:round;fill-rule:evenodd;" d="M 44200001.000000,51824999.000000 44200001.000000,51175001.000000 46199999.000000,51175001.000000 46199999.000000,51824999.000000 Z"/> 
<svg:path style="fill:#000000; fill-opacity:1.0;  stroke:#000000; stroke-width:1.000000; stroke-opacity:1;  stroke-linecap:round; stroke-linejoin:round;fill-rule:evenodd;" d="M 44200001.000000,52824999.000000 44200001.000000,52175001.000000 46199999.000000,52175001.000000 46199999.000000,52824999.000000 Z"/> 
<svg:path style="fill:#000000; fill-opacity:1.0;  stroke:#000000; stroke-width:1.000000; stroke-opacity:1;  stroke-linecap:round; stroke-linejoin:round;fill-rule:evenodd;" d="M 53800001.000000,52824999.000000 53800001.000000,52175001.000000 55799999.000000,52175001.000000 55799999.000000,52824999.000000 Z"/> 
<svg:path style="fill:#000000; fill-opacity:1.0;  stroke:#000000; stroke-width:1.000000; stroke-opacity:1;  stroke-linecap:round; stroke-linejoin:round;fill-rule:evenodd;" d="M 53800001.000000,51824999.000000 53800001.000000,51175001.000000 55799999.000000,51175001.000000 55799999.000000,51824999.000000 Z"/> 
<svg:path style="fill:#000000; fill-opacity:1.0;  stroke:#000000; stroke-width:1.000000; stroke-opacity:1;  stroke-linecap:round; stroke-linejoin:round;fill-rule:evenodd;" d="M 53800001.000000,50824999.000000 53800001.000000,50175001.000000 55799999.000000,50175001.000000 55799999.000000,50824999.000000 Z"/> 
<svg:path style="fill:#000000; fill-opacity:1.0;  stroke:#000000; stroke-width:1.000000; stroke-opacity:1;  stroke-linecap:round; stroke-linejoin:round;fill-rule:evenodd;" d="M 53800001.000000,49824999.000000 53800001.000000,49175001.000000 55799999.000000,49175001.000000 55799999.000000,49824999.000000 Z"/> 
<svg:path style="fill:#000000; fill-opacity:1.0;  stroke:#000000; stroke-width:1.000000; stroke-opacity:1;  stroke-linecap:round; stroke-linejoin:round;fill-rule:evenodd;" d="M 53800001.000000,48824999.000000 53800001.000000,48175001.000000 55799999.000000,48175001.000000 55799999.000000,48824999.000000 Z"/> 
<svg:path style="fill:#000000; fill-opacity:1.0;  stroke:#000000; stroke-width:1.000000; stroke-opacity:1;  stroke-linecap:round; stroke-linejoin:round;fill-rule:evenodd;" d="M 53800001.000000,47824999.000000 53800001.000000,47175001.000000 55799999.000000,47175001.000000 55799999.000000,47824999.000000 Z"/> 
<svg:path style="fill:#000000; fill-opacity:1.0;  stroke:#000000; stroke-width:1.000000; stroke-opacity:1;  stroke-linecap:round; stroke-linejoin:round;fill-rule:evenodd;" d="M 47750001.000000,54049999.000000 47750001.000000,45950001.000000 52249999.000000,45950001.000000 52249999.000000,54049999.000000 Z"/> 
</svg:g>
<svg:g>
</svg:g>
<svg:g>
</svg:g>
<svg:g>
</svg:g>
</svg:g>
<svg:g style="fill:#000000; fill-opacity:1.0;  stroke:#000000; stroke-width:1.000000; stroke-opacity:1;  stroke-linecap:round; stroke-linejoin:round;">
<svg:g>
</svg:g>
<svg:g>
</svg:g>
<svg:g>
</svg:g>
<svg:g>
</svg:g>
</svg:g> 
</svg:g><svg:g><svg:title>SVG Picture created as kicadBoard-F_Paste.svg date 2022/12/01 20:18:27 </svg:title>
  <svg:desc>Picture generated by PCBNEW </svg:desc>
<svg:g style="fill:#000000; fill-opacity:1.000000;stroke:#000000; stroke-opacity:1.000000; stroke-linecap:round; stroke-linejoin:round;" transform="translate(0 0) scale(1 1)">
</svg:g>
<svg:g style="fill:#000000; fill-opacity:0.0;  stroke:#000000; stroke-width:0.000000; stroke-opacity:1;  stroke-linecap:round; stroke-linejoin:round;">
<svg:g>
</svg:g>
<svg:g style="fill:#000000; fill-opacity:0.0;  stroke:#000000; stroke-width:1.000000; stroke-opacity:1;  stroke-linecap:round; stroke-linejoin:round;">
</svg:g>
<svg:g style="fill:#000000; fill-opacity:1.0;  stroke:#000000; stroke-width:1.000000; stroke-opacity:1;  stroke-linecap:round; stroke-linejoin:round;">
<svg:path style="fill:#000000; fill-opacity:1.0;  stroke:#000000; stroke-width:1.000000; stroke-opacity:1;  stroke-linecap:round; stroke-linejoin:round;fill-rule:evenodd;" d="M 50150001.000000,52039999.000000 50150001.000000,50880001.000000 52099999.000000,50880001.000000 52099999.000000,52039999.000000 Z"/> 
<svg:path style="fill:#000000; fill-opacity:1.0;  stroke:#000000; stroke-width:1.000000; stroke-opacity:1;  stroke-linecap:round; stroke-linejoin:round;fill-rule:evenodd;" d="M 47900001.000000,53499999.000000 47900001.000000,52340001.000000 49849999.000000,52340001.000000 49849999.000000,53499999.000000 Z"/> 
<svg:path style="fill:#000000; fill-opacity:1.0;  stroke:#000000; stroke-width:1.000000; stroke-opacity:1;  stroke-linecap:round; stroke-linejoin:round;fill-rule:evenodd;" d="M 47900001.000000,49119999.000000 47900001.000000,47960001.000000 49849999.000000,47960001.000000 49849999.000000,49119999.000000 Z"/> 
<svg:path style="fill:#000000; fill-opacity:1.0;  stroke:#000000; stroke-width:1.000000; stroke-opacity:1;  stroke-linecap:round; stroke-linejoin:round;fill-rule:evenodd;" d="M 47900001.000000,47659999.000000 47900001.000000,46500001.000000 49849999.000000,46500001.000000 49849999.000000,47659999.000000 Z"/> 
<svg:path style="fill:#000000; fill-opacity:1.0;  stroke:#000000; stroke-width:1.000000; stroke-opacity:1;  stroke-linecap:round; stroke-linejoin:round;fill-rule:evenodd;" d="M 50150001.000000,47659999.000000 50150001.000000,46500001.000000 52099999.000000,46500001.000000 52099999.000000,47659999.000000 Z"/> 
<svg:path style="fill:#000000; fill-opacity:1.0;  stroke:#000000; stroke-width:1.000000; stroke-opacity:1;  stroke-linecap:round; stroke-linejoin:round;fill-rule:evenodd;" d="M 47900001.000000,50579999.000000 47900001.000000,49420001.000000 49849999.000000,49420001.000000 49849999.000000,50579999.000000 Z"/> 
<svg:path style="fill:#000000; fill-opacity:1.0;  stroke:#000000; stroke-width:1.000000; stroke-opacity:1;  stroke-linecap:round; stroke-linejoin:round;fill-rule:evenodd;" d="M 50150001.000000,49119999.000000 50150001.000000,47960001.000000 52099999.000000,47960001.000000 52099999.000000,49119999.000000 Z"/> 
<svg:path style="fill:#000000; fill-opacity:1.0;  stroke:#000000; stroke-width:1.000000; stroke-opacity:1;  stroke-linecap:round; stroke-linejoin:round;fill-rule:evenodd;" d="M 50150001.000000,50579999.000000 50150001.000000,49420001.000000 52099999.000000,49420001.000000 52099999.000000,50579999.000000 Z"/> 
<svg:path style="fill:#000000; fill-opacity:1.0;  stroke:#000000; stroke-width:1.000000; stroke-opacity:1;  stroke-linecap:round; stroke-linejoin:round;fill-rule:evenodd;" d="M 50150001.000000,53499999.000000 50150001.000000,52340001.000000 52099999.000000,52340001.000000 52099999.000000,53499999.000000 Z"/> 
<svg:path style="fill:#000000; fill-opacity:1.0;  stroke:#000000; stroke-width:1.000000; stroke-opacity:1;  stroke-linecap:round; stroke-linejoin:round;fill-rule:evenodd;" d="M 47900001.000000,52039999.000000 47900001.000000,50880001.000000 49849999.000000,50880001.000000 49849999.000000,52039999.000000 Z"/> 
<svg:path style="fill:#000000; fill-opacity:1.0;  stroke:#000000; stroke-width:1.000000; stroke-opacity:1;  stroke-linecap:round; stroke-linejoin:round;fill-rule:evenodd;" d="M 44200001.000000,47824999.000000 44200001.000000,47175001.000000 46199999.000000,47175001.000000 46199999.000000,47824999.000000 Z"/> 
<svg:path style="fill:#000000; fill-opacity:1.0;  stroke:#000000; stroke-width:1.000000; stroke-opacity:1;  stroke-linecap:round; stroke-linejoin:round;fill-rule:evenodd;" d="M 44200001.000000,48824999.000000 44200001.000000,48175001.000000 46199999.000000,48175001.000000 46199999.000000,48824999.000000 Z"/> 
<svg:path style="fill:#000000; fill-opacity:1.0;  stroke:#000000; stroke-width:1.000000; stroke-opacity:1;  stroke-linecap:round; stroke-linejoin:round;fill-rule:evenodd;" d="M 44200001.000000,49824999.000000 44200001.000000,49175001.000000 46199999.000000,49175001.000000 46199999.000000,49824999.000000 Z"/> 
<svg:path style="fill:#000000; fill-opacity:1.0;  stroke:#000000; stroke-width:1.000000; stroke-opacity:1;  stroke-linecap:round; stroke-linejoin:round;fill-rule:evenodd;" d="M 44200001.000000,50824999.000000 44200001.000000,50175001.000000 46199999.000000,50175001.000000 46199999.000000,50824999.000000 Z"/> 
<svg:path style="fill:#000000; fill-opacity:1.0;  stroke:#000000; stroke-width:1.000000; stroke-opacity:1;  stroke-linecap:round; stroke-linejoin:round;fill-rule:evenodd;" d="M 44200001.000000,51824999.000000 44200001.000000,51175001.000000 46199999.000000,51175001.000000 46199999.000000,51824999.000000 Z"/> 
<svg:path style="fill:#000000; fill-opacity:1.0;  stroke:#000000; stroke-width:1.000000; stroke-opacity:1;  stroke-linecap:round; stroke-linejoin:round;fill-rule:evenodd;" d="M 44200001.000000,52824999.000000 44200001.000000,52175001.000000 46199999.000000,52175001.000000 46199999.000000,52824999.000000 Z"/> 
<svg:path style="fill:#000000; fill-opacity:1.0;  stroke:#000000; stroke-width:1.000000; stroke-opacity:1;  stroke-linecap:round; stroke-linejoin:round;fill-rule:evenodd;" d="M 53800001.000000,52824999.000000 53800001.000000,52175001.000000 55799999.000000,52175001.000000 55799999.000000,52824999.000000 Z"/> 
<svg:path style="fill:#000000; fill-opacity:1.0;  stroke:#000000; stroke-width:1.000000; stroke-opacity:1;  stroke-linecap:round; stroke-linejoin:round;fill-rule:evenodd;" d="M 53800001.000000,51824999.000000 53800001.000000,51175001.000000 55799999.000000,51175001.000000 55799999.000000,51824999.000000 Z"/> 
<svg:path style="fill:#000000; fill-opacity:1.0;  stroke:#000000; stroke-width:1.000000; stroke-opacity:1;  stroke-linecap:round; stroke-linejoin:round;fill-rule:evenodd;" d="M 53800001.000000,50824999.000000 53800001.000000,50175001.000000 55799999.000000,50175001.000000 55799999.000000,50824999.000000 Z"/> 
<svg:path style="fill:#000000; fill-opacity:1.0;  stroke:#000000; stroke-width:1.000000; stroke-opacity:1;  stroke-linecap:round; stroke-linejoin:round;fill-rule:evenodd;" d="M 53800001.000000,49824999.000000 53800001.000000,49175001.000000 55799999.000000,49175001.000000 55799999.000000,49824999.000000 Z"/> 
<svg:path style="fill:#000000; fill-opacity:1.0;  stroke:#000000; stroke-width:1.000000; stroke-opacity:1;  stroke-linecap:round; stroke-linejoin:round;fill-rule:evenodd;" d="M 53800001.000000,48824999.000000 53800001.000000,48175001.000000 55799999.000000,48175001.000000 55799999.000000,48824999.000000 Z"/> 
<svg:path style="fill:#000000; fill-opacity:1.0;  stroke:#000000; stroke-width:1.000000; stroke-opacity:1;  stroke-linecap:round; stroke-linejoin:round;fill-rule:evenodd;" d="M 53800001.000000,47824999.000000 53800001.000000,47175001.000000 55799999.000000,47175001.000000 55799999.000000,47824999.000000 Z"/> 
</svg:g>
<svg:g>
</svg:g>
<svg:g>
</svg:g>
<svg:g>
</svg:g>
</svg:g>
<svg:g style="fill:#000000; fill-opacity:1.0;  stroke:#000000; stroke-width:1.000000; stroke-opacity:1;  stroke-linecap:round; stroke-linejoin:round;">
<svg:g>
</svg:g>
<svg:g>
</svg:g>
<svg:g>
</svg:g>
<svg:g>
</svg:g>
</svg:g> 
</svg:g><svg:g><svg:title>SVG Picture created as kicadBoard-F_Silkscreen.svg date 2022/12/01 20:18:27 </svg:title>
  <svg:desc>Picture generated by PCBNEW </svg:desc>
<svg:g style="fill:#000000; fill-opacity:1.000000;stroke:#000000; stroke-opacity:1.000000; stroke-linecap:round; stroke-linejoin:round;" transform="translate(0 0) scale(1 1)">
</svg:g>
<svg:g style="fill:#000000; fill-opacity:0.0;  stroke:#000000; stroke-width:0.000000; stroke-opacity:1;  stroke-linecap:round; stroke-linejoin:round;">
</svg:g>
<svg:g style="fill:#F2EDA1; fill-opacity:0.0;  stroke:#F2EDA1; stroke-width:0.000000; stroke-opacity:1;  stroke-linecap:round; stroke-linejoin:round;">
</svg:g>
<svg:g style="fill:#F2EDA1; fill-opacity:0.0;  stroke:#F2EDA1; stroke-width:150000.000000; stroke-opacity:1;  stroke-linecap:round; stroke-linejoin:round;">
<svg:text x="50000000.000000" y="45100000.000000" textLength="19571430.000000" font-size="1333333.000000" lengthAdjust="spacingAndGlyphs" text-anchor="middle" opacity="0">FZKSOINFINEONPGDSO129</svg:text>
<svg:g class="stroked-text"><svg:desc>FZKSOINFINEONPGDSO129</svg:desc>
<svg:path d="M40785714 44528571 L40452380 44528571 "/>
<svg:path d="M40452380 45052380 L40452380 44052380 L40928571 44052380 "/>
<svg:path d="M41214285 44052380 L41880952 44052380 L41214285 45052380 L41880952 45052380 "/>
<svg:path d="M42261904 45052380 L42261904 44052380 "/>
<svg:path d="M42833333 45052380 L42404761 44480952 "/>
<svg:path d="M42833333 44052380 L42261904 44623809 "/>
<svg:path d="M43214285 45004761 L43357142 45052380 L43595238 45052380 L43690476 45004761 L43738095 44957142 L43785714 44861904 L43785714 44766666 L43738095 44671428 L43690476 44623809 L43595238 44576190 L43404761 44528571 L43309523 44480952 L43261904 44433333 L43214285 44338095 L43214285 44242857 L43261904 44147619 L43309523 44100000 L43404761 44052380 L43642857 44052380 L43785714 44100000 "/>
<svg:path d="M44404761 44052380 L44595238 44052380 L44690476 44100000 L44785714 44195238 L44833333 44385714 L44833333 44719047 L44785714 44909523 L44690476 45004761 L44595238 45052380 L44404761 45052380 L44309523 45004761 L44214285 44909523 L44166666 44719047 L44166666 44385714 L44214285 44195238 L44309523 44100000 L44404761 44052380 "/>
<svg:path d="M45261904 45052380 L45261904 44052380 "/>
<svg:path d="M45738095 45052380 L45738095 44052380 L46309523 45052380 L46309523 44052380 "/>
<svg:path d="M47119047 44528571 L46785714 44528571 "/>
<svg:path d="M46785714 45052380 L46785714 44052380 L47261904 44052380 "/>
<svg:path d="M47642857 45052380 L47642857 44052380 "/>
<svg:path d="M48119047 45052380 L48119047 44052380 L48690476 45052380 L48690476 44052380 "/>
<svg:path d="M49166666 44528571 L49500000 44528571 "/>
<svg:path d="M49642857 45052380 L49166666 45052380 L49166666 44052380 L49642857 44052380 "/>
<svg:path d="M50261904 44052380 L50452380 44052380 L50547619 44100000 L50642857 44195238 L50690476 44385714 L50690476 44719047 L50642857 44909523 L50547619 45004761 L50452380 45052380 L50261904 45052380 L50166666 45004761 L50071428 44909523 L50023809 44719047 L50023809 44385714 L50071428 44195238 L50166666 44100000 L50261904 44052380 "/>
<svg:path d="M51119047 45052380 L51119047 44052380 L51690476 45052380 L51690476 44052380 "/>
<svg:path d="M52166666 45052380 L52166666 44052380 L52547619 44052380 L52642857 44100000 L52690476 44147619 L52738095 44242857 L52738095 44385714 L52690476 44480952 L52642857 44528571 L52547619 44576190 L52166666 44576190 "/>
<svg:path d="M53690476 44100000 L53595238 44052380 L53452380 44052380 L53309523 44100000 L53214285 44195238 L53166666 44290476 L53119047 44480952 L53119047 44623809 L53166666 44814285 L53214285 44909523 L53309523 45004761 L53452380 45052380 L53547619 45052380 L53690476 45004761 L53738095 44957142 L53738095 44623809 L53547619 44623809 "/>
<svg:path d="M54166666 45052380 L54166666 44052380 L54404761 44052380 L54547619 44100000 L54642857 44195238 L54690476 44290476 L54738095 44480952 L54738095 44623809 L54690476 44814285 L54642857 44909523 L54547619 45004761 L54404761 45052380 L54166666 45052380 "/>
<svg:path d="M55119047 45004761 L55261904 45052380 L55500000 45052380 L55595238 45004761 L55642857 44957142 L55690476 44861904 L55690476 44766666 L55642857 44671428 L55595238 44623809 L55500000 44576190 L55309523 44528571 L55214285 44480952 L55166666 44433333 L55119047 44338095 L55119047 44242857 L55166666 44147619 L55214285 44100000 L55309523 44052380 L55547619 44052380 L55690476 44100000 "/>
<svg:path d="M56309523 44052380 L56500000 44052380 L56595238 44100000 L56690476 44195238 L56738095 44385714 L56738095 44719047 L56690476 44909523 L56595238 45004761 L56500000 45052380 L56309523 45052380 L56214285 45004761 L56119047 44909523 L56071428 44719047 L56071428 44385714 L56119047 44195238 L56214285 44100000 L56309523 44052380 "/>
<svg:path d="M57690476 45052380 L57119047 45052380 "/>
<svg:path d="M57404761 45052380 L57404761 44052380 L57309523 44195238 L57214285 44290476 L57119047 44338095 "/>
<svg:path d="M58071428 44147619 L58119047 44100000 L58214285 44052380 L58452380 44052380 L58547619 44100000 L58595238 44147619 L58642857 44242857 L58642857 44338095 L58595238 44480952 L58023809 45052380 L58642857 45052380 "/>
<svg:path d="M59119047 45052380 L59309523 45052380 L59404761 45004761 L59452380 44957142 L59547619 44814285 L59595238 44623809 L59595238 44242857 L59547619 44147619 L59500000 44100000 L59404761 44052380 L59214285 44052380 L59119047 44100000 L59071428 44147619 L59023809 44242857 L59023809 44480952 L59071428 44576190 L59119047 44623809 L59214285 44671428 L59404761 44671428 L59500000 44623809 L59547619 44576190 L59595238 44480952 "/>
</svg:g><svg:path d="M53900000 53350000 L52350000 53350000 "/>
<svg:path d="M53900000 46650000 L52350000 46650000 "/>
<svg:path d="M53900000 53000000 L53900000 53350000 "/>
<svg:path d="M46100000 53000000 L46100000 53350000 "/>
<svg:path d="M53900000 47000000 L53900000 46650000 "/>
<svg:path d="M46100000 53350000 L47650000 53350000 "/>
<svg:path d="M44200000 46650000 L47600000 46650000 "/>
<svg:g>
</svg:g>
<svg:g>
</svg:g>
<svg:g>
</svg:g>
<svg:g>
</svg:g>
</svg:g>
<svg:g style="fill:#000000; fill-opacity:0.0;  stroke:#000000; stroke-width:150000.000000; stroke-opacity:1;  stroke-linecap:round; stroke-linejoin:round;">
<svg:g>
</svg:g>
<svg:g>
</svg:g>
<svg:g>
</svg:g>
<svg:g>
</svg:g>
</svg:g> 
</svg:g><svg:g><svg:title>SVG Picture created as kicadBoard-Margin.svg date 2022/12/01 20:18:27 </svg:title>
  <svg:desc>Picture generated by PCBNEW </svg:desc>
<svg:g style="fill:#000000; fill-opacity:1.000000;stroke:#000000; stroke-opacity:1.000000; stroke-linecap:round; stroke-linejoin:round;" transform="translate(0 0) scale(1 1)">
</svg:g>
<svg:g style="fill:#000000; fill-opacity:0.0;  stroke:#000000; stroke-width:0.000000; stroke-opacity:1;  stroke-linecap:round; stroke-linejoin:round;">
<svg:g>
</svg:g>
<svg:g>
</svg:g>
<svg:g>
</svg:g>
<svg:g>
</svg:g>
</svg:g>
<svg:g style="fill:#000000; fill-opacity:0.0;  stroke:#000000; stroke-width:0.000000; stroke-opacity:1;  stroke-linecap:round; stroke-linejoin:round;">
<svg:g>
</svg:g>
<svg:g>
</svg:g>
<svg:g>
</svg:g>
<svg:g>
</svg:g>
</svg:g> 
</svg:g><svg:g><svg:title>SVG Picture created as kicadBoard-F_Cu.svg date 2022/12/01 20:18:27 </svg:title>
  <svg:desc>Picture generated by PCBNEW </svg:desc>
<svg:g style="fill:#000000; fill-opacity:1.000000;stroke:#000000; stroke-opacity:1.000000; stroke-linecap:round; stroke-linejoin:round;" transform="translate(0 0) scale(1 1)">
</svg:g>
<svg:g style="fill:#000000; fill-opacity:0.0;  stroke:#000000; stroke-width:0.000000; stroke-opacity:1;  stroke-linecap:round; stroke-linejoin:round;">
<svg:g>
</svg:g>
<svg:g style="fill:#C83434; fill-opacity:0.0;  stroke:#C83434; stroke-width:0.000000; stroke-opacity:1;  stroke-linecap:round; stroke-linejoin:round;">
</svg:g>
<svg:g style="fill:#C83434; fill-opacity:0.0;  stroke:#C83434; stroke-width:1.000000; stroke-opacity:1;  stroke-linecap:round; stroke-linejoin:round;">
</svg:g>
<svg:g style="fill:#C83434; fill-opacity:1.0;  stroke:#C83434; stroke-width:1.000000; stroke-opacity:1;  stroke-linecap:round; stroke-linejoin:round;">
<svg:path style="fill:#C83434; fill-opacity:1.0;  stroke:#C83434; stroke-width:1.000000; stroke-opacity:1;  stroke-linecap:round; stroke-linejoin:round;fill-rule:evenodd;" d="M 44200001.000000,47824999.000000 44200001.000000,47175001.000000 46199999.000000,47175001.000000 46199999.000000,47824999.000000 Z"/> 
<svg:path style="fill:#C83434; fill-opacity:1.0;  stroke:#C83434; stroke-width:1.000000; stroke-opacity:1;  stroke-linecap:round; stroke-linejoin:round;fill-rule:evenodd;" d="M 44200001.000000,48824999.000000 44200001.000000,48175001.000000 46199999.000000,48175001.000000 46199999.000000,48824999.000000 Z"/> 
<svg:path style="fill:#C83434; fill-opacity:1.0;  stroke:#C83434; stroke-width:1.000000; stroke-opacity:1;  stroke-linecap:round; stroke-linejoin:round;fill-rule:evenodd;" d="M 44200001.000000,49824999.000000 44200001.000000,49175001.000000 46199999.000000,49175001.000000 46199999.000000,49824999.000000 Z"/> 
<svg:path style="fill:#C83434; fill-opacity:1.0;  stroke:#C83434; stroke-width:1.000000; stroke-opacity:1;  stroke-linecap:round; stroke-linejoin:round;fill-rule:evenodd;" d="M 44200001.000000,50824999.000000 44200001.000000,50175001.000000 46199999.000000,50175001.000000 46199999.000000,50824999.000000 Z"/> 
<svg:path style="fill:#C83434; fill-opacity:1.0;  stroke:#C83434; stroke-width:1.000000; stroke-opacity:1;  stroke-linecap:round; stroke-linejoin:round;fill-rule:evenodd;" d="M 44200001.000000,51824999.000000 44200001.000000,51175001.000000 46199999.000000,51175001.000000 46199999.000000,51824999.000000 Z"/> 
<svg:path style="fill:#C83434; fill-opacity:1.0;  stroke:#C83434; stroke-width:1.000000; stroke-opacity:1;  stroke-linecap:round; stroke-linejoin:round;fill-rule:evenodd;" d="M 44200001.000000,52824999.000000 44200001.000000,52175001.000000 46199999.000000,52175001.000000 46199999.000000,52824999.000000 Z"/> 
<svg:path style="fill:#C83434; fill-opacity:1.0;  stroke:#C83434; stroke-width:1.000000; stroke-opacity:1;  stroke-linecap:round; stroke-linejoin:round;fill-rule:evenodd;" d="M 53800001.000000,52824999.000000 53800001.000000,52175001.000000 55799999.000000,52175001.000000 55799999.000000,52824999.000000 Z"/> 
<svg:path style="fill:#C83434; fill-opacity:1.0;  stroke:#C83434; stroke-width:1.000000; stroke-opacity:1;  stroke-linecap:round; stroke-linejoin:round;fill-rule:evenodd;" d="M 53800001.000000,51824999.000000 53800001.000000,51175001.000000 55799999.000000,51175001.000000 55799999.000000,51824999.000000 Z"/> 
<svg:path style="fill:#C83434; fill-opacity:1.0;  stroke:#C83434; stroke-width:1.000000; stroke-opacity:1;  stroke-linecap:round; stroke-linejoin:round;fill-rule:evenodd;" d="M 53800001.000000,50824999.000000 53800001.000000,50175001.000000 55799999.000000,50175001.000000 55799999.000000,50824999.000000 Z"/> 
<svg:path style="fill:#C83434; fill-opacity:1.0;  stroke:#C83434; stroke-width:1.000000; stroke-opacity:1;  stroke-linecap:round; stroke-linejoin:round;fill-rule:evenodd;" d="M 53800001.000000,49824999.000000 53800001.000000,49175001.000000 55799999.000000,49175001.000000 55799999.000000,49824999.000000 Z"/> 
<svg:path style="fill:#C83434; fill-opacity:1.0;  stroke:#C83434; stroke-width:1.000000; stroke-opacity:1;  stroke-linecap:round; stroke-linejoin:round;fill-rule:evenodd;" d="M 53800001.000000,48824999.000000 53800001.000000,48175001.000000 55799999.000000,48175001.000000 55799999.000000,48824999.000000 Z"/> 
<svg:path style="fill:#C83434; fill-opacity:1.0;  stroke:#C83434; stroke-width:1.000000; stroke-opacity:1;  stroke-linecap:round; stroke-linejoin:round;fill-rule:evenodd;" d="M 53800001.000000,47824999.000000 53800001.000000,47175001.000000 55799999.000000,47175001.000000 55799999.000000,47824999.000000 Z"/> 
<svg:path style="fill:#C83434; fill-opacity:1.0;  stroke:#C83434; stroke-width:1.000000; stroke-opacity:1;  stroke-linecap:round; stroke-linejoin:round;fill-rule:evenodd;" d="M 47750001.000000,54049999.000000 47750001.000000,45950001.000000 52249999.000000,45950001.000000 52249999.000000,54049999.000000 Z"/> 
</svg:g>
<svg:g>
</svg:g>
<svg:g>
</svg:g>
<svg:g>
</svg:g>
</svg:g>
<svg:g style="fill:#FFFFFF; fill-opacity:1.0;  stroke:#FFFFFF; stroke-width:1.000000; stroke-opacity:1;  stroke-linecap:round; stroke-linejoin:round;">
</svg:g>
<svg:g style="fill:#000000; fill-opacity:1.0;  stroke:#000000; stroke-width:1.000000; stroke-opacity:1;  stroke-linecap:round; stroke-linejoin:round;">
<svg:g>
</svg:g>
<svg:g>
</svg:g>
<svg:g>
</svg:g>
<svg:g>
</svg:g>
</svg:g> 
</svg:g></svg>
