<?xml version='1.0' encoding='ASCII' standalone='yes'?>
<svg xmlns:svg="http://www.w3.org/2000/svg" xmlns="http://www.w3.org/2000/svg" xmlns:xlink="http://www.w3.org/1999/xlink" version="1.1" width="9.999980cm" height="9.999980cm" viewBox="0 0 99999800 99999800">
<title>SVG Picture created as kicadBoard-B_Cu.svg date 2022/11/17 23:13:01 </title>
  <desc>Picture generated by PCBNEW </desc>
<g style="fill:#000000; fill-opacity:1.000000;stroke:#000000; stroke-opacity:1.000000; stroke-linecap:round; stroke-linejoin:round;" transform="translate(0 0) scale(1 1)">
</g>
<g style="fill:#000000; fill-opacity:0.0;  stroke:#000000; stroke-width:0.000000; stroke-opacity:1;  stroke-linecap:round; stroke-linejoin:round;">
<g>
</g>
<g style="fill:#4D7FC4; fill-opacity:0.0;  stroke:#4D7FC4; stroke-width:0.000000; stroke-opacity:1;  stroke-linecap:round; stroke-linejoin:round;">
</g>
<g style="fill:#4D7FC4; fill-opacity:0.0;  stroke:#4D7FC4; stroke-width:1.000000; stroke-opacity:1;  stroke-linecap:round; stroke-linejoin:round;">
</g>
<g style="fill:#4D7FC4; fill-opacity:1.0;  stroke:#4D7FC4; stroke-width:1.000000; stroke-opacity:1;  stroke-linecap:round; stroke-linejoin:round;">
<path style="fill:#4D7FC4; fill-opacity:1.0;  stroke:#4D7FC4; stroke-width:1.000000; stroke-opacity:1;  stroke-linecap:round; stroke-linejoin:round;fill-rule:evenodd;" d="M 49150000.000000,50850000.000000 49150000.000000,49150000.000000 50850000.000000,49150000.000000 50850000.000000,50850000.000000 Z"/> 
<circle cx="52540000.000000" cy="50000000.000000" r="850000.000000"/> 
<circle cx="50000000.000000" cy="52540000.000000" r="850000.000000"/> 
<circle cx="52540000.000000" cy="52540000.000000" r="850000.000000"/> 
<circle cx="50000000.000000" cy="55080000.000000" r="850000.000000"/> 
<circle cx="52540000.000000" cy="55080000.000000" r="850000.000000"/> 
<circle cx="50000000.000000" cy="57620000.000000" r="850000.000000"/> 
<circle cx="52540000.000000" cy="57620000.000000" r="850000.000000"/> 
<circle cx="50000000.000000" cy="60160000.000000" r="850000.000000"/> 
<circle cx="52540000.000000" cy="60160000.000000" r="850000.000000"/> 
<circle cx="50000000.000000" cy="62700000.000000" r="850000.000000"/> 
<circle cx="52540000.000000" cy="62700000.000000" r="850000.000000"/> 
<circle cx="50000000.000000" cy="65240000.000000" r="850000.000000"/> 
<circle cx="52540000.000000" cy="65240000.000000" r="850000.000000"/> 
<circle cx="50000000.000000" cy="67780000.000000" r="850000.000000"/> 
<circle cx="52540000.000000" cy="67780000.000000" r="850000.000000"/> 
<circle cx="50000000.000000" cy="70320000.000000" r="850000.000000"/> 
<circle cx="52540000.000000" cy="70320000.000000" r="850000.000000"/> 
<circle cx="50000000.000000" cy="72860000.000000" r="850000.000000"/> 
<circle cx="52540000.000000" cy="72860000.000000" r="850000.000000"/> 
<circle cx="50000000.000000" cy="75400000.000000" r="850000.000000"/> 
<circle cx="52540000.000000" cy="75400000.000000" r="850000.000000"/> 
<circle cx="50000000.000000" cy="77940000.000000" r="850000.000000"/> 
<circle cx="52540000.000000" cy="77940000.000000" r="850000.000000"/> 
<circle cx="50000000.000000" cy="80480000.000000" r="850000.000000"/> 
<circle cx="52540000.000000" cy="80480000.000000" r="850000.000000"/> 
<circle cx="50000000.000000" cy="83020000.000000" r="850000.000000"/> 
<circle cx="52540000.000000" cy="83020000.000000" r="850000.000000"/> 
<circle cx="50000000.000000" cy="85560000.000000" r="850000.000000"/> 
<circle cx="52540000.000000" cy="85560000.000000" r="850000.000000"/> 
<circle cx="50000000.000000" cy="88100000.000000" r="850000.000000"/> 
<circle cx="52540000.000000" cy="88100000.000000" r="850000.000000"/> 
<circle cx="50000000.000000" cy="90640000.000000" r="850000.000000"/> 
<circle cx="52540000.000000" cy="90640000.000000" r="850000.000000"/> 
<circle cx="50000000.000000" cy="93180000.000000" r="850000.000000"/> 
<circle cx="52540000.000000" cy="93180000.000000" r="850000.000000"/> 
</g>
<g>
</g>
<g>
</g>
<g>
</g>
</g>
<g style="fill:#FFFFFF; fill-opacity:1.0;  stroke:#FFFFFF; stroke-width:1.000000; stroke-opacity:1;  stroke-linecap:round; stroke-linejoin:round;">
<circle cx="50000000.000000" cy="50000000.000000" r="500000.000000"/> 
</g>
<g style="fill:#FFFFFF; fill-opacity:1.0;  stroke:#FFFFFF; stroke-width:21200.000000; stroke-opacity:1;  stroke-linecap:round; stroke-linejoin:round;">
</g>
<g style="fill:#FFFFFF; fill-opacity:1.0;  stroke:#FFFFFF; stroke-width:1.000000; stroke-opacity:1;  stroke-linecap:round; stroke-linejoin:round;">
<circle cx="52540000.000000" cy="50000000.000000" r="500000.000000"/> 
</g>
<g style="fill:#FFFFFF; fill-opacity:1.0;  stroke:#FFFFFF; stroke-width:21200.000000; stroke-opacity:1;  stroke-linecap:round; stroke-linejoin:round;">
</g>
<g style="fill:#FFFFFF; fill-opacity:1.0;  stroke:#FFFFFF; stroke-width:1.000000; stroke-opacity:1;  stroke-linecap:round; stroke-linejoin:round;">
<circle cx="50000000.000000" cy="52540000.000000" r="500000.000000"/> 
</g>
<g style="fill:#FFFFFF; fill-opacity:1.0;  stroke:#FFFFFF; stroke-width:21200.000000; stroke-opacity:1;  stroke-linecap:round; stroke-linejoin:round;">
</g>
<g style="fill:#FFFFFF; fill-opacity:1.0;  stroke:#FFFFFF; stroke-width:1.000000; stroke-opacity:1;  stroke-linecap:round; stroke-linejoin:round;">
<circle cx="52540000.000000" cy="52540000.000000" r="500000.000000"/> 
</g>
<g style="fill:#FFFFFF; fill-opacity:1.0;  stroke:#FFFFFF; stroke-width:21200.000000; stroke-opacity:1;  stroke-linecap:round; stroke-linejoin:round;">
</g>
<g style="fill:#FFFFFF; fill-opacity:1.0;  stroke:#FFFFFF; stroke-width:1.000000; stroke-opacity:1;  stroke-linecap:round; stroke-linejoin:round;">
<circle cx="50000000.000000" cy="55080000.000000" r="500000.000000"/> 
</g>
<g style="fill:#FFFFFF; fill-opacity:1.0;  stroke:#FFFFFF; stroke-width:21200.000000; stroke-opacity:1;  stroke-linecap:round; stroke-linejoin:round;">
</g>
<g style="fill:#FFFFFF; fill-opacity:1.0;  stroke:#FFFFFF; stroke-width:1.000000; stroke-opacity:1;  stroke-linecap:round; stroke-linejoin:round;">
<circle cx="52540000.000000" cy="55080000.000000" r="500000.000000"/> 
</g>
<g style="fill:#FFFFFF; fill-opacity:1.0;  stroke:#FFFFFF; stroke-width:21200.000000; stroke-opacity:1;  stroke-linecap:round; stroke-linejoin:round;">
</g>
<g style="fill:#FFFFFF; fill-opacity:1.0;  stroke:#FFFFFF; stroke-width:1.000000; stroke-opacity:1;  stroke-linecap:round; stroke-linejoin:round;">
<circle cx="50000000.000000" cy="57620000.000000" r="500000.000000"/> 
</g>
<g style="fill:#FFFFFF; fill-opacity:1.0;  stroke:#FFFFFF; stroke-width:21200.000000; stroke-opacity:1;  stroke-linecap:round; stroke-linejoin:round;">
</g>
<g style="fill:#FFFFFF; fill-opacity:1.0;  stroke:#FFFFFF; stroke-width:1.000000; stroke-opacity:1;  stroke-linecap:round; stroke-linejoin:round;">
<circle cx="52540000.000000" cy="57620000.000000" r="500000.000000"/> 
</g>
<g style="fill:#FFFFFF; fill-opacity:1.0;  stroke:#FFFFFF; stroke-width:21200.000000; stroke-opacity:1;  stroke-linecap:round; stroke-linejoin:round;">
</g>
<g style="fill:#FFFFFF; fill-opacity:1.0;  stroke:#FFFFFF; stroke-width:1.000000; stroke-opacity:1;  stroke-linecap:round; stroke-linejoin:round;">
<circle cx="50000000.000000" cy="60160000.000000" r="500000.000000"/> 
</g>
<g style="fill:#FFFFFF; fill-opacity:1.0;  stroke:#FFFFFF; stroke-width:21200.000000; stroke-opacity:1;  stroke-linecap:round; stroke-linejoin:round;">
</g>
<g style="fill:#FFFFFF; fill-opacity:1.0;  stroke:#FFFFFF; stroke-width:1.000000; stroke-opacity:1;  stroke-linecap:round; stroke-linejoin:round;">
<circle cx="52540000.000000" cy="60160000.000000" r="500000.000000"/> 
</g>
<g style="fill:#FFFFFF; fill-opacity:1.0;  stroke:#FFFFFF; stroke-width:21200.000000; stroke-opacity:1;  stroke-linecap:round; stroke-linejoin:round;">
</g>
<g style="fill:#FFFFFF; fill-opacity:1.0;  stroke:#FFFFFF; stroke-width:1.000000; stroke-opacity:1;  stroke-linecap:round; stroke-linejoin:round;">
<circle cx="50000000.000000" cy="62700000.000000" r="500000.000000"/> 
</g>
<g style="fill:#FFFFFF; fill-opacity:1.0;  stroke:#FFFFFF; stroke-width:21200.000000; stroke-opacity:1;  stroke-linecap:round; stroke-linejoin:round;">
</g>
<g style="fill:#FFFFFF; fill-opacity:1.0;  stroke:#FFFFFF; stroke-width:1.000000; stroke-opacity:1;  stroke-linecap:round; stroke-linejoin:round;">
<circle cx="52540000.000000" cy="62700000.000000" r="500000.000000"/> 
</g>
<g style="fill:#FFFFFF; fill-opacity:1.0;  stroke:#FFFFFF; stroke-width:21200.000000; stroke-opacity:1;  stroke-linecap:round; stroke-linejoin:round;">
</g>
<g style="fill:#FFFFFF; fill-opacity:1.0;  stroke:#FFFFFF; stroke-width:1.000000; stroke-opacity:1;  stroke-linecap:round; stroke-linejoin:round;">
<circle cx="50000000.000000" cy="65240000.000000" r="500000.000000"/> 
</g>
<g style="fill:#FFFFFF; fill-opacity:1.0;  stroke:#FFFFFF; stroke-width:21200.000000; stroke-opacity:1;  stroke-linecap:round; stroke-linejoin:round;">
</g>
<g style="fill:#FFFFFF; fill-opacity:1.0;  stroke:#FFFFFF; stroke-width:1.000000; stroke-opacity:1;  stroke-linecap:round; stroke-linejoin:round;">
<circle cx="52540000.000000" cy="65240000.000000" r="500000.000000"/> 
</g>
<g style="fill:#FFFFFF; fill-opacity:1.0;  stroke:#FFFFFF; stroke-width:21200.000000; stroke-opacity:1;  stroke-linecap:round; stroke-linejoin:round;">
</g>
<g style="fill:#FFFFFF; fill-opacity:1.0;  stroke:#FFFFFF; stroke-width:1.000000; stroke-opacity:1;  stroke-linecap:round; stroke-linejoin:round;">
<circle cx="50000000.000000" cy="67780000.000000" r="500000.000000"/> 
</g>
<g style="fill:#FFFFFF; fill-opacity:1.0;  stroke:#FFFFFF; stroke-width:21200.000000; stroke-opacity:1;  stroke-linecap:round; stroke-linejoin:round;">
</g>
<g style="fill:#FFFFFF; fill-opacity:1.0;  stroke:#FFFFFF; stroke-width:1.000000; stroke-opacity:1;  stroke-linecap:round; stroke-linejoin:round;">
<circle cx="52540000.000000" cy="67780000.000000" r="500000.000000"/> 
</g>
<g style="fill:#FFFFFF; fill-opacity:1.0;  stroke:#FFFFFF; stroke-width:21200.000000; stroke-opacity:1;  stroke-linecap:round; stroke-linejoin:round;">
</g>
<g style="fill:#FFFFFF; fill-opacity:1.0;  stroke:#FFFFFF; stroke-width:1.000000; stroke-opacity:1;  stroke-linecap:round; stroke-linejoin:round;">
<circle cx="50000000.000000" cy="70320000.000000" r="500000.000000"/> 
</g>
<g style="fill:#FFFFFF; fill-opacity:1.0;  stroke:#FFFFFF; stroke-width:21200.000000; stroke-opacity:1;  stroke-linecap:round; stroke-linejoin:round;">
</g>
<g style="fill:#FFFFFF; fill-opacity:1.0;  stroke:#FFFFFF; stroke-width:1.000000; stroke-opacity:1;  stroke-linecap:round; stroke-linejoin:round;">
<circle cx="52540000.000000" cy="70320000.000000" r="500000.000000"/> 
</g>
<g style="fill:#FFFFFF; fill-opacity:1.0;  stroke:#FFFFFF; stroke-width:21200.000000; stroke-opacity:1;  stroke-linecap:round; stroke-linejoin:round;">
</g>
<g style="fill:#FFFFFF; fill-opacity:1.0;  stroke:#FFFFFF; stroke-width:1.000000; stroke-opacity:1;  stroke-linecap:round; stroke-linejoin:round;">
<circle cx="50000000.000000" cy="72860000.000000" r="500000.000000"/> 
</g>
<g style="fill:#FFFFFF; fill-opacity:1.0;  stroke:#FFFFFF; stroke-width:21200.000000; stroke-opacity:1;  stroke-linecap:round; stroke-linejoin:round;">
</g>
<g style="fill:#FFFFFF; fill-opacity:1.0;  stroke:#FFFFFF; stroke-width:1.000000; stroke-opacity:1;  stroke-linecap:round; stroke-linejoin:round;">
<circle cx="52540000.000000" cy="72860000.000000" r="500000.000000"/> 
</g>
<g style="fill:#FFFFFF; fill-opacity:1.0;  stroke:#FFFFFF; stroke-width:21200.000000; stroke-opacity:1;  stroke-linecap:round; stroke-linejoin:round;">
</g>
<g style="fill:#FFFFFF; fill-opacity:1.0;  stroke:#FFFFFF; stroke-width:1.000000; stroke-opacity:1;  stroke-linecap:round; stroke-linejoin:round;">
<circle cx="50000000.000000" cy="75400000.000000" r="500000.000000"/> 
</g>
<g style="fill:#FFFFFF; fill-opacity:1.0;  stroke:#FFFFFF; stroke-width:21200.000000; stroke-opacity:1;  stroke-linecap:round; stroke-linejoin:round;">
</g>
<g style="fill:#FFFFFF; fill-opacity:1.0;  stroke:#FFFFFF; stroke-width:1.000000; stroke-opacity:1;  stroke-linecap:round; stroke-linejoin:round;">
<circle cx="52540000.000000" cy="75400000.000000" r="500000.000000"/> 
</g>
<g style="fill:#FFFFFF; fill-opacity:1.0;  stroke:#FFFFFF; stroke-width:21200.000000; stroke-opacity:1;  stroke-linecap:round; stroke-linejoin:round;">
</g>
<g style="fill:#FFFFFF; fill-opacity:1.0;  stroke:#FFFFFF; stroke-width:1.000000; stroke-opacity:1;  stroke-linecap:round; stroke-linejoin:round;">
<circle cx="50000000.000000" cy="77940000.000000" r="500000.000000"/> 
</g>
<g style="fill:#FFFFFF; fill-opacity:1.0;  stroke:#FFFFFF; stroke-width:21200.000000; stroke-opacity:1;  stroke-linecap:round; stroke-linejoin:round;">
</g>
<g style="fill:#FFFFFF; fill-opacity:1.0;  stroke:#FFFFFF; stroke-width:1.000000; stroke-opacity:1;  stroke-linecap:round; stroke-linejoin:round;">
<circle cx="52540000.000000" cy="77940000.000000" r="500000.000000"/> 
</g>
<g style="fill:#FFFFFF; fill-opacity:1.0;  stroke:#FFFFFF; stroke-width:21200.000000; stroke-opacity:1;  stroke-linecap:round; stroke-linejoin:round;">
</g>
<g style="fill:#FFFFFF; fill-opacity:1.0;  stroke:#FFFFFF; stroke-width:1.000000; stroke-opacity:1;  stroke-linecap:round; stroke-linejoin:round;">
<circle cx="50000000.000000" cy="80480000.000000" r="500000.000000"/> 
</g>
<g style="fill:#FFFFFF; fill-opacity:1.0;  stroke:#FFFFFF; stroke-width:21200.000000; stroke-opacity:1;  stroke-linecap:round; stroke-linejoin:round;">
</g>
<g style="fill:#FFFFFF; fill-opacity:1.0;  stroke:#FFFFFF; stroke-width:1.000000; stroke-opacity:1;  stroke-linecap:round; stroke-linejoin:round;">
<circle cx="52540000.000000" cy="80480000.000000" r="500000.000000"/> 
</g>
<g style="fill:#FFFFFF; fill-opacity:1.0;  stroke:#FFFFFF; stroke-width:21200.000000; stroke-opacity:1;  stroke-linecap:round; stroke-linejoin:round;">
</g>
<g style="fill:#FFFFFF; fill-opacity:1.0;  stroke:#FFFFFF; stroke-width:1.000000; stroke-opacity:1;  stroke-linecap:round; stroke-linejoin:round;">
<circle cx="50000000.000000" cy="83020000.000000" r="500000.000000"/> 
</g>
<g style="fill:#FFFFFF; fill-opacity:1.0;  stroke:#FFFFFF; stroke-width:21200.000000; stroke-opacity:1;  stroke-linecap:round; stroke-linejoin:round;">
</g>
<g style="fill:#FFFFFF; fill-opacity:1.0;  stroke:#FFFFFF; stroke-width:1.000000; stroke-opacity:1;  stroke-linecap:round; stroke-linejoin:round;">
<circle cx="52540000.000000" cy="83020000.000000" r="500000.000000"/> 
</g>
<g style="fill:#FFFFFF; fill-opacity:1.0;  stroke:#FFFFFF; stroke-width:21200.000000; stroke-opacity:1;  stroke-linecap:round; stroke-linejoin:round;">
</g>
<g style="fill:#FFFFFF; fill-opacity:1.0;  stroke:#FFFFFF; stroke-width:1.000000; stroke-opacity:1;  stroke-linecap:round; stroke-linejoin:round;">
<circle cx="50000000.000000" cy="85560000.000000" r="500000.000000"/> 
</g>
<g style="fill:#FFFFFF; fill-opacity:1.0;  stroke:#FFFFFF; stroke-width:21200.000000; stroke-opacity:1;  stroke-linecap:round; stroke-linejoin:round;">
</g>
<g style="fill:#FFFFFF; fill-opacity:1.0;  stroke:#FFFFFF; stroke-width:1.000000; stroke-opacity:1;  stroke-linecap:round; stroke-linejoin:round;">
<circle cx="52540000.000000" cy="85560000.000000" r="500000.000000"/> 
</g>
<g style="fill:#FFFFFF; fill-opacity:1.0;  stroke:#FFFFFF; stroke-width:21200.000000; stroke-opacity:1;  stroke-linecap:round; stroke-linejoin:round;">
</g>
<g style="fill:#FFFFFF; fill-opacity:1.0;  stroke:#FFFFFF; stroke-width:1.000000; stroke-opacity:1;  stroke-linecap:round; stroke-linejoin:round;">
<circle cx="50000000.000000" cy="88100000.000000" r="500000.000000"/> 
</g>
<g style="fill:#FFFFFF; fill-opacity:1.0;  stroke:#FFFFFF; stroke-width:21200.000000; stroke-opacity:1;  stroke-linecap:round; stroke-linejoin:round;">
</g>
<g style="fill:#FFFFFF; fill-opacity:1.0;  stroke:#FFFFFF; stroke-width:1.000000; stroke-opacity:1;  stroke-linecap:round; stroke-linejoin:round;">
<circle cx="52540000.000000" cy="88100000.000000" r="500000.000000"/> 
</g>
<g style="fill:#FFFFFF; fill-opacity:1.0;  stroke:#FFFFFF; stroke-width:21200.000000; stroke-opacity:1;  stroke-linecap:round; stroke-linejoin:round;">
</g>
<g style="fill:#FFFFFF; fill-opacity:1.0;  stroke:#FFFFFF; stroke-width:1.000000; stroke-opacity:1;  stroke-linecap:round; stroke-linejoin:round;">
<circle cx="50000000.000000" cy="90640000.000000" r="500000.000000"/> 
</g>
<g style="fill:#FFFFFF; fill-opacity:1.0;  stroke:#FFFFFF; stroke-width:21200.000000; stroke-opacity:1;  stroke-linecap:round; stroke-linejoin:round;">
</g>
<g style="fill:#FFFFFF; fill-opacity:1.0;  stroke:#FFFFFF; stroke-width:1.000000; stroke-opacity:1;  stroke-linecap:round; stroke-linejoin:round;">
<circle cx="52540000.000000" cy="90640000.000000" r="500000.000000"/> 
</g>
<g style="fill:#FFFFFF; fill-opacity:1.0;  stroke:#FFFFFF; stroke-width:21200.000000; stroke-opacity:1;  stroke-linecap:round; stroke-linejoin:round;">
</g>
<g style="fill:#FFFFFF; fill-opacity:1.0;  stroke:#FFFFFF; stroke-width:1.000000; stroke-opacity:1;  stroke-linecap:round; stroke-linejoin:round;">
<circle cx="50000000.000000" cy="93180000.000000" r="500000.000000"/> 
</g>
<g style="fill:#FFFFFF; fill-opacity:1.0;  stroke:#FFFFFF; stroke-width:21200.000000; stroke-opacity:1;  stroke-linecap:round; stroke-linejoin:round;">
</g>
<g style="fill:#FFFFFF; fill-opacity:1.0;  stroke:#FFFFFF; stroke-width:1.000000; stroke-opacity:1;  stroke-linecap:round; stroke-linejoin:round;">
<circle cx="52540000.000000" cy="93180000.000000" r="500000.000000"/> 
</g>
<g style="fill:#FFFFFF; fill-opacity:1.0;  stroke:#FFFFFF; stroke-width:21200.000000; stroke-opacity:1;  stroke-linecap:round; stroke-linejoin:round;">
</g>
<g style="fill:#000000; fill-opacity:1.0;  stroke:#000000; stroke-width:21200.000000; stroke-opacity:1;  stroke-linecap:round; stroke-linejoin:round;">
<g>
</g>
<g>
</g>
<g>
</g>
<g>
</g>
</g> 
<svg:g><svg:title>SVG Picture created as kicadBoard-B_Adhesive.svg date 2022/11/17 23:13:01 </svg:title>
  <svg:desc>Picture generated by PCBNEW </svg:desc>
<svg:g style="fill:#000000; fill-opacity:1.000000;stroke:#000000; stroke-opacity:1.000000; stroke-linecap:round; stroke-linejoin:round;" transform="translate(0 0) scale(1 1)">
</svg:g>
<svg:g style="fill:#000000; fill-opacity:0.0;  stroke:#000000; stroke-width:0.000000; stroke-opacity:1;  stroke-linecap:round; stroke-linejoin:round;">
<svg:g>
</svg:g>
<svg:g>
</svg:g>
<svg:g>
</svg:g>
<svg:g>
</svg:g>
</svg:g>
<svg:g style="fill:#000000; fill-opacity:0.0;  stroke:#000000; stroke-width:0.000000; stroke-opacity:1;  stroke-linecap:round; stroke-linejoin:round;">
<svg:g>
</svg:g>
<svg:g>
</svg:g>
<svg:g>
</svg:g>
<svg:g>
</svg:g>
</svg:g> 
</svg:g><svg:g><svg:title>SVG Picture created as kicadBoard-B_Courtyard.svg date 2022/11/17 23:13:01 </svg:title>
  <svg:desc>Picture generated by PCBNEW </svg:desc>
<svg:g style="fill:#000000; fill-opacity:1.000000;stroke:#000000; stroke-opacity:1.000000; stroke-linecap:round; stroke-linejoin:round;" transform="translate(0 0) scale(1 1)">
</svg:g>
<svg:g style="fill:#000000; fill-opacity:0.0;  stroke:#000000; stroke-width:0.000000; stroke-opacity:1;  stroke-linecap:round; stroke-linejoin:round;">
<svg:g>
</svg:g>
<svg:g>
</svg:g>
<svg:g>
</svg:g>
<svg:g>
</svg:g>
</svg:g>
<svg:g style="fill:#000000; fill-opacity:0.0;  stroke:#000000; stroke-width:0.000000; stroke-opacity:1;  stroke-linecap:round; stroke-linejoin:round;">
<svg:g>
</svg:g>
<svg:g>
</svg:g>
<svg:g>
</svg:g>
<svg:g>
</svg:g>
</svg:g> 
</svg:g><svg:g><svg:title>SVG Picture created as kicadBoard-B_Fab.svg date 2022/11/17 23:13:01 </svg:title>
  <svg:desc>Picture generated by PCBNEW </svg:desc>
<svg:g style="fill:#000000; fill-opacity:1.000000;stroke:#000000; stroke-opacity:1.000000; stroke-linecap:round; stroke-linejoin:round;" transform="translate(0 0) scale(1 1)">
</svg:g>
<svg:g style="fill:#000000; fill-opacity:0.0;  stroke:#000000; stroke-width:0.000000; stroke-opacity:1;  stroke-linecap:round; stroke-linejoin:round;">
<svg:g>
</svg:g>
<svg:g>
</svg:g>
<svg:g>
</svg:g>
<svg:g>
</svg:g>
</svg:g>
<svg:g style="fill:#000000; fill-opacity:0.0;  stroke:#000000; stroke-width:0.000000; stroke-opacity:1;  stroke-linecap:round; stroke-linejoin:round;">
<svg:g>
</svg:g>
<svg:g>
</svg:g>
<svg:g>
</svg:g>
<svg:g>
</svg:g>
</svg:g> 
</svg:g><svg:g><svg:title>SVG Picture created as kicadBoard-B_Mask.svg date 2022/11/17 23:13:01 </svg:title>
  <svg:desc>Picture generated by PCBNEW </svg:desc>
<svg:g style="fill:#000000; fill-opacity:1.000000;stroke:#000000; stroke-opacity:1.000000; stroke-linecap:round; stroke-linejoin:round;" transform="translate(0 0) scale(1 1)">
</svg:g>
<svg:g style="fill:#000000; fill-opacity:0.0;  stroke:#000000; stroke-width:0.000000; stroke-opacity:1;  stroke-linecap:round; stroke-linejoin:round;">
<svg:g>
</svg:g>
<svg:g style="fill:#000000; fill-opacity:0.0;  stroke:#000000; stroke-width:1.000000; stroke-opacity:1;  stroke-linecap:round; stroke-linejoin:round;">
</svg:g>
<svg:g style="fill:#000000; fill-opacity:1.0;  stroke:#000000; stroke-width:1.000000; stroke-opacity:1;  stroke-linecap:round; stroke-linejoin:round;">
<svg:path style="fill:#000000; fill-opacity:1.0;  stroke:#000000; stroke-width:1.000000; stroke-opacity:1;  stroke-linecap:round; stroke-linejoin:round;fill-rule:evenodd;" d="M 49150000.000000,50850000.000000 49150000.000000,49150000.000000 50850000.000000,49150000.000000 50850000.000000,50850000.000000 Z"/> 
<svg:circle cx="52540000.000000" cy="50000000.000000" r="850000.000000"/> 
<svg:circle cx="50000000.000000" cy="52540000.000000" r="850000.000000"/> 
<svg:circle cx="52540000.000000" cy="52540000.000000" r="850000.000000"/> 
<svg:circle cx="50000000.000000" cy="55080000.000000" r="850000.000000"/> 
<svg:circle cx="52540000.000000" cy="55080000.000000" r="850000.000000"/> 
<svg:circle cx="50000000.000000" cy="57620000.000000" r="850000.000000"/> 
<svg:circle cx="52540000.000000" cy="57620000.000000" r="850000.000000"/> 
<svg:circle cx="50000000.000000" cy="60160000.000000" r="850000.000000"/> 
<svg:circle cx="52540000.000000" cy="60160000.000000" r="850000.000000"/> 
<svg:circle cx="50000000.000000" cy="62700000.000000" r="850000.000000"/> 
<svg:circle cx="52540000.000000" cy="62700000.000000" r="850000.000000"/> 
<svg:circle cx="50000000.000000" cy="65240000.000000" r="850000.000000"/> 
<svg:circle cx="52540000.000000" cy="65240000.000000" r="850000.000000"/> 
<svg:circle cx="50000000.000000" cy="67780000.000000" r="850000.000000"/> 
<svg:circle cx="52540000.000000" cy="67780000.000000" r="850000.000000"/> 
<svg:circle cx="50000000.000000" cy="70320000.000000" r="850000.000000"/> 
<svg:circle cx="52540000.000000" cy="70320000.000000" r="850000.000000"/> 
<svg:circle cx="50000000.000000" cy="72860000.000000" r="850000.000000"/> 
<svg:circle cx="52540000.000000" cy="72860000.000000" r="850000.000000"/> 
<svg:circle cx="50000000.000000" cy="75400000.000000" r="850000.000000"/> 
<svg:circle cx="52540000.000000" cy="75400000.000000" r="850000.000000"/> 
<svg:circle cx="50000000.000000" cy="77940000.000000" r="850000.000000"/> 
<svg:circle cx="52540000.000000" cy="77940000.000000" r="850000.000000"/> 
<svg:circle cx="50000000.000000" cy="80480000.000000" r="850000.000000"/> 
<svg:circle cx="52540000.000000" cy="80480000.000000" r="850000.000000"/> 
<svg:circle cx="50000000.000000" cy="83020000.000000" r="850000.000000"/> 
<svg:circle cx="52540000.000000" cy="83020000.000000" r="850000.000000"/> 
<svg:circle cx="50000000.000000" cy="85560000.000000" r="850000.000000"/> 
<svg:circle cx="52540000.000000" cy="85560000.000000" r="850000.000000"/> 
<svg:circle cx="50000000.000000" cy="88100000.000000" r="850000.000000"/> 
<svg:circle cx="52540000.000000" cy="88100000.000000" r="850000.000000"/> 
<svg:circle cx="50000000.000000" cy="90640000.000000" r="850000.000000"/> 
<svg:circle cx="52540000.000000" cy="90640000.000000" r="850000.000000"/> 
<svg:circle cx="50000000.000000" cy="93180000.000000" r="850000.000000"/> 
<svg:circle cx="52540000.000000" cy="93180000.000000" r="850000.000000"/> 
</svg:g>
<svg:g>
</svg:g>
<svg:g>
</svg:g>
<svg:g>
</svg:g>
</svg:g>
<svg:g style="fill:#000000; fill-opacity:1.0;  stroke:#000000; stroke-width:1.000000; stroke-opacity:1;  stroke-linecap:round; stroke-linejoin:round;">
<svg:g>
</svg:g>
<svg:g>
</svg:g>
<svg:g>
</svg:g>
<svg:g>
</svg:g>
</svg:g> 
</svg:g><svg:g><svg:title>SVG Picture created as kicadBoard-B_Paste.svg date 2022/11/17 23:13:01 </svg:title>
  <svg:desc>Picture generated by PCBNEW </svg:desc>
<svg:g style="fill:#000000; fill-opacity:1.000000;stroke:#000000; stroke-opacity:1.000000; stroke-linecap:round; stroke-linejoin:round;" transform="translate(0 0) scale(1 1)">
</svg:g>
<svg:g style="fill:#000000; fill-opacity:0.0;  stroke:#000000; stroke-width:0.000000; stroke-opacity:1;  stroke-linecap:round; stroke-linejoin:round;">
<svg:g>
</svg:g>
<svg:g>
</svg:g>
<svg:g>
</svg:g>
<svg:g>
</svg:g>
</svg:g>
<svg:g style="fill:#000000; fill-opacity:0.0;  stroke:#000000; stroke-width:0.000000; stroke-opacity:1;  stroke-linecap:round; stroke-linejoin:round;">
<svg:g>
</svg:g>
<svg:g>
</svg:g>
<svg:g>
</svg:g>
<svg:g>
</svg:g>
</svg:g> 
</svg:g><svg:g><svg:title>SVG Picture created as kicadBoard-B_Silkscreen.svg date 2022/11/17 23:13:01 </svg:title>
  <svg:desc>Picture generated by PCBNEW </svg:desc>
<svg:g style="fill:#000000; fill-opacity:1.000000;stroke:#000000; stroke-opacity:1.000000; stroke-linecap:round; stroke-linejoin:round;" transform="translate(0 0) scale(1 1)">
</svg:g>
<svg:g style="fill:#000000; fill-opacity:0.0;  stroke:#000000; stroke-width:0.000000; stroke-opacity:1;  stroke-linecap:round; stroke-linejoin:round;">
<svg:g>
</svg:g>
<svg:g>
</svg:g>
<svg:g>
</svg:g>
<svg:g>
</svg:g>
</svg:g>
<svg:g style="fill:#000000; fill-opacity:0.0;  stroke:#000000; stroke-width:0.000000; stroke-opacity:1;  stroke-linecap:round; stroke-linejoin:round;">
<svg:g>
</svg:g>
<svg:g>
</svg:g>
<svg:g>
</svg:g>
<svg:g>
</svg:g>
</svg:g> 
</svg:g><svg:g><svg:title>SVG Picture created as kicadBoard-Edge_Cuts.svg date 2022/11/17 23:13:01 </svg:title>
  <svg:desc>Picture generated by PCBNEW </svg:desc>
<svg:g style="fill:#000000; fill-opacity:1.000000;stroke:#000000; stroke-opacity:1.000000; stroke-linecap:round; stroke-linejoin:round;" transform="translate(0 0) scale(1 1)">
</svg:g>
<svg:g style="fill:#000000; fill-opacity:0.0;  stroke:#000000; stroke-width:0.000000; stroke-opacity:1;  stroke-linecap:round; stroke-linejoin:round;">
<svg:g>
</svg:g>
<svg:g>
</svg:g>
<svg:g>
</svg:g>
<svg:g>
</svg:g>
</svg:g> 
</svg:g><svg:g><svg:title>SVG Picture created as kicadBoard-F_Adhesive.svg date 2022/11/17 23:13:01 </svg:title>
  <svg:desc>Picture generated by PCBNEW </svg:desc>
<svg:g style="fill:#000000; fill-opacity:1.000000;stroke:#000000; stroke-opacity:1.000000; stroke-linecap:round; stroke-linejoin:round;" transform="translate(0 0) scale(1 1)">
</svg:g>
<svg:g style="fill:#000000; fill-opacity:0.0;  stroke:#000000; stroke-width:0.000000; stroke-opacity:1;  stroke-linecap:round; stroke-linejoin:round;">
<svg:g>
</svg:g>
<svg:g>
</svg:g>
<svg:g>
</svg:g>
<svg:g>
</svg:g>
</svg:g>
<svg:g style="fill:#000000; fill-opacity:0.0;  stroke:#000000; stroke-width:0.000000; stroke-opacity:1;  stroke-linecap:round; stroke-linejoin:round;">
<svg:g>
</svg:g>
<svg:g>
</svg:g>
<svg:g>
</svg:g>
<svg:g>
</svg:g>
</svg:g> 
</svg:g><svg:g><svg:title>SVG Picture created as kicadBoard-F_Courtyard.svg date 2022/11/17 23:13:01 </svg:title>
  <svg:desc>Picture generated by PCBNEW </svg:desc>
<svg:g style="fill:#000000; fill-opacity:1.000000;stroke:#000000; stroke-opacity:1.000000; stroke-linecap:round; stroke-linejoin:round;" transform="translate(0 0) scale(1 1)">
</svg:g>
<svg:g style="fill:#000000; fill-opacity:0.0;  stroke:#000000; stroke-width:0.000000; stroke-opacity:1;  stroke-linecap:round; stroke-linejoin:round;">
</svg:g>
<svg:g style="fill:#FF26E2; fill-opacity:0.0;  stroke:#FF26E2; stroke-width:0.000000; stroke-opacity:1;  stroke-linecap:round; stroke-linejoin:round;">
</svg:g>
<svg:g style="fill:#FF26E2; fill-opacity:0.0;  stroke:#FF26E2; stroke-width:50000.000000; stroke-opacity:1;  stroke-linecap:round; stroke-linejoin:round;">
<svg:path d="M48200000 94950000 L63100000 94950000 "/>
<svg:path d="M63100000 48200000 L48200000 48200000 "/>
<svg:path d="M48200000 48200000 L48200000 94950000 "/>
<svg:path d="M63100000 94950000 L63100000 48200000 "/>
<svg:g>
</svg:g>
<svg:g>
</svg:g>
<svg:g>
</svg:g>
<svg:g>
</svg:g>
</svg:g>
<svg:g style="fill:#000000; fill-opacity:0.0;  stroke:#000000; stroke-width:50000.000000; stroke-opacity:1;  stroke-linecap:round; stroke-linejoin:round;">
<svg:g>
</svg:g>
<svg:g>
</svg:g>
<svg:g>
</svg:g>
<svg:g>
</svg:g>
</svg:g> 
</svg:g><svg:g><svg:title>SVG Picture created as kicadBoard-F_Fab.svg date 2022/11/17 23:13:01 </svg:title>
  <svg:desc>Picture generated by PCBNEW </svg:desc>
<svg:g style="fill:#000000; fill-opacity:1.000000;stroke:#000000; stroke-opacity:1.000000; stroke-linecap:round; stroke-linejoin:round;" transform="translate(0 0) scale(1 1)">
</svg:g>
<svg:g style="fill:#000000; fill-opacity:0.0;  stroke:#000000; stroke-width:0.000000; stroke-opacity:1;  stroke-linecap:round; stroke-linejoin:round;">
</svg:g>
<svg:g style="fill:#AFAFAF; fill-opacity:0.0;  stroke:#AFAFAF; stroke-width:0.000000; stroke-opacity:1;  stroke-linecap:round; stroke-linejoin:round;">
</svg:g>
<svg:g style="fill:#AFAFAF; fill-opacity:0.0;  stroke:#AFAFAF; stroke-width:150000.000000; stroke-opacity:1;  stroke-linecap:round; stroke-linejoin:round;">
<svg:text x="55655000.000000" y="95950000.000000" textLength="28385476.000000" font-size="1333333.000000" lengthAdjust="spacingAndGlyphs" text-anchor="middle" opacity="0">PinHeader_2x18_P2.54mm_Horizontal</svg:text>
<svg:g class="stroked-text"><svg:desc>PinHeader_2x18_P2.54mm_Horizontal</svg:desc>
<svg:path d="M41797857 95902380 L41797857 94902380 L42178809 94902380 L42274047 94950000 L42321666 94997619 L42369285 95092857 L42369285 95235714 L42321666 95330952 L42274047 95378571 L42178809 95426190 L41797857 95426190 "/>
<svg:path d="M42797857 95902380 L42797857 95235714 "/>
<svg:path d="M42797857 94902380 L42750238 94950000 L42797857 94997619 L42845476 94950000 L42797857 94902380 L42797857 94997619 "/>
<svg:path d="M43274047 95235714 L43274047 95902380 "/>
<svg:path d="M43274047 95330952 L43321666 95283333 L43416904 95235714 L43559761 95235714 L43655000 95283333 L43702619 95378571 L43702619 95902380 "/>
<svg:path d="M44178809 95902380 L44178809 94902380 "/>
<svg:path d="M44178809 95378571 L44750238 95378571 "/>
<svg:path d="M44750238 95902380 L44750238 94902380 "/>
<svg:path d="M45607380 95854761 L45512142 95902380 L45321666 95902380 L45226428 95854761 L45178809 95759523 L45178809 95378571 L45226428 95283333 L45321666 95235714 L45512142 95235714 L45607380 95283333 L45655000 95378571 L45655000 95473809 L45178809 95569047 "/>
<svg:path d="M46512142 95902380 L46512142 95378571 L46464523 95283333 L46369285 95235714 L46178809 95235714 L46083571 95283333 "/>
<svg:path d="M46512142 95854761 L46416904 95902380 L46178809 95902380 L46083571 95854761 L46035952 95759523 L46035952 95664285 L46083571 95569047 L46178809 95521428 L46416904 95521428 L46512142 95473809 "/>
<svg:path d="M47416904 95902380 L47416904 94902380 "/>
<svg:path d="M47416904 95854761 L47321666 95902380 L47131190 95902380 L47035952 95854761 L46988333 95807142 L46940714 95711904 L46940714 95426190 L46988333 95330952 L47035952 95283333 L47131190 95235714 L47321666 95235714 L47416904 95283333 "/>
<svg:path d="M48274047 95854761 L48178809 95902380 L47988333 95902380 L47893095 95854761 L47845476 95759523 L47845476 95378571 L47893095 95283333 L47988333 95235714 L48178809 95235714 L48274047 95283333 L48321666 95378571 L48321666 95473809 L47845476 95569047 "/>
<svg:path d="M48750238 95902380 L48750238 95235714 "/>
<svg:path d="M48750238 95426190 L48797857 95330952 L48845476 95283333 L48940714 95235714 L49035952 95235714 "/>
<svg:path d="M49131190 95997619 L49893095 95997619 "/>
<svg:path d="M50083571 94997619 L50131190 94950000 L50226428 94902380 L50464523 94902380 L50559761 94950000 L50607380 94997619 L50655000 95092857 L50655000 95188095 L50607380 95330952 L50035952 95902380 L50655000 95902380 "/>
<svg:path d="M50988333 95902380 L51512142 95235714 "/>
<svg:path d="M50988333 95235714 L51512142 95902380 "/>
<svg:path d="M52416904 95902380 L51845476 95902380 "/>
<svg:path d="M52131190 95902380 L52131190 94902380 L52035952 95045238 L51940714 95140476 L51845476 95188095 "/>
<svg:path d="M52988333 95330952 L52893095 95283333 L52845476 95235714 L52797857 95140476 L52797857 95092857 L52845476 94997619 L52893095 94950000 L52988333 94902380 L53178809 94902380 L53274047 94950000 L53321666 94997619 L53369285 95092857 L53369285 95140476 L53321666 95235714 L53274047 95283333 L53178809 95330952 L52988333 95330952 L52893095 95378571 L52845476 95426190 L52797857 95521428 L52797857 95711904 L52845476 95807142 L52893095 95854761 L52988333 95902380 L53178809 95902380 L53274047 95854761 L53321666 95807142 L53369285 95711904 L53369285 95521428 L53321666 95426190 L53274047 95378571 L53178809 95330952 "/>
<svg:path d="M53559761 95997619 L54321666 95997619 "/>
<svg:path d="M54559761 95902380 L54559761 94902380 L54940714 94902380 L55035952 94950000 L55083571 94997619 L55131190 95092857 L55131190 95235714 L55083571 95330952 L55035952 95378571 L54940714 95426190 L54559761 95426190 "/>
<svg:path d="M55512142 94997619 L55559761 94950000 L55655000 94902380 L55893095 94902380 L55988333 94950000 L56035952 94997619 L56083571 95092857 L56083571 95188095 L56035952 95330952 L55464523 95902380 L56083571 95902380 "/>
<svg:path d="M56512142 95807142 L56559761 95854761 L56512142 95902380 L56464523 95854761 L56512142 95807142 L56512142 95902380 "/>
<svg:path d="M57464523 94902380 L56988333 94902380 L56940714 95378571 L56988333 95330952 L57083571 95283333 L57321666 95283333 L57416904 95330952 L57464523 95378571 L57512142 95473809 L57512142 95711904 L57464523 95807142 L57416904 95854761 L57321666 95902380 L57083571 95902380 L56988333 95854761 L56940714 95807142 "/>
<svg:path d="M58369285 95235714 L58369285 95902380 "/>
<svg:path d="M58131190 94854761 L57893095 95569047 L58512142 95569047 "/>
<svg:path d="M58893095 95902380 L58893095 95235714 "/>
<svg:path d="M58893095 95330952 L58940714 95283333 L59035952 95235714 L59178809 95235714 L59274047 95283333 L59321666 95378571 L59321666 95902380 "/>
<svg:path d="M59321666 95378571 L59369285 95283333 L59464523 95235714 L59607380 95235714 L59702619 95283333 L59750238 95378571 L59750238 95902380 "/>
<svg:path d="M60226428 95902380 L60226428 95235714 "/>
<svg:path d="M60226428 95330952 L60274047 95283333 L60369285 95235714 L60512142 95235714 L60607380 95283333 L60654999 95378571 L60654999 95902380 "/>
<svg:path d="M60654999 95378571 L60702619 95283333 L60797857 95235714 L60940714 95235714 L61035952 95283333 L61083571 95378571 L61083571 95902380 "/>
<svg:path d="M61321666 95997619 L62083571 95997619 "/>
<svg:path d="M62321666 95902380 L62321666 94902380 "/>
<svg:path d="M62321666 95378571 L62893095 95378571 "/>
<svg:path d="M62893095 95902380 L62893095 94902380 "/>
<svg:path d="M63512142 95902380 L63416904 95854761 L63369285 95807142 L63321666 95711904 L63321666 95426190 L63369285 95330952 L63416904 95283333 L63512142 95235714 L63654999 95235714 L63750238 95283333 L63797857 95330952 L63845476 95426190 L63845476 95711904 L63797857 95807142 L63750238 95854761 L63654999 95902380 L63512142 95902380 "/>
<svg:path d="M64274047 95902380 L64274047 95235714 "/>
<svg:path d="M64274047 95426190 L64321666 95330952 L64369285 95283333 L64464523 95235714 L64559761 95235714 "/>
<svg:path d="M64893095 95902380 L64893095 95235714 "/>
<svg:path d="M64893095 94902380 L64845476 94950000 L64893095 94997619 L64940714 94950000 L64893095 94902380 L64893095 94997619 "/>
<svg:path d="M65274047 95235714 L65797857 95235714 L65274047 95902380 L65797857 95902380 "/>
<svg:path d="M66321666 95902380 L66226428 95854761 L66178809 95807142 L66131190 95711904 L66131190 95426190 L66178809 95330952 L66226428 95283333 L66321666 95235714 L66464523 95235714 L66559761 95283333 L66607380 95330952 L66654999 95426190 L66654999 95711904 L66607380 95807142 L66559761 95854761 L66464523 95902380 L66321666 95902380 "/>
<svg:path d="M67083571 95235714 L67083571 95902380 "/>
<svg:path d="M67083571 95330952 L67131190 95283333 L67226428 95235714 L67369285 95235714 L67464523 95283333 L67512142 95378571 L67512142 95902380 "/>
<svg:path d="M67845476 95235714 L68226428 95235714 "/>
<svg:path d="M67988333 94902380 L67988333 95759523 L68035952 95854761 L68131190 95902380 L68226428 95902380 "/>
<svg:path d="M68988333 95902380 L68988333 95378571 L68940714 95283333 L68845476 95235714 L68654999 95235714 L68559761 95283333 "/>
<svg:path d="M68988333 95854761 L68893095 95902380 L68654999 95902380 L68559761 95854761 L68512142 95759523 L68512142 95664285 L68559761 95569047 L68654999 95521428 L68893095 95521428 L68988333 95473809 "/>
<svg:path d="M69607380 95902380 L69512142 95854761 L69464523 95759523 L69464523 94902380 "/>
</svg:g><svg:g transform="rotate(-90.000000 55310000.000000 71590000.000000)">
<svg:text x="55310000.000000" y="72090000.000000" textLength="33099762.000000" font-size="1333333.000000" lengthAdjust="spacingAndGlyphs" text-anchor="middle" opacity="0">FZKCNPINHEADER254PINHEADER2X18P254H</svg:text>
</svg:g>
<svg:g class="stroked-text"><svg:desc>FZKCNPINHEADER254PINHEADER2X18P254H</svg:desc>
<svg:path d="M55238571 87470952 L55238571 87804285 "/>
<svg:path d="M55762380 87804285 L54762380 87804285 L54762380 87328095 "/>
<svg:path d="M54762380 87042380 L54762380 86375714 L55762380 87042380 L55762380 86375714 "/>
<svg:path d="M55762380 85994761 L54762380 85994761 "/>
<svg:path d="M55762380 85423333 L55190952 85851904 "/>
<svg:path d="M54762380 85423333 L55333809 85994761 "/>
<svg:path d="M55667142 84423333 L55714761 84470952 L55762380 84613809 L55762380 84709047 L55714761 84851904 L55619523 84947142 L55524285 84994761 L55333809 85042380 L55190952 85042380 L55000476 84994761 L54905238 84947142 L54810000 84851904 L54762380 84709047 L54762380 84613809 L54810000 84470952 L54857619 84423333 "/>
<svg:path d="M55762380 83994761 L54762380 83994761 L55762380 83423333 L54762380 83423333 "/>
<svg:path d="M55762380 82947142 L54762380 82947142 L54762380 82566190 L54810000 82470952 L54857619 82423333 L54952857 82375714 L55095714 82375714 L55190952 82423333 L55238571 82470952 L55286190 82566190 L55286190 82947142 "/>
<svg:path d="M55762380 81947142 L54762380 81947142 "/>
<svg:path d="M55762380 81470952 L54762380 81470952 L55762380 80899523 L54762380 80899523 "/>
<svg:path d="M55762380 80423333 L54762380 80423333 "/>
<svg:path d="M55238571 80423333 L55238571 79851904 "/>
<svg:path d="M55762380 79851904 L54762380 79851904 "/>
<svg:path d="M55238571 79375714 L55238571 79042380 "/>
<svg:path d="M55762380 78899523 L55762380 79375714 L54762380 79375714 L54762380 78899523 "/>
<svg:path d="M55476666 78518571 L55476666 78042380 "/>
<svg:path d="M55762380 78613809 L54762380 78280476 L55762380 77947142 "/>
<svg:path d="M55762380 77613809 L54762380 77613809 L54762380 77375714 L54810000 77232857 L54905238 77137619 L55000476 77090000 L55190952 77042380 L55333809 77042380 L55524285 77090000 L55619523 77137619 L55714761 77232857 L55762380 77375714 L55762380 77613809 "/>
<svg:path d="M55238571 76613809 L55238571 76280476 "/>
<svg:path d="M55762380 76137619 L55762380 76613809 L54762380 76613809 L54762380 76137619 "/>
<svg:path d="M55762380 75137619 L55286190 75470952 "/>
<svg:path d="M55762380 75709047 L54762380 75709047 L54762380 75328095 L54810000 75232857 L54857619 75185238 L54952857 75137619 L55095714 75137619 L55190952 75185238 L55238571 75232857 L55286190 75328095 L55286190 75709047 "/>
<svg:path d="M54857619 74756666 L54810000 74709047 L54762380 74613809 L54762380 74375714 L54810000 74280476 L54857619 74232857 L54952857 74185238 L55048095 74185238 L55190952 74232857 L55762380 74804285 L55762380 74185238 "/>
<svg:path d="M54762380 73280476 L54762380 73756666 L55238571 73804285 L55190952 73756666 L55143333 73661428 L55143333 73423333 L55190952 73328095 L55238571 73280476 L55333809 73232857 L55571904 73232857 L55667142 73280476 L55714761 73328095 L55762380 73423333 L55762380 73661428 L55714761 73756666 L55667142 73804285 "/>
<svg:path d="M55095714 72375714 L55762380 72375714 "/>
<svg:path d="M54714761 72613809 L55429047 72851904 L55429047 72232857 "/>
<svg:path d="M55762380 71851904 L54762380 71851904 L54762380 71470952 L54810000 71375714 L54857619 71328095 L54952857 71280476 L55095714 71280476 L55190952 71328095 L55238571 71375714 L55286190 71470952 L55286190 71851904 "/>
<svg:path d="M55762380 70851904 L54762380 70851904 "/>
<svg:path d="M55762380 70375714 L54762380 70375714 L55762380 69804285 L54762380 69804285 "/>
<svg:path d="M55762380 69328095 L54762380 69328095 "/>
<svg:path d="M55238571 69328095 L55238571 68756666 "/>
<svg:path d="M55762380 68756666 L54762380 68756666 "/>
<svg:path d="M55238571 68280476 L55238571 67947142 "/>
<svg:path d="M55762380 67804285 L55762380 68280476 L54762380 68280476 L54762380 67804285 "/>
<svg:path d="M55476666 67423333 L55476666 66947142 "/>
<svg:path d="M55762380 67518571 L54762380 67185238 L55762380 66851904 "/>
<svg:path d="M55762380 66518571 L54762380 66518571 L54762380 66280476 L54810000 66137619 L54905238 66042380 L55000476 65994761 L55190952 65947142 L55333809 65947142 L55524285 65994761 L55619523 66042380 L55714761 66137619 L55762380 66280476 L55762380 66518571 "/>
<svg:path d="M55238571 65518571 L55238571 65185238 "/>
<svg:path d="M55762380 65042380 L55762380 65518571 L54762380 65518571 L54762380 65042380 "/>
<svg:path d="M55762380 64042380 L55286190 64375714 "/>
<svg:path d="M55762380 64613809 L54762380 64613809 L54762380 64232857 L54810000 64137619 L54857619 64090000 L54952857 64042380 L55095714 64042380 L55190952 64090000 L55238571 64137619 L55286190 64232857 L55286190 64613809 "/>
<svg:path d="M54857619 63661428 L54810000 63613809 L54762380 63518571 L54762380 63280476 L54810000 63185238 L54857619 63137619 L54952857 63090000 L55048095 63090000 L55190952 63137619 L55762380 63709047 L55762380 63090000 "/>
<svg:path d="M54762380 62756666 L55762380 62090000 "/>
<svg:path d="M54762380 62090000 L55762380 62756666 "/>
<svg:path d="M55762380 61185238 L55762380 61756666 "/>
<svg:path d="M55762380 61470952 L54762380 61470952 L54905238 61566190 L55000476 61661428 L55048095 61756666 "/>
<svg:path d="M55190952 60613809 L55143333 60709047 L55095714 60756666 L55000476 60804285 L54952857 60804285 L54857619 60756666 L54810000 60709047 L54762380 60613809 L54762380 60423333 L54810000 60328095 L54857619 60280476 L54952857 60232857 L55000476 60232857 L55095714 60280476 L55143333 60328095 L55190952 60423333 L55190952 60613809 L55238571 60709047 L55286190 60756666 L55381428 60804285 L55571904 60804285 L55667142 60756666 L55714761 60709047 L55762380 60613809 L55762380 60423333 L55714761 60328095 L55667142 60280476 L55571904 60232857 L55381428 60232857 L55286190 60280476 L55238571 60328095 L55190952 60423333 "/>
<svg:path d="M55762380 59804285 L54762380 59804285 L54762380 59423333 L54810000 59328095 L54857619 59280476 L54952857 59232857 L55095714 59232857 L55190952 59280476 L55238571 59328095 L55286190 59423333 L55286190 59804285 "/>
<svg:path d="M54857619 58851904 L54810000 58804285 L54762380 58709047 L54762380 58470952 L54810000 58375714 L54857619 58328095 L54952857 58280476 L55048095 58280476 L55190952 58328095 L55762380 58899523 L55762380 58280476 "/>
<svg:path d="M54762380 57375714 L54762380 57851904 L55238571 57899523 L55190952 57851904 L55143333 57756666 L55143333 57518571 L55190952 57423333 L55238571 57375714 L55333809 57328095 L55571904 57328095 L55667142 57375714 L55714761 57423333 L55762380 57518571 L55762380 57756666 L55714761 57851904 L55667142 57899523 "/>
<svg:path d="M55095714 56470952 L55762380 56470952 "/>
<svg:path d="M54714761 56709047 L55429047 56947142 L55429047 56328095 "/>
<svg:path d="M55762380 55947142 L54762380 55947142 "/>
<svg:path d="M55238571 55947142 L55238571 55375714 "/>
<svg:path d="M55762380 55375714 L54762380 55375714 "/>
</svg:g></svg:g>
<svg:g style="fill:#AFAFAF; fill-opacity:0.0;  stroke:#AFAFAF; stroke-width:100000.000000; stroke-opacity:1;  stroke-linecap:round; stroke-linejoin:round;">
<svg:path d="M49680000 57300000 L49680000 57940000 "/>
<svg:path d="M49680000 75720000 L54040000 75720000 "/>
<svg:path d="M62580000 62380000 L62580000 63020000 "/>
<svg:path d="M49680000 59840000 L49680000 60480000 "/>
<svg:path d="M49680000 87780000 L54040000 87780000 "/>
<svg:path d="M56580000 64920000 L62580000 64920000 "/>
<svg:path d="M56580000 73180000 L62580000 73180000 "/>
<svg:path d="M49680000 50320000 L54040000 50320000 "/>
<svg:path d="M62580000 72540000 L62580000 73180000 "/>
<svg:path d="M49680000 78260000 L54040000 78260000 "/>
<svg:path d="M56580000 77620000 L62580000 77620000 "/>
<svg:path d="M49680000 59840000 L54040000 59840000 "/>
<svg:path d="M49680000 75080000 L54040000 75080000 "/>
<svg:path d="M49680000 82700000 L49680000 83340000 "/>
<svg:path d="M49680000 52860000 L54040000 52860000 "/>
<svg:path d="M49680000 90320000 L49680000 90960000 "/>
<svg:path d="M56580000 67460000 L62580000 67460000 "/>
<svg:path d="M56580000 80800000 L62580000 80800000 "/>
<svg:path d="M56580000 92860000 L62580000 92860000 "/>
<svg:path d="M49680000 64920000 L49680000 65560000 "/>
<svg:path d="M49680000 85240000 L54040000 85240000 "/>
<svg:path d="M62580000 64920000 L62580000 65560000 "/>
<svg:path d="M49680000 67460000 L49680000 68100000 "/>
<svg:path d="M62580000 52220000 L62580000 52860000 "/>
<svg:path d="M49680000 82700000 L54040000 82700000 "/>
<svg:path d="M62580000 82700000 L62580000 83340000 "/>
<svg:path d="M54675000 48730000 L56580000 48730000 "/>
<svg:path d="M56580000 70000000 L62580000 70000000 "/>
<svg:path d="M49680000 54760000 L54040000 54760000 "/>
<svg:path d="M56580000 62380000 L62580000 62380000 "/>
<svg:path d="M49680000 67460000 L54040000 67460000 "/>
<svg:path d="M49680000 70000000 L49680000 70640000 "/>
<svg:path d="M62580000 57300000 L62580000 57940000 "/>
<svg:path d="M49680000 70000000 L54040000 70000000 "/>
<svg:path d="M56580000 78260000 L62580000 78260000 "/>
<svg:path d="M49680000 65560000 L54040000 65560000 "/>
<svg:path d="M49680000 52220000 L54040000 52220000 "/>
<svg:path d="M62580000 59840000 L62580000 60480000 "/>
<svg:path d="M49680000 77620000 L49680000 78260000 "/>
<svg:path d="M49680000 62380000 L54040000 62380000 "/>
<svg:path d="M62580000 92860000 L62580000 93500000 "/>
<svg:path d="M56580000 90960000 L62580000 90960000 "/>
<svg:path d="M56580000 59840000 L62580000 59840000 "/>
<svg:path d="M49680000 62380000 L49680000 63020000 "/>
<svg:path d="M56580000 68100000 L62580000 68100000 "/>
<svg:path d="M49680000 70640000 L54040000 70640000 "/>
<svg:path d="M62580000 90320000 L62580000 90960000 "/>
<svg:path d="M56580000 50320000 L62580000 50320000 "/>
<svg:path d="M49680000 77620000 L54040000 77620000 "/>
<svg:path d="M56580000 82700000 L62580000 82700000 "/>
<svg:path d="M49680000 54760000 L49680000 55400000 "/>
<svg:path d="M56580000 75080000 L62580000 75080000 "/>
<svg:path d="M49680000 49680000 L54040000 49680000 "/>
<svg:path d="M56580000 88420000 L62580000 88420000 "/>
<svg:path d="M49680000 72540000 L49680000 73180000 "/>
<svg:path d="M56580000 65560000 L62580000 65560000 "/>
<svg:path d="M49680000 52220000 L49680000 52860000 "/>
<svg:path d="M49680000 60480000 L54040000 60480000 "/>
<svg:path d="M54040000 94450000 L54040000 49365000 "/>
<svg:path d="M49680000 80800000 L54040000 80800000 "/>
<svg:path d="M56580000 57940000 L62580000 57940000 "/>
<svg:path d="M62580000 54760000 L62580000 55400000 "/>
<svg:path d="M56580000 49680000 L62580000 49680000 "/>
<svg:path d="M49680000 85880000 L54040000 85880000 "/>
<svg:path d="M54040000 49365000 L54675000 48730000 "/>
<svg:path d="M49680000 64920000 L54040000 64920000 "/>
<svg:path d="M49680000 85240000 L49680000 85880000 "/>
<svg:path d="M56580000 83340000 L62580000 83340000 "/>
<svg:path d="M49680000 90320000 L54040000 90320000 "/>
<svg:path d="M49680000 92860000 L49680000 93500000 "/>
<svg:path d="M49680000 63020000 L54040000 63020000 "/>
<svg:path d="M49680000 90960000 L54040000 90960000 "/>
<svg:path d="M56580000 85880000 L62580000 85880000 "/>
<svg:path d="M62580000 85240000 L62580000 85880000 "/>
<svg:path d="M56580000 48730000 L56580000 94450000 "/>
<svg:path d="M56580000 54760000 L62580000 54760000 "/>
<svg:path d="M56580000 93500000 L62580000 93500000 "/>
<svg:path d="M49680000 57940000 L54040000 57940000 "/>
<svg:path d="M62580000 75080000 L62580000 75720000 "/>
<svg:path d="M56580000 80160000 L62580000 80160000 "/>
<svg:path d="M49680000 88420000 L54040000 88420000 "/>
<svg:path d="M56580000 70640000 L62580000 70640000 "/>
<svg:path d="M49680000 92860000 L54040000 92860000 "/>
<svg:path d="M56580000 90320000 L62580000 90320000 "/>
<svg:path d="M49680000 55400000 L54040000 55400000 "/>
<svg:path d="M49680000 49680000 L49680000 50320000 "/>
<svg:path d="M49680000 72540000 L54040000 72540000 "/>
<svg:path d="M62580000 49680000 L62580000 50320000 "/>
<svg:path d="M56580000 60480000 L62580000 60480000 "/>
<svg:path d="M49680000 83340000 L54040000 83340000 "/>
<svg:path d="M62580000 87780000 L62580000 88420000 "/>
<svg:path d="M56580000 57300000 L62580000 57300000 "/>
<svg:path d="M49680000 93500000 L54040000 93500000 "/>
<svg:path d="M56580000 94450000 L54040000 94450000 "/>
<svg:path d="M49680000 75080000 L49680000 75720000 "/>
<svg:path d="M49680000 68100000 L54040000 68100000 "/>
<svg:path d="M62580000 80160000 L62580000 80800000 "/>
<svg:path d="M56580000 85240000 L62580000 85240000 "/>
<svg:path d="M49680000 80160000 L54040000 80160000 "/>
<svg:path d="M56580000 87780000 L62580000 87780000 "/>
<svg:path d="M56580000 63020000 L62580000 63020000 "/>
<svg:path d="M56580000 52220000 L62580000 52220000 "/>
<svg:path d="M49680000 87780000 L49680000 88420000 "/>
<svg:path d="M49680000 80160000 L49680000 80800000 "/>
<svg:path d="M49680000 73180000 L54040000 73180000 "/>
<svg:path d="M56580000 72540000 L62580000 72540000 "/>
<svg:path d="M56580000 75720000 L62580000 75720000 "/>
<svg:path d="M49680000 57300000 L54040000 57300000 "/>
<svg:path d="M62580000 77620000 L62580000 78260000 "/>
<svg:path d="M62580000 67460000 L62580000 68100000 "/>
<svg:path d="M56580000 55400000 L62580000 55400000 "/>
<svg:path d="M56580000 52860000 L62580000 52860000 "/>
<svg:path d="M62580000 70000000 L62580000 70640000 "/>
<svg:g>
</svg:g>
<svg:g>
</svg:g>
<svg:g>
</svg:g>
<svg:g>
</svg:g>
</svg:g>
<svg:g style="fill:#000000; fill-opacity:0.0;  stroke:#000000; stroke-width:100000.000000; stroke-opacity:1;  stroke-linecap:round; stroke-linejoin:round;">
<svg:g>
</svg:g>
<svg:g>
</svg:g>
<svg:g>
</svg:g>
<svg:g>
</svg:g>
</svg:g> 
</svg:g><svg:g><svg:title>SVG Picture created as kicadBoard-F_Mask.svg date 2022/11/17 23:13:01 </svg:title>
  <svg:desc>Picture generated by PCBNEW </svg:desc>
<svg:g style="fill:#000000; fill-opacity:1.000000;stroke:#000000; stroke-opacity:1.000000; stroke-linecap:round; stroke-linejoin:round;" transform="translate(0 0) scale(1 1)">
</svg:g>
<svg:g style="fill:#000000; fill-opacity:0.0;  stroke:#000000; stroke-width:0.000000; stroke-opacity:1;  stroke-linecap:round; stroke-linejoin:round;">
<svg:g>
</svg:g>
<svg:g style="fill:#000000; fill-opacity:0.0;  stroke:#000000; stroke-width:1.000000; stroke-opacity:1;  stroke-linecap:round; stroke-linejoin:round;">
</svg:g>
<svg:g style="fill:#000000; fill-opacity:1.0;  stroke:#000000; stroke-width:1.000000; stroke-opacity:1;  stroke-linecap:round; stroke-linejoin:round;">
<svg:path style="fill:#000000; fill-opacity:1.0;  stroke:#000000; stroke-width:1.000000; stroke-opacity:1;  stroke-linecap:round; stroke-linejoin:round;fill-rule:evenodd;" d="M 49150000.000000,50850000.000000 49150000.000000,49150000.000000 50850000.000000,49150000.000000 50850000.000000,50850000.000000 Z"/> 
<svg:circle cx="52540000.000000" cy="50000000.000000" r="850000.000000"/> 
<svg:circle cx="50000000.000000" cy="52540000.000000" r="850000.000000"/> 
<svg:circle cx="52540000.000000" cy="52540000.000000" r="850000.000000"/> 
<svg:circle cx="50000000.000000" cy="55080000.000000" r="850000.000000"/> 
<svg:circle cx="52540000.000000" cy="55080000.000000" r="850000.000000"/> 
<svg:circle cx="50000000.000000" cy="57620000.000000" r="850000.000000"/> 
<svg:circle cx="52540000.000000" cy="57620000.000000" r="850000.000000"/> 
<svg:circle cx="50000000.000000" cy="60160000.000000" r="850000.000000"/> 
<svg:circle cx="52540000.000000" cy="60160000.000000" r="850000.000000"/> 
<svg:circle cx="50000000.000000" cy="62700000.000000" r="850000.000000"/> 
<svg:circle cx="52540000.000000" cy="62700000.000000" r="850000.000000"/> 
<svg:circle cx="50000000.000000" cy="65240000.000000" r="850000.000000"/> 
<svg:circle cx="52540000.000000" cy="65240000.000000" r="850000.000000"/> 
<svg:circle cx="50000000.000000" cy="67780000.000000" r="850000.000000"/> 
<svg:circle cx="52540000.000000" cy="67780000.000000" r="850000.000000"/> 
<svg:circle cx="50000000.000000" cy="70320000.000000" r="850000.000000"/> 
<svg:circle cx="52540000.000000" cy="70320000.000000" r="850000.000000"/> 
<svg:circle cx="50000000.000000" cy="72860000.000000" r="850000.000000"/> 
<svg:circle cx="52540000.000000" cy="72860000.000000" r="850000.000000"/> 
<svg:circle cx="50000000.000000" cy="75400000.000000" r="850000.000000"/> 
<svg:circle cx="52540000.000000" cy="75400000.000000" r="850000.000000"/> 
<svg:circle cx="50000000.000000" cy="77940000.000000" r="850000.000000"/> 
<svg:circle cx="52540000.000000" cy="77940000.000000" r="850000.000000"/> 
<svg:circle cx="50000000.000000" cy="80480000.000000" r="850000.000000"/> 
<svg:circle cx="52540000.000000" cy="80480000.000000" r="850000.000000"/> 
<svg:circle cx="50000000.000000" cy="83020000.000000" r="850000.000000"/> 
<svg:circle cx="52540000.000000" cy="83020000.000000" r="850000.000000"/> 
<svg:circle cx="50000000.000000" cy="85560000.000000" r="850000.000000"/> 
<svg:circle cx="52540000.000000" cy="85560000.000000" r="850000.000000"/> 
<svg:circle cx="50000000.000000" cy="88100000.000000" r="850000.000000"/> 
<svg:circle cx="52540000.000000" cy="88100000.000000" r="850000.000000"/> 
<svg:circle cx="50000000.000000" cy="90640000.000000" r="850000.000000"/> 
<svg:circle cx="52540000.000000" cy="90640000.000000" r="850000.000000"/> 
<svg:circle cx="50000000.000000" cy="93180000.000000" r="850000.000000"/> 
<svg:circle cx="52540000.000000" cy="93180000.000000" r="850000.000000"/> 
</svg:g>
<svg:g>
</svg:g>
<svg:g>
</svg:g>
<svg:g>
</svg:g>
</svg:g>
<svg:g style="fill:#000000; fill-opacity:1.0;  stroke:#000000; stroke-width:1.000000; stroke-opacity:1;  stroke-linecap:round; stroke-linejoin:round;">
<svg:g>
</svg:g>
<svg:g>
</svg:g>
<svg:g>
</svg:g>
<svg:g>
</svg:g>
</svg:g> 
</svg:g><svg:g><svg:title>SVG Picture created as kicadBoard-F_Paste.svg date 2022/11/17 23:13:01 </svg:title>
  <svg:desc>Picture generated by PCBNEW </svg:desc>
<svg:g style="fill:#000000; fill-opacity:1.000000;stroke:#000000; stroke-opacity:1.000000; stroke-linecap:round; stroke-linejoin:round;" transform="translate(0 0) scale(1 1)">
</svg:g>
<svg:g style="fill:#000000; fill-opacity:0.0;  stroke:#000000; stroke-width:0.000000; stroke-opacity:1;  stroke-linecap:round; stroke-linejoin:round;">
<svg:g>
</svg:g>
<svg:g>
</svg:g>
<svg:g>
</svg:g>
<svg:g>
</svg:g>
</svg:g>
<svg:g style="fill:#000000; fill-opacity:0.0;  stroke:#000000; stroke-width:0.000000; stroke-opacity:1;  stroke-linecap:round; stroke-linejoin:round;">
<svg:g>
</svg:g>
<svg:g>
</svg:g>
<svg:g>
</svg:g>
<svg:g>
</svg:g>
</svg:g> 
</svg:g><svg:g><svg:title>SVG Picture created as kicadBoard-F_Silkscreen.svg date 2022/11/17 23:13:01 </svg:title>
  <svg:desc>Picture generated by PCBNEW </svg:desc>
<svg:g style="fill:#000000; fill-opacity:1.000000;stroke:#000000; stroke-opacity:1.000000; stroke-linecap:round; stroke-linejoin:round;" transform="translate(0 0) scale(1 1)">
</svg:g>
<svg:g style="fill:#000000; fill-opacity:0.0;  stroke:#000000; stroke-width:0.000000; stroke-opacity:1;  stroke-linecap:round; stroke-linejoin:round;">
</svg:g>
<svg:g style="fill:#F2EDA1; fill-opacity:0.0;  stroke:#F2EDA1; stroke-width:0.000000; stroke-opacity:1;  stroke-linecap:round; stroke-linejoin:round;">
</svg:g>
<svg:g style="fill:#F2EDA1; fill-opacity:0.0;  stroke:#F2EDA1; stroke-width:150000.000000; stroke-opacity:1;  stroke-linecap:round; stroke-linejoin:round;">
<svg:text x="55655000.000000" y="48230000.000000" textLength="32904763.000000" font-size="1333333.000000" lengthAdjust="spacingAndGlyphs" text-anchor="middle" opacity="0">FZKCNPINHEADER254PINHEADER2X18P254H</svg:text>
<svg:g class="stroked-text"><svg:desc>FZKCNPINHEADER254PINHEADER2X18P254H</svg:desc>
<svg:path d="M39774047 47658571 L39440714 47658571 "/>
<svg:path d="M39440714 48182380 L39440714 47182380 L39916904 47182380 "/>
<svg:path d="M40202619 47182380 L40869285 47182380 L40202619 48182380 L40869285 48182380 "/>
<svg:path d="M41250238 48182380 L41250238 47182380 "/>
<svg:path d="M41821666 48182380 L41393095 47610952 "/>
<svg:path d="M41821666 47182380 L41250238 47753809 "/>
<svg:path d="M42821666 48087142 L42774047 48134761 L42631190 48182380 L42535952 48182380 L42393095 48134761 L42297857 48039523 L42250238 47944285 L42202619 47753809 L42202619 47610952 L42250238 47420476 L42297857 47325238 L42393095 47230000 L42535952 47182380 L42631190 47182380 L42774047 47230000 L42821666 47277619 "/>
<svg:path d="M43250238 48182380 L43250238 47182380 L43821666 48182380 L43821666 47182380 "/>
<svg:path d="M44297857 48182380 L44297857 47182380 L44678809 47182380 L44774047 47230000 L44821666 47277619 L44869285 47372857 L44869285 47515714 L44821666 47610952 L44774047 47658571 L44678809 47706190 L44297857 47706190 "/>
<svg:path d="M45297857 48182380 L45297857 47182380 "/>
<svg:path d="M45774047 48182380 L45774047 47182380 L46345476 48182380 L46345476 47182380 "/>
<svg:path d="M46821666 48182380 L46821666 47182380 "/>
<svg:path d="M46821666 47658571 L47393095 47658571 "/>
<svg:path d="M47393095 48182380 L47393095 47182380 "/>
<svg:path d="M47869285 47658571 L48202619 47658571 "/>
<svg:path d="M48345476 48182380 L47869285 48182380 L47869285 47182380 L48345476 47182380 "/>
<svg:path d="M48726428 47896666 L49202619 47896666 "/>
<svg:path d="M48631190 48182380 L48964523 47182380 L49297857 48182380 "/>
<svg:path d="M49631190 48182380 L49631190 47182380 L49869285 47182380 L50012142 47230000 L50107380 47325238 L50154999 47420476 L50202619 47610952 L50202619 47753809 L50154999 47944285 L50107380 48039523 L50012142 48134761 L49869285 48182380 L49631190 48182380 "/>
<svg:path d="M50631190 47658571 L50964523 47658571 "/>
<svg:path d="M51107380 48182380 L50631190 48182380 L50631190 47182380 L51107380 47182380 "/>
<svg:path d="M52107380 48182380 L51774047 47706190 "/>
<svg:path d="M51535952 48182380 L51535952 47182380 L51916904 47182380 L52012142 47230000 L52059761 47277619 L52107380 47372857 L52107380 47515714 L52059761 47610952 L52012142 47658571 L51916904 47706190 L51535952 47706190 "/>
<svg:path d="M52488333 47277619 L52535952 47230000 L52631190 47182380 L52869285 47182380 L52964523 47230000 L53012142 47277619 L53059761 47372857 L53059761 47468095 L53012142 47610952 L52440714 48182380 L53059761 48182380 "/>
<svg:path d="M53964523 47182380 L53488333 47182380 L53440714 47658571 L53488333 47610952 L53583571 47563333 L53821666 47563333 L53916904 47610952 L53964523 47658571 L54012142 47753809 L54012142 47991904 L53964523 48087142 L53916904 48134761 L53821666 48182380 L53583571 48182380 L53488333 48134761 L53440714 48087142 "/>
<svg:path d="M54869285 47515714 L54869285 48182380 "/>
<svg:path d="M54631190 47134761 L54393095 47849047 L55012142 47849047 "/>
<svg:path d="M55393095 48182380 L55393095 47182380 L55774047 47182380 L55869285 47230000 L55916904 47277619 L55964523 47372857 L55964523 47515714 L55916904 47610952 L55869285 47658571 L55774047 47706190 L55393095 47706190 "/>
<svg:path d="M56393095 48182380 L56393095 47182380 "/>
<svg:path d="M56869285 48182380 L56869285 47182380 L57440714 48182380 L57440714 47182380 "/>
<svg:path d="M57916904 48182380 L57916904 47182380 "/>
<svg:path d="M57916904 47658571 L58488333 47658571 "/>
<svg:path d="M58488333 48182380 L58488333 47182380 "/>
<svg:path d="M58964523 47658571 L59297857 47658571 "/>
<svg:path d="M59440714 48182380 L58964523 48182380 L58964523 47182380 L59440714 47182380 "/>
<svg:path d="M59821666 47896666 L60297857 47896666 "/>
<svg:path d="M59726428 48182380 L60059761 47182380 L60393095 48182380 "/>
<svg:path d="M60726428 48182380 L60726428 47182380 L60964523 47182380 L61107380 47230000 L61202619 47325238 L61250238 47420476 L61297857 47610952 L61297857 47753809 L61250238 47944285 L61202619 48039523 L61107380 48134761 L60964523 48182380 L60726428 48182380 "/>
<svg:path d="M61726428 47658571 L62059761 47658571 "/>
<svg:path d="M62202619 48182380 L61726428 48182380 L61726428 47182380 L62202619 47182380 "/>
<svg:path d="M63202619 48182380 L62869285 47706190 "/>
<svg:path d="M62631190 48182380 L62631190 47182380 L63012142 47182380 L63107380 47230000 L63154999 47277619 L63202619 47372857 L63202619 47515714 L63154999 47610952 L63107380 47658571 L63012142 47706190 L62631190 47706190 "/>
<svg:path d="M63583571 47277619 L63631190 47230000 L63726428 47182380 L63964523 47182380 L64059761 47230000 L64107380 47277619 L64154999 47372857 L64154999 47468095 L64107380 47610952 L63535952 48182380 L64154999 48182380 "/>
<svg:path d="M64488333 47182380 L65154999 48182380 "/>
<svg:path d="M65154999 47182380 L64488333 48182380 "/>
<svg:path d="M66059761 48182380 L65488333 48182380 "/>
<svg:path d="M65774047 48182380 L65774047 47182380 L65678809 47325238 L65583571 47420476 L65488333 47468095 "/>
<svg:path d="M66631190 47610952 L66535952 47563333 L66488333 47515714 L66440714 47420476 L66440714 47372857 L66488333 47277619 L66535952 47230000 L66631190 47182380 L66821666 47182380 L66916904 47230000 L66964523 47277619 L67012142 47372857 L67012142 47420476 L66964523 47515714 L66916904 47563333 L66821666 47610952 L66631190 47610952 L66535952 47658571 L66488333 47706190 L66440714 47801428 L66440714 47991904 L66488333 48087142 L66535952 48134761 L66631190 48182380 L66821666 48182380 L66916904 48134761 L66964523 48087142 L67012142 47991904 L67012142 47801428 L66964523 47706190 L66916904 47658571 L66821666 47610952 "/>
<svg:path d="M67440714 48182380 L67440714 47182380 L67821666 47182380 L67916904 47230000 L67964523 47277619 L68012142 47372857 L68012142 47515714 L67964523 47610952 L67916904 47658571 L67821666 47706190 L67440714 47706190 "/>
<svg:path d="M68393095 47277619 L68440714 47230000 L68535952 47182380 L68774047 47182380 L68869285 47230000 L68916904 47277619 L68964523 47372857 L68964523 47468095 L68916904 47610952 L68345476 48182380 L68964523 48182380 "/>
<svg:path d="M69869285 47182380 L69393095 47182380 L69345476 47658571 L69393095 47610952 L69488333 47563333 L69726428 47563333 L69821666 47610952 L69869285 47658571 L69916904 47753809 L69916904 47991904 L69869285 48087142 L69821666 48134761 L69726428 48182380 L69488333 48182380 L69393095 48134761 L69345476 48087142 "/>
<svg:path d="M70774047 47515714 L70774047 48182380 "/>
<svg:path d="M70535952 47134761 L70297857 47849047 L70916904 47849047 "/>
<svg:path d="M71297857 48182380 L71297857 47182380 "/>
<svg:path d="M71297857 47658571 L71869285 47658571 "/>
<svg:path d="M71869285 48182380 L71869285 47182380 "/>
</svg:g></svg:g>
<svg:g style="fill:#F2EDA1; fill-opacity:0.0;  stroke:#F2EDA1; stroke-width:120000.000000; stroke-opacity:1;  stroke-linecap:round; stroke-linejoin:round;">
<svg:path d="M53980000 89370000 L56640000 89370000 "/>
<svg:path d="M56640000 49920000 L62640000 49920000 "/>
<svg:path d="M51042929 57240000 L51497071 57240000 "/>
<svg:path d="M56640000 48670000 L53980000 48670000 "/>
<svg:path d="M53980000 71590000 L56640000 71590000 "/>
<svg:path d="M62640000 91020000 L56640000 91020000 "/>
<svg:path d="M53980000 74130000 L56640000 74130000 "/>
<svg:path d="M62640000 83400000 L56640000 83400000 "/>
<svg:path d="M56640000 64860000 L62640000 64860000 "/>
<svg:path d="M53582929 70700000 L53980000 70700000 "/>
<svg:path d="M53582929 73240000 L53980000 73240000 "/>
<svg:path d="M53582929 78320000 L53980000 78320000 "/>
<svg:path d="M56640000 57240000 L62640000 57240000 "/>
<svg:path d="M53582929 92800000 L53980000 92800000 "/>
<svg:path d="M62640000 60540000 L56640000 60540000 "/>
<svg:path d="M62640000 67400000 L62640000 68160000 "/>
<svg:path d="M53980000 79210000 L56640000 79210000 "/>
<svg:path d="M62640000 85180000 L62640000 85940000 "/>
<svg:path d="M51042929 90260000 L51497071 90260000 "/>
<svg:path d="M51042929 72480000 L51497071 72480000 "/>
<svg:path d="M53582929 55460000 L53980000 55460000 "/>
<svg:path d="M51042929 75020000 L51497071 75020000 "/>
<svg:path d="M56640000 59780000 L62640000 59780000 "/>
<svg:path d="M62640000 54700000 L62640000 55460000 "/>
<svg:path d="M62640000 64860000 L62640000 65620000 "/>
<svg:path d="M51042929 65620000 L51497071 65620000 "/>
<svg:path d="M51042929 73240000 L51497071 73240000 "/>
<svg:path d="M56640000 77560000 L62640000 77560000 "/>
<svg:path d="M51042929 70700000 L51497071 70700000 "/>
<svg:path d="M62640000 73240000 L56640000 73240000 "/>
<svg:path d="M56640000 80100000 L62640000 80100000 "/>
<svg:path d="M53582929 65620000 L53980000 65620000 "/>
<svg:path d="M62640000 69940000 L62640000 70700000 "/>
<svg:path d="M51042929 80860000 L51497071 80860000 "/>
<svg:path d="M56640000 72480000 L62640000 72480000 "/>
<svg:path d="M51042929 91020000 L51497071 91020000 "/>
<svg:path d="M56640000 87720000 L62640000 87720000 "/>
<svg:path d="M62640000 78320000 L56640000 78320000 "/>
<svg:path d="M53582929 88480000 L53980000 88480000 "/>
<svg:path d="M53980000 51270000 L56640000 51270000 "/>
<svg:path d="M53980000 48670000 L53980000 94510000 "/>
<svg:path d="M56640000 52160000 L62640000 52160000 "/>
<svg:path d="M53980000 94510000 L56640000 94510000 "/>
<svg:path d="M53582929 69940000 L53980000 69940000 "/>
<svg:path d="M53582929 54700000 L53980000 54700000 "/>
<svg:path d="M56640000 49620000 L62640000 49620000 "/>
<svg:path d="M56640000 85180000 L62640000 85180000 "/>
<svg:path d="M56640000 54700000 L62640000 54700000 "/>
<svg:path d="M53582929 72480000 L53980000 72480000 "/>
<svg:path d="M62640000 70700000 L56640000 70700000 "/>
<svg:path d="M56640000 92800000 L62640000 92800000 "/>
<svg:path d="M51042929 93560000 L51497071 93560000 "/>
<svg:path d="M62640000 75020000 L62640000 75780000 "/>
<svg:path d="M62640000 80100000 L62640000 80860000 "/>
<svg:path d="M62640000 68160000 L56640000 68160000 "/>
<svg:path d="M62640000 59780000 L62640000 60540000 "/>
<svg:path d="M62640000 52160000 L62640000 52920000 "/>
<svg:path d="M51042929 85180000 L51497071 85180000 "/>
<svg:path d="M53582929 64860000 L53980000 64860000 "/>
<svg:path d="M62640000 80860000 L56640000 80860000 "/>
<svg:path d="M62640000 92800000 L62640000 93560000 "/>
<svg:path d="M53582929 85940000 L53980000 85940000 "/>
<svg:path d="M53582929 87720000 L53980000 87720000 "/>
<svg:path d="M53582929 91020000 L53980000 91020000 "/>
<svg:path d="M56640000 75020000 L62640000 75020000 "/>
<svg:path d="M51042929 83400000 L51497071 83400000 "/>
<svg:path d="M51042929 77560000 L51497071 77560000 "/>
<svg:path d="M62640000 63080000 L56640000 63080000 "/>
<svg:path d="M51110000 49620000 L51497071 49620000 "/>
<svg:path d="M53582929 77560000 L53980000 77560000 "/>
<svg:path d="M62640000 88480000 L56640000 88480000 "/>
<svg:path d="M53582929 90260000 L53980000 90260000 "/>
<svg:path d="M53582929 75020000 L53980000 75020000 "/>
<svg:path d="M53980000 53810000 L56640000 53810000 "/>
<svg:path d="M53980000 76670000 L56640000 76670000 "/>
<svg:path d="M48730000 50000000 L48730000 48730000 "/>
<svg:path d="M51042929 82640000 L51497071 82640000 "/>
<svg:path d="M51042929 52160000 L51497071 52160000 "/>
<svg:path d="M62640000 50380000 L56640000 50380000 "/>
<svg:path d="M56640000 90260000 L62640000 90260000 "/>
<svg:path d="M62640000 82640000 L62640000 83400000 "/>
<svg:path d="M48730000 48730000 L50000000 48730000 "/>
<svg:path d="M62640000 75780000 L56640000 75780000 "/>
<svg:path d="M53582929 57240000 L53980000 57240000 "/>
<svg:path d="M53980000 56350000 L56640000 56350000 "/>
<svg:path d="M56640000 50040000 L62640000 50040000 "/>
<svg:path d="M56640000 82640000 L62640000 82640000 "/>
<svg:path d="M62640000 49620000 L62640000 50380000 "/>
<svg:path d="M51110000 50380000 L51497071 50380000 "/>
<svg:path d="M62640000 72480000 L62640000 73240000 "/>
<svg:path d="M62640000 55460000 L56640000 55460000 "/>
<svg:path d="M62640000 77560000 L62640000 78320000 "/>
<svg:path d="M56640000 50160000 L62640000 50160000 "/>
<svg:path d="M62640000 93560000 L56640000 93560000 "/>
<svg:path d="M53582929 52160000 L53980000 52160000 "/>
<svg:path d="M53582929 75780000 L53980000 75780000 "/>
<svg:path d="M53582929 80860000 L53980000 80860000 "/>
<svg:path d="M51042929 55460000 L51497071 55460000 "/>
<svg:path d="M53980000 81750000 L56640000 81750000 "/>
<svg:path d="M53582929 59780000 L53980000 59780000 "/>
<svg:path d="M51042929 78320000 L51497071 78320000 "/>
<svg:path d="M53582929 82640000 L53980000 82640000 "/>
<svg:path d="M51042929 52920000 L51497071 52920000 "/>
<svg:path d="M56640000 62320000 L62640000 62320000 "/>
<svg:path d="M53980000 63970000 L56640000 63970000 "/>
<svg:path d="M51042929 87720000 L51497071 87720000 "/>
<svg:path d="M56640000 49680000 L62640000 49680000 "/>
<svg:path d="M53582929 80100000 L53980000 80100000 "/>
<svg:path d="M53582929 68160000 L53980000 68160000 "/>
<svg:path d="M56640000 94510000 L56640000 48670000 "/>
<svg:path d="M62640000 87720000 L62640000 88480000 "/>
<svg:path d="M51042929 54700000 L51497071 54700000 "/>
<svg:path d="M51042929 80100000 L51497071 80100000 "/>
<svg:path d="M51042929 60540000 L51497071 60540000 "/>
<svg:path d="M62640000 85940000 L56640000 85940000 "/>
<svg:path d="M53582929 58000000 L53980000 58000000 "/>
<svg:path d="M53582929 83400000 L53980000 83400000 "/>
<svg:path d="M51042929 58000000 L51497071 58000000 "/>
<svg:path d="M51042929 75780000 L51497071 75780000 "/>
<svg:path d="M51042929 92800000 L51497071 92800000 "/>
<svg:path d="M51042929 88480000 L51497071 88480000 "/>
<svg:path d="M56640000 69940000 L62640000 69940000 "/>
<svg:path d="M53980000 58890000 L56640000 58890000 "/>
<svg:path d="M51042929 64860000 L51497071 64860000 "/>
<svg:path d="M51042929 62320000 L51497071 62320000 "/>
<svg:path d="M53980000 86830000 L56640000 86830000 "/>
<svg:path d="M53582929 67400000 L53980000 67400000 "/>
<svg:path d="M53582929 50380000 L53980000 50380000 "/>
<svg:path d="M62640000 62320000 L62640000 63080000 "/>
<svg:path d="M53582929 85180000 L53980000 85180000 "/>
<svg:path d="M51042929 85940000 L51497071 85940000 "/>
<svg:path d="M51042929 68160000 L51497071 68160000 "/>
<svg:path d="M53980000 84290000 L56640000 84290000 "/>
<svg:path d="M56640000 49800000 L62640000 49800000 "/>
<svg:path d="M53582929 63080000 L53980000 63080000 "/>
<svg:path d="M53980000 61430000 L56640000 61430000 "/>
<svg:path d="M62640000 65620000 L56640000 65620000 "/>
<svg:path d="M56640000 67400000 L62640000 67400000 "/>
<svg:path d="M51042929 69940000 L51497071 69940000 "/>
<svg:path d="M53582929 93560000 L53980000 93560000 "/>
<svg:path d="M51042929 67400000 L51497071 67400000 "/>
<svg:path d="M53582929 49620000 L53980000 49620000 "/>
<svg:path d="M51042929 63080000 L51497071 63080000 "/>
<svg:path d="M53582929 52920000 L53980000 52920000 "/>
<svg:path d="M53980000 66510000 L56640000 66510000 "/>
<svg:path d="M53980000 69050000 L56640000 69050000 "/>
<svg:path d="M62640000 90260000 L62640000 91020000 "/>
<svg:path d="M62640000 58000000 L56640000 58000000 "/>
<svg:path d="M62640000 52920000 L56640000 52920000 "/>
<svg:path d="M53582929 62320000 L53980000 62320000 "/>
<svg:path d="M53582929 60540000 L53980000 60540000 "/>
<svg:path d="M51042929 59780000 L51497071 59780000 "/>
<svg:path d="M62640000 57240000 L62640000 58000000 "/>
<svg:path d="M53980000 91910000 L56640000 91910000 "/>
<svg:path d="M56640000 50280000 L62640000 50280000 "/>
<svg:g>
</svg:g>
<svg:g>
</svg:g>
<svg:g>
</svg:g>
<svg:g>
</svg:g>
</svg:g>
<svg:g style="fill:#000000; fill-opacity:0.0;  stroke:#000000; stroke-width:120000.000000; stroke-opacity:1;  stroke-linecap:round; stroke-linejoin:round;">
<svg:g>
</svg:g>
<svg:g>
</svg:g>
<svg:g>
</svg:g>
<svg:g>
</svg:g>
</svg:g> 
</svg:g><svg:g><svg:title>SVG Picture created as kicadBoard-Margin.svg date 2022/11/17 23:13:01 </svg:title>
  <svg:desc>Picture generated by PCBNEW </svg:desc>
<svg:g style="fill:#000000; fill-opacity:1.000000;stroke:#000000; stroke-opacity:1.000000; stroke-linecap:round; stroke-linejoin:round;" transform="translate(0 0) scale(1 1)">
</svg:g>
<svg:g style="fill:#000000; fill-opacity:0.0;  stroke:#000000; stroke-width:0.000000; stroke-opacity:1;  stroke-linecap:round; stroke-linejoin:round;">
<svg:g>
</svg:g>
<svg:g>
</svg:g>
<svg:g>
</svg:g>
<svg:g>
</svg:g>
</svg:g>
<svg:g style="fill:#000000; fill-opacity:0.0;  stroke:#000000; stroke-width:0.000000; stroke-opacity:1;  stroke-linecap:round; stroke-linejoin:round;">
<svg:g>
</svg:g>
<svg:g>
</svg:g>
<svg:g>
</svg:g>
<svg:g>
</svg:g>
</svg:g> 
</svg:g><svg:g><svg:title>SVG Picture created as kicadBoard-F_Cu.svg date 2022/11/17 23:13:01 </svg:title>
  <svg:desc>Picture generated by PCBNEW </svg:desc>
<svg:g style="fill:#000000; fill-opacity:1.000000;stroke:#000000; stroke-opacity:1.000000; stroke-linecap:round; stroke-linejoin:round;" transform="translate(0 0) scale(1 1)">
</svg:g>
<svg:g style="fill:#000000; fill-opacity:0.0;  stroke:#000000; stroke-width:0.000000; stroke-opacity:1;  stroke-linecap:round; stroke-linejoin:round;">
<svg:g>
</svg:g>
<svg:g style="fill:#C83434; fill-opacity:0.0;  stroke:#C83434; stroke-width:0.000000; stroke-opacity:1;  stroke-linecap:round; stroke-linejoin:round;">
</svg:g>
<svg:g style="fill:#C83434; fill-opacity:0.0;  stroke:#C83434; stroke-width:1.000000; stroke-opacity:1;  stroke-linecap:round; stroke-linejoin:round;">
</svg:g>
<svg:g style="fill:#C83434; fill-opacity:1.0;  stroke:#C83434; stroke-width:1.000000; stroke-opacity:1;  stroke-linecap:round; stroke-linejoin:round;">
<svg:path style="fill:#C83434; fill-opacity:1.0;  stroke:#C83434; stroke-width:1.000000; stroke-opacity:1;  stroke-linecap:round; stroke-linejoin:round;fill-rule:evenodd;" d="M 49150000.000000,50850000.000000 49150000.000000,49150000.000000 50850000.000000,49150000.000000 50850000.000000,50850000.000000 Z"/> 
<svg:circle cx="52540000.000000" cy="50000000.000000" r="850000.000000"/> 
<svg:circle cx="50000000.000000" cy="52540000.000000" r="850000.000000"/> 
<svg:circle cx="52540000.000000" cy="52540000.000000" r="850000.000000"/> 
<svg:circle cx="50000000.000000" cy="55080000.000000" r="850000.000000"/> 
<svg:circle cx="52540000.000000" cy="55080000.000000" r="850000.000000"/> 
<svg:circle cx="50000000.000000" cy="57620000.000000" r="850000.000000"/> 
<svg:circle cx="52540000.000000" cy="57620000.000000" r="850000.000000"/> 
<svg:circle cx="50000000.000000" cy="60160000.000000" r="850000.000000"/> 
<svg:circle cx="52540000.000000" cy="60160000.000000" r="850000.000000"/> 
<svg:circle cx="50000000.000000" cy="62700000.000000" r="850000.000000"/> 
<svg:circle cx="52540000.000000" cy="62700000.000000" r="850000.000000"/> 
<svg:circle cx="50000000.000000" cy="65240000.000000" r="850000.000000"/> 
<svg:circle cx="52540000.000000" cy="65240000.000000" r="850000.000000"/> 
<svg:circle cx="50000000.000000" cy="67780000.000000" r="850000.000000"/> 
<svg:circle cx="52540000.000000" cy="67780000.000000" r="850000.000000"/> 
<svg:circle cx="50000000.000000" cy="70320000.000000" r="850000.000000"/> 
<svg:circle cx="52540000.000000" cy="70320000.000000" r="850000.000000"/> 
<svg:circle cx="50000000.000000" cy="72860000.000000" r="850000.000000"/> 
<svg:circle cx="52540000.000000" cy="72860000.000000" r="850000.000000"/> 
<svg:circle cx="50000000.000000" cy="75400000.000000" r="850000.000000"/> 
<svg:circle cx="52540000.000000" cy="75400000.000000" r="850000.000000"/> 
<svg:circle cx="50000000.000000" cy="77940000.000000" r="850000.000000"/> 
<svg:circle cx="52540000.000000" cy="77940000.000000" r="850000.000000"/> 
<svg:circle cx="50000000.000000" cy="80480000.000000" r="850000.000000"/> 
<svg:circle cx="52540000.000000" cy="80480000.000000" r="850000.000000"/> 
<svg:circle cx="50000000.000000" cy="83020000.000000" r="850000.000000"/> 
<svg:circle cx="52540000.000000" cy="83020000.000000" r="850000.000000"/> 
<svg:circle cx="50000000.000000" cy="85560000.000000" r="850000.000000"/> 
<svg:circle cx="52540000.000000" cy="85560000.000000" r="850000.000000"/> 
<svg:circle cx="50000000.000000" cy="88100000.000000" r="850000.000000"/> 
<svg:circle cx="52540000.000000" cy="88100000.000000" r="850000.000000"/> 
<svg:circle cx="50000000.000000" cy="90640000.000000" r="850000.000000"/> 
<svg:circle cx="52540000.000000" cy="90640000.000000" r="850000.000000"/> 
<svg:circle cx="50000000.000000" cy="93180000.000000" r="850000.000000"/> 
<svg:circle cx="52540000.000000" cy="93180000.000000" r="850000.000000"/> 
</svg:g>
<svg:g>
</svg:g>
<svg:g>
</svg:g>
<svg:g>
</svg:g>
</svg:g>
<svg:g style="fill:#FFFFFF; fill-opacity:1.0;  stroke:#FFFFFF; stroke-width:1.000000; stroke-opacity:1;  stroke-linecap:round; stroke-linejoin:round;">
<svg:circle cx="50000000.000000" cy="50000000.000000" r="500000.000000"/> 
</svg:g>
<svg:g style="fill:#FFFFFF; fill-opacity:1.0;  stroke:#FFFFFF; stroke-width:21200.000000; stroke-opacity:1;  stroke-linecap:round; stroke-linejoin:round;">
</svg:g>
<svg:g style="fill:#FFFFFF; fill-opacity:1.0;  stroke:#FFFFFF; stroke-width:1.000000; stroke-opacity:1;  stroke-linecap:round; stroke-linejoin:round;">
<svg:circle cx="52540000.000000" cy="50000000.000000" r="500000.000000"/> 
</svg:g>
<svg:g style="fill:#FFFFFF; fill-opacity:1.0;  stroke:#FFFFFF; stroke-width:21200.000000; stroke-opacity:1;  stroke-linecap:round; stroke-linejoin:round;">
</svg:g>
<svg:g style="fill:#FFFFFF; fill-opacity:1.0;  stroke:#FFFFFF; stroke-width:1.000000; stroke-opacity:1;  stroke-linecap:round; stroke-linejoin:round;">
<svg:circle cx="50000000.000000" cy="52540000.000000" r="500000.000000"/> 
</svg:g>
<svg:g style="fill:#FFFFFF; fill-opacity:1.0;  stroke:#FFFFFF; stroke-width:21200.000000; stroke-opacity:1;  stroke-linecap:round; stroke-linejoin:round;">
</svg:g>
<svg:g style="fill:#FFFFFF; fill-opacity:1.0;  stroke:#FFFFFF; stroke-width:1.000000; stroke-opacity:1;  stroke-linecap:round; stroke-linejoin:round;">
<svg:circle cx="52540000.000000" cy="52540000.000000" r="500000.000000"/> 
</svg:g>
<svg:g style="fill:#FFFFFF; fill-opacity:1.0;  stroke:#FFFFFF; stroke-width:21200.000000; stroke-opacity:1;  stroke-linecap:round; stroke-linejoin:round;">
</svg:g>
<svg:g style="fill:#FFFFFF; fill-opacity:1.0;  stroke:#FFFFFF; stroke-width:1.000000; stroke-opacity:1;  stroke-linecap:round; stroke-linejoin:round;">
<svg:circle cx="50000000.000000" cy="55080000.000000" r="500000.000000"/> 
</svg:g>
<svg:g style="fill:#FFFFFF; fill-opacity:1.0;  stroke:#FFFFFF; stroke-width:21200.000000; stroke-opacity:1;  stroke-linecap:round; stroke-linejoin:round;">
</svg:g>
<svg:g style="fill:#FFFFFF; fill-opacity:1.0;  stroke:#FFFFFF; stroke-width:1.000000; stroke-opacity:1;  stroke-linecap:round; stroke-linejoin:round;">
<svg:circle cx="52540000.000000" cy="55080000.000000" r="500000.000000"/> 
</svg:g>
<svg:g style="fill:#FFFFFF; fill-opacity:1.0;  stroke:#FFFFFF; stroke-width:21200.000000; stroke-opacity:1;  stroke-linecap:round; stroke-linejoin:round;">
</svg:g>
<svg:g style="fill:#FFFFFF; fill-opacity:1.0;  stroke:#FFFFFF; stroke-width:1.000000; stroke-opacity:1;  stroke-linecap:round; stroke-linejoin:round;">
<svg:circle cx="50000000.000000" cy="57620000.000000" r="500000.000000"/> 
</svg:g>
<svg:g style="fill:#FFFFFF; fill-opacity:1.0;  stroke:#FFFFFF; stroke-width:21200.000000; stroke-opacity:1;  stroke-linecap:round; stroke-linejoin:round;">
</svg:g>
<svg:g style="fill:#FFFFFF; fill-opacity:1.0;  stroke:#FFFFFF; stroke-width:1.000000; stroke-opacity:1;  stroke-linecap:round; stroke-linejoin:round;">
<svg:circle cx="52540000.000000" cy="57620000.000000" r="500000.000000"/> 
</svg:g>
<svg:g style="fill:#FFFFFF; fill-opacity:1.0;  stroke:#FFFFFF; stroke-width:21200.000000; stroke-opacity:1;  stroke-linecap:round; stroke-linejoin:round;">
</svg:g>
<svg:g style="fill:#FFFFFF; fill-opacity:1.0;  stroke:#FFFFFF; stroke-width:1.000000; stroke-opacity:1;  stroke-linecap:round; stroke-linejoin:round;">
<svg:circle cx="50000000.000000" cy="60160000.000000" r="500000.000000"/> 
</svg:g>
<svg:g style="fill:#FFFFFF; fill-opacity:1.0;  stroke:#FFFFFF; stroke-width:21200.000000; stroke-opacity:1;  stroke-linecap:round; stroke-linejoin:round;">
</svg:g>
<svg:g style="fill:#FFFFFF; fill-opacity:1.0;  stroke:#FFFFFF; stroke-width:1.000000; stroke-opacity:1;  stroke-linecap:round; stroke-linejoin:round;">
<svg:circle cx="52540000.000000" cy="60160000.000000" r="500000.000000"/> 
</svg:g>
<svg:g style="fill:#FFFFFF; fill-opacity:1.0;  stroke:#FFFFFF; stroke-width:21200.000000; stroke-opacity:1;  stroke-linecap:round; stroke-linejoin:round;">
</svg:g>
<svg:g style="fill:#FFFFFF; fill-opacity:1.0;  stroke:#FFFFFF; stroke-width:1.000000; stroke-opacity:1;  stroke-linecap:round; stroke-linejoin:round;">
<svg:circle cx="50000000.000000" cy="62700000.000000" r="500000.000000"/> 
</svg:g>
<svg:g style="fill:#FFFFFF; fill-opacity:1.0;  stroke:#FFFFFF; stroke-width:21200.000000; stroke-opacity:1;  stroke-linecap:round; stroke-linejoin:round;">
</svg:g>
<svg:g style="fill:#FFFFFF; fill-opacity:1.0;  stroke:#FFFFFF; stroke-width:1.000000; stroke-opacity:1;  stroke-linecap:round; stroke-linejoin:round;">
<svg:circle cx="52540000.000000" cy="62700000.000000" r="500000.000000"/> 
</svg:g>
<svg:g style="fill:#FFFFFF; fill-opacity:1.0;  stroke:#FFFFFF; stroke-width:21200.000000; stroke-opacity:1;  stroke-linecap:round; stroke-linejoin:round;">
</svg:g>
<svg:g style="fill:#FFFFFF; fill-opacity:1.0;  stroke:#FFFFFF; stroke-width:1.000000; stroke-opacity:1;  stroke-linecap:round; stroke-linejoin:round;">
<svg:circle cx="50000000.000000" cy="65240000.000000" r="500000.000000"/> 
</svg:g>
<svg:g style="fill:#FFFFFF; fill-opacity:1.0;  stroke:#FFFFFF; stroke-width:21200.000000; stroke-opacity:1;  stroke-linecap:round; stroke-linejoin:round;">
</svg:g>
<svg:g style="fill:#FFFFFF; fill-opacity:1.0;  stroke:#FFFFFF; stroke-width:1.000000; stroke-opacity:1;  stroke-linecap:round; stroke-linejoin:round;">
<svg:circle cx="52540000.000000" cy="65240000.000000" r="500000.000000"/> 
</svg:g>
<svg:g style="fill:#FFFFFF; fill-opacity:1.0;  stroke:#FFFFFF; stroke-width:21200.000000; stroke-opacity:1;  stroke-linecap:round; stroke-linejoin:round;">
</svg:g>
<svg:g style="fill:#FFFFFF; fill-opacity:1.0;  stroke:#FFFFFF; stroke-width:1.000000; stroke-opacity:1;  stroke-linecap:round; stroke-linejoin:round;">
<svg:circle cx="50000000.000000" cy="67780000.000000" r="500000.000000"/> 
</svg:g>
<svg:g style="fill:#FFFFFF; fill-opacity:1.0;  stroke:#FFFFFF; stroke-width:21200.000000; stroke-opacity:1;  stroke-linecap:round; stroke-linejoin:round;">
</svg:g>
<svg:g style="fill:#FFFFFF; fill-opacity:1.0;  stroke:#FFFFFF; stroke-width:1.000000; stroke-opacity:1;  stroke-linecap:round; stroke-linejoin:round;">
<svg:circle cx="52540000.000000" cy="67780000.000000" r="500000.000000"/> 
</svg:g>
<svg:g style="fill:#FFFFFF; fill-opacity:1.0;  stroke:#FFFFFF; stroke-width:21200.000000; stroke-opacity:1;  stroke-linecap:round; stroke-linejoin:round;">
</svg:g>
<svg:g style="fill:#FFFFFF; fill-opacity:1.0;  stroke:#FFFFFF; stroke-width:1.000000; stroke-opacity:1;  stroke-linecap:round; stroke-linejoin:round;">
<svg:circle cx="50000000.000000" cy="70320000.000000" r="500000.000000"/> 
</svg:g>
<svg:g style="fill:#FFFFFF; fill-opacity:1.0;  stroke:#FFFFFF; stroke-width:21200.000000; stroke-opacity:1;  stroke-linecap:round; stroke-linejoin:round;">
</svg:g>
<svg:g style="fill:#FFFFFF; fill-opacity:1.0;  stroke:#FFFFFF; stroke-width:1.000000; stroke-opacity:1;  stroke-linecap:round; stroke-linejoin:round;">
<svg:circle cx="52540000.000000" cy="70320000.000000" r="500000.000000"/> 
</svg:g>
<svg:g style="fill:#FFFFFF; fill-opacity:1.0;  stroke:#FFFFFF; stroke-width:21200.000000; stroke-opacity:1;  stroke-linecap:round; stroke-linejoin:round;">
</svg:g>
<svg:g style="fill:#FFFFFF; fill-opacity:1.0;  stroke:#FFFFFF; stroke-width:1.000000; stroke-opacity:1;  stroke-linecap:round; stroke-linejoin:round;">
<svg:circle cx="50000000.000000" cy="72860000.000000" r="500000.000000"/> 
</svg:g>
<svg:g style="fill:#FFFFFF; fill-opacity:1.0;  stroke:#FFFFFF; stroke-width:21200.000000; stroke-opacity:1;  stroke-linecap:round; stroke-linejoin:round;">
</svg:g>
<svg:g style="fill:#FFFFFF; fill-opacity:1.0;  stroke:#FFFFFF; stroke-width:1.000000; stroke-opacity:1;  stroke-linecap:round; stroke-linejoin:round;">
<svg:circle cx="52540000.000000" cy="72860000.000000" r="500000.000000"/> 
</svg:g>
<svg:g style="fill:#FFFFFF; fill-opacity:1.0;  stroke:#FFFFFF; stroke-width:21200.000000; stroke-opacity:1;  stroke-linecap:round; stroke-linejoin:round;">
</svg:g>
<svg:g style="fill:#FFFFFF; fill-opacity:1.0;  stroke:#FFFFFF; stroke-width:1.000000; stroke-opacity:1;  stroke-linecap:round; stroke-linejoin:round;">
<svg:circle cx="50000000.000000" cy="75400000.000000" r="500000.000000"/> 
</svg:g>
<svg:g style="fill:#FFFFFF; fill-opacity:1.0;  stroke:#FFFFFF; stroke-width:21200.000000; stroke-opacity:1;  stroke-linecap:round; stroke-linejoin:round;">
</svg:g>
<svg:g style="fill:#FFFFFF; fill-opacity:1.0;  stroke:#FFFFFF; stroke-width:1.000000; stroke-opacity:1;  stroke-linecap:round; stroke-linejoin:round;">
<svg:circle cx="52540000.000000" cy="75400000.000000" r="500000.000000"/> 
</svg:g>
<svg:g style="fill:#FFFFFF; fill-opacity:1.0;  stroke:#FFFFFF; stroke-width:21200.000000; stroke-opacity:1;  stroke-linecap:round; stroke-linejoin:round;">
</svg:g>
<svg:g style="fill:#FFFFFF; fill-opacity:1.0;  stroke:#FFFFFF; stroke-width:1.000000; stroke-opacity:1;  stroke-linecap:round; stroke-linejoin:round;">
<svg:circle cx="50000000.000000" cy="77940000.000000" r="500000.000000"/> 
</svg:g>
<svg:g style="fill:#FFFFFF; fill-opacity:1.0;  stroke:#FFFFFF; stroke-width:21200.000000; stroke-opacity:1;  stroke-linecap:round; stroke-linejoin:round;">
</svg:g>
<svg:g style="fill:#FFFFFF; fill-opacity:1.0;  stroke:#FFFFFF; stroke-width:1.000000; stroke-opacity:1;  stroke-linecap:round; stroke-linejoin:round;">
<svg:circle cx="52540000.000000" cy="77940000.000000" r="500000.000000"/> 
</svg:g>
<svg:g style="fill:#FFFFFF; fill-opacity:1.0;  stroke:#FFFFFF; stroke-width:21200.000000; stroke-opacity:1;  stroke-linecap:round; stroke-linejoin:round;">
</svg:g>
<svg:g style="fill:#FFFFFF; fill-opacity:1.0;  stroke:#FFFFFF; stroke-width:1.000000; stroke-opacity:1;  stroke-linecap:round; stroke-linejoin:round;">
<svg:circle cx="50000000.000000" cy="80480000.000000" r="500000.000000"/> 
</svg:g>
<svg:g style="fill:#FFFFFF; fill-opacity:1.0;  stroke:#FFFFFF; stroke-width:21200.000000; stroke-opacity:1;  stroke-linecap:round; stroke-linejoin:round;">
</svg:g>
<svg:g style="fill:#FFFFFF; fill-opacity:1.0;  stroke:#FFFFFF; stroke-width:1.000000; stroke-opacity:1;  stroke-linecap:round; stroke-linejoin:round;">
<svg:circle cx="52540000.000000" cy="80480000.000000" r="500000.000000"/> 
</svg:g>
<svg:g style="fill:#FFFFFF; fill-opacity:1.0;  stroke:#FFFFFF; stroke-width:21200.000000; stroke-opacity:1;  stroke-linecap:round; stroke-linejoin:round;">
</svg:g>
<svg:g style="fill:#FFFFFF; fill-opacity:1.0;  stroke:#FFFFFF; stroke-width:1.000000; stroke-opacity:1;  stroke-linecap:round; stroke-linejoin:round;">
<svg:circle cx="50000000.000000" cy="83020000.000000" r="500000.000000"/> 
</svg:g>
<svg:g style="fill:#FFFFFF; fill-opacity:1.0;  stroke:#FFFFFF; stroke-width:21200.000000; stroke-opacity:1;  stroke-linecap:round; stroke-linejoin:round;">
</svg:g>
<svg:g style="fill:#FFFFFF; fill-opacity:1.0;  stroke:#FFFFFF; stroke-width:1.000000; stroke-opacity:1;  stroke-linecap:round; stroke-linejoin:round;">
<svg:circle cx="52540000.000000" cy="83020000.000000" r="500000.000000"/> 
</svg:g>
<svg:g style="fill:#FFFFFF; fill-opacity:1.0;  stroke:#FFFFFF; stroke-width:21200.000000; stroke-opacity:1;  stroke-linecap:round; stroke-linejoin:round;">
</svg:g>
<svg:g style="fill:#FFFFFF; fill-opacity:1.0;  stroke:#FFFFFF; stroke-width:1.000000; stroke-opacity:1;  stroke-linecap:round; stroke-linejoin:round;">
<svg:circle cx="50000000.000000" cy="85560000.000000" r="500000.000000"/> 
</svg:g>
<svg:g style="fill:#FFFFFF; fill-opacity:1.0;  stroke:#FFFFFF; stroke-width:21200.000000; stroke-opacity:1;  stroke-linecap:round; stroke-linejoin:round;">
</svg:g>
<svg:g style="fill:#FFFFFF; fill-opacity:1.0;  stroke:#FFFFFF; stroke-width:1.000000; stroke-opacity:1;  stroke-linecap:round; stroke-linejoin:round;">
<svg:circle cx="52540000.000000" cy="85560000.000000" r="500000.000000"/> 
</svg:g>
<svg:g style="fill:#FFFFFF; fill-opacity:1.0;  stroke:#FFFFFF; stroke-width:21200.000000; stroke-opacity:1;  stroke-linecap:round; stroke-linejoin:round;">
</svg:g>
<svg:g style="fill:#FFFFFF; fill-opacity:1.0;  stroke:#FFFFFF; stroke-width:1.000000; stroke-opacity:1;  stroke-linecap:round; stroke-linejoin:round;">
<svg:circle cx="50000000.000000" cy="88100000.000000" r="500000.000000"/> 
</svg:g>
<svg:g style="fill:#FFFFFF; fill-opacity:1.0;  stroke:#FFFFFF; stroke-width:21200.000000; stroke-opacity:1;  stroke-linecap:round; stroke-linejoin:round;">
</svg:g>
<svg:g style="fill:#FFFFFF; fill-opacity:1.0;  stroke:#FFFFFF; stroke-width:1.000000; stroke-opacity:1;  stroke-linecap:round; stroke-linejoin:round;">
<svg:circle cx="52540000.000000" cy="88100000.000000" r="500000.000000"/> 
</svg:g>
<svg:g style="fill:#FFFFFF; fill-opacity:1.0;  stroke:#FFFFFF; stroke-width:21200.000000; stroke-opacity:1;  stroke-linecap:round; stroke-linejoin:round;">
</svg:g>
<svg:g style="fill:#FFFFFF; fill-opacity:1.0;  stroke:#FFFFFF; stroke-width:1.000000; stroke-opacity:1;  stroke-linecap:round; stroke-linejoin:round;">
<svg:circle cx="50000000.000000" cy="90640000.000000" r="500000.000000"/> 
</svg:g>
<svg:g style="fill:#FFFFFF; fill-opacity:1.0;  stroke:#FFFFFF; stroke-width:21200.000000; stroke-opacity:1;  stroke-linecap:round; stroke-linejoin:round;">
</svg:g>
<svg:g style="fill:#FFFFFF; fill-opacity:1.0;  stroke:#FFFFFF; stroke-width:1.000000; stroke-opacity:1;  stroke-linecap:round; stroke-linejoin:round;">
<svg:circle cx="52540000.000000" cy="90640000.000000" r="500000.000000"/> 
</svg:g>
<svg:g style="fill:#FFFFFF; fill-opacity:1.0;  stroke:#FFFFFF; stroke-width:21200.000000; stroke-opacity:1;  stroke-linecap:round; stroke-linejoin:round;">
</svg:g>
<svg:g style="fill:#FFFFFF; fill-opacity:1.0;  stroke:#FFFFFF; stroke-width:1.000000; stroke-opacity:1;  stroke-linecap:round; stroke-linejoin:round;">
<svg:circle cx="50000000.000000" cy="93180000.000000" r="500000.000000"/> 
</svg:g>
<svg:g style="fill:#FFFFFF; fill-opacity:1.0;  stroke:#FFFFFF; stroke-width:21200.000000; stroke-opacity:1;  stroke-linecap:round; stroke-linejoin:round;">
</svg:g>
<svg:g style="fill:#FFFFFF; fill-opacity:1.0;  stroke:#FFFFFF; stroke-width:1.000000; stroke-opacity:1;  stroke-linecap:round; stroke-linejoin:round;">
<svg:circle cx="52540000.000000" cy="93180000.000000" r="500000.000000"/> 
</svg:g>
<svg:g style="fill:#FFFFFF; fill-opacity:1.0;  stroke:#FFFFFF; stroke-width:21200.000000; stroke-opacity:1;  stroke-linecap:round; stroke-linejoin:round;">
</svg:g>
<svg:g style="fill:#000000; fill-opacity:1.0;  stroke:#000000; stroke-width:21200.000000; stroke-opacity:1;  stroke-linecap:round; stroke-linejoin:round;">
<svg:g>
</svg:g>
<svg:g>
</svg:g>
<svg:g>
</svg:g>
<svg:g>
</svg:g>
</svg:g> 
</svg:g></svg>
