<?xml version='1.0' encoding='ASCII' standalone='yes'?>
<svg xmlns:svg="http://www.w3.org/2000/svg" xmlns="http://www.w3.org/2000/svg" xmlns:xlink="http://www.w3.org/1999/xlink" version="1.1" width="9.999980cm" height="9.999980cm" viewBox="0 0 99999800 99999800">
<title>SVG Picture created as kicadBoard-B_Cu.svg date 2022/11/17 01:10:22 </title>
  <desc>Picture generated by PCBNEW </desc>
<g style="fill:#000000; fill-opacity:1.000000;stroke:#000000; stroke-opacity:1.000000; stroke-linecap:round; stroke-linejoin:round;" transform="translate(0 0) scale(1 1)">
</g>
<g style="fill:#000000; fill-opacity:0.0;  stroke:#000000; stroke-width:0.000000; stroke-opacity:1;  stroke-linecap:round; stroke-linejoin:round;">
<g>
</g>
<g style="fill:#4D7FC4; fill-opacity:0.0;  stroke:#4D7FC4; stroke-width:0.000000; stroke-opacity:1;  stroke-linecap:round; stroke-linejoin:round;">
</g>
<g style="fill:#4D7FC4; fill-opacity:0.0;  stroke:#4D7FC4; stroke-width:1.000000; stroke-opacity:1;  stroke-linecap:round; stroke-linejoin:round;">
</g>
<g style="fill:#4D7FC4; fill-opacity:1.0;  stroke:#4D7FC4; stroke-width:1.000000; stroke-opacity:1;  stroke-linecap:round; stroke-linejoin:round;">
<path style="fill:#4D7FC4; fill-opacity:1.0;  stroke:#4D7FC4; stroke-width:1.000000; stroke-opacity:1;  stroke-linecap:round; stroke-linejoin:round;fill-rule:evenodd;" d="M 49200000.000000,50800000.000000 49200000.000000,49200000.000000 50800000.000000,49200000.000000 50800000.000000,50800000.000000 Z"/> 
<circle cx="55000000.000000" cy="50000000.000000" r="800000.000000"/> 
</g>
<g style="fill:#4D7FC4; fill-opacity:1.0;  stroke:#4D7FC4; stroke-width:21200.000000; stroke-opacity:1;  stroke-linecap:round; stroke-linejoin:round;">
</g>
<g>
</g>
<g>
</g>
<g>
</g>
</g>
<g style="fill:#FFFFFF; fill-opacity:1.0;  stroke:#FFFFFF; stroke-width:21200.000000; stroke-opacity:1;  stroke-linecap:round; stroke-linejoin:round;">
</g>
<g style="fill:#FFFFFF; fill-opacity:1.0;  stroke:#FFFFFF; stroke-width:1.000000; stroke-opacity:1;  stroke-linecap:round; stroke-linejoin:round;">
<circle cx="50000000.000000" cy="50000000.000000" r="400000.000000"/> 
</g>
<g style="fill:#FFFFFF; fill-opacity:1.0;  stroke:#FFFFFF; stroke-width:21200.000000; stroke-opacity:1;  stroke-linecap:round; stroke-linejoin:round;">
</g>
<g style="fill:#FFFFFF; fill-opacity:1.0;  stroke:#FFFFFF; stroke-width:1.000000; stroke-opacity:1;  stroke-linecap:round; stroke-linejoin:round;">
<circle cx="55000000.000000" cy="50000000.000000" r="400000.000000"/> 
</g>
<g style="fill:#FFFFFF; fill-opacity:1.0;  stroke:#FFFFFF; stroke-width:21200.000000; stroke-opacity:1;  stroke-linecap:round; stroke-linejoin:round;">
</g>
<g style="fill:#000000; fill-opacity:1.0;  stroke:#000000; stroke-width:21200.000000; stroke-opacity:1;  stroke-linecap:round; stroke-linejoin:round;">
<g>
</g>
<g>
</g>
<g>
</g>
<g>
</g>
</g> 
<svg:g><svg:title>SVG Picture created as kicadBoard-B_Adhesive.svg date 2022/11/17 01:10:22 </svg:title>
  <svg:desc>Picture generated by PCBNEW </svg:desc>
<svg:g style="fill:#000000; fill-opacity:1.000000;stroke:#000000; stroke-opacity:1.000000; stroke-linecap:round; stroke-linejoin:round;" transform="translate(0 0) scale(1 1)">
</svg:g>
<svg:g style="fill:#000000; fill-opacity:0.0;  stroke:#000000; stroke-width:0.000000; stroke-opacity:1;  stroke-linecap:round; stroke-linejoin:round;">
<svg:g>
</svg:g>
<svg:g>
</svg:g>
<svg:g>
</svg:g>
<svg:g>
</svg:g>
</svg:g>
<svg:g style="fill:#000000; fill-opacity:0.0;  stroke:#000000; stroke-width:0.000000; stroke-opacity:1;  stroke-linecap:round; stroke-linejoin:round;">
<svg:g>
</svg:g>
<svg:g>
</svg:g>
<svg:g>
</svg:g>
<svg:g>
</svg:g>
</svg:g> 
</svg:g><svg:g><svg:title>SVG Picture created as kicadBoard-B_Courtyard.svg date 2022/11/17 01:10:22 </svg:title>
  <svg:desc>Picture generated by PCBNEW </svg:desc>
<svg:g style="fill:#000000; fill-opacity:1.000000;stroke:#000000; stroke-opacity:1.000000; stroke-linecap:round; stroke-linejoin:round;" transform="translate(0 0) scale(1 1)">
</svg:g>
<svg:g style="fill:#000000; fill-opacity:0.0;  stroke:#000000; stroke-width:0.000000; stroke-opacity:1;  stroke-linecap:round; stroke-linejoin:round;">
<svg:g>
</svg:g>
<svg:g>
</svg:g>
<svg:g>
</svg:g>
<svg:g>
</svg:g>
</svg:g>
<svg:g style="fill:#000000; fill-opacity:0.0;  stroke:#000000; stroke-width:0.000000; stroke-opacity:1;  stroke-linecap:round; stroke-linejoin:round;">
<svg:g>
</svg:g>
<svg:g>
</svg:g>
<svg:g>
</svg:g>
<svg:g>
</svg:g>
</svg:g> 
</svg:g><svg:g><svg:title>SVG Picture created as kicadBoard-B_Fab.svg date 2022/11/17 01:10:22 </svg:title>
  <svg:desc>Picture generated by PCBNEW </svg:desc>
<svg:g style="fill:#000000; fill-opacity:1.000000;stroke:#000000; stroke-opacity:1.000000; stroke-linecap:round; stroke-linejoin:round;" transform="translate(0 0) scale(1 1)">
</svg:g>
<svg:g style="fill:#000000; fill-opacity:0.0;  stroke:#000000; stroke-width:0.000000; stroke-opacity:1;  stroke-linecap:round; stroke-linejoin:round;">
<svg:g>
</svg:g>
<svg:g>
</svg:g>
<svg:g>
</svg:g>
<svg:g>
</svg:g>
</svg:g>
<svg:g style="fill:#000000; fill-opacity:0.0;  stroke:#000000; stroke-width:0.000000; stroke-opacity:1;  stroke-linecap:round; stroke-linejoin:round;">
<svg:g>
</svg:g>
<svg:g>
</svg:g>
<svg:g>
</svg:g>
<svg:g>
</svg:g>
</svg:g> 
</svg:g><svg:g><svg:title>SVG Picture created as kicadBoard-B_Mask.svg date 2022/11/17 01:10:22 </svg:title>
  <svg:desc>Picture generated by PCBNEW </svg:desc>
<svg:g style="fill:#000000; fill-opacity:1.000000;stroke:#000000; stroke-opacity:1.000000; stroke-linecap:round; stroke-linejoin:round;" transform="translate(0 0) scale(1 1)">
</svg:g>
<svg:g style="fill:#000000; fill-opacity:0.0;  stroke:#000000; stroke-width:0.000000; stroke-opacity:1;  stroke-linecap:round; stroke-linejoin:round;">
<svg:g>
</svg:g>
<svg:g style="fill:#000000; fill-opacity:0.0;  stroke:#000000; stroke-width:1.000000; stroke-opacity:1;  stroke-linecap:round; stroke-linejoin:round;">
</svg:g>
<svg:g style="fill:#000000; fill-opacity:1.0;  stroke:#000000; stroke-width:1.000000; stroke-opacity:1;  stroke-linecap:round; stroke-linejoin:round;">
<svg:path style="fill:#000000; fill-opacity:1.0;  stroke:#000000; stroke-width:1.000000; stroke-opacity:1;  stroke-linecap:round; stroke-linejoin:round;fill-rule:evenodd;" d="M 49200000.000000,50800000.000000 49200000.000000,49200000.000000 50800000.000000,49200000.000000 50800000.000000,50800000.000000 Z"/> 
<svg:circle cx="55000000.000000" cy="50000000.000000" r="800000.000000"/> 
</svg:g>
<svg:g style="fill:#000000; fill-opacity:1.0;  stroke:#000000; stroke-width:21200.000000; stroke-opacity:1;  stroke-linecap:round; stroke-linejoin:round;">
</svg:g>
<svg:g>
</svg:g>
<svg:g>
</svg:g>
<svg:g>
</svg:g>
</svg:g>
<svg:g style="fill:#000000; fill-opacity:1.0;  stroke:#000000; stroke-width:21200.000000; stroke-opacity:1;  stroke-linecap:round; stroke-linejoin:round;">
<svg:g>
</svg:g>
<svg:g>
</svg:g>
<svg:g>
</svg:g>
<svg:g>
</svg:g>
</svg:g> 
</svg:g><svg:g><svg:title>SVG Picture created as kicadBoard-B_Paste.svg date 2022/11/17 01:10:22 </svg:title>
  <svg:desc>Picture generated by PCBNEW </svg:desc>
<svg:g style="fill:#000000; fill-opacity:1.000000;stroke:#000000; stroke-opacity:1.000000; stroke-linecap:round; stroke-linejoin:round;" transform="translate(0 0) scale(1 1)">
</svg:g>
<svg:g style="fill:#000000; fill-opacity:0.0;  stroke:#000000; stroke-width:0.000000; stroke-opacity:1;  stroke-linecap:round; stroke-linejoin:round;">
<svg:g>
</svg:g>
<svg:g>
</svg:g>
<svg:g>
</svg:g>
<svg:g>
</svg:g>
</svg:g>
<svg:g style="fill:#000000; fill-opacity:0.0;  stroke:#000000; stroke-width:0.000000; stroke-opacity:1;  stroke-linecap:round; stroke-linejoin:round;">
<svg:g>
</svg:g>
<svg:g>
</svg:g>
<svg:g>
</svg:g>
<svg:g>
</svg:g>
</svg:g> 
</svg:g><svg:g><svg:title>SVG Picture created as kicadBoard-B_Silkscreen.svg date 2022/11/17 01:10:22 </svg:title>
  <svg:desc>Picture generated by PCBNEW </svg:desc>
<svg:g style="fill:#000000; fill-opacity:1.000000;stroke:#000000; stroke-opacity:1.000000; stroke-linecap:round; stroke-linejoin:round;" transform="translate(0 0) scale(1 1)">
</svg:g>
<svg:g style="fill:#000000; fill-opacity:0.0;  stroke:#000000; stroke-width:0.000000; stroke-opacity:1;  stroke-linecap:round; stroke-linejoin:round;">
<svg:g>
</svg:g>
<svg:g>
</svg:g>
<svg:g>
</svg:g>
<svg:g>
</svg:g>
</svg:g>
<svg:g style="fill:#000000; fill-opacity:0.0;  stroke:#000000; stroke-width:0.000000; stroke-opacity:1;  stroke-linecap:round; stroke-linejoin:round;">
<svg:g>
</svg:g>
<svg:g>
</svg:g>
<svg:g>
</svg:g>
<svg:g>
</svg:g>
</svg:g> 
</svg:g><svg:g><svg:title>SVG Picture created as kicadBoard-Edge_Cuts.svg date 2022/11/17 01:10:22 </svg:title>
  <svg:desc>Picture generated by PCBNEW </svg:desc>
<svg:g style="fill:#000000; fill-opacity:1.000000;stroke:#000000; stroke-opacity:1.000000; stroke-linecap:round; stroke-linejoin:round;" transform="translate(0 0) scale(1 1)">
</svg:g>
<svg:g style="fill:#000000; fill-opacity:0.0;  stroke:#000000; stroke-width:0.000000; stroke-opacity:1;  stroke-linecap:round; stroke-linejoin:round;">
<svg:g>
</svg:g>
<svg:g>
</svg:g>
<svg:g>
</svg:g>
<svg:g>
</svg:g>
</svg:g> 
</svg:g><svg:g><svg:title>SVG Picture created as kicadBoard-F_Adhesive.svg date 2022/11/17 01:10:22 </svg:title>
  <svg:desc>Picture generated by PCBNEW </svg:desc>
<svg:g style="fill:#000000; fill-opacity:1.000000;stroke:#000000; stroke-opacity:1.000000; stroke-linecap:round; stroke-linejoin:round;" transform="translate(0 0) scale(1 1)">
</svg:g>
<svg:g style="fill:#000000; fill-opacity:0.0;  stroke:#000000; stroke-width:0.000000; stroke-opacity:1;  stroke-linecap:round; stroke-linejoin:round;">
<svg:g>
</svg:g>
<svg:g>
</svg:g>
<svg:g>
</svg:g>
<svg:g>
</svg:g>
</svg:g>
<svg:g style="fill:#000000; fill-opacity:0.0;  stroke:#000000; stroke-width:0.000000; stroke-opacity:1;  stroke-linecap:round; stroke-linejoin:round;">
<svg:g>
</svg:g>
<svg:g>
</svg:g>
<svg:g>
</svg:g>
<svg:g>
</svg:g>
</svg:g> 
</svg:g><svg:g><svg:title>SVG Picture created as kicadBoard-F_Courtyard.svg date 2022/11/17 01:10:22 </svg:title>
  <svg:desc>Picture generated by PCBNEW </svg:desc>
<svg:g style="fill:#000000; fill-opacity:1.000000;stroke:#000000; stroke-opacity:1.000000; stroke-linecap:round; stroke-linejoin:round;" transform="translate(0 0) scale(1 1)">
</svg:g>
<svg:g style="fill:#000000; fill-opacity:0.0;  stroke:#000000; stroke-width:0.000000; stroke-opacity:1;  stroke-linecap:round; stroke-linejoin:round;">
</svg:g>
<svg:g style="fill:#FF26E2; fill-opacity:0.0;  stroke:#FF26E2; stroke-width:0.000000; stroke-opacity:1;  stroke-linecap:round; stroke-linejoin:round;">
</svg:g>
<svg:g style="fill:#FF26E2; fill-opacity:0.0;  stroke:#FF26E2; stroke-width:50000.000000; stroke-opacity:1;  stroke-linecap:round; stroke-linejoin:round;">
<svg:circle cx="52500000.000000" cy="50000000.000000" r="5500000.000000"/> 
<svg:g>
</svg:g>
<svg:g>
</svg:g>
<svg:g>
</svg:g>
<svg:g>
</svg:g>
</svg:g>
<svg:g style="fill:#000000; fill-opacity:0.0;  stroke:#000000; stroke-width:50000.000000; stroke-opacity:1;  stroke-linecap:round; stroke-linejoin:round;">
<svg:g>
</svg:g>
<svg:g>
</svg:g>
<svg:g>
</svg:g>
<svg:g>
</svg:g>
</svg:g> 
</svg:g><svg:g><svg:title>SVG Picture created as kicadBoard-F_Fab.svg date 2022/11/17 01:10:22 </svg:title>
  <svg:desc>Picture generated by PCBNEW </svg:desc>
<svg:g style="fill:#000000; fill-opacity:1.000000;stroke:#000000; stroke-opacity:1.000000; stroke-linecap:round; stroke-linejoin:round;" transform="translate(0 0) scale(1 1)">
</svg:g>
<svg:g style="fill:#000000; fill-opacity:0.0;  stroke:#000000; stroke-width:0.000000; stroke-opacity:1;  stroke-linecap:round; stroke-linejoin:round;">
</svg:g>
<svg:g style="fill:#AFAFAF; fill-opacity:0.0;  stroke:#AFAFAF; stroke-width:0.000000; stroke-opacity:1;  stroke-linecap:round; stroke-linejoin:round;">
</svg:g>
<svg:g style="fill:#AFAFAF; fill-opacity:0.0;  stroke:#AFAFAF; stroke-width:150000.000000; stroke-opacity:1;  stroke-linecap:round; stroke-linejoin:round;">
<svg:text x="52500000.000000" y="57000000.000000" textLength="28528333.000000" font-size="1333333.000000" lengthAdjust="spacingAndGlyphs" text-anchor="middle" opacity="0">CP_Radial_Tantal_D10.5mm_P5.00mm</svg:text>
<svg:g class="stroked-text"><svg:desc>CP_Radial_Tantal_D10.5mm_P5.00mm</svg:desc>
<svg:path d="M39142857 56857142 L39095238 56904761 L38952380 56952380 L38857142 56952380 L38714285 56904761 L38619047 56809523 L38571428 56714285 L38523809 56523809 L38523809 56380952 L38571428 56190476 L38619047 56095238 L38714285 56000000 L38857142 55952380 L38952380 55952380 L39095238 56000000 L39142857 56047619 "/>
<svg:path d="M39571428 56952380 L39571428 55952380 L39952380 55952380 L40047619 56000000 L40095238 56047619 L40142857 56142857 L40142857 56285714 L40095238 56380952 L40047619 56428571 L39952380 56476190 L39571428 56476190 "/>
<svg:path d="M40333333 57047619 L41095238 57047619 "/>
<svg:path d="M41904761 56952380 L41571428 56476190 "/>
<svg:path d="M41333333 56952380 L41333333 55952380 L41714285 55952380 L41809523 56000000 L41857142 56047619 L41904761 56142857 L41904761 56285714 L41857142 56380952 L41809523 56428571 L41714285 56476190 L41333333 56476190 "/>
<svg:path d="M42761904 56952380 L42761904 56428571 L42714285 56333333 L42619047 56285714 L42428571 56285714 L42333333 56333333 "/>
<svg:path d="M42761904 56904761 L42666666 56952380 L42428571 56952380 L42333333 56904761 L42285714 56809523 L42285714 56714285 L42333333 56619047 L42428571 56571428 L42666666 56571428 L42761904 56523809 "/>
<svg:path d="M43666666 56952380 L43666666 55952380 "/>
<svg:path d="M43666666 56904761 L43571428 56952380 L43380952 56952380 L43285714 56904761 L43238095 56857142 L43190476 56761904 L43190476 56476190 L43238095 56380952 L43285714 56333333 L43380952 56285714 L43571428 56285714 L43666666 56333333 "/>
<svg:path d="M44142857 56952380 L44142857 56285714 "/>
<svg:path d="M44142857 55952380 L44095238 56000000 L44142857 56047619 L44190476 56000000 L44142857 55952380 L44142857 56047619 "/>
<svg:path d="M45047619 56952380 L45047619 56428571 L45000000 56333333 L44904761 56285714 L44714285 56285714 L44619047 56333333 "/>
<svg:path d="M45047619 56904761 L44952380 56952380 L44714285 56952380 L44619047 56904761 L44571428 56809523 L44571428 56714285 L44619047 56619047 L44714285 56571428 L44952380 56571428 L45047619 56523809 "/>
<svg:path d="M45666666 56952380 L45571428 56904761 L45523809 56809523 L45523809 55952380 "/>
<svg:path d="M45809523 57047619 L46571428 57047619 "/>
<svg:path d="M46666666 55952380 L47238095 55952380 "/>
<svg:path d="M46952380 56952380 L46952380 55952380 "/>
<svg:path d="M48000000 56952380 L48000000 56428571 L47952380 56333333 L47857142 56285714 L47666666 56285714 L47571428 56333333 "/>
<svg:path d="M48000000 56904761 L47904761 56952380 L47666666 56952380 L47571428 56904761 L47523809 56809523 L47523809 56714285 L47571428 56619047 L47666666 56571428 L47904761 56571428 L48000000 56523809 "/>
<svg:path d="M48476190 56285714 L48476190 56952380 "/>
<svg:path d="M48476190 56380952 L48523809 56333333 L48619047 56285714 L48761904 56285714 L48857142 56333333 L48904761 56428571 L48904761 56952380 "/>
<svg:path d="M49238095 56285714 L49619047 56285714 "/>
<svg:path d="M49380952 55952380 L49380952 56809523 L49428571 56904761 L49523809 56952380 L49619047 56952380 "/>
<svg:path d="M50380952 56952380 L50380952 56428571 L50333333 56333333 L50238095 56285714 L50047619 56285714 L49952380 56333333 "/>
<svg:path d="M50380952 56904761 L50285714 56952380 L50047619 56952380 L49952380 56904761 L49904761 56809523 L49904761 56714285 L49952380 56619047 L50047619 56571428 L50285714 56571428 L50380952 56523809 "/>
<svg:path d="M51000000 56952380 L50904761 56904761 L50857142 56809523 L50857142 55952380 "/>
<svg:path d="M51142857 57047619 L51904761 57047619 "/>
<svg:path d="M52142857 56952380 L52142857 55952380 L52380952 55952380 L52523809 56000000 L52619047 56095238 L52666666 56190476 L52714285 56380952 L52714285 56523809 L52666666 56714285 L52619047 56809523 L52523809 56904761 L52380952 56952380 L52142857 56952380 "/>
<svg:path d="M53666666 56952380 L53095238 56952380 "/>
<svg:path d="M53380952 56952380 L53380952 55952380 L53285714 56095238 L53190476 56190476 L53095238 56238095 "/>
<svg:path d="M54285714 55952380 L54380952 55952380 L54476190 56000000 L54523809 56047619 L54571428 56142857 L54619047 56333333 L54619047 56571428 L54571428 56761904 L54523809 56857142 L54476190 56904761 L54380952 56952380 L54285714 56952380 L54190476 56904761 L54142857 56857142 L54095238 56761904 L54047619 56571428 L54047619 56333333 L54095238 56142857 L54142857 56047619 L54190476 56000000 L54285714 55952380 "/>
<svg:path d="M55047619 56857142 L55095238 56904761 L55047619 56952380 L55000000 56904761 L55047619 56857142 L55047619 56952380 "/>
<svg:path d="M56000000 55952380 L55523809 55952380 L55476190 56428571 L55523809 56380952 L55619047 56333333 L55857142 56333333 L55952380 56380952 L56000000 56428571 L56047619 56523809 L56047619 56761904 L56000000 56857142 L55952380 56904761 L55857142 56952380 L55619047 56952380 L55523809 56904761 L55476190 56857142 "/>
<svg:path d="M56476190 56952380 L56476190 56285714 "/>
<svg:path d="M56476190 56380952 L56523809 56333333 L56619047 56285714 L56761904 56285714 L56857142 56333333 L56904761 56428571 L56904761 56952380 "/>
<svg:path d="M56904761 56428571 L56952380 56333333 L57047619 56285714 L57190476 56285714 L57285714 56333333 L57333333 56428571 L57333333 56952380 "/>
<svg:path d="M57809523 56952380 L57809523 56285714 "/>
<svg:path d="M57809523 56380952 L57857142 56333333 L57952380 56285714 L58095238 56285714 L58190476 56333333 L58238095 56428571 L58238095 56952380 "/>
<svg:path d="M58238095 56428571 L58285714 56333333 L58380952 56285714 L58523809 56285714 L58619047 56333333 L58666666 56428571 L58666666 56952380 "/>
<svg:path d="M58904761 57047619 L59666666 57047619 "/>
<svg:path d="M59904761 56952380 L59904761 55952380 L60285714 55952380 L60380952 56000000 L60428571 56047619 L60476190 56142857 L60476190 56285714 L60428571 56380952 L60380952 56428571 L60285714 56476190 L59904761 56476190 "/>
<svg:path d="M61380952 55952380 L60904761 55952380 L60857142 56428571 L60904761 56380952 L61000000 56333333 L61238095 56333333 L61333333 56380952 L61380952 56428571 L61428571 56523809 L61428571 56761904 L61380952 56857142 L61333333 56904761 L61238095 56952380 L61000000 56952380 L60904761 56904761 L60857142 56857142 "/>
<svg:path d="M61857142 56857142 L61904761 56904761 L61857142 56952380 L61809523 56904761 L61857142 56857142 L61857142 56952380 "/>
<svg:path d="M62523809 55952380 L62619047 55952380 L62714285 56000000 L62761904 56047619 L62809523 56142857 L62857142 56333333 L62857142 56571428 L62809523 56761904 L62761904 56857142 L62714285 56904761 L62619047 56952380 L62523809 56952380 L62428571 56904761 L62380952 56857142 L62333333 56761904 L62285714 56571428 L62285714 56333333 L62333333 56142857 L62380952 56047619 L62428571 56000000 L62523809 55952380 "/>
<svg:path d="M63476190 55952380 L63571428 55952380 L63666666 56000000 L63714285 56047619 L63761904 56142857 L63809523 56333333 L63809523 56571428 L63761904 56761904 L63714285 56857142 L63666666 56904761 L63571428 56952380 L63476190 56952380 L63380952 56904761 L63333333 56857142 L63285714 56761904 L63238095 56571428 L63238095 56333333 L63285714 56142857 L63333333 56047619 L63380952 56000000 L63476190 55952380 "/>
<svg:path d="M64238095 56952380 L64238095 56285714 "/>
<svg:path d="M64238095 56380952 L64285714 56333333 L64380952 56285714 L64523809 56285714 L64619047 56333333 L64666666 56428571 L64666666 56952380 "/>
<svg:path d="M64666666 56428571 L64714285 56333333 L64809523 56285714 L64952380 56285714 L65047619 56333333 L65095238 56428571 L65095238 56952380 "/>
<svg:path d="M65571428 56952380 L65571428 56285714 "/>
<svg:path d="M65571428 56380952 L65619047 56333333 L65714285 56285714 L65857142 56285714 L65952380 56333333 L66000000 56428571 L66000000 56952380 "/>
<svg:path d="M66000000 56428571 L66047619 56333333 L66142857 56285714 L66285714 56285714 L66380952 56333333 L66428571 56428571 L66428571 56952380 "/>
</svg:g><svg:text x="52500000.000000" y="50500000.000000" textLength="16956905.000000" font-size="1333333.000000" lengthAdjust="spacingAndGlyphs" text-anchor="middle" opacity="0">FZKCCPRTANTALD15P5</svg:text>
<svg:g class="stroked-text"><svg:desc>FZKCCPRTANTALD15P5</svg:desc>
<svg:path d="M44690476 49928571 L44357142 49928571 "/>
<svg:path d="M44357142 50452380 L44357142 49452380 L44833333 49452380 "/>
<svg:path d="M45119047 49452380 L45785714 49452380 L45119047 50452380 L45785714 50452380 "/>
<svg:path d="M46166666 50452380 L46166666 49452380 "/>
<svg:path d="M46738095 50452380 L46309523 49880952 "/>
<svg:path d="M46738095 49452380 L46166666 50023809 "/>
<svg:path d="M47738095 50357142 L47690476 50404761 L47547619 50452380 L47452380 50452380 L47309523 50404761 L47214285 50309523 L47166666 50214285 L47119047 50023809 L47119047 49880952 L47166666 49690476 L47214285 49595238 L47309523 49500000 L47452380 49452380 L47547619 49452380 L47690476 49500000 L47738095 49547619 "/>
<svg:path d="M48738095 50357142 L48690476 50404761 L48547619 50452380 L48452380 50452380 L48309523 50404761 L48214285 50309523 L48166666 50214285 L48119047 50023809 L48119047 49880952 L48166666 49690476 L48214285 49595238 L48309523 49500000 L48452380 49452380 L48547619 49452380 L48690476 49500000 L48738095 49547619 "/>
<svg:path d="M49166666 50452380 L49166666 49452380 L49547619 49452380 L49642857 49500000 L49690476 49547619 L49738095 49642857 L49738095 49785714 L49690476 49880952 L49642857 49928571 L49547619 49976190 L49166666 49976190 "/>
<svg:path d="M50738095 50452380 L50404761 49976190 "/>
<svg:path d="M50166666 50452380 L50166666 49452380 L50547619 49452380 L50642857 49500000 L50690476 49547619 L50738095 49642857 L50738095 49785714 L50690476 49880952 L50642857 49928571 L50547619 49976190 L50166666 49976190 "/>
<svg:path d="M51023809 49452380 L51595238 49452380 "/>
<svg:path d="M51309523 50452380 L51309523 49452380 "/>
<svg:path d="M51880952 50166666 L52357142 50166666 "/>
<svg:path d="M51785714 50452380 L52119047 49452380 L52452380 50452380 "/>
<svg:path d="M52785714 50452380 L52785714 49452380 L53357142 50452380 L53357142 49452380 "/>
<svg:path d="M53690476 49452380 L54261904 49452380 "/>
<svg:path d="M53976190 50452380 L53976190 49452380 "/>
<svg:path d="M54547619 50166666 L55023809 50166666 "/>
<svg:path d="M54452380 50452380 L54785714 49452380 L55119047 50452380 "/>
<svg:path d="M55928571 50452380 L55452380 50452380 L55452380 49452380 "/>
<svg:path d="M56261904 50452380 L56261904 49452380 L56500000 49452380 L56642857 49500000 L56738095 49595238 L56785714 49690476 L56833333 49880952 L56833333 50023809 L56785714 50214285 L56738095 50309523 L56642857 50404761 L56500000 50452380 L56261904 50452380 "/>
<svg:path d="M57785714 50452380 L57214285 50452380 "/>
<svg:path d="M57500000 50452380 L57500000 49452380 L57404761 49595238 L57309523 49690476 L57214285 49738095 "/>
<svg:path d="M58690476 49452380 L58214285 49452380 L58166666 49928571 L58214285 49880952 L58309523 49833333 L58547619 49833333 L58642857 49880952 L58690476 49928571 L58738095 50023809 L58738095 50261904 L58690476 50357142 L58642857 50404761 L58547619 50452380 L58309523 50452380 L58214285 50404761 L58166666 50357142 "/>
<svg:path d="M59166666 50452380 L59166666 49452380 L59547619 49452380 L59642857 49500000 L59690476 49547619 L59738095 49642857 L59738095 49785714 L59690476 49880952 L59642857 49928571 L59547619 49976190 L59166666 49976190 "/>
<svg:path d="M60642857 49452380 L60166666 49452380 L60119047 49928571 L60166666 49880952 L60261904 49833333 L60500000 49833333 L60595238 49880952 L60642857 49928571 L60690476 50023809 L60690476 50261904 L60642857 50357142 L60595238 50404761 L60500000 50452380 L60261904 50452380 L60166666 50404761 L60119047 50357142 "/>
</svg:g></svg:g>
<svg:g style="fill:#AFAFAF; fill-opacity:0.0;  stroke:#AFAFAF; stroke-width:100000.000000; stroke-opacity:1;  stroke-linecap:round; stroke-linejoin:round;">
<svg:path d="M47995613 47702500 L49045613 47702500 "/>
<svg:path d="M48520613 47177500 L48520613 48227500 "/>
<svg:circle cx="52500000.000000" cy="50000000.000000" r="5250000.000000"/> 
<svg:g>
</svg:g>
<svg:g>
</svg:g>
<svg:g>
</svg:g>
<svg:g>
</svg:g>
</svg:g>
<svg:g style="fill:#000000; fill-opacity:0.0;  stroke:#000000; stroke-width:100000.000000; stroke-opacity:1;  stroke-linecap:round; stroke-linejoin:round;">
<svg:g>
</svg:g>
<svg:g>
</svg:g>
<svg:g>
</svg:g>
<svg:g>
</svg:g>
</svg:g> 
</svg:g><svg:g><svg:title>SVG Picture created as kicadBoard-F_Mask.svg date 2022/11/17 01:10:22 </svg:title>
  <svg:desc>Picture generated by PCBNEW </svg:desc>
<svg:g style="fill:#000000; fill-opacity:1.000000;stroke:#000000; stroke-opacity:1.000000; stroke-linecap:round; stroke-linejoin:round;" transform="translate(0 0) scale(1 1)">
</svg:g>
<svg:g style="fill:#000000; fill-opacity:0.0;  stroke:#000000; stroke-width:0.000000; stroke-opacity:1;  stroke-linecap:round; stroke-linejoin:round;">
<svg:g>
</svg:g>
<svg:g style="fill:#000000; fill-opacity:0.0;  stroke:#000000; stroke-width:1.000000; stroke-opacity:1;  stroke-linecap:round; stroke-linejoin:round;">
</svg:g>
<svg:g style="fill:#000000; fill-opacity:1.0;  stroke:#000000; stroke-width:1.000000; stroke-opacity:1;  stroke-linecap:round; stroke-linejoin:round;">
<svg:path style="fill:#000000; fill-opacity:1.0;  stroke:#000000; stroke-width:1.000000; stroke-opacity:1;  stroke-linecap:round; stroke-linejoin:round;fill-rule:evenodd;" d="M 49200000.000000,50800000.000000 49200000.000000,49200000.000000 50800000.000000,49200000.000000 50800000.000000,50800000.000000 Z"/> 
<svg:circle cx="55000000.000000" cy="50000000.000000" r="800000.000000"/> 
</svg:g>
<svg:g style="fill:#000000; fill-opacity:1.0;  stroke:#000000; stroke-width:21200.000000; stroke-opacity:1;  stroke-linecap:round; stroke-linejoin:round;">
</svg:g>
<svg:g>
</svg:g>
<svg:g>
</svg:g>
<svg:g>
</svg:g>
</svg:g>
<svg:g style="fill:#000000; fill-opacity:1.0;  stroke:#000000; stroke-width:21200.000000; stroke-opacity:1;  stroke-linecap:round; stroke-linejoin:round;">
<svg:g>
</svg:g>
<svg:g>
</svg:g>
<svg:g>
</svg:g>
<svg:g>
</svg:g>
</svg:g> 
</svg:g><svg:g><svg:title>SVG Picture created as kicadBoard-F_Paste.svg date 2022/11/17 01:10:22 </svg:title>
  <svg:desc>Picture generated by PCBNEW </svg:desc>
<svg:g style="fill:#000000; fill-opacity:1.000000;stroke:#000000; stroke-opacity:1.000000; stroke-linecap:round; stroke-linejoin:round;" transform="translate(0 0) scale(1 1)">
</svg:g>
<svg:g style="fill:#000000; fill-opacity:0.0;  stroke:#000000; stroke-width:0.000000; stroke-opacity:1;  stroke-linecap:round; stroke-linejoin:round;">
<svg:g>
</svg:g>
<svg:g>
</svg:g>
<svg:g>
</svg:g>
<svg:g>
</svg:g>
</svg:g>
<svg:g style="fill:#000000; fill-opacity:0.0;  stroke:#000000; stroke-width:0.000000; stroke-opacity:1;  stroke-linecap:round; stroke-linejoin:round;">
<svg:g>
</svg:g>
<svg:g>
</svg:g>
<svg:g>
</svg:g>
<svg:g>
</svg:g>
</svg:g> 
</svg:g><svg:g><svg:title>SVG Picture created as kicadBoard-F_Silkscreen.svg date 2022/11/17 01:10:22 </svg:title>
  <svg:desc>Picture generated by PCBNEW </svg:desc>
<svg:g style="fill:#000000; fill-opacity:1.000000;stroke:#000000; stroke-opacity:1.000000; stroke-linecap:round; stroke-linejoin:round;" transform="translate(0 0) scale(1 1)">
</svg:g>
<svg:g style="fill:#000000; fill-opacity:0.0;  stroke:#000000; stroke-width:0.000000; stroke-opacity:1;  stroke-linecap:round; stroke-linejoin:round;">
</svg:g>
<svg:g style="fill:#F2EDA1; fill-opacity:0.0;  stroke:#F2EDA1; stroke-width:0.000000; stroke-opacity:1;  stroke-linecap:round; stroke-linejoin:round;">
</svg:g>
<svg:g style="fill:#F2EDA1; fill-opacity:0.0;  stroke:#F2EDA1; stroke-width:150000.000000; stroke-opacity:1;  stroke-linecap:round; stroke-linejoin:round;">
<svg:text x="52500000.000000" y="44000000.000000" textLength="16761906.000000" font-size="1333333.000000" lengthAdjust="spacingAndGlyphs" text-anchor="middle" opacity="0">FZKCCPRTANTALD15P5</svg:text>
<svg:g class="stroked-text"><svg:desc>FZKCCPRTANTALD15P5</svg:desc>
<svg:path d="M44690476 43428571 L44357142 43428571 "/>
<svg:path d="M44357142 43952380 L44357142 42952380 L44833333 42952380 "/>
<svg:path d="M45119047 42952380 L45785714 42952380 L45119047 43952380 L45785714 43952380 "/>
<svg:path d="M46166666 43952380 L46166666 42952380 "/>
<svg:path d="M46738095 43952380 L46309523 43380952 "/>
<svg:path d="M46738095 42952380 L46166666 43523809 "/>
<svg:path d="M47738095 43857142 L47690476 43904761 L47547619 43952380 L47452380 43952380 L47309523 43904761 L47214285 43809523 L47166666 43714285 L47119047 43523809 L47119047 43380952 L47166666 43190476 L47214285 43095238 L47309523 43000000 L47452380 42952380 L47547619 42952380 L47690476 43000000 L47738095 43047619 "/>
<svg:path d="M48738095 43857142 L48690476 43904761 L48547619 43952380 L48452380 43952380 L48309523 43904761 L48214285 43809523 L48166666 43714285 L48119047 43523809 L48119047 43380952 L48166666 43190476 L48214285 43095238 L48309523 43000000 L48452380 42952380 L48547619 42952380 L48690476 43000000 L48738095 43047619 "/>
<svg:path d="M49166666 43952380 L49166666 42952380 L49547619 42952380 L49642857 43000000 L49690476 43047619 L49738095 43142857 L49738095 43285714 L49690476 43380952 L49642857 43428571 L49547619 43476190 L49166666 43476190 "/>
<svg:path d="M50738095 43952380 L50404761 43476190 "/>
<svg:path d="M50166666 43952380 L50166666 42952380 L50547619 42952380 L50642857 43000000 L50690476 43047619 L50738095 43142857 L50738095 43285714 L50690476 43380952 L50642857 43428571 L50547619 43476190 L50166666 43476190 "/>
<svg:path d="M51023809 42952380 L51595238 42952380 "/>
<svg:path d="M51309523 43952380 L51309523 42952380 "/>
<svg:path d="M51880952 43666666 L52357142 43666666 "/>
<svg:path d="M51785714 43952380 L52119047 42952380 L52452380 43952380 "/>
<svg:path d="M52785714 43952380 L52785714 42952380 L53357142 43952380 L53357142 42952380 "/>
<svg:path d="M53690476 42952380 L54261904 42952380 "/>
<svg:path d="M53976190 43952380 L53976190 42952380 "/>
<svg:path d="M54547619 43666666 L55023809 43666666 "/>
<svg:path d="M54452380 43952380 L54785714 42952380 L55119047 43952380 "/>
<svg:path d="M55928571 43952380 L55452380 43952380 L55452380 42952380 "/>
<svg:path d="M56261904 43952380 L56261904 42952380 L56500000 42952380 L56642857 43000000 L56738095 43095238 L56785714 43190476 L56833333 43380952 L56833333 43523809 L56785714 43714285 L56738095 43809523 L56642857 43904761 L56500000 43952380 L56261904 43952380 "/>
<svg:path d="M57785714 43952380 L57214285 43952380 "/>
<svg:path d="M57500000 43952380 L57500000 42952380 L57404761 43095238 L57309523 43190476 L57214285 43238095 "/>
<svg:path d="M58690476 42952380 L58214285 42952380 L58166666 43428571 L58214285 43380952 L58309523 43333333 L58547619 43333333 L58642857 43380952 L58690476 43428571 L58738095 43523809 L58738095 43761904 L58690476 43857142 L58642857 43904761 L58547619 43952380 L58309523 43952380 L58214285 43904761 L58166666 43857142 "/>
<svg:path d="M59166666 43952380 L59166666 42952380 L59547619 42952380 L59642857 43000000 L59690476 43047619 L59738095 43142857 L59738095 43285714 L59690476 43380952 L59642857 43428571 L59547619 43476190 L59166666 43476190 "/>
<svg:path d="M60642857 42952380 L60166666 42952380 L60119047 43428571 L60166666 43380952 L60261904 43333333 L60500000 43333333 L60595238 43380952 L60642857 43428571 L60690476 43523809 L60690476 43761904 L60642857 43857142 L60595238 43904761 L60500000 43952380 L60261904 43952380 L60166666 43904761 L60119047 43857142 "/>
</svg:g></svg:g>
<svg:g style="fill:#F2EDA1; fill-opacity:0.0;  stroke:#F2EDA1; stroke-width:120000.000000; stroke-opacity:1;  stroke-linecap:round; stroke-linejoin:round;">
<svg:path d="M46752867 46985000 L47802867 46985000 "/>
<svg:path d="M47277867 46460000 L47277867 47510000 "/>
<svg:circle cx="52500000.000000" cy="50000000.000000" r="5370000.000000"/> 
<svg:g>
</svg:g>
<svg:g>
</svg:g>
<svg:g>
</svg:g>
<svg:g>
</svg:g>
</svg:g>
<svg:g style="fill:#000000; fill-opacity:0.0;  stroke:#000000; stroke-width:120000.000000; stroke-opacity:1;  stroke-linecap:round; stroke-linejoin:round;">
<svg:g>
</svg:g>
<svg:g>
</svg:g>
<svg:g>
</svg:g>
<svg:g>
</svg:g>
</svg:g> 
</svg:g><svg:g><svg:title>SVG Picture created as kicadBoard-Margin.svg date 2022/11/17 01:10:22 </svg:title>
  <svg:desc>Picture generated by PCBNEW </svg:desc>
<svg:g style="fill:#000000; fill-opacity:1.000000;stroke:#000000; stroke-opacity:1.000000; stroke-linecap:round; stroke-linejoin:round;" transform="translate(0 0) scale(1 1)">
</svg:g>
<svg:g style="fill:#000000; fill-opacity:0.0;  stroke:#000000; stroke-width:0.000000; stroke-opacity:1;  stroke-linecap:round; stroke-linejoin:round;">
<svg:g>
</svg:g>
<svg:g>
</svg:g>
<svg:g>
</svg:g>
<svg:g>
</svg:g>
</svg:g>
<svg:g style="fill:#000000; fill-opacity:0.0;  stroke:#000000; stroke-width:0.000000; stroke-opacity:1;  stroke-linecap:round; stroke-linejoin:round;">
<svg:g>
</svg:g>
<svg:g>
</svg:g>
<svg:g>
</svg:g>
<svg:g>
</svg:g>
</svg:g> 
</svg:g><svg:g><svg:title>SVG Picture created as kicadBoard-F_Cu.svg date 2022/11/17 01:10:21 </svg:title>
  <svg:desc>Picture generated by PCBNEW </svg:desc>
<svg:g style="fill:#000000; fill-opacity:1.000000;stroke:#000000; stroke-opacity:1.000000; stroke-linecap:round; stroke-linejoin:round;" transform="translate(0 0) scale(1 1)">
</svg:g>
<svg:g style="fill:#000000; fill-opacity:0.0;  stroke:#000000; stroke-width:0.000000; stroke-opacity:1;  stroke-linecap:round; stroke-linejoin:round;">
<svg:g>
</svg:g>
<svg:g style="fill:#C83434; fill-opacity:0.0;  stroke:#C83434; stroke-width:0.000000; stroke-opacity:1;  stroke-linecap:round; stroke-linejoin:round;">
</svg:g>
<svg:g style="fill:#C83434; fill-opacity:0.0;  stroke:#C83434; stroke-width:1.000000; stroke-opacity:1;  stroke-linecap:round; stroke-linejoin:round;">
</svg:g>
<svg:g style="fill:#C83434; fill-opacity:1.0;  stroke:#C83434; stroke-width:1.000000; stroke-opacity:1;  stroke-linecap:round; stroke-linejoin:round;">
<svg:path style="fill:#C83434; fill-opacity:1.0;  stroke:#C83434; stroke-width:1.000000; stroke-opacity:1;  stroke-linecap:round; stroke-linejoin:round;fill-rule:evenodd;" d="M 49200000.000000,50800000.000000 49200000.000000,49200000.000000 50800000.000000,49200000.000000 50800000.000000,50800000.000000 Z"/> 
<svg:circle cx="55000000.000000" cy="50000000.000000" r="800000.000000"/> 
</svg:g>
<svg:g style="fill:#C83434; fill-opacity:1.0;  stroke:#C83434; stroke-width:21200.000000; stroke-opacity:1;  stroke-linecap:round; stroke-linejoin:round;">
</svg:g>
<svg:g>
</svg:g>
<svg:g>
</svg:g>
<svg:g>
</svg:g>
</svg:g>
<svg:g style="fill:#FFFFFF; fill-opacity:1.0;  stroke:#FFFFFF; stroke-width:21200.000000; stroke-opacity:1;  stroke-linecap:round; stroke-linejoin:round;">
</svg:g>
<svg:g style="fill:#FFFFFF; fill-opacity:1.0;  stroke:#FFFFFF; stroke-width:1.000000; stroke-opacity:1;  stroke-linecap:round; stroke-linejoin:round;">
<svg:circle cx="50000000.000000" cy="50000000.000000" r="400000.000000"/> 
</svg:g>
<svg:g style="fill:#FFFFFF; fill-opacity:1.0;  stroke:#FFFFFF; stroke-width:21200.000000; stroke-opacity:1;  stroke-linecap:round; stroke-linejoin:round;">
</svg:g>
<svg:g style="fill:#FFFFFF; fill-opacity:1.0;  stroke:#FFFFFF; stroke-width:1.000000; stroke-opacity:1;  stroke-linecap:round; stroke-linejoin:round;">
<svg:circle cx="55000000.000000" cy="50000000.000000" r="400000.000000"/> 
</svg:g>
<svg:g style="fill:#FFFFFF; fill-opacity:1.0;  stroke:#FFFFFF; stroke-width:21200.000000; stroke-opacity:1;  stroke-linecap:round; stroke-linejoin:round;">
</svg:g>
<svg:g style="fill:#000000; fill-opacity:1.0;  stroke:#000000; stroke-width:21200.000000; stroke-opacity:1;  stroke-linecap:round; stroke-linejoin:round;">
<svg:g>
</svg:g>
<svg:g>
</svg:g>
<svg:g>
</svg:g>
<svg:g>
</svg:g>
</svg:g> 
</svg:g></svg>
