<?xml version='1.0' encoding='ASCII' standalone='yes'?>
<svg xmlns:svg="http://www.w3.org/2000/svg" xmlns="http://www.w3.org/2000/svg" xmlns:xlink="http://www.w3.org/1999/xlink" version="1.1" width="9.999980cm" height="9.999980cm" viewBox="0 0 99999800 99999800">
<title>SVG Picture created as kicadBoard-B_Cu.svg date 2022/11/19 03:03:25 </title>
  <desc>Picture generated by PCBNEW </desc>
<g style="fill:#000000; fill-opacity:1.000000;stroke:#000000; stroke-opacity:1.000000; stroke-linecap:round; stroke-linejoin:round;" transform="translate(0 0) scale(1 1)">
</g>
<g style="fill:#000000; fill-opacity:0.0;  stroke:#000000; stroke-width:0.000000; stroke-opacity:1;  stroke-linecap:round; stroke-linejoin:round;">
<g>
</g>
<g>
</g>
<g>
</g>
<g>
</g>
</g>
<g style="fill:#FFFFFF; fill-opacity:0.0;  stroke:#FFFFFF; stroke-width:0.000000; stroke-opacity:1;  stroke-linecap:round; stroke-linejoin:round;">
</g>
<g style="fill:#000000; fill-opacity:0.0;  stroke:#000000; stroke-width:0.000000; stroke-opacity:1;  stroke-linecap:round; stroke-linejoin:round;">
<g>
</g>
<g>
</g>
<g>
</g>
<g>
</g>
</g> 
<svg:g><svg:title>SVG Picture created as kicadBoard-B_Adhesive.svg date 2022/11/19 03:03:25 </svg:title>
  <svg:desc>Picture generated by PCBNEW </svg:desc>
<svg:g style="fill:#000000; fill-opacity:1.000000;stroke:#000000; stroke-opacity:1.000000; stroke-linecap:round; stroke-linejoin:round;" transform="translate(0 0) scale(1 1)">
</svg:g>
<svg:g style="fill:#000000; fill-opacity:0.0;  stroke:#000000; stroke-width:0.000000; stroke-opacity:1;  stroke-linecap:round; stroke-linejoin:round;">
<svg:g>
</svg:g>
<svg:g>
</svg:g>
<svg:g>
</svg:g>
<svg:g>
</svg:g>
</svg:g>
<svg:g style="fill:#000000; fill-opacity:0.0;  stroke:#000000; stroke-width:0.000000; stroke-opacity:1;  stroke-linecap:round; stroke-linejoin:round;">
<svg:g>
</svg:g>
<svg:g>
</svg:g>
<svg:g>
</svg:g>
<svg:g>
</svg:g>
</svg:g> 
</svg:g><svg:g><svg:title>SVG Picture created as kicadBoard-B_Courtyard.svg date 2022/11/19 03:03:25 </svg:title>
  <svg:desc>Picture generated by PCBNEW </svg:desc>
<svg:g style="fill:#000000; fill-opacity:1.000000;stroke:#000000; stroke-opacity:1.000000; stroke-linecap:round; stroke-linejoin:round;" transform="translate(0 0) scale(1 1)">
</svg:g>
<svg:g style="fill:#000000; fill-opacity:0.0;  stroke:#000000; stroke-width:0.000000; stroke-opacity:1;  stroke-linecap:round; stroke-linejoin:round;">
<svg:g>
</svg:g>
<svg:g>
</svg:g>
<svg:g>
</svg:g>
<svg:g>
</svg:g>
</svg:g>
<svg:g style="fill:#000000; fill-opacity:0.0;  stroke:#000000; stroke-width:0.000000; stroke-opacity:1;  stroke-linecap:round; stroke-linejoin:round;">
<svg:g>
</svg:g>
<svg:g>
</svg:g>
<svg:g>
</svg:g>
<svg:g>
</svg:g>
</svg:g> 
</svg:g><svg:g><svg:title>SVG Picture created as kicadBoard-B_Fab.svg date 2022/11/19 03:03:25 </svg:title>
  <svg:desc>Picture generated by PCBNEW </svg:desc>
<svg:g style="fill:#000000; fill-opacity:1.000000;stroke:#000000; stroke-opacity:1.000000; stroke-linecap:round; stroke-linejoin:round;" transform="translate(0 0) scale(1 1)">
</svg:g>
<svg:g style="fill:#000000; fill-opacity:0.0;  stroke:#000000; stroke-width:0.000000; stroke-opacity:1;  stroke-linecap:round; stroke-linejoin:round;">
<svg:g>
</svg:g>
<svg:g>
</svg:g>
<svg:g>
</svg:g>
<svg:g>
</svg:g>
</svg:g>
<svg:g style="fill:#000000; fill-opacity:0.0;  stroke:#000000; stroke-width:0.000000; stroke-opacity:1;  stroke-linecap:round; stroke-linejoin:round;">
<svg:g>
</svg:g>
<svg:g>
</svg:g>
<svg:g>
</svg:g>
<svg:g>
</svg:g>
</svg:g> 
</svg:g><svg:g><svg:title>SVG Picture created as kicadBoard-B_Mask.svg date 2022/11/19 03:03:25 </svg:title>
  <svg:desc>Picture generated by PCBNEW </svg:desc>
<svg:g style="fill:#000000; fill-opacity:1.000000;stroke:#000000; stroke-opacity:1.000000; stroke-linecap:round; stroke-linejoin:round;" transform="translate(0 0) scale(1 1)">
</svg:g>
<svg:g style="fill:#000000; fill-opacity:0.0;  stroke:#000000; stroke-width:0.000000; stroke-opacity:1;  stroke-linecap:round; stroke-linejoin:round;">
<svg:g>
</svg:g>
<svg:g>
</svg:g>
<svg:g>
</svg:g>
<svg:g>
</svg:g>
</svg:g>
<svg:g style="fill:#000000; fill-opacity:0.0;  stroke:#000000; stroke-width:0.000000; stroke-opacity:1;  stroke-linecap:round; stroke-linejoin:round;">
<svg:g>
</svg:g>
<svg:g>
</svg:g>
<svg:g>
</svg:g>
<svg:g>
</svg:g>
</svg:g> 
</svg:g><svg:g><svg:title>SVG Picture created as kicadBoard-B_Paste.svg date 2022/11/19 03:03:25 </svg:title>
  <svg:desc>Picture generated by PCBNEW </svg:desc>
<svg:g style="fill:#000000; fill-opacity:1.000000;stroke:#000000; stroke-opacity:1.000000; stroke-linecap:round; stroke-linejoin:round;" transform="translate(0 0) scale(1 1)">
</svg:g>
<svg:g style="fill:#000000; fill-opacity:0.0;  stroke:#000000; stroke-width:0.000000; stroke-opacity:1;  stroke-linecap:round; stroke-linejoin:round;">
<svg:g>
</svg:g>
<svg:g>
</svg:g>
<svg:g>
</svg:g>
<svg:g>
</svg:g>
</svg:g>
<svg:g style="fill:#000000; fill-opacity:0.0;  stroke:#000000; stroke-width:0.000000; stroke-opacity:1;  stroke-linecap:round; stroke-linejoin:round;">
<svg:g>
</svg:g>
<svg:g>
</svg:g>
<svg:g>
</svg:g>
<svg:g>
</svg:g>
</svg:g> 
</svg:g><svg:g><svg:title>SVG Picture created as kicadBoard-B_Silkscreen.svg date 2022/11/19 03:03:25 </svg:title>
  <svg:desc>Picture generated by PCBNEW </svg:desc>
<svg:g style="fill:#000000; fill-opacity:1.000000;stroke:#000000; stroke-opacity:1.000000; stroke-linecap:round; stroke-linejoin:round;" transform="translate(0 0) scale(1 1)">
</svg:g>
<svg:g style="fill:#000000; fill-opacity:0.0;  stroke:#000000; stroke-width:0.000000; stroke-opacity:1;  stroke-linecap:round; stroke-linejoin:round;">
<svg:g>
</svg:g>
<svg:g>
</svg:g>
<svg:g>
</svg:g>
<svg:g>
</svg:g>
</svg:g>
<svg:g style="fill:#000000; fill-opacity:0.0;  stroke:#000000; stroke-width:0.000000; stroke-opacity:1;  stroke-linecap:round; stroke-linejoin:round;">
<svg:g>
</svg:g>
<svg:g>
</svg:g>
<svg:g>
</svg:g>
<svg:g>
</svg:g>
</svg:g> 
</svg:g><svg:g><svg:title>SVG Picture created as kicadBoard-Edge_Cuts.svg date 2022/11/19 03:03:25 </svg:title>
  <svg:desc>Picture generated by PCBNEW </svg:desc>
<svg:g style="fill:#000000; fill-opacity:1.000000;stroke:#000000; stroke-opacity:1.000000; stroke-linecap:round; stroke-linejoin:round;" transform="translate(0 0) scale(1 1)">
</svg:g>
<svg:g style="fill:#000000; fill-opacity:0.0;  stroke:#000000; stroke-width:0.000000; stroke-opacity:1;  stroke-linecap:round; stroke-linejoin:round;">
<svg:g>
</svg:g>
<svg:g>
</svg:g>
<svg:g>
</svg:g>
<svg:g>
</svg:g>
</svg:g> 
</svg:g><svg:g><svg:title>SVG Picture created as kicadBoard-F_Adhesive.svg date 2022/11/19 03:03:25 </svg:title>
  <svg:desc>Picture generated by PCBNEW </svg:desc>
<svg:g style="fill:#000000; fill-opacity:1.000000;stroke:#000000; stroke-opacity:1.000000; stroke-linecap:round; stroke-linejoin:round;" transform="translate(0 0) scale(1 1)">
</svg:g>
<svg:g style="fill:#000000; fill-opacity:0.0;  stroke:#000000; stroke-width:0.000000; stroke-opacity:1;  stroke-linecap:round; stroke-linejoin:round;">
<svg:g>
</svg:g>
<svg:g>
</svg:g>
<svg:g>
</svg:g>
<svg:g>
</svg:g>
</svg:g>
<svg:g style="fill:#000000; fill-opacity:0.0;  stroke:#000000; stroke-width:0.000000; stroke-opacity:1;  stroke-linecap:round; stroke-linejoin:round;">
<svg:g>
</svg:g>
<svg:g>
</svg:g>
<svg:g>
</svg:g>
<svg:g>
</svg:g>
</svg:g> 
</svg:g><svg:g><svg:title>SVG Picture created as kicadBoard-F_Courtyard.svg date 2022/11/19 03:03:25 </svg:title>
  <svg:desc>Picture generated by PCBNEW </svg:desc>
<svg:g style="fill:#000000; fill-opacity:1.000000;stroke:#000000; stroke-opacity:1.000000; stroke-linecap:round; stroke-linejoin:round;" transform="translate(0 0) scale(1 1)">
</svg:g>
<svg:g style="fill:#000000; fill-opacity:0.0;  stroke:#000000; stroke-width:0.000000; stroke-opacity:1;  stroke-linecap:round; stroke-linejoin:round;">
</svg:g>
<svg:g style="fill:#FF26E2; fill-opacity:0.0;  stroke:#FF26E2; stroke-width:0.000000; stroke-opacity:1;  stroke-linecap:round; stroke-linejoin:round;">
</svg:g>
<svg:g style="fill:#FF26E2; fill-opacity:0.0;  stroke:#FF26E2; stroke-width:50000.000000; stroke-opacity:1;  stroke-linecap:round; stroke-linejoin:round;">
<svg:path d="M47900000 48750000 L47900000 51250000 "/>
<svg:path d="M52100000 51250000 L52100000 48750000 "/>
<svg:path d="M52100000 48750000 L47900000 48750000 "/>
<svg:path d="M47900000 51250000 L52100000 51250000 "/>
<svg:g>
</svg:g>
<svg:g>
</svg:g>
<svg:g>
</svg:g>
<svg:g>
</svg:g>
</svg:g>
<svg:g style="fill:#000000; fill-opacity:0.0;  stroke:#000000; stroke-width:50000.000000; stroke-opacity:1;  stroke-linecap:round; stroke-linejoin:round;">
<svg:g>
</svg:g>
<svg:g>
</svg:g>
<svg:g>
</svg:g>
<svg:g>
</svg:g>
</svg:g> 
</svg:g><svg:g><svg:title>SVG Picture created as kicadBoard-F_Cu.svg date 2022/11/19 03:03:25 </svg:title>
  <svg:desc>Picture generated by PCBNEW </svg:desc>
<svg:g style="fill:#000000; fill-opacity:1.000000;stroke:#000000; stroke-opacity:1.000000; stroke-linecap:round; stroke-linejoin:round;" transform="translate(0 0) scale(1 1)">
</svg:g>
<svg:g style="fill:#000000; fill-opacity:0.0;  stroke:#000000; stroke-width:0.000000; stroke-opacity:1;  stroke-linecap:round; stroke-linejoin:round;">
<svg:g>
</svg:g>
<svg:g style="fill:#C83434; fill-opacity:0.0;  stroke:#C83434; stroke-width:0.000000; stroke-opacity:1;  stroke-linecap:round; stroke-linejoin:round;">
</svg:g>
<svg:g style="fill:#C83434; fill-opacity:0.0;  stroke:#C83434; stroke-width:1.000000; stroke-opacity:1;  stroke-linecap:round; stroke-linejoin:round;">
</svg:g>
<svg:g style="fill:#C83434; fill-opacity:1.0;  stroke:#C83434; stroke-width:1.000000; stroke-opacity:1;  stroke-linecap:round; stroke-linejoin:round;">
<svg:path style="fill:#C83434; fill-opacity:1.0;  stroke:#C83434; stroke-width:1.000000; stroke-opacity:1;  stroke-linecap:round; stroke-linejoin:round;fill-rule:evenodd;" d="M 48150000.000000,49187500.000000 48154758.000000,49163582.000000 48168306.000000,49143306.000000 48188582.000000,49129758.000000 48212500.000000,49125000.000000 48887500.000000,49125000.000000 48911418.000000,49129758.000000 48931694.000000,49143306.000000 48945242.000000,49163582.000000 48950000.000000,49187500.000000 48950000.000000,49312500.000000 48945242.000000,49336418.000000 48931694.000000,49356694.000000 48911418.000000,49370242.000000 48887500.000000,49375000.000000 48212500.000000,49375000.000000 48188582.000000,49370242.000000 48168306.000000,49356694.000000 48154758.000000,49336418.000000 48150000.000000,49312500.000000 Z"/> 
<svg:path style="fill:#C83434; fill-opacity:1.0;  stroke:#C83434; stroke-width:1.000000; stroke-opacity:1;  stroke-linecap:round; stroke-linejoin:round;fill-rule:evenodd;" d="M 48150000.000000,49687500.000000 48154758.000000,49663582.000000 48168306.000000,49643306.000000 48188582.000000,49629758.000000 48212500.000000,49625000.000000 48887500.000000,49625000.000000 48911418.000000,49629758.000000 48931694.000000,49643306.000000 48945242.000000,49663582.000000 48950000.000000,49687500.000000 48950000.000000,49812500.000000 48945242.000000,49836418.000000 48931694.000000,49856694.000000 48911418.000000,49870242.000000 48887500.000000,49875000.000000 48212500.000000,49875000.000000 48188582.000000,49870242.000000 48168306.000000,49856694.000000 48154758.000000,49836418.000000 48150000.000000,49812500.000000 Z"/> 
<svg:path style="fill:#C83434; fill-opacity:1.0;  stroke:#C83434; stroke-width:1.000000; stroke-opacity:1;  stroke-linecap:round; stroke-linejoin:round;fill-rule:evenodd;" d="M 48150000.000000,50187500.000000 48154758.000000,50163582.000000 48168306.000000,50143306.000000 48188582.000000,50129758.000000 48212500.000000,50125000.000000 48887500.000000,50125000.000000 48911418.000000,50129758.000000 48931694.000000,50143306.000000 48945242.000000,50163582.000000 48950000.000000,50187500.000000 48950000.000000,50312500.000000 48945242.000000,50336418.000000 48931694.000000,50356694.000000 48911418.000000,50370242.000000 48887500.000000,50375000.000000 48212500.000000,50375000.000000 48188582.000000,50370242.000000 48168306.000000,50356694.000000 48154758.000000,50336418.000000 48150000.000000,50312500.000000 Z"/> 
<svg:path style="fill:#C83434; fill-opacity:1.0;  stroke:#C83434; stroke-width:1.000000; stroke-opacity:1;  stroke-linecap:round; stroke-linejoin:round;fill-rule:evenodd;" d="M 48150000.000000,50687500.000000 48154758.000000,50663582.000000 48168306.000000,50643306.000000 48188582.000000,50629758.000000 48212500.000000,50625000.000000 48887500.000000,50625000.000000 48911418.000000,50629758.000000 48931694.000000,50643306.000000 48945242.000000,50663582.000000 48950000.000000,50687500.000000 48950000.000000,50812500.000000 48945242.000000,50836418.000000 48931694.000000,50856694.000000 48911418.000000,50870242.000000 48887500.000000,50875000.000000 48212500.000000,50875000.000000 48188582.000000,50870242.000000 48168306.000000,50856694.000000 48154758.000000,50836418.000000 48150000.000000,50812500.000000 Z"/> 
<svg:path style="fill:#C83434; fill-opacity:1.0;  stroke:#C83434; stroke-width:1.000000; stroke-opacity:1;  stroke-linecap:round; stroke-linejoin:round;fill-rule:evenodd;" d="M 51050000.000000,50687500.000000 51054758.000000,50663582.000000 51068306.000000,50643306.000000 51088582.000000,50629758.000000 51112500.000000,50625000.000000 51787500.000000,50625000.000000 51811418.000000,50629758.000000 51831694.000000,50643306.000000 51845242.000000,50663582.000000 51850000.000000,50687500.000000 51850000.000000,50812500.000000 51845242.000000,50836418.000000 51831694.000000,50856694.000000 51811418.000000,50870242.000000 51787500.000000,50875000.000000 51112500.000000,50875000.000000 51088582.000000,50870242.000000 51068306.000000,50856694.000000 51054758.000000,50836418.000000 51050000.000000,50812500.000000 Z"/> 
<svg:path style="fill:#C83434; fill-opacity:1.0;  stroke:#C83434; stroke-width:1.000000; stroke-opacity:1;  stroke-linecap:round; stroke-linejoin:round;fill-rule:evenodd;" d="M 51050000.000000,50187500.000000 51054758.000000,50163582.000000 51068306.000000,50143306.000000 51088582.000000,50129758.000000 51112500.000000,50125000.000000 51787500.000000,50125000.000000 51811418.000000,50129758.000000 51831694.000000,50143306.000000 51845242.000000,50163582.000000 51850000.000000,50187500.000000 51850000.000000,50312500.000000 51845242.000000,50336418.000000 51831694.000000,50356694.000000 51811418.000000,50370242.000000 51787500.000000,50375000.000000 51112500.000000,50375000.000000 51088582.000000,50370242.000000 51068306.000000,50356694.000000 51054758.000000,50336418.000000 51050000.000000,50312500.000000 Z"/> 
<svg:path style="fill:#C83434; fill-opacity:1.0;  stroke:#C83434; stroke-width:1.000000; stroke-opacity:1;  stroke-linecap:round; stroke-linejoin:round;fill-rule:evenodd;" d="M 51050000.000000,49687500.000000 51054758.000000,49663582.000000 51068306.000000,49643306.000000 51088582.000000,49629758.000000 51112500.000000,49625000.000000 51787500.000000,49625000.000000 51811418.000000,49629758.000000 51831694.000000,49643306.000000 51845242.000000,49663582.000000 51850000.000000,49687500.000000 51850000.000000,49812500.000000 51845242.000000,49836418.000000 51831694.000000,49856694.000000 51811418.000000,49870242.000000 51787500.000000,49875000.000000 51112500.000000,49875000.000000 51088582.000000,49870242.000000 51068306.000000,49856694.000000 51054758.000000,49836418.000000 51050000.000000,49812500.000000 Z"/> 
<svg:path style="fill:#C83434; fill-opacity:1.0;  stroke:#C83434; stroke-width:1.000000; stroke-opacity:1;  stroke-linecap:round; stroke-linejoin:round;fill-rule:evenodd;" d="M 51050000.000000,49187500.000000 51054758.000000,49163582.000000 51068306.000000,49143306.000000 51088582.000000,49129758.000000 51112500.000000,49125000.000000 51787500.000000,49125000.000000 51811418.000000,49129758.000000 51831694.000000,49143306.000000 51845242.000000,49163582.000000 51850000.000000,49187500.000000 51850000.000000,49312500.000000 51845242.000000,49336418.000000 51831694.000000,49356694.000000 51811418.000000,49370242.000000 51787500.000000,49375000.000000 51112500.000000,49375000.000000 51088582.000000,49370242.000000 51068306.000000,49356694.000000 51054758.000000,49336418.000000 51050000.000000,49312500.000000 Z"/> 
<svg:path style="fill:#C83434; fill-opacity:1.0;  stroke:#C83434; stroke-width:1.000000; stroke-opacity:1;  stroke-linecap:round; stroke-linejoin:round;fill-rule:evenodd;" d="M 49150000.000000,50700000.000000 49150000.000000,49300000.000000 50850000.000000,49300000.000000 50850000.000000,50700000.000000 Z"/> 
</svg:g>
<svg:g>
</svg:g>
<svg:g>
</svg:g>
<svg:g>
</svg:g>
</svg:g>
<svg:g style="fill:#FFFFFF; fill-opacity:1.0;  stroke:#FFFFFF; stroke-width:1.000000; stroke-opacity:1;  stroke-linecap:round; stroke-linejoin:round;">
</svg:g>
<svg:g style="fill:#000000; fill-opacity:1.0;  stroke:#000000; stroke-width:1.000000; stroke-opacity:1;  stroke-linecap:round; stroke-linejoin:round;">
<svg:g>
</svg:g>
<svg:g>
</svg:g>
<svg:g>
</svg:g>
<svg:g>
</svg:g>
</svg:g> 
</svg:g><svg:g><svg:title>SVG Picture created as kicadBoard-F_Fab.svg date 2022/11/19 03:03:25 </svg:title>
  <svg:desc>Picture generated by PCBNEW </svg:desc>
<svg:g style="fill:#000000; fill-opacity:1.000000;stroke:#000000; stroke-opacity:1.000000; stroke-linecap:round; stroke-linejoin:round;" transform="translate(0 0) scale(1 1)">
</svg:g>
<svg:g style="fill:#000000; fill-opacity:0.0;  stroke:#000000; stroke-width:0.000000; stroke-opacity:1;  stroke-linecap:round; stroke-linejoin:round;">
</svg:g>
<svg:g style="fill:#AFAFAF; fill-opacity:0.0;  stroke:#AFAFAF; stroke-width:0.000000; stroke-opacity:1;  stroke-linecap:round; stroke-linejoin:round;">
</svg:g>
<svg:g style="fill:#AFAFAF; fill-opacity:0.0;  stroke:#AFAFAF; stroke-width:150000.000000; stroke-opacity:1;  stroke-linecap:round; stroke-linejoin:round;">
<svg:text x="50000000.000000" y="52450000.000000" textLength="33242619.000000" font-size="1333333.000000" lengthAdjust="spacingAndGlyphs" text-anchor="middle" opacity="0">DFN-8-1EP_3x2mm_P0.5mm_EP1.7x1.4mm</svg:text>
<svg:g class="stroked-text"><svg:desc>DFN-8-1EP_3x2mm_P0.5mm_EP1.7x1.4mm</svg:desc>
<svg:path d="M33714285 52402380 L33714285 51402380 L33952380 51402380 L34095238 51450000 L34190476 51545238 L34238095 51640476 L34285714 51830952 L34285714 51973809 L34238095 52164285 L34190476 52259523 L34095238 52354761 L33952380 52402380 L33714285 52402380 "/>
<svg:path d="M35047619 51878571 L34714285 51878571 "/>
<svg:path d="M34714285 52402380 L34714285 51402380 L35190476 51402380 "/>
<svg:path d="M35571428 52402380 L35571428 51402380 L36142857 52402380 L36142857 51402380 "/>
<svg:path d="M36619047 52021428 L37380952 52021428 "/>
<svg:path d="M38000000 51830952 L37904761 51783333 L37857142 51735714 L37809523 51640476 L37809523 51592857 L37857142 51497619 L37904761 51450000 L38000000 51402380 L38190476 51402380 L38285714 51450000 L38333333 51497619 L38380952 51592857 L38380952 51640476 L38333333 51735714 L38285714 51783333 L38190476 51830952 L38000000 51830952 L37904761 51878571 L37857142 51926190 L37809523 52021428 L37809523 52211904 L37857142 52307142 L37904761 52354761 L38000000 52402380 L38190476 52402380 L38285714 52354761 L38333333 52307142 L38380952 52211904 L38380952 52021428 L38333333 51926190 L38285714 51878571 L38190476 51830952 "/>
<svg:path d="M38809523 52021428 L39571428 52021428 "/>
<svg:path d="M40571428 52402380 L40000000 52402380 "/>
<svg:path d="M40285714 52402380 L40285714 51402380 L40190476 51545238 L40095238 51640476 L40000000 51688095 "/>
<svg:path d="M41000000 51878571 L41333333 51878571 "/>
<svg:path d="M41476190 52402380 L41000000 52402380 L41000000 51402380 L41476190 51402380 "/>
<svg:path d="M41904761 52402380 L41904761 51402380 L42285714 51402380 L42380952 51450000 L42428571 51497619 L42476190 51592857 L42476190 51735714 L42428571 51830952 L42380952 51878571 L42285714 51926190 L41904761 51926190 "/>
<svg:path d="M42666666 52497619 L43428571 52497619 "/>
<svg:path d="M43571428 51402380 L44190476 51402380 L43857142 51783333 L44000000 51783333 L44095238 51830952 L44142857 51878571 L44190476 51973809 L44190476 52211904 L44142857 52307142 L44095238 52354761 L44000000 52402380 L43714285 52402380 L43619047 52354761 L43571428 52307142 "/>
<svg:path d="M44523809 52402380 L45047619 51735714 "/>
<svg:path d="M44523809 51735714 L45047619 52402380 "/>
<svg:path d="M45380952 51497619 L45428571 51450000 L45523809 51402380 L45761904 51402380 L45857142 51450000 L45904761 51497619 L45952380 51592857 L45952380 51688095 L45904761 51830952 L45333333 52402380 L45952380 52402380 "/>
<svg:path d="M46380952 52402380 L46380952 51735714 "/>
<svg:path d="M46380952 51830952 L46428571 51783333 L46523809 51735714 L46666666 51735714 L46761904 51783333 L46809523 51878571 L46809523 52402380 "/>
<svg:path d="M46809523 51878571 L46857142 51783333 L46952380 51735714 L47095238 51735714 L47190476 51783333 L47238095 51878571 L47238095 52402380 "/>
<svg:path d="M47714285 52402380 L47714285 51735714 "/>
<svg:path d="M47714285 51830952 L47761904 51783333 L47857142 51735714 L48000000 51735714 L48095238 51783333 L48142857 51878571 L48142857 52402380 "/>
<svg:path d="M48142857 51878571 L48190476 51783333 L48285714 51735714 L48428571 51735714 L48523809 51783333 L48571428 51878571 L48571428 52402380 "/>
<svg:path d="M48809523 52497619 L49571428 52497619 "/>
<svg:path d="M49809523 52402380 L49809523 51402380 L50190476 51402380 L50285714 51450000 L50333333 51497619 L50380952 51592857 L50380952 51735714 L50333333 51830952 L50285714 51878571 L50190476 51926190 L49809523 51926190 "/>
<svg:path d="M51000000 51402380 L51095238 51402380 L51190476 51450000 L51238095 51497619 L51285714 51592857 L51333333 51783333 L51333333 52021428 L51285714 52211904 L51238095 52307142 L51190476 52354761 L51095238 52402380 L51000000 52402380 L50904761 52354761 L50857142 52307142 L50809523 52211904 L50761904 52021428 L50761904 51783333 L50809523 51592857 L50857142 51497619 L50904761 51450000 L51000000 51402380 "/>
<svg:path d="M51761904 52307142 L51809523 52354761 L51761904 52402380 L51714285 52354761 L51761904 52307142 L51761904 52402380 "/>
<svg:path d="M52714285 51402380 L52238095 51402380 L52190476 51878571 L52238095 51830952 L52333333 51783333 L52571428 51783333 L52666666 51830952 L52714285 51878571 L52761904 51973809 L52761904 52211904 L52714285 52307142 L52666666 52354761 L52571428 52402380 L52333333 52402380 L52238095 52354761 L52190476 52307142 "/>
<svg:path d="M53190476 52402380 L53190476 51735714 "/>
<svg:path d="M53190476 51830952 L53238095 51783333 L53333333 51735714 L53476190 51735714 L53571428 51783333 L53619047 51878571 L53619047 52402380 "/>
<svg:path d="M53619047 51878571 L53666666 51783333 L53761904 51735714 L53904761 51735714 L54000000 51783333 L54047619 51878571 L54047619 52402380 "/>
<svg:path d="M54523809 52402380 L54523809 51735714 "/>
<svg:path d="M54523809 51830952 L54571428 51783333 L54666666 51735714 L54809523 51735714 L54904761 51783333 L54952380 51878571 L54952380 52402380 "/>
<svg:path d="M54952380 51878571 L55000000 51783333 L55095238 51735714 L55238095 51735714 L55333333 51783333 L55380952 51878571 L55380952 52402380 "/>
<svg:path d="M55619047 52497619 L56380952 52497619 "/>
<svg:path d="M56619047 51878571 L56952380 51878571 "/>
<svg:path d="M57095238 52402380 L56619047 52402380 L56619047 51402380 L57095238 51402380 "/>
<svg:path d="M57523809 52402380 L57523809 51402380 L57904761 51402380 L57999999 51450000 L58047619 51497619 L58095238 51592857 L58095238 51735714 L58047619 51830952 L57999999 51878571 L57904761 51926190 L57523809 51926190 "/>
<svg:path d="M59047619 52402380 L58476190 52402380 "/>
<svg:path d="M58761904 52402380 L58761904 51402380 L58666666 51545238 L58571428 51640476 L58476190 51688095 "/>
<svg:path d="M59476190 52307142 L59523809 52354761 L59476190 52402380 L59428571 52354761 L59476190 52307142 L59476190 52402380 "/>
<svg:path d="M59857142 51402380 L60523809 51402380 L60095238 52402380 "/>
<svg:path d="M60809523 52402380 L61333333 51735714 "/>
<svg:path d="M60809523 51735714 L61333333 52402380 "/>
<svg:path d="M62238095 52402380 L61666666 52402380 "/>
<svg:path d="M61952380 52402380 L61952380 51402380 L61857142 51545238 L61761904 51640476 L61666666 51688095 "/>
<svg:path d="M62666666 52307142 L62714285 52354761 L62666666 52402380 L62619047 52354761 L62666666 52307142 L62666666 52402380 "/>
<svg:path d="M63571428 51735714 L63571428 52402380 "/>
<svg:path d="M63333333 51354761 L63095238 52069047 L63714285 52069047 "/>
<svg:path d="M64095238 52402380 L64095238 51735714 "/>
<svg:path d="M64095238 51830952 L64142857 51783333 L64238095 51735714 L64380952 51735714 L64476190 51783333 L64523809 51878571 L64523809 52402380 "/>
<svg:path d="M64523809 51878571 L64571428 51783333 L64666666 51735714 L64809523 51735714 L64904761 51783333 L64952380 51878571 L64952380 52402380 "/>
<svg:path d="M65428571 52402380 L65428571 51735714 "/>
<svg:path d="M65428571 51830952 L65476190 51783333 L65571428 51735714 L65714285 51735714 L65809523 51783333 L65857142 51878571 L65857142 52402380 "/>
<svg:path d="M65857142 51878571 L65904761 51783333 L65999999 51735714 L66142857 51735714 L66238095 51783333 L66285714 51878571 L66285714 52402380 "/>
</svg:g></svg:g>
<svg:g style="fill:#AFAFAF; fill-opacity:0.0;  stroke:#AFAFAF; stroke-width:110000.000000; stroke-opacity:1;  stroke-linecap:round; stroke-linejoin:round;">
<svg:text x="50000000.000000" y="50375000.000000" textLength="18123571.000000" font-size="1000000.000000" lengthAdjust="spacingAndGlyphs" text-anchor="middle" opacity="0">FZKDFNDFN81EP3X2P5EP17X14</svg:text>
<svg:g class="stroked-text"><svg:desc>FZKDFNDFN81EP3X2P5EP17X14</svg:desc>
<svg:path d="M41464285 49946428 L41214285 49946428 "/>
<svg:path d="M41214285 50339285 L41214285 49589285 L41571428 49589285 "/>
<svg:path d="M41785714 49589285 L42285714 49589285 L41785714 50339285 L42285714 50339285 "/>
<svg:path d="M42571428 50339285 L42571428 49589285 "/>
<svg:path d="M43000000 50339285 L42678571 49910714 "/>
<svg:path d="M43000000 49589285 L42571428 50017857 "/>
<svg:path d="M43321428 50339285 L43321428 49589285 L43500000 49589285 L43607142 49625000 L43678571 49696428 L43714285 49767857 L43750000 49910714 L43750000 50017857 L43714285 50160714 L43678571 50232142 L43607142 50303571 L43500000 50339285 L43321428 50339285 "/>
<svg:path d="M44321428 49946428 L44071428 49946428 "/>
<svg:path d="M44071428 50339285 L44071428 49589285 L44428571 49589285 "/>
<svg:path d="M44714285 50339285 L44714285 49589285 L45142857 50339285 L45142857 49589285 "/>
<svg:path d="M45500000 50339285 L45500000 49589285 L45678571 49589285 L45785714 49625000 L45857142 49696428 L45892857 49767857 L45928571 49910714 L45928571 50017857 L45892857 50160714 L45857142 50232142 L45785714 50303571 L45678571 50339285 L45500000 50339285 "/>
<svg:path d="M46500000 49946428 L46250000 49946428 "/>
<svg:path d="M46250000 50339285 L46250000 49589285 L46607142 49589285 "/>
<svg:path d="M46892857 50339285 L46892857 49589285 L47321428 50339285 L47321428 49589285 "/>
<svg:path d="M47785714 49910714 L47714285 49875000 L47678571 49839285 L47642857 49767857 L47642857 49732142 L47678571 49660714 L47714285 49625000 L47785714 49589285 L47928571 49589285 L48000000 49625000 L48035714 49660714 L48071428 49732142 L48071428 49767857 L48035714 49839285 L48000000 49875000 L47928571 49910714 L47785714 49910714 L47714285 49946428 L47678571 49982142 L47642857 50053571 L47642857 50196428 L47678571 50267857 L47714285 50303571 L47785714 50339285 L47928571 50339285 L48000000 50303571 L48035714 50267857 L48071428 50196428 L48071428 50053571 L48035714 49982142 L48000000 49946428 L47928571 49910714 "/>
<svg:path d="M48785714 50339285 L48357142 50339285 "/>
<svg:path d="M48571428 50339285 L48571428 49589285 L48500000 49696428 L48428571 49767857 L48357142 49803571 "/>
<svg:path d="M49107142 49946428 L49357142 49946428 "/>
<svg:path d="M49464285 50339285 L49107142 50339285 L49107142 49589285 L49464285 49589285 "/>
<svg:path d="M49785714 50339285 L49785714 49589285 L50071428 49589285 L50142857 49625000 L50178571 49660714 L50214285 49732142 L50214285 49839285 L50178571 49910714 L50142857 49946428 L50071428 49982142 L49785714 49982142 "/>
<svg:path d="M50464285 49589285 L50928571 49589285 L50678571 49875000 L50785714 49875000 L50857142 49910714 L50892857 49946428 L50928571 50017857 L50928571 50196428 L50892857 50267857 L50857142 50303571 L50785714 50339285 L50571428 50339285 L50500000 50303571 L50464285 50267857 "/>
<svg:path d="M51178571 49589285 L51678571 50339285 "/>
<svg:path d="M51678571 49589285 L51178571 50339285 "/>
<svg:path d="M51928571 49660714 L51964285 49625000 L52035714 49589285 L52214285 49589285 L52285714 49625000 L52321428 49660714 L52357142 49732142 L52357142 49803571 L52321428 49910714 L51892857 50339285 L52357142 50339285 "/>
<svg:path d="M52678571 50339285 L52678571 49589285 L52964285 49589285 L53035714 49625000 L53071428 49660714 L53107142 49732142 L53107142 49839285 L53071428 49910714 L53035714 49946428 L52964285 49982142 L52678571 49982142 "/>
<svg:path d="M53785714 49589285 L53428571 49589285 L53392857 49946428 L53428571 49910714 L53500000 49875000 L53678571 49875000 L53750000 49910714 L53785714 49946428 L53821428 50017857 L53821428 50196428 L53785714 50267857 L53750000 50303571 L53678571 50339285 L53500000 50339285 L53428571 50303571 L53392857 50267857 "/>
<svg:path d="M54142857 49946428 L54392857 49946428 "/>
<svg:path d="M54500000 50339285 L54142857 50339285 L54142857 49589285 L54500000 49589285 "/>
<svg:path d="M54821428 50339285 L54821428 49589285 L55107142 49589285 L55178571 49625000 L55214285 49660714 L55250000 49732142 L55250000 49839285 L55214285 49910714 L55178571 49946428 L55107142 49982142 L54821428 49982142 "/>
<svg:path d="M55964285 50339285 L55535714 50339285 "/>
<svg:path d="M55750000 50339285 L55750000 49589285 L55678571 49696428 L55607142 49767857 L55535714 49803571 "/>
<svg:path d="M56214285 49589285 L56714285 49589285 L56392857 50339285 "/>
<svg:path d="M56928571 49589285 L57428571 50339285 "/>
<svg:path d="M57428571 49589285 L56928571 50339285 "/>
<svg:path d="M58107142 50339285 L57678571 50339285 "/>
<svg:path d="M57892857 50339285 L57892857 49589285 L57821428 49696428 L57750000 49767857 L57678571 49803571 "/>
<svg:path d="M58750000 49839285 L58750000 50339285 "/>
<svg:path d="M58571428 49553571 L58392857 50089285 L58857142 50089285 "/>
</svg:g></svg:g>
<svg:g style="fill:#AFAFAF; fill-opacity:0.0;  stroke:#AFAFAF; stroke-width:100000.000000; stroke-opacity:1;  stroke-linecap:round; stroke-linejoin:round;">
<svg:path d="M51500000 51000000 L48500000 51000000 "/>
<svg:path d="M48500000 49500000 L49000000 49000000 "/>
<svg:path d="M48500000 51000000 L48500000 49500000 "/>
<svg:path d="M51500000 49000000 L51500000 51000000 "/>
<svg:path d="M49000000 49000000 L51500000 49000000 "/>
<svg:g>
</svg:g>
<svg:g>
</svg:g>
<svg:g>
</svg:g>
<svg:g>
</svg:g>
</svg:g>
<svg:g style="fill:#000000; fill-opacity:0.0;  stroke:#000000; stroke-width:100000.000000; stroke-opacity:1;  stroke-linecap:round; stroke-linejoin:round;">
<svg:g>
</svg:g>
<svg:g>
</svg:g>
<svg:g>
</svg:g>
<svg:g>
</svg:g>
</svg:g> 
</svg:g><svg:g><svg:title>SVG Picture created as kicadBoard-F_Mask.svg date 2022/11/19 03:03:25 </svg:title>
  <svg:desc>Picture generated by PCBNEW </svg:desc>
<svg:g style="fill:#000000; fill-opacity:1.000000;stroke:#000000; stroke-opacity:1.000000; stroke-linecap:round; stroke-linejoin:round;" transform="translate(0 0) scale(1 1)">
</svg:g>
<svg:g style="fill:#000000; fill-opacity:0.0;  stroke:#000000; stroke-width:0.000000; stroke-opacity:1;  stroke-linecap:round; stroke-linejoin:round;">
<svg:g>
</svg:g>
<svg:g style="fill:#000000; fill-opacity:0.0;  stroke:#000000; stroke-width:1.000000; stroke-opacity:1;  stroke-linecap:round; stroke-linejoin:round;">
</svg:g>
<svg:g style="fill:#000000; fill-opacity:1.0;  stroke:#000000; stroke-width:1.000000; stroke-opacity:1;  stroke-linecap:round; stroke-linejoin:round;">
<svg:path style="fill:#000000; fill-opacity:1.0;  stroke:#000000; stroke-width:1.000000; stroke-opacity:1;  stroke-linecap:round; stroke-linejoin:round;fill-rule:evenodd;" d="M 48150000.000000,49187500.000000 48154758.000000,49163582.000000 48168306.000000,49143306.000000 48188582.000000,49129758.000000 48212500.000000,49125000.000000 48887500.000000,49125000.000000 48911418.000000,49129758.000000 48931694.000000,49143306.000000 48945242.000000,49163582.000000 48950000.000000,49187500.000000 48950000.000000,49312500.000000 48945242.000000,49336418.000000 48931694.000000,49356694.000000 48911418.000000,49370242.000000 48887500.000000,49375000.000000 48212500.000000,49375000.000000 48188582.000000,49370242.000000 48168306.000000,49356694.000000 48154758.000000,49336418.000000 48150000.000000,49312500.000000 Z"/> 
<svg:path style="fill:#000000; fill-opacity:1.0;  stroke:#000000; stroke-width:1.000000; stroke-opacity:1;  stroke-linecap:round; stroke-linejoin:round;fill-rule:evenodd;" d="M 48150000.000000,49687500.000000 48154758.000000,49663582.000000 48168306.000000,49643306.000000 48188582.000000,49629758.000000 48212500.000000,49625000.000000 48887500.000000,49625000.000000 48911418.000000,49629758.000000 48931694.000000,49643306.000000 48945242.000000,49663582.000000 48950000.000000,49687500.000000 48950000.000000,49812500.000000 48945242.000000,49836418.000000 48931694.000000,49856694.000000 48911418.000000,49870242.000000 48887500.000000,49875000.000000 48212500.000000,49875000.000000 48188582.000000,49870242.000000 48168306.000000,49856694.000000 48154758.000000,49836418.000000 48150000.000000,49812500.000000 Z"/> 
<svg:path style="fill:#000000; fill-opacity:1.0;  stroke:#000000; stroke-width:1.000000; stroke-opacity:1;  stroke-linecap:round; stroke-linejoin:round;fill-rule:evenodd;" d="M 48150000.000000,50187500.000000 48154758.000000,50163582.000000 48168306.000000,50143306.000000 48188582.000000,50129758.000000 48212500.000000,50125000.000000 48887500.000000,50125000.000000 48911418.000000,50129758.000000 48931694.000000,50143306.000000 48945242.000000,50163582.000000 48950000.000000,50187500.000000 48950000.000000,50312500.000000 48945242.000000,50336418.000000 48931694.000000,50356694.000000 48911418.000000,50370242.000000 48887500.000000,50375000.000000 48212500.000000,50375000.000000 48188582.000000,50370242.000000 48168306.000000,50356694.000000 48154758.000000,50336418.000000 48150000.000000,50312500.000000 Z"/> 
<svg:path style="fill:#000000; fill-opacity:1.0;  stroke:#000000; stroke-width:1.000000; stroke-opacity:1;  stroke-linecap:round; stroke-linejoin:round;fill-rule:evenodd;" d="M 48150000.000000,50687500.000000 48154758.000000,50663582.000000 48168306.000000,50643306.000000 48188582.000000,50629758.000000 48212500.000000,50625000.000000 48887500.000000,50625000.000000 48911418.000000,50629758.000000 48931694.000000,50643306.000000 48945242.000000,50663582.000000 48950000.000000,50687500.000000 48950000.000000,50812500.000000 48945242.000000,50836418.000000 48931694.000000,50856694.000000 48911418.000000,50870242.000000 48887500.000000,50875000.000000 48212500.000000,50875000.000000 48188582.000000,50870242.000000 48168306.000000,50856694.000000 48154758.000000,50836418.000000 48150000.000000,50812500.000000 Z"/> 
<svg:path style="fill:#000000; fill-opacity:1.0;  stroke:#000000; stroke-width:1.000000; stroke-opacity:1;  stroke-linecap:round; stroke-linejoin:round;fill-rule:evenodd;" d="M 51050000.000000,50687500.000000 51054758.000000,50663582.000000 51068306.000000,50643306.000000 51088582.000000,50629758.000000 51112500.000000,50625000.000000 51787500.000000,50625000.000000 51811418.000000,50629758.000000 51831694.000000,50643306.000000 51845242.000000,50663582.000000 51850000.000000,50687500.000000 51850000.000000,50812500.000000 51845242.000000,50836418.000000 51831694.000000,50856694.000000 51811418.000000,50870242.000000 51787500.000000,50875000.000000 51112500.000000,50875000.000000 51088582.000000,50870242.000000 51068306.000000,50856694.000000 51054758.000000,50836418.000000 51050000.000000,50812500.000000 Z"/> 
<svg:path style="fill:#000000; fill-opacity:1.0;  stroke:#000000; stroke-width:1.000000; stroke-opacity:1;  stroke-linecap:round; stroke-linejoin:round;fill-rule:evenodd;" d="M 51050000.000000,50187500.000000 51054758.000000,50163582.000000 51068306.000000,50143306.000000 51088582.000000,50129758.000000 51112500.000000,50125000.000000 51787500.000000,50125000.000000 51811418.000000,50129758.000000 51831694.000000,50143306.000000 51845242.000000,50163582.000000 51850000.000000,50187500.000000 51850000.000000,50312500.000000 51845242.000000,50336418.000000 51831694.000000,50356694.000000 51811418.000000,50370242.000000 51787500.000000,50375000.000000 51112500.000000,50375000.000000 51088582.000000,50370242.000000 51068306.000000,50356694.000000 51054758.000000,50336418.000000 51050000.000000,50312500.000000 Z"/> 
<svg:path style="fill:#000000; fill-opacity:1.0;  stroke:#000000; stroke-width:1.000000; stroke-opacity:1;  stroke-linecap:round; stroke-linejoin:round;fill-rule:evenodd;" d="M 51050000.000000,49687500.000000 51054758.000000,49663582.000000 51068306.000000,49643306.000000 51088582.000000,49629758.000000 51112500.000000,49625000.000000 51787500.000000,49625000.000000 51811418.000000,49629758.000000 51831694.000000,49643306.000000 51845242.000000,49663582.000000 51850000.000000,49687500.000000 51850000.000000,49812500.000000 51845242.000000,49836418.000000 51831694.000000,49856694.000000 51811418.000000,49870242.000000 51787500.000000,49875000.000000 51112500.000000,49875000.000000 51088582.000000,49870242.000000 51068306.000000,49856694.000000 51054758.000000,49836418.000000 51050000.000000,49812500.000000 Z"/> 
<svg:path style="fill:#000000; fill-opacity:1.0;  stroke:#000000; stroke-width:1.000000; stroke-opacity:1;  stroke-linecap:round; stroke-linejoin:round;fill-rule:evenodd;" d="M 51050000.000000,49187500.000000 51054758.000000,49163582.000000 51068306.000000,49143306.000000 51088582.000000,49129758.000000 51112500.000000,49125000.000000 51787500.000000,49125000.000000 51811418.000000,49129758.000000 51831694.000000,49143306.000000 51845242.000000,49163582.000000 51850000.000000,49187500.000000 51850000.000000,49312500.000000 51845242.000000,49336418.000000 51831694.000000,49356694.000000 51811418.000000,49370242.000000 51787500.000000,49375000.000000 51112500.000000,49375000.000000 51088582.000000,49370242.000000 51068306.000000,49356694.000000 51054758.000000,49336418.000000 51050000.000000,49312500.000000 Z"/> 
<svg:path style="fill:#000000; fill-opacity:1.0;  stroke:#000000; stroke-width:1.000000; stroke-opacity:1;  stroke-linecap:round; stroke-linejoin:round;fill-rule:evenodd;" d="M 49150000.000000,50700000.000000 49150000.000000,49300000.000000 50850000.000000,49300000.000000 50850000.000000,50700000.000000 Z"/> 
</svg:g>
<svg:g>
</svg:g>
<svg:g>
</svg:g>
<svg:g>
</svg:g>
</svg:g>
<svg:g style="fill:#000000; fill-opacity:1.0;  stroke:#000000; stroke-width:1.000000; stroke-opacity:1;  stroke-linecap:round; stroke-linejoin:round;">
<svg:g>
</svg:g>
<svg:g>
</svg:g>
<svg:g>
</svg:g>
<svg:g>
</svg:g>
</svg:g> 
</svg:g><svg:g><svg:title>SVG Picture created as kicadBoard-F_Paste.svg date 2022/11/19 03:03:25 </svg:title>
  <svg:desc>Picture generated by PCBNEW </svg:desc>
<svg:g style="fill:#000000; fill-opacity:1.000000;stroke:#000000; stroke-opacity:1.000000; stroke-linecap:round; stroke-linejoin:round;" transform="translate(0 0) scale(1 1)">
</svg:g>
<svg:g style="fill:#000000; fill-opacity:0.0;  stroke:#000000; stroke-width:0.000000; stroke-opacity:1;  stroke-linecap:round; stroke-linejoin:round;">
<svg:g>
</svg:g>
<svg:g style="fill:#000000; fill-opacity:0.0;  stroke:#000000; stroke-width:1.000000; stroke-opacity:1;  stroke-linecap:round; stroke-linejoin:round;">
</svg:g>
<svg:g style="fill:#000000; fill-opacity:1.0;  stroke:#000000; stroke-width:1.000000; stroke-opacity:1;  stroke-linecap:round; stroke-linejoin:round;">
<svg:path style="fill:#000000; fill-opacity:1.0;  stroke:#000000; stroke-width:1.000000; stroke-opacity:1;  stroke-linecap:round; stroke-linejoin:round;fill-rule:evenodd;" d="M 49230000.000000,49510000.000000 49240657.000000,49456424.000000 49271005.000000,49411005.000000 49316424.000000,49380657.000000 49370000.000000,49370000.000000 49780000.000000,49370000.000000 49833576.000000,49380657.000000 49878995.000000,49411005.000000 49909343.000000,49456424.000000 49920000.000000,49510000.000000 49920000.000000,49790000.000000 49909343.000000,49843576.000000 49878995.000000,49888995.000000 49833576.000000,49919343.000000 49780000.000000,49930000.000000 49370000.000000,49930000.000000 49316424.000000,49919343.000000 49271005.000000,49888995.000000 49240657.000000,49843576.000000 49230000.000000,49790000.000000 Z"/> 
<svg:path style="fill:#000000; fill-opacity:1.0;  stroke:#000000; stroke-width:1.000000; stroke-opacity:1;  stroke-linecap:round; stroke-linejoin:round;fill-rule:evenodd;" d="M 50080000.000000,50210000.000000 50090657.000000,50156424.000000 50121005.000000,50111005.000000 50166424.000000,50080657.000000 50220000.000000,50070000.000000 50630000.000000,50070000.000000 50683576.000000,50080657.000000 50728995.000000,50111005.000000 50759343.000000,50156424.000000 50770000.000000,50210000.000000 50770000.000000,50490000.000000 50759343.000000,50543576.000000 50728995.000000,50588995.000000 50683576.000000,50619343.000000 50630000.000000,50630000.000000 50220000.000000,50630000.000000 50166424.000000,50619343.000000 50121005.000000,50588995.000000 50090657.000000,50543576.000000 50080000.000000,50490000.000000 Z"/> 
<svg:path style="fill:#000000; fill-opacity:1.0;  stroke:#000000; stroke-width:1.000000; stroke-opacity:1;  stroke-linecap:round; stroke-linejoin:round;fill-rule:evenodd;" d="M 50080000.000000,49510000.000000 50090657.000000,49456424.000000 50121005.000000,49411005.000000 50166424.000000,49380657.000000 50220000.000000,49370000.000000 50630000.000000,49370000.000000 50683576.000000,49380657.000000 50728995.000000,49411005.000000 50759343.000000,49456424.000000 50770000.000000,49510000.000000 50770000.000000,49790000.000000 50759343.000000,49843576.000000 50728995.000000,49888995.000000 50683576.000000,49919343.000000 50630000.000000,49930000.000000 50220000.000000,49930000.000000 50166424.000000,49919343.000000 50121005.000000,49888995.000000 50090657.000000,49843576.000000 50080000.000000,49790000.000000 Z"/> 
<svg:path style="fill:#000000; fill-opacity:1.0;  stroke:#000000; stroke-width:1.000000; stroke-opacity:1;  stroke-linecap:round; stroke-linejoin:round;fill-rule:evenodd;" d="M 49230000.000000,50210000.000000 49240657.000000,50156424.000000 49271005.000000,50111005.000000 49316424.000000,50080657.000000 49370000.000000,50070000.000000 49780000.000000,50070000.000000 49833576.000000,50080657.000000 49878995.000000,50111005.000000 49909343.000000,50156424.000000 49920000.000000,50210000.000000 49920000.000000,50490000.000000 49909343.000000,50543576.000000 49878995.000000,50588995.000000 49833576.000000,50619343.000000 49780000.000000,50630000.000000 49370000.000000,50630000.000000 49316424.000000,50619343.000000 49271005.000000,50588995.000000 49240657.000000,50543576.000000 49230000.000000,50490000.000000 Z"/> 
<svg:path style="fill:#000000; fill-opacity:1.0;  stroke:#000000; stroke-width:1.000000; stroke-opacity:1;  stroke-linecap:round; stroke-linejoin:round;fill-rule:evenodd;" d="M 48150000.000000,49187500.000000 48154758.000000,49163582.000000 48168306.000000,49143306.000000 48188582.000000,49129758.000000 48212500.000000,49125000.000000 48887500.000000,49125000.000000 48911418.000000,49129758.000000 48931694.000000,49143306.000000 48945242.000000,49163582.000000 48950000.000000,49187500.000000 48950000.000000,49312500.000000 48945242.000000,49336418.000000 48931694.000000,49356694.000000 48911418.000000,49370242.000000 48887500.000000,49375000.000000 48212500.000000,49375000.000000 48188582.000000,49370242.000000 48168306.000000,49356694.000000 48154758.000000,49336418.000000 48150000.000000,49312500.000000 Z"/> 
<svg:path style="fill:#000000; fill-opacity:1.0;  stroke:#000000; stroke-width:1.000000; stroke-opacity:1;  stroke-linecap:round; stroke-linejoin:round;fill-rule:evenodd;" d="M 48150000.000000,49687500.000000 48154758.000000,49663582.000000 48168306.000000,49643306.000000 48188582.000000,49629758.000000 48212500.000000,49625000.000000 48887500.000000,49625000.000000 48911418.000000,49629758.000000 48931694.000000,49643306.000000 48945242.000000,49663582.000000 48950000.000000,49687500.000000 48950000.000000,49812500.000000 48945242.000000,49836418.000000 48931694.000000,49856694.000000 48911418.000000,49870242.000000 48887500.000000,49875000.000000 48212500.000000,49875000.000000 48188582.000000,49870242.000000 48168306.000000,49856694.000000 48154758.000000,49836418.000000 48150000.000000,49812500.000000 Z"/> 
<svg:path style="fill:#000000; fill-opacity:1.0;  stroke:#000000; stroke-width:1.000000; stroke-opacity:1;  stroke-linecap:round; stroke-linejoin:round;fill-rule:evenodd;" d="M 48150000.000000,50187500.000000 48154758.000000,50163582.000000 48168306.000000,50143306.000000 48188582.000000,50129758.000000 48212500.000000,50125000.000000 48887500.000000,50125000.000000 48911418.000000,50129758.000000 48931694.000000,50143306.000000 48945242.000000,50163582.000000 48950000.000000,50187500.000000 48950000.000000,50312500.000000 48945242.000000,50336418.000000 48931694.000000,50356694.000000 48911418.000000,50370242.000000 48887500.000000,50375000.000000 48212500.000000,50375000.000000 48188582.000000,50370242.000000 48168306.000000,50356694.000000 48154758.000000,50336418.000000 48150000.000000,50312500.000000 Z"/> 
<svg:path style="fill:#000000; fill-opacity:1.0;  stroke:#000000; stroke-width:1.000000; stroke-opacity:1;  stroke-linecap:round; stroke-linejoin:round;fill-rule:evenodd;" d="M 48150000.000000,50687500.000000 48154758.000000,50663582.000000 48168306.000000,50643306.000000 48188582.000000,50629758.000000 48212500.000000,50625000.000000 48887500.000000,50625000.000000 48911418.000000,50629758.000000 48931694.000000,50643306.000000 48945242.000000,50663582.000000 48950000.000000,50687500.000000 48950000.000000,50812500.000000 48945242.000000,50836418.000000 48931694.000000,50856694.000000 48911418.000000,50870242.000000 48887500.000000,50875000.000000 48212500.000000,50875000.000000 48188582.000000,50870242.000000 48168306.000000,50856694.000000 48154758.000000,50836418.000000 48150000.000000,50812500.000000 Z"/> 
<svg:path style="fill:#000000; fill-opacity:1.0;  stroke:#000000; stroke-width:1.000000; stroke-opacity:1;  stroke-linecap:round; stroke-linejoin:round;fill-rule:evenodd;" d="M 51050000.000000,50687500.000000 51054758.000000,50663582.000000 51068306.000000,50643306.000000 51088582.000000,50629758.000000 51112500.000000,50625000.000000 51787500.000000,50625000.000000 51811418.000000,50629758.000000 51831694.000000,50643306.000000 51845242.000000,50663582.000000 51850000.000000,50687500.000000 51850000.000000,50812500.000000 51845242.000000,50836418.000000 51831694.000000,50856694.000000 51811418.000000,50870242.000000 51787500.000000,50875000.000000 51112500.000000,50875000.000000 51088582.000000,50870242.000000 51068306.000000,50856694.000000 51054758.000000,50836418.000000 51050000.000000,50812500.000000 Z"/> 
<svg:path style="fill:#000000; fill-opacity:1.0;  stroke:#000000; stroke-width:1.000000; stroke-opacity:1;  stroke-linecap:round; stroke-linejoin:round;fill-rule:evenodd;" d="M 51050000.000000,50187500.000000 51054758.000000,50163582.000000 51068306.000000,50143306.000000 51088582.000000,50129758.000000 51112500.000000,50125000.000000 51787500.000000,50125000.000000 51811418.000000,50129758.000000 51831694.000000,50143306.000000 51845242.000000,50163582.000000 51850000.000000,50187500.000000 51850000.000000,50312500.000000 51845242.000000,50336418.000000 51831694.000000,50356694.000000 51811418.000000,50370242.000000 51787500.000000,50375000.000000 51112500.000000,50375000.000000 51088582.000000,50370242.000000 51068306.000000,50356694.000000 51054758.000000,50336418.000000 51050000.000000,50312500.000000 Z"/> 
<svg:path style="fill:#000000; fill-opacity:1.0;  stroke:#000000; stroke-width:1.000000; stroke-opacity:1;  stroke-linecap:round; stroke-linejoin:round;fill-rule:evenodd;" d="M 51050000.000000,49687500.000000 51054758.000000,49663582.000000 51068306.000000,49643306.000000 51088582.000000,49629758.000000 51112500.000000,49625000.000000 51787500.000000,49625000.000000 51811418.000000,49629758.000000 51831694.000000,49643306.000000 51845242.000000,49663582.000000 51850000.000000,49687500.000000 51850000.000000,49812500.000000 51845242.000000,49836418.000000 51831694.000000,49856694.000000 51811418.000000,49870242.000000 51787500.000000,49875000.000000 51112500.000000,49875000.000000 51088582.000000,49870242.000000 51068306.000000,49856694.000000 51054758.000000,49836418.000000 51050000.000000,49812500.000000 Z"/> 
<svg:path style="fill:#000000; fill-opacity:1.0;  stroke:#000000; stroke-width:1.000000; stroke-opacity:1;  stroke-linecap:round; stroke-linejoin:round;fill-rule:evenodd;" d="M 51050000.000000,49187500.000000 51054758.000000,49163582.000000 51068306.000000,49143306.000000 51088582.000000,49129758.000000 51112500.000000,49125000.000000 51787500.000000,49125000.000000 51811418.000000,49129758.000000 51831694.000000,49143306.000000 51845242.000000,49163582.000000 51850000.000000,49187500.000000 51850000.000000,49312500.000000 51845242.000000,49336418.000000 51831694.000000,49356694.000000 51811418.000000,49370242.000000 51787500.000000,49375000.000000 51112500.000000,49375000.000000 51088582.000000,49370242.000000 51068306.000000,49356694.000000 51054758.000000,49336418.000000 51050000.000000,49312500.000000 Z"/> 
</svg:g>
<svg:g>
</svg:g>
<svg:g>
</svg:g>
<svg:g>
</svg:g>
</svg:g>
<svg:g style="fill:#000000; fill-opacity:1.0;  stroke:#000000; stroke-width:1.000000; stroke-opacity:1;  stroke-linecap:round; stroke-linejoin:round;">
<svg:g>
</svg:g>
<svg:g>
</svg:g>
<svg:g>
</svg:g>
<svg:g>
</svg:g>
</svg:g> 
</svg:g><svg:g><svg:title>SVG Picture created as kicadBoard-F_Silkscreen.svg date 2022/11/19 03:03:25 </svg:title>
  <svg:desc>Picture generated by PCBNEW </svg:desc>
<svg:g style="fill:#000000; fill-opacity:1.000000;stroke:#000000; stroke-opacity:1.000000; stroke-linecap:round; stroke-linejoin:round;" transform="translate(0 0) scale(1 1)">
</svg:g>
<svg:g style="fill:#000000; fill-opacity:0.0;  stroke:#000000; stroke-width:0.000000; stroke-opacity:1;  stroke-linecap:round; stroke-linejoin:round;">
</svg:g>
<svg:g style="fill:#F2EDA1; fill-opacity:0.0;  stroke:#F2EDA1; stroke-width:0.000000; stroke-opacity:1;  stroke-linecap:round; stroke-linejoin:round;">
</svg:g>
<svg:g style="fill:#F2EDA1; fill-opacity:0.0;  stroke:#F2EDA1; stroke-width:150000.000000; stroke-opacity:1;  stroke-linecap:round; stroke-linejoin:round;">
<svg:text x="50000000.000000" y="48550000.000000" textLength="23904763.000000" font-size="1333333.000000" lengthAdjust="spacingAndGlyphs" text-anchor="middle" opacity="0">FZKDFNDFN81EP3X2P5EP17X14</svg:text>
<svg:g class="stroked-text"><svg:desc>FZKDFNDFN81EP3X2P5EP17X14</svg:desc>
<svg:path d="M38619047 47978571 L38285714 47978571 "/>
<svg:path d="M38285714 48502380 L38285714 47502380 L38761904 47502380 "/>
<svg:path d="M39047619 47502380 L39714285 47502380 L39047619 48502380 L39714285 48502380 "/>
<svg:path d="M40095238 48502380 L40095238 47502380 "/>
<svg:path d="M40666666 48502380 L40238095 47930952 "/>
<svg:path d="M40666666 47502380 L40095238 48073809 "/>
<svg:path d="M41095238 48502380 L41095238 47502380 L41333333 47502380 L41476190 47550000 L41571428 47645238 L41619047 47740476 L41666666 47930952 L41666666 48073809 L41619047 48264285 L41571428 48359523 L41476190 48454761 L41333333 48502380 L41095238 48502380 "/>
<svg:path d="M42428571 47978571 L42095238 47978571 "/>
<svg:path d="M42095238 48502380 L42095238 47502380 L42571428 47502380 "/>
<svg:path d="M42952380 48502380 L42952380 47502380 L43523809 48502380 L43523809 47502380 "/>
<svg:path d="M44000000 48502380 L44000000 47502380 L44238095 47502380 L44380952 47550000 L44476190 47645238 L44523809 47740476 L44571428 47930952 L44571428 48073809 L44523809 48264285 L44476190 48359523 L44380952 48454761 L44238095 48502380 L44000000 48502380 "/>
<svg:path d="M45333333 47978571 L45000000 47978571 "/>
<svg:path d="M45000000 48502380 L45000000 47502380 L45476190 47502380 "/>
<svg:path d="M45857142 48502380 L45857142 47502380 L46428571 48502380 L46428571 47502380 "/>
<svg:path d="M47047619 47930952 L46952380 47883333 L46904761 47835714 L46857142 47740476 L46857142 47692857 L46904761 47597619 L46952380 47550000 L47047619 47502380 L47238095 47502380 L47333333 47550000 L47380952 47597619 L47428571 47692857 L47428571 47740476 L47380952 47835714 L47333333 47883333 L47238095 47930952 L47047619 47930952 L46952380 47978571 L46904761 48026190 L46857142 48121428 L46857142 48311904 L46904761 48407142 L46952380 48454761 L47047619 48502380 L47238095 48502380 L47333333 48454761 L47380952 48407142 L47428571 48311904 L47428571 48121428 L47380952 48026190 L47333333 47978571 L47238095 47930952 "/>
<svg:path d="M48380952 48502380 L47809523 48502380 "/>
<svg:path d="M48095238 48502380 L48095238 47502380 L47999999 47645238 L47904761 47740476 L47809523 47788095 "/>
<svg:path d="M48809523 47978571 L49142857 47978571 "/>
<svg:path d="M49285714 48502380 L48809523 48502380 L48809523 47502380 L49285714 47502380 "/>
<svg:path d="M49714285 48502380 L49714285 47502380 L50095238 47502380 L50190476 47550000 L50238095 47597619 L50285714 47692857 L50285714 47835714 L50238095 47930952 L50190476 47978571 L50095238 48026190 L49714285 48026190 "/>
<svg:path d="M50619047 47502380 L51238095 47502380 L50904761 47883333 L51047619 47883333 L51142857 47930952 L51190476 47978571 L51238095 48073809 L51238095 48311904 L51190476 48407142 L51142857 48454761 L51047619 48502380 L50761904 48502380 L50666666 48454761 L50619047 48407142 "/>
<svg:path d="M51571428 47502380 L52238095 48502380 "/>
<svg:path d="M52238095 47502380 L51571428 48502380 "/>
<svg:path d="M52571428 47597619 L52619047 47550000 L52714285 47502380 L52952380 47502380 L53047619 47550000 L53095238 47597619 L53142857 47692857 L53142857 47788095 L53095238 47930952 L52523809 48502380 L53142857 48502380 "/>
<svg:path d="M53571428 48502380 L53571428 47502380 L53952380 47502380 L54047619 47550000 L54095238 47597619 L54142857 47692857 L54142857 47835714 L54095238 47930952 L54047619 47978571 L53952380 48026190 L53571428 48026190 "/>
<svg:path d="M55047619 47502380 L54571428 47502380 L54523809 47978571 L54571428 47930952 L54666666 47883333 L54904761 47883333 L54999999 47930952 L55047619 47978571 L55095238 48073809 L55095238 48311904 L55047619 48407142 L54999999 48454761 L54904761 48502380 L54666666 48502380 L54571428 48454761 L54523809 48407142 "/>
<svg:path d="M55523809 47978571 L55857142 47978571 "/>
<svg:path d="M55999999 48502380 L55523809 48502380 L55523809 47502380 L55999999 47502380 "/>
<svg:path d="M56428571 48502380 L56428571 47502380 L56809523 47502380 L56904761 47550000 L56952380 47597619 L56999999 47692857 L56999999 47835714 L56952380 47930952 L56904761 47978571 L56809523 48026190 L56428571 48026190 "/>
<svg:path d="M57952380 48502380 L57380952 48502380 "/>
<svg:path d="M57666666 48502380 L57666666 47502380 L57571428 47645238 L57476190 47740476 L57380952 47788095 "/>
<svg:path d="M58285714 47502380 L58952380 47502380 L58523809 48502380 "/>
<svg:path d="M59238095 47502380 L59904761 48502380 "/>
<svg:path d="M59904761 47502380 L59238095 48502380 "/>
<svg:path d="M60809523 48502380 L60238095 48502380 "/>
<svg:path d="M60523809 48502380 L60523809 47502380 L60428571 47645238 L60333333 47740476 L60238095 47788095 "/>
<svg:path d="M61666666 47835714 L61666666 48502380 "/>
<svg:path d="M61428571 47454761 L61190476 48169047 L61809523 48169047 "/>
</svg:g></svg:g>
<svg:g style="fill:#F2EDA1; fill-opacity:0.0;  stroke:#F2EDA1; stroke-width:120000.000000; stroke-opacity:1;  stroke-linecap:round; stroke-linejoin:round;">
<svg:path d="M48500000 51110000 L51500000 51110000 "/>
<svg:path d="M50000000 48890000 L51500000 48890000 "/>
<svg:g>
</svg:g>
<svg:g>
</svg:g>
<svg:g>
</svg:g>
<svg:g>
</svg:g>
</svg:g>
<svg:g style="fill:#000000; fill-opacity:0.0;  stroke:#000000; stroke-width:120000.000000; stroke-opacity:1;  stroke-linecap:round; stroke-linejoin:round;">
<svg:g>
</svg:g>
<svg:g>
</svg:g>
<svg:g>
</svg:g>
<svg:g>
</svg:g>
</svg:g> 
</svg:g><svg:g><svg:title>SVG Picture created as kicadBoard-Margin.svg date 2022/11/19 03:03:25 </svg:title>
  <svg:desc>Picture generated by PCBNEW </svg:desc>
<svg:g style="fill:#000000; fill-opacity:1.000000;stroke:#000000; stroke-opacity:1.000000; stroke-linecap:round; stroke-linejoin:round;" transform="translate(0 0) scale(1 1)">
</svg:g>
<svg:g style="fill:#000000; fill-opacity:0.0;  stroke:#000000; stroke-width:0.000000; stroke-opacity:1;  stroke-linecap:round; stroke-linejoin:round;">
<svg:g>
</svg:g>
<svg:g>
</svg:g>
<svg:g>
</svg:g>
<svg:g>
</svg:g>
</svg:g>
<svg:g style="fill:#000000; fill-opacity:0.0;  stroke:#000000; stroke-width:0.000000; stroke-opacity:1;  stroke-linecap:round; stroke-linejoin:round;">
<svg:g>
</svg:g>
<svg:g>
</svg:g>
<svg:g>
</svg:g>
<svg:g>
</svg:g>
</svg:g> 
</svg:g><svg:g><svg:title>SVG Picture created as kicadBoard-F_Cu.svg date 2022/11/19 03:03:25 </svg:title>
  <svg:desc>Picture generated by PCBNEW </svg:desc>
<svg:g style="fill:#000000; fill-opacity:1.000000;stroke:#000000; stroke-opacity:1.000000; stroke-linecap:round; stroke-linejoin:round;" transform="translate(0 0) scale(1 1)">
</svg:g>
<svg:g style="fill:#000000; fill-opacity:0.0;  stroke:#000000; stroke-width:0.000000; stroke-opacity:1;  stroke-linecap:round; stroke-linejoin:round;">
<svg:g>
</svg:g>
<svg:g style="fill:#C83434; fill-opacity:0.0;  stroke:#C83434; stroke-width:0.000000; stroke-opacity:1;  stroke-linecap:round; stroke-linejoin:round;">
</svg:g>
<svg:g style="fill:#C83434; fill-opacity:0.0;  stroke:#C83434; stroke-width:1.000000; stroke-opacity:1;  stroke-linecap:round; stroke-linejoin:round;">
</svg:g>
<svg:g style="fill:#C83434; fill-opacity:1.0;  stroke:#C83434; stroke-width:1.000000; stroke-opacity:1;  stroke-linecap:round; stroke-linejoin:round;">
<svg:path style="fill:#C83434; fill-opacity:1.0;  stroke:#C83434; stroke-width:1.000000; stroke-opacity:1;  stroke-linecap:round; stroke-linejoin:round;fill-rule:evenodd;" d="M 48150000.000000,49187500.000000 48154758.000000,49163582.000000 48168306.000000,49143306.000000 48188582.000000,49129758.000000 48212500.000000,49125000.000000 48887500.000000,49125000.000000 48911418.000000,49129758.000000 48931694.000000,49143306.000000 48945242.000000,49163582.000000 48950000.000000,49187500.000000 48950000.000000,49312500.000000 48945242.000000,49336418.000000 48931694.000000,49356694.000000 48911418.000000,49370242.000000 48887500.000000,49375000.000000 48212500.000000,49375000.000000 48188582.000000,49370242.000000 48168306.000000,49356694.000000 48154758.000000,49336418.000000 48150000.000000,49312500.000000 Z"/> 
<svg:path style="fill:#C83434; fill-opacity:1.0;  stroke:#C83434; stroke-width:1.000000; stroke-opacity:1;  stroke-linecap:round; stroke-linejoin:round;fill-rule:evenodd;" d="M 48150000.000000,49687500.000000 48154758.000000,49663582.000000 48168306.000000,49643306.000000 48188582.000000,49629758.000000 48212500.000000,49625000.000000 48887500.000000,49625000.000000 48911418.000000,49629758.000000 48931694.000000,49643306.000000 48945242.000000,49663582.000000 48950000.000000,49687500.000000 48950000.000000,49812500.000000 48945242.000000,49836418.000000 48931694.000000,49856694.000000 48911418.000000,49870242.000000 48887500.000000,49875000.000000 48212500.000000,49875000.000000 48188582.000000,49870242.000000 48168306.000000,49856694.000000 48154758.000000,49836418.000000 48150000.000000,49812500.000000 Z"/> 
<svg:path style="fill:#C83434; fill-opacity:1.0;  stroke:#C83434; stroke-width:1.000000; stroke-opacity:1;  stroke-linecap:round; stroke-linejoin:round;fill-rule:evenodd;" d="M 48150000.000000,50187500.000000 48154758.000000,50163582.000000 48168306.000000,50143306.000000 48188582.000000,50129758.000000 48212500.000000,50125000.000000 48887500.000000,50125000.000000 48911418.000000,50129758.000000 48931694.000000,50143306.000000 48945242.000000,50163582.000000 48950000.000000,50187500.000000 48950000.000000,50312500.000000 48945242.000000,50336418.000000 48931694.000000,50356694.000000 48911418.000000,50370242.000000 48887500.000000,50375000.000000 48212500.000000,50375000.000000 48188582.000000,50370242.000000 48168306.000000,50356694.000000 48154758.000000,50336418.000000 48150000.000000,50312500.000000 Z"/> 
<svg:path style="fill:#C83434; fill-opacity:1.0;  stroke:#C83434; stroke-width:1.000000; stroke-opacity:1;  stroke-linecap:round; stroke-linejoin:round;fill-rule:evenodd;" d="M 48150000.000000,50687500.000000 48154758.000000,50663582.000000 48168306.000000,50643306.000000 48188582.000000,50629758.000000 48212500.000000,50625000.000000 48887500.000000,50625000.000000 48911418.000000,50629758.000000 48931694.000000,50643306.000000 48945242.000000,50663582.000000 48950000.000000,50687500.000000 48950000.000000,50812500.000000 48945242.000000,50836418.000000 48931694.000000,50856694.000000 48911418.000000,50870242.000000 48887500.000000,50875000.000000 48212500.000000,50875000.000000 48188582.000000,50870242.000000 48168306.000000,50856694.000000 48154758.000000,50836418.000000 48150000.000000,50812500.000000 Z"/> 
<svg:path style="fill:#C83434; fill-opacity:1.0;  stroke:#C83434; stroke-width:1.000000; stroke-opacity:1;  stroke-linecap:round; stroke-linejoin:round;fill-rule:evenodd;" d="M 51050000.000000,50687500.000000 51054758.000000,50663582.000000 51068306.000000,50643306.000000 51088582.000000,50629758.000000 51112500.000000,50625000.000000 51787500.000000,50625000.000000 51811418.000000,50629758.000000 51831694.000000,50643306.000000 51845242.000000,50663582.000000 51850000.000000,50687500.000000 51850000.000000,50812500.000000 51845242.000000,50836418.000000 51831694.000000,50856694.000000 51811418.000000,50870242.000000 51787500.000000,50875000.000000 51112500.000000,50875000.000000 51088582.000000,50870242.000000 51068306.000000,50856694.000000 51054758.000000,50836418.000000 51050000.000000,50812500.000000 Z"/> 
<svg:path style="fill:#C83434; fill-opacity:1.0;  stroke:#C83434; stroke-width:1.000000; stroke-opacity:1;  stroke-linecap:round; stroke-linejoin:round;fill-rule:evenodd;" d="M 51050000.000000,50187500.000000 51054758.000000,50163582.000000 51068306.000000,50143306.000000 51088582.000000,50129758.000000 51112500.000000,50125000.000000 51787500.000000,50125000.000000 51811418.000000,50129758.000000 51831694.000000,50143306.000000 51845242.000000,50163582.000000 51850000.000000,50187500.000000 51850000.000000,50312500.000000 51845242.000000,50336418.000000 51831694.000000,50356694.000000 51811418.000000,50370242.000000 51787500.000000,50375000.000000 51112500.000000,50375000.000000 51088582.000000,50370242.000000 51068306.000000,50356694.000000 51054758.000000,50336418.000000 51050000.000000,50312500.000000 Z"/> 
<svg:path style="fill:#C83434; fill-opacity:1.0;  stroke:#C83434; stroke-width:1.000000; stroke-opacity:1;  stroke-linecap:round; stroke-linejoin:round;fill-rule:evenodd;" d="M 51050000.000000,49687500.000000 51054758.000000,49663582.000000 51068306.000000,49643306.000000 51088582.000000,49629758.000000 51112500.000000,49625000.000000 51787500.000000,49625000.000000 51811418.000000,49629758.000000 51831694.000000,49643306.000000 51845242.000000,49663582.000000 51850000.000000,49687500.000000 51850000.000000,49812500.000000 51845242.000000,49836418.000000 51831694.000000,49856694.000000 51811418.000000,49870242.000000 51787500.000000,49875000.000000 51112500.000000,49875000.000000 51088582.000000,49870242.000000 51068306.000000,49856694.000000 51054758.000000,49836418.000000 51050000.000000,49812500.000000 Z"/> 
<svg:path style="fill:#C83434; fill-opacity:1.0;  stroke:#C83434; stroke-width:1.000000; stroke-opacity:1;  stroke-linecap:round; stroke-linejoin:round;fill-rule:evenodd;" d="M 51050000.000000,49187500.000000 51054758.000000,49163582.000000 51068306.000000,49143306.000000 51088582.000000,49129758.000000 51112500.000000,49125000.000000 51787500.000000,49125000.000000 51811418.000000,49129758.000000 51831694.000000,49143306.000000 51845242.000000,49163582.000000 51850000.000000,49187500.000000 51850000.000000,49312500.000000 51845242.000000,49336418.000000 51831694.000000,49356694.000000 51811418.000000,49370242.000000 51787500.000000,49375000.000000 51112500.000000,49375000.000000 51088582.000000,49370242.000000 51068306.000000,49356694.000000 51054758.000000,49336418.000000 51050000.000000,49312500.000000 Z"/> 
<svg:path style="fill:#C83434; fill-opacity:1.0;  stroke:#C83434; stroke-width:1.000000; stroke-opacity:1;  stroke-linecap:round; stroke-linejoin:round;fill-rule:evenodd;" d="M 49150000.000000,50700000.000000 49150000.000000,49300000.000000 50850000.000000,49300000.000000 50850000.000000,50700000.000000 Z"/> 
</svg:g>
<svg:g>
</svg:g>
<svg:g>
</svg:g>
<svg:g>
</svg:g>
</svg:g>
<svg:g style="fill:#FFFFFF; fill-opacity:1.0;  stroke:#FFFFFF; stroke-width:1.000000; stroke-opacity:1;  stroke-linecap:round; stroke-linejoin:round;">
</svg:g>
<svg:g style="fill:#000000; fill-opacity:1.0;  stroke:#000000; stroke-width:1.000000; stroke-opacity:1;  stroke-linecap:round; stroke-linejoin:round;">
<svg:g>
</svg:g>
<svg:g>
</svg:g>
<svg:g>
</svg:g>
<svg:g>
</svg:g>
</svg:g> 
</svg:g></svg>
