<?xml version='1.0' encoding='ASCII' standalone='yes'?>
<svg xmlns:svg="http://www.w3.org/2000/svg" xmlns="http://www.w3.org/2000/svg" xmlns:xlink="http://www.w3.org/1999/xlink" version="1.1" width="9.999980cm" height="9.999980cm" viewBox="0 0 99999800 99999800">
<title>SVG Picture created as kicadBoard-B_Cu.svg date 2022/11/19 06:28:21 </title>
  <desc>Picture generated by PCBNEW </desc>
<g style="fill:#000000; fill-opacity:1.000000;stroke:#000000; stroke-opacity:1.000000; stroke-linecap:round; stroke-linejoin:round;" transform="translate(0 0) scale(1 1)">
</g>
<g style="fill:#000000; fill-opacity:0.0;  stroke:#000000; stroke-width:0.000000; stroke-opacity:1;  stroke-linecap:round; stroke-linejoin:round;">
<g>
</g>
<g>
</g>
<g>
</g>
<g>
</g>
</g>
<g style="fill:#FFFFFF; fill-opacity:0.0;  stroke:#FFFFFF; stroke-width:0.000000; stroke-opacity:1;  stroke-linecap:round; stroke-linejoin:round;">
</g>
<g style="fill:#000000; fill-opacity:0.0;  stroke:#000000; stroke-width:0.000000; stroke-opacity:1;  stroke-linecap:round; stroke-linejoin:round;">
<g>
</g>
<g>
</g>
<g>
</g>
<g>
</g>
</g> 
<svg:g><svg:title>SVG Picture created as kicadBoard-B_Courtyard.svg date 2022/11/19 06:28:21 </svg:title>
  <svg:desc>Picture generated by PCBNEW </svg:desc>
<svg:g style="fill:#000000; fill-opacity:1.000000;stroke:#000000; stroke-opacity:1.000000; stroke-linecap:round; stroke-linejoin:round;" transform="translate(0 0) scale(1 1)">
</svg:g>
<svg:g style="fill:#000000; fill-opacity:0.0;  stroke:#000000; stroke-width:0.000000; stroke-opacity:1;  stroke-linecap:round; stroke-linejoin:round;">
<svg:g>
</svg:g>
<svg:g>
</svg:g>
<svg:g>
</svg:g>
<svg:g>
</svg:g>
</svg:g>
<svg:g style="fill:#000000; fill-opacity:0.0;  stroke:#000000; stroke-width:0.000000; stroke-opacity:1;  stroke-linecap:round; stroke-linejoin:round;">
<svg:g>
</svg:g>
<svg:g>
</svg:g>
<svg:g>
</svg:g>
<svg:g>
</svg:g>
</svg:g> 
</svg:g><svg:g><svg:title>SVG Picture created as kicadBoard-F_Courtyard.svg date 2022/11/19 06:28:21 </svg:title>
  <svg:desc>Picture generated by PCBNEW </svg:desc>
<svg:g style="fill:#000000; fill-opacity:1.000000;stroke:#000000; stroke-opacity:1.000000; stroke-linecap:round; stroke-linejoin:round;" transform="translate(0 0) scale(1 1)">
</svg:g>
<svg:g style="fill:#000000; fill-opacity:0.0;  stroke:#000000; stroke-width:0.000000; stroke-opacity:1;  stroke-linecap:round; stroke-linejoin:round;">
</svg:g>
<svg:g style="fill:#FF26E2; fill-opacity:0.0;  stroke:#FF26E2; stroke-width:0.000000; stroke-opacity:1;  stroke-linecap:round; stroke-linejoin:round;">
</svg:g>
<svg:g style="fill:#FF26E2; fill-opacity:0.0;  stroke:#FF26E2; stroke-width:50000.000000; stroke-opacity:1;  stroke-linecap:round; stroke-linejoin:round;">
<svg:path d="M52600000 52600000 L52600000 47400000 "/>
<svg:path d="M52600000 47400000 L47400000 47400000 "/>
<svg:path d="M47400000 52600000 L52600000 52600000 "/>
<svg:path d="M47400000 47400000 L47400000 52600000 "/>
<svg:g>
</svg:g>
<svg:g>
</svg:g>
<svg:g>
</svg:g>
<svg:g>
</svg:g>
</svg:g>
<svg:g style="fill:#000000; fill-opacity:0.0;  stroke:#000000; stroke-width:50000.000000; stroke-opacity:1;  stroke-linecap:round; stroke-linejoin:round;">
<svg:g>
</svg:g>
<svg:g>
</svg:g>
<svg:g>
</svg:g>
<svg:g>
</svg:g>
</svg:g> 
</svg:g><svg:g><svg:title>SVG Picture created as kicadBoard-F_Cu.svg date 2022/11/19 06:28:21 </svg:title>
  <svg:desc>Picture generated by PCBNEW </svg:desc>
<svg:g style="fill:#000000; fill-opacity:1.000000;stroke:#000000; stroke-opacity:1.000000; stroke-linecap:round; stroke-linejoin:round;" transform="translate(0 0) scale(1 1)">
</svg:g>
<svg:g style="fill:#000000; fill-opacity:0.0;  stroke:#000000; stroke-width:0.000000; stroke-opacity:1;  stroke-linecap:round; stroke-linejoin:round;">
<svg:g>
</svg:g>
<svg:g style="fill:#C83434; fill-opacity:0.0;  stroke:#C83434; stroke-width:0.000000; stroke-opacity:1;  stroke-linecap:round; stroke-linejoin:round;">
</svg:g>
<svg:g style="fill:#C83434; fill-opacity:0.0;  stroke:#C83434; stroke-width:1.000000; stroke-opacity:1;  stroke-linecap:round; stroke-linejoin:round;">
</svg:g>
<svg:g style="fill:#C83434; fill-opacity:1.0;  stroke:#C83434; stroke-width:1.000000; stroke-opacity:1;  stroke-linecap:round; stroke-linejoin:round;">
<svg:path style="fill:#C83434; fill-opacity:1.0;  stroke:#C83434; stroke-width:1.000000; stroke-opacity:1;  stroke-linecap:round; stroke-linejoin:round;fill-rule:evenodd;" d="M 48364644.000000,48514645.000000 48435355.000000,48585356.000000 48450000.000000,48620711.000000 48450000.000000,48650000.000000 48435355.000000,48685355.000000 48400000.000000,48700000.000000 47700000.000000,48700000.000000 47664645.000000,48685355.000000 47650000.000000,48650000.000000 47650000.000000,48550000.000000 47664645.000000,48514645.000000 47700000.000000,48500000.000000 48329289.000000,48500000.000000 Z"/> 
<svg:path style="fill:#C83434; fill-opacity:1.0;  stroke:#C83434; stroke-width:1.000000; stroke-opacity:1;  stroke-linecap:round; stroke-linejoin:round;fill-rule:evenodd;" d="M 47650000.000000,48950000.000000 47653806.000000,48930866.000000 47664645.000000,48914645.000000 47680866.000000,48903806.000000 47700000.000000,48900000.000000 48400000.000000,48900000.000000 48419134.000000,48903806.000000 48435355.000000,48914645.000000 48446194.000000,48930866.000000 48450000.000000,48950000.000000 48450000.000000,49050000.000000 48446194.000000,49069134.000000 48435355.000000,49085355.000000 48419134.000000,49096194.000000 48400000.000000,49100000.000000 47700000.000000,49100000.000000 47680866.000000,49096194.000000 47664645.000000,49085355.000000 47653806.000000,49069134.000000 47650000.000000,49050000.000000 Z"/> 
<svg:path style="fill:#C83434; fill-opacity:1.0;  stroke:#C83434; stroke-width:1.000000; stroke-opacity:1;  stroke-linecap:round; stroke-linejoin:round;fill-rule:evenodd;" d="M 47650000.000000,49350000.000000 47653806.000000,49330866.000000 47664645.000000,49314645.000000 47680866.000000,49303806.000000 47700000.000000,49300000.000000 48400000.000000,49300000.000000 48419134.000000,49303806.000000 48435355.000000,49314645.000000 48446194.000000,49330866.000000 48450000.000000,49350000.000000 48450000.000000,49450000.000000 48446194.000000,49469134.000000 48435355.000000,49485355.000000 48419134.000000,49496194.000000 48400000.000000,49500000.000000 47700000.000000,49500000.000000 47680866.000000,49496194.000000 47664645.000000,49485355.000000 47653806.000000,49469134.000000 47650000.000000,49450000.000000 Z"/> 
<svg:path style="fill:#C83434; fill-opacity:1.0;  stroke:#C83434; stroke-width:1.000000; stroke-opacity:1;  stroke-linecap:round; stroke-linejoin:round;fill-rule:evenodd;" d="M 47650000.000000,49750000.000000 47653806.000000,49730866.000000 47664645.000000,49714645.000000 47680866.000000,49703806.000000 47700000.000000,49700000.000000 48400000.000000,49700000.000000 48419134.000000,49703806.000000 48435355.000000,49714645.000000 48446194.000000,49730866.000000 48450000.000000,49750000.000000 48450000.000000,49850000.000000 48446194.000000,49869134.000000 48435355.000000,49885355.000000 48419134.000000,49896194.000000 48400000.000000,49900000.000000 47700000.000000,49900000.000000 47680866.000000,49896194.000000 47664645.000000,49885355.000000 47653806.000000,49869134.000000 47650000.000000,49850000.000000 Z"/> 
<svg:path style="fill:#C83434; fill-opacity:1.0;  stroke:#C83434; stroke-width:1.000000; stroke-opacity:1;  stroke-linecap:round; stroke-linejoin:round;fill-rule:evenodd;" d="M 47650000.000000,50150000.000000 47653806.000000,50130866.000000 47664645.000000,50114645.000000 47680866.000000,50103806.000000 47700000.000000,50100000.000000 48400000.000000,50100000.000000 48419134.000000,50103806.000000 48435355.000000,50114645.000000 48446194.000000,50130866.000000 48450000.000000,50150000.000000 48450000.000000,50250000.000000 48446194.000000,50269134.000000 48435355.000000,50285355.000000 48419134.000000,50296194.000000 48400000.000000,50300000.000000 47700000.000000,50300000.000000 47680866.000000,50296194.000000 47664645.000000,50285355.000000 47653806.000000,50269134.000000 47650000.000000,50250000.000000 Z"/> 
<svg:path style="fill:#C83434; fill-opacity:1.0;  stroke:#C83434; stroke-width:1.000000; stroke-opacity:1;  stroke-linecap:round; stroke-linejoin:round;fill-rule:evenodd;" d="M 47650000.000000,50550000.000000 47653806.000000,50530866.000000 47664645.000000,50514645.000000 47680866.000000,50503806.000000 47700000.000000,50500000.000000 48400000.000000,50500000.000000 48419134.000000,50503806.000000 48435355.000000,50514645.000000 48446194.000000,50530866.000000 48450000.000000,50550000.000000 48450000.000000,50650000.000000 48446194.000000,50669134.000000 48435355.000000,50685355.000000 48419134.000000,50696194.000000 48400000.000000,50700000.000000 47700000.000000,50700000.000000 47680866.000000,50696194.000000 47664645.000000,50685355.000000 47653806.000000,50669134.000000 47650000.000000,50650000.000000 Z"/> 
<svg:path style="fill:#C83434; fill-opacity:1.0;  stroke:#C83434; stroke-width:1.000000; stroke-opacity:1;  stroke-linecap:round; stroke-linejoin:round;fill-rule:evenodd;" d="M 47650000.000000,50950000.000000 47653806.000000,50930866.000000 47664645.000000,50914645.000000 47680866.000000,50903806.000000 47700000.000000,50900000.000000 48400000.000000,50900000.000000 48419134.000000,50903806.000000 48435355.000000,50914645.000000 48446194.000000,50930866.000000 48450000.000000,50950000.000000 48450000.000000,51050000.000000 48446194.000000,51069134.000000 48435355.000000,51085355.000000 48419134.000000,51096194.000000 48400000.000000,51100000.000000 47700000.000000,51100000.000000 47680866.000000,51096194.000000 47664645.000000,51085355.000000 47653806.000000,51069134.000000 47650000.000000,51050000.000000 Z"/> 
<svg:path style="fill:#C83434; fill-opacity:1.0;  stroke:#C83434; stroke-width:1.000000; stroke-opacity:1;  stroke-linecap:round; stroke-linejoin:round;fill-rule:evenodd;" d="M 48435355.000000,51314645.000000 48450000.000000,51350000.000000 48450000.000000,51379289.000000 48435355.000000,51414645.000000 48364644.000000,51485355.000000 48329289.000000,51500000.000000 47700000.000000,51500000.000000 47664645.000000,51485355.000000 47650000.000000,51450000.000000 47650000.000000,51350000.000000 47664645.000000,51314645.000000 47700000.000000,51300000.000000 48400000.000000,51300000.000000 Z"/> 
<svg:path style="fill:#C83434; fill-opacity:1.0;  stroke:#C83434; stroke-width:1.000000; stroke-opacity:1;  stroke-linecap:round; stroke-linejoin:round;fill-rule:evenodd;" d="M 48685355.000000,51564645.000000 48700000.000000,51600000.000000 48700000.000000,52300000.000000 48685355.000000,52335355.000000 48650000.000000,52350000.000000 48550000.000000,52350000.000000 48514645.000000,52335355.000000 48500000.000000,52300000.000000 48500000.000000,51670711.000000 48514645.000000,51635356.000000 48585355.000000,51564645.000000 48620711.000000,51550000.000000 48650000.000000,51550000.000000 Z"/> 
<svg:path style="fill:#C83434; fill-opacity:1.0;  stroke:#C83434; stroke-width:1.000000; stroke-opacity:1;  stroke-linecap:round; stroke-linejoin:round;fill-rule:evenodd;" d="M 48900000.000000,51600000.000000 48903806.000000,51580866.000000 48914645.000000,51564645.000000 48930866.000000,51553806.000000 48950000.000000,51550000.000000 49050000.000000,51550000.000000 49069134.000000,51553806.000000 49085355.000000,51564645.000000 49096194.000000,51580866.000000 49100000.000000,51600000.000000 49100000.000000,52300000.000000 49096194.000000,52319134.000000 49085355.000000,52335355.000000 49069134.000000,52346194.000000 49050000.000000,52350000.000000 48950000.000000,52350000.000000 48930866.000000,52346194.000000 48914645.000000,52335355.000000 48903806.000000,52319134.000000 48900000.000000,52300000.000000 Z"/> 
<svg:path style="fill:#C83434; fill-opacity:1.0;  stroke:#C83434; stroke-width:1.000000; stroke-opacity:1;  stroke-linecap:round; stroke-linejoin:round;fill-rule:evenodd;" d="M 49300000.000000,51600000.000000 49303806.000000,51580866.000000 49314645.000000,51564645.000000 49330866.000000,51553806.000000 49350000.000000,51550000.000000 49450000.000000,51550000.000000 49469134.000000,51553806.000000 49485355.000000,51564645.000000 49496194.000000,51580866.000000 49500000.000000,51600000.000000 49500000.000000,52300000.000000 49496194.000000,52319134.000000 49485355.000000,52335355.000000 49469134.000000,52346194.000000 49450000.000000,52350000.000000 49350000.000000,52350000.000000 49330866.000000,52346194.000000 49314645.000000,52335355.000000 49303806.000000,52319134.000000 49300000.000000,52300000.000000 Z"/> 
<svg:path style="fill:#C83434; fill-opacity:1.0;  stroke:#C83434; stroke-width:1.000000; stroke-opacity:1;  stroke-linecap:round; stroke-linejoin:round;fill-rule:evenodd;" d="M 49700000.000000,51600000.000000 49703806.000000,51580866.000000 49714645.000000,51564645.000000 49730866.000000,51553806.000000 49750000.000000,51550000.000000 49850000.000000,51550000.000000 49869134.000000,51553806.000000 49885355.000000,51564645.000000 49896194.000000,51580866.000000 49900000.000000,51600000.000000 49900000.000000,52300000.000000 49896194.000000,52319134.000000 49885355.000000,52335355.000000 49869134.000000,52346194.000000 49850000.000000,52350000.000000 49750000.000000,52350000.000000 49730866.000000,52346194.000000 49714645.000000,52335355.000000 49703806.000000,52319134.000000 49700000.000000,52300000.000000 Z"/> 
<svg:path style="fill:#C83434; fill-opacity:1.0;  stroke:#C83434; stroke-width:1.000000; stroke-opacity:1;  stroke-linecap:round; stroke-linejoin:round;fill-rule:evenodd;" d="M 50100000.000000,51600000.000000 50103806.000000,51580866.000000 50114645.000000,51564645.000000 50130866.000000,51553806.000000 50150000.000000,51550000.000000 50250000.000000,51550000.000000 50269134.000000,51553806.000000 50285355.000000,51564645.000000 50296194.000000,51580866.000000 50300000.000000,51600000.000000 50300000.000000,52300000.000000 50296194.000000,52319134.000000 50285355.000000,52335355.000000 50269134.000000,52346194.000000 50250000.000000,52350000.000000 50150000.000000,52350000.000000 50130866.000000,52346194.000000 50114645.000000,52335355.000000 50103806.000000,52319134.000000 50100000.000000,52300000.000000 Z"/> 
<svg:path style="fill:#C83434; fill-opacity:1.0;  stroke:#C83434; stroke-width:1.000000; stroke-opacity:1;  stroke-linecap:round; stroke-linejoin:round;fill-rule:evenodd;" d="M 50500000.000000,51600000.000000 50503806.000000,51580866.000000 50514645.000000,51564645.000000 50530866.000000,51553806.000000 50550000.000000,51550000.000000 50650000.000000,51550000.000000 50669134.000000,51553806.000000 50685355.000000,51564645.000000 50696194.000000,51580866.000000 50700000.000000,51600000.000000 50700000.000000,52300000.000000 50696194.000000,52319134.000000 50685355.000000,52335355.000000 50669134.000000,52346194.000000 50650000.000000,52350000.000000 50550000.000000,52350000.000000 50530866.000000,52346194.000000 50514645.000000,52335355.000000 50503806.000000,52319134.000000 50500000.000000,52300000.000000 Z"/> 
<svg:path style="fill:#C83434; fill-opacity:1.0;  stroke:#C83434; stroke-width:1.000000; stroke-opacity:1;  stroke-linecap:round; stroke-linejoin:round;fill-rule:evenodd;" d="M 50900000.000000,51600000.000000 50903806.000000,51580866.000000 50914645.000000,51564645.000000 50930866.000000,51553806.000000 50950000.000000,51550000.000000 51050000.000000,51550000.000000 51069134.000000,51553806.000000 51085355.000000,51564645.000000 51096194.000000,51580866.000000 51100000.000000,51600000.000000 51100000.000000,52300000.000000 51096194.000000,52319134.000000 51085355.000000,52335355.000000 51069134.000000,52346194.000000 51050000.000000,52350000.000000 50950000.000000,52350000.000000 50930866.000000,52346194.000000 50914645.000000,52335355.000000 50903806.000000,52319134.000000 50900000.000000,52300000.000000 Z"/> 
<svg:path style="fill:#C83434; fill-opacity:1.0;  stroke:#C83434; stroke-width:1.000000; stroke-opacity:1;  stroke-linecap:round; stroke-linejoin:round;fill-rule:evenodd;" d="M 51414644.000000,51564645.000000 51485355.000000,51635356.000000 51500000.000000,51670711.000000 51500000.000000,52300000.000000 51485355.000000,52335355.000000 51450000.000000,52350000.000000 51350000.000000,52350000.000000 51314645.000000,52335355.000000 51300000.000000,52300000.000000 51300000.000000,51600000.000000 51314645.000000,51564645.000000 51350000.000000,51550000.000000 51379289.000000,51550000.000000 Z"/> 
<svg:path style="fill:#C83434; fill-opacity:1.0;  stroke:#C83434; stroke-width:1.000000; stroke-opacity:1;  stroke-linecap:round; stroke-linejoin:round;fill-rule:evenodd;" d="M 52335355.000000,51314645.000000 52350000.000000,51350000.000000 52350000.000000,51450000.000000 52335355.000000,51485355.000000 52300000.000000,51500000.000000 51670711.000000,51500000.000000 51635355.000000,51485355.000000 51564645.000000,51414644.000000 51550000.000000,51379289.000000 51550000.000000,51350000.000000 51564645.000000,51314645.000000 51600000.000000,51300000.000000 52300000.000000,51300000.000000 Z"/> 
<svg:path style="fill:#C83434; fill-opacity:1.0;  stroke:#C83434; stroke-width:1.000000; stroke-opacity:1;  stroke-linecap:round; stroke-linejoin:round;fill-rule:evenodd;" d="M 51550000.000000,50950000.000000 51553806.000000,50930866.000000 51564645.000000,50914645.000000 51580866.000000,50903806.000000 51600000.000000,50900000.000000 52300000.000000,50900000.000000 52319134.000000,50903806.000000 52335355.000000,50914645.000000 52346194.000000,50930866.000000 52350000.000000,50950000.000000 52350000.000000,51050000.000000 52346194.000000,51069134.000000 52335355.000000,51085355.000000 52319134.000000,51096194.000000 52300000.000000,51100000.000000 51600000.000000,51100000.000000 51580866.000000,51096194.000000 51564645.000000,51085355.000000 51553806.000000,51069134.000000 51550000.000000,51050000.000000 Z"/> 
<svg:path style="fill:#C83434; fill-opacity:1.0;  stroke:#C83434; stroke-width:1.000000; stroke-opacity:1;  stroke-linecap:round; stroke-linejoin:round;fill-rule:evenodd;" d="M 51550000.000000,50550000.000000 51553806.000000,50530866.000000 51564645.000000,50514645.000000 51580866.000000,50503806.000000 51600000.000000,50500000.000000 52300000.000000,50500000.000000 52319134.000000,50503806.000000 52335355.000000,50514645.000000 52346194.000000,50530866.000000 52350000.000000,50550000.000000 52350000.000000,50650000.000000 52346194.000000,50669134.000000 52335355.000000,50685355.000000 52319134.000000,50696194.000000 52300000.000000,50700000.000000 51600000.000000,50700000.000000 51580866.000000,50696194.000000 51564645.000000,50685355.000000 51553806.000000,50669134.000000 51550000.000000,50650000.000000 Z"/> 
<svg:path style="fill:#C83434; fill-opacity:1.0;  stroke:#C83434; stroke-width:1.000000; stroke-opacity:1;  stroke-linecap:round; stroke-linejoin:round;fill-rule:evenodd;" d="M 51550000.000000,50150000.000000 51553806.000000,50130866.000000 51564645.000000,50114645.000000 51580866.000000,50103806.000000 51600000.000000,50100000.000000 52300000.000000,50100000.000000 52319134.000000,50103806.000000 52335355.000000,50114645.000000 52346194.000000,50130866.000000 52350000.000000,50150000.000000 52350000.000000,50250000.000000 52346194.000000,50269134.000000 52335355.000000,50285355.000000 52319134.000000,50296194.000000 52300000.000000,50300000.000000 51600000.000000,50300000.000000 51580866.000000,50296194.000000 51564645.000000,50285355.000000 51553806.000000,50269134.000000 51550000.000000,50250000.000000 Z"/> 
<svg:path style="fill:#C83434; fill-opacity:1.0;  stroke:#C83434; stroke-width:1.000000; stroke-opacity:1;  stroke-linecap:round; stroke-linejoin:round;fill-rule:evenodd;" d="M 51550000.000000,49750000.000000 51553806.000000,49730866.000000 51564645.000000,49714645.000000 51580866.000000,49703806.000000 51600000.000000,49700000.000000 52300000.000000,49700000.000000 52319134.000000,49703806.000000 52335355.000000,49714645.000000 52346194.000000,49730866.000000 52350000.000000,49750000.000000 52350000.000000,49850000.000000 52346194.000000,49869134.000000 52335355.000000,49885355.000000 52319134.000000,49896194.000000 52300000.000000,49900000.000000 51600000.000000,49900000.000000 51580866.000000,49896194.000000 51564645.000000,49885355.000000 51553806.000000,49869134.000000 51550000.000000,49850000.000000 Z"/> 
<svg:path style="fill:#C83434; fill-opacity:1.0;  stroke:#C83434; stroke-width:1.000000; stroke-opacity:1;  stroke-linecap:round; stroke-linejoin:round;fill-rule:evenodd;" d="M 51550000.000000,49350000.000000 51553806.000000,49330866.000000 51564645.000000,49314645.000000 51580866.000000,49303806.000000 51600000.000000,49300000.000000 52300000.000000,49300000.000000 52319134.000000,49303806.000000 52335355.000000,49314645.000000 52346194.000000,49330866.000000 52350000.000000,49350000.000000 52350000.000000,49450000.000000 52346194.000000,49469134.000000 52335355.000000,49485355.000000 52319134.000000,49496194.000000 52300000.000000,49500000.000000 51600000.000000,49500000.000000 51580866.000000,49496194.000000 51564645.000000,49485355.000000 51553806.000000,49469134.000000 51550000.000000,49450000.000000 Z"/> 
<svg:path style="fill:#C83434; fill-opacity:1.0;  stroke:#C83434; stroke-width:1.000000; stroke-opacity:1;  stroke-linecap:round; stroke-linejoin:round;fill-rule:evenodd;" d="M 51550000.000000,48950000.000000 51553806.000000,48930866.000000 51564645.000000,48914645.000000 51580866.000000,48903806.000000 51600000.000000,48900000.000000 52300000.000000,48900000.000000 52319134.000000,48903806.000000 52335355.000000,48914645.000000 52346194.000000,48930866.000000 52350000.000000,48950000.000000 52350000.000000,49050000.000000 52346194.000000,49069134.000000 52335355.000000,49085355.000000 52319134.000000,49096194.000000 52300000.000000,49100000.000000 51600000.000000,49100000.000000 51580866.000000,49096194.000000 51564645.000000,49085355.000000 51553806.000000,49069134.000000 51550000.000000,49050000.000000 Z"/> 
<svg:path style="fill:#C83434; fill-opacity:1.0;  stroke:#C83434; stroke-width:1.000000; stroke-opacity:1;  stroke-linecap:round; stroke-linejoin:round;fill-rule:evenodd;" d="M 52335355.000000,48514645.000000 52350000.000000,48550000.000000 52350000.000000,48650000.000000 52335355.000000,48685355.000000 52300000.000000,48700000.000000 51600000.000000,48700000.000000 51564645.000000,48685355.000000 51550000.000000,48650000.000000 51550000.000000,48620711.000000 51564645.000000,48585356.000000 51635355.000000,48514645.000000 51670711.000000,48500000.000000 52300000.000000,48500000.000000 Z"/> 
<svg:path style="fill:#C83434; fill-opacity:1.0;  stroke:#C83434; stroke-width:1.000000; stroke-opacity:1;  stroke-linecap:round; stroke-linejoin:round;fill-rule:evenodd;" d="M 51485355.000000,47664645.000000 51500000.000000,47700000.000000 51500000.000000,48329289.000000 51485355.000000,48364645.000000 51414644.000000,48435355.000000 51379289.000000,48450000.000000 51350000.000000,48450000.000000 51314645.000000,48435355.000000 51300000.000000,48400000.000000 51300000.000000,47700000.000000 51314645.000000,47664645.000000 51350000.000000,47650000.000000 51450000.000000,47650000.000000 Z"/> 
<svg:path style="fill:#C83434; fill-opacity:1.0;  stroke:#C83434; stroke-width:1.000000; stroke-opacity:1;  stroke-linecap:round; stroke-linejoin:round;fill-rule:evenodd;" d="M 50900000.000000,47700000.000000 50903806.000000,47680866.000000 50914645.000000,47664645.000000 50930866.000000,47653806.000000 50950000.000000,47650000.000000 51050000.000000,47650000.000000 51069134.000000,47653806.000000 51085355.000000,47664645.000000 51096194.000000,47680866.000000 51100000.000000,47700000.000000 51100000.000000,48400000.000000 51096194.000000,48419134.000000 51085355.000000,48435355.000000 51069134.000000,48446194.000000 51050000.000000,48450000.000000 50950000.000000,48450000.000000 50930866.000000,48446194.000000 50914645.000000,48435355.000000 50903806.000000,48419134.000000 50900000.000000,48400000.000000 Z"/> 
<svg:path style="fill:#C83434; fill-opacity:1.0;  stroke:#C83434; stroke-width:1.000000; stroke-opacity:1;  stroke-linecap:round; stroke-linejoin:round;fill-rule:evenodd;" d="M 50500000.000000,47700000.000000 50503806.000000,47680866.000000 50514645.000000,47664645.000000 50530866.000000,47653806.000000 50550000.000000,47650000.000000 50650000.000000,47650000.000000 50669134.000000,47653806.000000 50685355.000000,47664645.000000 50696194.000000,47680866.000000 50700000.000000,47700000.000000 50700000.000000,48400000.000000 50696194.000000,48419134.000000 50685355.000000,48435355.000000 50669134.000000,48446194.000000 50650000.000000,48450000.000000 50550000.000000,48450000.000000 50530866.000000,48446194.000000 50514645.000000,48435355.000000 50503806.000000,48419134.000000 50500000.000000,48400000.000000 Z"/> 
<svg:path style="fill:#C83434; fill-opacity:1.0;  stroke:#C83434; stroke-width:1.000000; stroke-opacity:1;  stroke-linecap:round; stroke-linejoin:round;fill-rule:evenodd;" d="M 50100000.000000,47700000.000000 50103806.000000,47680866.000000 50114645.000000,47664645.000000 50130866.000000,47653806.000000 50150000.000000,47650000.000000 50250000.000000,47650000.000000 50269134.000000,47653806.000000 50285355.000000,47664645.000000 50296194.000000,47680866.000000 50300000.000000,47700000.000000 50300000.000000,48400000.000000 50296194.000000,48419134.000000 50285355.000000,48435355.000000 50269134.000000,48446194.000000 50250000.000000,48450000.000000 50150000.000000,48450000.000000 50130866.000000,48446194.000000 50114645.000000,48435355.000000 50103806.000000,48419134.000000 50100000.000000,48400000.000000 Z"/> 
<svg:path style="fill:#C83434; fill-opacity:1.0;  stroke:#C83434; stroke-width:1.000000; stroke-opacity:1;  stroke-linecap:round; stroke-linejoin:round;fill-rule:evenodd;" d="M 49700000.000000,47700000.000000 49703806.000000,47680866.000000 49714645.000000,47664645.000000 49730866.000000,47653806.000000 49750000.000000,47650000.000000 49850000.000000,47650000.000000 49869134.000000,47653806.000000 49885355.000000,47664645.000000 49896194.000000,47680866.000000 49900000.000000,47700000.000000 49900000.000000,48400000.000000 49896194.000000,48419134.000000 49885355.000000,48435355.000000 49869134.000000,48446194.000000 49850000.000000,48450000.000000 49750000.000000,48450000.000000 49730866.000000,48446194.000000 49714645.000000,48435355.000000 49703806.000000,48419134.000000 49700000.000000,48400000.000000 Z"/> 
<svg:path style="fill:#C83434; fill-opacity:1.0;  stroke:#C83434; stroke-width:1.000000; stroke-opacity:1;  stroke-linecap:round; stroke-linejoin:round;fill-rule:evenodd;" d="M 49300000.000000,47700000.000000 49303806.000000,47680866.000000 49314645.000000,47664645.000000 49330866.000000,47653806.000000 49350000.000000,47650000.000000 49450000.000000,47650000.000000 49469134.000000,47653806.000000 49485355.000000,47664645.000000 49496194.000000,47680866.000000 49500000.000000,47700000.000000 49500000.000000,48400000.000000 49496194.000000,48419134.000000 49485355.000000,48435355.000000 49469134.000000,48446194.000000 49450000.000000,48450000.000000 49350000.000000,48450000.000000 49330866.000000,48446194.000000 49314645.000000,48435355.000000 49303806.000000,48419134.000000 49300000.000000,48400000.000000 Z"/> 
<svg:path style="fill:#C83434; fill-opacity:1.0;  stroke:#C83434; stroke-width:1.000000; stroke-opacity:1;  stroke-linecap:round; stroke-linejoin:round;fill-rule:evenodd;" d="M 48900000.000000,47700000.000000 48903806.000000,47680866.000000 48914645.000000,47664645.000000 48930866.000000,47653806.000000 48950000.000000,47650000.000000 49050000.000000,47650000.000000 49069134.000000,47653806.000000 49085355.000000,47664645.000000 49096194.000000,47680866.000000 49100000.000000,47700000.000000 49100000.000000,48400000.000000 49096194.000000,48419134.000000 49085355.000000,48435355.000000 49069134.000000,48446194.000000 49050000.000000,48450000.000000 48950000.000000,48450000.000000 48930866.000000,48446194.000000 48914645.000000,48435355.000000 48903806.000000,48419134.000000 48900000.000000,48400000.000000 Z"/> 
<svg:path style="fill:#C83434; fill-opacity:1.0;  stroke:#C83434; stroke-width:1.000000; stroke-opacity:1;  stroke-linecap:round; stroke-linejoin:round;fill-rule:evenodd;" d="M 48685355.000000,47664645.000000 48700000.000000,47700000.000000 48700000.000000,48400000.000000 48685355.000000,48435355.000000 48650000.000000,48450000.000000 48620711.000000,48450000.000000 48585355.000000,48435355.000000 48514645.000000,48364644.000000 48500000.000000,48329289.000000 48500000.000000,47700000.000000 48514645.000000,47664645.000000 48550000.000000,47650000.000000 48650000.000000,47650000.000000 Z"/> 
<svg:path style="fill:#C83434; fill-opacity:1.0;  stroke:#C83434; stroke-width:1.000000; stroke-opacity:1;  stroke-linecap:round; stroke-linejoin:round;fill-rule:evenodd;" d="M 48675000.000000,51325000.000000 48675000.000000,48675000.000000 51325000.000000,48675000.000000 51325000.000000,51325000.000000 Z"/> 
</svg:g>
<svg:g>
</svg:g>
<svg:g>
</svg:g>
<svg:g>
</svg:g>
</svg:g>
<svg:g style="fill:#FFFFFF; fill-opacity:1.0;  stroke:#FFFFFF; stroke-width:1.000000; stroke-opacity:1;  stroke-linecap:round; stroke-linejoin:round;">
</svg:g>
<svg:g style="fill:#000000; fill-opacity:1.0;  stroke:#000000; stroke-width:1.000000; stroke-opacity:1;  stroke-linecap:round; stroke-linejoin:round;">
<svg:g>
</svg:g>
<svg:g>
</svg:g>
<svg:g>
</svg:g>
<svg:g>
</svg:g>
</svg:g> 
</svg:g></svg>
