<?xml version='1.0' encoding='ASCII' standalone='yes'?>
<svg xmlns:svg="http://www.w3.org/2000/svg" xmlns="http://www.w3.org/2000/svg" xmlns:xlink="http://www.w3.org/1999/xlink" version="1.1" width="9.999980cm" height="9.999980cm" viewBox="0 0 99999800 99999800">
<title>SVG Picture created as kicadBoard-B_Cu.svg date 2022/12/05 12:58:45 </title>
  <desc>Picture generated by PCBNEW </desc>
<g style="fill:#000000; fill-opacity:1.000000;stroke:#000000; stroke-opacity:1.000000; stroke-linecap:round; stroke-linejoin:round;" transform="translate(0 0) scale(1 1)">
</g>
<g style="fill:#000000; fill-opacity:0.0;  stroke:#000000; stroke-width:0.000000; stroke-opacity:1;  stroke-linecap:round; stroke-linejoin:round;">
<g>
</g>
<g>
</g>
<g>
</g>
<g>
</g>
</g>
<g style="fill:#FFFFFF; fill-opacity:0.0;  stroke:#FFFFFF; stroke-width:0.000000; stroke-opacity:1;  stroke-linecap:round; stroke-linejoin:round;">
</g>
<g style="fill:#000000; fill-opacity:0.0;  stroke:#000000; stroke-width:0.000000; stroke-opacity:1;  stroke-linecap:round; stroke-linejoin:round;">
<g>
</g>
<g>
</g>
<g>
</g>
<g>
</g>
</g> 
<svg:g><svg:title>SVG Picture created as kicadBoard-B_Adhesive.svg date 2022/12/05 12:58:45 </svg:title>
  <svg:desc>Picture generated by PCBNEW </svg:desc>
<svg:g style="fill:#000000; fill-opacity:1.000000;stroke:#000000; stroke-opacity:1.000000; stroke-linecap:round; stroke-linejoin:round;" transform="translate(0 0) scale(1 1)">
</svg:g>
<svg:g style="fill:#000000; fill-opacity:0.0;  stroke:#000000; stroke-width:0.000000; stroke-opacity:1;  stroke-linecap:round; stroke-linejoin:round;">
<svg:g>
</svg:g>
<svg:g>
</svg:g>
<svg:g>
</svg:g>
<svg:g>
</svg:g>
</svg:g>
<svg:g style="fill:#000000; fill-opacity:0.0;  stroke:#000000; stroke-width:0.000000; stroke-opacity:1;  stroke-linecap:round; stroke-linejoin:round;">
<svg:g>
</svg:g>
<svg:g>
</svg:g>
<svg:g>
</svg:g>
<svg:g>
</svg:g>
</svg:g> 
</svg:g><svg:g><svg:title>SVG Picture created as kicadBoard-B_Courtyard.svg date 2022/12/05 12:58:45 </svg:title>
  <svg:desc>Picture generated by PCBNEW </svg:desc>
<svg:g style="fill:#000000; fill-opacity:1.000000;stroke:#000000; stroke-opacity:1.000000; stroke-linecap:round; stroke-linejoin:round;" transform="translate(0 0) scale(1 1)">
</svg:g>
<svg:g style="fill:#000000; fill-opacity:0.0;  stroke:#000000; stroke-width:0.000000; stroke-opacity:1;  stroke-linecap:round; stroke-linejoin:round;">
<svg:g>
</svg:g>
<svg:g>
</svg:g>
<svg:g>
</svg:g>
<svg:g>
</svg:g>
</svg:g>
<svg:g style="fill:#000000; fill-opacity:0.0;  stroke:#000000; stroke-width:0.000000; stroke-opacity:1;  stroke-linecap:round; stroke-linejoin:round;">
<svg:g>
</svg:g>
<svg:g>
</svg:g>
<svg:g>
</svg:g>
<svg:g>
</svg:g>
</svg:g> 
</svg:g><svg:g><svg:title>SVG Picture created as kicadBoard-B_Fab.svg date 2022/12/05 12:58:45 </svg:title>
  <svg:desc>Picture generated by PCBNEW </svg:desc>
<svg:g style="fill:#000000; fill-opacity:1.000000;stroke:#000000; stroke-opacity:1.000000; stroke-linecap:round; stroke-linejoin:round;" transform="translate(0 0) scale(1 1)">
</svg:g>
<svg:g style="fill:#000000; fill-opacity:0.0;  stroke:#000000; stroke-width:0.000000; stroke-opacity:1;  stroke-linecap:round; stroke-linejoin:round;">
<svg:g>
</svg:g>
<svg:g>
</svg:g>
<svg:g>
</svg:g>
<svg:g>
</svg:g>
</svg:g>
<svg:g style="fill:#000000; fill-opacity:0.0;  stroke:#000000; stroke-width:0.000000; stroke-opacity:1;  stroke-linecap:round; stroke-linejoin:round;">
<svg:g>
</svg:g>
<svg:g>
</svg:g>
<svg:g>
</svg:g>
<svg:g>
</svg:g>
</svg:g> 
</svg:g><svg:g><svg:title>SVG Picture created as kicadBoard-B_Mask.svg date 2022/12/05 12:58:45 </svg:title>
  <svg:desc>Picture generated by PCBNEW </svg:desc>
<svg:g style="fill:#000000; fill-opacity:1.000000;stroke:#000000; stroke-opacity:1.000000; stroke-linecap:round; stroke-linejoin:round;" transform="translate(0 0) scale(1 1)">
</svg:g>
<svg:g style="fill:#000000; fill-opacity:0.0;  stroke:#000000; stroke-width:0.000000; stroke-opacity:1;  stroke-linecap:round; stroke-linejoin:round;">
<svg:g>
</svg:g>
<svg:g>
</svg:g>
<svg:g>
</svg:g>
<svg:g>
</svg:g>
</svg:g>
<svg:g style="fill:#000000; fill-opacity:0.0;  stroke:#000000; stroke-width:0.000000; stroke-opacity:1;  stroke-linecap:round; stroke-linejoin:round;">
<svg:g>
</svg:g>
<svg:g>
</svg:g>
<svg:g>
</svg:g>
<svg:g>
</svg:g>
</svg:g> 
</svg:g><svg:g><svg:title>SVG Picture created as kicadBoard-B_Paste.svg date 2022/12/05 12:58:45 </svg:title>
  <svg:desc>Picture generated by PCBNEW </svg:desc>
<svg:g style="fill:#000000; fill-opacity:1.000000;stroke:#000000; stroke-opacity:1.000000; stroke-linecap:round; stroke-linejoin:round;" transform="translate(0 0) scale(1 1)">
</svg:g>
<svg:g style="fill:#000000; fill-opacity:0.0;  stroke:#000000; stroke-width:0.000000; stroke-opacity:1;  stroke-linecap:round; stroke-linejoin:round;">
<svg:g>
</svg:g>
<svg:g>
</svg:g>
<svg:g>
</svg:g>
<svg:g>
</svg:g>
</svg:g>
<svg:g style="fill:#000000; fill-opacity:0.0;  stroke:#000000; stroke-width:0.000000; stroke-opacity:1;  stroke-linecap:round; stroke-linejoin:round;">
<svg:g>
</svg:g>
<svg:g>
</svg:g>
<svg:g>
</svg:g>
<svg:g>
</svg:g>
</svg:g> 
</svg:g><svg:g><svg:title>SVG Picture created as kicadBoard-B_Silkscreen.svg date 2022/12/05 12:58:45 </svg:title>
  <svg:desc>Picture generated by PCBNEW </svg:desc>
<svg:g style="fill:#000000; fill-opacity:1.000000;stroke:#000000; stroke-opacity:1.000000; stroke-linecap:round; stroke-linejoin:round;" transform="translate(0 0) scale(1 1)">
</svg:g>
<svg:g style="fill:#000000; fill-opacity:0.0;  stroke:#000000; stroke-width:0.000000; stroke-opacity:1;  stroke-linecap:round; stroke-linejoin:round;">
<svg:g>
</svg:g>
<svg:g>
</svg:g>
<svg:g>
</svg:g>
<svg:g>
</svg:g>
</svg:g>
<svg:g style="fill:#000000; fill-opacity:0.0;  stroke:#000000; stroke-width:0.000000; stroke-opacity:1;  stroke-linecap:round; stroke-linejoin:round;">
<svg:g>
</svg:g>
<svg:g>
</svg:g>
<svg:g>
</svg:g>
<svg:g>
</svg:g>
</svg:g> 
</svg:g><svg:g><svg:title>SVG Picture created as kicadBoard-Edge_Cuts.svg date 2022/12/05 12:58:45 </svg:title>
  <svg:desc>Picture generated by PCBNEW </svg:desc>
<svg:g style="fill:#000000; fill-opacity:1.000000;stroke:#000000; stroke-opacity:1.000000; stroke-linecap:round; stroke-linejoin:round;" transform="translate(0 0) scale(1 1)">
</svg:g>
<svg:g style="fill:#000000; fill-opacity:0.0;  stroke:#000000; stroke-width:0.000000; stroke-opacity:1;  stroke-linecap:round; stroke-linejoin:round;">
<svg:g>
</svg:g>
<svg:g>
</svg:g>
<svg:g>
</svg:g>
<svg:g>
</svg:g>
</svg:g> 
</svg:g><svg:g><svg:title>SVG Picture created as kicadBoard-F_Adhesive.svg date 2022/12/05 12:58:45 </svg:title>
  <svg:desc>Picture generated by PCBNEW </svg:desc>
<svg:g style="fill:#000000; fill-opacity:1.000000;stroke:#000000; stroke-opacity:1.000000; stroke-linecap:round; stroke-linejoin:round;" transform="translate(0 0) scale(1 1)">
</svg:g>
<svg:g style="fill:#000000; fill-opacity:0.0;  stroke:#000000; stroke-width:0.000000; stroke-opacity:1;  stroke-linecap:round; stroke-linejoin:round;">
<svg:g>
</svg:g>
<svg:g>
</svg:g>
<svg:g>
</svg:g>
<svg:g>
</svg:g>
</svg:g>
<svg:g style="fill:#000000; fill-opacity:0.0;  stroke:#000000; stroke-width:0.000000; stroke-opacity:1;  stroke-linecap:round; stroke-linejoin:round;">
<svg:g>
</svg:g>
<svg:g>
</svg:g>
<svg:g>
</svg:g>
<svg:g>
</svg:g>
</svg:g> 
</svg:g><svg:g><svg:title>SVG Picture created as kicadBoard-F_Courtyard.svg date 2022/12/05 12:58:45 </svg:title>
  <svg:desc>Picture generated by PCBNEW </svg:desc>
<svg:g style="fill:#000000; fill-opacity:1.000000;stroke:#000000; stroke-opacity:1.000000; stroke-linecap:round; stroke-linejoin:round;" transform="translate(0 0) scale(1 1)">
</svg:g>
<svg:g style="fill:#000000; fill-opacity:0.0;  stroke:#000000; stroke-width:0.000000; stroke-opacity:1;  stroke-linecap:round; stroke-linejoin:round;">
<svg:g>
</svg:g>
<svg:g>
</svg:g>
<svg:g>
</svg:g>
<svg:g>
</svg:g>
</svg:g>
<svg:g style="fill:#000000; fill-opacity:0.0;  stroke:#000000; stroke-width:0.000000; stroke-opacity:1;  stroke-linecap:round; stroke-linejoin:round;">
<svg:g>
</svg:g>
<svg:g>
</svg:g>
<svg:g>
</svg:g>
<svg:g>
</svg:g>
</svg:g> 
</svg:g><svg:g><svg:title>SVG Picture created as kicadBoard-F_Cu.svg date 2022/12/05 12:58:45 </svg:title>
  <svg:desc>Picture generated by PCBNEW </svg:desc>
<svg:g style="fill:#000000; fill-opacity:1.000000;stroke:#000000; stroke-opacity:1.000000; stroke-linecap:round; stroke-linejoin:round;" transform="translate(0 0) scale(1 1)">
</svg:g>
<svg:g style="fill:#000000; fill-opacity:0.0;  stroke:#000000; stroke-width:0.000000; stroke-opacity:1;  stroke-linecap:round; stroke-linejoin:round;">
</svg:g>
<svg:g style="fill:#C83434; fill-opacity:0.0;  stroke:#C83434; stroke-width:0.000000; stroke-opacity:1;  stroke-linecap:round; stroke-linejoin:round;">
</svg:g>
<svg:g style="fill:#C83434; fill-opacity:1.0;  stroke:#C83434; stroke-width:1.000000; stroke-opacity:1;  stroke-linecap:round; stroke-linejoin:round;">
<svg:path style="fill:#C83434; fill-opacity:1.0;  stroke:#C83434; stroke-width:1.000000; stroke-opacity:1;  stroke-linecap:round; stroke-linejoin:round;fill-rule:evenodd;" d="M 59400000.000000,50200000.000000 57000000.000000,50200000.000000 57000000.000000,48000000.000000 59400000.000000,48000000.000000 Z"/> 
<svg:path style="fill:#C83434; fill-opacity:1.0;  stroke:#C83434; stroke-width:1.000000; stroke-opacity:1;  stroke-linecap:round; stroke-linejoin:round;fill-rule:evenodd;" d="M 58300000.000000,51050000.000000 57000000.000000,51050000.000000 57000000.000000,50200000.000000 58300000.000000,50200000.000000 Z"/> 
<svg:path style="fill:#C83434; fill-opacity:1.0;  stroke:#C83434; stroke-width:1.000000; stroke-opacity:1;  stroke-linecap:round; stroke-linejoin:round;fill-rule:evenodd;" d="M 43000000.000000,51050000.000000 41700000.000000,51050000.000000 41700000.000000,50200000.000000 43000000.000000,50200000.000000 Z"/> 
<svg:path style="fill:#C83434; fill-opacity:1.0;  stroke:#C83434; stroke-width:1.000000; stroke-opacity:1;  stroke-linecap:round; stroke-linejoin:round;fill-rule:evenodd;" d="M 43000000.000000,50200000.000000 40600000.000000,50200000.000000 40600000.000000,48000000.000000 43000000.000000,48000000.000000 Z"/> 
<svg:g>
<svg:path style="fill:#C83434; fill-opacity:1.0;  stroke:#C83434; stroke-width:1.000000; stroke-opacity:1;  stroke-linecap:round; stroke-linejoin:round;fill-rule:evenodd;" d="M 44100001.000000,47899999.000000 44100001.000000,47100001.000000 44399999.000000,47100001.000000 44399999.000000,47899999.000000 Z"/> 
<svg:path style="fill:#C83434; fill-opacity:1.0;  stroke:#C83434; stroke-width:1.000000; stroke-opacity:1;  stroke-linecap:round; stroke-linejoin:round;fill-rule:evenodd;" d="M 44600001.000000,47899999.000000 44600001.000000,47100001.000000 44899999.000000,47100001.000000 44899999.000000,47899999.000000 Z"/> 
<svg:path style="fill:#C83434; fill-opacity:1.0;  stroke:#C83434; stroke-width:1.000000; stroke-opacity:1;  stroke-linecap:round; stroke-linejoin:round;fill-rule:evenodd;" d="M 45100001.000000,47899999.000000 45100001.000000,47100001.000000 45399999.000000,47100001.000000 45399999.000000,47899999.000000 Z"/> 
<svg:path style="fill:#C83434; fill-opacity:1.0;  stroke:#C83434; stroke-width:1.000000; stroke-opacity:1;  stroke-linecap:round; stroke-linejoin:round;fill-rule:evenodd;" d="M 45600001.000000,47899999.000000 45600001.000000,47100001.000000 45899999.000000,47100001.000000 45899999.000000,47899999.000000 Z"/> 
<svg:path style="fill:#C83434; fill-opacity:1.0;  stroke:#C83434; stroke-width:1.000000; stroke-opacity:1;  stroke-linecap:round; stroke-linejoin:round;fill-rule:evenodd;" d="M 46100001.000000,47899999.000000 46100001.000000,47100001.000000 46399999.000000,47100001.000000 46399999.000000,47899999.000000 Z"/> 
<svg:path style="fill:#C83434; fill-opacity:1.0;  stroke:#C83434; stroke-width:1.000000; stroke-opacity:1;  stroke-linecap:round; stroke-linejoin:round;fill-rule:evenodd;" d="M 46600001.000000,47899999.000000 46600001.000000,47100001.000000 46899999.000000,47100001.000000 46899999.000000,47899999.000000 Z"/> 
<svg:path style="fill:#C83434; fill-opacity:1.0;  stroke:#C83434; stroke-width:1.000000; stroke-opacity:1;  stroke-linecap:round; stroke-linejoin:round;fill-rule:evenodd;" d="M 47100001.000000,47899999.000000 47100001.000000,47100001.000000 47399999.000000,47100001.000000 47399999.000000,47899999.000000 Z"/> 
<svg:path style="fill:#C83434; fill-opacity:1.0;  stroke:#C83434; stroke-width:1.000000; stroke-opacity:1;  stroke-linecap:round; stroke-linejoin:round;fill-rule:evenodd;" d="M 47600001.000000,47899999.000000 47600001.000000,47100001.000000 47899999.000000,47100001.000000 47899999.000000,47899999.000000 Z"/> 
<svg:path style="fill:#C83434; fill-opacity:1.0;  stroke:#C83434; stroke-width:1.000000; stroke-opacity:1;  stroke-linecap:round; stroke-linejoin:round;fill-rule:evenodd;" d="M 48100001.000000,47899999.000000 48100001.000000,47100001.000000 48399999.000000,47100001.000000 48399999.000000,47899999.000000 Z"/> 
<svg:path style="fill:#C83434; fill-opacity:1.0;  stroke:#C83434; stroke-width:1.000000; stroke-opacity:1;  stroke-linecap:round; stroke-linejoin:round;fill-rule:evenodd;" d="M 48600001.000000,47899999.000000 48600001.000000,47100001.000000 48899999.000000,47100001.000000 48899999.000000,47899999.000000 Z"/> 
<svg:path style="fill:#C83434; fill-opacity:1.0;  stroke:#C83434; stroke-width:1.000000; stroke-opacity:1;  stroke-linecap:round; stroke-linejoin:round;fill-rule:evenodd;" d="M 49100001.000000,47899999.000000 49100001.000000,47100001.000000 49399999.000000,47100001.000000 49399999.000000,47899999.000000 Z"/> 
<svg:path style="fill:#C83434; fill-opacity:1.0;  stroke:#C83434; stroke-width:1.000000; stroke-opacity:1;  stroke-linecap:round; stroke-linejoin:round;fill-rule:evenodd;" d="M 49600001.000000,47899999.000000 49600001.000000,47100001.000000 49899999.000000,47100001.000000 49899999.000000,47899999.000000 Z"/> 
<svg:path style="fill:#C83434; fill-opacity:1.0;  stroke:#C83434; stroke-width:1.000000; stroke-opacity:1;  stroke-linecap:round; stroke-linejoin:round;fill-rule:evenodd;" d="M 50100001.000000,47899999.000000 50100001.000000,47100001.000000 50399999.000000,47100001.000000 50399999.000000,47899999.000000 Z"/> 
<svg:path style="fill:#C83434; fill-opacity:1.0;  stroke:#C83434; stroke-width:1.000000; stroke-opacity:1;  stroke-linecap:round; stroke-linejoin:round;fill-rule:evenodd;" d="M 50600001.000000,47899999.000000 50600001.000000,47100001.000000 50899999.000000,47100001.000000 50899999.000000,47899999.000000 Z"/> 
<svg:path style="fill:#C83434; fill-opacity:1.0;  stroke:#C83434; stroke-width:1.000000; stroke-opacity:1;  stroke-linecap:round; stroke-linejoin:round;fill-rule:evenodd;" d="M 51100001.000000,47899999.000000 51100001.000000,47100001.000000 51399999.000000,47100001.000000 51399999.000000,47899999.000000 Z"/> 
<svg:path style="fill:#C83434; fill-opacity:1.0;  stroke:#C83434; stroke-width:1.000000; stroke-opacity:1;  stroke-linecap:round; stroke-linejoin:round;fill-rule:evenodd;" d="M 51600001.000000,47899999.000000 51600001.000000,47100001.000000 51899999.000000,47100001.000000 51899999.000000,47899999.000000 Z"/> 
<svg:path style="fill:#C83434; fill-opacity:1.0;  stroke:#C83434; stroke-width:1.000000; stroke-opacity:1;  stroke-linecap:round; stroke-linejoin:round;fill-rule:evenodd;" d="M 52100001.000000,47899999.000000 52100001.000000,47100001.000000 52399999.000000,47100001.000000 52399999.000000,47899999.000000 Z"/> 
<svg:path style="fill:#C83434; fill-opacity:1.0;  stroke:#C83434; stroke-width:1.000000; stroke-opacity:1;  stroke-linecap:round; stroke-linejoin:round;fill-rule:evenodd;" d="M 52600001.000000,47899999.000000 52600001.000000,47100001.000000 52899999.000000,47100001.000000 52899999.000000,47899999.000000 Z"/> 
<svg:path style="fill:#C83434; fill-opacity:1.0;  stroke:#C83434; stroke-width:1.000000; stroke-opacity:1;  stroke-linecap:round; stroke-linejoin:round;fill-rule:evenodd;" d="M 53100001.000000,47899999.000000 53100001.000000,47100001.000000 53399999.000000,47100001.000000 53399999.000000,47899999.000000 Z"/> 
<svg:path style="fill:#C83434; fill-opacity:1.0;  stroke:#C83434; stroke-width:1.000000; stroke-opacity:1;  stroke-linecap:round; stroke-linejoin:round;fill-rule:evenodd;" d="M 53600001.000000,47899999.000000 53600001.000000,47100001.000000 53899999.000000,47100001.000000 53899999.000000,47899999.000000 Z"/> 
<svg:path style="fill:#C83434; fill-opacity:1.0;  stroke:#C83434; stroke-width:1.000000; stroke-opacity:1;  stroke-linecap:round; stroke-linejoin:round;fill-rule:evenodd;" d="M 54100001.000000,47899999.000000 54100001.000000,47100001.000000 54399999.000000,47100001.000000 54399999.000000,47899999.000000 Z"/> 
<svg:path style="fill:#C83434; fill-opacity:1.0;  stroke:#C83434; stroke-width:1.000000; stroke-opacity:1;  stroke-linecap:round; stroke-linejoin:round;fill-rule:evenodd;" d="M 54600001.000000,47899999.000000 54600001.000000,47100001.000000 54899999.000000,47100001.000000 54899999.000000,47899999.000000 Z"/> 
<svg:path style="fill:#C83434; fill-opacity:1.0;  stroke:#C83434; stroke-width:1.000000; stroke-opacity:1;  stroke-linecap:round; stroke-linejoin:round;fill-rule:evenodd;" d="M 55100001.000000,47899999.000000 55100001.000000,47100001.000000 55399999.000000,47100001.000000 55399999.000000,47899999.000000 Z"/> 
<svg:path style="fill:#C83434; fill-opacity:1.0;  stroke:#C83434; stroke-width:1.000000; stroke-opacity:1;  stroke-linecap:round; stroke-linejoin:round;fill-rule:evenodd;" d="M 55600001.000000,47899999.000000 55600001.000000,47100001.000000 55899999.000000,47100001.000000 55899999.000000,47899999.000000 Z"/> 
</svg:g>
<svg:g>
</svg:g>
<svg:g>
</svg:g>
<svg:g>
</svg:g>
</svg:g>
<svg:g style="fill:#FFFFFF; fill-opacity:1.0;  stroke:#FFFFFF; stroke-width:1.000000; stroke-opacity:1;  stroke-linecap:round; stroke-linejoin:round;">
</svg:g>
<svg:g style="fill:#000000; fill-opacity:1.0;  stroke:#000000; stroke-width:1.000000; stroke-opacity:1;  stroke-linecap:round; stroke-linejoin:round;">
<svg:g>
</svg:g>
<svg:g>
</svg:g>
<svg:g>
</svg:g>
<svg:g>
</svg:g>
</svg:g> 
</svg:g><svg:g><svg:title>SVG Picture created as kicadBoard-F_Fab.svg date 2022/12/05 12:58:45 </svg:title>
  <svg:desc>Picture generated by PCBNEW </svg:desc>
<svg:g style="fill:#000000; fill-opacity:1.000000;stroke:#000000; stroke-opacity:1.000000; stroke-linecap:round; stroke-linejoin:round;" transform="translate(0 0) scale(1 1)">
</svg:g>
<svg:g style="fill:#000000; fill-opacity:0.0;  stroke:#000000; stroke-width:0.000000; stroke-opacity:1;  stroke-linecap:round; stroke-linejoin:round;">
</svg:g>
<svg:g style="fill:#AFAFAF; fill-opacity:0.0;  stroke:#AFAFAF; stroke-width:0.000000; stroke-opacity:1;  stroke-linecap:round; stroke-linejoin:round;">
</svg:g>
<svg:g style="fill:#AFAFAF; fill-opacity:0.0;  stroke:#AFAFAF; stroke-width:101600.000000; stroke-opacity:1;  stroke-linecap:round; stroke-linejoin:round;">
<svg:text x="40920000.000000" y="55620000.000000" textLength="6808651.000000" font-size="1557866.000000" lengthAdjust="spacingAndGlyphs" text-anchor="start" opacity="0">&gt;VALUE</svg:text>
<svg:g class="stroked-text"><svg:desc>&gt;VALUE</svg:desc>
<svg:path d="M41264230 54785428 L42154440 55119257 L41264230 55453085 "/>
<svg:path d="M42543906 54395961 L42933373 55564361 L43322840 54395961 "/>
<svg:path d="M43656668 55230533 L44213049 55230533 "/>
<svg:path d="M43545392 55564361 L43934859 54395961 L44324325 55564361 "/>
<svg:path d="M45270173 55564361 L44713792 55564361 L44713792 54395961 "/>
<svg:path d="M45659640 54395961 L45659640 55341809 L45715278 55453085 L45770916 55508723 L45882192 55564361 L46104744 55564361 L46216020 55508723 L46271659 55453085 L46327297 55341809 L46327297 54395961 "/>
<svg:path d="M46883678 54952342 L47273144 54952342 "/>
<svg:path d="M47440059 55564361 L46883678 55564361 L46883678 54395961 L47440059 54395961 "/>
</svg:g><svg:path d="M41650000 49050000 L41600000 49100000 "/>
<svg:path d="M58350000 48550000 L58350000 49050000 "/>
<svg:path d="M41800000 49300000 L41800000 48100000 "/>
<svg:path d="M58350000 48350000 L58950000 48350000 "/>
</svg:g>
<svg:g style="fill:#AFAFAF; fill-opacity:0.0;  stroke:#AFAFAF; stroke-width:203200.000000; stroke-opacity:1;  stroke-linecap:round; stroke-linejoin:round;">
<svg:path d="M41950000 48100000 L58050000 48100000 "/>
</svg:g>
<svg:g style="fill:#AFAFAF; fill-opacity:0.0;  stroke:#AFAFAF; stroke-width:101600.000000; stroke-opacity:1;  stroke-linecap:round; stroke-linejoin:round;">
<svg:path d="M41650000 48050000 L41650000 48350000 "/>
<svg:path d="M58950000 49100000 L58950000 49300000 "/>
<svg:path d="M41650000 48350000 L41050000 48350000 "/>
<svg:path d="M58200000 48050000 L58350000 48050000 "/>
</svg:g>
<svg:g style="fill:#AFAFAF; fill-opacity:0.0;  stroke:#AFAFAF; stroke-width:203200.000000; stroke-opacity:1;  stroke-linecap:round; stroke-linejoin:round;">
<svg:path d="M58050000 48100000 L58050000 51400000 "/>
</svg:g>
<svg:g style="fill:#AFAFAF; fill-opacity:0.0;  stroke:#AFAFAF; stroke-width:101600.000000; stroke-opacity:1;  stroke-linecap:round; stroke-linejoin:round;">
<svg:path d="M41050000 49300000 L41800000 49300000 "/>
<svg:path d="M41800000 48050000 L41650000 48050000 "/>
<svg:path d="M58950000 48350000 L58950000 48550000 "/>
<svg:path d="M41050000 48350000 L41050000 48550000 "/>
<svg:path d="M58400000 49100000 L58950000 49100000 "/>
<svg:path d="M58950000 49300000 L58200000 49300000 "/>
<svg:path d="M58350000 48050000 L58350000 48350000 "/>
<svg:path d="M58200000 49300000 L58200000 48100000 "/>
<svg:path d="M41050000 48550000 L41650000 48550000 "/>
</svg:g>
<svg:g style="fill:#AFAFAF; fill-opacity:0.0;  stroke:#AFAFAF; stroke-width:203200.000000; stroke-opacity:1;  stroke-linecap:round; stroke-linejoin:round;">
<svg:path d="M41950000 51400000 L41950000 48100000 "/>
</svg:g>
<svg:g style="fill:#AFAFAF; fill-opacity:0.0;  stroke:#AFAFAF; stroke-width:101600.000000; stroke-opacity:1;  stroke-linecap:round; stroke-linejoin:round;">
<svg:path d="M41050000 49100000 L41050000 49300000 "/>
<svg:path d="M41650000 48550000 L41650000 49050000 "/>
<svg:path d="M58350000 49050000 L58400000 49100000 "/>
<svg:path d="M58950000 48550000 L58350000 48550000 "/>
<svg:path d="M41600000 49100000 L41050000 49100000 "/>
</svg:g>
<svg:g style="fill:#AFAFAF; fill-opacity:1.0;  stroke:#AFAFAF; stroke-width:1.000000; stroke-opacity:1;  stroke-linecap:round; stroke-linejoin:round;">
<svg:path style="fill:#AFAFAF; fill-opacity:1.0;  stroke:#AFAFAF; stroke-width:1.000000; stroke-opacity:1;  stroke-linecap:round; stroke-linejoin:round;fill-rule:evenodd;" d="M 48350000.000000,48000000.000000 48150000.000000,48000000.000000 48150000.000000,47300000.000000 48350000.000000,47300000.000000 Z"/> 
<svg:path style="fill:#AFAFAF; fill-opacity:1.0;  stroke:#AFAFAF; stroke-width:1.000000; stroke-opacity:1;  stroke-linecap:round; stroke-linejoin:round;fill-rule:evenodd;" d="M 52850000.000000,48000000.000000 52650000.000000,48000000.000000 52650000.000000,47300000.000000 52850000.000000,47300000.000000 Z"/> 
<svg:path style="fill:#AFAFAF; fill-opacity:1.0;  stroke:#AFAFAF; stroke-width:1.000000; stroke-opacity:1;  stroke-linecap:round; stroke-linejoin:round;fill-rule:evenodd;" d="M 46350000.000000,48000000.000000 46150000.000000,48000000.000000 46150000.000000,47300000.000000 46350000.000000,47300000.000000 Z"/> 
<svg:path style="fill:#AFAFAF; fill-opacity:1.0;  stroke:#AFAFAF; stroke-width:1.000000; stroke-opacity:1;  stroke-linecap:round; stroke-linejoin:round;fill-rule:evenodd;" d="M 48850000.000000,48000000.000000 48650000.000000,48000000.000000 48650000.000000,47300000.000000 48850000.000000,47300000.000000 Z"/> 
<svg:path style="fill:#AFAFAF; fill-opacity:1.0;  stroke:#AFAFAF; stroke-width:1.000000; stroke-opacity:1;  stroke-linecap:round; stroke-linejoin:round;fill-rule:evenodd;" d="M 44350000.000000,48000000.000000 44150000.000000,48000000.000000 44150000.000000,47300000.000000 44350000.000000,47300000.000000 Z"/> 
<svg:path style="fill:#AFAFAF; fill-opacity:1.0;  stroke:#AFAFAF; stroke-width:1.000000; stroke-opacity:1;  stroke-linecap:round; stroke-linejoin:round;fill-rule:evenodd;" d="M 46850000.000000,48000000.000000 46650000.000000,48000000.000000 46650000.000000,47300000.000000 46850000.000000,47300000.000000 Z"/> 
<svg:path style="fill:#AFAFAF; fill-opacity:1.0;  stroke:#AFAFAF; stroke-width:1.000000; stroke-opacity:1;  stroke-linecap:round; stroke-linejoin:round;fill-rule:evenodd;" d="M 45350000.000000,48000000.000000 45150000.000000,48000000.000000 45150000.000000,47300000.000000 45350000.000000,47300000.000000 Z"/> 
<svg:path style="fill:#AFAFAF; fill-opacity:1.0;  stroke:#AFAFAF; stroke-width:1.000000; stroke-opacity:1;  stroke-linecap:round; stroke-linejoin:round;fill-rule:evenodd;" d="M 49850000.000000,48000000.000000 49650000.000000,48000000.000000 49650000.000000,47300000.000000 49850000.000000,47300000.000000 Z"/> 
<svg:path style="fill:#AFAFAF; fill-opacity:1.0;  stroke:#AFAFAF; stroke-width:1.000000; stroke-opacity:1;  stroke-linecap:round; stroke-linejoin:round;fill-rule:evenodd;" d="M 50350000.000000,48000000.000000 50150000.000000,48000000.000000 50150000.000000,47300000.000000 50350000.000000,47300000.000000 Z"/> 
<svg:path style="fill:#AFAFAF; fill-opacity:1.0;  stroke:#AFAFAF; stroke-width:1.000000; stroke-opacity:1;  stroke-linecap:round; stroke-linejoin:round;fill-rule:evenodd;" d="M 54850000.000000,48000000.000000 54650000.000000,48000000.000000 54650000.000000,47300000.000000 54850000.000000,47300000.000000 Z"/> 
<svg:path style="fill:#AFAFAF; fill-opacity:1.0;  stroke:#AFAFAF; stroke-width:1.000000; stroke-opacity:1;  stroke-linecap:round; stroke-linejoin:round;fill-rule:evenodd;" d="M 54350000.000000,48000000.000000 54150000.000000,48000000.000000 54150000.000000,47300000.000000 54350000.000000,47300000.000000 Z"/> 
<svg:path style="fill:#AFAFAF; fill-opacity:1.0;  stroke:#AFAFAF; stroke-width:1.000000; stroke-opacity:1;  stroke-linecap:round; stroke-linejoin:round;fill-rule:evenodd;" d="M 47350000.000000,48000000.000000 47150000.000000,48000000.000000 47150000.000000,47300000.000000 47350000.000000,47300000.000000 Z"/> 
<svg:path style="fill:#AFAFAF; fill-opacity:1.0;  stroke:#AFAFAF; stroke-width:1.000000; stroke-opacity:1;  stroke-linecap:round; stroke-linejoin:round;fill-rule:evenodd;" d="M 50850000.000000,48000000.000000 50650000.000000,48000000.000000 50650000.000000,47300000.000000 50850000.000000,47300000.000000 Z"/> 
<svg:path style="fill:#AFAFAF; fill-opacity:1.0;  stroke:#AFAFAF; stroke-width:1.000000; stroke-opacity:1;  stroke-linecap:round; stroke-linejoin:round;fill-rule:evenodd;" d="M 53850000.000000,48000000.000000 53650000.000000,48000000.000000 53650000.000000,47300000.000000 53850000.000000,47300000.000000 Z"/> 
<svg:path style="fill:#AFAFAF; fill-opacity:1.0;  stroke:#AFAFAF; stroke-width:1.000000; stroke-opacity:1;  stroke-linecap:round; stroke-linejoin:round;fill-rule:evenodd;" d="M 45850000.000000,48000000.000000 45650000.000000,48000000.000000 45650000.000000,47300000.000000 45850000.000000,47300000.000000 Z"/> 
<svg:path style="fill:#AFAFAF; fill-opacity:1.0;  stroke:#AFAFAF; stroke-width:1.000000; stroke-opacity:1;  stroke-linecap:round; stroke-linejoin:round;fill-rule:evenodd;" d="M 49350000.000000,48000000.000000 49150000.000000,48000000.000000 49150000.000000,47300000.000000 49350000.000000,47300000.000000 Z"/> 
<svg:path style="fill:#AFAFAF; fill-opacity:1.0;  stroke:#AFAFAF; stroke-width:1.000000; stroke-opacity:1;  stroke-linecap:round; stroke-linejoin:round;fill-rule:evenodd;" d="M 51850000.000000,48000000.000000 51650000.000000,48000000.000000 51650000.000000,47300000.000000 51850000.000000,47300000.000000 Z"/> 
<svg:path style="fill:#AFAFAF; fill-opacity:1.0;  stroke:#AFAFAF; stroke-width:1.000000; stroke-opacity:1;  stroke-linecap:round; stroke-linejoin:round;fill-rule:evenodd;" d="M 51350000.000000,48000000.000000 51150000.000000,48000000.000000 51150000.000000,47300000.000000 51350000.000000,47300000.000000 Z"/> 
<svg:path style="fill:#AFAFAF; fill-opacity:1.0;  stroke:#AFAFAF; stroke-width:1.000000; stroke-opacity:1;  stroke-linecap:round; stroke-linejoin:round;fill-rule:evenodd;" d="M 55850000.000000,48000000.000000 55650000.000000,48000000.000000 55650000.000000,47300000.000000 55850000.000000,47300000.000000 Z"/> 
<svg:path style="fill:#AFAFAF; fill-opacity:1.0;  stroke:#AFAFAF; stroke-width:1.000000; stroke-opacity:1;  stroke-linecap:round; stroke-linejoin:round;fill-rule:evenodd;" d="M 47850000.000000,48000000.000000 47650000.000000,48000000.000000 47650000.000000,47300000.000000 47850000.000000,47300000.000000 Z"/> 
<svg:path style="fill:#AFAFAF; fill-opacity:1.0;  stroke:#AFAFAF; stroke-width:1.000000; stroke-opacity:1;  stroke-linecap:round; stroke-linejoin:round;fill-rule:evenodd;" d="M 55350000.000000,48000000.000000 55150000.000000,48000000.000000 55150000.000000,47300000.000000 55350000.000000,47300000.000000 Z"/> 
<svg:path style="fill:#AFAFAF; fill-opacity:1.0;  stroke:#AFAFAF; stroke-width:1.000000; stroke-opacity:1;  stroke-linecap:round; stroke-linejoin:round;fill-rule:evenodd;" d="M 44850000.000000,48000000.000000 44650000.000000,48000000.000000 44650000.000000,47300000.000000 44850000.000000,47300000.000000 Z"/> 
<svg:path style="fill:#AFAFAF; fill-opacity:1.0;  stroke:#AFAFAF; stroke-width:1.000000; stroke-opacity:1;  stroke-linecap:round; stroke-linejoin:round;fill-rule:evenodd;" d="M 53350000.000000,48000000.000000 53150000.000000,48000000.000000 53150000.000000,47300000.000000 53350000.000000,47300000.000000 Z"/> 
<svg:path style="fill:#AFAFAF; fill-opacity:1.0;  stroke:#AFAFAF; stroke-width:1.000000; stroke-opacity:1;  stroke-linecap:round; stroke-linejoin:round;fill-rule:evenodd;" d="M 52350000.000000,48000000.000000 52150000.000000,48000000.000000 52150000.000000,47300000.000000 52350000.000000,47300000.000000 Z"/> 
<svg:g>
</svg:g>
<svg:g>
</svg:g>
<svg:g>
</svg:g>
<svg:g>
</svg:g>
</svg:g>
<svg:g style="fill:#000000; fill-opacity:1.0;  stroke:#000000; stroke-width:1.000000; stroke-opacity:1;  stroke-linecap:round; stroke-linejoin:round;">
<svg:g>
</svg:g>
<svg:g>
</svg:g>
<svg:g>
</svg:g>
<svg:g>
</svg:g>
</svg:g> 
</svg:g><svg:g><svg:title>SVG Picture created as kicadBoard-F_Mask.svg date 2022/12/05 12:58:45 </svg:title>
  <svg:desc>Picture generated by PCBNEW </svg:desc>
<svg:g style="fill:#000000; fill-opacity:1.000000;stroke:#000000; stroke-opacity:1.000000; stroke-linecap:round; stroke-linejoin:round;" transform="translate(0 0) scale(1 1)">
</svg:g>
<svg:g style="fill:#000000; fill-opacity:0.0;  stroke:#000000; stroke-width:0.000000; stroke-opacity:1;  stroke-linecap:round; stroke-linejoin:round;">
</svg:g>
<svg:g style="fill:#D864FF; fill-opacity:0.0;  stroke:#D864FF; stroke-width:0.000000; stroke-opacity:1;  stroke-linecap:round; stroke-linejoin:round;">
</svg:g>
<svg:g style="fill:#D864FF; fill-opacity:1.0;  stroke:#D864FF; stroke-width:1.000000; stroke-opacity:1;  stroke-linecap:round; stroke-linejoin:round;">
<svg:path style="fill:#D864FF; fill-opacity:1.0;  stroke:#D864FF; stroke-width:1.000000; stroke-opacity:1;  stroke-linecap:round; stroke-linejoin:round;fill-rule:evenodd;" d="M 59400000.000000,50200000.000000 58250000.000000,50200000.000000 58250000.000000,48000000.000000 59400000.000000,48000000.000000 Z"/> 
<svg:path style="fill:#D864FF; fill-opacity:1.0;  stroke:#D864FF; stroke-width:1.000000; stroke-opacity:1;  stroke-linecap:round; stroke-linejoin:round;fill-rule:evenodd;" d="M 58300000.000000,51050000.000000 57000000.000000,51050000.000000 57000000.000000,48000000.000000 58300000.000000,48000000.000000 Z"/> 
<svg:path style="fill:#D864FF; fill-opacity:1.0;  stroke:#D864FF; stroke-width:1.000000; stroke-opacity:1;  stroke-linecap:round; stroke-linejoin:round;fill-rule:evenodd;" d="M 41750000.000000,50200000.000000 40600000.000000,50200000.000000 40600000.000000,48000000.000000 41750000.000000,48000000.000000 Z"/> 
<svg:path style="fill:#D864FF; fill-opacity:1.0;  stroke:#D864FF; stroke-width:1.000000; stroke-opacity:1;  stroke-linecap:round; stroke-linejoin:round;fill-rule:evenodd;" d="M 43000000.000000,51050000.000000 41700000.000000,51050000.000000 41700000.000000,48000000.000000 43000000.000000,48000000.000000 Z"/> 
<svg:g>
</svg:g>
<svg:g style="fill:#000000; fill-opacity:1.0;  stroke:#000000; stroke-width:1.000000; stroke-opacity:1;  stroke-linecap:round; stroke-linejoin:round;">
<svg:path style="fill:#000000; fill-opacity:1.0;  stroke:#000000; stroke-width:1.000000; stroke-opacity:1;  stroke-linecap:round; stroke-linejoin:round;fill-rule:evenodd;" d="M 43998400.000000,47100000.000000 44006134.000000,47061119.000000 44028158.000000,47028158.000000 44061119.000000,47006134.000000 44100000.000000,46998400.000000 44400000.000000,46998400.000000 44438881.000000,47006134.000000 44471842.000000,47028158.000000 44493866.000000,47061119.000000 44501600.000000,47100000.000000 44501600.000000,47900000.000000 44493866.000000,47938881.000000 44471842.000000,47971842.000000 44438881.000000,47993866.000000 44400000.000000,48001600.000000 44100000.000000,48001600.000000 44061119.000000,47993866.000000 44028158.000000,47971842.000000 44006134.000000,47938881.000000 43998400.000000,47900000.000000 Z"/> 
<svg:path style="fill:#000000; fill-opacity:1.0;  stroke:#000000; stroke-width:1.000000; stroke-opacity:1;  stroke-linecap:round; stroke-linejoin:round;fill-rule:evenodd;" d="M 44498400.000000,47100000.000000 44506134.000000,47061119.000000 44528158.000000,47028158.000000 44561119.000000,47006134.000000 44600000.000000,46998400.000000 44900000.000000,46998400.000000 44938881.000000,47006134.000000 44971842.000000,47028158.000000 44993866.000000,47061119.000000 45001600.000000,47100000.000000 45001600.000000,47900000.000000 44993866.000000,47938881.000000 44971842.000000,47971842.000000 44938881.000000,47993866.000000 44900000.000000,48001600.000000 44600000.000000,48001600.000000 44561119.000000,47993866.000000 44528158.000000,47971842.000000 44506134.000000,47938881.000000 44498400.000000,47900000.000000 Z"/> 
<svg:path style="fill:#000000; fill-opacity:1.0;  stroke:#000000; stroke-width:1.000000; stroke-opacity:1;  stroke-linecap:round; stroke-linejoin:round;fill-rule:evenodd;" d="M 44998400.000000,47100000.000000 45006134.000000,47061119.000000 45028158.000000,47028158.000000 45061119.000000,47006134.000000 45100000.000000,46998400.000000 45400000.000000,46998400.000000 45438881.000000,47006134.000000 45471842.000000,47028158.000000 45493866.000000,47061119.000000 45501600.000000,47100000.000000 45501600.000000,47900000.000000 45493866.000000,47938881.000000 45471842.000000,47971842.000000 45438881.000000,47993866.000000 45400000.000000,48001600.000000 45100000.000000,48001600.000000 45061119.000000,47993866.000000 45028158.000000,47971842.000000 45006134.000000,47938881.000000 44998400.000000,47900000.000000 Z"/> 
<svg:path style="fill:#000000; fill-opacity:1.0;  stroke:#000000; stroke-width:1.000000; stroke-opacity:1;  stroke-linecap:round; stroke-linejoin:round;fill-rule:evenodd;" d="M 45498400.000000,47100000.000000 45506134.000000,47061119.000000 45528158.000000,47028158.000000 45561119.000000,47006134.000000 45600000.000000,46998400.000000 45900000.000000,46998400.000000 45938881.000000,47006134.000000 45971842.000000,47028158.000000 45993866.000000,47061119.000000 46001600.000000,47100000.000000 46001600.000000,47900000.000000 45993866.000000,47938881.000000 45971842.000000,47971842.000000 45938881.000000,47993866.000000 45900000.000000,48001600.000000 45600000.000000,48001600.000000 45561119.000000,47993866.000000 45528158.000000,47971842.000000 45506134.000000,47938881.000000 45498400.000000,47900000.000000 Z"/> 
<svg:path style="fill:#000000; fill-opacity:1.0;  stroke:#000000; stroke-width:1.000000; stroke-opacity:1;  stroke-linecap:round; stroke-linejoin:round;fill-rule:evenodd;" d="M 45998400.000000,47100000.000000 46006134.000000,47061119.000000 46028158.000000,47028158.000000 46061119.000000,47006134.000000 46100000.000000,46998400.000000 46400000.000000,46998400.000000 46438881.000000,47006134.000000 46471842.000000,47028158.000000 46493866.000000,47061119.000000 46501600.000000,47100000.000000 46501600.000000,47900000.000000 46493866.000000,47938881.000000 46471842.000000,47971842.000000 46438881.000000,47993866.000000 46400000.000000,48001600.000000 46100000.000000,48001600.000000 46061119.000000,47993866.000000 46028158.000000,47971842.000000 46006134.000000,47938881.000000 45998400.000000,47900000.000000 Z"/> 
<svg:path style="fill:#000000; fill-opacity:1.0;  stroke:#000000; stroke-width:1.000000; stroke-opacity:1;  stroke-linecap:round; stroke-linejoin:round;fill-rule:evenodd;" d="M 46498400.000000,47100000.000000 46506134.000000,47061119.000000 46528158.000000,47028158.000000 46561119.000000,47006134.000000 46600000.000000,46998400.000000 46900000.000000,46998400.000000 46938881.000000,47006134.000000 46971842.000000,47028158.000000 46993866.000000,47061119.000000 47001600.000000,47100000.000000 47001600.000000,47900000.000000 46993866.000000,47938881.000000 46971842.000000,47971842.000000 46938881.000000,47993866.000000 46900000.000000,48001600.000000 46600000.000000,48001600.000000 46561119.000000,47993866.000000 46528158.000000,47971842.000000 46506134.000000,47938881.000000 46498400.000000,47900000.000000 Z"/> 
<svg:path style="fill:#000000; fill-opacity:1.0;  stroke:#000000; stroke-width:1.000000; stroke-opacity:1;  stroke-linecap:round; stroke-linejoin:round;fill-rule:evenodd;" d="M 46998400.000000,47100000.000000 47006134.000000,47061119.000000 47028158.000000,47028158.000000 47061119.000000,47006134.000000 47100000.000000,46998400.000000 47400000.000000,46998400.000000 47438881.000000,47006134.000000 47471842.000000,47028158.000000 47493866.000000,47061119.000000 47501600.000000,47100000.000000 47501600.000000,47900000.000000 47493866.000000,47938881.000000 47471842.000000,47971842.000000 47438881.000000,47993866.000000 47400000.000000,48001600.000000 47100000.000000,48001600.000000 47061119.000000,47993866.000000 47028158.000000,47971842.000000 47006134.000000,47938881.000000 46998400.000000,47900000.000000 Z"/> 
<svg:path style="fill:#000000; fill-opacity:1.0;  stroke:#000000; stroke-width:1.000000; stroke-opacity:1;  stroke-linecap:round; stroke-linejoin:round;fill-rule:evenodd;" d="M 47498400.000000,47100000.000000 47506134.000000,47061119.000000 47528158.000000,47028158.000000 47561119.000000,47006134.000000 47600000.000000,46998400.000000 47900000.000000,46998400.000000 47938881.000000,47006134.000000 47971842.000000,47028158.000000 47993866.000000,47061119.000000 48001600.000000,47100000.000000 48001600.000000,47900000.000000 47993866.000000,47938881.000000 47971842.000000,47971842.000000 47938881.000000,47993866.000000 47900000.000000,48001600.000000 47600000.000000,48001600.000000 47561119.000000,47993866.000000 47528158.000000,47971842.000000 47506134.000000,47938881.000000 47498400.000000,47900000.000000 Z"/> 
<svg:path style="fill:#000000; fill-opacity:1.0;  stroke:#000000; stroke-width:1.000000; stroke-opacity:1;  stroke-linecap:round; stroke-linejoin:round;fill-rule:evenodd;" d="M 47998400.000000,47100000.000000 48006134.000000,47061119.000000 48028158.000000,47028158.000000 48061119.000000,47006134.000000 48100000.000000,46998400.000000 48400000.000000,46998400.000000 48438881.000000,47006134.000000 48471842.000000,47028158.000000 48493866.000000,47061119.000000 48501600.000000,47100000.000000 48501600.000000,47900000.000000 48493866.000000,47938881.000000 48471842.000000,47971842.000000 48438881.000000,47993866.000000 48400000.000000,48001600.000000 48100000.000000,48001600.000000 48061119.000000,47993866.000000 48028158.000000,47971842.000000 48006134.000000,47938881.000000 47998400.000000,47900000.000000 Z"/> 
<svg:path style="fill:#000000; fill-opacity:1.0;  stroke:#000000; stroke-width:1.000000; stroke-opacity:1;  stroke-linecap:round; stroke-linejoin:round;fill-rule:evenodd;" d="M 48498400.000000,47100000.000000 48506134.000000,47061119.000000 48528158.000000,47028158.000000 48561119.000000,47006134.000000 48600000.000000,46998400.000000 48900000.000000,46998400.000000 48938881.000000,47006134.000000 48971842.000000,47028158.000000 48993866.000000,47061119.000000 49001600.000000,47100000.000000 49001600.000000,47900000.000000 48993866.000000,47938881.000000 48971842.000000,47971842.000000 48938881.000000,47993866.000000 48900000.000000,48001600.000000 48600000.000000,48001600.000000 48561119.000000,47993866.000000 48528158.000000,47971842.000000 48506134.000000,47938881.000000 48498400.000000,47900000.000000 Z"/> 
<svg:path style="fill:#000000; fill-opacity:1.0;  stroke:#000000; stroke-width:1.000000; stroke-opacity:1;  stroke-linecap:round; stroke-linejoin:round;fill-rule:evenodd;" d="M 48998400.000000,47100000.000000 49006134.000000,47061119.000000 49028158.000000,47028158.000000 49061119.000000,47006134.000000 49100000.000000,46998400.000000 49400000.000000,46998400.000000 49438881.000000,47006134.000000 49471842.000000,47028158.000000 49493866.000000,47061119.000000 49501600.000000,47100000.000000 49501600.000000,47900000.000000 49493866.000000,47938881.000000 49471842.000000,47971842.000000 49438881.000000,47993866.000000 49400000.000000,48001600.000000 49100000.000000,48001600.000000 49061119.000000,47993866.000000 49028158.000000,47971842.000000 49006134.000000,47938881.000000 48998400.000000,47900000.000000 Z"/> 
<svg:path style="fill:#000000; fill-opacity:1.0;  stroke:#000000; stroke-width:1.000000; stroke-opacity:1;  stroke-linecap:round; stroke-linejoin:round;fill-rule:evenodd;" d="M 49498400.000000,47100000.000000 49506134.000000,47061119.000000 49528158.000000,47028158.000000 49561119.000000,47006134.000000 49600000.000000,46998400.000000 49900000.000000,46998400.000000 49938881.000000,47006134.000000 49971842.000000,47028158.000000 49993866.000000,47061119.000000 50001600.000000,47100000.000000 50001600.000000,47900000.000000 49993866.000000,47938881.000000 49971842.000000,47971842.000000 49938881.000000,47993866.000000 49900000.000000,48001600.000000 49600000.000000,48001600.000000 49561119.000000,47993866.000000 49528158.000000,47971842.000000 49506134.000000,47938881.000000 49498400.000000,47900000.000000 Z"/> 
<svg:path style="fill:#000000; fill-opacity:1.0;  stroke:#000000; stroke-width:1.000000; stroke-opacity:1;  stroke-linecap:round; stroke-linejoin:round;fill-rule:evenodd;" d="M 49998400.000000,47100000.000000 50006134.000000,47061119.000000 50028158.000000,47028158.000000 50061119.000000,47006134.000000 50100000.000000,46998400.000000 50400000.000000,46998400.000000 50438881.000000,47006134.000000 50471842.000000,47028158.000000 50493866.000000,47061119.000000 50501600.000000,47100000.000000 50501600.000000,47900000.000000 50493866.000000,47938881.000000 50471842.000000,47971842.000000 50438881.000000,47993866.000000 50400000.000000,48001600.000000 50100000.000000,48001600.000000 50061119.000000,47993866.000000 50028158.000000,47971842.000000 50006134.000000,47938881.000000 49998400.000000,47900000.000000 Z"/> 
<svg:path style="fill:#000000; fill-opacity:1.0;  stroke:#000000; stroke-width:1.000000; stroke-opacity:1;  stroke-linecap:round; stroke-linejoin:round;fill-rule:evenodd;" d="M 50498400.000000,47100000.000000 50506134.000000,47061119.000000 50528158.000000,47028158.000000 50561119.000000,47006134.000000 50600000.000000,46998400.000000 50900000.000000,46998400.000000 50938881.000000,47006134.000000 50971842.000000,47028158.000000 50993866.000000,47061119.000000 51001600.000000,47100000.000000 51001600.000000,47900000.000000 50993866.000000,47938881.000000 50971842.000000,47971842.000000 50938881.000000,47993866.000000 50900000.000000,48001600.000000 50600000.000000,48001600.000000 50561119.000000,47993866.000000 50528158.000000,47971842.000000 50506134.000000,47938881.000000 50498400.000000,47900000.000000 Z"/> 
<svg:path style="fill:#000000; fill-opacity:1.0;  stroke:#000000; stroke-width:1.000000; stroke-opacity:1;  stroke-linecap:round; stroke-linejoin:round;fill-rule:evenodd;" d="M 50998400.000000,47100000.000000 51006134.000000,47061119.000000 51028158.000000,47028158.000000 51061119.000000,47006134.000000 51100000.000000,46998400.000000 51400000.000000,46998400.000000 51438881.000000,47006134.000000 51471842.000000,47028158.000000 51493866.000000,47061119.000000 51501600.000000,47100000.000000 51501600.000000,47900000.000000 51493866.000000,47938881.000000 51471842.000000,47971842.000000 51438881.000000,47993866.000000 51400000.000000,48001600.000000 51100000.000000,48001600.000000 51061119.000000,47993866.000000 51028158.000000,47971842.000000 51006134.000000,47938881.000000 50998400.000000,47900000.000000 Z"/> 
<svg:path style="fill:#000000; fill-opacity:1.0;  stroke:#000000; stroke-width:1.000000; stroke-opacity:1;  stroke-linecap:round; stroke-linejoin:round;fill-rule:evenodd;" d="M 51498400.000000,47100000.000000 51506134.000000,47061119.000000 51528158.000000,47028158.000000 51561119.000000,47006134.000000 51600000.000000,46998400.000000 51900000.000000,46998400.000000 51938881.000000,47006134.000000 51971842.000000,47028158.000000 51993866.000000,47061119.000000 52001600.000000,47100000.000000 52001600.000000,47900000.000000 51993866.000000,47938881.000000 51971842.000000,47971842.000000 51938881.000000,47993866.000000 51900000.000000,48001600.000000 51600000.000000,48001600.000000 51561119.000000,47993866.000000 51528158.000000,47971842.000000 51506134.000000,47938881.000000 51498400.000000,47900000.000000 Z"/> 
<svg:path style="fill:#000000; fill-opacity:1.0;  stroke:#000000; stroke-width:1.000000; stroke-opacity:1;  stroke-linecap:round; stroke-linejoin:round;fill-rule:evenodd;" d="M 51998400.000000,47100000.000000 52006134.000000,47061119.000000 52028158.000000,47028158.000000 52061119.000000,47006134.000000 52100000.000000,46998400.000000 52400000.000000,46998400.000000 52438881.000000,47006134.000000 52471842.000000,47028158.000000 52493866.000000,47061119.000000 52501600.000000,47100000.000000 52501600.000000,47900000.000000 52493866.000000,47938881.000000 52471842.000000,47971842.000000 52438881.000000,47993866.000000 52400000.000000,48001600.000000 52100000.000000,48001600.000000 52061119.000000,47993866.000000 52028158.000000,47971842.000000 52006134.000000,47938881.000000 51998400.000000,47900000.000000 Z"/> 
<svg:path style="fill:#000000; fill-opacity:1.0;  stroke:#000000; stroke-width:1.000000; stroke-opacity:1;  stroke-linecap:round; stroke-linejoin:round;fill-rule:evenodd;" d="M 52498400.000000,47100000.000000 52506134.000000,47061119.000000 52528158.000000,47028158.000000 52561119.000000,47006134.000000 52600000.000000,46998400.000000 52900000.000000,46998400.000000 52938881.000000,47006134.000000 52971842.000000,47028158.000000 52993866.000000,47061119.000000 53001600.000000,47100000.000000 53001600.000000,47900000.000000 52993866.000000,47938881.000000 52971842.000000,47971842.000000 52938881.000000,47993866.000000 52900000.000000,48001600.000000 52600000.000000,48001600.000000 52561119.000000,47993866.000000 52528158.000000,47971842.000000 52506134.000000,47938881.000000 52498400.000000,47900000.000000 Z"/> 
<svg:path style="fill:#000000; fill-opacity:1.0;  stroke:#000000; stroke-width:1.000000; stroke-opacity:1;  stroke-linecap:round; stroke-linejoin:round;fill-rule:evenodd;" d="M 52998400.000000,47100000.000000 53006134.000000,47061119.000000 53028158.000000,47028158.000000 53061119.000000,47006134.000000 53100000.000000,46998400.000000 53400000.000000,46998400.000000 53438881.000000,47006134.000000 53471842.000000,47028158.000000 53493866.000000,47061119.000000 53501600.000000,47100000.000000 53501600.000000,47900000.000000 53493866.000000,47938881.000000 53471842.000000,47971842.000000 53438881.000000,47993866.000000 53400000.000000,48001600.000000 53100000.000000,48001600.000000 53061119.000000,47993866.000000 53028158.000000,47971842.000000 53006134.000000,47938881.000000 52998400.000000,47900000.000000 Z"/> 
<svg:path style="fill:#000000; fill-opacity:1.0;  stroke:#000000; stroke-width:1.000000; stroke-opacity:1;  stroke-linecap:round; stroke-linejoin:round;fill-rule:evenodd;" d="M 53498400.000000,47100000.000000 53506134.000000,47061119.000000 53528158.000000,47028158.000000 53561119.000000,47006134.000000 53600000.000000,46998400.000000 53900000.000000,46998400.000000 53938881.000000,47006134.000000 53971842.000000,47028158.000000 53993866.000000,47061119.000000 54001600.000000,47100000.000000 54001600.000000,47900000.000000 53993866.000000,47938881.000000 53971842.000000,47971842.000000 53938881.000000,47993866.000000 53900000.000000,48001600.000000 53600000.000000,48001600.000000 53561119.000000,47993866.000000 53528158.000000,47971842.000000 53506134.000000,47938881.000000 53498400.000000,47900000.000000 Z"/> 
<svg:path style="fill:#000000; fill-opacity:1.0;  stroke:#000000; stroke-width:1.000000; stroke-opacity:1;  stroke-linecap:round; stroke-linejoin:round;fill-rule:evenodd;" d="M 53998400.000000,47100000.000000 54006134.000000,47061119.000000 54028158.000000,47028158.000000 54061119.000000,47006134.000000 54100000.000000,46998400.000000 54400000.000000,46998400.000000 54438881.000000,47006134.000000 54471842.000000,47028158.000000 54493866.000000,47061119.000000 54501600.000000,47100000.000000 54501600.000000,47900000.000000 54493866.000000,47938881.000000 54471842.000000,47971842.000000 54438881.000000,47993866.000000 54400000.000000,48001600.000000 54100000.000000,48001600.000000 54061119.000000,47993866.000000 54028158.000000,47971842.000000 54006134.000000,47938881.000000 53998400.000000,47900000.000000 Z"/> 
<svg:path style="fill:#000000; fill-opacity:1.0;  stroke:#000000; stroke-width:1.000000; stroke-opacity:1;  stroke-linecap:round; stroke-linejoin:round;fill-rule:evenodd;" d="M 54498400.000000,47100000.000000 54506134.000000,47061119.000000 54528158.000000,47028158.000000 54561119.000000,47006134.000000 54600000.000000,46998400.000000 54900000.000000,46998400.000000 54938881.000000,47006134.000000 54971842.000000,47028158.000000 54993866.000000,47061119.000000 55001600.000000,47100000.000000 55001600.000000,47900000.000000 54993866.000000,47938881.000000 54971842.000000,47971842.000000 54938881.000000,47993866.000000 54900000.000000,48001600.000000 54600000.000000,48001600.000000 54561119.000000,47993866.000000 54528158.000000,47971842.000000 54506134.000000,47938881.000000 54498400.000000,47900000.000000 Z"/> 
<svg:path style="fill:#000000; fill-opacity:1.0;  stroke:#000000; stroke-width:1.000000; stroke-opacity:1;  stroke-linecap:round; stroke-linejoin:round;fill-rule:evenodd;" d="M 54998400.000000,47100000.000000 55006134.000000,47061119.000000 55028158.000000,47028158.000000 55061119.000000,47006134.000000 55100000.000000,46998400.000000 55400000.000000,46998400.000000 55438881.000000,47006134.000000 55471842.000000,47028158.000000 55493866.000000,47061119.000000 55501600.000000,47100000.000000 55501600.000000,47900000.000000 55493866.000000,47938881.000000 55471842.000000,47971842.000000 55438881.000000,47993866.000000 55400000.000000,48001600.000000 55100000.000000,48001600.000000 55061119.000000,47993866.000000 55028158.000000,47971842.000000 55006134.000000,47938881.000000 54998400.000000,47900000.000000 Z"/> 
<svg:path style="fill:#000000; fill-opacity:1.0;  stroke:#000000; stroke-width:1.000000; stroke-opacity:1;  stroke-linecap:round; stroke-linejoin:round;fill-rule:evenodd;" d="M 55498400.000000,47100000.000000 55506134.000000,47061119.000000 55528158.000000,47028158.000000 55561119.000000,47006134.000000 55600000.000000,46998400.000000 55900000.000000,46998400.000000 55938881.000000,47006134.000000 55971842.000000,47028158.000000 55993866.000000,47061119.000000 56001600.000000,47100000.000000 56001600.000000,47900000.000000 55993866.000000,47938881.000000 55971842.000000,47971842.000000 55938881.000000,47993866.000000 55900000.000000,48001600.000000 55600000.000000,48001600.000000 55561119.000000,47993866.000000 55528158.000000,47971842.000000 55506134.000000,47938881.000000 55498400.000000,47900000.000000 Z"/> 
</svg:g>
<svg:g>
</svg:g>
<svg:g>
</svg:g>
<svg:g>
</svg:g>
</svg:g>
<svg:g style="fill:#000000; fill-opacity:1.0;  stroke:#000000; stroke-width:1.000000; stroke-opacity:1;  stroke-linecap:round; stroke-linejoin:round;">
<svg:g>
</svg:g>
<svg:g>
</svg:g>
<svg:g>
</svg:g>
<svg:g>
</svg:g>
</svg:g> 
</svg:g><svg:g><svg:title>SVG Picture created as kicadBoard-F_Paste.svg date 2022/12/05 12:58:45 </svg:title>
  <svg:desc>Picture generated by PCBNEW </svg:desc>
<svg:g style="fill:#000000; fill-opacity:1.000000;stroke:#000000; stroke-opacity:1.000000; stroke-linecap:round; stroke-linejoin:round;" transform="translate(0 0) scale(1 1)">
</svg:g>
<svg:g style="fill:#000000; fill-opacity:0.0;  stroke:#000000; stroke-width:0.000000; stroke-opacity:1;  stroke-linecap:round; stroke-linejoin:round;">
</svg:g>
<svg:g style="fill:#B4A09A; fill-opacity:0.0;  stroke:#B4A09A; stroke-width:0.000000; stroke-opacity:1;  stroke-linecap:round; stroke-linejoin:round;">
</svg:g>
<svg:g style="fill:#B4A09A; fill-opacity:1.0;  stroke:#B4A09A; stroke-width:1.000000; stroke-opacity:1;  stroke-linecap:round; stroke-linejoin:round;">
<svg:path style="fill:#B4A09A; fill-opacity:1.0;  stroke:#B4A09A; stroke-width:1.000000; stroke-opacity:1;  stroke-linecap:round; stroke-linejoin:round;fill-rule:evenodd;" d="M 59200000.000000,50050000.000000 57200000.000000,50050000.000000 57200000.000000,48150000.000000 59200000.000000,48150000.000000 Z"/> 
<svg:path style="fill:#B4A09A; fill-opacity:1.0;  stroke:#B4A09A; stroke-width:1.000000; stroke-opacity:1;  stroke-linecap:round; stroke-linejoin:round;fill-rule:evenodd;" d="M 42800000.000000,50050000.000000 40800000.000000,50050000.000000 40800000.000000,48150000.000000 42800000.000000,48150000.000000 Z"/> 
<svg:g>
</svg:g>
<svg:g style="fill:#000000; fill-opacity:1.0;  stroke:#000000; stroke-width:1.000000; stroke-opacity:1;  stroke-linecap:round; stroke-linejoin:round;">
<svg:path style="fill:#000000; fill-opacity:1.0;  stroke:#000000; stroke-width:1.000000; stroke-opacity:1;  stroke-linecap:round; stroke-linejoin:round;fill-rule:evenodd;" d="M 44100001.000000,47899999.000000 44100001.000000,47100001.000000 44399999.000000,47100001.000000 44399999.000000,47899999.000000 Z"/> 
<svg:path style="fill:#000000; fill-opacity:1.0;  stroke:#000000; stroke-width:1.000000; stroke-opacity:1;  stroke-linecap:round; stroke-linejoin:round;fill-rule:evenodd;" d="M 44600001.000000,47899999.000000 44600001.000000,47100001.000000 44899999.000000,47100001.000000 44899999.000000,47899999.000000 Z"/> 
<svg:path style="fill:#000000; fill-opacity:1.0;  stroke:#000000; stroke-width:1.000000; stroke-opacity:1;  stroke-linecap:round; stroke-linejoin:round;fill-rule:evenodd;" d="M 45100001.000000,47899999.000000 45100001.000000,47100001.000000 45399999.000000,47100001.000000 45399999.000000,47899999.000000 Z"/> 
<svg:path style="fill:#000000; fill-opacity:1.0;  stroke:#000000; stroke-width:1.000000; stroke-opacity:1;  stroke-linecap:round; stroke-linejoin:round;fill-rule:evenodd;" d="M 45600001.000000,47899999.000000 45600001.000000,47100001.000000 45899999.000000,47100001.000000 45899999.000000,47899999.000000 Z"/> 
<svg:path style="fill:#000000; fill-opacity:1.0;  stroke:#000000; stroke-width:1.000000; stroke-opacity:1;  stroke-linecap:round; stroke-linejoin:round;fill-rule:evenodd;" d="M 46100001.000000,47899999.000000 46100001.000000,47100001.000000 46399999.000000,47100001.000000 46399999.000000,47899999.000000 Z"/> 
<svg:path style="fill:#000000; fill-opacity:1.0;  stroke:#000000; stroke-width:1.000000; stroke-opacity:1;  stroke-linecap:round; stroke-linejoin:round;fill-rule:evenodd;" d="M 46600001.000000,47899999.000000 46600001.000000,47100001.000000 46899999.000000,47100001.000000 46899999.000000,47899999.000000 Z"/> 
<svg:path style="fill:#000000; fill-opacity:1.0;  stroke:#000000; stroke-width:1.000000; stroke-opacity:1;  stroke-linecap:round; stroke-linejoin:round;fill-rule:evenodd;" d="M 47100001.000000,47899999.000000 47100001.000000,47100001.000000 47399999.000000,47100001.000000 47399999.000000,47899999.000000 Z"/> 
<svg:path style="fill:#000000; fill-opacity:1.0;  stroke:#000000; stroke-width:1.000000; stroke-opacity:1;  stroke-linecap:round; stroke-linejoin:round;fill-rule:evenodd;" d="M 47600001.000000,47899999.000000 47600001.000000,47100001.000000 47899999.000000,47100001.000000 47899999.000000,47899999.000000 Z"/> 
<svg:path style="fill:#000000; fill-opacity:1.0;  stroke:#000000; stroke-width:1.000000; stroke-opacity:1;  stroke-linecap:round; stroke-linejoin:round;fill-rule:evenodd;" d="M 48100001.000000,47899999.000000 48100001.000000,47100001.000000 48399999.000000,47100001.000000 48399999.000000,47899999.000000 Z"/> 
<svg:path style="fill:#000000; fill-opacity:1.0;  stroke:#000000; stroke-width:1.000000; stroke-opacity:1;  stroke-linecap:round; stroke-linejoin:round;fill-rule:evenodd;" d="M 48600001.000000,47899999.000000 48600001.000000,47100001.000000 48899999.000000,47100001.000000 48899999.000000,47899999.000000 Z"/> 
<svg:path style="fill:#000000; fill-opacity:1.0;  stroke:#000000; stroke-width:1.000000; stroke-opacity:1;  stroke-linecap:round; stroke-linejoin:round;fill-rule:evenodd;" d="M 49100001.000000,47899999.000000 49100001.000000,47100001.000000 49399999.000000,47100001.000000 49399999.000000,47899999.000000 Z"/> 
<svg:path style="fill:#000000; fill-opacity:1.0;  stroke:#000000; stroke-width:1.000000; stroke-opacity:1;  stroke-linecap:round; stroke-linejoin:round;fill-rule:evenodd;" d="M 49600001.000000,47899999.000000 49600001.000000,47100001.000000 49899999.000000,47100001.000000 49899999.000000,47899999.000000 Z"/> 
<svg:path style="fill:#000000; fill-opacity:1.0;  stroke:#000000; stroke-width:1.000000; stroke-opacity:1;  stroke-linecap:round; stroke-linejoin:round;fill-rule:evenodd;" d="M 50100001.000000,47899999.000000 50100001.000000,47100001.000000 50399999.000000,47100001.000000 50399999.000000,47899999.000000 Z"/> 
<svg:path style="fill:#000000; fill-opacity:1.0;  stroke:#000000; stroke-width:1.000000; stroke-opacity:1;  stroke-linecap:round; stroke-linejoin:round;fill-rule:evenodd;" d="M 50600001.000000,47899999.000000 50600001.000000,47100001.000000 50899999.000000,47100001.000000 50899999.000000,47899999.000000 Z"/> 
<svg:path style="fill:#000000; fill-opacity:1.0;  stroke:#000000; stroke-width:1.000000; stroke-opacity:1;  stroke-linecap:round; stroke-linejoin:round;fill-rule:evenodd;" d="M 51100001.000000,47899999.000000 51100001.000000,47100001.000000 51399999.000000,47100001.000000 51399999.000000,47899999.000000 Z"/> 
<svg:path style="fill:#000000; fill-opacity:1.0;  stroke:#000000; stroke-width:1.000000; stroke-opacity:1;  stroke-linecap:round; stroke-linejoin:round;fill-rule:evenodd;" d="M 51600001.000000,47899999.000000 51600001.000000,47100001.000000 51899999.000000,47100001.000000 51899999.000000,47899999.000000 Z"/> 
<svg:path style="fill:#000000; fill-opacity:1.0;  stroke:#000000; stroke-width:1.000000; stroke-opacity:1;  stroke-linecap:round; stroke-linejoin:round;fill-rule:evenodd;" d="M 52100001.000000,47899999.000000 52100001.000000,47100001.000000 52399999.000000,47100001.000000 52399999.000000,47899999.000000 Z"/> 
<svg:path style="fill:#000000; fill-opacity:1.0;  stroke:#000000; stroke-width:1.000000; stroke-opacity:1;  stroke-linecap:round; stroke-linejoin:round;fill-rule:evenodd;" d="M 52600001.000000,47899999.000000 52600001.000000,47100001.000000 52899999.000000,47100001.000000 52899999.000000,47899999.000000 Z"/> 
<svg:path style="fill:#000000; fill-opacity:1.0;  stroke:#000000; stroke-width:1.000000; stroke-opacity:1;  stroke-linecap:round; stroke-linejoin:round;fill-rule:evenodd;" d="M 53100001.000000,47899999.000000 53100001.000000,47100001.000000 53399999.000000,47100001.000000 53399999.000000,47899999.000000 Z"/> 
<svg:path style="fill:#000000; fill-opacity:1.0;  stroke:#000000; stroke-width:1.000000; stroke-opacity:1;  stroke-linecap:round; stroke-linejoin:round;fill-rule:evenodd;" d="M 53600001.000000,47899999.000000 53600001.000000,47100001.000000 53899999.000000,47100001.000000 53899999.000000,47899999.000000 Z"/> 
<svg:path style="fill:#000000; fill-opacity:1.0;  stroke:#000000; stroke-width:1.000000; stroke-opacity:1;  stroke-linecap:round; stroke-linejoin:round;fill-rule:evenodd;" d="M 54100001.000000,47899999.000000 54100001.000000,47100001.000000 54399999.000000,47100001.000000 54399999.000000,47899999.000000 Z"/> 
<svg:path style="fill:#000000; fill-opacity:1.0;  stroke:#000000; stroke-width:1.000000; stroke-opacity:1;  stroke-linecap:round; stroke-linejoin:round;fill-rule:evenodd;" d="M 54600001.000000,47899999.000000 54600001.000000,47100001.000000 54899999.000000,47100001.000000 54899999.000000,47899999.000000 Z"/> 
<svg:path style="fill:#000000; fill-opacity:1.0;  stroke:#000000; stroke-width:1.000000; stroke-opacity:1;  stroke-linecap:round; stroke-linejoin:round;fill-rule:evenodd;" d="M 55100001.000000,47899999.000000 55100001.000000,47100001.000000 55399999.000000,47100001.000000 55399999.000000,47899999.000000 Z"/> 
<svg:path style="fill:#000000; fill-opacity:1.0;  stroke:#000000; stroke-width:1.000000; stroke-opacity:1;  stroke-linecap:round; stroke-linejoin:round;fill-rule:evenodd;" d="M 55600001.000000,47899999.000000 55600001.000000,47100001.000000 55899999.000000,47100001.000000 55899999.000000,47899999.000000 Z"/> 
</svg:g>
<svg:g>
</svg:g>
<svg:g>
</svg:g>
<svg:g>
</svg:g>
</svg:g>
<svg:g style="fill:#000000; fill-opacity:1.0;  stroke:#000000; stroke-width:1.000000; stroke-opacity:1;  stroke-linecap:round; stroke-linejoin:round;">
<svg:g>
</svg:g>
<svg:g>
</svg:g>
<svg:g>
</svg:g>
<svg:g>
</svg:g>
</svg:g> 
</svg:g><svg:g><svg:title>SVG Picture created as kicadBoard-F_Silkscreen.svg date 2022/12/05 12:58:45 </svg:title>
  <svg:desc>Picture generated by PCBNEW </svg:desc>
<svg:g style="fill:#000000; fill-opacity:1.000000;stroke:#000000; stroke-opacity:1.000000; stroke-linecap:round; stroke-linejoin:round;" transform="translate(0 0) scale(1 1)">
</svg:g>
<svg:g style="fill:#000000; fill-opacity:0.0;  stroke:#000000; stroke-width:0.000000; stroke-opacity:1;  stroke-linecap:round; stroke-linejoin:round;">
</svg:g>
<svg:g style="fill:#F2EDA1; fill-opacity:0.0;  stroke:#F2EDA1; stroke-width:0.000000; stroke-opacity:1;  stroke-linecap:round; stroke-linejoin:round;">
</svg:g>
<svg:g style="fill:#F2EDA1; fill-opacity:0.0;  stroke:#F2EDA1; stroke-width:101600.000000; stroke-opacity:1;  stroke-linecap:round; stroke-linejoin:round;">
<svg:text x="40920000.000000" y="46730000.000000" textLength="18138020.000000" font-size="1557866.000000" lengthAdjust="spacingAndGlyphs" text-anchor="start" opacity="0">FZECONMX52745249</svg:text>
<svg:g class="stroked-text"><svg:desc>FZECONMX52745249</svg:desc>
<svg:path d="M41653697 46062342 L41264230 46062342 "/>
<svg:path d="M41264230 46674361 L41264230 45505961 L41820611 45505961 "/>
<svg:path d="M42154440 45505961 L42933373 45505961 L42154440 46674361 L42933373 46674361 "/>
<svg:path d="M43378478 46062342 L43767944 46062342 "/>
<svg:path d="M43934859 46674361 L43378478 46674361 L43378478 45505961 L43934859 45505961 "/>
<svg:path d="M45103259 46563085 L45047620 46618723 L44880706 46674361 L44769430 46674361 L44602516 46618723 L44491240 46507447 L44435601 46396171 L44379963 46173619 L44379963 46006704 L44435601 45784152 L44491240 45672876 L44602516 45561600 L44769430 45505961 L44880706 45505961 L45047620 45561600 L45103259 45617238 "/>
<svg:path d="M45826554 45505961 L46049106 45505961 L46160382 45561600 L46271659 45672876 L46327297 45895428 L46327297 46284895 L46271659 46507447 L46160382 46618723 L46049106 46674361 L45826554 46674361 L45715278 46618723 L45604001 46507447 L45548363 46284895 L45548363 45895428 L45604001 45672876 L45715278 45561600 L45826554 45505961 "/>
<svg:path d="M46828040 46674361 L46828040 45505961 L47495697 46674361 L47495697 45505961 "/>
<svg:path d="M48052078 46674361 L48052078 45505961 L48441544 46340533 L48831011 45505961 L48831011 46674361 "/>
<svg:path d="M49276116 45505961 L50055049 46674361 "/>
<svg:path d="M50055049 45505961 L49276116 46674361 "/>
<svg:path d="M51056535 45505961 L50500154 45505961 L50444516 46062342 L50500154 46006704 L50611430 45951066 L50889620 45951066 L51000897 46006704 L51056535 46062342 L51112173 46173619 L51112173 46451809 L51056535 46563085 L51000897 46618723 L50889620 46674361 L50611430 46674361 L50500154 46618723 L50444516 46563085 "/>
<svg:path d="M51557278 45617238 L51612916 45561600 L51724192 45505961 L52002382 45505961 L52113659 45561600 L52169297 45617238 L52224935 45728514 L52224935 45839790 L52169297 46006704 L51501640 46674361 L52224935 46674361 "/>
<svg:path d="M52614401 45505961 L53393335 45505961 L52892592 46674361 "/>
<svg:path d="M54339182 45895428 L54339182 46674361 "/>
<svg:path d="M54060992 45450323 L53782801 46284895 L54506097 46284895 "/>
<svg:path d="M55507582 45505961 L54951201 45505961 L54895563 46062342 L54951201 46006704 L55062478 45951066 L55340668 45951066 L55451944 46006704 L55507582 46062342 L55563220 46173619 L55563220 46451809 L55507582 46563085 L55451944 46618723 L55340668 46674361 L55062478 46674361 L54951201 46618723 L54895563 46563085 "/>
<svg:path d="M56008325 45617238 L56063963 45561600 L56175240 45505961 L56453430 45505961 L56564706 45561600 L56620344 45617238 L56675982 45728514 L56675982 45839790 L56620344 46006704 L55952687 46674361 L56675982 46674361 "/>
<svg:path d="M57677468 45895428 L57677468 46674361 "/>
<svg:path d="M57399278 45450323 L57121087 46284895 L57844382 46284895 "/>
<svg:path d="M58345125 46674361 L58567678 46674361 L58678954 46618723 L58734592 46563085 L58845868 46396171 L58901506 46173619 L58901506 45728514 L58845868 45617238 L58790230 45561600 L58678954 45505961 L58456401 45505961 L58345125 45561600 L58289487 45617238 L58233849 45728514 L58233849 46006704 L58289487 46117980 L58345125 46173619 L58456401 46229257 L58678954 46229257 L58790230 46173619 L58845868 46117980 L58901506 46006704 "/>
</svg:g></svg:g>
<svg:g style="fill:#F2EDA1; fill-opacity:0.0;  stroke:#F2EDA1; stroke-width:203200.000000; stroke-opacity:1;  stroke-linecap:round; stroke-linejoin:round;">
<svg:path d="M58050000 51400000 L41950000 51400000 "/>
<svg:path d="M42500000 51500000 L42500000 52900000 "/>
</svg:g>
<svg:g style="fill:#F2EDA1; fill-opacity:0.0;  stroke:#F2EDA1; stroke-width:101600.000000; stroke-opacity:1;  stroke-linecap:round; stroke-linejoin:round;">
<svg:path d="M43950000 53100000 L43950000 53500000 "/>
</svg:g>
<svg:g style="fill:#F2EDA1; fill-opacity:0.0;  stroke:#F2EDA1; stroke-width:203200.000000; stroke-opacity:1;  stroke-linecap:round; stroke-linejoin:round;">
<svg:path d="M43500000 49000000 L43500000 51250000 "/>
<svg:path d="M58950000 53500000 L58950000 53000000 "/>
<svg:path d="M58950000 53000000 L41050000 53000000 "/>
</svg:g>
<svg:g style="fill:#F2EDA1; fill-opacity:0.0;  stroke:#F2EDA1; stroke-width:101600.000000; stroke-opacity:1;  stroke-linecap:round; stroke-linejoin:round;">
<svg:path d="M56050000 53500000 L56050000 53100000 "/>
<svg:path d="M44200000 53250000 L44200000 53100000 "/>
<svg:path d="M43950000 53500000 L44200000 53250000 "/>
</svg:g>
<svg:g style="fill:#F2EDA1; fill-opacity:0.0;  stroke:#F2EDA1; stroke-width:203200.000000; stroke-opacity:1;  stroke-linecap:round; stroke-linejoin:round;">
<svg:path d="M41150000 53600000 L58850000 53600000 "/>
<svg:path d="M43350000 51250000 L43350000 49000000 "/>
<svg:path d="M56500000 51250000 L56500000 49000000 "/>
<svg:path d="M58850000 53600000 L58950000 53500000 "/>
<svg:path d="M41050000 53500000 L41150000 53600000 "/>
<svg:path d="M56650000 49000000 L56650000 51250000 "/>
<svg:path d="M57500000 51500000 L57500000 52900000 "/>
</svg:g>
<svg:g style="fill:#F2EDA1; fill-opacity:0.0;  stroke:#F2EDA1; stroke-width:101600.000000; stroke-opacity:1;  stroke-linecap:round; stroke-linejoin:round;">
<svg:path d="M55800000 53100000 L55800000 53250000 "/>
<svg:path d="M55800000 53250000 L56050000 53500000 "/>
</svg:g>
<svg:g style="fill:#F2EDA1; fill-opacity:0.0;  stroke:#F2EDA1; stroke-width:203200.000000; stroke-opacity:1;  stroke-linecap:round; stroke-linejoin:round;">
<svg:path d="M41050000 53000000 L41050000 53500000 "/>
<svg:path d="M56650000.000000 49000000.000000 A75000.000000 75000.000000 0.0 0 0 56500000.000000 49000000.000000"/>
<svg:path d="M43500000.000000 49000000.000000 A75000.000000 75000.000000 0.0 0 0 43350000.000000 49000000.000000"/>
</svg:g>
<svg:g style="fill:#F2EDA1; fill-opacity:1.0;  stroke:#F2EDA1; stroke-width:1.000000; stroke-opacity:1;  stroke-linecap:round; stroke-linejoin:round;">
<svg:path style="fill:#F2EDA1; fill-opacity:1.0;  stroke:#F2EDA1; stroke-width:1.000000; stroke-opacity:1;  stroke-linecap:round; stroke-linejoin:round;fill-rule:evenodd;" d="M 44300800.000000,51183720.000000 44300800.000000,51300800.000000 43699200.000000,51300800.000000 43699200.000000,51183720.000000 44000000.000000,50762600.000000 Z"/> 
<svg:g>
</svg:g>
<svg:g>
</svg:g>
<svg:g>
</svg:g>
<svg:g>
</svg:g>
</svg:g>
<svg:g style="fill:#000000; fill-opacity:1.0;  stroke:#000000; stroke-width:1.000000; stroke-opacity:1;  stroke-linecap:round; stroke-linejoin:round;">
<svg:g>
</svg:g>
<svg:g>
</svg:g>
<svg:g>
</svg:g>
<svg:g>
</svg:g>
</svg:g> 
</svg:g><svg:g><svg:title>SVG Picture created as kicadBoard-Margin.svg date 2022/12/05 12:58:45 </svg:title>
  <svg:desc>Picture generated by PCBNEW </svg:desc>
<svg:g style="fill:#000000; fill-opacity:1.000000;stroke:#000000; stroke-opacity:1.000000; stroke-linecap:round; stroke-linejoin:round;" transform="translate(0 0) scale(1 1)">
</svg:g>
<svg:g style="fill:#000000; fill-opacity:0.0;  stroke:#000000; stroke-width:0.000000; stroke-opacity:1;  stroke-linecap:round; stroke-linejoin:round;">
<svg:g>
</svg:g>
<svg:g>
</svg:g>
<svg:g>
</svg:g>
<svg:g>
</svg:g>
</svg:g>
<svg:g style="fill:#000000; fill-opacity:0.0;  stroke:#000000; stroke-width:0.000000; stroke-opacity:1;  stroke-linecap:round; stroke-linejoin:round;">
<svg:g>
</svg:g>
<svg:g>
</svg:g>
<svg:g>
</svg:g>
<svg:g>
</svg:g>
</svg:g> 
</svg:g><svg:g><svg:title>SVG Picture created as kicadBoard-F_Cu.svg date 2022/12/05 12:58:45 </svg:title>
  <svg:desc>Picture generated by PCBNEW </svg:desc>
<svg:g style="fill:#000000; fill-opacity:1.000000;stroke:#000000; stroke-opacity:1.000000; stroke-linecap:round; stroke-linejoin:round;" transform="translate(0 0) scale(1 1)">
</svg:g>
<svg:g style="fill:#000000; fill-opacity:0.0;  stroke:#000000; stroke-width:0.000000; stroke-opacity:1;  stroke-linecap:round; stroke-linejoin:round;">
</svg:g>
<svg:g style="fill:#C83434; fill-opacity:0.0;  stroke:#C83434; stroke-width:0.000000; stroke-opacity:1;  stroke-linecap:round; stroke-linejoin:round;">
</svg:g>
<svg:g style="fill:#C83434; fill-opacity:1.0;  stroke:#C83434; stroke-width:1.000000; stroke-opacity:1;  stroke-linecap:round; stroke-linejoin:round;">
<svg:path style="fill:#C83434; fill-opacity:1.0;  stroke:#C83434; stroke-width:1.000000; stroke-opacity:1;  stroke-linecap:round; stroke-linejoin:round;fill-rule:evenodd;" d="M 59400000.000000,50200000.000000 57000000.000000,50200000.000000 57000000.000000,48000000.000000 59400000.000000,48000000.000000 Z"/> 
<svg:path style="fill:#C83434; fill-opacity:1.0;  stroke:#C83434; stroke-width:1.000000; stroke-opacity:1;  stroke-linecap:round; stroke-linejoin:round;fill-rule:evenodd;" d="M 58300000.000000,51050000.000000 57000000.000000,51050000.000000 57000000.000000,50200000.000000 58300000.000000,50200000.000000 Z"/> 
<svg:path style="fill:#C83434; fill-opacity:1.0;  stroke:#C83434; stroke-width:1.000000; stroke-opacity:1;  stroke-linecap:round; stroke-linejoin:round;fill-rule:evenodd;" d="M 43000000.000000,51050000.000000 41700000.000000,51050000.000000 41700000.000000,50200000.000000 43000000.000000,50200000.000000 Z"/> 
<svg:path style="fill:#C83434; fill-opacity:1.0;  stroke:#C83434; stroke-width:1.000000; stroke-opacity:1;  stroke-linecap:round; stroke-linejoin:round;fill-rule:evenodd;" d="M 43000000.000000,50200000.000000 40600000.000000,50200000.000000 40600000.000000,48000000.000000 43000000.000000,48000000.000000 Z"/> 
<svg:g>
<svg:path style="fill:#C83434; fill-opacity:1.0;  stroke:#C83434; stroke-width:1.000000; stroke-opacity:1;  stroke-linecap:round; stroke-linejoin:round;fill-rule:evenodd;" d="M 44100001.000000,47899999.000000 44100001.000000,47100001.000000 44399999.000000,47100001.000000 44399999.000000,47899999.000000 Z"/> 
<svg:path style="fill:#C83434; fill-opacity:1.0;  stroke:#C83434; stroke-width:1.000000; stroke-opacity:1;  stroke-linecap:round; stroke-linejoin:round;fill-rule:evenodd;" d="M 44600001.000000,47899999.000000 44600001.000000,47100001.000000 44899999.000000,47100001.000000 44899999.000000,47899999.000000 Z"/> 
<svg:path style="fill:#C83434; fill-opacity:1.0;  stroke:#C83434; stroke-width:1.000000; stroke-opacity:1;  stroke-linecap:round; stroke-linejoin:round;fill-rule:evenodd;" d="M 45100001.000000,47899999.000000 45100001.000000,47100001.000000 45399999.000000,47100001.000000 45399999.000000,47899999.000000 Z"/> 
<svg:path style="fill:#C83434; fill-opacity:1.0;  stroke:#C83434; stroke-width:1.000000; stroke-opacity:1;  stroke-linecap:round; stroke-linejoin:round;fill-rule:evenodd;" d="M 45600001.000000,47899999.000000 45600001.000000,47100001.000000 45899999.000000,47100001.000000 45899999.000000,47899999.000000 Z"/> 
<svg:path style="fill:#C83434; fill-opacity:1.0;  stroke:#C83434; stroke-width:1.000000; stroke-opacity:1;  stroke-linecap:round; stroke-linejoin:round;fill-rule:evenodd;" d="M 46100001.000000,47899999.000000 46100001.000000,47100001.000000 46399999.000000,47100001.000000 46399999.000000,47899999.000000 Z"/> 
<svg:path style="fill:#C83434; fill-opacity:1.0;  stroke:#C83434; stroke-width:1.000000; stroke-opacity:1;  stroke-linecap:round; stroke-linejoin:round;fill-rule:evenodd;" d="M 46600001.000000,47899999.000000 46600001.000000,47100001.000000 46899999.000000,47100001.000000 46899999.000000,47899999.000000 Z"/> 
<svg:path style="fill:#C83434; fill-opacity:1.0;  stroke:#C83434; stroke-width:1.000000; stroke-opacity:1;  stroke-linecap:round; stroke-linejoin:round;fill-rule:evenodd;" d="M 47100001.000000,47899999.000000 47100001.000000,47100001.000000 47399999.000000,47100001.000000 47399999.000000,47899999.000000 Z"/> 
<svg:path style="fill:#C83434; fill-opacity:1.0;  stroke:#C83434; stroke-width:1.000000; stroke-opacity:1;  stroke-linecap:round; stroke-linejoin:round;fill-rule:evenodd;" d="M 47600001.000000,47899999.000000 47600001.000000,47100001.000000 47899999.000000,47100001.000000 47899999.000000,47899999.000000 Z"/> 
<svg:path style="fill:#C83434; fill-opacity:1.0;  stroke:#C83434; stroke-width:1.000000; stroke-opacity:1;  stroke-linecap:round; stroke-linejoin:round;fill-rule:evenodd;" d="M 48100001.000000,47899999.000000 48100001.000000,47100001.000000 48399999.000000,47100001.000000 48399999.000000,47899999.000000 Z"/> 
<svg:path style="fill:#C83434; fill-opacity:1.0;  stroke:#C83434; stroke-width:1.000000; stroke-opacity:1;  stroke-linecap:round; stroke-linejoin:round;fill-rule:evenodd;" d="M 48600001.000000,47899999.000000 48600001.000000,47100001.000000 48899999.000000,47100001.000000 48899999.000000,47899999.000000 Z"/> 
<svg:path style="fill:#C83434; fill-opacity:1.0;  stroke:#C83434; stroke-width:1.000000; stroke-opacity:1;  stroke-linecap:round; stroke-linejoin:round;fill-rule:evenodd;" d="M 49100001.000000,47899999.000000 49100001.000000,47100001.000000 49399999.000000,47100001.000000 49399999.000000,47899999.000000 Z"/> 
<svg:path style="fill:#C83434; fill-opacity:1.0;  stroke:#C83434; stroke-width:1.000000; stroke-opacity:1;  stroke-linecap:round; stroke-linejoin:round;fill-rule:evenodd;" d="M 49600001.000000,47899999.000000 49600001.000000,47100001.000000 49899999.000000,47100001.000000 49899999.000000,47899999.000000 Z"/> 
<svg:path style="fill:#C83434; fill-opacity:1.0;  stroke:#C83434; stroke-width:1.000000; stroke-opacity:1;  stroke-linecap:round; stroke-linejoin:round;fill-rule:evenodd;" d="M 50100001.000000,47899999.000000 50100001.000000,47100001.000000 50399999.000000,47100001.000000 50399999.000000,47899999.000000 Z"/> 
<svg:path style="fill:#C83434; fill-opacity:1.0;  stroke:#C83434; stroke-width:1.000000; stroke-opacity:1;  stroke-linecap:round; stroke-linejoin:round;fill-rule:evenodd;" d="M 50600001.000000,47899999.000000 50600001.000000,47100001.000000 50899999.000000,47100001.000000 50899999.000000,47899999.000000 Z"/> 
<svg:path style="fill:#C83434; fill-opacity:1.0;  stroke:#C83434; stroke-width:1.000000; stroke-opacity:1;  stroke-linecap:round; stroke-linejoin:round;fill-rule:evenodd;" d="M 51100001.000000,47899999.000000 51100001.000000,47100001.000000 51399999.000000,47100001.000000 51399999.000000,47899999.000000 Z"/> 
<svg:path style="fill:#C83434; fill-opacity:1.0;  stroke:#C83434; stroke-width:1.000000; stroke-opacity:1;  stroke-linecap:round; stroke-linejoin:round;fill-rule:evenodd;" d="M 51600001.000000,47899999.000000 51600001.000000,47100001.000000 51899999.000000,47100001.000000 51899999.000000,47899999.000000 Z"/> 
<svg:path style="fill:#C83434; fill-opacity:1.0;  stroke:#C83434; stroke-width:1.000000; stroke-opacity:1;  stroke-linecap:round; stroke-linejoin:round;fill-rule:evenodd;" d="M 52100001.000000,47899999.000000 52100001.000000,47100001.000000 52399999.000000,47100001.000000 52399999.000000,47899999.000000 Z"/> 
<svg:path style="fill:#C83434; fill-opacity:1.0;  stroke:#C83434; stroke-width:1.000000; stroke-opacity:1;  stroke-linecap:round; stroke-linejoin:round;fill-rule:evenodd;" d="M 52600001.000000,47899999.000000 52600001.000000,47100001.000000 52899999.000000,47100001.000000 52899999.000000,47899999.000000 Z"/> 
<svg:path style="fill:#C83434; fill-opacity:1.0;  stroke:#C83434; stroke-width:1.000000; stroke-opacity:1;  stroke-linecap:round; stroke-linejoin:round;fill-rule:evenodd;" d="M 53100001.000000,47899999.000000 53100001.000000,47100001.000000 53399999.000000,47100001.000000 53399999.000000,47899999.000000 Z"/> 
<svg:path style="fill:#C83434; fill-opacity:1.0;  stroke:#C83434; stroke-width:1.000000; stroke-opacity:1;  stroke-linecap:round; stroke-linejoin:round;fill-rule:evenodd;" d="M 53600001.000000,47899999.000000 53600001.000000,47100001.000000 53899999.000000,47100001.000000 53899999.000000,47899999.000000 Z"/> 
<svg:path style="fill:#C83434; fill-opacity:1.0;  stroke:#C83434; stroke-width:1.000000; stroke-opacity:1;  stroke-linecap:round; stroke-linejoin:round;fill-rule:evenodd;" d="M 54100001.000000,47899999.000000 54100001.000000,47100001.000000 54399999.000000,47100001.000000 54399999.000000,47899999.000000 Z"/> 
<svg:path style="fill:#C83434; fill-opacity:1.0;  stroke:#C83434; stroke-width:1.000000; stroke-opacity:1;  stroke-linecap:round; stroke-linejoin:round;fill-rule:evenodd;" d="M 54600001.000000,47899999.000000 54600001.000000,47100001.000000 54899999.000000,47100001.000000 54899999.000000,47899999.000000 Z"/> 
<svg:path style="fill:#C83434; fill-opacity:1.0;  stroke:#C83434; stroke-width:1.000000; stroke-opacity:1;  stroke-linecap:round; stroke-linejoin:round;fill-rule:evenodd;" d="M 55100001.000000,47899999.000000 55100001.000000,47100001.000000 55399999.000000,47100001.000000 55399999.000000,47899999.000000 Z"/> 
<svg:path style="fill:#C83434; fill-opacity:1.0;  stroke:#C83434; stroke-width:1.000000; stroke-opacity:1;  stroke-linecap:round; stroke-linejoin:round;fill-rule:evenodd;" d="M 55600001.000000,47899999.000000 55600001.000000,47100001.000000 55899999.000000,47100001.000000 55899999.000000,47899999.000000 Z"/> 
</svg:g>
<svg:g>
</svg:g>
<svg:g>
</svg:g>
<svg:g>
</svg:g>
</svg:g>
<svg:g style="fill:#FFFFFF; fill-opacity:1.0;  stroke:#FFFFFF; stroke-width:1.000000; stroke-opacity:1;  stroke-linecap:round; stroke-linejoin:round;">
</svg:g>
<svg:g style="fill:#000000; fill-opacity:1.0;  stroke:#000000; stroke-width:1.000000; stroke-opacity:1;  stroke-linecap:round; stroke-linejoin:round;">
<svg:g>
</svg:g>
<svg:g>
</svg:g>
<svg:g>
</svg:g>
<svg:g>
</svg:g>
</svg:g> 
</svg:g></svg>
