<?xml version='1.0' encoding='ASCII' standalone='yes'?>
<svg xmlns:svg="http://www.w3.org/2000/svg" xmlns="http://www.w3.org/2000/svg" xmlns:xlink="http://www.w3.org/1999/xlink" version="1.1" width="9.999980cm" height="9.999980cm" viewBox="0 0 99999800 99999800">
<title>SVG Picture created as kicadBoard-B_Cu.svg date 2022/11/18 20:52:13 </title>
  <desc>Picture generated by PCBNEW </desc>
<g style="fill:#000000; fill-opacity:1.000000;stroke:#000000; stroke-opacity:1.000000; stroke-linecap:round; stroke-linejoin:round;" transform="translate(0 0) scale(1 1)">
</g>
<g style="fill:#000000; fill-opacity:0.0;  stroke:#000000; stroke-width:0.000000; stroke-opacity:1;  stroke-linecap:round; stroke-linejoin:round;">
<g>
</g>
<g>
</g>
<g>
</g>
<g>
</g>
</g>
<g style="fill:#FFFFFF; fill-opacity:0.0;  stroke:#FFFFFF; stroke-width:0.000000; stroke-opacity:1;  stroke-linecap:round; stroke-linejoin:round;">
</g>
<g style="fill:#000000; fill-opacity:0.0;  stroke:#000000; stroke-width:0.000000; stroke-opacity:1;  stroke-linecap:round; stroke-linejoin:round;">
<g>
</g>
<g>
</g>
<g>
</g>
<g>
</g>
</g> 
<svg:g><svg:title>SVG Picture created as kicadBoard-B_Adhesive.svg date 2022/11/18 20:52:13 </svg:title>
  <svg:desc>Picture generated by PCBNEW </svg:desc>
<svg:g style="fill:#000000; fill-opacity:1.000000;stroke:#000000; stroke-opacity:1.000000; stroke-linecap:round; stroke-linejoin:round;" transform="translate(0 0) scale(1 1)">
</svg:g>
<svg:g style="fill:#000000; fill-opacity:0.0;  stroke:#000000; stroke-width:0.000000; stroke-opacity:1;  stroke-linecap:round; stroke-linejoin:round;">
<svg:g>
</svg:g>
<svg:g>
</svg:g>
<svg:g>
</svg:g>
<svg:g>
</svg:g>
</svg:g>
<svg:g style="fill:#000000; fill-opacity:0.0;  stroke:#000000; stroke-width:0.000000; stroke-opacity:1;  stroke-linecap:round; stroke-linejoin:round;">
<svg:g>
</svg:g>
<svg:g>
</svg:g>
<svg:g>
</svg:g>
<svg:g>
</svg:g>
</svg:g> 
</svg:g><svg:g><svg:title>SVG Picture created as kicadBoard-B_Courtyard.svg date 2022/11/18 20:52:13 </svg:title>
  <svg:desc>Picture generated by PCBNEW </svg:desc>
<svg:g style="fill:#000000; fill-opacity:1.000000;stroke:#000000; stroke-opacity:1.000000; stroke-linecap:round; stroke-linejoin:round;" transform="translate(0 0) scale(1 1)">
</svg:g>
<svg:g style="fill:#000000; fill-opacity:0.0;  stroke:#000000; stroke-width:0.000000; stroke-opacity:1;  stroke-linecap:round; stroke-linejoin:round;">
<svg:g>
</svg:g>
<svg:g>
</svg:g>
<svg:g>
</svg:g>
<svg:g>
</svg:g>
</svg:g>
<svg:g style="fill:#000000; fill-opacity:0.0;  stroke:#000000; stroke-width:0.000000; stroke-opacity:1;  stroke-linecap:round; stroke-linejoin:round;">
<svg:g>
</svg:g>
<svg:g>
</svg:g>
<svg:g>
</svg:g>
<svg:g>
</svg:g>
</svg:g> 
</svg:g><svg:g><svg:title>SVG Picture created as kicadBoard-B_Fab.svg date 2022/11/18 20:52:13 </svg:title>
  <svg:desc>Picture generated by PCBNEW </svg:desc>
<svg:g style="fill:#000000; fill-opacity:1.000000;stroke:#000000; stroke-opacity:1.000000; stroke-linecap:round; stroke-linejoin:round;" transform="translate(0 0) scale(1 1)">
</svg:g>
<svg:g style="fill:#000000; fill-opacity:0.0;  stroke:#000000; stroke-width:0.000000; stroke-opacity:1;  stroke-linecap:round; stroke-linejoin:round;">
<svg:g>
</svg:g>
<svg:g>
</svg:g>
<svg:g>
</svg:g>
<svg:g>
</svg:g>
</svg:g>
<svg:g style="fill:#000000; fill-opacity:0.0;  stroke:#000000; stroke-width:0.000000; stroke-opacity:1;  stroke-linecap:round; stroke-linejoin:round;">
<svg:g>
</svg:g>
<svg:g>
</svg:g>
<svg:g>
</svg:g>
<svg:g>
</svg:g>
</svg:g> 
</svg:g><svg:g><svg:title>SVG Picture created as kicadBoard-B_Mask.svg date 2022/11/18 20:52:13 </svg:title>
  <svg:desc>Picture generated by PCBNEW </svg:desc>
<svg:g style="fill:#000000; fill-opacity:1.000000;stroke:#000000; stroke-opacity:1.000000; stroke-linecap:round; stroke-linejoin:round;" transform="translate(0 0) scale(1 1)">
</svg:g>
<svg:g style="fill:#000000; fill-opacity:0.0;  stroke:#000000; stroke-width:0.000000; stroke-opacity:1;  stroke-linecap:round; stroke-linejoin:round;">
<svg:g>
</svg:g>
<svg:g>
</svg:g>
<svg:g>
</svg:g>
<svg:g>
</svg:g>
</svg:g>
<svg:g style="fill:#000000; fill-opacity:0.0;  stroke:#000000; stroke-width:0.000000; stroke-opacity:1;  stroke-linecap:round; stroke-linejoin:round;">
<svg:g>
</svg:g>
<svg:g>
</svg:g>
<svg:g>
</svg:g>
<svg:g>
</svg:g>
</svg:g> 
</svg:g><svg:g><svg:title>SVG Picture created as kicadBoard-B_Paste.svg date 2022/11/18 20:52:13 </svg:title>
  <svg:desc>Picture generated by PCBNEW </svg:desc>
<svg:g style="fill:#000000; fill-opacity:1.000000;stroke:#000000; stroke-opacity:1.000000; stroke-linecap:round; stroke-linejoin:round;" transform="translate(0 0) scale(1 1)">
</svg:g>
<svg:g style="fill:#000000; fill-opacity:0.0;  stroke:#000000; stroke-width:0.000000; stroke-opacity:1;  stroke-linecap:round; stroke-linejoin:round;">
<svg:g>
</svg:g>
<svg:g>
</svg:g>
<svg:g>
</svg:g>
<svg:g>
</svg:g>
</svg:g>
<svg:g style="fill:#000000; fill-opacity:0.0;  stroke:#000000; stroke-width:0.000000; stroke-opacity:1;  stroke-linecap:round; stroke-linejoin:round;">
<svg:g>
</svg:g>
<svg:g>
</svg:g>
<svg:g>
</svg:g>
<svg:g>
</svg:g>
</svg:g> 
</svg:g><svg:g><svg:title>SVG Picture created as kicadBoard-B_Silkscreen.svg date 2022/11/18 20:52:13 </svg:title>
  <svg:desc>Picture generated by PCBNEW </svg:desc>
<svg:g style="fill:#000000; fill-opacity:1.000000;stroke:#000000; stroke-opacity:1.000000; stroke-linecap:round; stroke-linejoin:round;" transform="translate(0 0) scale(1 1)">
</svg:g>
<svg:g style="fill:#000000; fill-opacity:0.0;  stroke:#000000; stroke-width:0.000000; stroke-opacity:1;  stroke-linecap:round; stroke-linejoin:round;">
<svg:g>
</svg:g>
<svg:g>
</svg:g>
<svg:g>
</svg:g>
<svg:g>
</svg:g>
</svg:g>
<svg:g style="fill:#000000; fill-opacity:0.0;  stroke:#000000; stroke-width:0.000000; stroke-opacity:1;  stroke-linecap:round; stroke-linejoin:round;">
<svg:g>
</svg:g>
<svg:g>
</svg:g>
<svg:g>
</svg:g>
<svg:g>
</svg:g>
</svg:g> 
</svg:g><svg:g><svg:title>SVG Picture created as kicadBoard-Edge_Cuts.svg date 2022/11/18 20:52:13 </svg:title>
  <svg:desc>Picture generated by PCBNEW </svg:desc>
<svg:g style="fill:#000000; fill-opacity:1.000000;stroke:#000000; stroke-opacity:1.000000; stroke-linecap:round; stroke-linejoin:round;" transform="translate(0 0) scale(1 1)">
</svg:g>
<svg:g style="fill:#000000; fill-opacity:0.0;  stroke:#000000; stroke-width:0.000000; stroke-opacity:1;  stroke-linecap:round; stroke-linejoin:round;">
<svg:g>
</svg:g>
<svg:g>
</svg:g>
<svg:g>
</svg:g>
<svg:g>
</svg:g>
</svg:g> 
</svg:g><svg:g><svg:title>SVG Picture created as kicadBoard-F_Adhesive.svg date 2022/11/18 20:52:13 </svg:title>
  <svg:desc>Picture generated by PCBNEW </svg:desc>
<svg:g style="fill:#000000; fill-opacity:1.000000;stroke:#000000; stroke-opacity:1.000000; stroke-linecap:round; stroke-linejoin:round;" transform="translate(0 0) scale(1 1)">
</svg:g>
<svg:g style="fill:#000000; fill-opacity:0.0;  stroke:#000000; stroke-width:0.000000; stroke-opacity:1;  stroke-linecap:round; stroke-linejoin:round;">
<svg:g>
</svg:g>
<svg:g>
</svg:g>
<svg:g>
</svg:g>
<svg:g>
</svg:g>
</svg:g>
<svg:g style="fill:#000000; fill-opacity:0.0;  stroke:#000000; stroke-width:0.000000; stroke-opacity:1;  stroke-linecap:round; stroke-linejoin:round;">
<svg:g>
</svg:g>
<svg:g>
</svg:g>
<svg:g>
</svg:g>
<svg:g>
</svg:g>
</svg:g> 
</svg:g><svg:g><svg:title>SVG Picture created as kicadBoard-F_Courtyard.svg date 2022/11/18 20:52:13 </svg:title>
  <svg:desc>Picture generated by PCBNEW </svg:desc>
<svg:g style="fill:#000000; fill-opacity:1.000000;stroke:#000000; stroke-opacity:1.000000; stroke-linecap:round; stroke-linejoin:round;" transform="translate(0 0) scale(1 1)">
</svg:g>
<svg:g style="fill:#000000; fill-opacity:0.0;  stroke:#000000; stroke-width:0.000000; stroke-opacity:1;  stroke-linecap:round; stroke-linejoin:round;">
</svg:g>
<svg:g style="fill:#FF26E2; fill-opacity:0.0;  stroke:#FF26E2; stroke-width:0.000000; stroke-opacity:1;  stroke-linecap:round; stroke-linejoin:round;">
</svg:g>
<svg:g style="fill:#FF26E2; fill-opacity:0.0;  stroke:#FF26E2; stroke-width:50000.000000; stroke-opacity:1;  stroke-linecap:round; stroke-linejoin:round;">
<svg:path d="M48200000 48200000 L48200000 51800000 "/>
<svg:path d="M48200000 48200000 L51800000 48200000 "/>
<svg:path d="M51800000 51800000 L48200000 51800000 "/>
<svg:path d="M51800000 51800000 L51800000 48200000 "/>
<svg:g>
</svg:g>
<svg:g>
</svg:g>
<svg:g>
</svg:g>
<svg:g>
</svg:g>
</svg:g>
<svg:g style="fill:#000000; fill-opacity:0.0;  stroke:#000000; stroke-width:50000.000000; stroke-opacity:1;  stroke-linecap:round; stroke-linejoin:round;">
<svg:g>
</svg:g>
<svg:g>
</svg:g>
<svg:g>
</svg:g>
<svg:g>
</svg:g>
</svg:g> 
</svg:g><svg:g><svg:title>SVG Picture created as kicadBoard-F_Fab.svg date 2022/11/18 20:52:13 </svg:title>
  <svg:desc>Picture generated by PCBNEW </svg:desc>
<svg:g style="fill:#000000; fill-opacity:1.000000;stroke:#000000; stroke-opacity:1.000000; stroke-linecap:round; stroke-linejoin:round;" transform="translate(0 0) scale(1 1)">
</svg:g>
<svg:g style="fill:#000000; fill-opacity:0.0;  stroke:#000000; stroke-width:0.000000; stroke-opacity:1;  stroke-linecap:round; stroke-linejoin:round;">
</svg:g>
<svg:g style="fill:#AFAFAF; fill-opacity:0.0;  stroke:#AFAFAF; stroke-width:0.000000; stroke-opacity:1;  stroke-linecap:round; stroke-linejoin:round;">
</svg:g>
<svg:g style="fill:#AFAFAF; fill-opacity:0.0;  stroke:#AFAFAF; stroke-width:150000.000000; stroke-opacity:1;  stroke-linecap:round; stroke-linejoin:round;">
<svg:text x="50000000.000000" y="52450000.000000" textLength="29385476.000000" font-size="1333333.000000" lengthAdjust="spacingAndGlyphs" text-anchor="middle" opacity="0">BGA-9_1.6x1.6mm_Layout3x3_P0.5mm</svg:text>
<svg:g class="stroked-text"><svg:desc>BGA-9_1.6x1.6mm_Layout3x3_P0.5mm</svg:desc>
<svg:path d="M35976190 51878571 L36119047 51926190 L36166666 51973809 L36214285 52069047 L36214285 52211904 L36166666 52307142 L36119047 52354761 L36023809 52402380 L35642857 52402380 L35642857 51402380 L35976190 51402380 L36071428 51450000 L36119047 51497619 L36166666 51592857 L36166666 51688095 L36119047 51783333 L36071428 51830952 L35976190 51878571 L35642857 51878571 "/>
<svg:path d="M37166666 51450000 L37071428 51402380 L36928571 51402380 L36785714 51450000 L36690476 51545238 L36642857 51640476 L36595238 51830952 L36595238 51973809 L36642857 52164285 L36690476 52259523 L36785714 52354761 L36928571 52402380 L37023809 52402380 L37166666 52354761 L37214285 52307142 L37214285 51973809 L37023809 51973809 "/>
<svg:path d="M37595238 52116666 L38071428 52116666 "/>
<svg:path d="M37500000 52402380 L37833333 51402380 L38166666 52402380 "/>
<svg:path d="M38500000 52021428 L39261904 52021428 "/>
<svg:path d="M39785714 52402380 L39976190 52402380 L40071428 52354761 L40119047 52307142 L40214285 52164285 L40261904 51973809 L40261904 51592857 L40214285 51497619 L40166666 51450000 L40071428 51402380 L39880952 51402380 L39785714 51450000 L39738095 51497619 L39690476 51592857 L39690476 51830952 L39738095 51926190 L39785714 51973809 L39880952 52021428 L40071428 52021428 L40166666 51973809 L40214285 51926190 L40261904 51830952 "/>
<svg:path d="M40452380 52497619 L41214285 52497619 "/>
<svg:path d="M41976190 52402380 L41404761 52402380 "/>
<svg:path d="M41690476 52402380 L41690476 51402380 L41595238 51545238 L41500000 51640476 L41404761 51688095 "/>
<svg:path d="M42404761 52307142 L42452380 52354761 L42404761 52402380 L42357142 52354761 L42404761 52307142 L42404761 52402380 "/>
<svg:path d="M43309523 51402380 L43119047 51402380 L43023809 51450000 L42976190 51497619 L42880952 51640476 L42833333 51830952 L42833333 52211904 L42880952 52307142 L42928571 52354761 L43023809 52402380 L43214285 52402380 L43309523 52354761 L43357142 52307142 L43404761 52211904 L43404761 51973809 L43357142 51878571 L43309523 51830952 L43214285 51783333 L43023809 51783333 L42928571 51830952 L42880952 51878571 L42833333 51973809 "/>
<svg:path d="M43738095 52402380 L44261904 51735714 "/>
<svg:path d="M43738095 51735714 L44261904 52402380 "/>
<svg:path d="M45166666 52402380 L44595238 52402380 "/>
<svg:path d="M44880952 52402380 L44880952 51402380 L44785714 51545238 L44690476 51640476 L44595238 51688095 "/>
<svg:path d="M45595238 52307142 L45642857 52354761 L45595238 52402380 L45547619 52354761 L45595238 52307142 L45595238 52402380 "/>
<svg:path d="M46500000 51402380 L46309523 51402380 L46214285 51450000 L46166666 51497619 L46071428 51640476 L46023809 51830952 L46023809 52211904 L46071428 52307142 L46119047 52354761 L46214285 52402380 L46404761 52402380 L46500000 52354761 L46547619 52307142 L46595238 52211904 L46595238 51973809 L46547619 51878571 L46500000 51830952 L46404761 51783333 L46214285 51783333 L46119047 51830952 L46071428 51878571 L46023809 51973809 "/>
<svg:path d="M47023809 52402380 L47023809 51735714 "/>
<svg:path d="M47023809 51830952 L47071428 51783333 L47166666 51735714 L47309523 51735714 L47404761 51783333 L47452380 51878571 L47452380 52402380 "/>
<svg:path d="M47452380 51878571 L47500000 51783333 L47595238 51735714 L47738095 51735714 L47833333 51783333 L47880952 51878571 L47880952 52402380 "/>
<svg:path d="M48357142 52402380 L48357142 51735714 "/>
<svg:path d="M48357142 51830952 L48404761 51783333 L48500000 51735714 L48642857 51735714 L48738095 51783333 L48785714 51878571 L48785714 52402380 "/>
<svg:path d="M48785714 51878571 L48833333 51783333 L48928571 51735714 L49071428 51735714 L49166666 51783333 L49214285 51878571 L49214285 52402380 "/>
<svg:path d="M49452380 52497619 L50214285 52497619 "/>
<svg:path d="M50928571 52402380 L50452380 52402380 L50452380 51402380 "/>
<svg:path d="M51690476 52402380 L51690476 51878571 L51642857 51783333 L51547619 51735714 L51357142 51735714 L51261904 51783333 "/>
<svg:path d="M51690476 52354761 L51595238 52402380 L51357142 52402380 L51261904 52354761 L51214285 52259523 L51214285 52164285 L51261904 52069047 L51357142 52021428 L51595238 52021428 L51690476 51973809 "/>
<svg:path d="M52071428 51735714 L52309523 52402380 "/>
<svg:path d="M52547619 51735714 L52309523 52402380 L52214285 52640476 L52166666 52688095 L52071428 52735714 "/>
<svg:path d="M53071428 52402380 L52976190 52354761 L52928571 52307142 L52880952 52211904 L52880952 51926190 L52928571 51830952 L52976190 51783333 L53071428 51735714 L53214285 51735714 L53309523 51783333 L53357142 51830952 L53404761 51926190 L53404761 52211904 L53357142 52307142 L53309523 52354761 L53214285 52402380 L53071428 52402380 "/>
<svg:path d="M54261904 51735714 L54261904 52402380 "/>
<svg:path d="M53833333 51735714 L53833333 52259523 L53880952 52354761 L53976190 52402380 L54119047 52402380 L54214285 52354761 L54261904 52307142 "/>
<svg:path d="M54595238 51735714 L54976190 51735714 "/>
<svg:path d="M54738095 51402380 L54738095 52259523 L54785714 52354761 L54880952 52402380 L54976190 52402380 "/>
<svg:path d="M55214285 51402380 L55833333 51402380 L55499999 51783333 L55642857 51783333 L55738095 51830952 L55785714 51878571 L55833333 51973809 L55833333 52211904 L55785714 52307142 L55738095 52354761 L55642857 52402380 L55357142 52402380 L55261904 52354761 L55214285 52307142 "/>
<svg:path d="M56166666 52402380 L56690476 51735714 "/>
<svg:path d="M56166666 51735714 L56690476 52402380 "/>
<svg:path d="M56976190 51402380 L57595238 51402380 L57261904 51783333 L57404761 51783333 L57499999 51830952 L57547619 51878571 L57595238 51973809 L57595238 52211904 L57547619 52307142 L57499999 52354761 L57404761 52402380 L57119047 52402380 L57023809 52354761 L56976190 52307142 "/>
<svg:path d="M57785714 52497619 L58547619 52497619 "/>
<svg:path d="M58785714 52402380 L58785714 51402380 L59166666 51402380 L59261904 51450000 L59309523 51497619 L59357142 51592857 L59357142 51735714 L59309523 51830952 L59261904 51878571 L59166666 51926190 L58785714 51926190 "/>
<svg:path d="M59976190 51402380 L60071428 51402380 L60166666 51450000 L60214285 51497619 L60261904 51592857 L60309523 51783333 L60309523 52021428 L60261904 52211904 L60214285 52307142 L60166666 52354761 L60071428 52402380 L59976190 52402380 L59880952 52354761 L59833333 52307142 L59785714 52211904 L59738095 52021428 L59738095 51783333 L59785714 51592857 L59833333 51497619 L59880952 51450000 L59976190 51402380 "/>
<svg:path d="M60738095 52307142 L60785714 52354761 L60738095 52402380 L60690476 52354761 L60738095 52307142 L60738095 52402380 "/>
<svg:path d="M61690476 51402380 L61214285 51402380 L61166666 51878571 L61214285 51830952 L61309523 51783333 L61547619 51783333 L61642857 51830952 L61690476 51878571 L61738095 51973809 L61738095 52211904 L61690476 52307142 L61642857 52354761 L61547619 52402380 L61309523 52402380 L61214285 52354761 L61166666 52307142 "/>
<svg:path d="M62166666 52402380 L62166666 51735714 "/>
<svg:path d="M62166666 51830952 L62214285 51783333 L62309523 51735714 L62452380 51735714 L62547619 51783333 L62595238 51878571 L62595238 52402380 "/>
<svg:path d="M62595238 51878571 L62642857 51783333 L62738095 51735714 L62880952 51735714 L62976190 51783333 L63023809 51878571 L63023809 52402380 "/>
<svg:path d="M63499999 52402380 L63499999 51735714 "/>
<svg:path d="M63499999 51830952 L63547619 51783333 L63642857 51735714 L63785714 51735714 L63880952 51783333 L63928571 51878571 L63928571 52402380 "/>
<svg:path d="M63928571 51878571 L63976190 51783333 L64071428 51735714 L64214285 51735714 L64309523 51783333 L64357142 51878571 L64357142 52402380 "/>
</svg:g></svg:g>
<svg:g style="fill:#AFAFAF; fill-opacity:0.0;  stroke:#AFAFAF; stroke-width:100000.000000; stroke-opacity:1;  stroke-linecap:round; stroke-linejoin:round;">
<svg:text x="50000000.000000" y="50200000.000000" textLength="9966429.000000" font-size="533333.000000" lengthAdjust="spacingAndGlyphs" text-anchor="middle" opacity="0">FZKBGABGA916X16LAYOUT3X3P5</svg:text>
<svg:g class="stroked-text"><svg:desc>FZKBGABGA916X16LAYOUT3X3P5</svg:desc>
<svg:path d="M45342857 49971428 L45209523 49971428 "/>
<svg:path d="M45209523 50180952 L45209523 49780952 L45400000 49780952 "/>
<svg:path d="M45514285 49780952 L45780952 49780952 L45514285 50180952 L45780952 50180952 "/>
<svg:path d="M45933333 50180952 L45933333 49780952 "/>
<svg:path d="M46161904 50180952 L45990476 49952380 "/>
<svg:path d="M46161904 49780952 L45933333 50009523 "/>
<svg:path d="M46466666 49971428 L46523809 49990476 L46542857 50009523 L46561904 50047619 L46561904 50104761 L46542857 50142857 L46523809 50161904 L46485714 50180952 L46333333 50180952 L46333333 49780952 L46466666 49780952 L46504761 49800000 L46523809 49819047 L46542857 49857142 L46542857 49895238 L46523809 49933333 L46504761 49952380 L46466666 49971428 L46333333 49971428 "/>
<svg:path d="M46942857 49800000 L46904761 49780952 L46847619 49780952 L46790476 49800000 L46752380 49838095 L46733333 49876190 L46714285 49952380 L46714285 50009523 L46733333 50085714 L46752380 50123809 L46790476 50161904 L46847619 50180952 L46885714 50180952 L46942857 50161904 L46961904 50142857 L46961904 50009523 L46885714 50009523 "/>
<svg:path d="M47114285 50066666 L47304761 50066666 "/>
<svg:path d="M47076190 50180952 L47209523 49780952 L47342857 50180952 "/>
<svg:path d="M47609523 49971428 L47666666 49990476 L47685714 50009523 L47704761 50047619 L47704761 50104761 L47685714 50142857 L47666666 50161904 L47628571 50180952 L47476190 50180952 L47476190 49780952 L47609523 49780952 L47647619 49800000 L47666666 49819047 L47685714 49857142 L47685714 49895238 L47666666 49933333 L47647619 49952380 L47609523 49971428 L47476190 49971428 "/>
<svg:path d="M48085714 49800000 L48047619 49780952 L47990476 49780952 L47933333 49800000 L47895238 49838095 L47876190 49876190 L47857142 49952380 L47857142 50009523 L47876190 50085714 L47895238 50123809 L47933333 50161904 L47990476 50180952 L48028571 50180952 L48085714 50161904 L48104761 50142857 L48104761 50009523 L48028571 50009523 "/>
<svg:path d="M48257142 50066666 L48447619 50066666 "/>
<svg:path d="M48219047 50180952 L48352380 49780952 L48485714 50180952 "/>
<svg:path d="M48638095 50180952 L48714285 50180952 L48752380 50161904 L48771428 50142857 L48809523 50085714 L48828571 50009523 L48828571 49857142 L48809523 49819047 L48790476 49800000 L48752380 49780952 L48676190 49780952 L48638095 49800000 L48619047 49819047 L48600000 49857142 L48600000 49952380 L48619047 49990476 L48638095 50009523 L48676190 50028571 L48752380 50028571 L48790476 50009523 L48809523 49990476 L48828571 49952380 "/>
<svg:path d="M49209523 50180952 L48980952 50180952 "/>
<svg:path d="M49095238 50180952 L49095238 49780952 L49057142 49838095 L49019047 49876190 L48980952 49895238 "/>
<svg:path d="M49552380 49780952 L49476190 49780952 L49438095 49800000 L49419047 49819047 L49380952 49876190 L49361904 49952380 L49361904 50104761 L49380952 50142857 L49400000 50161904 L49438095 50180952 L49514285 50180952 L49552380 50161904 L49571428 50142857 L49590476 50104761 L49590476 50009523 L49571428 49971428 L49552380 49952380 L49514285 49933333 L49438095 49933333 L49400000 49952380 L49380952 49971428 L49361904 50009523 "/>
<svg:path d="M49723809 49780952 L49990476 50180952 "/>
<svg:path d="M49990476 49780952 L49723809 50180952 "/>
<svg:path d="M50352380 50180952 L50123809 50180952 "/>
<svg:path d="M50238095 50180952 L50238095 49780952 L50200000 49838095 L50161904 49876190 L50123809 49895238 "/>
<svg:path d="M50695238 49780952 L50619047 49780952 L50580952 49800000 L50561904 49819047 L50523809 49876190 L50504761 49952380 L50504761 50104761 L50523809 50142857 L50542857 50161904 L50580952 50180952 L50657142 50180952 L50695238 50161904 L50714285 50142857 L50733333 50104761 L50733333 50009523 L50714285 49971428 L50695238 49952380 L50657142 49933333 L50580952 49933333 L50542857 49952380 L50523809 49971428 L50504761 50009523 "/>
<svg:path d="M51095238 50180952 L50904761 50180952 L50904761 49780952 "/>
<svg:path d="M51209523 50066666 L51400000 50066666 "/>
<svg:path d="M51171428 50180952 L51304761 49780952 L51438095 50180952 "/>
<svg:path d="M51647619 49990476 L51647619 50180952 "/>
<svg:path d="M51514285 49780952 L51647619 49990476 L51780952 49780952 "/>
<svg:path d="M51990476 49780952 L52066666 49780952 L52104761 49800000 L52142857 49838095 L52161904 49914285 L52161904 50047619 L52142857 50123809 L52104761 50161904 L52066666 50180952 L51990476 50180952 L51952380 50161904 L51914285 50123809 L51895238 50047619 L51895238 49914285 L51914285 49838095 L51952380 49800000 L51990476 49780952 "/>
<svg:path d="M52333333 49780952 L52333333 50104761 L52352380 50142857 L52371428 50161904 L52409523 50180952 L52485714 50180952 L52523809 50161904 L52542857 50142857 L52561904 50104761 L52561904 49780952 "/>
<svg:path d="M52695238 49780952 L52923809 49780952 "/>
<svg:path d="M52809523 50180952 L52809523 49780952 "/>
<svg:path d="M53019047 49780952 L53266666 49780952 L53133333 49933333 L53190476 49933333 L53228571 49952380 L53247619 49971428 L53266666 50009523 L53266666 50104761 L53247619 50142857 L53228571 50161904 L53190476 50180952 L53076190 50180952 L53038095 50161904 L53019047 50142857 "/>
<svg:path d="M53400000 49780952 L53666666 50180952 "/>
<svg:path d="M53666666 49780952 L53400000 50180952 "/>
<svg:path d="M53780952 49780952 L54028571 49780952 L53895238 49933333 L53952380 49933333 L53990476 49952380 L54009523 49971428 L54028571 50009523 L54028571 50104761 L54009523 50142857 L53990476 50161904 L53952380 50180952 L53838095 50180952 L53800000 50161904 L53780952 50142857 "/>
<svg:path d="M54200000 50180952 L54200000 49780952 L54352380 49780952 L54390476 49800000 L54409523 49819047 L54428571 49857142 L54428571 49914285 L54409523 49952380 L54390476 49971428 L54352380 49990476 L54200000 49990476 "/>
<svg:path d="M54790476 49780952 L54600000 49780952 L54580952 49971428 L54600000 49952380 L54638095 49933333 L54733333 49933333 L54771428 49952380 L54790476 49971428 L54809523 50009523 L54809523 50104761 L54790476 50142857 L54771428 50161904 L54733333 50180952 L54638095 50180952 L54600000 50161904 L54580952 50142857 "/>
</svg:g><svg:path d="M49200000 50800000 L49200000 49750000 "/>
<svg:path d="M50800000 49200000 L50800000 50800000 "/>
<svg:path d="M49750000 49200000 L50800000 49200000 "/>
<svg:path d="M49200000 49750000 L49750000 49200000 "/>
<svg:path d="M50800000 50800000 L49200000 50800000 "/>
<svg:g>
</svg:g>
<svg:g>
</svg:g>
<svg:g>
</svg:g>
<svg:g>
</svg:g>
</svg:g>
<svg:g style="fill:#000000; fill-opacity:0.0;  stroke:#000000; stroke-width:100000.000000; stroke-opacity:1;  stroke-linecap:round; stroke-linejoin:round;">
<svg:g>
</svg:g>
<svg:g>
</svg:g>
<svg:g>
</svg:g>
<svg:g>
</svg:g>
</svg:g> 
</svg:g><svg:g><svg:title>SVG Picture created as kicadBoard-F_Mask.svg date 2022/11/18 20:52:13 </svg:title>
  <svg:desc>Picture generated by PCBNEW </svg:desc>
<svg:g style="fill:#000000; fill-opacity:1.000000;stroke:#000000; stroke-opacity:1.000000; stroke-linecap:round; stroke-linejoin:round;" transform="translate(0 0) scale(1 1)">
</svg:g>
<svg:g style="fill:#000000; fill-opacity:0.0;  stroke:#000000; stroke-width:0.000000; stroke-opacity:1;  stroke-linecap:round; stroke-linejoin:round;">
<svg:g>
</svg:g>
<svg:g style="fill:#000000; fill-opacity:1.0;  stroke:#000000; stroke-width:1.000000; stroke-opacity:1;  stroke-linecap:round; stroke-linejoin:round;">
<svg:circle cx="49500000.000000" cy="49500000.000000" r="125000.000000"/> 
</svg:g>
<svg:g style="fill:#000000; fill-opacity:1.0;  stroke:#000000; stroke-width:21200.000000; stroke-opacity:1;  stroke-linecap:round; stroke-linejoin:round;">
</svg:g>
<svg:g style="fill:#000000; fill-opacity:1.0;  stroke:#000000; stroke-width:1.000000; stroke-opacity:1;  stroke-linecap:round; stroke-linejoin:round;">
<svg:circle cx="50000000.000000" cy="49500000.000000" r="125000.000000"/> 
</svg:g>
<svg:g style="fill:#000000; fill-opacity:1.0;  stroke:#000000; stroke-width:21200.000000; stroke-opacity:1;  stroke-linecap:round; stroke-linejoin:round;">
</svg:g>
<svg:g style="fill:#000000; fill-opacity:1.0;  stroke:#000000; stroke-width:1.000000; stroke-opacity:1;  stroke-linecap:round; stroke-linejoin:round;">
<svg:circle cx="50500000.000000" cy="49500000.000000" r="125000.000000"/> 
</svg:g>
<svg:g style="fill:#000000; fill-opacity:1.0;  stroke:#000000; stroke-width:21200.000000; stroke-opacity:1;  stroke-linecap:round; stroke-linejoin:round;">
</svg:g>
<svg:g style="fill:#000000; fill-opacity:1.0;  stroke:#000000; stroke-width:1.000000; stroke-opacity:1;  stroke-linecap:round; stroke-linejoin:round;">
<svg:circle cx="49500000.000000" cy="50000000.000000" r="125000.000000"/> 
</svg:g>
<svg:g style="fill:#000000; fill-opacity:1.0;  stroke:#000000; stroke-width:21200.000000; stroke-opacity:1;  stroke-linecap:round; stroke-linejoin:round;">
</svg:g>
<svg:g style="fill:#000000; fill-opacity:1.0;  stroke:#000000; stroke-width:1.000000; stroke-opacity:1;  stroke-linecap:round; stroke-linejoin:round;">
<svg:circle cx="50000000.000000" cy="50000000.000000" r="125000.000000"/> 
</svg:g>
<svg:g style="fill:#000000; fill-opacity:1.0;  stroke:#000000; stroke-width:21200.000000; stroke-opacity:1;  stroke-linecap:round; stroke-linejoin:round;">
</svg:g>
<svg:g style="fill:#000000; fill-opacity:1.0;  stroke:#000000; stroke-width:1.000000; stroke-opacity:1;  stroke-linecap:round; stroke-linejoin:round;">
<svg:circle cx="50500000.000000" cy="50000000.000000" r="125000.000000"/> 
</svg:g>
<svg:g style="fill:#000000; fill-opacity:1.0;  stroke:#000000; stroke-width:21200.000000; stroke-opacity:1;  stroke-linecap:round; stroke-linejoin:round;">
</svg:g>
<svg:g style="fill:#000000; fill-opacity:1.0;  stroke:#000000; stroke-width:1.000000; stroke-opacity:1;  stroke-linecap:round; stroke-linejoin:round;">
<svg:circle cx="49500000.000000" cy="50500000.000000" r="125000.000000"/> 
</svg:g>
<svg:g style="fill:#000000; fill-opacity:1.0;  stroke:#000000; stroke-width:21200.000000; stroke-opacity:1;  stroke-linecap:round; stroke-linejoin:round;">
</svg:g>
<svg:g style="fill:#000000; fill-opacity:1.0;  stroke:#000000; stroke-width:1.000000; stroke-opacity:1;  stroke-linecap:round; stroke-linejoin:round;">
<svg:circle cx="50000000.000000" cy="50500000.000000" r="125000.000000"/> 
</svg:g>
<svg:g style="fill:#000000; fill-opacity:1.0;  stroke:#000000; stroke-width:21200.000000; stroke-opacity:1;  stroke-linecap:round; stroke-linejoin:round;">
</svg:g>
<svg:g style="fill:#000000; fill-opacity:1.0;  stroke:#000000; stroke-width:1.000000; stroke-opacity:1;  stroke-linecap:round; stroke-linejoin:round;">
<svg:circle cx="50500000.000000" cy="50500000.000000" r="125000.000000"/> 
</svg:g>
<svg:g style="fill:#000000; fill-opacity:1.0;  stroke:#000000; stroke-width:21200.000000; stroke-opacity:1;  stroke-linecap:round; stroke-linejoin:round;">
</svg:g>
<svg:g>
</svg:g>
<svg:g>
</svg:g>
<svg:g>
</svg:g>
</svg:g>
<svg:g style="fill:#000000; fill-opacity:1.0;  stroke:#000000; stroke-width:21200.000000; stroke-opacity:1;  stroke-linecap:round; stroke-linejoin:round;">
<svg:g>
</svg:g>
<svg:g>
</svg:g>
<svg:g>
</svg:g>
<svg:g>
</svg:g>
</svg:g> 
</svg:g><svg:g><svg:title>SVG Picture created as kicadBoard-F_Paste.svg date 2022/11/18 20:52:13 </svg:title>
  <svg:desc>Picture generated by PCBNEW </svg:desc>
<svg:g style="fill:#000000; fill-opacity:1.000000;stroke:#000000; stroke-opacity:1.000000; stroke-linecap:round; stroke-linejoin:round;" transform="translate(0 0) scale(1 1)">
</svg:g>
<svg:g style="fill:#000000; fill-opacity:0.0;  stroke:#000000; stroke-width:0.000000; stroke-opacity:1;  stroke-linecap:round; stroke-linejoin:round;">
<svg:g>
</svg:g>
<svg:g style="fill:#000000; fill-opacity:1.0;  stroke:#000000; stroke-width:1.000000; stroke-opacity:1;  stroke-linecap:round; stroke-linejoin:round;">
<svg:circle cx="49500000.000000" cy="49500000.000000" r="125000.000000"/> 
</svg:g>
<svg:g style="fill:#000000; fill-opacity:1.0;  stroke:#000000; stroke-width:21200.000000; stroke-opacity:1;  stroke-linecap:round; stroke-linejoin:round;">
</svg:g>
<svg:g style="fill:#000000; fill-opacity:1.0;  stroke:#000000; stroke-width:1.000000; stroke-opacity:1;  stroke-linecap:round; stroke-linejoin:round;">
<svg:circle cx="50000000.000000" cy="49500000.000000" r="125000.000000"/> 
</svg:g>
<svg:g style="fill:#000000; fill-opacity:1.0;  stroke:#000000; stroke-width:21200.000000; stroke-opacity:1;  stroke-linecap:round; stroke-linejoin:round;">
</svg:g>
<svg:g style="fill:#000000; fill-opacity:1.0;  stroke:#000000; stroke-width:1.000000; stroke-opacity:1;  stroke-linecap:round; stroke-linejoin:round;">
<svg:circle cx="50500000.000000" cy="49500000.000000" r="125000.000000"/> 
</svg:g>
<svg:g style="fill:#000000; fill-opacity:1.0;  stroke:#000000; stroke-width:21200.000000; stroke-opacity:1;  stroke-linecap:round; stroke-linejoin:round;">
</svg:g>
<svg:g style="fill:#000000; fill-opacity:1.0;  stroke:#000000; stroke-width:1.000000; stroke-opacity:1;  stroke-linecap:round; stroke-linejoin:round;">
<svg:circle cx="49500000.000000" cy="50000000.000000" r="125000.000000"/> 
</svg:g>
<svg:g style="fill:#000000; fill-opacity:1.0;  stroke:#000000; stroke-width:21200.000000; stroke-opacity:1;  stroke-linecap:round; stroke-linejoin:round;">
</svg:g>
<svg:g style="fill:#000000; fill-opacity:1.0;  stroke:#000000; stroke-width:1.000000; stroke-opacity:1;  stroke-linecap:round; stroke-linejoin:round;">
<svg:circle cx="50000000.000000" cy="50000000.000000" r="125000.000000"/> 
</svg:g>
<svg:g style="fill:#000000; fill-opacity:1.0;  stroke:#000000; stroke-width:21200.000000; stroke-opacity:1;  stroke-linecap:round; stroke-linejoin:round;">
</svg:g>
<svg:g style="fill:#000000; fill-opacity:1.0;  stroke:#000000; stroke-width:1.000000; stroke-opacity:1;  stroke-linecap:round; stroke-linejoin:round;">
<svg:circle cx="50500000.000000" cy="50000000.000000" r="125000.000000"/> 
</svg:g>
<svg:g style="fill:#000000; fill-opacity:1.0;  stroke:#000000; stroke-width:21200.000000; stroke-opacity:1;  stroke-linecap:round; stroke-linejoin:round;">
</svg:g>
<svg:g style="fill:#000000; fill-opacity:1.0;  stroke:#000000; stroke-width:1.000000; stroke-opacity:1;  stroke-linecap:round; stroke-linejoin:round;">
<svg:circle cx="49500000.000000" cy="50500000.000000" r="125000.000000"/> 
</svg:g>
<svg:g style="fill:#000000; fill-opacity:1.0;  stroke:#000000; stroke-width:21200.000000; stroke-opacity:1;  stroke-linecap:round; stroke-linejoin:round;">
</svg:g>
<svg:g style="fill:#000000; fill-opacity:1.0;  stroke:#000000; stroke-width:1.000000; stroke-opacity:1;  stroke-linecap:round; stroke-linejoin:round;">
<svg:circle cx="50000000.000000" cy="50500000.000000" r="125000.000000"/> 
</svg:g>
<svg:g style="fill:#000000; fill-opacity:1.0;  stroke:#000000; stroke-width:21200.000000; stroke-opacity:1;  stroke-linecap:round; stroke-linejoin:round;">
</svg:g>
<svg:g style="fill:#000000; fill-opacity:1.0;  stroke:#000000; stroke-width:1.000000; stroke-opacity:1;  stroke-linecap:round; stroke-linejoin:round;">
<svg:circle cx="50500000.000000" cy="50500000.000000" r="125000.000000"/> 
</svg:g>
<svg:g style="fill:#000000; fill-opacity:1.0;  stroke:#000000; stroke-width:21200.000000; stroke-opacity:1;  stroke-linecap:round; stroke-linejoin:round;">
</svg:g>
<svg:g>
</svg:g>
<svg:g>
</svg:g>
<svg:g>
</svg:g>
</svg:g>
<svg:g style="fill:#000000; fill-opacity:1.0;  stroke:#000000; stroke-width:21200.000000; stroke-opacity:1;  stroke-linecap:round; stroke-linejoin:round;">
<svg:g>
</svg:g>
<svg:g>
</svg:g>
<svg:g>
</svg:g>
<svg:g>
</svg:g>
</svg:g> 
</svg:g><svg:g><svg:title>SVG Picture created as kicadBoard-F_Silkscreen.svg date 2022/11/18 20:52:13 </svg:title>
  <svg:desc>Picture generated by PCBNEW </svg:desc>
<svg:g style="fill:#000000; fill-opacity:1.000000;stroke:#000000; stroke-opacity:1.000000; stroke-linecap:round; stroke-linejoin:round;" transform="translate(0 0) scale(1 1)">
</svg:g>
<svg:g style="fill:#000000; fill-opacity:0.0;  stroke:#000000; stroke-width:0.000000; stroke-opacity:1;  stroke-linecap:round; stroke-linejoin:round;">
</svg:g>
<svg:g style="fill:#F2EDA1; fill-opacity:0.0;  stroke:#F2EDA1; stroke-width:0.000000; stroke-opacity:1;  stroke-linecap:round; stroke-linejoin:round;">
</svg:g>
<svg:g style="fill:#F2EDA1; fill-opacity:0.0;  stroke:#F2EDA1; stroke-width:150000.000000; stroke-opacity:1;  stroke-linecap:round; stroke-linejoin:round;">
<svg:text x="50000000.000000" y="48500000.000000" textLength="24428572.000000" font-size="1333333.000000" lengthAdjust="spacingAndGlyphs" text-anchor="middle" opacity="0">FZKBGABGA916X16LAYOUT3X3P5</svg:text>
<svg:g class="stroked-text"><svg:desc>FZKBGABGA916X16LAYOUT3X3P5</svg:desc>
<svg:path d="M38357142 47928571 L38023809 47928571 "/>
<svg:path d="M38023809 48452380 L38023809 47452380 L38500000 47452380 "/>
<svg:path d="M38785714 47452380 L39452380 47452380 L38785714 48452380 L39452380 48452380 "/>
<svg:path d="M39833333 48452380 L39833333 47452380 "/>
<svg:path d="M40404761 48452380 L39976190 47880952 "/>
<svg:path d="M40404761 47452380 L39833333 48023809 "/>
<svg:path d="M41166666 47928571 L41309523 47976190 L41357142 48023809 L41404761 48119047 L41404761 48261904 L41357142 48357142 L41309523 48404761 L41214285 48452380 L40833333 48452380 L40833333 47452380 L41166666 47452380 L41261904 47500000 L41309523 47547619 L41357142 47642857 L41357142 47738095 L41309523 47833333 L41261904 47880952 L41166666 47928571 L40833333 47928571 "/>
<svg:path d="M42357142 47500000 L42261904 47452380 L42119047 47452380 L41976190 47500000 L41880952 47595238 L41833333 47690476 L41785714 47880952 L41785714 48023809 L41833333 48214285 L41880952 48309523 L41976190 48404761 L42119047 48452380 L42214285 48452380 L42357142 48404761 L42404761 48357142 L42404761 48023809 L42214285 48023809 "/>
<svg:path d="M42785714 48166666 L43261904 48166666 "/>
<svg:path d="M42690476 48452380 L43023809 47452380 L43357142 48452380 "/>
<svg:path d="M44023809 47928571 L44166666 47976190 L44214285 48023809 L44261904 48119047 L44261904 48261904 L44214285 48357142 L44166666 48404761 L44071428 48452380 L43690476 48452380 L43690476 47452380 L44023809 47452380 L44119047 47500000 L44166666 47547619 L44214285 47642857 L44214285 47738095 L44166666 47833333 L44119047 47880952 L44023809 47928571 L43690476 47928571 "/>
<svg:path d="M45214285 47500000 L45119047 47452380 L44976190 47452380 L44833333 47500000 L44738095 47595238 L44690476 47690476 L44642857 47880952 L44642857 48023809 L44690476 48214285 L44738095 48309523 L44833333 48404761 L44976190 48452380 L45071428 48452380 L45214285 48404761 L45261904 48357142 L45261904 48023809 L45071428 48023809 "/>
<svg:path d="M45642857 48166666 L46119047 48166666 "/>
<svg:path d="M45547619 48452380 L45880952 47452380 L46214285 48452380 "/>
<svg:path d="M46595238 48452380 L46785714 48452380 L46880952 48404761 L46928571 48357142 L47023809 48214285 L47071428 48023809 L47071428 47642857 L47023809 47547619 L46976190 47500000 L46880952 47452380 L46690476 47452380 L46595238 47500000 L46547619 47547619 L46500000 47642857 L46500000 47880952 L46547619 47976190 L46595238 48023809 L46690476 48071428 L46880952 48071428 L46976190 48023809 L47023809 47976190 L47071428 47880952 "/>
<svg:path d="M48023809 48452380 L47452380 48452380 "/>
<svg:path d="M47738095 48452380 L47738095 47452380 L47642857 47595238 L47547619 47690476 L47452380 47738095 "/>
<svg:path d="M48880952 47452380 L48690476 47452380 L48595238 47500000 L48547619 47547619 L48452380 47690476 L48404761 47880952 L48404761 48261904 L48452380 48357142 L48500000 48404761 L48595238 48452380 L48785714 48452380 L48880952 48404761 L48928571 48357142 L48976190 48261904 L48976190 48023809 L48928571 47928571 L48880952 47880952 L48785714 47833333 L48595238 47833333 L48500000 47880952 L48452380 47928571 L48404761 48023809 "/>
<svg:path d="M49309523 47452380 L49976190 48452380 "/>
<svg:path d="M49976190 47452380 L49309523 48452380 "/>
<svg:path d="M50880952 48452380 L50309523 48452380 "/>
<svg:path d="M50595238 48452380 L50595238 47452380 L50499999 47595238 L50404761 47690476 L50309523 47738095 "/>
<svg:path d="M51738095 47452380 L51547619 47452380 L51452380 47500000 L51404761 47547619 L51309523 47690476 L51261904 47880952 L51261904 48261904 L51309523 48357142 L51357142 48404761 L51452380 48452380 L51642857 48452380 L51738095 48404761 L51785714 48357142 L51833333 48261904 L51833333 48023809 L51785714 47928571 L51738095 47880952 L51642857 47833333 L51452380 47833333 L51357142 47880952 L51309523 47928571 L51261904 48023809 "/>
<svg:path d="M52738095 48452380 L52261904 48452380 L52261904 47452380 "/>
<svg:path d="M53023809 48166666 L53499999 48166666 "/>
<svg:path d="M52928571 48452380 L53261904 47452380 L53595238 48452380 "/>
<svg:path d="M54119047 47976190 L54119047 48452380 "/>
<svg:path d="M53785714 47452380 L54119047 47976190 L54452380 47452380 "/>
<svg:path d="M54976190 47452380 L55166666 47452380 L55261904 47500000 L55357142 47595238 L55404761 47785714 L55404761 48119047 L55357142 48309523 L55261904 48404761 L55166666 48452380 L54976190 48452380 L54880952 48404761 L54785714 48309523 L54738095 48119047 L54738095 47785714 L54785714 47595238 L54880952 47500000 L54976190 47452380 "/>
<svg:path d="M55833333 47452380 L55833333 48261904 L55880952 48357142 L55928571 48404761 L56023809 48452380 L56214285 48452380 L56309523 48404761 L56357142 48357142 L56404761 48261904 L56404761 47452380 "/>
<svg:path d="M56738095 47452380 L57309523 47452380 "/>
<svg:path d="M57023809 48452380 L57023809 47452380 "/>
<svg:path d="M57547619 47452380 L58166666 47452380 L57833333 47833333 L57976190 47833333 L58071428 47880952 L58119047 47928571 L58166666 48023809 L58166666 48261904 L58119047 48357142 L58071428 48404761 L57976190 48452380 L57690476 48452380 L57595238 48404761 L57547619 48357142 "/>
<svg:path d="M58499999 47452380 L59166666 48452380 "/>
<svg:path d="M59166666 47452380 L58499999 48452380 "/>
<svg:path d="M59452380 47452380 L60071428 47452380 L59738095 47833333 L59880952 47833333 L59976190 47880952 L60023809 47928571 L60071428 48023809 L60071428 48261904 L60023809 48357142 L59976190 48404761 L59880952 48452380 L59595238 48452380 L59499999 48404761 L59452380 48357142 "/>
<svg:path d="M60499999 48452380 L60499999 47452380 L60880952 47452380 L60976190 47500000 L61023809 47547619 L61071428 47642857 L61071428 47785714 L61023809 47880952 L60976190 47928571 L60880952 47976190 L60499999 47976190 "/>
<svg:path d="M61976190 47452380 L61499999 47452380 L61452380 47928571 L61499999 47880952 L61595238 47833333 L61833333 47833333 L61928571 47880952 L61976190 47928571 L62023809 48023809 L62023809 48261904 L61976190 48357142 L61928571 48404761 L61833333 48452380 L61595238 48452380 L61499999 48404761 L61452380 48357142 "/>
</svg:g></svg:g>
<svg:g style="fill:#F2EDA1; fill-opacity:0.0;  stroke:#F2EDA1; stroke-width:120000.000000; stroke-opacity:1;  stroke-linecap:round; stroke-linejoin:round;">
<svg:path d="M49050000 50950000 L50950000 50950000 "/>
<svg:path d="M48850000 48850000 L48850000 49650000 "/>
<svg:path d="M48850000 48850000 L49650000 48850000 "/>
<svg:path d="M50950000 50950000 L50950000 49050000 "/>
<svg:path d="M50950000 49050000 L49050000 49050000 "/>
<svg:path d="M49050000 49050000 L49050000 50950000 "/>
<svg:g>
</svg:g>
<svg:g>
</svg:g>
<svg:g>
</svg:g>
<svg:g>
</svg:g>
</svg:g>
<svg:g style="fill:#000000; fill-opacity:0.0;  stroke:#000000; stroke-width:120000.000000; stroke-opacity:1;  stroke-linecap:round; stroke-linejoin:round;">
<svg:g>
</svg:g>
<svg:g>
</svg:g>
<svg:g>
</svg:g>
<svg:g>
</svg:g>
</svg:g> 
</svg:g><svg:g><svg:title>SVG Picture created as kicadBoard-Margin.svg date 2022/11/18 20:52:13 </svg:title>
  <svg:desc>Picture generated by PCBNEW </svg:desc>
<svg:g style="fill:#000000; fill-opacity:1.000000;stroke:#000000; stroke-opacity:1.000000; stroke-linecap:round; stroke-linejoin:round;" transform="translate(0 0) scale(1 1)">
</svg:g>
<svg:g style="fill:#000000; fill-opacity:0.0;  stroke:#000000; stroke-width:0.000000; stroke-opacity:1;  stroke-linecap:round; stroke-linejoin:round;">
<svg:g>
</svg:g>
<svg:g>
</svg:g>
<svg:g>
</svg:g>
<svg:g>
</svg:g>
</svg:g>
<svg:g style="fill:#000000; fill-opacity:0.0;  stroke:#000000; stroke-width:0.000000; stroke-opacity:1;  stroke-linecap:round; stroke-linejoin:round;">
<svg:g>
</svg:g>
<svg:g>
</svg:g>
<svg:g>
</svg:g>
<svg:g>
</svg:g>
</svg:g> 
</svg:g><svg:g><svg:title>SVG Picture created as kicadBoard-F_Cu.svg date 2022/11/18 20:52:13 </svg:title>
  <svg:desc>Picture generated by PCBNEW </svg:desc>
<svg:g style="fill:#000000; fill-opacity:1.000000;stroke:#000000; stroke-opacity:1.000000; stroke-linecap:round; stroke-linejoin:round;" transform="translate(0 0) scale(1 1)">
</svg:g>
<svg:g style="fill:#000000; fill-opacity:0.0;  stroke:#000000; stroke-width:0.000000; stroke-opacity:1;  stroke-linecap:round; stroke-linejoin:round;">
<svg:g>
</svg:g>
<svg:g style="fill:#C83434; fill-opacity:0.0;  stroke:#C83434; stroke-width:0.000000; stroke-opacity:1;  stroke-linecap:round; stroke-linejoin:round;">
</svg:g>
<svg:g style="fill:#C83434; fill-opacity:1.0;  stroke:#C83434; stroke-width:1.000000; stroke-opacity:1;  stroke-linecap:round; stroke-linejoin:round;">
<svg:circle cx="49500000.000000" cy="49500000.000000" r="125000.000000"/> 
</svg:g>
<svg:g style="fill:#C83434; fill-opacity:1.0;  stroke:#C83434; stroke-width:21200.000000; stroke-opacity:1;  stroke-linecap:round; stroke-linejoin:round;">
</svg:g>
<svg:g style="fill:#C83434; fill-opacity:1.0;  stroke:#C83434; stroke-width:1.000000; stroke-opacity:1;  stroke-linecap:round; stroke-linejoin:round;">
<svg:circle cx="50000000.000000" cy="49500000.000000" r="125000.000000"/> 
</svg:g>
<svg:g style="fill:#C83434; fill-opacity:1.0;  stroke:#C83434; stroke-width:21200.000000; stroke-opacity:1;  stroke-linecap:round; stroke-linejoin:round;">
</svg:g>
<svg:g style="fill:#C83434; fill-opacity:1.0;  stroke:#C83434; stroke-width:1.000000; stroke-opacity:1;  stroke-linecap:round; stroke-linejoin:round;">
<svg:circle cx="50500000.000000" cy="49500000.000000" r="125000.000000"/> 
</svg:g>
<svg:g style="fill:#C83434; fill-opacity:1.0;  stroke:#C83434; stroke-width:21200.000000; stroke-opacity:1;  stroke-linecap:round; stroke-linejoin:round;">
</svg:g>
<svg:g style="fill:#C83434; fill-opacity:1.0;  stroke:#C83434; stroke-width:1.000000; stroke-opacity:1;  stroke-linecap:round; stroke-linejoin:round;">
<svg:circle cx="49500000.000000" cy="50000000.000000" r="125000.000000"/> 
</svg:g>
<svg:g style="fill:#C83434; fill-opacity:1.0;  stroke:#C83434; stroke-width:21200.000000; stroke-opacity:1;  stroke-linecap:round; stroke-linejoin:round;">
</svg:g>
<svg:g style="fill:#C83434; fill-opacity:1.0;  stroke:#C83434; stroke-width:1.000000; stroke-opacity:1;  stroke-linecap:round; stroke-linejoin:round;">
<svg:circle cx="50000000.000000" cy="50000000.000000" r="125000.000000"/> 
</svg:g>
<svg:g style="fill:#C83434; fill-opacity:1.0;  stroke:#C83434; stroke-width:21200.000000; stroke-opacity:1;  stroke-linecap:round; stroke-linejoin:round;">
</svg:g>
<svg:g style="fill:#C83434; fill-opacity:1.0;  stroke:#C83434; stroke-width:1.000000; stroke-opacity:1;  stroke-linecap:round; stroke-linejoin:round;">
<svg:circle cx="50500000.000000" cy="50000000.000000" r="125000.000000"/> 
</svg:g>
<svg:g style="fill:#C83434; fill-opacity:1.0;  stroke:#C83434; stroke-width:21200.000000; stroke-opacity:1;  stroke-linecap:round; stroke-linejoin:round;">
</svg:g>
<svg:g style="fill:#C83434; fill-opacity:1.0;  stroke:#C83434; stroke-width:1.000000; stroke-opacity:1;  stroke-linecap:round; stroke-linejoin:round;">
<svg:circle cx="49500000.000000" cy="50500000.000000" r="125000.000000"/> 
</svg:g>
<svg:g style="fill:#C83434; fill-opacity:1.0;  stroke:#C83434; stroke-width:21200.000000; stroke-opacity:1;  stroke-linecap:round; stroke-linejoin:round;">
</svg:g>
<svg:g style="fill:#C83434; fill-opacity:1.0;  stroke:#C83434; stroke-width:1.000000; stroke-opacity:1;  stroke-linecap:round; stroke-linejoin:round;">
<svg:circle cx="50000000.000000" cy="50500000.000000" r="125000.000000"/> 
</svg:g>
<svg:g style="fill:#C83434; fill-opacity:1.0;  stroke:#C83434; stroke-width:21200.000000; stroke-opacity:1;  stroke-linecap:round; stroke-linejoin:round;">
</svg:g>
<svg:g style="fill:#C83434; fill-opacity:1.0;  stroke:#C83434; stroke-width:1.000000; stroke-opacity:1;  stroke-linecap:round; stroke-linejoin:round;">
<svg:circle cx="50500000.000000" cy="50500000.000000" r="125000.000000"/> 
</svg:g>
<svg:g style="fill:#C83434; fill-opacity:1.0;  stroke:#C83434; stroke-width:21200.000000; stroke-opacity:1;  stroke-linecap:round; stroke-linejoin:round;">
</svg:g>
<svg:g>
</svg:g>
<svg:g>
</svg:g>
<svg:g>
</svg:g>
</svg:g>
<svg:g style="fill:#FFFFFF; fill-opacity:1.0;  stroke:#FFFFFF; stroke-width:21200.000000; stroke-opacity:1;  stroke-linecap:round; stroke-linejoin:round;">
</svg:g>
<svg:g style="fill:#000000; fill-opacity:1.0;  stroke:#000000; stroke-width:21200.000000; stroke-opacity:1;  stroke-linecap:round; stroke-linejoin:round;">
<svg:g>
</svg:g>
<svg:g>
</svg:g>
<svg:g>
</svg:g>
<svg:g>
</svg:g>
</svg:g> 
</svg:g></svg>
