<?xml version='1.0' encoding='ASCII' standalone='yes'?>
<svg xmlns:svg="http://www.w3.org/2000/svg" xmlns="http://www.w3.org/2000/svg" xmlns:xlink="http://www.w3.org/1999/xlink" version="1.1" width="9.999980cm" height="9.999980cm" viewBox="0 0 99999800 99999800">
<title>SVG Picture created as kicadBoard-B_Cu.svg date 2022/11/16 11:19:39 </title>
  <desc>Picture generated by PCBNEW </desc>
<g style="fill:#000000; fill-opacity:1.000000;stroke:#000000; stroke-opacity:1.000000; stroke-linecap:round; stroke-linejoin:round;" transform="translate(0 0) scale(1 1)">
</g>
<g style="fill:#000000; fill-opacity:0.0;  stroke:#000000; stroke-width:0.000000; stroke-opacity:1;  stroke-linecap:round; stroke-linejoin:round;">
<g>
</g>
<g>
</g>
<g>
</g>
<g>
</g>
</g>
<g style="fill:#FFFFFF; fill-opacity:0.0;  stroke:#FFFFFF; stroke-width:0.000000; stroke-opacity:1;  stroke-linecap:round; stroke-linejoin:round;">
</g>
<g style="fill:#000000; fill-opacity:0.0;  stroke:#000000; stroke-width:0.000000; stroke-opacity:1;  stroke-linecap:round; stroke-linejoin:round;">
<g>
</g>
<g>
</g>
<g>
</g>
<g>
</g>
</g> 
<svg:g><svg:title>SVG Picture created as kicadBoard-B_Adhesive.svg date 2022/11/16 11:19:39 </svg:title>
  <svg:desc>Picture generated by PCBNEW </svg:desc>
<svg:g style="fill:#000000; fill-opacity:1.000000;stroke:#000000; stroke-opacity:1.000000; stroke-linecap:round; stroke-linejoin:round;" transform="translate(0 0) scale(1 1)">
</svg:g>
<svg:g style="fill:#000000; fill-opacity:0.0;  stroke:#000000; stroke-width:0.000000; stroke-opacity:1;  stroke-linecap:round; stroke-linejoin:round;">
<svg:g>
</svg:g>
<svg:g>
</svg:g>
<svg:g>
</svg:g>
<svg:g>
</svg:g>
</svg:g>
<svg:g style="fill:#000000; fill-opacity:0.0;  stroke:#000000; stroke-width:0.000000; stroke-opacity:1;  stroke-linecap:round; stroke-linejoin:round;">
<svg:g>
</svg:g>
<svg:g>
</svg:g>
<svg:g>
</svg:g>
<svg:g>
</svg:g>
</svg:g> 
</svg:g><svg:g><svg:title>SVG Picture created as kicadBoard-B_Courtyard.svg date 2022/11/16 11:19:39 </svg:title>
  <svg:desc>Picture generated by PCBNEW </svg:desc>
<svg:g style="fill:#000000; fill-opacity:1.000000;stroke:#000000; stroke-opacity:1.000000; stroke-linecap:round; stroke-linejoin:round;" transform="translate(0 0) scale(1 1)">
</svg:g>
<svg:g style="fill:#000000; fill-opacity:0.0;  stroke:#000000; stroke-width:0.000000; stroke-opacity:1;  stroke-linecap:round; stroke-linejoin:round;">
<svg:g>
</svg:g>
<svg:g>
</svg:g>
<svg:g>
</svg:g>
<svg:g>
</svg:g>
</svg:g>
<svg:g style="fill:#000000; fill-opacity:0.0;  stroke:#000000; stroke-width:0.000000; stroke-opacity:1;  stroke-linecap:round; stroke-linejoin:round;">
<svg:g>
</svg:g>
<svg:g>
</svg:g>
<svg:g>
</svg:g>
<svg:g>
</svg:g>
</svg:g> 
</svg:g><svg:g><svg:title>SVG Picture created as kicadBoard-B_Fab.svg date 2022/11/16 11:19:39 </svg:title>
  <svg:desc>Picture generated by PCBNEW </svg:desc>
<svg:g style="fill:#000000; fill-opacity:1.000000;stroke:#000000; stroke-opacity:1.000000; stroke-linecap:round; stroke-linejoin:round;" transform="translate(0 0) scale(1 1)">
</svg:g>
<svg:g style="fill:#000000; fill-opacity:0.0;  stroke:#000000; stroke-width:0.000000; stroke-opacity:1;  stroke-linecap:round; stroke-linejoin:round;">
<svg:g>
</svg:g>
<svg:g>
</svg:g>
<svg:g>
</svg:g>
<svg:g>
</svg:g>
</svg:g>
<svg:g style="fill:#000000; fill-opacity:0.0;  stroke:#000000; stroke-width:0.000000; stroke-opacity:1;  stroke-linecap:round; stroke-linejoin:round;">
<svg:g>
</svg:g>
<svg:g>
</svg:g>
<svg:g>
</svg:g>
<svg:g>
</svg:g>
</svg:g> 
</svg:g><svg:g><svg:title>SVG Picture created as kicadBoard-B_Mask.svg date 2022/11/16 11:19:39 </svg:title>
  <svg:desc>Picture generated by PCBNEW </svg:desc>
<svg:g style="fill:#000000; fill-opacity:1.000000;stroke:#000000; stroke-opacity:1.000000; stroke-linecap:round; stroke-linejoin:round;" transform="translate(0 0) scale(1 1)">
</svg:g>
<svg:g style="fill:#000000; fill-opacity:0.0;  stroke:#000000; stroke-width:0.000000; stroke-opacity:1;  stroke-linecap:round; stroke-linejoin:round;">
<svg:g>
</svg:g>
<svg:g>
</svg:g>
<svg:g>
</svg:g>
<svg:g>
</svg:g>
</svg:g>
<svg:g style="fill:#000000; fill-opacity:0.0;  stroke:#000000; stroke-width:0.000000; stroke-opacity:1;  stroke-linecap:round; stroke-linejoin:round;">
<svg:g>
</svg:g>
<svg:g>
</svg:g>
<svg:g>
</svg:g>
<svg:g>
</svg:g>
</svg:g> 
</svg:g><svg:g><svg:title>SVG Picture created as kicadBoard-B_Paste.svg date 2022/11/16 11:19:39 </svg:title>
  <svg:desc>Picture generated by PCBNEW </svg:desc>
<svg:g style="fill:#000000; fill-opacity:1.000000;stroke:#000000; stroke-opacity:1.000000; stroke-linecap:round; stroke-linejoin:round;" transform="translate(0 0) scale(1 1)">
</svg:g>
<svg:g style="fill:#000000; fill-opacity:0.0;  stroke:#000000; stroke-width:0.000000; stroke-opacity:1;  stroke-linecap:round; stroke-linejoin:round;">
<svg:g>
</svg:g>
<svg:g>
</svg:g>
<svg:g>
</svg:g>
<svg:g>
</svg:g>
</svg:g>
<svg:g style="fill:#000000; fill-opacity:0.0;  stroke:#000000; stroke-width:0.000000; stroke-opacity:1;  stroke-linecap:round; stroke-linejoin:round;">
<svg:g>
</svg:g>
<svg:g>
</svg:g>
<svg:g>
</svg:g>
<svg:g>
</svg:g>
</svg:g> 
</svg:g><svg:g><svg:title>SVG Picture created as kicadBoard-B_Silkscreen.svg date 2022/11/16 11:19:39 </svg:title>
  <svg:desc>Picture generated by PCBNEW </svg:desc>
<svg:g style="fill:#000000; fill-opacity:1.000000;stroke:#000000; stroke-opacity:1.000000; stroke-linecap:round; stroke-linejoin:round;" transform="translate(0 0) scale(1 1)">
</svg:g>
<svg:g style="fill:#000000; fill-opacity:0.0;  stroke:#000000; stroke-width:0.000000; stroke-opacity:1;  stroke-linecap:round; stroke-linejoin:round;">
<svg:g>
</svg:g>
<svg:g>
</svg:g>
<svg:g>
</svg:g>
<svg:g>
</svg:g>
</svg:g>
<svg:g style="fill:#000000; fill-opacity:0.0;  stroke:#000000; stroke-width:0.000000; stroke-opacity:1;  stroke-linecap:round; stroke-linejoin:round;">
<svg:g>
</svg:g>
<svg:g>
</svg:g>
<svg:g>
</svg:g>
<svg:g>
</svg:g>
</svg:g> 
</svg:g><svg:g><svg:title>SVG Picture created as kicadBoard-Edge_Cuts.svg date 2022/11/16 11:19:39 </svg:title>
  <svg:desc>Picture generated by PCBNEW </svg:desc>
<svg:g style="fill:#000000; fill-opacity:1.000000;stroke:#000000; stroke-opacity:1.000000; stroke-linecap:round; stroke-linejoin:round;" transform="translate(0 0) scale(1 1)">
</svg:g>
<svg:g style="fill:#000000; fill-opacity:0.0;  stroke:#000000; stroke-width:0.000000; stroke-opacity:1;  stroke-linecap:round; stroke-linejoin:round;">
<svg:g>
</svg:g>
<svg:g>
</svg:g>
<svg:g>
</svg:g>
<svg:g>
</svg:g>
</svg:g> 
</svg:g><svg:g><svg:title>SVG Picture created as kicadBoard-F_Adhesive.svg date 2022/11/16 11:19:39 </svg:title>
  <svg:desc>Picture generated by PCBNEW </svg:desc>
<svg:g style="fill:#000000; fill-opacity:1.000000;stroke:#000000; stroke-opacity:1.000000; stroke-linecap:round; stroke-linejoin:round;" transform="translate(0 0) scale(1 1)">
</svg:g>
<svg:g style="fill:#000000; fill-opacity:0.0;  stroke:#000000; stroke-width:0.000000; stroke-opacity:1;  stroke-linecap:round; stroke-linejoin:round;">
<svg:g>
</svg:g>
<svg:g>
</svg:g>
<svg:g>
</svg:g>
<svg:g>
</svg:g>
</svg:g>
<svg:g style="fill:#000000; fill-opacity:0.0;  stroke:#000000; stroke-width:0.000000; stroke-opacity:1;  stroke-linecap:round; stroke-linejoin:round;">
<svg:g>
</svg:g>
<svg:g>
</svg:g>
<svg:g>
</svg:g>
<svg:g>
</svg:g>
</svg:g> 
</svg:g><svg:g><svg:title>SVG Picture created as kicadBoard-F_Courtyard.svg date 2022/11/16 11:19:39 </svg:title>
  <svg:desc>Picture generated by PCBNEW </svg:desc>
<svg:g style="fill:#000000; fill-opacity:1.000000;stroke:#000000; stroke-opacity:1.000000; stroke-linecap:round; stroke-linejoin:round;" transform="translate(0 0) scale(1 1)">
</svg:g>
<svg:g style="fill:#000000; fill-opacity:0.0;  stroke:#000000; stroke-width:0.000000; stroke-opacity:1;  stroke-linecap:round; stroke-linejoin:round;">
</svg:g>
<svg:g style="fill:#FF26E2; fill-opacity:0.0;  stroke:#FF26E2; stroke-width:0.000000; stroke-opacity:1;  stroke-linecap:round; stroke-linejoin:round;">
</svg:g>
<svg:g style="fill:#FF26E2; fill-opacity:0.0;  stroke:#FF26E2; stroke-width:50000.000000; stroke-opacity:1;  stroke-linecap:round; stroke-linejoin:round;">
<svg:path d="M53950000 48950000 L53950000 51050000 "/>
<svg:path d="M47100000 48950000 L46050000 48950000 "/>
<svg:path d="M47100000 51050000 L47100000 51750000 "/>
<svg:path d="M52900000 51050000 L52900000 52900000 "/>
<svg:path d="M46050000 51050000 L47100000 51050000 "/>
<svg:path d="M47100000 48250000 L47100000 48950000 "/>
<svg:path d="M46050000 48950000 L46050000 51050000 "/>
<svg:path d="M53950000 51050000 L52900000 51050000 "/>
<svg:path d="M47100000 48250000 L48250000 47100000 "/>
<svg:path d="M52900000 47100000 L52900000 48950000 "/>
<svg:path d="M47100000 51750000 L48250000 52900000 "/>
<svg:path d="M52900000 48950000 L53950000 48950000 "/>
<svg:path d="M48250000 52900000 L52900000 52900000 "/>
<svg:path d="M48250000 47100000 L52900000 47100000 "/>
<svg:g>
</svg:g>
<svg:g>
</svg:g>
<svg:g>
</svg:g>
<svg:g>
</svg:g>
</svg:g>
<svg:g style="fill:#000000; fill-opacity:0.0;  stroke:#000000; stroke-width:50000.000000; stroke-opacity:1;  stroke-linecap:round; stroke-linejoin:round;">
<svg:g>
</svg:g>
<svg:g>
</svg:g>
<svg:g>
</svg:g>
<svg:g>
</svg:g>
</svg:g> 
</svg:g><svg:g><svg:title>SVG Picture created as kicadBoard-F_Fab.svg date 2022/11/16 11:19:39 </svg:title>
  <svg:desc>Picture generated by PCBNEW </svg:desc>
<svg:g style="fill:#000000; fill-opacity:1.000000;stroke:#000000; stroke-opacity:1.000000; stroke-linecap:round; stroke-linejoin:round;" transform="translate(0 0) scale(1 1)">
</svg:g>
<svg:g style="fill:#000000; fill-opacity:0.0;  stroke:#000000; stroke-width:0.000000; stroke-opacity:1;  stroke-linecap:round; stroke-linejoin:round;">
</svg:g>
<svg:g style="fill:#AFAFAF; fill-opacity:0.0;  stroke:#AFAFAF; stroke-width:0.000000; stroke-opacity:1;  stroke-linecap:round; stroke-linejoin:round;">
</svg:g>
<svg:g style="fill:#AFAFAF; fill-opacity:0.0;  stroke:#AFAFAF; stroke-width:150000.000000; stroke-opacity:1;  stroke-linecap:round; stroke-linejoin:round;">
<svg:text x="50000000.000000" y="54200000.000000" textLength="9575952.000000" font-size="1333333.000000" lengthAdjust="spacingAndGlyphs" text-anchor="middle" opacity="0">CP_Elec_5x3</svg:text>
<svg:g class="stroked-text"><svg:desc>CP_Elec_5x3</svg:desc>
<svg:path d="M46119047 54057142 L46071428 54104761 L45928571 54152380 L45833333 54152380 L45690476 54104761 L45595238 54009523 L45547619 53914285 L45500000 53723809 L45500000 53580952 L45547619 53390476 L45595238 53295238 L45690476 53200000 L45833333 53152380 L45928571 53152380 L46071428 53200000 L46119047 53247619 "/>
<svg:path d="M46547619 54152380 L46547619 53152380 L46928571 53152380 L47023809 53200000 L47071428 53247619 L47119047 53342857 L47119047 53485714 L47071428 53580952 L47023809 53628571 L46928571 53676190 L46547619 53676190 "/>
<svg:path d="M47309523 54247619 L48071428 54247619 "/>
<svg:path d="M48309523 53628571 L48642857 53628571 "/>
<svg:path d="M48785714 54152380 L48309523 54152380 L48309523 53152380 L48785714 53152380 "/>
<svg:path d="M49357142 54152380 L49261904 54104761 L49214285 54009523 L49214285 53152380 "/>
<svg:path d="M50119047 54104761 L50023809 54152380 L49833333 54152380 L49738095 54104761 L49690476 54009523 L49690476 53628571 L49738095 53533333 L49833333 53485714 L50023809 53485714 L50119047 53533333 L50166666 53628571 L50166666 53723809 L49690476 53819047 "/>
<svg:path d="M51023809 54104761 L50928571 54152380 L50738095 54152380 L50642857 54104761 L50595238 54057142 L50547619 53961904 L50547619 53676190 L50595238 53580952 L50642857 53533333 L50738095 53485714 L50928571 53485714 L51023809 53533333 "/>
<svg:path d="M51214285 54247619 L51976190 54247619 "/>
<svg:path d="M52690476 53152380 L52214285 53152380 L52166666 53628571 L52214285 53580952 L52309523 53533333 L52547619 53533333 L52642857 53580952 L52690476 53628571 L52738095 53723809 L52738095 53961904 L52690476 54057142 L52642857 54104761 L52547619 54152380 L52309523 54152380 L52214285 54104761 L52166666 54057142 "/>
<svg:path d="M53071428 54152380 L53595238 53485714 "/>
<svg:path d="M53071428 53485714 L53595238 54152380 "/>
<svg:path d="M53880952 53152380 L54500000 53152380 L54166666 53533333 L54309523 53533333 L54404761 53580952 L54452380 53628571 L54500000 53723809 L54500000 53961904 L54452380 54057142 L54404761 54104761 L54309523 54152380 L54023809 54152380 L53928571 54104761 L53880952 54057142 "/>
</svg:g><svg:text x="50000000.000000" y="50500000.000000" textLength="21575952.000000" font-size="1333333.000000" lengthAdjust="spacingAndGlyphs" text-anchor="middle" opacity="0">FZKCAPACITORSMCPELEC5X3</svg:text>
<svg:g class="stroked-text"><svg:desc>FZKCAPACITORSMCPELEC5X3</svg:desc>
<svg:path d="M39880952 49928571 L39547619 49928571 "/>
<svg:path d="M39547619 50452380 L39547619 49452380 L40023809 49452380 "/>
<svg:path d="M40309523 49452380 L40976190 49452380 L40309523 50452380 L40976190 50452380 "/>
<svg:path d="M41357142 50452380 L41357142 49452380 "/>
<svg:path d="M41928571 50452380 L41500000 49880952 "/>
<svg:path d="M41928571 49452380 L41357142 50023809 "/>
<svg:path d="M42928571 50357142 L42880952 50404761 L42738095 50452380 L42642857 50452380 L42500000 50404761 L42404761 50309523 L42357142 50214285 L42309523 50023809 L42309523 49880952 L42357142 49690476 L42404761 49595238 L42500000 49500000 L42642857 49452380 L42738095 49452380 L42880952 49500000 L42928571 49547619 "/>
<svg:path d="M43309523 50166666 L43785714 50166666 "/>
<svg:path d="M43214285 50452380 L43547619 49452380 L43880952 50452380 "/>
<svg:path d="M44214285 50452380 L44214285 49452380 L44595238 49452380 L44690476 49500000 L44738095 49547619 L44785714 49642857 L44785714 49785714 L44738095 49880952 L44690476 49928571 L44595238 49976190 L44214285 49976190 "/>
<svg:path d="M45166666 50166666 L45642857 50166666 "/>
<svg:path d="M45071428 50452380 L45404761 49452380 L45738095 50452380 "/>
<svg:path d="M46642857 50357142 L46595238 50404761 L46452380 50452380 L46357142 50452380 L46214285 50404761 L46119047 50309523 L46071428 50214285 L46023809 50023809 L46023809 49880952 L46071428 49690476 L46119047 49595238 L46214285 49500000 L46357142 49452380 L46452380 49452380 L46595238 49500000 L46642857 49547619 "/>
<svg:path d="M47071428 50452380 L47071428 49452380 "/>
<svg:path d="M47404761 49452380 L47976190 49452380 "/>
<svg:path d="M47690476 50452380 L47690476 49452380 "/>
<svg:path d="M48500000 49452380 L48690476 49452380 L48785714 49500000 L48880952 49595238 L48928571 49785714 L48928571 50119047 L48880952 50309523 L48785714 50404761 L48690476 50452380 L48500000 50452380 L48404761 50404761 L48309523 50309523 L48261904 50119047 L48261904 49785714 L48309523 49595238 L48404761 49500000 L48500000 49452380 "/>
<svg:path d="M49928571 50452380 L49595238 49976190 "/>
<svg:path d="M49357142 50452380 L49357142 49452380 L49738095 49452380 L49833333 49500000 L49880952 49547619 L49928571 49642857 L49928571 49785714 L49880952 49880952 L49833333 49928571 L49738095 49976190 L49357142 49976190 "/>
<svg:path d="M50309523 50404761 L50452380 50452380 L50690476 50452380 L50785714 50404761 L50833333 50357142 L50880952 50261904 L50880952 50166666 L50833333 50071428 L50785714 50023809 L50690476 49976190 L50499999 49928571 L50404761 49880952 L50357142 49833333 L50309523 49738095 L50309523 49642857 L50357142 49547619 L50404761 49500000 L50499999 49452380 L50738095 49452380 L50880952 49500000 "/>
<svg:path d="M51309523 50452380 L51309523 49452380 L51642857 50166666 L51976190 49452380 L51976190 50452380 "/>
<svg:path d="M53023809 50357142 L52976190 50404761 L52833333 50452380 L52738095 50452380 L52595238 50404761 L52499999 50309523 L52452380 50214285 L52404761 50023809 L52404761 49880952 L52452380 49690476 L52499999 49595238 L52595238 49500000 L52738095 49452380 L52833333 49452380 L52976190 49500000 L53023809 49547619 "/>
<svg:path d="M53452380 50452380 L53452380 49452380 L53833333 49452380 L53928571 49500000 L53976190 49547619 L54023809 49642857 L54023809 49785714 L53976190 49880952 L53928571 49928571 L53833333 49976190 L53452380 49976190 "/>
<svg:path d="M54452380 49928571 L54785714 49928571 "/>
<svg:path d="M54928571 50452380 L54452380 50452380 L54452380 49452380 L54928571 49452380 "/>
<svg:path d="M55833333 50452380 L55357142 50452380 L55357142 49452380 "/>
<svg:path d="M56166666 49928571 L56500000 49928571 "/>
<svg:path d="M56642857 50452380 L56166666 50452380 L56166666 49452380 L56642857 49452380 "/>
<svg:path d="M57642857 50357142 L57595238 50404761 L57452380 50452380 L57357142 50452380 L57214285 50404761 L57119047 50309523 L57071428 50214285 L57023809 50023809 L57023809 49880952 L57071428 49690476 L57119047 49595238 L57214285 49500000 L57357142 49452380 L57452380 49452380 L57595238 49500000 L57642857 49547619 "/>
<svg:path d="M58547619 49452380 L58071428 49452380 L58023809 49928571 L58071428 49880952 L58166666 49833333 L58404761 49833333 L58500000 49880952 L58547619 49928571 L58595238 50023809 L58595238 50261904 L58547619 50357142 L58500000 50404761 L58404761 50452380 L58166666 50452380 L58071428 50404761 L58023809 50357142 "/>
<svg:path d="M58928571 49452380 L59595238 50452380 "/>
<svg:path d="M59595238 49452380 L58928571 50452380 "/>
<svg:path d="M59880952 49452380 L60499999 49452380 L60166666 49833333 L60309523 49833333 L60404761 49880952 L60452380 49928571 L60499999 50023809 L60499999 50261904 L60452380 50357142 L60404761 50404761 L60309523 50452380 L60023809 50452380 L59928571 50404761 L59880952 50357142 "/>
</svg:g></svg:g>
<svg:g style="fill:#AFAFAF; fill-opacity:0.0;  stroke:#AFAFAF; stroke-width:100000.000000; stroke-opacity:1;  stroke-linecap:round; stroke-linejoin:round;">
<svg:path d="M52650000 47350000 L52650000 52650000 "/>
<svg:path d="M48350000 52650000 L52650000 52650000 "/>
<svg:path d="M47350000 48350000 L47350000 51650000 "/>
<svg:path d="M47350000 51650000 L48350000 52650000 "/>
<svg:path d="M47966044 48800000 L48466044 48800000 "/>
<svg:path d="M47350000 48350000 L48350000 47350000 "/>
<svg:path d="M48216044 48550000 L48216044 49050000 "/>
<svg:path d="M48350000 47350000 L52650000 47350000 "/>
<svg:circle cx="50000000.000000" cy="50000000.000000" r="2500000.000000"/> 
<svg:g>
</svg:g>
<svg:g>
</svg:g>
<svg:g>
</svg:g>
<svg:g>
</svg:g>
</svg:g>
<svg:g style="fill:#000000; fill-opacity:0.0;  stroke:#000000; stroke-width:100000.000000; stroke-opacity:1;  stroke-linecap:round; stroke-linejoin:round;">
<svg:g>
</svg:g>
<svg:g>
</svg:g>
<svg:g>
</svg:g>
<svg:g>
</svg:g>
</svg:g> 
</svg:g><svg:g><svg:title>SVG Picture created as kicadBoard-F_Mask.svg date 2022/11/16 11:19:39 </svg:title>
  <svg:desc>Picture generated by PCBNEW </svg:desc>
<svg:g style="fill:#000000; fill-opacity:1.000000;stroke:#000000; stroke-opacity:1.000000; stroke-linecap:round; stroke-linejoin:round;" transform="translate(0 0) scale(1 1)">
</svg:g>
<svg:g style="fill:#000000; fill-opacity:0.0;  stroke:#000000; stroke-width:0.000000; stroke-opacity:1;  stroke-linecap:round; stroke-linejoin:round;">
<svg:g>
</svg:g>
<svg:g style="fill:#000000; fill-opacity:0.0;  stroke:#000000; stroke-width:1.000000; stroke-opacity:1;  stroke-linecap:round; stroke-linejoin:round;">
</svg:g>
<svg:g style="fill:#000000; fill-opacity:1.0;  stroke:#000000; stroke-width:1.000000; stroke-opacity:1;  stroke-linecap:round; stroke-linejoin:round;">
<svg:path style="fill:#000000; fill-opacity:1.0;  stroke:#000000; stroke-width:1.000000; stroke-opacity:1;  stroke-linecap:round; stroke-linejoin:round;fill-rule:evenodd;" d="M 46300000.000000,49450000.000000 46319030.000000,49354329.000000 46373223.000000,49273223.000000 46454329.000000,49219030.000000 46550000.000000,49200000.000000 49050000.000000,49200000.000000 49145671.000000,49219030.000000 49226777.000000,49273223.000000 49280970.000000,49354329.000000 49300000.000000,49450000.000000 49300000.000000,50550000.000000 49280970.000000,50645671.000000 49226777.000000,50726777.000000 49145671.000000,50780970.000000 49050000.000000,50800000.000000 46550000.000000,50800000.000000 46454329.000000,50780970.000000 46373223.000000,50726777.000000 46319030.000000,50645671.000000 46300000.000000,50550000.000000 Z"/> 
<svg:path style="fill:#000000; fill-opacity:1.0;  stroke:#000000; stroke-width:1.000000; stroke-opacity:1;  stroke-linecap:round; stroke-linejoin:round;fill-rule:evenodd;" d="M 50700000.000000,49450000.000000 50719030.000000,49354329.000000 50773223.000000,49273223.000000 50854329.000000,49219030.000000 50950000.000000,49200000.000000 53450000.000000,49200000.000000 53545671.000000,49219030.000000 53626777.000000,49273223.000000 53680970.000000,49354329.000000 53700000.000000,49450000.000000 53700000.000000,50550000.000000 53680970.000000,50645671.000000 53626777.000000,50726777.000000 53545671.000000,50780970.000000 53450000.000000,50800000.000000 50950000.000000,50800000.000000 50854329.000000,50780970.000000 50773223.000000,50726777.000000 50719030.000000,50645671.000000 50700000.000000,50550000.000000 Z"/> 
</svg:g>
<svg:g>
</svg:g>
<svg:g>
</svg:g>
<svg:g>
</svg:g>
</svg:g>
<svg:g style="fill:#000000; fill-opacity:1.0;  stroke:#000000; stroke-width:1.000000; stroke-opacity:1;  stroke-linecap:round; stroke-linejoin:round;">
<svg:g>
</svg:g>
<svg:g>
</svg:g>
<svg:g>
</svg:g>
<svg:g>
</svg:g>
</svg:g> 
</svg:g><svg:g><svg:title>SVG Picture created as kicadBoard-F_Paste.svg date 2022/11/16 11:19:39 </svg:title>
  <svg:desc>Picture generated by PCBNEW </svg:desc>
<svg:g style="fill:#000000; fill-opacity:1.000000;stroke:#000000; stroke-opacity:1.000000; stroke-linecap:round; stroke-linejoin:round;" transform="translate(0 0) scale(1 1)">
</svg:g>
<svg:g style="fill:#000000; fill-opacity:0.0;  stroke:#000000; stroke-width:0.000000; stroke-opacity:1;  stroke-linecap:round; stroke-linejoin:round;">
<svg:g>
</svg:g>
<svg:g style="fill:#000000; fill-opacity:0.0;  stroke:#000000; stroke-width:1.000000; stroke-opacity:1;  stroke-linecap:round; stroke-linejoin:round;">
</svg:g>
<svg:g style="fill:#000000; fill-opacity:1.0;  stroke:#000000; stroke-width:1.000000; stroke-opacity:1;  stroke-linecap:round; stroke-linejoin:round;">
<svg:path style="fill:#000000; fill-opacity:1.0;  stroke:#000000; stroke-width:1.000000; stroke-opacity:1;  stroke-linecap:round; stroke-linejoin:round;fill-rule:evenodd;" d="M 46300000.000000,49450000.000000 46319030.000000,49354329.000000 46373223.000000,49273223.000000 46454329.000000,49219030.000000 46550000.000000,49200000.000000 49050000.000000,49200000.000000 49145671.000000,49219030.000000 49226777.000000,49273223.000000 49280970.000000,49354329.000000 49300000.000000,49450000.000000 49300000.000000,50550000.000000 49280970.000000,50645671.000000 49226777.000000,50726777.000000 49145671.000000,50780970.000000 49050000.000000,50800000.000000 46550000.000000,50800000.000000 46454329.000000,50780970.000000 46373223.000000,50726777.000000 46319030.000000,50645671.000000 46300000.000000,50550000.000000 Z"/> 
<svg:path style="fill:#000000; fill-opacity:1.0;  stroke:#000000; stroke-width:1.000000; stroke-opacity:1;  stroke-linecap:round; stroke-linejoin:round;fill-rule:evenodd;" d="M 50700000.000000,49450000.000000 50719030.000000,49354329.000000 50773223.000000,49273223.000000 50854329.000000,49219030.000000 50950000.000000,49200000.000000 53450000.000000,49200000.000000 53545671.000000,49219030.000000 53626777.000000,49273223.000000 53680970.000000,49354329.000000 53700000.000000,49450000.000000 53700000.000000,50550000.000000 53680970.000000,50645671.000000 53626777.000000,50726777.000000 53545671.000000,50780970.000000 53450000.000000,50800000.000000 50950000.000000,50800000.000000 50854329.000000,50780970.000000 50773223.000000,50726777.000000 50719030.000000,50645671.000000 50700000.000000,50550000.000000 Z"/> 
</svg:g>
<svg:g>
</svg:g>
<svg:g>
</svg:g>
<svg:g>
</svg:g>
</svg:g>
<svg:g style="fill:#000000; fill-opacity:1.0;  stroke:#000000; stroke-width:1.000000; stroke-opacity:1;  stroke-linecap:round; stroke-linejoin:round;">
<svg:g>
</svg:g>
<svg:g>
</svg:g>
<svg:g>
</svg:g>
<svg:g>
</svg:g>
</svg:g> 
</svg:g><svg:g><svg:title>SVG Picture created as kicadBoard-F_Silkscreen.svg date 2022/11/16 11:19:39 </svg:title>
  <svg:desc>Picture generated by PCBNEW </svg:desc>
<svg:g style="fill:#000000; fill-opacity:1.000000;stroke:#000000; stroke-opacity:1.000000; stroke-linecap:round; stroke-linejoin:round;" transform="translate(0 0) scale(1 1)">
</svg:g>
<svg:g style="fill:#000000; fill-opacity:0.0;  stroke:#000000; stroke-width:0.000000; stroke-opacity:1;  stroke-linecap:round; stroke-linejoin:round;">
</svg:g>
<svg:g style="fill:#F2EDA1; fill-opacity:0.0;  stroke:#F2EDA1; stroke-width:0.000000; stroke-opacity:1;  stroke-linecap:round; stroke-linejoin:round;">
</svg:g>
<svg:g style="fill:#F2EDA1; fill-opacity:0.0;  stroke:#F2EDA1; stroke-width:150000.000000; stroke-opacity:1;  stroke-linecap:round; stroke-linejoin:round;">
<svg:text x="50000000.000000" y="46800000.000000" textLength="21380953.000000" font-size="1333333.000000" lengthAdjust="spacingAndGlyphs" text-anchor="middle" opacity="0">FZKCAPACITORSMCPELEC5X3</svg:text>
<svg:g class="stroked-text"><svg:desc>FZKCAPACITORSMCPELEC5X3</svg:desc>
<svg:path d="M39880952 46228571 L39547619 46228571 "/>
<svg:path d="M39547619 46752380 L39547619 45752380 L40023809 45752380 "/>
<svg:path d="M40309523 45752380 L40976190 45752380 L40309523 46752380 L40976190 46752380 "/>
<svg:path d="M41357142 46752380 L41357142 45752380 "/>
<svg:path d="M41928571 46752380 L41500000 46180952 "/>
<svg:path d="M41928571 45752380 L41357142 46323809 "/>
<svg:path d="M42928571 46657142 L42880952 46704761 L42738095 46752380 L42642857 46752380 L42500000 46704761 L42404761 46609523 L42357142 46514285 L42309523 46323809 L42309523 46180952 L42357142 45990476 L42404761 45895238 L42500000 45800000 L42642857 45752380 L42738095 45752380 L42880952 45800000 L42928571 45847619 "/>
<svg:path d="M43309523 46466666 L43785714 46466666 "/>
<svg:path d="M43214285 46752380 L43547619 45752380 L43880952 46752380 "/>
<svg:path d="M44214285 46752380 L44214285 45752380 L44595238 45752380 L44690476 45800000 L44738095 45847619 L44785714 45942857 L44785714 46085714 L44738095 46180952 L44690476 46228571 L44595238 46276190 L44214285 46276190 "/>
<svg:path d="M45166666 46466666 L45642857 46466666 "/>
<svg:path d="M45071428 46752380 L45404761 45752380 L45738095 46752380 "/>
<svg:path d="M46642857 46657142 L46595238 46704761 L46452380 46752380 L46357142 46752380 L46214285 46704761 L46119047 46609523 L46071428 46514285 L46023809 46323809 L46023809 46180952 L46071428 45990476 L46119047 45895238 L46214285 45800000 L46357142 45752380 L46452380 45752380 L46595238 45800000 L46642857 45847619 "/>
<svg:path d="M47071428 46752380 L47071428 45752380 "/>
<svg:path d="M47404761 45752380 L47976190 45752380 "/>
<svg:path d="M47690476 46752380 L47690476 45752380 "/>
<svg:path d="M48500000 45752380 L48690476 45752380 L48785714 45800000 L48880952 45895238 L48928571 46085714 L48928571 46419047 L48880952 46609523 L48785714 46704761 L48690476 46752380 L48500000 46752380 L48404761 46704761 L48309523 46609523 L48261904 46419047 L48261904 46085714 L48309523 45895238 L48404761 45800000 L48500000 45752380 "/>
<svg:path d="M49928571 46752380 L49595238 46276190 "/>
<svg:path d="M49357142 46752380 L49357142 45752380 L49738095 45752380 L49833333 45800000 L49880952 45847619 L49928571 45942857 L49928571 46085714 L49880952 46180952 L49833333 46228571 L49738095 46276190 L49357142 46276190 "/>
<svg:path d="M50309523 46704761 L50452380 46752380 L50690476 46752380 L50785714 46704761 L50833333 46657142 L50880952 46561904 L50880952 46466666 L50833333 46371428 L50785714 46323809 L50690476 46276190 L50499999 46228571 L50404761 46180952 L50357142 46133333 L50309523 46038095 L50309523 45942857 L50357142 45847619 L50404761 45800000 L50499999 45752380 L50738095 45752380 L50880952 45800000 "/>
<svg:path d="M51309523 46752380 L51309523 45752380 L51642857 46466666 L51976190 45752380 L51976190 46752380 "/>
<svg:path d="M53023809 46657142 L52976190 46704761 L52833333 46752380 L52738095 46752380 L52595238 46704761 L52499999 46609523 L52452380 46514285 L52404761 46323809 L52404761 46180952 L52452380 45990476 L52499999 45895238 L52595238 45800000 L52738095 45752380 L52833333 45752380 L52976190 45800000 L53023809 45847619 "/>
<svg:path d="M53452380 46752380 L53452380 45752380 L53833333 45752380 L53928571 45800000 L53976190 45847619 L54023809 45942857 L54023809 46085714 L53976190 46180952 L53928571 46228571 L53833333 46276190 L53452380 46276190 "/>
<svg:path d="M54452380 46228571 L54785714 46228571 "/>
<svg:path d="M54928571 46752380 L54452380 46752380 L54452380 45752380 L54928571 45752380 "/>
<svg:path d="M55833333 46752380 L55357142 46752380 L55357142 45752380 "/>
<svg:path d="M56166666 46228571 L56500000 46228571 "/>
<svg:path d="M56642857 46752380 L56166666 46752380 L56166666 45752380 L56642857 45752380 "/>
<svg:path d="M57642857 46657142 L57595238 46704761 L57452380 46752380 L57357142 46752380 L57214285 46704761 L57119047 46609523 L57071428 46514285 L57023809 46323809 L57023809 46180952 L57071428 45990476 L57119047 45895238 L57214285 45800000 L57357142 45752380 L57452380 45752380 L57595238 45800000 L57642857 45847619 "/>
<svg:path d="M58547619 45752380 L58071428 45752380 L58023809 46228571 L58071428 46180952 L58166666 46133333 L58404761 46133333 L58500000 46180952 L58547619 46228571 L58595238 46323809 L58595238 46561904 L58547619 46657142 L58500000 46704761 L58404761 46752380 L58166666 46752380 L58071428 46704761 L58023809 46657142 "/>
<svg:path d="M58928571 45752380 L59595238 46752380 "/>
<svg:path d="M59595238 45752380 L58928571 46752380 "/>
<svg:path d="M59880952 45752380 L60499999 45752380 L60166666 46133333 L60309523 46133333 L60404761 46180952 L60452380 46228571 L60499999 46323809 L60499999 46561904 L60452380 46657142 L60404761 46704761 L60309523 46752380 L60023809 46752380 L59928571 46704761 L59880952 46657142 "/>
</svg:g></svg:g>
<svg:g style="fill:#F2EDA1; fill-opacity:0.0;  stroke:#F2EDA1; stroke-width:120000.000000; stroke-opacity:1;  stroke-linecap:round; stroke-linejoin:round;">
<svg:path d="M47240000 51695563 L48304437 52760000 "/>
<svg:path d="M47240000 48304437 L47240000 48940000 "/>
<svg:path d="M52760000 52760000 L52760000 51060000 "/>
<svg:path d="M46375000 48315000 L47000000 48315000 "/>
<svg:path d="M48304437 47240000 L52760000 47240000 "/>
<svg:path d="M47240000 51695563 L47240000 51060000 "/>
<svg:path d="M48304437 52760000 L52760000 52760000 "/>
<svg:path d="M52760000 47240000 L52760000 48940000 "/>
<svg:path d="M46687500 48002500 L46687500 48627500 "/>
<svg:path d="M47240000 48304437 L48304437 47240000 "/>
<svg:g>
</svg:g>
<svg:g>
</svg:g>
<svg:g>
</svg:g>
<svg:g>
</svg:g>
</svg:g>
<svg:g style="fill:#000000; fill-opacity:0.0;  stroke:#000000; stroke-width:120000.000000; stroke-opacity:1;  stroke-linecap:round; stroke-linejoin:round;">
<svg:g>
</svg:g>
<svg:g>
</svg:g>
<svg:g>
</svg:g>
<svg:g>
</svg:g>
</svg:g> 
</svg:g><svg:g><svg:title>SVG Picture created as kicadBoard-Margin.svg date 2022/11/16 11:19:39 </svg:title>
  <svg:desc>Picture generated by PCBNEW </svg:desc>
<svg:g style="fill:#000000; fill-opacity:1.000000;stroke:#000000; stroke-opacity:1.000000; stroke-linecap:round; stroke-linejoin:round;" transform="translate(0 0) scale(1 1)">
</svg:g>
<svg:g style="fill:#000000; fill-opacity:0.0;  stroke:#000000; stroke-width:0.000000; stroke-opacity:1;  stroke-linecap:round; stroke-linejoin:round;">
<svg:g>
</svg:g>
<svg:g>
</svg:g>
<svg:g>
</svg:g>
<svg:g>
</svg:g>
</svg:g>
<svg:g style="fill:#000000; fill-opacity:0.0;  stroke:#000000; stroke-width:0.000000; stroke-opacity:1;  stroke-linecap:round; stroke-linejoin:round;">
<svg:g>
</svg:g>
<svg:g>
</svg:g>
<svg:g>
</svg:g>
<svg:g>
</svg:g>
</svg:g> 
</svg:g><svg:g><svg:title>SVG Picture created as kicadBoard-F_Cu.svg date 2022/11/16 11:19:39 </svg:title>
  <svg:desc>Picture generated by PCBNEW </svg:desc>
<svg:g style="fill:#000000; fill-opacity:1.000000;stroke:#000000; stroke-opacity:1.000000; stroke-linecap:round; stroke-linejoin:round;" transform="translate(0 0) scale(1 1)">
</svg:g>
<svg:g style="fill:#000000; fill-opacity:0.0;  stroke:#000000; stroke-width:0.000000; stroke-opacity:1;  stroke-linecap:round; stroke-linejoin:round;">
<svg:g>
</svg:g>
<svg:g style="fill:#C83434; fill-opacity:0.0;  stroke:#C83434; stroke-width:0.000000; stroke-opacity:1;  stroke-linecap:round; stroke-linejoin:round;">
</svg:g>
<svg:g style="fill:#C83434; fill-opacity:0.0;  stroke:#C83434; stroke-width:1.000000; stroke-opacity:1;  stroke-linecap:round; stroke-linejoin:round;">
</svg:g>
<svg:g style="fill:#C83434; fill-opacity:1.0;  stroke:#C83434; stroke-width:1.000000; stroke-opacity:1;  stroke-linecap:round; stroke-linejoin:round;">
<svg:path style="fill:#C83434; fill-opacity:1.0;  stroke:#C83434; stroke-width:1.000000; stroke-opacity:1;  stroke-linecap:round; stroke-linejoin:round;fill-rule:evenodd;" d="M 46300000.000000,49450000.000000 46319030.000000,49354329.000000 46373223.000000,49273223.000000 46454329.000000,49219030.000000 46550000.000000,49200000.000000 49050000.000000,49200000.000000 49145671.000000,49219030.000000 49226777.000000,49273223.000000 49280970.000000,49354329.000000 49300000.000000,49450000.000000 49300000.000000,50550000.000000 49280970.000000,50645671.000000 49226777.000000,50726777.000000 49145671.000000,50780970.000000 49050000.000000,50800000.000000 46550000.000000,50800000.000000 46454329.000000,50780970.000000 46373223.000000,50726777.000000 46319030.000000,50645671.000000 46300000.000000,50550000.000000 Z"/> 
<svg:path style="fill:#C83434; fill-opacity:1.0;  stroke:#C83434; stroke-width:1.000000; stroke-opacity:1;  stroke-linecap:round; stroke-linejoin:round;fill-rule:evenodd;" d="M 50700000.000000,49450000.000000 50719030.000000,49354329.000000 50773223.000000,49273223.000000 50854329.000000,49219030.000000 50950000.000000,49200000.000000 53450000.000000,49200000.000000 53545671.000000,49219030.000000 53626777.000000,49273223.000000 53680970.000000,49354329.000000 53700000.000000,49450000.000000 53700000.000000,50550000.000000 53680970.000000,50645671.000000 53626777.000000,50726777.000000 53545671.000000,50780970.000000 53450000.000000,50800000.000000 50950000.000000,50800000.000000 50854329.000000,50780970.000000 50773223.000000,50726777.000000 50719030.000000,50645671.000000 50700000.000000,50550000.000000 Z"/> 
</svg:g>
<svg:g>
</svg:g>
<svg:g>
</svg:g>
<svg:g>
</svg:g>
</svg:g>
<svg:g style="fill:#FFFFFF; fill-opacity:1.0;  stroke:#FFFFFF; stroke-width:1.000000; stroke-opacity:1;  stroke-linecap:round; stroke-linejoin:round;">
</svg:g>
<svg:g style="fill:#000000; fill-opacity:1.0;  stroke:#000000; stroke-width:1.000000; stroke-opacity:1;  stroke-linecap:round; stroke-linejoin:round;">
<svg:g>
</svg:g>
<svg:g>
</svg:g>
<svg:g>
</svg:g>
<svg:g>
</svg:g>
</svg:g> 
</svg:g></svg>
