<?xml version='1.0' encoding='ASCII' standalone='yes'?>
<svg xmlns:svg="http://www.w3.org/2000/svg" xmlns="http://www.w3.org/2000/svg" xmlns:xlink="http://www.w3.org/1999/xlink" version="1.1" width="9.999980cm" height="9.999980cm" viewBox="0 0 99999800 99999800">
<title>SVG Picture created as kicadBoard-B_Cu.svg date 2022/11/21 15:15:45 </title>
  <desc>Picture generated by PCBNEW </desc>
<g style="fill:#000000; fill-opacity:1.000000;stroke:#000000; stroke-opacity:1.000000; stroke-linecap:round; stroke-linejoin:round;" transform="translate(0 0) scale(1 1)">
</g>
<g style="fill:#000000; fill-opacity:0.0;  stroke:#000000; stroke-width:0.000000; stroke-opacity:1;  stroke-linecap:round; stroke-linejoin:round;">
<g>
</g>
<g style="fill:#4D7FC4; fill-opacity:0.0;  stroke:#4D7FC4; stroke-width:0.000000; stroke-opacity:1;  stroke-linecap:round; stroke-linejoin:round;">
</g>
<g style="fill:#4D7FC4; fill-opacity:0.0;  stroke:#4D7FC4; stroke-width:1.000000; stroke-opacity:1;  stroke-linecap:round; stroke-linejoin:round;">
</g>
<g style="fill:#4D7FC4; fill-opacity:1.0;  stroke:#4D7FC4; stroke-width:1.000000; stroke-opacity:1;  stroke-linecap:round; stroke-linejoin:round;">
<path style="fill:#4D7FC4; fill-opacity:1.0;  stroke:#4D7FC4; stroke-width:1.000000; stroke-opacity:1;  stroke-linecap:round; stroke-linejoin:round;fill-rule:evenodd;" d="M 49150000.000000,49275000.000000 49169030.000000,49179329.000000 49223223.000000,49098223.000000 49304329.000000,49044030.000000 49400000.000000,49025000.000000 50600000.000000,49025000.000000 50695671.000000,49044030.000000 50776777.000000,49098223.000000 50830970.000000,49179329.000000 50850000.000000,49275000.000000 50850000.000000,50725000.000000 50830970.000000,50820671.000000 50776777.000000,50901777.000000 50695671.000000,50955970.000000 50600000.000000,50975000.000000 49400000.000000,50975000.000000 49304329.000000,50955970.000000 49223223.000000,50901777.000000 49169030.000000,50820671.000000 49150000.000000,50725000.000000 Z"/> 
</g>
<g style="fill:#4D7FC4; fill-opacity:1.0;  stroke:#4D7FC4; stroke-width:1700000.000000; stroke-opacity:1;  stroke-linecap:round; stroke-linejoin:round;">
</g>
<g style="fill:#4D7FC4; fill-opacity:0.0;  stroke:#4D7FC4; stroke-width:1700000.000000; stroke-opacity:1;  stroke-linecap:round; stroke-linejoin:round;">
<path d="M52500000 49875000 L52500000 50125000 "/>
<path d="M55000000 49875000 L55000000 50125000 "/>
<path d="M57500000 49875000 L57500000 50125000 "/>
<path d="M60000000 49875000 L60000000 50125000 "/>
<path d="M62500000 49875000 L62500000 50125000 "/>
<path d="M65000000 49875000 L65000000 50125000 "/>
<path d="M67500000 49875000 L67500000 50125000 "/>
<path d="M70000000 49875000 L70000000 50125000 "/>
<path d="M72500000 49875000 L72500000 50125000 "/>
</g>
<g>
</g>
<g>
</g>
<g>
</g>
</g>
<g style="fill:#FFFFFF; fill-opacity:0.0;  stroke:#FFFFFF; stroke-width:1700000.000000; stroke-opacity:1;  stroke-linecap:round; stroke-linejoin:round;">
</g>
<g style="fill:#FFFFFF; fill-opacity:1.0;  stroke:#FFFFFF; stroke-width:1.000000; stroke-opacity:1;  stroke-linecap:round; stroke-linejoin:round;">
<circle cx="50000000.000000" cy="50000000.000000" r="475000.000000"/> 
</g>
<g style="fill:#FFFFFF; fill-opacity:1.0;  stroke:#FFFFFF; stroke-width:21200.000000; stroke-opacity:1;  stroke-linecap:round; stroke-linejoin:round;">
</g>
<g style="fill:#FFFFFF; fill-opacity:1.0;  stroke:#FFFFFF; stroke-width:1.000000; stroke-opacity:1;  stroke-linecap:round; stroke-linejoin:round;">
<circle cx="52500000.000000" cy="50000000.000000" r="475000.000000"/> 
</g>
<g style="fill:#FFFFFF; fill-opacity:1.0;  stroke:#FFFFFF; stroke-width:21200.000000; stroke-opacity:1;  stroke-linecap:round; stroke-linejoin:round;">
</g>
<g style="fill:#FFFFFF; fill-opacity:1.0;  stroke:#FFFFFF; stroke-width:1.000000; stroke-opacity:1;  stroke-linecap:round; stroke-linejoin:round;">
<circle cx="55000000.000000" cy="50000000.000000" r="475000.000000"/> 
</g>
<g style="fill:#FFFFFF; fill-opacity:1.0;  stroke:#FFFFFF; stroke-width:21200.000000; stroke-opacity:1;  stroke-linecap:round; stroke-linejoin:round;">
</g>
<g style="fill:#FFFFFF; fill-opacity:1.0;  stroke:#FFFFFF; stroke-width:1.000000; stroke-opacity:1;  stroke-linecap:round; stroke-linejoin:round;">
<circle cx="57500000.000000" cy="50000000.000000" r="475000.000000"/> 
</g>
<g style="fill:#FFFFFF; fill-opacity:1.0;  stroke:#FFFFFF; stroke-width:21200.000000; stroke-opacity:1;  stroke-linecap:round; stroke-linejoin:round;">
</g>
<g style="fill:#FFFFFF; fill-opacity:1.0;  stroke:#FFFFFF; stroke-width:1.000000; stroke-opacity:1;  stroke-linecap:round; stroke-linejoin:round;">
<circle cx="60000000.000000" cy="50000000.000000" r="475000.000000"/> 
</g>
<g style="fill:#FFFFFF; fill-opacity:1.0;  stroke:#FFFFFF; stroke-width:21200.000000; stroke-opacity:1;  stroke-linecap:round; stroke-linejoin:round;">
</g>
<g style="fill:#FFFFFF; fill-opacity:1.0;  stroke:#FFFFFF; stroke-width:1.000000; stroke-opacity:1;  stroke-linecap:round; stroke-linejoin:round;">
<circle cx="62500000.000000" cy="50000000.000000" r="475000.000000"/> 
</g>
<g style="fill:#FFFFFF; fill-opacity:1.0;  stroke:#FFFFFF; stroke-width:21200.000000; stroke-opacity:1;  stroke-linecap:round; stroke-linejoin:round;">
</g>
<g style="fill:#FFFFFF; fill-opacity:1.0;  stroke:#FFFFFF; stroke-width:1.000000; stroke-opacity:1;  stroke-linecap:round; stroke-linejoin:round;">
<circle cx="65000000.000000" cy="50000000.000000" r="475000.000000"/> 
</g>
<g style="fill:#FFFFFF; fill-opacity:1.0;  stroke:#FFFFFF; stroke-width:21200.000000; stroke-opacity:1;  stroke-linecap:round; stroke-linejoin:round;">
</g>
<g style="fill:#FFFFFF; fill-opacity:1.0;  stroke:#FFFFFF; stroke-width:1.000000; stroke-opacity:1;  stroke-linecap:round; stroke-linejoin:round;">
<circle cx="67500000.000000" cy="50000000.000000" r="475000.000000"/> 
</g>
<g style="fill:#FFFFFF; fill-opacity:1.0;  stroke:#FFFFFF; stroke-width:21200.000000; stroke-opacity:1;  stroke-linecap:round; stroke-linejoin:round;">
</g>
<g style="fill:#FFFFFF; fill-opacity:1.0;  stroke:#FFFFFF; stroke-width:1.000000; stroke-opacity:1;  stroke-linecap:round; stroke-linejoin:round;">
<circle cx="70000000.000000" cy="50000000.000000" r="475000.000000"/> 
</g>
<g style="fill:#FFFFFF; fill-opacity:1.0;  stroke:#FFFFFF; stroke-width:21200.000000; stroke-opacity:1;  stroke-linecap:round; stroke-linejoin:round;">
</g>
<g style="fill:#FFFFFF; fill-opacity:1.0;  stroke:#FFFFFF; stroke-width:1.000000; stroke-opacity:1;  stroke-linecap:round; stroke-linejoin:round;">
<circle cx="72500000.000000" cy="50000000.000000" r="475000.000000"/> 
</g>
<g style="fill:#FFFFFF; fill-opacity:1.0;  stroke:#FFFFFF; stroke-width:21200.000000; stroke-opacity:1;  stroke-linecap:round; stroke-linejoin:round;">
</g>
<g style="fill:#000000; fill-opacity:1.0;  stroke:#000000; stroke-width:21200.000000; stroke-opacity:1;  stroke-linecap:round; stroke-linejoin:round;">
<g>
</g>
<g>
</g>
<g>
</g>
<g>
</g>
</g> 
<svg:g><svg:title>SVG Picture created as kicadBoard-B_Adhesive.svg date 2022/11/21 15:15:45 </svg:title>
  <svg:desc>Picture generated by PCBNEW </svg:desc>
<svg:g style="fill:#000000; fill-opacity:1.000000;stroke:#000000; stroke-opacity:1.000000; stroke-linecap:round; stroke-linejoin:round;" transform="translate(0 0) scale(1 1)">
</svg:g>
<svg:g style="fill:#000000; fill-opacity:0.0;  stroke:#000000; stroke-width:0.000000; stroke-opacity:1;  stroke-linecap:round; stroke-linejoin:round;">
<svg:g>
</svg:g>
<svg:g>
</svg:g>
<svg:g>
</svg:g>
<svg:g>
</svg:g>
</svg:g>
<svg:g style="fill:#000000; fill-opacity:0.0;  stroke:#000000; stroke-width:0.000000; stroke-opacity:1;  stroke-linecap:round; stroke-linejoin:round;">
<svg:g>
</svg:g>
<svg:g>
</svg:g>
<svg:g>
</svg:g>
<svg:g>
</svg:g>
</svg:g> 
</svg:g><svg:g><svg:title>SVG Picture created as kicadBoard-B_Courtyard.svg date 2022/11/21 15:15:45 </svg:title>
  <svg:desc>Picture generated by PCBNEW </svg:desc>
<svg:g style="fill:#000000; fill-opacity:1.000000;stroke:#000000; stroke-opacity:1.000000; stroke-linecap:round; stroke-linejoin:round;" transform="translate(0 0) scale(1 1)">
</svg:g>
<svg:g style="fill:#000000; fill-opacity:0.0;  stroke:#000000; stroke-width:0.000000; stroke-opacity:1;  stroke-linecap:round; stroke-linejoin:round;">
<svg:g>
</svg:g>
<svg:g>
</svg:g>
<svg:g>
</svg:g>
<svg:g>
</svg:g>
</svg:g>
<svg:g style="fill:#000000; fill-opacity:0.0;  stroke:#000000; stroke-width:0.000000; stroke-opacity:1;  stroke-linecap:round; stroke-linejoin:round;">
<svg:g>
</svg:g>
<svg:g>
</svg:g>
<svg:g>
</svg:g>
<svg:g>
</svg:g>
</svg:g> 
</svg:g><svg:g><svg:title>SVG Picture created as kicadBoard-B_Fab.svg date 2022/11/21 15:15:45 </svg:title>
  <svg:desc>Picture generated by PCBNEW </svg:desc>
<svg:g style="fill:#000000; fill-opacity:1.000000;stroke:#000000; stroke-opacity:1.000000; stroke-linecap:round; stroke-linejoin:round;" transform="translate(0 0) scale(1 1)">
</svg:g>
<svg:g style="fill:#000000; fill-opacity:0.0;  stroke:#000000; stroke-width:0.000000; stroke-opacity:1;  stroke-linecap:round; stroke-linejoin:round;">
<svg:g>
</svg:g>
<svg:g>
</svg:g>
<svg:g>
</svg:g>
<svg:g>
</svg:g>
</svg:g>
<svg:g style="fill:#000000; fill-opacity:0.0;  stroke:#000000; stroke-width:0.000000; stroke-opacity:1;  stroke-linecap:round; stroke-linejoin:round;">
<svg:g>
</svg:g>
<svg:g>
</svg:g>
<svg:g>
</svg:g>
<svg:g>
</svg:g>
</svg:g> 
</svg:g><svg:g><svg:title>SVG Picture created as kicadBoard-B_Mask.svg date 2022/11/21 15:15:45 </svg:title>
  <svg:desc>Picture generated by PCBNEW </svg:desc>
<svg:g style="fill:#000000; fill-opacity:1.000000;stroke:#000000; stroke-opacity:1.000000; stroke-linecap:round; stroke-linejoin:round;" transform="translate(0 0) scale(1 1)">
</svg:g>
<svg:g style="fill:#000000; fill-opacity:0.0;  stroke:#000000; stroke-width:0.000000; stroke-opacity:1;  stroke-linecap:round; stroke-linejoin:round;">
<svg:g>
</svg:g>
<svg:g style="fill:#000000; fill-opacity:0.0;  stroke:#000000; stroke-width:1.000000; stroke-opacity:1;  stroke-linecap:round; stroke-linejoin:round;">
</svg:g>
<svg:g style="fill:#000000; fill-opacity:1.0;  stroke:#000000; stroke-width:1.000000; stroke-opacity:1;  stroke-linecap:round; stroke-linejoin:round;">
<svg:path style="fill:#000000; fill-opacity:1.0;  stroke:#000000; stroke-width:1.000000; stroke-opacity:1;  stroke-linecap:round; stroke-linejoin:round;fill-rule:evenodd;" d="M 49150000.000000,49275000.000000 49169030.000000,49179329.000000 49223223.000000,49098223.000000 49304329.000000,49044030.000000 49400000.000000,49025000.000000 50600000.000000,49025000.000000 50695671.000000,49044030.000000 50776777.000000,49098223.000000 50830970.000000,49179329.000000 50850000.000000,49275000.000000 50850000.000000,50725000.000000 50830970.000000,50820671.000000 50776777.000000,50901777.000000 50695671.000000,50955970.000000 50600000.000000,50975000.000000 49400000.000000,50975000.000000 49304329.000000,50955970.000000 49223223.000000,50901777.000000 49169030.000000,50820671.000000 49150000.000000,50725000.000000 Z"/> 
</svg:g>
<svg:g style="fill:#000000; fill-opacity:1.0;  stroke:#000000; stroke-width:1700000.000000; stroke-opacity:1;  stroke-linecap:round; stroke-linejoin:round;">
</svg:g>
<svg:g style="fill:#000000; fill-opacity:0.0;  stroke:#000000; stroke-width:1700000.000000; stroke-opacity:1;  stroke-linecap:round; stroke-linejoin:round;">
<svg:path d="M52500000 49875000 L52500000 50125000 "/>
<svg:path d="M55000000 49875000 L55000000 50125000 "/>
<svg:path d="M57500000 49875000 L57500000 50125000 "/>
<svg:path d="M60000000 49875000 L60000000 50125000 "/>
<svg:path d="M62500000 49875000 L62500000 50125000 "/>
<svg:path d="M65000000 49875000 L65000000 50125000 "/>
<svg:path d="M67500000 49875000 L67500000 50125000 "/>
<svg:path d="M70000000 49875000 L70000000 50125000 "/>
<svg:path d="M72500000 49875000 L72500000 50125000 "/>
</svg:g>
<svg:g>
</svg:g>
<svg:g>
</svg:g>
<svg:g>
</svg:g>
</svg:g>
<svg:g style="fill:#000000; fill-opacity:0.0;  stroke:#000000; stroke-width:1700000.000000; stroke-opacity:1;  stroke-linecap:round; stroke-linejoin:round;">
<svg:g>
</svg:g>
<svg:g>
</svg:g>
<svg:g>
</svg:g>
<svg:g>
</svg:g>
</svg:g> 
</svg:g><svg:g><svg:title>SVG Picture created as kicadBoard-B_Paste.svg date 2022/11/21 15:15:45 </svg:title>
  <svg:desc>Picture generated by PCBNEW </svg:desc>
<svg:g style="fill:#000000; fill-opacity:1.000000;stroke:#000000; stroke-opacity:1.000000; stroke-linecap:round; stroke-linejoin:round;" transform="translate(0 0) scale(1 1)">
</svg:g>
<svg:g style="fill:#000000; fill-opacity:0.0;  stroke:#000000; stroke-width:0.000000; stroke-opacity:1;  stroke-linecap:round; stroke-linejoin:round;">
<svg:g>
</svg:g>
<svg:g>
</svg:g>
<svg:g>
</svg:g>
<svg:g>
</svg:g>
</svg:g>
<svg:g style="fill:#000000; fill-opacity:0.0;  stroke:#000000; stroke-width:0.000000; stroke-opacity:1;  stroke-linecap:round; stroke-linejoin:round;">
<svg:g>
</svg:g>
<svg:g>
</svg:g>
<svg:g>
</svg:g>
<svg:g>
</svg:g>
</svg:g> 
</svg:g><svg:g><svg:title>SVG Picture created as kicadBoard-B_Silkscreen.svg date 2022/11/21 15:15:45 </svg:title>
  <svg:desc>Picture generated by PCBNEW </svg:desc>
<svg:g style="fill:#000000; fill-opacity:1.000000;stroke:#000000; stroke-opacity:1.000000; stroke-linecap:round; stroke-linejoin:round;" transform="translate(0 0) scale(1 1)">
</svg:g>
<svg:g style="fill:#000000; fill-opacity:0.0;  stroke:#000000; stroke-width:0.000000; stroke-opacity:1;  stroke-linecap:round; stroke-linejoin:round;">
<svg:g>
</svg:g>
<svg:g>
</svg:g>
<svg:g>
</svg:g>
<svg:g>
</svg:g>
</svg:g>
<svg:g style="fill:#000000; fill-opacity:0.0;  stroke:#000000; stroke-width:0.000000; stroke-opacity:1;  stroke-linecap:round; stroke-linejoin:round;">
<svg:g>
</svg:g>
<svg:g>
</svg:g>
<svg:g>
</svg:g>
<svg:g>
</svg:g>
</svg:g> 
</svg:g><svg:g><svg:title>SVG Picture created as kicadBoard-Edge_Cuts.svg date 2022/11/21 15:15:45 </svg:title>
  <svg:desc>Picture generated by PCBNEW </svg:desc>
<svg:g style="fill:#000000; fill-opacity:1.000000;stroke:#000000; stroke-opacity:1.000000; stroke-linecap:round; stroke-linejoin:round;" transform="translate(0 0) scale(1 1)">
</svg:g>
<svg:g style="fill:#000000; fill-opacity:0.0;  stroke:#000000; stroke-width:0.000000; stroke-opacity:1;  stroke-linecap:round; stroke-linejoin:round;">
<svg:g>
</svg:g>
<svg:g>
</svg:g>
<svg:g>
</svg:g>
<svg:g>
</svg:g>
</svg:g> 
</svg:g><svg:g><svg:title>SVG Picture created as kicadBoard-F_Adhesive.svg date 2022/11/21 15:15:45 </svg:title>
  <svg:desc>Picture generated by PCBNEW </svg:desc>
<svg:g style="fill:#000000; fill-opacity:1.000000;stroke:#000000; stroke-opacity:1.000000; stroke-linecap:round; stroke-linejoin:round;" transform="translate(0 0) scale(1 1)">
</svg:g>
<svg:g style="fill:#000000; fill-opacity:0.0;  stroke:#000000; stroke-width:0.000000; stroke-opacity:1;  stroke-linecap:round; stroke-linejoin:round;">
<svg:g>
</svg:g>
<svg:g>
</svg:g>
<svg:g>
</svg:g>
<svg:g>
</svg:g>
</svg:g>
<svg:g style="fill:#000000; fill-opacity:0.0;  stroke:#000000; stroke-width:0.000000; stroke-opacity:1;  stroke-linecap:round; stroke-linejoin:round;">
<svg:g>
</svg:g>
<svg:g>
</svg:g>
<svg:g>
</svg:g>
<svg:g>
</svg:g>
</svg:g> 
</svg:g><svg:g><svg:title>SVG Picture created as kicadBoard-F_Courtyard.svg date 2022/11/21 15:15:45 </svg:title>
  <svg:desc>Picture generated by PCBNEW </svg:desc>
<svg:g style="fill:#000000; fill-opacity:1.000000;stroke:#000000; stroke-opacity:1.000000; stroke-linecap:round; stroke-linejoin:round;" transform="translate(0 0) scale(1 1)">
</svg:g>
<svg:g style="fill:#000000; fill-opacity:0.0;  stroke:#000000; stroke-width:0.000000; stroke-opacity:1;  stroke-linecap:round; stroke-linejoin:round;">
</svg:g>
<svg:g style="fill:#FF26E2; fill-opacity:0.0;  stroke:#FF26E2; stroke-width:0.000000; stroke-opacity:1;  stroke-linecap:round; stroke-linejoin:round;">
</svg:g>
<svg:g style="fill:#FF26E2; fill-opacity:0.0;  stroke:#FF26E2; stroke-width:50000.000000; stroke-opacity:1;  stroke-linecap:round; stroke-linejoin:round;">
<svg:path d="M75500000 47900000 L47000000 47900000 "/>
<svg:path d="M47000000 47900000 L47000000 52700000 "/>
<svg:path d="M47000000 52700000 L75500000 52700000 "/>
<svg:path d="M75500000 52700000 L75500000 47900000 "/>
<svg:g>
</svg:g>
<svg:g>
</svg:g>
<svg:g>
</svg:g>
<svg:g>
</svg:g>
</svg:g>
<svg:g style="fill:#000000; fill-opacity:0.0;  stroke:#000000; stroke-width:50000.000000; stroke-opacity:1;  stroke-linecap:round; stroke-linejoin:round;">
<svg:g>
</svg:g>
<svg:g>
</svg:g>
<svg:g>
</svg:g>
<svg:g>
</svg:g>
</svg:g> 
</svg:g><svg:g><svg:title>SVG Picture created as kicadBoard-F_Cu.svg date 2022/11/21 15:15:45 </svg:title>
  <svg:desc>Picture generated by PCBNEW </svg:desc>
<svg:g style="fill:#000000; fill-opacity:1.000000;stroke:#000000; stroke-opacity:1.000000; stroke-linecap:round; stroke-linejoin:round;" transform="translate(0 0) scale(1 1)">
</svg:g>
<svg:g style="fill:#000000; fill-opacity:0.0;  stroke:#000000; stroke-width:0.000000; stroke-opacity:1;  stroke-linecap:round; stroke-linejoin:round;">
<svg:g>
</svg:g>
<svg:g style="fill:#C83434; fill-opacity:0.0;  stroke:#C83434; stroke-width:0.000000; stroke-opacity:1;  stroke-linecap:round; stroke-linejoin:round;">
</svg:g>
<svg:g style="fill:#C83434; fill-opacity:0.0;  stroke:#C83434; stroke-width:1.000000; stroke-opacity:1;  stroke-linecap:round; stroke-linejoin:round;">
</svg:g>
<svg:g style="fill:#C83434; fill-opacity:1.0;  stroke:#C83434; stroke-width:1.000000; stroke-opacity:1;  stroke-linecap:round; stroke-linejoin:round;">
<svg:path style="fill:#C83434; fill-opacity:1.0;  stroke:#C83434; stroke-width:1.000000; stroke-opacity:1;  stroke-linecap:round; stroke-linejoin:round;fill-rule:evenodd;" d="M 49150000.000000,49275000.000000 49169030.000000,49179329.000000 49223223.000000,49098223.000000 49304329.000000,49044030.000000 49400000.000000,49025000.000000 50600000.000000,49025000.000000 50695671.000000,49044030.000000 50776777.000000,49098223.000000 50830970.000000,49179329.000000 50850000.000000,49275000.000000 50850000.000000,50725000.000000 50830970.000000,50820671.000000 50776777.000000,50901777.000000 50695671.000000,50955970.000000 50600000.000000,50975000.000000 49400000.000000,50975000.000000 49304329.000000,50955970.000000 49223223.000000,50901777.000000 49169030.000000,50820671.000000 49150000.000000,50725000.000000 Z"/> 
</svg:g>
<svg:g style="fill:#C83434; fill-opacity:1.0;  stroke:#C83434; stroke-width:1700000.000000; stroke-opacity:1;  stroke-linecap:round; stroke-linejoin:round;">
</svg:g>
<svg:g style="fill:#C83434; fill-opacity:0.0;  stroke:#C83434; stroke-width:1700000.000000; stroke-opacity:1;  stroke-linecap:round; stroke-linejoin:round;">
<svg:path d="M52500000 49875000 L52500000 50125000 "/>
<svg:path d="M55000000 49875000 L55000000 50125000 "/>
<svg:path d="M57500000 49875000 L57500000 50125000 "/>
<svg:path d="M60000000 49875000 L60000000 50125000 "/>
<svg:path d="M62500000 49875000 L62500000 50125000 "/>
<svg:path d="M65000000 49875000 L65000000 50125000 "/>
<svg:path d="M67500000 49875000 L67500000 50125000 "/>
<svg:path d="M70000000 49875000 L70000000 50125000 "/>
<svg:path d="M72500000 49875000 L72500000 50125000 "/>
</svg:g>
<svg:g>
</svg:g>
<svg:g>
</svg:g>
<svg:g>
</svg:g>
</svg:g>
<svg:g style="fill:#FFFFFF; fill-opacity:0.0;  stroke:#FFFFFF; stroke-width:1700000.000000; stroke-opacity:1;  stroke-linecap:round; stroke-linejoin:round;">
</svg:g>
<svg:g style="fill:#FFFFFF; fill-opacity:1.0;  stroke:#FFFFFF; stroke-width:1.000000; stroke-opacity:1;  stroke-linecap:round; stroke-linejoin:round;">
<svg:circle cx="50000000.000000" cy="50000000.000000" r="475000.000000"/> 
</svg:g>
<svg:g style="fill:#FFFFFF; fill-opacity:1.0;  stroke:#FFFFFF; stroke-width:21200.000000; stroke-opacity:1;  stroke-linecap:round; stroke-linejoin:round;">
</svg:g>
<svg:g style="fill:#FFFFFF; fill-opacity:1.0;  stroke:#FFFFFF; stroke-width:1.000000; stroke-opacity:1;  stroke-linecap:round; stroke-linejoin:round;">
<svg:circle cx="52500000.000000" cy="50000000.000000" r="475000.000000"/> 
</svg:g>
<svg:g style="fill:#FFFFFF; fill-opacity:1.0;  stroke:#FFFFFF; stroke-width:21200.000000; stroke-opacity:1;  stroke-linecap:round; stroke-linejoin:round;">
</svg:g>
<svg:g style="fill:#FFFFFF; fill-opacity:1.0;  stroke:#FFFFFF; stroke-width:1.000000; stroke-opacity:1;  stroke-linecap:round; stroke-linejoin:round;">
<svg:circle cx="55000000.000000" cy="50000000.000000" r="475000.000000"/> 
</svg:g>
<svg:g style="fill:#FFFFFF; fill-opacity:1.0;  stroke:#FFFFFF; stroke-width:21200.000000; stroke-opacity:1;  stroke-linecap:round; stroke-linejoin:round;">
</svg:g>
<svg:g style="fill:#FFFFFF; fill-opacity:1.0;  stroke:#FFFFFF; stroke-width:1.000000; stroke-opacity:1;  stroke-linecap:round; stroke-linejoin:round;">
<svg:circle cx="57500000.000000" cy="50000000.000000" r="475000.000000"/> 
</svg:g>
<svg:g style="fill:#FFFFFF; fill-opacity:1.0;  stroke:#FFFFFF; stroke-width:21200.000000; stroke-opacity:1;  stroke-linecap:round; stroke-linejoin:round;">
</svg:g>
<svg:g style="fill:#FFFFFF; fill-opacity:1.0;  stroke:#FFFFFF; stroke-width:1.000000; stroke-opacity:1;  stroke-linecap:round; stroke-linejoin:round;">
<svg:circle cx="60000000.000000" cy="50000000.000000" r="475000.000000"/> 
</svg:g>
<svg:g style="fill:#FFFFFF; fill-opacity:1.0;  stroke:#FFFFFF; stroke-width:21200.000000; stroke-opacity:1;  stroke-linecap:round; stroke-linejoin:round;">
</svg:g>
<svg:g style="fill:#FFFFFF; fill-opacity:1.0;  stroke:#FFFFFF; stroke-width:1.000000; stroke-opacity:1;  stroke-linecap:round; stroke-linejoin:round;">
<svg:circle cx="62500000.000000" cy="50000000.000000" r="475000.000000"/> 
</svg:g>
<svg:g style="fill:#FFFFFF; fill-opacity:1.0;  stroke:#FFFFFF; stroke-width:21200.000000; stroke-opacity:1;  stroke-linecap:round; stroke-linejoin:round;">
</svg:g>
<svg:g style="fill:#FFFFFF; fill-opacity:1.0;  stroke:#FFFFFF; stroke-width:1.000000; stroke-opacity:1;  stroke-linecap:round; stroke-linejoin:round;">
<svg:circle cx="65000000.000000" cy="50000000.000000" r="475000.000000"/> 
</svg:g>
<svg:g style="fill:#FFFFFF; fill-opacity:1.0;  stroke:#FFFFFF; stroke-width:21200.000000; stroke-opacity:1;  stroke-linecap:round; stroke-linejoin:round;">
</svg:g>
<svg:g style="fill:#FFFFFF; fill-opacity:1.0;  stroke:#FFFFFF; stroke-width:1.000000; stroke-opacity:1;  stroke-linecap:round; stroke-linejoin:round;">
<svg:circle cx="67500000.000000" cy="50000000.000000" r="475000.000000"/> 
</svg:g>
<svg:g style="fill:#FFFFFF; fill-opacity:1.0;  stroke:#FFFFFF; stroke-width:21200.000000; stroke-opacity:1;  stroke-linecap:round; stroke-linejoin:round;">
</svg:g>
<svg:g style="fill:#FFFFFF; fill-opacity:1.0;  stroke:#FFFFFF; stroke-width:1.000000; stroke-opacity:1;  stroke-linecap:round; stroke-linejoin:round;">
<svg:circle cx="70000000.000000" cy="50000000.000000" r="475000.000000"/> 
</svg:g>
<svg:g style="fill:#FFFFFF; fill-opacity:1.0;  stroke:#FFFFFF; stroke-width:21200.000000; stroke-opacity:1;  stroke-linecap:round; stroke-linejoin:round;">
</svg:g>
<svg:g style="fill:#FFFFFF; fill-opacity:1.0;  stroke:#FFFFFF; stroke-width:1.000000; stroke-opacity:1;  stroke-linecap:round; stroke-linejoin:round;">
<svg:circle cx="72500000.000000" cy="50000000.000000" r="475000.000000"/> 
</svg:g>
<svg:g style="fill:#FFFFFF; fill-opacity:1.0;  stroke:#FFFFFF; stroke-width:21200.000000; stroke-opacity:1;  stroke-linecap:round; stroke-linejoin:round;">
</svg:g>
<svg:g style="fill:#000000; fill-opacity:1.0;  stroke:#000000; stroke-width:21200.000000; stroke-opacity:1;  stroke-linecap:round; stroke-linejoin:round;">
<svg:g>
</svg:g>
<svg:g>
</svg:g>
<svg:g>
</svg:g>
<svg:g>
</svg:g>
</svg:g> 
</svg:g><svg:g><svg:title>SVG Picture created as kicadBoard-F_Fab.svg date 2022/11/21 15:15:45 </svg:title>
  <svg:desc>Picture generated by PCBNEW </svg:desc>
<svg:g style="fill:#000000; fill-opacity:1.000000;stroke:#000000; stroke-opacity:1.000000; stroke-linecap:round; stroke-linejoin:round;" transform="translate(0 0) scale(1 1)">
</svg:g>
<svg:g style="fill:#000000; fill-opacity:0.0;  stroke:#000000; stroke-width:0.000000; stroke-opacity:1;  stroke-linecap:round; stroke-linejoin:round;">
</svg:g>
<svg:g style="fill:#AFAFAF; fill-opacity:0.0;  stroke:#AFAFAF; stroke-width:0.000000; stroke-opacity:1;  stroke-linecap:round; stroke-linejoin:round;">
</svg:g>
<svg:g style="fill:#AFAFAF; fill-opacity:0.0;  stroke:#AFAFAF; stroke-width:150000.000000; stroke-opacity:1;  stroke-linecap:round; stroke-linejoin:round;">
<svg:text x="61250000.000000" y="53900000.000000" textLength="33956905.000000" font-size="1333333.000000" lengthAdjust="spacingAndGlyphs" text-anchor="middle" opacity="0">JST_EH_B10B-EH-A_1x10_P2.50mm_Vertical</svg:text>
<svg:g class="stroked-text"><svg:desc>JST_EH_B10B-EH-A_1x10_P2.50mm_Vertical</svg:desc>
<svg:path d="M44892857 52852380 L44892857 53566666 L44845238 53709523 L44749999 53804761 L44607142 53852380 L44511904 53852380 "/>
<svg:path d="M45321428 53804761 L45464285 53852380 L45702380 53852380 L45797619 53804761 L45845238 53757142 L45892857 53661904 L45892857 53566666 L45845238 53471428 L45797619 53423809 L45702380 53376190 L45511904 53328571 L45416666 53280952 L45369047 53233333 L45321428 53138095 L45321428 53042857 L45369047 52947619 L45416666 52900000 L45511904 52852380 L45749999 52852380 L45892857 52900000 "/>
<svg:path d="M46178571 52852380 L46749999 52852380 "/>
<svg:path d="M46464285 53852380 L46464285 52852380 "/>
<svg:path d="M46845238 53947619 L47607142 53947619 "/>
<svg:path d="M47845238 53328571 L48178571 53328571 "/>
<svg:path d="M48321428 53852380 L47845238 53852380 L47845238 52852380 L48321428 52852380 "/>
<svg:path d="M48749999 53852380 L48749999 52852380 "/>
<svg:path d="M48749999 53328571 L49321428 53328571 "/>
<svg:path d="M49321428 53852380 L49321428 52852380 "/>
<svg:path d="M49559523 53947619 L50321428 53947619 "/>
<svg:path d="M50892857 53328571 L51035714 53376190 L51083333 53423809 L51130952 53519047 L51130952 53661904 L51083333 53757142 L51035714 53804761 L50940476 53852380 L50559523 53852380 L50559523 52852380 L50892857 52852380 L50988095 52900000 L51035714 52947619 L51083333 53042857 L51083333 53138095 L51035714 53233333 L50988095 53280952 L50892857 53328571 L50559523 53328571 "/>
<svg:path d="M52083333 53852380 L51511904 53852380 "/>
<svg:path d="M51797619 53852380 L51797619 52852380 L51702380 52995238 L51607142 53090476 L51511904 53138095 "/>
<svg:path d="M52702380 52852380 L52797619 52852380 L52892857 52900000 L52940476 52947619 L52988095 53042857 L53035714 53233333 L53035714 53471428 L52988095 53661904 L52940476 53757142 L52892857 53804761 L52797619 53852380 L52702380 53852380 L52607142 53804761 L52559523 53757142 L52511904 53661904 L52464285 53471428 L52464285 53233333 L52511904 53042857 L52559523 52947619 L52607142 52900000 L52702380 52852380 "/>
<svg:path d="M53797619 53328571 L53940476 53376190 L53988095 53423809 L54035714 53519047 L54035714 53661904 L53988095 53757142 L53940476 53804761 L53845238 53852380 L53464285 53852380 L53464285 52852380 L53797619 52852380 L53892857 52900000 L53940476 52947619 L53988095 53042857 L53988095 53138095 L53940476 53233333 L53892857 53280952 L53797619 53328571 L53464285 53328571 "/>
<svg:path d="M54464285 53471428 L55226190 53471428 "/>
<svg:path d="M55702380 53328571 L56035714 53328571 "/>
<svg:path d="M56178571 53852380 L55702380 53852380 L55702380 52852380 L56178571 52852380 "/>
<svg:path d="M56607142 53852380 L56607142 52852380 "/>
<svg:path d="M56607142 53328571 L57178571 53328571 "/>
<svg:path d="M57178571 53852380 L57178571 52852380 "/>
<svg:path d="M57654761 53471428 L58416666 53471428 "/>
<svg:path d="M58845238 53566666 L59321428 53566666 "/>
<svg:path d="M58749999 53852380 L59083333 52852380 L59416666 53852380 "/>
<svg:path d="M59511904 53947619 L60273809 53947619 "/>
<svg:path d="M61035714 53852380 L60464285 53852380 "/>
<svg:path d="M60749999 53852380 L60749999 52852380 L60654761 52995238 L60559523 53090476 L60464285 53138095 "/>
<svg:path d="M61369047 53852380 L61892857 53185714 "/>
<svg:path d="M61369047 53185714 L61892857 53852380 "/>
<svg:path d="M62797619 53852380 L62226190 53852380 "/>
<svg:path d="M62511904 53852380 L62511904 52852380 L62416666 52995238 L62321428 53090476 L62226190 53138095 "/>
<svg:path d="M63416666 52852380 L63511904 52852380 L63607142 52900000 L63654761 52947619 L63702380 53042857 L63749999 53233333 L63749999 53471428 L63702380 53661904 L63654761 53757142 L63607142 53804761 L63511904 53852380 L63416666 53852380 L63321428 53804761 L63273809 53757142 L63226190 53661904 L63178571 53471428 L63178571 53233333 L63226190 53042857 L63273809 52947619 L63321428 52900000 L63416666 52852380 "/>
<svg:path d="M63940476 53947619 L64702380 53947619 "/>
<svg:path d="M64940476 53852380 L64940476 52852380 L65321428 52852380 L65416666 52900000 L65464285 52947619 L65511904 53042857 L65511904 53185714 L65464285 53280952 L65416666 53328571 L65321428 53376190 L64940476 53376190 "/>
<svg:path d="M65892857 52947619 L65940476 52900000 L66035714 52852380 L66273809 52852380 L66369047 52900000 L66416666 52947619 L66464285 53042857 L66464285 53138095 L66416666 53280952 L65845238 53852380 L66464285 53852380 "/>
<svg:path d="M66892857 53757142 L66940476 53804761 L66892857 53852380 L66845238 53804761 L66892857 53757142 L66892857 53852380 "/>
<svg:path d="M67845238 52852380 L67369047 52852380 L67321428 53328571 L67369047 53280952 L67464285 53233333 L67702380 53233333 L67797619 53280952 L67845238 53328571 L67892857 53423809 L67892857 53661904 L67845238 53757142 L67797619 53804761 L67702380 53852380 L67464285 53852380 L67369047 53804761 L67321428 53757142 "/>
<svg:path d="M68511904 52852380 L68607142 52852380 L68702380 52900000 L68749999 52947619 L68797619 53042857 L68845238 53233333 L68845238 53471428 L68797619 53661904 L68749999 53757142 L68702380 53804761 L68607142 53852380 L68511904 53852380 L68416666 53804761 L68369047 53757142 L68321428 53661904 L68273809 53471428 L68273809 53233333 L68321428 53042857 L68369047 52947619 L68416666 52900000 L68511904 52852380 "/>
<svg:path d="M69273809 53852380 L69273809 53185714 "/>
<svg:path d="M69273809 53280952 L69321428 53233333 L69416666 53185714 L69559523 53185714 L69654761 53233333 L69702380 53328571 L69702380 53852380 "/>
<svg:path d="M69702380 53328571 L69749999 53233333 L69845238 53185714 L69988095 53185714 L70083333 53233333 L70130952 53328571 L70130952 53852380 "/>
<svg:path d="M70607142 53852380 L70607142 53185714 "/>
<svg:path d="M70607142 53280952 L70654761 53233333 L70749999 53185714 L70892857 53185714 L70988095 53233333 L71035714 53328571 L71035714 53852380 "/>
<svg:path d="M71035714 53328571 L71083333 53233333 L71178571 53185714 L71321428 53185714 L71416666 53233333 L71464285 53328571 L71464285 53852380 "/>
<svg:path d="M71702380 53947619 L72464285 53947619 "/>
<svg:path d="M72559523 52852380 L72892857 53852380 L73226190 52852380 "/>
<svg:path d="M73940476 53804761 L73845238 53852380 L73654761 53852380 L73559523 53804761 L73511904 53709523 L73511904 53328571 L73559523 53233333 L73654761 53185714 L73845238 53185714 L73940476 53233333 L73988095 53328571 L73988095 53423809 L73511904 53519047 "/>
<svg:path d="M74416666 53852380 L74416666 53185714 "/>
<svg:path d="M74416666 53376190 L74464285 53280952 L74511904 53233333 L74607142 53185714 L74702380 53185714 "/>
<svg:path d="M74892857 53185714 L75273809 53185714 "/>
<svg:path d="M75035714 52852380 L75035714 53709523 L75083333 53804761 L75178571 53852380 L75273809 53852380 "/>
<svg:path d="M75607142 53852380 L75607142 53185714 "/>
<svg:path d="M75607142 52852380 L75559523 52900000 L75607142 52947619 L75654761 52900000 L75607142 52852380 L75607142 52947619 "/>
<svg:path d="M76511904 53804761 L76416666 53852380 L76226190 53852380 L76130952 53804761 L76083333 53757142 L76035714 53661904 L76035714 53376190 L76083333 53280952 L76130952 53233333 L76226190 53185714 L76416666 53185714 L76511904 53233333 "/>
<svg:path d="M77369047 53852380 L77369047 53328571 L77321428 53233333 L77226190 53185714 L77035714 53185714 L76940476 53233333 "/>
<svg:path d="M77369047 53804761 L77273809 53852380 L77035714 53852380 L76940476 53804761 L76892857 53709523 L76892857 53614285 L76940476 53519047 L77035714 53471428 L77273809 53471428 L77369047 53423809 "/>
<svg:path d="M77988095 53852380 L77892857 53804761 L77845238 53709523 L77845238 52852380 "/>
</svg:g><svg:text x="61250000.000000" y="52000000.000000" textLength="24337857.000000" font-size="1333333.000000" lengthAdjust="spacingAndGlyphs" text-anchor="middle" opacity="0">FZKCNJSTJSTEHB1BEHA1X1P25F</svg:text>
<svg:g class="stroked-text"><svg:desc>FZKCNJSTJSTEHB1BEHA1X1P25F</svg:desc>
<svg:path d="M49750000 51428571 L49416666 51428571 "/>
<svg:path d="M49416666 51952380 L49416666 50952380 L49892857 50952380 "/>
<svg:path d="M50178571 50952380 L50845238 50952380 L50178571 51952380 L50845238 51952380 "/>
<svg:path d="M51226190 51952380 L51226190 50952380 "/>
<svg:path d="M51797619 51952380 L51369047 51380952 "/>
<svg:path d="M51797619 50952380 L51226190 51523809 "/>
<svg:path d="M52797619 51857142 L52750000 51904761 L52607142 51952380 L52511904 51952380 L52369047 51904761 L52273809 51809523 L52226190 51714285 L52178571 51523809 L52178571 51380952 L52226190 51190476 L52273809 51095238 L52369047 51000000 L52511904 50952380 L52607142 50952380 L52750000 51000000 L52797619 51047619 "/>
<svg:path d="M53226190 51952380 L53226190 50952380 L53797619 51952380 L53797619 50952380 "/>
<svg:path d="M54559523 50952380 L54559523 51666666 L54511904 51809523 L54416666 51904761 L54273809 51952380 L54178571 51952380 "/>
<svg:path d="M54988095 51904761 L55130952 51952380 L55369047 51952380 L55464285 51904761 L55511904 51857142 L55559523 51761904 L55559523 51666666 L55511904 51571428 L55464285 51523809 L55369047 51476190 L55178571 51428571 L55083333 51380952 L55035714 51333333 L54988095 51238095 L54988095 51142857 L55035714 51047619 L55083333 51000000 L55178571 50952380 L55416666 50952380 L55559523 51000000 "/>
<svg:path d="M55845238 50952380 L56416666 50952380 "/>
<svg:path d="M56130952 51952380 L56130952 50952380 "/>
<svg:path d="M57035714 50952380 L57035714 51666666 L56988095 51809523 L56892857 51904761 L56750000 51952380 L56654761 51952380 "/>
<svg:path d="M57464285 51904761 L57607142 51952380 L57845238 51952380 L57940476 51904761 L57988095 51857142 L58035714 51761904 L58035714 51666666 L57988095 51571428 L57940476 51523809 L57845238 51476190 L57654761 51428571 L57559523 51380952 L57511904 51333333 L57464285 51238095 L57464285 51142857 L57511904 51047619 L57559523 51000000 L57654761 50952380 L57892857 50952380 L58035714 51000000 "/>
<svg:path d="M58321428 50952380 L58892857 50952380 "/>
<svg:path d="M58607142 51952380 L58607142 50952380 "/>
<svg:path d="M59226190 51428571 L59559523 51428571 "/>
<svg:path d="M59702380 51952380 L59226190 51952380 L59226190 50952380 L59702380 50952380 "/>
<svg:path d="M60130952 51952380 L60130952 50952380 "/>
<svg:path d="M60130952 51428571 L60702380 51428571 "/>
<svg:path d="M60702380 51952380 L60702380 50952380 "/>
<svg:path d="M61511904 51428571 L61654761 51476190 L61702380 51523809 L61749999 51619047 L61749999 51761904 L61702380 51857142 L61654761 51904761 L61559523 51952380 L61178571 51952380 L61178571 50952380 L61511904 50952380 L61607142 51000000 L61654761 51047619 L61702380 51142857 L61702380 51238095 L61654761 51333333 L61607142 51380952 L61511904 51428571 L61178571 51428571 "/>
<svg:path d="M62702380 51952380 L62130952 51952380 "/>
<svg:path d="M62416666 51952380 L62416666 50952380 L62321428 51095238 L62226190 51190476 L62130952 51238095 "/>
<svg:path d="M63464285 51428571 L63607142 51476190 L63654761 51523809 L63702380 51619047 L63702380 51761904 L63654761 51857142 L63607142 51904761 L63511904 51952380 L63130952 51952380 L63130952 50952380 L63464285 50952380 L63559523 51000000 L63607142 51047619 L63654761 51142857 L63654761 51238095 L63607142 51333333 L63559523 51380952 L63464285 51428571 L63130952 51428571 "/>
<svg:path d="M64130952 51428571 L64464285 51428571 "/>
<svg:path d="M64607142 51952380 L64130952 51952380 L64130952 50952380 L64607142 50952380 "/>
<svg:path d="M65035714 51952380 L65035714 50952380 "/>
<svg:path d="M65035714 51428571 L65607142 51428571 "/>
<svg:path d="M65607142 51952380 L65607142 50952380 "/>
<svg:path d="M66035714 51666666 L66511904 51666666 "/>
<svg:path d="M65940476 51952380 L66273809 50952380 L66607142 51952380 "/>
<svg:path d="M67464285 51952380 L66892857 51952380 "/>
<svg:path d="M67178571 51952380 L67178571 50952380 L67083333 51095238 L66988095 51190476 L66892857 51238095 "/>
<svg:path d="M67797619 50952380 L68464285 51952380 "/>
<svg:path d="M68464285 50952380 L67797619 51952380 "/>
<svg:path d="M69369047 51952380 L68797619 51952380 "/>
<svg:path d="M69083333 51952380 L69083333 50952380 L68988095 51095238 L68892857 51190476 L68797619 51238095 "/>
<svg:path d="M69797619 51952380 L69797619 50952380 L70178571 50952380 L70273809 51000000 L70321428 51047619 L70369047 51142857 L70369047 51285714 L70321428 51380952 L70273809 51428571 L70178571 51476190 L69797619 51476190 "/>
<svg:path d="M70749999 51047619 L70797619 51000000 L70892857 50952380 L71130952 50952380 L71226190 51000000 L71273809 51047619 L71321428 51142857 L71321428 51238095 L71273809 51380952 L70702380 51952380 L71321428 51952380 "/>
<svg:path d="M72226190 50952380 L71749999 50952380 L71702380 51428571 L71749999 51380952 L71845238 51333333 L72083333 51333333 L72178571 51380952 L72226190 51428571 L72273809 51523809 L72273809 51761904 L72226190 51857142 L72178571 51904761 L72083333 51952380 L71845238 51952380 L71749999 51904761 L71702380 51857142 "/>
<svg:path d="M73035714 51428571 L72702380 51428571 "/>
<svg:path d="M72702380 51952380 L72702380 50952380 L73178571 50952380 "/>
</svg:g></svg:g>
<svg:g style="fill:#AFAFAF; fill-opacity:0.0;  stroke:#AFAFAF; stroke-width:100000.000000; stroke-opacity:1;  stroke-linecap:round; stroke-linejoin:round;">
<svg:path d="M47500000 48400000 L47500000 52200000 "/>
<svg:path d="M75000000 48400000 L47500000 48400000 "/>
<svg:path d="M75000000 52200000 L75000000 48400000 "/>
<svg:path d="M47500000 52200000 L75000000 52200000 "/>
<svg:path d="M47090000 52610000 L49590000 52610000 "/>
<svg:path d="M47090000 50110000 L47090000 52610000 "/>
<svg:g>
</svg:g>
<svg:g>
</svg:g>
<svg:g>
</svg:g>
<svg:g>
</svg:g>
</svg:g>
<svg:g style="fill:#000000; fill-opacity:0.0;  stroke:#000000; stroke-width:100000.000000; stroke-opacity:1;  stroke-linecap:round; stroke-linejoin:round;">
<svg:g>
</svg:g>
<svg:g>
</svg:g>
<svg:g>
</svg:g>
<svg:g>
</svg:g>
</svg:g> 
</svg:g><svg:g><svg:title>SVG Picture created as kicadBoard-F_Mask.svg date 2022/11/21 15:15:45 </svg:title>
  <svg:desc>Picture generated by PCBNEW </svg:desc>
<svg:g style="fill:#000000; fill-opacity:1.000000;stroke:#000000; stroke-opacity:1.000000; stroke-linecap:round; stroke-linejoin:round;" transform="translate(0 0) scale(1 1)">
</svg:g>
<svg:g style="fill:#000000; fill-opacity:0.0;  stroke:#000000; stroke-width:0.000000; stroke-opacity:1;  stroke-linecap:round; stroke-linejoin:round;">
<svg:g>
</svg:g>
<svg:g style="fill:#000000; fill-opacity:0.0;  stroke:#000000; stroke-width:1.000000; stroke-opacity:1;  stroke-linecap:round; stroke-linejoin:round;">
</svg:g>
<svg:g style="fill:#000000; fill-opacity:1.0;  stroke:#000000; stroke-width:1.000000; stroke-opacity:1;  stroke-linecap:round; stroke-linejoin:round;">
<svg:path style="fill:#000000; fill-opacity:1.0;  stroke:#000000; stroke-width:1.000000; stroke-opacity:1;  stroke-linecap:round; stroke-linejoin:round;fill-rule:evenodd;" d="M 49150000.000000,49275000.000000 49169030.000000,49179329.000000 49223223.000000,49098223.000000 49304329.000000,49044030.000000 49400000.000000,49025000.000000 50600000.000000,49025000.000000 50695671.000000,49044030.000000 50776777.000000,49098223.000000 50830970.000000,49179329.000000 50850000.000000,49275000.000000 50850000.000000,50725000.000000 50830970.000000,50820671.000000 50776777.000000,50901777.000000 50695671.000000,50955970.000000 50600000.000000,50975000.000000 49400000.000000,50975000.000000 49304329.000000,50955970.000000 49223223.000000,50901777.000000 49169030.000000,50820671.000000 49150000.000000,50725000.000000 Z"/> 
</svg:g>
<svg:g style="fill:#000000; fill-opacity:1.0;  stroke:#000000; stroke-width:1700000.000000; stroke-opacity:1;  stroke-linecap:round; stroke-linejoin:round;">
</svg:g>
<svg:g style="fill:#000000; fill-opacity:0.0;  stroke:#000000; stroke-width:1700000.000000; stroke-opacity:1;  stroke-linecap:round; stroke-linejoin:round;">
<svg:path d="M52500000 49875000 L52500000 50125000 "/>
<svg:path d="M55000000 49875000 L55000000 50125000 "/>
<svg:path d="M57500000 49875000 L57500000 50125000 "/>
<svg:path d="M60000000 49875000 L60000000 50125000 "/>
<svg:path d="M62500000 49875000 L62500000 50125000 "/>
<svg:path d="M65000000 49875000 L65000000 50125000 "/>
<svg:path d="M67500000 49875000 L67500000 50125000 "/>
<svg:path d="M70000000 49875000 L70000000 50125000 "/>
<svg:path d="M72500000 49875000 L72500000 50125000 "/>
</svg:g>
<svg:g>
</svg:g>
<svg:g>
</svg:g>
<svg:g>
</svg:g>
</svg:g>
<svg:g style="fill:#000000; fill-opacity:0.0;  stroke:#000000; stroke-width:1700000.000000; stroke-opacity:1;  stroke-linecap:round; stroke-linejoin:round;">
<svg:g>
</svg:g>
<svg:g>
</svg:g>
<svg:g>
</svg:g>
<svg:g>
</svg:g>
</svg:g> 
</svg:g><svg:g><svg:title>SVG Picture created as kicadBoard-F_Paste.svg date 2022/11/21 15:15:45 </svg:title>
  <svg:desc>Picture generated by PCBNEW </svg:desc>
<svg:g style="fill:#000000; fill-opacity:1.000000;stroke:#000000; stroke-opacity:1.000000; stroke-linecap:round; stroke-linejoin:round;" transform="translate(0 0) scale(1 1)">
</svg:g>
<svg:g style="fill:#000000; fill-opacity:0.0;  stroke:#000000; stroke-width:0.000000; stroke-opacity:1;  stroke-linecap:round; stroke-linejoin:round;">
<svg:g>
</svg:g>
<svg:g>
</svg:g>
<svg:g>
</svg:g>
<svg:g>
</svg:g>
</svg:g>
<svg:g style="fill:#000000; fill-opacity:0.0;  stroke:#000000; stroke-width:0.000000; stroke-opacity:1;  stroke-linecap:round; stroke-linejoin:round;">
<svg:g>
</svg:g>
<svg:g>
</svg:g>
<svg:g>
</svg:g>
<svg:g>
</svg:g>
</svg:g> 
</svg:g><svg:g><svg:title>SVG Picture created as kicadBoard-F_Silkscreen.svg date 2022/11/21 15:15:45 </svg:title>
  <svg:desc>Picture generated by PCBNEW </svg:desc>
<svg:g style="fill:#000000; fill-opacity:1.000000;stroke:#000000; stroke-opacity:1.000000; stroke-linecap:round; stroke-linejoin:round;" transform="translate(0 0) scale(1 1)">
</svg:g>
<svg:g style="fill:#000000; fill-opacity:0.0;  stroke:#000000; stroke-width:0.000000; stroke-opacity:1;  stroke-linecap:round; stroke-linejoin:round;">
</svg:g>
<svg:g style="fill:#F2EDA1; fill-opacity:0.0;  stroke:#F2EDA1; stroke-width:0.000000; stroke-opacity:1;  stroke-linecap:round; stroke-linejoin:round;">
</svg:g>
<svg:g style="fill:#F2EDA1; fill-opacity:0.0;  stroke:#F2EDA1; stroke-width:150000.000000; stroke-opacity:1;  stroke-linecap:round; stroke-linejoin:round;">
<svg:text x="61250000.000000" y="47700000.000000" textLength="24142858.000000" font-size="1333333.000000" lengthAdjust="spacingAndGlyphs" text-anchor="middle" opacity="0">FZKCNJSTJSTEHB1BEHA1X1P25F</svg:text>
<svg:g class="stroked-text"><svg:desc>FZKCNJSTJSTEHB1BEHA1X1P25F</svg:desc>
<svg:path d="M49750000 47128571 L49416666 47128571 "/>
<svg:path d="M49416666 47652380 L49416666 46652380 L49892857 46652380 "/>
<svg:path d="M50178571 46652380 L50845238 46652380 L50178571 47652380 L50845238 47652380 "/>
<svg:path d="M51226190 47652380 L51226190 46652380 "/>
<svg:path d="M51797619 47652380 L51369047 47080952 "/>
<svg:path d="M51797619 46652380 L51226190 47223809 "/>
<svg:path d="M52797619 47557142 L52750000 47604761 L52607142 47652380 L52511904 47652380 L52369047 47604761 L52273809 47509523 L52226190 47414285 L52178571 47223809 L52178571 47080952 L52226190 46890476 L52273809 46795238 L52369047 46700000 L52511904 46652380 L52607142 46652380 L52750000 46700000 L52797619 46747619 "/>
<svg:path d="M53226190 47652380 L53226190 46652380 L53797619 47652380 L53797619 46652380 "/>
<svg:path d="M54559523 46652380 L54559523 47366666 L54511904 47509523 L54416666 47604761 L54273809 47652380 L54178571 47652380 "/>
<svg:path d="M54988095 47604761 L55130952 47652380 L55369047 47652380 L55464285 47604761 L55511904 47557142 L55559523 47461904 L55559523 47366666 L55511904 47271428 L55464285 47223809 L55369047 47176190 L55178571 47128571 L55083333 47080952 L55035714 47033333 L54988095 46938095 L54988095 46842857 L55035714 46747619 L55083333 46700000 L55178571 46652380 L55416666 46652380 L55559523 46700000 "/>
<svg:path d="M55845238 46652380 L56416666 46652380 "/>
<svg:path d="M56130952 47652380 L56130952 46652380 "/>
<svg:path d="M57035714 46652380 L57035714 47366666 L56988095 47509523 L56892857 47604761 L56750000 47652380 L56654761 47652380 "/>
<svg:path d="M57464285 47604761 L57607142 47652380 L57845238 47652380 L57940476 47604761 L57988095 47557142 L58035714 47461904 L58035714 47366666 L57988095 47271428 L57940476 47223809 L57845238 47176190 L57654761 47128571 L57559523 47080952 L57511904 47033333 L57464285 46938095 L57464285 46842857 L57511904 46747619 L57559523 46700000 L57654761 46652380 L57892857 46652380 L58035714 46700000 "/>
<svg:path d="M58321428 46652380 L58892857 46652380 "/>
<svg:path d="M58607142 47652380 L58607142 46652380 "/>
<svg:path d="M59226190 47128571 L59559523 47128571 "/>
<svg:path d="M59702380 47652380 L59226190 47652380 L59226190 46652380 L59702380 46652380 "/>
<svg:path d="M60130952 47652380 L60130952 46652380 "/>
<svg:path d="M60130952 47128571 L60702380 47128571 "/>
<svg:path d="M60702380 47652380 L60702380 46652380 "/>
<svg:path d="M61511904 47128571 L61654761 47176190 L61702380 47223809 L61749999 47319047 L61749999 47461904 L61702380 47557142 L61654761 47604761 L61559523 47652380 L61178571 47652380 L61178571 46652380 L61511904 46652380 L61607142 46700000 L61654761 46747619 L61702380 46842857 L61702380 46938095 L61654761 47033333 L61607142 47080952 L61511904 47128571 L61178571 47128571 "/>
<svg:path d="M62702380 47652380 L62130952 47652380 "/>
<svg:path d="M62416666 47652380 L62416666 46652380 L62321428 46795238 L62226190 46890476 L62130952 46938095 "/>
<svg:path d="M63464285 47128571 L63607142 47176190 L63654761 47223809 L63702380 47319047 L63702380 47461904 L63654761 47557142 L63607142 47604761 L63511904 47652380 L63130952 47652380 L63130952 46652380 L63464285 46652380 L63559523 46700000 L63607142 46747619 L63654761 46842857 L63654761 46938095 L63607142 47033333 L63559523 47080952 L63464285 47128571 L63130952 47128571 "/>
<svg:path d="M64130952 47128571 L64464285 47128571 "/>
<svg:path d="M64607142 47652380 L64130952 47652380 L64130952 46652380 L64607142 46652380 "/>
<svg:path d="M65035714 47652380 L65035714 46652380 "/>
<svg:path d="M65035714 47128571 L65607142 47128571 "/>
<svg:path d="M65607142 47652380 L65607142 46652380 "/>
<svg:path d="M66035714 47366666 L66511904 47366666 "/>
<svg:path d="M65940476 47652380 L66273809 46652380 L66607142 47652380 "/>
<svg:path d="M67464285 47652380 L66892857 47652380 "/>
<svg:path d="M67178571 47652380 L67178571 46652380 L67083333 46795238 L66988095 46890476 L66892857 46938095 "/>
<svg:path d="M67797619 46652380 L68464285 47652380 "/>
<svg:path d="M68464285 46652380 L67797619 47652380 "/>
<svg:path d="M69369047 47652380 L68797619 47652380 "/>
<svg:path d="M69083333 47652380 L69083333 46652380 L68988095 46795238 L68892857 46890476 L68797619 46938095 "/>
<svg:path d="M69797619 47652380 L69797619 46652380 L70178571 46652380 L70273809 46700000 L70321428 46747619 L70369047 46842857 L70369047 46985714 L70321428 47080952 L70273809 47128571 L70178571 47176190 L69797619 47176190 "/>
<svg:path d="M70749999 46747619 L70797619 46700000 L70892857 46652380 L71130952 46652380 L71226190 46700000 L71273809 46747619 L71321428 46842857 L71321428 46938095 L71273809 47080952 L70702380 47652380 L71321428 47652380 "/>
<svg:path d="M72226190 46652380 L71749999 46652380 L71702380 47128571 L71749999 47080952 L71845238 47033333 L72083333 47033333 L72178571 47080952 L72226190 47128571 L72273809 47223809 L72273809 47461904 L72226190 47557142 L72178571 47604761 L72083333 47652380 L71845238 47652380 L71749999 47604761 L71702380 47557142 "/>
<svg:path d="M73035714 47128571 L72702380 47128571 "/>
<svg:path d="M72702380 47652380 L72702380 46652380 L73178571 46652380 "/>
</svg:g></svg:g>
<svg:g style="fill:#F2EDA1; fill-opacity:0.0;  stroke:#F2EDA1; stroke-width:120000.000000; stroke-opacity:1;  stroke-linecap:round; stroke-linejoin:round;">
<svg:path d="M47090000 52610000 L49590000 52610000 "/>
<svg:path d="M74110000 50810000 L74110000 52310000 "/>
<svg:path d="M47390000 50810000 L48390000 50810000 "/>
<svg:path d="M47390000 48290000 L47390000 52310000 "/>
<svg:path d="M47090000 50110000 L47090000 52610000 "/>
<svg:path d="M75110000 52310000 L75110000 48290000 "/>
<svg:path d="M75110000 50810000 L74110000 50810000 "/>
<svg:path d="M47890000 48790000 L74610000 48790000 "/>
<svg:path d="M47390000 52310000 L75110000 52310000 "/>
<svg:path d="M74610000 50000000 L75110000 50000000 "/>
<svg:path d="M47890000 50000000 L47890000 48790000 "/>
<svg:path d="M48390000 50810000 L48390000 52310000 "/>
<svg:path d="M47390000 50000000 L47890000 50000000 "/>
<svg:path d="M74610000 48790000 L74610000 50000000 "/>
<svg:path d="M75110000 48290000 L47390000 48290000 "/>
<svg:g>
</svg:g>
<svg:g>
</svg:g>
<svg:g>
</svg:g>
<svg:g>
</svg:g>
</svg:g>
<svg:g style="fill:#000000; fill-opacity:0.0;  stroke:#000000; stroke-width:120000.000000; stroke-opacity:1;  stroke-linecap:round; stroke-linejoin:round;">
<svg:g>
</svg:g>
<svg:g>
</svg:g>
<svg:g>
</svg:g>
<svg:g>
</svg:g>
</svg:g> 
</svg:g><svg:g><svg:title>SVG Picture created as kicadBoard-Margin.svg date 2022/11/21 15:15:45 </svg:title>
  <svg:desc>Picture generated by PCBNEW </svg:desc>
<svg:g style="fill:#000000; fill-opacity:1.000000;stroke:#000000; stroke-opacity:1.000000; stroke-linecap:round; stroke-linejoin:round;" transform="translate(0 0) scale(1 1)">
</svg:g>
<svg:g style="fill:#000000; fill-opacity:0.0;  stroke:#000000; stroke-width:0.000000; stroke-opacity:1;  stroke-linecap:round; stroke-linejoin:round;">
<svg:g>
</svg:g>
<svg:g>
</svg:g>
<svg:g>
</svg:g>
<svg:g>
</svg:g>
</svg:g>
<svg:g style="fill:#000000; fill-opacity:0.0;  stroke:#000000; stroke-width:0.000000; stroke-opacity:1;  stroke-linecap:round; stroke-linejoin:round;">
<svg:g>
</svg:g>
<svg:g>
</svg:g>
<svg:g>
</svg:g>
<svg:g>
</svg:g>
</svg:g> 
</svg:g><svg:g><svg:title>SVG Picture created as kicadBoard-F_Cu.svg date 2022/11/21 15:15:45 </svg:title>
  <svg:desc>Picture generated by PCBNEW </svg:desc>
<svg:g style="fill:#000000; fill-opacity:1.000000;stroke:#000000; stroke-opacity:1.000000; stroke-linecap:round; stroke-linejoin:round;" transform="translate(0 0) scale(1 1)">
</svg:g>
<svg:g style="fill:#000000; fill-opacity:0.0;  stroke:#000000; stroke-width:0.000000; stroke-opacity:1;  stroke-linecap:round; stroke-linejoin:round;">
<svg:g>
</svg:g>
<svg:g style="fill:#C83434; fill-opacity:0.0;  stroke:#C83434; stroke-width:0.000000; stroke-opacity:1;  stroke-linecap:round; stroke-linejoin:round;">
</svg:g>
<svg:g style="fill:#C83434; fill-opacity:0.0;  stroke:#C83434; stroke-width:1.000000; stroke-opacity:1;  stroke-linecap:round; stroke-linejoin:round;">
</svg:g>
<svg:g style="fill:#C83434; fill-opacity:1.0;  stroke:#C83434; stroke-width:1.000000; stroke-opacity:1;  stroke-linecap:round; stroke-linejoin:round;">
<svg:path style="fill:#C83434; fill-opacity:1.0;  stroke:#C83434; stroke-width:1.000000; stroke-opacity:1;  stroke-linecap:round; stroke-linejoin:round;fill-rule:evenodd;" d="M 49150000.000000,49275000.000000 49169030.000000,49179329.000000 49223223.000000,49098223.000000 49304329.000000,49044030.000000 49400000.000000,49025000.000000 50600000.000000,49025000.000000 50695671.000000,49044030.000000 50776777.000000,49098223.000000 50830970.000000,49179329.000000 50850000.000000,49275000.000000 50850000.000000,50725000.000000 50830970.000000,50820671.000000 50776777.000000,50901777.000000 50695671.000000,50955970.000000 50600000.000000,50975000.000000 49400000.000000,50975000.000000 49304329.000000,50955970.000000 49223223.000000,50901777.000000 49169030.000000,50820671.000000 49150000.000000,50725000.000000 Z"/> 
</svg:g>
<svg:g style="fill:#C83434; fill-opacity:1.0;  stroke:#C83434; stroke-width:1700000.000000; stroke-opacity:1;  stroke-linecap:round; stroke-linejoin:round;">
</svg:g>
<svg:g style="fill:#C83434; fill-opacity:0.0;  stroke:#C83434; stroke-width:1700000.000000; stroke-opacity:1;  stroke-linecap:round; stroke-linejoin:round;">
<svg:path d="M52500000 49875000 L52500000 50125000 "/>
<svg:path d="M55000000 49875000 L55000000 50125000 "/>
<svg:path d="M57500000 49875000 L57500000 50125000 "/>
<svg:path d="M60000000 49875000 L60000000 50125000 "/>
<svg:path d="M62500000 49875000 L62500000 50125000 "/>
<svg:path d="M65000000 49875000 L65000000 50125000 "/>
<svg:path d="M67500000 49875000 L67500000 50125000 "/>
<svg:path d="M70000000 49875000 L70000000 50125000 "/>
<svg:path d="M72500000 49875000 L72500000 50125000 "/>
</svg:g>
<svg:g>
</svg:g>
<svg:g>
</svg:g>
<svg:g>
</svg:g>
</svg:g>
<svg:g style="fill:#FFFFFF; fill-opacity:0.0;  stroke:#FFFFFF; stroke-width:1700000.000000; stroke-opacity:1;  stroke-linecap:round; stroke-linejoin:round;">
</svg:g>
<svg:g style="fill:#FFFFFF; fill-opacity:1.0;  stroke:#FFFFFF; stroke-width:1.000000; stroke-opacity:1;  stroke-linecap:round; stroke-linejoin:round;">
<svg:circle cx="50000000.000000" cy="50000000.000000" r="475000.000000"/> 
</svg:g>
<svg:g style="fill:#FFFFFF; fill-opacity:1.0;  stroke:#FFFFFF; stroke-width:21200.000000; stroke-opacity:1;  stroke-linecap:round; stroke-linejoin:round;">
</svg:g>
<svg:g style="fill:#FFFFFF; fill-opacity:1.0;  stroke:#FFFFFF; stroke-width:1.000000; stroke-opacity:1;  stroke-linecap:round; stroke-linejoin:round;">
<svg:circle cx="52500000.000000" cy="50000000.000000" r="475000.000000"/> 
</svg:g>
<svg:g style="fill:#FFFFFF; fill-opacity:1.0;  stroke:#FFFFFF; stroke-width:21200.000000; stroke-opacity:1;  stroke-linecap:round; stroke-linejoin:round;">
</svg:g>
<svg:g style="fill:#FFFFFF; fill-opacity:1.0;  stroke:#FFFFFF; stroke-width:1.000000; stroke-opacity:1;  stroke-linecap:round; stroke-linejoin:round;">
<svg:circle cx="55000000.000000" cy="50000000.000000" r="475000.000000"/> 
</svg:g>
<svg:g style="fill:#FFFFFF; fill-opacity:1.0;  stroke:#FFFFFF; stroke-width:21200.000000; stroke-opacity:1;  stroke-linecap:round; stroke-linejoin:round;">
</svg:g>
<svg:g style="fill:#FFFFFF; fill-opacity:1.0;  stroke:#FFFFFF; stroke-width:1.000000; stroke-opacity:1;  stroke-linecap:round; stroke-linejoin:round;">
<svg:circle cx="57500000.000000" cy="50000000.000000" r="475000.000000"/> 
</svg:g>
<svg:g style="fill:#FFFFFF; fill-opacity:1.0;  stroke:#FFFFFF; stroke-width:21200.000000; stroke-opacity:1;  stroke-linecap:round; stroke-linejoin:round;">
</svg:g>
<svg:g style="fill:#FFFFFF; fill-opacity:1.0;  stroke:#FFFFFF; stroke-width:1.000000; stroke-opacity:1;  stroke-linecap:round; stroke-linejoin:round;">
<svg:circle cx="60000000.000000" cy="50000000.000000" r="475000.000000"/> 
</svg:g>
<svg:g style="fill:#FFFFFF; fill-opacity:1.0;  stroke:#FFFFFF; stroke-width:21200.000000; stroke-opacity:1;  stroke-linecap:round; stroke-linejoin:round;">
</svg:g>
<svg:g style="fill:#FFFFFF; fill-opacity:1.0;  stroke:#FFFFFF; stroke-width:1.000000; stroke-opacity:1;  stroke-linecap:round; stroke-linejoin:round;">
<svg:circle cx="62500000.000000" cy="50000000.000000" r="475000.000000"/> 
</svg:g>
<svg:g style="fill:#FFFFFF; fill-opacity:1.0;  stroke:#FFFFFF; stroke-width:21200.000000; stroke-opacity:1;  stroke-linecap:round; stroke-linejoin:round;">
</svg:g>
<svg:g style="fill:#FFFFFF; fill-opacity:1.0;  stroke:#FFFFFF; stroke-width:1.000000; stroke-opacity:1;  stroke-linecap:round; stroke-linejoin:round;">
<svg:circle cx="65000000.000000" cy="50000000.000000" r="475000.000000"/> 
</svg:g>
<svg:g style="fill:#FFFFFF; fill-opacity:1.0;  stroke:#FFFFFF; stroke-width:21200.000000; stroke-opacity:1;  stroke-linecap:round; stroke-linejoin:round;">
</svg:g>
<svg:g style="fill:#FFFFFF; fill-opacity:1.0;  stroke:#FFFFFF; stroke-width:1.000000; stroke-opacity:1;  stroke-linecap:round; stroke-linejoin:round;">
<svg:circle cx="67500000.000000" cy="50000000.000000" r="475000.000000"/> 
</svg:g>
<svg:g style="fill:#FFFFFF; fill-opacity:1.0;  stroke:#FFFFFF; stroke-width:21200.000000; stroke-opacity:1;  stroke-linecap:round; stroke-linejoin:round;">
</svg:g>
<svg:g style="fill:#FFFFFF; fill-opacity:1.0;  stroke:#FFFFFF; stroke-width:1.000000; stroke-opacity:1;  stroke-linecap:round; stroke-linejoin:round;">
<svg:circle cx="70000000.000000" cy="50000000.000000" r="475000.000000"/> 
</svg:g>
<svg:g style="fill:#FFFFFF; fill-opacity:1.0;  stroke:#FFFFFF; stroke-width:21200.000000; stroke-opacity:1;  stroke-linecap:round; stroke-linejoin:round;">
</svg:g>
<svg:g style="fill:#FFFFFF; fill-opacity:1.0;  stroke:#FFFFFF; stroke-width:1.000000; stroke-opacity:1;  stroke-linecap:round; stroke-linejoin:round;">
<svg:circle cx="72500000.000000" cy="50000000.000000" r="475000.000000"/> 
</svg:g>
<svg:g style="fill:#FFFFFF; fill-opacity:1.0;  stroke:#FFFFFF; stroke-width:21200.000000; stroke-opacity:1;  stroke-linecap:round; stroke-linejoin:round;">
</svg:g>
<svg:g style="fill:#000000; fill-opacity:1.0;  stroke:#000000; stroke-width:21200.000000; stroke-opacity:1;  stroke-linecap:round; stroke-linejoin:round;">
<svg:g>
</svg:g>
<svg:g>
</svg:g>
<svg:g>
</svg:g>
<svg:g>
</svg:g>
</svg:g> 
</svg:g></svg>
