<?xml version='1.0' encoding='ASCII' standalone='yes'?>
<svg xmlns:svg="http://www.w3.org/2000/svg" xmlns="http://www.w3.org/2000/svg" xmlns:xlink="http://www.w3.org/1999/xlink" version="1.1" width="9.999980cm" height="9.999980cm" viewBox="0 0 99999800 99999800">
<title>SVG Picture created as kicadBoard-B_Cu.svg date 2022/11/16 06:03:07 </title>
  <desc>Picture generated by PCBNEW </desc>
<g style="fill:#000000; fill-opacity:1.000000;stroke:#000000; stroke-opacity:1.000000; stroke-linecap:round; stroke-linejoin:round;" transform="translate(0 0) scale(1 1)">
</g>
<g style="fill:#000000; fill-opacity:0.0;  stroke:#000000; stroke-width:0.000000; stroke-opacity:1;  stroke-linecap:round; stroke-linejoin:round;">
<g>
</g>
<g>
</g>
<g>
</g>
<g>
</g>
</g>
<g style="fill:#FFFFFF; fill-opacity:0.0;  stroke:#FFFFFF; stroke-width:0.000000; stroke-opacity:1;  stroke-linecap:round; stroke-linejoin:round;">
</g>
<g style="fill:#000000; fill-opacity:0.0;  stroke:#000000; stroke-width:0.000000; stroke-opacity:1;  stroke-linecap:round; stroke-linejoin:round;">
<g>
</g>
<g>
</g>
<g>
</g>
<g>
</g>
</g> 
<svg:g><svg:title>SVG Picture created as kicadBoard-B_Adhesive.svg date 2022/11/16 06:03:07 </svg:title>
  <svg:desc>Picture generated by PCBNEW </svg:desc>
<svg:g style="fill:#000000; fill-opacity:1.000000;stroke:#000000; stroke-opacity:1.000000; stroke-linecap:round; stroke-linejoin:round;" transform="translate(0 0) scale(1 1)">
</svg:g>
<svg:g style="fill:#000000; fill-opacity:0.0;  stroke:#000000; stroke-width:0.000000; stroke-opacity:1;  stroke-linecap:round; stroke-linejoin:round;">
<svg:g>
</svg:g>
<svg:g>
</svg:g>
<svg:g>
</svg:g>
<svg:g>
</svg:g>
</svg:g>
<svg:g style="fill:#000000; fill-opacity:0.0;  stroke:#000000; stroke-width:0.000000; stroke-opacity:1;  stroke-linecap:round; stroke-linejoin:round;">
<svg:g>
</svg:g>
<svg:g>
</svg:g>
<svg:g>
</svg:g>
<svg:g>
</svg:g>
</svg:g> 
</svg:g><svg:g><svg:title>SVG Picture created as kicadBoard-B_Courtyard.svg date 2022/11/16 06:03:07 </svg:title>
  <svg:desc>Picture generated by PCBNEW </svg:desc>
<svg:g style="fill:#000000; fill-opacity:1.000000;stroke:#000000; stroke-opacity:1.000000; stroke-linecap:round; stroke-linejoin:round;" transform="translate(0 0) scale(1 1)">
</svg:g>
<svg:g style="fill:#000000; fill-opacity:0.0;  stroke:#000000; stroke-width:0.000000; stroke-opacity:1;  stroke-linecap:round; stroke-linejoin:round;">
<svg:g>
</svg:g>
<svg:g>
</svg:g>
<svg:g>
</svg:g>
<svg:g>
</svg:g>
</svg:g>
<svg:g style="fill:#000000; fill-opacity:0.0;  stroke:#000000; stroke-width:0.000000; stroke-opacity:1;  stroke-linecap:round; stroke-linejoin:round;">
<svg:g>
</svg:g>
<svg:g>
</svg:g>
<svg:g>
</svg:g>
<svg:g>
</svg:g>
</svg:g> 
</svg:g><svg:g><svg:title>SVG Picture created as kicadBoard-B_Fab.svg date 2022/11/16 06:03:07 </svg:title>
  <svg:desc>Picture generated by PCBNEW </svg:desc>
<svg:g style="fill:#000000; fill-opacity:1.000000;stroke:#000000; stroke-opacity:1.000000; stroke-linecap:round; stroke-linejoin:round;" transform="translate(0 0) scale(1 1)">
</svg:g>
<svg:g style="fill:#000000; fill-opacity:0.0;  stroke:#000000; stroke-width:0.000000; stroke-opacity:1;  stroke-linecap:round; stroke-linejoin:round;">
<svg:g>
</svg:g>
<svg:g>
</svg:g>
<svg:g>
</svg:g>
<svg:g>
</svg:g>
</svg:g>
<svg:g style="fill:#000000; fill-opacity:0.0;  stroke:#000000; stroke-width:0.000000; stroke-opacity:1;  stroke-linecap:round; stroke-linejoin:round;">
<svg:g>
</svg:g>
<svg:g>
</svg:g>
<svg:g>
</svg:g>
<svg:g>
</svg:g>
</svg:g> 
</svg:g><svg:g><svg:title>SVG Picture created as kicadBoard-B_Mask.svg date 2022/11/16 06:03:07 </svg:title>
  <svg:desc>Picture generated by PCBNEW </svg:desc>
<svg:g style="fill:#000000; fill-opacity:1.000000;stroke:#000000; stroke-opacity:1.000000; stroke-linecap:round; stroke-linejoin:round;" transform="translate(0 0) scale(1 1)">
</svg:g>
<svg:g style="fill:#000000; fill-opacity:0.0;  stroke:#000000; stroke-width:0.000000; stroke-opacity:1;  stroke-linecap:round; stroke-linejoin:round;">
<svg:g>
</svg:g>
<svg:g>
</svg:g>
<svg:g>
</svg:g>
<svg:g>
</svg:g>
</svg:g>
<svg:g style="fill:#000000; fill-opacity:0.0;  stroke:#000000; stroke-width:0.000000; stroke-opacity:1;  stroke-linecap:round; stroke-linejoin:round;">
<svg:g>
</svg:g>
<svg:g>
</svg:g>
<svg:g>
</svg:g>
<svg:g>
</svg:g>
</svg:g> 
</svg:g><svg:g><svg:title>SVG Picture created as kicadBoard-B_Paste.svg date 2022/11/16 06:03:07 </svg:title>
  <svg:desc>Picture generated by PCBNEW </svg:desc>
<svg:g style="fill:#000000; fill-opacity:1.000000;stroke:#000000; stroke-opacity:1.000000; stroke-linecap:round; stroke-linejoin:round;" transform="translate(0 0) scale(1 1)">
</svg:g>
<svg:g style="fill:#000000; fill-opacity:0.0;  stroke:#000000; stroke-width:0.000000; stroke-opacity:1;  stroke-linecap:round; stroke-linejoin:round;">
<svg:g>
</svg:g>
<svg:g>
</svg:g>
<svg:g>
</svg:g>
<svg:g>
</svg:g>
</svg:g>
<svg:g style="fill:#000000; fill-opacity:0.0;  stroke:#000000; stroke-width:0.000000; stroke-opacity:1;  stroke-linecap:round; stroke-linejoin:round;">
<svg:g>
</svg:g>
<svg:g>
</svg:g>
<svg:g>
</svg:g>
<svg:g>
</svg:g>
</svg:g> 
</svg:g><svg:g><svg:title>SVG Picture created as kicadBoard-B_Silkscreen.svg date 2022/11/16 06:03:07 </svg:title>
  <svg:desc>Picture generated by PCBNEW </svg:desc>
<svg:g style="fill:#000000; fill-opacity:1.000000;stroke:#000000; stroke-opacity:1.000000; stroke-linecap:round; stroke-linejoin:round;" transform="translate(0 0) scale(1 1)">
</svg:g>
<svg:g style="fill:#000000; fill-opacity:0.0;  stroke:#000000; stroke-width:0.000000; stroke-opacity:1;  stroke-linecap:round; stroke-linejoin:round;">
<svg:g>
</svg:g>
<svg:g>
</svg:g>
<svg:g>
</svg:g>
<svg:g>
</svg:g>
</svg:g>
<svg:g style="fill:#000000; fill-opacity:0.0;  stroke:#000000; stroke-width:0.000000; stroke-opacity:1;  stroke-linecap:round; stroke-linejoin:round;">
<svg:g>
</svg:g>
<svg:g>
</svg:g>
<svg:g>
</svg:g>
<svg:g>
</svg:g>
</svg:g> 
</svg:g><svg:g><svg:title>SVG Picture created as kicadBoard-Edge_Cuts.svg date 2022/11/16 06:03:07 </svg:title>
  <svg:desc>Picture generated by PCBNEW </svg:desc>
<svg:g style="fill:#000000; fill-opacity:1.000000;stroke:#000000; stroke-opacity:1.000000; stroke-linecap:round; stroke-linejoin:round;" transform="translate(0 0) scale(1 1)">
</svg:g>
<svg:g style="fill:#000000; fill-opacity:0.0;  stroke:#000000; stroke-width:0.000000; stroke-opacity:1;  stroke-linecap:round; stroke-linejoin:round;">
<svg:g>
</svg:g>
<svg:g>
</svg:g>
<svg:g>
</svg:g>
<svg:g>
</svg:g>
</svg:g> 
</svg:g><svg:g><svg:title>SVG Picture created as kicadBoard-F_Adhesive.svg date 2022/11/16 06:03:07 </svg:title>
  <svg:desc>Picture generated by PCBNEW </svg:desc>
<svg:g style="fill:#000000; fill-opacity:1.000000;stroke:#000000; stroke-opacity:1.000000; stroke-linecap:round; stroke-linejoin:round;" transform="translate(0 0) scale(1 1)">
</svg:g>
<svg:g style="fill:#000000; fill-opacity:0.0;  stroke:#000000; stroke-width:0.000000; stroke-opacity:1;  stroke-linecap:round; stroke-linejoin:round;">
<svg:g>
</svg:g>
<svg:g>
</svg:g>
<svg:g>
</svg:g>
<svg:g>
</svg:g>
</svg:g>
<svg:g style="fill:#000000; fill-opacity:0.0;  stroke:#000000; stroke-width:0.000000; stroke-opacity:1;  stroke-linecap:round; stroke-linejoin:round;">
<svg:g>
</svg:g>
<svg:g>
</svg:g>
<svg:g>
</svg:g>
<svg:g>
</svg:g>
</svg:g> 
</svg:g><svg:g><svg:title>SVG Picture created as kicadBoard-F_Courtyard.svg date 2022/11/16 06:03:07 </svg:title>
  <svg:desc>Picture generated by PCBNEW </svg:desc>
<svg:g style="fill:#000000; fill-opacity:1.000000;stroke:#000000; stroke-opacity:1.000000; stroke-linecap:round; stroke-linejoin:round;" transform="translate(0 0) scale(1 1)">
</svg:g>
<svg:g style="fill:#000000; fill-opacity:0.0;  stroke:#000000; stroke-width:0.000000; stroke-opacity:1;  stroke-linecap:round; stroke-linejoin:round;">
<svg:g>
</svg:g>
<svg:g>
</svg:g>
<svg:g>
</svg:g>
<svg:g>
</svg:g>
</svg:g>
<svg:g style="fill:#000000; fill-opacity:0.0;  stroke:#000000; stroke-width:0.000000; stroke-opacity:1;  stroke-linecap:round; stroke-linejoin:round;">
<svg:g>
</svg:g>
<svg:g>
</svg:g>
<svg:g>
</svg:g>
<svg:g>
</svg:g>
</svg:g> 
</svg:g><svg:g><svg:title>SVG Picture created as kicadBoard-F_Fab.svg date 2022/11/16 06:03:07 </svg:title>
  <svg:desc>Picture generated by PCBNEW </svg:desc>
<svg:g style="fill:#000000; fill-opacity:1.000000;stroke:#000000; stroke-opacity:1.000000; stroke-linecap:round; stroke-linejoin:round;" transform="translate(0 0) scale(1 1)">
</svg:g>
<svg:g style="fill:#000000; fill-opacity:0.0;  stroke:#000000; stroke-width:0.000000; stroke-opacity:1;  stroke-linecap:round; stroke-linejoin:round;">
</svg:g>
<svg:g style="fill:#AFAFAF; fill-opacity:0.0;  stroke:#AFAFAF; stroke-width:0.000000; stroke-opacity:1;  stroke-linecap:round; stroke-linejoin:round;">
</svg:g>
<svg:g style="fill:#AFAFAF; fill-opacity:0.0;  stroke:#AFAFAF; stroke-width:101600.000000; stroke-opacity:1;  stroke-linecap:round; stroke-linejoin:round;">
<svg:text x="47460000.000000" y="51905000.000000" textLength="6808651.000000" font-size="1557866.000000" lengthAdjust="spacingAndGlyphs" text-anchor="start" opacity="0">&gt;VALUE</svg:text>
<svg:g class="stroked-text"><svg:desc>&gt;VALUE</svg:desc>
<svg:path d="M47804230 51070428 L48694440 51404257 L47804230 51738085 "/>
<svg:path d="M49083906 50680961 L49473373 51849361 L49862840 50680961 "/>
<svg:path d="M50196668 51515533 L50753049 51515533 "/>
<svg:path d="M50085392 51849361 L50474859 50680961 L50864325 51849361 "/>
<svg:path d="M51810173 51849361 L51253792 51849361 L51253792 50680961 "/>
<svg:path d="M52199640 50680961 L52199640 51626809 L52255278 51738085 L52310916 51793723 L52422192 51849361 L52644744 51849361 L52756020 51793723 L52811659 51738085 L52867297 51626809 L52867297 50680961 "/>
<svg:path d="M53423678 51237342 L53813144 51237342 "/>
<svg:path d="M53980059 51849361 L53423678 51849361 L53423678 50680961 L53980059 50680961 "/>
</svg:g></svg:g>
<svg:g style="fill:#AFAFAF; fill-opacity:1.0;  stroke:#AFAFAF; stroke-width:1.000000; stroke-opacity:1;  stroke-linecap:round; stroke-linejoin:round;">
<svg:path style="fill:#AFAFAF; fill-opacity:1.0;  stroke:#AFAFAF; stroke-width:1.000000; stroke-opacity:1;  stroke-linecap:round; stroke-linejoin:round;fill-rule:evenodd;" d="M 47225000.000000,46550000.000000 46925000.000000,46550000.000000 46925000.000000,45800000.000000 47225000.000000,45800000.000000 Z"/> 
<svg:path style="fill:#AFAFAF; fill-opacity:1.0;  stroke:#AFAFAF; stroke-width:1.000000; stroke-opacity:1;  stroke-linecap:round; stroke-linejoin:round;fill-rule:evenodd;" d="M 47875000.000000,54200000.000000 47575000.000000,54200000.000000 47575000.000000,53450000.000000 47875000.000000,53450000.000000 Z"/> 
<svg:path style="fill:#AFAFAF; fill-opacity:1.0;  stroke:#AFAFAF; stroke-width:1.000000; stroke-opacity:1;  stroke-linecap:round; stroke-linejoin:round;fill-rule:evenodd;" d="M 49825000.000000,54200000.000000 49525000.000000,54200000.000000 49525000.000000,53450000.000000 49825000.000000,53450000.000000 Z"/> 
<svg:path style="fill:#AFAFAF; fill-opacity:1.0;  stroke:#AFAFAF; stroke-width:1.000000; stroke-opacity:1;  stroke-linecap:round; stroke-linejoin:round;fill-rule:evenodd;" d="M 45925000.000000,54200000.000000 45625000.000000,54200000.000000 45625000.000000,53450000.000000 45925000.000000,53450000.000000 Z"/> 
<svg:path style="fill:#AFAFAF; fill-opacity:1.0;  stroke:#AFAFAF; stroke-width:1.000000; stroke-opacity:1;  stroke-linecap:round; stroke-linejoin:round;fill-rule:evenodd;" d="M 55025000.000000,54200000.000000 54725000.000000,54200000.000000 54725000.000000,53450000.000000 55025000.000000,53450000.000000 Z"/> 
<svg:path style="fill:#AFAFAF; fill-opacity:1.0;  stroke:#AFAFAF; stroke-width:1.000000; stroke-opacity:1;  stroke-linecap:round; stroke-linejoin:round;fill-rule:evenodd;" d="M 49175000.000000,46550000.000000 48875000.000000,46550000.000000 48875000.000000,45800000.000000 49175000.000000,45800000.000000 Z"/> 
<svg:path style="fill:#AFAFAF; fill-opacity:1.0;  stroke:#AFAFAF; stroke-width:1.000000; stroke-opacity:1;  stroke-linecap:round; stroke-linejoin:round;fill-rule:evenodd;" d="M 53075000.000000,54200000.000000 52775000.000000,54200000.000000 52775000.000000,53450000.000000 53075000.000000,53450000.000000 Z"/> 
<svg:path style="fill:#AFAFAF; fill-opacity:1.0;  stroke:#AFAFAF; stroke-width:1.000000; stroke-opacity:1;  stroke-linecap:round; stroke-linejoin:round;fill-rule:evenodd;" d="M 53075000.000000,46550000.000000 52775000.000000,46550000.000000 52775000.000000,45800000.000000 53075000.000000,45800000.000000 Z"/> 
<svg:path style="fill:#AFAFAF; fill-opacity:1.0;  stroke:#AFAFAF; stroke-width:1.000000; stroke-opacity:1;  stroke-linecap:round; stroke-linejoin:round;fill-rule:evenodd;" d="M 51775000.000000,46550000.000000 51475000.000000,46550000.000000 51475000.000000,45800000.000000 51775000.000000,45800000.000000 Z"/> 
<svg:path style="fill:#AFAFAF; fill-opacity:1.0;  stroke:#AFAFAF; stroke-width:1.000000; stroke-opacity:1;  stroke-linecap:round; stroke-linejoin:round;fill-rule:evenodd;" d="M 52425000.000000,46550000.000000 52125000.000000,46550000.000000 52125000.000000,45800000.000000 52425000.000000,45800000.000000 Z"/> 
<svg:path style="fill:#AFAFAF; fill-opacity:1.0;  stroke:#AFAFAF; stroke-width:1.000000; stroke-opacity:1;  stroke-linecap:round; stroke-linejoin:round;fill-rule:evenodd;" d="M 47875000.000000,46550000.000000 47575000.000000,46550000.000000 47575000.000000,45800000.000000 47875000.000000,45800000.000000 Z"/> 
<svg:path style="fill:#AFAFAF; fill-opacity:1.0;  stroke:#AFAFAF; stroke-width:1.000000; stroke-opacity:1;  stroke-linecap:round; stroke-linejoin:round;fill-rule:evenodd;" d="M 50475000.000000,46550000.000000 50175000.000000,46550000.000000 50175000.000000,45800000.000000 50475000.000000,45800000.000000 Z"/> 
<svg:path style="fill:#AFAFAF; fill-opacity:1.0;  stroke:#AFAFAF; stroke-width:1.000000; stroke-opacity:1;  stroke-linecap:round; stroke-linejoin:round;fill-rule:evenodd;" d="M 48525000.000000,46550000.000000 48225000.000000,46550000.000000 48225000.000000,45800000.000000 48525000.000000,45800000.000000 Z"/> 
<svg:path style="fill:#AFAFAF; fill-opacity:1.0;  stroke:#AFAFAF; stroke-width:1.000000; stroke-opacity:1;  stroke-linecap:round; stroke-linejoin:round;fill-rule:evenodd;" d="M 54375000.000000,54200000.000000 54075000.000000,54200000.000000 54075000.000000,53450000.000000 54375000.000000,53450000.000000 Z"/> 
<svg:path style="fill:#AFAFAF; fill-opacity:1.0;  stroke:#AFAFAF; stroke-width:1.000000; stroke-opacity:1;  stroke-linecap:round; stroke-linejoin:round;fill-rule:evenodd;" d="M 45275000.000000,54200000.000000 44975000.000000,54200000.000000 44975000.000000,53450000.000000 45275000.000000,53450000.000000 Z"/> 
<svg:path style="fill:#AFAFAF; fill-opacity:1.0;  stroke:#AFAFAF; stroke-width:1.000000; stroke-opacity:1;  stroke-linecap:round; stroke-linejoin:round;fill-rule:evenodd;" d="M 48525000.000000,54200000.000000 48225000.000000,54200000.000000 48225000.000000,53450000.000000 48525000.000000,53450000.000000 Z"/> 
<svg:path style="fill:#AFAFAF; fill-opacity:1.0;  stroke:#AFAFAF; stroke-width:1.000000; stroke-opacity:1;  stroke-linecap:round; stroke-linejoin:round;fill-rule:evenodd;" d="M 51775000.000000,54200000.000000 51475000.000000,54200000.000000 51475000.000000,53450000.000000 51775000.000000,53450000.000000 Z"/> 
<svg:path style="fill:#AFAFAF; fill-opacity:1.0;  stroke:#AFAFAF; stroke-width:1.000000; stroke-opacity:1;  stroke-linecap:round; stroke-linejoin:round;fill-rule:evenodd;" d="M 49825000.000000,46550000.000000 49525000.000000,46550000.000000 49525000.000000,45800000.000000 49825000.000000,45800000.000000 Z"/> 
<svg:path style="fill:#AFAFAF; fill-opacity:1.0;  stroke:#AFAFAF; stroke-width:1.000000; stroke-opacity:1;  stroke-linecap:round; stroke-linejoin:round;fill-rule:evenodd;" d="M 50475000.000000,54200000.000000 50175000.000000,54200000.000000 50175000.000000,53450000.000000 50475000.000000,53450000.000000 Z"/> 
<svg:path style="fill:#AFAFAF; fill-opacity:1.0;  stroke:#AFAFAF; stroke-width:1.000000; stroke-opacity:1;  stroke-linecap:round; stroke-linejoin:round;fill-rule:evenodd;" d="M 45275000.000000,46550000.000000 44975000.000000,46550000.000000 44975000.000000,45800000.000000 45275000.000000,45800000.000000 Z"/> 
<svg:path style="fill:#AFAFAF; fill-opacity:1.0;  stroke:#AFAFAF; stroke-width:1.000000; stroke-opacity:1;  stroke-linecap:round; stroke-linejoin:round;fill-rule:evenodd;" d="M 49175000.000000,54200000.000000 48875000.000000,54200000.000000 48875000.000000,53450000.000000 49175000.000000,53450000.000000 Z"/> 
<svg:path style="fill:#AFAFAF; fill-opacity:1.0;  stroke:#AFAFAF; stroke-width:1.000000; stroke-opacity:1;  stroke-linecap:round; stroke-linejoin:round;fill-rule:evenodd;" d="M 45925000.000000,46550000.000000 45625000.000000,46550000.000000 45625000.000000,45800000.000000 45925000.000000,45800000.000000 Z"/> 
<svg:path style="fill:#AFAFAF; fill-opacity:1.0;  stroke:#AFAFAF; stroke-width:1.000000; stroke-opacity:1;  stroke-linecap:round; stroke-linejoin:round;fill-rule:evenodd;" d="M 47225000.000000,54200000.000000 46925000.000000,54200000.000000 46925000.000000,53450000.000000 47225000.000000,53450000.000000 Z"/> 
<svg:path style="fill:#AFAFAF; fill-opacity:1.0;  stroke:#AFAFAF; stroke-width:1.000000; stroke-opacity:1;  stroke-linecap:round; stroke-linejoin:round;fill-rule:evenodd;" d="M 46575000.000000,46550000.000000 46275000.000000,46550000.000000 46275000.000000,45800000.000000 46575000.000000,45800000.000000 Z"/> 
<svg:path style="fill:#AFAFAF; fill-opacity:1.0;  stroke:#AFAFAF; stroke-width:1.000000; stroke-opacity:1;  stroke-linecap:round; stroke-linejoin:round;fill-rule:evenodd;" d="M 53725000.000000,54200000.000000 53425000.000000,54200000.000000 53425000.000000,53450000.000000 53725000.000000,53450000.000000 Z"/> 
<svg:path style="fill:#AFAFAF; fill-opacity:1.0;  stroke:#AFAFAF; stroke-width:1.000000; stroke-opacity:1;  stroke-linecap:round; stroke-linejoin:round;fill-rule:evenodd;" d="M 55025000.000000,46550000.000000 54725000.000000,46550000.000000 54725000.000000,45800000.000000 55025000.000000,45800000.000000 Z"/> 
<svg:path style="fill:#AFAFAF; fill-opacity:1.0;  stroke:#AFAFAF; stroke-width:1.000000; stroke-opacity:1;  stroke-linecap:round; stroke-linejoin:round;fill-rule:evenodd;" d="M 52425000.000000,54200000.000000 52125000.000000,54200000.000000 52125000.000000,53450000.000000 52425000.000000,53450000.000000 Z"/> 
<svg:path style="fill:#AFAFAF; fill-opacity:1.0;  stroke:#AFAFAF; stroke-width:1.000000; stroke-opacity:1;  stroke-linecap:round; stroke-linejoin:round;fill-rule:evenodd;" d="M 54375000.000000,46550000.000000 54075000.000000,46550000.000000 54075000.000000,45800000.000000 54375000.000000,45800000.000000 Z"/> 
<svg:path style="fill:#AFAFAF; fill-opacity:1.0;  stroke:#AFAFAF; stroke-width:1.000000; stroke-opacity:1;  stroke-linecap:round; stroke-linejoin:round;fill-rule:evenodd;" d="M 51125000.000000,46550000.000000 50825000.000000,46550000.000000 50825000.000000,45800000.000000 51125000.000000,45800000.000000 Z"/> 
<svg:path style="fill:#AFAFAF; fill-opacity:1.0;  stroke:#AFAFAF; stroke-width:1.000000; stroke-opacity:1;  stroke-linecap:round; stroke-linejoin:round;fill-rule:evenodd;" d="M 51125000.000000,54200000.000000 50825000.000000,54200000.000000 50825000.000000,53450000.000000 51125000.000000,53450000.000000 Z"/> 
<svg:path style="fill:#AFAFAF; fill-opacity:1.0;  stroke:#AFAFAF; stroke-width:1.000000; stroke-opacity:1;  stroke-linecap:round; stroke-linejoin:round;fill-rule:evenodd;" d="M 53725000.000000,46550000.000000 53425000.000000,46550000.000000 53425000.000000,45800000.000000 53725000.000000,45800000.000000 Z"/> 
<svg:path style="fill:#AFAFAF; fill-opacity:1.0;  stroke:#AFAFAF; stroke-width:1.000000; stroke-opacity:1;  stroke-linecap:round; stroke-linejoin:round;fill-rule:evenodd;" d="M 46575000.000000,54200000.000000 46275000.000000,54200000.000000 46275000.000000,53450000.000000 46575000.000000,53450000.000000 Z"/> 
<svg:g>
</svg:g>
<svg:g>
</svg:g>
<svg:g>
</svg:g>
<svg:g>
</svg:g>
</svg:g>
<svg:g style="fill:#000000; fill-opacity:1.0;  stroke:#000000; stroke-width:1.000000; stroke-opacity:1;  stroke-linecap:round; stroke-linejoin:round;">
<svg:g>
</svg:g>
<svg:g>
</svg:g>
<svg:g>
</svg:g>
<svg:g>
</svg:g>
</svg:g> 
</svg:g><svg:g><svg:title>SVG Picture created as kicadBoard-F_Mask.svg date 2022/11/16 06:03:07 </svg:title>
  <svg:desc>Picture generated by PCBNEW </svg:desc>
<svg:g style="fill:#000000; fill-opacity:1.000000;stroke:#000000; stroke-opacity:1.000000; stroke-linecap:round; stroke-linejoin:round;" transform="translate(0 0) scale(1 1)">
</svg:g>
<svg:g style="fill:#000000; fill-opacity:0.0;  stroke:#000000; stroke-width:0.000000; stroke-opacity:1;  stroke-linecap:round; stroke-linejoin:round;">
</svg:g>
<svg:g style="fill:#D864FF; fill-opacity:0.0;  stroke:#D864FF; stroke-width:0.000000; stroke-opacity:1;  stroke-linecap:round; stroke-linejoin:round;">
</svg:g>
<svg:g style="fill:#D864FF; fill-opacity:1.0;  stroke:#D864FF; stroke-width:1.000000; stroke-opacity:1;  stroke-linecap:round; stroke-linejoin:round;">
<svg:path style="fill:#D864FF; fill-opacity:1.0;  stroke:#D864FF; stroke-width:1.000000; stroke-opacity:1;  stroke-linecap:round; stroke-linejoin:round;fill-rule:evenodd;" d="M 52263500.000000,52163500.000000 47736500.000000,52163500.000000 47736500.000000,47836500.000000 52263500.000000,47836500.000000 Z"/> 
<svg:g>
</svg:g>
<svg:g style="fill:#000000; fill-opacity:1.0;  stroke:#000000; stroke-width:1.000000; stroke-opacity:1;  stroke-linecap:round; stroke-linejoin:round;">
<svg:path style="fill:#000000; fill-opacity:1.0;  stroke:#000000; stroke-width:1.000000; stroke-opacity:1;  stroke-linecap:round; stroke-linejoin:round;fill-rule:evenodd;" d="M 44873400.000000,52850000.000000 44881134.000000,52811119.000000 44903158.000000,52778158.000000 44936119.000000,52756134.000000 44975000.000000,52748400.000000 45275000.000000,52748400.000000 45313881.000000,52756134.000000 45346842.000000,52778158.000000 45368866.000000,52811119.000000 45376600.000000,52850000.000000 45376600.000000,54650000.000000 45368866.000000,54688881.000000 45346842.000000,54721842.000000 45313881.000000,54743866.000000 45275000.000000,54751600.000000 44975000.000000,54751600.000000 44936119.000000,54743866.000000 44903158.000000,54721842.000000 44881134.000000,54688881.000000 44873400.000000,54650000.000000 Z"/> 
<svg:path style="fill:#000000; fill-opacity:1.0;  stroke:#000000; stroke-width:1.000000; stroke-opacity:1;  stroke-linecap:round; stroke-linejoin:round;fill-rule:evenodd;" d="M 45523400.000000,52850000.000000 45531134.000000,52811119.000000 45553158.000000,52778158.000000 45586119.000000,52756134.000000 45625000.000000,52748400.000000 45925000.000000,52748400.000000 45963881.000000,52756134.000000 45996842.000000,52778158.000000 46018866.000000,52811119.000000 46026600.000000,52850000.000000 46026600.000000,54650000.000000 46018866.000000,54688881.000000 45996842.000000,54721842.000000 45963881.000000,54743866.000000 45925000.000000,54751600.000000 45625000.000000,54751600.000000 45586119.000000,54743866.000000 45553158.000000,54721842.000000 45531134.000000,54688881.000000 45523400.000000,54650000.000000 Z"/> 
<svg:path style="fill:#000000; fill-opacity:1.0;  stroke:#000000; stroke-width:1.000000; stroke-opacity:1;  stroke-linecap:round; stroke-linejoin:round;fill-rule:evenodd;" d="M 46173400.000000,52850000.000000 46181134.000000,52811119.000000 46203158.000000,52778158.000000 46236119.000000,52756134.000000 46275000.000000,52748400.000000 46575000.000000,52748400.000000 46613881.000000,52756134.000000 46646842.000000,52778158.000000 46668866.000000,52811119.000000 46676600.000000,52850000.000000 46676600.000000,54650000.000000 46668866.000000,54688881.000000 46646842.000000,54721842.000000 46613881.000000,54743866.000000 46575000.000000,54751600.000000 46275000.000000,54751600.000000 46236119.000000,54743866.000000 46203158.000000,54721842.000000 46181134.000000,54688881.000000 46173400.000000,54650000.000000 Z"/> 
<svg:path style="fill:#000000; fill-opacity:1.0;  stroke:#000000; stroke-width:1.000000; stroke-opacity:1;  stroke-linecap:round; stroke-linejoin:round;fill-rule:evenodd;" d="M 46823400.000000,52850000.000000 46831134.000000,52811119.000000 46853158.000000,52778158.000000 46886119.000000,52756134.000000 46925000.000000,52748400.000000 47225000.000000,52748400.000000 47263881.000000,52756134.000000 47296842.000000,52778158.000000 47318866.000000,52811119.000000 47326600.000000,52850000.000000 47326600.000000,54650000.000000 47318866.000000,54688881.000000 47296842.000000,54721842.000000 47263881.000000,54743866.000000 47225000.000000,54751600.000000 46925000.000000,54751600.000000 46886119.000000,54743866.000000 46853158.000000,54721842.000000 46831134.000000,54688881.000000 46823400.000000,54650000.000000 Z"/> 
<svg:path style="fill:#000000; fill-opacity:1.0;  stroke:#000000; stroke-width:1.000000; stroke-opacity:1;  stroke-linecap:round; stroke-linejoin:round;fill-rule:evenodd;" d="M 47473400.000000,52850000.000000 47481134.000000,52811119.000000 47503158.000000,52778158.000000 47536119.000000,52756134.000000 47575000.000000,52748400.000000 47875000.000000,52748400.000000 47913881.000000,52756134.000000 47946842.000000,52778158.000000 47968866.000000,52811119.000000 47976600.000000,52850000.000000 47976600.000000,54650000.000000 47968866.000000,54688881.000000 47946842.000000,54721842.000000 47913881.000000,54743866.000000 47875000.000000,54751600.000000 47575000.000000,54751600.000000 47536119.000000,54743866.000000 47503158.000000,54721842.000000 47481134.000000,54688881.000000 47473400.000000,54650000.000000 Z"/> 
<svg:path style="fill:#000000; fill-opacity:1.0;  stroke:#000000; stroke-width:1.000000; stroke-opacity:1;  stroke-linecap:round; stroke-linejoin:round;fill-rule:evenodd;" d="M 48123400.000000,52850000.000000 48131134.000000,52811119.000000 48153158.000000,52778158.000000 48186119.000000,52756134.000000 48225000.000000,52748400.000000 48525000.000000,52748400.000000 48563881.000000,52756134.000000 48596842.000000,52778158.000000 48618866.000000,52811119.000000 48626600.000000,52850000.000000 48626600.000000,54650000.000000 48618866.000000,54688881.000000 48596842.000000,54721842.000000 48563881.000000,54743866.000000 48525000.000000,54751600.000000 48225000.000000,54751600.000000 48186119.000000,54743866.000000 48153158.000000,54721842.000000 48131134.000000,54688881.000000 48123400.000000,54650000.000000 Z"/> 
<svg:path style="fill:#000000; fill-opacity:1.0;  stroke:#000000; stroke-width:1.000000; stroke-opacity:1;  stroke-linecap:round; stroke-linejoin:round;fill-rule:evenodd;" d="M 48773400.000000,52850000.000000 48781134.000000,52811119.000000 48803158.000000,52778158.000000 48836119.000000,52756134.000000 48875000.000000,52748400.000000 49175000.000000,52748400.000000 49213881.000000,52756134.000000 49246842.000000,52778158.000000 49268866.000000,52811119.000000 49276600.000000,52850000.000000 49276600.000000,54650000.000000 49268866.000000,54688881.000000 49246842.000000,54721842.000000 49213881.000000,54743866.000000 49175000.000000,54751600.000000 48875000.000000,54751600.000000 48836119.000000,54743866.000000 48803158.000000,54721842.000000 48781134.000000,54688881.000000 48773400.000000,54650000.000000 Z"/> 
<svg:path style="fill:#000000; fill-opacity:1.0;  stroke:#000000; stroke-width:1.000000; stroke-opacity:1;  stroke-linecap:round; stroke-linejoin:round;fill-rule:evenodd;" d="M 49423400.000000,52850000.000000 49431134.000000,52811119.000000 49453158.000000,52778158.000000 49486119.000000,52756134.000000 49525000.000000,52748400.000000 49825000.000000,52748400.000000 49863881.000000,52756134.000000 49896842.000000,52778158.000000 49918866.000000,52811119.000000 49926600.000000,52850000.000000 49926600.000000,54650000.000000 49918866.000000,54688881.000000 49896842.000000,54721842.000000 49863881.000000,54743866.000000 49825000.000000,54751600.000000 49525000.000000,54751600.000000 49486119.000000,54743866.000000 49453158.000000,54721842.000000 49431134.000000,54688881.000000 49423400.000000,54650000.000000 Z"/> 
<svg:path style="fill:#000000; fill-opacity:1.0;  stroke:#000000; stroke-width:1.000000; stroke-opacity:1;  stroke-linecap:round; stroke-linejoin:round;fill-rule:evenodd;" d="M 50073400.000000,52850000.000000 50081134.000000,52811119.000000 50103158.000000,52778158.000000 50136119.000000,52756134.000000 50175000.000000,52748400.000000 50475000.000000,52748400.000000 50513881.000000,52756134.000000 50546842.000000,52778158.000000 50568866.000000,52811119.000000 50576600.000000,52850000.000000 50576600.000000,54650000.000000 50568866.000000,54688881.000000 50546842.000000,54721842.000000 50513881.000000,54743866.000000 50475000.000000,54751600.000000 50175000.000000,54751600.000000 50136119.000000,54743866.000000 50103158.000000,54721842.000000 50081134.000000,54688881.000000 50073400.000000,54650000.000000 Z"/> 
<svg:path style="fill:#000000; fill-opacity:1.0;  stroke:#000000; stroke-width:1.000000; stroke-opacity:1;  stroke-linecap:round; stroke-linejoin:round;fill-rule:evenodd;" d="M 50723400.000000,52850000.000000 50731134.000000,52811119.000000 50753158.000000,52778158.000000 50786119.000000,52756134.000000 50825000.000000,52748400.000000 51125000.000000,52748400.000000 51163881.000000,52756134.000000 51196842.000000,52778158.000000 51218866.000000,52811119.000000 51226600.000000,52850000.000000 51226600.000000,54650000.000000 51218866.000000,54688881.000000 51196842.000000,54721842.000000 51163881.000000,54743866.000000 51125000.000000,54751600.000000 50825000.000000,54751600.000000 50786119.000000,54743866.000000 50753158.000000,54721842.000000 50731134.000000,54688881.000000 50723400.000000,54650000.000000 Z"/> 
<svg:path style="fill:#000000; fill-opacity:1.0;  stroke:#000000; stroke-width:1.000000; stroke-opacity:1;  stroke-linecap:round; stroke-linejoin:round;fill-rule:evenodd;" d="M 51373400.000000,52850000.000000 51381134.000000,52811119.000000 51403158.000000,52778158.000000 51436119.000000,52756134.000000 51475000.000000,52748400.000000 51775000.000000,52748400.000000 51813881.000000,52756134.000000 51846842.000000,52778158.000000 51868866.000000,52811119.000000 51876600.000000,52850000.000000 51876600.000000,54650000.000000 51868866.000000,54688881.000000 51846842.000000,54721842.000000 51813881.000000,54743866.000000 51775000.000000,54751600.000000 51475000.000000,54751600.000000 51436119.000000,54743866.000000 51403158.000000,54721842.000000 51381134.000000,54688881.000000 51373400.000000,54650000.000000 Z"/> 
<svg:path style="fill:#000000; fill-opacity:1.0;  stroke:#000000; stroke-width:1.000000; stroke-opacity:1;  stroke-linecap:round; stroke-linejoin:round;fill-rule:evenodd;" d="M 52023400.000000,52850000.000000 52031134.000000,52811119.000000 52053158.000000,52778158.000000 52086119.000000,52756134.000000 52125000.000000,52748400.000000 52425000.000000,52748400.000000 52463881.000000,52756134.000000 52496842.000000,52778158.000000 52518866.000000,52811119.000000 52526600.000000,52850000.000000 52526600.000000,54650000.000000 52518866.000000,54688881.000000 52496842.000000,54721842.000000 52463881.000000,54743866.000000 52425000.000000,54751600.000000 52125000.000000,54751600.000000 52086119.000000,54743866.000000 52053158.000000,54721842.000000 52031134.000000,54688881.000000 52023400.000000,54650000.000000 Z"/> 
<svg:path style="fill:#000000; fill-opacity:1.0;  stroke:#000000; stroke-width:1.000000; stroke-opacity:1;  stroke-linecap:round; stroke-linejoin:round;fill-rule:evenodd;" d="M 52673400.000000,52850000.000000 52681134.000000,52811119.000000 52703158.000000,52778158.000000 52736119.000000,52756134.000000 52775000.000000,52748400.000000 53075000.000000,52748400.000000 53113881.000000,52756134.000000 53146842.000000,52778158.000000 53168866.000000,52811119.000000 53176600.000000,52850000.000000 53176600.000000,54650000.000000 53168866.000000,54688881.000000 53146842.000000,54721842.000000 53113881.000000,54743866.000000 53075000.000000,54751600.000000 52775000.000000,54751600.000000 52736119.000000,54743866.000000 52703158.000000,54721842.000000 52681134.000000,54688881.000000 52673400.000000,54650000.000000 Z"/> 
<svg:path style="fill:#000000; fill-opacity:1.0;  stroke:#000000; stroke-width:1.000000; stroke-opacity:1;  stroke-linecap:round; stroke-linejoin:round;fill-rule:evenodd;" d="M 53323400.000000,52850000.000000 53331134.000000,52811119.000000 53353158.000000,52778158.000000 53386119.000000,52756134.000000 53425000.000000,52748400.000000 53725000.000000,52748400.000000 53763881.000000,52756134.000000 53796842.000000,52778158.000000 53818866.000000,52811119.000000 53826600.000000,52850000.000000 53826600.000000,54650000.000000 53818866.000000,54688881.000000 53796842.000000,54721842.000000 53763881.000000,54743866.000000 53725000.000000,54751600.000000 53425000.000000,54751600.000000 53386119.000000,54743866.000000 53353158.000000,54721842.000000 53331134.000000,54688881.000000 53323400.000000,54650000.000000 Z"/> 
<svg:path style="fill:#000000; fill-opacity:1.0;  stroke:#000000; stroke-width:1.000000; stroke-opacity:1;  stroke-linecap:round; stroke-linejoin:round;fill-rule:evenodd;" d="M 53973400.000000,52850000.000000 53981134.000000,52811119.000000 54003158.000000,52778158.000000 54036119.000000,52756134.000000 54075000.000000,52748400.000000 54375000.000000,52748400.000000 54413881.000000,52756134.000000 54446842.000000,52778158.000000 54468866.000000,52811119.000000 54476600.000000,52850000.000000 54476600.000000,54650000.000000 54468866.000000,54688881.000000 54446842.000000,54721842.000000 54413881.000000,54743866.000000 54375000.000000,54751600.000000 54075000.000000,54751600.000000 54036119.000000,54743866.000000 54003158.000000,54721842.000000 53981134.000000,54688881.000000 53973400.000000,54650000.000000 Z"/> 
<svg:path style="fill:#000000; fill-opacity:1.0;  stroke:#000000; stroke-width:1.000000; stroke-opacity:1;  stroke-linecap:round; stroke-linejoin:round;fill-rule:evenodd;" d="M 54623400.000000,52850000.000000 54631134.000000,52811119.000000 54653158.000000,52778158.000000 54686119.000000,52756134.000000 54725000.000000,52748400.000000 55025000.000000,52748400.000000 55063881.000000,52756134.000000 55096842.000000,52778158.000000 55118866.000000,52811119.000000 55126600.000000,52850000.000000 55126600.000000,54650000.000000 55118866.000000,54688881.000000 55096842.000000,54721842.000000 55063881.000000,54743866.000000 55025000.000000,54751600.000000 54725000.000000,54751600.000000 54686119.000000,54743866.000000 54653158.000000,54721842.000000 54631134.000000,54688881.000000 54623400.000000,54650000.000000 Z"/> 
<svg:path style="fill:#000000; fill-opacity:1.0;  stroke:#000000; stroke-width:1.000000; stroke-opacity:1;  stroke-linecap:round; stroke-linejoin:round;fill-rule:evenodd;" d="M 55126600.000000,47150000.000000 55118866.000000,47188881.000000 55096842.000000,47221842.000000 55063881.000000,47243866.000000 55025000.000000,47251600.000000 54725000.000000,47251600.000000 54686119.000000,47243866.000000 54653158.000000,47221842.000000 54631134.000000,47188881.000000 54623400.000000,47150000.000000 54623400.000000,45350000.000000 54631134.000000,45311119.000000 54653158.000000,45278158.000000 54686119.000000,45256134.000000 54725000.000000,45248400.000000 55025000.000000,45248400.000000 55063881.000000,45256134.000000 55096842.000000,45278158.000000 55118866.000000,45311119.000000 55126600.000000,45350000.000000 Z"/> 
<svg:path style="fill:#000000; fill-opacity:1.0;  stroke:#000000; stroke-width:1.000000; stroke-opacity:1;  stroke-linecap:round; stroke-linejoin:round;fill-rule:evenodd;" d="M 54476600.000000,47150000.000000 54468866.000000,47188881.000000 54446842.000000,47221842.000000 54413881.000000,47243866.000000 54375000.000000,47251600.000000 54075000.000000,47251600.000000 54036119.000000,47243866.000000 54003158.000000,47221842.000000 53981134.000000,47188881.000000 53973400.000000,47150000.000000 53973400.000000,45350000.000000 53981134.000000,45311119.000000 54003158.000000,45278158.000000 54036119.000000,45256134.000000 54075000.000000,45248400.000000 54375000.000000,45248400.000000 54413881.000000,45256134.000000 54446842.000000,45278158.000000 54468866.000000,45311119.000000 54476600.000000,45350000.000000 Z"/> 
<svg:path style="fill:#000000; fill-opacity:1.0;  stroke:#000000; stroke-width:1.000000; stroke-opacity:1;  stroke-linecap:round; stroke-linejoin:round;fill-rule:evenodd;" d="M 53826600.000000,47150000.000000 53818866.000000,47188881.000000 53796842.000000,47221842.000000 53763881.000000,47243866.000000 53725000.000000,47251600.000000 53425000.000000,47251600.000000 53386119.000000,47243866.000000 53353158.000000,47221842.000000 53331134.000000,47188881.000000 53323400.000000,47150000.000000 53323400.000000,45350000.000000 53331134.000000,45311119.000000 53353158.000000,45278158.000000 53386119.000000,45256134.000000 53425000.000000,45248400.000000 53725000.000000,45248400.000000 53763881.000000,45256134.000000 53796842.000000,45278158.000000 53818866.000000,45311119.000000 53826600.000000,45350000.000000 Z"/> 
<svg:path style="fill:#000000; fill-opacity:1.0;  stroke:#000000; stroke-width:1.000000; stroke-opacity:1;  stroke-linecap:round; stroke-linejoin:round;fill-rule:evenodd;" d="M 53176600.000000,47150000.000000 53168866.000000,47188881.000000 53146842.000000,47221842.000000 53113881.000000,47243866.000000 53075000.000000,47251600.000000 52775000.000000,47251600.000000 52736119.000000,47243866.000000 52703158.000000,47221842.000000 52681134.000000,47188881.000000 52673400.000000,47150000.000000 52673400.000000,45350000.000000 52681134.000000,45311119.000000 52703158.000000,45278158.000000 52736119.000000,45256134.000000 52775000.000000,45248400.000000 53075000.000000,45248400.000000 53113881.000000,45256134.000000 53146842.000000,45278158.000000 53168866.000000,45311119.000000 53176600.000000,45350000.000000 Z"/> 
<svg:path style="fill:#000000; fill-opacity:1.0;  stroke:#000000; stroke-width:1.000000; stroke-opacity:1;  stroke-linecap:round; stroke-linejoin:round;fill-rule:evenodd;" d="M 52526600.000000,47150000.000000 52518866.000000,47188881.000000 52496842.000000,47221842.000000 52463881.000000,47243866.000000 52425000.000000,47251600.000000 52125000.000000,47251600.000000 52086119.000000,47243866.000000 52053158.000000,47221842.000000 52031134.000000,47188881.000000 52023400.000000,47150000.000000 52023400.000000,45350000.000000 52031134.000000,45311119.000000 52053158.000000,45278158.000000 52086119.000000,45256134.000000 52125000.000000,45248400.000000 52425000.000000,45248400.000000 52463881.000000,45256134.000000 52496842.000000,45278158.000000 52518866.000000,45311119.000000 52526600.000000,45350000.000000 Z"/> 
<svg:path style="fill:#000000; fill-opacity:1.0;  stroke:#000000; stroke-width:1.000000; stroke-opacity:1;  stroke-linecap:round; stroke-linejoin:round;fill-rule:evenodd;" d="M 51876600.000000,47150000.000000 51868866.000000,47188881.000000 51846842.000000,47221842.000000 51813881.000000,47243866.000000 51775000.000000,47251600.000000 51475000.000000,47251600.000000 51436119.000000,47243866.000000 51403158.000000,47221842.000000 51381134.000000,47188881.000000 51373400.000000,47150000.000000 51373400.000000,45350000.000000 51381134.000000,45311119.000000 51403158.000000,45278158.000000 51436119.000000,45256134.000000 51475000.000000,45248400.000000 51775000.000000,45248400.000000 51813881.000000,45256134.000000 51846842.000000,45278158.000000 51868866.000000,45311119.000000 51876600.000000,45350000.000000 Z"/> 
<svg:path style="fill:#000000; fill-opacity:1.0;  stroke:#000000; stroke-width:1.000000; stroke-opacity:1;  stroke-linecap:round; stroke-linejoin:round;fill-rule:evenodd;" d="M 51226600.000000,47150000.000000 51218866.000000,47188881.000000 51196842.000000,47221842.000000 51163881.000000,47243866.000000 51125000.000000,47251600.000000 50825000.000000,47251600.000000 50786119.000000,47243866.000000 50753158.000000,47221842.000000 50731134.000000,47188881.000000 50723400.000000,47150000.000000 50723400.000000,45350000.000000 50731134.000000,45311119.000000 50753158.000000,45278158.000000 50786119.000000,45256134.000000 50825000.000000,45248400.000000 51125000.000000,45248400.000000 51163881.000000,45256134.000000 51196842.000000,45278158.000000 51218866.000000,45311119.000000 51226600.000000,45350000.000000 Z"/> 
<svg:path style="fill:#000000; fill-opacity:1.0;  stroke:#000000; stroke-width:1.000000; stroke-opacity:1;  stroke-linecap:round; stroke-linejoin:round;fill-rule:evenodd;" d="M 50576600.000000,47150000.000000 50568866.000000,47188881.000000 50546842.000000,47221842.000000 50513881.000000,47243866.000000 50475000.000000,47251600.000000 50175000.000000,47251600.000000 50136119.000000,47243866.000000 50103158.000000,47221842.000000 50081134.000000,47188881.000000 50073400.000000,47150000.000000 50073400.000000,45350000.000000 50081134.000000,45311119.000000 50103158.000000,45278158.000000 50136119.000000,45256134.000000 50175000.000000,45248400.000000 50475000.000000,45248400.000000 50513881.000000,45256134.000000 50546842.000000,45278158.000000 50568866.000000,45311119.000000 50576600.000000,45350000.000000 Z"/> 
<svg:path style="fill:#000000; fill-opacity:1.0;  stroke:#000000; stroke-width:1.000000; stroke-opacity:1;  stroke-linecap:round; stroke-linejoin:round;fill-rule:evenodd;" d="M 49926600.000000,47150000.000000 49918866.000000,47188881.000000 49896842.000000,47221842.000000 49863881.000000,47243866.000000 49825000.000000,47251600.000000 49525000.000000,47251600.000000 49486119.000000,47243866.000000 49453158.000000,47221842.000000 49431134.000000,47188881.000000 49423400.000000,47150000.000000 49423400.000000,45350000.000000 49431134.000000,45311119.000000 49453158.000000,45278158.000000 49486119.000000,45256134.000000 49525000.000000,45248400.000000 49825000.000000,45248400.000000 49863881.000000,45256134.000000 49896842.000000,45278158.000000 49918866.000000,45311119.000000 49926600.000000,45350000.000000 Z"/> 
<svg:path style="fill:#000000; fill-opacity:1.0;  stroke:#000000; stroke-width:1.000000; stroke-opacity:1;  stroke-linecap:round; stroke-linejoin:round;fill-rule:evenodd;" d="M 49276600.000000,47150000.000000 49268866.000000,47188881.000000 49246842.000000,47221842.000000 49213881.000000,47243866.000000 49175000.000000,47251600.000000 48875000.000000,47251600.000000 48836119.000000,47243866.000000 48803158.000000,47221842.000000 48781134.000000,47188881.000000 48773400.000000,47150000.000000 48773400.000000,45350000.000000 48781134.000000,45311119.000000 48803158.000000,45278158.000000 48836119.000000,45256134.000000 48875000.000000,45248400.000000 49175000.000000,45248400.000000 49213881.000000,45256134.000000 49246842.000000,45278158.000000 49268866.000000,45311119.000000 49276600.000000,45350000.000000 Z"/> 
<svg:path style="fill:#000000; fill-opacity:1.0;  stroke:#000000; stroke-width:1.000000; stroke-opacity:1;  stroke-linecap:round; stroke-linejoin:round;fill-rule:evenodd;" d="M 48626600.000000,47150000.000000 48618866.000000,47188881.000000 48596842.000000,47221842.000000 48563881.000000,47243866.000000 48525000.000000,47251600.000000 48225000.000000,47251600.000000 48186119.000000,47243866.000000 48153158.000000,47221842.000000 48131134.000000,47188881.000000 48123400.000000,47150000.000000 48123400.000000,45350000.000000 48131134.000000,45311119.000000 48153158.000000,45278158.000000 48186119.000000,45256134.000000 48225000.000000,45248400.000000 48525000.000000,45248400.000000 48563881.000000,45256134.000000 48596842.000000,45278158.000000 48618866.000000,45311119.000000 48626600.000000,45350000.000000 Z"/> 
<svg:path style="fill:#000000; fill-opacity:1.0;  stroke:#000000; stroke-width:1.000000; stroke-opacity:1;  stroke-linecap:round; stroke-linejoin:round;fill-rule:evenodd;" d="M 47976600.000000,47150000.000000 47968866.000000,47188881.000000 47946842.000000,47221842.000000 47913881.000000,47243866.000000 47875000.000000,47251600.000000 47575000.000000,47251600.000000 47536119.000000,47243866.000000 47503158.000000,47221842.000000 47481134.000000,47188881.000000 47473400.000000,47150000.000000 47473400.000000,45350000.000000 47481134.000000,45311119.000000 47503158.000000,45278158.000000 47536119.000000,45256134.000000 47575000.000000,45248400.000000 47875000.000000,45248400.000000 47913881.000000,45256134.000000 47946842.000000,45278158.000000 47968866.000000,45311119.000000 47976600.000000,45350000.000000 Z"/> 
<svg:path style="fill:#000000; fill-opacity:1.0;  stroke:#000000; stroke-width:1.000000; stroke-opacity:1;  stroke-linecap:round; stroke-linejoin:round;fill-rule:evenodd;" d="M 47326600.000000,47150000.000000 47318866.000000,47188881.000000 47296842.000000,47221842.000000 47263881.000000,47243866.000000 47225000.000000,47251600.000000 46925000.000000,47251600.000000 46886119.000000,47243866.000000 46853158.000000,47221842.000000 46831134.000000,47188881.000000 46823400.000000,47150000.000000 46823400.000000,45350000.000000 46831134.000000,45311119.000000 46853158.000000,45278158.000000 46886119.000000,45256134.000000 46925000.000000,45248400.000000 47225000.000000,45248400.000000 47263881.000000,45256134.000000 47296842.000000,45278158.000000 47318866.000000,45311119.000000 47326600.000000,45350000.000000 Z"/> 
<svg:path style="fill:#000000; fill-opacity:1.0;  stroke:#000000; stroke-width:1.000000; stroke-opacity:1;  stroke-linecap:round; stroke-linejoin:round;fill-rule:evenodd;" d="M 46676600.000000,47150000.000000 46668866.000000,47188881.000000 46646842.000000,47221842.000000 46613881.000000,47243866.000000 46575000.000000,47251600.000000 46275000.000000,47251600.000000 46236119.000000,47243866.000000 46203158.000000,47221842.000000 46181134.000000,47188881.000000 46173400.000000,47150000.000000 46173400.000000,45350000.000000 46181134.000000,45311119.000000 46203158.000000,45278158.000000 46236119.000000,45256134.000000 46275000.000000,45248400.000000 46575000.000000,45248400.000000 46613881.000000,45256134.000000 46646842.000000,45278158.000000 46668866.000000,45311119.000000 46676600.000000,45350000.000000 Z"/> 
<svg:path style="fill:#000000; fill-opacity:1.0;  stroke:#000000; stroke-width:1.000000; stroke-opacity:1;  stroke-linecap:round; stroke-linejoin:round;fill-rule:evenodd;" d="M 46026600.000000,47150000.000000 46018866.000000,47188881.000000 45996842.000000,47221842.000000 45963881.000000,47243866.000000 45925000.000000,47251600.000000 45625000.000000,47251600.000000 45586119.000000,47243866.000000 45553158.000000,47221842.000000 45531134.000000,47188881.000000 45523400.000000,47150000.000000 45523400.000000,45350000.000000 45531134.000000,45311119.000000 45553158.000000,45278158.000000 45586119.000000,45256134.000000 45625000.000000,45248400.000000 45925000.000000,45248400.000000 45963881.000000,45256134.000000 45996842.000000,45278158.000000 46018866.000000,45311119.000000 46026600.000000,45350000.000000 Z"/> 
<svg:path style="fill:#000000; fill-opacity:1.0;  stroke:#000000; stroke-width:1.000000; stroke-opacity:1;  stroke-linecap:round; stroke-linejoin:round;fill-rule:evenodd;" d="M 45376600.000000,47150000.000000 45368866.000000,47188881.000000 45346842.000000,47221842.000000 45313881.000000,47243866.000000 45275000.000000,47251600.000000 44975000.000000,47251600.000000 44936119.000000,47243866.000000 44903158.000000,47221842.000000 44881134.000000,47188881.000000 44873400.000000,47150000.000000 44873400.000000,45350000.000000 44881134.000000,45311119.000000 44903158.000000,45278158.000000 44936119.000000,45256134.000000 44975000.000000,45248400.000000 45275000.000000,45248400.000000 45313881.000000,45256134.000000 45346842.000000,45278158.000000 45368866.000000,45311119.000000 45376600.000000,45350000.000000 Z"/> 
</svg:g>
<svg:g>
</svg:g>
<svg:g>
</svg:g>
<svg:g>
</svg:g>
</svg:g>
<svg:g style="fill:#000000; fill-opacity:1.0;  stroke:#000000; stroke-width:1.000000; stroke-opacity:1;  stroke-linecap:round; stroke-linejoin:round;">
<svg:g>
</svg:g>
<svg:g>
</svg:g>
<svg:g>
</svg:g>
<svg:g>
</svg:g>
</svg:g> 
</svg:g><svg:g><svg:title>SVG Picture created as kicadBoard-F_Paste.svg date 2022/11/16 06:03:07 </svg:title>
  <svg:desc>Picture generated by PCBNEW </svg:desc>
<svg:g style="fill:#000000; fill-opacity:1.000000;stroke:#000000; stroke-opacity:1.000000; stroke-linecap:round; stroke-linejoin:round;" transform="translate(0 0) scale(1 1)">
</svg:g>
<svg:g style="fill:#000000; fill-opacity:0.0;  stroke:#000000; stroke-width:0.000000; stroke-opacity:1;  stroke-linecap:round; stroke-linejoin:round;">
</svg:g>
<svg:g style="fill:#B4A09A; fill-opacity:0.0;  stroke:#B4A09A; stroke-width:0.000000; stroke-opacity:1;  stroke-linecap:round; stroke-linejoin:round;">
</svg:g>
<svg:g style="fill:#B4A09A; fill-opacity:1.0;  stroke:#B4A09A; stroke-width:1.000000; stroke-opacity:1;  stroke-linecap:round; stroke-linejoin:round;">
<svg:path style="fill:#B4A09A; fill-opacity:1.0;  stroke:#B4A09A; stroke-width:1.000000; stroke-opacity:1;  stroke-linecap:round; stroke-linejoin:round;fill-rule:evenodd;" d="M 51800000.000000,51200000.000000 48200000.000000,51200000.000000 48200000.000000,48800000.000000 51800000.000000,48800000.000000 Z"/> 
<svg:g>
</svg:g>
<svg:g style="fill:#000000; fill-opacity:1.0;  stroke:#000000; stroke-width:1.000000; stroke-opacity:1;  stroke-linecap:round; stroke-linejoin:round;">
<svg:path style="fill:#000000; fill-opacity:1.0;  stroke:#000000; stroke-width:1.000000; stroke-opacity:1;  stroke-linecap:round; stroke-linejoin:round;fill-rule:evenodd;" d="M 44975000.000000,54650000.000000 44975000.000000,52850000.000000 45275000.000000,52850000.000000 45275000.000000,54650000.000000 Z"/> 
<svg:path style="fill:#000000; fill-opacity:1.0;  stroke:#000000; stroke-width:1.000000; stroke-opacity:1;  stroke-linecap:round; stroke-linejoin:round;fill-rule:evenodd;" d="M 45625000.000000,54650000.000000 45625000.000000,52850000.000000 45925000.000000,52850000.000000 45925000.000000,54650000.000000 Z"/> 
<svg:path style="fill:#000000; fill-opacity:1.0;  stroke:#000000; stroke-width:1.000000; stroke-opacity:1;  stroke-linecap:round; stroke-linejoin:round;fill-rule:evenodd;" d="M 46275000.000000,54650000.000000 46275000.000000,52850000.000000 46575000.000000,52850000.000000 46575000.000000,54650000.000000 Z"/> 
<svg:path style="fill:#000000; fill-opacity:1.0;  stroke:#000000; stroke-width:1.000000; stroke-opacity:1;  stroke-linecap:round; stroke-linejoin:round;fill-rule:evenodd;" d="M 46925000.000000,54650000.000000 46925000.000000,52850000.000000 47225000.000000,52850000.000000 47225000.000000,54650000.000000 Z"/> 
<svg:path style="fill:#000000; fill-opacity:1.0;  stroke:#000000; stroke-width:1.000000; stroke-opacity:1;  stroke-linecap:round; stroke-linejoin:round;fill-rule:evenodd;" d="M 47575000.000000,54650000.000000 47575000.000000,52850000.000000 47875000.000000,52850000.000000 47875000.000000,54650000.000000 Z"/> 
<svg:path style="fill:#000000; fill-opacity:1.0;  stroke:#000000; stroke-width:1.000000; stroke-opacity:1;  stroke-linecap:round; stroke-linejoin:round;fill-rule:evenodd;" d="M 48225000.000000,54650000.000000 48225000.000000,52850000.000000 48525000.000000,52850000.000000 48525000.000000,54650000.000000 Z"/> 
<svg:path style="fill:#000000; fill-opacity:1.0;  stroke:#000000; stroke-width:1.000000; stroke-opacity:1;  stroke-linecap:round; stroke-linejoin:round;fill-rule:evenodd;" d="M 48875000.000000,54650000.000000 48875000.000000,52850000.000000 49175000.000000,52850000.000000 49175000.000000,54650000.000000 Z"/> 
<svg:path style="fill:#000000; fill-opacity:1.0;  stroke:#000000; stroke-width:1.000000; stroke-opacity:1;  stroke-linecap:round; stroke-linejoin:round;fill-rule:evenodd;" d="M 49525000.000000,54650000.000000 49525000.000000,52850000.000000 49825000.000000,52850000.000000 49825000.000000,54650000.000000 Z"/> 
<svg:path style="fill:#000000; fill-opacity:1.0;  stroke:#000000; stroke-width:1.000000; stroke-opacity:1;  stroke-linecap:round; stroke-linejoin:round;fill-rule:evenodd;" d="M 50175000.000000,54650000.000000 50175000.000000,52850000.000000 50475000.000000,52850000.000000 50475000.000000,54650000.000000 Z"/> 
<svg:path style="fill:#000000; fill-opacity:1.0;  stroke:#000000; stroke-width:1.000000; stroke-opacity:1;  stroke-linecap:round; stroke-linejoin:round;fill-rule:evenodd;" d="M 50825000.000000,54650000.000000 50825000.000000,52850000.000000 51125000.000000,52850000.000000 51125000.000000,54650000.000000 Z"/> 
<svg:path style="fill:#000000; fill-opacity:1.0;  stroke:#000000; stroke-width:1.000000; stroke-opacity:1;  stroke-linecap:round; stroke-linejoin:round;fill-rule:evenodd;" d="M 51475000.000000,54650000.000000 51475000.000000,52850000.000000 51775000.000000,52850000.000000 51775000.000000,54650000.000000 Z"/> 
<svg:path style="fill:#000000; fill-opacity:1.0;  stroke:#000000; stroke-width:1.000000; stroke-opacity:1;  stroke-linecap:round; stroke-linejoin:round;fill-rule:evenodd;" d="M 52125000.000000,54650000.000000 52125000.000000,52850000.000000 52425000.000000,52850000.000000 52425000.000000,54650000.000000 Z"/> 
<svg:path style="fill:#000000; fill-opacity:1.0;  stroke:#000000; stroke-width:1.000000; stroke-opacity:1;  stroke-linecap:round; stroke-linejoin:round;fill-rule:evenodd;" d="M 52775000.000000,54650000.000000 52775000.000000,52850000.000000 53075000.000000,52850000.000000 53075000.000000,54650000.000000 Z"/> 
<svg:path style="fill:#000000; fill-opacity:1.0;  stroke:#000000; stroke-width:1.000000; stroke-opacity:1;  stroke-linecap:round; stroke-linejoin:round;fill-rule:evenodd;" d="M 53425000.000000,54650000.000000 53425000.000000,52850000.000000 53725000.000000,52850000.000000 53725000.000000,54650000.000000 Z"/> 
<svg:path style="fill:#000000; fill-opacity:1.0;  stroke:#000000; stroke-width:1.000000; stroke-opacity:1;  stroke-linecap:round; stroke-linejoin:round;fill-rule:evenodd;" d="M 54075000.000000,54650000.000000 54075000.000000,52850000.000000 54375000.000000,52850000.000000 54375000.000000,54650000.000000 Z"/> 
<svg:path style="fill:#000000; fill-opacity:1.0;  stroke:#000000; stroke-width:1.000000; stroke-opacity:1;  stroke-linecap:round; stroke-linejoin:round;fill-rule:evenodd;" d="M 54725000.000000,54650000.000000 54725000.000000,52850000.000000 55025000.000000,52850000.000000 55025000.000000,54650000.000000 Z"/> 
<svg:path style="fill:#000000; fill-opacity:1.0;  stroke:#000000; stroke-width:1.000000; stroke-opacity:1;  stroke-linecap:round; stroke-linejoin:round;fill-rule:evenodd;" d="M 55025000.000000,45350000.000000 55025000.000000,47150000.000000 54725000.000000,47150000.000000 54725000.000000,45350000.000000 Z"/> 
<svg:path style="fill:#000000; fill-opacity:1.0;  stroke:#000000; stroke-width:1.000000; stroke-opacity:1;  stroke-linecap:round; stroke-linejoin:round;fill-rule:evenodd;" d="M 54375000.000000,45350000.000000 54375000.000000,47150000.000000 54075000.000000,47150000.000000 54075000.000000,45350000.000000 Z"/> 
<svg:path style="fill:#000000; fill-opacity:1.0;  stroke:#000000; stroke-width:1.000000; stroke-opacity:1;  stroke-linecap:round; stroke-linejoin:round;fill-rule:evenodd;" d="M 53725000.000000,45350000.000000 53725000.000000,47150000.000000 53425000.000000,47150000.000000 53425000.000000,45350000.000000 Z"/> 
<svg:path style="fill:#000000; fill-opacity:1.0;  stroke:#000000; stroke-width:1.000000; stroke-opacity:1;  stroke-linecap:round; stroke-linejoin:round;fill-rule:evenodd;" d="M 53075000.000000,45350000.000000 53075000.000000,47150000.000000 52775000.000000,47150000.000000 52775000.000000,45350000.000000 Z"/> 
<svg:path style="fill:#000000; fill-opacity:1.0;  stroke:#000000; stroke-width:1.000000; stroke-opacity:1;  stroke-linecap:round; stroke-linejoin:round;fill-rule:evenodd;" d="M 52425000.000000,45350000.000000 52425000.000000,47150000.000000 52125000.000000,47150000.000000 52125000.000000,45350000.000000 Z"/> 
<svg:path style="fill:#000000; fill-opacity:1.0;  stroke:#000000; stroke-width:1.000000; stroke-opacity:1;  stroke-linecap:round; stroke-linejoin:round;fill-rule:evenodd;" d="M 51775000.000000,45350000.000000 51775000.000000,47150000.000000 51475000.000000,47150000.000000 51475000.000000,45350000.000000 Z"/> 
<svg:path style="fill:#000000; fill-opacity:1.0;  stroke:#000000; stroke-width:1.000000; stroke-opacity:1;  stroke-linecap:round; stroke-linejoin:round;fill-rule:evenodd;" d="M 51125000.000000,45350000.000000 51125000.000000,47150000.000000 50825000.000000,47150000.000000 50825000.000000,45350000.000000 Z"/> 
<svg:path style="fill:#000000; fill-opacity:1.0;  stroke:#000000; stroke-width:1.000000; stroke-opacity:1;  stroke-linecap:round; stroke-linejoin:round;fill-rule:evenodd;" d="M 50475000.000000,45350000.000000 50475000.000000,47150000.000000 50175000.000000,47150000.000000 50175000.000000,45350000.000000 Z"/> 
<svg:path style="fill:#000000; fill-opacity:1.0;  stroke:#000000; stroke-width:1.000000; stroke-opacity:1;  stroke-linecap:round; stroke-linejoin:round;fill-rule:evenodd;" d="M 49825000.000000,45350000.000000 49825000.000000,47150000.000000 49525000.000000,47150000.000000 49525000.000000,45350000.000000 Z"/> 
<svg:path style="fill:#000000; fill-opacity:1.0;  stroke:#000000; stroke-width:1.000000; stroke-opacity:1;  stroke-linecap:round; stroke-linejoin:round;fill-rule:evenodd;" d="M 49175000.000000,45350000.000000 49175000.000000,47150000.000000 48875000.000000,47150000.000000 48875000.000000,45350000.000000 Z"/> 
<svg:path style="fill:#000000; fill-opacity:1.0;  stroke:#000000; stroke-width:1.000000; stroke-opacity:1;  stroke-linecap:round; stroke-linejoin:round;fill-rule:evenodd;" d="M 48525000.000000,45350000.000000 48525000.000000,47150000.000000 48225000.000000,47150000.000000 48225000.000000,45350000.000000 Z"/> 
<svg:path style="fill:#000000; fill-opacity:1.0;  stroke:#000000; stroke-width:1.000000; stroke-opacity:1;  stroke-linecap:round; stroke-linejoin:round;fill-rule:evenodd;" d="M 47875000.000000,45350000.000000 47875000.000000,47150000.000000 47575000.000000,47150000.000000 47575000.000000,45350000.000000 Z"/> 
<svg:path style="fill:#000000; fill-opacity:1.0;  stroke:#000000; stroke-width:1.000000; stroke-opacity:1;  stroke-linecap:round; stroke-linejoin:round;fill-rule:evenodd;" d="M 47225000.000000,45350000.000000 47225000.000000,47150000.000000 46925000.000000,47150000.000000 46925000.000000,45350000.000000 Z"/> 
<svg:path style="fill:#000000; fill-opacity:1.0;  stroke:#000000; stroke-width:1.000000; stroke-opacity:1;  stroke-linecap:round; stroke-linejoin:round;fill-rule:evenodd;" d="M 46575000.000000,45350000.000000 46575000.000000,47150000.000000 46275000.000000,47150000.000000 46275000.000000,45350000.000000 Z"/> 
<svg:path style="fill:#000000; fill-opacity:1.0;  stroke:#000000; stroke-width:1.000000; stroke-opacity:1;  stroke-linecap:round; stroke-linejoin:round;fill-rule:evenodd;" d="M 45925000.000000,45350000.000000 45925000.000000,47150000.000000 45625000.000000,47150000.000000 45625000.000000,45350000.000000 Z"/> 
<svg:path style="fill:#000000; fill-opacity:1.0;  stroke:#000000; stroke-width:1.000000; stroke-opacity:1;  stroke-linecap:round; stroke-linejoin:round;fill-rule:evenodd;" d="M 45275000.000000,45350000.000000 45275000.000000,47150000.000000 44975000.000000,47150000.000000 44975000.000000,45350000.000000 Z"/> 
</svg:g>
<svg:g>
</svg:g>
<svg:g>
</svg:g>
<svg:g>
</svg:g>
</svg:g>
<svg:g style="fill:#000000; fill-opacity:1.0;  stroke:#000000; stroke-width:1.000000; stroke-opacity:1;  stroke-linecap:round; stroke-linejoin:round;">
<svg:g>
</svg:g>
<svg:g>
</svg:g>
<svg:g>
</svg:g>
<svg:g>
</svg:g>
</svg:g> 
</svg:g><svg:g><svg:title>SVG Picture created as kicadBoard-F_Silkscreen.svg date 2022/11/16 06:03:07 </svg:title>
  <svg:desc>Picture generated by PCBNEW </svg:desc>
<svg:g style="fill:#000000; fill-opacity:1.000000;stroke:#000000; stroke-opacity:1.000000; stroke-linecap:round; stroke-linejoin:round;" transform="translate(0 0) scale(1 1)">
</svg:g>
<svg:g style="fill:#000000; fill-opacity:0.0;  stroke:#000000; stroke-width:0.000000; stroke-opacity:1;  stroke-linecap:round; stroke-linejoin:round;">
</svg:g>
<svg:g style="fill:#F2EDA1; fill-opacity:0.0;  stroke:#F2EDA1; stroke-width:0.000000; stroke-opacity:1;  stroke-linecap:round; stroke-linejoin:round;">
</svg:g>
<svg:g style="fill:#F2EDA1; fill-opacity:0.0;  stroke:#F2EDA1; stroke-width:101600.000000; stroke-opacity:1;  stroke-linecap:round; stroke-linejoin:round;">
<svg:text x="46190000.000000" y="48730000.000000" textLength="13019315.000000" font-size="1557866.000000" lengthAdjust="spacingAndGlyphs" text-anchor="start" opacity="0">FZAHTSS32DAP</svg:text>
<svg:g class="stroked-text"><svg:desc>FZAHTSS32DAP</svg:desc>
<svg:path d="M46923697 48062342 L46534230 48062342 "/>
<svg:path d="M46534230 48674361 L46534230 47505961 L47090611 47505961 "/>
<svg:path d="M47424440 47505961 L48203373 47505961 L47424440 48674361 L48203373 48674361 "/>
<svg:path d="M48592840 48340533 L49149220 48340533 "/>
<svg:path d="M48481563 48674361 L48871030 47505961 L49260497 48674361 "/>
<svg:path d="M49649963 48674361 L49649963 47505961 "/>
<svg:path d="M49649963 48062342 L50317620 48062342 "/>
<svg:path d="M50317620 48674361 L50317620 47505961 "/>
<svg:path d="M50707087 47505961 L51374744 47505961 "/>
<svg:path d="M51040916 48674361 L51040916 47505961 "/>
<svg:path d="M51708573 48618723 L51875487 48674361 L52153678 48674361 L52264954 48618723 L52320592 48563085 L52376230 48451809 L52376230 48340533 L52320592 48229257 L52264954 48173619 L52153678 48117980 L51931125 48062342 L51819849 48006704 L51764211 47951066 L51708573 47839790 L51708573 47728514 L51764211 47617238 L51819849 47561600 L51931125 47505961 L52209316 47505961 L52376230 47561600 "/>
<svg:path d="M52821335 48618723 L52988249 48674361 L53266440 48674361 L53377716 48618723 L53433354 48563085 L53488992 48451809 L53488992 48340533 L53433354 48229257 L53377716 48173619 L53266440 48117980 L53043887 48062342 L52932611 48006704 L52876973 47951066 L52821335 47839790 L52821335 47728514 L52876973 47617238 L52932611 47561600 L53043887 47505961 L53322078 47505961 L53488992 47561600 "/>
<svg:path d="M53878459 47505961 L54601754 47505961 L54212287 47951066 L54379201 47951066 L54490478 48006704 L54546116 48062342 L54601754 48173619 L54601754 48451809 L54546116 48563085 L54490478 48618723 L54379201 48674361 L54045373 48674361 L53934097 48618723 L53878459 48563085 "/>
<svg:path d="M55046859 47617238 L55102497 47561600 L55213773 47505961 L55491963 47505961 L55603240 47561600 L55658878 47617238 L55714516 47728514 L55714516 47839790 L55658878 48006704 L54991220 48674361 L55714516 48674361 "/>
<svg:path d="M56215259 48674361 L56215259 47505961 L56493449 47505961 L56660363 47561600 L56771640 47672876 L56827278 47784152 L56882916 48006704 L56882916 48173619 L56827278 48396171 L56771640 48507447 L56660363 48618723 L56493449 48674361 L56215259 48674361 "/>
<svg:path d="M57328020 48340533 L57884401 48340533 "/>
<svg:path d="M57216744 48674361 L57606211 47505961 L57995678 48674361 "/>
<svg:path d="M58385144 48674361 L58385144 47505961 L58830249 47505961 L58941525 47561600 L58997163 47617238 L59052801 47728514 L59052801 47895428 L58997163 48006704 L58941525 48062342 L58830249 48117980 L58385144 48117980 "/>
</svg:g><svg:path d="M55500000 46600000 L55500000 53400000 "/>
<svg:path d="M55500000 53400000 L44500000 53400000 "/>
<svg:path d="M44500000 46600000 L55500000 46600000 "/>
<svg:path d="M44500000 53400000 L44500000 46600000 "/>
<svg:circle cx="45450000.000000" cy="52600000.000000" r="325000.000000"/> 
<svg:g>
</svg:g>
<svg:g>
</svg:g>
<svg:g>
</svg:g>
<svg:g>
</svg:g>
</svg:g>
<svg:g style="fill:#000000; fill-opacity:0.0;  stroke:#000000; stroke-width:101600.000000; stroke-opacity:1;  stroke-linecap:round; stroke-linejoin:round;">
<svg:g>
</svg:g>
<svg:g>
</svg:g>
<svg:g>
</svg:g>
<svg:g>
</svg:g>
</svg:g> 
</svg:g><svg:g><svg:title>SVG Picture created as kicadBoard-Margin.svg date 2022/11/16 06:03:07 </svg:title>
  <svg:desc>Picture generated by PCBNEW </svg:desc>
<svg:g style="fill:#000000; fill-opacity:1.000000;stroke:#000000; stroke-opacity:1.000000; stroke-linecap:round; stroke-linejoin:round;" transform="translate(0 0) scale(1 1)">
</svg:g>
<svg:g style="fill:#000000; fill-opacity:0.0;  stroke:#000000; stroke-width:0.000000; stroke-opacity:1;  stroke-linecap:round; stroke-linejoin:round;">
<svg:g>
</svg:g>
<svg:g>
</svg:g>
<svg:g>
</svg:g>
<svg:g>
</svg:g>
</svg:g>
<svg:g style="fill:#000000; fill-opacity:0.0;  stroke:#000000; stroke-width:0.000000; stroke-opacity:1;  stroke-linecap:round; stroke-linejoin:round;">
<svg:g>
</svg:g>
<svg:g>
</svg:g>
<svg:g>
</svg:g>
<svg:g>
</svg:g>
</svg:g> 
</svg:g><svg:g><svg:title>SVG Picture created as kicadBoard-F_Cu.svg date 2022/11/16 06:03:07 </svg:title>
  <svg:desc>Picture generated by PCBNEW </svg:desc>
<svg:g style="fill:#000000; fill-opacity:1.000000;stroke:#000000; stroke-opacity:1.000000; stroke-linecap:round; stroke-linejoin:round;" transform="translate(0 0) scale(1 1)">
</svg:g>
<svg:g style="fill:#000000; fill-opacity:0.0;  stroke:#000000; stroke-width:0.000000; stroke-opacity:1;  stroke-linecap:round; stroke-linejoin:round;">
<svg:g>
</svg:g>
<svg:g style="fill:#C83434; fill-opacity:0.0;  stroke:#C83434; stroke-width:0.000000; stroke-opacity:1;  stroke-linecap:round; stroke-linejoin:round;">
</svg:g>
<svg:g style="fill:#C83434; fill-opacity:0.0;  stroke:#C83434; stroke-width:1.000000; stroke-opacity:1;  stroke-linecap:round; stroke-linejoin:round;">
</svg:g>
<svg:g style="fill:#C83434; fill-opacity:1.0;  stroke:#C83434; stroke-width:1.000000; stroke-opacity:1;  stroke-linecap:round; stroke-linejoin:round;">
<svg:path style="fill:#C83434; fill-opacity:1.0;  stroke:#C83434; stroke-width:1.000000; stroke-opacity:1;  stroke-linecap:round; stroke-linejoin:round;fill-rule:evenodd;" d="M 44975000.000000,54650000.000000 44975000.000000,52850000.000000 45275000.000000,52850000.000000 45275000.000000,54650000.000000 Z"/> 
<svg:path style="fill:#C83434; fill-opacity:1.0;  stroke:#C83434; stroke-width:1.000000; stroke-opacity:1;  stroke-linecap:round; stroke-linejoin:round;fill-rule:evenodd;" d="M 45625000.000000,54650000.000000 45625000.000000,52850000.000000 45925000.000000,52850000.000000 45925000.000000,54650000.000000 Z"/> 
<svg:path style="fill:#C83434; fill-opacity:1.0;  stroke:#C83434; stroke-width:1.000000; stroke-opacity:1;  stroke-linecap:round; stroke-linejoin:round;fill-rule:evenodd;" d="M 46275000.000000,54650000.000000 46275000.000000,52850000.000000 46575000.000000,52850000.000000 46575000.000000,54650000.000000 Z"/> 
<svg:path style="fill:#C83434; fill-opacity:1.0;  stroke:#C83434; stroke-width:1.000000; stroke-opacity:1;  stroke-linecap:round; stroke-linejoin:round;fill-rule:evenodd;" d="M 46925000.000000,54650000.000000 46925000.000000,52850000.000000 47225000.000000,52850000.000000 47225000.000000,54650000.000000 Z"/> 
<svg:path style="fill:#C83434; fill-opacity:1.0;  stroke:#C83434; stroke-width:1.000000; stroke-opacity:1;  stroke-linecap:round; stroke-linejoin:round;fill-rule:evenodd;" d="M 47575000.000000,54650000.000000 47575000.000000,52850000.000000 47875000.000000,52850000.000000 47875000.000000,54650000.000000 Z"/> 
<svg:path style="fill:#C83434; fill-opacity:1.0;  stroke:#C83434; stroke-width:1.000000; stroke-opacity:1;  stroke-linecap:round; stroke-linejoin:round;fill-rule:evenodd;" d="M 48225000.000000,54650000.000000 48225000.000000,52850000.000000 48525000.000000,52850000.000000 48525000.000000,54650000.000000 Z"/> 
<svg:path style="fill:#C83434; fill-opacity:1.0;  stroke:#C83434; stroke-width:1.000000; stroke-opacity:1;  stroke-linecap:round; stroke-linejoin:round;fill-rule:evenodd;" d="M 48875000.000000,54650000.000000 48875000.000000,52850000.000000 49175000.000000,52850000.000000 49175000.000000,54650000.000000 Z"/> 
<svg:path style="fill:#C83434; fill-opacity:1.0;  stroke:#C83434; stroke-width:1.000000; stroke-opacity:1;  stroke-linecap:round; stroke-linejoin:round;fill-rule:evenodd;" d="M 49525000.000000,54650000.000000 49525000.000000,52850000.000000 49825000.000000,52850000.000000 49825000.000000,54650000.000000 Z"/> 
<svg:path style="fill:#C83434; fill-opacity:1.0;  stroke:#C83434; stroke-width:1.000000; stroke-opacity:1;  stroke-linecap:round; stroke-linejoin:round;fill-rule:evenodd;" d="M 50175000.000000,54650000.000000 50175000.000000,52850000.000000 50475000.000000,52850000.000000 50475000.000000,54650000.000000 Z"/> 
<svg:path style="fill:#C83434; fill-opacity:1.0;  stroke:#C83434; stroke-width:1.000000; stroke-opacity:1;  stroke-linecap:round; stroke-linejoin:round;fill-rule:evenodd;" d="M 50825000.000000,54650000.000000 50825000.000000,52850000.000000 51125000.000000,52850000.000000 51125000.000000,54650000.000000 Z"/> 
<svg:path style="fill:#C83434; fill-opacity:1.0;  stroke:#C83434; stroke-width:1.000000; stroke-opacity:1;  stroke-linecap:round; stroke-linejoin:round;fill-rule:evenodd;" d="M 51475000.000000,54650000.000000 51475000.000000,52850000.000000 51775000.000000,52850000.000000 51775000.000000,54650000.000000 Z"/> 
<svg:path style="fill:#C83434; fill-opacity:1.0;  stroke:#C83434; stroke-width:1.000000; stroke-opacity:1;  stroke-linecap:round; stroke-linejoin:round;fill-rule:evenodd;" d="M 52125000.000000,54650000.000000 52125000.000000,52850000.000000 52425000.000000,52850000.000000 52425000.000000,54650000.000000 Z"/> 
<svg:path style="fill:#C83434; fill-opacity:1.0;  stroke:#C83434; stroke-width:1.000000; stroke-opacity:1;  stroke-linecap:round; stroke-linejoin:round;fill-rule:evenodd;" d="M 52775000.000000,54650000.000000 52775000.000000,52850000.000000 53075000.000000,52850000.000000 53075000.000000,54650000.000000 Z"/> 
<svg:path style="fill:#C83434; fill-opacity:1.0;  stroke:#C83434; stroke-width:1.000000; stroke-opacity:1;  stroke-linecap:round; stroke-linejoin:round;fill-rule:evenodd;" d="M 53425000.000000,54650000.000000 53425000.000000,52850000.000000 53725000.000000,52850000.000000 53725000.000000,54650000.000000 Z"/> 
<svg:path style="fill:#C83434; fill-opacity:1.0;  stroke:#C83434; stroke-width:1.000000; stroke-opacity:1;  stroke-linecap:round; stroke-linejoin:round;fill-rule:evenodd;" d="M 54075000.000000,54650000.000000 54075000.000000,52850000.000000 54375000.000000,52850000.000000 54375000.000000,54650000.000000 Z"/> 
<svg:path style="fill:#C83434; fill-opacity:1.0;  stroke:#C83434; stroke-width:1.000000; stroke-opacity:1;  stroke-linecap:round; stroke-linejoin:round;fill-rule:evenodd;" d="M 54725000.000000,54650000.000000 54725000.000000,52850000.000000 55025000.000000,52850000.000000 55025000.000000,54650000.000000 Z"/> 
<svg:path style="fill:#C83434; fill-opacity:1.0;  stroke:#C83434; stroke-width:1.000000; stroke-opacity:1;  stroke-linecap:round; stroke-linejoin:round;fill-rule:evenodd;" d="M 55025000.000000,45350000.000000 55025000.000000,47150000.000000 54725000.000000,47150000.000000 54725000.000000,45350000.000000 Z"/> 
<svg:path style="fill:#C83434; fill-opacity:1.0;  stroke:#C83434; stroke-width:1.000000; stroke-opacity:1;  stroke-linecap:round; stroke-linejoin:round;fill-rule:evenodd;" d="M 54375000.000000,45350000.000000 54375000.000000,47150000.000000 54075000.000000,47150000.000000 54075000.000000,45350000.000000 Z"/> 
<svg:path style="fill:#C83434; fill-opacity:1.0;  stroke:#C83434; stroke-width:1.000000; stroke-opacity:1;  stroke-linecap:round; stroke-linejoin:round;fill-rule:evenodd;" d="M 53725000.000000,45350000.000000 53725000.000000,47150000.000000 53425000.000000,47150000.000000 53425000.000000,45350000.000000 Z"/> 
<svg:path style="fill:#C83434; fill-opacity:1.0;  stroke:#C83434; stroke-width:1.000000; stroke-opacity:1;  stroke-linecap:round; stroke-linejoin:round;fill-rule:evenodd;" d="M 53075000.000000,45350000.000000 53075000.000000,47150000.000000 52775000.000000,47150000.000000 52775000.000000,45350000.000000 Z"/> 
<svg:path style="fill:#C83434; fill-opacity:1.0;  stroke:#C83434; stroke-width:1.000000; stroke-opacity:1;  stroke-linecap:round; stroke-linejoin:round;fill-rule:evenodd;" d="M 52425000.000000,45350000.000000 52425000.000000,47150000.000000 52125000.000000,47150000.000000 52125000.000000,45350000.000000 Z"/> 
<svg:path style="fill:#C83434; fill-opacity:1.0;  stroke:#C83434; stroke-width:1.000000; stroke-opacity:1;  stroke-linecap:round; stroke-linejoin:round;fill-rule:evenodd;" d="M 51775000.000000,45350000.000000 51775000.000000,47150000.000000 51475000.000000,47150000.000000 51475000.000000,45350000.000000 Z"/> 
<svg:path style="fill:#C83434; fill-opacity:1.0;  stroke:#C83434; stroke-width:1.000000; stroke-opacity:1;  stroke-linecap:round; stroke-linejoin:round;fill-rule:evenodd;" d="M 51125000.000000,45350000.000000 51125000.000000,47150000.000000 50825000.000000,47150000.000000 50825000.000000,45350000.000000 Z"/> 
<svg:path style="fill:#C83434; fill-opacity:1.0;  stroke:#C83434; stroke-width:1.000000; stroke-opacity:1;  stroke-linecap:round; stroke-linejoin:round;fill-rule:evenodd;" d="M 50475000.000000,45350000.000000 50475000.000000,47150000.000000 50175000.000000,47150000.000000 50175000.000000,45350000.000000 Z"/> 
<svg:path style="fill:#C83434; fill-opacity:1.0;  stroke:#C83434; stroke-width:1.000000; stroke-opacity:1;  stroke-linecap:round; stroke-linejoin:round;fill-rule:evenodd;" d="M 49825000.000000,45350000.000000 49825000.000000,47150000.000000 49525000.000000,47150000.000000 49525000.000000,45350000.000000 Z"/> 
<svg:path style="fill:#C83434; fill-opacity:1.0;  stroke:#C83434; stroke-width:1.000000; stroke-opacity:1;  stroke-linecap:round; stroke-linejoin:round;fill-rule:evenodd;" d="M 49175000.000000,45350000.000000 49175000.000000,47150000.000000 48875000.000000,47150000.000000 48875000.000000,45350000.000000 Z"/> 
<svg:path style="fill:#C83434; fill-opacity:1.0;  stroke:#C83434; stroke-width:1.000000; stroke-opacity:1;  stroke-linecap:round; stroke-linejoin:round;fill-rule:evenodd;" d="M 48525000.000000,45350000.000000 48525000.000000,47150000.000000 48225000.000000,47150000.000000 48225000.000000,45350000.000000 Z"/> 
<svg:path style="fill:#C83434; fill-opacity:1.0;  stroke:#C83434; stroke-width:1.000000; stroke-opacity:1;  stroke-linecap:round; stroke-linejoin:round;fill-rule:evenodd;" d="M 47875000.000000,45350000.000000 47875000.000000,47150000.000000 47575000.000000,47150000.000000 47575000.000000,45350000.000000 Z"/> 
<svg:path style="fill:#C83434; fill-opacity:1.0;  stroke:#C83434; stroke-width:1.000000; stroke-opacity:1;  stroke-linecap:round; stroke-linejoin:round;fill-rule:evenodd;" d="M 47225000.000000,45350000.000000 47225000.000000,47150000.000000 46925000.000000,47150000.000000 46925000.000000,45350000.000000 Z"/> 
<svg:path style="fill:#C83434; fill-opacity:1.0;  stroke:#C83434; stroke-width:1.000000; stroke-opacity:1;  stroke-linecap:round; stroke-linejoin:round;fill-rule:evenodd;" d="M 46575000.000000,45350000.000000 46575000.000000,47150000.000000 46275000.000000,47150000.000000 46275000.000000,45350000.000000 Z"/> 
<svg:path style="fill:#C83434; fill-opacity:1.0;  stroke:#C83434; stroke-width:1.000000; stroke-opacity:1;  stroke-linecap:round; stroke-linejoin:round;fill-rule:evenodd;" d="M 45925000.000000,45350000.000000 45925000.000000,47150000.000000 45625000.000000,47150000.000000 45625000.000000,45350000.000000 Z"/> 
<svg:path style="fill:#C83434; fill-opacity:1.0;  stroke:#C83434; stroke-width:1.000000; stroke-opacity:1;  stroke-linecap:round; stroke-linejoin:round;fill-rule:evenodd;" d="M 45275000.000000,45350000.000000 45275000.000000,47150000.000000 44975000.000000,47150000.000000 44975000.000000,45350000.000000 Z"/> 
<svg:path style="fill:#C83434; fill-opacity:1.0;  stroke:#C83434; stroke-width:1.000000; stroke-opacity:1;  stroke-linecap:round; stroke-linejoin:round;fill-rule:evenodd;" d="M 44500000.000000,52600000.000000 44500000.000000,47400000.000000 55500000.000000,47400000.000000 55500000.000000,52600000.000000 Z"/> 
</svg:g>
<svg:g>
</svg:g>
<svg:g>
</svg:g>
<svg:g>
</svg:g>
</svg:g>
<svg:g style="fill:#FFFFFF; fill-opacity:1.0;  stroke:#FFFFFF; stroke-width:1.000000; stroke-opacity:1;  stroke-linecap:round; stroke-linejoin:round;">
</svg:g>
<svg:g style="fill:#000000; fill-opacity:1.0;  stroke:#000000; stroke-width:1.000000; stroke-opacity:1;  stroke-linecap:round; stroke-linejoin:round;">
<svg:g>
</svg:g>
<svg:g>
</svg:g>
<svg:g>
</svg:g>
<svg:g>
</svg:g>
</svg:g> 
</svg:g></svg>
