<?xml version='1.0' encoding='ASCII' standalone='yes'?>
<svg xmlns:svg="http://www.w3.org/2000/svg" xmlns="http://www.w3.org/2000/svg" xmlns:xlink="http://www.w3.org/1999/xlink" version="1.1" width="9.999980cm" height="9.999980cm" viewBox="0 0 99999800 99999800">
<title>SVG Picture created as kicadBoard-B_Cu.svg date 2022/11/21 16:18:25 </title>
  <desc>Picture generated by PCBNEW </desc>
<g style="fill:#000000; fill-opacity:1.000000;stroke:#000000; stroke-opacity:1.000000; stroke-linecap:round; stroke-linejoin:round;" transform="translate(0 0) scale(1 1)">
</g>
<g style="fill:#000000; fill-opacity:0.0;  stroke:#000000; stroke-width:0.000000; stroke-opacity:1;  stroke-linecap:round; stroke-linejoin:round;">
<g>
</g>
<g>
</g>
<g>
</g>
<g>
</g>
</g>
<g style="fill:#FFFFFF; fill-opacity:0.0;  stroke:#FFFFFF; stroke-width:0.000000; stroke-opacity:1;  stroke-linecap:round; stroke-linejoin:round;">
</g>
<g style="fill:#000000; fill-opacity:0.0;  stroke:#000000; stroke-width:0.000000; stroke-opacity:1;  stroke-linecap:round; stroke-linejoin:round;">
<g>
</g>
<g>
</g>
<g>
</g>
<g>
</g>
</g> 
<svg:g><svg:title>SVG Picture created as kicadBoard-B_Courtyard.svg date 2022/11/21 16:18:25 </svg:title>
  <svg:desc>Picture generated by PCBNEW </svg:desc>
<svg:g style="fill:#000000; fill-opacity:1.000000;stroke:#000000; stroke-opacity:1.000000; stroke-linecap:round; stroke-linejoin:round;" transform="translate(0 0) scale(1 1)">
</svg:g>
<svg:g style="fill:#000000; fill-opacity:0.0;  stroke:#000000; stroke-width:0.000000; stroke-opacity:1;  stroke-linecap:round; stroke-linejoin:round;">
<svg:g>
</svg:g>
<svg:g>
</svg:g>
<svg:g>
</svg:g>
<svg:g>
</svg:g>
</svg:g>
<svg:g style="fill:#000000; fill-opacity:0.0;  stroke:#000000; stroke-width:0.000000; stroke-opacity:1;  stroke-linecap:round; stroke-linejoin:round;">
<svg:g>
</svg:g>
<svg:g>
</svg:g>
<svg:g>
</svg:g>
<svg:g>
</svg:g>
</svg:g> 
</svg:g><svg:g><svg:title>SVG Picture created as kicadBoard-F_Courtyard.svg date 2022/11/21 16:18:25 </svg:title>
  <svg:desc>Picture generated by PCBNEW </svg:desc>
<svg:g style="fill:#000000; fill-opacity:1.000000;stroke:#000000; stroke-opacity:1.000000; stroke-linecap:round; stroke-linejoin:round;" transform="translate(0 0) scale(1 1)">
</svg:g>
<svg:g style="fill:#000000; fill-opacity:0.0;  stroke:#000000; stroke-width:0.000000; stroke-opacity:1;  stroke-linecap:round; stroke-linejoin:round;">
</svg:g>
<svg:g style="fill:#FF26E2; fill-opacity:0.0;  stroke:#FF26E2; stroke-width:0.000000; stroke-opacity:1;  stroke-linecap:round; stroke-linejoin:round;">
</svg:g>
<svg:g style="fill:#FF26E2; fill-opacity:0.0;  stroke:#FF26E2; stroke-width:50000.000000; stroke-opacity:1;  stroke-linecap:round; stroke-linejoin:round;">
<svg:path d="M56600000 46800000 L43400000 46800000 "/>
<svg:path d="M43400000 46800000 L43400000 53200000 "/>
<svg:path d="M43400000 53200000 L56600000 53200000 "/>
<svg:path d="M56600000 53200000 L56600000 46800000 "/>
<svg:g>
</svg:g>
<svg:g>
</svg:g>
<svg:g>
</svg:g>
<svg:g>
</svg:g>
</svg:g>
<svg:g style="fill:#000000; fill-opacity:0.0;  stroke:#000000; stroke-width:50000.000000; stroke-opacity:1;  stroke-linecap:round; stroke-linejoin:round;">
<svg:g>
</svg:g>
<svg:g>
</svg:g>
<svg:g>
</svg:g>
<svg:g>
</svg:g>
</svg:g> 
</svg:g><svg:g><svg:title>SVG Picture created as kicadBoard-F_Cu.svg date 2022/11/21 16:18:25 </svg:title>
  <svg:desc>Picture generated by PCBNEW </svg:desc>
<svg:g style="fill:#000000; fill-opacity:1.000000;stroke:#000000; stroke-opacity:1.000000; stroke-linecap:round; stroke-linejoin:round;" transform="translate(0 0) scale(1 1)">
</svg:g>
<svg:g style="fill:#000000; fill-opacity:0.0;  stroke:#000000; stroke-width:0.000000; stroke-opacity:1;  stroke-linecap:round; stroke-linejoin:round;">
<svg:g>
</svg:g>
<svg:g style="fill:#C83434; fill-opacity:0.0;  stroke:#C83434; stroke-width:0.000000; stroke-opacity:1;  stroke-linecap:round; stroke-linejoin:round;">
</svg:g>
<svg:g style="fill:#C83434; fill-opacity:0.0;  stroke:#C83434; stroke-width:1.000000; stroke-opacity:1;  stroke-linecap:round; stroke-linejoin:round;">
</svg:g>
<svg:g style="fill:#C83434; fill-opacity:1.0;  stroke:#C83434; stroke-width:1.000000; stroke-opacity:1;  stroke-linecap:round; stroke-linejoin:round;">
<svg:path style="fill:#C83434; fill-opacity:1.0;  stroke:#C83434; stroke-width:1.000000; stroke-opacity:1;  stroke-linecap:round; stroke-linejoin:round;fill-rule:evenodd;" d="M 45950000.000000,47450000.000000 45961418.000000,47392597.000000 45993934.000000,47343934.000000 46042597.000000,47311418.000000 46100000.000000,47300000.000000 46400000.000000,47300000.000000 46457403.000000,47311418.000000 46506066.000000,47343934.000000 46538582.000000,47392597.000000 46550000.000000,47450000.000000 46550000.000000,48850000.000000 46538582.000000,48907403.000000 46506066.000000,48956066.000000 46457403.000000,48988582.000000 46400000.000000,49000000.000000 46100000.000000,49000000.000000 46042597.000000,48988582.000000 45993934.000000,48956066.000000 45961418.000000,48907403.000000 45950000.000000,48850000.000000 Z"/> 
<svg:path style="fill:#C83434; fill-opacity:1.0;  stroke:#C83434; stroke-width:1.000000; stroke-opacity:1;  stroke-linecap:round; stroke-linejoin:round;fill-rule:evenodd;" d="M 47200000.000000,47450000.000000 47211418.000000,47392597.000000 47243934.000000,47343934.000000 47292597.000000,47311418.000000 47350000.000000,47300000.000000 47650000.000000,47300000.000000 47707403.000000,47311418.000000 47756066.000000,47343934.000000 47788582.000000,47392597.000000 47800000.000000,47450000.000000 47800000.000000,48850000.000000 47788582.000000,48907403.000000 47756066.000000,48956066.000000 47707403.000000,48988582.000000 47650000.000000,49000000.000000 47350000.000000,49000000.000000 47292597.000000,48988582.000000 47243934.000000,48956066.000000 47211418.000000,48907403.000000 47200000.000000,48850000.000000 Z"/> 
<svg:path style="fill:#C83434; fill-opacity:1.0;  stroke:#C83434; stroke-width:1.000000; stroke-opacity:1;  stroke-linecap:round; stroke-linejoin:round;fill-rule:evenodd;" d="M 48450000.000000,47450000.000000 48461418.000000,47392597.000000 48493934.000000,47343934.000000 48542597.000000,47311418.000000 48600000.000000,47300000.000000 48900000.000000,47300000.000000 48957403.000000,47311418.000000 49006066.000000,47343934.000000 49038582.000000,47392597.000000 49050000.000000,47450000.000000 49050000.000000,48850000.000000 49038582.000000,48907403.000000 49006066.000000,48956066.000000 48957403.000000,48988582.000000 48900000.000000,49000000.000000 48600000.000000,49000000.000000 48542597.000000,48988582.000000 48493934.000000,48956066.000000 48461418.000000,48907403.000000 48450000.000000,48850000.000000 Z"/> 
<svg:path style="fill:#C83434; fill-opacity:1.0;  stroke:#C83434; stroke-width:1.000000; stroke-opacity:1;  stroke-linecap:round; stroke-linejoin:round;fill-rule:evenodd;" d="M 49700000.000000,47450000.000000 49711418.000000,47392597.000000 49743934.000000,47343934.000000 49792597.000000,47311418.000000 49850000.000000,47300000.000000 50150000.000000,47300000.000000 50207403.000000,47311418.000000 50256066.000000,47343934.000000 50288582.000000,47392597.000000 50300000.000000,47450000.000000 50300000.000000,48850000.000000 50288582.000000,48907403.000000 50256066.000000,48956066.000000 50207403.000000,48988582.000000 50150000.000000,49000000.000000 49850000.000000,49000000.000000 49792597.000000,48988582.000000 49743934.000000,48956066.000000 49711418.000000,48907403.000000 49700000.000000,48850000.000000 Z"/> 
<svg:path style="fill:#C83434; fill-opacity:1.0;  stroke:#C83434; stroke-width:1.000000; stroke-opacity:1;  stroke-linecap:round; stroke-linejoin:round;fill-rule:evenodd;" d="M 50950000.000000,47450000.000000 50961418.000000,47392597.000000 50993934.000000,47343934.000000 51042597.000000,47311418.000000 51100000.000000,47300000.000000 51400000.000000,47300000.000000 51457403.000000,47311418.000000 51506066.000000,47343934.000000 51538582.000000,47392597.000000 51550000.000000,47450000.000000 51550000.000000,48850000.000000 51538582.000000,48907403.000000 51506066.000000,48956066.000000 51457403.000000,48988582.000000 51400000.000000,49000000.000000 51100000.000000,49000000.000000 51042597.000000,48988582.000000 50993934.000000,48956066.000000 50961418.000000,48907403.000000 50950000.000000,48850000.000000 Z"/> 
<svg:path style="fill:#C83434; fill-opacity:1.0;  stroke:#C83434; stroke-width:1.000000; stroke-opacity:1;  stroke-linecap:round; stroke-linejoin:round;fill-rule:evenodd;" d="M 52200000.000000,47450000.000000 52211418.000000,47392597.000000 52243934.000000,47343934.000000 52292597.000000,47311418.000000 52350000.000000,47300000.000000 52650000.000000,47300000.000000 52707403.000000,47311418.000000 52756066.000000,47343934.000000 52788582.000000,47392597.000000 52800000.000000,47450000.000000 52800000.000000,48850000.000000 52788582.000000,48907403.000000 52756066.000000,48956066.000000 52707403.000000,48988582.000000 52650000.000000,49000000.000000 52350000.000000,49000000.000000 52292597.000000,48988582.000000 52243934.000000,48956066.000000 52211418.000000,48907403.000000 52200000.000000,48850000.000000 Z"/> 
<svg:path style="fill:#C83434; fill-opacity:1.0;  stroke:#C83434; stroke-width:1.000000; stroke-opacity:1;  stroke-linecap:round; stroke-linejoin:round;fill-rule:evenodd;" d="M 53450000.000000,47450000.000000 53461418.000000,47392597.000000 53493934.000000,47343934.000000 53542597.000000,47311418.000000 53600000.000000,47300000.000000 53900000.000000,47300000.000000 53957403.000000,47311418.000000 54006066.000000,47343934.000000 54038582.000000,47392597.000000 54050000.000000,47450000.000000 54050000.000000,48850000.000000 54038582.000000,48907403.000000 54006066.000000,48956066.000000 53957403.000000,48988582.000000 53900000.000000,49000000.000000 53600000.000000,49000000.000000 53542597.000000,48988582.000000 53493934.000000,48956066.000000 53461418.000000,48907403.000000 53450000.000000,48850000.000000 Z"/> 
<svg:path style="fill:#C83434; fill-opacity:1.0;  stroke:#C83434; stroke-width:1.000000; stroke-opacity:1;  stroke-linecap:round; stroke-linejoin:round;fill-rule:evenodd;" d="M 43900000.000000,50250000.000000 43919030.000000,50154329.000000 43973223.000000,50073223.000000 44054329.000000,50019030.000000 44150000.000000,50000000.000000 44650000.000000,50000000.000000 44745671.000000,50019030.000000 44826777.000000,50073223.000000 44880970.000000,50154329.000000 44900000.000000,50250000.000000 44900000.000000,52450000.000000 44880970.000000,52545671.000000 44826777.000000,52626777.000000 44745671.000000,52680970.000000 44650000.000000,52700000.000000 44150000.000000,52700000.000000 44054329.000000,52680970.000000 43973223.000000,52626777.000000 43919030.000000,52545671.000000 43900000.000000,52450000.000000 Z"/> 
<svg:path style="fill:#C83434; fill-opacity:1.0;  stroke:#C83434; stroke-width:1.000000; stroke-opacity:1;  stroke-linecap:round; stroke-linejoin:round;fill-rule:evenodd;" d="M 55100000.000000,50250000.000000 55119030.000000,50154329.000000 55173223.000000,50073223.000000 55254329.000000,50019030.000000 55350000.000000,50000000.000000 55850000.000000,50000000.000000 55945671.000000,50019030.000000 56026777.000000,50073223.000000 56080970.000000,50154329.000000 56100000.000000,50250000.000000 56100000.000000,52450000.000000 56080970.000000,52545671.000000 56026777.000000,52626777.000000 55945671.000000,52680970.000000 55850000.000000,52700000.000000 55350000.000000,52700000.000000 55254329.000000,52680970.000000 55173223.000000,52626777.000000 55119030.000000,52545671.000000 55100000.000000,52450000.000000 Z"/> 
</svg:g>
<svg:g>
</svg:g>
<svg:g>
</svg:g>
<svg:g>
</svg:g>
</svg:g>
<svg:g style="fill:#FFFFFF; fill-opacity:1.0;  stroke:#FFFFFF; stroke-width:1.000000; stroke-opacity:1;  stroke-linecap:round; stroke-linejoin:round;">
</svg:g>
<svg:g style="fill:#000000; fill-opacity:1.0;  stroke:#000000; stroke-width:1.000000; stroke-opacity:1;  stroke-linecap:round; stroke-linejoin:round;">
<svg:g>
</svg:g>
<svg:g>
</svg:g>
<svg:g>
</svg:g>
<svg:g>
</svg:g>
</svg:g> 
</svg:g></svg>
