<?xml version='1.0' encoding='ASCII' standalone='yes'?>
<svg xmlns:svg="http://www.w3.org/2000/svg" xmlns="http://www.w3.org/2000/svg" xmlns:xlink="http://www.w3.org/1999/xlink" version="1.1" width="9.999980cm" height="9.999980cm" viewBox="0 0 99999800 99999800">
<title>SVG Picture created as kicadBoard-B_Cu.svg date 2022/11/18 21:41:28 </title>
  <desc>Picture generated by PCBNEW </desc>
<g style="fill:#000000; fill-opacity:1.000000;stroke:#000000; stroke-opacity:1.000000; stroke-linecap:round; stroke-linejoin:round;" transform="translate(0 0) scale(1 1)">
</g>
<g style="fill:#000000; fill-opacity:0.0;  stroke:#000000; stroke-width:0.000000; stroke-opacity:1;  stroke-linecap:round; stroke-linejoin:round;">
<g>
</g>
<g>
</g>
<g>
</g>
<g>
</g>
</g>
<g style="fill:#FFFFFF; fill-opacity:0.0;  stroke:#FFFFFF; stroke-width:0.000000; stroke-opacity:1;  stroke-linecap:round; stroke-linejoin:round;">
</g>
<g style="fill:#000000; fill-opacity:0.0;  stroke:#000000; stroke-width:0.000000; stroke-opacity:1;  stroke-linecap:round; stroke-linejoin:round;">
<g>
</g>
<g>
</g>
<g>
</g>
<g>
</g>
</g> 
<svg:g><svg:title>SVG Picture created as kicadBoard-B_Adhesive.svg date 2022/11/18 21:41:28 </svg:title>
  <svg:desc>Picture generated by PCBNEW </svg:desc>
<svg:g style="fill:#000000; fill-opacity:1.000000;stroke:#000000; stroke-opacity:1.000000; stroke-linecap:round; stroke-linejoin:round;" transform="translate(0 0) scale(1 1)">
</svg:g>
<svg:g style="fill:#000000; fill-opacity:0.0;  stroke:#000000; stroke-width:0.000000; stroke-opacity:1;  stroke-linecap:round; stroke-linejoin:round;">
<svg:g>
</svg:g>
<svg:g>
</svg:g>
<svg:g>
</svg:g>
<svg:g>
</svg:g>
</svg:g>
<svg:g style="fill:#000000; fill-opacity:0.0;  stroke:#000000; stroke-width:0.000000; stroke-opacity:1;  stroke-linecap:round; stroke-linejoin:round;">
<svg:g>
</svg:g>
<svg:g>
</svg:g>
<svg:g>
</svg:g>
<svg:g>
</svg:g>
</svg:g> 
</svg:g><svg:g><svg:title>SVG Picture created as kicadBoard-B_Courtyard.svg date 2022/11/18 21:41:28 </svg:title>
  <svg:desc>Picture generated by PCBNEW </svg:desc>
<svg:g style="fill:#000000; fill-opacity:1.000000;stroke:#000000; stroke-opacity:1.000000; stroke-linecap:round; stroke-linejoin:round;" transform="translate(0 0) scale(1 1)">
</svg:g>
<svg:g style="fill:#000000; fill-opacity:0.0;  stroke:#000000; stroke-width:0.000000; stroke-opacity:1;  stroke-linecap:round; stroke-linejoin:round;">
<svg:g>
</svg:g>
<svg:g>
</svg:g>
<svg:g>
</svg:g>
<svg:g>
</svg:g>
</svg:g>
<svg:g style="fill:#000000; fill-opacity:0.0;  stroke:#000000; stroke-width:0.000000; stroke-opacity:1;  stroke-linecap:round; stroke-linejoin:round;">
<svg:g>
</svg:g>
<svg:g>
</svg:g>
<svg:g>
</svg:g>
<svg:g>
</svg:g>
</svg:g> 
</svg:g><svg:g><svg:title>SVG Picture created as kicadBoard-B_Fab.svg date 2022/11/18 21:41:28 </svg:title>
  <svg:desc>Picture generated by PCBNEW </svg:desc>
<svg:g style="fill:#000000; fill-opacity:1.000000;stroke:#000000; stroke-opacity:1.000000; stroke-linecap:round; stroke-linejoin:round;" transform="translate(0 0) scale(1 1)">
</svg:g>
<svg:g style="fill:#000000; fill-opacity:0.0;  stroke:#000000; stroke-width:0.000000; stroke-opacity:1;  stroke-linecap:round; stroke-linejoin:round;">
<svg:g>
</svg:g>
<svg:g>
</svg:g>
<svg:g>
</svg:g>
<svg:g>
</svg:g>
</svg:g>
<svg:g style="fill:#000000; fill-opacity:0.0;  stroke:#000000; stroke-width:0.000000; stroke-opacity:1;  stroke-linecap:round; stroke-linejoin:round;">
<svg:g>
</svg:g>
<svg:g>
</svg:g>
<svg:g>
</svg:g>
<svg:g>
</svg:g>
</svg:g> 
</svg:g><svg:g><svg:title>SVG Picture created as kicadBoard-B_Mask.svg date 2022/11/18 21:41:28 </svg:title>
  <svg:desc>Picture generated by PCBNEW </svg:desc>
<svg:g style="fill:#000000; fill-opacity:1.000000;stroke:#000000; stroke-opacity:1.000000; stroke-linecap:round; stroke-linejoin:round;" transform="translate(0 0) scale(1 1)">
</svg:g>
<svg:g style="fill:#000000; fill-opacity:0.0;  stroke:#000000; stroke-width:0.000000; stroke-opacity:1;  stroke-linecap:round; stroke-linejoin:round;">
<svg:g>
</svg:g>
<svg:g>
</svg:g>
<svg:g>
</svg:g>
<svg:g>
</svg:g>
</svg:g>
<svg:g style="fill:#000000; fill-opacity:0.0;  stroke:#000000; stroke-width:0.000000; stroke-opacity:1;  stroke-linecap:round; stroke-linejoin:round;">
<svg:g>
</svg:g>
<svg:g>
</svg:g>
<svg:g>
</svg:g>
<svg:g>
</svg:g>
</svg:g> 
</svg:g><svg:g><svg:title>SVG Picture created as kicadBoard-B_Paste.svg date 2022/11/18 21:41:28 </svg:title>
  <svg:desc>Picture generated by PCBNEW </svg:desc>
<svg:g style="fill:#000000; fill-opacity:1.000000;stroke:#000000; stroke-opacity:1.000000; stroke-linecap:round; stroke-linejoin:round;" transform="translate(0 0) scale(1 1)">
</svg:g>
<svg:g style="fill:#000000; fill-opacity:0.0;  stroke:#000000; stroke-width:0.000000; stroke-opacity:1;  stroke-linecap:round; stroke-linejoin:round;">
<svg:g>
</svg:g>
<svg:g>
</svg:g>
<svg:g>
</svg:g>
<svg:g>
</svg:g>
</svg:g>
<svg:g style="fill:#000000; fill-opacity:0.0;  stroke:#000000; stroke-width:0.000000; stroke-opacity:1;  stroke-linecap:round; stroke-linejoin:round;">
<svg:g>
</svg:g>
<svg:g>
</svg:g>
<svg:g>
</svg:g>
<svg:g>
</svg:g>
</svg:g> 
</svg:g><svg:g><svg:title>SVG Picture created as kicadBoard-B_Silkscreen.svg date 2022/11/18 21:41:28 </svg:title>
  <svg:desc>Picture generated by PCBNEW </svg:desc>
<svg:g style="fill:#000000; fill-opacity:1.000000;stroke:#000000; stroke-opacity:1.000000; stroke-linecap:round; stroke-linejoin:round;" transform="translate(0 0) scale(1 1)">
</svg:g>
<svg:g style="fill:#000000; fill-opacity:0.0;  stroke:#000000; stroke-width:0.000000; stroke-opacity:1;  stroke-linecap:round; stroke-linejoin:round;">
<svg:g>
</svg:g>
<svg:g>
</svg:g>
<svg:g>
</svg:g>
<svg:g>
</svg:g>
</svg:g>
<svg:g style="fill:#000000; fill-opacity:0.0;  stroke:#000000; stroke-width:0.000000; stroke-opacity:1;  stroke-linecap:round; stroke-linejoin:round;">
<svg:g>
</svg:g>
<svg:g>
</svg:g>
<svg:g>
</svg:g>
<svg:g>
</svg:g>
</svg:g> 
</svg:g><svg:g><svg:title>SVG Picture created as kicadBoard-Edge_Cuts.svg date 2022/11/18 21:41:28 </svg:title>
  <svg:desc>Picture generated by PCBNEW </svg:desc>
<svg:g style="fill:#000000; fill-opacity:1.000000;stroke:#000000; stroke-opacity:1.000000; stroke-linecap:round; stroke-linejoin:round;" transform="translate(0 0) scale(1 1)">
</svg:g>
<svg:g style="fill:#000000; fill-opacity:0.0;  stroke:#000000; stroke-width:0.000000; stroke-opacity:1;  stroke-linecap:round; stroke-linejoin:round;">
<svg:g>
</svg:g>
<svg:g>
</svg:g>
<svg:g>
</svg:g>
<svg:g>
</svg:g>
</svg:g> 
</svg:g><svg:g><svg:title>SVG Picture created as kicadBoard-F_Adhesive.svg date 2022/11/18 21:41:28 </svg:title>
  <svg:desc>Picture generated by PCBNEW </svg:desc>
<svg:g style="fill:#000000; fill-opacity:1.000000;stroke:#000000; stroke-opacity:1.000000; stroke-linecap:round; stroke-linejoin:round;" transform="translate(0 0) scale(1 1)">
</svg:g>
<svg:g style="fill:#000000; fill-opacity:0.0;  stroke:#000000; stroke-width:0.000000; stroke-opacity:1;  stroke-linecap:round; stroke-linejoin:round;">
<svg:g>
</svg:g>
<svg:g>
</svg:g>
<svg:g>
</svg:g>
<svg:g>
</svg:g>
</svg:g>
<svg:g style="fill:#000000; fill-opacity:0.0;  stroke:#000000; stroke-width:0.000000; stroke-opacity:1;  stroke-linecap:round; stroke-linejoin:round;">
<svg:g>
</svg:g>
<svg:g>
</svg:g>
<svg:g>
</svg:g>
<svg:g>
</svg:g>
</svg:g> 
</svg:g><svg:g><svg:title>SVG Picture created as kicadBoard-F_Courtyard.svg date 2022/11/18 21:41:28 </svg:title>
  <svg:desc>Picture generated by PCBNEW </svg:desc>
<svg:g style="fill:#000000; fill-opacity:1.000000;stroke:#000000; stroke-opacity:1.000000; stroke-linecap:round; stroke-linejoin:round;" transform="translate(0 0) scale(1 1)">
</svg:g>
<svg:g style="fill:#000000; fill-opacity:0.0;  stroke:#000000; stroke-width:0.000000; stroke-opacity:1;  stroke-linecap:round; stroke-linejoin:round;">
</svg:g>
<svg:g style="fill:#FF26E2; fill-opacity:0.0;  stroke:#FF26E2; stroke-width:0.000000; stroke-opacity:1;  stroke-linecap:round; stroke-linejoin:round;">
</svg:g>
<svg:g style="fill:#FF26E2; fill-opacity:0.0;  stroke:#FF26E2; stroke-width:50000.000000; stroke-opacity:1;  stroke-linecap:round; stroke-linejoin:round;">
<svg:path d="M52250000 52000000 L47750000 52000000 "/>
<svg:path d="M47750000 48000000 L52250000 48000000 "/>
<svg:path d="M52250000 48000000 L52250000 52000000 "/>
<svg:path d="M47750000 52000000 L47750000 48000000 "/>
<svg:g>
</svg:g>
<svg:g>
</svg:g>
<svg:g>
</svg:g>
<svg:g>
</svg:g>
</svg:g>
<svg:g style="fill:#000000; fill-opacity:0.0;  stroke:#000000; stroke-width:50000.000000; stroke-opacity:1;  stroke-linecap:round; stroke-linejoin:round;">
<svg:g>
</svg:g>
<svg:g>
</svg:g>
<svg:g>
</svg:g>
<svg:g>
</svg:g>
</svg:g> 
</svg:g><svg:g><svg:title>SVG Picture created as kicadBoard-F_Fab.svg date 2022/11/18 21:41:28 </svg:title>
  <svg:desc>Picture generated by PCBNEW </svg:desc>
<svg:g style="fill:#000000; fill-opacity:1.000000;stroke:#000000; stroke-opacity:1.000000; stroke-linecap:round; stroke-linejoin:round;" transform="translate(0 0) scale(1 1)">
</svg:g>
<svg:g style="fill:#000000; fill-opacity:0.0;  stroke:#000000; stroke-width:0.000000; stroke-opacity:1;  stroke-linecap:round; stroke-linejoin:round;">
</svg:g>
<svg:g style="fill:#AFAFAF; fill-opacity:0.0;  stroke:#AFAFAF; stroke-width:0.000000; stroke-opacity:1;  stroke-linecap:round; stroke-linejoin:round;">
</svg:g>
<svg:g style="fill:#AFAFAF; fill-opacity:0.0;  stroke:#AFAFAF; stroke-width:150000.000000; stroke-opacity:1;  stroke-linecap:round; stroke-linejoin:round;">
<svg:text x="50250000.000000" y="53250000.000000" textLength="48385476.000000" font-size="1333333.000000" lengthAdjust="spacingAndGlyphs" text-anchor="middle" opacity="0">Texas_MicroStar_Junior_BGA-12_2.0x2.5mm_Layout4x3_P0.5mm</svg:text>
<svg:g class="stroked-text"><svg:desc>Texas_MicroStar_Junior_BGA-12_2.0x2.5mm_Layout4x3_P0.5mm</svg:desc>
<svg:path d="M26250000 52202380 L26821428 52202380 "/>
<svg:path d="M26535714 53202380 L26535714 52202380 "/>
<svg:path d="M27535714 53154761 L27440476 53202380 L27250000 53202380 L27154761 53154761 L27107142 53059523 L27107142 52678571 L27154761 52583333 L27250000 52535714 L27440476 52535714 L27535714 52583333 L27583333 52678571 L27583333 52773809 L27107142 52869047 "/>
<svg:path d="M27916666 53202380 L28440476 52535714 "/>
<svg:path d="M27916666 52535714 L28440476 53202380 "/>
<svg:path d="M29250000 53202380 L29250000 52678571 L29202380 52583333 L29107142 52535714 L28916666 52535714 L28821428 52583333 "/>
<svg:path d="M29250000 53154761 L29154761 53202380 L28916666 53202380 L28821428 53154761 L28773809 53059523 L28773809 52964285 L28821428 52869047 L28916666 52821428 L29154761 52821428 L29250000 52773809 "/>
<svg:path d="M29678571 53154761 L29773809 53202380 L29964285 53202380 L30059523 53154761 L30107142 53059523 L30107142 53011904 L30059523 52916666 L29964285 52869047 L29821428 52869047 L29726190 52821428 L29678571 52726190 L29678571 52678571 L29726190 52583333 L29821428 52535714 L29964285 52535714 L30059523 52583333 "/>
<svg:path d="M30297619 53297619 L31059523 53297619 "/>
<svg:path d="M31297619 53202380 L31297619 52202380 L31630952 52916666 L31964285 52202380 L31964285 53202380 "/>
<svg:path d="M32440476 53202380 L32440476 52535714 "/>
<svg:path d="M32440476 52202380 L32392857 52250000 L32440476 52297619 L32488095 52250000 L32440476 52202380 L32440476 52297619 "/>
<svg:path d="M33345238 53154761 L33250000 53202380 L33059523 53202380 L32964285 53154761 L32916666 53107142 L32869047 53011904 L32869047 52726190 L32916666 52630952 L32964285 52583333 L33059523 52535714 L33250000 52535714 L33345238 52583333 "/>
<svg:path d="M33773809 53202380 L33773809 52535714 "/>
<svg:path d="M33773809 52726190 L33821428 52630952 L33869047 52583333 L33964285 52535714 L34059523 52535714 "/>
<svg:path d="M34535714 53202380 L34440476 53154761 L34392857 53107142 L34345238 53011904 L34345238 52726190 L34392857 52630952 L34440476 52583333 L34535714 52535714 L34678571 52535714 L34773809 52583333 L34821428 52630952 L34869047 52726190 L34869047 53011904 L34821428 53107142 L34773809 53154761 L34678571 53202380 L34535714 53202380 "/>
<svg:path d="M35250000 53154761 L35392857 53202380 L35630952 53202380 L35726190 53154761 L35773809 53107142 L35821428 53011904 L35821428 52916666 L35773809 52821428 L35726190 52773809 L35630952 52726190 L35440476 52678571 L35345238 52630952 L35297619 52583333 L35250000 52488095 L35250000 52392857 L35297619 52297619 L35345238 52250000 L35440476 52202380 L35678571 52202380 L35821428 52250000 "/>
<svg:path d="M36107142 52535714 L36488095 52535714 "/>
<svg:path d="M36250000 52202380 L36250000 53059523 L36297619 53154761 L36392857 53202380 L36488095 53202380 "/>
<svg:path d="M37250000 53202380 L37250000 52678571 L37202380 52583333 L37107142 52535714 L36916666 52535714 L36821428 52583333 "/>
<svg:path d="M37250000 53154761 L37154761 53202380 L36916666 53202380 L36821428 53154761 L36773809 53059523 L36773809 52964285 L36821428 52869047 L36916666 52821428 L37154761 52821428 L37250000 52773809 "/>
<svg:path d="M37726190 53202380 L37726190 52535714 "/>
<svg:path d="M37726190 52726190 L37773809 52630952 L37821428 52583333 L37916666 52535714 L38011904 52535714 "/>
<svg:path d="M38107142 53297619 L38869047 53297619 "/>
<svg:path d="M39392857 52202380 L39392857 52916666 L39345238 53059523 L39250000 53154761 L39107142 53202380 L39011904 53202380 "/>
<svg:path d="M40297619 52535714 L40297619 53202380 "/>
<svg:path d="M39869047 52535714 L39869047 53059523 L39916666 53154761 L40011904 53202380 L40154761 53202380 L40250000 53154761 L40297619 53107142 "/>
<svg:path d="M40773809 52535714 L40773809 53202380 "/>
<svg:path d="M40773809 52630952 L40821428 52583333 L40916666 52535714 L41059523 52535714 L41154761 52583333 L41202380 52678571 L41202380 53202380 "/>
<svg:path d="M41678571 53202380 L41678571 52535714 "/>
<svg:path d="M41678571 52202380 L41630952 52250000 L41678571 52297619 L41726190 52250000 L41678571 52202380 L41678571 52297619 "/>
<svg:path d="M42297619 53202380 L42202380 53154761 L42154761 53107142 L42107142 53011904 L42107142 52726190 L42154761 52630952 L42202380 52583333 L42297619 52535714 L42440476 52535714 L42535714 52583333 L42583333 52630952 L42630952 52726190 L42630952 53011904 L42583333 53107142 L42535714 53154761 L42440476 53202380 L42297619 53202380 "/>
<svg:path d="M43059523 53202380 L43059523 52535714 "/>
<svg:path d="M43059523 52726190 L43107142 52630952 L43154761 52583333 L43250000 52535714 L43345238 52535714 "/>
<svg:path d="M43440476 53297619 L44202380 53297619 "/>
<svg:path d="M44773809 52678571 L44916666 52726190 L44964285 52773809 L45011904 52869047 L45011904 53011904 L44964285 53107142 L44916666 53154761 L44821428 53202380 L44440476 53202380 L44440476 52202380 L44773809 52202380 L44869047 52250000 L44916666 52297619 L44964285 52392857 L44964285 52488095 L44916666 52583333 L44869047 52630952 L44773809 52678571 L44440476 52678571 "/>
<svg:path d="M45964285 52250000 L45869047 52202380 L45726190 52202380 L45583333 52250000 L45488095 52345238 L45440476 52440476 L45392857 52630952 L45392857 52773809 L45440476 52964285 L45488095 53059523 L45583333 53154761 L45726190 53202380 L45821428 53202380 L45964285 53154761 L46011904 53107142 L46011904 52773809 L45821428 52773809 "/>
<svg:path d="M46392857 52916666 L46869047 52916666 "/>
<svg:path d="M46297619 53202380 L46630952 52202380 L46964285 53202380 "/>
<svg:path d="M47297619 52821428 L48059523 52821428 "/>
<svg:path d="M49059523 53202380 L48488095 53202380 "/>
<svg:path d="M48773809 53202380 L48773809 52202380 L48678571 52345238 L48583333 52440476 L48488095 52488095 "/>
<svg:path d="M49440476 52297619 L49488095 52250000 L49583333 52202380 L49821428 52202380 L49916666 52250000 L49964285 52297619 L50011904 52392857 L50011904 52488095 L49964285 52630952 L49392857 53202380 L50011904 53202380 "/>
<svg:path d="M50202380 53297619 L50964285 53297619 "/>
<svg:path d="M51154761 52297619 L51202380 52250000 L51297619 52202380 L51535714 52202380 L51630952 52250000 L51678571 52297619 L51726190 52392857 L51726190 52488095 L51678571 52630952 L51107142 53202380 L51726190 53202380 "/>
<svg:path d="M52154761 53107142 L52202380 53154761 L52154761 53202380 L52107142 53154761 L52154761 53107142 L52154761 53202380 "/>
<svg:path d="M52821428 52202380 L52916666 52202380 L53011904 52250000 L53059523 52297619 L53107142 52392857 L53154761 52583333 L53154761 52821428 L53107142 53011904 L53059523 53107142 L53011904 53154761 L52916666 53202380 L52821428 53202380 L52726190 53154761 L52678571 53107142 L52630952 53011904 L52583333 52821428 L52583333 52583333 L52630952 52392857 L52678571 52297619 L52726190 52250000 L52821428 52202380 "/>
<svg:path d="M53488095 53202380 L54011904 52535714 "/>
<svg:path d="M53488095 52535714 L54011904 53202380 "/>
<svg:path d="M54345238 52297619 L54392857 52250000 L54488095 52202380 L54726190 52202380 L54821428 52250000 L54869047 52297619 L54916666 52392857 L54916666 52488095 L54869047 52630952 L54297619 53202380 L54916666 53202380 "/>
<svg:path d="M55345238 53107142 L55392857 53154761 L55345238 53202380 L55297619 53154761 L55345238 53107142 L55345238 53202380 "/>
<svg:path d="M56297619 52202380 L55821428 52202380 L55773809 52678571 L55821428 52630952 L55916666 52583333 L56154761 52583333 L56250000 52630952 L56297619 52678571 L56345238 52773809 L56345238 53011904 L56297619 53107142 L56250000 53154761 L56154761 53202380 L55916666 53202380 L55821428 53154761 L55773809 53107142 "/>
<svg:path d="M56773809 53202380 L56773809 52535714 "/>
<svg:path d="M56773809 52630952 L56821428 52583333 L56916666 52535714 L57059523 52535714 L57154761 52583333 L57202380 52678571 L57202380 53202380 "/>
<svg:path d="M57202380 52678571 L57250000 52583333 L57345238 52535714 L57488095 52535714 L57583333 52583333 L57630952 52678571 L57630952 53202380 "/>
<svg:path d="M58107142 53202380 L58107142 52535714 "/>
<svg:path d="M58107142 52630952 L58154761 52583333 L58250000 52535714 L58392857 52535714 L58488095 52583333 L58535714 52678571 L58535714 53202380 "/>
<svg:path d="M58535714 52678571 L58583333 52583333 L58678571 52535714 L58821428 52535714 L58916666 52583333 L58964285 52678571 L58964285 53202380 "/>
<svg:path d="M59202380 53297619 L59964285 53297619 "/>
<svg:path d="M60678571 53202380 L60202380 53202380 L60202380 52202380 "/>
<svg:path d="M61440476 53202380 L61440476 52678571 L61392857 52583333 L61297619 52535714 L61107142 52535714 L61011904 52583333 "/>
<svg:path d="M61440476 53154761 L61345238 53202380 L61107142 53202380 L61011904 53154761 L60964285 53059523 L60964285 52964285 L61011904 52869047 L61107142 52821428 L61345238 52821428 L61440476 52773809 "/>
<svg:path d="M61821428 52535714 L62059523 53202380 "/>
<svg:path d="M62297619 52535714 L62059523 53202380 L61964285 53440476 L61916666 53488095 L61821428 53535714 "/>
<svg:path d="M62821428 53202380 L62726190 53154761 L62678571 53107142 L62630952 53011904 L62630952 52726190 L62678571 52630952 L62726190 52583333 L62821428 52535714 L62964285 52535714 L63059523 52583333 L63107142 52630952 L63154761 52726190 L63154761 53011904 L63107142 53107142 L63059523 53154761 L62964285 53202380 L62821428 53202380 "/>
<svg:path d="M64011904 52535714 L64011904 53202380 "/>
<svg:path d="M63583333 52535714 L63583333 53059523 L63630952 53154761 L63726190 53202380 L63869047 53202380 L63964285 53154761 L64011904 53107142 "/>
<svg:path d="M64345238 52535714 L64726190 52535714 "/>
<svg:path d="M64488095 52202380 L64488095 53059523 L64535714 53154761 L64630952 53202380 L64726190 53202380 "/>
<svg:path d="M65488095 52535714 L65488095 53202380 "/>
<svg:path d="M65249999 52154761 L65011904 52869047 L65630952 52869047 "/>
<svg:path d="M65916666 53202380 L66440476 52535714 "/>
<svg:path d="M65916666 52535714 L66440476 53202380 "/>
<svg:path d="M66726190 52202380 L67345238 52202380 L67011904 52583333 L67154761 52583333 L67250000 52630952 L67297619 52678571 L67345238 52773809 L67345238 53011904 L67297619 53107142 L67250000 53154761 L67154761 53202380 L66869047 53202380 L66773809 53154761 L66726190 53107142 "/>
<svg:path d="M67535714 53297619 L68297619 53297619 "/>
<svg:path d="M68535714 53202380 L68535714 52202380 L68916666 52202380 L69011904 52250000 L69059523 52297619 L69107142 52392857 L69107142 52535714 L69059523 52630952 L69011904 52678571 L68916666 52726190 L68535714 52726190 "/>
<svg:path d="M69726190 52202380 L69821428 52202380 L69916666 52250000 L69964285 52297619 L70011904 52392857 L70059523 52583333 L70059523 52821428 L70011904 53011904 L69964285 53107142 L69916666 53154761 L69821428 53202380 L69726190 53202380 L69630952 53154761 L69583333 53107142 L69535714 53011904 L69488095 52821428 L69488095 52583333 L69535714 52392857 L69583333 52297619 L69630952 52250000 L69726190 52202380 "/>
<svg:path d="M70488095 53107142 L70535714 53154761 L70488095 53202380 L70440476 53154761 L70488095 53107142 L70488095 53202380 "/>
<svg:path d="M71440476 52202380 L70964285 52202380 L70916666 52678571 L70964285 52630952 L71059523 52583333 L71297619 52583333 L71392857 52630952 L71440476 52678571 L71488095 52773809 L71488095 53011904 L71440476 53107142 L71392857 53154761 L71297619 53202380 L71059523 53202380 L70964285 53154761 L70916666 53107142 "/>
<svg:path d="M71916666 53202380 L71916666 52535714 "/>
<svg:path d="M71916666 52630952 L71964285 52583333 L72059523 52535714 L72202380 52535714 L72297619 52583333 L72345238 52678571 L72345238 53202380 "/>
<svg:path d="M72345238 52678571 L72392857 52583333 L72488095 52535714 L72630952 52535714 L72726190 52583333 L72773809 52678571 L72773809 53202380 "/>
<svg:path d="M73250000 53202380 L73250000 52535714 "/>
<svg:path d="M73250000 52630952 L73297619 52583333 L73392857 52535714 L73535714 52535714 L73630952 52583333 L73678571 52678571 L73678571 53202380 "/>
<svg:path d="M73678571 52678571 L73726190 52583333 L73821428 52535714 L73964285 52535714 L74059523 52583333 L74107142 52678571 L74107142 53202380 "/>
</svg:g></svg:g>
<svg:g style="fill:#AFAFAF; fill-opacity:0.0;  stroke:#AFAFAF; stroke-width:60000.000000; stroke-opacity:1;  stroke-linecap:round; stroke-linejoin:round;">
<svg:text x="50000000.000000" y="50300000.000000" textLength="23566429.000000" font-size="800000.000000" lengthAdjust="spacingAndGlyphs" text-anchor="middle" opacity="0">FZKBGATEXASMSTARJUNIORBGA122X25LAYOUT4X3P5</svg:text>
<svg:g class="stroked-text"><svg:desc>FZKBGATEXASMSTARJUNIORBGA122X25LAYOUT4X3P5</svg:desc>
<svg:path d="M38657142 49957142 L38457142 49957142 "/>
<svg:path d="M38457142 50271428 L38457142 49671428 L38742857 49671428 "/>
<svg:path d="M38914285 49671428 L39314285 49671428 L38914285 50271428 L39314285 50271428 "/>
<svg:path d="M39542857 50271428 L39542857 49671428 "/>
<svg:path d="M39885714 50271428 L39628571 49928571 "/>
<svg:path d="M39885714 49671428 L39542857 50014285 "/>
<svg:path d="M40342857 49957142 L40428571 49985714 L40457142 50014285 L40485714 50071428 L40485714 50157142 L40457142 50214285 L40428571 50242857 L40371428 50271428 L40142857 50271428 L40142857 49671428 L40342857 49671428 L40400000 49700000 L40428571 49728571 L40457142 49785714 L40457142 49842857 L40428571 49900000 L40400000 49928571 L40342857 49957142 L40142857 49957142 "/>
<svg:path d="M41057142 49700000 L41000000 49671428 L40914285 49671428 L40828571 49700000 L40771428 49757142 L40742857 49814285 L40714285 49928571 L40714285 50014285 L40742857 50128571 L40771428 50185714 L40828571 50242857 L40914285 50271428 L40971428 50271428 L41057142 50242857 L41085714 50214285 L41085714 50014285 L40971428 50014285 "/>
<svg:path d="M41314285 50100000 L41600000 50100000 "/>
<svg:path d="M41257142 50271428 L41457142 49671428 L41657142 50271428 "/>
<svg:path d="M41771428 49671428 L42114285 49671428 "/>
<svg:path d="M41942857 50271428 L41942857 49671428 "/>
<svg:path d="M42314285 49957142 L42514285 49957142 "/>
<svg:path d="M42600000 50271428 L42314285 50271428 L42314285 49671428 L42600000 49671428 "/>
<svg:path d="M42800000 49671428 L43200000 50271428 "/>
<svg:path d="M43200000 49671428 L42800000 50271428 "/>
<svg:path d="M43400000 50100000 L43685714 50100000 "/>
<svg:path d="M43342857 50271428 L43542857 49671428 L43742857 50271428 "/>
<svg:path d="M43914285 50242857 L44000000 50271428 L44142857 50271428 L44200000 50242857 L44228571 50214285 L44257142 50157142 L44257142 50100000 L44228571 50042857 L44200000 50014285 L44142857 49985714 L44028571 49957142 L43971428 49928571 L43942857 49900000 L43914285 49842857 L43914285 49785714 L43942857 49728571 L43971428 49700000 L44028571 49671428 L44171428 49671428 L44257142 49700000 "/>
<svg:path d="M44514285 50271428 L44514285 49671428 L44714285 50100000 L44914285 49671428 L44914285 50271428 "/>
<svg:path d="M45171428 50242857 L45257142 50271428 L45400000 50271428 L45457142 50242857 L45485714 50214285 L45514285 50157142 L45514285 50100000 L45485714 50042857 L45457142 50014285 L45400000 49985714 L45285714 49957142 L45228571 49928571 L45200000 49900000 L45171428 49842857 L45171428 49785714 L45200000 49728571 L45228571 49700000 L45285714 49671428 L45428571 49671428 L45514285 49700000 "/>
<svg:path d="M45685714 49671428 L46028571 49671428 "/>
<svg:path d="M45857142 50271428 L45857142 49671428 "/>
<svg:path d="M46200000 50100000 L46485714 50100000 "/>
<svg:path d="M46142857 50271428 L46342857 49671428 L46542857 50271428 "/>
<svg:path d="M47085714 50271428 L46885714 49985714 "/>
<svg:path d="M46742857 50271428 L46742857 49671428 L46971428 49671428 L47028571 49700000 L47057142 49728571 L47085714 49785714 L47085714 49871428 L47057142 49928571 L47028571 49957142 L46971428 49985714 L46742857 49985714 "/>
<svg:path d="M47514285 49671428 L47514285 50100000 L47485714 50185714 L47428571 50242857 L47342857 50271428 L47285714 50271428 "/>
<svg:path d="M47800000 49671428 L47800000 50157142 L47828571 50214285 L47857142 50242857 L47914285 50271428 L48028571 50271428 L48085714 50242857 L48114285 50214285 L48142857 50157142 L48142857 49671428 "/>
<svg:path d="M48428571 50271428 L48428571 49671428 L48771428 50271428 L48771428 49671428 "/>
<svg:path d="M49057142 50271428 L49057142 49671428 "/>
<svg:path d="M49457142 49671428 L49571428 49671428 L49628571 49700000 L49685714 49757142 L49714285 49871428 L49714285 50071428 L49685714 50185714 L49628571 50242857 L49571428 50271428 L49457142 50271428 L49400000 50242857 L49342857 50185714 L49314285 50071428 L49314285 49871428 L49342857 49757142 L49400000 49700000 L49457142 49671428 "/>
<svg:path d="M50314285 50271428 L50114285 49985714 "/>
<svg:path d="M49971428 50271428 L49971428 49671428 L50200000 49671428 L50257142 49700000 L50285714 49728571 L50314285 49785714 L50314285 49871428 L50285714 49928571 L50257142 49957142 L50200000 49985714 L49971428 49985714 "/>
<svg:path d="M50771428 49957142 L50857142 49985714 L50885714 50014285 L50914285 50071428 L50914285 50157142 L50885714 50214285 L50857142 50242857 L50800000 50271428 L50571428 50271428 L50571428 49671428 L50771428 49671428 L50828571 49700000 L50857142 49728571 L50885714 49785714 L50885714 49842857 L50857142 49900000 L50828571 49928571 L50771428 49957142 L50571428 49957142 "/>
<svg:path d="M51485714 49700000 L51428571 49671428 L51342857 49671428 L51257142 49700000 L51200000 49757142 L51171428 49814285 L51142857 49928571 L51142857 50014285 L51171428 50128571 L51200000 50185714 L51257142 50242857 L51342857 50271428 L51400000 50271428 L51485714 50242857 L51514285 50214285 L51514285 50014285 L51400000 50014285 "/>
<svg:path d="M51742857 50100000 L52028571 50100000 "/>
<svg:path d="M51685714 50271428 L51885714 49671428 L52085714 50271428 "/>
<svg:path d="M52600000 50271428 L52257142 50271428 "/>
<svg:path d="M52428571 50271428 L52428571 49671428 L52371428 49757142 L52314285 49814285 L52257142 49842857 "/>
<svg:path d="M52828571 49728571 L52857142 49700000 L52914285 49671428 L53057142 49671428 L53114285 49700000 L53142857 49728571 L53171428 49785714 L53171428 49842857 L53142857 49928571 L52800000 50271428 L53171428 50271428 "/>
<svg:path d="M53400000 49728571 L53428571 49700000 L53485714 49671428 L53628571 49671428 L53685714 49700000 L53714285 49728571 L53742857 49785714 L53742857 49842857 L53714285 49928571 L53371428 50271428 L53742857 50271428 "/>
<svg:path d="M53942857 49671428 L54342857 50271428 "/>
<svg:path d="M54342857 49671428 L53942857 50271428 "/>
<svg:path d="M54542857 49728571 L54571428 49700000 L54628571 49671428 L54771428 49671428 L54828571 49700000 L54857142 49728571 L54885714 49785714 L54885714 49842857 L54857142 49928571 L54514285 50271428 L54885714 50271428 "/>
<svg:path d="M55428571 49671428 L55142857 49671428 L55114285 49957142 L55142857 49928571 L55200000 49900000 L55342857 49900000 L55400000 49928571 L55428571 49957142 L55457142 50014285 L55457142 50157142 L55428571 50214285 L55400000 50242857 L55342857 50271428 L55200000 50271428 L55142857 50242857 L55114285 50214285 "/>
<svg:path d="M56000000 50271428 L55714285 50271428 L55714285 49671428 "/>
<svg:path d="M56171428 50100000 L56457142 50100000 "/>
<svg:path d="M56114285 50271428 L56314285 49671428 L56514285 50271428 "/>
<svg:path d="M56828571 49985714 L56828571 50271428 "/>
<svg:path d="M56628571 49671428 L56828571 49985714 L57028571 49671428 "/>
<svg:path d="M57342857 49671428 L57457142 49671428 L57514285 49700000 L57571428 49757142 L57600000 49871428 L57600000 50071428 L57571428 50185714 L57514285 50242857 L57457142 50271428 L57342857 50271428 L57285714 50242857 L57228571 50185714 L57200000 50071428 L57200000 49871428 L57228571 49757142 L57285714 49700000 L57342857 49671428 "/>
<svg:path d="M57857142 49671428 L57857142 50157142 L57885714 50214285 L57914285 50242857 L57971428 50271428 L58085714 50271428 L58142857 50242857 L58171428 50214285 L58200000 50157142 L58200000 49671428 "/>
<svg:path d="M58400000 49671428 L58742857 49671428 "/>
<svg:path d="M58571428 50271428 L58571428 49671428 "/>
<svg:path d="M59200000 49871428 L59200000 50271428 "/>
<svg:path d="M59057142 49642857 L58914285 50071428 L59285714 50071428 "/>
<svg:path d="M59457142 49671428 L59857142 50271428 "/>
<svg:path d="M59857142 49671428 L59457142 50271428 "/>
<svg:path d="M60028571 49671428 L60400000 49671428 L60200000 49900000 L60285714 49900000 L60342857 49928571 L60371428 49957142 L60400000 50014285 L60400000 50157142 L60371428 50214285 L60342857 50242857 L60285714 50271428 L60114285 50271428 L60057142 50242857 L60028571 50214285 "/>
<svg:path d="M60657142 50271428 L60657142 49671428 L60885714 49671428 L60942857 49700000 L60971428 49728571 L61000000 49785714 L61000000 49871428 L60971428 49928571 L60942857 49957142 L60885714 49985714 L60657142 49985714 "/>
<svg:path d="M61542857 49671428 L61257142 49671428 L61228571 49957142 L61257142 49928571 L61314285 49900000 L61457142 49900000 L61514285 49928571 L61542857 49957142 L61571428 50014285 L61571428 50157142 L61542857 50214285 L61514285 50242857 L61457142 50271428 L61314285 50271428 L61257142 50242857 L61228571 50214285 "/>
</svg:g></svg:g>
<svg:g style="fill:#AFAFAF; fill-opacity:0.0;  stroke:#AFAFAF; stroke-width:100000.000000; stroke-opacity:1;  stroke-linecap:round; stroke-linejoin:round;">
<svg:path d="M49250000 49000000 L51250000 49000000 "/>
<svg:path d="M51250000 49000000 L51250000 51000000 "/>
<svg:path d="M48750000 51000000 L48750000 49500000 "/>
<svg:path d="M51250000 51000000 L48750000 51000000 "/>
<svg:path d="M49250000 49000000 L48750000 49500000 "/>
<svg:g>
</svg:g>
<svg:g>
</svg:g>
<svg:g>
</svg:g>
<svg:g>
</svg:g>
</svg:g>
<svg:g style="fill:#000000; fill-opacity:0.0;  stroke:#000000; stroke-width:100000.000000; stroke-opacity:1;  stroke-linecap:round; stroke-linejoin:round;">
<svg:g>
</svg:g>
<svg:g>
</svg:g>
<svg:g>
</svg:g>
<svg:g>
</svg:g>
</svg:g> 
</svg:g><svg:g><svg:title>SVG Picture created as kicadBoard-F_Mask.svg date 2022/11/18 21:41:28 </svg:title>
  <svg:desc>Picture generated by PCBNEW </svg:desc>
<svg:g style="fill:#000000; fill-opacity:1.000000;stroke:#000000; stroke-opacity:1.000000; stroke-linecap:round; stroke-linejoin:round;" transform="translate(0 0) scale(1 1)">
</svg:g>
<svg:g style="fill:#000000; fill-opacity:0.0;  stroke:#000000; stroke-width:0.000000; stroke-opacity:1;  stroke-linecap:round; stroke-linejoin:round;">
<svg:g>
</svg:g>
<svg:g style="fill:#000000; fill-opacity:1.0;  stroke:#000000; stroke-width:1.000000; stroke-opacity:1;  stroke-linecap:round; stroke-linejoin:round;">
<svg:circle cx="49250000.000000" cy="49500000.000000" r="175000.000000"/> 
</svg:g>
<svg:g style="fill:#000000; fill-opacity:1.0;  stroke:#000000; stroke-width:21200.000000; stroke-opacity:1;  stroke-linecap:round; stroke-linejoin:round;">
</svg:g>
<svg:g style="fill:#000000; fill-opacity:1.0;  stroke:#000000; stroke-width:1.000000; stroke-opacity:1;  stroke-linecap:round; stroke-linejoin:round;">
<svg:circle cx="49750000.000000" cy="49500000.000000" r="200000.000000"/> 
</svg:g>
<svg:g style="fill:#000000; fill-opacity:1.0;  stroke:#000000; stroke-width:21200.000000; stroke-opacity:1;  stroke-linecap:round; stroke-linejoin:round;">
</svg:g>
<svg:g style="fill:#000000; fill-opacity:1.0;  stroke:#000000; stroke-width:1.000000; stroke-opacity:1;  stroke-linecap:round; stroke-linejoin:round;">
<svg:circle cx="50250000.000000" cy="49500000.000000" r="200000.000000"/> 
</svg:g>
<svg:g style="fill:#000000; fill-opacity:1.0;  stroke:#000000; stroke-width:21200.000000; stroke-opacity:1;  stroke-linecap:round; stroke-linejoin:round;">
</svg:g>
<svg:g style="fill:#000000; fill-opacity:1.0;  stroke:#000000; stroke-width:1.000000; stroke-opacity:1;  stroke-linecap:round; stroke-linejoin:round;">
<svg:circle cx="50750000.000000" cy="49500000.000000" r="200000.000000"/> 
</svg:g>
<svg:g style="fill:#000000; fill-opacity:1.0;  stroke:#000000; stroke-width:21200.000000; stroke-opacity:1;  stroke-linecap:round; stroke-linejoin:round;">
</svg:g>
<svg:g style="fill:#000000; fill-opacity:1.0;  stroke:#000000; stroke-width:1.000000; stroke-opacity:1;  stroke-linecap:round; stroke-linejoin:round;">
<svg:circle cx="49250000.000000" cy="50000000.000000" r="200000.000000"/> 
</svg:g>
<svg:g style="fill:#000000; fill-opacity:1.0;  stroke:#000000; stroke-width:21200.000000; stroke-opacity:1;  stroke-linecap:round; stroke-linejoin:round;">
</svg:g>
<svg:g style="fill:#000000; fill-opacity:1.0;  stroke:#000000; stroke-width:1.000000; stroke-opacity:1;  stroke-linecap:round; stroke-linejoin:round;">
<svg:circle cx="49750000.000000" cy="50000000.000000" r="200000.000000"/> 
</svg:g>
<svg:g style="fill:#000000; fill-opacity:1.0;  stroke:#000000; stroke-width:21200.000000; stroke-opacity:1;  stroke-linecap:round; stroke-linejoin:round;">
</svg:g>
<svg:g style="fill:#000000; fill-opacity:1.0;  stroke:#000000; stroke-width:1.000000; stroke-opacity:1;  stroke-linecap:round; stroke-linejoin:round;">
<svg:circle cx="50250000.000000" cy="50000000.000000" r="200000.000000"/> 
</svg:g>
<svg:g style="fill:#000000; fill-opacity:1.0;  stroke:#000000; stroke-width:21200.000000; stroke-opacity:1;  stroke-linecap:round; stroke-linejoin:round;">
</svg:g>
<svg:g style="fill:#000000; fill-opacity:1.0;  stroke:#000000; stroke-width:1.000000; stroke-opacity:1;  stroke-linecap:round; stroke-linejoin:round;">
<svg:circle cx="50750000.000000" cy="50000000.000000" r="200000.000000"/> 
</svg:g>
<svg:g style="fill:#000000; fill-opacity:1.0;  stroke:#000000; stroke-width:21200.000000; stroke-opacity:1;  stroke-linecap:round; stroke-linejoin:round;">
</svg:g>
<svg:g style="fill:#000000; fill-opacity:1.0;  stroke:#000000; stroke-width:1.000000; stroke-opacity:1;  stroke-linecap:round; stroke-linejoin:round;">
<svg:circle cx="49250000.000000" cy="50500000.000000" r="200000.000000"/> 
</svg:g>
<svg:g style="fill:#000000; fill-opacity:1.0;  stroke:#000000; stroke-width:21200.000000; stroke-opacity:1;  stroke-linecap:round; stroke-linejoin:round;">
</svg:g>
<svg:g style="fill:#000000; fill-opacity:1.0;  stroke:#000000; stroke-width:1.000000; stroke-opacity:1;  stroke-linecap:round; stroke-linejoin:round;">
<svg:circle cx="49750000.000000" cy="50500000.000000" r="200000.000000"/> 
</svg:g>
<svg:g style="fill:#000000; fill-opacity:1.0;  stroke:#000000; stroke-width:21200.000000; stroke-opacity:1;  stroke-linecap:round; stroke-linejoin:round;">
</svg:g>
<svg:g style="fill:#000000; fill-opacity:1.0;  stroke:#000000; stroke-width:1.000000; stroke-opacity:1;  stroke-linecap:round; stroke-linejoin:round;">
<svg:circle cx="50250000.000000" cy="50500000.000000" r="200000.000000"/> 
</svg:g>
<svg:g style="fill:#000000; fill-opacity:1.0;  stroke:#000000; stroke-width:21200.000000; stroke-opacity:1;  stroke-linecap:round; stroke-linejoin:round;">
</svg:g>
<svg:g style="fill:#000000; fill-opacity:1.0;  stroke:#000000; stroke-width:1.000000; stroke-opacity:1;  stroke-linecap:round; stroke-linejoin:round;">
<svg:circle cx="50750000.000000" cy="50500000.000000" r="200000.000000"/> 
</svg:g>
<svg:g style="fill:#000000; fill-opacity:1.0;  stroke:#000000; stroke-width:21200.000000; stroke-opacity:1;  stroke-linecap:round; stroke-linejoin:round;">
</svg:g>
<svg:g>
</svg:g>
<svg:g>
</svg:g>
<svg:g>
</svg:g>
</svg:g>
<svg:g style="fill:#000000; fill-opacity:1.0;  stroke:#000000; stroke-width:21200.000000; stroke-opacity:1;  stroke-linecap:round; stroke-linejoin:round;">
<svg:g>
</svg:g>
<svg:g>
</svg:g>
<svg:g>
</svg:g>
<svg:g>
</svg:g>
</svg:g> 
</svg:g><svg:g><svg:title>SVG Picture created as kicadBoard-F_Paste.svg date 2022/11/18 21:41:28 </svg:title>
  <svg:desc>Picture generated by PCBNEW </svg:desc>
<svg:g style="fill:#000000; fill-opacity:1.000000;stroke:#000000; stroke-opacity:1.000000; stroke-linecap:round; stroke-linejoin:round;" transform="translate(0 0) scale(1 1)">
</svg:g>
<svg:g style="fill:#000000; fill-opacity:0.0;  stroke:#000000; stroke-width:0.000000; stroke-opacity:1;  stroke-linecap:round; stroke-linejoin:round;">
<svg:g>
</svg:g>
<svg:g style="fill:#000000; fill-opacity:1.0;  stroke:#000000; stroke-width:1.000000; stroke-opacity:1;  stroke-linecap:round; stroke-linejoin:round;">
<svg:circle cx="49250000.000000" cy="49500000.000000" r="125000.000000"/> 
</svg:g>
<svg:g style="fill:#000000; fill-opacity:1.0;  stroke:#000000; stroke-width:21200.000000; stroke-opacity:1;  stroke-linecap:round; stroke-linejoin:round;">
</svg:g>
<svg:g style="fill:#000000; fill-opacity:1.0;  stroke:#000000; stroke-width:1.000000; stroke-opacity:1;  stroke-linecap:round; stroke-linejoin:round;">
<svg:circle cx="49750000.000000" cy="49500000.000000" r="150000.000000"/> 
</svg:g>
<svg:g style="fill:#000000; fill-opacity:1.0;  stroke:#000000; stroke-width:21200.000000; stroke-opacity:1;  stroke-linecap:round; stroke-linejoin:round;">
</svg:g>
<svg:g style="fill:#000000; fill-opacity:1.0;  stroke:#000000; stroke-width:1.000000; stroke-opacity:1;  stroke-linecap:round; stroke-linejoin:round;">
<svg:circle cx="50250000.000000" cy="49500000.000000" r="150000.000000"/> 
</svg:g>
<svg:g style="fill:#000000; fill-opacity:1.0;  stroke:#000000; stroke-width:21200.000000; stroke-opacity:1;  stroke-linecap:round; stroke-linejoin:round;">
</svg:g>
<svg:g style="fill:#000000; fill-opacity:1.0;  stroke:#000000; stroke-width:1.000000; stroke-opacity:1;  stroke-linecap:round; stroke-linejoin:round;">
<svg:circle cx="50750000.000000" cy="49500000.000000" r="150000.000000"/> 
</svg:g>
<svg:g style="fill:#000000; fill-opacity:1.0;  stroke:#000000; stroke-width:21200.000000; stroke-opacity:1;  stroke-linecap:round; stroke-linejoin:round;">
</svg:g>
<svg:g style="fill:#000000; fill-opacity:1.0;  stroke:#000000; stroke-width:1.000000; stroke-opacity:1;  stroke-linecap:round; stroke-linejoin:round;">
<svg:circle cx="49250000.000000" cy="50000000.000000" r="150000.000000"/> 
</svg:g>
<svg:g style="fill:#000000; fill-opacity:1.0;  stroke:#000000; stroke-width:21200.000000; stroke-opacity:1;  stroke-linecap:round; stroke-linejoin:round;">
</svg:g>
<svg:g style="fill:#000000; fill-opacity:1.0;  stroke:#000000; stroke-width:1.000000; stroke-opacity:1;  stroke-linecap:round; stroke-linejoin:round;">
<svg:circle cx="49750000.000000" cy="50000000.000000" r="150000.000000"/> 
</svg:g>
<svg:g style="fill:#000000; fill-opacity:1.0;  stroke:#000000; stroke-width:21200.000000; stroke-opacity:1;  stroke-linecap:round; stroke-linejoin:round;">
</svg:g>
<svg:g style="fill:#000000; fill-opacity:1.0;  stroke:#000000; stroke-width:1.000000; stroke-opacity:1;  stroke-linecap:round; stroke-linejoin:round;">
<svg:circle cx="50250000.000000" cy="50000000.000000" r="150000.000000"/> 
</svg:g>
<svg:g style="fill:#000000; fill-opacity:1.0;  stroke:#000000; stroke-width:21200.000000; stroke-opacity:1;  stroke-linecap:round; stroke-linejoin:round;">
</svg:g>
<svg:g style="fill:#000000; fill-opacity:1.0;  stroke:#000000; stroke-width:1.000000; stroke-opacity:1;  stroke-linecap:round; stroke-linejoin:round;">
<svg:circle cx="50750000.000000" cy="50000000.000000" r="150000.000000"/> 
</svg:g>
<svg:g style="fill:#000000; fill-opacity:1.0;  stroke:#000000; stroke-width:21200.000000; stroke-opacity:1;  stroke-linecap:round; stroke-linejoin:round;">
</svg:g>
<svg:g style="fill:#000000; fill-opacity:1.0;  stroke:#000000; stroke-width:1.000000; stroke-opacity:1;  stroke-linecap:round; stroke-linejoin:round;">
<svg:circle cx="49250000.000000" cy="50500000.000000" r="150000.000000"/> 
</svg:g>
<svg:g style="fill:#000000; fill-opacity:1.0;  stroke:#000000; stroke-width:21200.000000; stroke-opacity:1;  stroke-linecap:round; stroke-linejoin:round;">
</svg:g>
<svg:g style="fill:#000000; fill-opacity:1.0;  stroke:#000000; stroke-width:1.000000; stroke-opacity:1;  stroke-linecap:round; stroke-linejoin:round;">
<svg:circle cx="49750000.000000" cy="50500000.000000" r="150000.000000"/> 
</svg:g>
<svg:g style="fill:#000000; fill-opacity:1.0;  stroke:#000000; stroke-width:21200.000000; stroke-opacity:1;  stroke-linecap:round; stroke-linejoin:round;">
</svg:g>
<svg:g style="fill:#000000; fill-opacity:1.0;  stroke:#000000; stroke-width:1.000000; stroke-opacity:1;  stroke-linecap:round; stroke-linejoin:round;">
<svg:circle cx="50250000.000000" cy="50500000.000000" r="150000.000000"/> 
</svg:g>
<svg:g style="fill:#000000; fill-opacity:1.0;  stroke:#000000; stroke-width:21200.000000; stroke-opacity:1;  stroke-linecap:round; stroke-linejoin:round;">
</svg:g>
<svg:g style="fill:#000000; fill-opacity:1.0;  stroke:#000000; stroke-width:1.000000; stroke-opacity:1;  stroke-linecap:round; stroke-linejoin:round;">
<svg:circle cx="50750000.000000" cy="50500000.000000" r="150000.000000"/> 
</svg:g>
<svg:g style="fill:#000000; fill-opacity:1.0;  stroke:#000000; stroke-width:21200.000000; stroke-opacity:1;  stroke-linecap:round; stroke-linejoin:round;">
</svg:g>
<svg:g>
</svg:g>
<svg:g>
</svg:g>
<svg:g>
</svg:g>
</svg:g>
<svg:g style="fill:#000000; fill-opacity:1.0;  stroke:#000000; stroke-width:21200.000000; stroke-opacity:1;  stroke-linecap:round; stroke-linejoin:round;">
<svg:g>
</svg:g>
<svg:g>
</svg:g>
<svg:g>
</svg:g>
<svg:g>
</svg:g>
</svg:g> 
</svg:g><svg:g><svg:title>SVG Picture created as kicadBoard-F_Silkscreen.svg date 2022/11/18 21:41:28 </svg:title>
  <svg:desc>Picture generated by PCBNEW </svg:desc>
<svg:g style="fill:#000000; fill-opacity:1.000000;stroke:#000000; stroke-opacity:1.000000; stroke-linecap:round; stroke-linejoin:round;" transform="translate(0 0) scale(1 1)">
</svg:g>
<svg:g style="fill:#000000; fill-opacity:0.0;  stroke:#000000; stroke-width:0.000000; stroke-opacity:1;  stroke-linecap:round; stroke-linejoin:round;">
</svg:g>
<svg:g style="fill:#F2EDA1; fill-opacity:0.0;  stroke:#F2EDA1; stroke-width:0.000000; stroke-opacity:1;  stroke-linecap:round; stroke-linejoin:round;">
</svg:g>
<svg:g style="fill:#F2EDA1; fill-opacity:0.0;  stroke:#F2EDA1; stroke-width:150000.000000; stroke-opacity:1;  stroke-linecap:round; stroke-linejoin:round;">
<svg:text x="49750000.000000" y="47750000.000000" textLength="38952382.000000" font-size="1333333.000000" lengthAdjust="spacingAndGlyphs" text-anchor="middle" opacity="0">FZKBGATEXASMSTARJUNIORBGA122X25LAYOUT4X3P5</svg:text>
<svg:g class="stroked-text"><svg:desc>FZKBGATEXASMSTARJUNIORBGA122X25LAYOUT4X3P5</svg:desc>
<svg:path d="M30845238 47178571 L30511904 47178571 "/>
<svg:path d="M30511904 47702380 L30511904 46702380 L30988095 46702380 "/>
<svg:path d="M31273809 46702380 L31940476 46702380 L31273809 47702380 L31940476 47702380 "/>
<svg:path d="M32321428 47702380 L32321428 46702380 "/>
<svg:path d="M32892857 47702380 L32464285 47130952 "/>
<svg:path d="M32892857 46702380 L32321428 47273809 "/>
<svg:path d="M33654761 47178571 L33797619 47226190 L33845238 47273809 L33892857 47369047 L33892857 47511904 L33845238 47607142 L33797619 47654761 L33702380 47702380 L33321428 47702380 L33321428 46702380 L33654761 46702380 L33750000 46750000 L33797619 46797619 L33845238 46892857 L33845238 46988095 L33797619 47083333 L33750000 47130952 L33654761 47178571 L33321428 47178571 "/>
<svg:path d="M34845238 46750000 L34750000 46702380 L34607142 46702380 L34464285 46750000 L34369047 46845238 L34321428 46940476 L34273809 47130952 L34273809 47273809 L34321428 47464285 L34369047 47559523 L34464285 47654761 L34607142 47702380 L34702380 47702380 L34845238 47654761 L34892857 47607142 L34892857 47273809 L34702380 47273809 "/>
<svg:path d="M35273809 47416666 L35750000 47416666 "/>
<svg:path d="M35178571 47702380 L35511904 46702380 L35845238 47702380 "/>
<svg:path d="M36035714 46702380 L36607142 46702380 "/>
<svg:path d="M36321428 47702380 L36321428 46702380 "/>
<svg:path d="M36940476 47178571 L37273809 47178571 "/>
<svg:path d="M37416666 47702380 L36940476 47702380 L36940476 46702380 L37416666 46702380 "/>
<svg:path d="M37750000 46702380 L38416666 47702380 "/>
<svg:path d="M38416666 46702380 L37750000 47702380 "/>
<svg:path d="M38750000 47416666 L39226190 47416666 "/>
<svg:path d="M38654761 47702380 L38988095 46702380 L39321428 47702380 "/>
<svg:path d="M39607142 47654761 L39750000 47702380 L39988095 47702380 L40083333 47654761 L40130952 47607142 L40178571 47511904 L40178571 47416666 L40130952 47321428 L40083333 47273809 L39988095 47226190 L39797619 47178571 L39702380 47130952 L39654761 47083333 L39607142 46988095 L39607142 46892857 L39654761 46797619 L39702380 46750000 L39797619 46702380 L40035714 46702380 L40178571 46750000 "/>
<svg:path d="M40607142 47702380 L40607142 46702380 L40940476 47416666 L41273809 46702380 L41273809 47702380 "/>
<svg:path d="M41702380 47654761 L41845238 47702380 L42083333 47702380 L42178571 47654761 L42226190 47607142 L42273809 47511904 L42273809 47416666 L42226190 47321428 L42178571 47273809 L42083333 47226190 L41892857 47178571 L41797619 47130952 L41750000 47083333 L41702380 46988095 L41702380 46892857 L41750000 46797619 L41797619 46750000 L41892857 46702380 L42130952 46702380 L42273809 46750000 "/>
<svg:path d="M42559523 46702380 L43130952 46702380 "/>
<svg:path d="M42845238 47702380 L42845238 46702380 "/>
<svg:path d="M43416666 47416666 L43892857 47416666 "/>
<svg:path d="M43321428 47702380 L43654761 46702380 L43988095 47702380 "/>
<svg:path d="M44892857 47702380 L44559523 47226190 "/>
<svg:path d="M44321428 47702380 L44321428 46702380 L44702380 46702380 L44797619 46750000 L44845238 46797619 L44892857 46892857 L44892857 47035714 L44845238 47130952 L44797619 47178571 L44702380 47226190 L44321428 47226190 "/>
<svg:path d="M45607142 46702380 L45607142 47416666 L45559523 47559523 L45464285 47654761 L45321428 47702380 L45226190 47702380 "/>
<svg:path d="M46083333 46702380 L46083333 47511904 L46130952 47607142 L46178571 47654761 L46273809 47702380 L46464285 47702380 L46559523 47654761 L46607142 47607142 L46654761 47511904 L46654761 46702380 "/>
<svg:path d="M47130952 47702380 L47130952 46702380 L47702380 47702380 L47702380 46702380 "/>
<svg:path d="M48178571 47702380 L48178571 46702380 "/>
<svg:path d="M48845238 46702380 L49035714 46702380 L49130952 46750000 L49226190 46845238 L49273809 47035714 L49273809 47369047 L49226190 47559523 L49130952 47654761 L49035714 47702380 L48845238 47702380 L48750000 47654761 L48654761 47559523 L48607142 47369047 L48607142 47035714 L48654761 46845238 L48750000 46750000 L48845238 46702380 "/>
<svg:path d="M50273809 47702380 L49940476 47226190 "/>
<svg:path d="M49702380 47702380 L49702380 46702380 L50083333 46702380 L50178571 46750000 L50226190 46797619 L50273809 46892857 L50273809 47035714 L50226190 47130952 L50178571 47178571 L50083333 47226190 L49702380 47226190 "/>
<svg:path d="M51035714 47178571 L51178571 47226190 L51226190 47273809 L51273809 47369047 L51273809 47511904 L51226190 47607142 L51178571 47654761 L51083333 47702380 L50702380 47702380 L50702380 46702380 L51035714 46702380 L51130952 46750000 L51178571 46797619 L51226190 46892857 L51226190 46988095 L51178571 47083333 L51130952 47130952 L51035714 47178571 L50702380 47178571 "/>
<svg:path d="M52226190 46750000 L52130952 46702380 L51988095 46702380 L51845238 46750000 L51750000 46845238 L51702380 46940476 L51654761 47130952 L51654761 47273809 L51702380 47464285 L51750000 47559523 L51845238 47654761 L51988095 47702380 L52083333 47702380 L52226190 47654761 L52273809 47607142 L52273809 47273809 L52083333 47273809 "/>
<svg:path d="M52654761 47416666 L53130952 47416666 "/>
<svg:path d="M52559523 47702380 L52892857 46702380 L53226190 47702380 "/>
<svg:path d="M54083333 47702380 L53511904 47702380 "/>
<svg:path d="M53797619 47702380 L53797619 46702380 L53702380 46845238 L53607142 46940476 L53511904 46988095 "/>
<svg:path d="M54464285 46797619 L54511904 46750000 L54607142 46702380 L54845238 46702380 L54940476 46750000 L54988095 46797619 L55035714 46892857 L55035714 46988095 L54988095 47130952 L54416666 47702380 L55035714 47702380 "/>
<svg:path d="M55416666 46797619 L55464285 46750000 L55559523 46702380 L55797619 46702380 L55892857 46750000 L55940476 46797619 L55988095 46892857 L55988095 46988095 L55940476 47130952 L55369047 47702380 L55988095 47702380 "/>
<svg:path d="M56321428 46702380 L56988095 47702380 "/>
<svg:path d="M56988095 46702380 L56321428 47702380 "/>
<svg:path d="M57321428 46797619 L57369047 46750000 L57464285 46702380 L57702380 46702380 L57797619 46750000 L57845238 46797619 L57892857 46892857 L57892857 46988095 L57845238 47130952 L57273809 47702380 L57892857 47702380 "/>
<svg:path d="M58797619 46702380 L58321428 46702380 L58273809 47178571 L58321428 47130952 L58416666 47083333 L58654761 47083333 L58750000 47130952 L58797619 47178571 L58845238 47273809 L58845238 47511904 L58797619 47607142 L58750000 47654761 L58654761 47702380 L58416666 47702380 L58321428 47654761 L58273809 47607142 "/>
<svg:path d="M59750000 47702380 L59273809 47702380 L59273809 46702380 "/>
<svg:path d="M60035714 47416666 L60511904 47416666 "/>
<svg:path d="M59940476 47702380 L60273809 46702380 L60607142 47702380 "/>
<svg:path d="M61130952 47226190 L61130952 47702380 "/>
<svg:path d="M60797619 46702380 L61130952 47226190 L61464285 46702380 "/>
<svg:path d="M61988095 46702380 L62178571 46702380 L62273809 46750000 L62369047 46845238 L62416666 47035714 L62416666 47369047 L62369047 47559523 L62273809 47654761 L62178571 47702380 L61988095 47702380 L61892857 47654761 L61797619 47559523 L61750000 47369047 L61750000 47035714 L61797619 46845238 L61892857 46750000 L61988095 46702380 "/>
<svg:path d="M62845238 46702380 L62845238 47511904 L62892857 47607142 L62940476 47654761 L63035714 47702380 L63226190 47702380 L63321428 47654761 L63369047 47607142 L63416666 47511904 L63416666 46702380 "/>
<svg:path d="M63750000 46702380 L64321428 46702380 "/>
<svg:path d="M64035714 47702380 L64035714 46702380 "/>
<svg:path d="M65083333 47035714 L65083333 47702380 "/>
<svg:path d="M64845238 46654761 L64607142 47369047 L65226190 47369047 "/>
<svg:path d="M65511904 46702380 L66178571 47702380 "/>
<svg:path d="M66178571 46702380 L65511904 47702380 "/>
<svg:path d="M66464285 46702380 L67083333 46702380 L66750000 47083333 L66892857 47083333 L66988095 47130952 L67035714 47178571 L67083333 47273809 L67083333 47511904 L67035714 47607142 L66988095 47654761 L66892857 47702380 L66607142 47702380 L66511904 47654761 L66464285 47607142 "/>
<svg:path d="M67511904 47702380 L67511904 46702380 L67892857 46702380 L67988095 46750000 L68035714 46797619 L68083333 46892857 L68083333 47035714 L68035714 47130952 L67988095 47178571 L67892857 47226190 L67511904 47226190 "/>
<svg:path d="M68988095 46702380 L68511904 46702380 L68464285 47178571 L68511904 47130952 L68607142 47083333 L68845238 47083333 L68940476 47130952 L68988095 47178571 L69035714 47273809 L69035714 47511904 L68988095 47607142 L68940476 47654761 L68845238 47702380 L68607142 47702380 L68511904 47654761 L68464285 47607142 "/>
</svg:g></svg:g>
<svg:g style="fill:#F2EDA1; fill-opacity:0.0;  stroke:#F2EDA1; stroke-width:120000.000000; stroke-opacity:1;  stroke-linecap:round; stroke-linejoin:round;">
<svg:path d="M48650000 51100000 L51350000 51100000 "/>
<svg:path d="M51350000 48900000 L51350000 51100000 "/>
<svg:path d="M48650000 51100000 L48650000 48900000 "/>
<svg:path d="M48450000 48700000 L49450000 48700000 "/>
<svg:path d="M48450000 48700000 L48450000 49700000 "/>
<svg:path d="M48650000 48900000 L51350000 48900000 "/>
<svg:g>
</svg:g>
<svg:g>
</svg:g>
<svg:g>
</svg:g>
<svg:g>
</svg:g>
</svg:g>
<svg:g style="fill:#000000; fill-opacity:0.0;  stroke:#000000; stroke-width:120000.000000; stroke-opacity:1;  stroke-linecap:round; stroke-linejoin:round;">
<svg:g>
</svg:g>
<svg:g>
</svg:g>
<svg:g>
</svg:g>
<svg:g>
</svg:g>
</svg:g> 
</svg:g><svg:g><svg:title>SVG Picture created as kicadBoard-Margin.svg date 2022/11/18 21:41:28 </svg:title>
  <svg:desc>Picture generated by PCBNEW </svg:desc>
<svg:g style="fill:#000000; fill-opacity:1.000000;stroke:#000000; stroke-opacity:1.000000; stroke-linecap:round; stroke-linejoin:round;" transform="translate(0 0) scale(1 1)">
</svg:g>
<svg:g style="fill:#000000; fill-opacity:0.0;  stroke:#000000; stroke-width:0.000000; stroke-opacity:1;  stroke-linecap:round; stroke-linejoin:round;">
<svg:g>
</svg:g>
<svg:g>
</svg:g>
<svg:g>
</svg:g>
<svg:g>
</svg:g>
</svg:g>
<svg:g style="fill:#000000; fill-opacity:0.0;  stroke:#000000; stroke-width:0.000000; stroke-opacity:1;  stroke-linecap:round; stroke-linejoin:round;">
<svg:g>
</svg:g>
<svg:g>
</svg:g>
<svg:g>
</svg:g>
<svg:g>
</svg:g>
</svg:g> 
</svg:g><svg:g><svg:title>SVG Picture created as kicadBoard-F_Cu.svg date 2022/11/18 21:41:28 </svg:title>
  <svg:desc>Picture generated by PCBNEW </svg:desc>
<svg:g style="fill:#000000; fill-opacity:1.000000;stroke:#000000; stroke-opacity:1.000000; stroke-linecap:round; stroke-linejoin:round;" transform="translate(0 0) scale(1 1)">
</svg:g>
<svg:g style="fill:#000000; fill-opacity:0.0;  stroke:#000000; stroke-width:0.000000; stroke-opacity:1;  stroke-linecap:round; stroke-linejoin:round;">
<svg:g>
</svg:g>
<svg:g style="fill:#C83434; fill-opacity:0.0;  stroke:#C83434; stroke-width:0.000000; stroke-opacity:1;  stroke-linecap:round; stroke-linejoin:round;">
</svg:g>
<svg:g style="fill:#C83434; fill-opacity:1.0;  stroke:#C83434; stroke-width:1.000000; stroke-opacity:1;  stroke-linecap:round; stroke-linejoin:round;">
<svg:circle cx="49250000.000000" cy="49500000.000000" r="125000.000000"/> 
</svg:g>
<svg:g style="fill:#C83434; fill-opacity:1.0;  stroke:#C83434; stroke-width:21200.000000; stroke-opacity:1;  stroke-linecap:round; stroke-linejoin:round;">
</svg:g>
<svg:g style="fill:#C83434; fill-opacity:1.0;  stroke:#C83434; stroke-width:1.000000; stroke-opacity:1;  stroke-linecap:round; stroke-linejoin:round;">
<svg:circle cx="49750000.000000" cy="49500000.000000" r="150000.000000"/> 
</svg:g>
<svg:g style="fill:#C83434; fill-opacity:1.0;  stroke:#C83434; stroke-width:21200.000000; stroke-opacity:1;  stroke-linecap:round; stroke-linejoin:round;">
</svg:g>
<svg:g style="fill:#C83434; fill-opacity:1.0;  stroke:#C83434; stroke-width:1.000000; stroke-opacity:1;  stroke-linecap:round; stroke-linejoin:round;">
<svg:circle cx="50250000.000000" cy="49500000.000000" r="150000.000000"/> 
</svg:g>
<svg:g style="fill:#C83434; fill-opacity:1.0;  stroke:#C83434; stroke-width:21200.000000; stroke-opacity:1;  stroke-linecap:round; stroke-linejoin:round;">
</svg:g>
<svg:g style="fill:#C83434; fill-opacity:1.0;  stroke:#C83434; stroke-width:1.000000; stroke-opacity:1;  stroke-linecap:round; stroke-linejoin:round;">
<svg:circle cx="50750000.000000" cy="49500000.000000" r="150000.000000"/> 
</svg:g>
<svg:g style="fill:#C83434; fill-opacity:1.0;  stroke:#C83434; stroke-width:21200.000000; stroke-opacity:1;  stroke-linecap:round; stroke-linejoin:round;">
</svg:g>
<svg:g style="fill:#C83434; fill-opacity:1.0;  stroke:#C83434; stroke-width:1.000000; stroke-opacity:1;  stroke-linecap:round; stroke-linejoin:round;">
<svg:circle cx="49250000.000000" cy="50000000.000000" r="150000.000000"/> 
</svg:g>
<svg:g style="fill:#C83434; fill-opacity:1.0;  stroke:#C83434; stroke-width:21200.000000; stroke-opacity:1;  stroke-linecap:round; stroke-linejoin:round;">
</svg:g>
<svg:g style="fill:#C83434; fill-opacity:1.0;  stroke:#C83434; stroke-width:1.000000; stroke-opacity:1;  stroke-linecap:round; stroke-linejoin:round;">
<svg:circle cx="49750000.000000" cy="50000000.000000" r="150000.000000"/> 
</svg:g>
<svg:g style="fill:#C83434; fill-opacity:1.0;  stroke:#C83434; stroke-width:21200.000000; stroke-opacity:1;  stroke-linecap:round; stroke-linejoin:round;">
</svg:g>
<svg:g style="fill:#C83434; fill-opacity:1.0;  stroke:#C83434; stroke-width:1.000000; stroke-opacity:1;  stroke-linecap:round; stroke-linejoin:round;">
<svg:circle cx="50250000.000000" cy="50000000.000000" r="150000.000000"/> 
</svg:g>
<svg:g style="fill:#C83434; fill-opacity:1.0;  stroke:#C83434; stroke-width:21200.000000; stroke-opacity:1;  stroke-linecap:round; stroke-linejoin:round;">
</svg:g>
<svg:g style="fill:#C83434; fill-opacity:1.0;  stroke:#C83434; stroke-width:1.000000; stroke-opacity:1;  stroke-linecap:round; stroke-linejoin:round;">
<svg:circle cx="50750000.000000" cy="50000000.000000" r="150000.000000"/> 
</svg:g>
<svg:g style="fill:#C83434; fill-opacity:1.0;  stroke:#C83434; stroke-width:21200.000000; stroke-opacity:1;  stroke-linecap:round; stroke-linejoin:round;">
</svg:g>
<svg:g style="fill:#C83434; fill-opacity:1.0;  stroke:#C83434; stroke-width:1.000000; stroke-opacity:1;  stroke-linecap:round; stroke-linejoin:round;">
<svg:circle cx="49250000.000000" cy="50500000.000000" r="150000.000000"/> 
</svg:g>
<svg:g style="fill:#C83434; fill-opacity:1.0;  stroke:#C83434; stroke-width:21200.000000; stroke-opacity:1;  stroke-linecap:round; stroke-linejoin:round;">
</svg:g>
<svg:g style="fill:#C83434; fill-opacity:1.0;  stroke:#C83434; stroke-width:1.000000; stroke-opacity:1;  stroke-linecap:round; stroke-linejoin:round;">
<svg:circle cx="49750000.000000" cy="50500000.000000" r="150000.000000"/> 
</svg:g>
<svg:g style="fill:#C83434; fill-opacity:1.0;  stroke:#C83434; stroke-width:21200.000000; stroke-opacity:1;  stroke-linecap:round; stroke-linejoin:round;">
</svg:g>
<svg:g style="fill:#C83434; fill-opacity:1.0;  stroke:#C83434; stroke-width:1.000000; stroke-opacity:1;  stroke-linecap:round; stroke-linejoin:round;">
<svg:circle cx="50250000.000000" cy="50500000.000000" r="150000.000000"/> 
</svg:g>
<svg:g style="fill:#C83434; fill-opacity:1.0;  stroke:#C83434; stroke-width:21200.000000; stroke-opacity:1;  stroke-linecap:round; stroke-linejoin:round;">
</svg:g>
<svg:g style="fill:#C83434; fill-opacity:1.0;  stroke:#C83434; stroke-width:1.000000; stroke-opacity:1;  stroke-linecap:round; stroke-linejoin:round;">
<svg:circle cx="50750000.000000" cy="50500000.000000" r="150000.000000"/> 
</svg:g>
<svg:g style="fill:#C83434; fill-opacity:1.0;  stroke:#C83434; stroke-width:21200.000000; stroke-opacity:1;  stroke-linecap:round; stroke-linejoin:round;">
</svg:g>
<svg:g>
</svg:g>
<svg:g>
</svg:g>
<svg:g>
</svg:g>
</svg:g>
<svg:g style="fill:#FFFFFF; fill-opacity:1.0;  stroke:#FFFFFF; stroke-width:21200.000000; stroke-opacity:1;  stroke-linecap:round; stroke-linejoin:round;">
</svg:g>
<svg:g style="fill:#000000; fill-opacity:1.0;  stroke:#000000; stroke-width:21200.000000; stroke-opacity:1;  stroke-linecap:round; stroke-linejoin:round;">
<svg:g>
</svg:g>
<svg:g>
</svg:g>
<svg:g>
</svg:g>
<svg:g>
</svg:g>
</svg:g> 
</svg:g></svg>
