<?xml version='1.0' encoding='ASCII' standalone='yes'?>
<svg xmlns:svg="http://www.w3.org/2000/svg" xmlns="http://www.w3.org/2000/svg" xmlns:xlink="http://www.w3.org/1999/xlink" version="1.1" width="9.999980cm" height="9.999980cm" viewBox="0 0 99999800 99999800">
<title>SVG Picture created as kicadBoard-B_Cu.svg date 2022/11/17 07:47:43 </title>
  <desc>Picture generated by PCBNEW </desc>
<g style="fill:#000000; fill-opacity:1.000000;stroke:#000000; stroke-opacity:1.000000; stroke-linecap:round; stroke-linejoin:round;" transform="translate(0 0) scale(1 1)">
</g>
<g style="fill:#000000; fill-opacity:0.0;  stroke:#000000; stroke-width:0.000000; stroke-opacity:1;  stroke-linecap:round; stroke-linejoin:round;">
<g>
</g>
<g style="fill:#4D7FC4; fill-opacity:0.0;  stroke:#4D7FC4; stroke-width:0.000000; stroke-opacity:1;  stroke-linecap:round; stroke-linejoin:round;">
</g>
<g style="fill:#4D7FC4; fill-opacity:0.0;  stroke:#4D7FC4; stroke-width:1.000000; stroke-opacity:1;  stroke-linecap:round; stroke-linejoin:round;">
</g>
<g style="fill:#4D7FC4; fill-opacity:1.0;  stroke:#4D7FC4; stroke-width:1.000000; stroke-opacity:1;  stroke-linecap:round; stroke-linejoin:round;">
<path style="fill:#4D7FC4; fill-opacity:1.0;  stroke:#4D7FC4; stroke-width:1.000000; stroke-opacity:1;  stroke-linecap:round; stroke-linejoin:round;fill-rule:evenodd;" d="M 49150000.000000,50850000.000000 49150000.000000,49150000.000000 50850000.000000,49150000.000000 50850000.000000,50850000.000000 Z"/> 
<circle cx="50000000.000000" cy="52540000.000000" r="850000.000000"/> 
<circle cx="50000000.000000" cy="55080000.000000" r="850000.000000"/> 
<circle cx="50000000.000000" cy="57620000.000000" r="850000.000000"/> 
<circle cx="50000000.000000" cy="60160000.000000" r="850000.000000"/> 
<circle cx="50000000.000000" cy="62700000.000000" r="850000.000000"/> 
</g>
<g>
</g>
<g>
</g>
<g>
</g>
</g>
<g style="fill:#FFFFFF; fill-opacity:1.0;  stroke:#FFFFFF; stroke-width:1.000000; stroke-opacity:1;  stroke-linecap:round; stroke-linejoin:round;">
<circle cx="50000000.000000" cy="50000000.000000" r="500000.000000"/> 
</g>
<g style="fill:#FFFFFF; fill-opacity:1.0;  stroke:#FFFFFF; stroke-width:21200.000000; stroke-opacity:1;  stroke-linecap:round; stroke-linejoin:round;">
</g>
<g style="fill:#FFFFFF; fill-opacity:1.0;  stroke:#FFFFFF; stroke-width:1.000000; stroke-opacity:1;  stroke-linecap:round; stroke-linejoin:round;">
<circle cx="50000000.000000" cy="52540000.000000" r="500000.000000"/> 
</g>
<g style="fill:#FFFFFF; fill-opacity:1.0;  stroke:#FFFFFF; stroke-width:21200.000000; stroke-opacity:1;  stroke-linecap:round; stroke-linejoin:round;">
</g>
<g style="fill:#FFFFFF; fill-opacity:1.0;  stroke:#FFFFFF; stroke-width:1.000000; stroke-opacity:1;  stroke-linecap:round; stroke-linejoin:round;">
<circle cx="50000000.000000" cy="55080000.000000" r="500000.000000"/> 
</g>
<g style="fill:#FFFFFF; fill-opacity:1.0;  stroke:#FFFFFF; stroke-width:21200.000000; stroke-opacity:1;  stroke-linecap:round; stroke-linejoin:round;">
</g>
<g style="fill:#FFFFFF; fill-opacity:1.0;  stroke:#FFFFFF; stroke-width:1.000000; stroke-opacity:1;  stroke-linecap:round; stroke-linejoin:round;">
<circle cx="50000000.000000" cy="57620000.000000" r="500000.000000"/> 
</g>
<g style="fill:#FFFFFF; fill-opacity:1.0;  stroke:#FFFFFF; stroke-width:21200.000000; stroke-opacity:1;  stroke-linecap:round; stroke-linejoin:round;">
</g>
<g style="fill:#FFFFFF; fill-opacity:1.0;  stroke:#FFFFFF; stroke-width:1.000000; stroke-opacity:1;  stroke-linecap:round; stroke-linejoin:round;">
<circle cx="50000000.000000" cy="60160000.000000" r="500000.000000"/> 
</g>
<g style="fill:#FFFFFF; fill-opacity:1.0;  stroke:#FFFFFF; stroke-width:21200.000000; stroke-opacity:1;  stroke-linecap:round; stroke-linejoin:round;">
</g>
<g style="fill:#FFFFFF; fill-opacity:1.0;  stroke:#FFFFFF; stroke-width:1.000000; stroke-opacity:1;  stroke-linecap:round; stroke-linejoin:round;">
<circle cx="50000000.000000" cy="62700000.000000" r="500000.000000"/> 
</g>
<g style="fill:#FFFFFF; fill-opacity:1.0;  stroke:#FFFFFF; stroke-width:21200.000000; stroke-opacity:1;  stroke-linecap:round; stroke-linejoin:round;">
</g>
<g style="fill:#000000; fill-opacity:1.0;  stroke:#000000; stroke-width:21200.000000; stroke-opacity:1;  stroke-linecap:round; stroke-linejoin:round;">
<g>
</g>
<g>
</g>
<g>
</g>
<g>
</g>
</g> 
<svg:g><svg:title>SVG Picture created as kicadBoard-B_Adhesive.svg date 2022/11/17 07:47:43 </svg:title>
  <svg:desc>Picture generated by PCBNEW </svg:desc>
<svg:g style="fill:#000000; fill-opacity:1.000000;stroke:#000000; stroke-opacity:1.000000; stroke-linecap:round; stroke-linejoin:round;" transform="translate(0 0) scale(1 1)">
</svg:g>
<svg:g style="fill:#000000; fill-opacity:0.0;  stroke:#000000; stroke-width:0.000000; stroke-opacity:1;  stroke-linecap:round; stroke-linejoin:round;">
<svg:g>
</svg:g>
<svg:g>
</svg:g>
<svg:g>
</svg:g>
<svg:g>
</svg:g>
</svg:g>
<svg:g style="fill:#000000; fill-opacity:0.0;  stroke:#000000; stroke-width:0.000000; stroke-opacity:1;  stroke-linecap:round; stroke-linejoin:round;">
<svg:g>
</svg:g>
<svg:g>
</svg:g>
<svg:g>
</svg:g>
<svg:g>
</svg:g>
</svg:g> 
</svg:g><svg:g><svg:title>SVG Picture created as kicadBoard-B_Courtyard.svg date 2022/11/17 07:47:43 </svg:title>
  <svg:desc>Picture generated by PCBNEW </svg:desc>
<svg:g style="fill:#000000; fill-opacity:1.000000;stroke:#000000; stroke-opacity:1.000000; stroke-linecap:round; stroke-linejoin:round;" transform="translate(0 0) scale(1 1)">
</svg:g>
<svg:g style="fill:#000000; fill-opacity:0.0;  stroke:#000000; stroke-width:0.000000; stroke-opacity:1;  stroke-linecap:round; stroke-linejoin:round;">
<svg:g>
</svg:g>
<svg:g>
</svg:g>
<svg:g>
</svg:g>
<svg:g>
</svg:g>
</svg:g>
<svg:g style="fill:#000000; fill-opacity:0.0;  stroke:#000000; stroke-width:0.000000; stroke-opacity:1;  stroke-linecap:round; stroke-linejoin:round;">
<svg:g>
</svg:g>
<svg:g>
</svg:g>
<svg:g>
</svg:g>
<svg:g>
</svg:g>
</svg:g> 
</svg:g><svg:g><svg:title>SVG Picture created as kicadBoard-B_Fab.svg date 2022/11/17 07:47:43 </svg:title>
  <svg:desc>Picture generated by PCBNEW </svg:desc>
<svg:g style="fill:#000000; fill-opacity:1.000000;stroke:#000000; stroke-opacity:1.000000; stroke-linecap:round; stroke-linejoin:round;" transform="translate(0 0) scale(1 1)">
</svg:g>
<svg:g style="fill:#000000; fill-opacity:0.0;  stroke:#000000; stroke-width:0.000000; stroke-opacity:1;  stroke-linecap:round; stroke-linejoin:round;">
<svg:g>
</svg:g>
<svg:g>
</svg:g>
<svg:g>
</svg:g>
<svg:g>
</svg:g>
</svg:g>
<svg:g style="fill:#000000; fill-opacity:0.0;  stroke:#000000; stroke-width:0.000000; stroke-opacity:1;  stroke-linecap:round; stroke-linejoin:round;">
<svg:g>
</svg:g>
<svg:g>
</svg:g>
<svg:g>
</svg:g>
<svg:g>
</svg:g>
</svg:g> 
</svg:g><svg:g><svg:title>SVG Picture created as kicadBoard-B_Mask.svg date 2022/11/17 07:47:43 </svg:title>
  <svg:desc>Picture generated by PCBNEW </svg:desc>
<svg:g style="fill:#000000; fill-opacity:1.000000;stroke:#000000; stroke-opacity:1.000000; stroke-linecap:round; stroke-linejoin:round;" transform="translate(0 0) scale(1 1)">
</svg:g>
<svg:g style="fill:#000000; fill-opacity:0.0;  stroke:#000000; stroke-width:0.000000; stroke-opacity:1;  stroke-linecap:round; stroke-linejoin:round;">
<svg:g>
</svg:g>
<svg:g style="fill:#000000; fill-opacity:0.0;  stroke:#000000; stroke-width:1.000000; stroke-opacity:1;  stroke-linecap:round; stroke-linejoin:round;">
</svg:g>
<svg:g style="fill:#000000; fill-opacity:1.0;  stroke:#000000; stroke-width:1.000000; stroke-opacity:1;  stroke-linecap:round; stroke-linejoin:round;">
<svg:path style="fill:#000000; fill-opacity:1.0;  stroke:#000000; stroke-width:1.000000; stroke-opacity:1;  stroke-linecap:round; stroke-linejoin:round;fill-rule:evenodd;" d="M 49150000.000000,50850000.000000 49150000.000000,49150000.000000 50850000.000000,49150000.000000 50850000.000000,50850000.000000 Z"/> 
<svg:circle cx="50000000.000000" cy="52540000.000000" r="850000.000000"/> 
<svg:circle cx="50000000.000000" cy="55080000.000000" r="850000.000000"/> 
<svg:circle cx="50000000.000000" cy="57620000.000000" r="850000.000000"/> 
<svg:circle cx="50000000.000000" cy="60160000.000000" r="850000.000000"/> 
<svg:circle cx="50000000.000000" cy="62700000.000000" r="850000.000000"/> 
</svg:g>
<svg:g>
</svg:g>
<svg:g>
</svg:g>
<svg:g>
</svg:g>
</svg:g>
<svg:g style="fill:#000000; fill-opacity:1.0;  stroke:#000000; stroke-width:1.000000; stroke-opacity:1;  stroke-linecap:round; stroke-linejoin:round;">
<svg:g>
</svg:g>
<svg:g>
</svg:g>
<svg:g>
</svg:g>
<svg:g>
</svg:g>
</svg:g> 
</svg:g><svg:g><svg:title>SVG Picture created as kicadBoard-B_Paste.svg date 2022/11/17 07:47:43 </svg:title>
  <svg:desc>Picture generated by PCBNEW </svg:desc>
<svg:g style="fill:#000000; fill-opacity:1.000000;stroke:#000000; stroke-opacity:1.000000; stroke-linecap:round; stroke-linejoin:round;" transform="translate(0 0) scale(1 1)">
</svg:g>
<svg:g style="fill:#000000; fill-opacity:0.0;  stroke:#000000; stroke-width:0.000000; stroke-opacity:1;  stroke-linecap:round; stroke-linejoin:round;">
<svg:g>
</svg:g>
<svg:g>
</svg:g>
<svg:g>
</svg:g>
<svg:g>
</svg:g>
</svg:g>
<svg:g style="fill:#000000; fill-opacity:0.0;  stroke:#000000; stroke-width:0.000000; stroke-opacity:1;  stroke-linecap:round; stroke-linejoin:round;">
<svg:g>
</svg:g>
<svg:g>
</svg:g>
<svg:g>
</svg:g>
<svg:g>
</svg:g>
</svg:g> 
</svg:g><svg:g><svg:title>SVG Picture created as kicadBoard-B_Silkscreen.svg date 2022/11/17 07:47:43 </svg:title>
  <svg:desc>Picture generated by PCBNEW </svg:desc>
<svg:g style="fill:#000000; fill-opacity:1.000000;stroke:#000000; stroke-opacity:1.000000; stroke-linecap:round; stroke-linejoin:round;" transform="translate(0 0) scale(1 1)">
</svg:g>
<svg:g style="fill:#000000; fill-opacity:0.0;  stroke:#000000; stroke-width:0.000000; stroke-opacity:1;  stroke-linecap:round; stroke-linejoin:round;">
<svg:g>
</svg:g>
<svg:g>
</svg:g>
<svg:g>
</svg:g>
<svg:g>
</svg:g>
</svg:g>
<svg:g style="fill:#000000; fill-opacity:0.0;  stroke:#000000; stroke-width:0.000000; stroke-opacity:1;  stroke-linecap:round; stroke-linejoin:round;">
<svg:g>
</svg:g>
<svg:g>
</svg:g>
<svg:g>
</svg:g>
<svg:g>
</svg:g>
</svg:g> 
</svg:g><svg:g><svg:title>SVG Picture created as kicadBoard-Edge_Cuts.svg date 2022/11/17 07:47:43 </svg:title>
  <svg:desc>Picture generated by PCBNEW </svg:desc>
<svg:g style="fill:#000000; fill-opacity:1.000000;stroke:#000000; stroke-opacity:1.000000; stroke-linecap:round; stroke-linejoin:round;" transform="translate(0 0) scale(1 1)">
</svg:g>
<svg:g style="fill:#000000; fill-opacity:0.0;  stroke:#000000; stroke-width:0.000000; stroke-opacity:1;  stroke-linecap:round; stroke-linejoin:round;">
<svg:g>
</svg:g>
<svg:g>
</svg:g>
<svg:g>
</svg:g>
<svg:g>
</svg:g>
</svg:g> 
</svg:g><svg:g><svg:title>SVG Picture created as kicadBoard-F_Adhesive.svg date 2022/11/17 07:47:43 </svg:title>
  <svg:desc>Picture generated by PCBNEW </svg:desc>
<svg:g style="fill:#000000; fill-opacity:1.000000;stroke:#000000; stroke-opacity:1.000000; stroke-linecap:round; stroke-linejoin:round;" transform="translate(0 0) scale(1 1)">
</svg:g>
<svg:g style="fill:#000000; fill-opacity:0.0;  stroke:#000000; stroke-width:0.000000; stroke-opacity:1;  stroke-linecap:round; stroke-linejoin:round;">
<svg:g>
</svg:g>
<svg:g>
</svg:g>
<svg:g>
</svg:g>
<svg:g>
</svg:g>
</svg:g>
<svg:g style="fill:#000000; fill-opacity:0.0;  stroke:#000000; stroke-width:0.000000; stroke-opacity:1;  stroke-linecap:round; stroke-linejoin:round;">
<svg:g>
</svg:g>
<svg:g>
</svg:g>
<svg:g>
</svg:g>
<svg:g>
</svg:g>
</svg:g> 
</svg:g><svg:g><svg:title>SVG Picture created as kicadBoard-F_Courtyard.svg date 2022/11/17 07:47:43 </svg:title>
  <svg:desc>Picture generated by PCBNEW </svg:desc>
<svg:g style="fill:#000000; fill-opacity:1.000000;stroke:#000000; stroke-opacity:1.000000; stroke-linecap:round; stroke-linejoin:round;" transform="translate(0 0) scale(1 1)">
</svg:g>
<svg:g style="fill:#000000; fill-opacity:0.0;  stroke:#000000; stroke-width:0.000000; stroke-opacity:1;  stroke-linecap:round; stroke-linejoin:round;">
</svg:g>
<svg:g style="fill:#FF26E2; fill-opacity:0.0;  stroke:#FF26E2; stroke-width:0.000000; stroke-opacity:1;  stroke-linecap:round; stroke-linejoin:round;">
</svg:g>
<svg:g style="fill:#FF26E2; fill-opacity:0.0;  stroke:#FF26E2; stroke-width:50000.000000; stroke-opacity:1;  stroke-linecap:round; stroke-linejoin:round;">
<svg:path d="M48200000 48200000 L48200000 64500000 "/>
<svg:path d="M48200000 64500000 L60550000 64500000 "/>
<svg:path d="M60550000 48200000 L48200000 48200000 "/>
<svg:path d="M60550000 64500000 L60550000 48200000 "/>
<svg:g>
</svg:g>
<svg:g>
</svg:g>
<svg:g>
</svg:g>
<svg:g>
</svg:g>
</svg:g>
<svg:g style="fill:#000000; fill-opacity:0.0;  stroke:#000000; stroke-width:50000.000000; stroke-opacity:1;  stroke-linecap:round; stroke-linejoin:round;">
<svg:g>
</svg:g>
<svg:g>
</svg:g>
<svg:g>
</svg:g>
<svg:g>
</svg:g>
</svg:g> 
</svg:g><svg:g><svg:title>SVG Picture created as kicadBoard-F_Cu.svg date 2022/11/17 07:47:43 </svg:title>
  <svg:desc>Picture generated by PCBNEW </svg:desc>
<svg:g style="fill:#000000; fill-opacity:1.000000;stroke:#000000; stroke-opacity:1.000000; stroke-linecap:round; stroke-linejoin:round;" transform="translate(0 0) scale(1 1)">
</svg:g>
<svg:g style="fill:#000000; fill-opacity:0.0;  stroke:#000000; stroke-width:0.000000; stroke-opacity:1;  stroke-linecap:round; stroke-linejoin:round;">
<svg:g>
</svg:g>
<svg:g style="fill:#C83434; fill-opacity:0.0;  stroke:#C83434; stroke-width:0.000000; stroke-opacity:1;  stroke-linecap:round; stroke-linejoin:round;">
</svg:g>
<svg:g style="fill:#C83434; fill-opacity:0.0;  stroke:#C83434; stroke-width:1.000000; stroke-opacity:1;  stroke-linecap:round; stroke-linejoin:round;">
</svg:g>
<svg:g style="fill:#C83434; fill-opacity:1.0;  stroke:#C83434; stroke-width:1.000000; stroke-opacity:1;  stroke-linecap:round; stroke-linejoin:round;">
<svg:path style="fill:#C83434; fill-opacity:1.0;  stroke:#C83434; stroke-width:1.000000; stroke-opacity:1;  stroke-linecap:round; stroke-linejoin:round;fill-rule:evenodd;" d="M 49150000.000000,50850000.000000 49150000.000000,49150000.000000 50850000.000000,49150000.000000 50850000.000000,50850000.000000 Z"/> 
<svg:circle cx="50000000.000000" cy="52540000.000000" r="850000.000000"/> 
<svg:circle cx="50000000.000000" cy="55080000.000000" r="850000.000000"/> 
<svg:circle cx="50000000.000000" cy="57620000.000000" r="850000.000000"/> 
<svg:circle cx="50000000.000000" cy="60160000.000000" r="850000.000000"/> 
<svg:circle cx="50000000.000000" cy="62700000.000000" r="850000.000000"/> 
</svg:g>
<svg:g>
</svg:g>
<svg:g>
</svg:g>
<svg:g>
</svg:g>
</svg:g>
<svg:g style="fill:#FFFFFF; fill-opacity:1.0;  stroke:#FFFFFF; stroke-width:1.000000; stroke-opacity:1;  stroke-linecap:round; stroke-linejoin:round;">
<svg:circle cx="50000000.000000" cy="50000000.000000" r="500000.000000"/> 
</svg:g>
<svg:g style="fill:#FFFFFF; fill-opacity:1.0;  stroke:#FFFFFF; stroke-width:21200.000000; stroke-opacity:1;  stroke-linecap:round; stroke-linejoin:round;">
</svg:g>
<svg:g style="fill:#FFFFFF; fill-opacity:1.0;  stroke:#FFFFFF; stroke-width:1.000000; stroke-opacity:1;  stroke-linecap:round; stroke-linejoin:round;">
<svg:circle cx="50000000.000000" cy="52540000.000000" r="500000.000000"/> 
</svg:g>
<svg:g style="fill:#FFFFFF; fill-opacity:1.0;  stroke:#FFFFFF; stroke-width:21200.000000; stroke-opacity:1;  stroke-linecap:round; stroke-linejoin:round;">
</svg:g>
<svg:g style="fill:#FFFFFF; fill-opacity:1.0;  stroke:#FFFFFF; stroke-width:1.000000; stroke-opacity:1;  stroke-linecap:round; stroke-linejoin:round;">
<svg:circle cx="50000000.000000" cy="55080000.000000" r="500000.000000"/> 
</svg:g>
<svg:g style="fill:#FFFFFF; fill-opacity:1.0;  stroke:#FFFFFF; stroke-width:21200.000000; stroke-opacity:1;  stroke-linecap:round; stroke-linejoin:round;">
</svg:g>
<svg:g style="fill:#FFFFFF; fill-opacity:1.0;  stroke:#FFFFFF; stroke-width:1.000000; stroke-opacity:1;  stroke-linecap:round; stroke-linejoin:round;">
<svg:circle cx="50000000.000000" cy="57620000.000000" r="500000.000000"/> 
</svg:g>
<svg:g style="fill:#FFFFFF; fill-opacity:1.0;  stroke:#FFFFFF; stroke-width:21200.000000; stroke-opacity:1;  stroke-linecap:round; stroke-linejoin:round;">
</svg:g>
<svg:g style="fill:#FFFFFF; fill-opacity:1.0;  stroke:#FFFFFF; stroke-width:1.000000; stroke-opacity:1;  stroke-linecap:round; stroke-linejoin:round;">
<svg:circle cx="50000000.000000" cy="60160000.000000" r="500000.000000"/> 
</svg:g>
<svg:g style="fill:#FFFFFF; fill-opacity:1.0;  stroke:#FFFFFF; stroke-width:21200.000000; stroke-opacity:1;  stroke-linecap:round; stroke-linejoin:round;">
</svg:g>
<svg:g style="fill:#FFFFFF; fill-opacity:1.0;  stroke:#FFFFFF; stroke-width:1.000000; stroke-opacity:1;  stroke-linecap:round; stroke-linejoin:round;">
<svg:circle cx="50000000.000000" cy="62700000.000000" r="500000.000000"/> 
</svg:g>
<svg:g style="fill:#FFFFFF; fill-opacity:1.0;  stroke:#FFFFFF; stroke-width:21200.000000; stroke-opacity:1;  stroke-linecap:round; stroke-linejoin:round;">
</svg:g>
<svg:g style="fill:#000000; fill-opacity:1.0;  stroke:#000000; stroke-width:21200.000000; stroke-opacity:1;  stroke-linecap:round; stroke-linejoin:round;">
<svg:g>
</svg:g>
<svg:g>
</svg:g>
<svg:g>
</svg:g>
<svg:g>
</svg:g>
</svg:g> 
</svg:g><svg:g><svg:title>SVG Picture created as kicadBoard-F_Fab.svg date 2022/11/17 07:47:43 </svg:title>
  <svg:desc>Picture generated by PCBNEW </svg:desc>
<svg:g style="fill:#000000; fill-opacity:1.000000;stroke:#000000; stroke-opacity:1.000000; stroke-linecap:round; stroke-linejoin:round;" transform="translate(0 0) scale(1 1)">
</svg:g>
<svg:g style="fill:#000000; fill-opacity:0.0;  stroke:#000000; stroke-width:0.000000; stroke-opacity:1;  stroke-linecap:round; stroke-linejoin:round;">
</svg:g>
<svg:g style="fill:#AFAFAF; fill-opacity:0.0;  stroke:#AFAFAF; stroke-width:0.000000; stroke-opacity:1;  stroke-linecap:round; stroke-linejoin:round;">
</svg:g>
<svg:g style="fill:#AFAFAF; fill-opacity:0.0;  stroke:#AFAFAF; stroke-width:150000.000000; stroke-opacity:1;  stroke-linecap:round; stroke-linejoin:round;">
<svg:text x="54385000.000000" y="65470000.000000" textLength="28385476.000000" font-size="1333333.000000" lengthAdjust="spacingAndGlyphs" text-anchor="middle" opacity="0">PinHeader_1x06_P2.54mm_Horizontal</svg:text>
<svg:g class="stroked-text"><svg:desc>PinHeader_1x06_P2.54mm_Horizontal</svg:desc>
<svg:path d="M40527857 65422380 L40527857 64422380 L40908809 64422380 L41004047 64470000 L41051666 64517619 L41099285 64612857 L41099285 64755714 L41051666 64850952 L41004047 64898571 L40908809 64946190 L40527857 64946190 "/>
<svg:path d="M41527857 65422380 L41527857 64755714 "/>
<svg:path d="M41527857 64422380 L41480238 64470000 L41527857 64517619 L41575476 64470000 L41527857 64422380 L41527857 64517619 "/>
<svg:path d="M42004047 64755714 L42004047 65422380 "/>
<svg:path d="M42004047 64850952 L42051666 64803333 L42146904 64755714 L42289761 64755714 L42385000 64803333 L42432619 64898571 L42432619 65422380 "/>
<svg:path d="M42908809 65422380 L42908809 64422380 "/>
<svg:path d="M42908809 64898571 L43480238 64898571 "/>
<svg:path d="M43480238 65422380 L43480238 64422380 "/>
<svg:path d="M44337380 65374761 L44242142 65422380 L44051666 65422380 L43956428 65374761 L43908809 65279523 L43908809 64898571 L43956428 64803333 L44051666 64755714 L44242142 64755714 L44337380 64803333 L44385000 64898571 L44385000 64993809 L43908809 65089047 "/>
<svg:path d="M45242142 65422380 L45242142 64898571 L45194523 64803333 L45099285 64755714 L44908809 64755714 L44813571 64803333 "/>
<svg:path d="M45242142 65374761 L45146904 65422380 L44908809 65422380 L44813571 65374761 L44765952 65279523 L44765952 65184285 L44813571 65089047 L44908809 65041428 L45146904 65041428 L45242142 64993809 "/>
<svg:path d="M46146904 65422380 L46146904 64422380 "/>
<svg:path d="M46146904 65374761 L46051666 65422380 L45861190 65422380 L45765952 65374761 L45718333 65327142 L45670714 65231904 L45670714 64946190 L45718333 64850952 L45765952 64803333 L45861190 64755714 L46051666 64755714 L46146904 64803333 "/>
<svg:path d="M47004047 65374761 L46908809 65422380 L46718333 65422380 L46623095 65374761 L46575476 65279523 L46575476 64898571 L46623095 64803333 L46718333 64755714 L46908809 64755714 L47004047 64803333 L47051666 64898571 L47051666 64993809 L46575476 65089047 "/>
<svg:path d="M47480238 65422380 L47480238 64755714 "/>
<svg:path d="M47480238 64946190 L47527857 64850952 L47575476 64803333 L47670714 64755714 L47765952 64755714 "/>
<svg:path d="M47861190 65517619 L48623095 65517619 "/>
<svg:path d="M49385000 65422380 L48813571 65422380 "/>
<svg:path d="M49099285 65422380 L49099285 64422380 L49004047 64565238 L48908809 64660476 L48813571 64708095 "/>
<svg:path d="M49718333 65422380 L50242142 64755714 "/>
<svg:path d="M49718333 64755714 L50242142 65422380 "/>
<svg:path d="M50813571 64422380 L50908809 64422380 L51004047 64470000 L51051666 64517619 L51099285 64612857 L51146904 64803333 L51146904 65041428 L51099285 65231904 L51051666 65327142 L51004047 65374761 L50908809 65422380 L50813571 65422380 L50718333 65374761 L50670714 65327142 L50623095 65231904 L50575476 65041428 L50575476 64803333 L50623095 64612857 L50670714 64517619 L50718333 64470000 L50813571 64422380 "/>
<svg:path d="M52004047 64422380 L51813571 64422380 L51718333 64470000 L51670714 64517619 L51575476 64660476 L51527857 64850952 L51527857 65231904 L51575476 65327142 L51623095 65374761 L51718333 65422380 L51908809 65422380 L52004047 65374761 L52051666 65327142 L52099285 65231904 L52099285 64993809 L52051666 64898571 L52004047 64850952 L51908809 64803333 L51718333 64803333 L51623095 64850952 L51575476 64898571 L51527857 64993809 "/>
<svg:path d="M52289761 65517619 L53051666 65517619 "/>
<svg:path d="M53289761 65422380 L53289761 64422380 L53670714 64422380 L53765952 64470000 L53813571 64517619 L53861190 64612857 L53861190 64755714 L53813571 64850952 L53765952 64898571 L53670714 64946190 L53289761 64946190 "/>
<svg:path d="M54242142 64517619 L54289761 64470000 L54385000 64422380 L54623095 64422380 L54718333 64470000 L54765952 64517619 L54813571 64612857 L54813571 64708095 L54765952 64850952 L54194523 65422380 L54813571 65422380 "/>
<svg:path d="M55242142 65327142 L55289761 65374761 L55242142 65422380 L55194523 65374761 L55242142 65327142 L55242142 65422380 "/>
<svg:path d="M56194523 64422380 L55718333 64422380 L55670714 64898571 L55718333 64850952 L55813571 64803333 L56051666 64803333 L56146904 64850952 L56194523 64898571 L56242142 64993809 L56242142 65231904 L56194523 65327142 L56146904 65374761 L56051666 65422380 L55813571 65422380 L55718333 65374761 L55670714 65327142 "/>
<svg:path d="M57099285 64755714 L57099285 65422380 "/>
<svg:path d="M56861190 64374761 L56623095 65089047 L57242142 65089047 "/>
<svg:path d="M57623095 65422380 L57623095 64755714 "/>
<svg:path d="M57623095 64850952 L57670714 64803333 L57765952 64755714 L57908809 64755714 L58004047 64803333 L58051666 64898571 L58051666 65422380 "/>
<svg:path d="M58051666 64898571 L58099285 64803333 L58194523 64755714 L58337380 64755714 L58432619 64803333 L58480238 64898571 L58480238 65422380 "/>
<svg:path d="M58956428 65422380 L58956428 64755714 "/>
<svg:path d="M58956428 64850952 L59004047 64803333 L59099285 64755714 L59242142 64755714 L59337380 64803333 L59384999 64898571 L59384999 65422380 "/>
<svg:path d="M59384999 64898571 L59432619 64803333 L59527857 64755714 L59670714 64755714 L59765952 64803333 L59813571 64898571 L59813571 65422380 "/>
<svg:path d="M60051666 65517619 L60813571 65517619 "/>
<svg:path d="M61051666 65422380 L61051666 64422380 "/>
<svg:path d="M61051666 64898571 L61623095 64898571 "/>
<svg:path d="M61623095 65422380 L61623095 64422380 "/>
<svg:path d="M62242142 65422380 L62146904 65374761 L62099285 65327142 L62051666 65231904 L62051666 64946190 L62099285 64850952 L62146904 64803333 L62242142 64755714 L62384999 64755714 L62480238 64803333 L62527857 64850952 L62575476 64946190 L62575476 65231904 L62527857 65327142 L62480238 65374761 L62384999 65422380 L62242142 65422380 "/>
<svg:path d="M63004047 65422380 L63004047 64755714 "/>
<svg:path d="M63004047 64946190 L63051666 64850952 L63099285 64803333 L63194523 64755714 L63289761 64755714 "/>
<svg:path d="M63623095 65422380 L63623095 64755714 "/>
<svg:path d="M63623095 64422380 L63575476 64470000 L63623095 64517619 L63670714 64470000 L63623095 64422380 L63623095 64517619 "/>
<svg:path d="M64004047 64755714 L64527857 64755714 L64004047 65422380 L64527857 65422380 "/>
<svg:path d="M65051666 65422380 L64956428 65374761 L64908809 65327142 L64861190 65231904 L64861190 64946190 L64908809 64850952 L64956428 64803333 L65051666 64755714 L65194523 64755714 L65289761 64803333 L65337380 64850952 L65384999 64946190 L65384999 65231904 L65337380 65327142 L65289761 65374761 L65194523 65422380 L65051666 65422380 "/>
<svg:path d="M65813571 64755714 L65813571 65422380 "/>
<svg:path d="M65813571 64850952 L65861190 64803333 L65956428 64755714 L66099285 64755714 L66194523 64803333 L66242142 64898571 L66242142 65422380 "/>
<svg:path d="M66575476 64755714 L66956428 64755714 "/>
<svg:path d="M66718333 64422380 L66718333 65279523 L66765952 65374761 L66861190 65422380 L66956428 65422380 "/>
<svg:path d="M67718333 65422380 L67718333 64898571 L67670714 64803333 L67575476 64755714 L67384999 64755714 L67289761 64803333 "/>
<svg:path d="M67718333 65374761 L67623095 65422380 L67384999 65422380 L67289761 65374761 L67242142 65279523 L67242142 65184285 L67289761 65089047 L67384999 65041428 L67623095 65041428 L67718333 64993809 "/>
<svg:path d="M68337380 65422380 L68242142 65374761 L68194523 65279523 L68194523 64422380 "/>
</svg:g><svg:g transform="rotate(-90.000000 52770000.000000 56350000.000000)">
<svg:text x="52770000.000000" y="56850000.000000" textLength="40147381.000000" font-size="1333333.000000" lengthAdjust="spacingAndGlyphs" text-anchor="middle" opacity="0">FZKCNPINHEADER254PINHEADER1X6P254HORIZONTAL</svg:text>
</svg:g>
<svg:g class="stroked-text"><svg:desc>FZKCNPINHEADER254PINHEADER1X6P254HORIZONTAL</svg:desc>
<svg:path d="M52698571 75754761 L52698571 76088095 "/>
<svg:path d="M53222380 76088095 L52222380 76088095 L52222380 75611904 "/>
<svg:path d="M52222380 75326190 L52222380 74659523 L53222380 75326190 L53222380 74659523 "/>
<svg:path d="M53222380 74278571 L52222380 74278571 "/>
<svg:path d="M53222380 73707142 L52650952 74135714 "/>
<svg:path d="M52222380 73707142 L52793809 74278571 "/>
<svg:path d="M53127142 72707142 L53174761 72754761 L53222380 72897619 L53222380 72992857 L53174761 73135714 L53079523 73230952 L52984285 73278571 L52793809 73326190 L52650952 73326190 L52460476 73278571 L52365238 73230952 L52270000 73135714 L52222380 72992857 L52222380 72897619 L52270000 72754761 L52317619 72707142 "/>
<svg:path d="M53222380 72278571 L52222380 72278571 L53222380 71707142 L52222380 71707142 "/>
<svg:path d="M53222380 71230952 L52222380 71230952 L52222380 70850000 L52270000 70754761 L52317619 70707142 L52412857 70659523 L52555714 70659523 L52650952 70707142 L52698571 70754761 L52746190 70850000 L52746190 71230952 "/>
<svg:path d="M53222380 70230952 L52222380 70230952 "/>
<svg:path d="M53222380 69754761 L52222380 69754761 L53222380 69183333 L52222380 69183333 "/>
<svg:path d="M53222380 68707142 L52222380 68707142 "/>
<svg:path d="M52698571 68707142 L52698571 68135714 "/>
<svg:path d="M53222380 68135714 L52222380 68135714 "/>
<svg:path d="M52698571 67659523 L52698571 67326190 "/>
<svg:path d="M53222380 67183333 L53222380 67659523 L52222380 67659523 L52222380 67183333 "/>
<svg:path d="M52936666 66802380 L52936666 66326190 "/>
<svg:path d="M53222380 66897619 L52222380 66564285 L53222380 66230952 "/>
<svg:path d="M53222380 65897619 L52222380 65897619 L52222380 65659523 L52270000 65516666 L52365238 65421428 L52460476 65373809 L52650952 65326190 L52793809 65326190 L52984285 65373809 L53079523 65421428 L53174761 65516666 L53222380 65659523 L53222380 65897619 "/>
<svg:path d="M52698571 64897619 L52698571 64564285 "/>
<svg:path d="M53222380 64421428 L53222380 64897619 L52222380 64897619 L52222380 64421428 "/>
<svg:path d="M53222380 63421428 L52746190 63754761 "/>
<svg:path d="M53222380 63992857 L52222380 63992857 L52222380 63611904 L52270000 63516666 L52317619 63469047 L52412857 63421428 L52555714 63421428 L52650952 63469047 L52698571 63516666 L52746190 63611904 L52746190 63992857 "/>
<svg:path d="M52317619 63040476 L52270000 62992857 L52222380 62897619 L52222380 62659523 L52270000 62564285 L52317619 62516666 L52412857 62469047 L52508095 62469047 L52650952 62516666 L53222380 63088095 L53222380 62469047 "/>
<svg:path d="M52222380 61564285 L52222380 62040476 L52698571 62088095 L52650952 62040476 L52603333 61945238 L52603333 61707142 L52650952 61611904 L52698571 61564285 L52793809 61516666 L53031904 61516666 L53127142 61564285 L53174761 61611904 L53222380 61707142 L53222380 61945238 L53174761 62040476 L53127142 62088095 "/>
<svg:path d="M52555714 60659523 L53222380 60659523 "/>
<svg:path d="M52174761 60897619 L52889047 61135714 L52889047 60516666 "/>
<svg:path d="M53222380 60135714 L52222380 60135714 L52222380 59754761 L52270000 59659523 L52317619 59611904 L52412857 59564285 L52555714 59564285 L52650952 59611904 L52698571 59659523 L52746190 59754761 L52746190 60135714 "/>
<svg:path d="M53222380 59135714 L52222380 59135714 "/>
<svg:path d="M53222380 58659523 L52222380 58659523 L53222380 58088095 L52222380 58088095 "/>
<svg:path d="M53222380 57611904 L52222380 57611904 "/>
<svg:path d="M52698571 57611904 L52698571 57040476 "/>
<svg:path d="M53222380 57040476 L52222380 57040476 "/>
<svg:path d="M52698571 56564285 L52698571 56230952 "/>
<svg:path d="M53222380 56088095 L53222380 56564285 L52222380 56564285 L52222380 56088095 "/>
<svg:path d="M52936666 55707142 L52936666 55230952 "/>
<svg:path d="M53222380 55802380 L52222380 55469047 L53222380 55135714 "/>
<svg:path d="M53222380 54802380 L52222380 54802380 L52222380 54564285 L52270000 54421428 L52365238 54326190 L52460476 54278571 L52650952 54230952 L52793809 54230952 L52984285 54278571 L53079523 54326190 L53174761 54421428 L53222380 54564285 L53222380 54802380 "/>
<svg:path d="M52698571 53802380 L52698571 53469047 "/>
<svg:path d="M53222380 53326190 L53222380 53802380 L52222380 53802380 L52222380 53326190 "/>
<svg:path d="M53222380 52326190 L52746190 52659523 "/>
<svg:path d="M53222380 52897619 L52222380 52897619 L52222380 52516666 L52270000 52421428 L52317619 52373809 L52412857 52326190 L52555714 52326190 L52650952 52373809 L52698571 52421428 L52746190 52516666 L52746190 52897619 "/>
<svg:path d="M53222380 51373809 L53222380 51945238 "/>
<svg:path d="M53222380 51659523 L52222380 51659523 L52365238 51754761 L52460476 51850000 L52508095 51945238 "/>
<svg:path d="M52222380 51040476 L53222380 50373809 "/>
<svg:path d="M52222380 50373809 L53222380 51040476 "/>
<svg:path d="M52222380 49564285 L52222380 49754761 L52270000 49850000 L52317619 49897619 L52460476 49992857 L52650952 50040476 L53031904 50040476 L53127142 49992857 L53174761 49945238 L53222380 49850000 L53222380 49659523 L53174761 49564285 L53127142 49516666 L53031904 49469047 L52793809 49469047 L52698571 49516666 L52650952 49564285 L52603333 49659523 L52603333 49850000 L52650952 49945238 L52698571 49992857 L52793809 50040476 "/>
<svg:path d="M53222380 49040476 L52222380 49040476 L52222380 48659523 L52270000 48564285 L52317619 48516666 L52412857 48469047 L52555714 48469047 L52650952 48516666 L52698571 48564285 L52746190 48659523 L52746190 49040476 "/>
<svg:path d="M52317619 48088095 L52270000 48040476 L52222380 47945238 L52222380 47707142 L52270000 47611904 L52317619 47564285 L52412857 47516666 L52508095 47516666 L52650952 47564285 L53222380 48135714 L53222380 47516666 "/>
<svg:path d="M52222380 46611904 L52222380 47088095 L52698571 47135714 L52650952 47088095 L52603333 46992857 L52603333 46754761 L52650952 46659523 L52698571 46611904 L52793809 46564285 L53031904 46564285 L53127142 46611904 L53174761 46659523 L53222380 46754761 L53222380 46992857 L53174761 47088095 L53127142 47135714 "/>
<svg:path d="M52555714 45707142 L53222380 45707142 "/>
<svg:path d="M52174761 45945238 L52889047 46183333 L52889047 45564285 "/>
<svg:path d="M53222380 45183333 L52222380 45183333 "/>
<svg:path d="M52698571 45183333 L52698571 44611904 "/>
<svg:path d="M53222380 44611904 L52222380 44611904 "/>
<svg:path d="M52222380 43945238 L52222380 43754761 L52270000 43659523 L52365238 43564285 L52555714 43516666 L52889047 43516666 L53079523 43564285 L53174761 43659523 L53222380 43754761 L53222380 43945238 L53174761 44040476 L53079523 44135714 L52889047 44183333 L52555714 44183333 L52365238 44135714 L52270000 44040476 L52222380 43945238 "/>
<svg:path d="M53222380 42516666 L52746190 42850000 "/>
<svg:path d="M53222380 43088095 L52222380 43088095 L52222380 42707142 L52270000 42611904 L52317619 42564285 L52412857 42516666 L52555714 42516666 L52650952 42564285 L52698571 42611904 L52746190 42707142 L52746190 43088095 "/>
<svg:path d="M53222380 42088095 L52222380 42088095 "/>
<svg:path d="M52222380 41707142 L52222380 41040476 L53222380 41707142 L53222380 41040476 "/>
<svg:path d="M52222380 40469047 L52222380 40278571 L52270000 40183333 L52365238 40088095 L52555714 40040476 L52889047 40040476 L53079523 40088095 L53174761 40183333 L53222380 40278571 L53222380 40469047 L53174761 40564285 L53079523 40659523 L52889047 40707142 L52555714 40707142 L52365238 40659523 L52270000 40564285 L52222380 40469047 "/>
<svg:path d="M53222380 39611904 L52222380 39611904 L53222380 39040476 L52222380 39040476 "/>
<svg:path d="M52222380 38707142 L52222380 38135714 "/>
<svg:path d="M53222380 38421428 L52222380 38421428 "/>
<svg:path d="M52936666 37850000 L52936666 37373809 "/>
<svg:path d="M53222380 37945238 L52222380 37611904 L53222380 37278571 "/>
<svg:path d="M53222380 36469047 L53222380 36945238 L52222380 36945238 "/>
</svg:g></svg:g>
<svg:g style="fill:#AFAFAF; fill-opacity:0.0;  stroke:#AFAFAF; stroke-width:100000.000000; stroke-opacity:1;  stroke-linecap:round; stroke-linejoin:round;">
<svg:path d="M54040000 52220000 L60040000 52220000 "/>
<svg:path d="M49680000 62380000 L49680000 63020000 "/>
<svg:path d="M54040000 63020000 L60040000 63020000 "/>
<svg:path d="M49680000 52220000 L49680000 52860000 "/>
<svg:path d="M54040000 55400000 L60040000 55400000 "/>
<svg:path d="M49680000 54760000 L49680000 55400000 "/>
<svg:path d="M54040000 48730000 L54040000 63970000 "/>
<svg:path d="M49680000 57300000 L49680000 57940000 "/>
<svg:path d="M60040000 52220000 L60040000 52860000 "/>
<svg:path d="M49680000 55400000 L51500000 55400000 "/>
<svg:path d="M49680000 60480000 L51500000 60480000 "/>
<svg:path d="M54040000 52860000 L60040000 52860000 "/>
<svg:path d="M49680000 54760000 L51500000 54760000 "/>
<svg:path d="M49680000 59840000 L51500000 59840000 "/>
<svg:path d="M54040000 63970000 L51500000 63970000 "/>
<svg:path d="M49680000 57940000 L51500000 57940000 "/>
<svg:path d="M54040000 57300000 L60040000 57300000 "/>
<svg:path d="M49680000 63020000 L51500000 63020000 "/>
<svg:path d="M54040000 54760000 L60040000 54760000 "/>
<svg:path d="M60040000 54760000 L60040000 55400000 "/>
<svg:path d="M54040000 62380000 L60040000 62380000 "/>
<svg:path d="M49680000 49680000 L49680000 50320000 "/>
<svg:path d="M54040000 57940000 L60040000 57940000 "/>
<svg:path d="M60040000 62380000 L60040000 63020000 "/>
<svg:path d="M60040000 49680000 L60040000 50320000 "/>
<svg:path d="M49680000 52860000 L51500000 52860000 "/>
<svg:path d="M60040000 59840000 L60040000 60480000 "/>
<svg:path d="M49680000 52220000 L51500000 52220000 "/>
<svg:path d="M49680000 59840000 L49680000 60480000 "/>
<svg:path d="M49680000 49680000 L51500000 49680000 "/>
<svg:path d="M54040000 59840000 L60040000 59840000 "/>
<svg:path d="M51500000 49365000 L52135000 48730000 "/>
<svg:path d="M51500000 63970000 L51500000 49365000 "/>
<svg:path d="M49680000 62380000 L51500000 62380000 "/>
<svg:path d="M60040000 57300000 L60040000 57940000 "/>
<svg:path d="M54040000 49680000 L60040000 49680000 "/>
<svg:path d="M49680000 57300000 L51500000 57300000 "/>
<svg:path d="M49680000 50320000 L51500000 50320000 "/>
<svg:path d="M54040000 60480000 L60040000 60480000 "/>
<svg:path d="M54040000 50320000 L60040000 50320000 "/>
<svg:path d="M52135000 48730000 L54040000 48730000 "/>
<svg:g>
</svg:g>
<svg:g>
</svg:g>
<svg:g>
</svg:g>
<svg:g>
</svg:g>
</svg:g>
<svg:g style="fill:#000000; fill-opacity:0.0;  stroke:#000000; stroke-width:100000.000000; stroke-opacity:1;  stroke-linecap:round; stroke-linejoin:round;">
<svg:g>
</svg:g>
<svg:g>
</svg:g>
<svg:g>
</svg:g>
<svg:g>
</svg:g>
</svg:g> 
</svg:g><svg:g><svg:title>SVG Picture created as kicadBoard-F_Mask.svg date 2022/11/17 07:47:43 </svg:title>
  <svg:desc>Picture generated by PCBNEW </svg:desc>
<svg:g style="fill:#000000; fill-opacity:1.000000;stroke:#000000; stroke-opacity:1.000000; stroke-linecap:round; stroke-linejoin:round;" transform="translate(0 0) scale(1 1)">
</svg:g>
<svg:g style="fill:#000000; fill-opacity:0.0;  stroke:#000000; stroke-width:0.000000; stroke-opacity:1;  stroke-linecap:round; stroke-linejoin:round;">
<svg:g>
</svg:g>
<svg:g style="fill:#000000; fill-opacity:0.0;  stroke:#000000; stroke-width:1.000000; stroke-opacity:1;  stroke-linecap:round; stroke-linejoin:round;">
</svg:g>
<svg:g style="fill:#000000; fill-opacity:1.0;  stroke:#000000; stroke-width:1.000000; stroke-opacity:1;  stroke-linecap:round; stroke-linejoin:round;">
<svg:path style="fill:#000000; fill-opacity:1.0;  stroke:#000000; stroke-width:1.000000; stroke-opacity:1;  stroke-linecap:round; stroke-linejoin:round;fill-rule:evenodd;" d="M 49150000.000000,50850000.000000 49150000.000000,49150000.000000 50850000.000000,49150000.000000 50850000.000000,50850000.000000 Z"/> 
<svg:circle cx="50000000.000000" cy="52540000.000000" r="850000.000000"/> 
<svg:circle cx="50000000.000000" cy="55080000.000000" r="850000.000000"/> 
<svg:circle cx="50000000.000000" cy="57620000.000000" r="850000.000000"/> 
<svg:circle cx="50000000.000000" cy="60160000.000000" r="850000.000000"/> 
<svg:circle cx="50000000.000000" cy="62700000.000000" r="850000.000000"/> 
</svg:g>
<svg:g>
</svg:g>
<svg:g>
</svg:g>
<svg:g>
</svg:g>
</svg:g>
<svg:g style="fill:#000000; fill-opacity:1.0;  stroke:#000000; stroke-width:1.000000; stroke-opacity:1;  stroke-linecap:round; stroke-linejoin:round;">
<svg:g>
</svg:g>
<svg:g>
</svg:g>
<svg:g>
</svg:g>
<svg:g>
</svg:g>
</svg:g> 
</svg:g><svg:g><svg:title>SVG Picture created as kicadBoard-F_Paste.svg date 2022/11/17 07:47:43 </svg:title>
  <svg:desc>Picture generated by PCBNEW </svg:desc>
<svg:g style="fill:#000000; fill-opacity:1.000000;stroke:#000000; stroke-opacity:1.000000; stroke-linecap:round; stroke-linejoin:round;" transform="translate(0 0) scale(1 1)">
</svg:g>
<svg:g style="fill:#000000; fill-opacity:0.0;  stroke:#000000; stroke-width:0.000000; stroke-opacity:1;  stroke-linecap:round; stroke-linejoin:round;">
<svg:g>
</svg:g>
<svg:g>
</svg:g>
<svg:g>
</svg:g>
<svg:g>
</svg:g>
</svg:g>
<svg:g style="fill:#000000; fill-opacity:0.0;  stroke:#000000; stroke-width:0.000000; stroke-opacity:1;  stroke-linecap:round; stroke-linejoin:round;">
<svg:g>
</svg:g>
<svg:g>
</svg:g>
<svg:g>
</svg:g>
<svg:g>
</svg:g>
</svg:g> 
</svg:g><svg:g><svg:title>SVG Picture created as kicadBoard-F_Silkscreen.svg date 2022/11/17 07:47:43 </svg:title>
  <svg:desc>Picture generated by PCBNEW </svg:desc>
<svg:g style="fill:#000000; fill-opacity:1.000000;stroke:#000000; stroke-opacity:1.000000; stroke-linecap:round; stroke-linejoin:round;" transform="translate(0 0) scale(1 1)">
</svg:g>
<svg:g style="fill:#000000; fill-opacity:0.0;  stroke:#000000; stroke-width:0.000000; stroke-opacity:1;  stroke-linecap:round; stroke-linejoin:round;">
</svg:g>
<svg:g style="fill:#F2EDA1; fill-opacity:0.0;  stroke:#F2EDA1; stroke-width:0.000000; stroke-opacity:1;  stroke-linecap:round; stroke-linejoin:round;">
</svg:g>
<svg:g style="fill:#F2EDA1; fill-opacity:0.0;  stroke:#F2EDA1; stroke-width:150000.000000; stroke-opacity:1;  stroke-linecap:round; stroke-linejoin:round;">
<svg:text x="54385000.000000" y="48230000.000000" textLength="39952382.000000" font-size="1333333.000000" lengthAdjust="spacingAndGlyphs" text-anchor="middle" opacity="0">FZKCNPINHEADER254PINHEADER1X6P254HORIZONTAL</svg:text>
<svg:g class="stroked-text"><svg:desc>FZKCNPINHEADER254PINHEADER1X6P254HORIZONTAL</svg:desc>
<svg:path d="M34980238 47658571 L34646904 47658571 "/>
<svg:path d="M34646904 48182380 L34646904 47182380 L35123095 47182380 "/>
<svg:path d="M35408809 47182380 L36075476 47182380 L35408809 48182380 L36075476 48182380 "/>
<svg:path d="M36456428 48182380 L36456428 47182380 "/>
<svg:path d="M37027857 48182380 L36599285 47610952 "/>
<svg:path d="M37027857 47182380 L36456428 47753809 "/>
<svg:path d="M38027857 48087142 L37980238 48134761 L37837380 48182380 L37742142 48182380 L37599285 48134761 L37504047 48039523 L37456428 47944285 L37408809 47753809 L37408809 47610952 L37456428 47420476 L37504047 47325238 L37599285 47230000 L37742142 47182380 L37837380 47182380 L37980238 47230000 L38027857 47277619 "/>
<svg:path d="M38456428 48182380 L38456428 47182380 L39027857 48182380 L39027857 47182380 "/>
<svg:path d="M39504047 48182380 L39504047 47182380 L39885000 47182380 L39980238 47230000 L40027857 47277619 L40075476 47372857 L40075476 47515714 L40027857 47610952 L39980238 47658571 L39885000 47706190 L39504047 47706190 "/>
<svg:path d="M40504047 48182380 L40504047 47182380 "/>
<svg:path d="M40980238 48182380 L40980238 47182380 L41551666 48182380 L41551666 47182380 "/>
<svg:path d="M42027857 48182380 L42027857 47182380 "/>
<svg:path d="M42027857 47658571 L42599285 47658571 "/>
<svg:path d="M42599285 48182380 L42599285 47182380 "/>
<svg:path d="M43075476 47658571 L43408809 47658571 "/>
<svg:path d="M43551666 48182380 L43075476 48182380 L43075476 47182380 L43551666 47182380 "/>
<svg:path d="M43932619 47896666 L44408809 47896666 "/>
<svg:path d="M43837380 48182380 L44170714 47182380 L44504047 48182380 "/>
<svg:path d="M44837380 48182380 L44837380 47182380 L45075476 47182380 L45218333 47230000 L45313571 47325238 L45361190 47420476 L45408809 47610952 L45408809 47753809 L45361190 47944285 L45313571 48039523 L45218333 48134761 L45075476 48182380 L44837380 48182380 "/>
<svg:path d="M45837380 47658571 L46170714 47658571 "/>
<svg:path d="M46313571 48182380 L45837380 48182380 L45837380 47182380 L46313571 47182380 "/>
<svg:path d="M47313571 48182380 L46980238 47706190 "/>
<svg:path d="M46742142 48182380 L46742142 47182380 L47123095 47182380 L47218333 47230000 L47265952 47277619 L47313571 47372857 L47313571 47515714 L47265952 47610952 L47218333 47658571 L47123095 47706190 L46742142 47706190 "/>
<svg:path d="M47694523 47277619 L47742142 47230000 L47837380 47182380 L48075476 47182380 L48170714 47230000 L48218333 47277619 L48265952 47372857 L48265952 47468095 L48218333 47610952 L47646904 48182380 L48265952 48182380 "/>
<svg:path d="M49170714 47182380 L48694523 47182380 L48646904 47658571 L48694523 47610952 L48789761 47563333 L49027857 47563333 L49123095 47610952 L49170714 47658571 L49218333 47753809 L49218333 47991904 L49170714 48087142 L49123095 48134761 L49027857 48182380 L48789761 48182380 L48694523 48134761 L48646904 48087142 "/>
<svg:path d="M50075476 47515714 L50075476 48182380 "/>
<svg:path d="M49837380 47134761 L49599285 47849047 L50218333 47849047 "/>
<svg:path d="M50599285 48182380 L50599285 47182380 L50980238 47182380 L51075476 47230000 L51123095 47277619 L51170714 47372857 L51170714 47515714 L51123095 47610952 L51075476 47658571 L50980238 47706190 L50599285 47706190 "/>
<svg:path d="M51599285 48182380 L51599285 47182380 "/>
<svg:path d="M52075476 48182380 L52075476 47182380 L52646904 48182380 L52646904 47182380 "/>
<svg:path d="M53123095 48182380 L53123095 47182380 "/>
<svg:path d="M53123095 47658571 L53694523 47658571 "/>
<svg:path d="M53694523 48182380 L53694523 47182380 "/>
<svg:path d="M54170714 47658571 L54504047 47658571 "/>
<svg:path d="M54646904 48182380 L54170714 48182380 L54170714 47182380 L54646904 47182380 "/>
<svg:path d="M55027857 47896666 L55504047 47896666 "/>
<svg:path d="M54932619 48182380 L55265952 47182380 L55599285 48182380 "/>
<svg:path d="M55932619 48182380 L55932619 47182380 L56170714 47182380 L56313571 47230000 L56408809 47325238 L56456428 47420476 L56504047 47610952 L56504047 47753809 L56456428 47944285 L56408809 48039523 L56313571 48134761 L56170714 48182380 L55932619 48182380 "/>
<svg:path d="M56932619 47658571 L57265952 47658571 "/>
<svg:path d="M57408809 48182380 L56932619 48182380 L56932619 47182380 L57408809 47182380 "/>
<svg:path d="M58408809 48182380 L58075476 47706190 "/>
<svg:path d="M57837380 48182380 L57837380 47182380 L58218333 47182380 L58313571 47230000 L58361190 47277619 L58408809 47372857 L58408809 47515714 L58361190 47610952 L58313571 47658571 L58218333 47706190 L57837380 47706190 "/>
<svg:path d="M59361190 48182380 L58789761 48182380 "/>
<svg:path d="M59075476 48182380 L59075476 47182380 L58980238 47325238 L58885000 47420476 L58789761 47468095 "/>
<svg:path d="M59694523 47182380 L60361190 48182380 "/>
<svg:path d="M60361190 47182380 L59694523 48182380 "/>
<svg:path d="M61170714 47182380 L60980238 47182380 L60885000 47230000 L60837380 47277619 L60742142 47420476 L60694523 47610952 L60694523 47991904 L60742142 48087142 L60789761 48134761 L60885000 48182380 L61075476 48182380 L61170714 48134761 L61218333 48087142 L61265952 47991904 L61265952 47753809 L61218333 47658571 L61170714 47610952 L61075476 47563333 L60885000 47563333 L60789761 47610952 L60742142 47658571 L60694523 47753809 "/>
<svg:path d="M61694523 48182380 L61694523 47182380 L62075476 47182380 L62170714 47230000 L62218333 47277619 L62265952 47372857 L62265952 47515714 L62218333 47610952 L62170714 47658571 L62075476 47706190 L61694523 47706190 "/>
<svg:path d="M62646904 47277619 L62694523 47230000 L62789761 47182380 L63027857 47182380 L63123095 47230000 L63170714 47277619 L63218333 47372857 L63218333 47468095 L63170714 47610952 L62599285 48182380 L63218333 48182380 "/>
<svg:path d="M64123095 47182380 L63646904 47182380 L63599285 47658571 L63646904 47610952 L63742142 47563333 L63980238 47563333 L64075476 47610952 L64123095 47658571 L64170714 47753809 L64170714 47991904 L64123095 48087142 L64075476 48134761 L63980238 48182380 L63742142 48182380 L63646904 48134761 L63599285 48087142 "/>
<svg:path d="M65027857 47515714 L65027857 48182380 "/>
<svg:path d="M64789761 47134761 L64551666 47849047 L65170714 47849047 "/>
<svg:path d="M65551666 48182380 L65551666 47182380 "/>
<svg:path d="M65551666 47658571 L66123095 47658571 "/>
<svg:path d="M66123095 48182380 L66123095 47182380 "/>
<svg:path d="M66789761 47182380 L66980238 47182380 L67075476 47230000 L67170714 47325238 L67218333 47515714 L67218333 47849047 L67170714 48039523 L67075476 48134761 L66980238 48182380 L66789761 48182380 L66694523 48134761 L66599285 48039523 L66551666 47849047 L66551666 47515714 L66599285 47325238 L66694523 47230000 L66789761 47182380 "/>
<svg:path d="M68218333 48182380 L67885000 47706190 "/>
<svg:path d="M67646904 48182380 L67646904 47182380 L68027857 47182380 L68123095 47230000 L68170714 47277619 L68218333 47372857 L68218333 47515714 L68170714 47610952 L68123095 47658571 L68027857 47706190 L67646904 47706190 "/>
<svg:path d="M68646904 48182380 L68646904 47182380 "/>
<svg:path d="M69027857 47182380 L69694523 47182380 L69027857 48182380 L69694523 48182380 "/>
<svg:path d="M70265952 47182380 L70456428 47182380 L70551666 47230000 L70646904 47325238 L70694523 47515714 L70694523 47849047 L70646904 48039523 L70551666 48134761 L70456428 48182380 L70265952 48182380 L70170714 48134761 L70075476 48039523 L70027857 47849047 L70027857 47515714 L70075476 47325238 L70170714 47230000 L70265952 47182380 "/>
<svg:path d="M71123095 48182380 L71123095 47182380 L71694523 48182380 L71694523 47182380 "/>
<svg:path d="M72027857 47182380 L72599285 47182380 "/>
<svg:path d="M72313571 48182380 L72313571 47182380 "/>
<svg:path d="M72885000 47896666 L73361190 47896666 "/>
<svg:path d="M72789761 48182380 L73123095 47182380 L73456428 48182380 "/>
<svg:path d="M74265952 48182380 L73789761 48182380 L73789761 47182380 "/>
</svg:g></svg:g>
<svg:g style="fill:#F2EDA1; fill-opacity:0.0;  stroke:#F2EDA1; stroke-width:120000.000000; stroke-opacity:1;  stroke-linecap:round; stroke-linejoin:round;">
<svg:path d="M51042929 52920000 L51440000 52920000 "/>
<svg:path d="M54100000 57240000 L60100000 57240000 "/>
<svg:path d="M60100000 55460000 L54100000 55460000 "/>
<svg:path d="M51440000 48670000 L51440000 64030000 "/>
<svg:path d="M51110000 49620000 L51440000 49620000 "/>
<svg:path d="M60100000 49620000 L60100000 50380000 "/>
<svg:path d="M51042929 55460000 L51440000 55460000 "/>
<svg:path d="M54100000 50040000 L60100000 50040000 "/>
<svg:path d="M51110000 50380000 L51440000 50380000 "/>
<svg:path d="M60100000 57240000 L60100000 58000000 "/>
<svg:path d="M51042929 62320000 L51440000 62320000 "/>
<svg:path d="M51042929 58000000 L51440000 58000000 "/>
<svg:path d="M51042929 59780000 L51440000 59780000 "/>
<svg:path d="M54100000 49800000 L60100000 49800000 "/>
<svg:path d="M60100000 50380000 L54100000 50380000 "/>
<svg:path d="M60100000 52920000 L54100000 52920000 "/>
<svg:path d="M60100000 52160000 L60100000 52920000 "/>
<svg:path d="M48730000 48730000 L50000000 48730000 "/>
<svg:path d="M60100000 58000000 L54100000 58000000 "/>
<svg:path d="M51440000 51270000 L54100000 51270000 "/>
<svg:path d="M51440000 64030000 L54100000 64030000 "/>
<svg:path d="M54100000 49920000 L60100000 49920000 "/>
<svg:path d="M54100000 54700000 L60100000 54700000 "/>
<svg:path d="M51440000 61430000 L54100000 61430000 "/>
<svg:path d="M51440000 53810000 L54100000 53810000 "/>
<svg:path d="M54100000 49680000 L60100000 49680000 "/>
<svg:path d="M51042929 54700000 L51440000 54700000 "/>
<svg:path d="M60100000 62320000 L60100000 63080000 "/>
<svg:path d="M54100000 48670000 L51440000 48670000 "/>
<svg:path d="M51440000 56350000 L54100000 56350000 "/>
<svg:path d="M60100000 60540000 L54100000 60540000 "/>
<svg:path d="M54100000 49620000 L60100000 49620000 "/>
<svg:path d="M48730000 50000000 L48730000 48730000 "/>
<svg:path d="M54100000 50160000 L60100000 50160000 "/>
<svg:path d="M60100000 59780000 L60100000 60540000 "/>
<svg:path d="M51440000 58890000 L54100000 58890000 "/>
<svg:path d="M51042929 57240000 L51440000 57240000 "/>
<svg:path d="M54100000 64030000 L54100000 48670000 "/>
<svg:path d="M54100000 50280000 L60100000 50280000 "/>
<svg:path d="M54100000 62320000 L60100000 62320000 "/>
<svg:path d="M54100000 52160000 L60100000 52160000 "/>
<svg:path d="M60100000 63080000 L54100000 63080000 "/>
<svg:path d="M51042929 63080000 L51440000 63080000 "/>
<svg:path d="M51042929 52160000 L51440000 52160000 "/>
<svg:path d="M54100000 59780000 L60100000 59780000 "/>
<svg:path d="M51042929 60540000 L51440000 60540000 "/>
<svg:path d="M60100000 54700000 L60100000 55460000 "/>
<svg:g>
</svg:g>
<svg:g>
</svg:g>
<svg:g>
</svg:g>
<svg:g>
</svg:g>
</svg:g>
<svg:g style="fill:#000000; fill-opacity:0.0;  stroke:#000000; stroke-width:120000.000000; stroke-opacity:1;  stroke-linecap:round; stroke-linejoin:round;">
<svg:g>
</svg:g>
<svg:g>
</svg:g>
<svg:g>
</svg:g>
<svg:g>
</svg:g>
</svg:g> 
</svg:g><svg:g><svg:title>SVG Picture created as kicadBoard-Margin.svg date 2022/11/17 07:47:43 </svg:title>
  <svg:desc>Picture generated by PCBNEW </svg:desc>
<svg:g style="fill:#000000; fill-opacity:1.000000;stroke:#000000; stroke-opacity:1.000000; stroke-linecap:round; stroke-linejoin:round;" transform="translate(0 0) scale(1 1)">
</svg:g>
<svg:g style="fill:#000000; fill-opacity:0.0;  stroke:#000000; stroke-width:0.000000; stroke-opacity:1;  stroke-linecap:round; stroke-linejoin:round;">
<svg:g>
</svg:g>
<svg:g>
</svg:g>
<svg:g>
</svg:g>
<svg:g>
</svg:g>
</svg:g>
<svg:g style="fill:#000000; fill-opacity:0.0;  stroke:#000000; stroke-width:0.000000; stroke-opacity:1;  stroke-linecap:round; stroke-linejoin:round;">
<svg:g>
</svg:g>
<svg:g>
</svg:g>
<svg:g>
</svg:g>
<svg:g>
</svg:g>
</svg:g> 
</svg:g><svg:g><svg:title>SVG Picture created as kicadBoard-F_Cu.svg date 2022/11/17 07:47:43 </svg:title>
  <svg:desc>Picture generated by PCBNEW </svg:desc>
<svg:g style="fill:#000000; fill-opacity:1.000000;stroke:#000000; stroke-opacity:1.000000; stroke-linecap:round; stroke-linejoin:round;" transform="translate(0 0) scale(1 1)">
</svg:g>
<svg:g style="fill:#000000; fill-opacity:0.0;  stroke:#000000; stroke-width:0.000000; stroke-opacity:1;  stroke-linecap:round; stroke-linejoin:round;">
<svg:g>
</svg:g>
<svg:g style="fill:#C83434; fill-opacity:0.0;  stroke:#C83434; stroke-width:0.000000; stroke-opacity:1;  stroke-linecap:round; stroke-linejoin:round;">
</svg:g>
<svg:g style="fill:#C83434; fill-opacity:0.0;  stroke:#C83434; stroke-width:1.000000; stroke-opacity:1;  stroke-linecap:round; stroke-linejoin:round;">
</svg:g>
<svg:g style="fill:#C83434; fill-opacity:1.0;  stroke:#C83434; stroke-width:1.000000; stroke-opacity:1;  stroke-linecap:round; stroke-linejoin:round;">
<svg:path style="fill:#C83434; fill-opacity:1.0;  stroke:#C83434; stroke-width:1.000000; stroke-opacity:1;  stroke-linecap:round; stroke-linejoin:round;fill-rule:evenodd;" d="M 49150000.000000,50850000.000000 49150000.000000,49150000.000000 50850000.000000,49150000.000000 50850000.000000,50850000.000000 Z"/> 
<svg:circle cx="50000000.000000" cy="52540000.000000" r="850000.000000"/> 
<svg:circle cx="50000000.000000" cy="55080000.000000" r="850000.000000"/> 
<svg:circle cx="50000000.000000" cy="57620000.000000" r="850000.000000"/> 
<svg:circle cx="50000000.000000" cy="60160000.000000" r="850000.000000"/> 
<svg:circle cx="50000000.000000" cy="62700000.000000" r="850000.000000"/> 
</svg:g>
<svg:g>
</svg:g>
<svg:g>
</svg:g>
<svg:g>
</svg:g>
</svg:g>
<svg:g style="fill:#FFFFFF; fill-opacity:1.0;  stroke:#FFFFFF; stroke-width:1.000000; stroke-opacity:1;  stroke-linecap:round; stroke-linejoin:round;">
<svg:circle cx="50000000.000000" cy="50000000.000000" r="500000.000000"/> 
</svg:g>
<svg:g style="fill:#FFFFFF; fill-opacity:1.0;  stroke:#FFFFFF; stroke-width:21200.000000; stroke-opacity:1;  stroke-linecap:round; stroke-linejoin:round;">
</svg:g>
<svg:g style="fill:#FFFFFF; fill-opacity:1.0;  stroke:#FFFFFF; stroke-width:1.000000; stroke-opacity:1;  stroke-linecap:round; stroke-linejoin:round;">
<svg:circle cx="50000000.000000" cy="52540000.000000" r="500000.000000"/> 
</svg:g>
<svg:g style="fill:#FFFFFF; fill-opacity:1.0;  stroke:#FFFFFF; stroke-width:21200.000000; stroke-opacity:1;  stroke-linecap:round; stroke-linejoin:round;">
</svg:g>
<svg:g style="fill:#FFFFFF; fill-opacity:1.0;  stroke:#FFFFFF; stroke-width:1.000000; stroke-opacity:1;  stroke-linecap:round; stroke-linejoin:round;">
<svg:circle cx="50000000.000000" cy="55080000.000000" r="500000.000000"/> 
</svg:g>
<svg:g style="fill:#FFFFFF; fill-opacity:1.0;  stroke:#FFFFFF; stroke-width:21200.000000; stroke-opacity:1;  stroke-linecap:round; stroke-linejoin:round;">
</svg:g>
<svg:g style="fill:#FFFFFF; fill-opacity:1.0;  stroke:#FFFFFF; stroke-width:1.000000; stroke-opacity:1;  stroke-linecap:round; stroke-linejoin:round;">
<svg:circle cx="50000000.000000" cy="57620000.000000" r="500000.000000"/> 
</svg:g>
<svg:g style="fill:#FFFFFF; fill-opacity:1.0;  stroke:#FFFFFF; stroke-width:21200.000000; stroke-opacity:1;  stroke-linecap:round; stroke-linejoin:round;">
</svg:g>
<svg:g style="fill:#FFFFFF; fill-opacity:1.0;  stroke:#FFFFFF; stroke-width:1.000000; stroke-opacity:1;  stroke-linecap:round; stroke-linejoin:round;">
<svg:circle cx="50000000.000000" cy="60160000.000000" r="500000.000000"/> 
</svg:g>
<svg:g style="fill:#FFFFFF; fill-opacity:1.0;  stroke:#FFFFFF; stroke-width:21200.000000; stroke-opacity:1;  stroke-linecap:round; stroke-linejoin:round;">
</svg:g>
<svg:g style="fill:#FFFFFF; fill-opacity:1.0;  stroke:#FFFFFF; stroke-width:1.000000; stroke-opacity:1;  stroke-linecap:round; stroke-linejoin:round;">
<svg:circle cx="50000000.000000" cy="62700000.000000" r="500000.000000"/> 
</svg:g>
<svg:g style="fill:#FFFFFF; fill-opacity:1.0;  stroke:#FFFFFF; stroke-width:21200.000000; stroke-opacity:1;  stroke-linecap:round; stroke-linejoin:round;">
</svg:g>
<svg:g style="fill:#000000; fill-opacity:1.0;  stroke:#000000; stroke-width:21200.000000; stroke-opacity:1;  stroke-linecap:round; stroke-linejoin:round;">
<svg:g>
</svg:g>
<svg:g>
</svg:g>
<svg:g>
</svg:g>
<svg:g>
</svg:g>
</svg:g> 
</svg:g></svg>
