<?xml version='1.0' encoding='ASCII' standalone='yes'?>
<svg xmlns:svg="http://www.w3.org/2000/svg" xmlns="http://www.w3.org/2000/svg" xmlns:xlink="http://www.w3.org/1999/xlink" version="1.1" width="9.999980cm" height="9.999980cm" viewBox="0 0 99999800 99999800">
<title>SVG Picture created as kicadBoard-B_Cu.svg date 2022/12/03 08:24:16 </title>
  <desc>Picture generated by PCBNEW </desc>
<g style="fill:#000000; fill-opacity:1.000000;stroke:#000000; stroke-opacity:1.000000; stroke-linecap:round; stroke-linejoin:round;" transform="translate(0 0) scale(1 1)">
</g>
<g style="fill:#000000; fill-opacity:0.0;  stroke:#000000; stroke-width:0.000000; stroke-opacity:1;  stroke-linecap:round; stroke-linejoin:round;">
<g>
</g>
<g>
</g>
<g>
</g>
<g>
</g>
</g>
<g style="fill:#FFFFFF; fill-opacity:0.0;  stroke:#FFFFFF; stroke-width:0.000000; stroke-opacity:1;  stroke-linecap:round; stroke-linejoin:round;">
</g>
<g style="fill:#FFFFFF; fill-opacity:1.0;  stroke:#FFFFFF; stroke-width:1.000000; stroke-opacity:1;  stroke-linecap:round; stroke-linejoin:round;">
<circle cx="46995900.000000" cy="40250000.000000" r="1092199.500000"/> 
</g>
<g style="fill:#FFFFFF; fill-opacity:1.0;  stroke:#FFFFFF; stroke-width:21200.000000; stroke-opacity:1;  stroke-linecap:round; stroke-linejoin:round;">
</g>
<g style="fill:#FFFFFF; fill-opacity:1.0;  stroke:#FFFFFF; stroke-width:1.000000; stroke-opacity:1;  stroke-linecap:round; stroke-linejoin:round;">
<circle cx="46995900.000000" cy="56249900.000000" r="1092199.500000"/> 
</g>
<g style="fill:#FFFFFF; fill-opacity:1.0;  stroke:#FFFFFF; stroke-width:21200.000000; stroke-opacity:1;  stroke-linecap:round; stroke-linejoin:round;">
</g>
<g style="fill:#000000; fill-opacity:1.0;  stroke:#000000; stroke-width:21200.000000; stroke-opacity:1;  stroke-linecap:round; stroke-linejoin:round;">
<g>
</g>
<g>
</g>
<g>
</g>
<g>
</g>
</g> 
<svg:g><svg:title>SVG Picture created as kicadBoard-B_Adhesive.svg date 2022/12/03 08:24:16 </svg:title>
  <svg:desc>Picture generated by PCBNEW </svg:desc>
<svg:g style="fill:#000000; fill-opacity:1.000000;stroke:#000000; stroke-opacity:1.000000; stroke-linecap:round; stroke-linejoin:round;" transform="translate(0 0) scale(1 1)">
</svg:g>
<svg:g style="fill:#000000; fill-opacity:0.0;  stroke:#000000; stroke-width:0.000000; stroke-opacity:1;  stroke-linecap:round; stroke-linejoin:round;">
<svg:g>
</svg:g>
<svg:g>
</svg:g>
<svg:g>
</svg:g>
<svg:g>
</svg:g>
</svg:g>
<svg:g style="fill:#000000; fill-opacity:0.0;  stroke:#000000; stroke-width:0.000000; stroke-opacity:1;  stroke-linecap:round; stroke-linejoin:round;">
<svg:g>
</svg:g>
<svg:g>
</svg:g>
<svg:g>
</svg:g>
<svg:g>
</svg:g>
</svg:g> 
</svg:g><svg:g><svg:title>SVG Picture created as kicadBoard-B_Courtyard.svg date 2022/12/03 08:24:16 </svg:title>
  <svg:desc>Picture generated by PCBNEW </svg:desc>
<svg:g style="fill:#000000; fill-opacity:1.000000;stroke:#000000; stroke-opacity:1.000000; stroke-linecap:round; stroke-linejoin:round;" transform="translate(0 0) scale(1 1)">
</svg:g>
<svg:g style="fill:#000000; fill-opacity:0.0;  stroke:#000000; stroke-width:0.000000; stroke-opacity:1;  stroke-linecap:round; stroke-linejoin:round;">
<svg:g>
</svg:g>
<svg:g>
</svg:g>
<svg:g>
</svg:g>
<svg:g>
</svg:g>
</svg:g>
<svg:g style="fill:#000000; fill-opacity:0.0;  stroke:#000000; stroke-width:0.000000; stroke-opacity:1;  stroke-linecap:round; stroke-linejoin:round;">
<svg:g>
</svg:g>
<svg:g>
</svg:g>
<svg:g>
</svg:g>
<svg:g>
</svg:g>
</svg:g> 
</svg:g><svg:g><svg:title>SVG Picture created as kicadBoard-B_Fab.svg date 2022/12/03 08:24:16 </svg:title>
  <svg:desc>Picture generated by PCBNEW </svg:desc>
<svg:g style="fill:#000000; fill-opacity:1.000000;stroke:#000000; stroke-opacity:1.000000; stroke-linecap:round; stroke-linejoin:round;" transform="translate(0 0) scale(1 1)">
</svg:g>
<svg:g style="fill:#000000; fill-opacity:0.0;  stroke:#000000; stroke-width:0.000000; stroke-opacity:1;  stroke-linecap:round; stroke-linejoin:round;">
<svg:g>
</svg:g>
<svg:g>
</svg:g>
<svg:g>
</svg:g>
<svg:g>
</svg:g>
</svg:g>
<svg:g style="fill:#000000; fill-opacity:0.0;  stroke:#000000; stroke-width:0.000000; stroke-opacity:1;  stroke-linecap:round; stroke-linejoin:round;">
<svg:g>
</svg:g>
<svg:g>
</svg:g>
<svg:g>
</svg:g>
<svg:g>
</svg:g>
</svg:g> 
</svg:g><svg:g><svg:title>SVG Picture created as kicadBoard-B_Mask.svg date 2022/12/03 08:24:16 </svg:title>
  <svg:desc>Picture generated by PCBNEW </svg:desc>
<svg:g style="fill:#000000; fill-opacity:1.000000;stroke:#000000; stroke-opacity:1.000000; stroke-linecap:round; stroke-linejoin:round;" transform="translate(0 0) scale(1 1)">
</svg:g>
<svg:g style="fill:#000000; fill-opacity:0.0;  stroke:#000000; stroke-width:0.000000; stroke-opacity:1;  stroke-linecap:round; stroke-linejoin:round;">
<svg:g>
</svg:g>
<svg:g style="fill:#000000; fill-opacity:1.0;  stroke:#000000; stroke-width:1.000000; stroke-opacity:1;  stroke-linecap:round; stroke-linejoin:round;">
<svg:circle cx="46995900.000000" cy="40250000.000000" r="1092200.000000"/> 
</svg:g>
<svg:g style="fill:#000000; fill-opacity:1.0;  stroke:#000000; stroke-width:21200.000000; stroke-opacity:1;  stroke-linecap:round; stroke-linejoin:round;">
</svg:g>
<svg:g style="fill:#000000; fill-opacity:1.0;  stroke:#000000; stroke-width:1.000000; stroke-opacity:1;  stroke-linecap:round; stroke-linejoin:round;">
<svg:circle cx="46995900.000000" cy="56249900.000000" r="1092200.000000"/> 
</svg:g>
<svg:g style="fill:#000000; fill-opacity:1.0;  stroke:#000000; stroke-width:21200.000000; stroke-opacity:1;  stroke-linecap:round; stroke-linejoin:round;">
</svg:g>
<svg:g>
</svg:g>
<svg:g>
</svg:g>
<svg:g>
</svg:g>
</svg:g>
<svg:g style="fill:#000000; fill-opacity:1.0;  stroke:#000000; stroke-width:21200.000000; stroke-opacity:1;  stroke-linecap:round; stroke-linejoin:round;">
<svg:g>
</svg:g>
<svg:g>
</svg:g>
<svg:g>
</svg:g>
<svg:g>
</svg:g>
</svg:g> 
</svg:g><svg:g><svg:title>SVG Picture created as kicadBoard-B_Paste.svg date 2022/12/03 08:24:16 </svg:title>
  <svg:desc>Picture generated by PCBNEW </svg:desc>
<svg:g style="fill:#000000; fill-opacity:1.000000;stroke:#000000; stroke-opacity:1.000000; stroke-linecap:round; stroke-linejoin:round;" transform="translate(0 0) scale(1 1)">
</svg:g>
<svg:g style="fill:#000000; fill-opacity:0.0;  stroke:#000000; stroke-width:0.000000; stroke-opacity:1;  stroke-linecap:round; stroke-linejoin:round;">
<svg:g>
</svg:g>
<svg:g>
</svg:g>
<svg:g>
</svg:g>
<svg:g>
</svg:g>
</svg:g>
<svg:g style="fill:#000000; fill-opacity:0.0;  stroke:#000000; stroke-width:0.000000; stroke-opacity:1;  stroke-linecap:round; stroke-linejoin:round;">
<svg:g>
</svg:g>
<svg:g>
</svg:g>
<svg:g>
</svg:g>
<svg:g>
</svg:g>
</svg:g> 
</svg:g><svg:g><svg:title>SVG Picture created as kicadBoard-B_Silkscreen.svg date 2022/12/03 08:24:16 </svg:title>
  <svg:desc>Picture generated by PCBNEW </svg:desc>
<svg:g style="fill:#000000; fill-opacity:1.000000;stroke:#000000; stroke-opacity:1.000000; stroke-linecap:round; stroke-linejoin:round;" transform="translate(0 0) scale(1 1)">
</svg:g>
<svg:g style="fill:#000000; fill-opacity:0.0;  stroke:#000000; stroke-width:0.000000; stroke-opacity:1;  stroke-linecap:round; stroke-linejoin:round;">
<svg:g>
</svg:g>
<svg:g>
</svg:g>
<svg:g>
</svg:g>
<svg:g>
</svg:g>
</svg:g>
<svg:g style="fill:#000000; fill-opacity:0.0;  stroke:#000000; stroke-width:0.000000; stroke-opacity:1;  stroke-linecap:round; stroke-linejoin:round;">
<svg:g>
</svg:g>
<svg:g>
</svg:g>
<svg:g>
</svg:g>
<svg:g>
</svg:g>
</svg:g> 
</svg:g><svg:g><svg:title>SVG Picture created as kicadBoard-Edge_Cuts.svg date 2022/12/03 08:24:16 </svg:title>
  <svg:desc>Picture generated by PCBNEW </svg:desc>
<svg:g style="fill:#000000; fill-opacity:1.000000;stroke:#000000; stroke-opacity:1.000000; stroke-linecap:round; stroke-linejoin:round;" transform="translate(0 0) scale(1 1)">
</svg:g>
<svg:g style="fill:#000000; fill-opacity:0.0;  stroke:#000000; stroke-width:0.000000; stroke-opacity:1;  stroke-linecap:round; stroke-linejoin:round;">
<svg:g>
</svg:g>
<svg:g>
</svg:g>
<svg:g>
</svg:g>
<svg:g>
</svg:g>
</svg:g> 
</svg:g><svg:g><svg:title>SVG Picture created as kicadBoard-F_Adhesive.svg date 2022/12/03 08:24:16 </svg:title>
  <svg:desc>Picture generated by PCBNEW </svg:desc>
<svg:g style="fill:#000000; fill-opacity:1.000000;stroke:#000000; stroke-opacity:1.000000; stroke-linecap:round; stroke-linejoin:round;" transform="translate(0 0) scale(1 1)">
</svg:g>
<svg:g style="fill:#000000; fill-opacity:0.0;  stroke:#000000; stroke-width:0.000000; stroke-opacity:1;  stroke-linecap:round; stroke-linejoin:round;">
<svg:g>
</svg:g>
<svg:g>
</svg:g>
<svg:g>
</svg:g>
<svg:g>
</svg:g>
</svg:g>
<svg:g style="fill:#000000; fill-opacity:0.0;  stroke:#000000; stroke-width:0.000000; stroke-opacity:1;  stroke-linecap:round; stroke-linejoin:round;">
<svg:g>
</svg:g>
<svg:g>
</svg:g>
<svg:g>
</svg:g>
<svg:g>
</svg:g>
</svg:g> 
</svg:g><svg:g><svg:title>SVG Picture created as kicadBoard-F_Courtyard.svg date 2022/12/03 08:24:16 </svg:title>
  <svg:desc>Picture generated by PCBNEW </svg:desc>
<svg:g style="fill:#000000; fill-opacity:1.000000;stroke:#000000; stroke-opacity:1.000000; stroke-linecap:round; stroke-linejoin:round;" transform="translate(0 0) scale(1 1)">
</svg:g>
<svg:g style="fill:#000000; fill-opacity:0.0;  stroke:#000000; stroke-width:0.000000; stroke-opacity:1;  stroke-linecap:round; stroke-linejoin:round;">
<svg:g>
</svg:g>
<svg:g>
</svg:g>
<svg:g>
</svg:g>
<svg:g>
</svg:g>
</svg:g>
<svg:g style="fill:#000000; fill-opacity:0.0;  stroke:#000000; stroke-width:0.000000; stroke-opacity:1;  stroke-linecap:round; stroke-linejoin:round;">
<svg:g>
</svg:g>
<svg:g>
</svg:g>
<svg:g>
</svg:g>
<svg:g>
</svg:g>
</svg:g> 
</svg:g><svg:g><svg:title>SVG Picture created as kicadBoard-F_Cu.svg date 2022/12/03 08:24:16 </svg:title>
  <svg:desc>Picture generated by PCBNEW </svg:desc>
<svg:g style="fill:#000000; fill-opacity:1.000000;stroke:#000000; stroke-opacity:1.000000; stroke-linecap:round; stroke-linejoin:round;" transform="translate(0 0) scale(1 1)">
</svg:g>
<svg:g style="fill:#000000; fill-opacity:0.0;  stroke:#000000; stroke-width:0.000000; stroke-opacity:1;  stroke-linecap:round; stroke-linejoin:round;">
<svg:g>
</svg:g>
<svg:g style="fill:#C83434; fill-opacity:0.0;  stroke:#C83434; stroke-width:0.000000; stroke-opacity:1;  stroke-linecap:round; stroke-linejoin:round;">
</svg:g>
<svg:g style="fill:#C83434; fill-opacity:0.0;  stroke:#C83434; stroke-width:1.000000; stroke-opacity:1;  stroke-linecap:round; stroke-linejoin:round;">
</svg:g>
<svg:g style="fill:#C83434; fill-opacity:1.0;  stroke:#C83434; stroke-width:1.000000; stroke-opacity:1;  stroke-linecap:round; stroke-linejoin:round;">
<svg:path style="fill:#C83434; fill-opacity:1.0;  stroke:#C83434; stroke-width:1.000000; stroke-opacity:1;  stroke-linecap:round; stroke-linejoin:round;fill-rule:evenodd;" d="M 60287001.000000,48463299.000000 60287001.000000,47066301.000000 62572999.000000,47066301.000000 62572999.000000,48463299.000000 Z"/> 
<svg:path style="fill:#C83434; fill-opacity:1.0;  stroke:#C83434; stroke-width:1.000000; stroke-opacity:1;  stroke-linecap:round; stroke-linejoin:round;fill-rule:evenodd;" d="M 60287001.000000,51003299.000000 60287001.000000,49606301.000000 62572999.000000,49606301.000000 62572999.000000,51003299.000000 Z"/> 
<svg:path style="fill:#C83434; fill-opacity:1.0;  stroke:#C83434; stroke-width:1.000000; stroke-opacity:1;  stroke-linecap:round; stroke-linejoin:round;fill-rule:evenodd;" d="M 60287001.000000,53543299.000000 60287001.000000,52146301.000000 62572999.000000,52146301.000000 62572999.000000,53543299.000000 Z"/> 
<svg:path style="fill:#C83434; fill-opacity:1.0;  stroke:#C83434; stroke-width:1.000000; stroke-opacity:1;  stroke-linecap:round; stroke-linejoin:round;fill-rule:evenodd;" d="M 60287001.000000,60858499.000000 60287001.000000,59461501.000000 62572999.000000,59461501.000000 62572999.000000,60858499.000000 Z"/> 
<svg:path style="fill:#C83434; fill-opacity:1.0;  stroke:#C83434; stroke-width:1.000000; stroke-opacity:1;  stroke-linecap:round; stroke-linejoin:round;fill-rule:evenodd;" d="M 37071401.000000,48463299.000000 37071401.000000,47066301.000000 39357399.000000,47066301.000000 39357399.000000,48463299.000000 Z"/> 
<svg:path style="fill:#C83434; fill-opacity:1.0;  stroke:#C83434; stroke-width:1.000000; stroke-opacity:1;  stroke-linecap:round; stroke-linejoin:round;fill-rule:evenodd;" d="M 37071401.000000,51003299.000000 37071401.000000,49606301.000000 39357399.000000,49606301.000000 39357399.000000,51003299.000000 Z"/> 
<svg:path style="fill:#C83434; fill-opacity:1.0;  stroke:#C83434; stroke-width:1.000000; stroke-opacity:1;  stroke-linecap:round; stroke-linejoin:round;fill-rule:evenodd;" d="M 37071401.000000,53543299.000000 37071401.000000,52146301.000000 39357399.000000,52146301.000000 39357399.000000,53543299.000000 Z"/> 
<svg:path style="fill:#C83434; fill-opacity:1.0;  stroke:#C83434; stroke-width:1.000000; stroke-opacity:1;  stroke-linecap:round; stroke-linejoin:round;fill-rule:evenodd;" d="M 37071401.000000,60858499.000000 37071401.000000,59461501.000000 39357399.000000,59461501.000000 39357399.000000,60858499.000000 Z"/> 
</svg:g>
<svg:g>
</svg:g>
<svg:g>
</svg:g>
<svg:g>
</svg:g>
</svg:g>
<svg:g style="fill:#FFFFFF; fill-opacity:1.0;  stroke:#FFFFFF; stroke-width:1.000000; stroke-opacity:1;  stroke-linecap:round; stroke-linejoin:round;">
<svg:circle cx="46995900.000000" cy="40250000.000000" r="1092199.500000"/> 
</svg:g>
<svg:g style="fill:#FFFFFF; fill-opacity:1.0;  stroke:#FFFFFF; stroke-width:21200.000000; stroke-opacity:1;  stroke-linecap:round; stroke-linejoin:round;">
</svg:g>
<svg:g style="fill:#FFFFFF; fill-opacity:1.0;  stroke:#FFFFFF; stroke-width:1.000000; stroke-opacity:1;  stroke-linecap:round; stroke-linejoin:round;">
<svg:circle cx="46995900.000000" cy="56249900.000000" r="1092199.500000"/> 
</svg:g>
<svg:g style="fill:#FFFFFF; fill-opacity:1.0;  stroke:#FFFFFF; stroke-width:21200.000000; stroke-opacity:1;  stroke-linecap:round; stroke-linejoin:round;">
</svg:g>
<svg:g style="fill:#000000; fill-opacity:1.0;  stroke:#000000; stroke-width:21200.000000; stroke-opacity:1;  stroke-linecap:round; stroke-linejoin:round;">
<svg:g>
</svg:g>
<svg:g>
</svg:g>
<svg:g>
</svg:g>
<svg:g>
</svg:g>
</svg:g> 
</svg:g><svg:g><svg:title>SVG Picture created as kicadBoard-F_Fab.svg date 2022/12/03 08:24:16 </svg:title>
  <svg:desc>Picture generated by PCBNEW </svg:desc>
<svg:g style="fill:#000000; fill-opacity:1.000000;stroke:#000000; stroke-opacity:1.000000; stroke-linecap:round; stroke-linejoin:round;" transform="translate(0 0) scale(1 1)">
</svg:g>
<svg:g style="fill:#000000; fill-opacity:0.0;  stroke:#000000; stroke-width:0.000000; stroke-opacity:1;  stroke-linecap:round; stroke-linejoin:round;">
</svg:g>
<svg:g style="fill:#AFAFAF; fill-opacity:0.0;  stroke:#AFAFAF; stroke-width:0.000000; stroke-opacity:1;  stroke-linecap:round; stroke-linejoin:round;">
</svg:g>
<svg:g style="fill:#AFAFAF; fill-opacity:0.0;  stroke:#AFAFAF; stroke-width:101600.000000; stroke-opacity:1;  stroke-linecap:round; stroke-linejoin:round;">
<svg:text x="37046000.000000" y="63970000.000000" textLength="6761103.000000" font-size="1557866.000000" lengthAdjust="spacingAndGlyphs" text-anchor="start" opacity="0">&gt;VALUE</svg:text>
<svg:g class="stroked-text"><svg:desc>&gt;VALUE</svg:desc>
<svg:path d="M37390230 63135428 L38280440 63469257 L37390230 63803085 "/>
<svg:path d="M38669906 62745961 L39059373 63914361 L39448840 62745961 "/>
<svg:path d="M39782668 63580533 L40339049 63580533 "/>
<svg:path d="M39671392 63914361 L40060859 62745961 L40450325 63914361 "/>
<svg:path d="M41396173 63914361 L40839792 63914361 L40839792 62745961 "/>
<svg:path d="M41785640 62745961 L41785640 63691809 L41841278 63803085 L41896916 63858723 L42008192 63914361 L42230744 63914361 L42342020 63858723 L42397659 63803085 L42453297 63691809 L42453297 62745961 "/>
<svg:path d="M43009678 63302342 L43399144 63302342 "/>
<svg:path d="M43566059 63914361 L43009678 63914361 L43009678 62745961 L43566059 62745961 "/>
</svg:g></svg:g>
<svg:g style="fill:#AFAFAF; fill-opacity:1.0;  stroke:#AFAFAF; stroke-width:1.000000; stroke-opacity:1;  stroke-linecap:round; stroke-linejoin:round;">
<svg:path style="fill:#AFAFAF; fill-opacity:1.0;  stroke:#AFAFAF; stroke-width:1.000000; stroke-opacity:1;  stroke-linecap:round; stroke-linejoin:round;fill-rule:evenodd;" d="M 62141200.000000,50711200.000000 52032000.000000,50711200.000000 52032000.000000,49898400.000000 62141200.000000,49898400.000000 Z"/> 
<svg:path style="fill:#AFAFAF; fill-opacity:1.0;  stroke:#AFAFAF; stroke-width:1.000000; stroke-opacity:1;  stroke-linecap:round; stroke-linejoin:round;fill-rule:evenodd;" d="M 47993400.000000,50711200.000000 37554000.000000,50711200.000000 37554000.000000,49898400.000000 47993400.000000,49898400.000000 Z"/> 
<svg:path style="fill:#AFAFAF; fill-opacity:1.0;  stroke:#AFAFAF; stroke-width:1.000000; stroke-opacity:1;  stroke-linecap:round; stroke-linejoin:round;fill-rule:evenodd;" d="M 62141200.000000,48171200.000000 52032000.000000,48171200.000000 52032000.000000,47358400.000000 62141200.000000,47358400.000000 Z"/> 
<svg:path style="fill:#AFAFAF; fill-opacity:1.0;  stroke:#AFAFAF; stroke-width:1.000000; stroke-opacity:1;  stroke-linecap:round; stroke-linejoin:round;fill-rule:evenodd;" d="M 48018800.000000,48171200.000000 37554000.000000,48171200.000000 37554000.000000,47358400.000000 48018800.000000,47358400.000000 Z"/> 
<svg:path style="fill:#AFAFAF; fill-opacity:1.0;  stroke:#AFAFAF; stroke-width:1.000000; stroke-opacity:1;  stroke-linecap:round; stroke-linejoin:round;fill-rule:evenodd;" d="M 62141200.000000,60566400.000000 52032000.000000,60566400.000000 52032000.000000,59753600.000000 62141200.000000,59753600.000000 Z"/> 
<svg:path style="fill:#AFAFAF; fill-opacity:1.0;  stroke:#AFAFAF; stroke-width:1.000000; stroke-opacity:1;  stroke-linecap:round; stroke-linejoin:round;fill-rule:evenodd;" d="M 62141200.000000,53251200.000000 52032000.000000,53251200.000000 52032000.000000,52438400.000000 62141200.000000,52438400.000000 Z"/> 
<svg:path style="fill:#AFAFAF; fill-opacity:1.0;  stroke:#AFAFAF; stroke-width:1.000000; stroke-opacity:1;  stroke-linecap:round; stroke-linejoin:round;fill-rule:evenodd;" d="M 48018800.000000,60566400.000000 37554000.000000,60566400.000000 37554000.000000,59753600.000000 48018800.000000,59753600.000000 Z"/> 
<svg:path style="fill:#AFAFAF; fill-opacity:1.0;  stroke:#AFAFAF; stroke-width:1.000000; stroke-opacity:1;  stroke-linecap:round; stroke-linejoin:round;fill-rule:evenodd;" d="M 48018800.000000,53251200.000000 37554000.000000,53251200.000000 37554000.000000,52438400.000000 48018800.000000,52438400.000000 Z"/> 
<svg:g>
</svg:g>
<svg:g>
</svg:g>
<svg:g>
</svg:g>
<svg:g>
</svg:g>
</svg:g>
<svg:g style="fill:#000000; fill-opacity:1.0;  stroke:#000000; stroke-width:1.000000; stroke-opacity:1;  stroke-linecap:round; stroke-linejoin:round;">
<svg:g>
</svg:g>
<svg:g>
</svg:g>
<svg:g>
</svg:g>
<svg:g>
</svg:g>
</svg:g> 
</svg:g><svg:g><svg:title>SVG Picture created as kicadBoard-F_Mask.svg date 2022/12/03 08:24:16 </svg:title>
  <svg:desc>Picture generated by PCBNEW </svg:desc>
<svg:g style="fill:#000000; fill-opacity:1.000000;stroke:#000000; stroke-opacity:1.000000; stroke-linecap:round; stroke-linejoin:round;" transform="translate(0 0) scale(1 1)">
</svg:g>
<svg:g style="fill:#000000; fill-opacity:0.0;  stroke:#000000; stroke-width:0.000000; stroke-opacity:1;  stroke-linecap:round; stroke-linejoin:round;">
<svg:g>
</svg:g>
<svg:g style="fill:#000000; fill-opacity:1.0;  stroke:#000000; stroke-width:1.000000; stroke-opacity:1;  stroke-linecap:round; stroke-linejoin:round;">
<svg:circle cx="46995900.000000" cy="40250000.000000" r="1092200.000000"/> 
</svg:g>
<svg:g style="fill:#000000; fill-opacity:1.0;  stroke:#000000; stroke-width:21200.000000; stroke-opacity:1;  stroke-linecap:round; stroke-linejoin:round;">
</svg:g>
<svg:g style="fill:#000000; fill-opacity:1.0;  stroke:#000000; stroke-width:1.000000; stroke-opacity:1;  stroke-linecap:round; stroke-linejoin:round;">
<svg:circle cx="46995900.000000" cy="56249900.000000" r="1092200.000000"/> 
</svg:g>
<svg:g style="fill:#000000; fill-opacity:1.0;  stroke:#000000; stroke-width:21200.000000; stroke-opacity:1;  stroke-linecap:round; stroke-linejoin:round;">
</svg:g>
<svg:g style="fill:#000000; fill-opacity:1.0;  stroke:#000000; stroke-width:1.000000; stroke-opacity:1;  stroke-linecap:round; stroke-linejoin:round;">
<svg:path style="fill:#000000; fill-opacity:1.0;  stroke:#000000; stroke-width:1.000000; stroke-opacity:1;  stroke-linecap:round; stroke-linejoin:round;fill-rule:evenodd;" d="M 60185400.000000,47066300.000000 60193134.000000,47027419.000000 60215158.000000,46994458.000000 60248119.000000,46972434.000000 60287000.000000,46964700.000000 62573000.000000,46964700.000000 62611881.000000,46972434.000000 62644842.000000,46994458.000000 62666866.000000,47027419.000000 62674600.000000,47066300.000000 62674600.000000,48463300.000000 62666866.000000,48502181.000000 62644842.000000,48535142.000000 62611881.000000,48557166.000000 62573000.000000,48564900.000000 60287000.000000,48564900.000000 60248119.000000,48557166.000000 60215158.000000,48535142.000000 60193134.000000,48502181.000000 60185400.000000,48463300.000000 Z"/> 
<svg:path style="fill:#000000; fill-opacity:1.0;  stroke:#000000; stroke-width:1.000000; stroke-opacity:1;  stroke-linecap:round; stroke-linejoin:round;fill-rule:evenodd;" d="M 60185400.000000,49606300.000000 60193134.000000,49567419.000000 60215158.000000,49534458.000000 60248119.000000,49512434.000000 60287000.000000,49504700.000000 62573000.000000,49504700.000000 62611881.000000,49512434.000000 62644842.000000,49534458.000000 62666866.000000,49567419.000000 62674600.000000,49606300.000000 62674600.000000,51003300.000000 62666866.000000,51042181.000000 62644842.000000,51075142.000000 62611881.000000,51097166.000000 62573000.000000,51104900.000000 60287000.000000,51104900.000000 60248119.000000,51097166.000000 60215158.000000,51075142.000000 60193134.000000,51042181.000000 60185400.000000,51003300.000000 Z"/> 
<svg:path style="fill:#000000; fill-opacity:1.0;  stroke:#000000; stroke-width:1.000000; stroke-opacity:1;  stroke-linecap:round; stroke-linejoin:round;fill-rule:evenodd;" d="M 60185400.000000,52146300.000000 60193134.000000,52107419.000000 60215158.000000,52074458.000000 60248119.000000,52052434.000000 60287000.000000,52044700.000000 62573000.000000,52044700.000000 62611881.000000,52052434.000000 62644842.000000,52074458.000000 62666866.000000,52107419.000000 62674600.000000,52146300.000000 62674600.000000,53543300.000000 62666866.000000,53582181.000000 62644842.000000,53615142.000000 62611881.000000,53637166.000000 62573000.000000,53644900.000000 60287000.000000,53644900.000000 60248119.000000,53637166.000000 60215158.000000,53615142.000000 60193134.000000,53582181.000000 60185400.000000,53543300.000000 Z"/> 
<svg:path style="fill:#000000; fill-opacity:1.0;  stroke:#000000; stroke-width:1.000000; stroke-opacity:1;  stroke-linecap:round; stroke-linejoin:round;fill-rule:evenodd;" d="M 60185400.000000,59461500.000000 60193134.000000,59422619.000000 60215158.000000,59389658.000000 60248119.000000,59367634.000000 60287000.000000,59359900.000000 62573000.000000,59359900.000000 62611881.000000,59367634.000000 62644842.000000,59389658.000000 62666866.000000,59422619.000000 62674600.000000,59461500.000000 62674600.000000,60858500.000000 62666866.000000,60897381.000000 62644842.000000,60930342.000000 62611881.000000,60952366.000000 62573000.000000,60960100.000000 60287000.000000,60960100.000000 60248119.000000,60952366.000000 60215158.000000,60930342.000000 60193134.000000,60897381.000000 60185400.000000,60858500.000000 Z"/> 
<svg:path style="fill:#000000; fill-opacity:1.0;  stroke:#000000; stroke-width:1.000000; stroke-opacity:1;  stroke-linecap:round; stroke-linejoin:round;fill-rule:evenodd;" d="M 36969800.000000,47066300.000000 36977534.000000,47027419.000000 36999558.000000,46994458.000000 37032519.000000,46972434.000000 37071400.000000,46964700.000000 39357400.000000,46964700.000000 39396281.000000,46972434.000000 39429242.000000,46994458.000000 39451266.000000,47027419.000000 39459000.000000,47066300.000000 39459000.000000,48463300.000000 39451266.000000,48502181.000000 39429242.000000,48535142.000000 39396281.000000,48557166.000000 39357400.000000,48564900.000000 37071400.000000,48564900.000000 37032519.000000,48557166.000000 36999558.000000,48535142.000000 36977534.000000,48502181.000000 36969800.000000,48463300.000000 Z"/> 
<svg:path style="fill:#000000; fill-opacity:1.0;  stroke:#000000; stroke-width:1.000000; stroke-opacity:1;  stroke-linecap:round; stroke-linejoin:round;fill-rule:evenodd;" d="M 36969800.000000,49606300.000000 36977534.000000,49567419.000000 36999558.000000,49534458.000000 37032519.000000,49512434.000000 37071400.000000,49504700.000000 39357400.000000,49504700.000000 39396281.000000,49512434.000000 39429242.000000,49534458.000000 39451266.000000,49567419.000000 39459000.000000,49606300.000000 39459000.000000,51003300.000000 39451266.000000,51042181.000000 39429242.000000,51075142.000000 39396281.000000,51097166.000000 39357400.000000,51104900.000000 37071400.000000,51104900.000000 37032519.000000,51097166.000000 36999558.000000,51075142.000000 36977534.000000,51042181.000000 36969800.000000,51003300.000000 Z"/> 
<svg:path style="fill:#000000; fill-opacity:1.0;  stroke:#000000; stroke-width:1.000000; stroke-opacity:1;  stroke-linecap:round; stroke-linejoin:round;fill-rule:evenodd;" d="M 36969800.000000,52146300.000000 36977534.000000,52107419.000000 36999558.000000,52074458.000000 37032519.000000,52052434.000000 37071400.000000,52044700.000000 39357400.000000,52044700.000000 39396281.000000,52052434.000000 39429242.000000,52074458.000000 39451266.000000,52107419.000000 39459000.000000,52146300.000000 39459000.000000,53543300.000000 39451266.000000,53582181.000000 39429242.000000,53615142.000000 39396281.000000,53637166.000000 39357400.000000,53644900.000000 37071400.000000,53644900.000000 37032519.000000,53637166.000000 36999558.000000,53615142.000000 36977534.000000,53582181.000000 36969800.000000,53543300.000000 Z"/> 
<svg:path style="fill:#000000; fill-opacity:1.0;  stroke:#000000; stroke-width:1.000000; stroke-opacity:1;  stroke-linecap:round; stroke-linejoin:round;fill-rule:evenodd;" d="M 36969800.000000,59461500.000000 36977534.000000,59422619.000000 36999558.000000,59389658.000000 37032519.000000,59367634.000000 37071400.000000,59359900.000000 39357400.000000,59359900.000000 39396281.000000,59367634.000000 39429242.000000,59389658.000000 39451266.000000,59422619.000000 39459000.000000,59461500.000000 39459000.000000,60858500.000000 39451266.000000,60897381.000000 39429242.000000,60930342.000000 39396281.000000,60952366.000000 39357400.000000,60960100.000000 37071400.000000,60960100.000000 37032519.000000,60952366.000000 36999558.000000,60930342.000000 36977534.000000,60897381.000000 36969800.000000,60858500.000000 Z"/> 
</svg:g>
<svg:g>
</svg:g>
<svg:g>
</svg:g>
<svg:g>
</svg:g>
</svg:g>
<svg:g style="fill:#000000; fill-opacity:1.0;  stroke:#000000; stroke-width:1.000000; stroke-opacity:1;  stroke-linecap:round; stroke-linejoin:round;">
<svg:g>
</svg:g>
<svg:g>
</svg:g>
<svg:g>
</svg:g>
<svg:g>
</svg:g>
</svg:g> 
</svg:g><svg:g><svg:title>SVG Picture created as kicadBoard-F_Paste.svg date 2022/12/03 08:24:16 </svg:title>
  <svg:desc>Picture generated by PCBNEW </svg:desc>
<svg:g style="fill:#000000; fill-opacity:1.000000;stroke:#000000; stroke-opacity:1.000000; stroke-linecap:round; stroke-linejoin:round;" transform="translate(0 0) scale(1 1)">
</svg:g>
<svg:g style="fill:#000000; fill-opacity:0.0;  stroke:#000000; stroke-width:0.000000; stroke-opacity:1;  stroke-linecap:round; stroke-linejoin:round;">
<svg:g>
</svg:g>
<svg:g style="fill:#000000; fill-opacity:0.0;  stroke:#000000; stroke-width:1.000000; stroke-opacity:1;  stroke-linecap:round; stroke-linejoin:round;">
</svg:g>
<svg:g style="fill:#000000; fill-opacity:1.0;  stroke:#000000; stroke-width:1.000000; stroke-opacity:1;  stroke-linecap:round; stroke-linejoin:round;">
<svg:path style="fill:#000000; fill-opacity:1.0;  stroke:#000000; stroke-width:1.000000; stroke-opacity:1;  stroke-linecap:round; stroke-linejoin:round;fill-rule:evenodd;" d="M 60287001.000000,48463299.000000 60287001.000000,47066301.000000 62572999.000000,47066301.000000 62572999.000000,48463299.000000 Z"/> 
<svg:path style="fill:#000000; fill-opacity:1.0;  stroke:#000000; stroke-width:1.000000; stroke-opacity:1;  stroke-linecap:round; stroke-linejoin:round;fill-rule:evenodd;" d="M 60287001.000000,51003299.000000 60287001.000000,49606301.000000 62572999.000000,49606301.000000 62572999.000000,51003299.000000 Z"/> 
<svg:path style="fill:#000000; fill-opacity:1.0;  stroke:#000000; stroke-width:1.000000; stroke-opacity:1;  stroke-linecap:round; stroke-linejoin:round;fill-rule:evenodd;" d="M 60287001.000000,53543299.000000 60287001.000000,52146301.000000 62572999.000000,52146301.000000 62572999.000000,53543299.000000 Z"/> 
<svg:path style="fill:#000000; fill-opacity:1.0;  stroke:#000000; stroke-width:1.000000; stroke-opacity:1;  stroke-linecap:round; stroke-linejoin:round;fill-rule:evenodd;" d="M 60287001.000000,60858499.000000 60287001.000000,59461501.000000 62572999.000000,59461501.000000 62572999.000000,60858499.000000 Z"/> 
<svg:path style="fill:#000000; fill-opacity:1.0;  stroke:#000000; stroke-width:1.000000; stroke-opacity:1;  stroke-linecap:round; stroke-linejoin:round;fill-rule:evenodd;" d="M 37071401.000000,48463299.000000 37071401.000000,47066301.000000 39357399.000000,47066301.000000 39357399.000000,48463299.000000 Z"/> 
<svg:path style="fill:#000000; fill-opacity:1.0;  stroke:#000000; stroke-width:1.000000; stroke-opacity:1;  stroke-linecap:round; stroke-linejoin:round;fill-rule:evenodd;" d="M 37071401.000000,51003299.000000 37071401.000000,49606301.000000 39357399.000000,49606301.000000 39357399.000000,51003299.000000 Z"/> 
<svg:path style="fill:#000000; fill-opacity:1.0;  stroke:#000000; stroke-width:1.000000; stroke-opacity:1;  stroke-linecap:round; stroke-linejoin:round;fill-rule:evenodd;" d="M 37071401.000000,53543299.000000 37071401.000000,52146301.000000 39357399.000000,52146301.000000 39357399.000000,53543299.000000 Z"/> 
<svg:path style="fill:#000000; fill-opacity:1.0;  stroke:#000000; stroke-width:1.000000; stroke-opacity:1;  stroke-linecap:round; stroke-linejoin:round;fill-rule:evenodd;" d="M 37071401.000000,60858499.000000 37071401.000000,59461501.000000 39357399.000000,59461501.000000 39357399.000000,60858499.000000 Z"/> 
</svg:g>
<svg:g>
</svg:g>
<svg:g>
</svg:g>
<svg:g>
</svg:g>
</svg:g>
<svg:g style="fill:#000000; fill-opacity:1.0;  stroke:#000000; stroke-width:1.000000; stroke-opacity:1;  stroke-linecap:round; stroke-linejoin:round;">
<svg:g>
</svg:g>
<svg:g>
</svg:g>
<svg:g>
</svg:g>
<svg:g>
</svg:g>
</svg:g> 
</svg:g><svg:g><svg:title>SVG Picture created as kicadBoard-F_Silkscreen.svg date 2022/12/03 08:24:16 </svg:title>
  <svg:desc>Picture generated by PCBNEW </svg:desc>
<svg:g style="fill:#000000; fill-opacity:1.000000;stroke:#000000; stroke-opacity:1.000000; stroke-linecap:round; stroke-linejoin:round;" transform="translate(0 0) scale(1 1)">
</svg:g>
<svg:g style="fill:#000000; fill-opacity:0.0;  stroke:#000000; stroke-width:0.000000; stroke-opacity:1;  stroke-linecap:round; stroke-linejoin:round;">
</svg:g>
<svg:g style="fill:#F2EDA1; fill-opacity:0.0;  stroke:#F2EDA1; stroke-width:0.000000; stroke-opacity:1;  stroke-linecap:round; stroke-linejoin:round;">
</svg:g>
<svg:g style="fill:#F2EDA1; fill-opacity:0.0;  stroke:#F2EDA1; stroke-width:101600.000000; stroke-opacity:1;  stroke-linecap:round; stroke-linejoin:round;">
<svg:g transform="rotate(-90.000000 64605000.000000 62319000.000000)">
<svg:text x="64605000.000000" y="62319000.000000" textLength="24703315.000000" font-size="1557866.000000" lengthAdjust="spacingAndGlyphs" text-anchor="start" opacity="0">FZECHIPCARDSIEMENSSIMM2</svg:text>
</svg:g>
<svg:g class="stroked-text"><svg:desc>FZECHIPCARDSIEMENSSIMM2</svg:desc>
<svg:path d="M63937342 61585302 L63937342 61974769 "/>
<svg:path d="M64549361 61974769 L63380961 61974769 L63380961 61418388 "/>
<svg:path d="M63380961 61084560 L63380961 60305626 L64549361 61084560 L64549361 60305626 "/>
<svg:path d="M63937342 59860521 L63937342 59471055 "/>
<svg:path d="M64549361 59304140 L64549361 59860521 L63380961 59860521 L63380961 59304140 "/>
<svg:path d="M64438085 58135740 L64493723 58191379 L64549361 58358293 L64549361 58469569 L64493723 58636483 L64382447 58747760 L64271171 58803398 L64048619 58859036 L63881704 58859036 L63659152 58803398 L63547876 58747760 L63436600 58636483 L63380961 58469569 L63380961 58358293 L63436600 58191379 L63492238 58135740 "/>
<svg:path d="M64549361 57634998 L63380961 57634998 "/>
<svg:path d="M63937342 57634998 L63937342 56967340 "/>
<svg:path d="M64549361 56967340 L63380961 56967340 "/>
<svg:path d="M64549361 56410960 L63380961 56410960 "/>
<svg:path d="M64549361 55854579 L63380961 55854579 L63380961 55409474 L63436600 55298198 L63492238 55242560 L63603514 55186921 L63770428 55186921 L63881704 55242560 L63937342 55298198 L63992980 55409474 L63992980 55854579 "/>
<svg:path d="M64438085 54018521 L64493723 54074160 L64549361 54241074 L64549361 54352350 L64493723 54519264 L64382447 54630540 L64271171 54686179 L64048619 54741817 L63881704 54741817 L63659152 54686179 L63547876 54630540 L63436600 54519264 L63380961 54352350 L63380961 54241074 L63436600 54074160 L63492238 54018521 "/>
<svg:path d="M64215533 53573417 L64215533 53017036 "/>
<svg:path d="M64549361 53684693 L63380961 53295226 L64549361 52905760 "/>
<svg:path d="M64549361 51848636 L63992980 52238102 "/>
<svg:path d="M64549361 52516293 L63380961 52516293 L63380961 52071188 L63436600 51959912 L63492238 51904274 L63603514 51848636 L63770428 51848636 L63881704 51904274 L63937342 51959912 L63992980 52071188 L63992980 52516293 "/>
<svg:path d="M64549361 51347893 L63380961 51347893 L63380961 51069702 L63436600 50902788 L63547876 50791512 L63659152 50735874 L63881704 50680236 L64048619 50680236 L64271171 50735874 L64382447 50791512 L64493723 50902788 L64549361 51069702 L64549361 51347893 "/>
<svg:path d="M64493723 50235131 L64549361 50068217 L64549361 49790026 L64493723 49678750 L64438085 49623112 L64326809 49567474 L64215533 49567474 L64104257 49623112 L64048619 49678750 L63992980 49790026 L63937342 50012579 L63881704 50123855 L63826066 50179493 L63714790 50235131 L63603514 50235131 L63492238 50179493 L63436600 50123855 L63380961 50012579 L63380961 49734388 L63436600 49567474 "/>
<svg:path d="M64549361 49066731 L63380961 49066731 "/>
<svg:path d="M63937342 48510350 L63937342 48120883 "/>
<svg:path d="M64549361 47953969 L64549361 48510350 L63380961 48510350 L63380961 47953969 "/>
<svg:path d="M64549361 47453226 L63380961 47453226 L64215533 47063760 L63380961 46674293 L64549361 46674293 "/>
<svg:path d="M63937342 46117912 L63937342 45728445 "/>
<svg:path d="M64549361 45561531 L64549361 46117912 L63380961 46117912 L63380961 45561531 "/>
<svg:path d="M64549361 45060788 L63380961 45060788 L64549361 44393131 L63380961 44393131 "/>
<svg:path d="M64493723 43892388 L64549361 43725474 L64549361 43447283 L64493723 43336007 L64438085 43280369 L64326809 43224731 L64215533 43224731 L64104257 43280369 L64048619 43336007 L63992980 43447283 L63937342 43669836 L63881704 43781112 L63826066 43836750 L63714790 43892388 L63603514 43892388 L63492238 43836750 L63436600 43781112 L63380961 43669836 L63380961 43391645 L63436600 43224731 "/>
<svg:path d="M64493723 42779626 L64549361 42612712 L64549361 42334521 L64493723 42223245 L64438085 42167607 L64326809 42111969 L64215533 42111969 L64104257 42167607 L64048619 42223245 L63992980 42334521 L63937342 42557074 L63881704 42668350 L63826066 42723988 L63714790 42779626 L63603514 42779626 L63492238 42723988 L63436600 42668350 L63380961 42557074 L63380961 42278883 L63436600 42111969 "/>
<svg:path d="M64549361 41611226 L63380961 41611226 "/>
<svg:path d="M64549361 41054845 L63380961 41054845 L64215533 40665379 L63380961 40275912 L64549361 40275912 "/>
<svg:path d="M64549361 39719531 L63380961 39719531 L64215533 39330064 L63380961 38940598 L64549361 38940598 "/>
<svg:path d="M63492238 38439855 L63436600 38384217 L63380961 38272940 L63380961 37994750 L63436600 37883474 L63492238 37827836 L63603514 37772198 L63714790 37772198 L63881704 37827836 L64549361 38495493 L64549361 37772198 "/>
</svg:g></svg:g>
<svg:g style="fill:#F2EDA1; fill-opacity:0.0;  stroke:#F2EDA1; stroke-width:65024.000000; stroke-opacity:1;  stroke-linecap:round; stroke-linejoin:round;">
<svg:text x="55461000.000000" y="51905000.000000" textLength="3728526.000000" font-size="997034.000000" lengthAdjust="spacingAndGlyphs" text-anchor="start" opacity="0">CCCLK</svg:text>
<svg:g class="stroked-text"><svg:desc>CCCLK</svg:desc>
<svg:path d="M56108608 51798174 L56072999 51833783 L55966174 51869391 L55894957 51869391 L55788132 51833783 L55716915 51762566 L55681307 51691349 L55645699 51548916 L55645699 51442091 L55681307 51299657 L55716915 51228440 L55788132 51157224 L55894957 51121615 L55966174 51121615 L56072999 51157224 L56108608 51192832 "/>
<svg:path d="M56856384 51798174 L56820775 51833783 L56713950 51869391 L56642733 51869391 L56535908 51833783 L56464691 51762566 L56429083 51691349 L56393475 51548916 L56393475 51442091 L56429083 51299657 L56464691 51228440 L56535908 51157224 L56642733 51121615 L56713950 51121615 L56820775 51157224 L56856384 51192832 "/>
<svg:path d="M57604160 51798174 L57568551 51833783 L57461726 51869391 L57390509 51869391 L57283684 51833783 L57212467 51762566 L57176859 51691349 L57141251 51548916 L57141251 51442091 L57176859 51299657 L57212467 51228440 L57283684 51157224 L57390509 51121615 L57461726 51121615 L57568551 51157224 L57604160 51192832 "/>
<svg:path d="M58280719 51869391 L57924635 51869391 L57924635 51121615 "/>
<svg:path d="M58529977 51869391 L58529977 51121615 "/>
<svg:path d="M58957278 51869391 L58636803 51442091 "/>
<svg:path d="M58957278 51121615 L58529977 51548916 "/>
</svg:g><svg:text x="55461000.000000" y="46825000.000000" textLength="3716586.000000" font-size="997034.000000" lengthAdjust="spacingAndGlyphs" text-anchor="start" opacity="0">CCVCC</svg:text>
<svg:g class="stroked-text"><svg:desc>CCVCC</svg:desc>
<svg:path d="M56108608 46718174 L56072999 46753783 L55966174 46789391 L55894957 46789391 L55788132 46753783 L55716915 46682566 L55681307 46611349 L55645699 46468916 L55645699 46362091 L55681307 46219657 L55716915 46148440 L55788132 46077224 L55894957 46041615 L55966174 46041615 L56072999 46077224 L56108608 46112832 "/>
<svg:path d="M56856384 46718174 L56820775 46753783 L56713950 46789391 L56642733 46789391 L56535908 46753783 L56464691 46682566 L56429083 46611349 L56393475 46468916 L56393475 46362091 L56429083 46219657 L56464691 46148440 L56535908 46077224 L56642733 46041615 L56713950 46041615 L56820775 46077224 L56856384 46112832 "/>
<svg:path d="M57070034 46041615 L57319293 46789391 L57568551 46041615 "/>
<svg:path d="M58245110 46718174 L58209502 46753783 L58102677 46789391 L58031460 46789391 L57924635 46753783 L57853418 46682566 L57817810 46611349 L57782201 46468916 L57782201 46362091 L57817810 46219657 L57853418 46148440 L57924635 46077224 L58031460 46041615 L58102677 46041615 L58209502 46077224 L58245110 46112832 "/>
<svg:path d="M58992886 46718174 L58957278 46753783 L58850453 46789391 L58779236 46789391 L58672411 46753783 L58601194 46682566 L58565586 46611349 L58529977 46468916 L58529977 46362091 L58565586 46219657 L58601194 46148440 L58672411 46077224 L58779236 46041615 L58850453 46041615 L58957278 46077224 L58992886 46112832 "/>
</svg:g><svg:text x="40221000.000000" y="58890000.000000" textLength="3716586.000000" font-size="997034.000000" lengthAdjust="spacingAndGlyphs" text-anchor="start" opacity="0">CCOUT</svg:text>
<svg:g class="stroked-text"><svg:desc>CCOUT</svg:desc>
<svg:path d="M40868608 58783174 L40832999 58818783 L40726174 58854391 L40654957 58854391 L40548132 58818783 L40476915 58747566 L40441307 58676349 L40405699 58533916 L40405699 58427091 L40441307 58284657 L40476915 58213440 L40548132 58142224 L40654957 58106615 L40726174 58106615 L40832999 58142224 L40868608 58177832 "/>
<svg:path d="M41616384 58783174 L41580775 58818783 L41473950 58854391 L41402733 58854391 L41295908 58818783 L41224691 58747566 L41189083 58676349 L41153475 58533916 L41153475 58427091 L41189083 58284657 L41224691 58213440 L41295908 58142224 L41402733 58106615 L41473950 58106615 L41580775 58142224 L41616384 58177832 "/>
<svg:path d="M42079293 58106615 L42221726 58106615 L42292943 58142224 L42364160 58213440 L42399768 58355874 L42399768 58605132 L42364160 58747566 L42292943 58818783 L42221726 58854391 L42079293 58854391 L42008076 58818783 L41936859 58747566 L41901251 58605132 L41901251 58355874 L41936859 58213440 L42008076 58142224 L42079293 58106615 "/>
<svg:path d="M42720243 58106615 L42720243 58711958 L42755852 58783174 L42791460 58818783 L42862677 58854391 L43005110 58854391 L43076327 58818783 L43111936 58783174 L43147544 58711958 L43147544 58106615 "/>
<svg:path d="M43396803 58106615 L43824103 58106615 "/>
<svg:path d="M43610453 58854391 L43610453 58106615 "/>
</svg:g><svg:text x="56096000.000000" y="58890000.000000" textLength="2719551.000000" font-size="997034.000000" lengthAdjust="spacingAndGlyphs" text-anchor="start" opacity="0">CCIN</svg:text>
<svg:g class="stroked-text"><svg:desc>CCIN</svg:desc>
<svg:path d="M56743608 58783174 L56707999 58818783 L56601174 58854391 L56529957 58854391 L56423132 58818783 L56351915 58747566 L56316307 58676349 L56280699 58533916 L56280699 58427091 L56316307 58284657 L56351915 58213440 L56423132 58142224 L56529957 58106615 L56601174 58106615 L56707999 58142224 L56743608 58177832 "/>
<svg:path d="M57491384 58783174 L57455775 58818783 L57348950 58854391 L57277733 58854391 L57170908 58818783 L57099691 58747566 L57064083 58676349 L57028475 58533916 L57028475 58427091 L57064083 58284657 L57099691 58213440 L57170908 58142224 L57277733 58106615 L57348950 58106615 L57455775 58142224 L57491384 58177832 "/>
<svg:path d="M57811859 58854391 L57811859 58106615 "/>
<svg:path d="M58167943 58854391 L58167943 58106615 L58595243 58854391 L58595243 58106615 "/>
</svg:g><svg:text x="40221000.000000" y="49365000.000000" textLength="9307102.000000" font-size="997034.000000" lengthAdjust="spacingAndGlyphs" text-anchor="start" opacity="0">NOT CONNECTED</svg:text>
<svg:g class="stroked-text"><svg:desc>NOT CONNECTED</svg:desc>
<svg:path d="M40441307 49329391 L40441307 48581615 L40868608 49329391 L40868608 48581615 "/>
<svg:path d="M41367125 48581615 L41509558 48581615 L41580775 48617224 L41651992 48688440 L41687600 48830874 L41687600 49080132 L41651992 49222566 L41580775 49293783 L41509558 49329391 L41367125 49329391 L41295908 49293783 L41224691 49222566 L41189083 49080132 L41189083 48830874 L41224691 48688440 L41295908 48617224 L41367125 48581615 "/>
<svg:path d="M41901251 48581615 L42328551 48581615 "/>
<svg:path d="M42114901 49329391 L42114901 48581615 "/>
<svg:path d="M43574845 49258174 L43539236 49293783 L43432411 49329391 L43361194 49329391 L43254369 49293783 L43183152 49222566 L43147544 49151349 L43111936 49008916 L43111936 48902091 L43147544 48759657 L43183152 48688440 L43254369 48617224 L43361194 48581615 L43432411 48581615 L43539236 48617224 L43574845 48652832 "/>
<svg:path d="M44037753 48581615 L44180187 48581615 L44251404 48617224 L44322621 48688440 L44358229 48830874 L44358229 49080132 L44322621 49222566 L44251404 49293783 L44180187 49329391 L44037753 49329391 L43966537 49293783 L43895320 49222566 L43859712 49080132 L43859712 48830874 L43895320 48688440 L43966537 48617224 L44037753 48581615 "/>
<svg:path d="M44678704 49329391 L44678704 48581615 L45106005 49329391 L45106005 48581615 "/>
<svg:path d="M45462089 49329391 L45462089 48581615 L45889389 49329391 L45889389 48581615 "/>
<svg:path d="M46245473 48937699 L46494732 48937699 "/>
<svg:path d="M46601557 49329391 L46245473 49329391 L46245473 48581615 L46601557 48581615 "/>
<svg:path d="M47349333 49258174 L47313725 49293783 L47206899 49329391 L47135683 49329391 L47028857 49293783 L46957641 49222566 L46922032 49151349 L46886424 49008916 L46886424 48902091 L46922032 48759657 L46957641 48688440 L47028857 48617224 L47135683 48581615 L47206899 48581615 L47313725 48617224 L47349333 48652832 "/>
<svg:path d="M47562983 48581615 L47990284 48581615 "/>
<svg:path d="M47776633 49329391 L47776633 48581615 "/>
<svg:path d="M48239542 48937699 L48488801 48937699 "/>
<svg:path d="M48595626 49329391 L48239542 49329391 L48239542 48581615 L48595626 48581615 "/>
<svg:path d="M48916102 49329391 L48916102 48581615 L49094144 48581615 L49200969 48617224 L49272185 48688440 L49307794 48759657 L49343402 48902091 L49343402 49008916 L49307794 49151349 L49272185 49222566 L49200969 49293783 L49094144 49329391 L48916102 49329391 "/>
</svg:g><svg:text x="40221000.000000" y="46825000.000000" textLength="2363468.000000" font-size="997034.000000" lengthAdjust="spacingAndGlyphs" text-anchor="start" opacity="0">GND</svg:text>
<svg:g class="stroked-text"><svg:desc>GND</svg:desc>
<svg:path d="M40832999 46077224 L40761782 46041615 L40654957 46041615 L40548132 46077224 L40476915 46148440 L40441307 46219657 L40405699 46362091 L40405699 46468916 L40441307 46611349 L40476915 46682566 L40548132 46753783 L40654957 46789391 L40726174 46789391 L40832999 46753783 L40868608 46718174 L40868608 46468916 L40726174 46468916 "/>
<svg:path d="M41189083 46789391 L41189083 46041615 L41616384 46789391 L41616384 46041615 "/>
<svg:path d="M41972467 46789391 L41972467 46041615 L42150509 46041615 L42257334 46077224 L42328551 46148440 L42364160 46219657 L42399768 46362091 L42399768 46468916 L42364160 46611349 L42328551 46682566 L42257334 46753783 L42150509 46789391 L41972467 46789391 "/>
</svg:g><svg:text x="55461000.000000" y="49365000.000000" textLength="3609761.000000" font-size="997034.000000" lengthAdjust="spacingAndGlyphs" text-anchor="start" opacity="0">CCRST</svg:text>
<svg:g class="stroked-text"><svg:desc>CCRST</svg:desc>
<svg:path d="M56108608 49258174 L56072999 49293783 L55966174 49329391 L55894957 49329391 L55788132 49293783 L55716915 49222566 L55681307 49151349 L55645699 49008916 L55645699 48902091 L55681307 48759657 L55716915 48688440 L55788132 48617224 L55894957 48581615 L55966174 48581615 L56072999 48617224 L56108608 48652832 "/>
<svg:path d="M56856384 49258174 L56820775 49293783 L56713950 49329391 L56642733 49329391 L56535908 49293783 L56464691 49222566 L56429083 49151349 L56393475 49008916 L56393475 48902091 L56429083 48759657 L56464691 48688440 L56535908 48617224 L56642733 48581615 L56713950 48581615 L56820775 48617224 L56856384 48652832 "/>
<svg:path d="M57604160 49329391 L57354901 48973307 "/>
<svg:path d="M57176859 49329391 L57176859 48581615 L57461726 48581615 L57532943 48617224 L57568551 48652832 L57604160 48724049 L57604160 48830874 L57568551 48902091 L57532943 48937699 L57461726 48973307 L57176859 48973307 "/>
<svg:path d="M57889027 49293783 L57995852 49329391 L58173894 49329391 L58245110 49293783 L58280719 49258174 L58316327 49186958 L58316327 49115741 L58280719 49044524 L58245110 49008916 L58173894 48973307 L58031460 48937699 L57960243 48902091 L57924635 48866482 L57889027 48795265 L57889027 48724049 L57924635 48652832 L57960243 48617224 L58031460 48581615 L58209502 48581615 L58316327 48617224 "/>
<svg:path d="M58529977 48581615 L58957278 48581615 "/>
<svg:path d="M58743628 49329391 L58743628 48581615 "/>
</svg:g><svg:text x="40221000.000000" y="51905000.000000" textLength="2719551.000000" font-size="997034.000000" lengthAdjust="spacingAndGlyphs" text-anchor="start" opacity="0">CCIO</svg:text>
<svg:g class="stroked-text"><svg:desc>CCIO</svg:desc>
<svg:path d="M40868608 51798174 L40832999 51833783 L40726174 51869391 L40654957 51869391 L40548132 51833783 L40476915 51762566 L40441307 51691349 L40405699 51548916 L40405699 51442091 L40441307 51299657 L40476915 51228440 L40548132 51157224 L40654957 51121615 L40726174 51121615 L40832999 51157224 L40868608 51192832 "/>
<svg:path d="M41616384 51798174 L41580775 51833783 L41473950 51869391 L41402733 51869391 L41295908 51833783 L41224691 51762566 L41189083 51691349 L41153475 51548916 L41153475 51442091 L41189083 51299657 L41224691 51228440 L41295908 51157224 L41402733 51121615 L41473950 51121615 L41580775 51157224 L41616384 51192832 "/>
<svg:path d="M41936859 51869391 L41936859 51121615 "/>
<svg:path d="M42435376 51121615 L42577810 51121615 L42649027 51157224 L42720243 51228440 L42755852 51370874 L42755852 51620132 L42720243 51762566 L42649027 51833783 L42577810 51869391 L42435376 51869391 L42364160 51833783 L42292943 51762566 L42257334 51620132 L42257334 51370874 L42292943 51228440 L42364160 51157224 L42435376 51121615 "/>
</svg:g></svg:g>
<svg:g style="fill:#F2EDA1; fill-opacity:0.0;  stroke:#F2EDA1; stroke-width:152400.000000; stroke-opacity:1;  stroke-linecap:round; stroke-linejoin:round;">
<svg:path d="M51778000 53429000 L59652000 53429000 "/>
<svg:path d="M59746000 55135100 L61746000 55135100 "/>
<svg:path d="M48222000 52286000 L48222000 53429000 "/>
<svg:path d="M39746000 55135100 L34245900 55135100 "/>
<svg:path d="M51778000 52286000 L59652000 52286000 "/>
<svg:path d="M48222000 47206000 L48222000 48349000 "/>
</svg:g>
<svg:g style="fill:#F2EDA1; fill-opacity:0.0;  stroke:#F2EDA1; stroke-width:50800.000000; stroke-opacity:1;  stroke-linecap:round; stroke-linejoin:round;">
<svg:path d="M44920000 42309900 L46190000 42309900 "/>
</svg:g>
<svg:g style="fill:#F2EDA1; fill-opacity:0.0;  stroke:#F2EDA1; stroke-width:152400.000000; stroke-opacity:1;  stroke-linecap:round; stroke-linejoin:round;">
<svg:path d="M55246100 39499900 L55246100 43000000 "/>
<svg:path d="M51778000 50889000 L59652000 50889000 "/>
<svg:path d="M48222000 49746000 L48222000 50889000 "/>
<svg:path d="M34906300 40499900 L34906300 43000000 "/>
<svg:path d="M33166900 40007900 L34166900 40134900 "/>
<svg:path d="M39746000 60668000 L39746000 61000000 "/>
<svg:path d="M44245900 40499900 L44245900 39499900 "/>
<svg:path d="M39840000 60668000 L47968000 60668000 "/>
<svg:path d="M51778000 48349000 L59652000 48349000 "/>
<svg:path d="M34166900 37991900 L34166900 40134900 "/>
<svg:path d="M59746000 58135100 L59746000 59652000 "/>
<svg:path d="M51778000 60668000 L59652000 60668000 "/>
<svg:path d="M40166900 38499900 L40166900 39499900 "/>
<svg:path d="M34166900 40134900 L34166900 40499900 "/>
<svg:path d="M40166900 37499900 L34166900 37499900 "/>
<svg:path d="M51778000 49746000 L59652000 49746000 "/>
<svg:path d="M39746000 45499900 L34245900 45499900 "/>
<svg:path d="M40166900 38499900 L40166900 37499900 "/>
<svg:path d="M47968000 59652000 L47968000 60668000 "/>
<svg:path d="M39840000 47206000 L48222000 47206000 "/>
<svg:path d="M55246100 43000000 L59746000 43000000 "/>
<svg:path d="M34906300 43000000 L49245900 43000000 "/>
<svg:path d="M59746000 55135100 L59746000 53429000 "/>
<svg:path d="M39746000 53429000 L39746000 55135100 "/>
<svg:path d="M65240000 41491000 L65240000 40094000 "/>
</svg:g>
<svg:g style="fill:#F2EDA1; fill-opacity:0.0;  stroke:#F2EDA1; stroke-width:50800.000000; stroke-opacity:1;  stroke-linecap:round; stroke-linejoin:round;">
<svg:path d="M55715000 42309900 L56985000 42309900 "/>
</svg:g>
<svg:g style="fill:#F2EDA1; fill-opacity:0.0;  stroke:#F2EDA1; stroke-width:152400.000000; stroke-opacity:1;  stroke-linecap:round; stroke-linejoin:round;">
<svg:path d="M59746000 47206000 L59746000 43000000 "/>
<svg:path d="M34166900 37991900 L33166900 38118900 "/>
<svg:path d="M51778000 47206000 L59652000 47206000 "/>
<svg:path d="M49245900 43000000 L49245900 39499900 "/>
</svg:g>
<svg:g style="fill:#F2EDA1; fill-opacity:0.0;  stroke:#F2EDA1; stroke-width:50800.000000; stroke-opacity:1;  stroke-linecap:round; stroke-linejoin:round;">
<svg:path d="M39205000 42309900 L40475000 42309900 "/>
</svg:g>
<svg:g style="fill:#F2EDA1; fill-opacity:0.0;  stroke:#F2EDA1; stroke-width:152400.000000; stroke-opacity:1;  stroke-linecap:round; stroke-linejoin:round;">
<svg:path d="M40166900 40499900 L40166900 39499900 "/>
<svg:path d="M59746000 62373100 L34245900 62373100 "/>
<svg:path d="M61746000 58135100 L59746000 58135100 "/>
<svg:path d="M60668000 45682000 L62439900 45682000 "/>
<svg:path d="M39840000 49746000 L48222000 49746000 "/>
</svg:g>
<svg:g style="fill:#F2EDA1; fill-opacity:0.0;  stroke:#F2EDA1; stroke-width:50800.000000; stroke-opacity:1;  stroke-linecap:round; stroke-linejoin:round;">
<svg:path d="M57620000 42309900 L58890000 42309900 "/>
</svg:g>
<svg:g style="fill:#F2EDA1; fill-opacity:0.0;  stroke:#F2EDA1; stroke-width:152400.000000; stroke-opacity:1;  stroke-linecap:round; stroke-linejoin:round;">
<svg:path d="M51778000 47206000 L51778000 48349000 "/>
<svg:path d="M44245900 39499900 L44245900 38499900 "/>
</svg:g>
<svg:g style="fill:#F2EDA1; fill-opacity:0.0;  stroke:#F2EDA1; stroke-width:50800.000000; stroke-opacity:1;  stroke-linecap:round; stroke-linejoin:round;">
<svg:path d="M35395000 42309900 L36665000 42309900 "/>
</svg:g>
<svg:g style="fill:#F2EDA1; fill-opacity:0.0;  stroke:#F2EDA1; stroke-width:152400.000000; stroke-opacity:1;  stroke-linecap:round; stroke-linejoin:round;">
<svg:path d="M39746000 48349000 L39746000 49746000 "/>
<svg:path d="M51778000 49746000 L51778000 50889000 "/>
<svg:path d="M40166900 39499900 L44245900 39499900 "/>
<svg:path d="M60668000 47333000 L62573000 47333000 "/>
<svg:path d="M39746000 58135100 L34245900 58135100 "/>
<svg:path d="M44245900 38499900 L44245900 37499900 "/>
<svg:path d="M39746000 50889000 L39746000 52286000 "/>
<svg:path d="M39840000 59652000 L47968000 59652000 "/>
<svg:path d="M59746000 52286000 L59746000 50889000 "/>
<svg:path d="M39840000 52286000 L48222000 52286000 "/>
<svg:path d="M51778000 59652000 L59652000 59652000 "/>
<svg:path d="M59746000 43000000 L60414000 43000000 "/>
<svg:path d="M34906300 40499900 L40166900 40499900 "/>
<svg:path d="M34245900 55135100 L34245900 58135100 "/>
<svg:path d="M39746000 45499900 L39746000 47206000 "/>
<svg:path d="M62573000 37427000 L44285000 37427000 "/>
<svg:path d="M33166900 38118900 L33166900 40007900 "/>
<svg:path d="M49245900 39499900 L55246100 39499900 "/>
<svg:path d="M34245900 43000000 L34906300 43000000 "/>
<svg:path d="M61746000 55135100 L61746000 58135100 "/>
<svg:path d="M51778000 59652000 L51778000 60668000 "/>
<svg:path d="M44245900 38499900 L40166900 38499900 "/>
<svg:path d="M59746000 60668000 L59746000 62373100 "/>
<svg:path d="M51778000 52286000 L51778000 53429000 "/>
</svg:g>
<svg:g style="fill:#F2EDA1; fill-opacity:0.0;  stroke:#F2EDA1; stroke-width:50800.000000; stroke-opacity:1;  stroke-linecap:round; stroke-linejoin:round;">
<svg:path d="M43015000 42309900 L44285000 42309900 "/>
</svg:g>
<svg:g style="fill:#F2EDA1; fill-opacity:0.0;  stroke:#F2EDA1; stroke-width:152400.000000; stroke-opacity:1;  stroke-linecap:round; stroke-linejoin:round;">
<svg:path d="M48222000 48349000 L39840000 48349000 "/>
<svg:path d="M34245900 43000000 L34245900 45499900 "/>
</svg:g>
<svg:g style="fill:#F2EDA1; fill-opacity:0.0;  stroke:#F2EDA1; stroke-width:50800.000000; stroke-opacity:1;  stroke-linecap:round; stroke-linejoin:round;">
<svg:path d="M46825000 42309900 L48095000 42309900 "/>
<svg:path d="M41110000 42309900 L42380000 42309900 "/>
</svg:g>
<svg:g style="fill:#F2EDA1; fill-opacity:0.0;  stroke:#F2EDA1; stroke-width:152400.000000; stroke-opacity:1;  stroke-linecap:round; stroke-linejoin:round;">
<svg:path d="M48222000 53429000 L39840000 53429000 "/>
<svg:path d="M62439900 45682000 L62446000 45682000 "/>
<svg:path d="M62439900 45682000 L62439900 44158000 "/>
<svg:path d="M34166900 37499900 L34166900 37991900 "/>
<svg:path d="M34245900 61000000 L34245900 62373100 "/>
<svg:path d="M39746000 58135100 L39746000 59652000 "/>
<svg:path d="M40166900 40499900 L44245900 40499900 "/>
</svg:g>
<svg:g style="fill:#F2EDA1; fill-opacity:0.0;  stroke:#F2EDA1; stroke-width:50800.000000; stroke-opacity:1;  stroke-linecap:round; stroke-linejoin:round;">
<svg:path d="M37300000 42309900 L38570000 42309900 "/>
</svg:g>
<svg:g style="fill:#F2EDA1; fill-opacity:0.0;  stroke:#F2EDA1; stroke-width:152400.000000; stroke-opacity:1;  stroke-linecap:round; stroke-linejoin:round;">
<svg:path d="M34166900 40499900 L34906300 40499900 "/>
<svg:path d="M59746000 49746000 L59746000 48349000 "/>
<svg:path d="M65240000 44666000 L65240000 41491000 "/>
<svg:path d="M48222000 50889000 L39840000 50889000 "/>
<svg:path d="M39746000 61000000 L34245900 61000000 "/>
<svg:path d="M62572999.970420 44157998.728058 A2731237.000000 2731237.000000 0.0 0 0 65239998.750760 41490998.994204"/>
<svg:path d="M65239999.774273 40094002.005249 A2731238.000000 2731238.000000 0.0 0 0 62572999.993669 37427000.272212"/>
<svg:path d="M60668000.000000 45682000.000000 A825500.000000 825500.000000 0.0 0 0 60668000.000000 47333000.000000"/>
<svg:path d="M62572999.970420 47332998.728058 A2731237.000000 2731237.000000 0.0 0 0 65239998.750760 44665998.994204"/>
<svg:path d="M60414000.813756 43014999.433394 A2667066.000000 2667066.000000 0.0 0 0 62572999.000583 44157899.947743"/>
<svg:g>
</svg:g>
<svg:g>
</svg:g>
<svg:g>
</svg:g>
<svg:g>
</svg:g>
</svg:g>
<svg:g style="fill:#000000; fill-opacity:0.0;  stroke:#000000; stroke-width:152400.000000; stroke-opacity:1;  stroke-linecap:round; stroke-linejoin:round;">
<svg:g>
</svg:g>
<svg:g>
</svg:g>
<svg:g>
</svg:g>
<svg:g>
</svg:g>
</svg:g> 
</svg:g><svg:g><svg:title>SVG Picture created as kicadBoard-Margin.svg date 2022/12/03 08:24:16 </svg:title>
  <svg:desc>Picture generated by PCBNEW </svg:desc>
<svg:g style="fill:#000000; fill-opacity:1.000000;stroke:#000000; stroke-opacity:1.000000; stroke-linecap:round; stroke-linejoin:round;" transform="translate(0 0) scale(1 1)">
</svg:g>
<svg:g style="fill:#000000; fill-opacity:0.0;  stroke:#000000; stroke-width:0.000000; stroke-opacity:1;  stroke-linecap:round; stroke-linejoin:round;">
<svg:g>
</svg:g>
<svg:g>
</svg:g>
<svg:g>
</svg:g>
<svg:g>
</svg:g>
</svg:g>
<svg:g style="fill:#000000; fill-opacity:0.0;  stroke:#000000; stroke-width:0.000000; stroke-opacity:1;  stroke-linecap:round; stroke-linejoin:round;">
<svg:g>
</svg:g>
<svg:g>
</svg:g>
<svg:g>
</svg:g>
<svg:g>
</svg:g>
</svg:g> 
</svg:g><svg:g><svg:title>SVG Picture created as kicadBoard-F_Cu.svg date 2022/12/03 08:24:16 </svg:title>
  <svg:desc>Picture generated by PCBNEW </svg:desc>
<svg:g style="fill:#000000; fill-opacity:1.000000;stroke:#000000; stroke-opacity:1.000000; stroke-linecap:round; stroke-linejoin:round;" transform="translate(0 0) scale(1 1)">
</svg:g>
<svg:g style="fill:#000000; fill-opacity:0.0;  stroke:#000000; stroke-width:0.000000; stroke-opacity:1;  stroke-linecap:round; stroke-linejoin:round;">
<svg:g>
</svg:g>
<svg:g style="fill:#C83434; fill-opacity:0.0;  stroke:#C83434; stroke-width:0.000000; stroke-opacity:1;  stroke-linecap:round; stroke-linejoin:round;">
</svg:g>
<svg:g style="fill:#C83434; fill-opacity:0.0;  stroke:#C83434; stroke-width:1.000000; stroke-opacity:1;  stroke-linecap:round; stroke-linejoin:round;">
</svg:g>
<svg:g style="fill:#C83434; fill-opacity:1.0;  stroke:#C83434; stroke-width:1.000000; stroke-opacity:1;  stroke-linecap:round; stroke-linejoin:round;">
<svg:path style="fill:#C83434; fill-opacity:1.0;  stroke:#C83434; stroke-width:1.000000; stroke-opacity:1;  stroke-linecap:round; stroke-linejoin:round;fill-rule:evenodd;" d="M 60287001.000000,48463299.000000 60287001.000000,47066301.000000 62572999.000000,47066301.000000 62572999.000000,48463299.000000 Z"/> 
<svg:path style="fill:#C83434; fill-opacity:1.0;  stroke:#C83434; stroke-width:1.000000; stroke-opacity:1;  stroke-linecap:round; stroke-linejoin:round;fill-rule:evenodd;" d="M 60287001.000000,51003299.000000 60287001.000000,49606301.000000 62572999.000000,49606301.000000 62572999.000000,51003299.000000 Z"/> 
<svg:path style="fill:#C83434; fill-opacity:1.0;  stroke:#C83434; stroke-width:1.000000; stroke-opacity:1;  stroke-linecap:round; stroke-linejoin:round;fill-rule:evenodd;" d="M 60287001.000000,53543299.000000 60287001.000000,52146301.000000 62572999.000000,52146301.000000 62572999.000000,53543299.000000 Z"/> 
<svg:path style="fill:#C83434; fill-opacity:1.0;  stroke:#C83434; stroke-width:1.000000; stroke-opacity:1;  stroke-linecap:round; stroke-linejoin:round;fill-rule:evenodd;" d="M 60287001.000000,60858499.000000 60287001.000000,59461501.000000 62572999.000000,59461501.000000 62572999.000000,60858499.000000 Z"/> 
<svg:path style="fill:#C83434; fill-opacity:1.0;  stroke:#C83434; stroke-width:1.000000; stroke-opacity:1;  stroke-linecap:round; stroke-linejoin:round;fill-rule:evenodd;" d="M 37071401.000000,48463299.000000 37071401.000000,47066301.000000 39357399.000000,47066301.000000 39357399.000000,48463299.000000 Z"/> 
<svg:path style="fill:#C83434; fill-opacity:1.0;  stroke:#C83434; stroke-width:1.000000; stroke-opacity:1;  stroke-linecap:round; stroke-linejoin:round;fill-rule:evenodd;" d="M 37071401.000000,51003299.000000 37071401.000000,49606301.000000 39357399.000000,49606301.000000 39357399.000000,51003299.000000 Z"/> 
<svg:path style="fill:#C83434; fill-opacity:1.0;  stroke:#C83434; stroke-width:1.000000; stroke-opacity:1;  stroke-linecap:round; stroke-linejoin:round;fill-rule:evenodd;" d="M 37071401.000000,53543299.000000 37071401.000000,52146301.000000 39357399.000000,52146301.000000 39357399.000000,53543299.000000 Z"/> 
<svg:path style="fill:#C83434; fill-opacity:1.0;  stroke:#C83434; stroke-width:1.000000; stroke-opacity:1;  stroke-linecap:round; stroke-linejoin:round;fill-rule:evenodd;" d="M 37071401.000000,60858499.000000 37071401.000000,59461501.000000 39357399.000000,59461501.000000 39357399.000000,60858499.000000 Z"/> 
</svg:g>
<svg:g>
</svg:g>
<svg:g>
</svg:g>
<svg:g>
</svg:g>
</svg:g>
<svg:g style="fill:#FFFFFF; fill-opacity:1.0;  stroke:#FFFFFF; stroke-width:1.000000; stroke-opacity:1;  stroke-linecap:round; stroke-linejoin:round;">
<svg:circle cx="46995900.000000" cy="40250000.000000" r="1092199.500000"/> 
</svg:g>
<svg:g style="fill:#FFFFFF; fill-opacity:1.0;  stroke:#FFFFFF; stroke-width:21200.000000; stroke-opacity:1;  stroke-linecap:round; stroke-linejoin:round;">
</svg:g>
<svg:g style="fill:#FFFFFF; fill-opacity:1.0;  stroke:#FFFFFF; stroke-width:1.000000; stroke-opacity:1;  stroke-linecap:round; stroke-linejoin:round;">
<svg:circle cx="46995900.000000" cy="56249900.000000" r="1092199.500000"/> 
</svg:g>
<svg:g style="fill:#FFFFFF; fill-opacity:1.0;  stroke:#FFFFFF; stroke-width:21200.000000; stroke-opacity:1;  stroke-linecap:round; stroke-linejoin:round;">
</svg:g>
<svg:g style="fill:#000000; fill-opacity:1.0;  stroke:#000000; stroke-width:21200.000000; stroke-opacity:1;  stroke-linecap:round; stroke-linejoin:round;">
<svg:g>
</svg:g>
<svg:g>
</svg:g>
<svg:g>
</svg:g>
<svg:g>
</svg:g>
</svg:g> 
</svg:g></svg>
