<?xml version='1.0' encoding='ASCII' standalone='yes'?>
<svg xmlns:svg="http://www.w3.org/2000/svg" xmlns="http://www.w3.org/2000/svg" xmlns:xlink="http://www.w3.org/1999/xlink" version="1.1" width="9.999980cm" height="9.999980cm" viewBox="0 0 99999800 99999800">
<title>SVG Picture created as kicadBoard-B_Cu.svg date 2022/12/03 01:55:52 </title>
  <desc>Picture generated by PCBNEW </desc>
<g style="fill:#000000; fill-opacity:1.000000;stroke:#000000; stroke-opacity:1.000000; stroke-linecap:round; stroke-linejoin:round;" transform="translate(0 0) scale(1 1)">
</g>
<g style="fill:#000000; fill-opacity:0.0;  stroke:#000000; stroke-width:0.000000; stroke-opacity:1;  stroke-linecap:round; stroke-linejoin:round;">
<g>
</g>
<g>
</g>
<g>
</g>
<g>
</g>
</g>
<g style="fill:#FFFFFF; fill-opacity:0.0;  stroke:#FFFFFF; stroke-width:0.000000; stroke-opacity:1;  stroke-linecap:round; stroke-linejoin:round;">
</g>
<g style="fill:#000000; fill-opacity:0.0;  stroke:#000000; stroke-width:0.000000; stroke-opacity:1;  stroke-linecap:round; stroke-linejoin:round;">
<g>
</g>
<g>
</g>
<g>
</g>
<g>
</g>
</g> 
<svg:g><svg:title>SVG Picture created as kicadBoard-B_Adhesive.svg date 2022/12/03 01:55:52 </svg:title>
  <svg:desc>Picture generated by PCBNEW </svg:desc>
<svg:g style="fill:#000000; fill-opacity:1.000000;stroke:#000000; stroke-opacity:1.000000; stroke-linecap:round; stroke-linejoin:round;" transform="translate(0 0) scale(1 1)">
</svg:g>
<svg:g style="fill:#000000; fill-opacity:0.0;  stroke:#000000; stroke-width:0.000000; stroke-opacity:1;  stroke-linecap:round; stroke-linejoin:round;">
<svg:g>
</svg:g>
<svg:g>
</svg:g>
<svg:g>
</svg:g>
<svg:g>
</svg:g>
</svg:g>
<svg:g style="fill:#000000; fill-opacity:0.0;  stroke:#000000; stroke-width:0.000000; stroke-opacity:1;  stroke-linecap:round; stroke-linejoin:round;">
<svg:g>
</svg:g>
<svg:g>
</svg:g>
<svg:g>
</svg:g>
<svg:g>
</svg:g>
</svg:g> 
</svg:g><svg:g><svg:title>SVG Picture created as kicadBoard-B_Courtyard.svg date 2022/12/03 01:55:52 </svg:title>
  <svg:desc>Picture generated by PCBNEW </svg:desc>
<svg:g style="fill:#000000; fill-opacity:1.000000;stroke:#000000; stroke-opacity:1.000000; stroke-linecap:round; stroke-linejoin:round;" transform="translate(0 0) scale(1 1)">
</svg:g>
<svg:g style="fill:#000000; fill-opacity:0.0;  stroke:#000000; stroke-width:0.000000; stroke-opacity:1;  stroke-linecap:round; stroke-linejoin:round;">
<svg:g>
</svg:g>
<svg:g>
</svg:g>
<svg:g>
</svg:g>
<svg:g>
</svg:g>
</svg:g>
<svg:g style="fill:#000000; fill-opacity:0.0;  stroke:#000000; stroke-width:0.000000; stroke-opacity:1;  stroke-linecap:round; stroke-linejoin:round;">
<svg:g>
</svg:g>
<svg:g>
</svg:g>
<svg:g>
</svg:g>
<svg:g>
</svg:g>
</svg:g> 
</svg:g><svg:g><svg:title>SVG Picture created as kicadBoard-B_Fab.svg date 2022/12/03 01:55:52 </svg:title>
  <svg:desc>Picture generated by PCBNEW </svg:desc>
<svg:g style="fill:#000000; fill-opacity:1.000000;stroke:#000000; stroke-opacity:1.000000; stroke-linecap:round; stroke-linejoin:round;" transform="translate(0 0) scale(1 1)">
</svg:g>
<svg:g style="fill:#000000; fill-opacity:0.0;  stroke:#000000; stroke-width:0.000000; stroke-opacity:1;  stroke-linecap:round; stroke-linejoin:round;">
<svg:g>
</svg:g>
<svg:g>
</svg:g>
<svg:g>
</svg:g>
<svg:g>
</svg:g>
</svg:g>
<svg:g style="fill:#000000; fill-opacity:0.0;  stroke:#000000; stroke-width:0.000000; stroke-opacity:1;  stroke-linecap:round; stroke-linejoin:round;">
<svg:g>
</svg:g>
<svg:g>
</svg:g>
<svg:g>
</svg:g>
<svg:g>
</svg:g>
</svg:g> 
</svg:g><svg:g><svg:title>SVG Picture created as kicadBoard-B_Mask.svg date 2022/12/03 01:55:52 </svg:title>
  <svg:desc>Picture generated by PCBNEW </svg:desc>
<svg:g style="fill:#000000; fill-opacity:1.000000;stroke:#000000; stroke-opacity:1.000000; stroke-linecap:round; stroke-linejoin:round;" transform="translate(0 0) scale(1 1)">
</svg:g>
<svg:g style="fill:#000000; fill-opacity:0.0;  stroke:#000000; stroke-width:0.000000; stroke-opacity:1;  stroke-linecap:round; stroke-linejoin:round;">
<svg:g>
</svg:g>
<svg:g>
</svg:g>
<svg:g>
</svg:g>
<svg:g>
</svg:g>
</svg:g>
<svg:g style="fill:#000000; fill-opacity:0.0;  stroke:#000000; stroke-width:0.000000; stroke-opacity:1;  stroke-linecap:round; stroke-linejoin:round;">
<svg:g>
</svg:g>
<svg:g>
</svg:g>
<svg:g>
</svg:g>
<svg:g>
</svg:g>
</svg:g> 
</svg:g><svg:g><svg:title>SVG Picture created as kicadBoard-B_Paste.svg date 2022/12/03 01:55:52 </svg:title>
  <svg:desc>Picture generated by PCBNEW </svg:desc>
<svg:g style="fill:#000000; fill-opacity:1.000000;stroke:#000000; stroke-opacity:1.000000; stroke-linecap:round; stroke-linejoin:round;" transform="translate(0 0) scale(1 1)">
</svg:g>
<svg:g style="fill:#000000; fill-opacity:0.0;  stroke:#000000; stroke-width:0.000000; stroke-opacity:1;  stroke-linecap:round; stroke-linejoin:round;">
<svg:g>
</svg:g>
<svg:g>
</svg:g>
<svg:g>
</svg:g>
<svg:g>
</svg:g>
</svg:g>
<svg:g style="fill:#000000; fill-opacity:0.0;  stroke:#000000; stroke-width:0.000000; stroke-opacity:1;  stroke-linecap:round; stroke-linejoin:round;">
<svg:g>
</svg:g>
<svg:g>
</svg:g>
<svg:g>
</svg:g>
<svg:g>
</svg:g>
</svg:g> 
</svg:g><svg:g><svg:title>SVG Picture created as kicadBoard-B_Silkscreen.svg date 2022/12/03 01:55:52 </svg:title>
  <svg:desc>Picture generated by PCBNEW </svg:desc>
<svg:g style="fill:#000000; fill-opacity:1.000000;stroke:#000000; stroke-opacity:1.000000; stroke-linecap:round; stroke-linejoin:round;" transform="translate(0 0) scale(1 1)">
</svg:g>
<svg:g style="fill:#000000; fill-opacity:0.0;  stroke:#000000; stroke-width:0.000000; stroke-opacity:1;  stroke-linecap:round; stroke-linejoin:round;">
<svg:g>
</svg:g>
<svg:g>
</svg:g>
<svg:g>
</svg:g>
<svg:g>
</svg:g>
</svg:g>
<svg:g style="fill:#000000; fill-opacity:0.0;  stroke:#000000; stroke-width:0.000000; stroke-opacity:1;  stroke-linecap:round; stroke-linejoin:round;">
<svg:g>
</svg:g>
<svg:g>
</svg:g>
<svg:g>
</svg:g>
<svg:g>
</svg:g>
</svg:g> 
</svg:g><svg:g><svg:title>SVG Picture created as kicadBoard-Edge_Cuts.svg date 2022/12/03 01:55:52 </svg:title>
  <svg:desc>Picture generated by PCBNEW </svg:desc>
<svg:g style="fill:#000000; fill-opacity:1.000000;stroke:#000000; stroke-opacity:1.000000; stroke-linecap:round; stroke-linejoin:round;" transform="translate(0 0) scale(1 1)">
</svg:g>
<svg:g style="fill:#000000; fill-opacity:0.0;  stroke:#000000; stroke-width:0.000000; stroke-opacity:1;  stroke-linecap:round; stroke-linejoin:round;">
<svg:g>
</svg:g>
<svg:g>
</svg:g>
<svg:g>
</svg:g>
<svg:g>
</svg:g>
</svg:g> 
</svg:g><svg:g><svg:title>SVG Picture created as kicadBoard-F_Adhesive.svg date 2022/12/03 01:55:52 </svg:title>
  <svg:desc>Picture generated by PCBNEW </svg:desc>
<svg:g style="fill:#000000; fill-opacity:1.000000;stroke:#000000; stroke-opacity:1.000000; stroke-linecap:round; stroke-linejoin:round;" transform="translate(0 0) scale(1 1)">
</svg:g>
<svg:g style="fill:#000000; fill-opacity:0.0;  stroke:#000000; stroke-width:0.000000; stroke-opacity:1;  stroke-linecap:round; stroke-linejoin:round;">
<svg:g>
</svg:g>
<svg:g>
</svg:g>
<svg:g>
</svg:g>
<svg:g>
</svg:g>
</svg:g>
<svg:g style="fill:#000000; fill-opacity:0.0;  stroke:#000000; stroke-width:0.000000; stroke-opacity:1;  stroke-linecap:round; stroke-linejoin:round;">
<svg:g>
</svg:g>
<svg:g>
</svg:g>
<svg:g>
</svg:g>
<svg:g>
</svg:g>
</svg:g> 
</svg:g><svg:g><svg:title>SVG Picture created as kicadBoard-F_Courtyard.svg date 2022/12/03 01:55:52 </svg:title>
  <svg:desc>Picture generated by PCBNEW </svg:desc>
<svg:g style="fill:#000000; fill-opacity:1.000000;stroke:#000000; stroke-opacity:1.000000; stroke-linecap:round; stroke-linejoin:round;" transform="translate(0 0) scale(1 1)">
</svg:g>
<svg:g style="fill:#000000; fill-opacity:0.0;  stroke:#000000; stroke-width:0.000000; stroke-opacity:1;  stroke-linecap:round; stroke-linejoin:round;">
<svg:g>
</svg:g>
<svg:g>
</svg:g>
<svg:g>
</svg:g>
<svg:g>
</svg:g>
</svg:g>
<svg:g style="fill:#000000; fill-opacity:0.0;  stroke:#000000; stroke-width:0.000000; stroke-opacity:1;  stroke-linecap:round; stroke-linejoin:round;">
<svg:g>
</svg:g>
<svg:g>
</svg:g>
<svg:g>
</svg:g>
<svg:g>
</svg:g>
</svg:g> 
</svg:g><svg:g><svg:title>SVG Picture created as kicadBoard-F_Cu.svg date 2022/12/03 01:55:52 </svg:title>
  <svg:desc>Picture generated by PCBNEW </svg:desc>
<svg:g style="fill:#000000; fill-opacity:1.000000;stroke:#000000; stroke-opacity:1.000000; stroke-linecap:round; stroke-linejoin:round;" transform="translate(0 0) scale(1 1)">
</svg:g>
<svg:g style="fill:#000000; fill-opacity:0.0;  stroke:#000000; stroke-width:0.000000; stroke-opacity:1;  stroke-linecap:round; stroke-linejoin:round;">
<svg:g>
</svg:g>
<svg:g style="fill:#C83434; fill-opacity:0.0;  stroke:#C83434; stroke-width:0.000000; stroke-opacity:1;  stroke-linecap:round; stroke-linejoin:round;">
</svg:g>
<svg:g style="fill:#C83434; fill-opacity:0.0;  stroke:#C83434; stroke-width:1.000000; stroke-opacity:1;  stroke-linecap:round; stroke-linejoin:round;">
</svg:g>
<svg:g style="fill:#C83434; fill-opacity:1.0;  stroke:#C83434; stroke-width:1.000000; stroke-opacity:1;  stroke-linecap:round; stroke-linejoin:round;">
<svg:path style="fill:#C83434; fill-opacity:1.0;  stroke:#C83434; stroke-width:1.000000; stroke-opacity:1;  stroke-linecap:round; stroke-linejoin:round;fill-rule:evenodd;" d="M 47845001.000000,54103999.000000 47845001.000000,52704001.000000 48344999.000000,52704001.000000 48344999.000000,54103999.000000 Z"/> 
<svg:path style="fill:#C83434; fill-opacity:1.0;  stroke:#C83434; stroke-width:1.000000; stroke-opacity:1;  stroke-linecap:round; stroke-linejoin:round;fill-rule:evenodd;" d="M 49105001.000000,54103999.000000 49105001.000000,52704001.000000 49604999.000000,52704001.000000 49604999.000000,54103999.000000 Z"/> 
<svg:path style="fill:#C83434; fill-opacity:1.0;  stroke:#C83434; stroke-width:1.000000; stroke-opacity:1;  stroke-linecap:round; stroke-linejoin:round;fill-rule:evenodd;" d="M 50375001.000000,54103999.000000 50375001.000000,52704001.000000 50874999.000000,52704001.000000 50874999.000000,54103999.000000 Z"/> 
<svg:path style="fill:#C83434; fill-opacity:1.0;  stroke:#C83434; stroke-width:1.000000; stroke-opacity:1;  stroke-linecap:round; stroke-linejoin:round;fill-rule:evenodd;" d="M 51645001.000000,54103999.000000 51645001.000000,52704001.000000 52144999.000000,52704001.000000 52144999.000000,54103999.000000 Z"/> 
<svg:path style="fill:#C83434; fill-opacity:1.0;  stroke:#C83434; stroke-width:1.000000; stroke-opacity:1;  stroke-linecap:round; stroke-linejoin:round;fill-rule:evenodd;" d="M 51655001.000000,47295999.000000 51655001.000000,45896001.000000 52154999.000000,45896001.000000 52154999.000000,47295999.000000 Z"/> 
<svg:path style="fill:#C83434; fill-opacity:1.0;  stroke:#C83434; stroke-width:1.000000; stroke-opacity:1;  stroke-linecap:round; stroke-linejoin:round;fill-rule:evenodd;" d="M 50385001.000000,47295999.000000 50385001.000000,45896001.000000 50884999.000000,45896001.000000 50884999.000000,47295999.000000 Z"/> 
<svg:path style="fill:#C83434; fill-opacity:1.0;  stroke:#C83434; stroke-width:1.000000; stroke-opacity:1;  stroke-linecap:round; stroke-linejoin:round;fill-rule:evenodd;" d="M 49115001.000000,47295999.000000 49115001.000000,45896001.000000 49614999.000000,45896001.000000 49614999.000000,47295999.000000 Z"/> 
<svg:path style="fill:#C83434; fill-opacity:1.0;  stroke:#C83434; stroke-width:1.000000; stroke-opacity:1;  stroke-linecap:round; stroke-linejoin:round;fill-rule:evenodd;" d="M 47845001.000000,47295999.000000 47845001.000000,45896001.000000 48344999.000000,45896001.000000 48344999.000000,47295999.000000 Z"/> 
</svg:g>
<svg:g>
</svg:g>
<svg:g>
</svg:g>
<svg:g>
</svg:g>
</svg:g>
<svg:g style="fill:#FFFFFF; fill-opacity:1.0;  stroke:#FFFFFF; stroke-width:1.000000; stroke-opacity:1;  stroke-linecap:round; stroke-linejoin:round;">
</svg:g>
<svg:g style="fill:#000000; fill-opacity:1.0;  stroke:#000000; stroke-width:1.000000; stroke-opacity:1;  stroke-linecap:round; stroke-linejoin:round;">
<svg:g>
</svg:g>
<svg:g>
</svg:g>
<svg:g>
</svg:g>
<svg:g>
</svg:g>
</svg:g> 
</svg:g><svg:g><svg:title>SVG Picture created as kicadBoard-F_Fab.svg date 2022/12/03 01:55:52 </svg:title>
  <svg:desc>Picture generated by PCBNEW </svg:desc>
<svg:g style="fill:#000000; fill-opacity:1.000000;stroke:#000000; stroke-opacity:1.000000; stroke-linecap:round; stroke-linejoin:round;" transform="translate(0 0) scale(1 1)">
</svg:g>
<svg:g style="fill:#000000; fill-opacity:0.0;  stroke:#000000; stroke-width:0.000000; stroke-opacity:1;  stroke-linecap:round; stroke-linejoin:round;">
</svg:g>
<svg:g style="fill:#AFAFAF; fill-opacity:0.0;  stroke:#AFAFAF; stroke-width:0.000000; stroke-opacity:1;  stroke-linecap:round; stroke-linejoin:round;">
</svg:g>
<svg:g style="fill:#AFAFAF; fill-opacity:0.0;  stroke:#AFAFAF; stroke-width:127000.000000; stroke-opacity:1;  stroke-linecap:round; stroke-linejoin:round;">
<svg:g transform="rotate(-90.000000 54064000.000000 52159000.000000)">
<svg:text x="54064000.000000" y="52159000.000000" textLength="6696529.000000" font-size="1524000.000000" lengthAdjust="spacingAndGlyphs" text-anchor="start" opacity="0">&gt;VALUE</svg:text>
</svg:g>
<svg:g class="stroked-text"><svg:desc>&gt;VALUE</svg:desc>
<svg:path d="M53247571 51804307 L53574142 50933450 L53900714 51804307 "/>
<svg:path d="M52866571 50552450 L54009571 50171450 L52866571 49790450 "/>
<svg:path d="M53683000 49463878 L53683000 48919592 "/>
<svg:path d="M54009571 49572735 L52866571 49191735 L54009571 48810735 "/>
<svg:path d="M54009571 47885450 L54009571 48429735 L52866571 48429735 "/>
<svg:path d="M52866571 47504450 L53791857 47504450 L53900714 47450021 L53955142 47395592 L54009571 47286735 L54009571 47069021 L53955142 46960164 L53900714 46905735 L53791857 46851307 L52866571 46851307 "/>
<svg:path d="M53410857 46307021 L53410857 45926021 "/>
<svg:path d="M54009571 45762735 L54009571 46307021 L52866571 46307021 L52866571 45762735 "/>
</svg:g></svg:g>
<svg:g style="fill:#AFAFAF; fill-opacity:0.0;  stroke:#AFAFAF; stroke-width:152400.000000; stroke-opacity:1;  stroke-linecap:round; stroke-linejoin:round;">
<svg:path d="M52360000 52925000 L47660000 52925000 "/>
<svg:path d="M47660000 47100000 L52360000 47100000 "/>
</svg:g>
<svg:g style="fill:#AFAFAF; fill-opacity:1.0;  stroke:#AFAFAF; stroke-width:1.000000; stroke-opacity:1;  stroke-linecap:round; stroke-linejoin:round;">
<svg:path style="fill:#AFAFAF; fill-opacity:1.0;  stroke:#AFAFAF; stroke-width:1.000000; stroke-opacity:1;  stroke-linecap:round; stroke-linejoin:round;fill-rule:evenodd;" d="M 52080000.000000,47050000.000000 51730000.000000,47050000.000000 51730000.000000,46150000.000000 52080000.000000,46150000.000000 Z"/> 
<svg:path style="fill:#AFAFAF; fill-opacity:1.0;  stroke:#AFAFAF; stroke-width:1.000000; stroke-opacity:1;  stroke-linecap:round; stroke-linejoin:round;fill-rule:evenodd;" d="M 52070000.000000,53850000.000000 51720000.000000,53850000.000000 51720000.000000,52950000.000000 52070000.000000,52950000.000000 Z"/> 
<svg:path style="fill:#AFAFAF; fill-opacity:1.0;  stroke:#AFAFAF; stroke-width:1.000000; stroke-opacity:1;  stroke-linecap:round; stroke-linejoin:round;fill-rule:evenodd;" d="M 49540000.000000,47050000.000000 49190000.000000,47050000.000000 49190000.000000,46150000.000000 49540000.000000,46150000.000000 Z"/> 
<svg:path style="fill:#AFAFAF; fill-opacity:1.0;  stroke:#AFAFAF; stroke-width:1.000000; stroke-opacity:1;  stroke-linecap:round; stroke-linejoin:round;fill-rule:evenodd;" d="M 49530000.000000,53850000.000000 49180000.000000,53850000.000000 49180000.000000,52950000.000000 49530000.000000,52950000.000000 Z"/> 
<svg:path style="fill:#AFAFAF; fill-opacity:1.0;  stroke:#AFAFAF; stroke-width:1.000000; stroke-opacity:1;  stroke-linecap:round; stroke-linejoin:round;fill-rule:evenodd;" d="M 50810000.000000,47050000.000000 50460000.000000,47050000.000000 50460000.000000,46150000.000000 50810000.000000,46150000.000000 Z"/> 
<svg:path style="fill:#AFAFAF; fill-opacity:1.0;  stroke:#AFAFAF; stroke-width:1.000000; stroke-opacity:1;  stroke-linecap:round; stroke-linejoin:round;fill-rule:evenodd;" d="M 48270000.000000,53850000.000000 47920000.000000,53850000.000000 47920000.000000,52950000.000000 48270000.000000,52950000.000000 Z"/> 
<svg:path style="fill:#AFAFAF; fill-opacity:1.0;  stroke:#AFAFAF; stroke-width:1.000000; stroke-opacity:1;  stroke-linecap:round; stroke-linejoin:round;fill-rule:evenodd;" d="M 50800000.000000,53850000.000000 50450000.000000,53850000.000000 50450000.000000,52950000.000000 50800000.000000,52950000.000000 Z"/> 
<svg:path style="fill:#AFAFAF; fill-opacity:1.0;  stroke:#AFAFAF; stroke-width:1.000000; stroke-opacity:1;  stroke-linecap:round; stroke-linejoin:round;fill-rule:evenodd;" d="M 48270000.000000,47050000.000000 47920000.000000,47050000.000000 47920000.000000,46150000.000000 48270000.000000,46150000.000000 Z"/> 
<svg:g>
</svg:g>
<svg:g>
</svg:g>
<svg:g>
</svg:g>
<svg:g>
</svg:g>
</svg:g>
<svg:g style="fill:#000000; fill-opacity:1.0;  stroke:#000000; stroke-width:1.000000; stroke-opacity:1;  stroke-linecap:round; stroke-linejoin:round;">
<svg:g>
</svg:g>
<svg:g>
</svg:g>
<svg:g>
</svg:g>
<svg:g>
</svg:g>
</svg:g> 
</svg:g><svg:g><svg:title>SVG Picture created as kicadBoard-F_Mask.svg date 2022/12/03 01:55:52 </svg:title>
  <svg:desc>Picture generated by PCBNEW </svg:desc>
<svg:g style="fill:#000000; fill-opacity:1.000000;stroke:#000000; stroke-opacity:1.000000; stroke-linecap:round; stroke-linejoin:round;" transform="translate(0 0) scale(1 1)">
</svg:g>
<svg:g style="fill:#000000; fill-opacity:0.0;  stroke:#000000; stroke-width:0.000000; stroke-opacity:1;  stroke-linecap:round; stroke-linejoin:round;">
<svg:g>
</svg:g>
<svg:g style="fill:#000000; fill-opacity:0.0;  stroke:#000000; stroke-width:1.000000; stroke-opacity:1;  stroke-linecap:round; stroke-linejoin:round;">
</svg:g>
<svg:g style="fill:#000000; fill-opacity:1.0;  stroke:#000000; stroke-width:1.000000; stroke-opacity:1;  stroke-linecap:round; stroke-linejoin:round;">
<svg:path style="fill:#000000; fill-opacity:1.0;  stroke:#000000; stroke-width:1.000000; stroke-opacity:1;  stroke-linecap:round; stroke-linejoin:round;fill-rule:evenodd;" d="M 47743400.000000,52704000.000000 47751134.000000,52665119.000000 47773158.000000,52632158.000000 47806119.000000,52610134.000000 47845000.000000,52602400.000000 48345000.000000,52602400.000000 48383881.000000,52610134.000000 48416842.000000,52632158.000000 48438866.000000,52665119.000000 48446600.000000,52704000.000000 48446600.000000,54104000.000000 48438866.000000,54142881.000000 48416842.000000,54175842.000000 48383881.000000,54197866.000000 48345000.000000,54205600.000000 47845000.000000,54205600.000000 47806119.000000,54197866.000000 47773158.000000,54175842.000000 47751134.000000,54142881.000000 47743400.000000,54104000.000000 Z"/> 
<svg:path style="fill:#000000; fill-opacity:1.0;  stroke:#000000; stroke-width:1.000000; stroke-opacity:1;  stroke-linecap:round; stroke-linejoin:round;fill-rule:evenodd;" d="M 49003400.000000,52704000.000000 49011134.000000,52665119.000000 49033158.000000,52632158.000000 49066119.000000,52610134.000000 49105000.000000,52602400.000000 49605000.000000,52602400.000000 49643881.000000,52610134.000000 49676842.000000,52632158.000000 49698866.000000,52665119.000000 49706600.000000,52704000.000000 49706600.000000,54104000.000000 49698866.000000,54142881.000000 49676842.000000,54175842.000000 49643881.000000,54197866.000000 49605000.000000,54205600.000000 49105000.000000,54205600.000000 49066119.000000,54197866.000000 49033158.000000,54175842.000000 49011134.000000,54142881.000000 49003400.000000,54104000.000000 Z"/> 
<svg:path style="fill:#000000; fill-opacity:1.0;  stroke:#000000; stroke-width:1.000000; stroke-opacity:1;  stroke-linecap:round; stroke-linejoin:round;fill-rule:evenodd;" d="M 50273400.000000,52704000.000000 50281134.000000,52665119.000000 50303158.000000,52632158.000000 50336119.000000,52610134.000000 50375000.000000,52602400.000000 50875000.000000,52602400.000000 50913881.000000,52610134.000000 50946842.000000,52632158.000000 50968866.000000,52665119.000000 50976600.000000,52704000.000000 50976600.000000,54104000.000000 50968866.000000,54142881.000000 50946842.000000,54175842.000000 50913881.000000,54197866.000000 50875000.000000,54205600.000000 50375000.000000,54205600.000000 50336119.000000,54197866.000000 50303158.000000,54175842.000000 50281134.000000,54142881.000000 50273400.000000,54104000.000000 Z"/> 
<svg:path style="fill:#000000; fill-opacity:1.0;  stroke:#000000; stroke-width:1.000000; stroke-opacity:1;  stroke-linecap:round; stroke-linejoin:round;fill-rule:evenodd;" d="M 51543400.000000,52704000.000000 51551134.000000,52665119.000000 51573158.000000,52632158.000000 51606119.000000,52610134.000000 51645000.000000,52602400.000000 52145000.000000,52602400.000000 52183881.000000,52610134.000000 52216842.000000,52632158.000000 52238866.000000,52665119.000000 52246600.000000,52704000.000000 52246600.000000,54104000.000000 52238866.000000,54142881.000000 52216842.000000,54175842.000000 52183881.000000,54197866.000000 52145000.000000,54205600.000000 51645000.000000,54205600.000000 51606119.000000,54197866.000000 51573158.000000,54175842.000000 51551134.000000,54142881.000000 51543400.000000,54104000.000000 Z"/> 
<svg:path style="fill:#000000; fill-opacity:1.0;  stroke:#000000; stroke-width:1.000000; stroke-opacity:1;  stroke-linecap:round; stroke-linejoin:round;fill-rule:evenodd;" d="M 51553400.000000,45896000.000000 51561134.000000,45857119.000000 51583158.000000,45824158.000000 51616119.000000,45802134.000000 51655000.000000,45794400.000000 52155000.000000,45794400.000000 52193881.000000,45802134.000000 52226842.000000,45824158.000000 52248866.000000,45857119.000000 52256600.000000,45896000.000000 52256600.000000,47296000.000000 52248866.000000,47334881.000000 52226842.000000,47367842.000000 52193881.000000,47389866.000000 52155000.000000,47397600.000000 51655000.000000,47397600.000000 51616119.000000,47389866.000000 51583158.000000,47367842.000000 51561134.000000,47334881.000000 51553400.000000,47296000.000000 Z"/> 
<svg:path style="fill:#000000; fill-opacity:1.0;  stroke:#000000; stroke-width:1.000000; stroke-opacity:1;  stroke-linecap:round; stroke-linejoin:round;fill-rule:evenodd;" d="M 50283400.000000,45896000.000000 50291134.000000,45857119.000000 50313158.000000,45824158.000000 50346119.000000,45802134.000000 50385000.000000,45794400.000000 50885000.000000,45794400.000000 50923881.000000,45802134.000000 50956842.000000,45824158.000000 50978866.000000,45857119.000000 50986600.000000,45896000.000000 50986600.000000,47296000.000000 50978866.000000,47334881.000000 50956842.000000,47367842.000000 50923881.000000,47389866.000000 50885000.000000,47397600.000000 50385000.000000,47397600.000000 50346119.000000,47389866.000000 50313158.000000,47367842.000000 50291134.000000,47334881.000000 50283400.000000,47296000.000000 Z"/> 
<svg:path style="fill:#000000; fill-opacity:1.0;  stroke:#000000; stroke-width:1.000000; stroke-opacity:1;  stroke-linecap:round; stroke-linejoin:round;fill-rule:evenodd;" d="M 49013400.000000,45896000.000000 49021134.000000,45857119.000000 49043158.000000,45824158.000000 49076119.000000,45802134.000000 49115000.000000,45794400.000000 49615000.000000,45794400.000000 49653881.000000,45802134.000000 49686842.000000,45824158.000000 49708866.000000,45857119.000000 49716600.000000,45896000.000000 49716600.000000,47296000.000000 49708866.000000,47334881.000000 49686842.000000,47367842.000000 49653881.000000,47389866.000000 49615000.000000,47397600.000000 49115000.000000,47397600.000000 49076119.000000,47389866.000000 49043158.000000,47367842.000000 49021134.000000,47334881.000000 49013400.000000,47296000.000000 Z"/> 
<svg:path style="fill:#000000; fill-opacity:1.0;  stroke:#000000; stroke-width:1.000000; stroke-opacity:1;  stroke-linecap:round; stroke-linejoin:round;fill-rule:evenodd;" d="M 47743400.000000,45896000.000000 47751134.000000,45857119.000000 47773158.000000,45824158.000000 47806119.000000,45802134.000000 47845000.000000,45794400.000000 48345000.000000,45794400.000000 48383881.000000,45802134.000000 48416842.000000,45824158.000000 48438866.000000,45857119.000000 48446600.000000,45896000.000000 48446600.000000,47296000.000000 48438866.000000,47334881.000000 48416842.000000,47367842.000000 48383881.000000,47389866.000000 48345000.000000,47397600.000000 47845000.000000,47397600.000000 47806119.000000,47389866.000000 47773158.000000,47367842.000000 47751134.000000,47334881.000000 47743400.000000,47296000.000000 Z"/> 
</svg:g>
<svg:g>
</svg:g>
<svg:g>
</svg:g>
<svg:g>
</svg:g>
</svg:g>
<svg:g style="fill:#000000; fill-opacity:1.0;  stroke:#000000; stroke-width:1.000000; stroke-opacity:1;  stroke-linecap:round; stroke-linejoin:round;">
<svg:g>
</svg:g>
<svg:g>
</svg:g>
<svg:g>
</svg:g>
<svg:g>
</svg:g>
</svg:g> 
</svg:g><svg:g><svg:title>SVG Picture created as kicadBoard-F_Paste.svg date 2022/12/03 01:55:52 </svg:title>
  <svg:desc>Picture generated by PCBNEW </svg:desc>
<svg:g style="fill:#000000; fill-opacity:1.000000;stroke:#000000; stroke-opacity:1.000000; stroke-linecap:round; stroke-linejoin:round;" transform="translate(0 0) scale(1 1)">
</svg:g>
<svg:g style="fill:#000000; fill-opacity:0.0;  stroke:#000000; stroke-width:0.000000; stroke-opacity:1;  stroke-linecap:round; stroke-linejoin:round;">
<svg:g>
</svg:g>
<svg:g style="fill:#000000; fill-opacity:0.0;  stroke:#000000; stroke-width:1.000000; stroke-opacity:1;  stroke-linecap:round; stroke-linejoin:round;">
</svg:g>
<svg:g style="fill:#000000; fill-opacity:1.0;  stroke:#000000; stroke-width:1.000000; stroke-opacity:1;  stroke-linecap:round; stroke-linejoin:round;">
<svg:path style="fill:#000000; fill-opacity:1.0;  stroke:#000000; stroke-width:1.000000; stroke-opacity:1;  stroke-linecap:round; stroke-linejoin:round;fill-rule:evenodd;" d="M 47845001.000000,54103999.000000 47845001.000000,52704001.000000 48344999.000000,52704001.000000 48344999.000000,54103999.000000 Z"/> 
<svg:path style="fill:#000000; fill-opacity:1.0;  stroke:#000000; stroke-width:1.000000; stroke-opacity:1;  stroke-linecap:round; stroke-linejoin:round;fill-rule:evenodd;" d="M 49105001.000000,54103999.000000 49105001.000000,52704001.000000 49604999.000000,52704001.000000 49604999.000000,54103999.000000 Z"/> 
<svg:path style="fill:#000000; fill-opacity:1.0;  stroke:#000000; stroke-width:1.000000; stroke-opacity:1;  stroke-linecap:round; stroke-linejoin:round;fill-rule:evenodd;" d="M 50375001.000000,54103999.000000 50375001.000000,52704001.000000 50874999.000000,52704001.000000 50874999.000000,54103999.000000 Z"/> 
<svg:path style="fill:#000000; fill-opacity:1.0;  stroke:#000000; stroke-width:1.000000; stroke-opacity:1;  stroke-linecap:round; stroke-linejoin:round;fill-rule:evenodd;" d="M 51645001.000000,54103999.000000 51645001.000000,52704001.000000 52144999.000000,52704001.000000 52144999.000000,54103999.000000 Z"/> 
<svg:path style="fill:#000000; fill-opacity:1.0;  stroke:#000000; stroke-width:1.000000; stroke-opacity:1;  stroke-linecap:round; stroke-linejoin:round;fill-rule:evenodd;" d="M 51655001.000000,47295999.000000 51655001.000000,45896001.000000 52154999.000000,45896001.000000 52154999.000000,47295999.000000 Z"/> 
<svg:path style="fill:#000000; fill-opacity:1.0;  stroke:#000000; stroke-width:1.000000; stroke-opacity:1;  stroke-linecap:round; stroke-linejoin:round;fill-rule:evenodd;" d="M 50385001.000000,47295999.000000 50385001.000000,45896001.000000 50884999.000000,45896001.000000 50884999.000000,47295999.000000 Z"/> 
<svg:path style="fill:#000000; fill-opacity:1.0;  stroke:#000000; stroke-width:1.000000; stroke-opacity:1;  stroke-linecap:round; stroke-linejoin:round;fill-rule:evenodd;" d="M 49115001.000000,47295999.000000 49115001.000000,45896001.000000 49614999.000000,45896001.000000 49614999.000000,47295999.000000 Z"/> 
<svg:path style="fill:#000000; fill-opacity:1.0;  stroke:#000000; stroke-width:1.000000; stroke-opacity:1;  stroke-linecap:round; stroke-linejoin:round;fill-rule:evenodd;" d="M 47845001.000000,47295999.000000 47845001.000000,45896001.000000 48344999.000000,45896001.000000 48344999.000000,47295999.000000 Z"/> 
</svg:g>
<svg:g>
</svg:g>
<svg:g>
</svg:g>
<svg:g>
</svg:g>
</svg:g>
<svg:g style="fill:#000000; fill-opacity:1.0;  stroke:#000000; stroke-width:1.000000; stroke-opacity:1;  stroke-linecap:round; stroke-linejoin:round;">
<svg:g>
</svg:g>
<svg:g>
</svg:g>
<svg:g>
</svg:g>
<svg:g>
</svg:g>
</svg:g> 
</svg:g><svg:g><svg:title>SVG Picture created as kicadBoard-F_Silkscreen.svg date 2022/12/03 01:55:52 </svg:title>
  <svg:desc>Picture generated by PCBNEW </svg:desc>
<svg:g style="fill:#000000; fill-opacity:1.000000;stroke:#000000; stroke-opacity:1.000000; stroke-linecap:round; stroke-linejoin:round;" transform="translate(0 0) scale(1 1)">
</svg:g>
<svg:g style="fill:#000000; fill-opacity:0.0;  stroke:#000000; stroke-width:0.000000; stroke-opacity:1;  stroke-linecap:round; stroke-linejoin:round;">
</svg:g>
<svg:g style="fill:#F2EDA1; fill-opacity:0.0;  stroke:#F2EDA1; stroke-width:0.000000; stroke-opacity:1;  stroke-linecap:round; stroke-linejoin:round;">
</svg:g>
<svg:g style="fill:#F2EDA1; fill-opacity:0.0;  stroke:#F2EDA1; stroke-width:127000.000000; stroke-opacity:1;  stroke-linecap:round; stroke-linejoin:round;">
<svg:g transform="rotate(-90.000000 47142500.000000 52159000.000000)">
<svg:text x="47142500.000000" y="52159000.000000" textLength="11484430.000000" font-size="1524000.000000" lengthAdjust="spacingAndGlyphs" text-anchor="start" opacity="0">FZEATMEL8S2</svg:text>
</svg:g>
<svg:g class="stroked-text"><svg:desc>FZEATMEL8S2</svg:desc>
<svg:path d="M46489357 51423307 L46489357 51804307 "/>
<svg:path d="M47088071 51804307 L45945071 51804307 L45945071 51260021 "/>
<svg:path d="M45945071 50933450 L45945071 50171450 L47088071 50933450 L47088071 50171450 "/>
<svg:path d="M46489357 49736021 L46489357 49355021 "/>
<svg:path d="M47088071 49191735 L47088071 49736021 L45945071 49736021 L45945071 49191735 "/>
<svg:path d="M46761500 48756307 L46761500 48212021 "/>
<svg:path d="M47088071 48865164 L45945071 48484164 L47088071 48103164 "/>
<svg:path d="M45945071 47885450 L45945071 47232307 "/>
<svg:path d="M47088071 47558878 L45945071 47558878 "/>
<svg:path d="M47088071 46851307 L45945071 46851307 L46761500 46470307 L45945071 46089307 L47088071 46089307 "/>
<svg:path d="M46489357 45545021 L46489357 45164021 "/>
<svg:path d="M47088071 45000735 L47088071 45545021 L45945071 45545021 L45945071 45000735 "/>
<svg:path d="M47088071 43966592 L47088071 44510878 L45945071 44510878 "/>
<svg:path d="M46434928 43422307 L46380500 43531164 L46326071 43585592 L46217214 43640021 L46162785 43640021 L46053928 43585592 L45999500 43531164 L45945071 43422307 L45945071 43204592 L45999500 43095735 L46053928 43041307 L46162785 42986878 L46217214 42986878 L46326071 43041307 L46380500 43095735 L46434928 43204592 L46434928 43422307 L46489357 43531164 L46543785 43585592 L46652642 43640021 L46870357 43640021 L46979214 43585592 L47033642 43531164 L47088071 43422307 L47088071 43204592 L47033642 43095735 L46979214 43041307 L46870357 42986878 L46652642 42986878 L46543785 43041307 L46489357 43095735 L46434928 43204592 "/>
<svg:path d="M47033642 42551450 L47088071 42388164 L47088071 42116021 L47033642 42007164 L46979214 41952735 L46870357 41898307 L46761500 41898307 L46652642 41952735 L46598214 42007164 L46543785 42116021 L46489357 42333735 L46434928 42442592 L46380500 42497021 L46271642 42551450 L46162785 42551450 L46053928 42497021 L45999500 42442592 L45945071 42333735 L45945071 42061592 L45999500 41898307 "/>
<svg:path d="M46053928 41462878 L45999500 41408450 L45945071 41299592 L45945071 41027450 L45999500 40918592 L46053928 40864164 L46162785 40809735 L46271642 40809735 L46434928 40864164 L47088071 41517307 L47088071 40809735 "/>
</svg:g></svg:g>
<svg:g style="fill:#F2EDA1; fill-opacity:0.0;  stroke:#F2EDA1; stroke-width:152400.000000; stroke-opacity:1;  stroke-linecap:round; stroke-linejoin:round;">
<svg:path d="M52600000 52675000 L52600000 47350000 "/>
<svg:path d="M49680000 47100000 L50320000 47100000 "/>
<svg:path d="M52200000 52925000 L52330000 52925000 "/>
<svg:path d="M48410000 47100000 L49050000 47100000 "/>
<svg:path d="M47400000 47350000 L47400000 52665000 "/>
<svg:path d="M47790000 47100000 L47660000 47100000 "/>
<svg:path d="M52210000 47100000 L52360000 47100000 "/>
<svg:path d="M51590000 52925000 L50940000 52925000 "/>
<svg:path d="M47790000 52925000 L47660000 52925000 "/>
<svg:path d="M50320000 52925000 L49670000 52925000 "/>
<svg:path d="M49050000 52925000 L48410000 52925000 "/>
<svg:path d="M50950000 47100000 L51590000 47100000 "/>
<svg:path d="M52600000.000000 47350000.000000 A250000.000000 250000.000000 0.0 0 0 52350000.000000 47100000.000000"/>
<svg:path d="M52350000.000000 52925000.000000 A250000.000000 250000.000000 0.0 0 0 52600000.000000 52675000.000000"/>
<svg:path d="M47400000.000002 52675000.000000 A249999.000000 249999.000000 0.0 0 0 47650000.000000 52924999.999998"/>
<svg:path d="M47650000.000000 47100000.000002 A249999.000000 249999.000000 0.0 0 0 47400000.000002 47350000.000000"/>
</svg:g>
<svg:g style="fill:#F2EDA1; fill-opacity:0.0;  stroke:#F2EDA1; stroke-width:50800.000000; stroke-opacity:1;  stroke-linecap:round; stroke-linejoin:round;">
<svg:circle cx="48580000.000000" cy="51115000.000000" r="500000.000000"/> 
<svg:g>
</svg:g>
<svg:g>
</svg:g>
<svg:g>
</svg:g>
<svg:g>
</svg:g>
</svg:g>
<svg:g style="fill:#000000; fill-opacity:0.0;  stroke:#000000; stroke-width:50800.000000; stroke-opacity:1;  stroke-linecap:round; stroke-linejoin:round;">
<svg:g>
</svg:g>
<svg:g>
</svg:g>
<svg:g>
</svg:g>
<svg:g>
</svg:g>
</svg:g> 
</svg:g><svg:g><svg:title>SVG Picture created as kicadBoard-Margin.svg date 2022/12/03 01:55:52 </svg:title>
  <svg:desc>Picture generated by PCBNEW </svg:desc>
<svg:g style="fill:#000000; fill-opacity:1.000000;stroke:#000000; stroke-opacity:1.000000; stroke-linecap:round; stroke-linejoin:round;" transform="translate(0 0) scale(1 1)">
</svg:g>
<svg:g style="fill:#000000; fill-opacity:0.0;  stroke:#000000; stroke-width:0.000000; stroke-opacity:1;  stroke-linecap:round; stroke-linejoin:round;">
<svg:g>
</svg:g>
<svg:g>
</svg:g>
<svg:g>
</svg:g>
<svg:g>
</svg:g>
</svg:g>
<svg:g style="fill:#000000; fill-opacity:0.0;  stroke:#000000; stroke-width:0.000000; stroke-opacity:1;  stroke-linecap:round; stroke-linejoin:round;">
<svg:g>
</svg:g>
<svg:g>
</svg:g>
<svg:g>
</svg:g>
<svg:g>
</svg:g>
</svg:g> 
</svg:g><svg:g><svg:title>SVG Picture created as kicadBoard-F_Cu.svg date 2022/12/03 01:55:52 </svg:title>
  <svg:desc>Picture generated by PCBNEW </svg:desc>
<svg:g style="fill:#000000; fill-opacity:1.000000;stroke:#000000; stroke-opacity:1.000000; stroke-linecap:round; stroke-linejoin:round;" transform="translate(0 0) scale(1 1)">
</svg:g>
<svg:g style="fill:#000000; fill-opacity:0.0;  stroke:#000000; stroke-width:0.000000; stroke-opacity:1;  stroke-linecap:round; stroke-linejoin:round;">
<svg:g>
</svg:g>
<svg:g style="fill:#C83434; fill-opacity:0.0;  stroke:#C83434; stroke-width:0.000000; stroke-opacity:1;  stroke-linecap:round; stroke-linejoin:round;">
</svg:g>
<svg:g style="fill:#C83434; fill-opacity:0.0;  stroke:#C83434; stroke-width:1.000000; stroke-opacity:1;  stroke-linecap:round; stroke-linejoin:round;">
</svg:g>
<svg:g style="fill:#C83434; fill-opacity:1.0;  stroke:#C83434; stroke-width:1.000000; stroke-opacity:1;  stroke-linecap:round; stroke-linejoin:round;">
<svg:path style="fill:#C83434; fill-opacity:1.0;  stroke:#C83434; stroke-width:1.000000; stroke-opacity:1;  stroke-linecap:round; stroke-linejoin:round;fill-rule:evenodd;" d="M 47845001.000000,54103999.000000 47845001.000000,52704001.000000 48344999.000000,52704001.000000 48344999.000000,54103999.000000 Z"/> 
<svg:path style="fill:#C83434; fill-opacity:1.0;  stroke:#C83434; stroke-width:1.000000; stroke-opacity:1;  stroke-linecap:round; stroke-linejoin:round;fill-rule:evenodd;" d="M 49105001.000000,54103999.000000 49105001.000000,52704001.000000 49604999.000000,52704001.000000 49604999.000000,54103999.000000 Z"/> 
<svg:path style="fill:#C83434; fill-opacity:1.0;  stroke:#C83434; stroke-width:1.000000; stroke-opacity:1;  stroke-linecap:round; stroke-linejoin:round;fill-rule:evenodd;" d="M 50375001.000000,54103999.000000 50375001.000000,52704001.000000 50874999.000000,52704001.000000 50874999.000000,54103999.000000 Z"/> 
<svg:path style="fill:#C83434; fill-opacity:1.0;  stroke:#C83434; stroke-width:1.000000; stroke-opacity:1;  stroke-linecap:round; stroke-linejoin:round;fill-rule:evenodd;" d="M 51645001.000000,54103999.000000 51645001.000000,52704001.000000 52144999.000000,52704001.000000 52144999.000000,54103999.000000 Z"/> 
<svg:path style="fill:#C83434; fill-opacity:1.0;  stroke:#C83434; stroke-width:1.000000; stroke-opacity:1;  stroke-linecap:round; stroke-linejoin:round;fill-rule:evenodd;" d="M 51655001.000000,47295999.000000 51655001.000000,45896001.000000 52154999.000000,45896001.000000 52154999.000000,47295999.000000 Z"/> 
<svg:path style="fill:#C83434; fill-opacity:1.0;  stroke:#C83434; stroke-width:1.000000; stroke-opacity:1;  stroke-linecap:round; stroke-linejoin:round;fill-rule:evenodd;" d="M 50385001.000000,47295999.000000 50385001.000000,45896001.000000 50884999.000000,45896001.000000 50884999.000000,47295999.000000 Z"/> 
<svg:path style="fill:#C83434; fill-opacity:1.0;  stroke:#C83434; stroke-width:1.000000; stroke-opacity:1;  stroke-linecap:round; stroke-linejoin:round;fill-rule:evenodd;" d="M 49115001.000000,47295999.000000 49115001.000000,45896001.000000 49614999.000000,45896001.000000 49614999.000000,47295999.000000 Z"/> 
<svg:path style="fill:#C83434; fill-opacity:1.0;  stroke:#C83434; stroke-width:1.000000; stroke-opacity:1;  stroke-linecap:round; stroke-linejoin:round;fill-rule:evenodd;" d="M 47845001.000000,47295999.000000 47845001.000000,45896001.000000 48344999.000000,45896001.000000 48344999.000000,47295999.000000 Z"/> 
</svg:g>
<svg:g>
</svg:g>
<svg:g>
</svg:g>
<svg:g>
</svg:g>
</svg:g>
<svg:g style="fill:#FFFFFF; fill-opacity:1.0;  stroke:#FFFFFF; stroke-width:1.000000; stroke-opacity:1;  stroke-linecap:round; stroke-linejoin:round;">
</svg:g>
<svg:g style="fill:#000000; fill-opacity:1.0;  stroke:#000000; stroke-width:1.000000; stroke-opacity:1;  stroke-linecap:round; stroke-linejoin:round;">
<svg:g>
</svg:g>
<svg:g>
</svg:g>
<svg:g>
</svg:g>
<svg:g>
</svg:g>
</svg:g> 
</svg:g></svg>
