<?xml version='1.0' encoding='ASCII' standalone='yes'?>
<svg xmlns:svg="http://www.w3.org/2000/svg" xmlns="http://www.w3.org/2000/svg" xmlns:xlink="http://www.w3.org/1999/xlink" version="1.1" width="9.999980cm" height="9.999980cm" viewBox="0 0 99999800 99999800">
<title>SVG Picture created as kicadBoard-B_Cu.svg date 2022/11/17 04:06:22 </title>
  <desc>Picture generated by PCBNEW </desc>
<g style="fill:#000000; fill-opacity:1.000000;stroke:#000000; stroke-opacity:1.000000; stroke-linecap:round; stroke-linejoin:round;" transform="translate(0 0) scale(1 1)">
</g>
<g style="fill:#000000; fill-opacity:0.0;  stroke:#000000; stroke-width:0.000000; stroke-opacity:1;  stroke-linecap:round; stroke-linejoin:round;">
<g>
</g>
<g style="fill:#4D7FC4; fill-opacity:0.0;  stroke:#4D7FC4; stroke-width:0.000000; stroke-opacity:1;  stroke-linecap:round; stroke-linejoin:round;">
</g>
<g style="fill:#4D7FC4; fill-opacity:1.0;  stroke:#4D7FC4; stroke-width:1.000000; stroke-opacity:1;  stroke-linecap:round; stroke-linejoin:round;">
<circle cx="50000000.000000" cy="50000000.000000" r="800000.000000"/> 
</g>
<g style="fill:#4D7FC4; fill-opacity:1.0;  stroke:#4D7FC4; stroke-width:21200.000000; stroke-opacity:1;  stroke-linecap:round; stroke-linejoin:round;">
</g>
<g style="fill:#4D7FC4; fill-opacity:1.0;  stroke:#4D7FC4; stroke-width:1.000000; stroke-opacity:1;  stroke-linecap:round; stroke-linejoin:round;">
<circle cx="60000000.000000" cy="50000000.000000" r="800000.000000"/> 
</g>
<g style="fill:#4D7FC4; fill-opacity:1.0;  stroke:#4D7FC4; stroke-width:21200.000000; stroke-opacity:1;  stroke-linecap:round; stroke-linejoin:round;">
</g>
<g>
</g>
<g>
</g>
<g>
</g>
</g>
<g style="fill:#FFFFFF; fill-opacity:1.0;  stroke:#FFFFFF; stroke-width:21200.000000; stroke-opacity:1;  stroke-linecap:round; stroke-linejoin:round;">
</g>
<g style="fill:#FFFFFF; fill-opacity:1.0;  stroke:#FFFFFF; stroke-width:1.000000; stroke-opacity:1;  stroke-linecap:round; stroke-linejoin:round;">
<circle cx="50000000.000000" cy="50000000.000000" r="400000.000000"/> 
</g>
<g style="fill:#FFFFFF; fill-opacity:1.0;  stroke:#FFFFFF; stroke-width:21200.000000; stroke-opacity:1;  stroke-linecap:round; stroke-linejoin:round;">
</g>
<g style="fill:#FFFFFF; fill-opacity:1.0;  stroke:#FFFFFF; stroke-width:1.000000; stroke-opacity:1;  stroke-linecap:round; stroke-linejoin:round;">
<circle cx="60000000.000000" cy="50000000.000000" r="400000.000000"/> 
</g>
<g style="fill:#FFFFFF; fill-opacity:1.0;  stroke:#FFFFFF; stroke-width:21200.000000; stroke-opacity:1;  stroke-linecap:round; stroke-linejoin:round;">
</g>
<g style="fill:#000000; fill-opacity:1.0;  stroke:#000000; stroke-width:21200.000000; stroke-opacity:1;  stroke-linecap:round; stroke-linejoin:round;">
<g>
</g>
<g>
</g>
<g>
</g>
<g>
</g>
</g> 
<svg:g><svg:title>SVG Picture created as kicadBoard-B_Adhesive.svg date 2022/11/17 04:06:22 </svg:title>
  <svg:desc>Picture generated by PCBNEW </svg:desc>
<svg:g style="fill:#000000; fill-opacity:1.000000;stroke:#000000; stroke-opacity:1.000000; stroke-linecap:round; stroke-linejoin:round;" transform="translate(0 0) scale(1 1)">
</svg:g>
<svg:g style="fill:#000000; fill-opacity:0.0;  stroke:#000000; stroke-width:0.000000; stroke-opacity:1;  stroke-linecap:round; stroke-linejoin:round;">
<svg:g>
</svg:g>
<svg:g>
</svg:g>
<svg:g>
</svg:g>
<svg:g>
</svg:g>
</svg:g>
<svg:g style="fill:#000000; fill-opacity:0.0;  stroke:#000000; stroke-width:0.000000; stroke-opacity:1;  stroke-linecap:round; stroke-linejoin:round;">
<svg:g>
</svg:g>
<svg:g>
</svg:g>
<svg:g>
</svg:g>
<svg:g>
</svg:g>
</svg:g> 
</svg:g><svg:g><svg:title>SVG Picture created as kicadBoard-B_Courtyard.svg date 2022/11/17 04:06:22 </svg:title>
  <svg:desc>Picture generated by PCBNEW </svg:desc>
<svg:g style="fill:#000000; fill-opacity:1.000000;stroke:#000000; stroke-opacity:1.000000; stroke-linecap:round; stroke-linejoin:round;" transform="translate(0 0) scale(1 1)">
</svg:g>
<svg:g style="fill:#000000; fill-opacity:0.0;  stroke:#000000; stroke-width:0.000000; stroke-opacity:1;  stroke-linecap:round; stroke-linejoin:round;">
<svg:g>
</svg:g>
<svg:g>
</svg:g>
<svg:g>
</svg:g>
<svg:g>
</svg:g>
</svg:g>
<svg:g style="fill:#000000; fill-opacity:0.0;  stroke:#000000; stroke-width:0.000000; stroke-opacity:1;  stroke-linecap:round; stroke-linejoin:round;">
<svg:g>
</svg:g>
<svg:g>
</svg:g>
<svg:g>
</svg:g>
<svg:g>
</svg:g>
</svg:g> 
</svg:g><svg:g><svg:title>SVG Picture created as kicadBoard-B_Fab.svg date 2022/11/17 04:06:22 </svg:title>
  <svg:desc>Picture generated by PCBNEW </svg:desc>
<svg:g style="fill:#000000; fill-opacity:1.000000;stroke:#000000; stroke-opacity:1.000000; stroke-linecap:round; stroke-linejoin:round;" transform="translate(0 0) scale(1 1)">
</svg:g>
<svg:g style="fill:#000000; fill-opacity:0.0;  stroke:#000000; stroke-width:0.000000; stroke-opacity:1;  stroke-linecap:round; stroke-linejoin:round;">
<svg:g>
</svg:g>
<svg:g>
</svg:g>
<svg:g>
</svg:g>
<svg:g>
</svg:g>
</svg:g>
<svg:g style="fill:#000000; fill-opacity:0.0;  stroke:#000000; stroke-width:0.000000; stroke-opacity:1;  stroke-linecap:round; stroke-linejoin:round;">
<svg:g>
</svg:g>
<svg:g>
</svg:g>
<svg:g>
</svg:g>
<svg:g>
</svg:g>
</svg:g> 
</svg:g><svg:g><svg:title>SVG Picture created as kicadBoard-B_Mask.svg date 2022/11/17 04:06:22 </svg:title>
  <svg:desc>Picture generated by PCBNEW </svg:desc>
<svg:g style="fill:#000000; fill-opacity:1.000000;stroke:#000000; stroke-opacity:1.000000; stroke-linecap:round; stroke-linejoin:round;" transform="translate(0 0) scale(1 1)">
</svg:g>
<svg:g style="fill:#000000; fill-opacity:0.0;  stroke:#000000; stroke-width:0.000000; stroke-opacity:1;  stroke-linecap:round; stroke-linejoin:round;">
<svg:g>
</svg:g>
<svg:g style="fill:#000000; fill-opacity:1.0;  stroke:#000000; stroke-width:1.000000; stroke-opacity:1;  stroke-linecap:round; stroke-linejoin:round;">
<svg:circle cx="50000000.000000" cy="50000000.000000" r="800000.000000"/> 
</svg:g>
<svg:g style="fill:#000000; fill-opacity:1.0;  stroke:#000000; stroke-width:21200.000000; stroke-opacity:1;  stroke-linecap:round; stroke-linejoin:round;">
</svg:g>
<svg:g style="fill:#000000; fill-opacity:1.0;  stroke:#000000; stroke-width:1.000000; stroke-opacity:1;  stroke-linecap:round; stroke-linejoin:round;">
<svg:circle cx="60000000.000000" cy="50000000.000000" r="800000.000000"/> 
</svg:g>
<svg:g style="fill:#000000; fill-opacity:1.0;  stroke:#000000; stroke-width:21200.000000; stroke-opacity:1;  stroke-linecap:round; stroke-linejoin:round;">
</svg:g>
<svg:g>
</svg:g>
<svg:g>
</svg:g>
<svg:g>
</svg:g>
</svg:g>
<svg:g style="fill:#000000; fill-opacity:1.0;  stroke:#000000; stroke-width:21200.000000; stroke-opacity:1;  stroke-linecap:round; stroke-linejoin:round;">
<svg:g>
</svg:g>
<svg:g>
</svg:g>
<svg:g>
</svg:g>
<svg:g>
</svg:g>
</svg:g> 
</svg:g><svg:g><svg:title>SVG Picture created as kicadBoard-B_Paste.svg date 2022/11/17 04:06:22 </svg:title>
  <svg:desc>Picture generated by PCBNEW </svg:desc>
<svg:g style="fill:#000000; fill-opacity:1.000000;stroke:#000000; stroke-opacity:1.000000; stroke-linecap:round; stroke-linejoin:round;" transform="translate(0 0) scale(1 1)">
</svg:g>
<svg:g style="fill:#000000; fill-opacity:0.0;  stroke:#000000; stroke-width:0.000000; stroke-opacity:1;  stroke-linecap:round; stroke-linejoin:round;">
<svg:g>
</svg:g>
<svg:g>
</svg:g>
<svg:g>
</svg:g>
<svg:g>
</svg:g>
</svg:g>
<svg:g style="fill:#000000; fill-opacity:0.0;  stroke:#000000; stroke-width:0.000000; stroke-opacity:1;  stroke-linecap:round; stroke-linejoin:round;">
<svg:g>
</svg:g>
<svg:g>
</svg:g>
<svg:g>
</svg:g>
<svg:g>
</svg:g>
</svg:g> 
</svg:g><svg:g><svg:title>SVG Picture created as kicadBoard-B_Silkscreen.svg date 2022/11/17 04:06:22 </svg:title>
  <svg:desc>Picture generated by PCBNEW </svg:desc>
<svg:g style="fill:#000000; fill-opacity:1.000000;stroke:#000000; stroke-opacity:1.000000; stroke-linecap:round; stroke-linejoin:round;" transform="translate(0 0) scale(1 1)">
</svg:g>
<svg:g style="fill:#000000; fill-opacity:0.0;  stroke:#000000; stroke-width:0.000000; stroke-opacity:1;  stroke-linecap:round; stroke-linejoin:round;">
<svg:g>
</svg:g>
<svg:g>
</svg:g>
<svg:g>
</svg:g>
<svg:g>
</svg:g>
</svg:g>
<svg:g style="fill:#000000; fill-opacity:0.0;  stroke:#000000; stroke-width:0.000000; stroke-opacity:1;  stroke-linecap:round; stroke-linejoin:round;">
<svg:g>
</svg:g>
<svg:g>
</svg:g>
<svg:g>
</svg:g>
<svg:g>
</svg:g>
</svg:g> 
</svg:g><svg:g><svg:title>SVG Picture created as kicadBoard-Edge_Cuts.svg date 2022/11/17 04:06:22 </svg:title>
  <svg:desc>Picture generated by PCBNEW </svg:desc>
<svg:g style="fill:#000000; fill-opacity:1.000000;stroke:#000000; stroke-opacity:1.000000; stroke-linecap:round; stroke-linejoin:round;" transform="translate(0 0) scale(1 1)">
</svg:g>
<svg:g style="fill:#000000; fill-opacity:0.0;  stroke:#000000; stroke-width:0.000000; stroke-opacity:1;  stroke-linecap:round; stroke-linejoin:round;">
<svg:g>
</svg:g>
<svg:g>
</svg:g>
<svg:g>
</svg:g>
<svg:g>
</svg:g>
</svg:g> 
</svg:g><svg:g><svg:title>SVG Picture created as kicadBoard-F_Adhesive.svg date 2022/11/17 04:06:22 </svg:title>
  <svg:desc>Picture generated by PCBNEW </svg:desc>
<svg:g style="fill:#000000; fill-opacity:1.000000;stroke:#000000; stroke-opacity:1.000000; stroke-linecap:round; stroke-linejoin:round;" transform="translate(0 0) scale(1 1)">
</svg:g>
<svg:g style="fill:#000000; fill-opacity:0.0;  stroke:#000000; stroke-width:0.000000; stroke-opacity:1;  stroke-linecap:round; stroke-linejoin:round;">
<svg:g>
</svg:g>
<svg:g>
</svg:g>
<svg:g>
</svg:g>
<svg:g>
</svg:g>
</svg:g>
<svg:g style="fill:#000000; fill-opacity:0.0;  stroke:#000000; stroke-width:0.000000; stroke-opacity:1;  stroke-linecap:round; stroke-linejoin:round;">
<svg:g>
</svg:g>
<svg:g>
</svg:g>
<svg:g>
</svg:g>
<svg:g>
</svg:g>
</svg:g> 
</svg:g><svg:g><svg:title>SVG Picture created as kicadBoard-F_Courtyard.svg date 2022/11/17 04:06:22 </svg:title>
  <svg:desc>Picture generated by PCBNEW </svg:desc>
<svg:g style="fill:#000000; fill-opacity:1.000000;stroke:#000000; stroke-opacity:1.000000; stroke-linecap:round; stroke-linejoin:round;" transform="translate(0 0) scale(1 1)">
</svg:g>
<svg:g style="fill:#000000; fill-opacity:0.0;  stroke:#000000; stroke-width:0.000000; stroke-opacity:1;  stroke-linecap:round; stroke-linejoin:round;">
</svg:g>
<svg:g style="fill:#FF26E2; fill-opacity:0.0;  stroke:#FF26E2; stroke-width:0.000000; stroke-opacity:1;  stroke-linecap:round; stroke-linejoin:round;">
</svg:g>
<svg:g style="fill:#FF26E2; fill-opacity:0.0;  stroke:#FF26E2; stroke-width:50000.000000; stroke-opacity:1;  stroke-linecap:round; stroke-linejoin:round;">
<svg:path d="M61050000 52850000 L61050000 47150000 "/>
<svg:path d="M61050000 47150000 L48950000 47150000 "/>
<svg:path d="M48950000 52850000 L61050000 52850000 "/>
<svg:path d="M48950000 47150000 L48950000 52850000 "/>
<svg:g>
</svg:g>
<svg:g>
</svg:g>
<svg:g>
</svg:g>
<svg:g>
</svg:g>
</svg:g>
<svg:g style="fill:#000000; fill-opacity:0.0;  stroke:#000000; stroke-width:50000.000000; stroke-opacity:1;  stroke-linecap:round; stroke-linejoin:round;">
<svg:g>
</svg:g>
<svg:g>
</svg:g>
<svg:g>
</svg:g>
<svg:g>
</svg:g>
</svg:g> 
</svg:g><svg:g><svg:title>SVG Picture created as kicadBoard-F_Cu.svg date 2022/11/17 04:06:22 </svg:title>
  <svg:desc>Picture generated by PCBNEW </svg:desc>
<svg:g style="fill:#000000; fill-opacity:1.000000;stroke:#000000; stroke-opacity:1.000000; stroke-linecap:round; stroke-linejoin:round;" transform="translate(0 0) scale(1 1)">
</svg:g>
<svg:g style="fill:#000000; fill-opacity:0.0;  stroke:#000000; stroke-width:0.000000; stroke-opacity:1;  stroke-linecap:round; stroke-linejoin:round;">
<svg:g>
</svg:g>
<svg:g style="fill:#C83434; fill-opacity:0.0;  stroke:#C83434; stroke-width:0.000000; stroke-opacity:1;  stroke-linecap:round; stroke-linejoin:round;">
</svg:g>
<svg:g style="fill:#C83434; fill-opacity:1.0;  stroke:#C83434; stroke-width:1.000000; stroke-opacity:1;  stroke-linecap:round; stroke-linejoin:round;">
<svg:circle cx="50000000.000000" cy="50000000.000000" r="800000.000000"/> 
</svg:g>
<svg:g style="fill:#C83434; fill-opacity:1.0;  stroke:#C83434; stroke-width:21200.000000; stroke-opacity:1;  stroke-linecap:round; stroke-linejoin:round;">
</svg:g>
<svg:g style="fill:#C83434; fill-opacity:1.0;  stroke:#C83434; stroke-width:1.000000; stroke-opacity:1;  stroke-linecap:round; stroke-linejoin:round;">
<svg:circle cx="60000000.000000" cy="50000000.000000" r="800000.000000"/> 
</svg:g>
<svg:g style="fill:#C83434; fill-opacity:1.0;  stroke:#C83434; stroke-width:21200.000000; stroke-opacity:1;  stroke-linecap:round; stroke-linejoin:round;">
</svg:g>
<svg:g>
</svg:g>
<svg:g>
</svg:g>
<svg:g>
</svg:g>
</svg:g>
<svg:g style="fill:#FFFFFF; fill-opacity:1.0;  stroke:#FFFFFF; stroke-width:21200.000000; stroke-opacity:1;  stroke-linecap:round; stroke-linejoin:round;">
</svg:g>
<svg:g style="fill:#FFFFFF; fill-opacity:1.0;  stroke:#FFFFFF; stroke-width:1.000000; stroke-opacity:1;  stroke-linecap:round; stroke-linejoin:round;">
<svg:circle cx="50000000.000000" cy="50000000.000000" r="400000.000000"/> 
</svg:g>
<svg:g style="fill:#FFFFFF; fill-opacity:1.0;  stroke:#FFFFFF; stroke-width:21200.000000; stroke-opacity:1;  stroke-linecap:round; stroke-linejoin:round;">
</svg:g>
<svg:g style="fill:#FFFFFF; fill-opacity:1.0;  stroke:#FFFFFF; stroke-width:1.000000; stroke-opacity:1;  stroke-linecap:round; stroke-linejoin:round;">
<svg:circle cx="60000000.000000" cy="50000000.000000" r="400000.000000"/> 
</svg:g>
<svg:g style="fill:#FFFFFF; fill-opacity:1.0;  stroke:#FFFFFF; stroke-width:21200.000000; stroke-opacity:1;  stroke-linecap:round; stroke-linejoin:round;">
</svg:g>
<svg:g style="fill:#000000; fill-opacity:1.0;  stroke:#000000; stroke-width:21200.000000; stroke-opacity:1;  stroke-linecap:round; stroke-linejoin:round;">
<svg:g>
</svg:g>
<svg:g>
</svg:g>
<svg:g>
</svg:g>
<svg:g>
</svg:g>
</svg:g> 
</svg:g><svg:g><svg:title>SVG Picture created as kicadBoard-F_Fab.svg date 2022/11/17 04:06:22 </svg:title>
  <svg:desc>Picture generated by PCBNEW </svg:desc>
<svg:g style="fill:#000000; fill-opacity:1.000000;stroke:#000000; stroke-opacity:1.000000; stroke-linecap:round; stroke-linejoin:round;" transform="translate(0 0) scale(1 1)">
</svg:g>
<svg:g style="fill:#000000; fill-opacity:0.0;  stroke:#000000; stroke-width:0.000000; stroke-opacity:1;  stroke-linecap:round; stroke-linejoin:round;">
</svg:g>
<svg:g style="fill:#AFAFAF; fill-opacity:0.0;  stroke:#AFAFAF; stroke-width:0.000000; stroke-opacity:1;  stroke-linecap:round; stroke-linejoin:round;">
</svg:g>
<svg:g style="fill:#AFAFAF; fill-opacity:0.0;  stroke:#AFAFAF; stroke-width:150000.000000; stroke-opacity:1;  stroke-linecap:round; stroke-linejoin:round;">
<svg:text x="55000000.000000" y="54350000.000000" textLength="32147381.000000" font-size="1333333.000000" lengthAdjust="spacingAndGlyphs" text-anchor="middle" opacity="0">C_Rect_L11.5mm_W5.2mm_P10.00mm_MKT</svg:text>
<svg:g class="stroked-text"><svg:desc>C_Rect_L11.5mm_W5.2mm_P10.00mm_MKT</svg:desc>
<svg:path d="M39833333 54207142 L39785714 54254761 L39642857 54302380 L39547619 54302380 L39404761 54254761 L39309523 54159523 L39261904 54064285 L39214285 53873809 L39214285 53730952 L39261904 53540476 L39309523 53445238 L39404761 53350000 L39547619 53302380 L39642857 53302380 L39785714 53350000 L39833333 53397619 "/>
<svg:path d="M40023809 54397619 L40785714 54397619 "/>
<svg:path d="M41595238 54302380 L41261904 53826190 "/>
<svg:path d="M41023809 54302380 L41023809 53302380 L41404761 53302380 L41500000 53350000 L41547619 53397619 L41595238 53492857 L41595238 53635714 L41547619 53730952 L41500000 53778571 L41404761 53826190 L41023809 53826190 "/>
<svg:path d="M42404761 54254761 L42309523 54302380 L42119047 54302380 L42023809 54254761 L41976190 54159523 L41976190 53778571 L42023809 53683333 L42119047 53635714 L42309523 53635714 L42404761 53683333 L42452380 53778571 L42452380 53873809 L41976190 53969047 "/>
<svg:path d="M43309523 54254761 L43214285 54302380 L43023809 54302380 L42928571 54254761 L42880952 54207142 L42833333 54111904 L42833333 53826190 L42880952 53730952 L42928571 53683333 L43023809 53635714 L43214285 53635714 L43309523 53683333 "/>
<svg:path d="M43595238 53635714 L43976190 53635714 "/>
<svg:path d="M43738095 53302380 L43738095 54159523 L43785714 54254761 L43880952 54302380 L43976190 54302380 "/>
<svg:path d="M44071428 54397619 L44833333 54397619 "/>
<svg:path d="M45547619 54302380 L45071428 54302380 L45071428 53302380 "/>
<svg:path d="M46404761 54302380 L45833333 54302380 "/>
<svg:path d="M46119047 54302380 L46119047 53302380 L46023809 53445238 L45928571 53540476 L45833333 53588095 "/>
<svg:path d="M47357142 54302380 L46785714 54302380 "/>
<svg:path d="M47071428 54302380 L47071428 53302380 L46976190 53445238 L46880952 53540476 L46785714 53588095 "/>
<svg:path d="M47785714 54207142 L47833333 54254761 L47785714 54302380 L47738095 54254761 L47785714 54207142 L47785714 54302380 "/>
<svg:path d="M48738095 53302380 L48261904 53302380 L48214285 53778571 L48261904 53730952 L48357142 53683333 L48595238 53683333 L48690476 53730952 L48738095 53778571 L48785714 53873809 L48785714 54111904 L48738095 54207142 L48690476 54254761 L48595238 54302380 L48357142 54302380 L48261904 54254761 L48214285 54207142 "/>
<svg:path d="M49214285 54302380 L49214285 53635714 "/>
<svg:path d="M49214285 53730952 L49261904 53683333 L49357142 53635714 L49500000 53635714 L49595238 53683333 L49642857 53778571 L49642857 54302380 "/>
<svg:path d="M49642857 53778571 L49690476 53683333 L49785714 53635714 L49928571 53635714 L50023809 53683333 L50071428 53778571 L50071428 54302380 "/>
<svg:path d="M50547619 54302380 L50547619 53635714 "/>
<svg:path d="M50547619 53730952 L50595238 53683333 L50690476 53635714 L50833333 53635714 L50928571 53683333 L50976190 53778571 L50976190 54302380 "/>
<svg:path d="M50976190 53778571 L51023809 53683333 L51119047 53635714 L51261904 53635714 L51357142 53683333 L51404761 53778571 L51404761 54302380 "/>
<svg:path d="M51642857 54397619 L52404761 54397619 "/>
<svg:path d="M52547619 53302380 L52785714 54302380 L52976190 53588095 L53166666 54302380 L53404761 53302380 "/>
<svg:path d="M54261904 53302380 L53785714 53302380 L53738095 53778571 L53785714 53730952 L53880952 53683333 L54119047 53683333 L54214285 53730952 L54261904 53778571 L54309523 53873809 L54309523 54111904 L54261904 54207142 L54214285 54254761 L54119047 54302380 L53880952 54302380 L53785714 54254761 L53738095 54207142 "/>
<svg:path d="M54738095 54207142 L54785714 54254761 L54738095 54302380 L54690476 54254761 L54738095 54207142 L54738095 54302380 "/>
<svg:path d="M55166666 53397619 L55214285 53350000 L55309523 53302380 L55547619 53302380 L55642857 53350000 L55690476 53397619 L55738095 53492857 L55738095 53588095 L55690476 53730952 L55119047 54302380 L55738095 54302380 "/>
<svg:path d="M56166666 54302380 L56166666 53635714 "/>
<svg:path d="M56166666 53730952 L56214285 53683333 L56309523 53635714 L56452380 53635714 L56547619 53683333 L56595238 53778571 L56595238 54302380 "/>
<svg:path d="M56595238 53778571 L56642857 53683333 L56738095 53635714 L56880952 53635714 L56976190 53683333 L57023809 53778571 L57023809 54302380 "/>
<svg:path d="M57500000 54302380 L57500000 53635714 "/>
<svg:path d="M57500000 53730952 L57547619 53683333 L57642857 53635714 L57785714 53635714 L57880952 53683333 L57928571 53778571 L57928571 54302380 "/>
<svg:path d="M57928571 53778571 L57976190 53683333 L58071428 53635714 L58214285 53635714 L58309523 53683333 L58357142 53778571 L58357142 54302380 "/>
<svg:path d="M58595238 54397619 L59357142 54397619 "/>
<svg:path d="M59595238 54302380 L59595238 53302380 L59976190 53302380 L60071428 53350000 L60119047 53397619 L60166666 53492857 L60166666 53635714 L60119047 53730952 L60071428 53778571 L59976190 53826190 L59595238 53826190 "/>
<svg:path d="M61119047 54302380 L60547619 54302380 "/>
<svg:path d="M60833333 54302380 L60833333 53302380 L60738095 53445238 L60642857 53540476 L60547619 53588095 "/>
<svg:path d="M61738095 53302380 L61833333 53302380 L61928571 53350000 L61976190 53397619 L62023809 53492857 L62071428 53683333 L62071428 53921428 L62023809 54111904 L61976190 54207142 L61928571 54254761 L61833333 54302380 L61738095 54302380 L61642857 54254761 L61595238 54207142 L61547619 54111904 L61499999 53921428 L61499999 53683333 L61547619 53492857 L61595238 53397619 L61642857 53350000 L61738095 53302380 "/>
<svg:path d="M62499999 54207142 L62547619 54254761 L62499999 54302380 L62452380 54254761 L62499999 54207142 L62499999 54302380 "/>
<svg:path d="M63166666 53302380 L63261904 53302380 L63357142 53350000 L63404761 53397619 L63452380 53492857 L63499999 53683333 L63499999 53921428 L63452380 54111904 L63404761 54207142 L63357142 54254761 L63261904 54302380 L63166666 54302380 L63071428 54254761 L63023809 54207142 L62976190 54111904 L62928571 53921428 L62928571 53683333 L62976190 53492857 L63023809 53397619 L63071428 53350000 L63166666 53302380 "/>
<svg:path d="M64119047 53302380 L64214285 53302380 L64309523 53350000 L64357142 53397619 L64404761 53492857 L64452380 53683333 L64452380 53921428 L64404761 54111904 L64357142 54207142 L64309523 54254761 L64214285 54302380 L64119047 54302380 L64023809 54254761 L63976190 54207142 L63928571 54111904 L63880952 53921428 L63880952 53683333 L63928571 53492857 L63976190 53397619 L64023809 53350000 L64119047 53302380 "/>
<svg:path d="M64880952 54302380 L64880952 53635714 "/>
<svg:path d="M64880952 53730952 L64928571 53683333 L65023809 53635714 L65166666 53635714 L65261904 53683333 L65309523 53778571 L65309523 54302380 "/>
<svg:path d="M65309523 53778571 L65357142 53683333 L65452380 53635714 L65595238 53635714 L65690476 53683333 L65738095 53778571 L65738095 54302380 "/>
<svg:path d="M66214285 54302380 L66214285 53635714 "/>
<svg:path d="M66214285 53730952 L66261904 53683333 L66357142 53635714 L66499999 53635714 L66595238 53683333 L66642857 53778571 L66642857 54302380 "/>
<svg:path d="M66642857 53778571 L66690476 53683333 L66785714 53635714 L66928571 53635714 L67023809 53683333 L67071428 53778571 L67071428 54302380 "/>
<svg:path d="M67309523 54397619 L68071428 54397619 "/>
<svg:path d="M68309523 54302380 L68309523 53302380 L68642857 54016666 L68976190 53302380 L68976190 54302380 "/>
<svg:path d="M69452380 54302380 L69452380 53302380 "/>
<svg:path d="M70023809 54302380 L69595238 53730952 "/>
<svg:path d="M70023809 53302380 L69452380 53873809 "/>
<svg:path d="M70309523 53302380 L70880952 53302380 "/>
<svg:path d="M70595238 54302380 L70595238 53302380 "/>
</svg:g><svg:text x="55000000.000000" y="50500000.000000" textLength="20242619.000000" font-size="1333333.000000" lengthAdjust="spacingAndGlyphs" text-anchor="middle" opacity="0">FZKCCRECTL115W52P1MKT</svg:text>
<svg:g class="stroked-text"><svg:desc>FZKCCRECTL115W52P1MKT</svg:desc>
<svg:path d="M45547619 49928571 L45214285 49928571 "/>
<svg:path d="M45214285 50452380 L45214285 49452380 L45690476 49452380 "/>
<svg:path d="M45976190 49452380 L46642857 49452380 L45976190 50452380 L46642857 50452380 "/>
<svg:path d="M47023809 50452380 L47023809 49452380 "/>
<svg:path d="M47595238 50452380 L47166666 49880952 "/>
<svg:path d="M47595238 49452380 L47023809 50023809 "/>
<svg:path d="M48595238 50357142 L48547619 50404761 L48404761 50452380 L48309523 50452380 L48166666 50404761 L48071428 50309523 L48023809 50214285 L47976190 50023809 L47976190 49880952 L48023809 49690476 L48071428 49595238 L48166666 49500000 L48309523 49452380 L48404761 49452380 L48547619 49500000 L48595238 49547619 "/>
<svg:path d="M49595238 50357142 L49547619 50404761 L49404761 50452380 L49309523 50452380 L49166666 50404761 L49071428 50309523 L49023809 50214285 L48976190 50023809 L48976190 49880952 L49023809 49690476 L49071428 49595238 L49166666 49500000 L49309523 49452380 L49404761 49452380 L49547619 49500000 L49595238 49547619 "/>
<svg:path d="M50595238 50452380 L50261904 49976190 "/>
<svg:path d="M50023809 50452380 L50023809 49452380 L50404761 49452380 L50500000 49500000 L50547619 49547619 L50595238 49642857 L50595238 49785714 L50547619 49880952 L50500000 49928571 L50404761 49976190 L50023809 49976190 "/>
<svg:path d="M51023809 49928571 L51357142 49928571 "/>
<svg:path d="M51500000 50452380 L51023809 50452380 L51023809 49452380 L51500000 49452380 "/>
<svg:path d="M52500000 50357142 L52452380 50404761 L52309523 50452380 L52214285 50452380 L52071428 50404761 L51976190 50309523 L51928571 50214285 L51880952 50023809 L51880952 49880952 L51928571 49690476 L51976190 49595238 L52071428 49500000 L52214285 49452380 L52309523 49452380 L52452380 49500000 L52500000 49547619 "/>
<svg:path d="M52785714 49452380 L53357142 49452380 "/>
<svg:path d="M53071428 50452380 L53071428 49452380 "/>
<svg:path d="M54166666 50452380 L53690476 50452380 L53690476 49452380 "/>
<svg:path d="M55023809 50452380 L54452380 50452380 "/>
<svg:path d="M54738095 50452380 L54738095 49452380 L54642857 49595238 L54547619 49690476 L54452380 49738095 "/>
<svg:path d="M55976190 50452380 L55404761 50452380 "/>
<svg:path d="M55690476 50452380 L55690476 49452380 L55595238 49595238 L55500000 49690476 L55404761 49738095 "/>
<svg:path d="M56880952 49452380 L56404761 49452380 L56357142 49928571 L56404761 49880952 L56500000 49833333 L56738095 49833333 L56833333 49880952 L56880952 49928571 L56928571 50023809 L56928571 50261904 L56880952 50357142 L56833333 50404761 L56738095 50452380 L56500000 50452380 L56404761 50404761 L56357142 50357142 "/>
<svg:path d="M57261904 49452380 L57500000 50452380 L57690476 49738095 L57880952 50452380 L58119047 49452380 "/>
<svg:path d="M58976190 49452380 L58500000 49452380 L58452380 49928571 L58500000 49880952 L58595238 49833333 L58833333 49833333 L58928571 49880952 L58976190 49928571 L59023809 50023809 L59023809 50261904 L58976190 50357142 L58928571 50404761 L58833333 50452380 L58595238 50452380 L58500000 50404761 L58452380 50357142 "/>
<svg:path d="M59404761 49547619 L59452380 49500000 L59547619 49452380 L59785714 49452380 L59880952 49500000 L59928571 49547619 L59976190 49642857 L59976190 49738095 L59928571 49880952 L59357142 50452380 L59976190 50452380 "/>
<svg:path d="M60404761 50452380 L60404761 49452380 L60785714 49452380 L60880952 49500000 L60928571 49547619 L60976190 49642857 L60976190 49785714 L60928571 49880952 L60880952 49928571 L60785714 49976190 L60404761 49976190 "/>
<svg:path d="M61928571 50452380 L61357142 50452380 "/>
<svg:path d="M61642857 50452380 L61642857 49452380 L61547619 49595238 L61452380 49690476 L61357142 49738095 "/>
<svg:path d="M62357142 50452380 L62357142 49452380 L62690476 50166666 L63023809 49452380 L63023809 50452380 "/>
<svg:path d="M63500000 50452380 L63500000 49452380 "/>
<svg:path d="M64071428 50452380 L63642857 49880952 "/>
<svg:path d="M64071428 49452380 L63500000 50023809 "/>
<svg:path d="M64357142 49452380 L64928571 49452380 "/>
<svg:path d="M64642857 50452380 L64642857 49452380 "/>
</svg:g></svg:g>
<svg:g style="fill:#AFAFAF; fill-opacity:0.0;  stroke:#AFAFAF; stroke-width:100000.000000; stroke-opacity:1;  stroke-linecap:round; stroke-linejoin:round;">
<svg:path d="M49250000 52600000 L60750000 52600000 "/>
<svg:path d="M60750000 47400000 L49250000 47400000 "/>
<svg:path d="M60750000 52600000 L60750000 47400000 "/>
<svg:path d="M49250000 47400000 L49250000 52600000 "/>
<svg:g>
</svg:g>
<svg:g>
</svg:g>
<svg:g>
</svg:g>
<svg:g>
</svg:g>
</svg:g>
<svg:g style="fill:#000000; fill-opacity:0.0;  stroke:#000000; stroke-width:100000.000000; stroke-opacity:1;  stroke-linecap:round; stroke-linejoin:round;">
<svg:g>
</svg:g>
<svg:g>
</svg:g>
<svg:g>
</svg:g>
<svg:g>
</svg:g>
</svg:g> 
</svg:g><svg:g><svg:title>SVG Picture created as kicadBoard-F_Mask.svg date 2022/11/17 04:06:22 </svg:title>
  <svg:desc>Picture generated by PCBNEW </svg:desc>
<svg:g style="fill:#000000; fill-opacity:1.000000;stroke:#000000; stroke-opacity:1.000000; stroke-linecap:round; stroke-linejoin:round;" transform="translate(0 0) scale(1 1)">
</svg:g>
<svg:g style="fill:#000000; fill-opacity:0.0;  stroke:#000000; stroke-width:0.000000; stroke-opacity:1;  stroke-linecap:round; stroke-linejoin:round;">
<svg:g>
</svg:g>
<svg:g style="fill:#000000; fill-opacity:1.0;  stroke:#000000; stroke-width:1.000000; stroke-opacity:1;  stroke-linecap:round; stroke-linejoin:round;">
<svg:circle cx="50000000.000000" cy="50000000.000000" r="800000.000000"/> 
</svg:g>
<svg:g style="fill:#000000; fill-opacity:1.0;  stroke:#000000; stroke-width:21200.000000; stroke-opacity:1;  stroke-linecap:round; stroke-linejoin:round;">
</svg:g>
<svg:g style="fill:#000000; fill-opacity:1.0;  stroke:#000000; stroke-width:1.000000; stroke-opacity:1;  stroke-linecap:round; stroke-linejoin:round;">
<svg:circle cx="60000000.000000" cy="50000000.000000" r="800000.000000"/> 
</svg:g>
<svg:g style="fill:#000000; fill-opacity:1.0;  stroke:#000000; stroke-width:21200.000000; stroke-opacity:1;  stroke-linecap:round; stroke-linejoin:round;">
</svg:g>
<svg:g>
</svg:g>
<svg:g>
</svg:g>
<svg:g>
</svg:g>
</svg:g>
<svg:g style="fill:#000000; fill-opacity:1.0;  stroke:#000000; stroke-width:21200.000000; stroke-opacity:1;  stroke-linecap:round; stroke-linejoin:round;">
<svg:g>
</svg:g>
<svg:g>
</svg:g>
<svg:g>
</svg:g>
<svg:g>
</svg:g>
</svg:g> 
</svg:g><svg:g><svg:title>SVG Picture created as kicadBoard-F_Paste.svg date 2022/11/17 04:06:22 </svg:title>
  <svg:desc>Picture generated by PCBNEW </svg:desc>
<svg:g style="fill:#000000; fill-opacity:1.000000;stroke:#000000; stroke-opacity:1.000000; stroke-linecap:round; stroke-linejoin:round;" transform="translate(0 0) scale(1 1)">
</svg:g>
<svg:g style="fill:#000000; fill-opacity:0.0;  stroke:#000000; stroke-width:0.000000; stroke-opacity:1;  stroke-linecap:round; stroke-linejoin:round;">
<svg:g>
</svg:g>
<svg:g>
</svg:g>
<svg:g>
</svg:g>
<svg:g>
</svg:g>
</svg:g>
<svg:g style="fill:#000000; fill-opacity:0.0;  stroke:#000000; stroke-width:0.000000; stroke-opacity:1;  stroke-linecap:round; stroke-linejoin:round;">
<svg:g>
</svg:g>
<svg:g>
</svg:g>
<svg:g>
</svg:g>
<svg:g>
</svg:g>
</svg:g> 
</svg:g><svg:g><svg:title>SVG Picture created as kicadBoard-F_Silkscreen.svg date 2022/11/17 04:06:22 </svg:title>
  <svg:desc>Picture generated by PCBNEW </svg:desc>
<svg:g style="fill:#000000; fill-opacity:1.000000;stroke:#000000; stroke-opacity:1.000000; stroke-linecap:round; stroke-linejoin:round;" transform="translate(0 0) scale(1 1)">
</svg:g>
<svg:g style="fill:#000000; fill-opacity:0.0;  stroke:#000000; stroke-width:0.000000; stroke-opacity:1;  stroke-linecap:round; stroke-linejoin:round;">
</svg:g>
<svg:g style="fill:#F2EDA1; fill-opacity:0.0;  stroke:#F2EDA1; stroke-width:0.000000; stroke-opacity:1;  stroke-linecap:round; stroke-linejoin:round;">
</svg:g>
<svg:g style="fill:#F2EDA1; fill-opacity:0.0;  stroke:#F2EDA1; stroke-width:150000.000000; stroke-opacity:1;  stroke-linecap:round; stroke-linejoin:round;">
<svg:text x="55000000.000000" y="46650000.000000" textLength="20047620.000000" font-size="1333333.000000" lengthAdjust="spacingAndGlyphs" text-anchor="middle" opacity="0">FZKCCRECTL115W52P1MKT</svg:text>
<svg:g class="stroked-text"><svg:desc>FZKCCRECTL115W52P1MKT</svg:desc>
<svg:path d="M45547619 46078571 L45214285 46078571 "/>
<svg:path d="M45214285 46602380 L45214285 45602380 L45690476 45602380 "/>
<svg:path d="M45976190 45602380 L46642857 45602380 L45976190 46602380 L46642857 46602380 "/>
<svg:path d="M47023809 46602380 L47023809 45602380 "/>
<svg:path d="M47595238 46602380 L47166666 46030952 "/>
<svg:path d="M47595238 45602380 L47023809 46173809 "/>
<svg:path d="M48595238 46507142 L48547619 46554761 L48404761 46602380 L48309523 46602380 L48166666 46554761 L48071428 46459523 L48023809 46364285 L47976190 46173809 L47976190 46030952 L48023809 45840476 L48071428 45745238 L48166666 45650000 L48309523 45602380 L48404761 45602380 L48547619 45650000 L48595238 45697619 "/>
<svg:path d="M49595238 46507142 L49547619 46554761 L49404761 46602380 L49309523 46602380 L49166666 46554761 L49071428 46459523 L49023809 46364285 L48976190 46173809 L48976190 46030952 L49023809 45840476 L49071428 45745238 L49166666 45650000 L49309523 45602380 L49404761 45602380 L49547619 45650000 L49595238 45697619 "/>
<svg:path d="M50595238 46602380 L50261904 46126190 "/>
<svg:path d="M50023809 46602380 L50023809 45602380 L50404761 45602380 L50500000 45650000 L50547619 45697619 L50595238 45792857 L50595238 45935714 L50547619 46030952 L50500000 46078571 L50404761 46126190 L50023809 46126190 "/>
<svg:path d="M51023809 46078571 L51357142 46078571 "/>
<svg:path d="M51500000 46602380 L51023809 46602380 L51023809 45602380 L51500000 45602380 "/>
<svg:path d="M52500000 46507142 L52452380 46554761 L52309523 46602380 L52214285 46602380 L52071428 46554761 L51976190 46459523 L51928571 46364285 L51880952 46173809 L51880952 46030952 L51928571 45840476 L51976190 45745238 L52071428 45650000 L52214285 45602380 L52309523 45602380 L52452380 45650000 L52500000 45697619 "/>
<svg:path d="M52785714 45602380 L53357142 45602380 "/>
<svg:path d="M53071428 46602380 L53071428 45602380 "/>
<svg:path d="M54166666 46602380 L53690476 46602380 L53690476 45602380 "/>
<svg:path d="M55023809 46602380 L54452380 46602380 "/>
<svg:path d="M54738095 46602380 L54738095 45602380 L54642857 45745238 L54547619 45840476 L54452380 45888095 "/>
<svg:path d="M55976190 46602380 L55404761 46602380 "/>
<svg:path d="M55690476 46602380 L55690476 45602380 L55595238 45745238 L55500000 45840476 L55404761 45888095 "/>
<svg:path d="M56880952 45602380 L56404761 45602380 L56357142 46078571 L56404761 46030952 L56500000 45983333 L56738095 45983333 L56833333 46030952 L56880952 46078571 L56928571 46173809 L56928571 46411904 L56880952 46507142 L56833333 46554761 L56738095 46602380 L56500000 46602380 L56404761 46554761 L56357142 46507142 "/>
<svg:path d="M57261904 45602380 L57500000 46602380 L57690476 45888095 L57880952 46602380 L58119047 45602380 "/>
<svg:path d="M58976190 45602380 L58500000 45602380 L58452380 46078571 L58500000 46030952 L58595238 45983333 L58833333 45983333 L58928571 46030952 L58976190 46078571 L59023809 46173809 L59023809 46411904 L58976190 46507142 L58928571 46554761 L58833333 46602380 L58595238 46602380 L58500000 46554761 L58452380 46507142 "/>
<svg:path d="M59404761 45697619 L59452380 45650000 L59547619 45602380 L59785714 45602380 L59880952 45650000 L59928571 45697619 L59976190 45792857 L59976190 45888095 L59928571 46030952 L59357142 46602380 L59976190 46602380 "/>
<svg:path d="M60404761 46602380 L60404761 45602380 L60785714 45602380 L60880952 45650000 L60928571 45697619 L60976190 45792857 L60976190 45935714 L60928571 46030952 L60880952 46078571 L60785714 46126190 L60404761 46126190 "/>
<svg:path d="M61928571 46602380 L61357142 46602380 "/>
<svg:path d="M61642857 46602380 L61642857 45602380 L61547619 45745238 L61452380 45840476 L61357142 45888095 "/>
<svg:path d="M62357142 46602380 L62357142 45602380 L62690476 46316666 L63023809 45602380 L63023809 46602380 "/>
<svg:path d="M63500000 46602380 L63500000 45602380 "/>
<svg:path d="M64071428 46602380 L63642857 46030952 "/>
<svg:path d="M64071428 45602380 L63500000 46173809 "/>
<svg:path d="M64357142 45602380 L64928571 45602380 "/>
<svg:path d="M64642857 46602380 L64642857 45602380 "/>
</svg:g></svg:g>
<svg:g style="fill:#F2EDA1; fill-opacity:0.0;  stroke:#F2EDA1; stroke-width:120000.000000; stroke-opacity:1;  stroke-linecap:round; stroke-linejoin:round;">
<svg:path d="M49130000 47280000 L49130000 49335000 "/>
<svg:path d="M49130000 52720000 L60870000 52720000 "/>
<svg:path d="M60870000 50665000 L60870000 52720000 "/>
<svg:path d="M49130000 50665000 L49130000 52720000 "/>
<svg:path d="M60870000 47280000 L60870000 49335000 "/>
<svg:path d="M49130000 47280000 L60870000 47280000 "/>
<svg:g>
</svg:g>
<svg:g>
</svg:g>
<svg:g>
</svg:g>
<svg:g>
</svg:g>
</svg:g>
<svg:g style="fill:#000000; fill-opacity:0.0;  stroke:#000000; stroke-width:120000.000000; stroke-opacity:1;  stroke-linecap:round; stroke-linejoin:round;">
<svg:g>
</svg:g>
<svg:g>
</svg:g>
<svg:g>
</svg:g>
<svg:g>
</svg:g>
</svg:g> 
</svg:g><svg:g><svg:title>SVG Picture created as kicadBoard-Margin.svg date 2022/11/17 04:06:22 </svg:title>
  <svg:desc>Picture generated by PCBNEW </svg:desc>
<svg:g style="fill:#000000; fill-opacity:1.000000;stroke:#000000; stroke-opacity:1.000000; stroke-linecap:round; stroke-linejoin:round;" transform="translate(0 0) scale(1 1)">
</svg:g>
<svg:g style="fill:#000000; fill-opacity:0.0;  stroke:#000000; stroke-width:0.000000; stroke-opacity:1;  stroke-linecap:round; stroke-linejoin:round;">
<svg:g>
</svg:g>
<svg:g>
</svg:g>
<svg:g>
</svg:g>
<svg:g>
</svg:g>
</svg:g>
<svg:g style="fill:#000000; fill-opacity:0.0;  stroke:#000000; stroke-width:0.000000; stroke-opacity:1;  stroke-linecap:round; stroke-linejoin:round;">
<svg:g>
</svg:g>
<svg:g>
</svg:g>
<svg:g>
</svg:g>
<svg:g>
</svg:g>
</svg:g> 
</svg:g><svg:g><svg:title>SVG Picture created as kicadBoard-F_Cu.svg date 2022/11/17 04:06:22 </svg:title>
  <svg:desc>Picture generated by PCBNEW </svg:desc>
<svg:g style="fill:#000000; fill-opacity:1.000000;stroke:#000000; stroke-opacity:1.000000; stroke-linecap:round; stroke-linejoin:round;" transform="translate(0 0) scale(1 1)">
</svg:g>
<svg:g style="fill:#000000; fill-opacity:0.0;  stroke:#000000; stroke-width:0.000000; stroke-opacity:1;  stroke-linecap:round; stroke-linejoin:round;">
<svg:g>
</svg:g>
<svg:g style="fill:#C83434; fill-opacity:0.0;  stroke:#C83434; stroke-width:0.000000; stroke-opacity:1;  stroke-linecap:round; stroke-linejoin:round;">
</svg:g>
<svg:g style="fill:#C83434; fill-opacity:1.0;  stroke:#C83434; stroke-width:1.000000; stroke-opacity:1;  stroke-linecap:round; stroke-linejoin:round;">
<svg:circle cx="50000000.000000" cy="50000000.000000" r="800000.000000"/> 
</svg:g>
<svg:g style="fill:#C83434; fill-opacity:1.0;  stroke:#C83434; stroke-width:21200.000000; stroke-opacity:1;  stroke-linecap:round; stroke-linejoin:round;">
</svg:g>
<svg:g style="fill:#C83434; fill-opacity:1.0;  stroke:#C83434; stroke-width:1.000000; stroke-opacity:1;  stroke-linecap:round; stroke-linejoin:round;">
<svg:circle cx="60000000.000000" cy="50000000.000000" r="800000.000000"/> 
</svg:g>
<svg:g style="fill:#C83434; fill-opacity:1.0;  stroke:#C83434; stroke-width:21200.000000; stroke-opacity:1;  stroke-linecap:round; stroke-linejoin:round;">
</svg:g>
<svg:g>
</svg:g>
<svg:g>
</svg:g>
<svg:g>
</svg:g>
</svg:g>
<svg:g style="fill:#FFFFFF; fill-opacity:1.0;  stroke:#FFFFFF; stroke-width:21200.000000; stroke-opacity:1;  stroke-linecap:round; stroke-linejoin:round;">
</svg:g>
<svg:g style="fill:#FFFFFF; fill-opacity:1.0;  stroke:#FFFFFF; stroke-width:1.000000; stroke-opacity:1;  stroke-linecap:round; stroke-linejoin:round;">
<svg:circle cx="50000000.000000" cy="50000000.000000" r="400000.000000"/> 
</svg:g>
<svg:g style="fill:#FFFFFF; fill-opacity:1.0;  stroke:#FFFFFF; stroke-width:21200.000000; stroke-opacity:1;  stroke-linecap:round; stroke-linejoin:round;">
</svg:g>
<svg:g style="fill:#FFFFFF; fill-opacity:1.0;  stroke:#FFFFFF; stroke-width:1.000000; stroke-opacity:1;  stroke-linecap:round; stroke-linejoin:round;">
<svg:circle cx="60000000.000000" cy="50000000.000000" r="400000.000000"/> 
</svg:g>
<svg:g style="fill:#FFFFFF; fill-opacity:1.0;  stroke:#FFFFFF; stroke-width:21200.000000; stroke-opacity:1;  stroke-linecap:round; stroke-linejoin:round;">
</svg:g>
<svg:g style="fill:#000000; fill-opacity:1.0;  stroke:#000000; stroke-width:21200.000000; stroke-opacity:1;  stroke-linecap:round; stroke-linejoin:round;">
<svg:g>
</svg:g>
<svg:g>
</svg:g>
<svg:g>
</svg:g>
<svg:g>
</svg:g>
</svg:g> 
</svg:g></svg>
