<?xml version='1.0' encoding='ASCII' standalone='yes'?>
<svg xmlns:svg="http://www.w3.org/2000/svg" xmlns="http://www.w3.org/2000/svg" xmlns:xlink="http://www.w3.org/1999/xlink" version="1.1" width="9.999980cm" height="9.999980cm" viewBox="0 0 99999800 99999800">
<title>SVG Picture created as kicadBoard-B_Cu.svg date 2022/12/05 03:21:23 </title>
  <desc>Picture generated by PCBNEW </desc>
<g style="fill:#000000; fill-opacity:1.000000;stroke:#000000; stroke-opacity:1.000000; stroke-linecap:round; stroke-linejoin:round;" transform="translate(0 0) scale(1 1)">
</g>
<g style="fill:#000000; fill-opacity:0.0;  stroke:#000000; stroke-width:0.000000; stroke-opacity:1;  stroke-linecap:round; stroke-linejoin:round;">
<g>
</g>
<g style="fill:#4D7FC4; fill-opacity:0.0;  stroke:#4D7FC4; stroke-width:0.000000; stroke-opacity:1;  stroke-linecap:round; stroke-linejoin:round;">
</g>
<g style="fill:#4D7FC4; fill-opacity:1.0;  stroke:#4D7FC4; stroke-width:1.000000; stroke-opacity:1;  stroke-linecap:round; stroke-linejoin:round;">
<circle cx="53500000.000000" cy="50000000.000000" r="650000.000000"/> 
</g>
<g style="fill:#4D7FC4; fill-opacity:1.0;  stroke:#4D7FC4; stroke-width:21200.000000; stroke-opacity:1;  stroke-linecap:round; stroke-linejoin:round;">
</g>
<g style="fill:#4D7FC4; fill-opacity:1.0;  stroke:#4D7FC4; stroke-width:1.000000; stroke-opacity:1;  stroke-linecap:round; stroke-linejoin:round;">
<circle cx="51000000.000000" cy="50000000.000000" r="650000.000000"/> 
</g>
<g style="fill:#4D7FC4; fill-opacity:1.0;  stroke:#4D7FC4; stroke-width:21200.000000; stroke-opacity:1;  stroke-linecap:round; stroke-linejoin:round;">
</g>
<g style="fill:#4D7FC4; fill-opacity:1.0;  stroke:#4D7FC4; stroke-width:1.000000; stroke-opacity:1;  stroke-linecap:round; stroke-linejoin:round;">
<circle cx="49000000.000000" cy="50000000.000000" r="650000.000000"/> 
</g>
<g style="fill:#4D7FC4; fill-opacity:1.0;  stroke:#4D7FC4; stroke-width:21200.000000; stroke-opacity:1;  stroke-linecap:round; stroke-linejoin:round;">
</g>
<g style="fill:#4D7FC4; fill-opacity:1.0;  stroke:#4D7FC4; stroke-width:1.000000; stroke-opacity:1;  stroke-linecap:round; stroke-linejoin:round;">
<circle cx="46500000.000000" cy="50000000.000000" r="650000.000000"/> 
</g>
<g style="fill:#4D7FC4; fill-opacity:1.0;  stroke:#4D7FC4; stroke-width:21200.000000; stroke-opacity:1;  stroke-linecap:round; stroke-linejoin:round;">
</g>
<g style="fill:#4D7FC4; fill-opacity:1.0;  stroke:#4D7FC4; stroke-width:1.000000; stroke-opacity:1;  stroke-linecap:round; stroke-linejoin:round;">
<circle cx="43430000.000000" cy="47290000.000000" r="1400000.000000"/> 
</g>
<g style="fill:#4D7FC4; fill-opacity:1.0;  stroke:#4D7FC4; stroke-width:21200.000000; stroke-opacity:1;  stroke-linecap:round; stroke-linejoin:round;">
</g>
<g style="fill:#4D7FC4; fill-opacity:1.0;  stroke:#4D7FC4; stroke-width:1.000000; stroke-opacity:1;  stroke-linecap:round; stroke-linejoin:round;">
<circle cx="56570000.000000" cy="47290000.000000" r="1400000.000000"/> 
</g>
<g style="fill:#4D7FC4; fill-opacity:1.0;  stroke:#4D7FC4; stroke-width:21200.000000; stroke-opacity:1;  stroke-linecap:round; stroke-linejoin:round;">
</g>
<g>
</g>
<g>
</g>
<g>
</g>
</g>
<g style="fill:#FFFFFF; fill-opacity:1.0;  stroke:#FFFFFF; stroke-width:21200.000000; stroke-opacity:1;  stroke-linecap:round; stroke-linejoin:round;">
</g>
<g style="fill:#FFFFFF; fill-opacity:1.0;  stroke:#FFFFFF; stroke-width:1.000000; stroke-opacity:1;  stroke-linecap:round; stroke-linejoin:round;">
<circle cx="53500000.000000" cy="50000000.000000" r="450000.000000"/> 
</g>
<g style="fill:#FFFFFF; fill-opacity:1.0;  stroke:#FFFFFF; stroke-width:21200.000000; stroke-opacity:1;  stroke-linecap:round; stroke-linejoin:round;">
</g>
<g style="fill:#FFFFFF; fill-opacity:1.0;  stroke:#FFFFFF; stroke-width:1.000000; stroke-opacity:1;  stroke-linecap:round; stroke-linejoin:round;">
<circle cx="51000000.000000" cy="50000000.000000" r="450000.000000"/> 
</g>
<g style="fill:#FFFFFF; fill-opacity:1.0;  stroke:#FFFFFF; stroke-width:21200.000000; stroke-opacity:1;  stroke-linecap:round; stroke-linejoin:round;">
</g>
<g style="fill:#FFFFFF; fill-opacity:1.0;  stroke:#FFFFFF; stroke-width:1.000000; stroke-opacity:1;  stroke-linecap:round; stroke-linejoin:round;">
<circle cx="49000000.000000" cy="50000000.000000" r="450000.000000"/> 
</g>
<g style="fill:#FFFFFF; fill-opacity:1.0;  stroke:#FFFFFF; stroke-width:21200.000000; stroke-opacity:1;  stroke-linecap:round; stroke-linejoin:round;">
</g>
<g style="fill:#FFFFFF; fill-opacity:1.0;  stroke:#FFFFFF; stroke-width:1.000000; stroke-opacity:1;  stroke-linecap:round; stroke-linejoin:round;">
<circle cx="46500000.000000" cy="50000000.000000" r="450000.000000"/> 
</g>
<g style="fill:#FFFFFF; fill-opacity:1.0;  stroke:#FFFFFF; stroke-width:21200.000000; stroke-opacity:1;  stroke-linecap:round; stroke-linejoin:round;">
</g>
<g style="fill:#FFFFFF; fill-opacity:1.0;  stroke:#FFFFFF; stroke-width:1.000000; stroke-opacity:1;  stroke-linecap:round; stroke-linejoin:round;">
<circle cx="43430000.000000" cy="47290000.000000" r="1150000.000000"/> 
</g>
<g style="fill:#FFFFFF; fill-opacity:1.0;  stroke:#FFFFFF; stroke-width:21200.000000; stroke-opacity:1;  stroke-linecap:round; stroke-linejoin:round;">
</g>
<g style="fill:#FFFFFF; fill-opacity:1.0;  stroke:#FFFFFF; stroke-width:1.000000; stroke-opacity:1;  stroke-linecap:round; stroke-linejoin:round;">
<circle cx="56570000.000000" cy="47290000.000000" r="1150000.000000"/> 
</g>
<g style="fill:#FFFFFF; fill-opacity:1.0;  stroke:#FFFFFF; stroke-width:21200.000000; stroke-opacity:1;  stroke-linecap:round; stroke-linejoin:round;">
</g>
<g style="fill:#000000; fill-opacity:1.0;  stroke:#000000; stroke-width:21200.000000; stroke-opacity:1;  stroke-linecap:round; stroke-linejoin:round;">
<g>
</g>
<g>
</g>
<g>
</g>
<g>
</g>
</g> 
<svg:g><svg:title>SVG Picture created as kicadBoard-B_Adhesive.svg date 2022/12/05 03:21:23 </svg:title>
  <svg:desc>Picture generated by PCBNEW </svg:desc>
<svg:g style="fill:#000000; fill-opacity:1.000000;stroke:#000000; stroke-opacity:1.000000; stroke-linecap:round; stroke-linejoin:round;" transform="translate(0 0) scale(1 1)">
</svg:g>
<svg:g style="fill:#000000; fill-opacity:0.0;  stroke:#000000; stroke-width:0.000000; stroke-opacity:1;  stroke-linecap:round; stroke-linejoin:round;">
<svg:g>
</svg:g>
<svg:g>
</svg:g>
<svg:g>
</svg:g>
<svg:g>
</svg:g>
</svg:g>
<svg:g style="fill:#000000; fill-opacity:0.0;  stroke:#000000; stroke-width:0.000000; stroke-opacity:1;  stroke-linecap:round; stroke-linejoin:round;">
<svg:g>
</svg:g>
<svg:g>
</svg:g>
<svg:g>
</svg:g>
<svg:g>
</svg:g>
</svg:g> 
</svg:g><svg:g><svg:title>SVG Picture created as kicadBoard-B_Courtyard.svg date 2022/12/05 03:21:23 </svg:title>
  <svg:desc>Picture generated by PCBNEW </svg:desc>
<svg:g style="fill:#000000; fill-opacity:1.000000;stroke:#000000; stroke-opacity:1.000000; stroke-linecap:round; stroke-linejoin:round;" transform="translate(0 0) scale(1 1)">
</svg:g>
<svg:g style="fill:#000000; fill-opacity:0.0;  stroke:#000000; stroke-width:0.000000; stroke-opacity:1;  stroke-linecap:round; stroke-linejoin:round;">
<svg:g>
</svg:g>
<svg:g>
</svg:g>
<svg:g>
</svg:g>
<svg:g>
</svg:g>
</svg:g>
<svg:g style="fill:#000000; fill-opacity:0.0;  stroke:#000000; stroke-width:0.000000; stroke-opacity:1;  stroke-linecap:round; stroke-linejoin:round;">
<svg:g>
</svg:g>
<svg:g>
</svg:g>
<svg:g>
</svg:g>
<svg:g>
</svg:g>
</svg:g> 
</svg:g><svg:g><svg:title>SVG Picture created as kicadBoard-B_Fab.svg date 2022/12/05 03:21:23 </svg:title>
  <svg:desc>Picture generated by PCBNEW </svg:desc>
<svg:g style="fill:#000000; fill-opacity:1.000000;stroke:#000000; stroke-opacity:1.000000; stroke-linecap:round; stroke-linejoin:round;" transform="translate(0 0) scale(1 1)">
</svg:g>
<svg:g style="fill:#000000; fill-opacity:0.0;  stroke:#000000; stroke-width:0.000000; stroke-opacity:1;  stroke-linecap:round; stroke-linejoin:round;">
<svg:g>
</svg:g>
<svg:g>
</svg:g>
<svg:g>
</svg:g>
<svg:g>
</svg:g>
</svg:g>
<svg:g style="fill:#000000; fill-opacity:0.0;  stroke:#000000; stroke-width:0.000000; stroke-opacity:1;  stroke-linecap:round; stroke-linejoin:round;">
<svg:g>
</svg:g>
<svg:g>
</svg:g>
<svg:g>
</svg:g>
<svg:g>
</svg:g>
</svg:g> 
</svg:g><svg:g><svg:title>SVG Picture created as kicadBoard-B_Mask.svg date 2022/12/05 03:21:23 </svg:title>
  <svg:desc>Picture generated by PCBNEW </svg:desc>
<svg:g style="fill:#000000; fill-opacity:1.000000;stroke:#000000; stroke-opacity:1.000000; stroke-linecap:round; stroke-linejoin:round;" transform="translate(0 0) scale(1 1)">
</svg:g>
<svg:g style="fill:#000000; fill-opacity:0.0;  stroke:#000000; stroke-width:0.000000; stroke-opacity:1;  stroke-linecap:round; stroke-linejoin:round;">
<svg:g>
</svg:g>
<svg:g style="fill:#000000; fill-opacity:1.0;  stroke:#000000; stroke-width:1.000000; stroke-opacity:1;  stroke-linecap:round; stroke-linejoin:round;">
<svg:circle cx="53500000.000000" cy="50000000.000000" r="751600.000000"/> 
</svg:g>
<svg:g style="fill:#000000; fill-opacity:1.0;  stroke:#000000; stroke-width:21200.000000; stroke-opacity:1;  stroke-linecap:round; stroke-linejoin:round;">
</svg:g>
<svg:g style="fill:#000000; fill-opacity:1.0;  stroke:#000000; stroke-width:1.000000; stroke-opacity:1;  stroke-linecap:round; stroke-linejoin:round;">
<svg:circle cx="51000000.000000" cy="50000000.000000" r="751600.000000"/> 
</svg:g>
<svg:g style="fill:#000000; fill-opacity:1.0;  stroke:#000000; stroke-width:21200.000000; stroke-opacity:1;  stroke-linecap:round; stroke-linejoin:round;">
</svg:g>
<svg:g style="fill:#000000; fill-opacity:1.0;  stroke:#000000; stroke-width:1.000000; stroke-opacity:1;  stroke-linecap:round; stroke-linejoin:round;">
<svg:circle cx="49000000.000000" cy="50000000.000000" r="751600.000000"/> 
</svg:g>
<svg:g style="fill:#000000; fill-opacity:1.0;  stroke:#000000; stroke-width:21200.000000; stroke-opacity:1;  stroke-linecap:round; stroke-linejoin:round;">
</svg:g>
<svg:g style="fill:#000000; fill-opacity:1.0;  stroke:#000000; stroke-width:1.000000; stroke-opacity:1;  stroke-linecap:round; stroke-linejoin:round;">
<svg:circle cx="46500000.000000" cy="50000000.000000" r="751600.000000"/> 
</svg:g>
<svg:g style="fill:#000000; fill-opacity:1.0;  stroke:#000000; stroke-width:21200.000000; stroke-opacity:1;  stroke-linecap:round; stroke-linejoin:round;">
</svg:g>
<svg:g style="fill:#000000; fill-opacity:1.0;  stroke:#000000; stroke-width:1.000000; stroke-opacity:1;  stroke-linecap:round; stroke-linejoin:round;">
<svg:circle cx="43430000.000000" cy="47290000.000000" r="1501600.000000"/> 
</svg:g>
<svg:g style="fill:#000000; fill-opacity:1.0;  stroke:#000000; stroke-width:21200.000000; stroke-opacity:1;  stroke-linecap:round; stroke-linejoin:round;">
</svg:g>
<svg:g style="fill:#000000; fill-opacity:1.0;  stroke:#000000; stroke-width:1.000000; stroke-opacity:1;  stroke-linecap:round; stroke-linejoin:round;">
<svg:circle cx="56570000.000000" cy="47290000.000000" r="1501600.000000"/> 
</svg:g>
<svg:g style="fill:#000000; fill-opacity:1.0;  stroke:#000000; stroke-width:21200.000000; stroke-opacity:1;  stroke-linecap:round; stroke-linejoin:round;">
</svg:g>
<svg:g>
</svg:g>
<svg:g>
</svg:g>
<svg:g>
</svg:g>
</svg:g>
<svg:g style="fill:#000000; fill-opacity:1.0;  stroke:#000000; stroke-width:21200.000000; stroke-opacity:1;  stroke-linecap:round; stroke-linejoin:round;">
<svg:g>
</svg:g>
<svg:g>
</svg:g>
<svg:g>
</svg:g>
<svg:g>
</svg:g>
</svg:g> 
</svg:g><svg:g><svg:title>SVG Picture created as kicadBoard-B_Paste.svg date 2022/12/05 03:21:23 </svg:title>
  <svg:desc>Picture generated by PCBNEW </svg:desc>
<svg:g style="fill:#000000; fill-opacity:1.000000;stroke:#000000; stroke-opacity:1.000000; stroke-linecap:round; stroke-linejoin:round;" transform="translate(0 0) scale(1 1)">
</svg:g>
<svg:g style="fill:#000000; fill-opacity:0.0;  stroke:#000000; stroke-width:0.000000; stroke-opacity:1;  stroke-linecap:round; stroke-linejoin:round;">
<svg:g>
</svg:g>
<svg:g>
</svg:g>
<svg:g>
</svg:g>
<svg:g>
</svg:g>
</svg:g>
<svg:g style="fill:#000000; fill-opacity:0.0;  stroke:#000000; stroke-width:0.000000; stroke-opacity:1;  stroke-linecap:round; stroke-linejoin:round;">
<svg:g>
</svg:g>
<svg:g>
</svg:g>
<svg:g>
</svg:g>
<svg:g>
</svg:g>
</svg:g> 
</svg:g><svg:g><svg:title>SVG Picture created as kicadBoard-B_Silkscreen.svg date 2022/12/05 03:21:23 </svg:title>
  <svg:desc>Picture generated by PCBNEW </svg:desc>
<svg:g style="fill:#000000; fill-opacity:1.000000;stroke:#000000; stroke-opacity:1.000000; stroke-linecap:round; stroke-linejoin:round;" transform="translate(0 0) scale(1 1)">
</svg:g>
<svg:g style="fill:#000000; fill-opacity:0.0;  stroke:#000000; stroke-width:0.000000; stroke-opacity:1;  stroke-linecap:round; stroke-linejoin:round;">
<svg:g>
</svg:g>
<svg:g>
</svg:g>
<svg:g>
</svg:g>
<svg:g>
</svg:g>
</svg:g>
<svg:g style="fill:#000000; fill-opacity:0.0;  stroke:#000000; stroke-width:0.000000; stroke-opacity:1;  stroke-linecap:round; stroke-linejoin:round;">
<svg:g>
</svg:g>
<svg:g>
</svg:g>
<svg:g>
</svg:g>
<svg:g>
</svg:g>
</svg:g> 
</svg:g><svg:g><svg:title>SVG Picture created as kicadBoard-Edge_Cuts.svg date 2022/12/05 03:21:23 </svg:title>
  <svg:desc>Picture generated by PCBNEW </svg:desc>
<svg:g style="fill:#000000; fill-opacity:1.000000;stroke:#000000; stroke-opacity:1.000000; stroke-linecap:round; stroke-linejoin:round;" transform="translate(0 0) scale(1 1)">
</svg:g>
<svg:g style="fill:#000000; fill-opacity:0.0;  stroke:#000000; stroke-width:0.000000; stroke-opacity:1;  stroke-linecap:round; stroke-linejoin:round;">
<svg:g>
</svg:g>
<svg:g>
</svg:g>
<svg:g>
</svg:g>
<svg:g>
</svg:g>
</svg:g> 
</svg:g><svg:g><svg:title>SVG Picture created as kicadBoard-F_Adhesive.svg date 2022/12/05 03:21:23 </svg:title>
  <svg:desc>Picture generated by PCBNEW </svg:desc>
<svg:g style="fill:#000000; fill-opacity:1.000000;stroke:#000000; stroke-opacity:1.000000; stroke-linecap:round; stroke-linejoin:round;" transform="translate(0 0) scale(1 1)">
</svg:g>
<svg:g style="fill:#000000; fill-opacity:0.0;  stroke:#000000; stroke-width:0.000000; stroke-opacity:1;  stroke-linecap:round; stroke-linejoin:round;">
<svg:g>
</svg:g>
<svg:g>
</svg:g>
<svg:g>
</svg:g>
<svg:g>
</svg:g>
</svg:g>
<svg:g style="fill:#000000; fill-opacity:0.0;  stroke:#000000; stroke-width:0.000000; stroke-opacity:1;  stroke-linecap:round; stroke-linejoin:round;">
<svg:g>
</svg:g>
<svg:g>
</svg:g>
<svg:g>
</svg:g>
<svg:g>
</svg:g>
</svg:g> 
</svg:g><svg:g><svg:title>SVG Picture created as kicadBoard-F_Courtyard.svg date 2022/12/05 03:21:23 </svg:title>
  <svg:desc>Picture generated by PCBNEW </svg:desc>
<svg:g style="fill:#000000; fill-opacity:1.000000;stroke:#000000; stroke-opacity:1.000000; stroke-linecap:round; stroke-linejoin:round;" transform="translate(0 0) scale(1 1)">
</svg:g>
<svg:g style="fill:#000000; fill-opacity:0.0;  stroke:#000000; stroke-width:0.000000; stroke-opacity:1;  stroke-linecap:round; stroke-linejoin:round;">
<svg:g>
</svg:g>
<svg:g>
</svg:g>
<svg:g>
</svg:g>
<svg:g>
</svg:g>
</svg:g>
<svg:g style="fill:#000000; fill-opacity:0.0;  stroke:#000000; stroke-width:0.000000; stroke-opacity:1;  stroke-linecap:round; stroke-linejoin:round;">
<svg:g>
</svg:g>
<svg:g>
</svg:g>
<svg:g>
</svg:g>
<svg:g>
</svg:g>
</svg:g> 
</svg:g><svg:g><svg:title>SVG Picture created as kicadBoard-F_Cu.svg date 2022/12/05 03:21:23 </svg:title>
  <svg:desc>Picture generated by PCBNEW </svg:desc>
<svg:g style="fill:#000000; fill-opacity:1.000000;stroke:#000000; stroke-opacity:1.000000; stroke-linecap:round; stroke-linejoin:round;" transform="translate(0 0) scale(1 1)">
</svg:g>
<svg:g style="fill:#000000; fill-opacity:0.0;  stroke:#000000; stroke-width:0.000000; stroke-opacity:1;  stroke-linecap:round; stroke-linejoin:round;">
<svg:g>
</svg:g>
<svg:g style="fill:#C83434; fill-opacity:0.0;  stroke:#C83434; stroke-width:0.000000; stroke-opacity:1;  stroke-linecap:round; stroke-linejoin:round;">
</svg:g>
<svg:g style="fill:#C83434; fill-opacity:1.0;  stroke:#C83434; stroke-width:1.000000; stroke-opacity:1;  stroke-linecap:round; stroke-linejoin:round;">
<svg:circle cx="53500000.000000" cy="50000000.000000" r="650000.000000"/> 
</svg:g>
<svg:g style="fill:#C83434; fill-opacity:1.0;  stroke:#C83434; stroke-width:21200.000000; stroke-opacity:1;  stroke-linecap:round; stroke-linejoin:round;">
</svg:g>
<svg:g style="fill:#C83434; fill-opacity:1.0;  stroke:#C83434; stroke-width:1.000000; stroke-opacity:1;  stroke-linecap:round; stroke-linejoin:round;">
<svg:circle cx="51000000.000000" cy="50000000.000000" r="650000.000000"/> 
</svg:g>
<svg:g style="fill:#C83434; fill-opacity:1.0;  stroke:#C83434; stroke-width:21200.000000; stroke-opacity:1;  stroke-linecap:round; stroke-linejoin:round;">
</svg:g>
<svg:g style="fill:#C83434; fill-opacity:1.0;  stroke:#C83434; stroke-width:1.000000; stroke-opacity:1;  stroke-linecap:round; stroke-linejoin:round;">
<svg:circle cx="49000000.000000" cy="50000000.000000" r="650000.000000"/> 
</svg:g>
<svg:g style="fill:#C83434; fill-opacity:1.0;  stroke:#C83434; stroke-width:21200.000000; stroke-opacity:1;  stroke-linecap:round; stroke-linejoin:round;">
</svg:g>
<svg:g style="fill:#C83434; fill-opacity:1.0;  stroke:#C83434; stroke-width:1.000000; stroke-opacity:1;  stroke-linecap:round; stroke-linejoin:round;">
<svg:circle cx="46500000.000000" cy="50000000.000000" r="650000.000000"/> 
</svg:g>
<svg:g style="fill:#C83434; fill-opacity:1.0;  stroke:#C83434; stroke-width:21200.000000; stroke-opacity:1;  stroke-linecap:round; stroke-linejoin:round;">
</svg:g>
<svg:g style="fill:#C83434; fill-opacity:1.0;  stroke:#C83434; stroke-width:1.000000; stroke-opacity:1;  stroke-linecap:round; stroke-linejoin:round;">
<svg:circle cx="43430000.000000" cy="47290000.000000" r="1400000.000000"/> 
</svg:g>
<svg:g style="fill:#C83434; fill-opacity:1.0;  stroke:#C83434; stroke-width:21200.000000; stroke-opacity:1;  stroke-linecap:round; stroke-linejoin:round;">
</svg:g>
<svg:g style="fill:#C83434; fill-opacity:1.0;  stroke:#C83434; stroke-width:1.000000; stroke-opacity:1;  stroke-linecap:round; stroke-linejoin:round;">
<svg:circle cx="56570000.000000" cy="47290000.000000" r="1400000.000000"/> 
</svg:g>
<svg:g style="fill:#C83434; fill-opacity:1.0;  stroke:#C83434; stroke-width:21200.000000; stroke-opacity:1;  stroke-linecap:round; stroke-linejoin:round;">
</svg:g>
<svg:g>
</svg:g>
<svg:g>
</svg:g>
<svg:g>
</svg:g>
</svg:g>
<svg:g style="fill:#FFFFFF; fill-opacity:1.0;  stroke:#FFFFFF; stroke-width:21200.000000; stroke-opacity:1;  stroke-linecap:round; stroke-linejoin:round;">
</svg:g>
<svg:g style="fill:#FFFFFF; fill-opacity:1.0;  stroke:#FFFFFF; stroke-width:1.000000; stroke-opacity:1;  stroke-linecap:round; stroke-linejoin:round;">
<svg:circle cx="53500000.000000" cy="50000000.000000" r="450000.000000"/> 
</svg:g>
<svg:g style="fill:#FFFFFF; fill-opacity:1.0;  stroke:#FFFFFF; stroke-width:21200.000000; stroke-opacity:1;  stroke-linecap:round; stroke-linejoin:round;">
</svg:g>
<svg:g style="fill:#FFFFFF; fill-opacity:1.0;  stroke:#FFFFFF; stroke-width:1.000000; stroke-opacity:1;  stroke-linecap:round; stroke-linejoin:round;">
<svg:circle cx="51000000.000000" cy="50000000.000000" r="450000.000000"/> 
</svg:g>
<svg:g style="fill:#FFFFFF; fill-opacity:1.0;  stroke:#FFFFFF; stroke-width:21200.000000; stroke-opacity:1;  stroke-linecap:round; stroke-linejoin:round;">
</svg:g>
<svg:g style="fill:#FFFFFF; fill-opacity:1.0;  stroke:#FFFFFF; stroke-width:1.000000; stroke-opacity:1;  stroke-linecap:round; stroke-linejoin:round;">
<svg:circle cx="49000000.000000" cy="50000000.000000" r="450000.000000"/> 
</svg:g>
<svg:g style="fill:#FFFFFF; fill-opacity:1.0;  stroke:#FFFFFF; stroke-width:21200.000000; stroke-opacity:1;  stroke-linecap:round; stroke-linejoin:round;">
</svg:g>
<svg:g style="fill:#FFFFFF; fill-opacity:1.0;  stroke:#FFFFFF; stroke-width:1.000000; stroke-opacity:1;  stroke-linecap:round; stroke-linejoin:round;">
<svg:circle cx="46500000.000000" cy="50000000.000000" r="450000.000000"/> 
</svg:g>
<svg:g style="fill:#FFFFFF; fill-opacity:1.0;  stroke:#FFFFFF; stroke-width:21200.000000; stroke-opacity:1;  stroke-linecap:round; stroke-linejoin:round;">
</svg:g>
<svg:g style="fill:#FFFFFF; fill-opacity:1.0;  stroke:#FFFFFF; stroke-width:1.000000; stroke-opacity:1;  stroke-linecap:round; stroke-linejoin:round;">
<svg:circle cx="43430000.000000" cy="47290000.000000" r="1150000.000000"/> 
</svg:g>
<svg:g style="fill:#FFFFFF; fill-opacity:1.0;  stroke:#FFFFFF; stroke-width:21200.000000; stroke-opacity:1;  stroke-linecap:round; stroke-linejoin:round;">
</svg:g>
<svg:g style="fill:#FFFFFF; fill-opacity:1.0;  stroke:#FFFFFF; stroke-width:1.000000; stroke-opacity:1;  stroke-linecap:round; stroke-linejoin:round;">
<svg:circle cx="56570000.000000" cy="47290000.000000" r="1150000.000000"/> 
</svg:g>
<svg:g style="fill:#FFFFFF; fill-opacity:1.0;  stroke:#FFFFFF; stroke-width:21200.000000; stroke-opacity:1;  stroke-linecap:round; stroke-linejoin:round;">
</svg:g>
<svg:g style="fill:#000000; fill-opacity:1.0;  stroke:#000000; stroke-width:21200.000000; stroke-opacity:1;  stroke-linecap:round; stroke-linejoin:round;">
<svg:g>
</svg:g>
<svg:g>
</svg:g>
<svg:g>
</svg:g>
<svg:g>
</svg:g>
</svg:g> 
</svg:g><svg:g><svg:title>SVG Picture created as kicadBoard-F_Fab.svg date 2022/12/05 03:21:23 </svg:title>
  <svg:desc>Picture generated by PCBNEW </svg:desc>
<svg:g style="fill:#000000; fill-opacity:1.000000;stroke:#000000; stroke-opacity:1.000000; stroke-linecap:round; stroke-linejoin:round;" transform="translate(0 0) scale(1 1)">
</svg:g>
<svg:g style="fill:#000000; fill-opacity:0.0;  stroke:#000000; stroke-width:0.000000; stroke-opacity:1;  stroke-linecap:round; stroke-linejoin:round;">
</svg:g>
<svg:g style="fill:#AFAFAF; fill-opacity:0.0;  stroke:#AFAFAF; stroke-width:0.000000; stroke-opacity:1;  stroke-linecap:round; stroke-linejoin:round;">
</svg:g>
<svg:g style="fill:#AFAFAF; fill-opacity:0.0;  stroke:#AFAFAF; stroke-width:101600.000000; stroke-opacity:1;  stroke-linecap:round; stroke-linejoin:round;">
<svg:text x="41910400.000000" y="54260200.000000" textLength="6808651.000000" font-size="1557866.000000" lengthAdjust="spacingAndGlyphs" text-anchor="start" opacity="0">&gt;VALUE</svg:text>
<svg:g class="stroked-text"><svg:desc>&gt;VALUE</svg:desc>
<svg:path d="M42254630 53425628 L43144840 53759457 L42254630 54093285 "/>
<svg:path d="M43534306 53036161 L43923773 54204561 L44313240 53036161 "/>
<svg:path d="M44647068 53870733 L45203449 53870733 "/>
<svg:path d="M44535792 54204561 L44925259 53036161 L45314725 54204561 "/>
<svg:path d="M46260573 54204561 L45704192 54204561 L45704192 53036161 "/>
<svg:path d="M46650040 53036161 L46650040 53982009 L46705678 54093285 L46761316 54148923 L46872592 54204561 L47095144 54204561 L47206420 54148923 L47262059 54093285 L47317697 53982009 L47317697 53036161 "/>
<svg:path d="M47874078 53592542 L48263544 53592542 "/>
<svg:path d="M48430459 54204561 L47874078 54204561 L47874078 53036161 L48430459 53036161 "/>
</svg:g><svg:path d="M43788800 46851600 L43017700 46851600 "/>
<svg:path d="M55011800 50085700 L44988200 50085700 "/>
<svg:path d="M55911400 48243700 L56168400 47986700 "/>
<svg:path d="M44088600 48200900 L44088600 49336000 "/>
<svg:path d="M57003800 46851600 L56211200 46851600 "/>
<svg:path d="M54969000 50599700 L45116700 50599700 "/>
<svg:path d="M55568700 46209000 L55997000 46209000 "/>
<svg:path d="M55911400 49293200 L55911400 48243700 "/>
<svg:path d="M42825000 47044300 L42825000 50492600 "/>
<svg:path d="M43788800 50706800 L43788800 47922500 "/>
<svg:path d="M43788800 47922500 L43788800 46444600 "/>
<svg:path d="M56596700 46830100 L56596700 46294700 "/>
<svg:path d="M56125500 45823500 L55611500 45823500 "/>
<svg:path d="M43938700 45823500 L44452700 45823500 "/>
<svg:path d="M43788800 47922500 L44088600 48200900 "/>
<svg:path d="M57217900 50428300 L57217900 47065700 "/>
<svg:path d="M56189800 46401800 L56189800 51135200 "/>
<svg:path d="M44003000 46230400 L44452700 46230400 "/>
<svg:path d="M43381800 46851600 L43381800 46380400 "/>
<svg:path d="M56596700.000000 46294700.000000 A471200.000000 471200.000000 0.0 0 0 56125500.000000 45823500.000000"/>
<svg:path d="M56189800.000000 46401800.000000 A192800.000000 192800.000000 0.0 0 0 55997000.000000 46209000.000000"/>
<svg:path d="M44003000.000000 46230400.000002 A214201.000000 214201.000000 0.0 0 0 43788800.000002 46444600.000000"/>
<svg:path d="M57217900.000000 47065700.000000 A214100.000000 214100.000000 0.0 0 0 57003800.000000 46851600.000000"/>
<svg:path d="M43017700.000000 46851600.000010 A192702.000000 192702.000000 0.0 0 0 42825000.000010 47044300.000000"/>
<svg:path d="M43938700.000000 45823500.000001 A556899.000000 556899.000000 0.0 0 0 43381800.000001 46380400.000000"/>
<svg:g>
</svg:g>
<svg:g>
</svg:g>
<svg:g>
</svg:g>
<svg:g>
</svg:g>
</svg:g>
<svg:g style="fill:#000000; fill-opacity:0.0;  stroke:#000000; stroke-width:101600.000000; stroke-opacity:1;  stroke-linecap:round; stroke-linejoin:round;">
<svg:g>
</svg:g>
<svg:g>
</svg:g>
<svg:g>
</svg:g>
<svg:g>
</svg:g>
</svg:g> 
</svg:g><svg:g><svg:title>SVG Picture created as kicadBoard-F_Mask.svg date 2022/12/05 03:21:23 </svg:title>
  <svg:desc>Picture generated by PCBNEW </svg:desc>
<svg:g style="fill:#000000; fill-opacity:1.000000;stroke:#000000; stroke-opacity:1.000000; stroke-linecap:round; stroke-linejoin:round;" transform="translate(0 0) scale(1 1)">
</svg:g>
<svg:g style="fill:#000000; fill-opacity:0.0;  stroke:#000000; stroke-width:0.000000; stroke-opacity:1;  stroke-linecap:round; stroke-linejoin:round;">
<svg:g>
</svg:g>
<svg:g style="fill:#000000; fill-opacity:1.0;  stroke:#000000; stroke-width:1.000000; stroke-opacity:1;  stroke-linecap:round; stroke-linejoin:round;">
<svg:circle cx="53500000.000000" cy="50000000.000000" r="751600.000000"/> 
</svg:g>
<svg:g style="fill:#000000; fill-opacity:1.0;  stroke:#000000; stroke-width:21200.000000; stroke-opacity:1;  stroke-linecap:round; stroke-linejoin:round;">
</svg:g>
<svg:g style="fill:#000000; fill-opacity:1.0;  stroke:#000000; stroke-width:1.000000; stroke-opacity:1;  stroke-linecap:round; stroke-linejoin:round;">
<svg:circle cx="51000000.000000" cy="50000000.000000" r="751600.000000"/> 
</svg:g>
<svg:g style="fill:#000000; fill-opacity:1.0;  stroke:#000000; stroke-width:21200.000000; stroke-opacity:1;  stroke-linecap:round; stroke-linejoin:round;">
</svg:g>
<svg:g style="fill:#000000; fill-opacity:1.0;  stroke:#000000; stroke-width:1.000000; stroke-opacity:1;  stroke-linecap:round; stroke-linejoin:round;">
<svg:circle cx="49000000.000000" cy="50000000.000000" r="751600.000000"/> 
</svg:g>
<svg:g style="fill:#000000; fill-opacity:1.0;  stroke:#000000; stroke-width:21200.000000; stroke-opacity:1;  stroke-linecap:round; stroke-linejoin:round;">
</svg:g>
<svg:g style="fill:#000000; fill-opacity:1.0;  stroke:#000000; stroke-width:1.000000; stroke-opacity:1;  stroke-linecap:round; stroke-linejoin:round;">
<svg:circle cx="46500000.000000" cy="50000000.000000" r="751600.000000"/> 
</svg:g>
<svg:g style="fill:#000000; fill-opacity:1.0;  stroke:#000000; stroke-width:21200.000000; stroke-opacity:1;  stroke-linecap:round; stroke-linejoin:round;">
</svg:g>
<svg:g style="fill:#000000; fill-opacity:1.0;  stroke:#000000; stroke-width:1.000000; stroke-opacity:1;  stroke-linecap:round; stroke-linejoin:round;">
<svg:circle cx="43430000.000000" cy="47290000.000000" r="1501600.000000"/> 
</svg:g>
<svg:g style="fill:#000000; fill-opacity:1.0;  stroke:#000000; stroke-width:21200.000000; stroke-opacity:1;  stroke-linecap:round; stroke-linejoin:round;">
</svg:g>
<svg:g style="fill:#000000; fill-opacity:1.0;  stroke:#000000; stroke-width:1.000000; stroke-opacity:1;  stroke-linecap:round; stroke-linejoin:round;">
<svg:circle cx="56570000.000000" cy="47290000.000000" r="1501600.000000"/> 
</svg:g>
<svg:g style="fill:#000000; fill-opacity:1.0;  stroke:#000000; stroke-width:21200.000000; stroke-opacity:1;  stroke-linecap:round; stroke-linejoin:round;">
</svg:g>
<svg:g>
</svg:g>
<svg:g>
</svg:g>
<svg:g>
</svg:g>
</svg:g>
<svg:g style="fill:#000000; fill-opacity:1.0;  stroke:#000000; stroke-width:21200.000000; stroke-opacity:1;  stroke-linecap:round; stroke-linejoin:round;">
<svg:g>
</svg:g>
<svg:g>
</svg:g>
<svg:g>
</svg:g>
<svg:g>
</svg:g>
</svg:g> 
</svg:g><svg:g><svg:title>SVG Picture created as kicadBoard-F_Paste.svg date 2022/12/05 03:21:23 </svg:title>
  <svg:desc>Picture generated by PCBNEW </svg:desc>
<svg:g style="fill:#000000; fill-opacity:1.000000;stroke:#000000; stroke-opacity:1.000000; stroke-linecap:round; stroke-linejoin:round;" transform="translate(0 0) scale(1 1)">
</svg:g>
<svg:g style="fill:#000000; fill-opacity:0.0;  stroke:#000000; stroke-width:0.000000; stroke-opacity:1;  stroke-linecap:round; stroke-linejoin:round;">
<svg:g>
</svg:g>
<svg:g>
</svg:g>
<svg:g>
</svg:g>
<svg:g>
</svg:g>
</svg:g>
<svg:g style="fill:#000000; fill-opacity:0.0;  stroke:#000000; stroke-width:0.000000; stroke-opacity:1;  stroke-linecap:round; stroke-linejoin:round;">
<svg:g>
</svg:g>
<svg:g>
</svg:g>
<svg:g>
</svg:g>
<svg:g>
</svg:g>
</svg:g> 
</svg:g><svg:g><svg:title>SVG Picture created as kicadBoard-F_Silkscreen.svg date 2022/12/05 03:21:23 </svg:title>
  <svg:desc>Picture generated by PCBNEW </svg:desc>
<svg:g style="fill:#000000; fill-opacity:1.000000;stroke:#000000; stroke-opacity:1.000000; stroke-linecap:round; stroke-linejoin:round;" transform="translate(0 0) scale(1 1)">
</svg:g>
<svg:g style="fill:#000000; fill-opacity:0.0;  stroke:#000000; stroke-width:0.000000; stroke-opacity:1;  stroke-linecap:round; stroke-linejoin:round;">
</svg:g>
<svg:g style="fill:#F2EDA1; fill-opacity:0.0;  stroke:#F2EDA1; stroke-width:0.000000; stroke-opacity:1;  stroke-linecap:round; stroke-linejoin:round;">
</svg:g>
<svg:g style="fill:#F2EDA1; fill-opacity:0.0;  stroke:#F2EDA1; stroke-width:101600.000000; stroke-opacity:1;  stroke-linecap:round; stroke-linejoin:round;">
<svg:text x="41910400.000000" y="45060200.000000" textLength="17080896.000000" font-size="1557866.000000" lengthAdjust="spacingAndGlyphs" text-anchor="start" opacity="0">FZECONKYCONKUVX</svg:text>
<svg:g class="stroked-text"><svg:desc>FZECONKYCONKUVX</svg:desc>
<svg:path d="M42644097 44392542 L42254630 44392542 "/>
<svg:path d="M42254630 45004561 L42254630 43836161 L42811011 43836161 "/>
<svg:path d="M43144840 43836161 L43923773 43836161 L43144840 45004561 L43923773 45004561 "/>
<svg:path d="M44368878 44392542 L44758344 44392542 "/>
<svg:path d="M44925259 45004561 L44368878 45004561 L44368878 43836161 L44925259 43836161 "/>
<svg:path d="M46093659 44893285 L46038020 44948923 L45871106 45004561 L45759830 45004561 L45592916 44948923 L45481640 44837647 L45426001 44726371 L45370363 44503819 L45370363 44336904 L45426001 44114352 L45481640 44003076 L45592916 43891800 L45759830 43836161 L45871106 43836161 L46038020 43891800 L46093659 43947438 "/>
<svg:path d="M46816954 43836161 L47039506 43836161 L47150782 43891800 L47262059 44003076 L47317697 44225628 L47317697 44615095 L47262059 44837647 L47150782 44948923 L47039506 45004561 L46816954 45004561 L46705678 44948923 L46594401 44837647 L46538763 44615095 L46538763 44225628 L46594401 44003076 L46705678 43891800 L46816954 43836161 "/>
<svg:path d="M47818440 45004561 L47818440 43836161 L48486097 45004561 L48486097 43836161 "/>
<svg:path d="M49042478 45004561 L49042478 43836161 "/>
<svg:path d="M49710135 45004561 L49209392 44336904 "/>
<svg:path d="M49710135 43836161 L49042478 44503819 "/>
<svg:path d="M50433430 44448180 L50433430 45004561 "/>
<svg:path d="M50043963 43836161 L50433430 44448180 L50822897 43836161 "/>
<svg:path d="M51880020 44893285 L51824382 44948923 L51657468 45004561 L51546192 45004561 L51379278 44948923 L51268001 44837647 L51212363 44726371 L51156725 44503819 L51156725 44336904 L51212363 44114352 L51268001 44003076 L51379278 43891800 L51546192 43836161 L51657468 43836161 L51824382 43891800 L51880020 43947438 "/>
<svg:path d="M52603316 43836161 L52825868 43836161 L52937144 43891800 L53048420 44003076 L53104059 44225628 L53104059 44615095 L53048420 44837647 L52937144 44948923 L52825868 45004561 L52603316 45004561 L52492040 44948923 L52380763 44837647 L52325125 44615095 L52325125 44225628 L52380763 44003076 L52492040 43891800 L52603316 43836161 "/>
<svg:path d="M53604801 45004561 L53604801 43836161 L54272459 45004561 L54272459 43836161 "/>
<svg:path d="M54828840 45004561 L54828840 43836161 "/>
<svg:path d="M55496497 45004561 L54995754 44336904 "/>
<svg:path d="M55496497 43836161 L54828840 44503819 "/>
<svg:path d="M55997240 43836161 L55997240 44782009 L56052878 44893285 L56108516 44948923 L56219792 45004561 L56442344 45004561 L56553620 44948923 L56609259 44893285 L56664897 44782009 L56664897 43836161 "/>
<svg:path d="M57054363 43836161 L57443830 45004561 L57833297 43836161 "/>
<svg:path d="M58111487 43836161 L58890420 45004561 "/>
<svg:path d="M58890420 43836161 L58111487 45004561 "/>
</svg:g><svg:path d="M55354500 52291700 L51392200 52291700 "/>
<svg:path d="M46401800 46658800 L46059100 46230400 "/>
<svg:path d="M51649200 47472700 L51649200 48757800 "/>
<svg:path d="M44452700 51713400 L43853000 51713400 "/>
<svg:path d="M46166200 46101900 L46166200 45802100 "/>
<svg:path d="M52827200 47472700 L54133700 47472700 "/>
<svg:path d="M46144800 51499300 L46401800 51049500 "/>
<svg:path d="M44452700 51713400 L44452700 51306500 "/>
<svg:path d="M48565000 52291700 L44624100 52291700 "/>
<svg:path d="M44474200 49957200 L44474200 48779200 "/>
<svg:path d="M53855200 51435000 L53855200 51841900 "/>
<svg:path d="M56018500 51306500 L55568700 51306500 "/>
<svg:path d="M56211200 50706800 L56939400 50706800 "/>
<svg:path d="M55483000 48779200 L55504400 48779200 "/>
<svg:path d="M52334600 50942400 L52463100 51520700 "/>
<svg:path d="M55568700 46209000 L53940900 46209000 "/>
<svg:path d="M48822000 45416500 L48822000 46230400 "/>
<svg:path d="M51199400 45823500 L51199400 46230400 "/>
<svg:path d="M55568700 51306500 L53983700 51306500 "/>
<svg:path d="M48072400 46230400 L47986700 46144800 "/>
<svg:path d="M46294700 45673600 L47836800 45673600 "/>
<svg:path d="M48329400 48757800 L48350800 48757800 "/>
<svg:path d="M53405500 51520700 L53619600 50942400 "/>
<svg:path d="M43381800 51242200 L43381800 50728200 "/>
<svg:path d="M46380400 50921000 L47708300 50921000 "/>
<svg:path d="M45009600 49164700 L55011800 49164700 "/>
<svg:path d="M48051000 51306500 L47943900 51456400 "/>
<svg:path d="M46273300 51863400 L47901000 51863400 "/>
<svg:path d="M47194200 47472700 L47194200 48736300 "/>
<svg:path d="M44452700 52120300 L44452700 51713400 "/>
<svg:path d="M52034700 51841900 L52034700 51392200 "/>
<svg:path d="M52034700 45823500 L52034700 46144800 "/>
<svg:path d="M46594500 51563500 L46401800 50942400 "/>
<svg:path d="M55504400 48779200 L55504400 50064300 "/>
<svg:path d="M48822000 51306500 L51949000 51306500 "/>
<svg:path d="M46123300 51456400 L46123300 51713400 "/>
<svg:path d="M43788800 50706800 L43788800 51092300 "/>
<svg:path d="M46080500 46209000 L46166200 46101900 "/>
<svg:path d="M47515500 51563500 L46594500 51563500 "/>
<svg:path d="M53619600 46658800 L53962300 46230400 "/>
<svg:path d="M45009600 49164700 L44988200 50085700 "/>
<svg:path d="M55011800 49164700 L55483000 48779200 "/>
<svg:path d="M56168400 49571600 L55911400 49293200 "/>
<svg:path d="M45866300 47472700 L47194200 47472700 "/>
<svg:path d="M56618200 51263600 L56618200 50728200 "/>
<svg:path d="M43039200 50706800 L43788800 50706800 "/>
<svg:path d="M53598200 50963800 L53855200 51435000 "/>
<svg:path d="M51199400 52098900 L51199400 51713400 "/>
<svg:path d="M52827200 48757800 L52827200 47472700 "/>
<svg:path d="M51199400 45823500 L51199400 45438000 "/>
<svg:path d="M46037600 51306500 L46037700 51306500 "/>
<svg:path d="M44474200 48779200 L55483000 48779200 "/>
<svg:path d="M55568700 51713400 L55568700 52077500 "/>
<svg:path d="M49657300 47472700 L49657300 48714900 "/>
<svg:path d="M51949000 46230400 L52313100 46658800 "/>
<svg:path d="M53855200 51841900 L52034700 51841900 "/>
<svg:path d="M52334600 50942400 L52056100 51456400 "/>
<svg:path d="M52291700 50899600 L53641100 50899600 "/>
<svg:path d="M48822000 51306500 L48822000 52034700 "/>
<svg:path d="M46037600 51306500 L46123300 51456400 "/>
<svg:path d="M48072400 46230400 L47708300 46658800 "/>
<svg:path d="M54133700 47472700 L54133700 48757800 "/>
<svg:path d="M51949000 46230400 L52034700 46144800 "/>
<svg:path d="M51199400 51713400 L48843400 51713400 "/>
<svg:path d="M44452700 46230400 L44452700 45416500 "/>
<svg:path d="M47986700 45823500 L47986700 46144800 "/>
<svg:path d="M44088600 49336000 L43810200 49593100 "/>
<svg:path d="M48822000 46230400 L51199400 46230400 "/>
<svg:path d="M53855200 46101900 L53855200 45802100 "/>
<svg:path d="M44452700 46209000 L46080500 46209000 "/>
<svg:path d="M44624000 45245200 L48650700 45245200 "/>
<svg:path d="M48822000 51306500 L48051000 51306500 "/>
<svg:path d="M48843400 45823500 L51199400 45823500 "/>
<svg:path d="M55011800 50085700 L55354500 50385500 "/>
<svg:path d="M55568700 45416600 L55568700 46209000 "/>
<svg:path d="M44003000 51306500 L46037600 51306500 "/>
<svg:path d="M48822000 46230400 L48072400 46230400 "/>
<svg:path d="M53940900 46209000 L53855200 46101900 "/>
<svg:path d="M50342700 47472700 L51649200 47472700 "/>
<svg:path d="M52313100 46658800 L53619600 46658800 "/>
<svg:path d="M48350800 48757800 L48350800 47472700 "/>
<svg:path d="M55568700 51713400 L56168400 51713400 "/>
<svg:path d="M47686900 51006600 L47515500 51563500 "/>
<svg:path d="M53641100 50899600 L53983700 51306500 "/>
<svg:path d="M55011800 49164700 L55011800 50085700 "/>
<svg:path d="M47708300 50921000 L48051000 51306500 "/>
<svg:path d="M45866300 48736300 L45866300 47472700 "/>
<svg:path d="M44988200 50085700 L44666900 50364100 "/>
<svg:path d="M47943900 51820500 L47943900 51456400 "/>
<svg:path d="M46037700 51285100 L46380400 50921000 "/>
<svg:path d="M47708300 46658800 L46401800 46658800 "/>
<svg:path d="M48350800 47472700 L49657300 47472700 "/>
<svg:path d="M50342700 48736300 L50342700 47472700 "/>
<svg:path d="M51949000 51306500 L52291700 50899600 "/>
<svg:path d="M52463100 51520700 L53405500 51520700 "/>
<svg:path d="M44474200 48779200 L45009600 49164700 "/>
<svg:path d="M47943900 51456400 L47686900 51006600 "/>
<svg:path d="M53726700 45673600 L52184600 45673600 "/>
<svg:path d="M53983700 51306500 L53855200 51435000 "/>
<svg:path d="M52034700 51392200 L51949000 51306500 "/>
<svg:path d="M55568700 51306500 L55568700 51713400 "/>
<svg:path d="M51392200 45245200 L55397300 45245200 "/>
<svg:path d="M51199400 51713400 L51199400 51306500 "/>
<svg:path d="M51199400 46230400 L51949000 46230400 "/>
<svg:path d="M44474200.000000 49957200.000000 A642500.000000 642500.000000 0.0 0 0 45116700.000000 50599700.000000"/>
<svg:path d="M46123300.000000 51713400.000000 A150000.000000 150000.000000 0.0 0 0 46273300.000000 51863400.000000"/>
<svg:path d="M55568700.000000 45416600.000000 A171400.000000 171400.000000 0.0 0 0 55397300.000000 45245200.000000"/>
<svg:path d="M47901000.000000 51863400.000000 A42900.000000 42900.000000 0.0 0 0 47943900.000000 51820500.000000"/>
<svg:path d="M56018500.000000 51306500.000000 A171300.000000 171300.000000 0.0 0 0 56189800.000000 51135200.000000"/>
<svg:path d="M47986699.999997 45823500.000000 A149901.000000 149901.000000 0.0 0 0 47836800.000000 45673600.000003"/>
<svg:path d="M48565000.000000 52291699.999992 A257002.000000 257002.000000 0.0 0 0 48821999.999992 52034700.000000"/>
<svg:path d="M53855200.000000 45802100.000000 A128500.000000 128500.000000 0.0 0 0 53726700.000000 45673600.000000"/>
<svg:path d="M48821999.999997 45416500.000000 A171301.000000 171301.000000 0.0 0 0 48650700.000000 45245200.000003"/>
<svg:path d="M42825000.000002 50492600.000000 A214201.000000 214201.000000 0.0 0 0 43039200.000000 50706799.999998"/>
<svg:path d="M52184600.000000 45673600.000000 A149900.000000 149900.000000 0.0 0 0 52034700.000000 45823500.000000"/>
<svg:path d="M43381800.000001 51242200.000000 A471199.000000 471199.000000 0.0 0 0 43853000.000000 51713399.999999"/>
<svg:path d="M43788800.000002 51092300.000000 A214201.000000 214201.000000 0.0 0 0 44003000.000000 51306499.999998"/>
<svg:path d="M51199400.000000 52098900.000000 A192800.000000 192800.000000 0.0 0 0 51392200.000000 52291700.000000"/>
<svg:path d="M44452700.000000 52120300.000000 A171400.000000 171400.000000 0.0 0 0 44624100.000000 52291700.000000"/>
<svg:path d="M56939400.000000 50706800.000000 A278500.000000 278500.000000 0.0 0 0 57217900.000000 50428300.000000"/>
<svg:path d="M56168400.000000 51713400.000000 A449800.000000 449800.000000 0.0 0 0 56618200.000000 51263600.000000"/>
<svg:path d="M51392200.000000 45245200.000000 A192800.000000 192800.000000 0.0 0 0 51199400.000000 45438000.000000"/>
<svg:path d="M44624000.000000 45245200.000003 A171301.000000 171301.000000 0.0 0 0 44452700.000003 45416500.000000"/>
<svg:path d="M55354500.000000 52291700.000000 A214200.000000 214200.000000 0.0 0 0 55568700.000000 52077500.000000"/>
<svg:path d="M54968998.999998 50599699.999999 A535400.000000 535400.000000 0.0 0 0 55504400.000000 50064300.000000"/>
<svg:path d="M46294700.000000 45673600.000004 A128501.000000 128501.000000 0.0 0 0 46166200.000004 45802100.000000"/>
<svg:g>
</svg:g>
<svg:g>
</svg:g>
<svg:g>
</svg:g>
<svg:g>
</svg:g>
</svg:g>
<svg:g style="fill:#000000; fill-opacity:0.0;  stroke:#000000; stroke-width:101600.000000; stroke-opacity:1;  stroke-linecap:round; stroke-linejoin:round;">
<svg:g>
</svg:g>
<svg:g>
</svg:g>
<svg:g>
</svg:g>
<svg:g>
</svg:g>
</svg:g> 
</svg:g><svg:g><svg:title>SVG Picture created as kicadBoard-Margin.svg date 2022/12/05 03:21:23 </svg:title>
  <svg:desc>Picture generated by PCBNEW </svg:desc>
<svg:g style="fill:#000000; fill-opacity:1.000000;stroke:#000000; stroke-opacity:1.000000; stroke-linecap:round; stroke-linejoin:round;" transform="translate(0 0) scale(1 1)">
</svg:g>
<svg:g style="fill:#000000; fill-opacity:0.0;  stroke:#000000; stroke-width:0.000000; stroke-opacity:1;  stroke-linecap:round; stroke-linejoin:round;">
<svg:g>
</svg:g>
<svg:g>
</svg:g>
<svg:g>
</svg:g>
<svg:g>
</svg:g>
</svg:g>
<svg:g style="fill:#000000; fill-opacity:0.0;  stroke:#000000; stroke-width:0.000000; stroke-opacity:1;  stroke-linecap:round; stroke-linejoin:round;">
<svg:g>
</svg:g>
<svg:g>
</svg:g>
<svg:g>
</svg:g>
<svg:g>
</svg:g>
</svg:g> 
</svg:g><svg:g><svg:title>SVG Picture created as kicadBoard-F_Cu.svg date 2022/12/05 03:21:23 </svg:title>
  <svg:desc>Picture generated by PCBNEW </svg:desc>
<svg:g style="fill:#000000; fill-opacity:1.000000;stroke:#000000; stroke-opacity:1.000000; stroke-linecap:round; stroke-linejoin:round;" transform="translate(0 0) scale(1 1)">
</svg:g>
<svg:g style="fill:#000000; fill-opacity:0.0;  stroke:#000000; stroke-width:0.000000; stroke-opacity:1;  stroke-linecap:round; stroke-linejoin:round;">
<svg:g>
</svg:g>
<svg:g style="fill:#C83434; fill-opacity:0.0;  stroke:#C83434; stroke-width:0.000000; stroke-opacity:1;  stroke-linecap:round; stroke-linejoin:round;">
</svg:g>
<svg:g style="fill:#C83434; fill-opacity:1.0;  stroke:#C83434; stroke-width:1.000000; stroke-opacity:1;  stroke-linecap:round; stroke-linejoin:round;">
<svg:circle cx="53500000.000000" cy="50000000.000000" r="650000.000000"/> 
</svg:g>
<svg:g style="fill:#C83434; fill-opacity:1.0;  stroke:#C83434; stroke-width:21200.000000; stroke-opacity:1;  stroke-linecap:round; stroke-linejoin:round;">
</svg:g>
<svg:g style="fill:#C83434; fill-opacity:1.0;  stroke:#C83434; stroke-width:1.000000; stroke-opacity:1;  stroke-linecap:round; stroke-linejoin:round;">
<svg:circle cx="51000000.000000" cy="50000000.000000" r="650000.000000"/> 
</svg:g>
<svg:g style="fill:#C83434; fill-opacity:1.0;  stroke:#C83434; stroke-width:21200.000000; stroke-opacity:1;  stroke-linecap:round; stroke-linejoin:round;">
</svg:g>
<svg:g style="fill:#C83434; fill-opacity:1.0;  stroke:#C83434; stroke-width:1.000000; stroke-opacity:1;  stroke-linecap:round; stroke-linejoin:round;">
<svg:circle cx="49000000.000000" cy="50000000.000000" r="650000.000000"/> 
</svg:g>
<svg:g style="fill:#C83434; fill-opacity:1.0;  stroke:#C83434; stroke-width:21200.000000; stroke-opacity:1;  stroke-linecap:round; stroke-linejoin:round;">
</svg:g>
<svg:g style="fill:#C83434; fill-opacity:1.0;  stroke:#C83434; stroke-width:1.000000; stroke-opacity:1;  stroke-linecap:round; stroke-linejoin:round;">
<svg:circle cx="46500000.000000" cy="50000000.000000" r="650000.000000"/> 
</svg:g>
<svg:g style="fill:#C83434; fill-opacity:1.0;  stroke:#C83434; stroke-width:21200.000000; stroke-opacity:1;  stroke-linecap:round; stroke-linejoin:round;">
</svg:g>
<svg:g style="fill:#C83434; fill-opacity:1.0;  stroke:#C83434; stroke-width:1.000000; stroke-opacity:1;  stroke-linecap:round; stroke-linejoin:round;">
<svg:circle cx="43430000.000000" cy="47290000.000000" r="1400000.000000"/> 
</svg:g>
<svg:g style="fill:#C83434; fill-opacity:1.0;  stroke:#C83434; stroke-width:21200.000000; stroke-opacity:1;  stroke-linecap:round; stroke-linejoin:round;">
</svg:g>
<svg:g style="fill:#C83434; fill-opacity:1.0;  stroke:#C83434; stroke-width:1.000000; stroke-opacity:1;  stroke-linecap:round; stroke-linejoin:round;">
<svg:circle cx="56570000.000000" cy="47290000.000000" r="1400000.000000"/> 
</svg:g>
<svg:g style="fill:#C83434; fill-opacity:1.0;  stroke:#C83434; stroke-width:21200.000000; stroke-opacity:1;  stroke-linecap:round; stroke-linejoin:round;">
</svg:g>
<svg:g>
</svg:g>
<svg:g>
</svg:g>
<svg:g>
</svg:g>
</svg:g>
<svg:g style="fill:#FFFFFF; fill-opacity:1.0;  stroke:#FFFFFF; stroke-width:21200.000000; stroke-opacity:1;  stroke-linecap:round; stroke-linejoin:round;">
</svg:g>
<svg:g style="fill:#FFFFFF; fill-opacity:1.0;  stroke:#FFFFFF; stroke-width:1.000000; stroke-opacity:1;  stroke-linecap:round; stroke-linejoin:round;">
<svg:circle cx="53500000.000000" cy="50000000.000000" r="450000.000000"/> 
</svg:g>
<svg:g style="fill:#FFFFFF; fill-opacity:1.0;  stroke:#FFFFFF; stroke-width:21200.000000; stroke-opacity:1;  stroke-linecap:round; stroke-linejoin:round;">
</svg:g>
<svg:g style="fill:#FFFFFF; fill-opacity:1.0;  stroke:#FFFFFF; stroke-width:1.000000; stroke-opacity:1;  stroke-linecap:round; stroke-linejoin:round;">
<svg:circle cx="51000000.000000" cy="50000000.000000" r="450000.000000"/> 
</svg:g>
<svg:g style="fill:#FFFFFF; fill-opacity:1.0;  stroke:#FFFFFF; stroke-width:21200.000000; stroke-opacity:1;  stroke-linecap:round; stroke-linejoin:round;">
</svg:g>
<svg:g style="fill:#FFFFFF; fill-opacity:1.0;  stroke:#FFFFFF; stroke-width:1.000000; stroke-opacity:1;  stroke-linecap:round; stroke-linejoin:round;">
<svg:circle cx="49000000.000000" cy="50000000.000000" r="450000.000000"/> 
</svg:g>
<svg:g style="fill:#FFFFFF; fill-opacity:1.0;  stroke:#FFFFFF; stroke-width:21200.000000; stroke-opacity:1;  stroke-linecap:round; stroke-linejoin:round;">
</svg:g>
<svg:g style="fill:#FFFFFF; fill-opacity:1.0;  stroke:#FFFFFF; stroke-width:1.000000; stroke-opacity:1;  stroke-linecap:round; stroke-linejoin:round;">
<svg:circle cx="46500000.000000" cy="50000000.000000" r="450000.000000"/> 
</svg:g>
<svg:g style="fill:#FFFFFF; fill-opacity:1.0;  stroke:#FFFFFF; stroke-width:21200.000000; stroke-opacity:1;  stroke-linecap:round; stroke-linejoin:round;">
</svg:g>
<svg:g style="fill:#FFFFFF; fill-opacity:1.0;  stroke:#FFFFFF; stroke-width:1.000000; stroke-opacity:1;  stroke-linecap:round; stroke-linejoin:round;">
<svg:circle cx="43430000.000000" cy="47290000.000000" r="1150000.000000"/> 
</svg:g>
<svg:g style="fill:#FFFFFF; fill-opacity:1.0;  stroke:#FFFFFF; stroke-width:21200.000000; stroke-opacity:1;  stroke-linecap:round; stroke-linejoin:round;">
</svg:g>
<svg:g style="fill:#FFFFFF; fill-opacity:1.0;  stroke:#FFFFFF; stroke-width:1.000000; stroke-opacity:1;  stroke-linecap:round; stroke-linejoin:round;">
<svg:circle cx="56570000.000000" cy="47290000.000000" r="1150000.000000"/> 
</svg:g>
<svg:g style="fill:#FFFFFF; fill-opacity:1.0;  stroke:#FFFFFF; stroke-width:21200.000000; stroke-opacity:1;  stroke-linecap:round; stroke-linejoin:round;">
</svg:g>
<svg:g style="fill:#000000; fill-opacity:1.0;  stroke:#000000; stroke-width:21200.000000; stroke-opacity:1;  stroke-linecap:round; stroke-linejoin:round;">
<svg:g>
</svg:g>
<svg:g>
</svg:g>
<svg:g>
</svg:g>
<svg:g>
</svg:g>
</svg:g> 
</svg:g></svg>
