<?xml version='1.0' encoding='ASCII' standalone='yes'?>
<svg xmlns:svg="http://www.w3.org/2000/svg" xmlns="http://www.w3.org/2000/svg" xmlns:xlink="http://www.w3.org/1999/xlink" version="1.1" width="9.999980cm" height="9.999980cm" viewBox="0 0 99999800 99999800">
<title>SVG Picture created as kicadBoard-B_Cu.svg date 2022/11/18 05:05:40 </title>
  <desc>Picture generated by PCBNEW </desc>
<g style="fill:#000000; fill-opacity:1.000000;stroke:#000000; stroke-opacity:1.000000; stroke-linecap:round; stroke-linejoin:round;" transform="translate(0 0) scale(1 1)">
</g>
<g style="fill:#000000; fill-opacity:0.0;  stroke:#000000; stroke-width:0.000000; stroke-opacity:1;  stroke-linecap:round; stroke-linejoin:round;">
<g>
</g>
<g style="fill:#4D7FC4; fill-opacity:0.0;  stroke:#4D7FC4; stroke-width:0.000000; stroke-opacity:1;  stroke-linecap:round; stroke-linejoin:round;">
</g>
<g style="fill:#4D7FC4; fill-opacity:0.0;  stroke:#4D7FC4; stroke-width:1.000000; stroke-opacity:1;  stroke-linecap:round; stroke-linejoin:round;">
</g>
<g style="fill:#4D7FC4; fill-opacity:1.0;  stroke:#4D7FC4; stroke-width:1.000000; stroke-opacity:1;  stroke-linecap:round; stroke-linejoin:round;">
<path style="fill:#4D7FC4; fill-opacity:1.0;  stroke:#4D7FC4; stroke-width:1.000000; stroke-opacity:1;  stroke-linecap:round; stroke-linejoin:round;fill-rule:evenodd;" d="M 49200000.000000,50800000.000000 49200000.000000,49200000.000000 50800000.000000,49200000.000000 50800000.000000,50800000.000000 Z"/> 
<circle cx="52540000.000000" cy="50000000.000000" r="800000.000000"/> 
<circle cx="55080000.000000" cy="50000000.000000" r="800000.000000"/> 
<circle cx="57620000.000000" cy="50000000.000000" r="800000.000000"/> 
<circle cx="60160000.000000" cy="50000000.000000" r="800000.000000"/> 
<circle cx="62700000.000000" cy="50000000.000000" r="800000.000000"/> 
<circle cx="65240000.000000" cy="50000000.000000" r="800000.000000"/> 
<circle cx="67780000.000000" cy="50000000.000000" r="800000.000000"/> 
<circle cx="70320000.000000" cy="50000000.000000" r="800000.000000"/> 
<circle cx="72860000.000000" cy="50000000.000000" r="800000.000000"/> 
<circle cx="75400000.000000" cy="50000000.000000" r="800000.000000"/> 
<circle cx="77940000.000000" cy="50000000.000000" r="800000.000000"/> 
<circle cx="80480000.000000" cy="50000000.000000" r="800000.000000"/> 
<circle cx="83020000.000000" cy="50000000.000000" r="800000.000000"/> 
</g>
<g>
</g>
<g>
</g>
<g>
</g>
</g>
<g style="fill:#FFFFFF; fill-opacity:1.0;  stroke:#FFFFFF; stroke-width:1.000000; stroke-opacity:1;  stroke-linecap:round; stroke-linejoin:round;">
<circle cx="50000000.000000" cy="50000000.000000" r="400000.000000"/> 
</g>
<g style="fill:#FFFFFF; fill-opacity:1.0;  stroke:#FFFFFF; stroke-width:21200.000000; stroke-opacity:1;  stroke-linecap:round; stroke-linejoin:round;">
</g>
<g style="fill:#FFFFFF; fill-opacity:1.0;  stroke:#FFFFFF; stroke-width:1.000000; stroke-opacity:1;  stroke-linecap:round; stroke-linejoin:round;">
<circle cx="52540000.000000" cy="50000000.000000" r="400000.000000"/> 
</g>
<g style="fill:#FFFFFF; fill-opacity:1.0;  stroke:#FFFFFF; stroke-width:21200.000000; stroke-opacity:1;  stroke-linecap:round; stroke-linejoin:round;">
</g>
<g style="fill:#FFFFFF; fill-opacity:1.0;  stroke:#FFFFFF; stroke-width:1.000000; stroke-opacity:1;  stroke-linecap:round; stroke-linejoin:round;">
<circle cx="55080000.000000" cy="50000000.000000" r="400000.000000"/> 
</g>
<g style="fill:#FFFFFF; fill-opacity:1.0;  stroke:#FFFFFF; stroke-width:21200.000000; stroke-opacity:1;  stroke-linecap:round; stroke-linejoin:round;">
</g>
<g style="fill:#FFFFFF; fill-opacity:1.0;  stroke:#FFFFFF; stroke-width:1.000000; stroke-opacity:1;  stroke-linecap:round; stroke-linejoin:round;">
<circle cx="57620000.000000" cy="50000000.000000" r="400000.000000"/> 
</g>
<g style="fill:#FFFFFF; fill-opacity:1.0;  stroke:#FFFFFF; stroke-width:21200.000000; stroke-opacity:1;  stroke-linecap:round; stroke-linejoin:round;">
</g>
<g style="fill:#FFFFFF; fill-opacity:1.0;  stroke:#FFFFFF; stroke-width:1.000000; stroke-opacity:1;  stroke-linecap:round; stroke-linejoin:round;">
<circle cx="60160000.000000" cy="50000000.000000" r="400000.000000"/> 
</g>
<g style="fill:#FFFFFF; fill-opacity:1.0;  stroke:#FFFFFF; stroke-width:21200.000000; stroke-opacity:1;  stroke-linecap:round; stroke-linejoin:round;">
</g>
<g style="fill:#FFFFFF; fill-opacity:1.0;  stroke:#FFFFFF; stroke-width:1.000000; stroke-opacity:1;  stroke-linecap:round; stroke-linejoin:round;">
<circle cx="62700000.000000" cy="50000000.000000" r="400000.000000"/> 
</g>
<g style="fill:#FFFFFF; fill-opacity:1.0;  stroke:#FFFFFF; stroke-width:21200.000000; stroke-opacity:1;  stroke-linecap:round; stroke-linejoin:round;">
</g>
<g style="fill:#FFFFFF; fill-opacity:1.0;  stroke:#FFFFFF; stroke-width:1.000000; stroke-opacity:1;  stroke-linecap:round; stroke-linejoin:round;">
<circle cx="65240000.000000" cy="50000000.000000" r="400000.000000"/> 
</g>
<g style="fill:#FFFFFF; fill-opacity:1.0;  stroke:#FFFFFF; stroke-width:21200.000000; stroke-opacity:1;  stroke-linecap:round; stroke-linejoin:round;">
</g>
<g style="fill:#FFFFFF; fill-opacity:1.0;  stroke:#FFFFFF; stroke-width:1.000000; stroke-opacity:1;  stroke-linecap:round; stroke-linejoin:round;">
<circle cx="67780000.000000" cy="50000000.000000" r="400000.000000"/> 
</g>
<g style="fill:#FFFFFF; fill-opacity:1.0;  stroke:#FFFFFF; stroke-width:21200.000000; stroke-opacity:1;  stroke-linecap:round; stroke-linejoin:round;">
</g>
<g style="fill:#FFFFFF; fill-opacity:1.0;  stroke:#FFFFFF; stroke-width:1.000000; stroke-opacity:1;  stroke-linecap:round; stroke-linejoin:round;">
<circle cx="70320000.000000" cy="50000000.000000" r="400000.000000"/> 
</g>
<g style="fill:#FFFFFF; fill-opacity:1.0;  stroke:#FFFFFF; stroke-width:21200.000000; stroke-opacity:1;  stroke-linecap:round; stroke-linejoin:round;">
</g>
<g style="fill:#FFFFFF; fill-opacity:1.0;  stroke:#FFFFFF; stroke-width:1.000000; stroke-opacity:1;  stroke-linecap:round; stroke-linejoin:round;">
<circle cx="72860000.000000" cy="50000000.000000" r="400000.000000"/> 
</g>
<g style="fill:#FFFFFF; fill-opacity:1.0;  stroke:#FFFFFF; stroke-width:21200.000000; stroke-opacity:1;  stroke-linecap:round; stroke-linejoin:round;">
</g>
<g style="fill:#FFFFFF; fill-opacity:1.0;  stroke:#FFFFFF; stroke-width:1.000000; stroke-opacity:1;  stroke-linecap:round; stroke-linejoin:round;">
<circle cx="75400000.000000" cy="50000000.000000" r="400000.000000"/> 
</g>
<g style="fill:#FFFFFF; fill-opacity:1.0;  stroke:#FFFFFF; stroke-width:21200.000000; stroke-opacity:1;  stroke-linecap:round; stroke-linejoin:round;">
</g>
<g style="fill:#FFFFFF; fill-opacity:1.0;  stroke:#FFFFFF; stroke-width:1.000000; stroke-opacity:1;  stroke-linecap:round; stroke-linejoin:round;">
<circle cx="77940000.000000" cy="50000000.000000" r="400000.000000"/> 
</g>
<g style="fill:#FFFFFF; fill-opacity:1.0;  stroke:#FFFFFF; stroke-width:21200.000000; stroke-opacity:1;  stroke-linecap:round; stroke-linejoin:round;">
</g>
<g style="fill:#FFFFFF; fill-opacity:1.0;  stroke:#FFFFFF; stroke-width:1.000000; stroke-opacity:1;  stroke-linecap:round; stroke-linejoin:round;">
<circle cx="80480000.000000" cy="50000000.000000" r="400000.000000"/> 
</g>
<g style="fill:#FFFFFF; fill-opacity:1.0;  stroke:#FFFFFF; stroke-width:21200.000000; stroke-opacity:1;  stroke-linecap:round; stroke-linejoin:round;">
</g>
<g style="fill:#FFFFFF; fill-opacity:1.0;  stroke:#FFFFFF; stroke-width:1.000000; stroke-opacity:1;  stroke-linecap:round; stroke-linejoin:round;">
<circle cx="83020000.000000" cy="50000000.000000" r="400000.000000"/> 
</g>
<g style="fill:#FFFFFF; fill-opacity:1.0;  stroke:#FFFFFF; stroke-width:21200.000000; stroke-opacity:1;  stroke-linecap:round; stroke-linejoin:round;">
</g>
<g style="fill:#000000; fill-opacity:1.0;  stroke:#000000; stroke-width:21200.000000; stroke-opacity:1;  stroke-linecap:round; stroke-linejoin:round;">
<g>
</g>
<g>
</g>
<g>
</g>
<g>
</g>
</g> 
<svg:g><svg:title>SVG Picture created as kicadBoard-B_Adhesive.svg date 2022/11/18 05:05:40 </svg:title>
  <svg:desc>Picture generated by PCBNEW </svg:desc>
<svg:g style="fill:#000000; fill-opacity:1.000000;stroke:#000000; stroke-opacity:1.000000; stroke-linecap:round; stroke-linejoin:round;" transform="translate(0 0) scale(1 1)">
</svg:g>
<svg:g style="fill:#000000; fill-opacity:0.0;  stroke:#000000; stroke-width:0.000000; stroke-opacity:1;  stroke-linecap:round; stroke-linejoin:round;">
<svg:g>
</svg:g>
<svg:g>
</svg:g>
<svg:g>
</svg:g>
<svg:g>
</svg:g>
</svg:g>
<svg:g style="fill:#000000; fill-opacity:0.0;  stroke:#000000; stroke-width:0.000000; stroke-opacity:1;  stroke-linecap:round; stroke-linejoin:round;">
<svg:g>
</svg:g>
<svg:g>
</svg:g>
<svg:g>
</svg:g>
<svg:g>
</svg:g>
</svg:g> 
</svg:g><svg:g><svg:title>SVG Picture created as kicadBoard-B_Courtyard.svg date 2022/11/18 05:05:40 </svg:title>
  <svg:desc>Picture generated by PCBNEW </svg:desc>
<svg:g style="fill:#000000; fill-opacity:1.000000;stroke:#000000; stroke-opacity:1.000000; stroke-linecap:round; stroke-linejoin:round;" transform="translate(0 0) scale(1 1)">
</svg:g>
<svg:g style="fill:#000000; fill-opacity:0.0;  stroke:#000000; stroke-width:0.000000; stroke-opacity:1;  stroke-linecap:round; stroke-linejoin:round;">
<svg:g>
</svg:g>
<svg:g>
</svg:g>
<svg:g>
</svg:g>
<svg:g>
</svg:g>
</svg:g>
<svg:g style="fill:#000000; fill-opacity:0.0;  stroke:#000000; stroke-width:0.000000; stroke-opacity:1;  stroke-linecap:round; stroke-linejoin:round;">
<svg:g>
</svg:g>
<svg:g>
</svg:g>
<svg:g>
</svg:g>
<svg:g>
</svg:g>
</svg:g> 
</svg:g><svg:g><svg:title>SVG Picture created as kicadBoard-B_Fab.svg date 2022/11/18 05:05:40 </svg:title>
  <svg:desc>Picture generated by PCBNEW </svg:desc>
<svg:g style="fill:#000000; fill-opacity:1.000000;stroke:#000000; stroke-opacity:1.000000; stroke-linecap:round; stroke-linejoin:round;" transform="translate(0 0) scale(1 1)">
</svg:g>
<svg:g style="fill:#000000; fill-opacity:0.0;  stroke:#000000; stroke-width:0.000000; stroke-opacity:1;  stroke-linecap:round; stroke-linejoin:round;">
<svg:g>
</svg:g>
<svg:g>
</svg:g>
<svg:g>
</svg:g>
<svg:g>
</svg:g>
</svg:g>
<svg:g style="fill:#000000; fill-opacity:0.0;  stroke:#000000; stroke-width:0.000000; stroke-opacity:1;  stroke-linecap:round; stroke-linejoin:round;">
<svg:g>
</svg:g>
<svg:g>
</svg:g>
<svg:g>
</svg:g>
<svg:g>
</svg:g>
</svg:g> 
</svg:g><svg:g><svg:title>SVG Picture created as kicadBoard-B_Mask.svg date 2022/11/18 05:05:40 </svg:title>
  <svg:desc>Picture generated by PCBNEW </svg:desc>
<svg:g style="fill:#000000; fill-opacity:1.000000;stroke:#000000; stroke-opacity:1.000000; stroke-linecap:round; stroke-linejoin:round;" transform="translate(0 0) scale(1 1)">
</svg:g>
<svg:g style="fill:#000000; fill-opacity:0.0;  stroke:#000000; stroke-width:0.000000; stroke-opacity:1;  stroke-linecap:round; stroke-linejoin:round;">
<svg:g>
</svg:g>
<svg:g style="fill:#000000; fill-opacity:0.0;  stroke:#000000; stroke-width:1.000000; stroke-opacity:1;  stroke-linecap:round; stroke-linejoin:round;">
</svg:g>
<svg:g style="fill:#000000; fill-opacity:1.0;  stroke:#000000; stroke-width:1.000000; stroke-opacity:1;  stroke-linecap:round; stroke-linejoin:round;">
<svg:path style="fill:#000000; fill-opacity:1.0;  stroke:#000000; stroke-width:1.000000; stroke-opacity:1;  stroke-linecap:round; stroke-linejoin:round;fill-rule:evenodd;" d="M 49200000.000000,50800000.000000 49200000.000000,49200000.000000 50800000.000000,49200000.000000 50800000.000000,50800000.000000 Z"/> 
<svg:circle cx="52540000.000000" cy="50000000.000000" r="800000.000000"/> 
<svg:circle cx="55080000.000000" cy="50000000.000000" r="800000.000000"/> 
<svg:circle cx="57620000.000000" cy="50000000.000000" r="800000.000000"/> 
<svg:circle cx="60160000.000000" cy="50000000.000000" r="800000.000000"/> 
<svg:circle cx="62700000.000000" cy="50000000.000000" r="800000.000000"/> 
<svg:circle cx="65240000.000000" cy="50000000.000000" r="800000.000000"/> 
<svg:circle cx="67780000.000000" cy="50000000.000000" r="800000.000000"/> 
<svg:circle cx="70320000.000000" cy="50000000.000000" r="800000.000000"/> 
<svg:circle cx="72860000.000000" cy="50000000.000000" r="800000.000000"/> 
<svg:circle cx="75400000.000000" cy="50000000.000000" r="800000.000000"/> 
<svg:circle cx="77940000.000000" cy="50000000.000000" r="800000.000000"/> 
<svg:circle cx="80480000.000000" cy="50000000.000000" r="800000.000000"/> 
<svg:circle cx="83020000.000000" cy="50000000.000000" r="800000.000000"/> 
</svg:g>
<svg:g>
</svg:g>
<svg:g>
</svg:g>
<svg:g>
</svg:g>
</svg:g>
<svg:g style="fill:#000000; fill-opacity:1.0;  stroke:#000000; stroke-width:1.000000; stroke-opacity:1;  stroke-linecap:round; stroke-linejoin:round;">
<svg:g>
</svg:g>
<svg:g>
</svg:g>
<svg:g>
</svg:g>
<svg:g>
</svg:g>
</svg:g> 
</svg:g><svg:g><svg:title>SVG Picture created as kicadBoard-B_Paste.svg date 2022/11/18 05:05:40 </svg:title>
  <svg:desc>Picture generated by PCBNEW </svg:desc>
<svg:g style="fill:#000000; fill-opacity:1.000000;stroke:#000000; stroke-opacity:1.000000; stroke-linecap:round; stroke-linejoin:round;" transform="translate(0 0) scale(1 1)">
</svg:g>
<svg:g style="fill:#000000; fill-opacity:0.0;  stroke:#000000; stroke-width:0.000000; stroke-opacity:1;  stroke-linecap:round; stroke-linejoin:round;">
<svg:g>
</svg:g>
<svg:g>
</svg:g>
<svg:g>
</svg:g>
<svg:g>
</svg:g>
</svg:g>
<svg:g style="fill:#000000; fill-opacity:0.0;  stroke:#000000; stroke-width:0.000000; stroke-opacity:1;  stroke-linecap:round; stroke-linejoin:round;">
<svg:g>
</svg:g>
<svg:g>
</svg:g>
<svg:g>
</svg:g>
<svg:g>
</svg:g>
</svg:g> 
</svg:g><svg:g><svg:title>SVG Picture created as kicadBoard-B_Silkscreen.svg date 2022/11/18 05:05:40 </svg:title>
  <svg:desc>Picture generated by PCBNEW </svg:desc>
<svg:g style="fill:#000000; fill-opacity:1.000000;stroke:#000000; stroke-opacity:1.000000; stroke-linecap:round; stroke-linejoin:round;" transform="translate(0 0) scale(1 1)">
</svg:g>
<svg:g style="fill:#000000; fill-opacity:0.0;  stroke:#000000; stroke-width:0.000000; stroke-opacity:1;  stroke-linecap:round; stroke-linejoin:round;">
<svg:g>
</svg:g>
<svg:g>
</svg:g>
<svg:g>
</svg:g>
<svg:g>
</svg:g>
</svg:g>
<svg:g style="fill:#000000; fill-opacity:0.0;  stroke:#000000; stroke-width:0.000000; stroke-opacity:1;  stroke-linecap:round; stroke-linejoin:round;">
<svg:g>
</svg:g>
<svg:g>
</svg:g>
<svg:g>
</svg:g>
<svg:g>
</svg:g>
</svg:g> 
</svg:g><svg:g><svg:title>SVG Picture created as kicadBoard-Edge_Cuts.svg date 2022/11/18 05:05:40 </svg:title>
  <svg:desc>Picture generated by PCBNEW </svg:desc>
<svg:g style="fill:#000000; fill-opacity:1.000000;stroke:#000000; stroke-opacity:1.000000; stroke-linecap:round; stroke-linejoin:round;" transform="translate(0 0) scale(1 1)">
</svg:g>
<svg:g style="fill:#000000; fill-opacity:0.0;  stroke:#000000; stroke-width:0.000000; stroke-opacity:1;  stroke-linecap:round; stroke-linejoin:round;">
<svg:g>
</svg:g>
<svg:g>
</svg:g>
<svg:g>
</svg:g>
<svg:g>
</svg:g>
</svg:g> 
</svg:g><svg:g><svg:title>SVG Picture created as kicadBoard-F_Adhesive.svg date 2022/11/18 05:05:40 </svg:title>
  <svg:desc>Picture generated by PCBNEW </svg:desc>
<svg:g style="fill:#000000; fill-opacity:1.000000;stroke:#000000; stroke-opacity:1.000000; stroke-linecap:round; stroke-linejoin:round;" transform="translate(0 0) scale(1 1)">
</svg:g>
<svg:g style="fill:#000000; fill-opacity:0.0;  stroke:#000000; stroke-width:0.000000; stroke-opacity:1;  stroke-linecap:round; stroke-linejoin:round;">
<svg:g>
</svg:g>
<svg:g>
</svg:g>
<svg:g>
</svg:g>
<svg:g>
</svg:g>
</svg:g>
<svg:g style="fill:#000000; fill-opacity:0.0;  stroke:#000000; stroke-width:0.000000; stroke-opacity:1;  stroke-linecap:round; stroke-linejoin:round;">
<svg:g>
</svg:g>
<svg:g>
</svg:g>
<svg:g>
</svg:g>
<svg:g>
</svg:g>
</svg:g> 
</svg:g><svg:g><svg:title>SVG Picture created as kicadBoard-F_Courtyard.svg date 2022/11/18 05:05:40 </svg:title>
  <svg:desc>Picture generated by PCBNEW </svg:desc>
<svg:g style="fill:#000000; fill-opacity:1.000000;stroke:#000000; stroke-opacity:1.000000; stroke-linecap:round; stroke-linejoin:round;" transform="translate(0 0) scale(1 1)">
</svg:g>
<svg:g style="fill:#000000; fill-opacity:0.0;  stroke:#000000; stroke-width:0.000000; stroke-opacity:1;  stroke-linecap:round; stroke-linejoin:round;">
</svg:g>
<svg:g style="fill:#FF26E2; fill-opacity:0.0;  stroke:#FF26E2; stroke-width:0.000000; stroke-opacity:1;  stroke-linecap:round; stroke-linejoin:round;">
</svg:g>
<svg:g style="fill:#FF26E2; fill-opacity:0.0;  stroke:#FF26E2; stroke-width:50000.000000; stroke-opacity:1;  stroke-linecap:round; stroke-linejoin:round;">
<svg:path d="M84750000 48350000 L48300000 48350000 "/>
<svg:path d="M84750000 51650000 L84750000 48350000 "/>
<svg:path d="M48300000 48350000 L48300000 51650000 "/>
<svg:path d="M48300000 51650000 L84750000 51650000 "/>
<svg:g>
</svg:g>
<svg:g>
</svg:g>
<svg:g>
</svg:g>
<svg:g>
</svg:g>
</svg:g>
<svg:g style="fill:#000000; fill-opacity:0.0;  stroke:#000000; stroke-width:50000.000000; stroke-opacity:1;  stroke-linecap:round; stroke-linejoin:round;">
<svg:g>
</svg:g>
<svg:g>
</svg:g>
<svg:g>
</svg:g>
<svg:g>
</svg:g>
</svg:g> 
</svg:g><svg:g><svg:title>SVG Picture created as kicadBoard-F_Fab.svg date 2022/11/18 05:05:40 </svg:title>
  <svg:desc>Picture generated by PCBNEW </svg:desc>
<svg:g style="fill:#000000; fill-opacity:1.000000;stroke:#000000; stroke-opacity:1.000000; stroke-linecap:round; stroke-linejoin:round;" transform="translate(0 0) scale(1 1)">
</svg:g>
<svg:g style="fill:#000000; fill-opacity:0.0;  stroke:#000000; stroke-width:0.000000; stroke-opacity:1;  stroke-linecap:round; stroke-linejoin:round;">
</svg:g>
<svg:g style="fill:#AFAFAF; fill-opacity:0.0;  stroke:#AFAFAF; stroke-width:0.000000; stroke-opacity:1;  stroke-linecap:round; stroke-linejoin:round;">
</svg:g>
<svg:g style="fill:#AFAFAF; fill-opacity:0.0;  stroke:#AFAFAF; stroke-width:150000.000000; stroke-opacity:1;  stroke-linecap:round; stroke-linejoin:round;">
<svg:text x="67780000.000000" y="52900000.000000" textLength="10814048.000000" font-size="1333333.000000" lengthAdjust="spacingAndGlyphs" text-anchor="middle" opacity="0">R_Array_SIP14</svg:text>
<svg:g class="stroked-text"><svg:desc>R_Array_SIP14</svg:desc>
<svg:path d="M63280000 52852380 L62946666 52376190 "/>
<svg:path d="M62708571 52852380 L62708571 51852380 L63089523 51852380 L63184761 51900000 L63232380 51947619 L63280000 52042857 L63280000 52185714 L63232380 52280952 L63184761 52328571 L63089523 52376190 L62708571 52376190 "/>
<svg:path d="M63470476 52947619 L64232380 52947619 "/>
<svg:path d="M64422857 52566666 L64899047 52566666 "/>
<svg:path d="M64327619 52852380 L64660952 51852380 L64994285 52852380 "/>
<svg:path d="M65327619 52852380 L65327619 52185714 "/>
<svg:path d="M65327619 52376190 L65375238 52280952 L65422857 52233333 L65518095 52185714 L65613333 52185714 "/>
<svg:path d="M65946666 52852380 L65946666 52185714 "/>
<svg:path d="M65946666 52376190 L65994285 52280952 L66041904 52233333 L66137142 52185714 L66232380 52185714 "/>
<svg:path d="M66994285 52852380 L66994285 52328571 L66946666 52233333 L66851428 52185714 L66660952 52185714 L66565714 52233333 "/>
<svg:path d="M66994285 52804761 L66899047 52852380 L66660952 52852380 L66565714 52804761 L66518095 52709523 L66518095 52614285 L66565714 52519047 L66660952 52471428 L66899047 52471428 L66994285 52423809 "/>
<svg:path d="M67375238 52185714 L67613333 52852380 "/>
<svg:path d="M67851428 52185714 L67613333 52852380 L67518095 53090476 L67470476 53138095 L67375238 53185714 "/>
<svg:path d="M67994285 52947619 L68756190 52947619 "/>
<svg:path d="M68946666 52804761 L69089523 52852380 L69327619 52852380 L69422857 52804761 L69470476 52757142 L69518095 52661904 L69518095 52566666 L69470476 52471428 L69422857 52423809 L69327619 52376190 L69137142 52328571 L69041904 52280952 L68994285 52233333 L68946666 52138095 L68946666 52042857 L68994285 51947619 L69041904 51900000 L69137142 51852380 L69375238 51852380 L69518095 51900000 "/>
<svg:path d="M69946666 52852380 L69946666 51852380 "/>
<svg:path d="M70422857 52852380 L70422857 51852380 L70803809 51852380 L70899047 51900000 L70946666 51947619 L70994285 52042857 L70994285 52185714 L70946666 52280952 L70899047 52328571 L70803809 52376190 L70422857 52376190 "/>
<svg:path d="M71946666 52852380 L71375238 52852380 "/>
<svg:path d="M71660952 52852380 L71660952 51852380 L71565714 51995238 L71470476 52090476 L71375238 52138095 "/>
<svg:path d="M72803809 52185714 L72803809 52852380 "/>
<svg:path d="M72565714 51804761 L72327619 52519047 L72946666 52519047 "/>
</svg:g><svg:text x="66510000.000000" y="50500000.000000" textLength="13909286.000000" font-size="1333333.000000" lengthAdjust="spacingAndGlyphs" text-anchor="middle" opacity="0">FZKRRARRAYSIP14</svg:text>
<svg:g class="stroked-text"><svg:desc>FZKRRARRAYSIP14</svg:desc>
<svg:path d="M60224285 49928571 L59890952 49928571 "/>
<svg:path d="M59890952 50452380 L59890952 49452380 L60367142 49452380 "/>
<svg:path d="M60652857 49452380 L61319523 49452380 L60652857 50452380 L61319523 50452380 "/>
<svg:path d="M61700476 50452380 L61700476 49452380 "/>
<svg:path d="M62271904 50452380 L61843333 49880952 "/>
<svg:path d="M62271904 49452380 L61700476 50023809 "/>
<svg:path d="M63271904 50452380 L62938571 49976190 "/>
<svg:path d="M62700476 50452380 L62700476 49452380 L63081428 49452380 L63176666 49500000 L63224285 49547619 L63271904 49642857 L63271904 49785714 L63224285 49880952 L63176666 49928571 L63081428 49976190 L62700476 49976190 "/>
<svg:path d="M64271904 50452380 L63938571 49976190 "/>
<svg:path d="M63700476 50452380 L63700476 49452380 L64081428 49452380 L64176666 49500000 L64224285 49547619 L64271904 49642857 L64271904 49785714 L64224285 49880952 L64176666 49928571 L64081428 49976190 L63700476 49976190 "/>
<svg:path d="M64652857 50166666 L65129047 50166666 "/>
<svg:path d="M64557619 50452380 L64890952 49452380 L65224285 50452380 "/>
<svg:path d="M66129047 50452380 L65795714 49976190 "/>
<svg:path d="M65557619 50452380 L65557619 49452380 L65938571 49452380 L66033809 49500000 L66081428 49547619 L66129047 49642857 L66129047 49785714 L66081428 49880952 L66033809 49928571 L65938571 49976190 L65557619 49976190 "/>
<svg:path d="M67129047 50452380 L66795714 49976190 "/>
<svg:path d="M66557619 50452380 L66557619 49452380 L66938571 49452380 L67033809 49500000 L67081428 49547619 L67129047 49642857 L67129047 49785714 L67081428 49880952 L67033809 49928571 L66938571 49976190 L66557619 49976190 "/>
<svg:path d="M67510000 50166666 L67986190 50166666 "/>
<svg:path d="M67414761 50452380 L67748095 49452380 L68081428 50452380 "/>
<svg:path d="M68605238 49976190 L68605238 50452380 "/>
<svg:path d="M68271904 49452380 L68605238 49976190 L68938571 49452380 "/>
<svg:path d="M69224285 50404761 L69367142 50452380 L69605238 50452380 L69700476 50404761 L69748095 50357142 L69795714 50261904 L69795714 50166666 L69748095 50071428 L69700476 50023809 L69605238 49976190 L69414761 49928571 L69319523 49880952 L69271904 49833333 L69224285 49738095 L69224285 49642857 L69271904 49547619 L69319523 49500000 L69414761 49452380 L69652857 49452380 L69795714 49500000 "/>
<svg:path d="M70224285 50452380 L70224285 49452380 "/>
<svg:path d="M70700476 50452380 L70700476 49452380 L71081428 49452380 L71176666 49500000 L71224285 49547619 L71271904 49642857 L71271904 49785714 L71224285 49880952 L71176666 49928571 L71081428 49976190 L70700476 49976190 "/>
<svg:path d="M72224285 50452380 L71652857 50452380 "/>
<svg:path d="M71938571 50452380 L71938571 49452380 L71843333 49595238 L71748095 49690476 L71652857 49738095 "/>
<svg:path d="M73081428 49785714 L73081428 50452380 "/>
<svg:path d="M72843333 49404761 L72605238 50119047 L73224285 50119047 "/>
</svg:g></svg:g>
<svg:g style="fill:#AFAFAF; fill-opacity:0.0;  stroke:#AFAFAF; stroke-width:100000.000000; stroke-opacity:1;  stroke-linecap:round; stroke-linejoin:round;">
<svg:path d="M48710000 51250000 L84310000 51250000 "/>
<svg:path d="M48710000 48750000 L48710000 51250000 "/>
<svg:path d="M84310000 48750000 L48710000 48750000 "/>
<svg:path d="M51270000 48750000 L51270000 51250000 "/>
<svg:path d="M84310000 51250000 L84310000 48750000 "/>
<svg:g>
</svg:g>
<svg:g>
</svg:g>
<svg:g>
</svg:g>
<svg:g>
</svg:g>
</svg:g>
<svg:g style="fill:#000000; fill-opacity:0.0;  stroke:#000000; stroke-width:100000.000000; stroke-opacity:1;  stroke-linecap:round; stroke-linejoin:round;">
<svg:g>
</svg:g>
<svg:g>
</svg:g>
<svg:g>
</svg:g>
<svg:g>
</svg:g>
</svg:g> 
</svg:g><svg:g><svg:title>SVG Picture created as kicadBoard-F_Mask.svg date 2022/11/18 05:05:40 </svg:title>
  <svg:desc>Picture generated by PCBNEW </svg:desc>
<svg:g style="fill:#000000; fill-opacity:1.000000;stroke:#000000; stroke-opacity:1.000000; stroke-linecap:round; stroke-linejoin:round;" transform="translate(0 0) scale(1 1)">
</svg:g>
<svg:g style="fill:#000000; fill-opacity:0.0;  stroke:#000000; stroke-width:0.000000; stroke-opacity:1;  stroke-linecap:round; stroke-linejoin:round;">
<svg:g>
</svg:g>
<svg:g style="fill:#000000; fill-opacity:0.0;  stroke:#000000; stroke-width:1.000000; stroke-opacity:1;  stroke-linecap:round; stroke-linejoin:round;">
</svg:g>
<svg:g style="fill:#000000; fill-opacity:1.0;  stroke:#000000; stroke-width:1.000000; stroke-opacity:1;  stroke-linecap:round; stroke-linejoin:round;">
<svg:path style="fill:#000000; fill-opacity:1.0;  stroke:#000000; stroke-width:1.000000; stroke-opacity:1;  stroke-linecap:round; stroke-linejoin:round;fill-rule:evenodd;" d="M 49200000.000000,50800000.000000 49200000.000000,49200000.000000 50800000.000000,49200000.000000 50800000.000000,50800000.000000 Z"/> 
<svg:circle cx="52540000.000000" cy="50000000.000000" r="800000.000000"/> 
<svg:circle cx="55080000.000000" cy="50000000.000000" r="800000.000000"/> 
<svg:circle cx="57620000.000000" cy="50000000.000000" r="800000.000000"/> 
<svg:circle cx="60160000.000000" cy="50000000.000000" r="800000.000000"/> 
<svg:circle cx="62700000.000000" cy="50000000.000000" r="800000.000000"/> 
<svg:circle cx="65240000.000000" cy="50000000.000000" r="800000.000000"/> 
<svg:circle cx="67780000.000000" cy="50000000.000000" r="800000.000000"/> 
<svg:circle cx="70320000.000000" cy="50000000.000000" r="800000.000000"/> 
<svg:circle cx="72860000.000000" cy="50000000.000000" r="800000.000000"/> 
<svg:circle cx="75400000.000000" cy="50000000.000000" r="800000.000000"/> 
<svg:circle cx="77940000.000000" cy="50000000.000000" r="800000.000000"/> 
<svg:circle cx="80480000.000000" cy="50000000.000000" r="800000.000000"/> 
<svg:circle cx="83020000.000000" cy="50000000.000000" r="800000.000000"/> 
</svg:g>
<svg:g>
</svg:g>
<svg:g>
</svg:g>
<svg:g>
</svg:g>
</svg:g>
<svg:g style="fill:#000000; fill-opacity:1.0;  stroke:#000000; stroke-width:1.000000; stroke-opacity:1;  stroke-linecap:round; stroke-linejoin:round;">
<svg:g>
</svg:g>
<svg:g>
</svg:g>
<svg:g>
</svg:g>
<svg:g>
</svg:g>
</svg:g> 
</svg:g><svg:g><svg:title>SVG Picture created as kicadBoard-F_Paste.svg date 2022/11/18 05:05:40 </svg:title>
  <svg:desc>Picture generated by PCBNEW </svg:desc>
<svg:g style="fill:#000000; fill-opacity:1.000000;stroke:#000000; stroke-opacity:1.000000; stroke-linecap:round; stroke-linejoin:round;" transform="translate(0 0) scale(1 1)">
</svg:g>
<svg:g style="fill:#000000; fill-opacity:0.0;  stroke:#000000; stroke-width:0.000000; stroke-opacity:1;  stroke-linecap:round; stroke-linejoin:round;">
<svg:g>
</svg:g>
<svg:g>
</svg:g>
<svg:g>
</svg:g>
<svg:g>
</svg:g>
</svg:g>
<svg:g style="fill:#000000; fill-opacity:0.0;  stroke:#000000; stroke-width:0.000000; stroke-opacity:1;  stroke-linecap:round; stroke-linejoin:round;">
<svg:g>
</svg:g>
<svg:g>
</svg:g>
<svg:g>
</svg:g>
<svg:g>
</svg:g>
</svg:g> 
</svg:g><svg:g><svg:title>SVG Picture created as kicadBoard-F_Silkscreen.svg date 2022/11/18 05:05:40 </svg:title>
  <svg:desc>Picture generated by PCBNEW </svg:desc>
<svg:g style="fill:#000000; fill-opacity:1.000000;stroke:#000000; stroke-opacity:1.000000; stroke-linecap:round; stroke-linejoin:round;" transform="translate(0 0) scale(1 1)">
</svg:g>
<svg:g style="fill:#000000; fill-opacity:0.0;  stroke:#000000; stroke-width:0.000000; stroke-opacity:1;  stroke-linecap:round; stroke-linejoin:round;">
</svg:g>
<svg:g style="fill:#F2EDA1; fill-opacity:0.0;  stroke:#F2EDA1; stroke-width:0.000000; stroke-opacity:1;  stroke-linecap:round; stroke-linejoin:round;">
</svg:g>
<svg:g style="fill:#F2EDA1; fill-opacity:0.0;  stroke:#F2EDA1; stroke-width:150000.000000; stroke-opacity:1;  stroke-linecap:round; stroke-linejoin:round;">
<svg:text x="67780000.000000" y="48100000.000000" textLength="13714287.000000" font-size="1333333.000000" lengthAdjust="spacingAndGlyphs" text-anchor="middle" opacity="0">FZKRRARRAYSIP14</svg:text>
<svg:g class="stroked-text"><svg:desc>FZKRRARRAYSIP14</svg:desc>
<svg:path d="M61494285 47528571 L61160952 47528571 "/>
<svg:path d="M61160952 48052380 L61160952 47052380 L61637142 47052380 "/>
<svg:path d="M61922857 47052380 L62589523 47052380 L61922857 48052380 L62589523 48052380 "/>
<svg:path d="M62970476 48052380 L62970476 47052380 "/>
<svg:path d="M63541904 48052380 L63113333 47480952 "/>
<svg:path d="M63541904 47052380 L62970476 47623809 "/>
<svg:path d="M64541904 48052380 L64208571 47576190 "/>
<svg:path d="M63970476 48052380 L63970476 47052380 L64351428 47052380 L64446666 47100000 L64494285 47147619 L64541904 47242857 L64541904 47385714 L64494285 47480952 L64446666 47528571 L64351428 47576190 L63970476 47576190 "/>
<svg:path d="M65541904 48052380 L65208571 47576190 "/>
<svg:path d="M64970476 48052380 L64970476 47052380 L65351428 47052380 L65446666 47100000 L65494285 47147619 L65541904 47242857 L65541904 47385714 L65494285 47480952 L65446666 47528571 L65351428 47576190 L64970476 47576190 "/>
<svg:path d="M65922857 47766666 L66399047 47766666 "/>
<svg:path d="M65827619 48052380 L66160952 47052380 L66494285 48052380 "/>
<svg:path d="M67399047 48052380 L67065714 47576190 "/>
<svg:path d="M66827619 48052380 L66827619 47052380 L67208571 47052380 L67303809 47100000 L67351428 47147619 L67399047 47242857 L67399047 47385714 L67351428 47480952 L67303809 47528571 L67208571 47576190 L66827619 47576190 "/>
<svg:path d="M68399047 48052380 L68065714 47576190 "/>
<svg:path d="M67827619 48052380 L67827619 47052380 L68208571 47052380 L68303809 47100000 L68351428 47147619 L68399047 47242857 L68399047 47385714 L68351428 47480952 L68303809 47528571 L68208571 47576190 L67827619 47576190 "/>
<svg:path d="M68780000 47766666 L69256190 47766666 "/>
<svg:path d="M68684761 48052380 L69018095 47052380 L69351428 48052380 "/>
<svg:path d="M69875238 47576190 L69875238 48052380 "/>
<svg:path d="M69541904 47052380 L69875238 47576190 L70208571 47052380 "/>
<svg:path d="M70494285 48004761 L70637142 48052380 L70875238 48052380 L70970476 48004761 L71018095 47957142 L71065714 47861904 L71065714 47766666 L71018095 47671428 L70970476 47623809 L70875238 47576190 L70684761 47528571 L70589523 47480952 L70541904 47433333 L70494285 47338095 L70494285 47242857 L70541904 47147619 L70589523 47100000 L70684761 47052380 L70922857 47052380 L71065714 47100000 "/>
<svg:path d="M71494285 48052380 L71494285 47052380 "/>
<svg:path d="M71970476 48052380 L71970476 47052380 L72351428 47052380 L72446666 47100000 L72494285 47147619 L72541904 47242857 L72541904 47385714 L72494285 47480952 L72446666 47528571 L72351428 47576190 L71970476 47576190 "/>
<svg:path d="M73494285 48052380 L72922857 48052380 "/>
<svg:path d="M73208571 48052380 L73208571 47052380 L73113333 47195238 L73018095 47290476 L72922857 47338095 "/>
<svg:path d="M74351428 47385714 L74351428 48052380 "/>
<svg:path d="M74113333 47004761 L73875238 47719047 L74494285 47719047 "/>
</svg:g></svg:g>
<svg:g style="fill:#F2EDA1; fill-opacity:0.0;  stroke:#F2EDA1; stroke-width:120000.000000; stroke-opacity:1;  stroke-linecap:round; stroke-linejoin:round;">
<svg:path d="M84460000 51400000 L84460000 48600000 "/>
<svg:path d="M48560000 51400000 L84460000 51400000 "/>
<svg:path d="M48560000 48600000 L48560000 51400000 "/>
<svg:path d="M51270000 48600000 L51270000 51400000 "/>
<svg:path d="M84460000 48600000 L48560000 48600000 "/>
<svg:g>
</svg:g>
<svg:g>
</svg:g>
<svg:g>
</svg:g>
<svg:g>
</svg:g>
</svg:g>
<svg:g style="fill:#000000; fill-opacity:0.0;  stroke:#000000; stroke-width:120000.000000; stroke-opacity:1;  stroke-linecap:round; stroke-linejoin:round;">
<svg:g>
</svg:g>
<svg:g>
</svg:g>
<svg:g>
</svg:g>
<svg:g>
</svg:g>
</svg:g> 
</svg:g><svg:g><svg:title>SVG Picture created as kicadBoard-Margin.svg date 2022/11/18 05:05:40 </svg:title>
  <svg:desc>Picture generated by PCBNEW </svg:desc>
<svg:g style="fill:#000000; fill-opacity:1.000000;stroke:#000000; stroke-opacity:1.000000; stroke-linecap:round; stroke-linejoin:round;" transform="translate(0 0) scale(1 1)">
</svg:g>
<svg:g style="fill:#000000; fill-opacity:0.0;  stroke:#000000; stroke-width:0.000000; stroke-opacity:1;  stroke-linecap:round; stroke-linejoin:round;">
<svg:g>
</svg:g>
<svg:g>
</svg:g>
<svg:g>
</svg:g>
<svg:g>
</svg:g>
</svg:g>
<svg:g style="fill:#000000; fill-opacity:0.0;  stroke:#000000; stroke-width:0.000000; stroke-opacity:1;  stroke-linecap:round; stroke-linejoin:round;">
<svg:g>
</svg:g>
<svg:g>
</svg:g>
<svg:g>
</svg:g>
<svg:g>
</svg:g>
</svg:g> 
</svg:g><svg:g><svg:title>SVG Picture created as kicadBoard-F_Cu.svg date 2022/11/18 05:05:40 </svg:title>
  <svg:desc>Picture generated by PCBNEW </svg:desc>
<svg:g style="fill:#000000; fill-opacity:1.000000;stroke:#000000; stroke-opacity:1.000000; stroke-linecap:round; stroke-linejoin:round;" transform="translate(0 0) scale(1 1)">
</svg:g>
<svg:g style="fill:#000000; fill-opacity:0.0;  stroke:#000000; stroke-width:0.000000; stroke-opacity:1;  stroke-linecap:round; stroke-linejoin:round;">
<svg:g>
</svg:g>
<svg:g style="fill:#C83434; fill-opacity:0.0;  stroke:#C83434; stroke-width:0.000000; stroke-opacity:1;  stroke-linecap:round; stroke-linejoin:round;">
</svg:g>
<svg:g style="fill:#C83434; fill-opacity:0.0;  stroke:#C83434; stroke-width:1.000000; stroke-opacity:1;  stroke-linecap:round; stroke-linejoin:round;">
</svg:g>
<svg:g style="fill:#C83434; fill-opacity:1.0;  stroke:#C83434; stroke-width:1.000000; stroke-opacity:1;  stroke-linecap:round; stroke-linejoin:round;">
<svg:path style="fill:#C83434; fill-opacity:1.0;  stroke:#C83434; stroke-width:1.000000; stroke-opacity:1;  stroke-linecap:round; stroke-linejoin:round;fill-rule:evenodd;" d="M 49200000.000000,50800000.000000 49200000.000000,49200000.000000 50800000.000000,49200000.000000 50800000.000000,50800000.000000 Z"/> 
<svg:circle cx="52540000.000000" cy="50000000.000000" r="800000.000000"/> 
<svg:circle cx="55080000.000000" cy="50000000.000000" r="800000.000000"/> 
<svg:circle cx="57620000.000000" cy="50000000.000000" r="800000.000000"/> 
<svg:circle cx="60160000.000000" cy="50000000.000000" r="800000.000000"/> 
<svg:circle cx="62700000.000000" cy="50000000.000000" r="800000.000000"/> 
<svg:circle cx="65240000.000000" cy="50000000.000000" r="800000.000000"/> 
<svg:circle cx="67780000.000000" cy="50000000.000000" r="800000.000000"/> 
<svg:circle cx="70320000.000000" cy="50000000.000000" r="800000.000000"/> 
<svg:circle cx="72860000.000000" cy="50000000.000000" r="800000.000000"/> 
<svg:circle cx="75400000.000000" cy="50000000.000000" r="800000.000000"/> 
<svg:circle cx="77940000.000000" cy="50000000.000000" r="800000.000000"/> 
<svg:circle cx="80480000.000000" cy="50000000.000000" r="800000.000000"/> 
<svg:circle cx="83020000.000000" cy="50000000.000000" r="800000.000000"/> 
</svg:g>
<svg:g>
</svg:g>
<svg:g>
</svg:g>
<svg:g>
</svg:g>
</svg:g>
<svg:g style="fill:#FFFFFF; fill-opacity:1.0;  stroke:#FFFFFF; stroke-width:1.000000; stroke-opacity:1;  stroke-linecap:round; stroke-linejoin:round;">
<svg:circle cx="50000000.000000" cy="50000000.000000" r="400000.000000"/> 
</svg:g>
<svg:g style="fill:#FFFFFF; fill-opacity:1.0;  stroke:#FFFFFF; stroke-width:21200.000000; stroke-opacity:1;  stroke-linecap:round; stroke-linejoin:round;">
</svg:g>
<svg:g style="fill:#FFFFFF; fill-opacity:1.0;  stroke:#FFFFFF; stroke-width:1.000000; stroke-opacity:1;  stroke-linecap:round; stroke-linejoin:round;">
<svg:circle cx="52540000.000000" cy="50000000.000000" r="400000.000000"/> 
</svg:g>
<svg:g style="fill:#FFFFFF; fill-opacity:1.0;  stroke:#FFFFFF; stroke-width:21200.000000; stroke-opacity:1;  stroke-linecap:round; stroke-linejoin:round;">
</svg:g>
<svg:g style="fill:#FFFFFF; fill-opacity:1.0;  stroke:#FFFFFF; stroke-width:1.000000; stroke-opacity:1;  stroke-linecap:round; stroke-linejoin:round;">
<svg:circle cx="55080000.000000" cy="50000000.000000" r="400000.000000"/> 
</svg:g>
<svg:g style="fill:#FFFFFF; fill-opacity:1.0;  stroke:#FFFFFF; stroke-width:21200.000000; stroke-opacity:1;  stroke-linecap:round; stroke-linejoin:round;">
</svg:g>
<svg:g style="fill:#FFFFFF; fill-opacity:1.0;  stroke:#FFFFFF; stroke-width:1.000000; stroke-opacity:1;  stroke-linecap:round; stroke-linejoin:round;">
<svg:circle cx="57620000.000000" cy="50000000.000000" r="400000.000000"/> 
</svg:g>
<svg:g style="fill:#FFFFFF; fill-opacity:1.0;  stroke:#FFFFFF; stroke-width:21200.000000; stroke-opacity:1;  stroke-linecap:round; stroke-linejoin:round;">
</svg:g>
<svg:g style="fill:#FFFFFF; fill-opacity:1.0;  stroke:#FFFFFF; stroke-width:1.000000; stroke-opacity:1;  stroke-linecap:round; stroke-linejoin:round;">
<svg:circle cx="60160000.000000" cy="50000000.000000" r="400000.000000"/> 
</svg:g>
<svg:g style="fill:#FFFFFF; fill-opacity:1.0;  stroke:#FFFFFF; stroke-width:21200.000000; stroke-opacity:1;  stroke-linecap:round; stroke-linejoin:round;">
</svg:g>
<svg:g style="fill:#FFFFFF; fill-opacity:1.0;  stroke:#FFFFFF; stroke-width:1.000000; stroke-opacity:1;  stroke-linecap:round; stroke-linejoin:round;">
<svg:circle cx="62700000.000000" cy="50000000.000000" r="400000.000000"/> 
</svg:g>
<svg:g style="fill:#FFFFFF; fill-opacity:1.0;  stroke:#FFFFFF; stroke-width:21200.000000; stroke-opacity:1;  stroke-linecap:round; stroke-linejoin:round;">
</svg:g>
<svg:g style="fill:#FFFFFF; fill-opacity:1.0;  stroke:#FFFFFF; stroke-width:1.000000; stroke-opacity:1;  stroke-linecap:round; stroke-linejoin:round;">
<svg:circle cx="65240000.000000" cy="50000000.000000" r="400000.000000"/> 
</svg:g>
<svg:g style="fill:#FFFFFF; fill-opacity:1.0;  stroke:#FFFFFF; stroke-width:21200.000000; stroke-opacity:1;  stroke-linecap:round; stroke-linejoin:round;">
</svg:g>
<svg:g style="fill:#FFFFFF; fill-opacity:1.0;  stroke:#FFFFFF; stroke-width:1.000000; stroke-opacity:1;  stroke-linecap:round; stroke-linejoin:round;">
<svg:circle cx="67780000.000000" cy="50000000.000000" r="400000.000000"/> 
</svg:g>
<svg:g style="fill:#FFFFFF; fill-opacity:1.0;  stroke:#FFFFFF; stroke-width:21200.000000; stroke-opacity:1;  stroke-linecap:round; stroke-linejoin:round;">
</svg:g>
<svg:g style="fill:#FFFFFF; fill-opacity:1.0;  stroke:#FFFFFF; stroke-width:1.000000; stroke-opacity:1;  stroke-linecap:round; stroke-linejoin:round;">
<svg:circle cx="70320000.000000" cy="50000000.000000" r="400000.000000"/> 
</svg:g>
<svg:g style="fill:#FFFFFF; fill-opacity:1.0;  stroke:#FFFFFF; stroke-width:21200.000000; stroke-opacity:1;  stroke-linecap:round; stroke-linejoin:round;">
</svg:g>
<svg:g style="fill:#FFFFFF; fill-opacity:1.0;  stroke:#FFFFFF; stroke-width:1.000000; stroke-opacity:1;  stroke-linecap:round; stroke-linejoin:round;">
<svg:circle cx="72860000.000000" cy="50000000.000000" r="400000.000000"/> 
</svg:g>
<svg:g style="fill:#FFFFFF; fill-opacity:1.0;  stroke:#FFFFFF; stroke-width:21200.000000; stroke-opacity:1;  stroke-linecap:round; stroke-linejoin:round;">
</svg:g>
<svg:g style="fill:#FFFFFF; fill-opacity:1.0;  stroke:#FFFFFF; stroke-width:1.000000; stroke-opacity:1;  stroke-linecap:round; stroke-linejoin:round;">
<svg:circle cx="75400000.000000" cy="50000000.000000" r="400000.000000"/> 
</svg:g>
<svg:g style="fill:#FFFFFF; fill-opacity:1.0;  stroke:#FFFFFF; stroke-width:21200.000000; stroke-opacity:1;  stroke-linecap:round; stroke-linejoin:round;">
</svg:g>
<svg:g style="fill:#FFFFFF; fill-opacity:1.0;  stroke:#FFFFFF; stroke-width:1.000000; stroke-opacity:1;  stroke-linecap:round; stroke-linejoin:round;">
<svg:circle cx="77940000.000000" cy="50000000.000000" r="400000.000000"/> 
</svg:g>
<svg:g style="fill:#FFFFFF; fill-opacity:1.0;  stroke:#FFFFFF; stroke-width:21200.000000; stroke-opacity:1;  stroke-linecap:round; stroke-linejoin:round;">
</svg:g>
<svg:g style="fill:#FFFFFF; fill-opacity:1.0;  stroke:#FFFFFF; stroke-width:1.000000; stroke-opacity:1;  stroke-linecap:round; stroke-linejoin:round;">
<svg:circle cx="80480000.000000" cy="50000000.000000" r="400000.000000"/> 
</svg:g>
<svg:g style="fill:#FFFFFF; fill-opacity:1.0;  stroke:#FFFFFF; stroke-width:21200.000000; stroke-opacity:1;  stroke-linecap:round; stroke-linejoin:round;">
</svg:g>
<svg:g style="fill:#FFFFFF; fill-opacity:1.0;  stroke:#FFFFFF; stroke-width:1.000000; stroke-opacity:1;  stroke-linecap:round; stroke-linejoin:round;">
<svg:circle cx="83020000.000000" cy="50000000.000000" r="400000.000000"/> 
</svg:g>
<svg:g style="fill:#FFFFFF; fill-opacity:1.0;  stroke:#FFFFFF; stroke-width:21200.000000; stroke-opacity:1;  stroke-linecap:round; stroke-linejoin:round;">
</svg:g>
<svg:g style="fill:#000000; fill-opacity:1.0;  stroke:#000000; stroke-width:21200.000000; stroke-opacity:1;  stroke-linecap:round; stroke-linejoin:round;">
<svg:g>
</svg:g>
<svg:g>
</svg:g>
<svg:g>
</svg:g>
<svg:g>
</svg:g>
</svg:g> 
</svg:g></svg>
