<?xml version='1.0' encoding='ASCII' standalone='yes'?>
<svg xmlns:svg="http://www.w3.org/2000/svg" xmlns="http://www.w3.org/2000/svg" xmlns:xlink="http://www.w3.org/1999/xlink" version="1.1" width="9.999980cm" height="9.999980cm" viewBox="0 0 99999800 99999800">
<title>SVG Picture created as kicadBoard-B_Cu.svg date 2022/11/18 06:20:42 </title>
  <desc>Picture generated by PCBNEW </desc>
<g style="fill:#000000; fill-opacity:1.000000;stroke:#000000; stroke-opacity:1.000000; stroke-linecap:round; stroke-linejoin:round;" transform="translate(0 0) scale(1 1)">
</g>
<g style="fill:#000000; fill-opacity:0.0;  stroke:#000000; stroke-width:0.000000; stroke-opacity:1;  stroke-linecap:round; stroke-linejoin:round;">
<g>
</g>
<g style="fill:#4D7FC4; fill-opacity:0.0;  stroke:#4D7FC4; stroke-width:0.000000; stroke-opacity:1;  stroke-linecap:round; stroke-linejoin:round;">
</g>
<g style="fill:#4D7FC4; fill-opacity:1.0;  stroke:#4D7FC4; stroke-width:1.000000; stroke-opacity:1;  stroke-linecap:round; stroke-linejoin:round;">
<circle cx="50000000.000000" cy="50000000.000000" r="1200000.000000"/> 
</g>
<g style="fill:#4D7FC4; fill-opacity:1.0;  stroke:#4D7FC4; stroke-width:21200.000000; stroke-opacity:1;  stroke-linecap:round; stroke-linejoin:round;">
</g>
<g style="fill:#4D7FC4; fill-opacity:1.0;  stroke:#4D7FC4; stroke-width:1.000000; stroke-opacity:1;  stroke-linecap:round; stroke-linejoin:round;">
<circle cx="72400000.000000" cy="50000000.000000" r="1200000.000000"/> 
</g>
<g>
</g>
<g>
</g>
<g>
</g>
</g>
<g style="fill:#FFFFFF; fill-opacity:1.0;  stroke:#FFFFFF; stroke-width:1.000000; stroke-opacity:1;  stroke-linecap:round; stroke-linejoin:round;">
<circle cx="50000000.000000" cy="50000000.000000" r="600000.000000"/> 
</g>
<g style="fill:#FFFFFF; fill-opacity:1.0;  stroke:#FFFFFF; stroke-width:21200.000000; stroke-opacity:1;  stroke-linecap:round; stroke-linejoin:round;">
</g>
<g style="fill:#FFFFFF; fill-opacity:1.0;  stroke:#FFFFFF; stroke-width:1.000000; stroke-opacity:1;  stroke-linecap:round; stroke-linejoin:round;">
<circle cx="72400000.000000" cy="50000000.000000" r="600000.000000"/> 
</g>
<g style="fill:#FFFFFF; fill-opacity:1.0;  stroke:#FFFFFF; stroke-width:21200.000000; stroke-opacity:1;  stroke-linecap:round; stroke-linejoin:round;">
</g>
<g style="fill:#000000; fill-opacity:1.0;  stroke:#000000; stroke-width:21200.000000; stroke-opacity:1;  stroke-linecap:round; stroke-linejoin:round;">
<g>
</g>
<g>
</g>
<g>
</g>
<g>
</g>
</g> 
<svg:g><svg:title>SVG Picture created as kicadBoard-B_Adhesive.svg date 2022/11/18 06:20:42 </svg:title>
  <svg:desc>Picture generated by PCBNEW </svg:desc>
<svg:g style="fill:#000000; fill-opacity:1.000000;stroke:#000000; stroke-opacity:1.000000; stroke-linecap:round; stroke-linejoin:round;" transform="translate(0 0) scale(1 1)">
</svg:g>
<svg:g style="fill:#000000; fill-opacity:0.0;  stroke:#000000; stroke-width:0.000000; stroke-opacity:1;  stroke-linecap:round; stroke-linejoin:round;">
<svg:g>
</svg:g>
<svg:g>
</svg:g>
<svg:g>
</svg:g>
<svg:g>
</svg:g>
</svg:g>
<svg:g style="fill:#000000; fill-opacity:0.0;  stroke:#000000; stroke-width:0.000000; stroke-opacity:1;  stroke-linecap:round; stroke-linejoin:round;">
<svg:g>
</svg:g>
<svg:g>
</svg:g>
<svg:g>
</svg:g>
<svg:g>
</svg:g>
</svg:g> 
</svg:g><svg:g><svg:title>SVG Picture created as kicadBoard-B_Courtyard.svg date 2022/11/18 06:20:42 </svg:title>
  <svg:desc>Picture generated by PCBNEW </svg:desc>
<svg:g style="fill:#000000; fill-opacity:1.000000;stroke:#000000; stroke-opacity:1.000000; stroke-linecap:round; stroke-linejoin:round;" transform="translate(0 0) scale(1 1)">
</svg:g>
<svg:g style="fill:#000000; fill-opacity:0.0;  stroke:#000000; stroke-width:0.000000; stroke-opacity:1;  stroke-linecap:round; stroke-linejoin:round;">
<svg:g>
</svg:g>
<svg:g>
</svg:g>
<svg:g>
</svg:g>
<svg:g>
</svg:g>
</svg:g>
<svg:g style="fill:#000000; fill-opacity:0.0;  stroke:#000000; stroke-width:0.000000; stroke-opacity:1;  stroke-linecap:round; stroke-linejoin:round;">
<svg:g>
</svg:g>
<svg:g>
</svg:g>
<svg:g>
</svg:g>
<svg:g>
</svg:g>
</svg:g> 
</svg:g><svg:g><svg:title>SVG Picture created as kicadBoard-B_Fab.svg date 2022/11/18 06:20:42 </svg:title>
  <svg:desc>Picture generated by PCBNEW </svg:desc>
<svg:g style="fill:#000000; fill-opacity:1.000000;stroke:#000000; stroke-opacity:1.000000; stroke-linecap:round; stroke-linejoin:round;" transform="translate(0 0) scale(1 1)">
</svg:g>
<svg:g style="fill:#000000; fill-opacity:0.0;  stroke:#000000; stroke-width:0.000000; stroke-opacity:1;  stroke-linecap:round; stroke-linejoin:round;">
<svg:g>
</svg:g>
<svg:g>
</svg:g>
<svg:g>
</svg:g>
<svg:g>
</svg:g>
</svg:g>
<svg:g style="fill:#000000; fill-opacity:0.0;  stroke:#000000; stroke-width:0.000000; stroke-opacity:1;  stroke-linecap:round; stroke-linejoin:round;">
<svg:g>
</svg:g>
<svg:g>
</svg:g>
<svg:g>
</svg:g>
<svg:g>
</svg:g>
</svg:g> 
</svg:g><svg:g><svg:title>SVG Picture created as kicadBoard-B_Mask.svg date 2022/11/18 06:20:42 </svg:title>
  <svg:desc>Picture generated by PCBNEW </svg:desc>
<svg:g style="fill:#000000; fill-opacity:1.000000;stroke:#000000; stroke-opacity:1.000000; stroke-linecap:round; stroke-linejoin:round;" transform="translate(0 0) scale(1 1)">
</svg:g>
<svg:g style="fill:#000000; fill-opacity:0.0;  stroke:#000000; stroke-width:0.000000; stroke-opacity:1;  stroke-linecap:round; stroke-linejoin:round;">
<svg:g>
</svg:g>
<svg:g style="fill:#000000; fill-opacity:1.0;  stroke:#000000; stroke-width:1.000000; stroke-opacity:1;  stroke-linecap:round; stroke-linejoin:round;">
<svg:circle cx="50000000.000000" cy="50000000.000000" r="1200000.000000"/> 
</svg:g>
<svg:g style="fill:#000000; fill-opacity:1.0;  stroke:#000000; stroke-width:21200.000000; stroke-opacity:1;  stroke-linecap:round; stroke-linejoin:round;">
</svg:g>
<svg:g style="fill:#000000; fill-opacity:1.0;  stroke:#000000; stroke-width:1.000000; stroke-opacity:1;  stroke-linecap:round; stroke-linejoin:round;">
<svg:circle cx="72400000.000000" cy="50000000.000000" r="1200000.000000"/> 
</svg:g>
<svg:g>
</svg:g>
<svg:g>
</svg:g>
<svg:g>
</svg:g>
</svg:g>
<svg:g style="fill:#000000; fill-opacity:1.0;  stroke:#000000; stroke-width:1.000000; stroke-opacity:1;  stroke-linecap:round; stroke-linejoin:round;">
<svg:g>
</svg:g>
<svg:g>
</svg:g>
<svg:g>
</svg:g>
<svg:g>
</svg:g>
</svg:g> 
</svg:g><svg:g><svg:title>SVG Picture created as kicadBoard-B_Paste.svg date 2022/11/18 06:20:42 </svg:title>
  <svg:desc>Picture generated by PCBNEW </svg:desc>
<svg:g style="fill:#000000; fill-opacity:1.000000;stroke:#000000; stroke-opacity:1.000000; stroke-linecap:round; stroke-linejoin:round;" transform="translate(0 0) scale(1 1)">
</svg:g>
<svg:g style="fill:#000000; fill-opacity:0.0;  stroke:#000000; stroke-width:0.000000; stroke-opacity:1;  stroke-linecap:round; stroke-linejoin:round;">
<svg:g>
</svg:g>
<svg:g>
</svg:g>
<svg:g>
</svg:g>
<svg:g>
</svg:g>
</svg:g>
<svg:g style="fill:#000000; fill-opacity:0.0;  stroke:#000000; stroke-width:0.000000; stroke-opacity:1;  stroke-linecap:round; stroke-linejoin:round;">
<svg:g>
</svg:g>
<svg:g>
</svg:g>
<svg:g>
</svg:g>
<svg:g>
</svg:g>
</svg:g> 
</svg:g><svg:g><svg:title>SVG Picture created as kicadBoard-B_Silkscreen.svg date 2022/11/18 06:20:42 </svg:title>
  <svg:desc>Picture generated by PCBNEW </svg:desc>
<svg:g style="fill:#000000; fill-opacity:1.000000;stroke:#000000; stroke-opacity:1.000000; stroke-linecap:round; stroke-linejoin:round;" transform="translate(0 0) scale(1 1)">
</svg:g>
<svg:g style="fill:#000000; fill-opacity:0.0;  stroke:#000000; stroke-width:0.000000; stroke-opacity:1;  stroke-linecap:round; stroke-linejoin:round;">
<svg:g>
</svg:g>
<svg:g>
</svg:g>
<svg:g>
</svg:g>
<svg:g>
</svg:g>
</svg:g>
<svg:g style="fill:#000000; fill-opacity:0.0;  stroke:#000000; stroke-width:0.000000; stroke-opacity:1;  stroke-linecap:round; stroke-linejoin:round;">
<svg:g>
</svg:g>
<svg:g>
</svg:g>
<svg:g>
</svg:g>
<svg:g>
</svg:g>
</svg:g> 
</svg:g><svg:g><svg:title>SVG Picture created as kicadBoard-Edge_Cuts.svg date 2022/11/18 06:20:42 </svg:title>
  <svg:desc>Picture generated by PCBNEW </svg:desc>
<svg:g style="fill:#000000; fill-opacity:1.000000;stroke:#000000; stroke-opacity:1.000000; stroke-linecap:round; stroke-linejoin:round;" transform="translate(0 0) scale(1 1)">
</svg:g>
<svg:g style="fill:#000000; fill-opacity:0.0;  stroke:#000000; stroke-width:0.000000; stroke-opacity:1;  stroke-linecap:round; stroke-linejoin:round;">
<svg:g>
</svg:g>
<svg:g>
</svg:g>
<svg:g>
</svg:g>
<svg:g>
</svg:g>
</svg:g> 
</svg:g><svg:g><svg:title>SVG Picture created as kicadBoard-F_Adhesive.svg date 2022/11/18 06:20:42 </svg:title>
  <svg:desc>Picture generated by PCBNEW </svg:desc>
<svg:g style="fill:#000000; fill-opacity:1.000000;stroke:#000000; stroke-opacity:1.000000; stroke-linecap:round; stroke-linejoin:round;" transform="translate(0 0) scale(1 1)">
</svg:g>
<svg:g style="fill:#000000; fill-opacity:0.0;  stroke:#000000; stroke-width:0.000000; stroke-opacity:1;  stroke-linecap:round; stroke-linejoin:round;">
<svg:g>
</svg:g>
<svg:g>
</svg:g>
<svg:g>
</svg:g>
<svg:g>
</svg:g>
</svg:g>
<svg:g style="fill:#000000; fill-opacity:0.0;  stroke:#000000; stroke-width:0.000000; stroke-opacity:1;  stroke-linecap:round; stroke-linejoin:round;">
<svg:g>
</svg:g>
<svg:g>
</svg:g>
<svg:g>
</svg:g>
<svg:g>
</svg:g>
</svg:g> 
</svg:g><svg:g><svg:title>SVG Picture created as kicadBoard-F_Courtyard.svg date 2022/11/18 06:20:42 </svg:title>
  <svg:desc>Picture generated by PCBNEW </svg:desc>
<svg:g style="fill:#000000; fill-opacity:1.000000;stroke:#000000; stroke-opacity:1.000000; stroke-linecap:round; stroke-linejoin:round;" transform="translate(0 0) scale(1 1)">
</svg:g>
<svg:g style="fill:#000000; fill-opacity:0.0;  stroke:#000000; stroke-width:0.000000; stroke-opacity:1;  stroke-linecap:round; stroke-linejoin:round;">
</svg:g>
<svg:g style="fill:#FF26E2; fill-opacity:0.0;  stroke:#FF26E2; stroke-width:0.000000; stroke-opacity:1;  stroke-linecap:round; stroke-linejoin:round;">
</svg:g>
<svg:g style="fill:#FF26E2; fill-opacity:0.0;  stroke:#FF26E2; stroke-width:50000.000000; stroke-opacity:1;  stroke-linecap:round; stroke-linejoin:round;">
<svg:path d="M48550000 46550000 L48550000 53450000 "/>
<svg:path d="M73850000 46550000 L48550000 46550000 "/>
<svg:path d="M48550000 53450000 L73850000 53450000 "/>
<svg:path d="M73850000 53450000 L73850000 46550000 "/>
<svg:g>
</svg:g>
<svg:g>
</svg:g>
<svg:g>
</svg:g>
<svg:g>
</svg:g>
</svg:g>
<svg:g style="fill:#000000; fill-opacity:0.0;  stroke:#000000; stroke-width:50000.000000; stroke-opacity:1;  stroke-linecap:round; stroke-linejoin:round;">
<svg:g>
</svg:g>
<svg:g>
</svg:g>
<svg:g>
</svg:g>
<svg:g>
</svg:g>
</svg:g> 
</svg:g><svg:g><svg:title>SVG Picture created as kicadBoard-F_Fab.svg date 2022/11/18 06:20:42 </svg:title>
  <svg:desc>Picture generated by PCBNEW </svg:desc>
<svg:g style="fill:#000000; fill-opacity:1.000000;stroke:#000000; stroke-opacity:1.000000; stroke-linecap:round; stroke-linejoin:round;" transform="translate(0 0) scale(1 1)">
</svg:g>
<svg:g style="fill:#000000; fill-opacity:0.0;  stroke:#000000; stroke-width:0.000000; stroke-opacity:1;  stroke-linecap:round; stroke-linejoin:round;">
</svg:g>
<svg:g style="fill:#AFAFAF; fill-opacity:0.0;  stroke:#AFAFAF; stroke-width:0.000000; stroke-opacity:1;  stroke-linecap:round; stroke-linejoin:round;">
</svg:g>
<svg:g style="fill:#AFAFAF; fill-opacity:0.0;  stroke:#AFAFAF; stroke-width:150000.000000; stroke-opacity:1;  stroke-linecap:round; stroke-linejoin:round;">
<svg:text x="61200000.000000" y="54820000.000000" textLength="33956905.000000" font-size="1333333.000000" lengthAdjust="spacingAndGlyphs" text-anchor="middle" opacity="0">R_Axial_Power_L20.0mm_W6.4mm_P22.40mm</svg:text>
<svg:g class="stroked-text"><svg:desc>R_Axial_Power_L20.0mm_W6.4mm_P22.40mm</svg:desc>
<svg:path d="M45128571 54772380 L44795238 54296190 "/>
<svg:path d="M44557142 54772380 L44557142 53772380 L44938095 53772380 L45033333 53820000 L45080952 53867619 L45128571 53962857 L45128571 54105714 L45080952 54200952 L45033333 54248571 L44938095 54296190 L44557142 54296190 "/>
<svg:path d="M45319047 54867619 L46080952 54867619 "/>
<svg:path d="M46271428 54486666 L46747619 54486666 "/>
<svg:path d="M46176190 54772380 L46509523 53772380 L46842857 54772380 "/>
<svg:path d="M47080952 54772380 L47604761 54105714 "/>
<svg:path d="M47080952 54105714 L47604761 54772380 "/>
<svg:path d="M47985714 54772380 L47985714 54105714 "/>
<svg:path d="M47985714 53772380 L47938095 53820000 L47985714 53867619 L48033333 53820000 L47985714 53772380 L47985714 53867619 "/>
<svg:path d="M48890476 54772380 L48890476 54248571 L48842857 54153333 L48747619 54105714 L48557142 54105714 L48461904 54153333 "/>
<svg:path d="M48890476 54724761 L48795238 54772380 L48557142 54772380 L48461904 54724761 L48414285 54629523 L48414285 54534285 L48461904 54439047 L48557142 54391428 L48795238 54391428 L48890476 54343809 "/>
<svg:path d="M49509523 54772380 L49414285 54724761 L49366666 54629523 L49366666 53772380 "/>
<svg:path d="M49652380 54867619 L50414285 54867619 "/>
<svg:path d="M50652380 54772380 L50652380 53772380 L51033333 53772380 L51128571 53820000 L51176190 53867619 L51223809 53962857 L51223809 54105714 L51176190 54200952 L51128571 54248571 L51033333 54296190 L50652380 54296190 "/>
<svg:path d="M51795238 54772380 L51700000 54724761 L51652380 54677142 L51604761 54581904 L51604761 54296190 L51652380 54200952 L51700000 54153333 L51795238 54105714 L51938095 54105714 L52033333 54153333 L52080952 54200952 L52128571 54296190 L52128571 54581904 L52080952 54677142 L52033333 54724761 L51938095 54772380 L51795238 54772380 "/>
<svg:path d="M52461904 54105714 L52652380 54772380 L52842857 54296190 L53033333 54772380 L53223809 54105714 "/>
<svg:path d="M53985714 54724761 L53890476 54772380 L53700000 54772380 L53604761 54724761 L53557142 54629523 L53557142 54248571 L53604761 54153333 L53700000 54105714 L53890476 54105714 L53985714 54153333 L54033333 54248571 L54033333 54343809 L53557142 54439047 "/>
<svg:path d="M54461904 54772380 L54461904 54105714 "/>
<svg:path d="M54461904 54296190 L54509523 54200952 L54557142 54153333 L54652380 54105714 L54747619 54105714 "/>
<svg:path d="M54842857 54867619 L55604761 54867619 "/>
<svg:path d="M56319047 54772380 L55842857 54772380 L55842857 53772380 "/>
<svg:path d="M56604761 53867619 L56652380 53820000 L56747619 53772380 L56985714 53772380 L57080952 53820000 L57128571 53867619 L57176190 53962857 L57176190 54058095 L57128571 54200952 L56557142 54772380 L57176190 54772380 "/>
<svg:path d="M57795238 53772380 L57890476 53772380 L57985714 53820000 L58033333 53867619 L58080952 53962857 L58128571 54153333 L58128571 54391428 L58080952 54581904 L58033333 54677142 L57985714 54724761 L57890476 54772380 L57795238 54772380 L57700000 54724761 L57652380 54677142 L57604761 54581904 L57557142 54391428 L57557142 54153333 L57604761 53962857 L57652380 53867619 L57700000 53820000 L57795238 53772380 "/>
<svg:path d="M58557142 54677142 L58604761 54724761 L58557142 54772380 L58509523 54724761 L58557142 54677142 L58557142 54772380 "/>
<svg:path d="M59223809 53772380 L59319047 53772380 L59414285 53820000 L59461904 53867619 L59509523 53962857 L59557142 54153333 L59557142 54391428 L59509523 54581904 L59461904 54677142 L59414285 54724761 L59319047 54772380 L59223809 54772380 L59128571 54724761 L59080952 54677142 L59033333 54581904 L58985714 54391428 L58985714 54153333 L59033333 53962857 L59080952 53867619 L59128571 53820000 L59223809 53772380 "/>
<svg:path d="M59985714 54772380 L59985714 54105714 "/>
<svg:path d="M59985714 54200952 L60033333 54153333 L60128571 54105714 L60271428 54105714 L60366666 54153333 L60414285 54248571 L60414285 54772380 "/>
<svg:path d="M60414285 54248571 L60461904 54153333 L60557142 54105714 L60699999 54105714 L60795238 54153333 L60842857 54248571 L60842857 54772380 "/>
<svg:path d="M61319047 54772380 L61319047 54105714 "/>
<svg:path d="M61319047 54200952 L61366666 54153333 L61461904 54105714 L61604761 54105714 L61700000 54153333 L61747619 54248571 L61747619 54772380 "/>
<svg:path d="M61747619 54248571 L61795238 54153333 L61890476 54105714 L62033333 54105714 L62128571 54153333 L62176190 54248571 L62176190 54772380 "/>
<svg:path d="M62414285 54867619 L63176190 54867619 "/>
<svg:path d="M63319047 53772380 L63557142 54772380 L63747619 54058095 L63938095 54772380 L64176190 53772380 "/>
<svg:path d="M64985714 53772380 L64795238 53772380 L64699999 53820000 L64652380 53867619 L64557142 54010476 L64509523 54200952 L64509523 54581904 L64557142 54677142 L64604761 54724761 L64699999 54772380 L64890476 54772380 L64985714 54724761 L65033333 54677142 L65080952 54581904 L65080952 54343809 L65033333 54248571 L64985714 54200952 L64890476 54153333 L64699999 54153333 L64604761 54200952 L64557142 54248571 L64509523 54343809 "/>
<svg:path d="M65509523 54677142 L65557142 54724761 L65509523 54772380 L65461904 54724761 L65509523 54677142 L65509523 54772380 "/>
<svg:path d="M66414285 54105714 L66414285 54772380 "/>
<svg:path d="M66176190 53724761 L65938095 54439047 L66557142 54439047 "/>
<svg:path d="M66938095 54772380 L66938095 54105714 "/>
<svg:path d="M66938095 54200952 L66985714 54153333 L67080952 54105714 L67223809 54105714 L67319047 54153333 L67366666 54248571 L67366666 54772380 "/>
<svg:path d="M67366666 54248571 L67414285 54153333 L67509523 54105714 L67652380 54105714 L67747619 54153333 L67795238 54248571 L67795238 54772380 "/>
<svg:path d="M68271428 54772380 L68271428 54105714 "/>
<svg:path d="M68271428 54200952 L68319047 54153333 L68414285 54105714 L68557142 54105714 L68652380 54153333 L68700000 54248571 L68700000 54772380 "/>
<svg:path d="M68700000 54248571 L68747619 54153333 L68842857 54105714 L68985714 54105714 L69080952 54153333 L69128571 54248571 L69128571 54772380 "/>
<svg:path d="M69366666 54867619 L70128571 54867619 "/>
<svg:path d="M70366666 54772380 L70366666 53772380 L70747619 53772380 L70842857 53820000 L70890476 53867619 L70938095 53962857 L70938095 54105714 L70890476 54200952 L70842857 54248571 L70747619 54296190 L70366666 54296190 "/>
<svg:path d="M71319047 53867619 L71366666 53820000 L71461904 53772380 L71699999 53772380 L71795238 53820000 L71842857 53867619 L71890476 53962857 L71890476 54058095 L71842857 54200952 L71271428 54772380 L71890476 54772380 "/>
<svg:path d="M72271428 53867619 L72319047 53820000 L72414285 53772380 L72652380 53772380 L72747619 53820000 L72795238 53867619 L72842857 53962857 L72842857 54058095 L72795238 54200952 L72223809 54772380 L72842857 54772380 "/>
<svg:path d="M73271428 54677142 L73319047 54724761 L73271428 54772380 L73223809 54724761 L73271428 54677142 L73271428 54772380 "/>
<svg:path d="M74176190 54105714 L74176190 54772380 "/>
<svg:path d="M73938095 53724761 L73699999 54439047 L74319047 54439047 "/>
<svg:path d="M74890476 53772380 L74985714 53772380 L75080952 53820000 L75128571 53867619 L75176190 53962857 L75223809 54153333 L75223809 54391428 L75176190 54581904 L75128571 54677142 L75080952 54724761 L74985714 54772380 L74890476 54772380 L74795238 54724761 L74747619 54677142 L74699999 54581904 L74652380 54391428 L74652380 54153333 L74699999 53962857 L74747619 53867619 L74795238 53820000 L74890476 53772380 "/>
<svg:path d="M75652380 54772380 L75652380 54105714 "/>
<svg:path d="M75652380 54200952 L75699999 54153333 L75795238 54105714 L75938095 54105714 L76033333 54153333 L76080952 54248571 L76080952 54772380 "/>
<svg:path d="M76080952 54248571 L76128571 54153333 L76223809 54105714 L76366666 54105714 L76461904 54153333 L76509523 54248571 L76509523 54772380 "/>
<svg:path d="M76985714 54772380 L76985714 54105714 "/>
<svg:path d="M76985714 54200952 L77033333 54153333 L77128571 54105714 L77271428 54105714 L77366666 54153333 L77414285 54248571 L77414285 54772380 "/>
<svg:path d="M77414285 54248571 L77461904 54153333 L77557142 54105714 L77699999 54105714 L77795238 54153333 L77842857 54248571 L77842857 54772380 "/>
</svg:g><svg:text x="61200000.000000" y="50500000.000000" textLength="22718810.000000" font-size="1333333.000000" lengthAdjust="spacingAndGlyphs" text-anchor="middle" opacity="0">FZKRRAXIALPOWERL2W64P224</svg:text>
<svg:g class="stroked-text"><svg:desc>FZKRRAXIALPOWERL2W64P224</svg:desc>
<svg:path d="M50509523 49928571 L50176190 49928571 "/>
<svg:path d="M50176190 50452380 L50176190 49452380 L50652380 49452380 "/>
<svg:path d="M50938095 49452380 L51604761 49452380 L50938095 50452380 L51604761 50452380 "/>
<svg:path d="M51985714 50452380 L51985714 49452380 "/>
<svg:path d="M52557142 50452380 L52128571 49880952 "/>
<svg:path d="M52557142 49452380 L51985714 50023809 "/>
<svg:path d="M53557142 50452380 L53223809 49976190 "/>
<svg:path d="M52985714 50452380 L52985714 49452380 L53366666 49452380 L53461904 49500000 L53509523 49547619 L53557142 49642857 L53557142 49785714 L53509523 49880952 L53461904 49928571 L53366666 49976190 L52985714 49976190 "/>
<svg:path d="M54557142 50452380 L54223809 49976190 "/>
<svg:path d="M53985714 50452380 L53985714 49452380 L54366666 49452380 L54461904 49500000 L54509523 49547619 L54557142 49642857 L54557142 49785714 L54509523 49880952 L54461904 49928571 L54366666 49976190 L53985714 49976190 "/>
<svg:path d="M54938095 50166666 L55414285 50166666 "/>
<svg:path d="M54842857 50452380 L55176190 49452380 L55509523 50452380 "/>
<svg:path d="M55747619 49452380 L56414285 50452380 "/>
<svg:path d="M56414285 49452380 L55747619 50452380 "/>
<svg:path d="M56795238 50452380 L56795238 49452380 "/>
<svg:path d="M57223809 50166666 L57700000 50166666 "/>
<svg:path d="M57128571 50452380 L57461904 49452380 L57795238 50452380 "/>
<svg:path d="M58604761 50452380 L58128571 50452380 L58128571 49452380 "/>
<svg:path d="M58938095 50452380 L58938095 49452380 L59319047 49452380 L59414285 49500000 L59461904 49547619 L59509523 49642857 L59509523 49785714 L59461904 49880952 L59414285 49928571 L59319047 49976190 L58938095 49976190 "/>
<svg:path d="M60128571 49452380 L60319047 49452380 L60414285 49500000 L60509523 49595238 L60557142 49785714 L60557142 50119047 L60509523 50309523 L60414285 50404761 L60319047 50452380 L60128571 50452380 L60033333 50404761 L59938095 50309523 L59890476 50119047 L59890476 49785714 L59938095 49595238 L60033333 49500000 L60128571 49452380 "/>
<svg:path d="M60890476 49452380 L61128571 50452380 L61319047 49738095 L61509523 50452380 L61747619 49452380 "/>
<svg:path d="M62128571 49928571 L62461904 49928571 "/>
<svg:path d="M62604761 50452380 L62128571 50452380 L62128571 49452380 L62604761 49452380 "/>
<svg:path d="M63604761 50452380 L63271428 49976190 "/>
<svg:path d="M63033333 50452380 L63033333 49452380 L63414285 49452380 L63509523 49500000 L63557142 49547619 L63604761 49642857 L63604761 49785714 L63557142 49880952 L63509523 49928571 L63414285 49976190 L63033333 49976190 "/>
<svg:path d="M64509523 50452380 L64033333 50452380 L64033333 49452380 "/>
<svg:path d="M64795238 49547619 L64842857 49500000 L64938095 49452380 L65176190 49452380 L65271428 49500000 L65319047 49547619 L65366666 49642857 L65366666 49738095 L65319047 49880952 L64747619 50452380 L65366666 50452380 "/>
<svg:path d="M65700000 49452380 L65938095 50452380 L66128571 49738095 L66319047 50452380 L66557142 49452380 "/>
<svg:path d="M67366666 49452380 L67176190 49452380 L67080952 49500000 L67033333 49547619 L66938095 49690476 L66890476 49880952 L66890476 50261904 L66938095 50357142 L66985714 50404761 L67080952 50452380 L67271428 50452380 L67366666 50404761 L67414285 50357142 L67461904 50261904 L67461904 50023809 L67414285 49928571 L67366666 49880952 L67271428 49833333 L67080952 49833333 L66985714 49880952 L66938095 49928571 L66890476 50023809 "/>
<svg:path d="M68319047 49785714 L68319047 50452380 "/>
<svg:path d="M68080952 49404761 L67842857 50119047 L68461904 50119047 "/>
<svg:path d="M68842857 50452380 L68842857 49452380 L69223809 49452380 L69319047 49500000 L69366666 49547619 L69414285 49642857 L69414285 49785714 L69366666 49880952 L69319047 49928571 L69223809 49976190 L68842857 49976190 "/>
<svg:path d="M69795238 49547619 L69842857 49500000 L69938095 49452380 L70176190 49452380 L70271428 49500000 L70319047 49547619 L70366666 49642857 L70366666 49738095 L70319047 49880952 L69747619 50452380 L70366666 50452380 "/>
<svg:path d="M70747619 49547619 L70795238 49500000 L70890476 49452380 L71128571 49452380 L71223809 49500000 L71271428 49547619 L71319047 49642857 L71319047 49738095 L71271428 49880952 L70700000 50452380 L71319047 50452380 "/>
<svg:path d="M72176190 49785714 L72176190 50452380 "/>
<svg:path d="M71938095 49404761 L71700000 50119047 L72319047 50119047 "/>
</svg:g></svg:g>
<svg:g style="fill:#AFAFAF; fill-opacity:0.0;  stroke:#AFAFAF; stroke-width:100000.000000; stroke-opacity:1;  stroke-linecap:round; stroke-linejoin:round;">
<svg:path d="M51200000 53200000 L71200000 53200000 "/>
<svg:path d="M51200000 46800000 L51200000 53200000 "/>
<svg:path d="M71200000 53200000 L71200000 46800000 "/>
<svg:path d="M50000000 50000000 L51200000 50000000 "/>
<svg:path d="M71200000 46800000 L51200000 46800000 "/>
<svg:path d="M72400000 50000000 L71200000 50000000 "/>
<svg:g>
</svg:g>
<svg:g>
</svg:g>
<svg:g>
</svg:g>
<svg:g>
</svg:g>
</svg:g>
<svg:g style="fill:#000000; fill-opacity:0.0;  stroke:#000000; stroke-width:100000.000000; stroke-opacity:1;  stroke-linecap:round; stroke-linejoin:round;">
<svg:g>
</svg:g>
<svg:g>
</svg:g>
<svg:g>
</svg:g>
<svg:g>
</svg:g>
</svg:g> 
</svg:g><svg:g><svg:title>SVG Picture created as kicadBoard-F_Mask.svg date 2022/11/18 06:20:42 </svg:title>
  <svg:desc>Picture generated by PCBNEW </svg:desc>
<svg:g style="fill:#000000; fill-opacity:1.000000;stroke:#000000; stroke-opacity:1.000000; stroke-linecap:round; stroke-linejoin:round;" transform="translate(0 0) scale(1 1)">
</svg:g>
<svg:g style="fill:#000000; fill-opacity:0.0;  stroke:#000000; stroke-width:0.000000; stroke-opacity:1;  stroke-linecap:round; stroke-linejoin:round;">
<svg:g>
</svg:g>
<svg:g style="fill:#000000; fill-opacity:1.0;  stroke:#000000; stroke-width:1.000000; stroke-opacity:1;  stroke-linecap:round; stroke-linejoin:round;">
<svg:circle cx="50000000.000000" cy="50000000.000000" r="1200000.000000"/> 
</svg:g>
<svg:g style="fill:#000000; fill-opacity:1.0;  stroke:#000000; stroke-width:21200.000000; stroke-opacity:1;  stroke-linecap:round; stroke-linejoin:round;">
</svg:g>
<svg:g style="fill:#000000; fill-opacity:1.0;  stroke:#000000; stroke-width:1.000000; stroke-opacity:1;  stroke-linecap:round; stroke-linejoin:round;">
<svg:circle cx="72400000.000000" cy="50000000.000000" r="1200000.000000"/> 
</svg:g>
<svg:g>
</svg:g>
<svg:g>
</svg:g>
<svg:g>
</svg:g>
</svg:g>
<svg:g style="fill:#000000; fill-opacity:1.0;  stroke:#000000; stroke-width:1.000000; stroke-opacity:1;  stroke-linecap:round; stroke-linejoin:round;">
<svg:g>
</svg:g>
<svg:g>
</svg:g>
<svg:g>
</svg:g>
<svg:g>
</svg:g>
</svg:g> 
</svg:g><svg:g><svg:title>SVG Picture created as kicadBoard-F_Paste.svg date 2022/11/18 06:20:42 </svg:title>
  <svg:desc>Picture generated by PCBNEW </svg:desc>
<svg:g style="fill:#000000; fill-opacity:1.000000;stroke:#000000; stroke-opacity:1.000000; stroke-linecap:round; stroke-linejoin:round;" transform="translate(0 0) scale(1 1)">
</svg:g>
<svg:g style="fill:#000000; fill-opacity:0.0;  stroke:#000000; stroke-width:0.000000; stroke-opacity:1;  stroke-linecap:round; stroke-linejoin:round;">
<svg:g>
</svg:g>
<svg:g>
</svg:g>
<svg:g>
</svg:g>
<svg:g>
</svg:g>
</svg:g>
<svg:g style="fill:#000000; fill-opacity:0.0;  stroke:#000000; stroke-width:0.000000; stroke-opacity:1;  stroke-linecap:round; stroke-linejoin:round;">
<svg:g>
</svg:g>
<svg:g>
</svg:g>
<svg:g>
</svg:g>
<svg:g>
</svg:g>
</svg:g> 
</svg:g><svg:g><svg:title>SVG Picture created as kicadBoard-F_Silkscreen.svg date 2022/11/18 06:20:42 </svg:title>
  <svg:desc>Picture generated by PCBNEW </svg:desc>
<svg:g style="fill:#000000; fill-opacity:1.000000;stroke:#000000; stroke-opacity:1.000000; stroke-linecap:round; stroke-linejoin:round;" transform="translate(0 0) scale(1 1)">
</svg:g>
<svg:g style="fill:#000000; fill-opacity:0.0;  stroke:#000000; stroke-width:0.000000; stroke-opacity:1;  stroke-linecap:round; stroke-linejoin:round;">
</svg:g>
<svg:g style="fill:#F2EDA1; fill-opacity:0.0;  stroke:#F2EDA1; stroke-width:0.000000; stroke-opacity:1;  stroke-linecap:round; stroke-linejoin:round;">
</svg:g>
<svg:g style="fill:#F2EDA1; fill-opacity:0.0;  stroke:#F2EDA1; stroke-width:150000.000000; stroke-opacity:1;  stroke-linecap:round; stroke-linejoin:round;">
<svg:text x="61200000.000000" y="46180000.000000" textLength="22523811.000000" font-size="1333333.000000" lengthAdjust="spacingAndGlyphs" text-anchor="middle" opacity="0">FZKRRAXIALPOWERL2W64P224</svg:text>
<svg:g class="stroked-text"><svg:desc>FZKRRAXIALPOWERL2W64P224</svg:desc>
<svg:path d="M50509523 45608571 L50176190 45608571 "/>
<svg:path d="M50176190 46132380 L50176190 45132380 L50652380 45132380 "/>
<svg:path d="M50938095 45132380 L51604761 45132380 L50938095 46132380 L51604761 46132380 "/>
<svg:path d="M51985714 46132380 L51985714 45132380 "/>
<svg:path d="M52557142 46132380 L52128571 45560952 "/>
<svg:path d="M52557142 45132380 L51985714 45703809 "/>
<svg:path d="M53557142 46132380 L53223809 45656190 "/>
<svg:path d="M52985714 46132380 L52985714 45132380 L53366666 45132380 L53461904 45180000 L53509523 45227619 L53557142 45322857 L53557142 45465714 L53509523 45560952 L53461904 45608571 L53366666 45656190 L52985714 45656190 "/>
<svg:path d="M54557142 46132380 L54223809 45656190 "/>
<svg:path d="M53985714 46132380 L53985714 45132380 L54366666 45132380 L54461904 45180000 L54509523 45227619 L54557142 45322857 L54557142 45465714 L54509523 45560952 L54461904 45608571 L54366666 45656190 L53985714 45656190 "/>
<svg:path d="M54938095 45846666 L55414285 45846666 "/>
<svg:path d="M54842857 46132380 L55176190 45132380 L55509523 46132380 "/>
<svg:path d="M55747619 45132380 L56414285 46132380 "/>
<svg:path d="M56414285 45132380 L55747619 46132380 "/>
<svg:path d="M56795238 46132380 L56795238 45132380 "/>
<svg:path d="M57223809 45846666 L57700000 45846666 "/>
<svg:path d="M57128571 46132380 L57461904 45132380 L57795238 46132380 "/>
<svg:path d="M58604761 46132380 L58128571 46132380 L58128571 45132380 "/>
<svg:path d="M58938095 46132380 L58938095 45132380 L59319047 45132380 L59414285 45180000 L59461904 45227619 L59509523 45322857 L59509523 45465714 L59461904 45560952 L59414285 45608571 L59319047 45656190 L58938095 45656190 "/>
<svg:path d="M60128571 45132380 L60319047 45132380 L60414285 45180000 L60509523 45275238 L60557142 45465714 L60557142 45799047 L60509523 45989523 L60414285 46084761 L60319047 46132380 L60128571 46132380 L60033333 46084761 L59938095 45989523 L59890476 45799047 L59890476 45465714 L59938095 45275238 L60033333 45180000 L60128571 45132380 "/>
<svg:path d="M60890476 45132380 L61128571 46132380 L61319047 45418095 L61509523 46132380 L61747619 45132380 "/>
<svg:path d="M62128571 45608571 L62461904 45608571 "/>
<svg:path d="M62604761 46132380 L62128571 46132380 L62128571 45132380 L62604761 45132380 "/>
<svg:path d="M63604761 46132380 L63271428 45656190 "/>
<svg:path d="M63033333 46132380 L63033333 45132380 L63414285 45132380 L63509523 45180000 L63557142 45227619 L63604761 45322857 L63604761 45465714 L63557142 45560952 L63509523 45608571 L63414285 45656190 L63033333 45656190 "/>
<svg:path d="M64509523 46132380 L64033333 46132380 L64033333 45132380 "/>
<svg:path d="M64795238 45227619 L64842857 45180000 L64938095 45132380 L65176190 45132380 L65271428 45180000 L65319047 45227619 L65366666 45322857 L65366666 45418095 L65319047 45560952 L64747619 46132380 L65366666 46132380 "/>
<svg:path d="M65700000 45132380 L65938095 46132380 L66128571 45418095 L66319047 46132380 L66557142 45132380 "/>
<svg:path d="M67366666 45132380 L67176190 45132380 L67080952 45180000 L67033333 45227619 L66938095 45370476 L66890476 45560952 L66890476 45941904 L66938095 46037142 L66985714 46084761 L67080952 46132380 L67271428 46132380 L67366666 46084761 L67414285 46037142 L67461904 45941904 L67461904 45703809 L67414285 45608571 L67366666 45560952 L67271428 45513333 L67080952 45513333 L66985714 45560952 L66938095 45608571 L66890476 45703809 "/>
<svg:path d="M68319047 45465714 L68319047 46132380 "/>
<svg:path d="M68080952 45084761 L67842857 45799047 L68461904 45799047 "/>
<svg:path d="M68842857 46132380 L68842857 45132380 L69223809 45132380 L69319047 45180000 L69366666 45227619 L69414285 45322857 L69414285 45465714 L69366666 45560952 L69319047 45608571 L69223809 45656190 L68842857 45656190 "/>
<svg:path d="M69795238 45227619 L69842857 45180000 L69938095 45132380 L70176190 45132380 L70271428 45180000 L70319047 45227619 L70366666 45322857 L70366666 45418095 L70319047 45560952 L69747619 46132380 L70366666 46132380 "/>
<svg:path d="M70747619 45227619 L70795238 45180000 L70890476 45132380 L71128571 45132380 L71223809 45180000 L71271428 45227619 L71319047 45322857 L71319047 45418095 L71271428 45560952 L70700000 46132380 L71319047 46132380 "/>
<svg:path d="M72176190 45465714 L72176190 46132380 "/>
<svg:path d="M71938095 45084761 L71700000 45799047 L72319047 45799047 "/>
</svg:g></svg:g>
<svg:g style="fill:#F2EDA1; fill-opacity:0.0;  stroke:#F2EDA1; stroke-width:120000.000000; stroke-opacity:1;  stroke-linecap:round; stroke-linejoin:round;">
<svg:path d="M51080000 48560000 L51080000 46680000 "/>
<svg:path d="M51080000 46680000 L71320000 46680000 "/>
<svg:path d="M71320000 46680000 L71320000 48560000 "/>
<svg:path d="M71320000 53320000 L71320000 51440000 "/>
<svg:path d="M51080000 53320000 L71320000 53320000 "/>
<svg:path d="M51080000 51440000 L51080000 53320000 "/>
<svg:g>
</svg:g>
<svg:g>
</svg:g>
<svg:g>
</svg:g>
<svg:g>
</svg:g>
</svg:g>
<svg:g style="fill:#000000; fill-opacity:0.0;  stroke:#000000; stroke-width:120000.000000; stroke-opacity:1;  stroke-linecap:round; stroke-linejoin:round;">
<svg:g>
</svg:g>
<svg:g>
</svg:g>
<svg:g>
</svg:g>
<svg:g>
</svg:g>
</svg:g> 
</svg:g><svg:g><svg:title>SVG Picture created as kicadBoard-Margin.svg date 2022/11/18 06:20:42 </svg:title>
  <svg:desc>Picture generated by PCBNEW </svg:desc>
<svg:g style="fill:#000000; fill-opacity:1.000000;stroke:#000000; stroke-opacity:1.000000; stroke-linecap:round; stroke-linejoin:round;" transform="translate(0 0) scale(1 1)">
</svg:g>
<svg:g style="fill:#000000; fill-opacity:0.0;  stroke:#000000; stroke-width:0.000000; stroke-opacity:1;  stroke-linecap:round; stroke-linejoin:round;">
<svg:g>
</svg:g>
<svg:g>
</svg:g>
<svg:g>
</svg:g>
<svg:g>
</svg:g>
</svg:g>
<svg:g style="fill:#000000; fill-opacity:0.0;  stroke:#000000; stroke-width:0.000000; stroke-opacity:1;  stroke-linecap:round; stroke-linejoin:round;">
<svg:g>
</svg:g>
<svg:g>
</svg:g>
<svg:g>
</svg:g>
<svg:g>
</svg:g>
</svg:g> 
</svg:g><svg:g><svg:title>SVG Picture created as kicadBoard-F_Cu.svg date 2022/11/18 06:20:42 </svg:title>
  <svg:desc>Picture generated by PCBNEW </svg:desc>
<svg:g style="fill:#000000; fill-opacity:1.000000;stroke:#000000; stroke-opacity:1.000000; stroke-linecap:round; stroke-linejoin:round;" transform="translate(0 0) scale(1 1)">
</svg:g>
<svg:g style="fill:#000000; fill-opacity:0.0;  stroke:#000000; stroke-width:0.000000; stroke-opacity:1;  stroke-linecap:round; stroke-linejoin:round;">
<svg:g>
</svg:g>
<svg:g style="fill:#C83434; fill-opacity:0.0;  stroke:#C83434; stroke-width:0.000000; stroke-opacity:1;  stroke-linecap:round; stroke-linejoin:round;">
</svg:g>
<svg:g style="fill:#C83434; fill-opacity:1.0;  stroke:#C83434; stroke-width:1.000000; stroke-opacity:1;  stroke-linecap:round; stroke-linejoin:round;">
<svg:circle cx="50000000.000000" cy="50000000.000000" r="1200000.000000"/> 
</svg:g>
<svg:g style="fill:#C83434; fill-opacity:1.0;  stroke:#C83434; stroke-width:21200.000000; stroke-opacity:1;  stroke-linecap:round; stroke-linejoin:round;">
</svg:g>
<svg:g style="fill:#C83434; fill-opacity:1.0;  stroke:#C83434; stroke-width:1.000000; stroke-opacity:1;  stroke-linecap:round; stroke-linejoin:round;">
<svg:circle cx="72400000.000000" cy="50000000.000000" r="1200000.000000"/> 
</svg:g>
<svg:g>
</svg:g>
<svg:g>
</svg:g>
<svg:g>
</svg:g>
</svg:g>
<svg:g style="fill:#FFFFFF; fill-opacity:1.0;  stroke:#FFFFFF; stroke-width:1.000000; stroke-opacity:1;  stroke-linecap:round; stroke-linejoin:round;">
<svg:circle cx="50000000.000000" cy="50000000.000000" r="600000.000000"/> 
</svg:g>
<svg:g style="fill:#FFFFFF; fill-opacity:1.0;  stroke:#FFFFFF; stroke-width:21200.000000; stroke-opacity:1;  stroke-linecap:round; stroke-linejoin:round;">
</svg:g>
<svg:g style="fill:#FFFFFF; fill-opacity:1.0;  stroke:#FFFFFF; stroke-width:1.000000; stroke-opacity:1;  stroke-linecap:round; stroke-linejoin:round;">
<svg:circle cx="72400000.000000" cy="50000000.000000" r="600000.000000"/> 
</svg:g>
<svg:g style="fill:#FFFFFF; fill-opacity:1.0;  stroke:#FFFFFF; stroke-width:21200.000000; stroke-opacity:1;  stroke-linecap:round; stroke-linejoin:round;">
</svg:g>
<svg:g style="fill:#000000; fill-opacity:1.0;  stroke:#000000; stroke-width:21200.000000; stroke-opacity:1;  stroke-linecap:round; stroke-linejoin:round;">
<svg:g>
</svg:g>
<svg:g>
</svg:g>
<svg:g>
</svg:g>
<svg:g>
</svg:g>
</svg:g> 
</svg:g></svg>
