<?xml version='1.0' encoding='ASCII' standalone='yes'?>
<svg xmlns:svg="http://www.w3.org/2000/svg" xmlns="http://www.w3.org/2000/svg" xmlns:xlink="http://www.w3.org/1999/xlink" version="1.1" width="9.999980cm" height="9.999980cm" viewBox="0 0 99999800 99999800">
<title>SVG Picture created as kicadBoard-B_Cu.svg date 2022/11/18 04:41:33 </title>
  <desc>Picture generated by PCBNEW </desc>
<g style="fill:#000000; fill-opacity:1.000000;stroke:#000000; stroke-opacity:1.000000; stroke-linecap:round; stroke-linejoin:round;" transform="translate(0 0) scale(1 1)">
</g>
<g style="fill:#000000; fill-opacity:0.0;  stroke:#000000; stroke-width:0.000000; stroke-opacity:1;  stroke-linecap:round; stroke-linejoin:round;">
<g>
</g>
<g>
</g>
<g>
</g>
<g>
</g>
</g>
<g style="fill:#FFFFFF; fill-opacity:0.0;  stroke:#FFFFFF; stroke-width:0.000000; stroke-opacity:1;  stroke-linecap:round; stroke-linejoin:round;">
</g>
<g style="fill:#000000; fill-opacity:0.0;  stroke:#000000; stroke-width:0.000000; stroke-opacity:1;  stroke-linecap:round; stroke-linejoin:round;">
<g>
</g>
<g>
</g>
<g>
</g>
<g>
</g>
</g> 
<svg:g><svg:title>SVG Picture created as kicadBoard-B_Adhesive.svg date 2022/11/18 04:41:33 </svg:title>
  <svg:desc>Picture generated by PCBNEW </svg:desc>
<svg:g style="fill:#000000; fill-opacity:1.000000;stroke:#000000; stroke-opacity:1.000000; stroke-linecap:round; stroke-linejoin:round;" transform="translate(0 0) scale(1 1)">
</svg:g>
<svg:g style="fill:#000000; fill-opacity:0.0;  stroke:#000000; stroke-width:0.000000; stroke-opacity:1;  stroke-linecap:round; stroke-linejoin:round;">
<svg:g>
</svg:g>
<svg:g>
</svg:g>
<svg:g>
</svg:g>
<svg:g>
</svg:g>
</svg:g>
<svg:g style="fill:#000000; fill-opacity:0.0;  stroke:#000000; stroke-width:0.000000; stroke-opacity:1;  stroke-linecap:round; stroke-linejoin:round;">
<svg:g>
</svg:g>
<svg:g>
</svg:g>
<svg:g>
</svg:g>
<svg:g>
</svg:g>
</svg:g> 
</svg:g><svg:g><svg:title>SVG Picture created as kicadBoard-B_Courtyard.svg date 2022/11/18 04:41:33 </svg:title>
  <svg:desc>Picture generated by PCBNEW </svg:desc>
<svg:g style="fill:#000000; fill-opacity:1.000000;stroke:#000000; stroke-opacity:1.000000; stroke-linecap:round; stroke-linejoin:round;" transform="translate(0 0) scale(1 1)">
</svg:g>
<svg:g style="fill:#000000; fill-opacity:0.0;  stroke:#000000; stroke-width:0.000000; stroke-opacity:1;  stroke-linecap:round; stroke-linejoin:round;">
<svg:g>
</svg:g>
<svg:g>
</svg:g>
<svg:g>
</svg:g>
<svg:g>
</svg:g>
</svg:g>
<svg:g style="fill:#000000; fill-opacity:0.0;  stroke:#000000; stroke-width:0.000000; stroke-opacity:1;  stroke-linecap:round; stroke-linejoin:round;">
<svg:g>
</svg:g>
<svg:g>
</svg:g>
<svg:g>
</svg:g>
<svg:g>
</svg:g>
</svg:g> 
</svg:g><svg:g><svg:title>SVG Picture created as kicadBoard-B_Fab.svg date 2022/11/18 04:41:33 </svg:title>
  <svg:desc>Picture generated by PCBNEW </svg:desc>
<svg:g style="fill:#000000; fill-opacity:1.000000;stroke:#000000; stroke-opacity:1.000000; stroke-linecap:round; stroke-linejoin:round;" transform="translate(0 0) scale(1 1)">
</svg:g>
<svg:g style="fill:#000000; fill-opacity:0.0;  stroke:#000000; stroke-width:0.000000; stroke-opacity:1;  stroke-linecap:round; stroke-linejoin:round;">
<svg:g>
</svg:g>
<svg:g>
</svg:g>
<svg:g>
</svg:g>
<svg:g>
</svg:g>
</svg:g>
<svg:g style="fill:#000000; fill-opacity:0.0;  stroke:#000000; stroke-width:0.000000; stroke-opacity:1;  stroke-linecap:round; stroke-linejoin:round;">
<svg:g>
</svg:g>
<svg:g>
</svg:g>
<svg:g>
</svg:g>
<svg:g>
</svg:g>
</svg:g> 
</svg:g><svg:g><svg:title>SVG Picture created as kicadBoard-B_Mask.svg date 2022/11/18 04:41:33 </svg:title>
  <svg:desc>Picture generated by PCBNEW </svg:desc>
<svg:g style="fill:#000000; fill-opacity:1.000000;stroke:#000000; stroke-opacity:1.000000; stroke-linecap:round; stroke-linejoin:round;" transform="translate(0 0) scale(1 1)">
</svg:g>
<svg:g style="fill:#000000; fill-opacity:0.0;  stroke:#000000; stroke-width:0.000000; stroke-opacity:1;  stroke-linecap:round; stroke-linejoin:round;">
<svg:g>
</svg:g>
<svg:g>
</svg:g>
<svg:g>
</svg:g>
<svg:g>
</svg:g>
</svg:g>
<svg:g style="fill:#000000; fill-opacity:0.0;  stroke:#000000; stroke-width:0.000000; stroke-opacity:1;  stroke-linecap:round; stroke-linejoin:round;">
<svg:g>
</svg:g>
<svg:g>
</svg:g>
<svg:g>
</svg:g>
<svg:g>
</svg:g>
</svg:g> 
</svg:g><svg:g><svg:title>SVG Picture created as kicadBoard-B_Paste.svg date 2022/11/18 04:41:33 </svg:title>
  <svg:desc>Picture generated by PCBNEW </svg:desc>
<svg:g style="fill:#000000; fill-opacity:1.000000;stroke:#000000; stroke-opacity:1.000000; stroke-linecap:round; stroke-linejoin:round;" transform="translate(0 0) scale(1 1)">
</svg:g>
<svg:g style="fill:#000000; fill-opacity:0.0;  stroke:#000000; stroke-width:0.000000; stroke-opacity:1;  stroke-linecap:round; stroke-linejoin:round;">
<svg:g>
</svg:g>
<svg:g>
</svg:g>
<svg:g>
</svg:g>
<svg:g>
</svg:g>
</svg:g>
<svg:g style="fill:#000000; fill-opacity:0.0;  stroke:#000000; stroke-width:0.000000; stroke-opacity:1;  stroke-linecap:round; stroke-linejoin:round;">
<svg:g>
</svg:g>
<svg:g>
</svg:g>
<svg:g>
</svg:g>
<svg:g>
</svg:g>
</svg:g> 
</svg:g><svg:g><svg:title>SVG Picture created as kicadBoard-B_Silkscreen.svg date 2022/11/18 04:41:33 </svg:title>
  <svg:desc>Picture generated by PCBNEW </svg:desc>
<svg:g style="fill:#000000; fill-opacity:1.000000;stroke:#000000; stroke-opacity:1.000000; stroke-linecap:round; stroke-linejoin:round;" transform="translate(0 0) scale(1 1)">
</svg:g>
<svg:g style="fill:#000000; fill-opacity:0.0;  stroke:#000000; stroke-width:0.000000; stroke-opacity:1;  stroke-linecap:round; stroke-linejoin:round;">
<svg:g>
</svg:g>
<svg:g>
</svg:g>
<svg:g>
</svg:g>
<svg:g>
</svg:g>
</svg:g>
<svg:g style="fill:#000000; fill-opacity:0.0;  stroke:#000000; stroke-width:0.000000; stroke-opacity:1;  stroke-linecap:round; stroke-linejoin:round;">
<svg:g>
</svg:g>
<svg:g>
</svg:g>
<svg:g>
</svg:g>
<svg:g>
</svg:g>
</svg:g> 
</svg:g><svg:g><svg:title>SVG Picture created as kicadBoard-Edge_Cuts.svg date 2022/11/18 04:41:33 </svg:title>
  <svg:desc>Picture generated by PCBNEW </svg:desc>
<svg:g style="fill:#000000; fill-opacity:1.000000;stroke:#000000; stroke-opacity:1.000000; stroke-linecap:round; stroke-linejoin:round;" transform="translate(0 0) scale(1 1)">
</svg:g>
<svg:g style="fill:#000000; fill-opacity:0.0;  stroke:#000000; stroke-width:0.000000; stroke-opacity:1;  stroke-linecap:round; stroke-linejoin:round;">
<svg:g>
</svg:g>
<svg:g>
</svg:g>
<svg:g>
</svg:g>
<svg:g>
</svg:g>
</svg:g> 
</svg:g><svg:g><svg:title>SVG Picture created as kicadBoard-F_Adhesive.svg date 2022/11/18 04:41:33 </svg:title>
  <svg:desc>Picture generated by PCBNEW </svg:desc>
<svg:g style="fill:#000000; fill-opacity:1.000000;stroke:#000000; stroke-opacity:1.000000; stroke-linecap:round; stroke-linejoin:round;" transform="translate(0 0) scale(1 1)">
</svg:g>
<svg:g style="fill:#000000; fill-opacity:0.0;  stroke:#000000; stroke-width:0.000000; stroke-opacity:1;  stroke-linecap:round; stroke-linejoin:round;">
</svg:g>
<svg:g style="fill:#840084; fill-opacity:0.0;  stroke:#840084; stroke-width:0.000000; stroke-opacity:1;  stroke-linecap:round; stroke-linejoin:round;">
</svg:g>
<svg:g style="fill:#840084; fill-opacity:0.0;  stroke:#840084; stroke-width:200000.000000; stroke-opacity:1;  stroke-linecap:round; stroke-linejoin:round;">
<svg:circle cx="50000000.000000" cy="52400000.000000" r="100000.000000"/> 
<svg:circle cx="50000000.000000" cy="47600000.000000" r="100000.000000"/> 
<svg:g>
</svg:g>
<svg:g>
</svg:g>
<svg:g>
</svg:g>
<svg:g>
</svg:g>
</svg:g>
<svg:g style="fill:#000000; fill-opacity:0.0;  stroke:#000000; stroke-width:200000.000000; stroke-opacity:1;  stroke-linecap:round; stroke-linejoin:round;">
<svg:g>
</svg:g>
<svg:g>
</svg:g>
<svg:g>
</svg:g>
<svg:g>
</svg:g>
</svg:g> 
</svg:g><svg:g><svg:title>SVG Picture created as kicadBoard-F_Courtyard.svg date 2022/11/18 04:41:33 </svg:title>
  <svg:desc>Picture generated by PCBNEW </svg:desc>
<svg:g style="fill:#000000; fill-opacity:1.000000;stroke:#000000; stroke-opacity:1.000000; stroke-linecap:round; stroke-linejoin:round;" transform="translate(0 0) scale(1 1)">
</svg:g>
<svg:g style="fill:#000000; fill-opacity:0.0;  stroke:#000000; stroke-width:0.000000; stroke-opacity:1;  stroke-linecap:round; stroke-linejoin:round;">
</svg:g>
<svg:g style="fill:#FF26E2; fill-opacity:0.0;  stroke:#FF26E2; stroke-width:0.000000; stroke-opacity:1;  stroke-linecap:round; stroke-linejoin:round;">
</svg:g>
<svg:g style="fill:#FF26E2; fill-opacity:0.0;  stroke:#FF26E2; stroke-width:50000.000000; stroke-opacity:1;  stroke-linecap:round; stroke-linejoin:round;">
<svg:path d="M48610000 46550000 L48610000 53450000 "/>
<svg:path d="M51390000 53450000 L48610000 53450000 "/>
<svg:path d="M51390000 53450000 L51390000 46550000 "/>
<svg:path d="M48610000 46550000 L51390000 46550000 "/>
<svg:g>
</svg:g>
<svg:g>
</svg:g>
<svg:g>
</svg:g>
<svg:g>
</svg:g>
</svg:g>
<svg:g style="fill:#000000; fill-opacity:0.0;  stroke:#000000; stroke-width:50000.000000; stroke-opacity:1;  stroke-linecap:round; stroke-linejoin:round;">
<svg:g>
</svg:g>
<svg:g>
</svg:g>
<svg:g>
</svg:g>
<svg:g>
</svg:g>
</svg:g> 
</svg:g><svg:g><svg:title>SVG Picture created as kicadBoard-F_Fab.svg date 2022/11/18 04:41:33 </svg:title>
  <svg:desc>Picture generated by PCBNEW </svg:desc>
<svg:g style="fill:#000000; fill-opacity:1.000000;stroke:#000000; stroke-opacity:1.000000; stroke-linecap:round; stroke-linejoin:round;" transform="translate(0 0) scale(1 1)">
</svg:g>
<svg:g style="fill:#000000; fill-opacity:0.0;  stroke:#000000; stroke-width:0.000000; stroke-opacity:1;  stroke-linecap:round; stroke-linejoin:round;">
</svg:g>
<svg:g style="fill:#AFAFAF; fill-opacity:0.0;  stroke:#AFAFAF; stroke-width:0.000000; stroke-opacity:1;  stroke-linecap:round; stroke-linejoin:round;">
</svg:g>
<svg:g style="fill:#AFAFAF; fill-opacity:0.0;  stroke:#AFAFAF; stroke-width:150000.000000; stroke-opacity:1;  stroke-linecap:round; stroke-linejoin:round;">
<svg:text x="49930000.000000" y="54780000.000000" textLength="8528333.000000" font-size="1333333.000000" lengthAdjust="spacingAndGlyphs" text-anchor="middle" opacity="0">R_Cat16-8</svg:text>
<svg:g class="stroked-text"><svg:desc>R_Cat16-8</svg:desc>
<svg:path d="M46572857 54732380 L46239523 54256190 "/>
<svg:path d="M46001428 54732380 L46001428 53732380 L46382380 53732380 L46477619 53780000 L46525238 53827619 L46572857 53922857 L46572857 54065714 L46525238 54160952 L46477619 54208571 L46382380 54256190 L46001428 54256190 "/>
<svg:path d="M46763333 54827619 L47525238 54827619 "/>
<svg:path d="M48334761 54637142 L48287142 54684761 L48144285 54732380 L48049047 54732380 L47906190 54684761 L47810952 54589523 L47763333 54494285 L47715714 54303809 L47715714 54160952 L47763333 53970476 L47810952 53875238 L47906190 53780000 L48049047 53732380 L48144285 53732380 L48287142 53780000 L48334761 53827619 "/>
<svg:path d="M49191904 54732380 L49191904 54208571 L49144285 54113333 L49049047 54065714 L48858571 54065714 L48763333 54113333 "/>
<svg:path d="M49191904 54684761 L49096666 54732380 L48858571 54732380 L48763333 54684761 L48715714 54589523 L48715714 54494285 L48763333 54399047 L48858571 54351428 L49096666 54351428 L49191904 54303809 "/>
<svg:path d="M49525238 54065714 L49906190 54065714 "/>
<svg:path d="M49668095 53732380 L49668095 54589523 L49715714 54684761 L49810952 54732380 L49906190 54732380 "/>
<svg:path d="M50763333 54732380 L50191904 54732380 "/>
<svg:path d="M50477619 54732380 L50477619 53732380 L50382380 53875238 L50287142 53970476 L50191904 54018095 "/>
<svg:path d="M51620476 53732380 L51430000 53732380 L51334761 53780000 L51287142 53827619 L51191904 53970476 L51144285 54160952 L51144285 54541904 L51191904 54637142 L51239523 54684761 L51334761 54732380 L51525238 54732380 L51620476 54684761 L51668095 54637142 L51715714 54541904 L51715714 54303809 L51668095 54208571 L51620476 54160952 L51525238 54113333 L51334761 54113333 L51239523 54160952 L51191904 54208571 L51144285 54303809 "/>
<svg:path d="M52144285 54351428 L52906190 54351428 "/>
<svg:path d="M53525238 54160952 L53430000 54113333 L53382380 54065714 L53334761 53970476 L53334761 53922857 L53382380 53827619 L53430000 53780000 L53525238 53732380 L53715714 53732380 L53810952 53780000 L53858571 53827619 L53906190 53922857 L53906190 53970476 L53858571 54065714 L53810952 54113333 L53715714 54160952 L53525238 54160952 L53430000 54208571 L53382380 54256190 L53334761 54351428 L53334761 54541904 L53382380 54637142 L53430000 54684761 L53525238 54732380 L53715714 54732380 L53810952 54684761 L53858571 54637142 L53906190 54541904 L53906190 54351428 L53858571 54256190 L53810952 54208571 L53715714 54160952 "/>
</svg:g><svg:g transform="rotate(-90.000000 50000000.000000 50000000.000000)">
<svg:text x="50000000.000000" y="50500000.000000" textLength="10480714.000000" font-size="1333333.000000" lengthAdjust="spacingAndGlyphs" text-anchor="middle" opacity="0">FZKRRCAT168</svg:text>
</svg:g>
<svg:g class="stroked-text"><svg:desc>FZKRRCAT168</svg:desc>
<svg:path d="M49928571 54571428 L49928571 54904761 "/>
<svg:path d="M50452380 54904761 L49452380 54904761 L49452380 54428571 "/>
<svg:path d="M49452380 54142857 L49452380 53476190 L50452380 54142857 L50452380 53476190 "/>
<svg:path d="M50452380 53095238 L49452380 53095238 "/>
<svg:path d="M50452380 52523809 L49880952 52952380 "/>
<svg:path d="M49452380 52523809 L50023809 53095238 "/>
<svg:path d="M50452380 51523809 L49976190 51857142 "/>
<svg:path d="M50452380 52095238 L49452380 52095238 L49452380 51714285 L49500000 51619047 L49547619 51571428 L49642857 51523809 L49785714 51523809 L49880952 51571428 L49928571 51619047 L49976190 51714285 L49976190 52095238 "/>
<svg:path d="M50452380 50523809 L49976190 50857142 "/>
<svg:path d="M50452380 51095238 L49452380 51095238 L49452380 50714285 L49500000 50619047 L49547619 50571428 L49642857 50523809 L49785714 50523809 L49880952 50571428 L49928571 50619047 L49976190 50714285 L49976190 51095238 "/>
<svg:path d="M50357142 49523809 L50404761 49571428 L50452380 49714285 L50452380 49809523 L50404761 49952380 L50309523 50047619 L50214285 50095238 L50023809 50142857 L49880952 50142857 L49690476 50095238 L49595238 50047619 L49500000 49952380 L49452380 49809523 L49452380 49714285 L49500000 49571428 L49547619 49523809 "/>
<svg:path d="M50166666 49142857 L50166666 48666666 "/>
<svg:path d="M50452380 49238095 L49452380 48904761 L50452380 48571428 "/>
<svg:path d="M49452380 48380952 L49452380 47809523 "/>
<svg:path d="M50452380 48095238 L49452380 48095238 "/>
<svg:path d="M50452380 46952380 L50452380 47523809 "/>
<svg:path d="M50452380 47238095 L49452380 47238095 L49595238 47333333 L49690476 47428571 L49738095 47523809 "/>
<svg:path d="M49452380 46095238 L49452380 46285714 L49500000 46380952 L49547619 46428571 L49690476 46523809 L49880952 46571428 L50261904 46571428 L50357142 46523809 L50404761 46476190 L50452380 46380952 L50452380 46190476 L50404761 46095238 L50357142 46047619 L50261904 46000000 L50023809 46000000 L49928571 46047619 L49880952 46095238 L49833333 46190476 L49833333 46380952 L49880952 46476190 L49928571 46523809 L50023809 46571428 "/>
<svg:path d="M49880952 45428571 L49833333 45523809 L49785714 45571428 L49690476 45619047 L49642857 45619047 L49547619 45571428 L49500000 45523809 L49452380 45428571 L49452380 45238095 L49500000 45142857 L49547619 45095238 L49642857 45047619 L49690476 45047619 L49785714 45095238 L49833333 45142857 L49880952 45238095 L49880952 45428571 L49928571 45523809 L49976190 45571428 L50071428 45619047 L50261904 45619047 L50357142 45571428 L50404761 45523809 L50452380 45428571 L50452380 45238095 L50404761 45142857 L50357142 45095238 L50261904 45047619 L50071428 45047619 L49976190 45095238 L49928571 45142857 L49880952 45238095 "/>
</svg:g></svg:g>
<svg:g style="fill:#AFAFAF; fill-opacity:0.0;  stroke:#AFAFAF; stroke-width:100000.000000; stroke-opacity:1;  stroke-linecap:round; stroke-linejoin:round;">
<svg:path d="M49200000 46800000 L50800000 46800000 "/>
<svg:path d="M49200000 53200000 L49200000 46800000 "/>
<svg:path d="M50800000 53200000 L49200000 53200000 "/>
<svg:path d="M50800000 46800000 L50800000 53200000 "/>
<svg:g>
</svg:g>
<svg:g>
</svg:g>
<svg:g>
</svg:g>
<svg:g>
</svg:g>
</svg:g>
<svg:g style="fill:#000000; fill-opacity:0.0;  stroke:#000000; stroke-width:100000.000000; stroke-opacity:1;  stroke-linecap:round; stroke-linejoin:round;">
<svg:g>
</svg:g>
<svg:g>
</svg:g>
<svg:g>
</svg:g>
<svg:g>
</svg:g>
</svg:g> 
</svg:g><svg:g><svg:title>SVG Picture created as kicadBoard-F_Mask.svg date 2022/11/18 04:41:33 </svg:title>
  <svg:desc>Picture generated by PCBNEW </svg:desc>
<svg:g style="fill:#000000; fill-opacity:1.000000;stroke:#000000; stroke-opacity:1.000000; stroke-linecap:round; stroke-linejoin:round;" transform="translate(0 0) scale(1 1)">
</svg:g>
<svg:g style="fill:#000000; fill-opacity:0.0;  stroke:#000000; stroke-width:0.000000; stroke-opacity:1;  stroke-linecap:round; stroke-linejoin:round;">
<svg:g>
</svg:g>
<svg:g style="fill:#000000; fill-opacity:0.0;  stroke:#000000; stroke-width:1.000000; stroke-opacity:1;  stroke-linecap:round; stroke-linejoin:round;">
</svg:g>
<svg:g style="fill:#000000; fill-opacity:1.0;  stroke:#000000; stroke-width:1.000000; stroke-opacity:1;  stroke-linecap:round; stroke-linejoin:round;">
<svg:path style="fill:#000000; fill-opacity:1.0;  stroke:#000000; stroke-width:1.000000; stroke-opacity:1;  stroke-linecap:round; stroke-linejoin:round;fill-rule:evenodd;" d="M 49620000.000000,46985000.000000 49620000.000000,47415000.000000 48860000.000000,47415000.000000 48860000.000000,46985000.000000 Z"/> 
<svg:path style="fill:#000000; fill-opacity:1.0;  stroke:#000000; stroke-width:1.000000; stroke-opacity:1;  stroke-linecap:round; stroke-linejoin:round;fill-rule:evenodd;" d="M 49620000.000000,47785000.000000 49620000.000000,48215000.000000 48860000.000000,48215000.000000 48860000.000000,47785000.000000 Z"/> 
<svg:path style="fill:#000000; fill-opacity:1.0;  stroke:#000000; stroke-width:1.000000; stroke-opacity:1;  stroke-linecap:round; stroke-linejoin:round;fill-rule:evenodd;" d="M 49620000.000000,48585000.000000 49620000.000000,49015000.000000 48860000.000000,49015000.000000 48860000.000000,48585000.000000 Z"/> 
<svg:path style="fill:#000000; fill-opacity:1.0;  stroke:#000000; stroke-width:1.000000; stroke-opacity:1;  stroke-linecap:round; stroke-linejoin:round;fill-rule:evenodd;" d="M 49620000.000000,49385000.000000 49620000.000000,49815000.000000 48860000.000000,49815000.000000 48860000.000000,49385000.000000 Z"/> 
<svg:path style="fill:#000000; fill-opacity:1.0;  stroke:#000000; stroke-width:1.000000; stroke-opacity:1;  stroke-linecap:round; stroke-linejoin:round;fill-rule:evenodd;" d="M 49620000.000000,50185000.000000 49620000.000000,50615000.000000 48860000.000000,50615000.000000 48860000.000000,50185000.000000 Z"/> 
<svg:path style="fill:#000000; fill-opacity:1.0;  stroke:#000000; stroke-width:1.000000; stroke-opacity:1;  stroke-linecap:round; stroke-linejoin:round;fill-rule:evenodd;" d="M 49620000.000000,50985000.000000 49620000.000000,51415000.000000 48860000.000000,51415000.000000 48860000.000000,50985000.000000 Z"/> 
<svg:path style="fill:#000000; fill-opacity:1.0;  stroke:#000000; stroke-width:1.000000; stroke-opacity:1;  stroke-linecap:round; stroke-linejoin:round;fill-rule:evenodd;" d="M 49620000.000000,51785000.000000 49620000.000000,52215000.000000 48860000.000000,52215000.000000 48860000.000000,51785000.000000 Z"/> 
<svg:path style="fill:#000000; fill-opacity:1.0;  stroke:#000000; stroke-width:1.000000; stroke-opacity:1;  stroke-linecap:round; stroke-linejoin:round;fill-rule:evenodd;" d="M 49620000.000000,52585000.000000 49620000.000000,53015000.000000 48860000.000000,53015000.000000 48860000.000000,52585000.000000 Z"/> 
<svg:path style="fill:#000000; fill-opacity:1.0;  stroke:#000000; stroke-width:1.000000; stroke-opacity:1;  stroke-linecap:round; stroke-linejoin:round;fill-rule:evenodd;" d="M 51140000.000000,52585000.000000 51140000.000000,53015000.000000 50380000.000000,53015000.000000 50380000.000000,52585000.000000 Z"/> 
<svg:path style="fill:#000000; fill-opacity:1.0;  stroke:#000000; stroke-width:1.000000; stroke-opacity:1;  stroke-linecap:round; stroke-linejoin:round;fill-rule:evenodd;" d="M 51140000.000000,51785000.000000 51140000.000000,52215000.000000 50380000.000000,52215000.000000 50380000.000000,51785000.000000 Z"/> 
<svg:path style="fill:#000000; fill-opacity:1.0;  stroke:#000000; stroke-width:1.000000; stroke-opacity:1;  stroke-linecap:round; stroke-linejoin:round;fill-rule:evenodd;" d="M 51140000.000000,50985000.000000 51140000.000000,51415000.000000 50380000.000000,51415000.000000 50380000.000000,50985000.000000 Z"/> 
<svg:path style="fill:#000000; fill-opacity:1.0;  stroke:#000000; stroke-width:1.000000; stroke-opacity:1;  stroke-linecap:round; stroke-linejoin:round;fill-rule:evenodd;" d="M 51140000.000000,50185000.000000 51140000.000000,50615000.000000 50380000.000000,50615000.000000 50380000.000000,50185000.000000 Z"/> 
<svg:path style="fill:#000000; fill-opacity:1.0;  stroke:#000000; stroke-width:1.000000; stroke-opacity:1;  stroke-linecap:round; stroke-linejoin:round;fill-rule:evenodd;" d="M 51140000.000000,49385000.000000 51140000.000000,49815000.000000 50380000.000000,49815000.000000 50380000.000000,49385000.000000 Z"/> 
<svg:path style="fill:#000000; fill-opacity:1.0;  stroke:#000000; stroke-width:1.000000; stroke-opacity:1;  stroke-linecap:round; stroke-linejoin:round;fill-rule:evenodd;" d="M 51140000.000000,48585000.000000 51140000.000000,49015000.000000 50380000.000000,49015000.000000 50380000.000000,48585000.000000 Z"/> 
<svg:path style="fill:#000000; fill-opacity:1.0;  stroke:#000000; stroke-width:1.000000; stroke-opacity:1;  stroke-linecap:round; stroke-linejoin:round;fill-rule:evenodd;" d="M 51140000.000000,47785000.000000 51140000.000000,48215000.000000 50380000.000000,48215000.000000 50380000.000000,47785000.000000 Z"/> 
<svg:path style="fill:#000000; fill-opacity:1.0;  stroke:#000000; stroke-width:1.000000; stroke-opacity:1;  stroke-linecap:round; stroke-linejoin:round;fill-rule:evenodd;" d="M 51140000.000000,46985000.000000 51140000.000000,47415000.000000 50380000.000000,47415000.000000 50380000.000000,46985000.000000 Z"/> 
</svg:g>
<svg:g>
</svg:g>
<svg:g>
</svg:g>
<svg:g>
</svg:g>
</svg:g>
<svg:g style="fill:#000000; fill-opacity:1.0;  stroke:#000000; stroke-width:1.000000; stroke-opacity:1;  stroke-linecap:round; stroke-linejoin:round;">
<svg:g>
</svg:g>
<svg:g>
</svg:g>
<svg:g>
</svg:g>
<svg:g>
</svg:g>
</svg:g> 
</svg:g><svg:g><svg:title>SVG Picture created as kicadBoard-F_Paste.svg date 2022/11/18 04:41:33 </svg:title>
  <svg:desc>Picture generated by PCBNEW </svg:desc>
<svg:g style="fill:#000000; fill-opacity:1.000000;stroke:#000000; stroke-opacity:1.000000; stroke-linecap:round; stroke-linejoin:round;" transform="translate(0 0) scale(1 1)">
</svg:g>
<svg:g style="fill:#000000; fill-opacity:0.0;  stroke:#000000; stroke-width:0.000000; stroke-opacity:1;  stroke-linecap:round; stroke-linejoin:round;">
<svg:g>
</svg:g>
<svg:g style="fill:#000000; fill-opacity:0.0;  stroke:#000000; stroke-width:1.000000; stroke-opacity:1;  stroke-linecap:round; stroke-linejoin:round;">
</svg:g>
<svg:g style="fill:#000000; fill-opacity:1.0;  stroke:#000000; stroke-width:1.000000; stroke-opacity:1;  stroke-linecap:round; stroke-linejoin:round;">
<svg:path style="fill:#000000; fill-opacity:1.0;  stroke:#000000; stroke-width:1.000000; stroke-opacity:1;  stroke-linecap:round; stroke-linejoin:round;fill-rule:evenodd;" d="M 49620000.000000,46985000.000000 49620000.000000,47415000.000000 48860000.000000,47415000.000000 48860000.000000,46985000.000000 Z"/> 
<svg:path style="fill:#000000; fill-opacity:1.0;  stroke:#000000; stroke-width:1.000000; stroke-opacity:1;  stroke-linecap:round; stroke-linejoin:round;fill-rule:evenodd;" d="M 49620000.000000,47785000.000000 49620000.000000,48215000.000000 48860000.000000,48215000.000000 48860000.000000,47785000.000000 Z"/> 
<svg:path style="fill:#000000; fill-opacity:1.0;  stroke:#000000; stroke-width:1.000000; stroke-opacity:1;  stroke-linecap:round; stroke-linejoin:round;fill-rule:evenodd;" d="M 49620000.000000,48585000.000000 49620000.000000,49015000.000000 48860000.000000,49015000.000000 48860000.000000,48585000.000000 Z"/> 
<svg:path style="fill:#000000; fill-opacity:1.0;  stroke:#000000; stroke-width:1.000000; stroke-opacity:1;  stroke-linecap:round; stroke-linejoin:round;fill-rule:evenodd;" d="M 49620000.000000,49385000.000000 49620000.000000,49815000.000000 48860000.000000,49815000.000000 48860000.000000,49385000.000000 Z"/> 
<svg:path style="fill:#000000; fill-opacity:1.0;  stroke:#000000; stroke-width:1.000000; stroke-opacity:1;  stroke-linecap:round; stroke-linejoin:round;fill-rule:evenodd;" d="M 49620000.000000,50185000.000000 49620000.000000,50615000.000000 48860000.000000,50615000.000000 48860000.000000,50185000.000000 Z"/> 
<svg:path style="fill:#000000; fill-opacity:1.0;  stroke:#000000; stroke-width:1.000000; stroke-opacity:1;  stroke-linecap:round; stroke-linejoin:round;fill-rule:evenodd;" d="M 49620000.000000,50985000.000000 49620000.000000,51415000.000000 48860000.000000,51415000.000000 48860000.000000,50985000.000000 Z"/> 
<svg:path style="fill:#000000; fill-opacity:1.0;  stroke:#000000; stroke-width:1.000000; stroke-opacity:1;  stroke-linecap:round; stroke-linejoin:round;fill-rule:evenodd;" d="M 49620000.000000,51785000.000000 49620000.000000,52215000.000000 48860000.000000,52215000.000000 48860000.000000,51785000.000000 Z"/> 
<svg:path style="fill:#000000; fill-opacity:1.0;  stroke:#000000; stroke-width:1.000000; stroke-opacity:1;  stroke-linecap:round; stroke-linejoin:round;fill-rule:evenodd;" d="M 49620000.000000,52585000.000000 49620000.000000,53015000.000000 48860000.000000,53015000.000000 48860000.000000,52585000.000000 Z"/> 
<svg:path style="fill:#000000; fill-opacity:1.0;  stroke:#000000; stroke-width:1.000000; stroke-opacity:1;  stroke-linecap:round; stroke-linejoin:round;fill-rule:evenodd;" d="M 51140000.000000,52585000.000000 51140000.000000,53015000.000000 50380000.000000,53015000.000000 50380000.000000,52585000.000000 Z"/> 
<svg:path style="fill:#000000; fill-opacity:1.0;  stroke:#000000; stroke-width:1.000000; stroke-opacity:1;  stroke-linecap:round; stroke-linejoin:round;fill-rule:evenodd;" d="M 51140000.000000,51785000.000000 51140000.000000,52215000.000000 50380000.000000,52215000.000000 50380000.000000,51785000.000000 Z"/> 
<svg:path style="fill:#000000; fill-opacity:1.0;  stroke:#000000; stroke-width:1.000000; stroke-opacity:1;  stroke-linecap:round; stroke-linejoin:round;fill-rule:evenodd;" d="M 51140000.000000,50985000.000000 51140000.000000,51415000.000000 50380000.000000,51415000.000000 50380000.000000,50985000.000000 Z"/> 
<svg:path style="fill:#000000; fill-opacity:1.0;  stroke:#000000; stroke-width:1.000000; stroke-opacity:1;  stroke-linecap:round; stroke-linejoin:round;fill-rule:evenodd;" d="M 51140000.000000,50185000.000000 51140000.000000,50615000.000000 50380000.000000,50615000.000000 50380000.000000,50185000.000000 Z"/> 
<svg:path style="fill:#000000; fill-opacity:1.0;  stroke:#000000; stroke-width:1.000000; stroke-opacity:1;  stroke-linecap:round; stroke-linejoin:round;fill-rule:evenodd;" d="M 51140000.000000,49385000.000000 51140000.000000,49815000.000000 50380000.000000,49815000.000000 50380000.000000,49385000.000000 Z"/> 
<svg:path style="fill:#000000; fill-opacity:1.0;  stroke:#000000; stroke-width:1.000000; stroke-opacity:1;  stroke-linecap:round; stroke-linejoin:round;fill-rule:evenodd;" d="M 51140000.000000,48585000.000000 51140000.000000,49015000.000000 50380000.000000,49015000.000000 50380000.000000,48585000.000000 Z"/> 
<svg:path style="fill:#000000; fill-opacity:1.0;  stroke:#000000; stroke-width:1.000000; stroke-opacity:1;  stroke-linecap:round; stroke-linejoin:round;fill-rule:evenodd;" d="M 51140000.000000,47785000.000000 51140000.000000,48215000.000000 50380000.000000,48215000.000000 50380000.000000,47785000.000000 Z"/> 
<svg:path style="fill:#000000; fill-opacity:1.0;  stroke:#000000; stroke-width:1.000000; stroke-opacity:1;  stroke-linecap:round; stroke-linejoin:round;fill-rule:evenodd;" d="M 51140000.000000,46985000.000000 51140000.000000,47415000.000000 50380000.000000,47415000.000000 50380000.000000,46985000.000000 Z"/> 
</svg:g>
<svg:g>
</svg:g>
<svg:g>
</svg:g>
<svg:g>
</svg:g>
</svg:g>
<svg:g style="fill:#000000; fill-opacity:1.0;  stroke:#000000; stroke-width:1.000000; stroke-opacity:1;  stroke-linecap:round; stroke-linejoin:round;">
<svg:g>
</svg:g>
<svg:g>
</svg:g>
<svg:g>
</svg:g>
<svg:g>
</svg:g>
</svg:g> 
</svg:g><svg:g><svg:title>SVG Picture created as kicadBoard-F_Silkscreen.svg date 2022/11/18 04:41:33 </svg:title>
  <svg:desc>Picture generated by PCBNEW </svg:desc>
<svg:g style="fill:#000000; fill-opacity:1.000000;stroke:#000000; stroke-opacity:1.000000; stroke-linecap:round; stroke-linejoin:round;" transform="translate(0 0) scale(1 1)">
</svg:g>
<svg:g style="fill:#000000; fill-opacity:0.0;  stroke:#000000; stroke-width:0.000000; stroke-opacity:1;  stroke-linecap:round; stroke-linejoin:round;">
</svg:g>
<svg:g style="fill:#F2EDA1; fill-opacity:0.0;  stroke:#F2EDA1; stroke-width:0.000000; stroke-opacity:1;  stroke-linecap:round; stroke-linejoin:round;">
</svg:g>
<svg:g style="fill:#F2EDA1; fill-opacity:0.0;  stroke:#F2EDA1; stroke-width:150000.000000; stroke-opacity:1;  stroke-linecap:round; stroke-linejoin:round;">
<svg:text x="49930000.000000" y="46280000.000000" textLength="10285715.000000" font-size="1333333.000000" lengthAdjust="spacingAndGlyphs" text-anchor="middle" opacity="0">FZKRRCAT168</svg:text>
<svg:g class="stroked-text"><svg:desc>FZKRRCAT168</svg:desc>
<svg:path d="M45358571 45708571 L45025238 45708571 "/>
<svg:path d="M45025238 46232380 L45025238 45232380 L45501428 45232380 "/>
<svg:path d="M45787142 45232380 L46453809 45232380 L45787142 46232380 L46453809 46232380 "/>
<svg:path d="M46834761 46232380 L46834761 45232380 "/>
<svg:path d="M47406190 46232380 L46977619 45660952 "/>
<svg:path d="M47406190 45232380 L46834761 45803809 "/>
<svg:path d="M48406190 46232380 L48072857 45756190 "/>
<svg:path d="M47834761 46232380 L47834761 45232380 L48215714 45232380 L48310952 45280000 L48358571 45327619 L48406190 45422857 L48406190 45565714 L48358571 45660952 L48310952 45708571 L48215714 45756190 L47834761 45756190 "/>
<svg:path d="M49406190 46232380 L49072857 45756190 "/>
<svg:path d="M48834761 46232380 L48834761 45232380 L49215714 45232380 L49310952 45280000 L49358571 45327619 L49406190 45422857 L49406190 45565714 L49358571 45660952 L49310952 45708571 L49215714 45756190 L48834761 45756190 "/>
<svg:path d="M50406190 46137142 L50358571 46184761 L50215714 46232380 L50120476 46232380 L49977619 46184761 L49882380 46089523 L49834761 45994285 L49787142 45803809 L49787142 45660952 L49834761 45470476 L49882380 45375238 L49977619 45280000 L50120476 45232380 L50215714 45232380 L50358571 45280000 L50406190 45327619 "/>
<svg:path d="M50787142 45946666 L51263333 45946666 "/>
<svg:path d="M50691904 46232380 L51025238 45232380 L51358571 46232380 "/>
<svg:path d="M51549047 45232380 L52120476 45232380 "/>
<svg:path d="M51834761 46232380 L51834761 45232380 "/>
<svg:path d="M52977619 46232380 L52406190 46232380 "/>
<svg:path d="M52691904 46232380 L52691904 45232380 L52596666 45375238 L52501428 45470476 L52406190 45518095 "/>
<svg:path d="M53834761 45232380 L53644285 45232380 L53549047 45280000 L53501428 45327619 L53406190 45470476 L53358571 45660952 L53358571 46041904 L53406190 46137142 L53453809 46184761 L53549047 46232380 L53739523 46232380 L53834761 46184761 L53882380 46137142 L53930000 46041904 L53930000 45803809 L53882380 45708571 L53834761 45660952 L53739523 45613333 L53549047 45613333 L53453809 45660952 L53406190 45708571 L53358571 45803809 "/>
<svg:path d="M54501428 45660952 L54406190 45613333 L54358571 45565714 L54310952 45470476 L54310952 45422857 L54358571 45327619 L54406190 45280000 L54501428 45232380 L54691904 45232380 L54787142 45280000 L54834761 45327619 L54882380 45422857 L54882380 45470476 L54834761 45565714 L54787142 45613333 L54691904 45660952 L54501428 45660952 L54406190 45708571 L54358571 45756190 L54310952 45851428 L54310952 46041904 L54358571 46137142 L54406190 46184761 L54501428 46232380 L54691904 46232380 L54787142 46184761 L54834761 46137142 L54882380 46041904 L54882380 45851428 L54834761 45756190 L54787142 45708571 L54691904 45660952 "/>
</svg:g></svg:g>
<svg:g style="fill:#F2EDA1; fill-opacity:0.0;  stroke:#F2EDA1; stroke-width:120000.000000; stroke-opacity:1;  stroke-linecap:round; stroke-linejoin:round;">
<svg:path d="M51100000 46700000 L48900000 46700000 "/>
<svg:path d="M51100000 53300000 L48900000 53300000 "/>
<svg:g>
</svg:g>
<svg:g>
</svg:g>
<svg:g>
</svg:g>
<svg:g>
</svg:g>
</svg:g>
<svg:g style="fill:#000000; fill-opacity:0.0;  stroke:#000000; stroke-width:120000.000000; stroke-opacity:1;  stroke-linecap:round; stroke-linejoin:round;">
<svg:g>
</svg:g>
<svg:g>
</svg:g>
<svg:g>
</svg:g>
<svg:g>
</svg:g>
</svg:g> 
</svg:g><svg:g><svg:title>SVG Picture created as kicadBoard-Margin.svg date 2022/11/18 04:41:33 </svg:title>
  <svg:desc>Picture generated by PCBNEW </svg:desc>
<svg:g style="fill:#000000; fill-opacity:1.000000;stroke:#000000; stroke-opacity:1.000000; stroke-linecap:round; stroke-linejoin:round;" transform="translate(0 0) scale(1 1)">
</svg:g>
<svg:g style="fill:#000000; fill-opacity:0.0;  stroke:#000000; stroke-width:0.000000; stroke-opacity:1;  stroke-linecap:round; stroke-linejoin:round;">
<svg:g>
</svg:g>
<svg:g>
</svg:g>
<svg:g>
</svg:g>
<svg:g>
</svg:g>
</svg:g>
<svg:g style="fill:#000000; fill-opacity:0.0;  stroke:#000000; stroke-width:0.000000; stroke-opacity:1;  stroke-linecap:round; stroke-linejoin:round;">
<svg:g>
</svg:g>
<svg:g>
</svg:g>
<svg:g>
</svg:g>
<svg:g>
</svg:g>
</svg:g> 
</svg:g><svg:g><svg:title>SVG Picture created as kicadBoard-F_Cu.svg date 2022/11/18 04:41:33 </svg:title>
  <svg:desc>Picture generated by PCBNEW </svg:desc>
<svg:g style="fill:#000000; fill-opacity:1.000000;stroke:#000000; stroke-opacity:1.000000; stroke-linecap:round; stroke-linejoin:round;" transform="translate(0 0) scale(1 1)">
</svg:g>
<svg:g style="fill:#000000; fill-opacity:0.0;  stroke:#000000; stroke-width:0.000000; stroke-opacity:1;  stroke-linecap:round; stroke-linejoin:round;">
<svg:g>
</svg:g>
<svg:g style="fill:#C83434; fill-opacity:0.0;  stroke:#C83434; stroke-width:0.000000; stroke-opacity:1;  stroke-linecap:round; stroke-linejoin:round;">
</svg:g>
<svg:g style="fill:#C83434; fill-opacity:0.0;  stroke:#C83434; stroke-width:1.000000; stroke-opacity:1;  stroke-linecap:round; stroke-linejoin:round;">
</svg:g>
<svg:g style="fill:#C83434; fill-opacity:1.0;  stroke:#C83434; stroke-width:1.000000; stroke-opacity:1;  stroke-linecap:round; stroke-linejoin:round;">
<svg:path style="fill:#C83434; fill-opacity:1.0;  stroke:#C83434; stroke-width:1.000000; stroke-opacity:1;  stroke-linecap:round; stroke-linejoin:round;fill-rule:evenodd;" d="M 49620000.000000,46985000.000000 49620000.000000,47415000.000000 48860000.000000,47415000.000000 48860000.000000,46985000.000000 Z"/> 
<svg:path style="fill:#C83434; fill-opacity:1.0;  stroke:#C83434; stroke-width:1.000000; stroke-opacity:1;  stroke-linecap:round; stroke-linejoin:round;fill-rule:evenodd;" d="M 49620000.000000,47785000.000000 49620000.000000,48215000.000000 48860000.000000,48215000.000000 48860000.000000,47785000.000000 Z"/> 
<svg:path style="fill:#C83434; fill-opacity:1.0;  stroke:#C83434; stroke-width:1.000000; stroke-opacity:1;  stroke-linecap:round; stroke-linejoin:round;fill-rule:evenodd;" d="M 49620000.000000,48585000.000000 49620000.000000,49015000.000000 48860000.000000,49015000.000000 48860000.000000,48585000.000000 Z"/> 
<svg:path style="fill:#C83434; fill-opacity:1.0;  stroke:#C83434; stroke-width:1.000000; stroke-opacity:1;  stroke-linecap:round; stroke-linejoin:round;fill-rule:evenodd;" d="M 49620000.000000,49385000.000000 49620000.000000,49815000.000000 48860000.000000,49815000.000000 48860000.000000,49385000.000000 Z"/> 
<svg:path style="fill:#C83434; fill-opacity:1.0;  stroke:#C83434; stroke-width:1.000000; stroke-opacity:1;  stroke-linecap:round; stroke-linejoin:round;fill-rule:evenodd;" d="M 49620000.000000,50185000.000000 49620000.000000,50615000.000000 48860000.000000,50615000.000000 48860000.000000,50185000.000000 Z"/> 
<svg:path style="fill:#C83434; fill-opacity:1.0;  stroke:#C83434; stroke-width:1.000000; stroke-opacity:1;  stroke-linecap:round; stroke-linejoin:round;fill-rule:evenodd;" d="M 49620000.000000,50985000.000000 49620000.000000,51415000.000000 48860000.000000,51415000.000000 48860000.000000,50985000.000000 Z"/> 
<svg:path style="fill:#C83434; fill-opacity:1.0;  stroke:#C83434; stroke-width:1.000000; stroke-opacity:1;  stroke-linecap:round; stroke-linejoin:round;fill-rule:evenodd;" d="M 49620000.000000,51785000.000000 49620000.000000,52215000.000000 48860000.000000,52215000.000000 48860000.000000,51785000.000000 Z"/> 
<svg:path style="fill:#C83434; fill-opacity:1.0;  stroke:#C83434; stroke-width:1.000000; stroke-opacity:1;  stroke-linecap:round; stroke-linejoin:round;fill-rule:evenodd;" d="M 49620000.000000,52585000.000000 49620000.000000,53015000.000000 48860000.000000,53015000.000000 48860000.000000,52585000.000000 Z"/> 
<svg:path style="fill:#C83434; fill-opacity:1.0;  stroke:#C83434; stroke-width:1.000000; stroke-opacity:1;  stroke-linecap:round; stroke-linejoin:round;fill-rule:evenodd;" d="M 51140000.000000,52585000.000000 51140000.000000,53015000.000000 50380000.000000,53015000.000000 50380000.000000,52585000.000000 Z"/> 
<svg:path style="fill:#C83434; fill-opacity:1.0;  stroke:#C83434; stroke-width:1.000000; stroke-opacity:1;  stroke-linecap:round; stroke-linejoin:round;fill-rule:evenodd;" d="M 51140000.000000,51785000.000000 51140000.000000,52215000.000000 50380000.000000,52215000.000000 50380000.000000,51785000.000000 Z"/> 
<svg:path style="fill:#C83434; fill-opacity:1.0;  stroke:#C83434; stroke-width:1.000000; stroke-opacity:1;  stroke-linecap:round; stroke-linejoin:round;fill-rule:evenodd;" d="M 51140000.000000,50985000.000000 51140000.000000,51415000.000000 50380000.000000,51415000.000000 50380000.000000,50985000.000000 Z"/> 
<svg:path style="fill:#C83434; fill-opacity:1.0;  stroke:#C83434; stroke-width:1.000000; stroke-opacity:1;  stroke-linecap:round; stroke-linejoin:round;fill-rule:evenodd;" d="M 51140000.000000,50185000.000000 51140000.000000,50615000.000000 50380000.000000,50615000.000000 50380000.000000,50185000.000000 Z"/> 
<svg:path style="fill:#C83434; fill-opacity:1.0;  stroke:#C83434; stroke-width:1.000000; stroke-opacity:1;  stroke-linecap:round; stroke-linejoin:round;fill-rule:evenodd;" d="M 51140000.000000,49385000.000000 51140000.000000,49815000.000000 50380000.000000,49815000.000000 50380000.000000,49385000.000000 Z"/> 
<svg:path style="fill:#C83434; fill-opacity:1.0;  stroke:#C83434; stroke-width:1.000000; stroke-opacity:1;  stroke-linecap:round; stroke-linejoin:round;fill-rule:evenodd;" d="M 51140000.000000,48585000.000000 51140000.000000,49015000.000000 50380000.000000,49015000.000000 50380000.000000,48585000.000000 Z"/> 
<svg:path style="fill:#C83434; fill-opacity:1.0;  stroke:#C83434; stroke-width:1.000000; stroke-opacity:1;  stroke-linecap:round; stroke-linejoin:round;fill-rule:evenodd;" d="M 51140000.000000,47785000.000000 51140000.000000,48215000.000000 50380000.000000,48215000.000000 50380000.000000,47785000.000000 Z"/> 
<svg:path style="fill:#C83434; fill-opacity:1.0;  stroke:#C83434; stroke-width:1.000000; stroke-opacity:1;  stroke-linecap:round; stroke-linejoin:round;fill-rule:evenodd;" d="M 51140000.000000,46985000.000000 51140000.000000,47415000.000000 50380000.000000,47415000.000000 50380000.000000,46985000.000000 Z"/> 
</svg:g>
<svg:g>
</svg:g>
<svg:g>
</svg:g>
<svg:g>
</svg:g>
</svg:g>
<svg:g style="fill:#FFFFFF; fill-opacity:1.0;  stroke:#FFFFFF; stroke-width:1.000000; stroke-opacity:1;  stroke-linecap:round; stroke-linejoin:round;">
</svg:g>
<svg:g style="fill:#000000; fill-opacity:1.0;  stroke:#000000; stroke-width:1.000000; stroke-opacity:1;  stroke-linecap:round; stroke-linejoin:round;">
<svg:g>
</svg:g>
<svg:g>
</svg:g>
<svg:g>
</svg:g>
<svg:g>
</svg:g>
</svg:g> 
</svg:g></svg>
