<?xml version='1.0' encoding='ASCII' standalone='yes'?>
<svg xmlns:svg="http://www.w3.org/2000/svg" xmlns="http://www.w3.org/2000/svg" xmlns:xlink="http://www.w3.org/1999/xlink" version="1.1" width="9.999980cm" height="9.999980cm" viewBox="0 0 99999800 99999800">
<title>SVG Picture created as kicadBoard-B_Cu.svg date 2022/11/18 01:36:43 </title>
  <desc>Picture generated by PCBNEW </desc>
<g style="fill:#000000; fill-opacity:1.000000;stroke:#000000; stroke-opacity:1.000000; stroke-linecap:round; stroke-linejoin:round;" transform="translate(0 0) scale(1 1)">
</g>
<g style="fill:#000000; fill-opacity:0.0;  stroke:#000000; stroke-width:0.000000; stroke-opacity:1;  stroke-linecap:round; stroke-linejoin:round;">
<g>
</g>
<g>
</g>
<g>
</g>
<g>
</g>
</g>
<g style="fill:#FFFFFF; fill-opacity:0.0;  stroke:#FFFFFF; stroke-width:0.000000; stroke-opacity:1;  stroke-linecap:round; stroke-linejoin:round;">
</g>
<g style="fill:#000000; fill-opacity:0.0;  stroke:#000000; stroke-width:0.000000; stroke-opacity:1;  stroke-linecap:round; stroke-linejoin:round;">
<g>
</g>
<g>
</g>
<g>
</g>
<g>
</g>
</g> 
<svg:g><svg:title>SVG Picture created as kicadBoard-B_Adhesive.svg date 2022/11/18 01:36:43 </svg:title>
  <svg:desc>Picture generated by PCBNEW </svg:desc>
<svg:g style="fill:#000000; fill-opacity:1.000000;stroke:#000000; stroke-opacity:1.000000; stroke-linecap:round; stroke-linejoin:round;" transform="translate(0 0) scale(1 1)">
</svg:g>
<svg:g style="fill:#000000; fill-opacity:0.0;  stroke:#000000; stroke-width:0.000000; stroke-opacity:1;  stroke-linecap:round; stroke-linejoin:round;">
<svg:g>
</svg:g>
<svg:g>
</svg:g>
<svg:g>
</svg:g>
<svg:g>
</svg:g>
</svg:g>
<svg:g style="fill:#000000; fill-opacity:0.0;  stroke:#000000; stroke-width:0.000000; stroke-opacity:1;  stroke-linecap:round; stroke-linejoin:round;">
<svg:g>
</svg:g>
<svg:g>
</svg:g>
<svg:g>
</svg:g>
<svg:g>
</svg:g>
</svg:g> 
</svg:g><svg:g><svg:title>SVG Picture created as kicadBoard-B_Courtyard.svg date 2022/11/18 01:36:43 </svg:title>
  <svg:desc>Picture generated by PCBNEW </svg:desc>
<svg:g style="fill:#000000; fill-opacity:1.000000;stroke:#000000; stroke-opacity:1.000000; stroke-linecap:round; stroke-linejoin:round;" transform="translate(0 0) scale(1 1)">
</svg:g>
<svg:g style="fill:#000000; fill-opacity:0.0;  stroke:#000000; stroke-width:0.000000; stroke-opacity:1;  stroke-linecap:round; stroke-linejoin:round;">
<svg:g>
</svg:g>
<svg:g>
</svg:g>
<svg:g>
</svg:g>
<svg:g>
</svg:g>
</svg:g>
<svg:g style="fill:#000000; fill-opacity:0.0;  stroke:#000000; stroke-width:0.000000; stroke-opacity:1;  stroke-linecap:round; stroke-linejoin:round;">
<svg:g>
</svg:g>
<svg:g>
</svg:g>
<svg:g>
</svg:g>
<svg:g>
</svg:g>
</svg:g> 
</svg:g><svg:g><svg:title>SVG Picture created as kicadBoard-B_Fab.svg date 2022/11/18 01:36:43 </svg:title>
  <svg:desc>Picture generated by PCBNEW </svg:desc>
<svg:g style="fill:#000000; fill-opacity:1.000000;stroke:#000000; stroke-opacity:1.000000; stroke-linecap:round; stroke-linejoin:round;" transform="translate(0 0) scale(1 1)">
</svg:g>
<svg:g style="fill:#000000; fill-opacity:0.0;  stroke:#000000; stroke-width:0.000000; stroke-opacity:1;  stroke-linecap:round; stroke-linejoin:round;">
<svg:g>
</svg:g>
<svg:g>
</svg:g>
<svg:g>
</svg:g>
<svg:g>
</svg:g>
</svg:g>
<svg:g style="fill:#000000; fill-opacity:0.0;  stroke:#000000; stroke-width:0.000000; stroke-opacity:1;  stroke-linecap:round; stroke-linejoin:round;">
<svg:g>
</svg:g>
<svg:g>
</svg:g>
<svg:g>
</svg:g>
<svg:g>
</svg:g>
</svg:g> 
</svg:g><svg:g><svg:title>SVG Picture created as kicadBoard-B_Mask.svg date 2022/11/18 01:36:43 </svg:title>
  <svg:desc>Picture generated by PCBNEW </svg:desc>
<svg:g style="fill:#000000; fill-opacity:1.000000;stroke:#000000; stroke-opacity:1.000000; stroke-linecap:round; stroke-linejoin:round;" transform="translate(0 0) scale(1 1)">
</svg:g>
<svg:g style="fill:#000000; fill-opacity:0.0;  stroke:#000000; stroke-width:0.000000; stroke-opacity:1;  stroke-linecap:round; stroke-linejoin:round;">
<svg:g>
</svg:g>
<svg:g>
</svg:g>
<svg:g>
</svg:g>
<svg:g>
</svg:g>
</svg:g>
<svg:g style="fill:#000000; fill-opacity:0.0;  stroke:#000000; stroke-width:0.000000; stroke-opacity:1;  stroke-linecap:round; stroke-linejoin:round;">
<svg:g>
</svg:g>
<svg:g>
</svg:g>
<svg:g>
</svg:g>
<svg:g>
</svg:g>
</svg:g> 
</svg:g><svg:g><svg:title>SVG Picture created as kicadBoard-B_Paste.svg date 2022/11/18 01:36:43 </svg:title>
  <svg:desc>Picture generated by PCBNEW </svg:desc>
<svg:g style="fill:#000000; fill-opacity:1.000000;stroke:#000000; stroke-opacity:1.000000; stroke-linecap:round; stroke-linejoin:round;" transform="translate(0 0) scale(1 1)">
</svg:g>
<svg:g style="fill:#000000; fill-opacity:0.0;  stroke:#000000; stroke-width:0.000000; stroke-opacity:1;  stroke-linecap:round; stroke-linejoin:round;">
<svg:g>
</svg:g>
<svg:g>
</svg:g>
<svg:g>
</svg:g>
<svg:g>
</svg:g>
</svg:g>
<svg:g style="fill:#000000; fill-opacity:0.0;  stroke:#000000; stroke-width:0.000000; stroke-opacity:1;  stroke-linecap:round; stroke-linejoin:round;">
<svg:g>
</svg:g>
<svg:g>
</svg:g>
<svg:g>
</svg:g>
<svg:g>
</svg:g>
</svg:g> 
</svg:g><svg:g><svg:title>SVG Picture created as kicadBoard-B_Silkscreen.svg date 2022/11/18 01:36:43 </svg:title>
  <svg:desc>Picture generated by PCBNEW </svg:desc>
<svg:g style="fill:#000000; fill-opacity:1.000000;stroke:#000000; stroke-opacity:1.000000; stroke-linecap:round; stroke-linejoin:round;" transform="translate(0 0) scale(1 1)">
</svg:g>
<svg:g style="fill:#000000; fill-opacity:0.0;  stroke:#000000; stroke-width:0.000000; stroke-opacity:1;  stroke-linecap:round; stroke-linejoin:round;">
<svg:g>
</svg:g>
<svg:g>
</svg:g>
<svg:g>
</svg:g>
<svg:g>
</svg:g>
</svg:g>
<svg:g style="fill:#000000; fill-opacity:0.0;  stroke:#000000; stroke-width:0.000000; stroke-opacity:1;  stroke-linecap:round; stroke-linejoin:round;">
<svg:g>
</svg:g>
<svg:g>
</svg:g>
<svg:g>
</svg:g>
<svg:g>
</svg:g>
</svg:g> 
</svg:g><svg:g><svg:title>SVG Picture created as kicadBoard-Edge_Cuts.svg date 2022/11/18 01:36:43 </svg:title>
  <svg:desc>Picture generated by PCBNEW </svg:desc>
<svg:g style="fill:#000000; fill-opacity:1.000000;stroke:#000000; stroke-opacity:1.000000; stroke-linecap:round; stroke-linejoin:round;" transform="translate(0 0) scale(1 1)">
</svg:g>
<svg:g style="fill:#000000; fill-opacity:0.0;  stroke:#000000; stroke-width:0.000000; stroke-opacity:1;  stroke-linecap:round; stroke-linejoin:round;">
<svg:g>
</svg:g>
<svg:g>
</svg:g>
<svg:g>
</svg:g>
<svg:g>
</svg:g>
</svg:g> 
</svg:g><svg:g><svg:title>SVG Picture created as kicadBoard-F_Adhesive.svg date 2022/11/18 01:36:43 </svg:title>
  <svg:desc>Picture generated by PCBNEW </svg:desc>
<svg:g style="fill:#000000; fill-opacity:1.000000;stroke:#000000; stroke-opacity:1.000000; stroke-linecap:round; stroke-linejoin:round;" transform="translate(0 0) scale(1 1)">
</svg:g>
<svg:g style="fill:#000000; fill-opacity:0.0;  stroke:#000000; stroke-width:0.000000; stroke-opacity:1;  stroke-linecap:round; stroke-linejoin:round;">
<svg:g>
</svg:g>
<svg:g>
</svg:g>
<svg:g>
</svg:g>
<svg:g>
</svg:g>
</svg:g>
<svg:g style="fill:#000000; fill-opacity:0.0;  stroke:#000000; stroke-width:0.000000; stroke-opacity:1;  stroke-linecap:round; stroke-linejoin:round;">
<svg:g>
</svg:g>
<svg:g>
</svg:g>
<svg:g>
</svg:g>
<svg:g>
</svg:g>
</svg:g> 
</svg:g><svg:g><svg:title>SVG Picture created as kicadBoard-F_Courtyard.svg date 2022/11/18 01:36:43 </svg:title>
  <svg:desc>Picture generated by PCBNEW </svg:desc>
<svg:g style="fill:#000000; fill-opacity:1.000000;stroke:#000000; stroke-opacity:1.000000; stroke-linecap:round; stroke-linejoin:round;" transform="translate(0 0) scale(1 1)">
</svg:g>
<svg:g style="fill:#000000; fill-opacity:0.0;  stroke:#000000; stroke-width:0.000000; stroke-opacity:1;  stroke-linecap:round; stroke-linejoin:round;">
</svg:g>
<svg:g style="fill:#FF26E2; fill-opacity:0.0;  stroke:#FF26E2; stroke-width:0.000000; stroke-opacity:1;  stroke-linecap:round; stroke-linejoin:round;">
</svg:g>
<svg:g style="fill:#FF26E2; fill-opacity:0.0;  stroke:#FF26E2; stroke-width:50000.000000; stroke-opacity:1;  stroke-linecap:round; stroke-linejoin:round;">
<svg:path d="M54400000 46400000 L45600000 46400000 "/>
<svg:path d="M54400000 53600000 L54400000 46400000 "/>
<svg:path d="M45600000 46400000 L45600000 53600000 "/>
<svg:path d="M45600000 53600000 L54400000 53600000 "/>
<svg:g>
</svg:g>
<svg:g>
</svg:g>
<svg:g>
</svg:g>
<svg:g>
</svg:g>
</svg:g>
<svg:g style="fill:#000000; fill-opacity:0.0;  stroke:#000000; stroke-width:50000.000000; stroke-opacity:1;  stroke-linecap:round; stroke-linejoin:round;">
<svg:g>
</svg:g>
<svg:g>
</svg:g>
<svg:g>
</svg:g>
<svg:g>
</svg:g>
</svg:g> 
</svg:g><svg:g><svg:title>SVG Picture created as kicadBoard-F_Cu.svg date 2022/11/18 01:36:43 </svg:title>
  <svg:desc>Picture generated by PCBNEW </svg:desc>
<svg:g style="fill:#000000; fill-opacity:1.000000;stroke:#000000; stroke-opacity:1.000000; stroke-linecap:round; stroke-linejoin:round;" transform="translate(0 0) scale(1 1)">
</svg:g>
<svg:g style="fill:#000000; fill-opacity:0.0;  stroke:#000000; stroke-width:0.000000; stroke-opacity:1;  stroke-linecap:round; stroke-linejoin:round;">
<svg:g>
</svg:g>
<svg:g style="fill:#C83434; fill-opacity:0.0;  stroke:#C83434; stroke-width:0.000000; stroke-opacity:1;  stroke-linecap:round; stroke-linejoin:round;">
</svg:g>
<svg:g style="fill:#C83434; fill-opacity:0.0;  stroke:#C83434; stroke-width:1.000000; stroke-opacity:1;  stroke-linecap:round; stroke-linejoin:round;">
</svg:g>
<svg:g style="fill:#C83434; fill-opacity:1.0;  stroke:#C83434; stroke-width:1.000000; stroke-opacity:1;  stroke-linecap:round; stroke-linejoin:round;">
<svg:path style="fill:#C83434; fill-opacity:1.0;  stroke:#C83434; stroke-width:1.000000; stroke-opacity:1;  stroke-linecap:round; stroke-linejoin:round;fill-rule:evenodd;" d="M 45850000.000000,48450000.000000 45850000.000000,46950000.000000 47850000.000000,46950000.000000 47850000.000000,48450000.000000 Z"/> 
<svg:path style="fill:#C83434; fill-opacity:1.0;  stroke:#C83434; stroke-width:1.000000; stroke-opacity:1;  stroke-linecap:round; stroke-linejoin:round;fill-rule:evenodd;" d="M 45850000.000000,50750000.000000 45850000.000000,49250000.000000 47850000.000000,49250000.000000 47850000.000000,50750000.000000 Z"/> 
<svg:path style="fill:#C83434; fill-opacity:1.0;  stroke:#C83434; stroke-width:1.000000; stroke-opacity:1;  stroke-linecap:round; stroke-linejoin:round;fill-rule:evenodd;" d="M 45850000.000000,53050000.000000 45850000.000000,51550000.000000 47850000.000000,51550000.000000 47850000.000000,53050000.000000 Z"/> 
<svg:path style="fill:#C83434; fill-opacity:1.0;  stroke:#C83434; stroke-width:1.000000; stroke-opacity:1;  stroke-linecap:round; stroke-linejoin:round;fill-rule:evenodd;" d="M 52150000.000000,51900000.000000 52150000.000000,48100000.000000 54150000.000000,48100000.000000 54150000.000000,51900000.000000 Z"/> 
</svg:g>
<svg:g>
</svg:g>
<svg:g>
</svg:g>
<svg:g>
</svg:g>
</svg:g>
<svg:g style="fill:#FFFFFF; fill-opacity:1.0;  stroke:#FFFFFF; stroke-width:1.000000; stroke-opacity:1;  stroke-linecap:round; stroke-linejoin:round;">
</svg:g>
<svg:g style="fill:#000000; fill-opacity:1.0;  stroke:#000000; stroke-width:1.000000; stroke-opacity:1;  stroke-linecap:round; stroke-linejoin:round;">
<svg:g>
</svg:g>
<svg:g>
</svg:g>
<svg:g>
</svg:g>
<svg:g>
</svg:g>
</svg:g> 
</svg:g><svg:g><svg:title>SVG Picture created as kicadBoard-F_Fab.svg date 2022/11/18 01:36:43 </svg:title>
  <svg:desc>Picture generated by PCBNEW </svg:desc>
<svg:g style="fill:#000000; fill-opacity:1.000000;stroke:#000000; stroke-opacity:1.000000; stroke-linecap:round; stroke-linejoin:round;" transform="translate(0 0) scale(1 1)">
</svg:g>
<svg:g style="fill:#000000; fill-opacity:0.0;  stroke:#000000; stroke-width:0.000000; stroke-opacity:1;  stroke-linecap:round; stroke-linejoin:round;">
</svg:g>
<svg:g style="fill:#AFAFAF; fill-opacity:0.0;  stroke:#AFAFAF; stroke-width:0.000000; stroke-opacity:1;  stroke-linecap:round; stroke-linejoin:round;">
</svg:g>
<svg:g style="fill:#AFAFAF; fill-opacity:0.0;  stroke:#AFAFAF; stroke-width:150000.000000; stroke-opacity:1;  stroke-linecap:round; stroke-linejoin:round;">
<svg:text x="50000000.000000" y="55000000.000000" textLength="7052143.000000" font-size="1333333.000000" lengthAdjust="spacingAndGlyphs" text-anchor="middle" opacity="0">SOT-223</svg:text>
<svg:g class="stroked-text"><svg:desc>SOT-223</svg:desc>
<svg:path d="M46761904 54904761 L46904761 54952380 L47142857 54952380 L47238095 54904761 L47285714 54857142 L47333333 54761904 L47333333 54666666 L47285714 54571428 L47238095 54523809 L47142857 54476190 L46952380 54428571 L46857142 54380952 L46809523 54333333 L46761904 54238095 L46761904 54142857 L46809523 54047619 L46857142 54000000 L46952380 53952380 L47190476 53952380 L47333333 54000000 "/>
<svg:path d="M47952380 53952380 L48142857 53952380 L48238095 54000000 L48333333 54095238 L48380952 54285714 L48380952 54619047 L48333333 54809523 L48238095 54904761 L48142857 54952380 L47952380 54952380 L47857142 54904761 L47761904 54809523 L47714285 54619047 L47714285 54285714 L47761904 54095238 L47857142 54000000 L47952380 53952380 "/>
<svg:path d="M48666666 53952380 L49238095 53952380 "/>
<svg:path d="M48952380 54952380 L48952380 53952380 "/>
<svg:path d="M49571428 54571428 L50333333 54571428 "/>
<svg:path d="M50761904 54047619 L50809523 54000000 L50904761 53952380 L51142857 53952380 L51238095 54000000 L51285714 54047619 L51333333 54142857 L51333333 54238095 L51285714 54380952 L50714285 54952380 L51333333 54952380 "/>
<svg:path d="M51714285 54047619 L51761904 54000000 L51857142 53952380 L52095238 53952380 L52190476 54000000 L52238095 54047619 L52285714 54142857 L52285714 54238095 L52238095 54380952 L51666666 54952380 L52285714 54952380 "/>
<svg:path d="M52619047 53952380 L53238095 53952380 L52904761 54333333 L53047619 54333333 L53142857 54380952 L53190476 54428571 L53238095 54523809 L53238095 54761904 L53190476 54857142 L53142857 54904761 L53047619 54952380 L52761904 54952380 L52666666 54904761 L52619047 54857142 "/>
</svg:g></svg:g>
<svg:g style="fill:#AFAFAF; fill-opacity:0.0;  stroke:#AFAFAF; stroke-width:120000.000000; stroke-opacity:1;  stroke-linecap:round; stroke-linejoin:round;">
<svg:g transform="rotate(-90.000000 50000000.000000 50000000.000000)">
<svg:text x="50000000.000000" y="50400000.000000" textLength="9147381.000000" font-size="1066666.000000" lengthAdjust="spacingAndGlyphs" text-anchor="middle" opacity="0">FZKSOTSOT223</svg:text>
</svg:g>
<svg:g class="stroked-text"><svg:desc>FZKSOTSOT223</svg:desc>
<svg:path d="M49942857 54019047 L49942857 54285714 "/>
<svg:path d="M50361904 54285714 L49561904 54285714 L49561904 53904761 "/>
<svg:path d="M49561904 53676190 L49561904 53142857 L50361904 53676190 L50361904 53142857 "/>
<svg:path d="M50361904 52838095 L49561904 52838095 "/>
<svg:path d="M50361904 52380952 L49904761 52723809 "/>
<svg:path d="M49561904 52380952 L50019047 52838095 "/>
<svg:path d="M50323809 52076190 L50361904 51961904 L50361904 51771428 L50323809 51695238 L50285714 51657142 L50209523 51619047 L50133333 51619047 L50057142 51657142 L50019047 51695238 L49980952 51771428 L49942857 51923809 L49904761 52000000 L49866666 52038095 L49790476 52076190 L49714285 52076190 L49638095 52038095 L49600000 52000000 L49561904 51923809 L49561904 51733333 L49600000 51619047 "/>
<svg:path d="M49561904 51123809 L49561904 50971428 L49600000 50895238 L49676190 50819047 L49828571 50780952 L50095238 50780952 L50247619 50819047 L50323809 50895238 L50361904 50971428 L50361904 51123809 L50323809 51200000 L50247619 51276190 L50095238 51314285 L49828571 51314285 L49676190 51276190 L49600000 51200000 L49561904 51123809 "/>
<svg:path d="M49561904 50552380 L49561904 50095238 "/>
<svg:path d="M50361904 50323809 L49561904 50323809 "/>
<svg:path d="M50323809 49866666 L50361904 49752380 L50361904 49561904 L50323809 49485714 L50285714 49447619 L50209523 49409523 L50133333 49409523 L50057142 49447619 L50019047 49485714 L49980952 49561904 L49942857 49714285 L49904761 49790476 L49866666 49828571 L49790476 49866666 L49714285 49866666 L49638095 49828571 L49600000 49790476 L49561904 49714285 L49561904 49523809 L49600000 49409523 "/>
<svg:path d="M49561904 48914285 L49561904 48761904 L49600000 48685714 L49676190 48609523 L49828571 48571428 L50095238 48571428 L50247619 48609523 L50323809 48685714 L50361904 48761904 L50361904 48914285 L50323809 48990476 L50247619 49066666 L50095238 49104761 L49828571 49104761 L49676190 49066666 L49600000 48990476 L49561904 48914285 "/>
<svg:path d="M49561904 48342857 L49561904 47885714 "/>
<svg:path d="M50361904 48114285 L49561904 48114285 "/>
<svg:path d="M49638095 47657142 L49600000 47619047 L49561904 47542857 L49561904 47352380 L49600000 47276190 L49638095 47238095 L49714285 47200000 L49790476 47200000 L49904761 47238095 L50361904 47695238 L50361904 47200000 "/>
<svg:path d="M49638095 46895238 L49600000 46857142 L49561904 46780952 L49561904 46590476 L49600000 46514285 L49638095 46476190 L49714285 46438095 L49790476 46438095 L49904761 46476190 L50361904 46933333 L50361904 46438095 "/>
<svg:path d="M49561904 46171428 L49561904 45676190 L49866666 45942857 L49866666 45828571 L49904761 45752380 L49942857 45714285 L50019047 45676190 L50209523 45676190 L50285714 45714285 L50323809 45752380 L50361904 45828571 L50361904 46057142 L50323809 46133333 L50285714 46171428 "/>
</svg:g></svg:g>
<svg:g style="fill:#AFAFAF; fill-opacity:0.0;  stroke:#AFAFAF; stroke-width:100000.000000; stroke-opacity:1;  stroke-linecap:round; stroke-linejoin:round;">
<svg:path d="M48150000 47700000 L48150000 53350000 "/>
<svg:path d="M49200000 46650000 L51850000 46650000 "/>
<svg:path d="M51850000 46650000 L51850000 53350000 "/>
<svg:path d="M48150000 47700000 L49200000 46650000 "/>
<svg:path d="M48150000 53350000 L51850000 53350000 "/>
<svg:g>
</svg:g>
<svg:g>
</svg:g>
<svg:g>
</svg:g>
<svg:g>
</svg:g>
</svg:g>
<svg:g style="fill:#000000; fill-opacity:0.0;  stroke:#000000; stroke-width:100000.000000; stroke-opacity:1;  stroke-linecap:round; stroke-linejoin:round;">
<svg:g>
</svg:g>
<svg:g>
</svg:g>
<svg:g>
</svg:g>
<svg:g>
</svg:g>
</svg:g> 
</svg:g><svg:g><svg:title>SVG Picture created as kicadBoard-F_Mask.svg date 2022/11/18 01:36:43 </svg:title>
  <svg:desc>Picture generated by PCBNEW </svg:desc>
<svg:g style="fill:#000000; fill-opacity:1.000000;stroke:#000000; stroke-opacity:1.000000; stroke-linecap:round; stroke-linejoin:round;" transform="translate(0 0) scale(1 1)">
</svg:g>
<svg:g style="fill:#000000; fill-opacity:0.0;  stroke:#000000; stroke-width:0.000000; stroke-opacity:1;  stroke-linecap:round; stroke-linejoin:round;">
<svg:g>
</svg:g>
<svg:g style="fill:#000000; fill-opacity:0.0;  stroke:#000000; stroke-width:1.000000; stroke-opacity:1;  stroke-linecap:round; stroke-linejoin:round;">
</svg:g>
<svg:g style="fill:#000000; fill-opacity:1.0;  stroke:#000000; stroke-width:1.000000; stroke-opacity:1;  stroke-linecap:round; stroke-linejoin:round;">
<svg:path style="fill:#000000; fill-opacity:1.0;  stroke:#000000; stroke-width:1.000000; stroke-opacity:1;  stroke-linecap:round; stroke-linejoin:round;fill-rule:evenodd;" d="M 45850000.000000,48450000.000000 45850000.000000,46950000.000000 47850000.000000,46950000.000000 47850000.000000,48450000.000000 Z"/> 
<svg:path style="fill:#000000; fill-opacity:1.0;  stroke:#000000; stroke-width:1.000000; stroke-opacity:1;  stroke-linecap:round; stroke-linejoin:round;fill-rule:evenodd;" d="M 45850000.000000,50750000.000000 45850000.000000,49250000.000000 47850000.000000,49250000.000000 47850000.000000,50750000.000000 Z"/> 
<svg:path style="fill:#000000; fill-opacity:1.0;  stroke:#000000; stroke-width:1.000000; stroke-opacity:1;  stroke-linecap:round; stroke-linejoin:round;fill-rule:evenodd;" d="M 45850000.000000,53050000.000000 45850000.000000,51550000.000000 47850000.000000,51550000.000000 47850000.000000,53050000.000000 Z"/> 
<svg:path style="fill:#000000; fill-opacity:1.0;  stroke:#000000; stroke-width:1.000000; stroke-opacity:1;  stroke-linecap:round; stroke-linejoin:round;fill-rule:evenodd;" d="M 52150000.000000,51900000.000000 52150000.000000,48100000.000000 54150000.000000,48100000.000000 54150000.000000,51900000.000000 Z"/> 
</svg:g>
<svg:g>
</svg:g>
<svg:g>
</svg:g>
<svg:g>
</svg:g>
</svg:g>
<svg:g style="fill:#000000; fill-opacity:1.0;  stroke:#000000; stroke-width:1.000000; stroke-opacity:1;  stroke-linecap:round; stroke-linejoin:round;">
<svg:g>
</svg:g>
<svg:g>
</svg:g>
<svg:g>
</svg:g>
<svg:g>
</svg:g>
</svg:g> 
</svg:g><svg:g><svg:title>SVG Picture created as kicadBoard-F_Paste.svg date 2022/11/18 01:36:43 </svg:title>
  <svg:desc>Picture generated by PCBNEW </svg:desc>
<svg:g style="fill:#000000; fill-opacity:1.000000;stroke:#000000; stroke-opacity:1.000000; stroke-linecap:round; stroke-linejoin:round;" transform="translate(0 0) scale(1 1)">
</svg:g>
<svg:g style="fill:#000000; fill-opacity:0.0;  stroke:#000000; stroke-width:0.000000; stroke-opacity:1;  stroke-linecap:round; stroke-linejoin:round;">
<svg:g>
</svg:g>
<svg:g style="fill:#000000; fill-opacity:0.0;  stroke:#000000; stroke-width:1.000000; stroke-opacity:1;  stroke-linecap:round; stroke-linejoin:round;">
</svg:g>
<svg:g style="fill:#000000; fill-opacity:1.0;  stroke:#000000; stroke-width:1.000000; stroke-opacity:1;  stroke-linecap:round; stroke-linejoin:round;">
<svg:path style="fill:#000000; fill-opacity:1.0;  stroke:#000000; stroke-width:1.000000; stroke-opacity:1;  stroke-linecap:round; stroke-linejoin:round;fill-rule:evenodd;" d="M 45850000.000000,48450000.000000 45850000.000000,46950000.000000 47850000.000000,46950000.000000 47850000.000000,48450000.000000 Z"/> 
<svg:path style="fill:#000000; fill-opacity:1.0;  stroke:#000000; stroke-width:1.000000; stroke-opacity:1;  stroke-linecap:round; stroke-linejoin:round;fill-rule:evenodd;" d="M 45850000.000000,50750000.000000 45850000.000000,49250000.000000 47850000.000000,49250000.000000 47850000.000000,50750000.000000 Z"/> 
<svg:path style="fill:#000000; fill-opacity:1.0;  stroke:#000000; stroke-width:1.000000; stroke-opacity:1;  stroke-linecap:round; stroke-linejoin:round;fill-rule:evenodd;" d="M 45850000.000000,53050000.000000 45850000.000000,51550000.000000 47850000.000000,51550000.000000 47850000.000000,53050000.000000 Z"/> 
<svg:path style="fill:#000000; fill-opacity:1.0;  stroke:#000000; stroke-width:1.000000; stroke-opacity:1;  stroke-linecap:round; stroke-linejoin:round;fill-rule:evenodd;" d="M 52150000.000000,51900000.000000 52150000.000000,48100000.000000 54150000.000000,48100000.000000 54150000.000000,51900000.000000 Z"/> 
</svg:g>
<svg:g>
</svg:g>
<svg:g>
</svg:g>
<svg:g>
</svg:g>
</svg:g>
<svg:g style="fill:#000000; fill-opacity:1.0;  stroke:#000000; stroke-width:1.000000; stroke-opacity:1;  stroke-linecap:round; stroke-linejoin:round;">
<svg:g>
</svg:g>
<svg:g>
</svg:g>
<svg:g>
</svg:g>
<svg:g>
</svg:g>
</svg:g> 
</svg:g><svg:g><svg:title>SVG Picture created as kicadBoard-F_Silkscreen.svg date 2022/11/18 01:36:43 </svg:title>
  <svg:desc>Picture generated by PCBNEW </svg:desc>
<svg:g style="fill:#000000; fill-opacity:1.000000;stroke:#000000; stroke-opacity:1.000000; stroke-linecap:round; stroke-linejoin:round;" transform="translate(0 0) scale(1 1)">
</svg:g>
<svg:g style="fill:#000000; fill-opacity:0.0;  stroke:#000000; stroke-width:0.000000; stroke-opacity:1;  stroke-linecap:round; stroke-linejoin:round;">
</svg:g>
<svg:g style="fill:#F2EDA1; fill-opacity:0.0;  stroke:#F2EDA1; stroke-width:0.000000; stroke-opacity:1;  stroke-linecap:round; stroke-linejoin:round;">
</svg:g>
<svg:g style="fill:#F2EDA1; fill-opacity:0.0;  stroke:#F2EDA1; stroke-width:150000.000000; stroke-opacity:1;  stroke-linecap:round; stroke-linejoin:round;">
<svg:text x="50000000.000000" y="46000000.000000" textLength="11190477.000000" font-size="1333333.000000" lengthAdjust="spacingAndGlyphs" text-anchor="middle" opacity="0">FZKSOTSOT223</svg:text>
<svg:g class="stroked-text"><svg:desc>FZKSOTSOT223</svg:desc>
<svg:path d="M44976190 45428571 L44642857 45428571 "/>
<svg:path d="M44642857 45952380 L44642857 44952380 L45119047 44952380 "/>
<svg:path d="M45404761 44952380 L46071428 44952380 L45404761 45952380 L46071428 45952380 "/>
<svg:path d="M46452380 45952380 L46452380 44952380 "/>
<svg:path d="M47023809 45952380 L46595238 45380952 "/>
<svg:path d="M47023809 44952380 L46452380 45523809 "/>
<svg:path d="M47404761 45904761 L47547619 45952380 L47785714 45952380 L47880952 45904761 L47928571 45857142 L47976190 45761904 L47976190 45666666 L47928571 45571428 L47880952 45523809 L47785714 45476190 L47595238 45428571 L47500000 45380952 L47452380 45333333 L47404761 45238095 L47404761 45142857 L47452380 45047619 L47500000 45000000 L47595238 44952380 L47833333 44952380 L47976190 45000000 "/>
<svg:path d="M48595238 44952380 L48785714 44952380 L48880952 45000000 L48976190 45095238 L49023809 45285714 L49023809 45619047 L48976190 45809523 L48880952 45904761 L48785714 45952380 L48595238 45952380 L48500000 45904761 L48404761 45809523 L48357142 45619047 L48357142 45285714 L48404761 45095238 L48500000 45000000 L48595238 44952380 "/>
<svg:path d="M49309523 44952380 L49880952 44952380 "/>
<svg:path d="M49595238 45952380 L49595238 44952380 "/>
<svg:path d="M50166666 45904761 L50309523 45952380 L50547619 45952380 L50642857 45904761 L50690476 45857142 L50738095 45761904 L50738095 45666666 L50690476 45571428 L50642857 45523809 L50547619 45476190 L50357142 45428571 L50261904 45380952 L50214285 45333333 L50166666 45238095 L50166666 45142857 L50214285 45047619 L50261904 45000000 L50357142 44952380 L50595238 44952380 L50738095 45000000 "/>
<svg:path d="M51357142 44952380 L51547619 44952380 L51642857 45000000 L51738095 45095238 L51785714 45285714 L51785714 45619047 L51738095 45809523 L51642857 45904761 L51547619 45952380 L51357142 45952380 L51261904 45904761 L51166666 45809523 L51119047 45619047 L51119047 45285714 L51166666 45095238 L51261904 45000000 L51357142 44952380 "/>
<svg:path d="M52071428 44952380 L52642857 44952380 "/>
<svg:path d="M52357142 45952380 L52357142 44952380 "/>
<svg:path d="M52928571 45047619 L52976190 45000000 L53071428 44952380 L53309523 44952380 L53404761 45000000 L53452380 45047619 L53500000 45142857 L53500000 45238095 L53452380 45380952 L52880952 45952380 L53500000 45952380 "/>
<svg:path d="M53880952 45047619 L53928571 45000000 L54023809 44952380 L54261904 44952380 L54357142 45000000 L54404761 45047619 L54452380 45142857 L54452380 45238095 L54404761 45380952 L53833333 45952380 L54452380 45952380 "/>
<svg:path d="M54785714 44952380 L55404761 44952380 L55071428 45333333 L55214285 45333333 L55309523 45380952 L55357142 45428571 L55404761 45523809 L55404761 45761904 L55357142 45857142 L55309523 45904761 L55214285 45952380 L54928571 45952380 L54833333 45904761 L54785714 45857142 "/>
</svg:g></svg:g>
<svg:g style="fill:#F2EDA1; fill-opacity:0.0;  stroke:#F2EDA1; stroke-width:120000.000000; stroke-opacity:1;  stroke-linecap:round; stroke-linejoin:round;">
<svg:path d="M45900000 46590000 L51910000 46590000 "/>
<svg:path d="M51910000 46590000 L51910000 47850000 "/>
<svg:path d="M51910000 53410000 L51910000 52150000 "/>
<svg:path d="M48150000 53410000 L51910000 53410000 "/>
<svg:g>
</svg:g>
<svg:g>
</svg:g>
<svg:g>
</svg:g>
<svg:g>
</svg:g>
</svg:g>
<svg:g style="fill:#000000; fill-opacity:0.0;  stroke:#000000; stroke-width:120000.000000; stroke-opacity:1;  stroke-linecap:round; stroke-linejoin:round;">
<svg:g>
</svg:g>
<svg:g>
</svg:g>
<svg:g>
</svg:g>
<svg:g>
</svg:g>
</svg:g> 
</svg:g><svg:g><svg:title>SVG Picture created as kicadBoard-Margin.svg date 2022/11/18 01:36:43 </svg:title>
  <svg:desc>Picture generated by PCBNEW </svg:desc>
<svg:g style="fill:#000000; fill-opacity:1.000000;stroke:#000000; stroke-opacity:1.000000; stroke-linecap:round; stroke-linejoin:round;" transform="translate(0 0) scale(1 1)">
</svg:g>
<svg:g style="fill:#000000; fill-opacity:0.0;  stroke:#000000; stroke-width:0.000000; stroke-opacity:1;  stroke-linecap:round; stroke-linejoin:round;">
<svg:g>
</svg:g>
<svg:g>
</svg:g>
<svg:g>
</svg:g>
<svg:g>
</svg:g>
</svg:g>
<svg:g style="fill:#000000; fill-opacity:0.0;  stroke:#000000; stroke-width:0.000000; stroke-opacity:1;  stroke-linecap:round; stroke-linejoin:round;">
<svg:g>
</svg:g>
<svg:g>
</svg:g>
<svg:g>
</svg:g>
<svg:g>
</svg:g>
</svg:g> 
</svg:g><svg:g><svg:title>SVG Picture created as kicadBoard-F_Cu.svg date 2022/11/18 01:36:43 </svg:title>
  <svg:desc>Picture generated by PCBNEW </svg:desc>
<svg:g style="fill:#000000; fill-opacity:1.000000;stroke:#000000; stroke-opacity:1.000000; stroke-linecap:round; stroke-linejoin:round;" transform="translate(0 0) scale(1 1)">
</svg:g>
<svg:g style="fill:#000000; fill-opacity:0.0;  stroke:#000000; stroke-width:0.000000; stroke-opacity:1;  stroke-linecap:round; stroke-linejoin:round;">
<svg:g>
</svg:g>
<svg:g style="fill:#C83434; fill-opacity:0.0;  stroke:#C83434; stroke-width:0.000000; stroke-opacity:1;  stroke-linecap:round; stroke-linejoin:round;">
</svg:g>
<svg:g style="fill:#C83434; fill-opacity:0.0;  stroke:#C83434; stroke-width:1.000000; stroke-opacity:1;  stroke-linecap:round; stroke-linejoin:round;">
</svg:g>
<svg:g style="fill:#C83434; fill-opacity:1.0;  stroke:#C83434; stroke-width:1.000000; stroke-opacity:1;  stroke-linecap:round; stroke-linejoin:round;">
<svg:path style="fill:#C83434; fill-opacity:1.0;  stroke:#C83434; stroke-width:1.000000; stroke-opacity:1;  stroke-linecap:round; stroke-linejoin:round;fill-rule:evenodd;" d="M 45850000.000000,48450000.000000 45850000.000000,46950000.000000 47850000.000000,46950000.000000 47850000.000000,48450000.000000 Z"/> 
<svg:path style="fill:#C83434; fill-opacity:1.0;  stroke:#C83434; stroke-width:1.000000; stroke-opacity:1;  stroke-linecap:round; stroke-linejoin:round;fill-rule:evenodd;" d="M 45850000.000000,50750000.000000 45850000.000000,49250000.000000 47850000.000000,49250000.000000 47850000.000000,50750000.000000 Z"/> 
<svg:path style="fill:#C83434; fill-opacity:1.0;  stroke:#C83434; stroke-width:1.000000; stroke-opacity:1;  stroke-linecap:round; stroke-linejoin:round;fill-rule:evenodd;" d="M 45850000.000000,53050000.000000 45850000.000000,51550000.000000 47850000.000000,51550000.000000 47850000.000000,53050000.000000 Z"/> 
<svg:path style="fill:#C83434; fill-opacity:1.0;  stroke:#C83434; stroke-width:1.000000; stroke-opacity:1;  stroke-linecap:round; stroke-linejoin:round;fill-rule:evenodd;" d="M 52150000.000000,51900000.000000 52150000.000000,48100000.000000 54150000.000000,48100000.000000 54150000.000000,51900000.000000 Z"/> 
</svg:g>
<svg:g>
</svg:g>
<svg:g>
</svg:g>
<svg:g>
</svg:g>
</svg:g>
<svg:g style="fill:#FFFFFF; fill-opacity:1.0;  stroke:#FFFFFF; stroke-width:1.000000; stroke-opacity:1;  stroke-linecap:round; stroke-linejoin:round;">
</svg:g>
<svg:g style="fill:#000000; fill-opacity:1.0;  stroke:#000000; stroke-width:1.000000; stroke-opacity:1;  stroke-linecap:round; stroke-linejoin:round;">
<svg:g>
</svg:g>
<svg:g>
</svg:g>
<svg:g>
</svg:g>
<svg:g>
</svg:g>
</svg:g> 
</svg:g></svg>
